<?xml version="1.0" standalone="no"?>
<!DOCTYPE svg PUBLIC "-//W3C//DTD SVG 1.1//EN" "http://www.w3.org/Graphics/SVG/1.1/DTD/svg11.dtd" >
<svg xmlns="http://www.w3.org/2000/svg" xmlns:xlink="http://www.w3.org/1999/xlink" version="1.1">
<metadata>
Created by FontForge 20201107 at Sun Oct  4 18:29:05 2009
 By www-data
Typeface (c) (mo.da.). 2007. All Rights Reserved
</metadata>
<defs>
<font id="acogessic" horiz-adv-x="1139" >
  <font-face 
    font-family="acogessic"
    font-weight="400"
    font-stretch="normal"
    units-per-em="2048"
    panose-1="2 0 0 0 0 0 0 0 0 0"
    ascent="1638"
    descent="-410"
    x-height="993"
    cap-height="1791"
    bbox="-728.126 -651 4082 1904"
    underline-thickness="150"
    underline-position="-292"
    unicode-range="U+0020-2122"
  />
<missing-glyph horiz-adv-x="1536" 
d="M256 0v1280h1024v-1280h-1024zM288 32h960v1216h-960v-1216z" />
    <glyph glyph-name=".notdef" horiz-adv-x="1536" 
d="M256 0v1280h1024v-1280h-1024zM288 32h960v1216h-960v-1216z" />
    <glyph glyph-name=".null" horiz-adv-x="0" 
 />
    <glyph glyph-name="nonmarkingreturn" horiz-adv-x="569" 
 />
    <glyph glyph-name="space" unicode=" " horiz-adv-x="569" 
 />
    <glyph glyph-name="space" unicode="&#xa0;" horiz-adv-x="569" 
 />
    <glyph glyph-name="exclam" unicode="!" horiz-adv-x="243" 
d="M125 1725l80 -1141l-125 -9l-80 1141zM185 1727v-1144h-125v1144h125zM180 1422v-1144h-125v1144h125zM240 1696l-80 -1141l-125 9l80 1141zM111 213q23 0 45.5 -12t35 -34.5t12.5 -46.5t-12.5 -46t-34.5 -34.5t-46 -12.5t-46 12.5t-34.5 34.5t-12.5 46t12.5 46.5
t34.5 34.5t46 12z" />
    <glyph glyph-name="quotedbl" unicode="&#x22;" horiz-adv-x="286" 
d="M115 1408l-2 -16q-47 8 -70.5 37t-18.5 66q2 17 10.5 35.5t51.5 94.5q30 53 34 77q3 25 -10.5 45t-47.5 31l2 16q49 -8 72 -36.5t18 -61.5q-2 -16 -10 -32q-15 -37 -50 -95t-38 -83q-3 -27 12 -48t47 -30zM227 1403l-2 -16q-48 8 -71 37t-18 65q2 17 10 35.5t52 94.5
q30 54 33 77q4 26 -9.5 45.5t-47.5 31.5l2 16q49 -9 72 -37t18 -62q-2 -16 -10 -32q-15 -36 -50 -94.5t-38 -83.5q-4 -27 11.5 -48t47.5 -29zM135 1398l-2 -16q-47 8 -70.5 37t-18.5 66q2 17 10.5 35.5t51.5 94.5q30 53 34 77q3 25 -10.5 45t-47.5 31l2 16q49 -8 72 -36.5
t18 -61.5q-2 -16 -10 -32q-15 -37 -50 -95t-38 -83q-3 -27 12 -48t47 -30zM252 1388l-2 -16q-48 8 -71 37t-18 65q2 17 10 35.5t52 94.5q30 54 33 77q4 26 -9.5 45.5t-47.5 31.5l2 16q49 -9 72 -37t18 -62q-2 -16 -10 -32q-15 -36 -50 -94.5t-38 -83.5q-4 -27 11.5 -48
t47.5 -29zM115 1408l-2 -16q-47 8 -70.5 37t-18.5 66q2 17 10.5 35.5t51.5 94.5q30 53 34 77q3 25 -10.5 45t-47.5 31l2 16q49 -8 72 -36.5t18 -61.5q-2 -16 -10 -32q-15 -37 -50 -95t-38 -83q-3 -27 12 -48t47 -30zM227 1403l-2 -16q-48 8 -71 37t-18 65q2 17 10 35.5
t52 94.5q30 54 33 77q4 26 -9.5 45.5t-47.5 31.5l2 16q49 -9 72 -37t18 -62q-2 -16 -10 -32q-15 -36 -50 -94.5t-38 -83.5q-4 -27 11.5 -48t47.5 -29zM90 1408l-2 -16q-47 8 -70.5 37t-18.5 66q2 17 10.5 35.5t51.5 94.5q30 53 34 77q3 25 -10.5 45t-47.5 31l2 16
q49 -8 72 -36.5t18 -61.5q-2 -16 -10 -32q-15 -37 -50 -95t-38 -83q-3 -27 12 -48t47 -30zM202 1403l-2 -16q-48 8 -71 37t-18 65q2 17 10 35.5t52 94.5q30 54 33 77q4 26 -9.5 45.5t-47.5 31.5l2 16q49 -9 72 -37t18 -62q-2 -16 -10 -32q-15 -36 -50 -94.5t-38 -83.5
q-4 -27 11.5 -48t47.5 -29z" />
    <glyph glyph-name="numbersign" unicode="#" horiz-adv-x="1197" 
d="M580 1361l-246 -1010l-83 20l245 1010zM791 1352l-245 -1010l-84 21l245 1010zM15 827l1039 7v-87l-1038 -6zM93 1109l1039 7v-87l-1038 -6zM646 1347l-245 -1010l-84 21l245 1009zM874 1319l-245 -1010l-84 21l245 1009zM0 758l1128 6l1 -86l-1128 -6zM74 1040l1132 7
l1 -87l-1132 -6z" />
    <glyph glyph-name="dollar" unicode="$" horiz-adv-x="848" 
d="M15 1217h826v-167h-826v167zM17 1297h115v-92h-115v92zM727 1059h124l-2 -201l-124 1zM729 986h124l-2 -201l-124 1zM719 1077h124l-2 -201l-124 1zM727 1059h124l-2 -201l-124 1zM272 1641l498 -1358l-146 -52l-542 1535zM691 1726l-389 -1458l-184 -192l455 1682z
M876 1370l-88 -64q-143 197 -368 169q-228 -27 -316 -253l-102 41q58 149 158 236t244 106q145 17 262.5 -43.5t209.5 -191.5zM466 506q-144 -13 -260.5 51t-205.5 198l91 61q135 -202 363 -180q226 21 324 244l99 -44q-62 -147 -164 -231.5t-247 -98.5z" />
    <glyph glyph-name="percent" unicode="%" horiz-adv-x="1596" 
d="M1532 1299l-1192 -1433l-200 165l1192 1434zM467 1557q197 0 333 -137t136 -331t-137 -330.5t-332 -136.5q-193 0 -330 136.5t-137 330.5t136 331t331 137zM467 1429q-141 0 -240 -99t-99 -240q0 -140 99 -239.5t240 -99.5t240 99.5t99 239.5q0 141 -98.5 240t-240.5 99z
M1132 667q197 0 333 -137t136 -331t-137 -330.5t-332 -136.5q-193 0 -330 136.5t-137 330.5t136 331t331 137z" />
    <glyph glyph-name="ampersand" unicode="&#x26;" horiz-adv-x="1080" 
d="M969 251l-937 967l59 57l936 -967zM360 1684q146 0 247.5 -102t101.5 -247q0 -144 -102 -246t-247 -102q-144 0 -246 102t-102 246q0 145 101 247t247 102zM353 1552q-80 0 -136 -56t-56 -136t56 -136t136 -56t136 56t56 136t-55.5 136t-136.5 56zM376 1085l15 -93
q-209 -32 -279 -217q-69 -187 69 -346l-72 -62q-92 104 -119 216.5t16 230.5q45 119 139 185.5t231 85.5zM10 488l80 51q113 -179 311 -167q199 11 288 202l86 -41q-59 -126 -150.5 -196.5t-217.5 -78.5q-127 -7 -225.5 52.5t-171.5 177.5zM417 268l-11 94q211 22 289 204
q78 183 -53 348l74 59q87 -109 109.5 -222.5t-26.5 -229.5q-50 -116 -147 -178.5t-235 -74.5zM390 985l11 -72q-162 -25 -215 -168q-54 -145 53 -267l-56 -49q-71 81 -92 168t12 178q35 93 108 144t179 66zM107 523l61 39q88 -138 241 -129q154 9 223 157l67 -32
q-46 -98 -117 -152t-168 -61q-98 -5 -174.5 41t-132.5 137zM421 353l-8 72q163 17 223 158q61 142 -41 270l58 45q68 -84 85 -171.5t-21 -177.5q-39 -91 -114 -139t-182 -57zM1023 309l-936 967l58 57l937 -967z" />
    <glyph glyph-name="quotesingle" unicode="'" horiz-adv-x="191" 
d="M62 1680q3 -25 38 -83t50 -95q8 -16 10 -32q5 -33 -18 -61.5t-72 -36.5l-2 16q34 11 47.5 31t9.5 45q-3 24 -33 77q-44 76 -52 94.5t-10 35.5q-5 37 18 66t71 37l2 -16q-32 -9 -47.5 -29.5t-11.5 -48.5zM87 1695q3 -25 38 -83t50 -95q8 -16 10 -32q5 -33 -18 -61.5
t-72 -36.5l-2 16q34 11 47.5 31t9.5 45q-3 24 -33 77q-44 76 -52 94.5t-10 35.5q-5 37 18 66t71 37l2 -16q-32 -9 -47.5 -29.5t-11.5 -48.5zM62 1680q3 -25 38 -83t50 -95q8 -16 10 -32q5 -33 -18 -61.5t-72 -36.5l-2 16q34 11 47.5 31t9.5 45q-3 24 -33 77q-44 76 -52 94.5
t-10 35.5q-5 37 18 66t71 37l2 -16q-32 -9 -47.5 -29.5t-11.5 -48.5zM37 1680q3 -25 38 -83t50 -95q8 -16 10 -32q5 -33 -18 -61.5t-72 -36.5l-2 16q34 11 47.5 31t9.5 45q-3 24 -33 77q-44 76 -52 94.5t-10 35.5q-5 37 18 66t71 37l2 -16q-32 -9 -47.5 -29.5t-11.5 -48.5z
" />
    <glyph glyph-name="parenleft" unicode="(" horiz-adv-x="707" 
d="M530 1841l117 -187q-422 -261 -400 -723q23 -466 467 -679l-97 -201q-295 140 -457 356.5t-178 510.5q-13 297 128 526.5t420 396.5z" />
    <glyph glyph-name="parenright" unicode=")" horiz-adv-x="682" 
d="M696 952q17 -274 -110 -492.5t-385 -380.5l-112 176q389 246 359 680q-30 431 -448 627l88 186q276 -124 432 -321.5t176 -474.5zM88 79l-88 186q418 196 448 627q30 434 -359 680l112 176q258 -162 385 -380.5t110 -492.5q-20 -277 -176 -474.5t-432 -321.5z" />
    <glyph glyph-name="asterisk" unicode="*" horiz-adv-x="1045" 
d="M457 315v458h-457v74h457v457h73v-457h456v-74h-456v-458h-73zM863 367l-313 333l-333 -313l-50 54l332 314l-314 333l53 50l314 -333l332 313l51 -54l-332 -313l314 -333zM391 283l115 443l-442 115l19 72l442 -116l116 443l71 -18l-116 -443l441 -116l-19 -71l-441 115
l-116 -443zM514 257v458h-456v74h456v458h74v-458h455v-74h-455v-458h-74zM863 367l-313 333l-333 -313l-50 54l332 314l-314 333l53 50l314 -333l332 313l51 -54l-332 -313l314 -333zM391 283l115 443l-442 115l19 72l442 -116l116 443l71 -18l-116 -443l441 -116l-19 -71
l-441 115l-116 -443zM514 257v458h-456v74h456v458h74v-458h455v-74h-455v-458h-74zM863 367l-313 333l-333 -313l-50 54l332 314l-314 333l53 50l314 -333l332 313l51 -54l-332 -313l314 -333zM391 283l115 443l-442 115l19 72l442 -116l116 443l71 -18l-116 -443l441 -116
l-19 -71l-441 115l-116 -443z" />
    <glyph glyph-name="plus" unicode="+" horiz-adv-x="830" 
d="M855 1122l-770 -91l-17 148l770 91zM519 1495l80 -680l-203 -24l-80 680zM787 1144l-770 -90l-17 148l770 90zM451 1518l80 -681l-203 -24l-81 681z" />
    <glyph glyph-name="comma" unicode="," horiz-adv-x="270" 
d="M131 303q34 -36 65.5 -53t49.5 -48.5t18 -65.5t-17.5 -65t-123.5 -139t-50 15q24 58 -7.5 75.5t-48.5 48.5t-17 65t35.5 55t49 48.5t46.5 63.5z" />
    <glyph glyph-name="hyphen" unicode="-" horiz-adv-x="851" 
d="M806 847h-806v276h806v-276zM831 792h-806v276h806v-276z" />
    <glyph glyph-name="hyphen" unicode="&#xad;" horiz-adv-x="851" 
d="M806 847h-806v276h806v-276zM831 792h-806v276h806v-276z" />
    <glyph glyph-name="period" unicode="." horiz-adv-x="377" 
d="M188 318q48 40 93 15.5t70.5 -69.5t25.5 -94q-45 -64 -47.5 -113.5t-47.5 -62t-94 -12.5q-48 0 -93 25t-70 69.5t-25 93.5t25.5 94t70.5 69.5t92 -15.5z" />
    <glyph glyph-name="slash" unicode="/" horiz-adv-x="1136" 
d="M1014 1704l-741 -1672l-146 -8l741 1672zM1142 1597l-997 -1531l-145 16l996 1531z" />
    <glyph glyph-name="zero" unicode="0" horiz-adv-x="1085" 
d="M541 1342q-155 0 -263.5 -109t-108.5 -264q0 -154 109.5 -263t262.5 -109q156 0 265 109t109 263q0 155 -111.5 244t-262.5 129zM552 1175q84 0 142.5 -58.5t58.5 -140.5q2 -111 -71.5 -124t-129.5 -77q-83 0 -141.5 58.5t-58.5 142.5q0 82 58.5 140.5t141.5 58.5zM0 969
q0 226 157.5 385t383.5 159q228 0 386.5 -159t158.5 -385q0 -225 -159 -383.5t-386 -158.5q-224 0 -382.5 158.5t-158.5 383.5z" />
    <glyph glyph-name="one" unicode="1" horiz-adv-x="813" 
d="M788 1825l17 -1554h-295v1571zM780 1658l-673 -696l-107 53l592 806zM252 1410q110 292 132.5 332.5t63 63.5t83.5 23q44 0 84.5 -23t63 -63.5t22.5 -85.5q0 -46 -23 -87t-63.5 -63.5t-83.5 -22.5q-42 0 -83 22.5t-146.5 -115t-49.5 18.5zM654 205q-50 0 -97.5 18.5
t-33.5 61t-5 79.5q15 20 2.5 54t35 52.5t98.5 18.5q52 0 99.5 -18.5t20.5 -44t-57 -67.5q72 -36 77.5 -76.5t-42 -59t-98.5 -18.5z" />
    <glyph glyph-name="two" unicode="2" horiz-adv-x="1398" 
d="M59 532l1009 871l163 -190l-1008 -870zM680 228q-346 -93 -400.5 -98.5t-111.5 21.5t-97 74t-58 107t-5 113t50 86q39 33 94.5 37.5t112 -22.5t95.5 -72q39 -46 58 -106t231 -73.5t31 -66.5zM634 1453q346 93 400.5 98.5t111 -21.5t97.5 -74q40 -47 58.5 -107t5 -113
t-51.5 -86t-93.5 -38t-112 22.5t-95.5 72.5q-39 46 -58 106t-231.5 73.5t-30.5 66.5zM72 391h1355v-173h-1355v173zM123 1515h1155v-227l-1163 13z" />
    <glyph glyph-name="three" unicode="3" 
d="M753 637l-48 84q189 107 187 310q-3 204 -194 305l46 86q127 -65 194.5 -163t68.5 -227q2 -130 -63.5 -228t-190.5 -167zM1050 1173l-85 -44q-99 193 -302 200q-204 7 -312 -179l-85 50q71 123 171.5 186.5t229.5 58.5q130 -4 225.5 -74t157.5 -198zM1002 368
q-1 -129 -68.5 -227t-194.5 -163l-46 86q191 101 194 305q2 203 -187 310l48 83q125 -68 190.5 -166t63.5 -228zM975 387q-1 -129 -68.5 -227t-194.5 -163l-46 86q191 101 193 305q2 203 -187 310l48 84q125 -69 190.5 -167t64.5 -228zM648 654l-48 83q189 107 187 310
q-2 204 -193 305l46 87q127 -66 194.5 -163.5t68.5 -226.5q2 -130 -63.5 -228.5t-191.5 -166.5zM921 1154l-85 -44q-99 193 -302 200t-312 -179l-85 49q71 124 172 187t229 59q130 -5 225.5 -74.5t157.5 -197.5zM580 -90q-184 -9 -330 79.5t-250 264.5l120 73
q160 -265 452 -251q291 14 429 293l123 -62q-87 -185 -222.5 -286.5t-321.5 -110.5zM614 1427q163 -9 283.5 -99t197.5 -254l-112 -54q-118 247 -377 260q-256 13 -401 -221l-103 65q93 155 220.5 233t291.5 70zM753 637l-48 84q189 107 187 310q-3 204 -194 305l46 86
q127 -65 194.5 -163t68.5 -227q2 -130 -63.5 -228t-190.5 -167zM1026 1137l-86 -44q-98 194 -301 200q-204 7 -313 -179l-84 50q71 124 171.5 187t229.5 58q130 -4 225 -74t158 -198zM1002 368q-1 -129 -68.5 -227t-194.5 -163l-46 86q191 101 194 305q2 203 -187 310l48 83
q125 -68 190.5 -166t63.5 -228zM975 387q-1 -129 -68.5 -227t-194.5 -163l-46 86q191 101 193 305q2 203 -187 310l48 84q125 -69 190.5 -167t64.5 -228zM876 640l-48 84q189 107 187 310q-2 204 -193 305l46 86q127 -66 194.5 -163.5t68.5 -226.5q1 -130 -64.5 -228.5
t-190.5 -166.5zM1149 1140l-86 -44q-98 193 -301 200q-204 7 -313 -179l-84 50q71 123 171.5 186.5t229.5 58.5q130 -4 225 -74t158 -198zM1126 370q-1 -129 -68.5 -226.5t-194.5 -162.5l-46 86q191 101 193 305q2 203 -187 310l48 83q125 -68 190.5 -166.5t64.5 -228.5z
M1099 390q-2 -129 -69.5 -227t-194.5 -163l-46 86q191 101 194 305q2 203 -187 310l48 83q125 -68 190.5 -166t64.5 -228zM898 384q-1 -129 -68.5 -226.5t-194.5 -163.5l-46 86q191 101 193 305q2 203 -187 310l48 84q126 -68 191.5 -166.5t63.5 -228.5zM898 384
q-1 -129 -68.5 -226.5t-194.5 -163.5l-46 86q191 101 193 305q2 203 -187 310l48 84q126 -68 191.5 -166.5t63.5 -228.5z" />
    <glyph glyph-name="four" unicode="4" horiz-adv-x="1042" 
d="M987 1842v-1864h-150l-168 1868zM1202 795l-1205 -2v135l1204 2zM59 688l297 1168l131 -34l-298 -1167zM1198 671l-1204 -2v135l1204 2v-135zM1202 795l-1205 -2v135l1204 2zM-20 736l297 1168l131 -33l-298 -1168z" />
    <glyph glyph-name="five" unicode="5" horiz-adv-x="1211" 
d="M641 1523l-628 -73l-6 188l628 73zM207 1512v-867h-193v867h193zM484 929q141 -28 234.5 -121.5t139.5 -245.5l-104 -33q-72 230 -295 273q-222 43 -377 -142l-82 69q100 123 221 175t263 25zM917 379q-1 -144 -76 -253t-217 -181l-51 96q213 112 215 339q3 226 -208 345
l54 93q139 -76 212 -185t71 -254zM608 -88q-132 -57 -262 -33.5t-258 125.5l70 83q190 -148 398 -57q207 90 229 331l107 -10q-12 -159 -82 -270t-202 -169zM1222 1334l-1205 18l3 188l1205 -18zM458 821q115 -22 191.5 -98.5t114.5 -200.5l-85 -27q-59 187 -241 223
q-181 35 -307 -116l-67 56q82 101 180.5 143t213.5 20zM812 373q-1 -117 -62.5 -206t-176.5 -149l-42 79q174 92 176 277q2 184 -170 281l44 76q114 -62 173 -151t58 -207zM560 -8q-108 -47 -214 -27.5t-208 99.5l-107 155q317 -205 486 -131t188 270l87 -8
q-10 -130 -67 -220.5t-165 -137.5z" />
    <glyph glyph-name="six" unicode="6" 
d="M718 989q141 -28 234.5 -121.5t139.5 -245.5l-104 -33q-72 230 -295 273q-222 43 -377 -142l-82 69q100 123 221 175t263 25zM1131 379q-1 -144 -76 -253t-217 -181l-51 96q213 112 215 339q3 226 -208 345l54 93q139 -76 212 -185t71 -254zM822 -88q-132 -57 -262 -33.5
t-258 125.5l70 83q190 -148 398 -57q207 90 229 331l107 -10q-12 -159 -82 -270t-202 -169zM662 891q115 -22 191.5 -98.5t114.5 -200.5l-85 -27q-59 187 -241 223q-181 35 -307 -116l-67 56q82 101 180.5 143t213.5 20zM1026 373q-1 -117 -62.5 -206t-176.5 -149l-42 79
q174 92 176 277q2 184 -170 281l44 76q114 -62 173 -151t58 -207zM774 -8q-108 -47 -214 -27.5t-208 99.5l-107 155q317 -205 486 -131t188 270l87 -8q-10 -130 -67 -220.5t-165 -137.5zM698 929q141 -28 234.5 -121.5t139.5 -245.5l-104 -33q-72 230 -295 273
q-222 43 -377 -142l-82 69q100 123 221 175t263 25zM1131 379q-1 -144 -76 -253t-217 -181l-51 96q213 112 215 339q3 226 -208 345l54 93q139 -76 212 -185t71 -254zM822 -88q-132 -57 -262 -33.5t-258 125.5l70 83q190 -148 398 -57q207 90 229 331l107 -10
q-12 -159 -82 -270t-202 -169zM672 821q115 -22 191.5 -98.5t114.5 -200.5l-85 -27q-59 187 -241 223q-181 35 -307 -116l-67 56q82 101 180.5 143t213.5 20zM1026 373q-1 -117 -62.5 -206t-176.5 -149l-42 79q174 92 176 277q2 184 -170 281l44 76q114 -62 173 -151
t58 -207zM774 -8q-108 -47 -214 -27.5t-208 99.5l-107 155q317 -205 486 -131t188 270l87 -8q-10 -130 -67 -220.5t-165 -137.5zM414 -93q-133 55 -206 165t-88 268l108 12q25 -240 235 -327q209 -86 398 64l67 -84q-123 -100 -251.5 -127t-262.5 29zM99 531
q30 141 125.5 232.5t247.5 135.5l31 -105q-230 -68 -278 -290q-48 -221 135 -379l-71 -81q-122 103 -171.5 224.5t-18.5 262.5zM495 928q141 30 263.5 -19.5t227.5 -175.5l-85 -67q-156 183 -379 135q-221 -47 -291 -279l-102 32q44 153 134.5 248t231.5 126zM460 7
q-108 45 -167.5 135t-72.5 218l89 10q20 -195 191 -266t325 52l54 -68q-100 -83 -205 -104.5t-214 23.5zM203 517q24 114 102 189t203 110l25 -85q-188 -55 -227 -237q-39 -180 110 -309l-58 -66q-99 84 -139.5 183t-15.5 215zM527 839q114 25 214 -15.5t184 -139.5l74 -173
q-269 264 -450 225q-181 -38 -238 -227l-83 26q35 125 109 202.5t190 101.5zM698 929q141 -28 234.5 -121.5t139.5 -245.5l-104 -33q-72 230 -295 273q-222 43 -377 -142l-82 69q100 123 221 175t263 25zM1131 379q-1 -144 -76 -253t-217 -181l-51 96q213 112 215 339
q3 226 -208 345l54 93q139 -76 212 -185t71 -254zM822 -88q-132 -57 -262 -33.5t-258 125.5l70 83q190 -148 398 -57q207 90 229 331l107 -10q-12 -159 -82 -270t-202 -169zM672 821q115 -22 191.5 -98.5t114.5 -200.5l-85 -27q-59 187 -241 223q-181 35 -307 -116l-67 56
q82 101 180.5 143t213.5 20zM1026 373q-1 -117 -62.5 -206t-176.5 -149l-42 79q174 92 176 277q2 184 -170 281l44 76q114 -62 173 -151t58 -207zM774 -8q-108 -47 -214 -27.5t-208 99.5l-107 155q317 -205 486 -131t188 270l87 -8q-10 -130 -67 -220.5t-165 -137.5z
M698 929q141 -28 234.5 -121.5t139.5 -245.5l-104 -33q-72 230 -295 273q-222 43 -377 -142l-82 69q100 123 221 175t263 25zM1131 379q-1 -144 -76 -253t-217 -181l-51 96q213 112 215 339q3 226 -208 345l54 93q139 -76 212 -185t71 -254zM822 -88q-132 -57 -262 -33.5
t-258 125.5l70 83q190 -148 398 -57q207 90 229 331l107 -10q-12 -159 -82 -270t-202 -169zM672 821q115 -22 191.5 -98.5t114.5 -200.5l-85 -27q-59 187 -241 223q-181 35 -307 -116l-67 56q82 101 180.5 143t213.5 20zM1026 373q-1 -117 -62.5 -206t-176.5 -149l-42 79
q174 92 176 277q2 184 -170 281l44 76q114 -62 173 -151t58 -207zM774 -8q-108 -47 -214 -27.5t-208 99.5l-107 155q317 -205 486 -131t188 270l87 -8q-10 -130 -67 -220.5t-165 -137.5zM698 929q141 -28 234.5 -121.5t139.5 -245.5l-104 -33q-72 230 -295 273
q-222 43 -377 -142l-82 69q100 123 221 175t263 25zM1131 379q-1 -144 -76 -253t-217 -181l-51 96q213 112 215 339q3 226 -208 345l54 93q139 -76 212 -185t71 -254zM822 -88q-132 -57 -262 -33.5t-258 125.5l70 83q190 -148 398 -57q207 90 229 331l107 -10
q-12 -159 -82 -270t-202 -169zM672 821q115 -22 191.5 -98.5t114.5 -200.5l-85 -27q-59 187 -241 223q-181 35 -307 -116l-67 56q82 101 180.5 143t213.5 20zM1026 373q-1 -117 -62.5 -206t-176.5 -149l-42 79q174 92 176 277q2 184 -170 281l44 76q114 -62 173 -151
t58 -207zM774 -8q-108 -47 -214 -27.5t-208 99.5l-107 155q317 -205 486 -131t188 270l87 -8q-10 -130 -67 -220.5t-165 -137.5zM698 929q141 -28 234.5 -121.5t139.5 -245.5l-104 -33q-72 230 -295 273q-222 43 -377 -142l-82 69q100 123 221 175t263 25zM1131 379
q-1 -144 -76 -253t-217 -181l-51 96q213 112 215 339q3 226 -208 345l54 93q139 -76 212 -185t71 -254zM822 -88q-132 -57 -262 -33.5t-258 125.5l70 83q190 -148 398 -57q207 90 229 331l107 -10q-12 -159 -82 -270t-202 -169zM672 821q115 -22 191.5 -98.5t114.5 -200.5
l-85 -27q-59 187 -241 223q-181 35 -307 -116l-67 56q82 101 180.5 143t213.5 20zM1026 373q-1 -117 -62.5 -206t-176.5 -149l-42 79q174 92 176 277q2 184 -170 281l44 76q114 -62 173 -151t58 -207zM774 -8q-108 -47 -214 -27.5t-208 99.5l-107 155q317 -205 486 -131
t188 270l87 -8q-10 -130 -67 -220.5t-165 -137.5zM22 1027q-22 144 34.5 265t185.5 218l67 -88q-193 -148 -158 -375q36 -226 265 -309l-37 -102q-152 52 -243 149t-114 242zM253 1545q122 79 256 77t279 -82l-57 -95q-214 116 -406 -9t-174 -369l-108 -8
q-15 161 36.5 283.5t173.5 202.5zM126 1051q-18 117 28.5 216t150.5 177l55 -71q-158 -121 -129 -306q29 -184 217 -252l-31 -83q-124 43 -198 122t-93 197zM315 1473q99 65 208 63t224 -65l133 -136q-350 151 -507 49q-156 -102 -142 -301l-88 -6q-12 131 30 231t142 165z
M276 1307v-1139h-245v1139h245z" />
    <glyph glyph-name="seven" unicode="7" 
d="M1301 1382h-1301v190h1301v-190zM1358 1540l-672 -1222l-445 -14l967 1257z" />
    <glyph glyph-name="eight" unicode="8" horiz-adv-x="1703" 
d="M283 1134q0 -136 69 -260.5t194 -193.5t261 -69t261 69t194.5 193.5t69.5 260.5q0 137 -71 263t-196.5 194t-257.5 68q-133 0 -258 -68t-195.5 -194t-70.5 -263zM849 1843q214 0 417 -109.5t318 -313.5t115 -426q0 -221 -112 -422t-314.5 -313t-423.5 -112
q-220 0 -422.5 112t-314.5 313t-112 422q0 222 114 426t317 313.5t418 109.5zM541 883q0 111 78.5 189.5t188.5 78.5q112 0 190.5 -78.5t78.5 -189.5t-78 -189.5t-191 -78.5q-111 0 -189 78.5t-78 189.5zM957 880q0 60 -42.5 102.5t-102.5 42.5t-102 -42.5t-42 -102.5
t42 -102.5t102 -42.5q61 0 103 42.5t42 102.5zM572 1364q0 109 76.5 185.5t185.5 76.5t186 -76.5t77 -185.5t-76.5 -186t-186.5 -77t-186 77t-76 186zM990 1367q0 61 -43 104t-104 43t-103.5 -43t-42.5 -104t42.5 -104t103.5 -43q62 0 104.5 43t42.5 104z" />
    <glyph glyph-name="nine" unicode="9" horiz-adv-x="1083" 
d="M298 724q-128 67 -190.5 183.5t-62.5 275.5l109 1q3 -240 204 -346q200 -106 402 27l58 -90q-131 -89 -261.5 -104t-258.5 53zM78 1427q43 137 146.5 219.5t259.5 111.5l21 -107q-236 -46 -304 -263q-68 -215 99 -390l-78 -74q-111 113 -149.5 239t5.5 264zM509 1785
q143 17 260.5 -43.5t210.5 -195.5l-91 -59q-139 197 -364 170t-316 -251l-99 41q58 148 157 234.5t242 103.5zM379 801q-104 55 -155 150t-51 225l89 1q2 -196 166 -283q163 -85 328 23l47 -74q-107 -72 -213.5 -84.5t-210.5 42.5zM180 1403q35 111 119.5 178.5t211.5 91.5
l18 -88q-193 -37 -248 -214q-55 -176 81 -318l-64 -60q-91 92 -122 194.5t4 215.5zM532 1694q117 14 213 -35.5t170 -155.5l57 -179q-243 288 -427 266q-183 -22 -257 -205l-81 34q47 120 127.5 190.5t197.5 84.5zM334 775q-127 67 -189.5 184t-63.5 275l109 2
q3 -241 204 -346q200 -106 402 27l59 -90q-132 -89 -262.5 -104t-258.5 52zM78 1427q43 137 146.5 219.5t259.5 111.5l21 -107q-236 -46 -304 -263q-68 -215 99 -390l-78 -74q-111 113 -149.5 239t5.5 264zM509 1785q143 17 260.5 -43.5t210.5 -195.5l-91 -59
q-139 197 -364 170t-316 -251l-99 41q58 148 157 234.5t242 103.5zM389 871q-103 55 -154 150t-52 225l89 1q3 -196 166 -283q164 -86 328 23l48 -74q-107 -73 -213.5 -85t-211.5 43zM180 1403q35 111 119.5 178.5t211.5 91.5l18 -88q-193 -37 -248 -214q-55 -176 81 -318
l-64 -60q-91 92 -122 194.5t4 215.5zM532 1694q117 14 213 -35.5t170 -155.5l57 -179q-243 288 -427 266q-183 -22 -257 -205l-81 34q47 120 127.5 190.5t197.5 84.5zM901 1672q112 -91 150 -217.5t6 -282.5l-107 20q45 236 -130 380t-400 54l-39 100q147 61 277.5 49.5
t242.5 -103.5zM1022 982q-69 -125 -187 -185.5t-277 -57.5l1 109q241 -2 350 197q110 198 -19 402l91 57q87 -133 99 -264t-58 -258zM528 718q-143 12 -246.5 94.5t-167.5 233.5l101 40q97 -221 324 -239q225 -19 359 182l89 -59q-86 -134 -200.5 -199t-258.5 -53zM828 1589
q91 -74 122 -177.5t5 -230.5l-87 17q37 193 -107 310q-142 117 -325 44l-32 81q119 50 226 40.5t198 -84.5zM927 1027q-57 -103 -153 -152t-226 -47l1 89q196 -1 286 161q89 161 -16 328l74 46q71 -108 81 -215t-47 -210zM524 811q-117 10 -201 77.5t-136 186.5l-21 187
q182 -330 366 -346q184 -15 293 149l73 -49q-70 -109 -163.5 -161.5t-210.5 -43.5zM334 775q-127 67 -189.5 184t-63.5 275l109 2q3 -241 204 -346q200 -106 402 27l59 -90q-132 -89 -262.5 -104t-258.5 52zM78 1427q43 137 146.5 219.5t259.5 111.5l21 -107
q-236 -46 -304 -263q-68 -215 99 -390l-78 -74q-111 113 -149.5 239t5.5 264zM509 1785q143 17 260.5 -43.5t210.5 -195.5l-91 -59q-139 197 -364 170t-316 -251l-99 41q58 148 157 234.5t242 103.5zM389 871q-103 55 -154 150t-52 225l89 1q3 -196 166 -283q164 -86 328 23
l48 -74q-107 -73 -213.5 -85t-211.5 43zM180 1403q35 111 119.5 178.5t211.5 91.5l18 -88q-193 -37 -248 -214q-55 -176 81 -318l-64 -60q-91 92 -122 194.5t4 215.5zM532 1694q117 14 213 -35.5t170 -155.5l57 -179q-243 288 -427 266q-183 -22 -257 -205l-81 34
q47 120 127.5 190.5t197.5 84.5zM334 775q-127 67 -189.5 184t-63.5 275l109 2q3 -241 204 -346q200 -106 402 27l59 -90q-132 -89 -262.5 -104t-258.5 52zM78 1427q43 137 146.5 219.5t259.5 111.5l21 -107q-236 -46 -304 -263q-68 -215 99 -390l-78 -74
q-111 113 -149.5 239t5.5 264zM509 1785q143 17 260.5 -43.5t210.5 -195.5l-91 -59q-139 197 -364 170t-316 -251l-99 41q58 148 157 234.5t242 103.5zM389 871q-103 55 -154 150t-52 225l89 1q3 -196 166 -283q164 -86 328 23l48 -74q-107 -73 -213.5 -85t-211.5 43z
M180 1403q35 111 119.5 178.5t211.5 91.5l18 -88q-193 -37 -248 -214q-55 -176 81 -318l-64 -60q-91 92 -122 194.5t4 215.5zM532 1694q117 14 213 -35.5t170 -155.5l57 -179q-243 288 -427 266q-183 -22 -257 -205l-81 34q47 120 127.5 190.5t197.5 84.5zM334 775
q-127 67 -189.5 184t-63.5 275l109 2q3 -241 204 -346q200 -106 402 27l59 -90q-132 -89 -262.5 -104t-258.5 52zM78 1427q43 137 146.5 219.5t259.5 111.5l21 -107q-236 -46 -304 -263q-68 -215 99 -390l-78 -74q-111 113 -149.5 239t5.5 264zM509 1785q143 17 260.5 -43.5
t210.5 -195.5l-91 -59q-139 197 -364 170t-316 -251l-99 41q58 148 157 234.5t242 103.5zM389 871q-103 55 -154 150t-52 225l89 1q3 -196 166 -283q164 -86 328 23l48 -74q-107 -73 -213.5 -85t-211.5 43zM180 1403q35 111 119.5 178.5t211.5 91.5l18 -88
q-193 -37 -248 -214q-55 -176 81 -318l-64 -60q-91 92 -122 194.5t4 215.5zM532 1694q117 14 213 -35.5t170 -155.5l57 -179q-243 288 -427 266q-183 -22 -257 -205l-81 34q47 120 127.5 190.5t197.5 84.5zM334 775q-127 67 -189.5 184t-63.5 275l109 2q3 -241 204 -346
q200 -106 402 27l59 -90q-132 -89 -262.5 -104t-258.5 52zM78 1427q43 137 146.5 219.5t259.5 111.5l21 -107q-236 -46 -304 -263q-68 -215 99 -390l-78 -74q-111 113 -149.5 239t5.5 264zM509 1785q143 17 260.5 -43.5t210.5 -195.5l-91 -59q-139 197 -364 170t-316 -251
l-99 41q58 148 157 234.5t242 103.5zM389 871q-103 55 -154 150t-52 225l89 1q3 -196 166 -283q164 -86 328 23l48 -74q-107 -73 -213.5 -85t-211.5 43zM180 1403q35 111 119.5 178.5t211.5 91.5l18 -88q-193 -37 -248 -214q-55 -176 81 -318l-64 -60q-91 92 -122 194.5
t4 215.5zM532 1694q117 14 213 -35.5t170 -155.5l57 -179q-243 288 -427 266q-183 -22 -257 -205l-81 34q47 120 127.5 190.5t197.5 84.5zM952 486q-20 -144 -109.5 -243.5t-240.5 -154.5l-39 103q228 85 260 313q31 226 -164 373l65 86q130 -94 189.5 -213t38.5 -264z
M581 57q-139 -41 -266.5 0t-314.5 233l153 1q171 -173 392 -109q219 64 273 303l105 -24q-32 -158 -116.5 -260.5t-225.5 -143.5zM846 493q-16 -117 -89 -198.5t-196 -126.5l-32 85q186 69 211 255q26 185 -134 304l54 71q106 -77 154 -174.5t32 -215.5zM543 143
q-113 -33 -217 0.5t-196 127.5l71 53q132 -131 312 -78q179 52 223 247l86 -20q-26 -129 -95 -212.5t-184 -117.5zM670 333l92 1135l245 -20l-93 -1135zM896 1419l-625 -407l-93 143l625 406zM344 1580l519 -534l-122 -119l-519 534z" />
    <glyph glyph-name="colon" unicode=":" horiz-adv-x="192" 
d="M96 994q24 0 47 -12.5t36 -35.5t13 -48t-12.5 -48t-35.5 -35.5t-48 -12.5t-48 12.5t-35.5 35.5t-12.5 48t13 48t36 35.5t47 12.5zM111 464q24 0 47 -12.5t36 -35.5t28 -53q-15 -20 -27.5 -43t-35.5 -35.5t-48 -12.5t-48 12.5t-35.5 35.5t-12.5 48t13 48t36 35.5t47 12.5z
" />
    <glyph glyph-name="semicolon" unicode=";" horiz-adv-x="238" 
d="M123 794q25 0 48.5 -12.5t52 -39t-1.5 -47.5q0 -25 -13 -48.5t-36.5 -36.5t-49.5 -13q-25 0 -48.5 13t-36.5 36.5t-38 33.5q25 41 38 65t37 36.5t48 12.5zM138 334q25 0 48.5 -12.5t34.5 -4t16 -82.5q0 -25 -13 -48.5t-81.5 -109t-39.5 -0.5q10 60 -13.5 73t-36.5 36.5
t-13 48.5q0 26 13 50t39.5 54t45.5 -5z" />
    <glyph glyph-name="semicolon" unicode="&#x37e;" horiz-adv-x="238" 
d="M123 794q25 0 48.5 -12.5t52 -39t-1.5 -47.5q0 -25 -13 -48.5t-36.5 -36.5t-49.5 -13q-25 0 -48.5 13t-36.5 36.5t-38 33.5q25 41 38 65t37 36.5t48 12.5zM138 334q25 0 48.5 -12.5t34.5 -4t16 -82.5q0 -25 -13 -48.5t-81.5 -109t-39.5 -0.5q10 60 -13.5 73t-36.5 36.5
t-13 48.5q0 26 13 50t39.5 54t45.5 -5z" />
    <glyph glyph-name="less" unicode="&#x3c;" horiz-adv-x="956" 
d="M940 806l-838 -564l-102 152l838 564zM853 -233l-838 564l102 152l838 -563z" />
    <glyph glyph-name="equal" unicode="=" horiz-adv-x="608" 
d="M591 139l-509 24l5 199l508 -24zM578 532l-566 7l2 230l565 -7zM564 199l-504 -32l-7 198l504 33zM571 568l-571 8l2 230l571 -8z" />
    <glyph glyph-name="greater" unicode="&#x3e;" horiz-adv-x="1063" 
d="M222 1063l838 -564l-102 -152l-838 564zM105 24l838 564l102 -152l-838 -564zM117 958l838 -564l-102 -152l-838 564zM0 -80l838 563l102 -152l-838 -564z" />
    <glyph glyph-name="question" unicode="?" horiz-adv-x="984" 
d="M871 1472l-86 -65q-146 195 -371 164q-227 -32 -312 -258l-102 39q56 150 154.5 238.5t241.5 109.5q145 19 263.5 -40t211.5 -188zM863 853l-84 67q152 190 67 400q-87 212 -327 239l12 109q159 -17 269.5 -91t165.5 -207q55 -136 27 -265.5t-130 -251.5zM428 832
q96 108 224.5 141.5t284.5 -2.5l-24 -107q-236 54 -387 -118q-150 -171 -68 -400l-102 -36q-56 149 -40 280.5t112 241.5zM323 269l224 -101l-62 -136l-224 101zM261 139l198 144l88 -121l-198 -144zM793 1414l-68 -52q-116 154 -294 130q-179 -25 -246 -204l-81 31
q44 118 122 188.5t191 86.5q114 15 208 -31.5t168 -148.5zM786 924l-67 54q121 149 53 316q-68 168 -258 188l10 87q126 -14 213 -72.5t131 -163.5q43 -107 21 -209.5t-103 -199.5zM442 908q76 86 177.5 112t225.5 -2l-19 -85q-187 43 -306 -93q-119 -135 -54 -316l-81 -29
q-44 118 -31.5 222t88.5 191z" />
    <glyph glyph-name="at" unicode="@" horiz-adv-x="1681" 
d="M639 1085q208 0 351.5 -145.5t143.5 -352.5q0 -205 -144.5 -350.5t-350.5 -145.5q-203 0 -347.5 145.5t-144.5 350.5q0 207 143.5 352.5t348.5 145.5zM637 946q-149 0 -253 -105t-104 -255t104 -255t253 -105t253.5 105t104.5 255t-104 255t-254 105zM1127 1133v-1067
h-81v1067h81zM1054 151l70 -9q-21 -158 98 -247q120 -90 264 -24l29 -65q-94 -44 -181 -40t-163 60q-76 58 -104.5 140t-12.5 185zM1107 -88l55 44q99 -125 246 -100q148 25 199 175l68 -24q-34 -99 -97 -159t-156 -76q-94 -16 -173 20.5t-142 119.5zM1665 963v-995h-81v995
h81zM1645 884l-65 28q64 145 -27 264t-247 94l-11 71q103 17 185.5 -11t140.5 -103q58 -76 62.5 -162.5t-38.5 -180.5zM1370 1261h-995v81h995v-81zM479 1305l-28 -65q-146 64 -264 -26q-118 -91 -94 -248l-71 -11q-16 104 11.5 186.5t101.5 140.5q77 58 163.5 62.5
t180.5 -39.5zM97 1057v-995h-81v995h81zM43 249l65 -28q-64 -146 26 -264q91 -119 248 -94l11 -71q-104 -17 -186.5 11t-139.5 103q-58 76 -62.5 162t38.5 181zM1039 -198h-763v81h763v-81z" />
    <glyph glyph-name="A" unicode="A" horiz-adv-x="1250" 
d="M322 1458v334h567v-334h-567zM627 1458v334h293v-334h-293zM952 1104v334h293v-334h-293zM954 752v334h293v-334h-293zM650 750v334h293v-334h-293zM322 762v335h892v-335h-892zM941 421v334h294v-334h-294zM941 174l11 1259h293v-1366zM6 214l12 1231h294l10 -1311z
M214 1780q152 13 137.5 -20t8 -83t22.5 -104q0 -53 -36.5 -89t-62 -76.5t-69.5 -40.5t-84 27.5t-70.5 8.5t-13.5 170q0 54 22.5 104t62.5 76.5t83 26.5zM996 1800q53 0 103.5 -22.5t79 -64.5t28.5 -87t19 -169t-82.5 -158t-147.5 153q-54 0 -104 23t-78 64.5t-28 86.5t28 87
t78.5 64.5t103.5 22.5z" />
    <glyph glyph-name="B" unicode="B" horiz-adv-x="1366" 
d="M50 42v1766h422v-1766h-422zM460 42v379h422v-379h-422zM897 421v380h422v-380h-422zM451 1443v379h422v-379h-422zM897 1095v379h422v-379h-422zM480 747v379h422v-379h-422zM900 1831q48 0 93 -25.5t151.5 -47t187.5 -310.5q-1 -43 -117.5 -74.5t-191 17t-123.5 48.5
q-48 0 -93 26t-70 72.5t-25 97.5t25.5 98t70.5 72.5t92 25.5zM921 478q61 0 118 -27.5t160 11t140 -17.5q-63 -302 -139.5 -340t-146 -44.5t-132.5 -6.5q-62 0 -119 28t-88.5 78.5t-31.5 105.5q0 56 32 107t130 50.5t77 55.5z" />
    <glyph glyph-name="C" unicode="C" horiz-adv-x="1479" 
d="M41 37l21 1782l441 -4v-1778h-462zM510 1437v378h463v-378h-463zM970 1445v378h462v-378h-462zM510 43v378h463v-378h-463zM980 33v378h462v-378h-462z" />
    <glyph glyph-name="D" unicode="D" horiz-adv-x="1420" 
d="M72 1450v356h446v-356h-446zM91 44v1414h446v-1414h-446zM504 57v356h445v-356h-445zM953 410l13 1023h446v-1018zM525 1428v356h446v-356h-446zM1158 427q65 0 145 68t96 -66.5t-2 -160.5q18 -69 -16 -111.5t-95 -66.5t-128 -24q-275 -26 -440.5 30t9 79.5t174.5 70.5
q0 48 20 99.5t96 66.5t141 15zM1132 1768q33 -22 84 -45.5t80 -67t80 -90.5q26 -183 -40.5 -158t-117.5 1t-107 -24t-107 24t-79 67t-28 90t28.5 90.5t12 90t194.5 22.5z" />
    <glyph glyph-name="E" unicode="E" horiz-adv-x="1366" 
d="M45 37v1749h384v-1749h-384zM409 53v371h907v-371h-907zM417 829v372h517v-372h-517zM427 1424v372h793v-372h-793z" />
    <glyph glyph-name="F" unicode="F" horiz-adv-x="1201" 
d="M73 1498v307h1104v-307h-1104zM65 50v1460h315v-1460h-315zM73 1498v307h315v-307h-315zM381 888v307h436v-307h-436z" />
    <glyph glyph-name="G" unicode="G" horiz-adv-x="1572" 
d="M391 54v301h1016v-301h-1016zM83 54v393h363v-393h-363zM323 1489v302h1156v-302h-1156zM836 60v302h364v-302h-364zM1189 67v715h363v-715h-363zM821 498v301h501v-301h-501zM63 1282v489h419v-489h-419zM75 835v455h390v-455h-390zM34 429v483h414v-483h-414z" />
    <glyph glyph-name="H" unicode="H" horiz-adv-x="1654" 
d="M43 1344l-3 396l482 3l3 -397zM44 183l-10 1183l518 2l10 -1183zM317 750l-3 396l993 5l4 -396zM1142 58l-15 1753l482 2l15 -1753z" />
    <glyph glyph-name="I" unicode="I" horiz-adv-x="255" 
d="M5 52l22 1409l182 -9l23 -1400h-227zM99 1796q27 0 52.5 -13.5t40 -38.5t14.5 -53q0 -27 -14 -103.5t-41.5 -83.5t-94.5 -2q-43 20 -49.5 49t-10 71t-3.5 69q0 28 14.5 53t39.5 38.5t52 13.5z" />
    <glyph glyph-name="J" unicode="J" horiz-adv-x="449" 
d="M75 1464l-51 364h399v-359zM96 -145l-22 1615l353 18v-1645zM-142 -196q213 49 317 164t181.5 36.5t64.5 -140.5q-30 -75 -88 -135.5t-200.5 -112t-289.5 -41.5q-190 30 -296.5 67.5t-135.5 62t-113 134.5q-52 104 -0.5 129.5t101.5 -60.5t459 -104z" />
    <glyph glyph-name="K" unicode="K" horiz-adv-x="1737" 
d="M52 40v1782h322v-1782h-322zM372 793v351h367v-351h-367zM721 1145l-349 -14l737 331l-387 -652zM1112 1468l-743 -329l1131 646l-783 -971zM598 870q976 -446 1027.5 -470t80.5 -69.5t29 -94.5q0 -48 -28 -93t-79.5 -69.5t-51.5 30.5q-61 4 -110 14t-105 40t-936 626
q880 -499 80.5 39.5t80.5 69.5t12 -23zM385 785l340 32l23 -4l234 -338z" />
    <glyph glyph-name="L" unicode="L" horiz-adv-x="465" 
d="M24 -142l35 1960l322 9l27 -1969h-384zM62 -312v222h1278v-222h-1278z" />
    <glyph glyph-name="M" unicode="M" horiz-adv-x="2218" 
d="M55 79v1675h388v-1675h-388zM1809 79v1689h388v-1689h-388zM350 1708q74 0 144.5 -28t110.5 -79.5t672 -1167.5q-239 191 -474.5 546t307.5 -337t-760 635q-76 0 -146 28.5t-109 79.5t-39 107q0 57 39.5 108.5t110 79.5t144.5 28zM1993 1630l-843 -1149l-138 143
l804 1132z" />
    <glyph glyph-name="N" unicode="N" horiz-adv-x="1291" 
d="M20 55v1804h266v-1804h-266zM944 37v1691h342v-1691h-342zM1254 383l-1259 1113l107 386l1152 -1306v-193z" />
    <glyph glyph-name="O" unicode="O" horiz-adv-x="1801" 
d="M915 1817q331 -47 620.5 -272t259.5 -607q0 -363 -257 -619.5t-623 -256.5q-392 47 -634 280t-242 596q0 365 255 622t621 257zM964 1581q-338 -17 -508.5 -188t-170.5 -436q0 -264 185.5 -450t450.5 -186q264 0 450 186t186 450q0 265 -185 450.5t-408 173.5zM505 1527
l1102 -470l-1102 -468v938z" />
    <glyph glyph-name="P" unicode="P" horiz-adv-x="1879" 
d="M989 1799q369 0 624.5 -257t255.5 -622q0 -363 -257 -619.5t-623 -256.5q-362 0 -619 256.5t-257 619.5q0 365 255 622t621 257zM1002 1605q-265 0 -450.5 -185.5t-185.5 -450.5q0 -264 185.5 -450t450.5 -186q264 0 450 186t186 450q0 265 -185 450.5t-451 185.5z
M974 1822q369 0 624.5 -257t255.5 -622q0 -363 -257 -619.5t-623 -256.5q-362 0 -619 256.5t-257 619.5q0 365 255 622t621 257zM837 1547q-265 0 -450.5 -185.5t-185.5 -450.5q0 -264 185.5 -450t450.5 -186q264 0 450 186t186 450q0 265 -185 450.5t-451 185.5zM20 -651
v2424h640v-2424h-640z" />
    <glyph glyph-name="Q" unicode="Q" horiz-adv-x="1972" 
d="M989 1824q397 0 672 -257t275 -622q0 -363 -276.5 -619.5t-670.5 -256.5q-390 0 -666.5 256.5t-276.5 619.5q0 365 274.5 622t668.5 257zM935 1602q-333 -26 -482.5 -232.5t-149.5 -471.5q0 -264 185.5 -450t450.5 -186q264 0 450 186t186 450q0 265 -176.5 476
t-463.5 228zM1035 819l852 -894l-203 153l-740 682zM1013 866q25 0 49 -15t37.5 -42.5t13.5 -57.5t-13 -57.5t-37 -42.5t-50 -15t-50 15t-37 42.5t-13 57.5t13.5 57.5t37.5 42.5t49 15z" />
    <glyph glyph-name="R" unicode="R" horiz-adv-x="1507" 
d="M231 1826q15 -46 30.5 -61t36.5 -15q16 0 48 15q108 42 147.5 51.5t103.5 9.5q292 0 480.5 -223.5t284.5 -556.5q-127 -285 -261.5 -517.5t-458.5 -198.5q-454 33 -514 335l50 32q226 -123 428 -200q191 -68 315.5 158t121.5 457q0 127 -27 245t-68 191q-55 92 -141 149
t-197 57q-149 0 -253.5 -97t-154.5 -293h-52l28 462h53zM59 -378v2200h355v-2200h-355zM1211 1094l-955 -577l-1 123l781 475l-788 462l-1 126l964 -569v-40zM171 1405l500 3q328 -171 460.5 -216.5t132.5 -232.5q0 -150 -102 -266t-341 -178l419 -595q76 -111 136 -147
q38 -24 107 -32v-68h-369l-590 811h-152l-104 -600q-31 -49 -25 -71.5t12 -32.5l6 -42l-81 13l-7 26q18 -36 23.5 -10.5t-31.5 65.5q41 21 37 182l-13 1024q-10 163 -25 185q28 57 27.5 78.5t-0.5 31.5zM370 511q435 -122 497 -4.5t133.5 221t71.5 231.5q0 197 -140.5 334
t-352.5 137q-98 0 -209 -37v-882z" />
    <glyph glyph-name="S" unicode="S" horiz-adv-x="1582" 
d="M1547 116l-1517 -33l-17 314l1559 -2zM1569 1514h-1542l8 312h1534v-312zM1569 814h-1538v312h1538v-312zM1570 396h-414v466h414v-466zM442 1135h-421l5 374l422 -2zM434 1271h-421l5 374l422 -2zM468 1101h-421l5 374l422 -2zM442 1135h-421l5 374l422 -2z" />
    <glyph glyph-name="T" unicode="T" horiz-adv-x="1826" 
d="M753 -178v1779h496v-1779h-496zM27 1338l8 472l1758 4l-21 -459zM679 1219v72h-46l-182 20l228 8v174h37v-174h229v-28h-229v-174z" />
    <glyph glyph-name="U" unicode="U" horiz-adv-x="1368" 
d="M114 47l-71 1773l234 14l-10 -1799zM1225 40l-154 1614l328 1l-84 -1580zM720 -191q-374 -14 -505 376t-131 90q0 -298 179 -463.5t440 -174.5q302 47 456.5 193.5t154.5 444.5q0 300 -60 -33t-534 -433z" />
    <glyph glyph-name="V" unicode="V" horiz-adv-x="2120" 
d="M1346 1661l-636 -1060zM1040 26l-880 1792l187 16l760 -1756zM1959 1646l-875 -1581l-88 126l893 1503zM1118 86l-1100 1666l184 39l976 -1645zM1057 190l870 1551l164 -37l-980 -1571z" />
    <glyph glyph-name="W" unicode="W" horiz-adv-x="2418" 
d="M1706 9l350 1753l329 -65l-350 -1753zM429 12l-421 1717l327 76l406 -1740zM578 546l1088 1125l162 -154l-946 -1234zM1506 269l-1067 1136l174 158l1331 -1131zM1074 716q-178 -472 -214.5 -537.5t-101.5 -102.5t-135 -37q-71 0 -136.5 37t-102 102.5t-36.5 138.5
q0 74 37.5 140.5t103 102.5t134.5 36q68 0 134 -36t236.5 186t80.5 -30zM1809 456q83 0 164 -35t127 -98.5t46 -134.5q0 -70 -44.5 -133t-125 -98.5t-167.5 -35.5t-168 35.5t-125 98.5t-264 516q-110 243 100 29t290.5 -179t166.5 35zM1034 1199q29 0 55.5 -18.5t42 -53
t15.5 -71.5q0 -36 -14.5 -70t-42 -52.5t-56.5 -18.5q-28 0 -55.5 18.5t-42 52.5t-14.5 70q0 37 14.5 71.5t42 53t55.5 18.5zM154 1830q56 13 113.5 5t53 -59t25.5 -87q-11 -26 11.5 -60.5t-25.5 -67t-104 -45.5q-58 -14 -115.5 -5.5t-34 43.5t45.5 89q-89 22 -105.5 65
t31.5 76t104 46z" />
    <glyph glyph-name="X" unicode="X" horiz-adv-x="1639" 
d="M16 1198v567h278v-567h-278zM1258 1228v567h278v-567h-278zM1330 105v567h278v-567h-278zM54 55v567h278v-567h-278zM1087 750l-567 11l5 278l567 -11zM1469 426l-544 337l103 186l578 -281zM187 1434l480 -423l-133 -165l-523 373zM1518 1325l-427 -476l-164 135
l377 519zM54 626l567 295l141 -133l-571 -404zM833 1022l13 -625l-81 408v791z" />
    <glyph glyph-name="Y" unicode="Y" horiz-adv-x="1074" 
d="M396 164v340h333v-340h-333zM404 495v340h333v-340h-333zM396 164v340h333v-340h-333zM391 832v340h333v-340h-333zM61 1149v340h333v-340h-333zM41 1477v339h333v-339h-333zM721 1154v340h333v-340h-333zM712 1486v340h333v-340h-333zM235 1302q41 0 80 -20.5t61 -58
t22 -77.5q0 -41 132 -147t107.5 -93t-234.5 -84q-136 36 -212.5 122.5t-98 123.5t-21.5 78q0 40 22 77.5t61 58t81 20.5zM1049 1146q0 -41 -22 -78t-99.5 -123.5t-216.5 -122.5q-214 97 -239 84t109 93t134 147q0 40 22.5 77.5t62.5 58t82 20.5q43 0 82.5 -20.5t62 -58
t22.5 -77.5z" />
    <glyph glyph-name="Z" unicode="Z" horiz-adv-x="1390" 
d="M24 1459v359h332v-359h-332zM349 1459v359h332v-359h-332zM665 1469v359h331v-359h-331zM950 1464v284h332v-284h-332zM65 63v359h332v-359h-332zM24 1459v359h332v-359h-332zM390 110v268h332v-268h-332zM683 68v359h332v-359h-332zM1008 57v359h332v-359h-332z
M949 1123v359h332v-359h-332zM628 798v359h332v-359h-332zM313 468v359h331v-359h-331zM65 317v359h332v-359h-332z" />
    <glyph glyph-name="bracketleft" unicode="[" horiz-adv-x="540" 
d="M47 100v1745h274v-1745h-274zM107 1460v372h376v-372h-376zM107 48v372h414v-372h-414z" />
    <glyph glyph-name="backslash" unicode="\" horiz-adv-x="1137" 
d="M208 1766l903 -2109l-178 11l-903 2108zM273 1786l772 -2160l-177 21l-772 2160z" />
    <glyph glyph-name="bracketright" unicode="]" horiz-adv-x="459" 
d="M415 1838v-1929h-225v1929h225zM242 1842v-237h-188v237h188zM276 236v-319h-247v319h247z" />
    <glyph glyph-name="asciicircum" unicode="^" horiz-adv-x="1135" 
d="M576 1819l498 -484l-74 -58l-498 485zM621 1660l-516 -467l-77 56l517 466zM607 1764l498 -484l-74 -58l-498 485zM647 1719l-516 -467l-77 56l517 466z" />
    <glyph glyph-name="underscore" unicode="_" horiz-adv-x="1315" 
d="M1306 152l-1290 -70l-5 96l1290 70zM1276 129l-1246 -8l-1 96l1246 8z" />
    <glyph glyph-name="grave" unicode="`" horiz-adv-x="225" 
d="M64 1782q19 14 43.5 15.5t46 -12.5t33.5 -37q11 -23 17.5 -76t-14 -118t-48.5 -102q-9 137 -33.5 135.5t-45.5 12.5t-33 37q-11 24 -11.5 53t12.5 53.5t33 38.5zM49 1769q18 16 42 21.5t47 -5t38 -31.5t29.5 -72.5t4 -119t-32.5 -108.5q-30 135 -54 130t-46.5 5.5
t-38.5 31.5q-15 21 -19.5 49.5t4.5 55t26 43.5z" />
    <glyph glyph-name="a" unicode="a" horiz-adv-x="1054" 
d="M528 1085q208 0 351.5 -145.5t143.5 -352.5q0 -205 -144.5 -350.5t-350.5 -145.5q-203 0 -347.5 145.5t-144.5 350.5q0 207 143.5 352.5t348.5 145.5zM531 941q-149 0 -253 -105t-104 -255t104 -255t253 -105t253.5 105t104.5 255t-104 255t-254 105zM1016 1133v-1067
h-81v1067h81z" />
    <glyph glyph-name="b" unicode="b" horiz-adv-x="1109" 
d="M559 951q206 0 348.5 -133t142.5 -322t-143.5 -321.5t-347.5 -132.5q-201 0 -344.5 132.5t-143.5 321.5t142 322t346 133zM559 827q-147 0 -250.5 -96t-103.5 -234q0 -137 103.5 -233t250.5 -96q148 0 251.5 96t103.5 233q0 138 -103 234t-252 96zM221 1821v-1796h-143
v1796h143z" />
    <glyph glyph-name="c" unicode="c" horiz-adv-x="914" 
d="M906 804l-70 -95q-218 186 -447 95q-230 -92 -246 -372l-122 20q9 185 85 310.5t221 183.5q147 59 292 21t287 -163zM10 591l121 7q-3 -281 220 -396q223 -116 454 45l65 -103q-151 -108 -300.5 -129t-290.5 52q-142 74 -208 207t-61 317zM261 865l69 -123
q-197 -60 -188 -263q9 -205 67 -392l87 -8q-123 72 -191 173.5t-74 230.5q-6 131 53.5 226t176.5 156z" />
    <glyph glyph-name="d" unicode="d" horiz-adv-x="1093" 
d="M523 938q197 0 333.5 -117.5t136.5 -283.5t-137.5 -283t-332.5 -117q-194 0 -331.5 117t-137.5 283t136.5 283.5t332.5 117.5zM517 818q-139 0 -235.5 -83t-96.5 -201t96.5 -201t235.5 -83q137 0 234 83t97 201t-96.5 201t-234.5 83zM1016 1758v-1622h-122v1622h122z" />
    <glyph glyph-name="e" unicode="e" horiz-adv-x="963" 
d="M807 820l-60 -89q-201 137 -404 34q-204 -104 -211 -346l-109 3q3 160 67.5 276.5t193.5 182.5q130 66 261 48.5t262 -109.5zM945 436l-107 -13q-29 242 -239 328q-212 86 -399 -68l-70 86q123 102 253.5 129.5t264.5 -27.5q135 -55 208 -165.5t89 -269.5zM79 630
l102 -36q-82 -229 68 -400q151 -172 387 -118l24 -107q-156 -36 -284.5 -2.5t-224.5 141.5q-96 110 -112 241.5t40 280.5zM915 427h-860v139h860v-139zM743 454h-792l127 89l665 -14v-75z" />
    <glyph glyph-name="f" unicode="f" horiz-adv-x="693" 
d="M182 -387v1828h128l4 -1227zM698 1384l-250 -132q399 266 116 262q-188 16 -255 -77l-127 4q29 116 148.5 151t248.5 32q129 -4 225 -73t-106 -167zM564 343h-474l-141 133h615v-133z" />
    <glyph glyph-name="g" unicode="g" horiz-adv-x="991" 
d="M485 1028q118 0 230 -60.5t175.5 -173t63.5 -235.5q0 -122 -61.5 -233t-173.5 -172.5t-234 -61.5t-233.5 61.5t-173.5 172.5t-62 233q0 123 63 235.5t175 173t231 60.5zM969 957v-1027h-156v1027h156zM495 -400l-16 119q246 40 328 277q83 239 -79 443l85 80
q108 -134 139.5 -278.5t-21.5 -295.5q-52 -152 -163 -237t-273 -108zM187 -233l66 60q136 -149 319 -105q184 44 237 238l88 -24q-34 -128 -109 -209.5t-191 -108.5q-118 -28 -220 11t-190 138zM515 -375q-147 -3 -261.5 69.5t-194.5 214.5l72 41q148 -198 381 -192
q232 6 347 226l97 -52q-73 -145 -182.5 -224t-258.5 -83zM911 -149q-59 -92 -151.5 -132t-213.5 -30l6 82q183 -13 277 133q93 144 5 306l72 38q59 -105 62 -204.5t-57 -192.5z" />
    <glyph glyph-name="h" unicode="h" horiz-adv-x="720" 
d="M168 1204v-1186h-154v1186h154zM697 358h-697v340h697v-340zM679 1198v-1186h-155v1186h155zM665 1120v-1185h-155v1185h155zM238 1244v-1186h-155v1186h155zM569 734h-403v75h403v-75zM680 12l-86 -171l-86 171h172zM184 60l35 -17l-36 -18zM132 1314q27 0 52.5 -14
t40 -39.5t14.5 -53.5q0 -27 -14 -52.5t-39.5 -39.5t-53.5 -14t-53.5 14t-39.5 39.5t-14 52.5q0 28 14.5 53.5t40 39.5t52.5 14z" />
    <glyph glyph-name="i" unicode="i" horiz-adv-x="390" 
d="M228 974v-976h-81v976h81zM216 980l133 -967l-80 -11l-133 967zM84 949l250 -147l-16 -18l-250 147zM283 979v-976h-81v976h81zM308 963l-187 -221l-15 19l187 221zM109 961l208 -201l-20 -14l-208 201zM275 977l-125 -261l-20 14l126 261zM51 902l146 -86l-9 -10
l-146 85zM182 910l-110 -129l-8 11l109 129zM65 909l122 -118l-11 -8l-122 118zM163 918l-74 -152l-11 8l74 152zM212 945l172 -101l-11 -12l-172 101zM366 955l-129 -152l-10 13l129 152zM228 954l144 -139l-13 -10l-144 139zM344 965l-87 -180l-13 10l86 180zM27 992
l339 -199l-22 -24l-339 199zM330 1011l-253 -299l-21 25l254 300zM60 1008l282 -272l-26 -18l-283 272zM313 1042l-171 -353l-26 19l171 353zM77 839l208 -122l-13 -15l-208 122zM263 851l-155 -184l-13 15l156 184zM97 849l174 -167l-17 -12l-173 167zM236 862l-104 -217
l-16 12l104 217zM84 1013l273 -160l-17 -19l-273 160zM328 1029l-204 -241l-16 20l204 242zM111 1027l227 -220l-21 -15l-228 220zM293 1044l-138 -285l-20 16l137 285zM175 1692q53 0 103 -27t78.5 -77t28.5 -105q0 -54 -27.5 -103.5t-77.5 -77.5t-105 -28q-54 0 -103.5 28
t-77.5 77.5t-28 103.5q0 55 28.5 105t78 77t102.5 27z" />
    <glyph glyph-name="j" unicode="j" horiz-adv-x="335" 
d="M321 1125v-732h-270v732h270zM320 1349l-207 -219l-104 97l207 220zM82 1433l247 -173l-82 -117l-247 173zM311 390v-409h-254v409h254zM-367 -205l-21 78q106 -67 79 -88q424 104 391 310l240 6q25 -136 -93 -240t-366 -128q-90 44 -99.5 65.5t-130.5 -3.5zM-590 38
l87 35q78 -198 275 -225q199 -26 324 145l78 -57q-82 -114 -186.5 -166t-230.5 -35t-212.5 94.5t-134.5 208.5z" />
    <glyph glyph-name="k" unicode="k" horiz-adv-x="1052" 
d="M318 1828v-1762h-180v1762h180zM237 572l769 579l3 -120l-628 -470l652 -424l3 -117l-798 513zM1005 1273l-914 -826l-38 32l914 826zM170 524l769 580l3 -120l-629 -471l716 -480l-109 -22l-749 475zM213 1827l70 -1761l-180 -7l-70 1761zM217 87q-30 -4 -99 -46
t-112 -61q-19 -10 -38 -12q-40 -6 -74 20.5t-44 85.5l19 2q14 -40 38 -56t54 -11q28 4 90 41q91 53 113 63t41 13q44 6 79 -21.5t45 -83.5l-19 -3q-10 38 -35.5 56t-57.5 13z" />
    <glyph glyph-name="l" unicode="l" horiz-adv-x="548" 
d="M46 48v1491h151l46 -1487zM32 1586l2 14q43 -7 64.5 -33.5t16.5 -60.5q-2 -15 -9.5 -32t-47.5 -86q-29 -49 -32 -70q-3 -24 9 -42t43 -28l-1 -15q-45 8 -66 33.5t-16 56.5q1 15 9 29q14 34 46.5 87t35.5 76q3 25 -11 44t-43 27zM203 727h-124v536h124v-536zM56 49v135
l482 33l-15 -168h-467zM85 1315h-57v279h57v-279zM36 1514q5 -22 41.5 -72.5t54.5 -81.5q8 -15 12 -29q7 -30 -11.5 -57.5t-62.5 -39.5l-3 14q30 14 40.5 33t4.5 42q-4 21 -37 67q-46 65 -55 81.5t-13 31.5q-7 33 11.5 61.5t61.5 39.5l3 -14q-28 -11 -40.5 -31t-6.5 -45z
M39 1184l124 11l47 -534l-123 -11zM34 1588l57 5l24 -278l-56 -5zM47 61l4 148l469 -25l-3 -147z" />
    <glyph glyph-name="m" unicode="m" horiz-adv-x="900" 
d="M0 16l21 1245l157 -1l-21 -1246zM885 1250l-38 -1652l-137 4l39 1652zM422 93l243 959l89 -23l-244 -959zM471 75l-370 918l85 34l370 -917zM73 232l12 990l91 -2l-12 -989zM825 1220l-25 -989l-92 2l26 989zM414 343l243 959l89 -22l-244 -959zM469 293l-370 918l85 34
l370 -918zM75 14l12 990l91 -1l-12 -990zM827 1001l-39 -1411l-138 3l39 1411zM467 81l243 959l89 -23l-243 -959zM385 61l-369 918l84 34l370 -918zM599 166l-135 -270l-135 270h270z" />
    <glyph glyph-name="n" unicode="n" horiz-adv-x="676" 
d="M201 1038v-975h-195v975h195zM666 1023v-975h-195v975h195zM241 671l374 -530l-139 -98l-374 530zM139 815l374 -530l-139 -98l-374 530z" />
    <glyph glyph-name="o" unicode="o" horiz-adv-x="935" 
d="M464 993q196 0 331.5 -136.5t135.5 -329.5q0 -192 -136.5 -328t-330.5 -136q-192 0 -328 136t-136 328q0 193 135 329.5t329 136.5zM455 853q-140 0 -238.5 -98.5t-98.5 -238.5t98.5 -238.5t238.5 -98.5t239 98.5t99 238.5t-98.5 238.5t-239.5 98.5zM489 481l-175 -349
l-174 349h349zM136 481l189 378l189 -378h-378zM455 853q-140 0 -238.5 -98.5t-98.5 -238.5t98.5 -238.5t238.5 -98.5t239 98.5t99 238.5t-98.5 238.5t-239.5 98.5zM455 853q-140 0 -238.5 -98.5t-98.5 -238.5t98.5 -238.5t238.5 -98.5t239 98.5t99 238.5t-98.5 238.5
t-239.5 98.5zM455 853q-140 0 -238.5 -98.5t-98.5 -238.5t98.5 -238.5t238.5 -98.5t239 98.5t99 238.5t-98.5 238.5t-239.5 98.5zM455 853q-140 0 -238.5 -98.5t-98.5 -238.5t98.5 -238.5t238.5 -98.5t239 98.5t99 238.5t-98.5 238.5t-239.5 98.5zM455 853
q-140 0 -238.5 -98.5t-98.5 -238.5t98.5 -238.5t238.5 -98.5t239 98.5t99 238.5t-98.5 238.5t-239.5 98.5zM455 853q-140 0 -238.5 -98.5t-98.5 -238.5t98.5 -238.5t238.5 -98.5t239 98.5t99 238.5t-98.5 238.5t-239.5 98.5z" />
    <glyph glyph-name="p" unicode="p" horiz-adv-x="1064" 
d="M522 1090q219 0 370.5 -152.5t151.5 -368.5t-152.5 -368t-369.5 -152q-215 0 -367.5 152t-152.5 368t151.5 368.5t368.5 152.5zM529 950q-161 0 -273.5 -113t-112.5 -274q0 -160 112.5 -273t273.5 -113t273.5 113t112.5 273q0 161 -112 274t-274 113zM374 471
q32 0 54 -21.5t22 -53.5t-22 -54t-54 -22q-31 0 -54 22t-23 54t23 53.5t54 21.5zM536 740q64 0 109.5 -44t45.5 -111q0 -66 -45.5 -111t-109.5 -45t-111.5 45t-47.5 111q0 67 46 111t113 44zM140 1065v-1471h-140v1471h140zM543 705q-49 0 -83 -34t-34 -83q0 -48 34 -82
t83 -34q48 0 82 34t34 82q0 49 -34 83t-82 34z" />
    <glyph glyph-name="q" unicode="q" horiz-adv-x="1002" 
d="M502 17q-211 0 -356.5 135.5t-145.5 327.5q0 193 146.5 328t355.5 135q205 0 351.5 -135t146.5 -328q0 -192 -145 -327.5t-353 -135.5zM510 125q150 0 255.5 98t105.5 238t-105.5 237.5t-255.5 97.5q-152 0 -257.5 -97.5t-105.5 -237.5t105 -238t258 -98zM585 338l10 63
l160 -266l231 -484z" />
    <glyph glyph-name="r" unicode="r" horiz-adv-x="682" 
d="M348 1514q131 0 222 -110.5t91 -267.5q0 -156 -91.5 -266t-221.5 -110q-129 0 -220.5 110t-91.5 266q0 157 91 267.5t221 110.5zM283 1368q-96 0 -163.5 -67t-67.5 -163t67.5 -163t163.5 -67t163 67t67 163t-67 163t-163 67zM349 1511q83 0 162.5 -48t124.5 -138t45 -187
q0 -98 -43.5 -186.5t-123 -137.5t-165.5 -49t-165.5 49t-123.5 137.5t-44 186.5q0 97 45 187t124 138t164 48zM145 1616v-1582h-145v1582h145zM844 120l22 -36q-131 -48 -237 -19.5t-154 108.5q-22 37 -32 86t-27 263q-11 150 -42 202q-34 56 -99.5 78.5t-169.5 -0.5l-21 35
q136 50 239 23t147 -101q21 -36 27 -79q21 -95 31 -261t42 -221q36 -60 108.5 -82.5t165.5 4.5z" />
    <glyph glyph-name="s" unicode="s" horiz-adv-x="1235" 
d="M0 6v1432h1228v-1432h-1228zM971 537v-147h124v147h-124zM650 787v-125h124v125h-124zM1094 666h-447v-124h447v124zM648 787h471v124h-471v-124zM1102 391h-453v-124h453v124z" />
    <glyph glyph-name="t" unicode="t" horiz-adv-x="1717" 
d="M629 829v-801h172v801h-172zM951 937h-496v-105h496v105zM454 937l495 -8l2 106l-496 7zM11 538q0 222 114 426t317 313.5t418 109.5q214 0 417 -109.5t318 -313.5t115 -426q0 -221 -112 -422t-314.5 -313t-423.5 -112q-220 0 -422.5 112t-314.5 313t-112 422z" />
    <glyph glyph-name="u" unicode="u" horiz-adv-x="668" 
d="M207 1137v-1014h-185v1014h185zM647 1113v-970h-135v970h135zM558 1094l-309 -972l-25 15l309 972zM543 1097l-309 -972l-25 16l309 972zM505 1116l-309 -972l-25 16l309 972zM531 1112l-308 -971l-25 15l308 972zM505 1127l-309 -971l-25 15l309 972zM490 1131
l-309 -972l-25 16l309 972zM452 1150l-308 -972l-25 16l308 972zM479 1146l-309 -972l-25 16l309 972z" />
    <glyph glyph-name="v" unicode="v" horiz-adv-x="1024" 
d="M118 1067l509 -953l-119 -64l-508 953zM1035 1140l-470 -972l-122 59l470 972zM185 1199l508 -952l-119 -64l-509 953zM170 1211l509 -953l-119 -63l-509 952zM1079 1248l-470 -973l-122 59l470 972z" />
    <glyph glyph-name="w" unicode="w" horiz-adv-x="1379" 
d="M1371 877l-428 -969l-138 61l429 968zM1048 924l-470 -1044l-120 82l470 1044zM561 962l420 -972l-138 -60l-420 972zM155 891l484 -942l-134 -69l-484 942zM1350 990l-429 -969l-137 61l429 969zM1026 1038l-469 -1045l-120 82l469 1045zM539 1075l420 -972l-138 -60
l-420 973zM133 1004l485 -942l-134 -68l-484 941z" />
    <glyph glyph-name="x" unicode="x" horiz-adv-x="837" 
d="M78 33l293 584l293 -584h-586zM844 1078l-655 -1053l-132 82l655 1053zM132 1108l654 -1053l-131 -81l-655 1052z" />
    <glyph glyph-name="y" unicode="y" horiz-adv-x="952" 
d="M489 340l-431 718h94l350 -587l351 587h92l-426 -718h-30zM539 382v-595h-81v595h81zM489 340l-431 718h94l350 -587l351 587h92l-426 -718h-30zM594 396v-595h-173v595h173zM503 262l-503 745l101 5l408 -609l342 649l99 5l-415 -793zM539 340v-638h-87v638h87zM486 309
l-431 718h94l350 -587l351 587h92l-426 -718h-30zM539 382v-595h-81v595h81z" />
    <glyph glyph-name="z" unicode="z" horiz-adv-x="1178" 
d="M1061 1031h45q-4 -136 -77 -211.5t-177 -75.5q-47 0 -102 16t-284 109q-161 66 -228 66q-72 0 -122.5 -44.5t-69.5 -144.5h-46q5 141 75.5 215t166.5 74q45 0 93 -17q108 -30 284 -105.5t247 -75.5q78 0 130.5 50.5t64.5 143.5zM1002 784l-702 -628l-91 103l702 627z
M1126 1032l45 -5q-19 -134 -100 -201.5t-184 -55.5q-48 5 -100.5 27t-270.5 140q-152 84 -218 91q-72 8 -127 -30.5t-86 -136.5l-45 5q21 140 99 205.5t173 55.5q45 -5 91 -27q104 -42 270.5 -136.5t237.5 -102.5q77 -9 135 35.5t80 135.5zM1105 955h46q-4 -136 -77 -211.5
t-177 -75.5q-48 0 -103 16t-284 109q-160 67 -227 67q-72 0 -122.5 -44.5t-70.5 -145.5h-45q5 141 75.5 215t165.5 74q46 0 94 -16q107 -30 283.5 -106t246.5 -76q78 0 131 50.5t64 143.5zM1140 1157h46q-4 -136 -77 -211.5t-177 -75.5q-48 0 -103 16t-284 109
q-161 67 -227 67q-72 0 -122.5 -44.5t-70.5 -145.5h-45q5 141 75.5 215t165.5 74q46 0 94 -16q107 -30 283.5 -106t246.5 -76q78 0 131 50.5t64 143.5zM1370 181l56 -6q-23 -167 -124 -250.5t-229 -68.5q-59 6 -124.5 33.5t-335.5 173.5q-190 104 -272 113
q-89 10 -157.5 -38t-106.5 -169l-56 6q26 173 123 255t215 69q56 -6 113 -33q129 -52 336.5 -169.5t294.5 -127.5q96 -11 168 43.5t99 168.5zM1388 336h57q-5 -168 -96 -262t-220 -94q-59 0 -127.5 20t-352.5 135q-200 83 -282 83q-91 0 -153.5 -55.5t-86.5 -179.5h-57
q7 174 94.5 266.5t205.5 92.5q57 0 116 -21q134 -37 353 -131t307 -94q97 0 162.5 62t79.5 178zM609 605l-516 -461l-67 75l516 461zM1120 718l-622 -556l-81 90l622 556z" />
    <glyph glyph-name="braceleft" unicode="{" horiz-adv-x="1106" 
d="M525 390l102 -36q-82 -229 68 -400q151 -172 387 -118l24 -107q-156 -36 -284.5 -2.5t-224.5 141.5q-96 110 -112 241.5t40 280.5zM607 1615q96 108 224.5 141.5t284.5 -2.5l-24 -107q-236 54 -387 -118q-150 -171 -68 -400l-102 -36q-56 149 -40 280.5t112 241.5z
M580 130l-102 36q82 229 -68 400q-150 172 -386 118l-24 107q156 36 284 2.5t224 -141.5q96 -110 112 -241.5t-40 -280.5zM518 828q-96 -108 -224 -141.5t-284 2.5l24 107q236 -54 386 118q150 171 68 400l102 36q56 -149 40 -280.5t-112 -241.5z" />
    <glyph glyph-name="bar" unicode="|" horiz-adv-x="192" 
d="M126 1771v-1768h-77v1768h77zM88 1772l75 -1767l-76 -3l-75 1767zM175 1768l-98 -1766l-77 4l98 1766z" />
    <glyph glyph-name="braceright" unicode="}" horiz-adv-x="1081" 
d="M552 108q-96 -108 -224 -141.5t-284 2.5l24 107q236 -54 386 118q150 171 68 400l102 36q56 -149 40 -280.5t-112 -241.5zM614 880l-102 36q82 229 -68 400q-150 172 -386 118l-24 107q156 36 284 2.5t224 -141.5q96 -110 112 -241.5t-40 -280.5zM604 652
q96 108 224.5 141.5t284.5 -2.5l-24 -107q-236 54 -387 -118q-150 -171 -68 -400l-102 -36q-56 149 -40 280.5t112 241.5zM522 1350l102 -36q-82 -229 68 -400q151 -172 387 -118l24 -107q-156 -36 -284.5 -2.5t-224.5 141.5q-96 110 -112 241.5t40 280.5zM458 186
q-85 -95 -198.5 -124.5t-251.5 2.5l22 94q208 -48 341 104q132 151 60 354l90 31q50 -131 35.5 -247t-98.5 -214zM512 869l-90 31q73 203 -59 354q-134 152 -342 104l-21 94q137 32 250.5 2.5t198.5 -124.5q84 -98 98.5 -214t-35.5 -247zM503 667q85 96 198.5 125.5
t251.5 -2.5l-22 -95q-208 48 -341 -104q-133 -151 -60 -353l-91 -32q-49 132 -35 248t99 213zM431 1283l90 -31q-73 -203 60 -354q133 -152 342 -104l21 -94q-138 -32 -251.5 -2.5t-198.5 124.5q-85 97 -98.5 213.5t35.5 247.5z" />
    <glyph glyph-name="asciitilde" unicode="~" horiz-adv-x="1097" 
d="M1048 680h44q-4 -131 -74.5 -204t-170.5 -73q-46 0 -99 15.5t-274 105.5q-155 64 -219 64q-70 0 -118.5 -43t-67.5 -140h-44q5 136 73 207.5t160 71.5q44 0 90 -16q104 -29 274 -102t238 -73q75 0 126 48.5t62 138.5zM1023 520h44q-4 -131 -74.5 -204t-170.5 -73
q-46 0 -99 15.5t-274 105.5q-155 64 -219 64q-70 0 -118.5 -43t-67.5 -140h-44q5 136 73 207.5t160 71.5q44 0 90 -16q104 -29 274 -102t238 -73q75 0 126 48.5t62 138.5zM1038 600h44q-4 -131 -74.5 -204t-170.5 -73q-46 0 -99 15.5t-274 105.5q-155 64 -219 64
q-70 0 -118.5 -43t-67.5 -140h-44q5 136 73 207.5t160 71.5q44 0 90 -16q104 -29 274 -102t238 -73q75 0 126 48.5t62 138.5z" />
    <glyph glyph-name="copyright" unicode="&#xa9;" horiz-adv-x="1211" 
d="M875 1112l-48 -65q-149 127 -306 65q-157 -63 -168 -254l-84 13q7 127 59 212.5t151 125.5q100 40 199.5 14.5t196.5 -111.5zM262 966l83 5q-2 -192 150 -271q153 -79 311 31l44 -70q-103 -74 -205.5 -88.5t-198.5 35.5q-97 51 -142 142t-42 216zM434 1154l47 -84
q-135 -41 -129 -180q6 -140 46 -268l60 -6q-85 50 -131.5 119t-50.5 158t37 154t121 107zM599 1497q253 0 427.5 -175.5t174.5 -425.5q0 -248 -176 -423.5t-426 -175.5q-247 0 -423 175.5t-176 423.5q0 250 174.5 425.5t424.5 175.5zM599 1333q-181 0 -308 -127t-127 -308
q0 -180 127 -307.5t308 -127.5t308 127.5t127 307.5q0 181 -126.5 308t-308.5 127z" />
    <glyph glyph-name="registered" unicode="&#xae;" horiz-adv-x="1782" 
d="M680 1406q7 -24 15 -31.5t19 -7.5q8 0 25 8q55 21 75 26t53 5q149 0 245 -114t145 -284q-65 -146 -133.5 -264.5t-233.5 -101.5q-232 17 -263 171l26 17q115 -63 218 -102q98 -35 161.5 80.5t61.5 232.5q0 65 -13.5 125.5t-34.5 97.5q-28 47 -72 76t-101 29
q-76 0 -129 -49.5t-79 -149.5h-27l15 236h27zM592 281v1123h181v-1123h-181zM1180 1032l-487 -294l-1 63l399 242l-402 236l-1 64l492 -290v-21zM649 1191l255 2q168 -88 235.5 -111t67.5 -119q0 -76 -52 -135.5t-174 -90.5l214 -304q39 -57 69 -75q20 -12 55 -16v-35h-188
l-302 414h-77l-53 -306q-16 -25 -13 -36.5t6 -16.5l3 -22l-41 7l-4 13q9 -18 12 -5t-16 33q21 11 19 93l-7 523q-5 83 -12 94q14 29 13.5 40t-0.5 16zM751 735q222 -63 253.5 -3t68 113t36.5 118q0 101 -71.5 171t-180.5 70q-50 0 -106 -19v-450zM889 1743q375 0 634 -260.5
t259 -631.5q0 -368 -260.5 -628t-632.5 -260q-367 0 -628 260t-261 628q0 371 259 631.5t630 260.5zM891 1536q-295 0 -501.5 -206.5t-206.5 -501.5q0 -293 206.5 -500t501.5 -207q294 0 501 207t207 500q0 295 -206 501.5t-502 206.5z" />
    <glyph glyph-name="Adieresis" unicode="&#xc4;" horiz-adv-x="1646" 
d="M1344 211v1571h295v-1571h-295zM17 222l-17 1554h295v-1571zM25 389l673 696l107 -53l-592 -806zM1365 234l-731 808l156 25l857 -728zM553 637q-110 -292 -132.5 -332.5t-63 -63.5t-83.5 -23q-44 0 -84.5 23t-63 63.5t-22.5 85.5q0 46 23 87t63.5 63.5t83.5 22.5
q42 0 83 -22.5t146.5 115t49.5 -18.5zM1401 563q54 0 106 -22.5t81.5 -63.5t29.5 -87q0 -45 -28.5 -85.5t-80.5 -63.5t-108 -23t-108 23t-80.5 63.5t-169.5 332.5q-71 156 64 18.5t187 -115t107 22.5zM745 1116q19 0 36 -12t27 -34t10 -46q0 -23 -9.5 -45t-27 -34t-36.5 -12
q-18 0 -35.5 12t-27 34t-9.5 45q0 24 9.5 46t27 34t35.5 12zM151 1842q50 0 97.5 -18.5t33.5 -61t5 -79.5q-15 -20 -2.5 -54t-35 -52.5t-98.5 -18.5q-52 0 -99.5 18.5t-20.5 44t57 67.5q-72 36 -77.5 76.5t42 59t98.5 18.5z" />
    <glyph glyph-name="afii10017" unicode="&#x410;" horiz-adv-x="1254" 
d="M316 1458v334h567v-334h-567zM621 1458v334h293v-334h-293zM946 1104v334h293v-334h-293zM948 752v334h293v-334h-293zM644 750v334h293v-334h-293zM316 762v335h892v-335h-892zM935 421v334h294v-334h-294zM935 174l11 1259h293v-1366zM0 214l12 1231h294l10 -1311z
M208 1780q152 13 137.5 -20t8 -83t22.5 -104q0 -53 -36.5 -89t-62 -76.5t-69.5 -40.5t-84 27.5t-70.5 8.5t-13.5 170q0 54 22.5 104t62.5 76.5t83 26.5zM990 1800q53 0 103.5 -22.5t79 -64.5t28.5 -87t19 -169t-82.5 -158t-147.5 153q-54 0 -104 23t-78 64.5t-28 86.5t28 87
t78.5 64.5t103.5 22.5z" />
    <glyph glyph-name="afii10018" unicode="&#x411;" horiz-adv-x="1395" 
d="M0 42v1766h422v-1766h-422zM410 42v379h422v-379h-422zM847 421v380h422v-380h-422zM401 1443v379h971v-379h-971zM430 747v379h422v-379h-422zM855 1131q48 0 93 -25.5t151.5 -47t187.5 -310.5q-1 -43 -117.5 -74.5t-191 17t-123.5 48.5q-48 0 -93 26t-70 72.5t-25 97.5
t25.5 98t70.5 72.5t92 25.5zM871 478q61 0 118 -27.5t160 11t140 -17.5q-63 -302 -139.5 -340t-146 -44.5t-132.5 -6.5q-62 0 -119 28t-88.5 78.5t-31.5 105.5q0 56 32 107t130 50.5t77 55.5z" />
    <glyph glyph-name="afii10019" unicode="&#x412;" horiz-adv-x="1293" 
d="M0 42v1766h422v-1766h-422zM410 42v379h422v-379h-422zM847 421v380h422v-380h-422zM401 1443v379h422v-379h-422zM847 1095v379h422v-379h-422zM430 747v379h422v-379h-422zM850 1831q48 0 93 -25.5t151.5 -47t187.5 -310.5q-1 -43 -117.5 -74.5t-191 17t-123.5 48.5
q-48 0 -93 26t-70 72.5t-25 97.5t25.5 98t70.5 72.5t92 25.5zM871 478q61 0 118 -27.5t160 11t140 -17.5q-63 -302 -139.5 -340t-146 -44.5t-132.5 -6.5q-62 0 -119 28t-88.5 78.5t-31.5 105.5q0 56 32 107t130 50.5t77 55.5z" />
    <glyph glyph-name="afii10020" unicode="&#x413;" horiz-adv-x="1109" 
d="M8 1498v307h1104v-307h-1104zM0 50v1460h315v-1460h-315zM8 1498v307h315v-307h-315z" />
    <glyph glyph-name="afii10021" unicode="&#x414;" horiz-adv-x="1361" 
d="M0 1450v356h446v-356h-446zM19 44v1414h446v-1414h-446zM432 57v356h445v-356h-445zM881 410l13 1023h446v-1018zM453 1428v356h446v-356h-446zM1086 427q65 0 145 68t96 -66.5t-2 -160.5q18 -69 -16 -111.5t-95 -66.5t-128 -24q-275 -26 -440.5 30t9 79.5t174.5 70.5
q0 48 20 99.5t96 66.5t141 15zM1060 1768q33 -22 84 -45.5t80 -67t80 -90.5q26 -183 -40.5 -158t-117.5 1t-107 -24t-107 24t-79 67t-28 90t28.5 90.5t12 90t194.5 22.5z" />
    <glyph glyph-name="afii10022" unicode="&#x415;" horiz-adv-x="1305" 
d="M181 1515v297h845v-297h-845zM127 909v838h399v-838h-399zM216 648v329h331v-329h-331zM446 750v329l632 36l27 -365h-659zM235 82l131 325h718v-323zM140 197v556h400v-556h-400zM7 37v1749h384v-1749h-384zM371 53v371h907v-371h-907zM379 829v372h517v-372h-517z
M389 1424v372h793v-372h-793z" />
    <glyph glyph-name="afii10024" unicode="&#x416;" horiz-adv-x="1891" 
d="M995 1022l13 -625l-81 408v791zM1077 1867v-1864h-255v1864h255zM1831 1593l-1622 -1509l-180 194l1621 1509zM198 1751l1622 -1508l-180 -194l-1622 1508zM1802 1532l-1622 -1508l-180 194l1622 1508zM424 1549l1364 -1270l-151 -163l-1365 1269z" />
    <glyph glyph-name="afii10025" unicode="&#x417;" horiz-adv-x="1437" 
d="M936 814l-59 104q235 133 232 385q-3 254 -240 379l57 108q158 -82 241.5 -203.5t85.5 -281.5q2 -162 -79.5 -284t-237.5 -207zM1306 1480l-106 -55q-122 240 -375 249t-388 -223l-105 62q88 154 213 232.5t285 72.5q162 -5 280 -92t196 -246zM1247 479
q-2 -160 -86 -281.5t-241 -202.5l-57 107q237 125 240 379q2 252 -232 385l59 104q156 -85 237.5 -207t79.5 -284zM1213 503q-2 -160 -86 -281.5t-241 -203.5l-57 107q237 126 240 379q2 253 -232 386l59 103q156 -84 237 -206t80 -284zM807 835l-60 104q235 133 232 385
q-2 253 -240 379l58 107q157 -81 241 -202.5t86 -282.5q1 -161 -80.5 -283t-236.5 -207zM1146 1456l-106 -55q-123 241 -375 249q-253 9 -389 -223l-105 62q89 154 214 232.5t285 72.5q162 -5 280 -92t196 -246zM722 -90q-230 -11 -411 99t-311 329l149 91
q200 -330 563 -313q362 17 533 365l153 -77q-109 -230 -277 -356.5t-399 -137.5zM764 1795q203 -10 352.5 -122.5t244.5 -315.5l-139 -67q-147 307 -467 323q-319 16 -499 -275l-128 81q115 193 273 289.5t363 86.5zM936 814l-59 104q235 133 232 385q-3 254 -240 379
l57 108q158 -82 241.5 -203.5t85.5 -281.5q2 -162 -79.5 -284t-237.5 -207zM1276 1435l-107 -54q-122 240 -374 249q-254 8 -389 -223l-105 62q89 153 213.5 231.5t285.5 73.5q161 -6 279.5 -92.5t196.5 -246.5zM1247 479q-2 -160 -86 -281.5t-241 -202.5l-57 107
q237 125 240 379q2 252 -232 385l59 104q156 -85 237.5 -207t79.5 -284zM1213 503q-2 -160 -86 -281.5t-241 -203.5l-57 107q237 126 240 379q2 253 -232 386l59 103q156 -84 237 -206t80 -284zM1090 818l-60 104q235 132 232 385q-2 253 -240 379l58 107
q157 -81 241 -202.5t86 -282.5q1 -161 -80 -283t-237 -207zM1429 1439l-106 -55q-123 240 -375 249q-253 9 -389 -223l-104 62q88 154 213 232.5t285 72.5q162 -5 280 -92t196 -246zM1400 483q-1 -161 -85 -282.5t-242 -202.5l-57 107q238 125 240 379q3 252 -232 385
l60 104q155 -85 236.5 -207t79.5 -283zM1366 506q-1 -160 -85 -281.5t-242 -203.5l-57 108q238 125 240 379q3 252 -232 385l59 104q156 -85 237.5 -207t79.5 -284zM1117 500q-1 -161 -85 -282.5t-242 -202.5l-57 107q238 126 240 379q3 252 -232 385l59 104
q156 -85 237.5 -207t79.5 -283zM1117 500q-1 -161 -85 -282.5t-242 -202.5l-57 107q238 126 240 379q3 252 -232 385l59 104q156 -85 237.5 -207t79.5 -283zM97 529q53 80 135 113t188 23l-7 -73q-160 15 -244 -111q-85 -125 -11 -269l-63 -32q-51 93 -51.5 181t53.5 168z
" />
    <glyph glyph-name="afii10026" unicode="&#x418;" horiz-adv-x="1317" 
d="M1297 1589v-1561h-266v1561h266zM342 1679v-1691h-342v1691h342zM1263 1290l-1152 -1305l-107 385l1259 1113v-193z" />
    <glyph glyph-name="afii10027" unicode="&#x419;" horiz-adv-x="1324" 
d="M1297 1589v-1561h-266v1561h266zM342 1679v-1691h-342v1691h342zM1293 1615l-1152 -1306l-107 386l1259 1113v-193zM400 1570l489 302l63 -102l-489 -302zM947 1558l-564 106l22 118l564 -106z" />
    <glyph glyph-name="afii10028" unicode="&#x41a;" horiz-adv-x="1700" 
d="M10 40v1782h322v-1782h-322zM330 793v351h367v-351h-367zM679 1145l-349 -14l737 331l-387 -652zM1070 1468l-743 -329l1131 646l-783 -971zM556 870q976 -446 1027.5 -470t80.5 -69.5t29 -94.5q0 -48 -28 -93t-79.5 -69.5t-51.5 30.5q-61 4 -110 14t-105 40t-936 626
q880 -499 80.5 39.5t80.5 69.5t12 -23zM343 785l340 32l23 -4l234 -338z" />
    <glyph glyph-name="afii10029" unicode="&#x41b;" horiz-adv-x="2064" 
d="M745 199l636 1060zM1051 1834l880 -1792l-187 -16l-760 1756zM132 214l875 1581l88 -126l-893 -1503zM973 1774l1100 -1666l-184 -39l-976 1645zM1034 1670l-870 -1551l-164 37l980 1571z" />
    <glyph glyph-name="afii10030" unicode="&#x41c;" horiz-adv-x="2182" 
d="M0 79v1675h388v-1675h-388zM1754 79v1689h388v-1689h-388zM295 1708q74 0 144.5 -28t110.5 -79.5t672 -1167.5q-239 191 -474.5 546t307.5 -337t-760 635q-76 0 -146 28.5t-109 79.5t-39 107q0 57 39.5 108.5t110 79.5t144.5 28zM1938 1630l-843 -1149l-138 143l804 1132
z" />
    <glyph glyph-name="afii10031" unicode="&#x41d;" horiz-adv-x="1633" 
d="M9 1344l-3 396l482 3l3 -397zM10 183l-10 1183l518 2l10 -1183zM283 750l-3 396l993 5l4 -396zM1108 58l-15 1753l482 2l15 -1753z" />
    <glyph glyph-name="afii10032" unicode="&#x41e;" horiz-adv-x="1783" 
d="M876 1817q331 -47 620.5 -272t259.5 -607q0 -363 -257 -619.5t-623 -256.5q-392 47 -634 280t-242 596q0 365 255 622t621 257zM925 1581q-338 -17 -508.5 -188t-170.5 -436q0 -264 185.5 -450t450.5 -186q264 0 450 186t186 450q0 265 -185 450.5t-408 173.5zM466 1527
l1102 -470l-1102 -468v938z" />
    <glyph glyph-name="afii10033" unicode="&#x41f;" horiz-adv-x="1615" 
d="M1583 377l3 -396l-482 -3l-3 397zM1582 1538l10 -1183l-518 -2l-10 1183zM1550 1791l5 -396l-1549 -5l-6 396zM484 1663l15 -1753l-482 -2l-15 1753z" />
    <glyph glyph-name="afii10034" unicode="&#x420;" horiz-adv-x="1890" 
d="M969 1799q369 0 624.5 -257t255.5 -622q0 -363 -257 -619.5t-623 -256.5q-362 0 -619 256.5t-257 619.5q0 365 255 622t621 257zM982 1605q-265 0 -450.5 -185.5t-185.5 -450.5q0 -264 185.5 -450t450.5 -186q264 0 450 186t186 450q0 265 -185 450.5t-451 185.5z
M954 1822q369 0 624.5 -257t255.5 -622q0 -363 -257 -619.5t-623 -256.5q-362 0 -619 256.5t-257 619.5q0 365 255 622t621 257zM817 1547q-265 0 -450.5 -185.5t-185.5 -450.5q0 -264 185.5 -450t450.5 -186q264 0 450 186t186 450q0 265 -185 450.5t-451 185.5zM0 -651
v2424h640v-2424h-640z" />
    <glyph glyph-name="afii10035" unicode="&#x421;" horiz-adv-x="1479" 
d="M0 37l21 1782l441 -4v-1778h-462zM469 1437v378h463v-378h-463zM929 1445v378h462v-378h-462zM469 43v378h463v-378h-463zM939 33v378h462v-378h-462z" />
    <glyph glyph-name="afii10036" unicode="&#x422;" horiz-adv-x="1791" 
d="M726 -178v1779h496v-1779h-496zM0 1338l8 472l1758 4l-21 -459zM652 1219v72h-46l-182 20l228 8v174h37v-174h229v-28h-229v-174z" />
    <glyph glyph-name="afii10037" unicode="&#x423;" horiz-adv-x="1024" 
d="M355 164v340h333v-340h-333zM363 495v340h333v-340h-333zM355 164v340h333v-340h-333zM350 832v340h333v-340h-333zM20 1149v340h333v-340h-333zM0 1477v339h333v-339h-333zM680 1154v340h333v-340h-333zM671 1486v340h333v-340h-333zM194 1302q41 0 80 -20.5t61 -58
t22 -77.5q0 -41 132 -147t107.5 -93t-234.5 -84q-136 36 -212.5 122.5t-98 123.5t-21.5 78q0 40 22 77.5t61 58t81 20.5zM1008 1146q0 -41 -22 -78t-99.5 -123.5t-216.5 -122.5q-214 97 -239 84t109 93t134 147q0 40 22.5 77.5t62.5 58t82 20.5q43 0 82.5 -20.5t62 -58
t22.5 -77.5z" />
    <glyph glyph-name="afii10038" unicode="&#x424;" horiz-adv-x="4094" 
d="M2247 1832l230 -2250l-626 8v2242h396zM1034 1742q260 0 507.5 -133.5t387.5 -382t140 -518.5q0 -269 -136.5 -514.5t-383 -382t-515.5 -136.5q-268 0 -515 136.5t-383 382t-136 514.5q0 270 138.5 518.5t386 382t509.5 133.5zM3080 1690q420 0 711 -292t291 -707
q0 -413 -292.5 -704.5t-709.5 -291.5q-412 0 -704.5 291.5t-292.5 704.5q0 415 290 707t707 292zM902 1153q-199 0 -338 -139t-139 -337t139 -337.5t338 -139.5q198 0 337.5 139.5t139.5 337.5t-139 337t-338 139zM3126 1261q-233 0 -396 -162.5t-163 -395.5
q0 -232 163 -395t396 -163q232 0 395.5 163t163.5 395q0 233 -162.5 395.5t-396.5 162.5zM1339 1046l-842 -874l-165 159l842 874zM3660 1016l-842 -874l-165 159l843 874zM497 1205l842 -874l-165 -159l-842 874zM2389 524l874 843l159 -165l-874 -843z" />
    <glyph glyph-name="afii10039" unicode="&#x425;" horiz-adv-x="1629" 
d="M5 1198v567h278v-567h-278zM1247 1228v567h278v-567h-278zM1319 105v567h278v-567h-278zM43 55v567h278v-567h-278zM1076 750l-567 11l5 278l567 -11zM1458 426l-544 337l103 186l578 -281zM176 1434l480 -423l-133 -165l-523 373zM1507 1325l-427 -476l-164 135l377 519
zM43 626l567 295l141 -133l-571 -404z" />
    <glyph glyph-name="afii10040" unicode="&#x426;" horiz-adv-x="1620" 
d="M9 1322l-3 396l482 3l3 -397zM10 161l-10 1183l518 2l10 -1183zM42 -92l-5 396l1549 5l6 -396zM1108 36l-15 1753l482 2l15 -1753zM1471 191l456 -433l-203 -214l-456 434z" />
    <glyph glyph-name="afii10041" unicode="&#x427;" horiz-adv-x="1633" 
d="M528 1791l-10 -1183l-518 2l10 1183zM1277 951l-4 -396l-993 5l3 396zM1590 1646l-15 -1753l-482 2l15 1753z" />
    <glyph glyph-name="afii10042" unicode="&#x428;" horiz-adv-x="2695" 
d="M37 1374l3 397l482 -3l-3 -396zM0 213l10 1183l518 -2l-10 -1183zM1127 -42l-5 396l1549 5l6 -396zM2193 86l-15 1753l482 2l15 -1753zM30 1382l-3 396l482 3l3 -397zM31 221l-10 1183l518 2l10 -1183zM63 -32l-5 396l1549 5l6 -396zM1129 96l-15 1753l482 2l15 -1753z
" />
    <glyph glyph-name="afii10043" unicode="&#x429;" horiz-adv-x="2710" 
d="M1094 1337l-3 396l482 3l3 -397zM1095 176l-10 1183l518 2l10 -1183zM1127 -77l-5 396l1549 5l6 -396zM2193 51l-15 1753l482 2l15 -1753zM2556 206l456 -433l-203 -214l-456 434zM1101 1349l3 397l482 -3l-3 -396zM1064 188l10 1183l518 -2l-10 -1183zM0 -62l6 396
l1549 -5l-5 -396zM2 63l15 1753l482 -2l-15 -1753z" />
    <glyph glyph-name="afii10044" unicode="&#x42a;" horiz-adv-x="2175" 
d="M568 407q0 327 231.5 558.5t558.5 231.5q330 0 561.5 -231.5t231.5 -558.5q0 -329 -230.5 -560.5t-562.5 -231.5q-330 0 -560 231.5t-230 560.5zM1943 363q0 238 -168 405.5t-406 167.5q-239 0 -406 -167.5t-167 -405.5q0 -239 167 -406t406 -167q240 0 407 167t167 406z
M554 386q0 328 232 559t558 231q330 0 561.5 -231t231.5 -559q0 -329 -230 -560.5t-563 -231.5q-330 0 -560 231.5t-230 560.5zM1794 415q0 238 -167.5 405.5t-405.5 167.5q-239 0 -406.5 -167.5t-167.5 -405.5q0 -239 167.5 -406t406.5 -167t406 167t167 406zM1061 1823
v-2184h-577v2184h577zM1052 1830h40q-4 -118 -67.5 -183.5t-153.5 -65.5q-42 0 -89.5 14t-246.5 95q-140 57 -198 57q-63 0 -106.5 -38.5t-60.5 -125.5h-40q4 122 65.5 186.5t144.5 64.5q40 0 81 -14q94 -27 247 -92.5t215 -65.5q67 0 113 43.5t56 124.5zM480 1834v-479
l-480 240z" />
    <glyph glyph-name="afii10045" unicode="&#x42b;" horiz-adv-x="1975" 
d="M14 395q0 330 233.5 563.5t563.5 233.5q333 0 566.5 -233.5t233.5 -563.5q0 -332 -232.5 -566t-567.5 -234q-333 0 -565 234t-232 566zM1401 350q0 240 -169 409.5t-410 169.5t-409.5 -169.5t-168.5 -409.5q0 -241 168.5 -409.5t409.5 -168.5q242 0 410.5 168.5
t168.5 409.5zM0 374q0 330 234 563.5t563 233.5q333 0 567 -233.5t234 -563.5q0 -332 -232.5 -566t-568.5 -234q-333 0 -565 234t-232 566zM1251 403q0 240 -169.5 409t-409.5 169q-241 0 -409.5 -169t-168.5 -409q0 -241 168.5 -409.5t409.5 -168.5q242 0 410.5 168.5
t168.5 409.5zM232 1832v-2204h-226v2204h226zM1919 1796v-2189h-291v2189h291z" />
    <glyph glyph-name="afii10046" unicode="&#x42c;" horiz-adv-x="1718" 
d="M85 419q0 332 235 566.5t566 234.5q334 0 569 -234.5t235 -566.5q0 -333 -233.5 -568t-570.5 -235q-335 0 -568 235t-233 568zM1479 374q0 242 -170 412t-411 170q-243 0 -412.5 -170t-169.5 -412t169.5 -411t412.5 -169t412 169t169 411zM71 398q0 332 235 566.5
t566 234.5q335 0 569.5 -234.5t234.5 -566.5q0 -333 -233.5 -568t-570.5 -235q-334 0 -567.5 235t-233.5 568zM1328 427q0 242 -170 412t-411 170q-242 0 -411.5 -170t-169.5 -412t169.5 -411t411.5 -169q243 0 412 169t169 411zM585 1855v-2215h-585v2215h585z" />
    <glyph glyph-name="afii10047" unicode="&#x42d;" horiz-adv-x="1197" 
d="M815 99q-191 -112 -394.5 -100.5t-414.5 137.5l85 145q320 -190 621 -10q300 179 288 553l166 4q12 -244 -73.5 -428.5t-277.5 -300.5zM1172 903l-166 2q6 374 -297 548q-304 175 -621 -20l-88 143q209 130 412.5 145t396.5 -95q194 -112 282.5 -295t80.5 -428z
M1167 1167v-566h-161v566h161zM200 947l959 29l3 -175l-960 -29zM211 800l950 39l1 -176l-950 -39zM1023 892l-134 1q5 302 -240 442q-246 142 -502 -16l-71 116q169 105 333.5 117t320.5 -77q156 -90 227.5 -238t65.5 -345zM1019 1105v-458h-130v458h130z" />
    <glyph glyph-name="afii10048" unicode="&#x42e;" horiz-adv-x="2266" 
d="M0 -333v2142l373 8l5 -2150h-378zM2243 666q0 -257 -130 -491t-366 -364.5t-492 -130.5q-257 0 -493 130.5t-366 364.5t-130 491q0 259 133.5 496t370 364.5t485.5 127.5q250 0 486.5 -127.5t369 -364.5t132.5 -496zM519 716q0 -256 180.5 -436t435.5 -180
q257 0 436.5 180t179.5 436t-179.5 435.5t-436.5 179.5t-436.5 -179.5t-179.5 -435.5zM423 1003l805 -836l-158 -152l-804 836zM1883 842l-805 -836l-158 152l805 835z" />
    <glyph glyph-name="afii10049" unicode="&#x42f;" horiz-adv-x="1479" 
d="M1305 1826l28 -462h-52q-50 196 -154.5 293t-253.5 97q-111 0 -197 -57t-141 -149q-41 -73 -68 -191t-27 -245q-3 -231 121.5 -457t315.5 -158q202 77 428 200l50 -32q-60 -302 -514 -335q-324 -34 -458.5 198.5t-261.5 517.5q96 333 284.5 556.5t480.5 223.5
q64 0 103.5 -9.5t147.5 -51.5q32 -15 48 -15q21 0 36.5 15t30.5 61h53zM1069 -378v2200h355v-2200h-355zM272 1134l964 569l-1 -126l-788 -462l781 -475l-1 -123l-955 577v40zM1292 1333q0 -10 -0.5 -31.5t27.5 -78.5q-15 -22 -25 -185l-13 -1024q-4 -161 37 -182
q-37 -40 -31.5 -65.5t23.5 10.5l-7 -26l-81 -13l6 42q6 10 12 32.5t-25 71.5l-104 600h-152l-590 -811h-369v68q69 8 107 32q60 36 136 147l419 595q-239 62 -341 178t-102 266q0 187 132.5 232.5t460.5 216.5l500 -3zM1113 1393q-111 37 -209 37q-212 0 -352.5 -137
t-140.5 -334q0 -128 71.5 -231.5t133.5 -221t497 4.5v882z" />
    <glyph glyph-name="afii10065" unicode="&#x430;" horiz-adv-x="1004" 
d="M492 1085q208 0 351.5 -145.5t143.5 -352.5q0 -205 -144.5 -350.5t-350.5 -145.5q-203 0 -347.5 145.5t-144.5 350.5q0 207 143.5 352.5t348.5 145.5zM495 941q-149 0 -253 -105t-104 -255t104 -255t253 -105t253.5 105t104.5 255t-104 255t-254 105zM980 1133v-1067h-81
v1067h81z" />
    <glyph glyph-name="afii10066" unicode="&#x431;" horiz-adv-x="1049" 
d="M540 951q206 0 348.5 -133t142.5 -322t-143.5 -321.5t-347.5 -132.5q-201 0 -344.5 132.5t-143.5 321.5t142 322t346 133zM540 827q-147 0 -250.5 -96t-103.5 -234q0 -137 103.5 -233t250.5 -96q148 0 251.5 96t103.5 233q0 138 -103 234t-252 96zM202 1612v-1587h-143
v1587h143zM847 1481h-847v176h847v-176z" />
    <glyph glyph-name="afii10067" unicode="&#x432;" horiz-adv-x="703" 
d="M193 951q206 0 348.5 -133t142.5 -322t-143.5 -321.5t-347.5 -132.5q-201 0 -162 112t141 356q-88 172 -135.5 306.5t156.5 134.5zM193 827q-147 0 -107 -96t87 -227q-65 -182 -96 -259t116 -77q148 0 251.5 96t103.5 233q0 138 -103 234t-252 96zM155 1852v-1796h-143
v1796h143zM174 833q-197 0 -154.5 122.5t80.5 295.5q-38 159 -79.5 271t153.5 112q194 0 331.5 -117t137.5 -283t-136.5 -283.5t-332.5 -117.5zM180 967q139 0 235.5 83t96.5 201t-96.5 201t-235.5 83q-137 0 -125 -96.5t36 -191.5q-20 -101 -34.5 -190.5t123.5 -89.5z" />
    <glyph glyph-name="afii10068" unicode="&#x433;" horiz-adv-x="493" 
d="M253 1589l-46 -1487h-151v1491zM96 126q-3 22 -35.5 75.5t-46.5 86.5q-8 15 -9 30q-5 30 16 56t66 34l1 -15q-31 -10 -43 -28.5t-9 -41.5q3 -22 32 -70q40 -70 47.5 -87t9.5 -32q5 -33 -16.5 -60t-64.5 -34l-2 15q29 8 43 27t11 44zM213 378h-124v536h124v-536zM533 1591
l15 -167l-482 32v135h467zM95 47h-57v279h57v-279zM93 51l-3 -14q-43 11 -61.5 39.5t-11.5 60.5q4 16 13 32t55 82q33 46 37 67q6 22 -4.5 41.5t-40.5 32.5l3 14q44 -11 62.5 -39t11.5 -58q-4 -14 -12 -28q-18 -32 -54.5 -82t-41.5 -72q-6 -25 6.5 -45t40.5 -31zM97 991
l123 -11l-47 -534l-124 11zM69 331l56 -5l-24 -278l-57 5zM527 1604l3 -147l-469 -25l-4 147z" />
    <glyph glyph-name="afii10069" unicode="&#x434;" horiz-adv-x="1478" 
d="M817 853l-563 -764l-128 94l564 764zM722 922l564 -764l-127 -94l-564 764zM1421 43h-1421v127h1421v-127zM146 98v-231h-145v231h145zM1459 173v-230h-146v230h146zM951 642l-308 -593l-99 51l308 593zM642 103l297 594l298 -594h-595z" />
    <glyph glyph-name="afii10070" unicode="&#x435;" horiz-adv-x="948" 
d="M805 820l-60 -89q-201 137 -404 34q-204 -104 -211 -346l-109 3q3 160 67.5 276.5t193.5 182.5q130 66 261 48.5t262 -109.5zM943 436l-107 -13q-29 242 -239 328q-212 86 -399 -68l-70 86q123 102 253.5 129.5t264.5 -27.5q135 -55 208 -165.5t89 -269.5zM77 630
l102 -36q-82 -229 68 -400q151 -172 387 -118l24 -107q-156 -36 -284.5 -2.5t-224.5 141.5q-96 110 -112 241.5t40 280.5zM913 427h-860v139h860v-139zM741 454h-792l127 89l665 -14v-75z" />
    <glyph glyph-name="afii10072" unicode="&#x436;" horiz-adv-x="932" 
d="M241 382l235 295l96 -365zM652 627l-235 -295l-96 365zM867 827l-815 -721l-52 59l815 721zM241 1007l456 -988l-72 -33l-455 988zM706 981l-475 -980l-71 35l475 979zM196 986l456 -987l-72 -33l-456 987zM676 1038l-475 -980l-71 35l475 979zM957 899l-816 -721l-52 59
l815 721z" />
    <glyph glyph-name="afii10073" unicode="&#x437;" horiz-adv-x="486" 
d="M48 44l-11 143h20q19 -61 58.5 -91t95.5 -30q43 0 75.5 17.5t53.5 46.5q15 22 25.5 58.5t10.5 75.5q0 108 -47 159.5t-122 51.5q-99 0 79 16l-146 10q-40 4 84 4q102 0 169 -66t67 -160q0 -97 -71.5 -166t-181.5 -69q-25 0 -40 3t-55 16q-13 4 -18 4q-9 0 -14.5 -4.5
t-11.5 -18.5h-20zM63 930q6 -14 11.5 -18.5t14.5 -4.5q6 0 18 4q40 13 55.5 16t39.5 3q110 0 181.5 -69t71.5 -166q0 -94 -67 -160t-169 -66q-124 0 -57 20h10q-69 10 30 10q76 0 122.5 51.5t46.5 159.5q0 39 -10.5 75.5t-25.5 58.5q-21 29 -53.5 46.5t-74.5 17.5
q-57 0 -96.5 -30t-58.5 -91h-20l11 143h20zM15 52l-11 139h20q18 -59 56.5 -88t93.5 -29q41 0 72.5 17t52.5 45q15 21 25 56.5t10 73.5q0 106 -45.5 155.5t-119.5 49.5q-96 0 78 16l-143 9q-39 5 82 5q100 0 165 -64t65 -156q0 -95 -69.5 -162t-177.5 -67q-23 0 -38 3
t-54 16q-12 4 -18 4q-8 0 -13.5 -4.5t-11.5 -18.5h-19zM29 914q6 -14 11.5 -18t13.5 -4q6 0 18 4q40 13 54.5 15.5t38.5 2.5q107 0 176.5 -67t69.5 -162q0 -91 -65 -155.5t-165 -64.5q-120 0 -55 21h9q-67 9 30 9q73 0 118.5 50t45.5 155q0 38 -10 73.5t-25 57.5
q-20 27 -52 44t-73 17q-55 0 -93.5 -29t-56.5 -88h-19l10 139h19zM73 40l-11 144h20q19 -61 59 -91.5t97 -30.5q42 0 75 18t54 47q16 22 26 59t10 76q0 110 -47 161.5t-123 51.5q-100 0 80 16l-147 10q-41 5 84 5q103 0 171 -66.5t68 -161.5q0 -99 -72 -168.5t-184 -69.5
q-24 0 -39.5 3t-56.5 16q-12 4 -18 4q-8 0 -14 -4.5t-12 -18.5h-20zM88 935q6 -14 12 -19t14 -5q6 0 18 5q41 13 56.5 16t39.5 3q112 0 184 -69.5t72 -168.5q0 -95 -67.5 -161.5t-171.5 -66.5q-125 0 -57 21h10q-70 10 30 10q76 0 123.5 51.5t47.5 160.5q0 40 -10.5 77
t-26.5 59q-21 29 -53.5 46.5t-75.5 17.5q-57 0 -97 -30t-59 -91h-20l11 144h20z" />
    <glyph glyph-name="afii10074" unicode="&#x438;" horiz-adv-x="624" 
d="M185 1137v-1014h-185v1014h185zM625 1113v-970h-135v970h135zM536 1094l-309 -972l-25 15l309 972zM521 1097l-309 -972l-25 16l309 972zM483 1116l-309 -972l-25 16l309 972zM509 1112l-308 -971l-25 15l308 972zM483 1127l-309 -971l-25 15l309 972zM468 1131
l-309 -972l-25 16l309 972zM430 1150l-308 -972l-25 16l308 972zM457 1146l-309 -972l-25 16l309 972z" />
    <glyph glyph-name="afii10075" unicode="&#x439;" horiz-adv-x="640" 
d="M440 151v1014h185v-1014h-185zM0 175v970h135v-970h-135zM89 194l309 972l25 -15l-309 -972zM104 191l309 972l25 -16l-309 -972zM142 172l309 972l25 -16l-309 -972zM116 176l308 971l25 -15l-308 -972zM142 161l309 971l25 -15l-309 -972zM157 157l309 972l25 -16
l-309 -972zM195 138l308 972l25 -16l-308 -972zM168 142l309 972l25 -16l-309 -972zM395 1422v-272l-272 136z" />
    <glyph glyph-name="afii10076" unicode="&#x43a;" horiz-adv-x="1102" 
d="M318 1828v-1762h-180v1762h180zM237 572l769 579l3 -120l-628 -470l652 -424l3 -117l-798 513zM1005 1273l-914 -826l-38 32l914 826zM170 524l769 580l3 -120l-629 -471l716 -480l-109 -22l-749 475zM213 1827l70 -1761l-180 -7l-70 1761zM217 87q-30 -4 -99 -46
t-112 -61q-19 -10 -38 -12q-40 -6 -74 20.5t-44 85.5l19 2q14 -40 38 -56t54 -11q28 4 90 41q91 53 113 63t41 13q44 6 79 -21.5t45 -83.5l-19 -3q-10 38 -35.5 56t-57.5 13z" />
    <glyph glyph-name="afii10077" unicode="&#x43b;" horiz-adv-x="1081" 
d="M960 290l-509 953l119 63l509 -952zM43 216l470 973l122 -59l-470 -972zM893 157l-508 953l119 64l509 -953zM908 146l-509 952l119 64l509 -953zM0 109l469 972l122 -58l-470 -973z" />
    <glyph glyph-name="afii10078" unicode="&#x43c;" horiz-adv-x="905" 
d="M0 16l21 1245l157 -1l-21 -1246zM885 1250l-38 -1652l-137 4l39 1652zM422 93l243 959l89 -23l-244 -959zM471 75l-370 918l85 34l370 -917zM73 232l12 990l91 -2l-12 -989zM825 1220l-25 -989l-92 2l26 989zM414 343l243 959l89 -22l-244 -959zM469 293l-370 918l85 34
l370 -918zM75 14l12 990l91 -1l-12 -990zM827 1001l-39 -1411l-138 3l39 1411zM467 81l243 959l89 -23l-243 -959zM385 61l-369 918l84 34l370 -918zM599 166l-135 -270l-135 270h270z" />
    <glyph glyph-name="afii10079" unicode="&#x43d;" horiz-adv-x="717" 
d="M168 1204v-1186h-154v1186h154zM697 358h-697v340h697v-340zM679 1198v-1186h-155v1186h155zM665 1120v-1185h-155v1185h155zM238 1244v-1186h-155v1186h155zM569 734h-403v75h403v-75zM680 12l-86 -171l-86 171h172zM184 60l35 -17l-36 -18zM132 1314q27 0 52.5 -14
t40 -39.5t14.5 -53.5q0 -27 -14 -52.5t-39.5 -39.5t-53.5 -14t-53.5 14t-39.5 39.5t-14 52.5q0 28 14.5 53.5t40 39.5t52.5 14z" />
    <glyph glyph-name="afii10080" unicode="&#x43e;" horiz-adv-x="939" 
d="M464 993q196 0 331.5 -136.5t135.5 -329.5q0 -192 -136.5 -328t-330.5 -136q-192 0 -328 136t-136 328q0 193 135 329.5t329 136.5zM455 853q-140 0 -238.5 -98.5t-98.5 -238.5t98.5 -238.5t238.5 -98.5t239 98.5t99 238.5t-98.5 238.5t-239.5 98.5zM489 481l-175 -349
l-174 349h349zM136 481l189 378l189 -378h-378zM455 853q-140 0 -238.5 -98.5t-98.5 -238.5t98.5 -238.5t238.5 -98.5t239 98.5t99 238.5t-98.5 238.5t-239.5 98.5zM455 853q-140 0 -238.5 -98.5t-98.5 -238.5t98.5 -238.5t238.5 -98.5t239 98.5t99 238.5t-98.5 238.5
t-239.5 98.5zM455 853q-140 0 -238.5 -98.5t-98.5 -238.5t98.5 -238.5t238.5 -98.5t239 98.5t99 238.5t-98.5 238.5t-239.5 98.5zM455 853q-140 0 -238.5 -98.5t-98.5 -238.5t98.5 -238.5t238.5 -98.5t239 98.5t99 238.5t-98.5 238.5t-239.5 98.5zM455 853
q-140 0 -238.5 -98.5t-98.5 -238.5t98.5 -238.5t238.5 -98.5t239 98.5t99 238.5t-98.5 238.5t-239.5 98.5zM455 853q-140 0 -238.5 -98.5t-98.5 -238.5t98.5 -238.5t238.5 -98.5t239 98.5t99 238.5t-98.5 238.5t-239.5 98.5z" />
    <glyph glyph-name="afii10081" unicode="&#x43f;" horiz-adv-x="722" 
d="M14 -119v1186h154v-1186h-154zM697 968h-697v340h697v-340zM524 -113v1186h155v-1186h-155zM510 -35v1185h155v-1185h-155zM83 -159v1186h155v-1186h-155zM569 1344h-403v75h403v-75zM508 1073l86 171l86 -171h-172zM183 1060l36 -18l-35 -17zM132 1314q27 0 52.5 -14
t40 -39.5t14.5 -53.5q0 -27 -14 -52.5t-39.5 -39.5t-53.5 -14t-53.5 14t-39.5 39.5t-14 52.5q0 28 14.5 53.5t40 39.5t52.5 14z" />
    <glyph glyph-name="afii10082" unicode="&#x440;" horiz-adv-x="1050" 
d="M522 1090q219 0 370.5 -152.5t151.5 -368.5t-152.5 -368t-369.5 -152q-215 0 -367.5 152t-152.5 368t151.5 368.5t368.5 152.5zM529 950q-161 0 -273.5 -113t-112.5 -274q0 -160 112.5 -273t273.5 -113t273.5 113t112.5 273q0 161 -112 274t-274 113zM374 471
q32 0 54 -21.5t22 -53.5t-22 -54t-54 -22q-31 0 -54 22t-23 54t23 53.5t54 21.5zM536 740q64 0 109.5 -44t45.5 -111q0 -66 -45.5 -111t-109.5 -45t-111.5 45t-47.5 111q0 67 46 111t113 44zM140 1065v-1471h-140v1471h140zM543 705q-49 0 -83 -34t-34 -83q0 -48 34 -82
t83 -34q48 0 82 34t34 82q0 49 -34 83t-82 34z" />
    <glyph glyph-name="afii10083" unicode="&#x441;" horiz-adv-x="903" 
d="M901 804l-70 -95q-218 186 -447 95q-230 -92 -246 -372l-122 20q9 185 85 310.5t221 183.5q147 59 292 21t287 -163zM5 591l121 7q-3 -281 220 -396q223 -116 454 45l65 -103q-151 -108 -300.5 -129t-290.5 52q-142 74 -208 207t-61 317zM256 865l69 -123
q-197 -60 -188 -263q9 -205 67 -392l87 -8q-123 72 -191 173.5t-74 230.5q-6 131 53.5 226t176.5 156z" />
    <glyph glyph-name="afii10084" unicode="&#x442;" horiz-adv-x="1717" 
d="M618 829v-801h172v801h-172zM940 937h-496v-105h496v105zM443 937l495 -8l2 106l-496 7zM0 538q0 222 114 426t317 313.5t418 109.5q214 0 417 -109.5t318 -313.5t115 -426q0 -221 -112 -422t-314.5 -313t-423.5 -112q-220 0 -422.5 112t-314.5 313t-112 422z" />
    <glyph glyph-name="afii10085" unicode="&#x443;" horiz-adv-x="954" 
d="M489 340l-431 718h94l350 -587l351 587h92l-426 -718h-30zM539 382v-595h-81v595h81zM489 340l-431 718h94l350 -587l351 587h92l-426 -718h-30zM594 396v-595h-173v595h173zM503 262l-503 745l101 5l408 -609l342 649l99 5l-415 -793zM539 340v-638h-87v638h87zM486 309
l-431 718h94l350 -587l351 587h92l-426 -718h-30zM539 382v-595h-81v595h81z" />
    <glyph glyph-name="afii10086" unicode="&#x444;" horiz-adv-x="1613" 
d="M877 986v-1422h-154v1422h154zM1181 838q188 0 317.5 -130t129.5 -315q0 -184 -130.5 -313.5t-316.5 -129.5q-183 0 -313 129.5t-130 313.5q0 185 129 315t314 130zM1181 717q-134 0 -228 -94t-94 -228t94 -228.5t228 -94.5t228.5 94.5t94.5 228.5t-94 228t-229 94z
M437 825q184 0 311.5 -128.5t127.5 -310.5t-128 -310t-311 -128q-181 0 -309 128t-128 310t127 310.5t310 128.5zM437 705q-133 0 -225.5 -92.5t-92.5 -225.5q0 -132 92.5 -225t225.5 -93q132 0 224.5 93t92.5 225q0 133 -92 225.5t-225 92.5z" />
    <glyph glyph-name="afii10087" unicode="&#x445;" horiz-adv-x="815" 
d="M78 33l293 584l293 -584h-586zM844 1078l-655 -1053l-132 82l655 1053zM132 1108l654 -1053l-131 -81l-655 1052z" />
    <glyph glyph-name="afii10088" unicode="&#x446;" horiz-adv-x="715" 
d="M168 1379v-1186h-154v1186h154zM697 -48h-697v340h697v-340zM679 1373v-1186h-155v1186h155zM665 1295v-1185h-155v1185h155zM268 1373v-1186h-155v1186h155zM732 -318l-183 456l118 47l183 -456zM680 187l-86 -171l-86 171h172zM184 235l35 -17l-36 -18zM25 53
q0 27 14 52.5t39.5 39.5t53.5 14t53.5 -14t39.5 -39.5t14 -52.5q0 -28 -14.5 -53.5t-40 -39.5t-52.5 -14t-52.5 14t-40 39.5t-14.5 53.5z" />
    <glyph glyph-name="afii10089" unicode="&#x447;" horiz-adv-x="712" 
d="M524 -49v1186h154v-1186h-154zM273 621h422v-340h-422v340zM13 598v545h155v-545h-155zM27 848v372h155v-372h-155zM454 -89v1186h155v-1186h-155zM121 690h403v-75h-403v75zM488 -99l86 171l86 -171h-172zM508 1095l-35 17l36 18zM13 470q-13 152 20 137.5t83 8
t104 22.5q53 0 89 -36.5t76.5 -62t40.5 -69.5t-27.5 -84t-8.5 -70.5t-170 -13.5q-54 0 -104 22.5t-76.5 62.5t-26.5 83z" />
    <glyph glyph-name="afii10090" unicode="&#x448;" horiz-adv-x="1077" 
d="M539 1454v-1186h-154v1186h154zM1068 27h-697v340h697v-340zM1050 1448v-1186h-155v1186h155zM1036 1370v-1185h-155v1185h155zM639 1448v-1186h-155v1186h155zM1051 262l-86 -171l-86 171h172zM555 310l35 -17l-36 -18zM396 128q0 27 14 52.5t39.5 39.5t53.5 14
t53.5 -14t39.5 -39.5t14 -52.5q0 -28 -14.5 -53.5t-40 -39.5t-52.5 -14t-52.5 14t-40 39.5t-14.5 53.5zM168 1467v-1186h-154v1186h154zM697 40h-697v340h697v-340zM679 1461v-1186h-155v1186h155zM665 1383v-1185h-155v1185h155zM268 1461v-1186h-155v1186h155zM680 275
l-86 -171l-86 171h172zM184 323l35 -17l-36 -18zM25 141q0 27 14 52.5t39.5 39.5t53.5 14t53.5 -14t39.5 -39.5t14 -52.5q0 -28 -14.5 -53.5t-40 -39.5t-52.5 -14t-52.5 14t-40 39.5t-14.5 53.5z" />
    <glyph glyph-name="afii10091" unicode="&#x449;" horiz-adv-x="1228" 
d="M240 1108v-828h-240v828h240zM1211 27h-697v340h697v-340zM1193 817v-569h-155v569h155zM1179 1152v-967h-155v967h155zM782 1153v-870h-155v870h155zM1194 262l-86 -171l-86 171h172zM698 344l35 -22l-36 -22zM539 128q0 27 14 52.5t39.5 39.5t53.5 14t53.5 -14
t39.5 -39.5t14 -52.5q0 -28 -14.5 -53.5t-40 -39.5t-52.5 -14t-52.5 14t-40 39.5t-14.5 53.5zM682 1182v-891h-154v891h154zM701 22h-697v340h697v-340zM1193 1216v-968h-155v968h155zM1179 1152v-967h-155v967h155zM782 1057v-774h-155v774h155zM1194 262l-86 -171l-86 171
h172zM698 344l35 -22l-36 -22zM539 128q0 27 14 52.5t39.5 39.5t53.5 14t53.5 -14t39.5 -39.5t14 -52.5q0 -28 -14.5 -53.5t-40 -39.5t-52.5 -14t-52.5 14t-40 39.5t-14.5 53.5zM1207 106v-353h-164v353h164z" />
    <glyph glyph-name="afii10092" unicode="&#x44a;" horiz-adv-x="965" 
d="M623 55q-124 0 -210.5 80t-86.5 195q0 114 87 194t210 80q122 0 208.5 -80t86.5 -194q0 -115 -85.5 -195t-209.5 -80zM623 130q89 0 151.5 58t62.5 141t-62.5 141t-151.5 58t-151.5 -58t-62.5 -141t62 -141t152 -58zM408 1138v-1113h-136v1113h136zM614 0
q-147 0 -248.5 95t-101.5 230q0 134 102.5 228.5t247.5 94.5q144 0 246.5 -94.5t102.5 -228.5q0 -135 -101.5 -230t-247.5 -95zM614 88q105 0 179 68.5t74 167.5q0 98 -74 166.5t-179 68.5t-179 -68.5t-74 -166.5q0 -99 73.5 -167.5t179.5 -68.5zM298 817l-298 266l70 78
l298 -266zM418 1077l-323 -235l-62 85l324 235z" />
    <glyph glyph-name="afii10093" unicode="&#x44b;" horiz-adv-x="1414" 
d="M488 951q206 0 348.5 -133t142.5 -322t-143.5 -321.5t-347.5 -132.5q-201 0 -344.5 132.5t-143.5 321.5t142 322t346 133zM488 827q-147 0 -250.5 -96t-103.5 -234q0 -137 103.5 -233t250.5 -96q148 0 251.5 96t103.5 233q0 138 -103 234t-252 96zM150 1821v-1796h-143
v1796h143zM1139 7v1856h250v-1856h-250zM492 878q169 0 286.5 -109.5t117.5 -265.5t-118 -265t-286 -109q-166 0 -284 109t-118 265t117 265.5t285 109.5zM492 775q-121 0 -206.5 -79t-85.5 -192t85.5 -192t206.5 -79q122 0 207 79t85 192t-85 192t-207 79zM213 1842v-1817
h-117v1817h117z" />
    <glyph glyph-name="afii10094" unicode="&#x44c;" horiz-adv-x="715" 
d="M340 585q125 0 211 -80.5t86 -194.5t-87 -194.5t-210 -80.5q-121 0 -208 80.5t-87 194.5t86 194.5t209 80.5zM340 510q-89 0 -151.5 -58t-62.5 -142q0 -82 62.5 -140.5t151.5 -58.5q90 0 152.5 58.5t62.5 140.5q0 84 -62.5 142t-152.5 58zM136 1138v-1113h-136v1113h136z
M349 640q147 0 249 -95t102 -230t-102.5 -229.5t-248.5 -94.5q-143 0 -245.5 94.5t-102.5 229.5t101 230t247 95zM349 551q-105 0 -179 -68.5t-74 -166.5t74 -166.5t179 -68.5q106 0 180 68.5t74 166.5t-74 166.5t-180 68.5z" />
    <glyph glyph-name="afii10095" unicode="&#x44d;" horiz-adv-x="632" 
d="M509 108q-96 -108 -224.5 -141.5t-284.5 2.5l24 107q236 -54 387 118q150 171 68 400l102 36q56 -149 40 -280.5t-112 -241.5zM591 220l-102 36q82 229 -68 400q-151 172 -387 118l-24 107q156 36 284.5 2.5t224.5 -141.5q96 -110 112 -241.5t-40 -280.5zM537 373h-310
v119h310v-119z" />
    <glyph glyph-name="afii10096" unicode="&#x44e;" horiz-adv-x="1673" 
d="M388 667q0 313 186.5 530.5t451.5 217.5q264 0 450 -219t186 -529q0 -309 -186 -527.5t-450 -218.5q-265 0 -451.5 217t-186.5 529zM593 663q0 -221 132 -374.5t320 -153.5q187 0 319 153.5t132 374.5q0 218 -132 372.5t-319 154.5q-188 0 -320 -153.5t-132 -373.5zM5 8
l-2 1303h264l2 -1303h-264zM462 517h-334v236h334v-236zM1679 542l-36 -102q-229 82 -400 -68q-172 -151 -118 -387l-107 -24q-36 156 -2.5 284.5t141.5 224.5q110 96 241.5 112t280.5 -40zM1563 363l-21 -57q-129 46 -226 -39t-67 -219l-60 -13q-21 88 -2 160.5t80 127.5
q63 54 137 63t159 -23zM663 76l-663 1019l79 48l663 -1018zM742 1095l-663 -1019l-79 49l663 1018z" />
    <glyph glyph-name="afii10097" unicode="&#x44f;" horiz-adv-x="709" 
d="M658 1136q0 -156 -91.5 -266t-220.5 -110q-130 0 -221.5 110t-91.5 266q0 157 91 267.5t222 110.5q130 0 221 -110.5t91 -267.5zM181 1138q0 -96 67 -163t163 -67t163.5 67t67.5 163t-67.5 163t-163.5 67t-163 -67t-67 -163zM678 1138q0 -98 -44 -186.5t-123.5 -137.5
t-165.5 -49t-165.5 49t-123 137.5t-43.5 186.5q0 97 45 187t124.5 138t162.5 48q85 0 164 -48t124 -138t45 -187zM694 1616v-1582h-145v1582h145zM124 198q32 55 42 221t31 261q6 43 27 79q44 74 147 101t239 -23l-21 -35q-104 23 -169.5 0.5t-99.5 -78.5q-31 -52 -42 -202
q-17 -214 -27 -263t-32 -86q-48 -80 -154 -108.5t-237 19.5l22 36q93 -27 165.5 -4.5t108.5 82.5z" />
    <glyph glyph-name="Euro" unicode="&#x20ac;" 
d="M204 970l128 -4q-9 -286 221 -424q231 -138 476 8l66 -112q-162 -96 -318.5 -105t-302.5 77q-148 89 -213.5 230.5t-56.5 329.5zM478 1582q148 84 304.5 72.5t316.5 -110.5l-68 -111q-242 150 -476 16q-232 -134 -228 -420l-127 -2q-6 188 61.5 328.5t216.5 226.5z
M327 1230v-435h-123v435h123zM1043 987l-1043 22l3 134l1043 -22zM937 813l-880 30v135l880 -30v-135zM539 1466q120 68 246 58.5t255 -89.5l-54 -89q-196 121 -385 13q-187 -108 -184 -340l-103 -1q-4 152 50.5 265.5t174.5 182.5zM417 1182v-351h-100v351h100z" />
    <glyph glyph-name="afii61352" unicode="&#x2116;" horiz-adv-x="1996" 
d="M-1 154v1598h2001v-1598h-2001zM227 1607v-1178h155v1178h-155zM1042 1552v-1197h155v1197h-155zM1256 843q0 -130 92 -221t221 -91q130 0 221.5 91t91.5 221t-91 221.5t-222 91.5t-222 -91.5t-91 -221.5zM1795 844q0 -94 -66 -160.5t-160 -66.5q-95 0 -161 66.5
t-66 160.5t66 160t161 66t160.5 -66t65.5 -160zM1766 386v138h-416v-138h416zM385 1210l656 -856v321l3 25l-665 834z" />
    <glyph glyph-name="trademark" unicode="&#x2122;" horiz-adv-x="1324" 
d="M244 1109v597h166v-597h-166zM0 1617l3 159l590 1l-7 -154zM219 1578v24h-15l-61 6l76 3v58h12v-58h77v-9h-77v-59zM578 1127v561h130v-561h-130zM1166 1127v566h130v-566h-130zM677 1673q25 0 48.5 -9.5t37 -26.5t225.5 -392q-80 64 -159 183.5t103 -113t-255 212.5
q-26 0 -49.5 10t-36.5 27t-13 36t13.5 36t37 26.5t48.5 9.5zM1228 1647l-283 -385l-46 47l270 380z" />
  </font>
</defs>
</svg>
