<?xml version="1.0" standalone="no"?>
<!DOCTYPE svg PUBLIC "-//W3C//DTD SVG 1.1//EN" "http://www.w3.org/Graphics/SVG/1.1/DTD/svg11.dtd" >
<svg xmlns="http://www.w3.org/2000/svg" xmlns:xlink="http://www.w3.org/1999/xlink" version="1.1">
<metadata>
Created by FontForge 20201107 at Mon Apr  6 19:27:19 2026
 By www-data
Dedicated to the public domain
</metadata>
<defs>
<font id="Bedstead-BoldCondensed" horiz-adv-x="921" >
  <font-face 
    font-family="Bedstead Condensed"
    font-weight="700"
    font-stretch="condensed"
    units-per-em="2048"
    panose-1="2 11 6 9 2 2 1 5 3 7"
    ascent="1638"
    descent="-410"
    x-height="1024"
    cap-height="1434"
    bbox="0 -410 922 1638"
    underline-thickness="204"
    underline-position="-306"
    unicode-range="U+0020-1FBCA"
  />
<missing-glyph 
d="M77 1434h845v-1434h-845v1434zM307 1229v-1024h384v1024h-384z" />
    <glyph glyph-name=".notdef" 
d="M77 1434h845v-1434h-845v1434zM307 1229v-1024h384v1024h-384z" />
    <glyph glyph-name=".null" horiz-adv-x="0" 
 />
    <glyph glyph-name="nonmarkingreturn" 
 />
    <glyph glyph-name="space" unicode=" " 
 />
    <glyph glyph-name="exclam" unicode="!" 
d="M384 1434h230v-1024h-230v1024zM384 0v205h230v-205h-230z" />
    <glyph glyph-name="quotedbl" unicode="&#x22;" 
d="M230 1434h231v-615h-231v615zM538 1434h230v-615h-230v615z" />
    <glyph glyph-name="numbersign" unicode="#" 
d="M77 819v205h153v410h231v-410h77v410h230v-410h154v-205h-154v-205h154v-204h-154v-410h-230v410h-77v-410h-231v410h-153v204h153v205h-153zM461 819v-205h77v205h-77z" />
    <glyph glyph-name="dollar" unicode="$" 
d="M77 1169l198 265h448l199 -265v-145h-186l-122 162v-367h109l199 -264v-291l-199 -264h-448l-198 264v146h186l121 -162v366h-109l-198 265v290zM307 1083v-118l77 -103v324zM691 469l-77 102v-323l77 102v119z" />
    <glyph glyph-name="percent" unicode="%" 
d="M77 1434h384v-410h-384v410zM77 205v145l659 879h186v-146l-659 -878h-186zM538 410h384v-410h-384v410z" />
    <glyph glyph-name="ampersand" unicode="&#x26;" 
d="M77 1169l198 265h141l198 -265v-290l-121 -162l160 -213l83 110h186v-145l-122 -162l122 -162v-145h-186l-83 111l-83 -111h-295l-198 264v291l121 162l-121 162v290zM307 1083v-118l39 -52l38 52v118l-38 52zM307 469v-119l109 -145h13l76 102l-159 213z" />
    <glyph glyph-name="quotesingle" unicode="'" 
d="M384 1434h230v-615h-230v615z" />
    <glyph glyph-name="parenleft" unicode="(" 
d="M230 965l352 469h186v-146l-307 -409v-324l307 -410v-145h-186l-352 469v496z" />
    <glyph glyph-name="parenright" unicode=")" 
d="M230 1288v146h186l352 -469v-496l-352 -469h-186v145l308 410v324z" />
    <glyph glyph-name="asterisk" unicode="*" 
d="M77 1083v146h186l121 -162v367h230v-367l122 162h186v-146l-199 -264h-109v-205h109l199 -264v-145h-186l-122 162v-367h-230v367l-121 -162h-186v145l198 264h109v205h-109z" />
    <glyph glyph-name="plus" unicode="+" 
d="M77 614v205h307v410h230v-410h308v-205h-308v-409h-230v409h-307z" />
    <glyph glyph-name="comma" unicode="," 
d="M384 145v265h230v-351l-198 -264h-186v146z" />
    <glyph glyph-name="hyphen" unicode="-" 
d="M230 614v205h538v-205h-538z" />
    <glyph glyph-name="period" unicode="." 
d="M384 0v205h230v-205h-230z" />
    <glyph glyph-name="slash" unicode="/" 
d="M77 205v145l659 879h186v-146l-659 -878h-186z" />
    <glyph glyph-name="zero" unicode="0" 
d="M77 965l352 469h141l352 -469v-496l-352 -469h-141l-352 469v496zM307 879v-324l192 -256l192 256v324l-192 256z" />
    <glyph glyph-name="one" unicode="1" 
d="M230 1024v205h154v205h230v-1229h154v-205h-538v205h154v819h-154z" />
    <glyph glyph-name="two" unicode="2" 
d="M77 1024v145l198 265h448l199 -265v-290l-199 -265h-153l-263 -350v-59h615v-205h-845v350l352 469h153l109 146v118l-109 146h-166l-153 -205h-186z" />
    <glyph glyph-name="three" unicode="3" 
d="M77 1229v205h845v-351l-154 -204v-119l154 -205v-291l-199 -264h-448l-198 264v146h186l153 -205h166l109 145v119l-109 145h-198v205h154v146l153 204v60h-614z" />
    <glyph glyph-name="four" unicode="4" 
d="M77 760l352 469h109v205h230v-820h154v-204h-154v-410h-230v410h-461v350zM307 674v-60h231v367z" />
    <glyph glyph-name="five" unicode="5" 
d="M77 1434h845v-205h-615v-205h416l199 -264v-496l-199 -264h-448l-198 264v146h186l153 -205h166l109 145v324l-109 145h-505v615z" />
    <glyph glyph-name="six" unicode="6" 
d="M77 965l352 469h339v-205h-198l-263 -350v-60h416l199 -264v-291l-199 -264h-448l-198 264v701zM307 614v-264l109 -145h166l109 145v119l-109 145h-275z" />
    <glyph glyph-name="seven" unicode="7" 
d="M77 1229v205h845v-351l-461 -614v-469h-231v555l461 614v60h-614z" />
    <glyph glyph-name="eight" unicode="8" 
d="M77 1169l198 265h448l199 -265v-290l-122 -162l122 -162v-291l-199 -264h-448l-198 264v291l121 162l-121 162v290zM416 1229l-109 -146v-118l109 -146h166l109 146v118l-109 146h-166zM416 614l-109 -145v-119l109 -145h166l109 145v119l-109 145h-166z" />
    <glyph glyph-name="nine" unicode="9" 
d="M77 1169l198 265h448l199 -265v-700l-352 -469h-340v205h199l262 350v59h-416l-198 265v290zM416 1229l-109 -146v-118l109 -146h275v264l-109 146h-166z" />
    <glyph glyph-name="colon" unicode=":" 
d="M384 819v205h230v-205h-230zM384 0v205h230v-205h-230z" />
    <glyph glyph-name="semicolon" unicode=";" 
d="M384 145v265h230v-351l-198 -264h-186v146zM384 819v205h230v-205h-230z" />
    <glyph glyph-name="less" unicode="&#x3c;" 
d="M77 674v86l505 674h186v-146l-429 -571l429 -572v-145h-186z" />
    <glyph glyph-name="equal" unicode="=" 
d="M77 819v205h845v-205h-845zM77 410v204h845v-204h-845z" />
    <glyph glyph-name="greater" unicode="&#x3e;" 
d="M230 1288v146h186l506 -674v-86l-506 -674h-186v145l429 572z" />
    <glyph glyph-name="question" unicode="?" 
d="M77 1024v145l198 265h448l199 -265v-86l-308 -409v-264h-230v350l275 366l-77 103h-166l-153 -205h-186zM384 0v205h230v-205h-230z" />
    <glyph glyph-name="at" unicode="@" 
d="M77 1169l198 265h448l199 -265v-759h-538v614h307v59l-109 146h-166l-109 -146v-733l109 -145h352v-205h-493l-198 264v905zM614 819v-205h77v205h-77z" />
    <glyph glyph-name="A" unicode="A" 
d="M77 965l352 469h141l352 -469v-965h-231v410h-384v-410h-230v965zM307 879v-265h384v265l-192 256z" />
    <glyph glyph-name="B" unicode="B" 
d="M77 1434h646l199 -265v-290l-122 -162l122 -162v-291l-199 -264h-646v1434zM307 1229v-410h275l109 146v118l-109 146h-275zM307 614v-409h275l109 145v119l-109 145h-275z" />
    <glyph glyph-name="C" unicode="C" 
d="M77 1169l198 265h448l199 -265v-145h-186l-154 205h-166l-109 -146v-733l109 -145h166l154 205h186v-146l-199 -264h-448l-198 264v905z" />
    <glyph glyph-name="D" unicode="D" 
d="M77 1434h646l199 -265v-905l-199 -264h-646v1434zM307 1229v-1024h275l109 145v733l-109 146h-275z" />
    <glyph glyph-name="E" unicode="E" 
d="M77 1434h845v-205h-615v-410h461v-205h-461v-409h615v-205h-845v1434z" />
    <glyph glyph-name="F" unicode="F" 
d="M77 1434h845v-205h-615v-410h461v-205h-461v-614h-230v1434z" />
    <glyph glyph-name="G" unicode="G" 
d="M77 1169l198 265h448l199 -265v-145h-186l-154 205h-166l-109 -146v-733l109 -145h275v205h-153v204h384v-614h-647l-198 264v905z" />
    <glyph glyph-name="H" unicode="H" 
d="M77 1434h230v-615h384v615h231v-1434h-231v614h-384v-614h-230v1434z" />
    <glyph glyph-name="I" unicode="I" 
d="M230 1229v205h538v-205h-154v-1024h154v-205h-538v205h154v1024h-154z" />
    <glyph glyph-name="J" unicode="J" 
d="M77 264v146h186l153 -205h166l109 145v1084h231v-1170l-199 -264h-448z" />
    <glyph glyph-name="K" unicode="K" 
d="M77 1434h230v-572l429 572h186v-146l-429 -571l429 -572v-145h-186l-429 571v-571h-230v1434z" />
    <glyph glyph-name="L" unicode="L" 
d="M77 1434h230v-1229h615v-205h-845v1434z" />
    <glyph glyph-name="M" unicode="M" 
d="M77 1434h230v-205h109l83 -111l83 111h109v205h231v-1434h-231v981l-77 -102v-265h-230v265l-77 102v-981h-230v1434z" />
    <glyph glyph-name="N" unicode="N" 
d="M77 1434h230v-410h109l275 -367v777h231v-1434h-231v410h-109l-275 366v-776h-230v1434z" />
    <glyph glyph-name="O" unicode="O" 
d="M77 1169l198 265h448l199 -265v-905l-199 -264h-448l-198 264v905zM416 1229l-109 -146v-733l109 -145h166l109 145v733l-109 146h-166z" />
    <glyph glyph-name="P" unicode="P" 
d="M77 1434h646l199 -265v-290l-199 -265h-416v-614h-230v1434zM307 1229v-410h275l109 146v118l-109 146h-275z" />
    <glyph glyph-name="Q" unicode="Q" 
d="M77 1169l198 265h448l199 -265v-700l-122 -162l122 -162v-145h-186l-83 111l-83 -111h-295l-198 264v905zM416 1229l-109 -146v-733l109 -145h13l76 102l-121 162v145h186l83 -110l38 51v528l-109 146h-166z" />
    <glyph glyph-name="R" unicode="R" 
d="M77 1434h646l199 -265v-290l-199 -265h-109v-59l308 -410v-145h-186l-352 469v145h-77v-614h-230v1434zM307 1229v-410h275l109 146v118l-109 146h-275z" />
    <glyph glyph-name="S" unicode="S" 
d="M77 1169l198 265h448l199 -265v-145h-186l-154 205h-166l-109 -146v-118l109 -146h307l199 -264v-291l-199 -264h-448l-198 264v146h186l153 -205h166l109 145v119l-109 145h-307l-198 265v290z" />
    <glyph glyph-name="T" unicode="T" 
d="M77 1229v205h845v-205h-308v-1229h-230v1229h-307z" />
    <glyph glyph-name="U" unicode="U" 
d="M77 1434h230v-1084l109 -145h166l109 145v1084h231v-1170l-199 -264h-448l-198 264v1170z" />
    <glyph glyph-name="V" unicode="V" 
d="M77 1434h230v-469l154 -205v-205l38 -51l39 51v205l153 205v469h231v-555l-154 -205v-205l-154 -205v-264h-230v264l-154 205v205l-153 205v555z" />
    <glyph glyph-name="W" unicode="W" 
d="M77 1434h230v-1084l39 -51l38 51v469h230v-469l39 -51l38 51v1084h231v-1170l-199 -264h-141l-83 111l-83 -111h-141l-198 264v1170z" />
    <glyph glyph-name="X" unicode="X" 
d="M77 1434h230v-265l192 -256l192 256v265h231v-351l-275 -366l275 -367v-350h-231v264l-192 256l-192 -256v-264h-230v350l275 367l-275 366v351z" />
    <glyph glyph-name="Y" unicode="Y" 
d="M77 1434h230v-265l192 -256l192 256v265h231v-351l-308 -409v-674h-230v674l-307 409v351z" />
    <glyph glyph-name="Z" unicode="Z" 
d="M77 1229v205h845v-351l-615 -819v-59h615v-205h-845v350l614 819v60h-614z" />
    <glyph glyph-name="bracketleft" unicode="[" 
d="M230 1434h692v-205h-461v-1024h461v-205h-692v1434z" />
    <glyph glyph-name="backslash" unicode="\" 
d="M77 1083v146h186l659 -879v-145h-186z" />
    <glyph glyph-name="bracketright" unicode="]" 
d="M77 1229v205h691v-1434h-691v205h461v1024h-461z" />
    <glyph glyph-name="asciicircum" unicode="^" 
d="M77 819v146l352 469h141l352 -469v-146h-186l-237 316l-236 -316h-186z" />
    <glyph glyph-name="underscore" unicode="_" 
d="M77 0v205h845v-205h-845z" />
    <glyph glyph-name="grave" unicode="`" 
d="M230 1288v146h186l352 -469v-146h-186z" />
    <glyph glyph-name="a" unicode="a" 
d="M77 264v86l198 264h416v60l-109 145h-352v205h493l199 -264v-760h-647zM416 205h275v205h-275l-77 -103z" />
    <glyph glyph-name="b" unicode="b" 
d="M77 1434h230v-410h416l199 -264v-496l-199 -264h-646v1434zM307 819v-614h275l109 145v324l-109 145h-275z" />
    <glyph glyph-name="c" unicode="c" 
d="M77 760l198 264h647v-205h-506l-109 -145v-324l109 -145h506v-205h-647l-198 264v496z" />
    <glyph glyph-name="d" unicode="d" 
d="M77 760l198 264h416v410h231v-1434h-647l-198 264v496zM416 819l-109 -145v-324l109 -145h275v614h-275z" />
    <glyph glyph-name="e" unicode="e" 
d="M77 760l198 264h448l199 -264v-350h-615v-60l109 -145h352v-205h-493l-198 264v496zM416 819l-109 -145v-60h384v60l-109 145h-166z" />
    <glyph glyph-name="f" unicode="f" 
d="M230 614v205h154v350l198 265h186v-146l-154 -205v-264h154v-205h-154v-614h-230v614h-154z" />
    <glyph glyph-name="g" unicode="g" 
d="M77 760l198 264h647v-1169l-199 -265h-493v205h352l109 146v59h-416l-198 264v496zM416 819l-109 -145v-324l109 -145h275v614h-275z" />
    <glyph glyph-name="h" unicode="h" 
d="M77 1434h230v-410h416l199 -264v-760h-231v674l-109 145h-275v-819h-230v1434z" />
    <glyph glyph-name="i" unicode="i" 
d="M230 819v205h384v-819h154v-205h-538v205h154v614h-154zM384 1229v205h230v-205h-230z" />
    <glyph glyph-name="j" unicode="j" 
d="M384 -59v1083h230v-1169l-198 -265h-186v146zM384 1229v205h230v-205h-230z" />
    <glyph glyph-name="k" unicode="k" 
d="M230 1434h231v-777l275 367h186v-145l-275 -367l275 -367v-145h-186l-275 367v-367h-231v1434z" />
    <glyph glyph-name="l" unicode="l" 
d="M230 1229v205h384v-1229h154v-205h-538v205h154v1024h-154z" />
    <glyph glyph-name="m" unicode="m" 
d="M77 1024h339l83 -111l83 111h141l199 -264v-760h-231v674l-38 51l-39 -51v-674h-230v674l-77 102v-776h-230v1024z" />
    <glyph glyph-name="n" unicode="n" 
d="M77 1024h646l199 -264v-760h-231v674l-109 145h-275v-819h-230v1024z" />
    <glyph glyph-name="o" unicode="o" 
d="M77 760l198 264h448l199 -264v-496l-199 -264h-448l-198 264v496zM416 819l-109 -145v-324l109 -145h166l109 145v324l-109 145h-166z" />
    <glyph glyph-name="p" unicode="p" 
d="M77 1024h646l199 -264v-496l-199 -264h-416v-410h-230v1434zM307 819v-614h275l109 145v324l-109 145h-275z" />
    <glyph glyph-name="q" unicode="q" 
d="M77 760l198 264h647v-1434h-231v410h-416l-198 264v496zM416 819l-109 -145v-324l109 -145h275v614h-275z" />
    <glyph glyph-name="r" unicode="r" 
d="M230 1024h231v-162l121 162h340v-205h-199l-153 -205h-109v-614h-231v1024z" />
    <glyph glyph-name="s" unicode="s" 
d="M77 674v86l198 264h647v-205h-506l-77 -102l77 -103h307l199 -264v-86l-199 -264h-646v205h505l77 102l-77 103h-307z" />
    <glyph glyph-name="t" unicode="t" 
d="M230 819v205h154v410h230v-410h154v-205h-154v-469l154 -205v-145h-186l-198 264v555h-154z" />
    <glyph glyph-name="u" unicode="u" 
d="M77 1024h230v-674l109 -145h275v819h231v-1024h-647l-198 264v760z" />
    <glyph glyph-name="v" unicode="v" 
d="M77 1024h230v-264l154 -205v-205l38 -51l39 51v205l153 205v264h231v-350l-154 -205v-205l-198 -264h-141l-199 264v205l-153 205v350z" />
    <glyph glyph-name="w" unicode="w" 
d="M77 1024h230v-674l39 -51l38 51v264h230v-264l39 -51l38 51v674h231v-760l-199 -264h-141l-83 111l-83 -111h-141l-198 264v760z" />
    <glyph glyph-name="x" unicode="x" 
d="M77 879v145h186l236 -315l237 315h186v-145l-275 -367l275 -367v-145h-186l-237 315l-236 -315h-186v145l275 367z" />
    <glyph glyph-name="y" unicode="y" 
d="M77 1024h230v-674l109 -145h275v819h231v-1169l-199 -265h-493v205h352l109 146v59h-416l-198 264v760z" />
    <glyph glyph-name="z" unicode="z" 
d="M77 819v205h845v-205h-154v-145l-307 -410v-59h461v-205h-845v205h153v145l308 410v59h-461z" />
    <glyph glyph-name="braceleft" unicode="{" 
d="M384 965v204l198 265h340v-205h-199l-109 -146v-204l-121 -162l121 -162v-205l109 -145h199v-205h-340l-198 264v205l-154 205v86z" />
    <glyph glyph-name="bar" unicode="|" 
d="M384 1434h230v-1434h-230v1434z" />
    <glyph glyph-name="braceright" unicode="}" 
d="M77 1229v205h339l198 -265v-204l154 -205v-86l-154 -205v-205l-198 -264h-339v205h198l109 145v205l121 162l-121 162v204l-109 146h-198z" />
    <glyph glyph-name="asciitilde" unicode="~" 
d="M77 1024v145l198 265h141l237 -316l83 111h186v-146l-199 -264h-141l-236 316l-83 -111h-186z" />
    <glyph glyph-name="uni00A0" unicode="&#xa0;" 
 />
    <glyph glyph-name="exclamdown" unicode="&#xa1;" 
d="M384 819v205h230v-205h-230zM384 614h230v-1024h-230v1024z" />
    <glyph glyph-name="cent" unicode="&#xa2;" 
d="M77 760l198 264h109v205h230v-205h308v-205h-308v-614h308v-205h-308v-205h-230v205h-109l-198 264v496zM307 674v-324l77 -102v528z" />
    <glyph glyph-name="sterling" unicode="&#xa3;" 
d="M77 614v205h153v350l199 265h294l199 -265v-145h-186l-154 205h-12l-109 -146v-264h153v-205h-153v-409h461v-205h-845v205h153v409h-153z" />
    <glyph glyph-name="currency" unicode="&#xa4;" 
d="M77 879v145h186l153 -205h166l154 205h186v-145l-154 -205v-324l154 -205v-145h-186l-154 205h-166l-153 -205h-186v145l153 205v324zM461 614v-204h77v204h-77z" />
    <glyph glyph-name="yen" unicode="&#xa5;" 
d="M77 1288v146h186l198 -265v-145h77v145l198 265h186v-146l-154 -205v-59h154v-205h-308v-205h308v-204h-308v-410h-230v410h-307v204h307v205h-307v205h153v59z" />
    <glyph glyph-name="brokenbar" unicode="&#xa6;" 
d="M384 1434h230v-615h-230v615zM384 614h230v-614h-230v614z" />
    <glyph glyph-name="section" unicode="&#xa7;" 
d="M77 1169l198 265h448l199 -265v-145h-186l-154 205h-166l-109 -146v-118l109 -146h307l199 -264v-86l-122 -162l122 -162v-290l-199 -265h-448l-198 265v145h186l153 -205h166l109 146v118l-109 146h-307l-198 264v86l121 162l-121 162v290zM416 410h166l77 102l-77 102
h-166l-77 -102z" />
    <glyph glyph-name="dieresis" unicode="&#xa8;" 
d="M230 1229v205h231v-205h-231zM538 1229v205h230v-205h-230z" />
    <glyph glyph-name="copyright" unicode="&#xa9;" 
d="M77 1169l198 265h448l199 -265v-1314l-199 -265h-448l-198 265v1314zM416 1229l-109 -146v-221l122 162h141l121 -162v221l-109 146h-166zM307 162v-221l109 -146h166l109 146v221l-121 -162h-141zM461 674v-324l38 -51l83 111h109v204h-109l-83 111z" />
    <glyph glyph-name="ordfeminine" unicode="&#xaa;" 
d="M77 674v86l198 264h416v59l-109 146h-352v205h493l199 -265v-759h-647zM77 0v205h845v-205h-845zM416 614h275v205h-275l-77 -102z" />
    <glyph glyph-name="guillemotleft" unicode="&#xab;" 
d="M77 469v86l198 264h186v-145l-122 -162l122 -162v-145h-186zM538 469v86l198 264h186v-145l-122 -162l122 -162v-145h-186z" />
    <glyph glyph-name="logicalnot" unicode="&#xac;" 
d="M77 819v205h845v-614h-231v409h-614z" />
    <glyph glyph-name="registered" unicode="&#xae;" 
d="M77 1169l198 265h448l199 -265v-1314l-199 -265h-448l-198 265v1314zM416 1229l-109 -146v-59h263l121 -162v221l-109 146h-166zM307 0v-59l109 -146h166l109 146v59h-109l-121 162v-162h-154zM538 674l-77 102v-323l77 102v119zM647 307l44 -59v119z" />
    <glyph glyph-name="macron" unicode="&#xaf;" 
d="M230 1229v205h538v-205h-538z" />
    <glyph glyph-name="degree" unicode="&#xb0;" 
d="M230 1083v86l199 265h294l199 -265v-86l-199 -264h-294zM570 1024h12l77 102l-77 103h-12l-77 -103z" />
    <glyph glyph-name="plusminus" unicode="&#xb1;" 
d="M77 819v205h307v410h230v-410h308v-205h-308v-409h-230v409h-307zM77 0v205h845v-205h-845z" />
    <glyph glyph-name="twosuperior" unicode="&#xb2;" 
d="M230 1229v205h340l198 -265v-86l-307 -409v-60h307v-204h-538v350l275 366l-76 103h-199z" />
    <glyph glyph-name="threesuperior" unicode="&#xb3;" 
d="M230 1229v205h340l198 -265v-86l-121 -161l121 -162v-86l-198 -264h-340v204h199l76 103l-76 102h-199v205h199l76 102l-76 103h-199z" />
    <glyph glyph-name="acute" unicode="&#xb4;" 
d="M230 819v146l352 469h186v-146l-352 -469h-186z" />
    <glyph glyph-name="mu" unicode="&#xb5;" 
d="M77 1024h230v-819h122l109 145v674h230v-674l154 -205v-145h-186l-83 111l-83 -111h-263v-410h-230v1434z" />
    <glyph glyph-name="paragraph" unicode="&#xb6;" 
d="M77 1169l198 265h339v-1434h-230v614h-109l-198 265v290zM307 1083v-118l77 -103v324zM691 1434h231v-1434h-231v1434z" />
    <glyph glyph-name="periodcentered" unicode="&#xb7;" 
d="M384 614v205h230v-205h-230z" />
    <glyph glyph-name="cedilla" unicode="&#xb8;" 
d="M384 59v146h186l198 -264v-86l-198 -265h-186v146l121 162z" />
    <glyph glyph-name="onesuperior" unicode="&#xb9;" 
d="M230 1024v205h154v205h230v-820h154v-204h-538v204h154v410h-154z" />
    <glyph glyph-name="ordmasculine" unicode="&#xba;" 
d="M77 1169l198 265h448l199 -265v-495l-199 -264h-448l-198 264v495zM77 0v205h845v-205h-845zM416 1229l-109 -146v-323l109 -146h166l109 146v323l-109 146h-166z" />
    <glyph glyph-name="guillemotright" unicode="&#xbb;" 
d="M77 674v145h186l198 -264v-86l-198 -264h-186v145l121 162zM538 674v145h185l199 -264v-86l-199 -264h-185v145l121 162z" />
    <glyph glyph-name="onequarter" unicode="&#xbc;" 
d="M230 1434h231v-1024h-231v1024zM384 145l198 265h109v204h231v-1024h-231v205h-307v350zM614 59v-59h77v162z" />
    <glyph glyph-name="onehalf" unicode="&#xbd;" 
d="M77 1434h230v-1024h-230v1024zM384 410v204h339l199 -264v-86l-308 -409v-60h308v-205h-538v351l275 366l-77 103h-198z" />
    <glyph glyph-name="threequarters" unicode="&#xbe;" 
d="M77 1229v205h339l198 -265v-86l-121 -161l121 -162v-86l-198 -264h-339v204h198l77 103l-77 102h-198v205h198l77 102l-77 103h-198zM384 145l198 265h109v204h231v-1024h-231v205h-307v350zM614 59v-59h77v162z" />
    <glyph glyph-name="questiondown" unicode="&#xbf;" 
d="M77 -145v86l307 409v264h230v-350l-275 -366l77 -103h166l154 205h186v-145l-199 -265h-448zM384 819v205h230v-205h-230z" />
    <glyph glyph-name="Agrave" unicode="&#xc0;" 
d="M77 760l198 264h109v59l-154 205v146h186l198 -265v-145h109l199 -264v-760h-231v410h-384v-410h-230v760zM416 819l-109 -145v-60h384v60l-109 145h-166z" />
    <glyph glyph-name="Aacute" unicode="&#xc1;" 
d="M77 760l198 264h109v145l198 265h186v-146l-154 -205v-59h109l199 -264v-760h-231v410h-384v-410h-230v760zM416 819l-109 -145v-60h384v60l-109 145h-166z" />
    <glyph glyph-name="Acircumflex" unicode="&#xc2;" 
d="M230 965v204l199 265h141l198 -265v-204l154 -205v-760h-231v410h-384v-410h-230v760zM416 819l-109 -145v-60h384v60l-109 145h-166zM461 1083v-59h77v59l-39 52z" />
    <glyph glyph-name="Atilde" unicode="&#xc3;" 
d="M230 965v204l199 265h141l83 -111l83 111h186v-146l-154 -205v-118l154 -205v-760h-231v410h-384v-410h-230v760zM416 819l-109 -145v-60h384v60l-109 145h-166zM461 1083v-59h77v59l-39 52z" />
    <glyph glyph-name="Adieresis" unicode="&#xc4;" 
d="M77 760l198 264h448l199 -264v-760h-231v410h-384v-410h-230v760zM230 1229v205h231v-205h-231zM416 819l-109 -145v-60h384v60l-109 145h-166zM538 1229v205h230v-205h-230z" />
    <glyph glyph-name="Aring" unicode="&#xc5;" 
d="M77 760l198 264h448l199 -264v-760h-231v410h-384v-410h-230v760zM416 819l-109 -145v-60h384v60l-109 145h-166zM384 1229v205h230v-205h-230z" />
    <glyph glyph-name="AE" unicode="&#xc6;" 
d="M77 1169l198 265h647v-205h-308v-410h154v-205h-154v-409h308v-205h-538v410h-77v-410h-230v1169zM307 1083v-469h77v572z" />
    <glyph glyph-name="Ccedilla" unicode="&#xc7;" 
d="M77 1169l198 265h448l199 -265v-145h-186l-154 205h-166l-109 -146v-733l109 -145h166l154 205h186v-146l-199 -264h-109v-145l-198 -265h-186v146l154 205v59h-109l-198 264v905z" />
    <glyph glyph-name="Egrave" unicode="&#xc8;" 
d="M77 1024h307v59l-154 205v146h186l198 -265v-145h308v-205h-615v-205h461v-204h-461v-205h615v-205h-845v1024z" />
    <glyph glyph-name="Eacute" unicode="&#xc9;" 
d="M77 1024h307v145l198 265h186v-146l-154 -205v-59h308v-205h-615v-205h461v-204h-461v-205h615v-205h-845v1024z" />
    <glyph glyph-name="Ecircumflex" unicode="&#xca;" 
d="M77 1024h153v145l199 265h141l198 -265v-145h154v-205h-615v-205h461v-204h-461v-205h615v-205h-845v1024zM461 1024h77v59l-39 52l-38 -52v-59z" />
    <glyph glyph-name="Edieresis" unicode="&#xcb;" 
d="M77 1024h845v-205h-615v-205h461v-204h-461v-205h615v-205h-845v1024zM230 1229v205h231v-205h-231zM538 1229v205h230v-205h-230z" />
    <glyph glyph-name="Igrave" unicode="&#xcc;" 
d="M230 1288v146h186l198 -265v-145h-185zM230 614v205h538v-205h-154v-409h154v-205h-538v205h154v409h-154z" />
    <glyph glyph-name="Iacute" unicode="&#xcd;" 
d="M230 614v205h538v-205h-154v-409h154v-205h-538v205h154v409h-154zM384 1024v145l198 265h186v-146l-198 -264h-186z" />
    <glyph glyph-name="Icircumflex" unicode="&#xce;" 
d="M230 1024v145l199 265h141l198 -265v-145h-186l-83 111l-83 -111h-186zM230 614v205h538v-205h-154v-409h154v-205h-538v205h154v409h-154z" />
    <glyph glyph-name="Idieresis" unicode="&#xcf;" 
d="M230 1229v205h231v-205h-231zM230 819v205h538v-205h-154v-614h154v-205h-538v205h154v614h-154zM538 1229v205h230v-205h-230z" />
    <glyph glyph-name="Eth" unicode="&#xd0;" 
d="M77 614v205h153v615h493l199 -265v-905l-199 -264h-493v614h-153zM461 1229v-410h153v-205h-153v-409h121l109 145v733l-109 146h-121z" />
    <glyph glyph-name="Ntilde" unicode="&#xd1;" 
d="M77 819h339l275 -366v366h231v-819h-231v205h-109l-275 366v-571h-230v819zM230 1024v145l199 265h141l83 -111l83 111h186v-146l-199 -264h-141l-83 111l-83 -111h-186z" />
    <glyph glyph-name="Ograve" unicode="&#xd2;" 
d="M77 760l198 264h109v59l-154 205v146h186l198 -265v-145h109l199 -264v-496l-199 -264h-448l-198 264v496zM416 819l-109 -145v-324l109 -145h166l109 145v324l-109 145h-166z" />
    <glyph glyph-name="Oacute" unicode="&#xd3;" 
d="M77 760l198 264h109v145l198 265h186v-146l-154 -205v-59h109l199 -264v-496l-199 -264h-448l-198 264v496zM416 819l-109 -145v-324l109 -145h166l109 145v324l-109 145h-166z" />
    <glyph glyph-name="Ocircumflex" unicode="&#xd4;" 
d="M230 965v204l199 265h141l198 -265v-204l154 -205v-496l-199 -264h-448l-198 264v496zM416 819l-109 -145v-324l109 -145h166l109 145v324l-109 145h-166zM461 1083v-59h77v59l-39 52z" />
    <glyph glyph-name="Otilde" unicode="&#xd5;" 
d="M230 965v204l199 265h141l83 -111l83 111h186v-146l-154 -205v-118l154 -205v-496l-199 -264h-448l-198 264v496zM416 819l-109 -145v-324l109 -145h166l109 145v324l-109 145h-166zM461 1083v-59h77v59l-39 52z" />
    <glyph glyph-name="Odieresis" unicode="&#xd6;" 
d="M77 760l198 264h448l199 -264v-496l-199 -264h-448l-198 264v496zM230 1229v205h231v-205h-231zM416 819l-109 -145v-324l109 -145h166l109 145v324l-109 145h-166zM538 1229v205h230v-205h-230z" />
    <glyph glyph-name="multiply" unicode="&#xd7;" 
d="M77 1083v146h186l236 -316l237 316h186v-146l-275 -366l275 -367v-145h-186l-237 315l-236 -315h-186v145l275 367z" />
    <glyph glyph-name="Oslash" unicode="&#xd8;" 
d="M77 1169l198 265h448l199 -265v-905l-199 -264h-448l-198 264v905zM416 1229l-109 -146v-426l275 367h109v59l-109 146h-166zM307 410v-60l109 -145h166l109 145v426l-275 -366h-109z" />
    <glyph glyph-name="Ugrave" unicode="&#xd9;" 
d="M77 1024h230v-674l109 -145h166l109 145v674h231v-760l-199 -264h-448l-198 264v760zM230 1288v146h186l198 -265v-145h-185z" />
    <glyph glyph-name="Uacute" unicode="&#xda;" 
d="M77 1024h230v-674l109 -145h166l109 145v674h231v-760l-199 -264h-448l-198 264v760zM384 1024v145l198 265h186v-146l-198 -264h-186z" />
    <glyph glyph-name="Ucircumflex" unicode="&#xdb;" 
d="M77 819h230v-469l109 -145h166l109 145v469h231v-555l-199 -264h-448l-198 264v555zM230 1024v145l199 265h141l198 -265v-145h-186l-83 111l-83 -111h-186z" />
    <glyph glyph-name="Udieresis" unicode="&#xdc;" 
d="M77 1024h230v-674l109 -145h166l109 145v674h231v-760l-199 -264h-448l-198 264v760zM230 1229v205h231v-205h-231zM538 1229v205h230v-205h-230z" />
    <glyph glyph-name="Yacute" unicode="&#xdd;" 
d="M77 879v145h186l236 -315l237 315h186v-145l-308 -410v-469h-230v469zM384 1024v145l198 265h186v-146l-198 -264h-186z" />
    <glyph glyph-name="Thorn" unicode="&#xde;" 
d="M77 1434h230v-205h416l199 -264v-291l-199 -264h-416v-410h-230v1434zM307 1024v-410h275l109 146v119l-109 145h-275z" />
    <glyph glyph-name="germandbls" unicode="&#xdf;" 
d="M77 1169l198 265h295l198 -265v-409l154 -205v-291l-199 -264h-339v205h198l109 145v119l-109 145h-198v205h154v264l-109 146h-13l-109 -146v-1493h-230v1579z" />
    <glyph glyph-name="agrave" unicode="&#xe0;" 
d="M77 264v86l198 264h416v60l-109 145h-352v205h154v59l-154 205v146h186l198 -265v-145h109l199 -264v-760h-647zM416 205h275v205h-275l-77 -103z" />
    <glyph glyph-name="aacute" unicode="&#xe1;" 
d="M77 264v86l198 264h416v60l-109 145h-352v205h154v145l198 265h186v-146l-154 -205v-59h109l199 -264v-760h-647zM416 205h275v205h-275l-77 -103z" />
    <glyph glyph-name="acircumflex" unicode="&#xe2;" 
d="M77 264v86l198 264h416v60l-109 145h-352v350l199 265h141l198 -265v-204l154 -205v-760h-647zM416 205h275v205h-275l-77 -103zM461 1083v-59h77v59l-39 52z" />
    <glyph glyph-name="atilde" unicode="&#xe3;" 
d="M77 264v86l198 264h416v60l-109 145h-352v350l199 265h141l83 -111l83 111h186v-146l-154 -205v-118l154 -205v-760h-647zM416 205h275v205h-275l-77 -103zM461 1083v-59h77v59l-39 52z" />
    <glyph glyph-name="adieresis" unicode="&#xe4;" 
d="M77 264v86l198 264h416v60l-109 145h-352v205h493l199 -264v-760h-647zM230 1229v205h231v-205h-231zM416 205h275v205h-275l-77 -103zM538 1229v205h230v-205h-230z" />
    <glyph glyph-name="aring" unicode="&#xe5;" 
d="M77 264v86l198 264h416v60l-109 145h-352v205h493l199 -264v-760h-647zM416 205h275v205h-275l-77 -103zM384 1229v205h230v-205h-230z" />
    <glyph glyph-name="ae" unicode="&#xe6;" 
d="M77 264v86l198 264h109v60l-154 205v145h186l83 -111l83 111h141l199 -264v-350h-308v-205h154v-205h-493zM339 307l45 -59v119zM614 614h77v60l-38 51l-39 -51v-60z" />
    <glyph glyph-name="ccedilla" unicode="&#xe7;" 
d="M77 760l198 264h647v-205h-506l-109 -145v-324l109 -145h506v-205h-154v-145l-198 -265h-186v146l154 205v59h-263l-198 264v496z" />
    <glyph glyph-name="egrave" unicode="&#xe8;" 
d="M77 760l198 264h109v59l-154 205v146h186l198 -265v-145h109l199 -264v-350h-615v-60l109 -145h352v-205h-493l-198 264v496zM416 819l-109 -145v-60h384v60l-109 145h-166z" />
    <glyph glyph-name="eacute" unicode="&#xe9;" 
d="M77 760l198 264h109v145l198 265h186v-146l-154 -205v-59h109l199 -264v-350h-615v-60l109 -145h352v-205h-493l-198 264v496zM416 819l-109 -145v-60h384v60l-109 145h-166z" />
    <glyph glyph-name="ecircumflex" unicode="&#xea;" 
d="M230 965v204l199 265h141l198 -265v-204l154 -205v-350h-615v-60l109 -145h352v-205h-493l-198 264v496zM416 819l-109 -145v-60h384v60l-109 145h-166zM461 1083v-59h77v59l-39 52z" />
    <glyph glyph-name="edieresis" unicode="&#xeb;" 
d="M77 760l198 264h448l199 -264v-350h-615v-60l109 -145h352v-205h-493l-198 264v496zM230 1229v205h231v-205h-231zM416 819l-109 -145v-60h384v60l-109 145h-166zM538 1229v205h230v-205h-230z" />
    <glyph glyph-name="igrave" unicode="&#xec;" 
d="M230 1288v146h186l198 -265v-145h-185zM230 614v205h384v-614h154v-205h-538v205h154v409h-154z" />
    <glyph glyph-name="iacute" unicode="&#xed;" 
d="M230 614v205h384v-614h154v-205h-538v205h154v409h-154zM384 1024v145l198 265h186v-146l-198 -264h-186z" />
    <glyph glyph-name="icircumflex" unicode="&#xee;" 
d="M230 1024v145l199 265h141l198 -265v-145h-186l-83 111l-83 -111h-186zM230 614v205h384v-614h154v-205h-538v205h154v409h-154z" />
    <glyph glyph-name="idieresis" unicode="&#xef;" 
d="M230 1229v205h231v-205h-231zM230 819v205h384v-819h154v-205h-538v205h154v614h-154zM538 1229v205h230v-205h-230z" />
    <glyph glyph-name="eth" unicode="&#xf0;" 
d="M77 1229v205h339l83 -111l83 111h186v-146l-121 -162l275 -366v-496l-199 -264h-448l-198 264v86l198 264h416v60l-192 256l-83 -111h-186v146l122 161l-77 103h-198zM416 205h166l109 145v60h-275l-77 -103z" />
    <glyph glyph-name="ntilde" unicode="&#xf1;" 
d="M77 1024h153v145l199 265h141l83 -111l83 111h186v-146l-154 -205v-118l154 -205v-760h-231v674l-109 145h-275v-819h-230v1024zM461 1024h77v59l-39 52l-38 -52v-59z" />
    <glyph glyph-name="ograve" unicode="&#xf2;" 
d="M77 555l198 264h448l199 -264v-291l-199 -264h-448l-198 264v291zM230 1288v146h186l198 -265v-145h-185zM416 614l-109 -145v-119l109 -145h166l109 145v119l-109 145h-166z" />
    <glyph glyph-name="oacute" unicode="&#xf3;" 
d="M77 555l198 264h448l199 -264v-291l-199 -264h-448l-198 264v291zM416 614l-109 -145v-119l109 -145h166l109 145v119l-109 145h-166zM384 1024v145l198 265h186v-146l-198 -264h-186z" />
    <glyph glyph-name="ocircumflex" unicode="&#xf4;" 
d="M77 555l198 264h448l199 -264v-291l-199 -264h-448l-198 264v291zM230 1024v145l199 265h141l198 -265v-145h-186l-83 111l-83 -111h-186zM416 614l-109 -145v-119l109 -145h166l109 145v119l-109 145h-166z" />
    <glyph glyph-name="otilde" unicode="&#xf5;" 
d="M77 555l198 264h448l199 -264v-291l-199 -264h-448l-198 264v291zM230 1024v145l199 265h141l83 -111l83 111h186v-146l-199 -264h-141l-83 111l-83 -111h-186zM416 614l-109 -145v-119l109 -145h166l109 145v119l-109 145h-166z" />
    <glyph glyph-name="odieresis" unicode="&#xf6;" 
d="M77 555l198 264h448l199 -264v-291l-199 -264h-448l-198 264v291zM230 1024v205h231v-205h-231zM416 614l-109 -145v-119l109 -145h166l109 145v119l-109 145h-166zM538 1024v205h230v-205h-230z" />
    <glyph glyph-name="divide" unicode="&#xf7;" 
d="M77 614v205h845v-205h-845zM384 1024v205h230v-205h-230zM384 205v205h230v-205h-230z" />
    <glyph glyph-name="oslash" unicode="&#xf8;" 
d="M77 760l198 264h295l83 -111l83 111h186v-145l-122 -162l122 -162v-291l-199 -264h-294l-83 111l-83 -111h-186v145l121 162l-121 162v291zM416 819l-109 -145v-119l39 -51l159 213l-76 102h-13zM570 205h12l109 145v119l-38 51l-160 -213z" />
    <glyph glyph-name="ugrave" unicode="&#xf9;" 
d="M77 1024h230v-674l109 -145h275v819h231v-1024h-647l-198 264v760zM230 1288v146h186l198 -265v-145h-185z" />
    <glyph glyph-name="uacute" unicode="&#xfa;" 
d="M77 1024h230v-674l109 -145h275v819h231v-1024h-647l-198 264v760zM384 1024v145l198 265h186v-146l-198 -264h-186z" />
    <glyph glyph-name="ucircumflex" unicode="&#xfb;" 
d="M77 819h230v-469l109 -145h275v614h231v-819h-647l-198 264v555zM230 1024v145l199 265h141l198 -265v-145h-186l-83 111l-83 -111h-186z" />
    <glyph glyph-name="udieresis" unicode="&#xfc;" 
d="M77 819h230v-469l109 -145h275v614h231v-819h-647l-198 264v555zM230 1024v205h231v-205h-231zM538 1024v205h230v-205h-230z" />
    <glyph glyph-name="yacute" unicode="&#xfd;" 
d="M77 1024h230v-674l109 -145h275v819h231v-1169l-199 -265h-493v205h352l109 146v59h-416l-198 264v760zM384 1024v145l198 265h186v-146l-198 -264h-186z" />
    <glyph glyph-name="thorn" unicode="&#xfe;" 
d="M77 1434h230v-410h416l199 -264v-496l-199 -264h-416v-410h-230v1844zM307 819v-614h275l109 145v324l-109 145h-275z" />
    <glyph glyph-name="ydieresis" unicode="&#xff;" 
d="M77 1024h230v-674l109 -145h275v819h231v-1169l-199 -265h-493v205h352l109 146v59h-416l-198 264v760zM230 1229v205h231v-205h-231zM538 1229v205h230v-205h-230z" />
    <glyph glyph-name="Amacron" unicode="&#x100;" 
d="M77 760l198 264h448l199 -264v-760h-231v410h-384v-410h-230v760zM230 1229v205h538v-205h-538zM416 819l-109 -145v-60h384v60l-109 145h-166z" />
    <glyph glyph-name="amacron" unicode="&#x101;" 
d="M77 264v86l198 264h416v60l-109 145h-352v205h493l199 -264v-760h-647zM230 1229v205h538v-205h-538zM416 205h275v205h-275l-77 -103z" />
    <glyph glyph-name="Aogonek" unicode="&#x104;" 
d="M77 965l352 469h141l352 -469v-906l-122 -161l122 -162v-146h-186l-198 265v86l153 204v265h-384v-410h-230v965zM307 879v-265h384v265l-192 256z" />
    <glyph glyph-name="aogonek" unicode="&#x105;" 
d="M77 264v86l198 264h416v60l-109 145h-352v205h493l199 -264v-760h-154v-59l154 -205v-146h-186l-198 265v145h-263zM416 205h275v205h-275l-77 -103z" />
    <glyph glyph-name="Cacute" unicode="&#x106;" 
d="M77 760l198 264h109v145l198 265h186v-146l-154 -205v-59h109l199 -264v-146h-186l-154 205h-166l-109 -145v-324l109 -145h166l154 205h186v-146l-199 -264h-448l-198 264v496z" />
    <glyph glyph-name="cacute" unicode="&#x107;" 
d="M77 760l198 264h109v145l198 265h186v-146l-154 -205v-59h308v-205h-506l-109 -145v-324l109 -145h506v-205h-647l-198 264v496z" />
    <glyph glyph-name="Ccircumflex" unicode="&#x108;" 
d="M230 965v204l199 265h141l198 -265v-204l154 -205v-146h-186l-154 205h-166l-109 -145v-324l109 -145h166l154 205h186v-146l-199 -264h-448l-198 264v496zM461 1083v-59h77v59l-39 52z" />
    <glyph glyph-name="ccircumflex" unicode="&#x109;" 
d="M230 965v204l199 265h141l198 -265v-145h154v-205h-506l-109 -145v-324l109 -145h506v-205h-647l-198 264v496zM461 1083v-59h77v59l-39 52z" />
    <glyph glyph-name="Cdotaccent" unicode="&#x10a;" 
d="M77 760l198 264h448l199 -264v-146h-186l-154 205h-166l-109 -145v-324l109 -145h166l154 205h186v-146l-199 -264h-448l-198 264v496zM384 1229v205h230v-205h-230z" />
    <glyph glyph-name="cdotaccent" unicode="&#x10b;" 
d="M77 760l198 264h647v-205h-506l-109 -145v-324l109 -145h506v-205h-647l-198 264v496zM384 1229v205h230v-205h-230z" />
    <glyph glyph-name="Ccaron" unicode="&#x10c;" 
d="M77 760l198 264h109v59l-154 205v146h186l83 -111l83 111h186v-146l-154 -205v-59h109l199 -264v-146h-186l-154 205h-166l-109 -145v-324l109 -145h166l154 205h186v-146l-199 -264h-448l-198 264v496z" />
    <glyph glyph-name="ccaron" unicode="&#x10d;" 
d="M77 760l198 264h109v59l-154 205v146h186l83 -111l83 111h186v-146l-154 -205v-59h308v-205h-506l-109 -145v-324l109 -145h506v-205h-647l-198 264v496z" />
    <glyph glyph-name="Dcaron" unicode="&#x10e;" 
d="M77 1024h307v59l-154 205v146h186l83 -111l83 111h186v-146l-154 -205v-59h109l199 -264v-496l-199 -264h-646v1024zM307 819v-614h275l109 145v324l-109 145h-275z" />
    <glyph glyph-name="dcaron" unicode="&#x10f;" 
d="M77 760l198 264h109v410h230v-1434h-339l-198 264v496zM307 674v-324l77 -102v528zM691 1434h231v-410h-231v410z" />
    <glyph glyph-name="Dcroat" unicode="&#x110;" 
d="M77 614v205h153v615h493l199 -265v-905l-199 -264h-493v614h-153zM461 1229v-410h153v-205h-153v-409h121l109 145v733l-109 146h-121z" />
    <glyph glyph-name="dcroat" unicode="&#x111;" 
d="M77 555l198 264h263v205h-154v205h154v205h230v-205h154v-205h-154v-1024h-493l-198 264v291zM416 614l-109 -145v-119l109 -145h122v409h-122z" />
    <glyph glyph-name="Emacron" unicode="&#x112;" 
d="M77 1024h845v-205h-615v-205h461v-204h-461v-205h615v-205h-845v1024zM230 1229v205h538v-205h-538z" />
    <glyph glyph-name="emacron" unicode="&#x113;" 
d="M77 760l198 264h448l199 -264v-350h-615v-60l109 -145h352v-205h-493l-198 264v496zM230 1229v205h538v-205h-538zM416 819l-109 -145v-60h384v60l-109 145h-166z" />
    <glyph glyph-name="Edotaccent" unicode="&#x116;" 
d="M77 1024h845v-205h-615v-205h461v-204h-461v-205h615v-205h-845v1024zM384 1229v205h230v-205h-230z" />
    <glyph glyph-name="edotaccent" unicode="&#x117;" 
d="M77 760l198 264h448l199 -264v-350h-615v-60l109 -145h352v-205h-493l-198 264v496zM416 819l-109 -145v-60h384v60l-109 145h-166zM384 1229v205h230v-205h-230z" />
    <glyph glyph-name="Eogonek" unicode="&#x118;" 
d="M77 1434h845v-205h-615v-410h461v-205h-461v-409h615v-205h-154v-59l154 -205v-146h-186l-198 265v145h-461v1434z" />
    <glyph glyph-name="eogonek" unicode="&#x119;" 
d="M77 760l198 264h448l199 -264v-350h-615v-60l109 -145h352v-264l154 -205v-146h-186l-198 265v145h-263l-198 264v496zM416 819l-109 -145v-60h384v60l-109 145h-166z" />
    <glyph glyph-name="Ecaron" unicode="&#x11a;" 
d="M77 1024h307v59l-154 205v146h186l83 -111l83 111h186v-146l-154 -205v-59h308v-205h-615v-205h461v-204h-461v-205h615v-205h-845v1024z" />
    <glyph glyph-name="ecaron" unicode="&#x11b;" 
d="M77 760l198 264h109v59l-154 205v146h186l83 -111l83 111h186v-146l-154 -205v-59h109l199 -264v-350h-615v-60l109 -145h352v-205h-493l-198 264v496zM416 819l-109 -145v-60h384v60l-109 145h-166z" />
    <glyph glyph-name="Gcircumflex" unicode="&#x11c;" 
d="M230 965v204l199 265h141l198 -265v-145h154v-205h-506l-109 -145v-324l109 -145h275v205h-153v204h384v-614h-647l-198 264v496zM461 1083v-59h77v59l-39 52z" />
    <glyph glyph-name="gcircumflex" unicode="&#x11d;" 
d="M230 965v204l199 265h141l198 -265v-145h154v-1169l-199 -265h-493v205h352l109 146v59h-416l-198 264v496zM416 819l-109 -145v-324l109 -145h275v614h-275zM461 1083v-59h77v59l-39 52z" />
    <glyph glyph-name="Gdotaccent" unicode="&#x120;" 
d="M77 760l198 264h647v-205h-506l-109 -145v-324l109 -145h275v205h-153v204h384v-614h-647l-198 264v496zM384 1229v205h230v-205h-230z" />
    <glyph glyph-name="gdotaccent" unicode="&#x121;" 
d="M77 760l198 264h647v-1169l-199 -265h-493v205h352l109 146v59h-416l-198 264v496zM416 819l-109 -145v-324l109 -145h275v614h-275zM384 1229v205h230v-205h-230z" />
    <glyph glyph-name="Hbar" unicode="&#x126;" 
d="M77 1434h230v-205h384v205h231v-1434h-231v614h-384v-614h-230v1434zM307 1024v-205h384v205h-384z" />
    <glyph glyph-name="hbar" unicode="&#x127;" 
d="M77 1024v205h153v205h231v-205h153v-205h-153v-205h262l199 -264v-555h-231v469l-109 145h-121v-614h-231v1024h-153z" />
    <glyph glyph-name="Itilde" unicode="&#x128;" 
d="M230 1024v145l199 265h141l83 -111l83 111h186v-146l-199 -264h-141l-83 111l-83 -111h-186zM230 614v205h538v-205h-154v-409h154v-205h-538v205h154v409h-154z" />
    <glyph glyph-name="itilde" unicode="&#x129;" 
d="M230 1024v145l199 265h141l83 -111l83 111h186v-146l-199 -264h-141l-83 111l-83 -111h-186zM230 614v205h384v-614h154v-205h-538v205h154v409h-154z" />
    <glyph glyph-name="Imacron" unicode="&#x12a;" 
d="M230 1229v205h538v-205h-538zM230 819v205h538v-205h-154v-614h154v-205h-538v205h154v614h-154z" />
    <glyph glyph-name="imacron" unicode="&#x12b;" 
d="M230 1229v205h538v-205h-538zM230 819v205h384v-819h154v-205h-538v205h154v614h-154z" />
    <glyph glyph-name="Iogonek" unicode="&#x12e;" 
d="M230 1229v205h538v-205h-154v-1024h154v-205h-154v-59l154 -205v-146h-186l-198 265v145h-154v205h154v1024h-154z" />
    <glyph glyph-name="iogonek" unicode="&#x12f;" 
d="M230 819v205h384v-819h154v-205h-154v-59l154 -205v-146h-186l-198 265v145h-154v205h154v614h-154zM384 1229v205h230v-205h-230z" />
    <glyph glyph-name="Idotaccent" unicode="&#x130;" 
d="M230 819v205h538v-205h-154v-614h154v-205h-538v205h154v614h-154zM384 1229v205h230v-205h-230z" />
    <glyph glyph-name="dotlessi" unicode="&#x131;" 
d="M230 819v205h384v-819h154v-205h-538v205h154v614h-154z" />
    <glyph glyph-name="IJ" unicode="&#x132;" 
d="M77 1434h230v-1434h-230v1434zM384 264v146h186l83 -111l38 51v1084h231v-1170l-199 -264h-141z" />
    <glyph glyph-name="ij" unicode="&#x133;" 
d="M77 819v205h384v-819h153v-205h-537v205h153v614h-153zM230 1229v205h231v-205h-231zM691 -59v1083h231v-1169l-199 -265h-185v146zM691 1229v205h231v-205h-231z" />
    <glyph glyph-name="Jcircumflex" unicode="&#x134;" 
d="M77 264v146h186l153 -205h13l109 145v469h230v-555l-198 -264h-295zM384 1024v145l198 265h141l199 -265v-145h-186l-83 111l-83 -111h-186z" />
    <glyph glyph-name="jcircumflex" unicode="&#x135;" 
d="M230 1024v145l199 265h141l198 -265v-145h-186l-83 111l-83 -111h-186zM384 -59v878h230v-964l-198 -265h-186v146z" />
    <glyph glyph-name="kgreenlandic" unicode="&#x138;" 
d="M77 1024h230v-410h122l307 410h186v-145l-275 -367l275 -367v-145h-186l-307 410h-122v-410h-230v1024z" />
    <glyph glyph-name="Lcaron" unicode="&#x13d;" 
d="M77 1434h230v-1229h615v-205h-845v1434zM538 1169v265h230v-351l-198 -264h-186v146z" />
    <glyph glyph-name="lcaron" unicode="&#x13e;" 
d="M77 1229v205h384v-1229h153v-205h-537v205h153v1024h-153zM691 1169v265h231v-351l-199 -264h-185v146z" />
    <glyph glyph-name="Ldot" unicode="&#x13f;" 
d="M77 1434h230v-1229h615v-205h-845v1434zM691 614v205h231v-205h-231z" />
    <glyph glyph-name="ldot" unicode="&#x140;" 
d="M77 1229v205h384v-1229h153v-205h-537v205h153v1024h-153zM691 614v205h231v-205h-231z" />
    <glyph glyph-name="Lslash" unicode="&#x141;" 
d="M77 614v205h153v615h231v-410h153v-205h-153v-614h461v-205h-692v614h-153z" />
    <glyph glyph-name="lslash" unicode="&#x142;" 
d="M230 1229v205h384v-410h154v-205h-154v-614h154v-205h-538v205h154v409h-154v205h154v410h-154z" />
    <glyph glyph-name="Nacute" unicode="&#x143;" 
d="M77 1024h230v-205h109l275 -366v571h231v-1024h-231v205h-109l-275 366v-571h-230v1024zM384 1024v145l198 265h186v-146l-198 -264h-186z" />
    <glyph glyph-name="nacute" unicode="&#x144;" 
d="M77 1024h307v145l198 265h186v-146l-154 -205v-59h109l199 -264v-760h-231v674l-109 145h-275v-819h-230v1024z" />
    <glyph glyph-name="Ncaron" unicode="&#x147;" 
d="M77 1024h230v-205h109l275 -366v571h231v-1024h-231v205h-109l-275 366v-571h-230v1024zM230 1288v146h186l83 -111l83 111h186v-146l-198 -264h-141z" />
    <glyph glyph-name="ncaron" unicode="&#x148;" 
d="M77 1024h307v59l-154 205v146h186l83 -111l83 111h186v-146l-154 -205v-59h109l199 -264v-760h-231v674l-109 145h-275v-819h-230v1024z" />
    <glyph glyph-name="napostrophe" unicode="&#x149;" 
d="M77 1434h230v-615h-230v615zM384 1024h339l199 -264v-760h-231v674l-77 102v-776h-230v1024z" />
    <glyph glyph-name="Eng" unicode="&#x14a;" 
d="M77 1434h230v-410h109l275 -367v777h231v-1579l-199 -265h-493v205h352l109 146v469h-109l-275 366v-776h-230v1434z" />
    <glyph glyph-name="eng" unicode="&#x14b;" 
d="M77 1024h646l199 -264v-905l-199 -265h-493v205h352l109 146v733l-109 145h-275v-819h-230v1024z" />
    <glyph glyph-name="Omacron" unicode="&#x14c;" 
d="M77 760l198 264h448l199 -264v-496l-199 -264h-448l-198 264v496zM230 1229v205h538v-205h-538zM416 819l-109 -145v-324l109 -145h166l109 145v324l-109 145h-166z" />
    <glyph glyph-name="omacron" unicode="&#x14d;" 
d="M77 555l198 264h448l199 -264v-291l-199 -264h-448l-198 264v291zM230 1024v205h538v-205h-538zM416 614l-109 -145v-119l109 -145h166l109 145v119l-109 145h-166z" />
    <glyph glyph-name="OE" unicode="&#x152;" 
d="M77 1169l198 265h647v-205h-308v-410h154v-205h-154v-409h308v-205h-647l-198 264v905zM307 1083v-733l77 -102v938z" />
    <glyph glyph-name="oe" unicode="&#x153;" 
d="M77 760l198 264h141l83 -111l83 111h141l199 -264v-350h-308v-60l109 -145h199v-205h-340l-83 111l-83 -111h-141l-198 264v496zM307 674v-324l39 -51l38 51v324l-38 51zM614 674v-60h77v60l-38 51z" />
    <glyph glyph-name="Racute" unicode="&#x154;" 
d="M77 1024h307v145l198 265h186v-146l-154 -205v-59h109l199 -264v-86l-154 -205v-119l154 -205v-145h-186l-198 264v146h-231v-410h-230v1024zM307 819v-205h275l77 103l-77 102h-275z" />
    <glyph glyph-name="racute" unicode="&#x155;" 
d="M230 1024h231v-162l77 103v204l198 265h186v-146l-154 -205v-59h154v-205h-199l-153 -205h-109v-614h-231v1024z" />
    <glyph glyph-name="Rcaron" unicode="&#x158;" 
d="M77 1024h307v59l-154 205v146h186l83 -111l83 111h186v-146l-154 -205v-59h109l199 -264v-86l-154 -205v-119l154 -205v-145h-186l-198 264v146h-231v-410h-230v1024zM307 819v-205h275l77 103l-77 102h-275z" />
    <glyph glyph-name="rcaron" unicode="&#x159;" 
d="M230 1024h231v-162l77 103v118l-154 205v146h186l83 -111l83 111h186v-146l-154 -205v-59h154v-205h-199l-153 -205h-109v-614h-231v1024z" />
    <glyph glyph-name="sacute" unicode="&#x15b;" 
d="M77 674v86l198 264h109v145l198 265h186v-146l-154 -205v-59h308v-205h-506l-77 -102l77 -103h307l199 -264v-86l-199 -264h-646v205h505l77 102l-77 103h-307z" />
    <glyph glyph-name="Scedilla" unicode="&#x15e;" 
d="M77 1169l198 265h448l199 -265v-145h-186l-154 205h-166l-109 -146v-118l109 -146h307l199 -264v-291l-199 -264h-109v-145l-198 -265h-186v146l154 205v59h-109l-198 264v146h186l153 -205h166l109 145v119l-109 145h-307l-198 265v290z" />
    <glyph glyph-name="scedilla" unicode="&#x15f;" 
d="M77 674v86l198 264h647v-205h-506l-77 -102l77 -103h307l199 -264v-86l-199 -264h-109v-145l-198 -265h-186v146l154 205v59h-307v205h505l77 102l-77 103h-307z" />
    <glyph glyph-name="scaron" unicode="&#x161;" 
d="M77 674v86l198 264h109v59l-154 205v146h186l83 -111l83 111h186v-146l-154 -205v-59h308v-205h-506l-77 -102l77 -103h307l199 -264v-86l-199 -264h-646v205h505l77 102l-77 103h-307z" />
    <glyph glyph-name="uni0162" unicode="&#x162;" 
d="M77 1229v205h845v-205h-308v-1084l154 -204v-86l-198 -265h-186v146l121 162l-121 161v1170h-307z" />
    <glyph glyph-name="uni0163" unicode="&#x163;" 
d="M230 819v205h154v410h230v-410h154v-205h-154v-469l39 -51l83 111h186v-146l-154 -205v-204l-198 -265h-186v146l154 205v118l-154 205v555h-154z" />
    <glyph glyph-name="Tcaron" unicode="&#x164;" 
d="M77 819v205h307v59l-154 205v146h186l83 -111l83 111h186v-146l-154 -205v-59h308v-205h-308v-819h-230v819h-307z" />
    <glyph glyph-name="tcaron" unicode="&#x165;" 
d="M77 819v205h153v410h231v-410h153v-205h-153v-469l153 -205v-145h-185l-199 264v555h-153zM691 1434h231v-410h-231v410z" />
    <glyph glyph-name="Umacron" unicode="&#x16a;" 
d="M77 1024h230v-674l109 -145h166l109 145v674h231v-760l-199 -264h-448l-198 264v760zM230 1229v205h538v-205h-538z" />
    <glyph glyph-name="umacron" unicode="&#x16b;" 
d="M77 819h230v-469l109 -145h275v614h231v-819h-647l-198 264v555zM230 1024v205h538v-205h-538z" />
    <glyph glyph-name="Uring" unicode="&#x16e;" 
d="M77 1024h230v-674l109 -145h166l109 145v674h231v-760l-199 -264h-448l-198 264v760zM384 1229v205h230v-205h-230z" />
    <glyph glyph-name="uring" unicode="&#x16f;" 
d="M77 1024h230v-674l109 -145h275v819h231v-1024h-647l-198 264v760zM384 1229v205h230v-205h-230z" />
    <glyph glyph-name="Uogonek" unicode="&#x172;" 
d="M77 1434h230v-1084l109 -145h166l109 145v1084h231v-1170l-199 -264h-109v-59l154 -205v-146h-186l-198 265v145h-109l-198 264v1170z" />
    <glyph glyph-name="uogonek" unicode="&#x173;" 
d="M77 1024h230v-674l109 -145h275v819h231v-1024h-154v-59l154 -205v-146h-186l-198 265v145h-263l-198 264v760z" />
    <glyph glyph-name="Wcircumflex" unicode="&#x174;" 
d="M77 819h230v-469l39 -51l38 51v264h230v-264l39 -51l38 51v469h231v-555l-199 -264h-141l-83 111l-83 -111h-141l-198 264v555zM230 1024v145l199 265h141l198 -265v-145h-186l-83 111l-83 -111h-186z" />
    <glyph glyph-name="wcircumflex" unicode="&#x175;" 
d="M77 819h230v-469l39 -51l83 111h141l83 -111l38 51v469h231v-555l-199 -264h-141l-83 111l-83 -111h-141l-198 264v555zM230 1024v145l199 265h141l198 -265v-145h-186l-83 111l-83 -111h-186z" />
    <glyph glyph-name="Ycircumflex" unicode="&#x176;" 
d="M77 674v145h186l236 -315l237 315h186v-145l-308 -410v-264h-230v264zM230 1024v145l199 265h141l198 -265v-145h-186l-83 111l-83 -111h-186z" />
    <glyph glyph-name="ycircumflex" unicode="&#x177;" 
d="M77 819h230v-469l109 -145h275v614h231v-964l-199 -265h-493v205h352l109 146v59h-416l-198 264v555zM230 1024v145l199 265h141l198 -265v-145h-186l-83 111l-83 -111h-186z" />
    <glyph glyph-name="Ydieresis" unicode="&#x178;" 
d="M77 879v145h186l236 -315l237 315h186v-145l-308 -410v-469h-230v469zM230 1229v205h231v-205h-231zM538 1229v205h230v-205h-230z" />
    <glyph glyph-name="Zacute" unicode="&#x179;" 
d="M77 819v205h307v145l198 265h186v-146l-154 -205v-59h308v-350l-199 -264h-307l-109 -146v-59h615v-205h-845v350l198 264h307l109 146v59h-614z" />
    <glyph glyph-name="zacute" unicode="&#x17a;" 
d="M77 819v205h307v145l198 265h186v-146l-154 -205v-59h308v-205h-154v-145l-307 -410v-59h461v-205h-845v205h153v145l308 410v59h-461z" />
    <glyph glyph-name="Zdotaccent" unicode="&#x17b;" 
d="M77 819v205h845v-350l-199 -264h-307l-109 -146v-59h615v-205h-845v350l198 264h307l109 146v59h-614zM384 1229v205h230v-205h-230z" />
    <glyph glyph-name="zdotaccent" unicode="&#x17c;" 
d="M77 819v205h845v-205h-154v-145l-307 -410v-59h461v-205h-845v205h153v145l308 410v59h-461zM384 1229v205h230v-205h-230z" />
    <glyph glyph-name="Zcaron" unicode="&#x17d;" 
d="M77 819v205h307v59l-154 205v146h186l83 -111l83 111h186v-146l-154 -205v-59h308v-350l-199 -264h-307l-109 -146v-59h615v-205h-845v350l198 264h307l109 146v59h-614z" />
    <glyph glyph-name="zcaron" unicode="&#x17e;" 
d="M77 819v205h307v59l-154 205v146h186l83 -111l83 111h186v-146l-154 -205v-59h308v-205h-154v-145l-307 -410v-59h461v-205h-845v205h153v145l308 410v59h-461z" />
    <glyph glyph-name="longs" unicode="&#x17f;" 
d="M384 1169l198 265h186v-146l-154 -205v-1083h-230v1169z" />
    <glyph glyph-name="uni0188" unicode="&#x188;" 
d="M77 760l198 264h263v410h384v-205h-154v-205h154v-205h-506l-109 -145v-324l109 -145h506v-205h-647l-198 264v496z" />
    <glyph glyph-name="uni018E" unicode="&#x18e;" 
d="M77 1229v205h845v-1434h-845v205h614v409h-461v205h461v410h-614z" />
    <glyph glyph-name="uni018F" unicode="&#x18f;" 
d="M77 1024v145l198 265h448l199 -265v-905l-199 -264h-448l-198 264v555h614v264l-109 146h-166l-153 -205h-186zM307 614v-264l109 -145h166l109 145v264h-384z" />
    <glyph glyph-name="florin" unicode="&#x192;" 
d="M230 614v205h154v350l198 265h186v-146l-154 -205v-264h154v-205h-154v-759l-198 -265h-186v146l154 205v673h-154z" />
    <glyph glyph-name="uni0199" unicode="&#x199;" 
d="M230 1169l199 265h339v-205h-198l-109 -146v-426l275 367h186v-145l-275 -367l275 -367v-145h-186l-275 367v-367h-231v1169z" />
    <glyph glyph-name="uni019B" unicode="&#x19b;" 
d="M77 1229v205h339l198 -265v-145h154v-205h-154v-59l154 -205v-205l154 -205v-145h-186l-198 264v205l-39 51l-38 -51v-205l-198 -264h-186v145l153 205v205l154 205v59h-154v205h154v59l-109 146h-198z" />
    <glyph glyph-name="uni019E" unicode="&#x19e;" 
d="M77 1024h646l199 -264v-1170h-231v1084l-109 145h-275v-819h-230v1024z" />
    <glyph glyph-name="uni01A5" unicode="&#x1a5;" 
d="M77 1169l198 265h339v-205h-198l-109 -146v-59h416l199 -264v-496l-199 -264h-416v-410h-230v1579zM307 819v-614h275l109 145v324l-109 145h-275z" />
    <glyph glyph-name="uni01A7" unicode="&#x1a7;" 
d="M77 1024v145l198 265h448l199 -265v-290l-199 -265h-307l-109 -145v-119l109 -145h166l154 205h186v-146l-199 -264h-448l-198 264v291l198 264h307l109 146v118l-109 146h-166l-153 -205h-186z" />
    <glyph glyph-name="uni01A8" unicode="&#x1a8;" 
d="M77 264v86l198 264h307l77 103l-77 102h-352v205h493l199 -264v-86l-199 -264h-307l-77 -103l77 -102h352v-205h-493z" />
    <glyph glyph-name="uni01AB" unicode="&#x1ab;" 
d="M230 819v205h154v410h230v-410h154v-205h-154v-469l154 -205v-86l-198 -264h-340v205h199l76 102l-121 162v555h-154z" />
    <glyph glyph-name="uni01AD" unicode="&#x1ad;" 
d="M230 819v205h154v145l198 265h186v-146l-154 -205v-59h154v-205h-154v-469l154 -205v-145h-186l-198 264v555h-154z" />
    <glyph glyph-name="uni01BB" unicode="&#x1bb;" 
d="M77 1024v145l198 265h448l199 -265v-290l-122 -162l122 -162v-145h-186l-83 110l-83 -110h-154l-109 -146v-59h615v-205h-845v350l198 264h154l76 103l-121 162v145h186l83 -111l38 52v118l-109 146h-166l-153 -205h-186z" />
    <glyph glyph-name="uni01C0" unicode="&#x1c0;" 
d="M384 1434h230v-1844h-230v1844z" />
    <glyph glyph-name="uni01C1" unicode="&#x1c1;" 
d="M230 1434h231v-1844h-231v1844zM538 1434h230v-1844h-230v1844z" />
    <glyph glyph-name="uni01C2" unicode="&#x1c2;" 
d="M77 614v205h307v615h230v-615h308v-205h-308v-204h308v-205h-308v-615h-230v615h-307v205h307v204h-307z" />
    <glyph glyph-name="uni01C3" unicode="&#x1c3;" 
d="M384 1434h230v-1024h-230v1024zM384 0v205h230v-205h-230z" />
    <glyph glyph-name="uni01CD" unicode="&#x1cd;" 
d="M77 760l198 264h109v59l-154 205v146h186l83 -111l83 111h186v-146l-154 -205v-59h109l199 -264v-760h-231v410h-384v-410h-230v760zM416 819l-109 -145v-60h384v60l-109 145h-166z" />
    <glyph glyph-name="uni01CE" unicode="&#x1ce;" 
d="M77 264v86l198 264h416v60l-109 145h-352v205h154v59l-154 205v146h186l83 -111l83 111h186v-146l-154 -205v-59h109l199 -264v-760h-647zM416 205h275v205h-275l-77 -103z" />
    <glyph glyph-name="uni01CF" unicode="&#x1cf;" 
d="M230 1288v146h186l83 -111l83 111h186v-146l-198 -264h-141zM230 614v205h538v-205h-154v-409h154v-205h-538v205h154v409h-154z" />
    <glyph glyph-name="uni01D0" unicode="&#x1d0;" 
d="M230 1288v146h186l83 -111l83 111h186v-146l-198 -264h-141zM230 614v205h384v-614h154v-205h-538v205h154v409h-154z" />
    <glyph glyph-name="uni01D1" unicode="&#x1d1;" 
d="M77 760l198 264h109v59l-154 205v146h186l83 -111l83 111h186v-146l-154 -205v-59h109l199 -264v-496l-199 -264h-448l-198 264v496zM416 819l-109 -145v-324l109 -145h166l109 145v324l-109 145h-166z" />
    <glyph glyph-name="uni01D2" unicode="&#x1d2;" 
d="M77 555l198 264h448l199 -264v-291l-199 -264h-448l-198 264v291zM230 1288v146h186l83 -111l83 111h186v-146l-198 -264h-141zM416 614l-109 -145v-119l109 -145h166l109 145v119l-109 145h-166z" />
    <glyph glyph-name="uni01D3" unicode="&#x1d3;" 
d="M77 1024h230v-674l109 -145h166l109 145v674h231v-760l-199 -264h-448l-198 264v760zM230 1288v146h186l83 -111l83 111h186v-146l-198 -264h-141z" />
    <glyph glyph-name="uni01D4" unicode="&#x1d4;" 
d="M77 1024h230v-674l109 -145h275v819h231v-1024h-647l-198 264v760zM230 1288v146h186l83 -111l83 111h186v-146l-198 -264h-141z" />
    <glyph glyph-name="uni01D5" unicode="&#x1d5;" 
d="M77 614h230v-264l109 -145h166l109 145v264h231v-350l-199 -264h-448l-198 264v350zM230 1229v205h538v-205h-538zM230 819v205h231v-205h-231zM538 819v205h230v-205h-230z" />
    <glyph glyph-name="uni01D6" unicode="&#x1d6;" 
d="M77 614h230v-264l109 -145h275v409h231v-614h-647l-198 264v350zM230 1229v205h538v-205h-538zM230 819v205h231v-205h-231zM538 819v205h230v-205h-230z" />
    <glyph glyph-name="uni01D7" unicode="&#x1d7;" 
d="M77 819v205h230v-205h-230zM77 614h230v-264l109 -145h166l109 145v264h231v-350l-199 -264h-448l-198 264v350zM384 1024v145l198 265h186v-146l-198 -264h-186zM691 819v205h231v-205h-231z" />
    <glyph glyph-name="uni01D8" unicode="&#x1d8;" 
d="M77 819v205h230v-205h-230zM77 614h230v-264l109 -145h275v409h231v-614h-647l-198 264v350zM384 1024v145l198 265h186v-146l-198 -264h-186zM691 819v205h231v-205h-231z" />
    <glyph glyph-name="uni01D9" unicode="&#x1d9;" 
d="M77 819v205h230v-205h-230zM77 614h230v-264l109 -145h166l109 145v264h231v-350l-199 -264h-448l-198 264v350zM230 1288v146h186l83 -111l83 111h186v-146l-198 -264h-141zM691 819v205h231v-205h-231z" />
    <glyph glyph-name="uni01DA" unicode="&#x1da;" 
d="M77 819v205h230v-205h-230zM77 614h230v-264l109 -145h275v409h231v-614h-647l-198 264v350zM230 1288v146h186l83 -111l83 111h186v-146l-198 -264h-141zM691 819v205h231v-205h-231z" />
    <glyph glyph-name="uni01DB" unicode="&#x1db;" 
d="M77 819v205h230v-205h-230zM77 614h230v-264l109 -145h166l109 145v264h231v-350l-199 -264h-448l-198 264v350zM230 1288v146h186l83 -111l83 111h186v-146l-198 -264h-141zM691 819v205h231v-205h-231z" />
    <glyph glyph-name="uni01DC" unicode="&#x1dc;" 
d="M77 819v205h230v-205h-230zM77 614h230v-264l109 -145h275v409h231v-614h-647l-198 264v350zM230 1288v146h186l83 -111l83 111h186v-146l-198 -264h-141zM691 819v205h231v-205h-231z" />
    <glyph glyph-name="uni01DD" unicode="&#x1dd;" 
d="M77 614h614v60l-109 145h-352v205h493l199 -264v-496l-199 -264h-448l-198 264v350zM307 410v-60l109 -145h166l109 145v60h-384z" />
    <glyph glyph-name="uni01E2" unicode="&#x1e2;" 
d="M77 760l198 264h647v-205h-308v-205h154v-204h-154v-205h308v-205h-538v205h-77v-205h-230v760zM230 1229v205h538v-205h-538zM307 674v-264h77v366z" />
    <glyph glyph-name="uni01E3" unicode="&#x1e3;" 
d="M77 264v86l198 264h109v60l-154 205v145h186l83 -111l83 111h141l199 -264v-350h-308v-205h154v-205h-493zM230 1229v205h538v-205h-538zM339 307l45 -59v119zM614 614h77v60l-38 51l-39 -51v-60z" />
    <glyph glyph-name="uni01F0" unicode="&#x1f0;" 
d="M230 1288v146h186l83 -111l83 111h186v-146l-198 -264h-141zM384 -59v878h230v-964l-198 -265h-186v146z" />
    <glyph glyph-name="uni01F8" unicode="&#x1f8;" 
d="M77 1024h230v-205h109l275 -366v571h231v-1024h-231v205h-109l-275 366v-571h-230v1024zM230 1288v146h186l198 -265v-145h-185z" />
    <glyph glyph-name="uni01F9" unicode="&#x1f9;" 
d="M77 1024h307v59l-154 205v146h186l198 -265v-145h109l199 -264v-760h-231v674l-109 145h-275v-819h-230v1024z" />
    <glyph glyph-name="uni0232" unicode="&#x232;" 
d="M77 879v145h186l236 -315l237 315h186v-145l-308 -410v-469h-230v469zM230 1229v205h538v-205h-538z" />
    <glyph glyph-name="uni0233" unicode="&#x233;" 
d="M77 1024h230v-674l109 -145h275v819h231v-1169l-199 -265h-493v205h352l109 146v59h-416l-198 264v760zM230 1229v205h538v-205h-538z" />
    <glyph glyph-name="uni0237" unicode="&#x237;" 
d="M384 -59v1083h230v-1169l-198 -265h-186v146z" />
    <glyph glyph-name="uni023F" unicode="&#x23f;" 
d="M77 674v86l198 264h647v-205h-506l-77 -102l77 -103h307l199 -264v-86l-199 -264h-109v-59l109 -146h199v-205h-340l-198 265v145h-307v205h505l77 102l-77 103h-307z" />
    <glyph glyph-name="uni0240" unicode="&#x240;" 
d="M77 819v205h845v-205h-154v-145l-307 -410v-119l262 -350h199v-205h-340l-307 410h-198v205h153v145l308 410v59h-461z" />
    <glyph glyph-name="uni0245" unicode="&#x245;" 
d="M230 760v205l154 204v265h230v-265l154 -204v-205l154 -205v-555h-231v469l-153 205v205l-39 51l-38 -51v-205l-154 -205v-469h-230v555z" />
    <glyph glyph-name="uni0250" unicode="&#x250;" 
d="M77 1024h646l199 -264v-86l-199 -264h-416v-60l109 -145h352v-205h-493l-198 264v760zM307 819v-205h275l77 103l-77 102h-275z" />
    <glyph glyph-name="uni0251" unicode="&#x251;" 
d="M77 760l198 264h647v-1024h-231v162l-121 -162h-295l-198 264v496zM416 819l-109 -145v-324l109 -145h13l153 205h109v409h-275z" />
    <glyph glyph-name="uni0252" unicode="&#x252;" 
d="M77 1024h230v-162l122 162h294l199 -264v-496l-199 -264h-646v1024zM307 614v-409h275l109 145v324l-109 145h-12l-154 -205h-109z" />
    <glyph glyph-name="uni0253" unicode="&#x253;" 
d="M77 1169l198 265h339v-205h-198l-109 -146v-59h416l199 -264v-496l-199 -264h-646v1169zM307 819v-614h275l109 145v324l-109 145h-275z" />
    <glyph glyph-name="uni0254" unicode="&#x254;" 
d="M77 819v205h646l199 -264v-496l-199 -264h-646v205h505l109 145v324l-109 145h-505z" />
    <glyph glyph-name="uni0255" unicode="&#x255;" 
d="M77 760l198 264h647v-205h-506l-109 -145v-324l77 -102v102l198 264h141l199 -264v-86l-199 -264h-109v-205h-230v205h-109l-198 264v496zM614 264v-16l45 59l-6 8z" />
    <glyph glyph-name="uni0256" unicode="&#x256;" 
d="M77 760l198 264h263v410h230v-1493l154 -205v-146h-186l-198 265v145h-263l-198 264v496zM416 819l-109 -145v-324l109 -145h122v614h-122z" />
    <glyph glyph-name="uni0257" unicode="&#x257;" 
d="M77 760l198 264h263v145l198 265h186v-146l-154 -205v-1083h-493l-198 264v496zM416 819l-109 -145v-324l109 -145h122v614h-122z" />
    <glyph glyph-name="uni0258" unicode="&#x258;" 
d="M77 760l198 264h448l199 -264v-496l-199 -264h-493v205h352l109 145v60h-614v350zM416 819l-109 -145v-60h384v60l-109 145h-166z" />
    <glyph glyph-name="uni0259" unicode="&#x259;" 
d="M77 614h614v60l-109 145h-352v205h493l199 -264v-496l-199 -264h-448l-198 264v350zM307 410v-60l109 -145h166l109 145v60h-384z" />
    <glyph glyph-name="uni025A" unicode="&#x25a;" 
d="M77 819v205h339l198 -264v-307l122 161h186v-145l-199 -264h-153l-154 -205h-141l-198 264v350h307v60l-109 145h-198zM307 410v-60l39 -51l38 51v60h-77z" />
    <glyph glyph-name="uni025B" unicode="&#x25b;" 
d="M77 674v86l198 264h647v-205h-506l-77 -102l77 -103h352v-204h-352l-77 -103l77 -102h506v-205h-647l-198 264v86l121 162z" />
    <glyph glyph-name="uni025C" unicode="&#x25c;" 
d="M77 819v205h646l199 -264v-86l-122 -162l122 -162v-86l-199 -264h-646v205h505l77 102l-77 103h-352v204h352l77 103l-77 102h-505z" />
    <glyph glyph-name="uni025D" unicode="&#x25d;" 
d="M77 819v205h339l198 -264v-86l-121 -162l77 -102h12l154 204h186v-145l-199 -264h-153l-154 -205h-339v205h198l77 102l-77 103h-198v204h198l77 103l-77 102h-198z" />
    <glyph glyph-name="uni025E" unicode="&#x25e;" 
d="M77 760l198 264h448l199 -264v-86l-122 -162l122 -162v-86l-199 -264h-448l-198 264v496zM416 819l-109 -145v-324l109 -145h166l77 102l-77 103h-198v204h198l77 103l-77 102h-166z" />
    <glyph glyph-name="uni025F" unicode="&#x25f;" 
d="M230 205v205h154v614h230v-614h154v-205h-154v-350l-198 -265h-186v146l154 205v264h-154z" />
    <glyph glyph-name="uni0260" unicode="&#x260;" 
d="M77 760l198 264h263v145l198 265h186v-146l-154 -205v-1228l-198 -265h-340v205h199l109 146v59h-263l-198 264v496zM416 819l-109 -145v-324l109 -145h122v614h-122z" />
    <glyph glyph-name="uni0261" unicode="&#x261;" 
d="M77 760l198 264h647v-1169l-199 -265h-493v205h352l109 146v59h-416l-198 264v496zM416 819l-109 -145v-324l109 -145h275v614h-275z" />
    <glyph glyph-name="uni0262" unicode="&#x262;" 
d="M77 760l198 264h647v-205h-506l-109 -145v-324l109 -145h275v205h-153v204h384v-614h-647l-198 264v496z" />
    <glyph glyph-name="uni0263" unicode="&#x263;" 
d="M77 879v145h186l198 -264v-205l38 -51l39 51v205l198 264h186v-145l-154 -205v-205l-121 -162l121 -162v-290l-198 -265h-141l-199 265v290l122 162l-122 162v205zM461 59v-118l38 -52l39 52v118l-39 52z" />
    <glyph glyph-name="uni0264" unicode="&#x264;" 
d="M77 819v205h339l83 -111l83 111h340v-205h-199l-76 -102l121 -162v-291l-198 -264h-141l-199 264v291l122 162l-77 102h-198zM461 469v-119l38 -51l39 51v119l-39 51z" />
    <glyph glyph-name="uni0265" unicode="&#x265;" 
d="M77 1024h230v-674l109 -145h275v819h231v-1434h-231v410h-416l-198 264v760z" />
    <glyph glyph-name="uni0266" unicode="&#x266;" 
d="M77 1169l198 265h339v-205h-198l-109 -146v-59h416l199 -264v-760h-231v674l-109 145h-275v-819h-230v1169z" />
    <glyph glyph-name="uni0267" unicode="&#x267;" 
d="M77 1169l198 265h339v-205h-198l-109 -146v-59h416l199 -264v-905l-199 -265h-339v205h198l109 146v733l-109 145h-275v-819h-230v1169z" />
    <glyph glyph-name="uni0268" unicode="&#x268;" 
d="M230 819v205h384v-410h154v-204h-154v-205h154v-205h-538v205h154v205h-154v204h154v205h-154zM384 1229v205h230v-205h-230z" />
    <glyph glyph-name="uni0269" unicode="&#x269;" 
d="M230 819v205h384v-674l154 -205v-145h-186l-198 264v555h-154z" />
    <glyph glyph-name="uni026A" unicode="&#x26a;" 
d="M230 819v205h538v-205h-154v-614h154v-205h-538v205h154v614h-154z" />
    <glyph glyph-name="uni026B" unicode="&#x26b;" 
d="M77 614v146l198 264h109v205h-154v205h384v-572l122 162h186v-145l-199 -265h-109v-409h154v-205h-538v205h154v571l-121 -162h-186z" />
    <glyph glyph-name="uni026C" unicode="&#x26c;" 
d="M77 674v86l198 264h109v205h-154v205h384v-777l122 162h186v-145l-199 -264h-109v-205h154v-205h-538v205h154v205h-109zM339 717l45 -60v119z" />
    <glyph glyph-name="uni026D" unicode="&#x26d;" 
d="M230 1229v205h384v-1493l154 -205v-146h-186l-198 265v1374h-154z" />
    <glyph glyph-name="uni026E" unicode="&#x26e;" 
d="M77 1229v205h384v-410h461v-350l-122 -162l122 -162v-495l-199 -265h-339v205h198l109 146v323l-153 205v86l153 205v59h-230v-614h153v-205h-537v205h153v1024h-153z" />
    <glyph glyph-name="uni026F" unicode="&#x26f;" 
d="M77 1024h230v-674l39 -51l38 51v674h230v-674l77 -102v776h231v-1024h-340l-83 111l-83 -111h-141l-198 264v760z" />
    <glyph glyph-name="uni0270" unicode="&#x270;" 
d="M77 1024h230v-674l39 -51l38 51v674h230v-674l77 -102v776h231v-1434h-231v410h-109l-83 111l-83 -111h-141l-198 264v760z" />
    <glyph glyph-name="uni0271" unicode="&#x271;" 
d="M77 1024h339l83 -111l83 111h141l199 -264v-905l-199 -265h-185v146l153 205v733l-38 51l-39 -51v-674h-230v674l-77 102v-776h-230v1024z" />
    <glyph glyph-name="uni0272" unicode="&#x272;" 
d="M230 -59v1083h493l199 -264v-760h-231v674l-109 145h-121v-964l-198 -265h-186v146z" />
    <glyph glyph-name="uni0273" unicode="&#x273;" 
d="M77 1024h493l198 -264v-819l154 -205v-146h-186l-198 265v819l-109 145h-122v-819h-230v1024z" />
    <glyph glyph-name="uni0274" unicode="&#x274;" 
d="M77 1024h230v-205h109l275 -366v571h231v-1024h-231v205h-109l-275 366v-571h-230v1024z" />
    <glyph glyph-name="uni0275" unicode="&#x275;" 
d="M77 760l198 264h448l199 -264v-496l-199 -264h-448l-198 264v496zM416 819l-109 -145v-60h384v60l-109 145h-166zM307 410v-60l109 -145h166l109 145v60h-384z" />
    <glyph glyph-name="uni0276" unicode="&#x276;" 
d="M77 760l198 264h647v-205h-308v-205h308v-204h-308v-205h308v-205h-647l-198 264v496zM307 674v-324l77 -102v528z" />
    <glyph glyph-name="uni0277" unicode="&#x277;" 
d="M77 760l198 264h448l199 -264v-496l-199 -264h-141l-83 111l-83 -111h-141l-198 264v496zM416 819l-109 -145v-324l39 -51l38 51v264h230v-264l39 -51l38 51v324l-109 145h-166z" />
    <glyph glyph-name="uni0278" unicode="&#x278;" 
d="M77 760l198 264h109v410h230v-410h109l199 -264v-496l-199 -264h-109v-410h-230v410h-109l-198 264v496zM307 674v-324l77 -102v528zM691 674l-77 102v-528l77 102v324z" />
    <glyph glyph-name="uni0279" unicode="&#x279;" 
d="M77 0v205h198l154 205h109v614h230v-1024h-230v162l-122 -162h-339z" />
    <glyph glyph-name="uni027A" unicode="&#x27a;" 
d="M77 0v205h198l154 205h109v1024h230v-1434h-230v162l-122 -162h-339z" />
    <glyph glyph-name="uni027B" unicode="&#x27b;" 
d="M77 0v205h198l154 205h109v614h230v-1083l154 -205v-146h-186l-198 265v307l-122 -162h-339z" />
    <glyph glyph-name="uni027C" unicode="&#x27c;" 
d="M230 1024h231v-162l121 162h340v-205h-199l-153 -205h-109v-1024h-231v1434z" />
    <glyph glyph-name="uni027D" unicode="&#x27d;" 
d="M230 1024h231v-162l121 162h340v-205h-199l-153 -205h-109v-673l153 -205v-146h-185l-199 265v1169z" />
    <glyph glyph-name="uni027E" unicode="&#x27e;" 
d="M230 760l199 264h294l199 -264v-146h-186l-154 205h-12l-109 -145v-674h-231v760z" />
    <glyph glyph-name="uni0280" unicode="&#x280;" 
d="M77 1024h646l199 -264v-86l-154 -205v-119l154 -205v-145h-186l-198 264v146h-231v-410h-230v1024zM307 819v-205h275l77 103l-77 102h-275z" />
    <glyph glyph-name="uni0281" unicode="&#x281;" 
d="M77 1024h230v-410h231v146l198 264h186v-145l-154 -205v-119l154 -205v-86l-199 -264h-646v1024zM307 410v-205h275l77 102l-77 103h-275z" />
    <glyph glyph-name="uni0282" unicode="&#x282;" 
d="M77 674v86l198 264h647v-205h-506l-77 -102l77 -103h307l199 -264v-86l-199 -264h-416v-59l154 -205v-146h-186l-198 265v350h505l77 102l-77 103h-307z" />
    <glyph glyph-name="uni0283" unicode="&#x283;" 
d="M384 -59v1228l198 265h186v-146l-154 -205v-1228l-198 -265h-186v146z" />
    <glyph glyph-name="uni0284" unicode="&#x284;" 
d="M230 205v205h154v759l198 265h186v-146l-154 -205v-673h154v-205h-154v-350l-198 -265h-186v146l154 205v264h-154z" />
    <glyph glyph-name="uni0286" unicode="&#x286;" 
d="M77 145l198 265h109v759l198 265h186v-146l-154 -205v-673h154v-205h-154v-350l-198 -265h-141l-198 265v290zM307 59v-118l39 -52l38 52v221z" />
    <glyph glyph-name="uni0287" unicode="&#x287;" 
d="M230 879v145h186l198 -264v-555h154v-205h-154v-410h-230v410h-154v205h154v469z" />
    <glyph glyph-name="uni0288" unicode="&#x288;" 
d="M230 819v205h154v410h230v-410h154v-205h-154v-878l154 -205v-146h-186l-198 265v964h-154z" />
    <glyph glyph-name="uni0289" unicode="&#x289;" 
d="M77 614v205h153v205h231v-205h77v205h230v-205h154v-205h-154v-614h-339l-199 264v350h-153zM461 614v-264l77 -102v366h-77z" />
    <glyph glyph-name="uni028A" unicode="&#x28a;" 
d="M77 819v205h384v-350l-154 -205v-119l109 -145h166l109 145v119l-153 205v350h384v-205h-154v-59l154 -205v-291l-199 -264h-448l-198 264v291l153 205v59h-153z" />
    <glyph glyph-name="uni028B" unicode="&#x28b;" 
d="M77 819v205h384v-776l230 307v119l-153 205v145h185l199 -264v-291l-352 -469h-340v819h-153z" />
    <glyph glyph-name="uni028C" unicode="&#x28c;" 
d="M230 555v205l199 264h141l198 -264v-205l154 -205v-350h-231v264l-153 205v205l-39 51l-38 -51v-205l-154 -205v-264h-230v350z" />
    <glyph glyph-name="uni028D" unicode="&#x28d;" 
d="M77 760l198 264h141l83 -111l83 111h141l199 -264v-760h-231v674l-38 51l-39 -51v-264h-230v264l-38 51l-39 -51v-674h-230v760z" />
    <glyph glyph-name="uni028E" unicode="&#x28e;" 
d="M77 1169l198 265h493v-205h-352l-109 -146v-59h263l352 -469v-555h-231v469l-262 350h-122v-819h-230v1169z" />
    <glyph glyph-name="uni028F" unicode="&#x28f;" 
d="M77 879v145h186l236 -315l237 315h186v-145l-308 -410v-469h-230v469z" />
    <glyph glyph-name="uni0290" unicode="&#x290;" 
d="M77 819v205h691v-205h-154v-145l-307 -410v-59h461v-264l154 -205v-146h-186l-198 265v145h-461v350l307 410v59h-307z" />
    <glyph glyph-name="uni0291" unicode="&#x291;" 
d="M77 819v205h845v-205h-154v-145l-307 -410v-59h262l199 -264v-86l-199 -265h-141l-198 265v145h-307v205h153v145l308 410v59h-461zM614 -59l39 -52l6 9l-45 59v-16z" />
    <glyph glyph-name="uni0292" unicode="&#x292;" 
d="M77 819v205h845v-205h-154v-145l-154 -205v-59h109l199 -265v-290l-199 -265h-448l-198 265v145h186l153 -205h166l109 146v118l-109 146h-352v205h154v145l154 205v59h-461z" />
    <glyph glyph-name="uni0293" unicode="&#x293;" 
d="M77 819v205h845v-205h-154v-145l-121 -162l275 -367v-290l-199 -265h-448l-198 265v86l198 264h141l198 -264v-103l77 103v118l-307 410v86l154 205v59h-461zM339 -102l45 -60v17l-38 51z" />
    <glyph glyph-name="uni0294" unicode="&#x294;" 
d="M77 1024v145l198 265h448l199 -265v-86l-308 -409v-674h-230v760l275 366l-77 103h-166l-153 -205h-186z" />
    <glyph glyph-name="uni0295" unicode="&#x295;" 
d="M77 1083v86l198 265h448l199 -265v-145h-186l-154 205h-166l-77 -103l275 -366v-760h-230v674z" />
    <glyph glyph-name="uni0296" unicode="&#x296;" 
d="M77 264v146h186l153 -205h166l77 102l-275 367v760h230v-674l308 -410v-86l-199 -264h-448z" />
    <glyph glyph-name="uni0297" unicode="&#x297;" 
d="M77 1169l198 265h448l199 -265v-145h-186l-154 205h-166l-109 -146v-1142l109 -146h166l154 205h186v-145l-199 -265h-448l-198 265v1314z" />
    <glyph glyph-name="uni0298" unicode="&#x298;" 
d="M77 1169l198 265h448l199 -265v-905l-199 -264h-448l-198 264v905zM416 1229l-109 -146v-733l109 -145h166l109 145v733l-109 146h-166zM384 614v205h230v-205h-230z" />
    <glyph glyph-name="uni0299" unicode="&#x299;" 
d="M77 1024h646l199 -264v-86l-122 -162l122 -162v-86l-199 -264h-646v1024zM307 819v-205h275l77 103l-77 102h-275zM307 410v-205h275l77 102l-77 103h-275z" />
    <glyph glyph-name="uni029A" unicode="&#x29a;" 
d="M77 674v86l198 264h448l199 -264v-496l-199 -264h-448l-198 264v86l121 162zM416 614h198v-204h-198l-77 -103l77 -102h166l109 145v324l-109 145h-166l-77 -102z" />
    <glyph glyph-name="uni029B" unicode="&#x29b;" 
d="M77 760l198 264h263v145l198 265h186v-146l-154 -205v-264h-352l-109 -145v-324l109 -145h122v205h-154v204h384v-614h-493l-198 264v496z" />
    <glyph glyph-name="uni029C" unicode="&#x29c;" 
d="M77 1024h230v-410h384v410h231v-1024h-231v410h-384v-410h-230v1024z" />
    <glyph glyph-name="uni029D" unicode="&#x29d;" 
d="M77 145l198 265h109v614h230v-614h154v-205h-154v-350l-198 -265h-141l-198 265v290zM307 59v-118l39 -52l38 52v221zM384 1229v205h230v-205h-230z" />
    <glyph glyph-name="uni029E" unicode="&#x29e;" 
d="M77 879v145h186l275 -367v367h230v-1434h-230v777l-275 -367h-186v145l275 367z" />
    <glyph glyph-name="uni029F" unicode="&#x29f;" 
d="M77 1024h230v-819h615v-205h-845v1024z" />
    <glyph glyph-name="uni02A0" unicode="&#x2a0;" 
d="M77 760l198 264h416v59l-109 146h-198v205h339l199 -265v-1579h-231v410h-416l-198 264v496zM416 819l-109 -145v-324l109 -145h275v614h-275z" />
    <glyph glyph-name="uni02A1" unicode="&#x2a1;" 
d="M77 1024v145l198 265h448l199 -265v-86l-308 -409v-60h308v-204h-308v-410h-230v410h-307v204h307v146l275 366l-77 103h-166l-153 -205h-186z" />
    <glyph glyph-name="uni02A2" unicode="&#x2a2;" 
d="M77 1083v86l198 265h448l199 -265v-145h-186l-154 205h-166l-77 -103l275 -366v-146h308v-204h-308v-410h-230v410h-307v204h307v60z" />
    <glyph glyph-name="uni02A3" unicode="&#x2a3;" 
d="M77 760l198 264h109v410h230v-410h308v-350l-154 -205v-264h154v-205h-647l-198 264v496zM307 674v-324l77 -102v528zM614 819v-162l77 103v59h-77z" />
    <glyph glyph-name="uni02A4" unicode="&#x2a4;" 
d="M77 760l198 264h109v410h230v-410h308v-350l-122 -162l122 -162v-495l-199 -265h-339v205h198l109 146v323l-77 103v-367h-339l-198 264v496zM307 674v-324l77 -102v528zM614 819v-162l77 103v59h-77z" />
    <glyph glyph-name="uni02A5" unicode="&#x2a5;" 
d="M77 760l198 264h109v410h230v-410h308v-350l-154 -205v-264h154v-350l-199 -265h-141l-198 265v145h-109l-198 264v496zM307 674v-324l77 -102v528zM614 819v-162l77 103v59h-77zM614 0v-59l39 -52l38 52v59h-77z" />
    <glyph glyph-name="uni02A6" unicode="&#x2a6;" 
d="M77 1434h230v-410h615v-205h-308v-59l308 -410v-86l-199 -264h-448l-198 264v1170zM307 819v-469l109 -145h166l77 102l-275 367v145h-77z" />
    <glyph glyph-name="uni02A7" unicode="&#x2a7;" 
d="M77 819v205h153v410h231v-410h77v145l198 265h186v-146l-154 -205v-1228l-198 -265h-186v146l154 205v59h-109l-199 264v555h-153zM461 819v-469l77 -102v571h-77z" />
    <glyph glyph-name="uni02A8" unicode="&#x2a8;" 
d="M77 1434h230v-205h154v-205h-154v-674l77 -102v512l198 264h340v-205h-199l-109 -145v-469h109l199 -264v-86l-199 -265h-141l-198 265v145h-109l-198 264v1170zM614 -59l39 -52l6 9l-45 59v-16z" />
    <glyph glyph-name="uni02A9" unicode="&#x2a9;" 
d="M77 1169l198 265h186v-146l-154 -205v-264h416l199 -264v-700l-199 -265h-339v205h198l109 146v528l-77 102v-571h-230v614h-77v-614h-230v1169z" />
    <glyph glyph-name="uni02AA" unicode="&#x2aa;" 
d="M77 1229v205h384v-572l121 162h340v-205h-199l-76 -102l275 -367v-86l-199 -264h-646v205h153v1024h-153zM461 205h121l77 102l-198 264v-366z" />
    <glyph glyph-name="uni02AB" unicode="&#x2ab;" 
d="M77 1229v205h384v-410h461v-350l-308 -410v-59h308v-205h-845v205h153v1024h-153zM461 819v-366l230 307v59h-230z" />
    <glyph glyph-name="uni02AC" unicode="&#x2ac;" 
d="M77 879v145h186l83 -111l83 111h141l83 -111l83 111h186v-145l-199 -265h-141l-83 111l-83 -111h-141zM77 264v146h186l83 -111l83 111h141l83 -111l83 111h186v-146l-199 -264h-141l-83 111l-83 -111h-141z" />
    <glyph glyph-name="uni02AD" unicode="&#x2ad;" 
d="M230 1024h538v-410h-230v205h-77v-205h-231v410zM230 410h538v-410h-230v205h-77v-205h-231v410z" />
    <glyph glyph-name="uni02B0" unicode="&#x2b0;" 
d="M77 1434h230v-410h109l198 -264v-350h-230v264l-77 102v-366h-230v1024z" />
    <glyph glyph-name="uni02B2" unicode="&#x2b2;" 
d="M230 555v469h231v-555l-198 -264h-186v145zM230 1229v205h231v-205h-231z" />
    <glyph glyph-name="uni02B9" unicode="&#x2b9;" 
d="M230 1169v265h231v-351l-154 -204v-265h-230v351z" />
    <glyph glyph-name="uni02BA" unicode="&#x2ba;" 
d="M230 1169v265h231v-351l-154 -204v-265h-230v351zM691 1169v265h231v-351l-154 -204v-265h-230v351z" />
    <glyph glyph-name="uni02BC" unicode="&#x2bc;" 
d="M384 1169v265h230v-351l-198 -264h-186v146z" />
    <glyph glyph-name="circumflex" unicode="&#x2c6;" 
d="M230 1024v145l199 265h141l198 -265v-145h-186l-83 111l-83 -111h-186z" />
    <glyph glyph-name="caron" unicode="&#x2c7;" 
d="M230 1288v146h186l83 -111l83 111h186v-146l-198 -264h-141z" />
    <glyph glyph-name="uni02C8" unicode="&#x2c8;" 
d="M384 1434h230v-615h-230v615z" />
    <glyph glyph-name="uni02CC" unicode="&#x2cc;" 
d="M384 205h230v-615h-230v615z" />
    <glyph glyph-name="uni02D0" unicode="&#x2d0;" 
d="M230 879v145h186l83 -111l83 111h186v-145l-198 -265h-141zM230 0v145l199 265h141l198 -265v-145h-186l-83 111l-83 -111h-186z" />
    <glyph glyph-name="uni02D1" unicode="&#x2d1;" 
d="M230 879v145h186l83 -111l83 111h186v-145l-198 -265h-141z" />
    <glyph glyph-name="breve" unicode="&#x2d8;" 
d="M77 1288v146h186l153 -205h166l154 205h186v-146l-199 -264h-448z" />
    <glyph glyph-name="dotaccent" unicode="&#x2d9;" 
d="M384 1229v205h230v-205h-230z" />
    <glyph glyph-name="ring" unicode="&#x2da;" 
d="M230 1083v86l199 265h141l198 -265v-86l-198 -264h-141zM499 1118l6 8l-6 9l-6 -9z" />
    <glyph glyph-name="ogonek" unicode="&#x2db;" 
d="M230 -145v86l199 264h185v-146l-121 -161l121 -162v-146h-185z" />
    <glyph glyph-name="tilde" unicode="&#x2dc;" 
d="M230 1024v145l199 265h141l83 -111l83 111h186v-146l-199 -264h-141l-83 111l-83 -111h-186z" />
    <glyph glyph-name="hungarumlaut" unicode="&#x2dd;" 
d="M77 1024v145l198 265h186v-146l-198 -264h-186zM538 1024v145l198 265h186v-146l-199 -264h-185z" />
    <glyph glyph-name="uni02E0" unicode="&#x2e0;" 
d="M77 1288v146h186l83 -111l83 111h185v-146l-121 -162l121 -161v-291l-198 -264h-141l-198 264v291l121 161zM307 879v-119l39 -51l38 51v119l-38 51z" />
    <glyph glyph-name="uni02E1" unicode="&#x2e1;" 
d="M77 1229v205h384v-820h153v-204h-537v204h153v615h-153z" />
    <glyph glyph-name="uni02E2" unicode="&#x2e2;" 
d="M77 410v204h153v410h384v-205h-153v-409h-384z" />
    <glyph glyph-name="uni02E3" unicode="&#x2e3;" 
d="M77 879v145h186l83 -111l83 111h185v-145l-121 -162l121 -162v-145h-185l-83 110l-83 -110h-186v145l121 162z" />
    <glyph glyph-name="uni02E4" unicode="&#x2e4;" 
d="M77 1169l198 265h141l198 -265v-145h-185l-83 111l-39 -52v-118l154 -205v-350h-231v264l-153 205v290z" />
    <glyph glyph-name="uni02E5" unicode="&#x2e5;" 
d="M77 1229v205h845v-1434h-231v1229h-614z" />
    <glyph glyph-name="uni02E6" unicode="&#x2e6;" 
d="M77 1024v205h614v205h231v-1434h-231v1024h-614z" />
    <glyph glyph-name="uni02E7" unicode="&#x2e7;" 
d="M77 614v205h614v615h231v-1434h-231v614h-614z" />
    <glyph glyph-name="uni02E8" unicode="&#x2e8;" 
d="M77 205v205h614v1024h231v-1434h-231v205h-614z" />
    <glyph glyph-name="uni02E9" unicode="&#x2e9;" 
d="M77 0v205h614v1229h231v-1434h-845z" />
    <glyph glyph-name="uni037F" unicode="&#x37f;" 
d="M77 264v146h186l153 -205h166l109 145v1084h231v-1170l-199 -264h-448z" />
    <glyph glyph-name="tonos" unicode="&#x384;" 
d="M384 1229v205h230v-205h-230z" />
    <glyph glyph-name="dieresistonos" unicode="&#x385;" 
d="M77 1024v205h230v-205h-230zM384 1434h230v-410h-230v410zM691 1024v205h231v-205h-231z" />
    <glyph glyph-name="Alphatonos" unicode="&#x386;" 
d="M77 1434h230v-410h-230v410zM384 1169l198 265h141l199 -265v-1169h-231v410h-77v-410h-230v1169zM614 1083v-469h77v469l-38 52z" />
    <glyph glyph-name="Epsilontonos" unicode="&#x388;" 
d="M77 1434h230v-410h-230v410zM384 1434h538v-205h-308v-410h154v-205h-154v-409h308v-205h-538v1434z" />
    <glyph glyph-name="Etatonos" unicode="&#x389;" 
d="M77 1434h230v-410h-230v410zM384 1434h230v-615h77v615h231v-1434h-231v614h-77v-614h-230v1434z" />
    <glyph glyph-name="Iotatonos" unicode="&#x38a;" 
d="M77 1434h230v-410h-230v410zM384 1229v205h538v-205h-154v-1024h154v-205h-538v205h154v1024h-154z" />
    <glyph glyph-name="Omicrontonos" unicode="&#x38c;" 
d="M77 1434h230v-410h-230v410zM384 1169l198 265h141l199 -265v-905l-199 -264h-141l-198 264v905zM614 1083v-733l39 -51l38 51v733l-38 52z" />
    <glyph glyph-name="Upsilontonos" unicode="&#x38e;" 
d="M77 1434h230v-410h-230v410zM384 1434h230v-469l39 -52l38 52v469h231v-555l-154 -205v-674h-230v674l-154 205v555z" />
    <glyph glyph-name="Omegatonos" unicode="&#x38f;" 
d="M77 1434h230v-410h-230v410zM384 1169l198 265h141l199 -265v-700l-154 -205v-59h154v-205h-538v205h154v59l-154 205v700zM614 1083v-528l39 -51l38 51v528l-38 52z" />
    <glyph glyph-name="iotadieresistonos" unicode="&#x390;" 
d="M77 1024v205h230v-205h-230zM230 614v205h384v-469l154 -205v-145h-186l-198 264v350h-154zM384 1434h230v-410h-230v410zM691 1024v205h231v-205h-231z" />
    <glyph glyph-name="Alpha" unicode="&#x391;" 
d="M77 965l352 469h141l352 -469v-965h-231v410h-384v-410h-230v965zM307 879v-265h384v265l-192 256z" />
    <glyph glyph-name="Beta" unicode="&#x392;" 
d="M77 1434h646l199 -265v-290l-122 -162l122 -162v-291l-199 -264h-646v1434zM307 1229v-410h275l109 146v118l-109 146h-275zM307 614v-409h275l109 145v119l-109 145h-275z" />
    <glyph glyph-name="Gamma" unicode="&#x393;" 
d="M77 1434h845v-205h-615v-1229h-230v1434z" />
    <glyph glyph-name="uni0394" unicode="&#x394;" 
d="M230 760v205l154 204v265h230v-265l154 -204v-205l154 -205v-555h-845v555zM461 674l-154 -205v-264h384v264l-153 205v205l-39 51l-38 -51v-205z" />
    <glyph glyph-name="Epsilon" unicode="&#x395;" 
d="M77 1434h845v-205h-615v-410h461v-205h-461v-409h615v-205h-845v1434z" />
    <glyph glyph-name="Zeta" unicode="&#x396;" 
d="M77 1229v205h845v-351l-615 -819v-59h615v-205h-845v350l614 819v60h-614z" />
    <glyph glyph-name="Eta" unicode="&#x397;" 
d="M77 1434h230v-615h384v615h231v-1434h-231v614h-384v-614h-230v1434z" />
    <glyph glyph-name="Theta" unicode="&#x398;" 
d="M77 1169l198 265h448l199 -265v-905l-199 -264h-448l-198 264v905zM416 1229l-109 -146v-264h384v264l-109 146h-166zM307 614v-264l109 -145h166l109 145v264h-384z" />
    <glyph glyph-name="Iota" unicode="&#x399;" 
d="M230 1229v205h538v-205h-154v-1024h154v-205h-538v205h154v1024h-154z" />
    <glyph glyph-name="Kappa" unicode="&#x39a;" 
d="M77 1434h230v-572l429 572h186v-146l-429 -571l429 -572v-145h-186l-429 571v-571h-230v1434z" />
    <glyph glyph-name="Lambda" unicode="&#x39b;" 
d="M230 760v205l154 204v265h230v-265l154 -204v-205l154 -205v-555h-231v469l-153 205v205l-39 51l-38 -51v-205l-154 -205v-469h-230v555z" />
    <glyph glyph-name="Mu" unicode="&#x39c;" 
d="M77 1434h230v-205h109l83 -111l83 111h109v205h231v-1434h-231v981l-77 -102v-265h-230v265l-77 102v-981h-230v1434z" />
    <glyph glyph-name="Nu" unicode="&#x39d;" 
d="M77 1434h230v-410h109l275 -367v777h231v-1434h-231v410h-109l-275 366v-776h-230v1434z" />
    <glyph glyph-name="Xi" unicode="&#x39e;" 
d="M77 1229v205h845v-205h-845zM77 0v205h845v-205h-845zM230 614v205h538v-205h-538z" />
    <glyph glyph-name="Omicron" unicode="&#x39f;" 
d="M77 1169l198 265h448l199 -265v-905l-199 -264h-448l-198 264v905zM416 1229l-109 -146v-733l109 -145h166l109 145v733l-109 146h-166z" />
    <glyph glyph-name="Pi" unicode="&#x3a0;" 
d="M77 1434h845v-1434h-231v1229h-384v-1229h-230v1434z" />
    <glyph glyph-name="Rho" unicode="&#x3a1;" 
d="M77 1434h646l199 -265v-290l-199 -265h-416v-614h-230v1434zM307 1229v-410h275l109 146v118l-109 146h-275z" />
    <glyph glyph-name="Sigma" unicode="&#x3a3;" 
d="M77 1434h845v-205h-615v-60l307 -409v-86l-307 -410v-59h615v-205h-845v350l275 367l-275 366v351z" />
    <glyph glyph-name="Tau" unicode="&#x3a4;" 
d="M77 1229v205h845v-205h-308v-1229h-230v1229h-307z" />
    <glyph glyph-name="Upsilon" unicode="&#x3a5;" 
d="M77 1434h230v-265l192 -256l192 256v265h231v-351l-308 -409v-674h-230v674l-307 409v351z" />
    <glyph glyph-name="Phi" unicode="&#x3a6;" 
d="M77 965l198 264h109v205h230v-205h109l199 -264v-496l-199 -264h-109v-205h-230v205h-109l-198 264v496zM307 879v-324l77 -102v528zM691 879l-77 102v-528l77 102v324z" />
    <glyph glyph-name="Chi" unicode="&#x3a7;" 
d="M77 1434h230v-265l192 -256l192 256v265h231v-351l-275 -366l275 -367v-350h-231v264l-192 256l-192 -256v-264h-230v350l275 367l-275 366v351z" />
    <glyph glyph-name="Psi" unicode="&#x3a8;" 
d="M77 1434h230v-879l77 -102v981h230v-981l77 102v879h231v-965l-199 -264h-109v-205h-230v205h-109l-198 264v965z" />
    <glyph glyph-name="uni03A9" unicode="&#x3a9;" 
d="M77 1169l198 265h448l199 -265v-700l-154 -205v-59h154v-205h-384v350l153 205v528l-109 146h-166l-109 -146v-528l154 -205v-350h-384v205h153v59l-153 205v700z" />
    <glyph glyph-name="Iotadieresis" unicode="&#x3aa;" 
d="M230 1229v205h231v-205h-231zM230 819v205h538v-205h-154v-614h154v-205h-538v205h154v614h-154zM538 1229v205h230v-205h-230z" />
    <glyph glyph-name="Upsilondieresis" unicode="&#x3ab;" 
d="M77 879v145h186l236 -315l237 315h186v-145l-308 -410v-469h-230v469zM230 1229v205h231v-205h-231zM538 1229v205h230v-205h-230z" />
    <glyph glyph-name="alphatonos" unicode="&#x3ac;" 
d="M77 760l198 264h295l83 -111l83 111h186v-145l-154 -205v-324l154 -205v-145h-186l-83 111l-83 -111h-295l-198 264v496zM416 819l-109 -145v-324l109 -145h13l109 145v324l-109 145h-13zM384 1229v205h230v-205h-230z" />
    <glyph glyph-name="epsilontonos" unicode="&#x3ad;" 
d="M77 674v86l198 264h647v-205h-506l-77 -102l77 -103h352v-204h-352l-77 -103l77 -102h506v-205h-647l-198 264v86l121 162zM384 1229v205h230v-205h-230z" />
    <glyph glyph-name="etatonos" unicode="&#x3ae;" 
d="M77 1024h646l199 -264v-1170h-231v1084l-109 145h-275v-819h-230v1024zM384 1229v205h230v-205h-230z" />
    <glyph glyph-name="iotatonos" unicode="&#x3af;" 
d="M230 819v205h384v-674l154 -205v-145h-186l-198 264v555h-154zM384 1229v205h230v-205h-230z" />
    <glyph glyph-name="upsilondieresistonos" unicode="&#x3b0;" 
d="M77 1024v205h230v-205h-230zM77 819h230v-469l109 -145h166l109 145v119l-153 205v145h185l199 -264v-291l-199 -264h-448l-198 264v555zM384 1434h230v-410h-230v410zM691 1024v205h231v-205h-231z" />
    <glyph glyph-name="alpha" unicode="&#x3b1;" 
d="M77 760l198 264h295l83 -111l83 111h186v-145l-154 -205v-324l154 -205v-145h-186l-83 111l-83 -111h-295l-198 264v496zM416 819l-109 -145v-324l109 -145h13l109 145v324l-109 145h-13z" />
    <glyph glyph-name="beta" unicode="&#x3b2;" 
d="M77 1169l198 265h448l199 -265v-290l-122 -162l122 -162v-291l-199 -264h-416v-410h-230v1579zM416 1229l-109 -146v-264h275l109 146v118l-109 146h-166zM307 614v-409h275l109 145v119l-109 145h-275z" />
    <glyph glyph-name="gamma" unicode="&#x3b3;" 
d="M77 1024h230v-264l154 -205v-205l38 -51l39 51v205l153 205v264h231v-350l-154 -205v-205l-154 -205v-469h-230v469l-154 205v205l-153 205v350z" />
    <glyph glyph-name="delta" unicode="&#x3b4;" 
d="M77 1083v86l198 265h647v-205h-506l-77 -103l77 -102h307l199 -264v-496l-199 -264h-448l-198 264v496l121 162zM416 819l-109 -145v-324l109 -145h166l109 145v324l-109 145h-166z" />
    <glyph glyph-name="epsilon" unicode="&#x3b5;" 
d="M77 674v86l198 264h647v-205h-506l-77 -102l77 -103h352v-204h-352l-77 -103l77 -102h506v-205h-647l-198 264v86l121 162z" />
    <glyph glyph-name="zeta" unicode="&#x3b6;" 
d="M77 1229v205h691v-351l-461 -614v-119l109 -145h154l198 -264v-86l-198 -265h-186v146l121 162l-76 102h-154l-198 264v291l461 614v60h-461z" />
    <glyph glyph-name="eta" unicode="&#x3b7;" 
d="M77 1024h646l199 -264v-1170h-231v1084l-109 145h-275v-819h-230v1024z" />
    <glyph glyph-name="theta" unicode="&#x3b8;" 
d="M77 1169l198 265h295l198 -265v-905l-198 -264h-295l-198 264v905zM416 1229l-109 -146v-264h231v264l-109 146h-13zM307 614v-264l109 -145h13l109 145v264h-231z" />
    <glyph glyph-name="iota" unicode="&#x3b9;" 
d="M230 819v205h384v-674l154 -205v-145h-186l-198 264v555h-154z" />
    <glyph glyph-name="kappa" unicode="&#x3ba;" 
d="M230 1024h231v-367l275 367h186v-145l-275 -367l275 -367v-145h-186l-275 367v-367h-231v1024z" />
    <glyph glyph-name="lambda" unicode="&#x3bb;" 
d="M77 1229v205h339l198 -265v-204l154 -205v-205l154 -205v-350h-231v264l-153 205v205l-39 51l-38 -51v-205l-154 -205v-264h-230v350l153 205v205l154 205v118l-109 146h-198z" />
    <glyph glyph-name="uni03BC" unicode="&#x3bc;" 
d="M77 1024h230v-819h122l109 145v674h230v-674l154 -205v-145h-186l-83 111l-83 -111h-263v-410h-230v1434z" />
    <glyph glyph-name="nu" unicode="&#x3bd;" 
d="M77 1024h230v-264l154 -205v-205l38 -51l192 256v469h231v-555l-352 -469h-141l-199 264v205l-153 205v350z" />
    <glyph glyph-name="xi" unicode="&#x3be;" 
d="M77 1169l198 265h493v-205h-352l-109 -146v-118l109 -146h352v-205h-352l-109 -145v-119l109 -145h307l199 -264v-86l-199 -265h-185v146l121 162l-77 102h-307l-198 264v291l121 162l-121 162v290z" />
    <glyph glyph-name="omicron" unicode="&#x3bf;" 
d="M77 760l198 264h448l199 -264v-496l-199 -264h-448l-198 264v496zM416 819l-109 -145v-324l109 -145h166l109 145v324l-109 145h-166z" />
    <glyph glyph-name="pi" unicode="&#x3c0;" 
d="M77 819v205h845v-205h-154v-469l154 -205v-145h-186l-198 264v555h-77v-819h-231v819h-153z" />
    <glyph glyph-name="rho" unicode="&#x3c1;" 
d="M77 760l198 264h448l199 -264v-496l-199 -264h-416v-410h-230v1170zM416 819l-109 -145v-469h275l109 145v324l-109 145h-166z" />
    <glyph glyph-name="sigma1" unicode="&#x3c2;" 
d="M77 760l198 264h647v-205h-506l-109 -145v-324l109 -145h307l199 -264v-86l-199 -265h-185v146l121 162l-77 102h-307l-198 264v496z" />
    <glyph glyph-name="sigma" unicode="&#x3c3;" 
d="M77 760l198 264h647v-205h-154v-59l154 -205v-291l-199 -264h-448l-198 264v496zM416 819l-109 -145v-324l109 -145h166l109 145v119l-153 205v145h-122z" />
    <glyph glyph-name="tau" unicode="&#x3c4;" 
d="M77 819v205h845v-205h-308v-469l154 -205v-145h-186l-198 264v555h-307z" />
    <glyph glyph-name="upsilon" unicode="&#x3c5;" 
d="M77 1024h230v-674l109 -145h166l109 145v324l-153 205v145h185l199 -264v-496l-199 -264h-448l-198 264v760z" />
    <glyph glyph-name="phi" unicode="&#x3c6;" 
d="M77 1024h230v-674l77 -102v776h339l199 -264v-496l-199 -264h-109v-410h-230v410h-109l-198 264v760zM691 674l-77 102v-528l77 102v324z" />
    <glyph glyph-name="chi" unicode="&#x3c7;" 
d="M77 879v145h186l198 -264v-205l38 -51l192 256v264h231v-350l-275 -367l121 -162v-204l154 -205v-146h-186l-198 265v204l-39 52l-192 -256v-265h-230v351l275 366l-122 162v205z" />
    <glyph glyph-name="psi" unicode="&#x3c8;" 
d="M77 1024h230v-674l77 -102v776h230v-776l77 102v674h231v-760l-199 -264h-109v-410h-230v410h-109l-198 264v760z" />
    <glyph glyph-name="omega" unicode="&#x3c9;" 
d="M77 760l198 264h186v-145l-154 -205v-324l39 -51l38 51v264h230v-264l39 -51l38 51v324l-153 205v145h185l199 -264v-496l-199 -264h-141l-83 111l-83 -111h-141l-198 264v496z" />
    <glyph glyph-name="iotadieresis" unicode="&#x3ca;" 
d="M230 1229v205h231v-205h-231zM230 819v205h384v-674l154 -205v-145h-186l-198 264v555h-154zM538 1229v205h230v-205h-230z" />
    <glyph glyph-name="upsilondieresis" unicode="&#x3cb;" 
d="M77 1024h230v-674l109 -145h166l109 145v324l-153 205v145h185l199 -264v-496l-199 -264h-448l-198 264v760zM230 1229v205h231v-205h-231zM538 1229v205h230v-205h-230z" />
    <glyph glyph-name="omicrontonos" unicode="&#x3cc;" 
d="M77 760l198 264h448l199 -264v-496l-199 -264h-448l-198 264v496zM416 819l-109 -145v-324l109 -145h166l109 145v324l-109 145h-166zM384 1229v205h230v-205h-230z" />
    <glyph glyph-name="upsilontonos" unicode="&#x3cd;" 
d="M77 1024h230v-674l109 -145h166l109 145v324l-153 205v145h185l199 -264v-496l-199 -264h-448l-198 264v760zM384 1229v205h230v-205h-230z" />
    <glyph glyph-name="omegatonos" unicode="&#x3ce;" 
d="M77 760l198 264h186v-145l-154 -205v-324l39 -51l38 51v264h230v-264l39 -51l38 51v324l-153 205v145h185l199 -264v-496l-199 -264h-141l-83 111l-83 -111h-141l-198 264v496zM384 1229v205h230v-205h-230z" />
    <glyph glyph-name="phi1" unicode="&#x3d5;" 
d="M77 760l198 264h109v410h230v-410h109l199 -264v-496l-199 -264h-109v-410h-230v410h-109l-198 264v496zM307 674v-324l77 -102v528zM691 674l-77 102v-528l77 102v324z" />
    <glyph glyph-name="uni03F3" unicode="&#x3f3;" 
d="M384 -59v1083h230v-1169l-198 -265h-186v146zM384 1229v205h230v-205h-230z" />
    <glyph glyph-name="uni0400" unicode="&#x400;" 
d="M77 1024h307v59l-154 205v146h186l198 -265v-145h308v-205h-615v-205h461v-204h-461v-205h615v-205h-845v1024z" />
    <glyph glyph-name="uni0401" unicode="&#x401;" 
d="M77 1024h845v-205h-615v-205h461v-204h-461v-205h615v-205h-845v1024zM230 1229v205h231v-205h-231zM538 1229v205h230v-205h-230z" />
    <glyph glyph-name="uni0402" unicode="&#x402;" 
d="M77 1229v205h691v-205h-307v-410h262l199 -264v-700l-199 -265h-185v146l153 205v528l-109 145h-121v-614h-231v1229h-153z" />
    <glyph glyph-name="uni0404" unicode="&#x404;" 
d="M77 965l352 469h294l199 -265v-145h-186l-154 205h-12l-263 -350v-60h307v-205h-307v-59l263 -350h12l154 205h186v-146l-199 -264h-294l-352 469v496z" />
    <glyph glyph-name="uni0405" unicode="&#x405;" 
d="M77 1169l198 265h448l199 -265v-145h-186l-154 205h-166l-109 -146v-118l109 -146h307l199 -264v-291l-199 -264h-448l-198 264v146h186l153 -205h166l109 145v119l-109 145h-307l-198 265v290z" />
    <glyph glyph-name="uni0406" unicode="&#x406;" 
d="M230 1229v205h538v-205h-154v-1024h154v-205h-538v205h154v1024h-154z" />
    <glyph glyph-name="uni0407" unicode="&#x407;" 
d="M230 1229v205h231v-205h-231zM230 819v205h538v-205h-154v-614h154v-205h-538v205h154v614h-154zM538 1229v205h230v-205h-230z" />
    <glyph glyph-name="uni0408" unicode="&#x408;" 
d="M77 264v146h186l153 -205h166l109 145v1084h231v-1170l-199 -264h-448z" />
    <glyph glyph-name="uni0409" unicode="&#x409;" 
d="M77 1169l198 265h339v-615h308v-819h-538v1186l-77 -103v-1083h-230v1169zM614 614v-409h77v409h-77z" />
    <glyph glyph-name="uni040A" unicode="&#x40a;" 
d="M77 1434h230v-615h77v615h230v-615h308v-819h-538v614h-77v-614h-230v1434zM614 614v-409h77v409h-77z" />
    <glyph glyph-name="uni040B" unicode="&#x40b;" 
d="M77 1229v205h691v-205h-307v-410h262l199 -264v-555h-231v469l-109 145h-121v-614h-231v1229h-153z" />
    <glyph glyph-name="uni040E" unicode="&#x40e;" 
d="M77 1434h230v-615h384v615h231v-1434h-845v205h614v409h-614v820zM384 1229v205h230v-205h-230z" />
    <glyph glyph-name="uni040F" unicode="&#x40f;" 
d="M77 1434h230v-1229h384v1229h231v-1434h-308v-205h-230v205h-307v1434z" />
    <glyph glyph-name="uni0410" unicode="&#x410;" 
d="M77 1169l198 265h448l199 -265v-1169h-231v410h-384v-410h-230v1169zM416 1229l-109 -146v-469h384v469l-109 146h-166z" />
    <glyph glyph-name="uni0411" unicode="&#x411;" 
d="M77 1434h845v-205h-615v-410h615v-819h-845v1434zM307 614v-409h384v409h-384z" />
    <glyph glyph-name="uni0412" unicode="&#x412;" 
d="M77 1434h646l199 -265v-290l-122 -162l122 -162v-291l-199 -264h-646v1434zM307 1229v-410h275l109 146v118l-109 146h-275zM307 614v-409h275l109 145v119l-109 145h-275z" />
    <glyph glyph-name="uni0413" unicode="&#x413;" 
d="M77 1434h845v-205h-615v-1229h-230v1434z" />
    <glyph glyph-name="uni0414" unicode="&#x414;" 
d="M77 205h153v964l199 265h339v-1229h154v-410h-231v205h-384v-205h-230v410zM461 205h77v981l-77 -103v-878z" />
    <glyph glyph-name="uni0415" unicode="&#x415;" 
d="M77 1434h845v-205h-615v-410h461v-205h-461v-409h615v-205h-845v1434z" />
    <glyph glyph-name="uni0416" unicode="&#x416;" 
d="M77 1434h230v-469l77 -103v572h230v-572l77 103v469h231v-555l-122 -162l122 -162v-555h-231v469l-77 102v-571h-230v571l-77 -102v-469h-230v555l121 162l-121 162v555z" />
    <glyph glyph-name="uni0417" unicode="&#x417;" 
d="M77 1024v145l198 265h448l199 -265v-290l-122 -162l122 -162v-291l-199 -264h-448l-198 264v146h186l153 -205h166l109 145v119l-109 145h-198v205h198l109 146v118l-109 146h-166l-153 -205h-186z" />
    <glyph glyph-name="uni0418" unicode="&#x418;" 
d="M77 1434h230v-777l275 367h109v410h231v-1434h-231v776l-275 -366h-109v-410h-230v1434z" />
    <glyph glyph-name="uni0419" unicode="&#x419;" 
d="M77 1434h230v-777l275 367h109v410h231v-1434h-231v776l-275 -366h-109v-410h-230v1434zM384 1229v205h230v-205h-230z" />
    <glyph glyph-name="uni041A" unicode="&#x41a;" 
d="M77 1434h230v-572l429 572h186v-146l-429 -571l429 -572v-145h-186l-429 571v-571h-230v1434z" />
    <glyph glyph-name="uni041B" unicode="&#x41b;" 
d="M77 0v205h153v964l199 265h493v-1434h-231v1229h-121l-109 -146v-1083h-384z" />
    <glyph glyph-name="uni041C" unicode="&#x41c;" 
d="M77 1434h230v-205h109l83 -111l83 111h109v205h231v-1434h-231v981l-77 -102v-265h-230v265l-77 102v-981h-230v1434z" />
    <glyph glyph-name="uni041D" unicode="&#x41d;" 
d="M77 1434h230v-615h384v615h231v-1434h-231v614h-384v-614h-230v1434z" />
    <glyph glyph-name="uni041E" unicode="&#x41e;" 
d="M77 1169l198 265h448l199 -265v-905l-199 -264h-448l-198 264v905zM416 1229l-109 -146v-733l109 -145h166l109 145v733l-109 146h-166z" />
    <glyph glyph-name="uni041F" unicode="&#x41f;" 
d="M77 1434h845v-1434h-231v1229h-384v-1229h-230v1434z" />
    <glyph glyph-name="uni0420" unicode="&#x420;" 
d="M77 1434h646l199 -265v-290l-199 -265h-416v-614h-230v1434zM307 1229v-410h275l109 146v118l-109 146h-275z" />
    <glyph glyph-name="uni0421" unicode="&#x421;" 
d="M77 1169l198 265h448l199 -265v-145h-186l-154 205h-166l-109 -146v-733l109 -145h166l154 205h186v-146l-199 -264h-448l-198 264v905z" />
    <glyph glyph-name="uni0422" unicode="&#x422;" 
d="M77 1229v205h845v-205h-308v-1229h-230v1229h-307z" />
    <glyph glyph-name="uni0423" unicode="&#x423;" 
d="M77 1434h230v-615h384v615h231v-1434h-845v205h614v409h-614v820z" />
    <glyph glyph-name="uni0424" unicode="&#x424;" 
d="M77 1229h307v205h230v-205h308v-1024h-308v-205h-230v205h-307v1024zM307 1024v-614h77v614h-77zM614 1024v-614h77v614h-77z" />
    <glyph glyph-name="uni0425" unicode="&#x425;" 
d="M77 1434h230v-265l192 -256l192 256v265h231v-351l-275 -366l275 -367v-350h-231v264l-192 256l-192 -256v-264h-230v350l275 367l-275 366v351z" />
    <glyph glyph-name="uni0426" unicode="&#x426;" 
d="M77 1434h230v-1229h231v1229h230v-1229h154v-410h-231v205h-614v1434z" />
    <glyph glyph-name="uni0427" unicode="&#x427;" 
d="M77 1434h230v-615h384v615h231v-1434h-231v614h-614v820z" />
    <glyph glyph-name="uni0428" unicode="&#x428;" 
d="M77 1434h230v-1229h77v1229h230v-1229h77v1229h231v-1434h-845v1434z" />
    <glyph glyph-name="uni0429" unicode="&#x429;" 
d="M77 1434h230v-1229h77v1229h230v-1229h77v1229h231v-1639h-231v205h-614v1434z" />
    <glyph glyph-name="uni042A" unicode="&#x42a;" 
d="M77 1229v205h384v-615h461v-819h-692v1229h-153zM461 614v-409h230v409h-230z" />
    <glyph glyph-name="uni042B" unicode="&#x42b;" 
d="M77 1434h230v-615h307v-819h-537v1434zM307 614v-409h77v409h-77zM691 1434h231v-1434h-231v1434z" />
    <glyph glyph-name="uni042C" unicode="&#x42c;" 
d="M77 1434h230v-615h615v-819h-845v1434zM307 614v-409h384v409h-384z" />
    <glyph glyph-name="uni042D" unicode="&#x42d;" 
d="M77 1024v145l198 265h295l352 -469v-496l-352 -469h-295l-198 264v146h186l153 -205h13l262 350v59h-307v205h307v60l-262 350h-13l-153 -205h-186z" />
    <glyph glyph-name="uni042E" unicode="&#x42e;" 
d="M77 1434h230v-615h77v350l198 265h141l199 -265v-905l-199 -264h-141l-198 264v350h-77v-614h-230v1434zM614 1083v-733l39 -51l38 51v733l-38 52z" />
    <glyph glyph-name="uni042F" unicode="&#x42f;" 
d="M77 1169l198 265h647v-1434h-231v614h-77v-145l-351 -469h-186v145l307 410v59h-109l-198 265v290zM416 1229l-109 -146v-118l109 -146h275v410h-275z" />
    <glyph glyph-name="uni0430" unicode="&#x430;" 
d="M77 264v86l198 264h416v60l-109 145h-352v205h493l199 -264v-760h-647zM416 205h275v205h-275l-77 -103z" />
    <glyph glyph-name="uni0431" unicode="&#x431;" 
d="M77 1169l198 265h493v-205h-352l-109 -146v-59h416l199 -264v-496l-199 -264h-646v1169zM307 819v-614h275l109 145v324l-109 145h-275z" />
    <glyph glyph-name="uni0432" unicode="&#x432;" 
d="M77 1024h646l199 -264v-86l-122 -162l122 -162v-86l-199 -264h-646v1024zM307 819v-205h275l77 103l-77 102h-275zM307 410v-205h275l77 102l-77 103h-275z" />
    <glyph glyph-name="uni0433" unicode="&#x433;" 
d="M77 1024h845v-205h-615v-819h-230v1024z" />
    <glyph glyph-name="uni0434" unicode="&#x434;" 
d="M77 205h153v555l199 264h339v-819h154v-410h-231v205h-384v-205h-230v410zM461 205h77v571l-77 -102v-469z" />
    <glyph glyph-name="uni0435" unicode="&#x435;" 
d="M77 760l198 264h448l199 -264v-350h-615v-60l109 -145h352v-205h-493l-198 264v496zM416 819l-109 -145v-60h384v60l-109 145h-166z" />
    <glyph glyph-name="uni0436" unicode="&#x436;" 
d="M77 1024h230v-264l77 -103v367h230v-367l77 103v264h231v-350l-122 -162l122 -162v-350h-231v264l-77 103v-367h-230v367l-77 -103v-264h-230v350l121 162l-121 162v350z" />
    <glyph glyph-name="uni0437" unicode="&#x437;" 
d="M77 614v146l198 264h448l199 -264v-86l-122 -162l122 -162v-86l-199 -264h-448l-198 264v146h186l153 -205h166l77 102l-77 103h-198v204h198l77 103l-77 102h-166l-153 -205h-186z" />
    <glyph glyph-name="uni0438" unicode="&#x438;" 
d="M77 1024h230v-571l275 366h109v205h231v-1024h-231v571l-275 -366h-109v-205h-230v1024z" />
    <glyph glyph-name="uni0439" unicode="&#x439;" 
d="M77 1024h230v-571l275 366h109v205h231v-1024h-231v571l-275 -366h-109v-205h-230v1024zM384 1024v205h230v-205h-230z" />
    <glyph glyph-name="uni043A" unicode="&#x43a;" 
d="M77 1024h230v-410h122l307 410h186v-145l-275 -367l275 -367v-145h-186l-307 410h-122v-410h-230v1024z" />
    <glyph glyph-name="uni043B" unicode="&#x43b;" 
d="M77 0v205h153v555l199 264h493v-1024h-231v819h-121l-109 -145v-674h-384z" />
    <glyph glyph-name="uni043C" unicode="&#x43c;" 
d="M77 1024h230v-205h109l83 -110l83 110h109v205h231v-1024h-231v571l-121 -161h-141l-122 161v-571h-230v1024z" />
    <glyph glyph-name="uni043D" unicode="&#x43d;" 
d="M77 1024h230v-410h384v410h231v-1024h-231v410h-384v-410h-230v1024z" />
    <glyph glyph-name="uni043E" unicode="&#x43e;" 
d="M77 760l198 264h448l199 -264v-496l-199 -264h-448l-198 264v496zM416 819l-109 -145v-324l109 -145h166l109 145v324l-109 145h-166z" />
    <glyph glyph-name="uni043F" unicode="&#x43f;" 
d="M77 1024h845v-1024h-231v819h-384v-819h-230v1024z" />
    <glyph glyph-name="uni0440" unicode="&#x440;" 
d="M77 1024h646l199 -264v-496l-199 -264h-416v-410h-230v1434zM307 819v-614h275l109 145v324l-109 145h-275z" />
    <glyph glyph-name="uni0441" unicode="&#x441;" 
d="M77 760l198 264h448l199 -264v-146h-186l-154 205h-166l-109 -145v-324l109 -145h166l154 205h186v-146l-199 -264h-448l-198 264v496z" />
    <glyph glyph-name="uni0442" unicode="&#x442;" 
d="M77 819v205h845v-205h-308v-819h-230v819h-307z" />
    <glyph glyph-name="uni0443" unicode="&#x443;" 
d="M77 1024h230v-674l109 -145h275v819h231v-1169l-199 -265h-493v205h352l109 146v59h-416l-198 264v760z" />
    <glyph glyph-name="uni0444" unicode="&#x444;" 
d="M77 760l198 264h109v205h230v-205h109l199 -264v-496l-199 -264h-109v-205h-230v205h-109l-198 264v496zM307 674v-324l77 -102v528zM691 674l-77 102v-528l77 102v324z" />
    <glyph glyph-name="uni0445" unicode="&#x445;" 
d="M77 879v145h186l236 -315l237 315h186v-145l-275 -367l275 -367v-145h-186l-237 315l-236 -315h-186v145l275 367z" />
    <glyph glyph-name="uni0446" unicode="&#x446;" 
d="M77 1024h230v-819h231v819h230v-819h154v-410h-231v205h-614v1024z" />
    <glyph glyph-name="uni0447" unicode="&#x447;" 
d="M77 1024h230v-469l109 -145h275v614h231v-1024h-231v205h-416l-198 264v555z" />
    <glyph glyph-name="uni0448" unicode="&#x448;" 
d="M77 1024h230v-819h77v819h230v-819h77v819h231v-1024h-845v1024z" />
    <glyph glyph-name="uni0449" unicode="&#x449;" 
d="M77 1024h230v-819h77v819h230v-819h77v819h231v-1229h-231v205h-614v1024z" />
    <glyph glyph-name="uni044A" unicode="&#x44a;" 
d="M77 819v205h384v-410h262l199 -264v-86l-199 -264h-493v819h-153zM461 410v-205h121l77 102l-77 103h-121z" />
    <glyph glyph-name="uni044B" unicode="&#x44b;" 
d="M77 1024h230v-410h307v-614h-537v1024zM307 410v-205h77v205h-77zM691 1024h231v-1024h-231v1024z" />
    <glyph glyph-name="uni044C" unicode="&#x44c;" 
d="M77 1024h230v-410h416l199 -264v-86l-199 -264h-646v1024zM307 410v-205h275l77 102l-77 103h-275z" />
    <glyph glyph-name="uni044D" unicode="&#x44d;" 
d="M77 614v146l198 264h295l198 -264v-496l-198 -264h-295l-198 264v146h186l153 -205h13l109 145v60h-154v204h154v60l-109 145h-13l-153 -205h-186z" />
    <glyph glyph-name="uni044E" unicode="&#x44e;" 
d="M77 1024h230v-410h77v146l198 264h141l199 -264v-496l-199 -264h-141l-198 264v146h-77v-410h-230v1024zM614 674v-324l39 -51l38 51v324l-38 51z" />
    <glyph glyph-name="uni044F" unicode="&#x44f;" 
d="M77 674v86l198 264h647v-1024h-231v410h-77v-146l-198 -264h-339v205h198l109 145v60h-109zM416 614h275v205h-275l-77 -102z" />
    <glyph glyph-name="uni0450" unicode="&#x450;" 
d="M77 760l198 264h109v59l-154 205v146h186l198 -265v-145h109l199 -264v-350h-615v-60l109 -145h352v-205h-493l-198 264v496zM416 819l-109 -145v-60h384v60l-109 145h-166z" />
    <glyph glyph-name="uni0451" unicode="&#x451;" 
d="M77 760l198 264h448l199 -264v-350h-615v-60l109 -145h352v-205h-493l-198 264v496zM230 1229v205h231v-205h-231zM416 819l-109 -145v-60h384v60l-109 145h-166zM538 1229v205h230v-205h-230z" />
    <glyph glyph-name="uni0452" unicode="&#x452;" 
d="M77 1024v205h153v205h231v-205h307v-205h-307v-205h262l199 -264v-700l-199 -265h-185v146l153 205v528l-109 145h-121v-614h-231v1024h-153z" />
    <glyph glyph-name="uni0454" unicode="&#x454;" 
d="M77 760l198 264h295l198 -264v-146h-186l-153 205h-13l-109 -145v-60h154v-204h-154v-60l109 -145h13l153 205h186v-146l-198 -264h-295l-198 264v496z" />
    <glyph glyph-name="uni0455" unicode="&#x455;" 
d="M77 674v86l198 264h647v-205h-506l-77 -102l77 -103h307l199 -264v-86l-199 -264h-646v205h505l77 102l-77 103h-307z" />
    <glyph glyph-name="uni0456" unicode="&#x456;" 
d="M230 819v205h384v-819h154v-205h-538v205h154v614h-154zM384 1229v205h230v-205h-230z" />
    <glyph glyph-name="uni0457" unicode="&#x457;" 
d="M230 1229v205h231v-205h-231zM230 819v205h384v-819h154v-205h-538v205h154v614h-154zM538 1229v205h230v-205h-230z" />
    <glyph glyph-name="uni0458" unicode="&#x458;" 
d="M384 -59v1083h230v-1169l-198 -265h-186v146zM384 1229v205h230v-205h-230z" />
    <glyph glyph-name="uni0459" unicode="&#x459;" 
d="M77 760l198 264h339v-410h109l199 -264v-86l-199 -264h-339v776l-77 -102v-674h-230v760zM614 367v-119l45 59z" />
    <glyph glyph-name="uni045A" unicode="&#x45a;" 
d="M77 1024h230v-410h77v410h230v-410h109l199 -264v-86l-199 -264h-339v410h-77v-410h-230v1024zM614 367v-119l45 59z" />
    <glyph glyph-name="uni045B" unicode="&#x45b;" 
d="M77 1024v205h153v205h231v-205h307v-205h-307v-205h262l199 -264v-555h-231v469l-109 145h-121v-614h-231v1024h-153z" />
    <glyph glyph-name="uni045E" unicode="&#x45e;" 
d="M77 1024h230v-674l109 -145h275v819h231v-1169l-199 -265h-493v205h352l109 146v59h-416l-198 264v760zM384 1024v205h230v-205h-230z" />
    <glyph glyph-name="uni045F" unicode="&#x45f;" 
d="M77 1024h230v-819h384v819h231v-1024h-308v-205h-230v205h-307v1024z" />
    <glyph glyph-name="uni0490" unicode="&#x490;" 
d="M77 1229h614v205h231v-410h-615v-1024h-230v1229z" />
    <glyph glyph-name="uni0491" unicode="&#x491;" 
d="M77 1024h614v205h231v-410h-615v-819h-230v1024z" />
    <glyph glyph-name="uni0492" unicode="&#x492;" 
d="M77 614v205h153v615h692v-205h-461v-410h307v-205h-307v-614h-231v614h-153z" />
    <glyph glyph-name="uni0493" unicode="&#x493;" 
d="M77 410v204h153v410h692v-205h-461v-205h307v-204h-307v-410h-231v410h-153z" />
    <glyph glyph-name="uni05D0" unicode="&#x5d0;" 
d="M77 1083v146h186l390 -520l38 51v469h231v-555l-122 -162l122 -162v-350h-231v264l-345 461l-39 -51v-674h-230v760l121 162z" />
    <glyph glyph-name="uni05D1" unicode="&#x5d1;" 
d="M77 0v205h461v819h-308v205h538v-1024h154v-205h-845z" />
    <glyph glyph-name="uni05D2" unicode="&#x5d2;" 
d="M230 0v145l352 469h109v410h-153v205h384v-1229h-231v367l-275 -367h-186z" />
    <glyph glyph-name="uni05D3" unicode="&#x5d3;" 
d="M77 1024v205h845v-205h-154v-1024h-230v1024h-461z" />
    <glyph glyph-name="uni05D4" unicode="&#x5d4;" 
d="M77 1024v205h845v-1229h-231v1024h-614zM77 614h230v-614h-230v614z" />
    <glyph glyph-name="uni05D5" unicode="&#x5d5;" 
d="M230 1024v205h384v-1229h-230v1024h-154z" />
    <glyph glyph-name="uni05D6" unicode="&#x5d6;" 
d="M230 1024v205h538v-205h-154v-145l-121 -162l121 -162v-555h-230v469l-154 205v86l154 205v59h-154z" />
    <glyph glyph-name="uni05D7" unicode="&#x5d7;" 
d="M77 1229h845v-1229h-231v1024h-384v-1024h-230v1229z" />
    <glyph glyph-name="uni05D8" unicode="&#x5d8;" 
d="M77 1229h230v-1024h384v571l-121 -162h-186v146l198 264h109v205h231v-1229h-845v1229z" />
    <glyph glyph-name="uni05D9" unicode="&#x5d9;" 
d="M230 1024v205h384v-410h-230v205h-154z" />
    <glyph glyph-name="uni05DA" unicode="&#x5da;" 
d="M77 1024v205h845v-1434h-231v1229h-614z" />
    <glyph glyph-name="uni05DB" unicode="&#x5db;" 
d="M77 1024v205h845v-1229h-845v205h614v819h-614z" />
    <glyph glyph-name="uni05DC" unicode="&#x5dc;" 
d="M77 1434h230v-205h615v-760l-352 -469h-340v205h199l262 350v469h-614v410z" />
    <glyph glyph-name="uni05DD" unicode="&#x5dd;" 
d="M77 1229h845v-1229h-845v1229zM307 1024v-819h384v819h-384z" />
    <glyph glyph-name="uni05DE" unicode="&#x5de;" 
d="M77 1083v146h186l83 -111l83 111h294l199 -264v-965h-538v205h307v674l-109 145h-12l-263 -350v-674h-230v760l121 162z" />
    <glyph glyph-name="uni05DF" unicode="&#x5df;" 
d="M230 1024v205h384v-1639h-230v1434h-154z" />
    <glyph glyph-name="uni05E0" unicode="&#x5e0;" 
d="M230 0v205h308v819h-154v205h384v-1229h-538z" />
    <glyph glyph-name="uni05E1" unicode="&#x5e1;" 
d="M77 1024v205h845v-965l-199 -264h-448l-198 264v496l153 205v59h-153zM461 1024v-145l-154 -205v-324l109 -145h166l109 145v674h-230z" />
    <glyph glyph-name="uni05E2" unicode="&#x5e2;" 
d="M77 0v205h153v1024h231v-981l230 307v674h231v-760l-352 -469h-493z" />
    <glyph glyph-name="uni05E3" unicode="&#x5e3;" 
d="M77 1024v205h845v-1434h-231v1229h-230v-205h153v-205h-384v410h-153z" />
    <glyph glyph-name="uni05E4" unicode="&#x5e4;" 
d="M77 1024v205h845v-1229h-845v205h614v819h-230v-205h153v-205h-384v410h-153z" />
    <glyph glyph-name="uni05E5" unicode="&#x5e5;" 
d="M77 1024v205h384v-367l275 367h186v-146l-352 -469h-109v-819h-231v1229h-153z" />
    <glyph glyph-name="uni05E6" unicode="&#x5e6;" 
d="M77 1229h230v-264l192 -256l192 256v264h231v-350l-275 -367l121 -162v-145h154v-205h-845v205h461v59l-461 615v350z" />
    <glyph glyph-name="uni05E7" unicode="&#x5e7;" 
d="M77 1024v205h845v-760l-199 -264h-185v145l153 205v469h-614zM230 819h231v-1024h-231v1024z" />
    <glyph glyph-name="uni05E8" unicode="&#x5e8;" 
d="M77 1024v205h845v-1229h-231v1024h-614z" />
    <glyph glyph-name="uni05E9" unicode="&#x5e9;" 
d="M77 1229h230v-572l77 103v469h230v-555l-198 -264h-109v-205h275l109 145v879h231v-965l-199 -264h-646v1229z" />
    <glyph glyph-name="uni05EA" unicode="&#x5ea;" 
d="M77 0v205h153v1024h692v-1229h-231v1024h-230v-1024h-384z" />
    <glyph glyph-name="uni1D00" unicode="&#x1d00;" 
d="M77 760l198 264h448l199 -264v-760h-231v410h-384v-410h-230v760zM416 819l-109 -145v-60h384v60l-109 145h-166z" />
    <glyph glyph-name="uni1D01" unicode="&#x1d01;" 
d="M77 760l198 264h647v-205h-308v-205h154v-204h-154v-205h308v-205h-538v205h-77v-205h-230v760zM307 674v-264h77v366z" />
    <glyph glyph-name="uni1D02" unicode="&#x1d02;" 
d="M77 614h307v205h-154v205h493l199 -264v-86l-199 -264h-109v-60l154 -205v-145h-186l-83 111l-83 -111h-141l-198 264v350zM307 410v-60l39 -51l38 51v60h-77zM614 776v-119l45 60z" />
    <glyph glyph-name="uni1D04" unicode="&#x1d04;" 
d="M77 760l198 264h448l199 -264v-146h-186l-154 205h-166l-109 -145v-324l109 -145h166l154 205h186v-146l-199 -264h-448l-198 264v496z" />
    <glyph glyph-name="uni1D05" unicode="&#x1d05;" 
d="M77 1024h646l199 -264v-496l-199 -264h-646v1024zM307 819v-614h275l109 145v324l-109 145h-275z" />
    <glyph glyph-name="uni1D06" unicode="&#x1d06;" 
d="M77 410v204h153v410h493l199 -264v-496l-199 -264h-493v410h-153zM461 819v-205h153v-204h-153v-205h121l109 145v324l-109 145h-121z" />
    <glyph glyph-name="uni1D07" unicode="&#x1d07;" 
d="M77 1024h845v-205h-615v-205h461v-204h-461v-205h615v-205h-845v1024z" />
    <glyph glyph-name="uni1D09" unicode="&#x1d09;" 
d="M230 819v205h538v-205h-154v-614h154v-205h-384v819h-154zM384 -410v205h230v-205h-230z" />
    <glyph glyph-name="uni1D0A" unicode="&#x1d0a;" 
d="M77 264v146h186l153 -205h166l109 145v674h231v-760l-199 -264h-448z" />
    <glyph glyph-name="uni1D0B" unicode="&#x1d0b;" 
d="M77 1024h230v-410h122l307 410h186v-145l-275 -367l275 -367v-145h-186l-307 410h-122v-410h-230v1024z" />
    <glyph glyph-name="uni1D0D" unicode="&#x1d0d;" 
d="M77 1024h230v-205h109l83 -110l83 110h109v205h231v-1024h-231v571l-121 -161h-141l-122 161v-571h-230v1024z" />
    <glyph glyph-name="uni1D0E" unicode="&#x1d0e;" 
d="M77 1024h230v-571l275 366h109v205h231v-1024h-231v571l-275 -366h-109v-205h-230v1024z" />
    <glyph glyph-name="uni1D0F" unicode="&#x1d0f;" 
d="M77 760l198 264h448l199 -264v-496l-199 -264h-448l-198 264v496zM416 819l-109 -145v-324l109 -145h166l109 145v324l-109 145h-166z" />
    <glyph glyph-name="uni1D14" unicode="&#x1d14;" 
d="M77 819v205h339l83 -111l83 111h141l199 -264v-496l-199 -264h-141l-83 111l-83 -111h-141l-198 264v350h307v60l-109 145h-198zM307 410v-60l39 -51l38 51v60h-77zM614 674v-324l39 -51l38 51v324l-38 51z" />
    <glyph glyph-name="uni1D18" unicode="&#x1d18;" 
d="M77 1024h646l199 -264v-86l-199 -264h-416v-410h-230v1024zM307 819v-205h275l77 103l-77 102h-275z" />
    <glyph glyph-name="uni1D19" unicode="&#x1d19;" 
d="M77 674v86l198 264h647v-1024h-231v410h-230v-146l-198 -264h-186v145l153 205v119zM416 614h275v205h-275l-77 -102z" />
    <glyph glyph-name="uni1D1A" unicode="&#x1d1a;" 
d="M77 879v145h186l198 -264v-146h230v410h231v-1024h-647l-198 264v86l153 205v119zM416 205h275v205h-275l-77 -103z" />
    <glyph glyph-name="uni1D1B" unicode="&#x1d1b;" 
d="M77 819v205h845v-205h-308v-819h-230v819h-307z" />
    <glyph glyph-name="uni1D1C" unicode="&#x1d1c;" 
d="M77 1024h230v-674l109 -145h166l109 145v674h231v-760l-199 -264h-448l-198 264v760z" />
    <glyph glyph-name="uni1D1D" unicode="&#x1d1d;" 
d="M77 819v205h845v-760l-199 -264h-646v205h505l109 145v469h-614z" />
    <glyph glyph-name="uni1D1F" unicode="&#x1d1f;" 
d="M77 819v205h845v-350l-122 -162l122 -162v-86l-199 -264h-646v205h505l77 102l-77 103h-505v204h505l109 146v59h-614z" />
    <glyph glyph-name="uni1D20" unicode="&#x1d20;" 
d="M77 1024h230v-264l154 -205v-205l38 -51l39 51v205l153 205v264h231v-350l-154 -205v-205l-198 -264h-141l-199 264v205l-153 205v350z" />
    <glyph glyph-name="uni1D21" unicode="&#x1d21;" 
d="M77 1024h230v-674l39 -51l38 51v264h230v-264l39 -51l38 51v674h231v-760l-199 -264h-141l-83 111l-83 -111h-141l-198 264v760z" />
    <glyph glyph-name="uni1D22" unicode="&#x1d22;" 
d="M77 819v205h845v-350l-199 -264h-307l-109 -146v-59h615v-205h-845v350l198 264h307l109 146v59h-614z" />
    <glyph glyph-name="uni1D4A" unicode="&#x1d4a;" 
d="M77 1229v205h339l198 -265v-495l-198 -264h-141l-198 264v350h307v59l-109 146h-198zM307 819v-59l39 -51l38 51v59h-77z" />
    <glyph glyph-name="uni1D62" unicode="&#x1d62;" 
d="M230 0v205h384v-410h154v-205h-538v205h154v205h-154zM384 410v204h230v-204h-230z" />
    <glyph glyph-name="uni1DBF" unicode="&#x1dbf;" 
d="M77 1169l198 265h141l198 -265v-495l-198 -264h-141l-198 264v495zM307 1083v-59h77v59l-38 52zM307 819v-59l39 -51l38 51v59h-77z" />
    <glyph glyph-name="uni1E02" unicode="&#x1e02;" 
d="M77 1024h646l199 -264v-86l-122 -162l122 -162v-86l-199 -264h-646v1024zM307 819v-205h275l77 103l-77 102h-275zM307 410v-205h275l77 102l-77 103h-275zM384 1229v205h230v-205h-230z" />
    <glyph glyph-name="uni1E03" unicode="&#x1e03;" 
d="M77 1434h230v-410h416l199 -264v-496l-199 -264h-646v1434zM307 819v-614h275l109 145v324l-109 145h-275zM384 1229v205h230v-205h-230z" />
    <glyph glyph-name="uni1E04" unicode="&#x1e04;" 
d="M77 1434h646l199 -265v-290l-122 -162l122 -162v-291l-199 -264h-646v1434zM307 1229v-410h275l109 146v118l-109 146h-275zM307 614v-409h275l109 145v119l-109 145h-275zM384 -410v205h230v-205h-230z" />
    <glyph glyph-name="uni1E05" unicode="&#x1e05;" 
d="M77 1434h230v-410h416l199 -264v-496l-199 -264h-646v1434zM307 819v-614h275l109 145v324l-109 145h-275zM384 -410v205h230v-205h-230z" />
    <glyph glyph-name="uni1E06" unicode="&#x1e06;" 
d="M77 1434h646l199 -265v-290l-122 -162l122 -162v-291l-199 -264h-646v1434zM307 1229v-410h275l109 146v118l-109 146h-275zM307 614v-409h275l109 145v119l-109 145h-275zM230 -410v205h538v-205h-538z" />
    <glyph glyph-name="uni1E07" unicode="&#x1e07;" 
d="M77 1434h230v-410h416l199 -264v-496l-199 -264h-646v1434zM307 819v-614h275l109 145v324l-109 145h-275zM230 -410v205h538v-205h-538z" />
    <glyph glyph-name="uni1E08" unicode="&#x1e08;" 
d="M77 760l198 264h109v145l198 265h186v-146l-154 -205v-59h109l199 -264v-146h-186l-154 205h-166l-109 -145v-324l109 -145h166l154 205h186v-146l-199 -264h-109v-145l-198 -265h-186v146l154 205v59h-109l-198 264v496z" />
    <glyph glyph-name="uni1E09" unicode="&#x1e09;" 
d="M77 760l198 264h109v145l198 265h186v-146l-154 -205v-59h308v-205h-506l-109 -145v-324l109 -145h506v-205h-308v-145l-198 -265h-186v146l154 205v59h-109l-198 264v496z" />
    <glyph glyph-name="uni1E0A" unicode="&#x1e0a;" 
d="M77 1024h646l199 -264v-496l-199 -264h-646v1024zM307 819v-614h275l109 145v324l-109 145h-275zM384 1229v205h230v-205h-230z" />
    <glyph glyph-name="uni1E0B" unicode="&#x1e0b;" 
d="M77 760l198 264h416v410h231v-1434h-647l-198 264v496zM416 819l-109 -145v-324l109 -145h275v614h-275zM384 1229v205h230v-205h-230z" />
    <glyph glyph-name="uni1E0C" unicode="&#x1e0c;" 
d="M77 1434h646l199 -265v-905l-199 -264h-646v1434zM307 1229v-1024h275l109 145v733l-109 146h-275zM384 -410v205h230v-205h-230z" />
    <glyph glyph-name="uni1E0D" unicode="&#x1e0d;" 
d="M77 760l198 264h416v410h231v-1434h-647l-198 264v496zM416 819l-109 -145v-324l109 -145h275v614h-275zM384 -410v205h230v-205h-230z" />
    <glyph glyph-name="uni1E0E" unicode="&#x1e0e;" 
d="M77 1434h646l199 -265v-905l-199 -264h-646v1434zM307 1229v-1024h275l109 145v733l-109 146h-275zM230 -410v205h538v-205h-538z" />
    <glyph glyph-name="uni1E0F" unicode="&#x1e0f;" 
d="M77 760l198 264h416v410h231v-1434h-647l-198 264v496zM416 819l-109 -145v-324l109 -145h275v614h-275zM230 -410v205h538v-205h-538z" />
    <glyph glyph-name="uni1E10" unicode="&#x1e10;" 
d="M77 1434h646l199 -265v-905l-199 -264h-109v-145l-198 -265h-186v146l154 205v59h-307v1434zM307 1229v-1024h275l109 145v733l-109 146h-275z" />
    <glyph glyph-name="uni1E11" unicode="&#x1e11;" 
d="M77 760l198 264h416v410h231v-1434h-308v-145l-198 -265h-186v146l154 205v59h-109l-198 264v496zM416 819l-109 -145v-324l109 -145h275v614h-275z" />
    <glyph glyph-name="uni1E12" unicode="&#x1e12;" 
d="M77 1434h646l199 -265v-905l-199 -264h-109v-59l154 -205v-146h-186l-83 111l-83 -111h-186v146l154 205v59h-307v1434zM307 1229v-1024h275l109 145v733l-109 146h-275z" />
    <glyph glyph-name="uni1E13" unicode="&#x1e13;" 
d="M77 760l198 264h416v410h231v-1434h-308v-59l154 -205v-146h-186l-83 111l-83 -111h-186v146l154 205v59h-109l-198 264v496zM416 819l-109 -145v-324l109 -145h275v614h-275z" />
    <glyph glyph-name="uni1E18" unicode="&#x1e18;" 
d="M77 1434h845v-205h-615v-410h461v-205h-461v-409h615v-205h-308v-59l154 -205v-146h-186l-83 111l-83 -111h-186v146l154 205v59h-307v1434z" />
    <glyph glyph-name="uni1E19" unicode="&#x1e19;" 
d="M77 760l198 264h448l199 -264v-350h-615v-60l109 -145h352v-205h-154v-59l154 -205v-146h-186l-83 111l-83 -111h-186v146l154 205v59h-109l-198 264v496zM416 819l-109 -145v-60h384v60l-109 145h-166z" />
    <glyph glyph-name="uni1E1E" unicode="&#x1e1e;" 
d="M77 1024h845v-205h-615v-205h461v-204h-461v-410h-230v1024zM384 1229v205h230v-205h-230z" />
    <glyph glyph-name="uni1E1F" unicode="&#x1e1f;" 
d="M230 410v204h154v146l198 264h186v-145l-154 -205v-60h154v-204h-154v-410h-230v410h-154zM384 1229v205h230v-205h-230z" />
    <glyph glyph-name="uni1E20" unicode="&#x1e20;" 
d="M77 760l198 264h647v-205h-506l-109 -145v-324l109 -145h275v205h-153v204h384v-614h-647l-198 264v496zM230 1229v205h538v-205h-538z" />
    <glyph glyph-name="uni1E21" unicode="&#x1e21;" 
d="M77 760l198 264h647v-1169l-199 -265h-493v205h352l109 146v59h-416l-198 264v496zM230 1229v205h538v-205h-538zM416 819l-109 -145v-324l109 -145h275v614h-275z" />
    <glyph glyph-name="uni1E22" unicode="&#x1e22;" 
d="M77 1434h230v-615h384v615h231v-1434h-231v614h-384v-614h-230v1434zM384 1229v205h230v-205h-230z" />
    <glyph glyph-name="uni1E23" unicode="&#x1e23;" 
d="M77 1434h230v-410h416l199 -264v-760h-231v674l-109 145h-275v-819h-230v1434zM384 1229v205h230v-205h-230z" />
    <glyph glyph-name="uni1E24" unicode="&#x1e24;" 
d="M77 1434h230v-615h384v615h231v-1434h-231v614h-384v-614h-230v1434zM384 -410v205h230v-205h-230z" />
    <glyph glyph-name="uni1E25" unicode="&#x1e25;" 
d="M77 1434h230v-410h416l199 -264v-760h-231v674l-109 145h-275v-819h-230v1434zM384 -410v205h230v-205h-230z" />
    <glyph glyph-name="uni1E26" unicode="&#x1e26;" 
d="M77 1024h230v-410h384v410h231v-1024h-231v410h-384v-410h-230v1024zM230 1229v205h231v-205h-231zM538 1229v205h230v-205h-230z" />
    <glyph glyph-name="uni1E27" unicode="&#x1e27;" 
d="M77 1434h230v-410h416l199 -264v-760h-231v674l-109 145h-275v-819h-230v1434zM384 1229v205h230v-205h-230zM691 1229v205h231v-205h-231z" />
    <glyph glyph-name="uni1E28" unicode="&#x1e28;" 
d="M77 1434h230v-410h384v410h231v-1229h-231v614h-384v-614h-230v1229zM384 59v146h186l198 -264v-86l-198 -265h-186v146l121 162z" />
    <glyph glyph-name="uni1E29" unicode="&#x1e29;" 
d="M77 1434h230v-410h416l199 -264v-555h-231v469l-109 145h-275v-614h-230v1229zM384 59v146h186l198 -264v-86l-198 -265h-186v146l121 162z" />
    <glyph glyph-name="uni1E32" unicode="&#x1e32;" 
d="M77 1434h230v-572l429 572h186v-146l-429 -571l429 -572v-145h-186l-429 571v-571h-230v1434zM384 -410v205h230v-205h-230z" />
    <glyph glyph-name="uni1E33" unicode="&#x1e33;" 
d="M230 1434h231v-777l275 367h186v-145l-275 -367l275 -367v-145h-186l-275 367v-367h-231v1434zM384 -410v205h230v-205h-230z" />
    <glyph glyph-name="uni1E34" unicode="&#x1e34;" 
d="M77 1434h230v-572l429 572h186v-146l-429 -571l429 -572v-145h-186l-429 571v-571h-230v1434zM230 -410v205h538v-205h-538z" />
    <glyph glyph-name="uni1E35" unicode="&#x1e35;" 
d="M230 1434h231v-777l275 367h186v-145l-275 -367l275 -367v-145h-186l-275 367v-367h-231v1434zM230 -410v205h538v-205h-538z" />
    <glyph glyph-name="uni1E36" unicode="&#x1e36;" 
d="M77 1434h230v-1229h615v-205h-845v1434zM384 -410v205h230v-205h-230z" />
    <glyph glyph-name="uni1E37" unicode="&#x1e37;" 
d="M230 1229v205h384v-1229h154v-205h-538v205h154v1024h-154zM384 -410v205h230v-205h-230z" />
    <glyph glyph-name="uni1E3A" unicode="&#x1e3a;" 
d="M77 1434h230v-1229h615v-205h-845v1434zM230 -410v205h538v-205h-538z" />
    <glyph glyph-name="uni1E3B" unicode="&#x1e3b;" 
d="M230 1229v205h384v-1229h154v-205h-538v205h154v1024h-154zM230 -410v205h538v-205h-538z" />
    <glyph glyph-name="uni1E3C" unicode="&#x1e3c;" 
d="M77 1434h230v-1229h615v-205h-308v-59l154 -205v-146h-186l-83 111l-83 -111h-186v146l154 205v59h-307v1434z" />
    <glyph glyph-name="uni1E3D" unicode="&#x1e3d;" 
d="M230 1229v205h384v-1024h154v-205h-538v205h154v819h-154zM230 -410v146l199 264h141l198 -264v-146h-186l-83 111l-83 -111h-186z" />
    <glyph glyph-name="uni1E3E" unicode="&#x1e3e;" 
d="M77 1024h230v-205h109l83 -110l83 110h109v205h231v-1024h-231v571l-121 -161h-141l-122 161v-571h-230v1024zM384 1024v145l198 265h186v-146l-198 -264h-186z" />
    <glyph glyph-name="uni1E3F" unicode="&#x1e3f;" 
d="M77 819h339l83 -110l83 110h141l199 -264v-555h-231v469l-38 51l-39 -51v-469h-230v469l-77 102v-571h-230v819zM384 1024v145l198 265h186v-146l-198 -264h-186z" />
    <glyph glyph-name="uni1E40" unicode="&#x1e40;" 
d="M77 1229h230v-205h109l83 -111l83 111h109v205h231v-1229h-231v776l-121 -162h-141l-122 162v-776h-230v1229zM384 1229v205h230v-205h-230z" />
    <glyph glyph-name="uni1E41" unicode="&#x1e41;" 
d="M77 1024h339l83 -111l83 111h141l199 -264v-760h-231v674l-38 51l-39 -51v-674h-230v674l-77 102v-776h-230v1024zM384 1229v205h230v-205h-230z" />
    <glyph glyph-name="uni1E42" unicode="&#x1e42;" 
d="M77 1434h230v-205h109l83 -111l83 111h109v205h231v-1434h-231v981l-77 -102v-265h-230v265l-77 102v-981h-230v1434zM384 -410v205h230v-205h-230z" />
    <glyph glyph-name="uni1E43" unicode="&#x1e43;" 
d="M77 1024h339l83 -111l83 111h141l199 -264v-760h-231v674l-38 51l-39 -51v-674h-230v674l-77 102v-776h-230v1024zM384 -410v205h230v-205h-230z" />
    <glyph glyph-name="uni1E44" unicode="&#x1e44;" 
d="M77 1434h230v-410h109l275 -367v777h231v-1434h-231v410h-109l-275 366v-776h-230v1434zM384 1229v205h230v-205h-230z" />
    <glyph glyph-name="uni1E45" unicode="&#x1e45;" 
d="M77 1024h646l199 -264v-760h-231v674l-109 145h-275v-819h-230v1024zM384 1229v205h230v-205h-230z" />
    <glyph glyph-name="uni1E46" unicode="&#x1e46;" 
d="M77 1434h230v-410h109l275 -367v777h231v-1434h-231v410h-109l-275 366v-776h-230v1434zM384 -410v205h230v-205h-230z" />
    <glyph glyph-name="uni1E47" unicode="&#x1e47;" 
d="M77 1024h646l199 -264v-760h-231v674l-109 145h-275v-819h-230v1024zM384 -410v205h230v-205h-230z" />
    <glyph glyph-name="uni1E48" unicode="&#x1e48;" 
d="M77 1434h230v-410h109l275 -367v777h231v-1434h-231v410h-109l-275 366v-776h-230v1434zM230 -410v205h538v-205h-538z" />
    <glyph glyph-name="uni1E49" unicode="&#x1e49;" 
d="M77 1024h646l199 -264v-760h-231v674l-109 145h-275v-819h-230v1024zM230 -410v205h538v-205h-538z" />
    <glyph glyph-name="uni1E54" unicode="&#x1e54;" 
d="M77 1024h307v145l198 265h186v-146l-154 -205v-59h109l199 -264v-86l-199 -264h-416v-410h-230v1024zM307 819v-205h275l77 103l-77 102h-275z" />
    <glyph glyph-name="uni1E55" unicode="&#x1e55;" 
d="M77 1024h307v145l198 265h186v-146l-154 -205v-59h109l199 -264v-496l-199 -264h-416v-410h-230v1434zM307 819v-614h275l109 145v324l-109 145h-275z" />
    <glyph glyph-name="uni1E56" unicode="&#x1e56;" 
d="M77 1024h646l199 -264v-86l-199 -264h-416v-410h-230v1024zM307 819v-205h275l77 103l-77 102h-275zM384 1229v205h230v-205h-230z" />
    <glyph glyph-name="uni1E57" unicode="&#x1e57;" 
d="M77 1024h646l199 -264v-496l-199 -264h-416v-410h-230v1434zM307 819v-614h275l109 145v324l-109 145h-275zM384 1229v205h230v-205h-230z" />
    <glyph glyph-name="uni1E58" unicode="&#x1e58;" 
d="M77 1024h646l199 -264v-86l-154 -205v-119l154 -205v-145h-186l-198 264v146h-231v-410h-230v1024zM307 819v-205h275l77 103l-77 102h-275zM384 1229v205h230v-205h-230z" />
    <glyph glyph-name="uni1E59" unicode="&#x1e59;" 
d="M230 1024h231v-162l121 162h340v-205h-199l-153 -205h-109v-614h-231v1024zM384 1229v205h230v-205h-230z" />
    <glyph glyph-name="uni1E5A" unicode="&#x1e5a;" 
d="M77 1434h646l199 -265v-290l-199 -265h-109v-59l308 -410v-145h-186l-352 469v145h-77v-614h-230v1434zM307 1229v-410h275l109 146v118l-109 146h-275zM384 -410v205h230v-205h-230z" />
    <glyph glyph-name="uni1E5B" unicode="&#x1e5b;" 
d="M230 1024h231v-162l121 162h340v-205h-199l-153 -205h-109v-614h-231v1024zM384 -410v205h230v-205h-230z" />
    <glyph glyph-name="uni1E5C" unicode="&#x1e5c;" 
d="M77 1024h646l199 -264v-86l-154 -205v-119l154 -205v-145h-186l-198 264v146h-231v-410h-230v1024zM307 819v-205h275l77 103l-77 102h-275zM230 1229v205h538v-205h-538zM384 -410v205h230v-205h-230z" />
    <glyph glyph-name="uni1E5D" unicode="&#x1e5d;" 
d="M230 1229v205h538v-205h-538zM230 1024h231v-162l121 162h340v-205h-199l-153 -205h-109v-614h-231v1024zM384 -410v205h230v-205h-230z" />
    <glyph glyph-name="uni1E5E" unicode="&#x1e5e;" 
d="M77 1434h646l199 -265v-290l-199 -265h-109v-59l308 -410v-145h-186l-352 469v145h-77v-614h-230v1434zM307 1229v-410h275l109 146v118l-109 146h-275zM230 -410v205h538v-205h-538z" />
    <glyph glyph-name="uni1E5F" unicode="&#x1e5f;" 
d="M230 1024h231v-162l121 162h340v-205h-199l-153 -205h-109v-614h-231v1024zM230 -410v205h538v-205h-538z" />
    <glyph glyph-name="uni1E62" unicode="&#x1e62;" 
d="M77 1169l198 265h448l199 -265v-145h-186l-154 205h-166l-109 -146v-118l109 -146h307l199 -264v-291l-199 -264h-448l-198 264v146h186l153 -205h166l109 145v119l-109 145h-307l-198 265v290zM384 -410v205h230v-205h-230z" />
    <glyph glyph-name="uni1E63" unicode="&#x1e63;" 
d="M77 674v86l198 264h647v-205h-506l-77 -102l77 -103h307l199 -264v-86l-199 -264h-646v205h505l77 102l-77 103h-307zM384 -410v205h230v-205h-230z" />
    <glyph glyph-name="uni1E6A" unicode="&#x1e6a;" 
d="M77 819v205h845v-205h-308v-819h-230v819h-307zM384 1229v205h230v-205h-230z" />
    <glyph glyph-name="uni1E6B" unicode="&#x1e6b;" 
d="M230 614v205h154v205h230v-205h154v-205h-154v-264l154 -205v-145h-186l-198 264v350h-154zM384 1229v205h230v-205h-230z" />
    <glyph glyph-name="uni1E6C" unicode="&#x1e6c;" 
d="M77 1229v205h845v-205h-308v-1229h-230v1229h-307zM384 -410v205h230v-205h-230z" />
    <glyph glyph-name="uni1E6D" unicode="&#x1e6d;" 
d="M230 819v205h154v410h230v-410h154v-205h-154v-469l154 -205v-145h-186l-198 264v555h-154zM384 -410v205h230v-205h-230z" />
    <glyph glyph-name="uni1E6E" unicode="&#x1e6e;" 
d="M77 1229v205h845v-205h-308v-1229h-230v1229h-307zM230 -410v205h538v-205h-538z" />
    <glyph glyph-name="uni1E6F" unicode="&#x1e6f;" 
d="M230 819v205h154v410h230v-410h154v-205h-154v-469l154 -205v-145h-186l-198 264v555h-154zM230 -410v205h538v-205h-538z" />
    <glyph glyph-name="uni1E70" unicode="&#x1e70;" 
d="M77 1229v205h845v-205h-308v-1024h-230v1024h-307zM230 -410v146l199 264h141l198 -264v-146h-186l-83 111l-83 -111h-186z" />
    <glyph glyph-name="uni1E71" unicode="&#x1e71;" 
d="M230 819v205h154v410h230v-410h154v-205h-154v-264l154 -205v-145h-186l-198 264v350h-154zM230 -410v146l199 264h141l198 -264v-146h-186l-83 111l-83 -111h-186z" />
    <glyph glyph-name="uni1E72" unicode="&#x1e72;" 
d="M77 1434h230v-1084l109 -145h166l109 145v1084h231v-1170l-199 -264h-448l-198 264v1170zM230 -410v205h231v-205h-231zM538 -410v205h230v-205h-230z" />
    <glyph glyph-name="uni1E73" unicode="&#x1e73;" 
d="M77 1024h230v-674l109 -145h275v819h231v-1024h-647l-198 264v760zM230 -410v205h231v-205h-231zM538 -410v205h230v-205h-230z" />
    <glyph glyph-name="uni1E76" unicode="&#x1e76;" 
d="M77 1434h230v-1084l109 -145h166l109 145v1084h231v-1170l-199 -264h-109v-59l154 -205v-146h-186l-83 111l-83 -111h-186v146l154 205v59h-109l-198 264v1170z" />
    <glyph glyph-name="uni1E77" unicode="&#x1e77;" 
d="M77 1024h230v-674l109 -145h275v819h231v-1024h-308v-59l154 -205v-146h-186l-83 111l-83 -111h-186v146l154 205v59h-109l-198 264v760z" />
    <glyph glyph-name="uni1E7A" unicode="&#x1e7a;" 
d="M77 614h230v-264l109 -145h166l109 145v264h231v-350l-199 -264h-448l-198 264v350zM230 1229v205h231v-205h-231zM230 819v205h538v-205h-538zM538 1229v205h230v-205h-230z" />
    <glyph glyph-name="uni1E7B" unicode="&#x1e7b;" 
d="M77 614h230v-264l109 -145h275v409h231v-614h-647l-198 264v350zM230 1229v205h231v-205h-231zM230 819v205h538v-205h-538zM538 1229v205h230v-205h-230z" />
    <glyph glyph-name="uni1E7E" unicode="&#x1e7e;" 
d="M77 1434h230v-469l154 -205v-205l38 -51l39 51v205l153 205v469h231v-555l-154 -205v-205l-154 -205v-264h-230v264l-154 205v205l-153 205v555zM384 -410v205h230v-205h-230z" />
    <glyph glyph-name="uni1E7F" unicode="&#x1e7f;" 
d="M77 1024h230v-264l154 -205v-205l38 -51l39 51v205l153 205v264h231v-350l-154 -205v-205l-198 -264h-141l-199 264v205l-153 205v350zM384 -410v205h230v-205h-230z" />
    <glyph glyph-name="Wdieresis" unicode="&#x1e84;" 
d="M77 1024h230v-674l39 -51l38 51v469h230v-469l39 -51l38 51v674h231v-760l-199 -264h-141l-83 111l-83 -111h-141l-198 264v760zM230 1229v205h231v-205h-231zM538 1229v205h230v-205h-230z" />
    <glyph glyph-name="wdieresis" unicode="&#x1e85;" 
d="M77 1024h230v-674l39 -51l38 51v264h230v-264l39 -51l38 51v674h231v-760l-199 -264h-141l-83 111l-83 -111h-141l-198 264v760zM230 1229v205h231v-205h-231zM538 1229v205h230v-205h-230z" />
    <glyph glyph-name="uni1E88" unicode="&#x1e88;" 
d="M77 1434h230v-1084l39 -51l38 51v469h230v-469l39 -51l38 51v1084h231v-1170l-199 -264h-141l-83 111l-83 -111h-141l-198 264v1170zM384 -410v205h230v-205h-230z" />
    <glyph glyph-name="uni1E89" unicode="&#x1e89;" 
d="M77 1024h230v-674l39 -51l38 51v264h230v-264l39 -51l38 51v674h231v-760l-199 -264h-141l-83 111l-83 -111h-141l-198 264v760zM384 -410v205h230v-205h-230z" />
    <glyph glyph-name="uni1E8A" unicode="&#x1e8a;" 
d="M77 1434h230v-265l192 -256l192 256v265h231v-351l-275 -366l275 -367v-350h-231v264l-192 256l-192 -256v-264h-230v350l275 367l-275 366v351zM384 1229v205h230v-205h-230z" />
    <glyph glyph-name="uni1E8B" unicode="&#x1e8b;" 
d="M77 879v145h186l236 -315l237 315h186v-145l-275 -367l275 -367v-145h-186l-237 315l-236 -315h-186v145l275 367zM384 1229v205h230v-205h-230z" />
    <glyph glyph-name="uni1E8C" unicode="&#x1e8c;" 
d="M77 1024h230v-264l109 -146h166l109 146v264h231v-350l-122 -162l122 -162v-350h-231v264l-109 146h-166l-109 -146v-264h-230v350l121 162l-121 162v350zM230 1229v205h231v-205h-231zM538 1229v205h230v-205h-230z" />
    <glyph glyph-name="uni1E8D" unicode="&#x1e8d;" 
d="M77 879v145h186l236 -315l237 315h186v-145l-275 -367l275 -367v-145h-186l-237 315l-236 -315h-186v145l275 367zM230 1229v205h231v-205h-231zM538 1229v205h230v-205h-230z" />
    <glyph glyph-name="uni1E8E" unicode="&#x1e8e;" 
d="M77 1434h230v-265l192 -256l192 256v265h231v-351l-308 -409v-674h-230v674l-307 409v351zM384 1229v205h230v-205h-230z" />
    <glyph glyph-name="uni1E8F" unicode="&#x1e8f;" 
d="M77 1024h230v-674l109 -145h275v819h231v-1169l-199 -265h-493v205h352l109 146v59h-416l-198 264v760zM384 1229v205h230v-205h-230z" />
    <glyph glyph-name="uni1E90" unicode="&#x1e90;" 
d="M77 819v205h153v145l199 265h141l198 -265v-145h154v-350l-199 -264h-307l-109 -146v-59h615v-205h-845v350l198 264h307l109 146v59h-614zM461 1024h77v59l-39 52l-38 -52v-59z" />
    <glyph glyph-name="uni1E91" unicode="&#x1e91;" 
d="M77 819v205h153v145l199 265h141l198 -265v-145h154v-205h-154v-145l-307 -410v-59h461v-205h-845v205h153v145l308 410v59h-461zM461 1024h77v59l-39 52l-38 -52v-59z" />
    <glyph glyph-name="uni1E92" unicode="&#x1e92;" 
d="M77 1229v205h845v-351l-615 -819v-59h615v-205h-845v350l614 819v60h-614zM384 -410v205h230v-205h-230z" />
    <glyph glyph-name="uni1E93" unicode="&#x1e93;" 
d="M77 819v205h845v-205h-154v-145l-307 -410v-59h461v-205h-845v205h153v145l308 410v59h-461zM384 -410v205h230v-205h-230z" />
    <glyph glyph-name="uni1E94" unicode="&#x1e94;" 
d="M77 1229v205h845v-351l-615 -819v-59h615v-205h-845v350l614 819v60h-614zM230 -410v205h538v-205h-538z" />
    <glyph glyph-name="uni1E95" unicode="&#x1e95;" 
d="M77 819v205h845v-205h-154v-145l-307 -410v-59h461v-205h-845v205h153v145l308 410v59h-461zM230 -410v205h538v-205h-538z" />
    <glyph glyph-name="uni1E96" unicode="&#x1e96;" 
d="M77 1434h230v-410h416l199 -264v-760h-231v674l-109 145h-275v-819h-230v1434zM230 -410v205h538v-205h-538z" />
    <glyph glyph-name="uni1E97" unicode="&#x1e97;" 
d="M77 1229v205h230v-205h-230zM230 819v205h154v410h230v-410h154v-205h-154v-469l154 -205v-145h-186l-198 264v555h-154zM691 1229v205h231v-205h-231z" />
    <glyph glyph-name="uni1E9E" unicode="&#x1e9e;" 
d="M77 1169l198 265h448l199 -265v-86l-154 -204v-119l154 -205v-291l-199 -264h-339v205h198l109 145v119l-153 205v291l121 161l-77 103h-166l-109 -146v-1083h-230v1169z" />
    <glyph glyph-name="uni1EA0" unicode="&#x1ea0;" 
d="M77 965l352 469h141l352 -469v-965h-231v410h-384v-410h-230v965zM307 879v-265h384v265l-192 256zM384 -410v205h230v-205h-230z" />
    <glyph glyph-name="uni1EA1" unicode="&#x1ea1;" 
d="M77 264v86l198 264h416v60l-109 145h-352v205h493l199 -264v-760h-647zM416 205h275v205h-275l-77 -103zM384 -410v205h230v-205h-230z" />
    <glyph glyph-name="uni1EB8" unicode="&#x1eb8;" 
d="M77 1434h845v-205h-615v-410h461v-205h-461v-409h615v-205h-845v1434zM384 -410v205h230v-205h-230z" />
    <glyph glyph-name="uni1EB9" unicode="&#x1eb9;" 
d="M77 760l198 264h448l199 -264v-350h-615v-60l109 -145h352v-205h-493l-198 264v496zM416 819l-109 -145v-60h384v60l-109 145h-166zM384 -410v205h230v-205h-230z" />
    <glyph glyph-name="uni1ECA" unicode="&#x1eca;" 
d="M230 1229v205h538v-205h-154v-1024h154v-205h-538v205h154v1024h-154zM384 -410v205h230v-205h-230z" />
    <glyph glyph-name="uni1ECB" unicode="&#x1ecb;" 
d="M230 819v205h384v-819h154v-205h-538v205h154v614h-154zM384 1229v205h230v-205h-230zM384 -410v205h230v-205h-230z" />
    <glyph glyph-name="uni1ECC" unicode="&#x1ecc;" 
d="M77 1169l198 265h448l199 -265v-905l-199 -264h-448l-198 264v905zM416 1229l-109 -146v-733l109 -145h166l109 145v733l-109 146h-166zM384 -410v205h230v-205h-230z" />
    <glyph glyph-name="uni1ECD" unicode="&#x1ecd;" 
d="M77 760l198 264h448l199 -264v-496l-199 -264h-448l-198 264v496zM416 819l-109 -145v-324l109 -145h166l109 145v324l-109 145h-166zM384 -410v205h230v-205h-230z" />
    <glyph glyph-name="uni1EE4" unicode="&#x1ee4;" 
d="M77 1434h230v-1084l109 -145h166l109 145v1084h231v-1170l-199 -264h-448l-198 264v1170zM384 -410v205h230v-205h-230z" />
    <glyph glyph-name="uni1EE5" unicode="&#x1ee5;" 
d="M77 1024h230v-674l109 -145h275v819h231v-1024h-647l-198 264v760zM384 -410v205h230v-205h-230z" />
    <glyph glyph-name="uni1EF4" unicode="&#x1ef4;" 
d="M77 1434h230v-265l192 -256l192 256v265h231v-351l-308 -409v-674h-230v674l-307 409v351zM384 -410v205h230v-205h-230z" />
    <glyph glyph-name="uni1EF5" unicode="&#x1ef5;" 
d="M77 1024h230v-264l109 -146h275v410h231v-760l-199 -264h-493v205h352l109 145v60h-416l-198 264v350zM384 -410v205h230v-205h-230z" />
    <glyph glyph-name="uni2010" unicode="&#x2010;" 
d="M230 614v205h538v-205h-538z" />
    <glyph glyph-name="uni2011" unicode="&#x2011;" 
d="M230 614v205h538v-205h-538z" />
    <glyph glyph-name="endash" unicode="&#x2013;" 
d="M77 614v205h691v-205h-691z" />
    <glyph glyph-name="emdash" unicode="&#x2014;" 
d="M77 614v205h845v-205h-845z" />
    <glyph glyph-name="dblverticalbar" unicode="&#x2016;" 
d="M230 1434h231v-1434h-231v1434zM538 1434h230v-1434h-230v1434z" />
    <glyph glyph-name="underscoredbl" unicode="&#x2017;" 
d="M77 0v205h845v-205h-845zM77 -410v205h845v-205h-845z" />
    <glyph glyph-name="quoteleft" unicode="&#x2018;" 
d="M384 1169l198 265h186v-146l-154 -205v-264h-230v350z" />
    <glyph glyph-name="quoteright" unicode="&#x2019;" 
d="M384 1169v265h230v-351l-198 -264h-186v146z" />
    <glyph glyph-name="quotesinglbase" unicode="&#x201a;" 
d="M384 145v265h230v-351l-198 -264h-186v146z" />
    <glyph glyph-name="quotereversed" unicode="&#x201b;" 
d="M384 1434h230v-265l154 -204v-146h-186l-198 264v351z" />
    <glyph glyph-name="quotedblleft" unicode="&#x201c;" 
d="M77 1169l198 265h186v-146l-154 -205v-264h-230v350zM538 1169l198 265h186v-146l-154 -205v-264h-230v350z" />
    <glyph glyph-name="quotedblright" unicode="&#x201d;" 
d="M230 1169v265h231v-351l-198 -264h-186v146zM691 1169v265h231v-351l-199 -264h-185v146z" />
    <glyph glyph-name="quotedblbase" unicode="&#x201e;" 
d="M230 145v265h231v-351l-198 -264h-186v146zM691 145v265h231v-351l-199 -264h-185v146z" />
    <glyph glyph-name="uni201F" unicode="&#x201f;" 
d="M77 1434h230v-265l154 -204v-146h-186l-198 264v351zM538 1434h230v-265l154 -204v-146h-186l-198 264v351z" />
    <glyph glyph-name="dagger" unicode="&#x2020;" 
d="M77 819v205h307v410h230v-410h308v-205h-308v-1229h-230v1229h-307z" />
    <glyph glyph-name="daggerdbl" unicode="&#x2021;" 
d="M77 819v205h307v410h230v-410h308v-205h-308v-614h308v-205h-308v-410h-230v410h-307v205h307v614h-307z" />
    <glyph glyph-name="bullet" unicode="&#x2022;" 
d="M230 1024h538v-614h-538v614z" />
    <glyph glyph-name="ellipsis" unicode="&#x2026;" 
d="M77 0v205h230v-205h-230zM384 0v205h230v-205h-230zM691 0v205h231v-205h-231z" />
    <glyph glyph-name="perthousand" unicode="&#x2030;" 
d="M77 1434h230v-410h-230v410zM77 410v145l659 879h186v-146l-659 -878h-186zM384 410h230v-410h-230v410zM691 410h231v-410h-231v410z" />
    <glyph glyph-name="minute" unicode="&#x2032;" 
d="M230 1169v265h231v-351l-154 -204v-265h-230v351z" />
    <glyph glyph-name="second" unicode="&#x2033;" 
d="M230 1169v265h231v-351l-154 -204v-265h-230v351zM691 1169v265h231v-351l-154 -204v-265h-230v351z" />
    <glyph glyph-name="uni2035" unicode="&#x2035;" 
d="M538 1434h230v-265l154 -204v-351h-231v265l-153 204v351z" />
    <glyph glyph-name="uni2036" unicode="&#x2036;" 
d="M77 1434h230v-265l154 -204v-351h-231v265l-153 204v351zM538 1434h230v-265l154 -204v-351h-231v265l-153 204v351z" />
    <glyph glyph-name="guilsinglleft" unicode="&#x2039;" 
d="M384 469v86l198 264h186v-145l-121 -162l121 -162v-145h-186z" />
    <glyph glyph-name="guilsinglright" unicode="&#x203a;" 
d="M230 674v145h186l198 -264v-86l-198 -264h-186v145l122 162z" />
    <glyph glyph-name="uni203B" unicode="&#x203b;" 
d="M77 1434h230v-265l192 -256l192 256v265h231v-351l-308 -409v-324l308 -409v-351h-231v265l-192 256l-192 -256v-265h-230v351l307 409v324l-307 409v351zM77 410v204h230v-204h-230zM384 1229v205h230v-205h-230zM384 -410v205h230v-205h-230zM691 410v204h231v-204
h-231z" />
    <glyph glyph-name="exclamdbl" unicode="&#x203c;" 
d="M230 1434h231v-1024h-231v1024zM230 0v205h231v-205h-231zM538 1434h230v-1024h-230v1024zM538 0v205h230v-205h-230z" />
    <glyph glyph-name="uni203D" unicode="&#x203d;" 
d="M77 1024v145l198 265h448l199 -265v-290l-199 -265h-109v-204h-230v776l-121 -162h-186zM384 0v205h230v-205h-230zM691 1083l-77 103v-324l77 103v118z" />
    <glyph glyph-name="uni203E" unicode="&#x203e;" 
d="M77 1229v205h845v-205h-845z" />
    <glyph glyph-name="uni203F" unicode="&#x203f;" 
d="M77 -145v145h186l153 -205h166l154 205h186v-145l-199 -265h-448z" />
    <glyph glyph-name="uni2040" unicode="&#x2040;" 
d="M77 1024v145l198 265h448l199 -265v-145h-186l-154 205h-166l-153 -205h-186z" />
    <glyph glyph-name="fraction" unicode="&#x2044;" 
d="M230 145v205l308 410v205l153 204v265h231v-351l-154 -204v-205l-307 -410v-205l-154 -204v-265h-230v351z" />
    <glyph glyph-name="uni2047" unicode="&#x2047;" 
d="M77 1024v145l198 265h141l83 -111l83 111h141l199 -265v-495l-199 -264h-185v145l153 205v323l-38 52l-39 -52v-204l-153 -205v-264h-231v350l154 205v118l-38 52l-83 -111h-186zM230 0v205h231v-205h-231zM538 0v205h230v-205h-230z" />
    <glyph glyph-name="uni2048" unicode="&#x2048;" 
d="M77 1024v145l198 265h141l198 -265v-290l-153 -205v-264h-231v350l154 205v118l-38 52l-83 -111h-186zM230 0v205h231v-205h-231zM691 1434h231v-1024h-231v1024zM691 0v205h231v-205h-231z" />
    <glyph glyph-name="uni2049" unicode="&#x2049;" 
d="M77 1434h230v-1024h-230v1024zM77 0v205h230v-205h-230zM384 1024v145l198 265h141l199 -265v-290l-154 -205v-264h-230v350l153 205v118l-38 52l-83 -111h-186zM538 0v205h230v-205h-230z" />
    <glyph glyph-name="uni204B" unicode="&#x204b;" 
d="M77 1434h230v-1434h-230v1434zM384 1434h339l199 -265v-290l-199 -265h-109v-614h-230v1434zM691 1083l-77 103v-324l77 103v118z" />
    <glyph glyph-name="uni204F" unicode="&#x204f;" 
d="M384 819v205h230v-205h-230zM384 410h230v-265l154 -204v-146h-186l-198 264v351z" />
    <glyph glyph-name="uni2052" unicode="&#x2052;" 
d="M77 1229v205h230v-205h-230zM77 350l614 819v265h231v-351l-615 -819v-264h-230v350zM691 0v205h231v-205h-231z" />
    <glyph glyph-name="uni2053" unicode="&#x2053;" 
d="M77 614v146l198 264h141l237 -315l83 110h186v-145l-199 -264h-141l-236 315l-83 -111h-186z" />
    <glyph glyph-name="uni2054" unicode="&#x2054;" 
d="M77 -410v146l198 264h448l199 -264v-146h-186l-154 205h-166l-153 -205h-186z" />
    <glyph glyph-name="uni2056" unicode="&#x2056;" 
d="M77 410v204h230v-204h-230zM691 819v205h231v-205h-231zM691 0v205h231v-205h-231z" />
    <glyph glyph-name="uni2058" unicode="&#x2058;" 
d="M77 410v204h230v-204h-230zM384 819v205h230v-205h-230zM384 0v205h230v-205h-230zM691 410v204h231v-204h-231z" />
    <glyph glyph-name="uni2059" unicode="&#x2059;" 
d="M77 819v205h230v-205h-230zM77 0v205h230v-205h-230zM384 410v204h230v-204h-230zM691 819v205h231v-205h-231zM691 0v205h231v-205h-231z" />
    <glyph glyph-name="uni205A" unicode="&#x205a;" 
d="M384 1229v205h230v-205h-230zM384 0v205h230v-205h-230z" />
    <glyph glyph-name="uni205B" unicode="&#x205b;" 
d="M77 410v204h230v-204h-230zM384 1229v205h230v-205h-230zM384 -410v205h230v-205h-230zM691 410v204h231v-204h-231z" />
    <glyph glyph-name="uni205C" unicode="&#x205c;" 
d="M77 819v205h230v-205h-230zM77 410v204h307v410h230v-410h308v-204h-308v-410h-230v410h-307zM77 0v205h230v-205h-230zM691 819v205h231v-205h-231zM691 0v205h231v-205h-231z" />
    <glyph glyph-name="uni205D" unicode="&#x205d;" 
d="M384 1229v205h230v-205h-230zM384 614v205h230v-205h-230zM384 0v205h230v-205h-230z" />
    <glyph glyph-name="uni205E" unicode="&#x205e;" 
d="M384 1229v205h230v-205h-230zM384 819v205h230v-205h-230zM384 410v204h230v-204h-230zM384 0v205h230v-205h-230z" />
    <glyph glyph-name="uni2070" unicode="&#x2070;" 
d="M230 1169l199 265h141l198 -265v-495l-198 -264h-141l-199 264v495zM461 1083v-323l38 -51l39 51v323l-39 52z" />
    <glyph glyph-name="uni2071" unicode="&#x2071;" 
d="M230 819v205h384v-410h154v-204h-538v204h154v205h-154zM384 1229v205h230v-205h-230z" />
    <glyph glyph-name="uni2074" unicode="&#x2074;" 
d="M230 965l199 264h109v205h230v-1024h-230v204h-308v351zM461 879v-60h77v162z" />
    <glyph glyph-name="uni2075" unicode="&#x2075;" 
d="M230 1434h538v-205h-307v-205h109l198 -264v-86l-198 -264h-340v204h199l76 103l-76 102h-199v615z" />
    <glyph glyph-name="uni2076" unicode="&#x2076;" 
d="M230 1169l199 265h185v-146l-153 -205v-59h109l198 -264v-86l-198 -264h-141l-199 264v495zM461 760l38 -51l6 8l-44 59v-16z" />
    <glyph glyph-name="uni2077" unicode="&#x2077;" 
d="M230 1229v205h538v-351l-307 -409v-264h-231v350l308 409v60h-308z" />
    <glyph glyph-name="uni2078" unicode="&#x2078;" 
d="M230 1083v86l199 265h141l198 -265v-86l-121 -161l121 -162v-86l-198 -264h-141l-199 264v86l122 162zM499 1118l6 8l-6 9l-6 -9zM499 709l6 8l-6 8l-6 -8z" />
    <glyph glyph-name="uni2079" unicode="&#x2079;" 
d="M230 1083v86l199 265h141l198 -265v-495l-198 -264h-186v145l154 205v59h-109zM493 1126l45 -59v16l-39 52z" />
    <glyph glyph-name="uni207A" unicode="&#x207a;" 
d="M230 819v205h154v205h230v-205h154v-205h-154v-205h-230v205h-154z" />
    <glyph glyph-name="uni207B" unicode="&#x207b;" 
d="M230 819v205h538v-205h-538z" />
    <glyph glyph-name="uni207C" unicode="&#x207c;" 
d="M230 1024v205h538v-205h-538zM230 614v205h538v-205h-538z" />
    <glyph glyph-name="uni207D" unicode="&#x207d;" 
d="M384 1169l198 265h186v-146l-154 -205v-323l154 -205v-145h-186l-198 264v495z" />
    <glyph glyph-name="uni207E" unicode="&#x207e;" 
d="M230 1288v146h186l198 -265v-495l-198 -264h-186v145l154 205v323z" />
    <glyph glyph-name="uni207F" unicode="&#x207f;" 
d="M230 1024h340l198 -264v-350h-230v264l-77 102v-366h-231v614z" />
    <glyph glyph-name="uni2080" unicode="&#x2080;" 
d="M230 350l199 264h141l198 -264v-495l-198 -265h-141l-199 265v495zM461 264v-323l38 -52l39 52v323l-39 51z" />
    <glyph glyph-name="uni2081" unicode="&#x2081;" 
d="M230 205v205h154v204h230v-819h154v-205h-538v205h154v410h-154z" />
    <glyph glyph-name="uni2082" unicode="&#x2082;" 
d="M230 410v204h340l198 -264v-86l-307 -409v-60h307v-205h-538v351l275 366l-76 103h-199z" />
    <glyph glyph-name="uni2083" unicode="&#x2083;" 
d="M230 410v204h340l198 -264v-86l-121 -162l121 -161v-86l-198 -265h-340v205h199l76 103l-76 102h-199v205h199l76 102l-76 103h-199z" />
    <glyph glyph-name="uni2084" unicode="&#x2084;" 
d="M230 145l199 265h109v204h230v-1024h-230v205h-308v350zM461 59v-59h77v162z" />
    <glyph glyph-name="uni2085" unicode="&#x2085;" 
d="M230 614h538v-204h-307v-205h109l198 -264v-86l-198 -265h-340v205h199l76 103l-76 102h-199v614z" />
    <glyph glyph-name="uni2086" unicode="&#x2086;" 
d="M230 350l199 264h185v-145l-153 -205v-59h109l198 -264v-86l-198 -265h-141l-199 265v495zM461 -59l38 -52l6 9l-44 59v-16z" />
    <glyph glyph-name="uni2087" unicode="&#x2087;" 
d="M230 410v204h538v-350l-307 -409v-265h-231v351l308 409v60h-308z" />
    <glyph glyph-name="uni2088" unicode="&#x2088;" 
d="M230 264v86l199 264h141l198 -264v-86l-121 -162l121 -161v-86l-198 -265h-141l-199 265v86l122 161zM499 299l6 8l-6 8l-6 -8zM499 -111l6 9l-6 8l-6 -8z" />
    <glyph glyph-name="uni2089" unicode="&#x2089;" 
d="M230 264v86l199 264h141l198 -264v-495l-198 -265h-186v146l154 205v59h-109zM493 307l45 -59v16l-39 51z" />
    <glyph glyph-name="uni208A" unicode="&#x208a;" 
d="M230 0v205h154v205h230v-205h154v-205h-154v-205h-230v205h-154z" />
    <glyph glyph-name="uni208B" unicode="&#x208b;" 
d="M230 0v205h538v-205h-538z" />
    <glyph glyph-name="uni208C" unicode="&#x208c;" 
d="M230 205v205h538v-205h-538zM230 -205v205h538v-205h-538z" />
    <glyph glyph-name="uni208D" unicode="&#x208d;" 
d="M384 350l198 264h186v-145l-154 -205v-323l154 -205v-146h-186l-198 265v495z" />
    <glyph glyph-name="uni208E" unicode="&#x208e;" 
d="M230 469v145h186l198 -264v-495l-198 -265h-186v146l154 205v323z" />
    <glyph glyph-name="uni2099" unicode="&#x2099;" 
d="M230 205h340l198 -264v-351h-230v265l-77 102v-367h-231v615z" />
    <glyph glyph-name="peseta" unicode="&#x20a7;" 
d="M77 1434h339l198 -265v-86l-198 -264h-109v-819h-230v1434zM307 1186v-119l45 59zM384 410v204h154v205h230v-205h154v-204h-154v-60l154 -205v-145h-186l-198 264v146h-154z" />
    <glyph glyph-name="uni20AA" unicode="&#x20aa;" 
d="M77 1434h339l198 -265v-350h-230v264l-77 103v-1186h-230v1434zM384 614h230v-366l77 102v1084h231v-1170l-199 -264h-339v614z" />
    <glyph glyph-name="Euro" unicode="&#x20ac;" 
d="M77 819v205h153v145l199 265h294l199 -265v-145h-186l-154 205h-12l-109 -146v-59h153v-205h-153v-205h153v-204h-153v-60l109 -145h12l154 205h186v-146l-199 -264h-294l-199 264v146h-153v204h153v205h-153z" />
    <glyph glyph-name="uni2117" unicode="&#x2117;" 
d="M77 1169l198 265h448l199 -265v-1314l-199 -265h-448l-198 265v1314zM416 1229l-109 -146v-59h263l121 -162v221l-109 146h-166zM307 0v-59l109 -146h166l109 146v426l-121 -162h-109v-205h-154zM538 674l-77 102v-323l77 102v119z" />
    <glyph glyph-name="Omega" unicode="&#x2126;" 
d="M77 1169l198 265h448l199 -265v-700l-154 -205v-59h154v-205h-384v350l153 205v528l-109 146h-166l-109 -146v-528l154 -205v-350h-384v205h153v59l-153 205v700z" />
    <glyph glyph-name="uni2127" unicode="&#x2127;" 
d="M77 1229v205h384v-351l-154 -204v-529l109 -145h166l109 145v529l-153 204v351h384v-205h-154v-60l154 -204v-701l-199 -264h-448l-198 264v701l153 204v60h-153z" />
    <glyph glyph-name="uni2129" unicode="&#x2129;" 
d="M230 879v145h186l198 -264v-555h154v-205h-384v674z" />
    <glyph glyph-name="uni2132" unicode="&#x2132;" 
d="M77 0v205h614v409h-461v205h461v615h231v-1434h-845z" />
    <glyph glyph-name="uni214B" unicode="&#x214b;" 
d="M77 1288v146h186l83 -111l83 111h294l199 -265v-290l-122 -162l122 -162v-291l-199 -264h-141l-198 264v291l121 162l-159 213l-83 -111h-186v146l121 161zM570 1229l-77 -103l160 -213l38 52v118l-109 146h-12zM614 469v-119l39 -51l38 51v119l-38 51z" />
    <glyph glyph-name="uni214E" unicode="&#x214e;" 
d="M77 0v205h614v205h-461v204h461v410h231v-1024h-845z" />
    <glyph glyph-name="uni2150" unicode="&#x2150;" 
d="M77 1434h230v-1024h-230v1024zM384 410v204h538v-350l-308 -409v-265h-230v351l307 409v60h-307z" />
    <glyph glyph-name="uni2151" unicode="&#x2151;" 
d="M77 1434h230v-1024h-230v1024zM384 264v86l198 264h141l199 -264v-495l-199 -265h-185v146l153 205v59h-109zM647 307l44 -59v16l-38 51z" />
    <glyph glyph-name="uni2152" unicode="&#x2152;" 
d="M77 410h230v-820h-230v820zM230 1434h231v-820h-231v820zM384 145l198 265h141l199 -265v-290l-199 -265h-141l-198 265v290zM614 59v-118l39 -52l38 52v118l-38 52z" />
    <glyph glyph-name="onethird" unicode="&#x2153;" 
d="M77 1434h230v-1024h-230v1024zM384 410v204h339l199 -264v-86l-122 -162l122 -161v-86l-199 -265h-339v205h198l77 103l-77 102h-198v205h198l77 102l-77 103h-198z" />
    <glyph glyph-name="twothirds" unicode="&#x2154;" 
d="M77 1288v146h186l198 -265v-290l-154 -205v-60h154v-204h-384v350l153 205v118zM538 469v145h185l199 -264v-86l-122 -162l122 -161v-86l-199 -265h-185v146l121 162l-121 161v86l121 162z" />
    <glyph glyph-name="uni2155" unicode="&#x2155;" 
d="M77 1434h230v-1024h-230v1024zM384 614h538v-204h-308v-205h109l199 -264v-86l-199 -265h-339v205h198l77 103l-77 102h-198v614z" />
    <glyph glyph-name="uni2156" unicode="&#x2156;" 
d="M77 1288v146h186l198 -265v-290l-154 -205v-60h154v-204h-384v350l153 205v118zM538 614h384v-204h-154v-205h154v-350l-199 -265h-185v146l153 205v59h-153v614z" />
    <glyph glyph-name="uni2157" unicode="&#x2157;" 
d="M77 1288v146h186l198 -265v-86l-122 -161l122 -162v-86l-198 -264h-186v145l121 162l-121 162v86l121 161zM538 614h384v-204h-154v-205h154v-350l-199 -265h-185v146l153 205v59h-153v614z" />
    <glyph glyph-name="uni2158" unicode="&#x2158;" 
d="M77 965l198 264h109v205h230v-820h308v-204h-154v-205h154v-350l-199 -265h-185v146l153 205v59h-153v410h-154v204h-307v351zM307 879v-60h77v162z" />
    <glyph glyph-name="uni2159" unicode="&#x2159;" 
d="M77 1434h230v-1024h-230v1024zM384 350l198 264h186v-145l-154 -205v-59h109l199 -264v-86l-199 -265h-141l-198 265v495zM614 -59l39 -52l6 9l-45 59v-16z" />
    <glyph glyph-name="uni215A" unicode="&#x215a;" 
d="M77 1434h384v-205h-154v-205h154v-350l-198 -264h-186v145l153 205v59h-153v615zM384 350l198 264h186v-145l-154 -205v-59h109l199 -264v-86l-199 -265h-141l-198 265v495zM614 -59l39 -52l6 9l-45 59v-16z" />
    <glyph glyph-name="oneeighth" unicode="&#x215b;" 
d="M77 1434h230v-1024h-230v1024zM384 264v86l198 264h141l199 -264v-86l-122 -162l122 -161v-86l-199 -265h-141l-198 265v86l121 161zM653 299l6 8l-6 8l-6 -8zM653 -111l6 9l-6 8l-6 -8z" />
    <glyph glyph-name="threeeighths" unicode="&#x215c;" 
d="M77 1288v146h186l198 -265v-86l-122 -161l122 -162v-86l-198 -264h-186v145l121 162l-121 162v86l121 161zM384 264v86l198 264h141l199 -264v-86l-122 -162l122 -161v-86l-199 -265h-141l-198 265v86l121 161zM653 299l6 8l-6 8l-6 -8zM653 -111l6 9l-6 8l-6 -8z" />
    <glyph glyph-name="fiveeighths" unicode="&#x215d;" 
d="M77 1434h384v-205h-154v-205h154v-350l-198 -264h-186v145l153 205v59h-153v615zM384 264v86l198 264h141l199 -264v-86l-122 -162l122 -161v-86l-199 -265h-141l-198 265v86l121 161zM653 299l6 8l-6 8l-6 -8zM653 -111l6 9l-6 8l-6 -8z" />
    <glyph glyph-name="seveneighths" unicode="&#x215e;" 
d="M77 1229v205h537v-351l-307 -409v-264h-230v350l307 409v60h-307zM384 264v86l198 264h141l199 -264v-86l-122 -162l122 -161v-86l-199 -265h-141l-198 265v86l121 161zM653 299l6 8l-6 8l-6 -8zM653 -111l6 9l-6 8l-6 -8z" />
    <glyph glyph-name="uni2189" unicode="&#x2189;" 
d="M77 1169l198 265h141l198 -265v-290l-198 -265h-141l-198 265v290zM307 1083v-118l39 -52l38 52v118l-38 52zM538 469v145h185l199 -264v-86l-122 -162l122 -161v-86l-199 -265h-185v146l121 162l-121 161v86l121 162z" />
    <glyph glyph-name="uni218A" unicode="&#x218a;" 
d="M77 1229v205h845v-351l-352 -469h-154l-109 -145v-119l109 -145h166l154 205h186v-146l-199 -264h-448l-198 264v291l198 264h154l262 350v60h-614z" />
    <glyph glyph-name="uni218B" unicode="&#x218b;" 
d="M77 1169l198 265h448l199 -265v-145h-186l-154 205h-166l-109 -146v-118l109 -146h198v-205h-153v-145l-154 -205v-59h615v-205h-845v350l153 205v119l-153 205v290z" />
    <glyph glyph-name="arrowleft" unicode="&#x2190;" 
d="M77 614v205h153v146l199 264h185v-146l-153 -204v-60h461v-205h-461v-59l153 -205v-145h-185l-199 264v145h-153z" />
    <glyph glyph-name="arrowup" unicode="&#x2191;" 
d="M77 614v146l198 264h109v205h230v-205h109l199 -264v-146h-186l-122 162v-571h-230v571l-121 -162h-186z" />
    <glyph glyph-name="arrowright" unicode="&#x2192;" 
d="M77 614v205h461v60l-154 204v146h186l198 -264v-146h154v-205h-154v-145l-198 -264h-186v145l154 205v59h-461z" />
    <glyph glyph-name="arrowdown" unicode="&#x2193;" 
d="M77 674v145h186l121 -162v572h230v-572l122 162h186v-145l-199 -264h-109v-205h-230v205h-109z" />
    <glyph glyph-name="arrowboth" unicode="&#x2194;" 
d="M77 965l198 264h186v-146l-154 -204v-60h384v60l-153 204v146h185l199 -264v-496l-199 -264h-185v145l153 205v59h-384v-59l154 -205v-145h-186l-198 264v496z" />
    <glyph glyph-name="arrowupdn" unicode="&#x2195;" 
d="M77 819v146l198 264h109v205h230v-205h109l199 -264v-146h-186l-122 162v-528l122 161h186v-145l-199 -264h-109v-205h-230v205h-109l-198 264v145h186l121 -161v528l-121 -162h-186z" />
    <glyph glyph-name="uni2196" unicode="&#x2196;" 
d="M77 1229h691v-205h-307v-59l461 -615v-145h-186l-429 571v-366h-230v819z" />
    <glyph glyph-name="uni2197" unicode="&#x2197;" 
d="M77 205v145l461 615v59h-308v205h692v-819h-231v366l-428 -571h-186z" />
    <glyph glyph-name="uni2198" unicode="&#x2198;" 
d="M77 1083v146h186l428 -572v367h231v-819h-692v205h308v59z" />
    <glyph glyph-name="uni2199" unicode="&#x2199;" 
d="M77 1024h230v-367l429 572h186v-146l-461 -614v-59h307v-205h-691v819z" />
    <glyph glyph-name="uni21A4" unicode="&#x21a4;" 
d="M77 614v205h153v146l199 264h185v-146l-153 -204v-60h230v410h231v-1024h-231v409h-230v-59l153 -205v-145h-185l-199 264v145h-153z" />
    <glyph glyph-name="uni21A5" unicode="&#x21a5;" 
d="M77 614v146l198 264h109v205h230v-205h109l199 -264v-146h-186l-122 162v-366h308v-205h-845v205h307v366l-121 -162h-186z" />
    <glyph glyph-name="uni21A6" unicode="&#x21a6;" 
d="M77 1229h230v-410h231v60l-154 204v146h186l198 -264v-146h154v-205h-154v-145l-198 -264h-186v145l154 205v59h-231v-409h-230v1024z" />
    <glyph glyph-name="uni21A7" unicode="&#x21a7;" 
d="M77 1024v205h845v-205h-308v-367l122 162h186v-145l-199 -264h-109v-205h-230v205h-109l-198 264v145h186l121 -162v367h-307z" />
    <glyph glyph-name="arrowupdnbse" unicode="&#x21a8;" 
d="M77 819v146l198 264h109v205h230v-205h109l199 -264v-146h-186l-122 162v-528l122 161h186v-145l-154 -205v-59h154v-205h-845v205h153v59l-153 205v145h186l121 -161v528l-121 -162h-186z" />
    <glyph glyph-name="uni21B4" unicode="&#x21b4;" 
d="M77 1024v205h537v-572l122 162h186v-145l-199 -264h-109v-205h-230v205h-109l-198 264v145h186l121 -162v367h-307z" />
    <glyph glyph-name="carriagereturn" unicode="&#x21b5;" 
d="M77 614v205h153v146l199 264h185v-146l-153 -204v-60h230v615h231v-820h-461v-59l153 -205v-145h-185l-199 264v145h-153z" />
    <glyph glyph-name="uni21B9" unicode="&#x21b9;" 
d="M77 1434h230v-162l122 162h185v-146l-153 -205v-59h461v-205h-461v-59l230 -307v161h231v-1024h-231v162l-121 -162h-186v146l154 205v59h-461v205h461v59l-231 307v-161h-230v1024z" />
    <glyph glyph-name="uni21BC" unicode="&#x21bc;" 
d="M77 614v205h153v146l199 264h185v-146l-153 -204v-60h461v-205h-845z" />
    <glyph glyph-name="uni21BD" unicode="&#x21bd;" 
d="M77 614v205h845v-205h-461v-59l153 -205v-145h-185l-199 264v145h-153z" />
    <glyph glyph-name="uni21BE" unicode="&#x21be;" 
d="M384 1229h230v-205h109l199 -264v-146h-186l-122 162v-571h-230v1024z" />
    <glyph glyph-name="uni21BF" unicode="&#x21bf;" 
d="M77 614v146l198 264h109v205h230v-1024h-230v571l-121 -162h-186z" />
    <glyph glyph-name="uni21C0" unicode="&#x21c0;" 
d="M77 614v205h461v60l-154 204v146h186l198 -264v-146h154v-205h-845z" />
    <glyph glyph-name="uni21C1" unicode="&#x21c1;" 
d="M77 614v205h845v-205h-154v-145l-198 -264h-186v145l154 205v59h-461z" />
    <glyph glyph-name="uni21C2" unicode="&#x21c2;" 
d="M384 1229h230v-572l122 162h186v-145l-199 -264h-109v-205h-230v1024z" />
    <glyph glyph-name="uni21C3" unicode="&#x21c3;" 
d="M77 674v145h186l121 -162v572h230v-1024h-230v205h-109z" />
    <glyph glyph-name="uni21CB" unicode="&#x21cb;" 
d="M77 819v205h153v145l199 265h185v-146l-153 -205v-59h461v-205h-845zM77 410v204h845v-204h-154v-146l-198 -264h-186v145l154 205v60h-461z" />
    <glyph glyph-name="uni21CC" unicode="&#x21cc;" 
d="M77 819v205h461v59l-154 205v146h186l198 -265v-145h154v-205h-845zM77 410v204h845v-204h-461v-60l153 -205v-145h-185l-199 264v146h-153z" />
    <glyph glyph-name="arrowdblleft" unicode="&#x21d0;" 
d="M77 674v86l352 469h339v-205h154v-205h-384v162l-199 -264l199 -264v161h384v-204h-154v-205h-339z" />
    <glyph glyph-name="arrowdblup" unicode="&#x21d1;" 
d="M77 965l352 469h141l352 -469v-351h-154v-614h-230v819h153v60l-192 256l-192 -256v-60h154v-819h-231v614h-153v351z" />
    <glyph glyph-name="arrowdblright" unicode="&#x21d2;" 
d="M77 819v205h153v205h340l352 -469v-86l-352 -469h-340v205h-153v204h384v-161l198 264l-198 264v-162h-384z" />
    <glyph glyph-name="arrowdbldown" unicode="&#x21d3;" 
d="M77 819h153v615h231v-820h-154v-59l192 -256l192 256v59h-153v820h230v-615h154v-350l-352 -469h-141l-352 469v350z" />
    <glyph glyph-name="uni21E4" unicode="&#x21e4;" 
d="M77 1229h230v-162l122 162h185v-146l-153 -204v-60h461v-205h-461v-59l153 -205v-145h-185l-122 162v-162h-230v1024z" />
    <glyph glyph-name="uni21E5" unicode="&#x21e5;" 
d="M77 614v205h461v60l-154 204v146h186l121 -162v162h231v-1024h-231v162l-121 -162h-186v145l154 205v59h-461z" />
    <glyph glyph-name="uni21E6" unicode="&#x21e6;" 
d="M77 674v86l352 469h339v-205h154v-614h-154v-205h-339zM339 717l199 -264v161h153v205h-153v162z" />
    <glyph glyph-name="uni21E7" unicode="&#x21e7;" 
d="M77 965l352 469h141l352 -469v-351h-154v-614h-538v614h-153v351zM307 879v-60h154v-614h77v614h153v60l-192 256z" />
    <glyph glyph-name="uni21E8" unicode="&#x21e8;" 
d="M77 1024h153v205h340l352 -469v-86l-352 -469h-340v205h-153v614zM307 819v-205h154v-161l198 264l-198 264v-162h-154z" />
    <glyph glyph-name="uni21E9" unicode="&#x21e9;" 
d="M77 819h153v615h538v-615h154v-350l-352 -469h-141l-352 469v350zM307 614v-59l192 -256l192 256v59h-153v615h-77v-615h-154z" />
    <glyph glyph-name="uni21EA" unicode="&#x21ea;" 
d="M77 965l352 469h141l352 -469v-351h-154v-614h-538v614h-153v351zM307 879v-60h154v-205h77v205h153v60l-192 256zM461 410v-205h77v205h-77z" />
    <glyph glyph-name="partialdiff" unicode="&#x2202;" 
d="M77 1024v145l198 265h448l199 -265v-905l-199 -264h-448l-198 264v291l198 264h416v264l-109 146h-166l-153 -205h-186zM416 614l-109 -145v-119l109 -145h166l109 145v264h-275z" />
    <glyph glyph-name="Delta" unicode="&#x2206;" 
d="M230 760v205l154 204v265h230v-265l154 -204v-205l154 -205v-555h-845v555zM461 674l-154 -205v-264h384v264l-153 205v205l-39 51l-38 -51v-205z" />
    <glyph glyph-name="gradient" unicode="&#x2207;" 
d="M77 1434h845v-555l-154 -205v-205l-154 -205v-264h-230v264l-154 205v205l-153 205v555zM307 1229v-264l154 -205v-205l38 -51l39 51v205l153 205v264h-384z" />
    <glyph glyph-name="element" unicode="&#x2208;" 
d="M77 1169l198 265h647v-205h-506l-109 -146v-264h615v-205h-615v-264l109 -145h506v-205h-647l-198 264v905z" />
    <glyph glyph-name="uni220A" unicode="&#x220a;" 
d="M77 965l198 264h647v-205h-506l-109 -145v-60h615v-205h-615v-59l109 -145h506v-205h-647l-198 264v496z" />
    <glyph glyph-name="suchthat" unicode="&#x220b;" 
d="M77 1229v205h646l199 -265v-905l-199 -264h-646v205h505l109 145v264h-614v205h614v264l-109 146h-505z" />
    <glyph glyph-name="uni220D" unicode="&#x220d;" 
d="M77 1024v205h646l199 -264v-496l-199 -264h-646v205h505l109 145v59h-614v205h614v60l-109 145h-505z" />
    <glyph glyph-name="product" unicode="&#x220f;" 
d="M77 1434h845v-1844h-231v1639h-384v-1639h-230v1844z" />
    <glyph glyph-name="uni2210" unicode="&#x2210;" 
d="M77 1434h230v-1639h384v1639h231v-1844h-845v1844z" />
    <glyph glyph-name="summation" unicode="&#x2211;" 
d="M77 1434h845v-205h-615v-60l461 -614v-86l-461 -614v-60h615v-205h-845v351l428 571l-428 571v351z" />
    <glyph glyph-name="minus" unicode="&#x2212;" 
d="M77 614v205h845v-205h-845z" />
    <glyph glyph-name="uni2213" unicode="&#x2213;" 
d="M77 1229v205h845v-205h-845zM77 410v204h307v410h230v-410h308v-204h-308v-410h-230v410h-307z" />
    <glyph glyph-name="uni2214" unicode="&#x2214;" 
d="M77 410v204h307v410h230v-410h308v-204h-308v-410h-230v410h-307zM384 1229v205h230v-205h-230z" />
    <glyph glyph-name="uni2218" unicode="&#x2218;" 
d="M230 760l199 264h141l198 -264v-291l-198 -264h-141l-199 264v291zM461 674v-119l38 -51l39 51v119l-39 51z" />
    <glyph glyph-name="uni2219" unicode="&#x2219;" 
d="M230 614v205h154v205h230v-205h154v-205h-154v-204h-230v204h-154z" />
    <glyph glyph-name="radical" unicode="&#x221a;" 
d="M77 469v145h186l121 -161v981h538v-205h-308v-1229h-230v205h-109z" />
    <glyph glyph-name="uni221B" unicode="&#x221b;" 
d="M77 1288v146h186l198 -265v-86l-122 -161l122 -162v-86l-198 -264h-186v145l121 162l-121 162v86l121 161zM384 205v205h154v1024h384v-205h-154v-1229h-230v205h-154z" />
    <glyph glyph-name="uni221C" unicode="&#x221c;" 
d="M77 1169l198 265h339v-820h-230v205h-307v350zM307 1083v-59h77v162zM538 205v205h153v1024h231v-1434h-231v205h-153z" />
    <glyph glyph-name="proportional" unicode="&#x221d;" 
d="M77 965l198 264h141l83 -111l83 111h141l199 -264v-146h-186l-83 111l-39 -51v-324l39 -51l83 110h186v-145l-199 -264h-141l-83 110l-83 -110h-141l-198 264v496zM307 879v-324l39 -51l38 51v324l-38 51z" />
    <glyph glyph-name="infinity" unicode="&#x221e;" 
d="M77 965l198 264h141l83 -111l83 111h141l199 -264v-496l-199 -264h-141l-83 110l-83 -110h-141l-198 264v496zM307 879v-324l39 -51l38 51v324l-38 51zM614 879v-324l39 -51l38 51v324l-38 51z" />
    <glyph glyph-name="orthogonal" unicode="&#x221f;" 
d="M77 1229h230v-819h615v-205h-845v1024z" />
    <glyph glyph-name="uni2223" unicode="&#x2223;" 
d="M384 1434h230v-1434h-230v1434z" />
    <glyph glyph-name="uni2225" unicode="&#x2225;" 
d="M230 1434h231v-1434h-231v1434zM538 1434h230v-1434h-230v1434z" />
    <glyph glyph-name="logicaland" unicode="&#x2227;" 
d="M77 410v145l352 469h141l352 -469v-145h-186l-237 315l-236 -315h-186z" />
    <glyph glyph-name="logicalor" unicode="&#x2228;" 
d="M77 879v145h186l236 -315l237 315h186v-145l-352 -469h-141z" />
    <glyph glyph-name="intersection" unicode="&#x2229;" 
d="M77 965l198 264h448l199 -264v-760h-231v674l-109 145h-166l-109 -145v-674h-230v760z" />
    <glyph glyph-name="union" unicode="&#x222a;" 
d="M77 1229h230v-674l109 -145h166l109 145v674h231v-760l-199 -264h-448l-198 264v760z" />
    <glyph glyph-name="integral" unicode="&#x222b;" 
d="M77 -145v145h186l83 -111l38 52v1228l198 265h141l199 -265v-145h-186l-83 111l-39 -52v-1228l-198 -265h-141z" />
    <glyph glyph-name="uni222E" unicode="&#x222e;" 
d="M77 469v86l198 264h109v350l198 265h141l199 -265v-145h-186l-83 111l-39 -52v-264h109l199 -264v-86l-199 -264h-109v-350l-198 -265h-141l-198 265v145h186l83 -111l38 52v264h-109zM339 512l45 -59v118zM614 571v-118l45 59z" />
    <glyph glyph-name="therefore" unicode="&#x2234;" 
d="M77 205v205h230v-205h-230zM384 1024v205h230v-205h-230zM691 205v205h231v-205h-231z" />
    <glyph glyph-name="uni2235" unicode="&#x2235;" 
d="M77 1024v205h230v-205h-230zM384 205v205h230v-205h-230zM691 1024v205h231v-205h-231z" />
    <glyph glyph-name="uni2238" unicode="&#x2238;" 
d="M77 614v205h845v-205h-845zM384 1024v205h230v-205h-230z" />
    <glyph glyph-name="uni223A" unicode="&#x223a;" 
d="M77 1024v205h230v-205h-230zM77 614v205h845v-205h-845zM77 205v205h230v-205h-230zM691 1024v205h231v-205h-231zM691 205v205h231v-205h-231z" />
    <glyph glyph-name="similar" unicode="&#x223c;" 
d="M77 614v146l198 264h141l237 -315l83 110h186v-145l-199 -264h-141l-236 315l-83 -111h-186z" />
    <glyph glyph-name="uni223D" unicode="&#x223d;" 
d="M77 674v145h186l83 -110l236 315h141l199 -264v-146h-186l-83 111l-237 -315h-141z" />
    <glyph glyph-name="uni223F" unicode="&#x223f;" 
d="M77 965l198 264h141l198 -264v-410l39 -51l38 51v264h231v-350l-199 -264h-141l-198 264v410l-38 51l-39 -51v-265h-230v351z" />
    <glyph glyph-name="uni2242" unicode="&#x2242;" 
d="M77 1024v205h845v-205h-845zM77 410v145l198 264h141l237 -315l83 110h186v-145l-199 -264h-141l-236 315l-83 -110h-186z" />
    <glyph glyph-name="uni2243" unicode="&#x2243;" 
d="M77 819v146l198 264h141l237 -316l83 111h186v-145l-199 -265h-141l-236 316l-83 -111h-186zM77 205v205h845v-205h-845z" />
    <glyph glyph-name="congruent" unicode="&#x2245;" 
d="M77 1024v145l198 265h141l237 -316l83 111h186v-146l-199 -264h-141l-236 316l-83 -111h-186zM77 410v204h845v-204h-845zM77 0v205h845v-205h-845z" />
    <glyph glyph-name="approxequal" unicode="&#x2248;" 
d="M77 819v146l198 264h141l237 -316l83 111h186v-145l-199 -265h-141l-236 316l-83 -111h-186zM77 205v145l198 264h141l237 -315l83 111h186v-146l-199 -264h-141l-236 315l-83 -110h-186z" />
    <glyph glyph-name="uni224C" unicode="&#x224c;" 
d="M77 1083v146h186l83 -111l236 316h141l199 -265v-145h-186l-83 111l-237 -316h-141zM77 410v204h845v-204h-845zM77 0v205h845v-205h-845z" />
    <glyph glyph-name="uni224D" unicode="&#x224d;" 
d="M77 1083v146h186l153 -205h166l154 205h186v-146l-199 -264h-448zM77 205v145l198 264h448l199 -264v-145h-186l-154 205h-166l-153 -205h-186z" />
    <glyph glyph-name="uni224E" unicode="&#x224e;" 
d="M77 819v205h198l154 205h141l153 -205h199v-205h-340l-83 111l-83 -111h-339zM77 410v204h339l83 -110l83 110h340v-204h-199l-153 -205h-141l-154 205h-198z" />
    <glyph glyph-name="uni224F" unicode="&#x224f;" 
d="M77 819v205h198l154 205h141l153 -205h199v-205h-340l-83 111l-83 -111h-339zM77 410v204h845v-204h-845z" />
    <glyph glyph-name="uni2250" unicode="&#x2250;" 
d="M77 819v205h845v-205h-845zM77 410v204h845v-204h-845zM384 1229v205h230v-205h-230z" />
    <glyph glyph-name="uni2251" unicode="&#x2251;" 
d="M77 819v205h845v-205h-845zM77 410v204h845v-204h-845zM384 1229v205h230v-205h-230zM384 0v205h230v-205h-230z" />
    <glyph glyph-name="uni2252" unicode="&#x2252;" 
d="M77 1229v205h230v-205h-230zM77 819v205h845v-205h-845zM77 410v204h845v-204h-845zM691 0v205h231v-205h-231z" />
    <glyph glyph-name="uni2253" unicode="&#x2253;" 
d="M77 819v205h845v-205h-845zM77 410v204h845v-204h-845zM77 0v205h230v-205h-230zM691 1229v205h231v-205h-231z" />
    <glyph glyph-name="uni2258" unicode="&#x2258;" 
d="M77 1024v145l198 265h448l199 -265v-145h-186l-154 205h-166l-153 -205h-186zM77 614v205h845v-205h-845zM77 205v205h845v-205h-845z" />
    <glyph glyph-name="uni225E" unicode="&#x225e;" 
d="M77 1434h339l83 -111l83 111h141l199 -265v-350h-231v264l-38 52l-39 -52v-264h-230v264l-77 103v-367h-230v615zM77 410v204h845v-204h-845zM77 0v205h845v-205h-845z" />
    <glyph glyph-name="notequal" unicode="&#x2260;" 
d="M77 819v205h461v205h230v-205h154v-205h-308v-205h308v-204h-461v-205h-231v205h-153v204h307v205h-307z" />
    <glyph glyph-name="equivalence" unicode="&#x2261;" 
d="M77 1024v205h845v-205h-845zM77 614v205h845v-205h-845zM77 205v205h845v-205h-845z" />
    <glyph glyph-name="uni2262" unicode="&#x2262;" 
d="M77 1024v205h461v205h230v-205h154v-205h-308v-205h308v-205h-308v-204h308v-205h-461v-205h-231v205h-153v205h307v204h-307v205h307v205h-307z" />
    <glyph glyph-name="lessequal" unicode="&#x2264;" 
d="M77 879v86l198 264h154l153 205h340v-205h-199l-153 -205h-154l-77 -102l77 -103h154l153 -205h199v-204h-340l-153 204h-154zM77 205v205h339l154 -205h352v-205h-493l-154 205h-198z" />
    <glyph glyph-name="greaterequal" unicode="&#x2265;" 
d="M77 1229v205h339l154 -205h153l199 -264v-86l-199 -265h-153l-154 -204h-339v204h198l154 205h153l77 103l-77 102h-153l-154 205h-198zM77 0v205h352l153 205h340v-205h-199l-153 -205h-493z" />
    <glyph glyph-name="uni226C" unicode="&#x226c;" 
d="M230 1288v146h186l83 -111l83 111h186v-146l-121 -162l121 -161v-496l-121 -162l121 -162v-145h-186l-83 111l-83 -111h-186v145l122 162l-122 162v496l122 161zM461 879v-324l38 -51l39 51v324l-39 51z" />
    <glyph glyph-name="propersubset" unicode="&#x2282;" 
d="M77 965l198 264h647v-205h-506l-109 -145v-324l109 -145h506v-205h-647l-198 264v496z" />
    <glyph glyph-name="propersuperset" unicode="&#x2283;" 
d="M77 1024v205h646l199 -264v-496l-199 -264h-646v205h505l109 145v324l-109 145h-505z" />
    <glyph glyph-name="reflexsubset" unicode="&#x2286;" 
d="M77 1169l198 265h647v-205h-506l-109 -146v-323l109 -146h506v-204h-647l-198 264v495zM77 0v205h845v-205h-845z" />
    <glyph glyph-name="reflexsuperset" unicode="&#x2287;" 
d="M77 1229v205h646l199 -265v-495l-199 -264h-646v204h505l109 146v323l-109 146h-505zM77 0v205h845v-205h-845z" />
    <glyph glyph-name="uni228D" unicode="&#x228d;" 
d="M77 1229h230v-674l109 -145h166l109 145v674h231v-760l-199 -264h-448l-198 264v760zM384 614v205h230v-205h-230z" />
    <glyph glyph-name="uni228F" unicode="&#x228f;" 
d="M77 1229h845v-205h-615v-614h615v-205h-845v1024z" />
    <glyph glyph-name="uni2290" unicode="&#x2290;" 
d="M77 1024v205h845v-1024h-845v205h614v614h-614z" />
    <glyph glyph-name="uni2291" unicode="&#x2291;" 
d="M77 1434h845v-205h-615v-615h615v-204h-845v1024zM77 0v205h845v-205h-845z" />
    <glyph glyph-name="uni2292" unicode="&#x2292;" 
d="M77 1229v205h845v-1024h-845v204h614v615h-614zM77 0v205h845v-205h-845z" />
    <glyph glyph-name="uni2293" unicode="&#x2293;" 
d="M77 1229h845v-1024h-231v819h-384v-819h-230v1024z" />
    <glyph glyph-name="uni2294" unicode="&#x2294;" 
d="M77 1229h230v-819h384v819h231v-1024h-845v1024z" />
    <glyph glyph-name="circleplus" unicode="&#x2295;" 
d="M77 965l198 264h448l199 -264v-496l-199 -264h-448l-198 264v496zM307 879v-60h77v162zM307 614v-59l77 -102v161h-77zM614 819h77v60l-77 102v-162zM614 614v-161l77 102v59h-77z" />
    <glyph glyph-name="uni2296" unicode="&#x2296;" 
d="M77 965l198 264h448l199 -264v-496l-199 -264h-448l-198 264v496zM416 1024l-109 -145v-60h384v60l-109 145h-166zM307 614v-59l109 -145h166l109 145v59h-384z" />
    <glyph glyph-name="uni2299" unicode="&#x2299;" 
d="M77 965l198 264h448l199 -264v-496l-199 -264h-448l-198 264v496zM416 1024l-109 -145v-324l109 -145h166l109 145v324l-109 145h-166zM384 614v205h230v-205h-230z" />
    <glyph glyph-name="uni229E" unicode="&#x229e;" 
d="M77 1229h845v-1024h-845v1024zM307 1024v-205h77v205h-77zM307 614v-204h77v204h-77zM614 1024v-205h77v205h-77zM614 614v-204h77v204h-77z" />
    <glyph glyph-name="uni229F" unicode="&#x229f;" 
d="M77 1229h845v-1024h-845v1024zM307 1024v-205h384v205h-384zM307 614v-204h384v204h-384z" />
    <glyph glyph-name="uni22A1" unicode="&#x22a1;" 
d="M77 1229h845v-1024h-845v1024zM307 1024v-614h384v614h-384zM384 614v205h230v-205h-230z" />
    <glyph glyph-name="uni22A2" unicode="&#x22a2;" 
d="M77 1229h230v-410h615v-205h-615v-409h-230v1024z" />
    <glyph glyph-name="uni22A3" unicode="&#x22a3;" 
d="M77 614v205h614v410h231v-1024h-231v409h-614z" />
    <glyph glyph-name="uni22A4" unicode="&#x22a4;" 
d="M77 1024v205h845v-205h-308v-819h-230v819h-307z" />
    <glyph glyph-name="perpendicular" unicode="&#x22a5;" 
d="M77 205v205h307v819h230v-819h308v-205h-845z" />
    <glyph glyph-name="uni22A6" unicode="&#x22a6;" 
d="M230 1229h231v-410h307v-205h-307v-409h-231v1024z" />
    <glyph glyph-name="uni22A7" unicode="&#x22a7;" 
d="M230 1229h231v-205h307v-205h-307v-205h307v-204h-307v-205h-231v1024z" />
    <glyph glyph-name="uni22A8" unicode="&#x22a8;" 
d="M77 1229h230v-205h615v-205h-615v-205h615v-204h-615v-205h-230v1024z" />
    <glyph glyph-name="uni22A9" unicode="&#x22a9;" 
d="M77 1229h230v-1024h-230v1024zM384 1229h230v-410h308v-205h-308v-409h-230v1024z" />
    <glyph glyph-name="uni22AB" unicode="&#x22ab;" 
d="M77 1229h230v-1024h-230v1024zM384 1229h230v-205h308v-205h-308v-205h308v-204h-308v-205h-230v1024z" />
    <glyph glyph-name="uni22C2" unicode="&#x22c2;" 
d="M77 1169l198 265h448l199 -265v-1579h-231v1493l-109 146h-166l-109 -146v-1493h-230v1579z" />
    <glyph glyph-name="uni22C3" unicode="&#x22c3;" 
d="M77 1434h230v-1493l109 -146h166l109 146v1493h231v-1579l-199 -265h-448l-198 265v1579z" />
    <glyph glyph-name="uni22C4" unicode="&#x22c4;" 
d="M77 674v86l352 469h141l352 -469v-86l-352 -469h-141zM339 717l160 -213l160 213l-160 213z" />
    <glyph glyph-name="uni22CB" unicode="&#x22cb;" 
d="M77 1083v146h186l659 -879v-145h-186l-237 315l-236 -315h-186v145l275 367z" />
    <glyph glyph-name="uni22CC" unicode="&#x22cc;" 
d="M77 205v145l659 879h186v-146l-275 -366l275 -367v-145h-186l-237 315l-236 -315h-186z" />
    <glyph glyph-name="uni22CD" unicode="&#x22cd;" 
d="M77 879v145h186l83 -111l236 316h141l199 -264v-146h-186l-83 111l-237 -316h-141zM77 205v205h845v-205h-845z" />
    <glyph glyph-name="uni22D4" unicode="&#x22d4;" 
d="M77 760l198 264h109v410h230v-410h109l199 -264v-760h-231v674l-77 102v-776h-230v776l-77 -102v-674h-230v760z" />
    <glyph glyph-name="uni22DC" unicode="&#x22dc;" 
d="M77 1024v205h198l154 205h493v-205h-352l-154 -205h-339zM77 469v86l198 264h154l153 205h340v-205h-199l-153 -205h-154l-77 -102l77 -102h154l153 -205h199v-205h-340l-153 205h-154z" />
    <glyph glyph-name="uni22DD" unicode="&#x22dd;" 
d="M77 1229v205h493l153 -205h199v-205h-340l-153 205h-352zM77 819v205h339l154 -205h153l199 -264v-86l-199 -264h-153l-154 -205h-339v205h198l154 205h153l77 102l-77 102h-153l-154 205h-198z" />
    <glyph glyph-name="uni22EE" unicode="&#x22ee;" 
d="M384 1024v205h230v-205h-230zM384 614v205h230v-205h-230zM384 205v205h230v-205h-230z" />
    <glyph glyph-name="uni22EF" unicode="&#x22ef;" 
d="M77 614v205h230v-205h-230zM384 614v205h230v-205h-230zM691 614v205h231v-205h-231z" />
    <glyph glyph-name="uni22F0" unicode="&#x22f0;" 
d="M77 205v205h230v-205h-230zM384 614v205h230v-205h-230zM691 1024v205h231v-205h-231z" />
    <glyph glyph-name="uni22F1" unicode="&#x22f1;" 
d="M77 1024v205h230v-205h-230zM384 614v205h230v-205h-230zM691 205v205h231v-205h-231z" />
    <glyph glyph-name="uni22F7" unicode="&#x22f7;" 
d="M77 1229v205h845v-205h-845zM77 760l198 264h647v-205h-506l-109 -145v-60h615v-204h-615v-60l109 -145h506v-205h-647l-198 264v496z" />
    <glyph glyph-name="uni22F8" unicode="&#x22f8;" 
d="M77 1169l198 265h647v-205h-506l-109 -146v-264h615v-205h-615v-264l109 -145h506v-205h-647l-198 264v905zM77 -410v205h845v-205h-845z" />
    <glyph glyph-name="uni22FE" unicode="&#x22fe;" 
d="M77 1229v205h845v-205h-845zM77 819v205h646l199 -264v-496l-199 -264h-646v205h505l109 145v60h-614v204h614v60l-109 145h-505z" />
    <glyph glyph-name="house" unicode="&#x2302;" 
d="M77 965l352 469h141l352 -469v-965h-845v965zM307 879v-674h384v674l-192 256z" />
    <glyph glyph-name="uni2308" unicode="&#x2308;" 
d="M230 1434h538v-205h-307v-1229h-231v1434z" />
    <glyph glyph-name="uni2309" unicode="&#x2309;" 
d="M230 1229v205h538v-1434h-230v1229h-308z" />
    <glyph glyph-name="uni230A" unicode="&#x230a;" 
d="M230 1434h231v-1229h307v-205h-538v1434z" />
    <glyph glyph-name="uni230B" unicode="&#x230b;" 
d="M230 0v205h308v1229h230v-1434h-538z" />
    <glyph glyph-name="revlogicalnot" unicode="&#x2310;" 
d="M77 1024h845v-205h-615v-409h-230v614z" />
    <glyph glyph-name="integraltp" unicode="&#x2320;" 
d="M384 760l198 264h141l199 -264v-146h-186l-83 111l-39 -51v-1084h-230v1170z" />
    <glyph glyph-name="integralbt" unicode="&#x2321;" 
d="M77 264v146h186l83 -111l38 51v1084h230v-1170l-198 -264h-141z" />
    <glyph glyph-name="uni2336" unicode="&#x2336;" 
d="M77 1024v205h845v-205h-308v-614h308v-205h-845v205h307v614h-307z" />
    <glyph glyph-name="uni2337" unicode="&#x2337;" 
d="M230 1434h538v-1434h-538v1434zM461 1229v-1024h77v1024h-77z" />
    <glyph glyph-name="uni2338" unicode="&#x2338;" 
d="M77 1434h845v-1434h-845v1434zM307 1229v-205h384v205h-384zM307 819v-205h384v205h-384zM307 410v-205h384v205h-384z" />
    <glyph glyph-name="uni2339" unicode="&#x2339;" 
d="M77 1434h845v-1434h-845v1434zM307 1229v-410h384v410h-77v-205h-230v205h-77zM307 614v-409h77v205h230v-205h77v409h-384z" />
    <glyph glyph-name="uni233A" unicode="&#x233a;" 
d="M77 1434h845v-1434h-845v1434zM307 1229v-162l77 102v60h-77zM307 819v-205h109l83 -110l83 110h109v205h-109l-83 111l-83 -111h-109zM384 264l-77 103v-162h77v59zM614 1229v-60l77 -102v162h-77zM614 205h77v162l-77 -103v-59z" />
    <glyph glyph-name="uni233B" unicode="&#x233b;" 
d="M77 1434h845v-1434h-845v1434zM307 1229v-367l122 162h141l121 -162v367h-384zM307 571v-366h384v366l-121 -161h-141zM499 709l6 8l-6 8l-6 -8z" />
    <glyph glyph-name="uni233D" unicode="&#x233d;" 
d="M77 965l198 264h109v205h230v-205h109l199 -264v-496l-199 -264h-109v-205h-230v205h-109l-198 264v496zM307 879v-324l77 -102v528zM691 879l-77 102v-528l77 102v324z" />
    <glyph glyph-name="uni233F" unicode="&#x233f;" 
d="M77 205v145l275 367l-122 162v145h186l83 -111l237 316h186v-146l-275 -366l121 -162v-145h-186l-83 110l-236 -315h-186z" />
    <glyph glyph-name="uni2340" unicode="&#x2340;" 
d="M77 1083v146h186l236 -316l83 111h186v-145l-121 -162l275 -367v-145h-186l-237 315l-83 -110h-186v145l122 162z" />
    <glyph glyph-name="uni2341" unicode="&#x2341;" 
d="M77 1434h845v-1434h-845v1434zM307 1229v-572l275 367h109v205h-384zM307 410v-205h384v571l-275 -366h-109z" />
    <glyph glyph-name="uni2342" unicode="&#x2342;" 
d="M77 1434h845v-1434h-845v1434zM307 1229v-205h109l275 -367v572h-384zM307 776v-571h384v205h-109z" />
    <glyph glyph-name="uni2349" unicode="&#x2349;" 
d="M77 1083v146h186l83 -111l83 111h294l199 -264v-291l-122 -162l122 -162v-145h-186l-83 110l-83 -110h-295l-198 264v291l121 162zM307 674v-119l109 -145h13l76 102l-159 213zM570 1024l-77 -102l160 -213l38 51v119l-109 145h-12z" />
    <glyph glyph-name="uni234A" unicode="&#x234a;" 
d="M77 410v204h307v820h230v-820h308v-204h-845zM77 0v205h845v-205h-845z" />
    <glyph glyph-name="uni234B" unicode="&#x234b;" 
d="M230 760v205l154 204v265h230v-265l154 -204v-205l154 -205v-555h-308v-410h-230v410h-307v555zM307 469v-264h77v264l-38 51zM461 879v-119l38 -51l39 51v119l-39 51zM614 205h77v264l-38 51l-39 -51v-264z" />
    <glyph glyph-name="uni234E" unicode="&#x234e;" 
d="M77 965l198 264h109v205h230v-205h109l199 -264v-291l-199 -264h-109v-205h308v-205h-845v205h307v205h-109l-198 264v291zM307 879v-119l77 -103v324zM691 879l-77 102v-324l77 103v119z" />
    <glyph glyph-name="uni2351" unicode="&#x2351;" 
d="M77 1229v205h845v-205h-845zM77 819v205h845v-205h-308v-819h-230v819h-307z" />
    <glyph glyph-name="uni2352" unicode="&#x2352;" 
d="M77 1024h307v410h230v-410h308v-555l-154 -205v-205l-154 -204v-265h-230v265l-154 204v205l-153 205v555zM307 819v-264l39 -51l38 51v264h-77zM614 819v-264l39 -51l38 51v264h-77zM461 264v-119l38 -51l39 51v119l-39 51z" />
    <glyph glyph-name="uni2355" unicode="&#x2355;" 
d="M77 1229v205h845v-205h-308v-205h109l199 -264v-291l-199 -264h-109v-205h-230v205h-109l-198 264v291l198 264h109v205h-307zM307 674v-119l77 -102v323zM691 674l-77 102v-323l77 102v119z" />
    <glyph glyph-name="uni2359" unicode="&#x2359;" 
d="M230 760v205l154 204v265h230v-265l154 -204v-205l154 -205v-555h-845v555zM77 -410v205h845v-205h-845zM461 674l-154 -205v-264h384v264l-153 205v205l-39 51l-38 -51v-205z" />
    <glyph glyph-name="uni235D" unicode="&#x235d;" 
d="M77 965l198 264h448l199 -264v-760h-231v366l-121 -161h-141l-122 161v-366h-230v760zM307 879v-17l77 103v16zM499 709l6 8l-6 8l-6 -8zM614 965l77 -103v17l-77 102v-16z" />
    <glyph glyph-name="uni235E" unicode="&#x235e;" 
d="M77 1434h845v-1434h-845v1434zM307 1229v-1024h384v1024h-77v-410h-230v410h-77z" />
    <glyph glyph-name="uni235F" unicode="&#x235f;" 
d="M77 1169l198 265h448l199 -265v-905l-199 -264h-448l-198 264v905zM307 1083v-59h77v162zM307 819v-162l77 103v59h-77zM307 410v-60l109 -145h166l109 145v60h-109l-83 110l-83 -110h-109zM614 1024h77v59l-77 103v-162zM614 819v-59l77 -103v162h-77z" />
    <glyph glyph-name="uni2360" unicode="&#x2360;" 
d="M77 1434h845v-1434h-845v1434zM307 1229v-1024h384v1024h-384zM384 819v205h230v-205h-230zM384 410v204h230v-204h-230z" />
    <glyph glyph-name="uni2363" unicode="&#x2363;" 
d="M77 879v145h186l121 -162v162h230v-162l122 162h186v-145l-199 -265h-109v-204h109l199 -265v-145h-186l-122 162v-162h-230v162l-121 -162h-186v145l198 265h109v204h-109zM230 1229v205h231v-205h-231zM538 1229v205h230v-205h-230z" />
    <glyph glyph-name="uni2364" unicode="&#x2364;" 
d="M230 1229v205h231v-205h-231zM230 760l199 264h141l198 -264v-291l-198 -264h-141l-199 264v291zM461 674v-119l38 -51l39 51v119l-39 51zM538 1229v205h230v-205h-230z" />
    <glyph glyph-name="uni2368" unicode="&#x2368;" 
d="M77 614v146l198 264h141l237 -315l83 110h186v-145l-199 -264h-141l-236 315l-83 -111h-186zM230 1229v205h231v-205h-231zM538 1229v205h230v-205h-230z" />
    <glyph glyph-name="uni236A" unicode="&#x236a;" 
d="M77 614v205h845v-205h-845zM384 -59v264h230v-350l-198 -265h-186v146z" />
    <glyph glyph-name="uni236B" unicode="&#x236b;" 
d="M77 1434h845v-555l-154 -205v-60h154v-204h-199l-109 -146v-264h-230v264l-109 146h-198v204h153v60l-153 205v555zM307 1229v-264l109 -146h166l109 146v264h-384zM461 614v-59l38 -51l39 51v59h-77z" />
    <glyph glyph-name="uni236C" unicode="&#x236c;" 
d="M77 965l352 469h141l352 -469v-496l-352 -469h-141l-352 469v496zM307 879v-60h384v60l-192 256zM307 614v-59l192 -256l192 256v59h-384z" />
    <glyph glyph-name="uni2371" unicode="&#x2371;" 
d="M77 1024v145l198 265h141l237 -316l83 111h186v-146l-199 -264h-141l-236 316l-83 -111h-186zM77 469v145h186l236 -315l237 315h186v-145l-352 -469h-141z" />
    <glyph glyph-name="uni2372" unicode="&#x2372;" 
d="M77 1024v145l198 265h141l237 -316l83 111h186v-146l-199 -264h-141l-236 316l-83 -111h-186zM77 0v145l352 469h141l352 -469v-145h-186l-237 315l-236 -315h-186z" />
    <glyph glyph-name="uni2373" unicode="&#x2373;" 
d="M230 819v205h384v-674l154 -205v-145h-186l-198 264v555h-154z" />
    <glyph glyph-name="uni2374" unicode="&#x2374;" 
d="M77 760l198 264h448l199 -264v-496l-199 -264h-416v-410h-230v1170zM416 819l-109 -145v-469h275l109 145v324l-109 145h-166z" />
    <glyph glyph-name="uni2375" unicode="&#x2375;" 
d="M77 760l198 264h186v-145l-154 -205v-324l39 -51l38 51v264h230v-264l39 -51l38 51v324l-153 205v145h185l199 -264v-496l-199 -264h-141l-83 111l-83 -111h-141l-198 264v496z" />
    <glyph glyph-name="uni2376" unicode="&#x2376;" 
d="M77 760l198 264h295l83 -111l83 111h186v-145l-154 -205v-324l154 -205v-145h-186l-83 111l-83 -111h-295l-198 264v496zM77 -410v205h845v-205h-845zM416 819l-109 -145v-324l109 -145h13l109 145v324l-109 145h-13z" />
    <glyph glyph-name="uni2377" unicode="&#x2377;" 
d="M77 1169l198 265h647v-205h-506l-109 -146v-59h615v-205h-615v-59l109 -146h506v-204h-647l-198 264v495zM77 0v205h845v-205h-845z" />
    <glyph glyph-name="uni2378" unicode="&#x2378;" 
d="M77 -410v205h845v-205h-845zM230 819v205h384v-674l154 -205v-145h-186l-198 264v555h-154z" />
    <glyph glyph-name="uni2379" unicode="&#x2379;" 
d="M77 760l198 264h186v-145l-154 -205v-324l39 -51l38 51v264h230v-264l39 -51l38 51v324l-153 205v145h185l199 -264v-496l-199 -264h-141l-83 111l-83 -111h-141l-198 264v496zM77 -410v205h845v-205h-845z" />
    <glyph glyph-name="uni237A" unicode="&#x237a;" 
d="M77 760l198 264h295l83 -111l83 111h186v-145l-154 -205v-324l154 -205v-145h-186l-83 111l-83 -111h-295l-198 264v496zM416 819l-109 -145v-324l109 -145h13l109 145v324l-109 145h-13z" />
    <glyph glyph-name="uni237B" unicode="&#x237b;" 
d="M77 469v145h186l83 -110l159 213l-121 162v145h186l83 -111l83 111h186v-145l-122 -162l122 -162v-145h-186l-83 110l-237 -315h-141z" />
    <glyph glyph-name="uni237D" unicode="&#x237d;" 
d="M77 205v205h384v-205h77v205h384v-205h-154v-205h-538v205h-153z" />
    <glyph glyph-name="uni237E" unicode="&#x237e;" 
d="M77 965l198 264h448l199 -264v-351h-154v-204h154v-205h-384v409h-77v-409h-384v205h153v204h-153v351zM416 1024l-109 -145v-60h384v60l-109 145h-166z" />
    <glyph glyph-name="uni237F" unicode="&#x237f;" 
d="M384 965v469h230v-469l154 -205v-86l-154 -205v-469h-230v469l-154 205v86zM499 709l6 8l-6 8l-6 -8z" />
    <glyph glyph-name="uni238D" unicode="&#x238d;" 
d="M77 205v205h153v819h538v-819h154v-205h-384v819h-77v-819h-384z" />
    <glyph glyph-name="uni238E" unicode="&#x238e;" 
d="M77 205v205h153v555l199 264h493v-205h-154v-555l-198 -264h-493zM461 879v-426l77 102v426z" />
    <glyph glyph-name="uni2393" unicode="&#x2393;" 
d="M77 819v205h845v-205h-845zM77 410v204h230v-204h-230zM384 410v204h230v-204h-230zM691 410v204h231v-204h-231z" />
    <glyph glyph-name="uni2395" unicode="&#x2395;" 
d="M77 1434h845v-1434h-845v1434zM307 1229v-1024h384v1024h-384z" />
    <glyph glyph-name="uni239B" unicode="&#x239b;" 
d="M230 965l352 469h186v-146l-307 -409v-1289h-231v1375z" />
    <glyph glyph-name="uni239C" unicode="&#x239c;" 
d="M230 1434h231v-1844h-231v1844z" />
    <glyph glyph-name="uni239D" unicode="&#x239d;" 
d="M230 1434h231v-879l307 -410v-145h-186l-352 469v965z" />
    <glyph glyph-name="uni239E" unicode="&#x239e;" 
d="M230 1288v146h186l352 -469v-1375h-230v1289z" />
    <glyph glyph-name="uni239F" unicode="&#x239f;" 
d="M538 1434h230v-1844h-230v1844z" />
    <glyph glyph-name="uni23A0" unicode="&#x23a0;" 
d="M230 0v145l308 410v879h230v-965l-352 -469h-186z" />
    <glyph glyph-name="uni23A1" unicode="&#x23a1;" 
d="M230 1434h692v-205h-461v-1639h-231v1844z" />
    <glyph glyph-name="uni23A2" unicode="&#x23a2;" 
d="M230 1434h231v-1844h-231v1844z" />
    <glyph glyph-name="uni23A3" unicode="&#x23a3;" 
d="M230 1434h231v-1229h461v-205h-692v1434z" />
    <glyph glyph-name="uni23A4" unicode="&#x23a4;" 
d="M77 1229v205h691v-1844h-230v1639h-461z" />
    <glyph glyph-name="uni23A5" unicode="&#x23a5;" 
d="M538 1434h230v-1844h-230v1844z" />
    <glyph glyph-name="uni23A6" unicode="&#x23a6;" 
d="M77 0v205h461v1229h230v-1434h-691z" />
    <glyph glyph-name="uni23A7" unicode="&#x23a7;" 
d="M384 1169l198 265h340v-205h-199l-109 -146v-1493h-230v1579z" />
    <glyph glyph-name="uni23A8" unicode="&#x23a8;" 
d="M384 965v469h230v-555l-121 -162l121 -162v-965h-230v879l-154 205v86z" />
    <glyph glyph-name="uni23A9" unicode="&#x23a9;" 
d="M384 1434h230v-1084l109 -145h199v-205h-340l-198 264v1170z" />
    <glyph glyph-name="uni23AA" unicode="&#x23aa;" 
d="M384 1434h230v-1844h-230v1844z" />
    <glyph glyph-name="uni23AB" unicode="&#x23ab;" 
d="M77 1229v205h339l198 -265v-1579h-230v1493l-109 146h-198z" />
    <glyph glyph-name="uni23AC" unicode="&#x23ac;" 
d="M384 1434h230v-469l154 -205v-86l-154 -205v-879h-230v965l121 162l-121 162v555z" />
    <glyph glyph-name="uni23AD" unicode="&#x23ad;" 
d="M77 0v205h198l109 145v1084h230v-1170l-198 -264h-339z" />
    <glyph glyph-name="uni23AE" unicode="&#x23ae;" 
d="M384 1434h230v-1844h-230v1844z" />
    <glyph glyph-name="uni23B0" unicode="&#x23b0;" 
d="M77 -410v205h198l109 146v1228l198 265h340v-205h-199l-109 -146v-1228l-198 -265h-339z" />
    <glyph glyph-name="uni23B1" unicode="&#x23b1;" 
d="M77 1229v205h339l198 -265v-1228l109 -146h199v-205h-340l-198 265v1228l-109 146h-198z" />
    <glyph glyph-name="uni23B2" unicode="&#x23b2;" 
d="M77 1434h845v-205h-615v-60l154 -204v-205l153 -205v-205l154 -205v-204l154 -205v-146h-186l-198 265v204l-154 205v205l-154 205v205l-153 204v351z" />
    <glyph glyph-name="uni23B3" unicode="&#x23b3;" 
d="M230 145v205l154 205v205l154 205v204l198 265h186v-146l-154 -205v-204l-154 -205v-205l-153 -205v-205l-154 -204v-60h615v-205h-845v351z" />
    <glyph glyph-name="uni23BA" unicode="&#x23ba;" 
d="M77 1229v205h845v-205h-845z" />
    <glyph glyph-name="uni23BB" unicode="&#x23bb;" 
d="M77 819v205h845v-205h-845z" />
    <glyph glyph-name="uni23BC" unicode="&#x23bc;" 
d="M77 0v205h845v-205h-845z" />
    <glyph glyph-name="uni23BD" unicode="&#x23bd;" 
d="M77 -410v205h845v-205h-845z" />
    <glyph glyph-name="uni23DA" unicode="&#x23da;" 
d="M77 819v205h307v410h230v-410h308v-205h-845zM230 410v204h538v-204h-538zM384 0v205h230v-205h-230z" />
    <glyph glyph-name="uni2400" unicode="&#x2400;" 
d="M77 1434h339l122 -162v162h230v-820h-230v410h-109l-122 162v-572h-230v820zM230 410h231v-469l109 -146h12l109 146v469h231v-555l-199 -265h-294l-199 265v555z" />
    <glyph glyph-name="uni2401" unicode="&#x2401;" 
d="M77 1083v86l198 265h186v-146l-122 -162l122 -161v-86l-198 -265h-186v146l121 162zM384 614h230v-409h77v409h231v-1024h-231v410h-77v-410h-230v1024z" />
    <glyph glyph-name="uni2402" unicode="&#x2402;" 
d="M77 1083v86l198 265h186v-146l-122 -162l122 -161v-86l-198 -265h-186v146l121 162zM384 614h230v-264l39 -51l38 51v264h231v-350l-122 -162l122 -161v-351h-231v265l-38 51l-39 -51v-265h-230v351l121 161l-121 162v350z" />
    <glyph glyph-name="uni2403" unicode="&#x2403;" 
d="M77 1434h537v-205h-307v-205h154v-205h-154v-205h307v-264l39 -51l38 51v264h231v-350l-122 -162l122 -161v-351h-231v265l-38 51l-39 -51v-265h-230v351l121 161l-121 162v146h-307v1024z" />
    <glyph glyph-name="uni2404" unicode="&#x2404;" 
d="M77 1434h537v-205h-307v-205h154v-205h-154v-205h615v-204h-154v-820h-230v820h-461v1024z" />
    <glyph glyph-name="uni2405" unicode="&#x2405;" 
d="M77 1434h537v-205h-307v-205h154v-205h-154v-205h122l153 205h141l199 -264v-496l-122 -161l122 -162v-146h-186l-352 469v351h-307v1024zM614 469v-324l39 -51l38 51v324l-38 51z" />
    <glyph glyph-name="uni2406" unicode="&#x2406;" 
d="M77 1169l198 265h141l198 -265v-921l77 102v264h231v-350l-122 -162l122 -161v-351h-231v265l-77 102v-367h-230v1229h-77v-409h-230v759zM307 1083v-59h77v59l-38 52z" />
    <glyph glyph-name="uni2407" unicode="&#x2407;" 
d="M77 1434h339l198 -265v-86l-121 -161l121 -162v-86l-198 -264h-339v1024zM307 1186v-119l45 59zM307 776v-119l45 60zM538 410h230v-615h154v-205h-384v820z" />
    <glyph glyph-name="uni2408" unicode="&#x2408;" 
d="M77 1434h339l198 -265v-86l-121 -161l121 -162v-86l-198 -264h-339v1024zM307 1186v-119l45 59zM307 776v-119l45 60zM538 59v86l198 265h186v-146l-122 -162l122 -161v-86l-199 -265h-185v146l121 162z" />
    <glyph glyph-name="uni2409" unicode="&#x2409;" 
d="M77 1434h230v-410h77v410h230v-820h308v-204h-154v-820h-230v820h-154v409h-77v-409h-230v1024z" />
    <glyph glyph-name="uni240A" unicode="&#x240a;" 
d="M77 1434h230v-820h615v-204h-308v-205h154v-205h-154v-410h-230v820h-307v1024z" />
    <glyph glyph-name="uni240B" unicode="&#x240b;" 
d="M77 1434h230v-469l39 -52l38 52v469h230v-555l-153 -205v-60h461v-204h-154v-820h-230v820h-308v264l-153 205v555z" />
    <glyph glyph-name="uni240C" unicode="&#x240c;" 
d="M77 1434h537v-205h-307v-205h154v-205h-154v-409h-230v1024zM384 614h538v-204h-308v-205h154v-205h-154v-410h-230v1024z" />
    <glyph glyph-name="uni240D" unicode="&#x240d;" 
d="M77 1169l198 265h339v-205h-198l-109 -146v-323l109 -146h307l199 -264v-86l-122 -162l122 -161v-351h-231v265l-77 102v-367h-230v820h-109l-198 264v495zM614 367v-119l45 59z" />
    <glyph glyph-name="uni240E" unicode="&#x240e;" 
d="M77 1083v86l198 265h339v-205h-198l-77 -103l275 -366v-86l-198 -264h-339v204h198l77 103zM384 145l198 265h141l199 -265v-290l-199 -265h-141l-198 265v290zM614 59v-118l39 -52l38 52v118l-38 52z" />
    <glyph glyph-name="uni240F" unicode="&#x240f;" 
d="M77 1083v86l198 265h339v-205h-198l-77 -103l275 -366v-86l-198 -264h-339v204h198l77 103zM691 614h231v-1024h-231v1024z" />
    <glyph glyph-name="uni2410" unicode="&#x2410;" 
d="M77 1434h339l198 -265v-495l-198 -264h-339v1024zM384 1083l-77 103v-529l77 103v323zM538 410h230v-615h154v-205h-384v820z" />
    <glyph glyph-name="uni2411" unicode="&#x2411;" 
d="M77 1434h339l198 -265v-495l-198 -264h-339v1024zM384 1083l-77 103v-529l77 103v323zM691 614h231v-1024h-231v1024z" />
    <glyph glyph-name="uni2412" unicode="&#x2412;" 
d="M77 1434h339l198 -265v-495l-198 -264h-339v1024zM384 1083l-77 103v-529l77 103v323zM538 264v146h185l199 -265v-86l-154 -204v-60h154v-205h-384v351l121 161z" />
    <glyph glyph-name="uni2413" unicode="&#x2413;" 
d="M77 1434h339l198 -265v-290l-198 -265h-339v820zM384 1083l-77 103v-324l77 103v118zM538 469v145h185l199 -264v-86l-122 -162l122 -161v-86l-199 -265h-185v146l121 162l-121 161v86l121 162z" />
    <glyph glyph-name="uni2414" unicode="&#x2414;" 
d="M77 1434h339l198 -265v-495l-198 -264h-339v1024zM384 1083l-77 103v-529l77 103v323zM384 145l198 265h109v204h231v-1024h-231v205h-307v350zM614 59v-59h77v162z" />
    <glyph glyph-name="uni2415" unicode="&#x2415;" 
d="M77 1434h339l122 -162v162h230v-820h-230v410h-109l-122 162v-572h-230v820zM384 410h230v-162l122 162h186v-146l-122 -162l122 -161v-351h-231v265l-77 102v-367h-230v820z" />
    <glyph glyph-name="uni2416" unicode="&#x2416;" 
d="M77 1083v86l198 265h186v-146l-122 -162l122 -161v-86l-198 -265h-186v146l121 162zM384 614h230v-264l39 -51l38 51v264h231v-350l-154 -205v-469h-230v469l-154 205v350z" />
    <glyph glyph-name="uni2417" unicode="&#x2417;" 
d="M77 1434h537v-205h-307v-205h154v-205h-154v-205h416l199 -264v-86l-122 -162l122 -161v-86l-199 -265h-339v820h-307v1024zM614 367v-119l45 59zM614 -43v-119l45 60z" />
    <glyph glyph-name="uni2418" unicode="&#x2418;" 
d="M77 1169l198 265h339v-205h-198l-109 -146v-118l109 -146h198v-205h-339l-198 265v290zM230 410h340l121 -162v162h231v-820h-231v410h-109l-121 162v-572h-231v820z" />
    <glyph glyph-name="uni2419" unicode="&#x2419;" 
d="M77 1434h537v-205h-307v-205h154v-205h-154v-205h307v-204h-537v1024zM77 205h339l83 -111l83 111h340v-615h-231v367l-121 -162h-141l-122 162v-367h-230v615z" />
    <glyph glyph-name="uni241A" unicode="&#x241a;" 
d="M77 1083v86l198 265h186v-146l-122 -162l122 -161v-86l-198 -265h-186v146l121 162zM384 614h339l199 -264v-86l-122 -162l122 -161v-86l-199 -265h-339v1024zM614 367v-119l45 59zM614 -43v-119l45 60z" />
    <glyph glyph-name="uni241B" unicode="&#x241b;" 
d="M77 1434h384v-205h-154v-205h154v-205h-154v-205h154v-204h-384v1024zM384 145l198 265h340v-205h-199l-109 -146v-118l109 -146h199v-205h-340l-198 265v290z" />
    <glyph glyph-name="uni241C" unicode="&#x241c;" 
d="M77 1434h537v-205h-307v-205h154v-205h-154v-409h-230v1024zM384 264v86l198 264h340v-204h-199l-76 -103l275 -366v-86l-199 -265h-339v205h198l77 103z" />
    <glyph glyph-name="uni241D" unicode="&#x241d;" 
d="M77 1169l198 265h339v-205h-198l-109 -146v-323l77 -103v162h230v-409h-339l-198 264v495zM538 59v86l198 265h186v-146l-122 -162l122 -161v-86l-199 -265h-185v146l121 162z" />
    <glyph glyph-name="uni241E" unicode="&#x241e;" 
d="M77 1434h339l198 -265v-86l-121 -161l121 -162v-350h-230v264l-77 102v-366h-230v1024zM307 1186v-119l45 59zM538 59v86l198 265h186v-146l-122 -162l122 -161v-86l-199 -265h-185v146l121 162z" />
    <glyph glyph-name="uni241F" unicode="&#x241f;" 
d="M77 1434h230v-265l109 -145h13l109 145v265h230v-351l-198 -264h-295l-198 264v351zM384 264v86l198 264h340v-204h-199l-76 -103l275 -366v-86l-199 -265h-339v205h198l77 103z" />
    <glyph glyph-name="uni2420" unicode="&#x2420;" 
d="M77 1083v86l198 265h186v-146l-122 -162l122 -161v-86l-198 -265h-186v146l121 162zM384 614h339l199 -264v-86l-199 -264h-109v-410h-230v1024zM614 367v-119l45 59z" />
    <glyph glyph-name="uni2421" unicode="&#x2421;" 
d="M77 1434h339l198 -265v-290l-198 -265h-339v820zM384 1083l-77 103v-324l77 103v118zM384 205v205h538v-205h-154v-615h-230v615h-154z" />
    <glyph glyph-name="uni2423" unicode="&#x2423;" 
d="M77 410h230v-205h384v205h231v-410h-845v410z" />
    <glyph glyph-name="uni2424" unicode="&#x2424;" 
d="M77 1434h339l122 -162v162h230v-820h-230v410h-109l-122 162v-572h-230v820zM384 410h230v-615h308v-205h-538v820z" />
    <glyph glyph-name="uni2425" unicode="&#x2425;" 
d="M77 819v146l352 469h185v-146l-351 -469h-186zM77 205v145l659 879h186v-146l-659 -878h-186zM384 0v145l352 469h186v-145l-352 -469h-186z" />
    <glyph glyph-name="uni2426" unicode="&#x2426;" 
d="M77 1083v86l198 265h448l199 -265v-145h-186l-154 205h-166l-77 -103l275 -366v-350h-230v264zM384 0v205h230v-205h-230z" />
    <glyph glyph-name="SF100000" unicode="&#x2500;" 
d="M77 410v204h845v-204h-845z" />
    <glyph glyph-name="uni2501" unicode="&#x2501;" 
d="M77 819h845v-614h-845v614z" />
    <glyph glyph-name="SF110000" unicode="&#x2502;" 
d="M384 1434h230v-1844h-230v1844z" />
    <glyph glyph-name="uni2503" unicode="&#x2503;" 
d="M230 1434h538v-1844h-538v1844z" />
    <glyph glyph-name="uni2504" unicode="&#x2504;" 
d="M77 410v204h230v-204h-230zM384 410v204h230v-204h-230zM691 410v204h231v-204h-231z" />
    <glyph glyph-name="uni2505" unicode="&#x2505;" 
d="M77 819h230v-614h-230v614zM384 819h230v-614h-230v614zM691 819h231v-614h-231v614z" />
    <glyph glyph-name="uni2506" unicode="&#x2506;" 
d="M384 1434h230v-410h-230v410zM384 819h230v-614h-230v614zM384 0h230v-410h-230v410z" />
    <glyph glyph-name="uni2507" unicode="&#x2507;" 
d="M230 1434h538v-410h-538v410zM230 819h538v-614h-538v614zM230 0h538v-410h-538v410z" />
    <glyph glyph-name="uni250A" unicode="&#x250a;" 
d="M384 1229v205h230v-205h-230zM384 1024h230v-410h-230v410zM384 205v205h230v-205h-230zM384 0h230v-410h-230v410z" />
    <glyph glyph-name="uni250B" unicode="&#x250b;" 
d="M230 1229v205h538v-205h-538zM230 1024h538v-410h-538v410zM230 205v205h538v-205h-538zM230 0h538v-410h-538v410z" />
    <glyph glyph-name="SF010000" unicode="&#x250c;" 
d="M384 614h538v-204h-308v-820h-230v1024z" />
    <glyph glyph-name="uni250D" unicode="&#x250d;" 
d="M384 819h538v-614h-308v-615h-230v1229z" />
    <glyph glyph-name="uni250E" unicode="&#x250e;" 
d="M230 614h692v-204h-154v-820h-538v1024z" />
    <glyph glyph-name="uni250F" unicode="&#x250f;" 
d="M230 819h692v-614h-154v-615h-538v1229z" />
    <glyph glyph-name="SF030000" unicode="&#x2510;" 
d="M77 410v204h537v-1024h-230v820h-307z" />
    <glyph glyph-name="uni2511" unicode="&#x2511;" 
d="M77 819h537v-1229h-230v615h-307v614z" />
    <glyph glyph-name="uni2512" unicode="&#x2512;" 
d="M77 410v204h691v-1024h-538v820h-153z" />
    <glyph glyph-name="uni2513" unicode="&#x2513;" 
d="M77 819h691v-1229h-538v615h-153v614z" />
    <glyph glyph-name="SF020000" unicode="&#x2514;" 
d="M384 1434h230v-820h308v-204h-538v1024z" />
    <glyph glyph-name="uni2515" unicode="&#x2515;" 
d="M384 1434h230v-615h308v-614h-538v1229z" />
    <glyph glyph-name="uni2516" unicode="&#x2516;" 
d="M230 1434h538v-820h154v-204h-692v1024z" />
    <glyph glyph-name="uni2517" unicode="&#x2517;" 
d="M230 1434h538v-615h154v-614h-692v1229z" />
    <glyph glyph-name="SF040000" unicode="&#x2518;" 
d="M77 410v204h307v820h230v-1024h-537z" />
    <glyph glyph-name="uni2519" unicode="&#x2519;" 
d="M77 819h307v615h230v-1229h-537v614z" />
    <glyph glyph-name="uni251A" unicode="&#x251a;" 
d="M77 410v204h153v820h538v-1024h-691z" />
    <glyph glyph-name="uni251B" unicode="&#x251b;" 
d="M77 819h153v615h538v-1229h-691v614z" />
    <glyph glyph-name="SF080000" unicode="&#x251c;" 
d="M384 1434h230v-820h308v-204h-308v-820h-230v1844z" />
    <glyph glyph-name="uni251D" unicode="&#x251d;" 
d="M384 1434h230v-615h308v-614h-308v-615h-230v1844z" />
    <glyph glyph-name="uni251E" unicode="&#x251e;" 
d="M230 1434h538v-820h154v-204h-308v-820h-230v820h-154v1024z" />
    <glyph glyph-name="uni251F" unicode="&#x251f;" 
d="M230 614h154v820h230v-820h308v-204h-154v-820h-538v1024z" />
    <glyph glyph-name="uni2520" unicode="&#x2520;" 
d="M230 1434h538v-820h154v-204h-154v-820h-538v1844z" />
    <glyph glyph-name="uni2521" unicode="&#x2521;" 
d="M230 1434h538v-615h154v-614h-308v-615h-230v615h-154v1229z" />
    <glyph glyph-name="uni2522" unicode="&#x2522;" 
d="M230 819h154v615h230v-615h308v-614h-154v-615h-538v1229z" />
    <glyph glyph-name="uni2523" unicode="&#x2523;" 
d="M230 1434h538v-615h154v-614h-154v-615h-538v1844z" />
    <glyph glyph-name="SF090000" unicode="&#x2524;" 
d="M77 410v204h307v820h230v-1844h-230v820h-307z" />
    <glyph glyph-name="uni2525" unicode="&#x2525;" 
d="M77 819h307v615h230v-1844h-230v615h-307v614z" />
    <glyph glyph-name="uni2526" unicode="&#x2526;" 
d="M77 410v204h153v820h538v-1024h-154v-820h-230v820h-307z" />
    <glyph glyph-name="uni2527" unicode="&#x2527;" 
d="M77 410v204h307v820h230v-820h154v-1024h-538v820h-153z" />
    <glyph glyph-name="uni2528" unicode="&#x2528;" 
d="M77 410v204h153v820h538v-1844h-538v820h-153z" />
    <glyph glyph-name="uni2529" unicode="&#x2529;" 
d="M77 819h153v615h538v-1229h-154v-615h-230v615h-307v614z" />
    <glyph glyph-name="uni252A" unicode="&#x252a;" 
d="M77 819h307v615h230v-615h154v-1229h-538v615h-153v614z" />
    </font>
</defs>
</svg>
