<?xml version="1.0" standalone="no"?>
<!DOCTYPE svg PUBLIC "-//W3C//DTD SVG 1.1//EN" "http://www.w3.org/Graphics/SVG/1.1/DTD/svg11.dtd" >
<svg xmlns="http://www.w3.org/2000/svg" xmlns:xlink="http://www.w3.org/1999/xlink" version="1.1">
<metadata>
Created by FontForge 20201107 at Mon Apr  6 19:27:18 2026
 By www-data
Dedicated to the public domain
</metadata>
<defs>
<font id="Bedstead" horiz-adv-x="1228" >
  <font-face 
    font-family="Bedstead"
    font-weight="500"
    font-stretch="normal"
    units-per-em="2048"
    panose-1="2 11 6 9 2 2 1 5 3 7"
    ascent="1638"
    descent="-410"
    x-height="1024"
    cap-height="1434"
    bbox="0 -410 1229 1638"
    underline-thickness="204"
    underline-position="-306"
    unicode-range="U+0020-1FBCA"
  />
<missing-glyph 
d="M205 1434h1024v-1434h-1024v1434zM410 1229v-1024h614v1024h-614z" />
    <glyph glyph-name=".notdef" 
d="M205 1434h1024v-1434h-1024v1434zM410 1229v-1024h614v1024h-614z" />
    <glyph glyph-name=".null" horiz-adv-x="0" 
 />
    <glyph glyph-name="nonmarkingreturn" 
 />
    <glyph glyph-name="space" unicode=" " 
 />
    <glyph glyph-name="exclam" unicode="!" 
d="M614 1434h205v-1024h-205v1024zM614 0v205h205v-205h-205z" />
    <glyph glyph-name="quotedbl" unicode="&#x22;" 
d="M410 1434h204v-615h-204v615zM819 1434h205v-615h-205v615z" />
    <glyph glyph-name="numbersign" unicode="#" 
d="M205 819v205h205v410h204v-410h205v410h205v-410h205v-205h-205v-205h205v-204h-205v-410h-205v410h-205v-410h-204v410h-205v204h205v205h-205zM614 819v-205h205v205h-205z" />
    <glyph glyph-name="dollar" unicode="$" 
d="M205 1169l264 265h496l264 -265v-145h-146l-204 205h-60v-410h146l264 -264v-291l-264 -264h-496l-264 264v146h145l205 -205h59v409h-145l-264 265v290zM555 1229l-145 -146v-118l145 -146h59v410h-59zM819 614v-409h60l145 145v119l-145 145h-60z" />
    <glyph glyph-name="percent" unicode="%" 
d="M205 1434h409v-410h-409v410zM205 205v145l878 879h146v-146l-879 -878h-145zM819 410h410v-410h-410v410z" />
    <glyph glyph-name="ampersand" unicode="&#x26;" 
d="M205 1169l264 265h86l264 -265v-290l-162 -162l265 -264l161 161h146v-145l-162 -162l162 -162v-145h-146l-161 162l-162 -162h-291l-264 264v291l162 162l-162 162v290zM410 1083v-118l102 -103l102 103v118l-102 103zM410 469v-119l145 -145h119l102 102l-264 264z" />
    <glyph glyph-name="quotesingle" unicode="'" 
d="M614 1434h205v-615h-205v615z" />
    <glyph glyph-name="parenleft" unicode="(" 
d="M410 965l469 469h145v-146l-410 -409v-324l410 -410v-145h-145l-469 469v496z" />
    <glyph glyph-name="parenright" unicode=")" 
d="M410 1288v146h145l469 -469v-496l-469 -469h-145v145l409 410v324z" />
    <glyph glyph-name="asterisk" unicode="*" 
d="M205 1083v146h145l205 -205h59v410h205v-410h60l204 205h146v-146l-264 -264h-146v-205h146l264 -264v-145h-146l-204 205h-60v-410h-205v410h-59l-205 -205h-145v145l264 264h145v205h-145z" />
    <glyph glyph-name="plus" unicode="+" 
d="M205 614v205h409v410h205v-410h410v-205h-410v-409h-205v409h-409z" />
    <glyph glyph-name="comma" unicode="," 
d="M614 145v265h205v-351l-264 -264h-145v146z" />
    <glyph glyph-name="hyphen" unicode="-" 
d="M410 614v205h614v-205h-614z" />
    <glyph glyph-name="period" unicode="." 
d="M614 0v205h205v-205h-205z" />
    <glyph glyph-name="slash" unicode="/" 
d="M205 205v145l878 879h146v-146l-879 -878h-145z" />
    <glyph glyph-name="zero" unicode="0" 
d="M205 965l469 469h86l469 -469v-496l-469 -469h-86l-469 469v496zM410 879v-324l307 -307l307 307v324l-307 307z" />
    <glyph glyph-name="one" unicode="1" 
d="M410 1024v205h204v205h205v-1229h205v-205h-614v205h204v819h-204z" />
    <glyph glyph-name="two" unicode="2" 
d="M205 1024v145l264 265h496l264 -265v-290l-264 -265h-205l-350 -350v-59h819v-205h-1024v350l469 469h205l145 146v118l-145 146h-324l-205 -205h-145z" />
    <glyph glyph-name="three" unicode="3" 
d="M205 1229v205h1024v-351l-205 -204v-119l205 -205v-291l-264 -264h-496l-264 264v146h145l205 -205h324l145 145v119l-145 145h-265v205h205v146l205 204v60h-819z" />
    <glyph glyph-name="four" unicode="4" 
d="M205 760l469 469h145v205h205v-820h205v-204h-205v-410h-205v410h-614v350zM410 674v-60h409v410h-59z" />
    <glyph glyph-name="five" unicode="5" 
d="M205 1434h1024v-205h-819v-205h555l264 -264v-496l-264 -264h-496l-264 264v146h145l205 -205h324l145 145v324l-145 145h-674v615z" />
    <glyph glyph-name="six" unicode="6" 
d="M205 965l469 469h350v-205h-264l-350 -350v-60h555l264 -264v-291l-264 -264h-496l-264 264v701zM410 614v-264l145 -145h324l145 145v119l-145 145h-469z" />
    <glyph glyph-name="seven" unicode="7" 
d="M205 1229v205h1024v-351l-615 -614v-469h-204v555l614 614v60h-819z" />
    <glyph glyph-name="eight" unicode="8" 
d="M205 1169l264 265h496l264 -265v-290l-162 -162l162 -162v-291l-264 -264h-496l-264 264v291l162 162l-162 162v290zM555 1229l-145 -146v-118l145 -146h324l145 146v118l-145 146h-324zM555 614l-145 -145v-119l145 -145h324l145 145v119l-145 145h-324z" />
    <glyph glyph-name="nine" unicode="9" 
d="M205 1169l264 265h496l264 -265v-700l-469 -469h-350v205h264l350 350v59h-555l-264 265v290zM555 1229l-145 -146v-118l145 -146h469v264l-145 146h-324z" />
    <glyph glyph-name="colon" unicode=":" 
d="M614 819v205h205v-205h-205zM614 0v205h205v-205h-205z" />
    <glyph glyph-name="semicolon" unicode=";" 
d="M614 145v265h205v-351l-264 -264h-145v146zM614 819v205h205v-205h-205z" />
    <glyph glyph-name="less" unicode="&#x3c;" 
d="M205 674v86l674 674h145v-146l-571 -571l571 -572v-145h-145z" />
    <glyph glyph-name="equal" unicode="=" 
d="M205 819v205h1024v-205h-1024zM205 410v204h1024v-204h-1024z" />
    <glyph glyph-name="greater" unicode="&#x3e;" 
d="M410 1288v146h145l674 -674v-86l-674 -674h-145v145l571 572z" />
    <glyph glyph-name="question" unicode="?" 
d="M205 1024v145l264 265h496l264 -265v-86l-410 -409v-264h-205v350l367 366l-102 103h-324l-205 -205h-145zM614 0v205h205v-205h-205z" />
    <glyph glyph-name="at" unicode="@" 
d="M205 1169l264 265h496l264 -265v-759h-615v614h410v59l-145 146h-324l-145 -146v-733l145 -145h469v-205h-555l-264 264v905zM819 819v-205h205v205h-205z" />
    <glyph glyph-name="A" unicode="A" 
d="M205 965l469 469h86l469 -469v-965h-205v410h-614v-410h-205v965zM410 879v-265h614v265l-307 307z" />
    <glyph glyph-name="B" unicode="B" 
d="M205 1434h760l264 -265v-290l-162 -162l162 -162v-291l-264 -264h-760v1434zM410 1229v-410h469l145 146v118l-145 146h-469zM410 614v-409h469l145 145v119l-145 145h-469z" />
    <glyph glyph-name="C" unicode="C" 
d="M205 1169l264 265h496l264 -265v-145h-146l-204 205h-324l-145 -146v-733l145 -145h324l204 205h146v-146l-264 -264h-496l-264 264v905z" />
    <glyph glyph-name="D" unicode="D" 
d="M205 1434h760l264 -265v-905l-264 -264h-760v1434zM410 1229v-1024h469l145 145v733l-145 146h-469z" />
    <glyph glyph-name="E" unicode="E" 
d="M205 1434h1024v-205h-819v-410h614v-205h-614v-409h819v-205h-1024v1434z" />
    <glyph glyph-name="F" unicode="F" 
d="M205 1434h1024v-205h-819v-410h614v-205h-614v-614h-205v1434z" />
    <glyph glyph-name="G" unicode="G" 
d="M205 1169l264 265h496l264 -265v-145h-146l-204 205h-324l-145 -146v-733l145 -145h469v205h-205v204h410v-614h-760l-264 264v905z" />
    <glyph glyph-name="H" unicode="H" 
d="M205 1434h205v-615h614v615h205v-1434h-205v614h-614v-614h-205v1434z" />
    <glyph glyph-name="I" unicode="I" 
d="M410 1229v205h614v-205h-205v-1024h205v-205h-614v205h204v1024h-204z" />
    <glyph glyph-name="J" unicode="J" 
d="M205 264v146h145l205 -205h324l145 145v1084h205v-1170l-264 -264h-496z" />
    <glyph glyph-name="K" unicode="K" 
d="M205 1434h205v-615h59l614 615h146v-146l-572 -571l572 -572v-145h-146l-614 614h-59v-614h-205v1434z" />
    <glyph glyph-name="L" unicode="L" 
d="M205 1434h205v-1229h819v-205h-1024v1434z" />
    <glyph glyph-name="M" unicode="M" 
d="M205 1434h205v-205h145l162 -162l162 162h145v205h205v-1434h-205v1024h-59l-146 -145v-265h-205v265l-145 145h-59v-1024h-205v1434z" />
    <glyph glyph-name="N" unicode="N" 
d="M205 1434h205v-410h145l410 -410h59v820h205v-1434h-205v410h-145l-410 409h-59v-819h-205v1434z" />
    <glyph glyph-name="O" unicode="O" 
d="M205 1169l264 265h496l264 -265v-905l-264 -264h-496l-264 264v905zM555 1229l-145 -146v-733l145 -145h324l145 145v733l-145 146h-324z" />
    <glyph glyph-name="P" unicode="P" 
d="M205 1434h760l264 -265v-290l-264 -265h-555v-614h-205v1434zM410 1229v-410h469l145 146v118l-145 146h-469z" />
    <glyph glyph-name="Q" unicode="Q" 
d="M205 1169l264 265h496l264 -265v-700l-162 -162l162 -162v-145h-146l-161 162l-162 -162h-291l-264 264v905zM555 1229l-145 -146v-733l145 -145h119l102 102l-162 162v145h146l162 -161l102 102v528l-145 146h-324z" />
    <glyph glyph-name="R" unicode="R" 
d="M205 1434h760l264 -265v-290l-264 -265h-146v-59l410 -410v-145h-146l-469 469v145h-204v-614h-205v1434zM410 1229v-410h469l145 146v118l-145 146h-469z" />
    <glyph glyph-name="S" unicode="S" 
d="M205 1169l264 265h496l264 -265v-145h-146l-204 205h-324l-145 -146v-118l145 -146h410l264 -264v-291l-264 -264h-496l-264 264v146h145l205 -205h324l145 145v119l-145 145h-410l-264 265v290z" />
    <glyph glyph-name="T" unicode="T" 
d="M205 1229v205h1024v-205h-410v-1229h-205v1229h-409z" />
    <glyph glyph-name="U" unicode="U" 
d="M205 1434h205v-1084l145 -145h324l145 145v1084h205v-1170l-264 -264h-496l-264 264v1170z" />
    <glyph glyph-name="V" unicode="V" 
d="M205 1434h205v-469l204 -205v-205l103 -102l102 102v205l205 205v469h205v-555l-205 -205v-205l-205 -205v-264h-205v264l-204 205v205l-205 205v555z" />
    <glyph glyph-name="W" unicode="W" 
d="M205 1434h205v-1084l102 -102l102 102v469h205v-469l103 -102l102 102v1084h205v-1170l-264 -264h-86l-162 162l-162 -162h-86l-264 264v1170z" />
    <glyph glyph-name="X" unicode="X" 
d="M205 1434h205v-265l307 -307l307 307v265h205v-351l-367 -366l367 -367v-350h-205v264l-307 307l-307 -307v-264h-205v350l366 367l-366 366v351z" />
    <glyph glyph-name="Y" unicode="Y" 
d="M205 1434h205v-265l307 -307l307 307v265h205v-351l-410 -409v-674h-205v674l-409 409v351z" />
    <glyph glyph-name="Z" unicode="Z" 
d="M205 1229v205h1024v-351l-819 -819v-59h819v-205h-1024v350l819 819v60h-819z" />
    <glyph glyph-name="bracketleft" unicode="[" 
d="M410 1434h819v-205h-615v-1024h615v-205h-819v1434z" />
    <glyph glyph-name="backslash" unicode="\" 
d="M205 1083v146h145l879 -879v-145h-146z" />
    <glyph glyph-name="bracketright" unicode="]" 
d="M205 1229v205h819v-1434h-819v205h614v1024h-614z" />
    <glyph glyph-name="asciicircum" unicode="^" 
d="M205 819v146l469 469h86l469 -469v-146h-146l-366 367l-367 -367h-145z" />
    <glyph glyph-name="underscore" unicode="_" 
d="M205 0v205h1024v-205h-1024z" />
    <glyph glyph-name="grave" unicode="`" 
d="M410 1288v146h145l469 -469v-146h-145z" />
    <glyph glyph-name="a" unicode="a" 
d="M205 264v86l264 264h555v60l-145 145h-469v205h555l264 -264v-760h-760zM555 205h469v205h-469l-102 -103z" />
    <glyph glyph-name="b" unicode="b" 
d="M205 1434h205v-410h555l264 -264v-496l-264 -264h-760v1434zM410 819v-614h469l145 145v324l-145 145h-469z" />
    <glyph glyph-name="c" unicode="c" 
d="M205 760l264 264h760v-205h-674l-145 -145v-324l145 -145h674v-205h-760l-264 264v496z" />
    <glyph glyph-name="d" unicode="d" 
d="M205 760l264 264h555v410h205v-1434h-760l-264 264v496zM555 819l-145 -145v-324l145 -145h469v614h-469z" />
    <glyph glyph-name="e" unicode="e" 
d="M205 760l264 264h496l264 -264v-350h-819v-60l145 -145h469v-205h-555l-264 264v496zM555 819l-145 -145v-60h614v60l-145 145h-324z" />
    <glyph glyph-name="f" unicode="f" 
d="M410 614v205h204v350l265 265h145v-146l-205 -205v-264h205v-205h-205v-614h-205v614h-204z" />
    <glyph glyph-name="g" unicode="g" 
d="M205 760l264 264h760v-1169l-264 -265h-555v205h469l145 146v59h-555l-264 264v496zM555 819l-145 -145v-324l145 -145h469v614h-469z" />
    <glyph glyph-name="h" unicode="h" 
d="M205 1434h205v-410h555l264 -264v-760h-205v674l-145 145h-469v-819h-205v1434z" />
    <glyph glyph-name="i" unicode="i" 
d="M410 819v205h409v-819h205v-205h-614v205h204v614h-204zM614 1229v205h205v-205h-205z" />
    <glyph glyph-name="j" unicode="j" 
d="M614 -59v1083h205v-1169l-264 -265h-145v146zM614 1229v205h205v-205h-205z" />
    <glyph glyph-name="k" unicode="k" 
d="M410 1434h204v-820h60l409 410h146v-145l-367 -367l367 -367v-145h-146l-409 410h-60v-410h-204v1434z" />
    <glyph glyph-name="l" unicode="l" 
d="M410 1229v205h409v-1229h205v-205h-614v205h204v1024h-204z" />
    <glyph glyph-name="m" unicode="m" 
d="M205 1024h350l162 -162l162 162h86l264 -264v-760h-205v674l-102 102l-103 -102v-674h-205v674l-145 145h-59v-819h-205v1024z" />
    <glyph glyph-name="n" unicode="n" 
d="M205 1024h760l264 -264v-760h-205v674l-145 145h-469v-819h-205v1024z" />
    <glyph glyph-name="o" unicode="o" 
d="M205 760l264 264h496l264 -264v-496l-264 -264h-496l-264 264v496zM555 819l-145 -145v-324l145 -145h324l145 145v324l-145 145h-324z" />
    <glyph glyph-name="p" unicode="p" 
d="M205 1024h760l264 -264v-496l-264 -264h-555v-410h-205v1434zM410 819v-614h469l145 145v324l-145 145h-469z" />
    <glyph glyph-name="q" unicode="q" 
d="M205 760l264 264h760v-1434h-205v410h-555l-264 264v496zM555 819l-145 -145v-324l145 -145h469v614h-469z" />
    <glyph glyph-name="r" unicode="r" 
d="M410 1024h204v-205h60l205 205h350v-205h-264l-205 -205h-146v-614h-204v1024z" />
    <glyph glyph-name="s" unicode="s" 
d="M205 674v86l264 264h760v-205h-674l-102 -102l102 -103h410l264 -264v-86l-264 -264h-760v205h674l102 102l-102 103h-410z" />
    <glyph glyph-name="t" unicode="t" 
d="M410 819v205h204v410h205v-410h205v-205h-205v-469l205 -205v-145h-145l-265 264v555h-204z" />
    <glyph glyph-name="u" unicode="u" 
d="M205 1024h205v-674l145 -145h469v819h205v-1024h-760l-264 264v760z" />
    <glyph glyph-name="v" unicode="v" 
d="M205 1024h205v-264l204 -205v-205l103 -102l102 102v205l205 205v264h205v-350l-205 -205v-205l-264 -264h-86l-264 264v205l-205 205v350z" />
    <glyph glyph-name="w" unicode="w" 
d="M205 1024h205v-674l102 -102l102 102v264h205v-264l103 -102l102 102v674h205v-760l-264 -264h-86l-162 162l-162 -162h-86l-264 264v760z" />
    <glyph glyph-name="x" unicode="x" 
d="M205 879v145h145l367 -367l366 367h146v-145l-367 -367l367 -367v-145h-146l-366 367l-367 -367h-145v145l366 367z" />
    <glyph glyph-name="y" unicode="y" 
d="M205 1024h205v-674l145 -145h469v819h205v-1169l-264 -265h-555v205h469l145 146v59h-555l-264 264v760z" />
    <glyph glyph-name="z" unicode="z" 
d="M205 819v205h1024v-205h-205v-145l-410 -410v-59h615v-205h-1024v205h205v145l409 410v59h-614z" />
    <glyph glyph-name="braceleft" unicode="{" 
d="M614 965v204l265 265h350v-205h-264l-146 -146v-204l-162 -162l162 -162v-205l146 -145h264v-205h-350l-265 264v205l-204 205v86z" />
    <glyph glyph-name="bar" unicode="|" 
d="M614 1434h205v-1434h-205v1434z" />
    <glyph glyph-name="braceright" unicode="}" 
d="M205 1229v205h350l264 -265v-204l205 -205v-86l-205 -205v-205l-264 -264h-350v205h264l145 145v205l162 162l-162 162v204l-145 146h-264z" />
    <glyph glyph-name="asciitilde" unicode="~" 
d="M205 1024v145l264 265h86l367 -367l161 162h146v-146l-264 -264h-86l-367 367l-162 -162h-145z" />
    <glyph glyph-name="uni00A0" unicode="&#xa0;" 
 />
    <glyph glyph-name="exclamdown" unicode="&#xa1;" 
d="M614 819v205h205v-205h-205zM614 614h205v-1024h-205v1024z" />
    <glyph glyph-name="cent" unicode="&#xa2;" 
d="M205 760l264 264h145v205h205v-205h410v-205h-410v-614h410v-205h-410v-205h-205v205h-145l-264 264v496zM555 819l-145 -145v-324l145 -145h59v614h-59z" />
    <glyph glyph-name="sterling" unicode="&#xa3;" 
d="M205 614v205h205v350l264 265h291l264 -265v-145h-146l-204 205h-119l-146 -146v-264h205v-205h-205v-409h615v-205h-1024v205h205v409h-205z" />
    <glyph glyph-name="currency" unicode="&#xa4;" 
d="M205 879v145h145l205 -205h324l204 205h146v-145l-205 -205v-324l205 -205v-145h-146l-204 205h-324l-205 -205h-145v145l205 205v324zM614 614v-204h205v204h-205z" />
    <glyph glyph-name="yen" unicode="&#xa5;" 
d="M205 1288v146h145l264 -265v-145h205v145l264 265h146v-146l-205 -205v-59h205v-205h-410v-205h410v-204h-410v-410h-205v410h-409v204h409v205h-409v205h205v59z" />
    <glyph glyph-name="brokenbar" unicode="&#xa6;" 
d="M614 1434h205v-615h-205v615zM614 614h205v-614h-205v614z" />
    <glyph glyph-name="section" unicode="&#xa7;" 
d="M205 1169l264 265h496l264 -265v-145h-146l-204 205h-324l-145 -146v-118l145 -146h410l264 -264v-86l-162 -162l162 -162v-290l-264 -265h-496l-264 265v145h145l205 -205h324l145 146v118l-145 146h-410l-264 264v86l162 162l-162 162v290zM555 410h324l102 102
l-102 102h-324l-102 -102z" />
    <glyph glyph-name="dieresis" unicode="&#xa8;" 
d="M410 1229v205h204v-205h-204zM819 1229v205h205v-205h-205z" />
    <glyph glyph-name="copyright" unicode="&#xa9;" 
d="M205 1169l264 265h496l264 -265v-1314l-264 -265h-496l-264 265v1314zM555 1229l-145 -146v-264h59l205 205h86l205 -205h59v264l-145 146h-324zM410 205v-264l145 -146h324l145 146v264h-59l-205 -205h-86l-205 205h-59zM614 674v-324l103 -102l162 162h145v204h-145
l-162 162z" />
    <glyph glyph-name="ordfeminine" unicode="&#xaa;" 
d="M205 674v86l264 264h555v59l-145 146h-469v205h555l264 -265v-759h-760zM205 0v205h1024v-205h-1024zM555 614h469v205h-469l-102 -102z" />
    <glyph glyph-name="guillemotleft" unicode="&#xab;" 
d="M205 469v86l264 264h145v-145l-161 -162l161 -162v-145h-145zM819 469v86l264 264h146v-145l-162 -162l162 -162v-145h-146z" />
    <glyph glyph-name="logicalnot" unicode="&#xac;" 
d="M205 819v205h1024v-614h-205v409h-819z" />
    <glyph glyph-name="registered" unicode="&#xae;" 
d="M205 1169l264 265h496l264 -265v-1314l-264 -265h-496l-264 265v1314zM555 1229l-145 -146v-59h350l205 -205h59v264l-145 146h-324zM614 819v-409h60l145 145v119l-145 145h-60zM410 0v-59l145 -146h324l145 146v59h-145l-205 205h-60v-205h-204zM965 205h59v205h-59
l-103 -103z" />
    <glyph glyph-name="macron" unicode="&#xaf;" 
d="M410 1229v205h614v-205h-614z" />
    <glyph glyph-name="degree" unicode="&#xb0;" 
d="M410 1083v86l264 265h291l264 -265v-86l-264 -264h-291zM760 1024h119l102 102l-102 103h-119l-103 -103z" />
    <glyph glyph-name="plusminus" unicode="&#xb1;" 
d="M205 819v205h409v410h205v-410h410v-205h-410v-409h-205v409h-409zM205 0v205h1024v-205h-1024z" />
    <glyph glyph-name="twosuperior" unicode="&#xb2;" 
d="M410 1229v205h350l264 -265v-86l-410 -409v-60h410v-204h-614v350l366 366l-102 103h-264z" />
    <glyph glyph-name="threesuperior" unicode="&#xb3;" 
d="M410 1229v205h350l264 -265v-86l-162 -161l162 -162v-86l-264 -264h-350v204h264l102 103l-102 102h-264v205h264l102 102l-102 103h-264z" />
    <glyph glyph-name="acute" unicode="&#xb4;" 
d="M410 819v146l469 469h145v-146l-469 -469h-145z" />
    <glyph glyph-name="mu" unicode="&#xb5;" 
d="M205 1024h205v-819h264l145 145v674h205v-674l205 -205v-145h-146l-161 162l-162 -162h-350v-410h-205v1434z" />
    <glyph glyph-name="paragraph" unicode="&#xb6;" 
d="M205 1169l264 265h350v-1434h-205v614h-145l-264 265v290zM555 1229l-145 -146v-118l145 -146h59v410h-59zM1024 1434h205v-1434h-205v1434z" />
    <glyph glyph-name="periodcentered" unicode="&#xb7;" 
d="M614 614v205h205v-205h-205z" />
    <glyph glyph-name="cedilla" unicode="&#xb8;" 
d="M614 59v146h146l264 -264v-86l-264 -265h-146v146l162 162z" />
    <glyph glyph-name="onesuperior" unicode="&#xb9;" 
d="M410 1024v205h204v205h205v-820h205v-204h-614v204h204v410h-204z" />
    <glyph glyph-name="ordmasculine" unicode="&#xba;" 
d="M205 1169l264 265h496l264 -265v-495l-264 -264h-496l-264 264v495zM205 0v205h1024v-205h-1024zM555 1229l-145 -146v-323l145 -146h324l145 146v323l-145 146h-324z" />
    <glyph glyph-name="guillemotright" unicode="&#xbb;" 
d="M205 674v145h145l264 -264v-86l-264 -264h-145v145l162 162zM819 674v145h146l264 -264v-86l-264 -264h-146v145l162 162z" />
    <glyph glyph-name="onequarter" unicode="&#xbc;" 
d="M410 1434h204v-1024h-204v1024zM614 145l265 265h145v204h205v-1024h-205v205h-410v350zM965 205l-146 -146v-59h205v205h-59z" />
    <glyph glyph-name="onehalf" unicode="&#xbd;" 
d="M205 1434h205v-1024h-205v1024zM614 410v204h351l264 -264v-86l-410 -409v-60h410v-205h-615v351l367 366l-102 103h-265z" />
    <glyph glyph-name="threequarters" unicode="&#xbe;" 
d="M205 1229v205h350l264 -265v-86l-162 -161l162 -162v-86l-264 -264h-350v204h264l102 103l-102 102h-264v205h264l102 102l-102 103h-264zM614 145l265 265h145v204h205v-1024h-205v205h-410v350zM965 205l-146 -146v-59h205v205h-59z" />
    <glyph glyph-name="questiondown" unicode="&#xbf;" 
d="M205 -145v86l409 409v264h205v-350l-366 -366l102 -103h324l204 205h146v-145l-264 -265h-496zM614 819v205h205v-205h-205z" />
    <glyph glyph-name="Agrave" unicode="&#xc0;" 
d="M205 760l264 264h145v59l-204 205v146h145l264 -265v-145h146l264 -264v-760h-205v410h-614v-410h-205v760zM555 819l-145 -145v-60h614v60l-145 145h-324z" />
    <glyph glyph-name="Aacute" unicode="&#xc1;" 
d="M205 760l264 264h145v145l265 265h145v-146l-205 -205v-59h146l264 -264v-760h-205v410h-614v-410h-205v760zM555 819l-145 -145v-60h614v60l-145 145h-324z" />
    <glyph glyph-name="Acircumflex" unicode="&#xc2;" 
d="M410 965v204l264 265h86l264 -265v-204l205 -205v-760h-205v410h-614v-410h-205v760zM555 819l-145 -145v-60h614v60l-145 145h-324zM614 1083v-59h205v59l-102 103z" />
    <glyph glyph-name="Atilde" unicode="&#xc3;" 
d="M410 965v204l264 265h86l162 -162l161 162h146v-146l-205 -205v-118l205 -205v-760h-205v410h-614v-410h-205v760zM555 819l-145 -145v-60h614v60l-145 145h-324zM614 1083v-59h205v59l-102 103z" />
    <glyph glyph-name="Adieresis" unicode="&#xc4;" 
d="M205 760l264 264h496l264 -264v-760h-205v410h-614v-410h-205v760zM410 1229v205h204v-205h-204zM555 819l-145 -145v-60h614v60l-145 145h-324zM819 1229v205h205v-205h-205z" />
    <glyph glyph-name="Aring" unicode="&#xc5;" 
d="M205 760l264 264h496l264 -264v-760h-205v410h-614v-410h-205v760zM555 819l-145 -145v-60h614v60l-145 145h-324zM614 1229v205h205v-205h-205z" />
    <glyph glyph-name="AE" unicode="&#xc6;" 
d="M205 1169l264 265h760v-205h-410v-410h205v-205h-205v-409h410v-205h-615v410h-204v-410h-205v1169zM555 1229l-145 -146v-469h204v615h-59z" />
    <glyph glyph-name="Ccedilla" unicode="&#xc7;" 
d="M205 1169l264 265h496l264 -265v-145h-146l-204 205h-324l-145 -146v-733l145 -145h324l204 205h146v-146l-264 -264h-146v-145l-264 -265h-145v146l204 205v59h-145l-264 264v905z" />
    <glyph glyph-name="Egrave" unicode="&#xc8;" 
d="M205 1024h409v59l-204 205v146h145l264 -265v-145h410v-205h-819v-205h614v-204h-614v-205h819v-205h-1024v1024z" />
    <glyph glyph-name="Eacute" unicode="&#xc9;" 
d="M205 1024h409v145l265 265h145v-146l-205 -205v-59h410v-205h-819v-205h614v-204h-614v-205h819v-205h-1024v1024z" />
    <glyph glyph-name="Ecircumflex" unicode="&#xca;" 
d="M205 1024h205v145l264 265h86l264 -265v-145h205v-205h-819v-205h614v-204h-614v-205h819v-205h-1024v1024zM614 1024h205v59l-102 103l-103 -103v-59z" />
    <glyph glyph-name="Edieresis" unicode="&#xcb;" 
d="M205 1024h1024v-205h-819v-205h614v-204h-614v-205h819v-205h-1024v1024zM410 1229v205h204v-205h-204zM819 1229v205h205v-205h-205z" />
    <glyph glyph-name="Igrave" unicode="&#xcc;" 
d="M410 1288v146h145l264 -265v-145h-145zM410 614v205h614v-205h-205v-409h205v-205h-614v205h204v409h-204z" />
    <glyph glyph-name="Iacute" unicode="&#xcd;" 
d="M410 614v205h614v-205h-205v-409h205v-205h-614v205h204v409h-204zM614 1024v145l265 265h145v-146l-264 -264h-146z" />
    <glyph glyph-name="Icircumflex" unicode="&#xce;" 
d="M410 1024v145l264 265h86l264 -265v-145h-145l-162 162l-162 -162h-145zM410 614v205h614v-205h-205v-409h205v-205h-614v205h204v409h-204z" />
    <glyph glyph-name="Idieresis" unicode="&#xcf;" 
d="M410 1229v205h204v-205h-204zM410 819v205h614v-205h-205v-614h205v-205h-614v205h204v614h-204zM819 1229v205h205v-205h-205z" />
    <glyph glyph-name="Eth" unicode="&#xd0;" 
d="M205 614v205h205v615h555l264 -265v-905l-264 -264h-555v614h-205zM614 1229v-410h205v-205h-205v-409h265l145 145v733l-145 146h-265z" />
    <glyph glyph-name="Ntilde" unicode="&#xd1;" 
d="M205 819h350l410 -409h59v409h205v-819h-205v205h-145l-410 409h-59v-614h-205v819zM410 1024v145l264 265h86l162 -162l161 162h146v-146l-264 -264h-86l-162 162l-162 -162h-145z" />
    <glyph glyph-name="Ograve" unicode="&#xd2;" 
d="M205 760l264 264h145v59l-204 205v146h145l264 -265v-145h146l264 -264v-496l-264 -264h-496l-264 264v496zM555 819l-145 -145v-324l145 -145h324l145 145v324l-145 145h-324z" />
    <glyph glyph-name="Oacute" unicode="&#xd3;" 
d="M205 760l264 264h145v145l265 265h145v-146l-205 -205v-59h146l264 -264v-496l-264 -264h-496l-264 264v496zM555 819l-145 -145v-324l145 -145h324l145 145v324l-145 145h-324z" />
    <glyph glyph-name="Ocircumflex" unicode="&#xd4;" 
d="M410 965v204l264 265h86l264 -265v-204l205 -205v-496l-264 -264h-496l-264 264v496zM555 819l-145 -145v-324l145 -145h324l145 145v324l-145 145h-324zM614 1083v-59h205v59l-102 103z" />
    <glyph glyph-name="Otilde" unicode="&#xd5;" 
d="M410 965v204l264 265h86l162 -162l161 162h146v-146l-205 -205v-118l205 -205v-496l-264 -264h-496l-264 264v496zM555 819l-145 -145v-324l145 -145h324l145 145v324l-145 145h-324zM614 1083v-59h205v59l-102 103z" />
    <glyph glyph-name="Odieresis" unicode="&#xd6;" 
d="M205 760l264 264h496l264 -264v-496l-264 -264h-496l-264 264v496zM410 1229v205h204v-205h-204zM555 819l-145 -145v-324l145 -145h324l145 145v324l-145 145h-324zM819 1229v205h205v-205h-205z" />
    <glyph glyph-name="multiply" unicode="&#xd7;" 
d="M205 1083v146h145l367 -367l366 367h146v-146l-367 -366l367 -367v-145h-146l-366 366l-367 -366h-145v145l366 367z" />
    <glyph glyph-name="Oslash" unicode="&#xd8;" 
d="M205 1169l264 265h496l264 -265v-905l-264 -264h-496l-264 264v905zM555 1229l-145 -146v-469h59l410 410h145v59l-145 146h-324zM410 410v-60l145 -145h324l145 145v469h-59l-410 -409h-145z" />
    <glyph glyph-name="Ugrave" unicode="&#xd9;" 
d="M205 1024h205v-674l145 -145h324l145 145v674h205v-760l-264 -264h-496l-264 264v760zM410 1288v146h145l264 -265v-145h-145z" />
    <glyph glyph-name="Uacute" unicode="&#xda;" 
d="M205 1024h205v-674l145 -145h324l145 145v674h205v-760l-264 -264h-496l-264 264v760zM614 1024v145l265 265h145v-146l-264 -264h-146z" />
    <glyph glyph-name="Ucircumflex" unicode="&#xdb;" 
d="M205 819h205v-469l145 -145h324l145 145v469h205v-555l-264 -264h-496l-264 264v555zM410 1024v145l264 265h86l264 -265v-145h-145l-162 162l-162 -162h-145z" />
    <glyph glyph-name="Udieresis" unicode="&#xdc;" 
d="M205 1024h205v-674l145 -145h324l145 145v674h205v-760l-264 -264h-496l-264 264v760zM410 1229v205h204v-205h-204zM819 1229v205h205v-205h-205z" />
    <glyph glyph-name="Yacute" unicode="&#xdd;" 
d="M205 879v145h145l367 -367l366 367h146v-145l-410 -410v-469h-205v469zM614 1024v145l265 265h145v-146l-264 -264h-146z" />
    <glyph glyph-name="Thorn" unicode="&#xde;" 
d="M205 1434h205v-205h555l264 -264v-291l-264 -264h-555v-410h-205v1434zM410 1024v-410h469l145 146v119l-145 145h-469z" />
    <glyph glyph-name="germandbls" unicode="&#xdf;" 
d="M205 1169l264 265h291l264 -265v-409l205 -205v-291l-264 -264h-351v205h265l145 145v119l-145 145h-265v205h205v264l-145 146h-119l-145 -146v-1493h-205v1579z" />
    <glyph glyph-name="agrave" unicode="&#xe0;" 
d="M205 264v86l264 264h555v60l-145 145h-469v205h204v59l-204 205v146h145l264 -265v-145h146l264 -264v-760h-760zM555 205h469v205h-469l-102 -103z" />
    <glyph glyph-name="aacute" unicode="&#xe1;" 
d="M205 264v86l264 264h555v60l-145 145h-469v205h204v145l265 265h145v-146l-205 -205v-59h146l264 -264v-760h-760zM555 205h469v205h-469l-102 -103z" />
    <glyph glyph-name="acircumflex" unicode="&#xe2;" 
d="M205 264v86l264 264h555v60l-145 145h-469v350l264 265h86l264 -265v-204l205 -205v-760h-760zM555 205h469v205h-469l-102 -103zM614 1083v-59h205v59l-102 103z" />
    <glyph glyph-name="atilde" unicode="&#xe3;" 
d="M205 264v86l264 264h555v60l-145 145h-469v350l264 265h86l162 -162l161 162h146v-146l-205 -205v-118l205 -205v-760h-760zM555 205h469v205h-469l-102 -103zM614 1083v-59h205v59l-102 103z" />
    <glyph glyph-name="adieresis" unicode="&#xe4;" 
d="M205 264v86l264 264h555v60l-145 145h-469v205h555l264 -264v-760h-760zM410 1229v205h204v-205h-204zM555 205h469v205h-469l-102 -103zM819 1229v205h205v-205h-205z" />
    <glyph glyph-name="aring" unicode="&#xe5;" 
d="M205 264v86l264 264h555v60l-145 145h-469v205h555l264 -264v-760h-760zM555 205h469v205h-469l-102 -103zM614 1229v205h205v-205h-205z" />
    <glyph glyph-name="ae" unicode="&#xe6;" 
d="M205 264v86l264 264h145v60l-204 205v145h145l162 -162l162 162h86l264 -264v-350h-410v-205h205v-205h-555zM555 205h59v205h-59l-102 -103zM819 614h205v60l-102 102l-103 -102v-60z" />
    <glyph glyph-name="ccedilla" unicode="&#xe7;" 
d="M205 760l264 264h760v-205h-674l-145 -145v-324l145 -145h674v-205h-205v-145l-264 -265h-146v146l205 205v59h-350l-264 264v496z" />
    <glyph glyph-name="egrave" unicode="&#xe8;" 
d="M205 760l264 264h145v59l-204 205v146h145l264 -265v-145h146l264 -264v-350h-819v-60l145 -145h469v-205h-555l-264 264v496zM555 819l-145 -145v-60h614v60l-145 145h-324z" />
    <glyph glyph-name="eacute" unicode="&#xe9;" 
d="M205 760l264 264h145v145l265 265h145v-146l-205 -205v-59h146l264 -264v-350h-819v-60l145 -145h469v-205h-555l-264 264v496zM555 819l-145 -145v-60h614v60l-145 145h-324z" />
    <glyph glyph-name="ecircumflex" unicode="&#xea;" 
d="M410 965v204l264 265h86l264 -265v-204l205 -205v-350h-819v-60l145 -145h469v-205h-555l-264 264v496zM555 819l-145 -145v-60h614v60l-145 145h-324zM614 1083v-59h205v59l-102 103z" />
    <glyph glyph-name="edieresis" unicode="&#xeb;" 
d="M205 760l264 264h496l264 -264v-350h-819v-60l145 -145h469v-205h-555l-264 264v496zM410 1229v205h204v-205h-204zM555 819l-145 -145v-60h614v60l-145 145h-324zM819 1229v205h205v-205h-205z" />
    <glyph glyph-name="igrave" unicode="&#xec;" 
d="M410 1288v146h145l264 -265v-145h-145zM410 614v205h409v-614h205v-205h-614v205h204v409h-204z" />
    <glyph glyph-name="iacute" unicode="&#xed;" 
d="M410 614v205h409v-614h205v-205h-614v205h204v409h-204zM614 1024v145l265 265h145v-146l-264 -264h-146z" />
    <glyph glyph-name="icircumflex" unicode="&#xee;" 
d="M410 1024v145l264 265h86l264 -265v-145h-145l-162 162l-162 -162h-145zM410 614v205h409v-614h205v-205h-614v205h204v409h-204z" />
    <glyph glyph-name="idieresis" unicode="&#xef;" 
d="M410 1229v205h204v-205h-204zM410 819v205h409v-819h205v-205h-614v205h204v614h-204zM819 1229v205h205v-205h-205z" />
    <glyph glyph-name="eth" unicode="&#xf0;" 
d="M205 1229v205h350l162 -162l162 162h145v-146l-162 -162l367 -366v-496l-264 -264h-496l-264 264v86l264 264h555v60l-307 307l-162 -162h-145v146l161 161l-102 103h-264zM555 205h324l145 145v60h-469l-102 -103z" />
    <glyph glyph-name="ntilde" unicode="&#xf1;" 
d="M205 1024h205v145l264 265h86l162 -162l161 162h146v-146l-205 -205v-118l205 -205v-760h-205v674l-145 145h-469v-819h-205v1024zM614 1024h205v59l-102 103l-103 -103v-59z" />
    <glyph glyph-name="ograve" unicode="&#xf2;" 
d="M205 555l264 264h496l264 -264v-291l-264 -264h-496l-264 264v291zM410 1288v146h145l264 -265v-145h-145zM555 614l-145 -145v-119l145 -145h324l145 145v119l-145 145h-324z" />
    <glyph glyph-name="oacute" unicode="&#xf3;" 
d="M205 555l264 264h496l264 -264v-291l-264 -264h-496l-264 264v291zM555 614l-145 -145v-119l145 -145h324l145 145v119l-145 145h-324zM614 1024v145l265 265h145v-146l-264 -264h-146z" />
    <glyph glyph-name="ocircumflex" unicode="&#xf4;" 
d="M205 555l264 264h496l264 -264v-291l-264 -264h-496l-264 264v291zM410 1024v145l264 265h86l264 -265v-145h-145l-162 162l-162 -162h-145zM555 614l-145 -145v-119l145 -145h324l145 145v119l-145 145h-324z" />
    <glyph glyph-name="otilde" unicode="&#xf5;" 
d="M205 555l264 264h496l264 -264v-291l-264 -264h-496l-264 264v291zM410 1024v145l264 265h86l162 -162l161 162h146v-146l-264 -264h-86l-162 162l-162 -162h-145zM555 614l-145 -145v-119l145 -145h324l145 145v119l-145 145h-324z" />
    <glyph glyph-name="odieresis" unicode="&#xf6;" 
d="M205 555l264 264h496l264 -264v-291l-264 -264h-496l-264 264v291zM410 1024v205h204v-205h-204zM555 614l-145 -145v-119l145 -145h324l145 145v119l-145 145h-324zM819 1024v205h205v-205h-205z" />
    <glyph glyph-name="divide" unicode="&#xf7;" 
d="M205 614v205h1024v-205h-1024zM614 1024v205h205v-205h-205zM614 205v205h205v-205h-205z" />
    <glyph glyph-name="oslash" unicode="&#xf8;" 
d="M205 760l264 264h291l162 -162l161 162h146v-145l-162 -162l162 -162v-291l-264 -264h-291l-162 162l-162 -162h-145v145l162 162l-162 162v291zM555 819l-145 -145v-119l102 -102l264 264l-102 102h-119zM760 205h119l145 145v119l-102 102l-265 -264z" />
    <glyph glyph-name="ugrave" unicode="&#xf9;" 
d="M205 1024h205v-674l145 -145h469v819h205v-1024h-760l-264 264v760zM410 1288v146h145l264 -265v-145h-145z" />
    <glyph glyph-name="uacute" unicode="&#xfa;" 
d="M205 1024h205v-674l145 -145h469v819h205v-1024h-760l-264 264v760zM614 1024v145l265 265h145v-146l-264 -264h-146z" />
    <glyph glyph-name="ucircumflex" unicode="&#xfb;" 
d="M205 819h205v-469l145 -145h469v614h205v-819h-760l-264 264v555zM410 1024v145l264 265h86l264 -265v-145h-145l-162 162l-162 -162h-145z" />
    <glyph glyph-name="udieresis" unicode="&#xfc;" 
d="M205 819h205v-469l145 -145h469v614h205v-819h-760l-264 264v555zM410 1024v205h204v-205h-204zM819 1024v205h205v-205h-205z" />
    <glyph glyph-name="yacute" unicode="&#xfd;" 
d="M205 1024h205v-674l145 -145h469v819h205v-1169l-264 -265h-555v205h469l145 146v59h-555l-264 264v760zM614 1024v145l265 265h145v-146l-264 -264h-146z" />
    <glyph glyph-name="thorn" unicode="&#xfe;" 
d="M205 1434h205v-410h555l264 -264v-496l-264 -264h-555v-410h-205v1844zM410 819v-614h469l145 145v324l-145 145h-469z" />
    <glyph glyph-name="ydieresis" unicode="&#xff;" 
d="M205 1024h205v-674l145 -145h469v819h205v-1169l-264 -265h-555v205h469l145 146v59h-555l-264 264v760zM410 1229v205h204v-205h-204zM819 1229v205h205v-205h-205z" />
    <glyph glyph-name="Amacron" unicode="&#x100;" 
d="M205 760l264 264h496l264 -264v-760h-205v410h-614v-410h-205v760zM410 1229v205h614v-205h-614zM555 819l-145 -145v-60h614v60l-145 145h-324z" />
    <glyph glyph-name="amacron" unicode="&#x101;" 
d="M205 264v86l264 264h555v60l-145 145h-469v205h555l264 -264v-760h-760zM410 1229v205h614v-205h-614zM555 205h469v205h-469l-102 -103z" />
    <glyph glyph-name="Aogonek" unicode="&#x104;" 
d="M205 965l469 469h86l469 -469v-906l-162 -161l162 -162v-146h-146l-264 265v86l205 204v265h-614v-410h-205v965zM410 879v-265h614v265l-307 307z" />
    <glyph glyph-name="aogonek" unicode="&#x105;" 
d="M205 264v86l264 264h555v60l-145 145h-469v205h555l264 -264v-760h-205v-59l205 -205v-146h-146l-264 265v145h-350zM555 205h469v205h-469l-102 -103z" />
    <glyph glyph-name="Cacute" unicode="&#x106;" 
d="M205 760l264 264h145v145l265 265h145v-146l-205 -205v-59h146l264 -264v-146h-146l-204 205h-324l-145 -145v-324l145 -145h324l204 205h146v-146l-264 -264h-496l-264 264v496z" />
    <glyph glyph-name="cacute" unicode="&#x107;" 
d="M205 760l264 264h145v145l265 265h145v-146l-205 -205v-59h410v-205h-674l-145 -145v-324l145 -145h674v-205h-760l-264 264v496z" />
    <glyph glyph-name="Ccircumflex" unicode="&#x108;" 
d="M410 965v204l264 265h86l264 -265v-204l205 -205v-146h-146l-204 205h-324l-145 -145v-324l145 -145h324l204 205h146v-146l-264 -264h-496l-264 264v496zM614 1083v-59h205v59l-102 103z" />
    <glyph glyph-name="ccircumflex" unicode="&#x109;" 
d="M410 965v204l264 265h86l264 -265v-145h205v-205h-674l-145 -145v-324l145 -145h674v-205h-760l-264 264v496zM614 1083v-59h205v59l-102 103z" />
    <glyph glyph-name="Cdotaccent" unicode="&#x10a;" 
d="M205 760l264 264h496l264 -264v-146h-146l-204 205h-324l-145 -145v-324l145 -145h324l204 205h146v-146l-264 -264h-496l-264 264v496zM614 1229v205h205v-205h-205z" />
    <glyph glyph-name="cdotaccent" unicode="&#x10b;" 
d="M205 760l264 264h760v-205h-674l-145 -145v-324l145 -145h674v-205h-760l-264 264v496zM614 1229v205h205v-205h-205z" />
    <glyph glyph-name="Ccaron" unicode="&#x10c;" 
d="M205 760l264 264h145v59l-204 205v146h145l162 -162l162 162h145v-146l-205 -205v-59h146l264 -264v-146h-146l-204 205h-324l-145 -145v-324l145 -145h324l204 205h146v-146l-264 -264h-496l-264 264v496z" />
    <glyph glyph-name="ccaron" unicode="&#x10d;" 
d="M205 760l264 264h145v59l-204 205v146h145l162 -162l162 162h145v-146l-205 -205v-59h410v-205h-674l-145 -145v-324l145 -145h674v-205h-760l-264 264v496z" />
    <glyph glyph-name="Dcaron" unicode="&#x10e;" 
d="M205 1024h409v59l-204 205v146h145l162 -162l162 162h145v-146l-205 -205v-59h146l264 -264v-496l-264 -264h-760v1024zM410 819v-614h469l145 145v324l-145 145h-469z" />
    <glyph glyph-name="dcaron" unicode="&#x10f;" 
d="M205 760l264 264h145v410h205v-1434h-350l-264 264v496zM555 819l-145 -145v-324l145 -145h59v614h-59zM1024 1434h205v-410h-205v410z" />
    <glyph glyph-name="Dcroat" unicode="&#x110;" 
d="M205 614v205h205v615h555l264 -265v-905l-264 -264h-555v614h-205zM614 1229v-410h205v-205h-205v-409h265l145 145v733l-145 146h-265z" />
    <glyph glyph-name="dcroat" unicode="&#x111;" 
d="M205 555l264 264h350v205h-205v205h205v205h205v-205h205v-205h-205v-1024h-555l-264 264v291zM555 614l-145 -145v-119l145 -145h264v409h-264z" />
    <glyph glyph-name="Emacron" unicode="&#x112;" 
d="M205 1024h1024v-205h-819v-205h614v-204h-614v-205h819v-205h-1024v1024zM410 1229v205h614v-205h-614z" />
    <glyph glyph-name="emacron" unicode="&#x113;" 
d="M205 760l264 264h496l264 -264v-350h-819v-60l145 -145h469v-205h-555l-264 264v496zM410 1229v205h614v-205h-614zM555 819l-145 -145v-60h614v60l-145 145h-324z" />
    <glyph glyph-name="Edotaccent" unicode="&#x116;" 
d="M205 1024h1024v-205h-819v-205h614v-204h-614v-205h819v-205h-1024v1024zM614 1229v205h205v-205h-205z" />
    <glyph glyph-name="edotaccent" unicode="&#x117;" 
d="M205 760l264 264h496l264 -264v-350h-819v-60l145 -145h469v-205h-555l-264 264v496zM555 819l-145 -145v-60h614v60l-145 145h-324zM614 1229v205h205v-205h-205z" />
    <glyph glyph-name="Eogonek" unicode="&#x118;" 
d="M205 1434h1024v-205h-819v-410h614v-205h-614v-409h819v-205h-205v-59l205 -205v-146h-146l-264 265v145h-614v1434z" />
    <glyph glyph-name="eogonek" unicode="&#x119;" 
d="M205 760l264 264h496l264 -264v-350h-819v-60l145 -145h469v-264l205 -205v-146h-146l-264 265v145h-350l-264 264v496zM555 819l-145 -145v-60h614v60l-145 145h-324z" />
    <glyph glyph-name="Ecaron" unicode="&#x11a;" 
d="M205 1024h409v59l-204 205v146h145l162 -162l162 162h145v-146l-205 -205v-59h410v-205h-819v-205h614v-204h-614v-205h819v-205h-1024v1024z" />
    <glyph glyph-name="ecaron" unicode="&#x11b;" 
d="M205 760l264 264h145v59l-204 205v146h145l162 -162l162 162h145v-146l-205 -205v-59h146l264 -264v-350h-819v-60l145 -145h469v-205h-555l-264 264v496zM555 819l-145 -145v-60h614v60l-145 145h-324z" />
    <glyph glyph-name="Gcircumflex" unicode="&#x11c;" 
d="M410 965v204l264 265h86l264 -265v-145h205v-205h-674l-145 -145v-324l145 -145h469v205h-205v204h410v-614h-760l-264 264v496zM614 1083v-59h205v59l-102 103z" />
    <glyph glyph-name="gcircumflex" unicode="&#x11d;" 
d="M410 965v204l264 265h86l264 -265v-145h205v-1169l-264 -265h-555v205h469l145 146v59h-555l-264 264v496zM555 819l-145 -145v-324l145 -145h469v614h-469zM614 1083v-59h205v59l-102 103z" />
    <glyph glyph-name="Gdotaccent" unicode="&#x120;" 
d="M205 760l264 264h760v-205h-674l-145 -145v-324l145 -145h469v205h-205v204h410v-614h-760l-264 264v496zM614 1229v205h205v-205h-205z" />
    <glyph glyph-name="gdotaccent" unicode="&#x121;" 
d="M205 760l264 264h760v-1169l-264 -265h-555v205h469l145 146v59h-555l-264 264v496zM555 819l-145 -145v-324l145 -145h469v614h-469zM614 1229v205h205v-205h-205z" />
    <glyph glyph-name="Hbar" unicode="&#x126;" 
d="M205 1434h205v-205h614v205h205v-1434h-205v614h-614v-614h-205v1434zM410 1024v-205h614v205h-614z" />
    <glyph glyph-name="hbar" unicode="&#x127;" 
d="M205 1024v205h205v205h204v-205h205v-205h-205v-205h351l264 -264v-555h-205v469l-145 145h-265v-614h-204v1024h-205z" />
    <glyph glyph-name="Itilde" unicode="&#x128;" 
d="M410 1024v145l264 265h86l162 -162l161 162h146v-146l-264 -264h-86l-162 162l-162 -162h-145zM410 614v205h614v-205h-205v-409h205v-205h-614v205h204v409h-204z" />
    <glyph glyph-name="itilde" unicode="&#x129;" 
d="M410 1024v145l264 265h86l162 -162l161 162h146v-146l-264 -264h-86l-162 162l-162 -162h-145zM410 614v205h409v-614h205v-205h-614v205h204v409h-204z" />
    <glyph glyph-name="Imacron" unicode="&#x12a;" 
d="M410 1229v205h614v-205h-614zM410 819v205h614v-205h-205v-614h205v-205h-614v205h204v614h-204z" />
    <glyph glyph-name="imacron" unicode="&#x12b;" 
d="M410 1229v205h614v-205h-614zM410 819v205h409v-819h205v-205h-614v205h204v614h-204z" />
    <glyph glyph-name="Iogonek" unicode="&#x12e;" 
d="M410 1229v205h614v-205h-205v-1024h205v-205h-205v-59l205 -205v-146h-145l-265 265v145h-204v205h204v1024h-204z" />
    <glyph glyph-name="iogonek" unicode="&#x12f;" 
d="M410 819v205h409v-819h205v-205h-205v-59l205 -205v-146h-145l-265 265v145h-204v205h204v614h-204zM614 1229v205h205v-205h-205z" />
    <glyph glyph-name="Idotaccent" unicode="&#x130;" 
d="M410 819v205h614v-205h-205v-614h205v-205h-614v205h204v614h-204zM614 1229v205h205v-205h-205z" />
    <glyph glyph-name="dotlessi" unicode="&#x131;" 
d="M410 819v205h409v-819h205v-205h-614v205h204v614h-204z" />
    <glyph glyph-name="IJ" unicode="&#x132;" 
d="M205 1434h205v-1434h-205v1434zM614 264v146h146l162 -162l102 102v1084h205v-1170l-264 -264h-86z" />
    <glyph glyph-name="ij" unicode="&#x133;" 
d="M205 819v205h409v-819h205v-205h-614v205h205v614h-205zM410 1229v205h204v-205h-204zM1024 -59v1083h205v-1169l-264 -265h-146v146zM1024 1229v205h205v-205h-205z" />
    <glyph glyph-name="Jcircumflex" unicode="&#x134;" 
d="M205 264v146h145l205 -205h119l145 145v469h205v-555l-264 -264h-291zM614 1024v145l265 265h86l264 -265v-145h-146l-161 162l-162 -162h-146z" />
    <glyph glyph-name="jcircumflex" unicode="&#x135;" 
d="M410 1024v145l264 265h86l264 -265v-145h-145l-162 162l-162 -162h-145zM614 -59v878h205v-964l-264 -265h-145v146z" />
    <glyph glyph-name="kgreenlandic" unicode="&#x138;" 
d="M205 1024h205v-410h264l409 410h146v-145l-367 -367l367 -367v-145h-146l-409 410h-264v-410h-205v1024z" />
    <glyph glyph-name="Lcaron" unicode="&#x13d;" 
d="M205 1434h205v-1229h819v-205h-1024v1434zM819 1169v265h205v-351l-264 -264h-146v146z" />
    <glyph glyph-name="lcaron" unicode="&#x13e;" 
d="M205 1229v205h409v-1229h205v-205h-614v205h205v1024h-205zM1024 1169v265h205v-351l-264 -264h-146v146z" />
    <glyph glyph-name="Ldot" unicode="&#x13f;" 
d="M205 1434h205v-1229h819v-205h-1024v1434zM1024 614v205h205v-205h-205z" />
    <glyph glyph-name="ldot" unicode="&#x140;" 
d="M205 1229v205h409v-1229h205v-205h-614v205h205v1024h-205zM1024 614v205h205v-205h-205z" />
    <glyph glyph-name="Lslash" unicode="&#x141;" 
d="M205 614v205h205v615h204v-410h205v-205h-205v-614h615v-205h-819v614h-205z" />
    <glyph glyph-name="lslash" unicode="&#x142;" 
d="M410 1229v205h409v-410h205v-205h-205v-614h205v-205h-614v205h204v409h-204v205h204v410h-204z" />
    <glyph glyph-name="Nacute" unicode="&#x143;" 
d="M205 1024h205v-205h145l410 -409h59v614h205v-1024h-205v205h-145l-410 409h-59v-614h-205v1024zM614 1024v145l265 265h145v-146l-264 -264h-146z" />
    <glyph glyph-name="nacute" unicode="&#x144;" 
d="M205 1024h409v145l265 265h145v-146l-205 -205v-59h146l264 -264v-760h-205v674l-145 145h-469v-819h-205v1024z" />
    <glyph glyph-name="Ncaron" unicode="&#x147;" 
d="M205 1024h205v-205h145l410 -409h59v614h205v-1024h-205v205h-145l-410 409h-59v-614h-205v1024zM410 1288v146h145l162 -162l162 162h145v-146l-264 -264h-86z" />
    <glyph glyph-name="ncaron" unicode="&#x148;" 
d="M205 1024h409v59l-204 205v146h145l162 -162l162 162h145v-146l-205 -205v-59h146l264 -264v-760h-205v674l-145 145h-469v-819h-205v1024z" />
    <glyph glyph-name="napostrophe" unicode="&#x149;" 
d="M205 1434h205v-615h-205v615zM614 1024h351l264 -264v-760h-205v674l-145 145h-60v-819h-205v1024z" />
    <glyph glyph-name="Eng" unicode="&#x14a;" 
d="M205 1434h205v-410h145l410 -410h59v820h205v-1579l-264 -265h-555v205h469l145 146v469h-145l-410 409h-59v-819h-205v1434z" />
    <glyph glyph-name="eng" unicode="&#x14b;" 
d="M205 1024h760l264 -264v-905l-264 -265h-555v205h469l145 146v733l-145 145h-469v-819h-205v1024z" />
    <glyph glyph-name="Omacron" unicode="&#x14c;" 
d="M205 760l264 264h496l264 -264v-496l-264 -264h-496l-264 264v496zM410 1229v205h614v-205h-614zM555 819l-145 -145v-324l145 -145h324l145 145v324l-145 145h-324z" />
    <glyph glyph-name="omacron" unicode="&#x14d;" 
d="M205 555l264 264h496l264 -264v-291l-264 -264h-496l-264 264v291zM410 1024v205h614v-205h-614zM555 614l-145 -145v-119l145 -145h324l145 145v119l-145 145h-324z" />
    <glyph glyph-name="OE" unicode="&#x152;" 
d="M205 1169l264 265h760v-205h-410v-410h205v-205h-205v-409h410v-205h-760l-264 264v905zM555 1229l-145 -146v-733l145 -145h59v1024h-59z" />
    <glyph glyph-name="oe" unicode="&#x153;" 
d="M205 760l264 264h86l162 -162l162 162h86l264 -264v-350h-410v-60l146 -145h264v-205h-350l-162 162l-162 -162h-86l-264 264v496zM410 674v-324l102 -102l102 102v324l-102 102zM819 674v-60h205v60l-102 102z" />
    <glyph glyph-name="Racute" unicode="&#x154;" 
d="M205 1024h409v145l265 265h145v-146l-205 -205v-59h146l264 -264v-86l-205 -205v-119l205 -205v-145h-146l-264 264v146h-409v-410h-205v1024zM410 819v-205h469l102 103l-102 102h-469z" />
    <glyph glyph-name="racute" unicode="&#x155;" 
d="M410 1024h204v-205h60l145 146v204l264 265h146v-146l-205 -205v-59h205v-205h-264l-205 -205h-146v-614h-204v1024z" />
    <glyph glyph-name="Rcaron" unicode="&#x158;" 
d="M205 1024h409v59l-204 205v146h145l162 -162l162 162h145v-146l-205 -205v-59h146l264 -264v-86l-205 -205v-119l205 -205v-145h-146l-264 264v146h-409v-410h-205v1024zM410 819v-205h469l102 103l-102 102h-469z" />
    <glyph glyph-name="rcaron" unicode="&#x159;" 
d="M410 1024h204v-205h60l145 146v118l-205 205v146h146l162 -162l161 162h146v-146l-205 -205v-59h205v-205h-264l-205 -205h-146v-614h-204v1024z" />
    <glyph glyph-name="sacute" unicode="&#x15b;" 
d="M205 674v86l264 264h145v145l265 265h145v-146l-205 -205v-59h410v-205h-674l-102 -102l102 -103h410l264 -264v-86l-264 -264h-760v205h674l102 102l-102 103h-410z" />
    <glyph glyph-name="Scedilla" unicode="&#x15e;" 
d="M205 1169l264 265h496l264 -265v-145h-146l-204 205h-324l-145 -146v-118l145 -146h410l264 -264v-291l-264 -264h-146v-145l-264 -265h-145v146l204 205v59h-145l-264 264v146h145l205 -205h324l145 145v119l-145 145h-410l-264 265v290z" />
    <glyph glyph-name="scedilla" unicode="&#x15f;" 
d="M205 674v86l264 264h760v-205h-674l-102 -102l102 -103h410l264 -264v-86l-264 -264h-146v-145l-264 -265h-145v146l204 205v59h-409v205h674l102 102l-102 103h-410z" />
    <glyph glyph-name="scaron" unicode="&#x161;" 
d="M205 674v86l264 264h145v59l-204 205v146h145l162 -162l162 162h145v-146l-205 -205v-59h410v-205h-674l-102 -102l102 -103h410l264 -264v-86l-264 -264h-760v205h674l102 102l-102 103h-410z" />
    <glyph glyph-name="uni0162" unicode="&#x162;" 
d="M205 1229v205h1024v-205h-410v-1084l205 -204v-86l-264 -265h-146v146l162 162l-162 161v1170h-409z" />
    <glyph glyph-name="uni0163" unicode="&#x163;" 
d="M410 819v205h204v410h205v-410h205v-205h-205v-469l103 -102l161 162h146v-146l-205 -205v-204l-264 -265h-146v146l205 205v118l-205 205v555h-204z" />
    <glyph glyph-name="Tcaron" unicode="&#x164;" 
d="M205 819v205h409v59l-204 205v146h145l162 -162l162 162h145v-146l-205 -205v-59h410v-205h-410v-819h-205v819h-409z" />
    <glyph glyph-name="tcaron" unicode="&#x165;" 
d="M205 819v205h205v410h204v-410h205v-205h-205v-469l205 -205v-145h-145l-264 264v555h-205zM1024 1434h205v-410h-205v410z" />
    <glyph glyph-name="Umacron" unicode="&#x16a;" 
d="M205 1024h205v-674l145 -145h324l145 145v674h205v-760l-264 -264h-496l-264 264v760zM410 1229v205h614v-205h-614z" />
    <glyph glyph-name="umacron" unicode="&#x16b;" 
d="M205 819h205v-469l145 -145h469v614h205v-819h-760l-264 264v555zM410 1024v205h614v-205h-614z" />
    <glyph glyph-name="Uring" unicode="&#x16e;" 
d="M205 1024h205v-674l145 -145h324l145 145v674h205v-760l-264 -264h-496l-264 264v760zM614 1229v205h205v-205h-205z" />
    <glyph glyph-name="uring" unicode="&#x16f;" 
d="M205 1024h205v-674l145 -145h469v819h205v-1024h-760l-264 264v760zM614 1229v205h205v-205h-205z" />
    <glyph glyph-name="Uogonek" unicode="&#x172;" 
d="M205 1434h205v-1084l145 -145h324l145 145v1084h205v-1170l-264 -264h-146v-59l205 -205v-146h-145l-265 265v145h-145l-264 264v1170z" />
    <glyph glyph-name="uogonek" unicode="&#x173;" 
d="M205 1024h205v-674l145 -145h469v819h205v-1024h-205v-59l205 -205v-146h-146l-264 265v145h-350l-264 264v760z" />
    <glyph glyph-name="Wcircumflex" unicode="&#x174;" 
d="M205 819h205v-469l102 -102l102 102v264h205v-264l103 -102l102 102v469h205v-555l-264 -264h-86l-162 162l-162 -162h-86l-264 264v555zM410 1024v145l264 265h86l264 -265v-145h-145l-162 162l-162 -162h-145z" />
    <glyph glyph-name="wcircumflex" unicode="&#x175;" 
d="M205 819h205v-469l102 -102l162 162h86l162 -162l102 102v469h205v-555l-264 -264h-86l-162 162l-162 -162h-86l-264 264v555zM410 1024v145l264 265h86l264 -265v-145h-145l-162 162l-162 -162h-145z" />
    <glyph glyph-name="Ycircumflex" unicode="&#x176;" 
d="M205 674v145h145l367 -366l366 366h146v-145l-410 -410v-264h-205v264zM410 1024v145l264 265h86l264 -265v-145h-145l-162 162l-162 -162h-145z" />
    <glyph glyph-name="ycircumflex" unicode="&#x177;" 
d="M205 819h205v-469l145 -145h469v614h205v-964l-264 -265h-555v205h469l145 146v59h-555l-264 264v555zM410 1024v145l264 265h86l264 -265v-145h-145l-162 162l-162 -162h-145z" />
    <glyph glyph-name="Ydieresis" unicode="&#x178;" 
d="M205 879v145h145l367 -367l366 367h146v-145l-410 -410v-469h-205v469zM410 1229v205h204v-205h-204zM819 1229v205h205v-205h-205z" />
    <glyph glyph-name="Zacute" unicode="&#x179;" 
d="M205 819v205h409v145l265 265h145v-146l-205 -205v-59h410v-350l-264 -264h-410l-145 -146v-59h819v-205h-1024v350l264 264h410l145 146v59h-819z" />
    <glyph glyph-name="zacute" unicode="&#x17a;" 
d="M205 819v205h409v145l265 265h145v-146l-205 -205v-59h410v-205h-205v-145l-410 -410v-59h615v-205h-1024v205h205v145l409 410v59h-614z" />
    <glyph glyph-name="Zdotaccent" unicode="&#x17b;" 
d="M205 819v205h1024v-350l-264 -264h-410l-145 -146v-59h819v-205h-1024v350l264 264h410l145 146v59h-819zM614 1229v205h205v-205h-205z" />
    <glyph glyph-name="zdotaccent" unicode="&#x17c;" 
d="M205 819v205h1024v-205h-205v-145l-410 -410v-59h615v-205h-1024v205h205v145l409 410v59h-614zM614 1229v205h205v-205h-205z" />
    <glyph glyph-name="Zcaron" unicode="&#x17d;" 
d="M205 819v205h409v59l-204 205v146h145l162 -162l162 162h145v-146l-205 -205v-59h410v-350l-264 -264h-410l-145 -146v-59h819v-205h-1024v350l264 264h410l145 146v59h-819z" />
    <glyph glyph-name="zcaron" unicode="&#x17e;" 
d="M205 819v205h409v59l-204 205v146h145l162 -162l162 162h145v-146l-205 -205v-59h410v-205h-205v-145l-410 -410v-59h615v-205h-1024v205h205v145l409 410v59h-614z" />
    <glyph glyph-name="longs" unicode="&#x17f;" 
d="M614 1169l265 265h145v-146l-205 -205v-1083h-205v1169z" />
    <glyph glyph-name="uni0188" unicode="&#x188;" 
d="M205 760l264 264h350v410h410v-205h-205v-205h205v-205h-674l-145 -145v-324l145 -145h674v-205h-760l-264 264v496z" />
    <glyph glyph-name="uni018E" unicode="&#x18e;" 
d="M205 1229v205h1024v-1434h-1024v205h819v409h-614v205h614v410h-819z" />
    <glyph glyph-name="uni018F" unicode="&#x18f;" 
d="M205 1024v145l264 265h496l264 -265v-905l-264 -264h-496l-264 264v555h819v264l-145 146h-324l-205 -205h-145zM410 614v-264l145 -145h324l145 145v264h-614z" />
    <glyph glyph-name="florin" unicode="&#x192;" 
d="M410 614v205h204v350l265 265h145v-146l-205 -205v-264h205v-205h-205v-759l-264 -265h-145v146l204 205v673h-204z" />
    <glyph glyph-name="uni0199" unicode="&#x199;" 
d="M410 1169l264 265h350v-205h-264l-146 -146v-469h60l409 410h146v-145l-367 -367l367 -367v-145h-146l-409 410h-60v-410h-204v1169z" />
    <glyph glyph-name="uni019B" unicode="&#x19b;" 
d="M205 1229v205h350l264 -265v-145h205v-205h-205v-59l205 -205v-205l205 -205v-145h-146l-264 264v205l-102 102l-103 -102v-205l-264 -264h-145v145l205 205v205l204 205v59h-204v205h204v59l-145 146h-264z" />
    <glyph glyph-name="uni019E" unicode="&#x19e;" 
d="M205 1024h760l264 -264v-1170h-205v1084l-145 145h-469v-819h-205v1024z" />
    <glyph glyph-name="uni01A5" unicode="&#x1a5;" 
d="M205 1169l264 265h350v-205h-264l-145 -146v-59h555l264 -264v-496l-264 -264h-555v-410h-205v1579zM410 819v-614h469l145 145v324l-145 145h-469z" />
    <glyph glyph-name="uni01A7" unicode="&#x1a7;" 
d="M205 1024v145l264 265h496l264 -265v-290l-264 -265h-410l-145 -145v-119l145 -145h324l204 205h146v-146l-264 -264h-496l-264 264v291l264 264h410l145 146v118l-145 146h-324l-205 -205h-145z" />
    <glyph glyph-name="uni01A8" unicode="&#x1a8;" 
d="M205 264v86l264 264h410l102 103l-102 102h-469v205h555l264 -264v-86l-264 -264h-410l-102 -103l102 -102h469v-205h-555z" />
    <glyph glyph-name="uni01AB" unicode="&#x1ab;" 
d="M410 819v205h204v410h205v-410h205v-205h-205v-469l205 -205v-86l-264 -264h-350v205h264l102 102l-162 162v555h-204z" />
    <glyph glyph-name="uni01AD" unicode="&#x1ad;" 
d="M410 819v205h204v145l265 265h145v-146l-205 -205v-59h205v-205h-205v-469l205 -205v-145h-145l-265 264v555h-204z" />
    <glyph glyph-name="uni01BB" unicode="&#x1bb;" 
d="M205 1024v145l264 265h496l264 -265v-290l-162 -162l162 -162v-145h-146l-161 161l-162 -161h-205l-145 -146v-59h819v-205h-1024v350l264 264h205l102 103l-162 162v145h146l162 -162l102 103v118l-145 146h-324l-205 -205h-145z" />
    <glyph glyph-name="uni01C0" unicode="&#x1c0;" 
d="M614 1434h205v-1844h-205v1844z" />
    <glyph glyph-name="uni01C1" unicode="&#x1c1;" 
d="M410 1434h204v-1844h-204v1844zM819 1434h205v-1844h-205v1844z" />
    <glyph glyph-name="uni01C2" unicode="&#x1c2;" 
d="M205 614v205h409v615h205v-615h410v-205h-410v-204h410v-205h-410v-615h-205v615h-409v205h409v204h-409z" />
    <glyph glyph-name="uni01C3" unicode="&#x1c3;" 
d="M614 1434h205v-1024h-205v1024zM614 0v205h205v-205h-205z" />
    <glyph glyph-name="uni01CD" unicode="&#x1cd;" 
d="M205 760l264 264h145v59l-204 205v146h145l162 -162l162 162h145v-146l-205 -205v-59h146l264 -264v-760h-205v410h-614v-410h-205v760zM555 819l-145 -145v-60h614v60l-145 145h-324z" />
    <glyph glyph-name="uni01CE" unicode="&#x1ce;" 
d="M205 264v86l264 264h555v60l-145 145h-469v205h204v59l-204 205v146h145l162 -162l162 162h145v-146l-205 -205v-59h146l264 -264v-760h-760zM555 205h469v205h-469l-102 -103z" />
    <glyph glyph-name="uni01CF" unicode="&#x1cf;" 
d="M410 1288v146h145l162 -162l162 162h145v-146l-264 -264h-86zM410 614v205h614v-205h-205v-409h205v-205h-614v205h204v409h-204z" />
    <glyph glyph-name="uni01D0" unicode="&#x1d0;" 
d="M410 1288v146h145l162 -162l162 162h145v-146l-264 -264h-86zM410 614v205h409v-614h205v-205h-614v205h204v409h-204z" />
    <glyph glyph-name="uni01D1" unicode="&#x1d1;" 
d="M205 760l264 264h145v59l-204 205v146h145l162 -162l162 162h145v-146l-205 -205v-59h146l264 -264v-496l-264 -264h-496l-264 264v496zM555 819l-145 -145v-324l145 -145h324l145 145v324l-145 145h-324z" />
    <glyph glyph-name="uni01D2" unicode="&#x1d2;" 
d="M205 555l264 264h496l264 -264v-291l-264 -264h-496l-264 264v291zM410 1288v146h145l162 -162l162 162h145v-146l-264 -264h-86zM555 614l-145 -145v-119l145 -145h324l145 145v119l-145 145h-324z" />
    <glyph glyph-name="uni01D3" unicode="&#x1d3;" 
d="M205 1024h205v-674l145 -145h324l145 145v674h205v-760l-264 -264h-496l-264 264v760zM410 1288v146h145l162 -162l162 162h145v-146l-264 -264h-86z" />
    <glyph glyph-name="uni01D4" unicode="&#x1d4;" 
d="M205 1024h205v-674l145 -145h469v819h205v-1024h-760l-264 264v760zM410 1288v146h145l162 -162l162 162h145v-146l-264 -264h-86z" />
    <glyph glyph-name="uni01D5" unicode="&#x1d5;" 
d="M205 614h205v-264l145 -145h324l145 145v264h205v-350l-264 -264h-496l-264 264v350zM410 1229v205h614v-205h-614zM410 819v205h204v-205h-204zM819 819v205h205v-205h-205z" />
    <glyph glyph-name="uni01D6" unicode="&#x1d6;" 
d="M205 614h205v-264l145 -145h469v409h205v-614h-760l-264 264v350zM410 1229v205h614v-205h-614zM410 819v205h204v-205h-204zM819 819v205h205v-205h-205z" />
    <glyph glyph-name="uni01D7" unicode="&#x1d7;" 
d="M205 819v205h205v-205h-205zM205 614h205v-264l145 -145h324l145 145v264h205v-350l-264 -264h-496l-264 264v350zM614 1024v145l265 265h145v-146l-264 -264h-146zM1024 819v205h205v-205h-205z" />
    <glyph glyph-name="uni01D8" unicode="&#x1d8;" 
d="M205 819v205h205v-205h-205zM205 614h205v-264l145 -145h469v409h205v-614h-760l-264 264v350zM614 1024v145l265 265h145v-146l-264 -264h-146zM1024 819v205h205v-205h-205z" />
    <glyph glyph-name="uni01D9" unicode="&#x1d9;" 
d="M205 819v205h205v-205h-205zM205 614h205v-264l145 -145h324l145 145v264h205v-350l-264 -264h-496l-264 264v350zM410 1288v146h145l162 -162l162 162h145v-146l-264 -264h-86zM1024 819v205h205v-205h-205z" />
    <glyph glyph-name="uni01DA" unicode="&#x1da;" 
d="M205 819v205h205v-205h-205zM205 614h205v-264l145 -145h469v409h205v-614h-760l-264 264v350zM410 1288v146h145l162 -162l162 162h145v-146l-264 -264h-86zM1024 819v205h205v-205h-205z" />
    <glyph glyph-name="uni01DB" unicode="&#x1db;" 
d="M205 819v205h205v-205h-205zM205 614h205v-264l145 -145h324l145 145v264h205v-350l-264 -264h-496l-264 264v350zM410 1288v146h145l162 -162l162 162h145v-146l-264 -264h-86zM1024 819v205h205v-205h-205z" />
    <glyph glyph-name="uni01DC" unicode="&#x1dc;" 
d="M205 819v205h205v-205h-205zM205 614h205v-264l145 -145h469v409h205v-614h-760l-264 264v350zM410 1288v146h145l162 -162l162 162h145v-146l-264 -264h-86zM1024 819v205h205v-205h-205z" />
    <glyph glyph-name="uni01DD" unicode="&#x1dd;" 
d="M205 614h819v60l-145 145h-469v205h555l264 -264v-496l-264 -264h-496l-264 264v350zM410 410v-60l145 -145h324l145 145v60h-614z" />
    <glyph glyph-name="uni01E2" unicode="&#x1e2;" 
d="M205 760l264 264h760v-205h-410v-205h205v-204h-205v-205h410v-205h-615v205h-204v-205h-205v760zM410 1229v205h614v-205h-614zM555 819l-145 -145v-264h204v409h-59z" />
    <glyph glyph-name="uni01E3" unicode="&#x1e3;" 
d="M205 264v86l264 264h145v60l-204 205v145h145l162 -162l162 162h86l264 -264v-350h-410v-205h205v-205h-555zM410 1229v205h614v-205h-614zM555 205h59v205h-59l-102 -103zM819 614h205v60l-102 102l-103 -102v-60z" />
    <glyph glyph-name="uni01F0" unicode="&#x1f0;" 
d="M410 1288v146h145l162 -162l162 162h145v-146l-264 -264h-86zM614 -59v878h205v-964l-264 -265h-145v146z" />
    <glyph glyph-name="uni01F8" unicode="&#x1f8;" 
d="M205 1024h205v-205h145l410 -409h59v614h205v-1024h-205v205h-145l-410 409h-59v-614h-205v1024zM410 1288v146h145l264 -265v-145h-145z" />
    <glyph glyph-name="uni01F9" unicode="&#x1f9;" 
d="M205 1024h409v59l-204 205v146h145l264 -265v-145h146l264 -264v-760h-205v674l-145 145h-469v-819h-205v1024z" />
    <glyph glyph-name="uni0232" unicode="&#x232;" 
d="M205 879v145h145l367 -367l366 367h146v-145l-410 -410v-469h-205v469zM410 1229v205h614v-205h-614z" />
    <glyph glyph-name="uni0233" unicode="&#x233;" 
d="M205 1024h205v-674l145 -145h469v819h205v-1169l-264 -265h-555v205h469l145 146v59h-555l-264 264v760zM410 1229v205h614v-205h-614z" />
    <glyph glyph-name="uni0237" unicode="&#x237;" 
d="M614 -59v1083h205v-1169l-264 -265h-145v146z" />
    <glyph glyph-name="uni023F" unicode="&#x23f;" 
d="M205 674v86l264 264h760v-205h-674l-102 -102l102 -103h410l264 -264v-86l-264 -264h-146v-59l146 -146h264v-205h-350l-265 265v145h-409v205h674l102 102l-102 103h-410z" />
    <glyph glyph-name="uni0240" unicode="&#x240;" 
d="M205 819v205h1024v-205h-205v-145l-410 -410v-119l351 -350h264v-205h-350l-410 410h-264v205h205v145l409 410v59h-614z" />
    <glyph glyph-name="uni0245" unicode="&#x245;" 
d="M410 760v205l204 204v265h205v-265l205 -204v-205l205 -205v-555h-205v469l-205 205v205l-102 102l-103 -102v-205l-204 -205v-469h-205v555z" />
    <glyph glyph-name="uni0250" unicode="&#x250;" 
d="M205 1024h760l264 -264v-86l-264 -264h-555v-60l145 -145h469v-205h-555l-264 264v760zM410 819v-205h469l102 103l-102 102h-469z" />
    <glyph glyph-name="uni0251" unicode="&#x251;" 
d="M205 760l264 264h760v-1024h-205v205h-59l-205 -205h-291l-264 264v496zM555 819l-145 -145v-324l145 -145h119l205 205h145v409h-469z" />
    <glyph glyph-name="uni0252" unicode="&#x252;" 
d="M205 1024h205v-205h59l205 205h291l264 -264v-496l-264 -264h-760v1024zM410 614v-409h469l145 145v324l-145 145h-119l-205 -205h-145z" />
    <glyph glyph-name="uni0253" unicode="&#x253;" 
d="M205 1169l264 265h350v-205h-264l-145 -146v-59h555l264 -264v-496l-264 -264h-760v1169zM410 819v-614h469l145 145v324l-145 145h-469z" />
    <glyph glyph-name="uni0254" unicode="&#x254;" 
d="M205 819v205h760l264 -264v-496l-264 -264h-760v205h674l145 145v324l-145 145h-674z" />
    <glyph glyph-name="uni0255" unicode="&#x255;" 
d="M205 760l264 264h760v-205h-674l-145 -145v-324l145 -145h59v145l265 264h86l264 -264v-86l-264 -264h-146v-205h-205v205h-145l-264 264v496zM819 205h60l102 102l-59 60l-103 -103v-59z" />
    <glyph glyph-name="uni0256" unicode="&#x256;" 
d="M205 760l264 264h350v410h205v-1493l205 -205v-146h-146l-264 265v145h-350l-264 264v496zM555 819l-145 -145v-324l145 -145h264v614h-264z" />
    <glyph glyph-name="uni0257" unicode="&#x257;" 
d="M205 760l264 264h350v145l264 265h146v-146l-205 -205v-1083h-555l-264 264v496zM555 819l-145 -145v-324l145 -145h264v614h-264z" />
    <glyph glyph-name="uni0258" unicode="&#x258;" 
d="M205 760l264 264h496l264 -264v-496l-264 -264h-555v205h469l145 145v60h-819v350zM555 819l-145 -145v-60h614v60l-145 145h-324z" />
    <glyph glyph-name="uni0259" unicode="&#x259;" 
d="M205 614h819v60l-145 145h-469v205h555l264 -264v-496l-264 -264h-496l-264 264v350zM410 410v-60l145 -145h324l145 145v60h-614z" />
    <glyph glyph-name="uni025A" unicode="&#x25a;" 
d="M205 819v205h350l264 -264v-350h60l204 204h146v-145l-264 -264h-205l-205 -205h-86l-264 264v350h409v60l-145 145h-264zM410 410v-60l102 -102l102 102v60h-204z" />
    <glyph glyph-name="uni025B" unicode="&#x25b;" 
d="M205 674v86l264 264h760v-205h-674l-102 -102l102 -103h469v-204h-469l-102 -103l102 -102h674v-205h-760l-264 264v86l162 162z" />
    <glyph glyph-name="uni025C" unicode="&#x25c;" 
d="M205 819v205h760l264 -264v-86l-162 -162l162 -162v-86l-264 -264h-760v205h674l102 102l-102 103h-469v204h469l102 103l-102 102h-674z" />
    <glyph glyph-name="uni025D" unicode="&#x25d;" 
d="M205 819v205h350l264 -264v-86l-162 -162l103 -102h119l204 204h146v-145l-264 -264h-205l-205 -205h-350v205h264l102 102l-102 103h-264v204h264l102 103l-102 102h-264z" />
    <glyph glyph-name="uni025E" unicode="&#x25e;" 
d="M205 760l264 264h496l264 -264v-86l-162 -162l162 -162v-86l-264 -264h-496l-264 264v496zM555 819l-145 -145v-324l145 -145h324l102 102l-102 103h-265v204h265l102 103l-102 102h-324z" />
    <glyph glyph-name="uni025F" unicode="&#x25f;" 
d="M410 205v205h204v614h205v-614h205v-205h-205v-350l-264 -265h-145v146l204 205v264h-204z" />
    <glyph glyph-name="uni0260" unicode="&#x260;" 
d="M205 760l264 264h350v145l264 265h146v-146l-205 -205v-1228l-264 -265h-350v205h264l145 146v59h-350l-264 264v496zM555 819l-145 -145v-324l145 -145h264v614h-264z" />
    <glyph glyph-name="uni0261" unicode="&#x261;" 
d="M205 760l264 264h760v-1169l-264 -265h-555v205h469l145 146v59h-555l-264 264v496zM555 819l-145 -145v-324l145 -145h469v614h-469z" />
    <glyph glyph-name="uni0262" unicode="&#x262;" 
d="M205 760l264 264h760v-205h-674l-145 -145v-324l145 -145h469v205h-205v204h410v-614h-760l-264 264v496z" />
    <glyph glyph-name="uni0263" unicode="&#x263;" 
d="M205 879v145h145l264 -264v-205l103 -102l102 102v205l264 264h146v-145l-205 -205v-205l-162 -162l162 -162v-290l-264 -265h-86l-264 265v290l161 162l-161 162v205zM614 59v-118l103 -103l102 103v118l-102 103z" />
    <glyph glyph-name="uni0264" unicode="&#x264;" 
d="M205 819v205h350l162 -162l162 162h350v-205h-264l-103 -102l162 -162v-291l-264 -264h-86l-264 264v291l161 162l-102 102h-264zM614 469v-119l103 -102l102 102v119l-102 102z" />
    <glyph glyph-name="uni0265" unicode="&#x265;" 
d="M205 1024h205v-674l145 -145h469v819h205v-1434h-205v410h-555l-264 264v760z" />
    <glyph glyph-name="uni0266" unicode="&#x266;" 
d="M205 1169l264 265h350v-205h-264l-145 -146v-59h555l264 -264v-760h-205v674l-145 145h-469v-819h-205v1169z" />
    <glyph glyph-name="uni0267" unicode="&#x267;" 
d="M205 1169l264 265h350v-205h-264l-145 -146v-59h555l264 -264v-905l-264 -265h-351v205h265l145 146v733l-145 145h-469v-819h-205v1169z" />
    <glyph glyph-name="uni0268" unicode="&#x268;" 
d="M410 819v205h409v-410h205v-204h-205v-205h205v-205h-614v205h204v205h-204v204h204v205h-204zM614 1229v205h205v-205h-205z" />
    <glyph glyph-name="uni0269" unicode="&#x269;" 
d="M410 819v205h409v-674l205 -205v-145h-145l-265 264v555h-204z" />
    <glyph glyph-name="uni026A" unicode="&#x26a;" 
d="M410 819v205h614v-205h-205v-614h205v-205h-614v205h204v614h-204z" />
    <glyph glyph-name="uni026B" unicode="&#x26b;" 
d="M205 614v146l264 264h145v205h-204v205h409v-615h60l204 205h146v-145l-264 -265h-146v-409h205v-205h-614v205h204v614h-59l-205 -205h-145z" />
    <glyph glyph-name="uni026C" unicode="&#x26c;" 
d="M205 674v86l264 264h145v205h-204v205h409v-820h60l204 205h146v-145l-264 -264h-146v-205h205v-205h-614v205h204v205h-145zM555 614h59v205h-59l-102 -102z" />
    <glyph glyph-name="uni026D" unicode="&#x26d;" 
d="M410 1229v205h409v-1493l205 -205v-146h-145l-265 265v1374h-204z" />
    <glyph glyph-name="uni026E" unicode="&#x26e;" 
d="M205 1229v205h409v-410h615v-350l-162 -162l162 -162v-495l-264 -265h-351v205h265l145 146v323l-205 205v86l205 205v59h-410v-614h205v-205h-614v205h205v1024h-205z" />
    <glyph glyph-name="uni026F" unicode="&#x26f;" 
d="M205 1024h205v-674l102 -102l102 102v674h205v-674l146 -145h59v819h205v-1024h-350l-162 162l-162 -162h-86l-264 264v760z" />
    <glyph glyph-name="uni0270" unicode="&#x270;" 
d="M205 1024h205v-674l102 -102l102 102v674h205v-674l146 -145h59v819h205v-1434h-205v410h-145l-162 162l-162 -162h-86l-264 264v760z" />
    <glyph glyph-name="uni0271" unicode="&#x271;" 
d="M205 1024h350l162 -162l162 162h86l264 -264v-905l-264 -265h-146v146l205 205v733l-102 102l-103 -102v-674h-205v674l-145 145h-59v-819h-205v1024z" />
    <glyph glyph-name="uni0272" unicode="&#x272;" 
d="M410 -59v1083h555l264 -264v-760h-205v674l-145 145h-265v-964l-264 -265h-145v146z" />
    <glyph glyph-name="uni0273" unicode="&#x273;" 
d="M205 1024h555l264 -264v-819l205 -205v-146h-146l-264 265v819l-145 145h-264v-819h-205v1024z" />
    <glyph glyph-name="uni0274" unicode="&#x274;" 
d="M205 1024h205v-205h145l410 -409h59v614h205v-1024h-205v205h-145l-410 409h-59v-614h-205v1024z" />
    <glyph glyph-name="uni0275" unicode="&#x275;" 
d="M205 760l264 264h496l264 -264v-496l-264 -264h-496l-264 264v496zM555 819l-145 -145v-60h614v60l-145 145h-324zM410 410v-60l145 -145h324l145 145v60h-614z" />
    <glyph glyph-name="uni0276" unicode="&#x276;" 
d="M205 760l264 264h760v-205h-410v-205h410v-204h-410v-205h410v-205h-760l-264 264v496zM555 819l-145 -145v-324l145 -145h59v614h-59z" />
    <glyph glyph-name="uni0277" unicode="&#x277;" 
d="M205 760l264 264h496l264 -264v-496l-264 -264h-86l-162 162l-162 -162h-86l-264 264v496zM555 819l-145 -145v-324l102 -102l102 102v264h205v-264l103 -102l102 102v324l-145 145h-324z" />
    <glyph glyph-name="uni0278" unicode="&#x278;" 
d="M205 760l264 264h145v410h205v-410h146l264 -264v-496l-264 -264h-146v-410h-205v410h-145l-264 264v496zM555 819l-145 -145v-324l145 -145h59v614h-59zM819 819v-614h60l145 145v324l-145 145h-60z" />
    <glyph glyph-name="uni0279" unicode="&#x279;" 
d="M205 0v205h264l205 205h145v614h205v-1024h-205v205h-59l-205 -205h-350z" />
    <glyph glyph-name="uni027A" unicode="&#x27a;" 
d="M205 0v205h264l205 205h145v1024h205v-1434h-205v205h-59l-205 -205h-350z" />
    <glyph glyph-name="uni027B" unicode="&#x27b;" 
d="M205 0v205h264l205 205h145v614h205v-1083l205 -205v-146h-146l-264 265v350h-59l-205 -205h-350z" />
    <glyph glyph-name="uni027C" unicode="&#x27c;" 
d="M410 1024h204v-205h60l205 205h350v-205h-264l-205 -205h-146v-1024h-204v1434z" />
    <glyph glyph-name="uni027D" unicode="&#x27d;" 
d="M410 1024h204v-205h60l205 205h350v-205h-264l-205 -205h-146v-673l205 -205v-146h-145l-264 265v1169z" />
    <glyph glyph-name="uni027E" unicode="&#x27e;" 
d="M410 760l264 264h291l264 -264v-146h-146l-204 205h-119l-146 -145v-674h-204v760z" />
    <glyph glyph-name="uni0280" unicode="&#x280;" 
d="M205 1024h760l264 -264v-86l-205 -205v-119l205 -205v-145h-146l-264 264v146h-409v-410h-205v1024zM410 819v-205h469l102 103l-102 102h-469z" />
    <glyph glyph-name="uni0281" unicode="&#x281;" 
d="M205 1024h205v-410h409v146l264 264h146v-145l-205 -205v-119l205 -205v-86l-264 -264h-760v1024zM410 410v-205h469l102 102l-102 103h-469z" />
    <glyph glyph-name="uni0282" unicode="&#x282;" 
d="M205 674v86l264 264h760v-205h-674l-102 -102l102 -103h410l264 -264v-86l-264 -264h-555v-59l204 -205v-146h-145l-264 265v350h674l102 102l-102 103h-410z" />
    <glyph glyph-name="uni0283" unicode="&#x283;" 
d="M614 -59v1228l265 265h145v-146l-205 -205v-1228l-264 -265h-145v146z" />
    <glyph glyph-name="uni0284" unicode="&#x284;" 
d="M410 205v205h204v759l265 265h145v-146l-205 -205v-673h205v-205h-205v-350l-264 -265h-145v146l204 205v264h-204z" />
    <glyph glyph-name="uni0286" unicode="&#x286;" 
d="M205 145l264 265h145v759l265 265h145v-146l-205 -205v-673h205v-205h-205v-350l-264 -265h-86l-264 265v290zM555 205l-145 -146v-118l102 -103l102 103v264h-59z" />
    <glyph glyph-name="uni0287" unicode="&#x287;" 
d="M410 879v145h145l264 -264v-555h205v-205h-205v-410h-205v410h-204v205h204v469z" />
    <glyph glyph-name="uni0288" unicode="&#x288;" 
d="M410 819v205h204v410h205v-410h205v-205h-205v-878l205 -205v-146h-145l-265 265v964h-204z" />
    <glyph glyph-name="uni0289" unicode="&#x289;" 
d="M205 614v205h205v205h204v-205h205v205h205v-205h205v-205h-205v-614h-350l-264 264v350h-205zM614 614v-264l146 -145h59v409h-205z" />
    <glyph glyph-name="uni028A" unicode="&#x28a;" 
d="M205 819v205h409v-350l-204 -205v-119l145 -145h324l145 145v119l-205 205v350h410v-205h-205v-59l205 -205v-291l-264 -264h-496l-264 264v291l205 205v59h-205z" />
    <glyph glyph-name="uni028B" unicode="&#x28b;" 
d="M205 819v205h409v-819h60l350 350v119l-205 205v145h146l264 -264v-291l-469 -469h-350v819h-205z" />
    <glyph glyph-name="uni028C" unicode="&#x28c;" 
d="M410 555v205l264 264h86l264 -264v-205l205 -205v-350h-205v264l-205 205v205l-102 102l-103 -102v-205l-204 -205v-264h-205v350z" />
    <glyph glyph-name="uni028D" unicode="&#x28d;" 
d="M205 760l264 264h86l162 -162l162 162h86l264 -264v-760h-205v674l-102 102l-103 -102v-264h-205v264l-102 102l-102 -102v-674h-205v760z" />
    <glyph glyph-name="uni028E" unicode="&#x28e;" 
d="M205 1169l264 265h555v-205h-469l-145 -146v-59h350l469 -469v-555h-205v469l-350 350h-264v-819h-205v1169z" />
    <glyph glyph-name="uni028F" unicode="&#x28f;" 
d="M205 879v145h145l367 -367l366 367h146v-145l-410 -410v-469h-205v469z" />
    <glyph glyph-name="uni0290" unicode="&#x290;" 
d="M205 819v205h819v-205h-205v-145l-409 -410v-59h614v-264l205 -205v-146h-146l-264 265v145h-614v350l409 410v59h-409z" />
    <glyph glyph-name="uni0291" unicode="&#x291;" 
d="M205 819v205h1024v-205h-205v-145l-410 -410v-59h351l264 -264v-86l-264 -265h-86l-265 265v145h-409v205h205v145l409 410v59h-614zM819 0v-59l103 -103l59 60l-102 102h-60z" />
    <glyph glyph-name="uni0292" unicode="&#x292;" 
d="M205 819v205h1024v-205h-205v-145l-205 -205v-59h146l264 -265v-290l-264 -265h-496l-264 265v145h145l205 -205h324l145 146v118l-145 146h-469v205h204v145l205 205v59h-614z" />
    <glyph glyph-name="uni0293" unicode="&#x293;" 
d="M205 819v205h1024v-205h-205v-145l-162 -162l367 -367v-290l-264 -265h-496l-264 265v86l264 264h86l264 -264v-146h60l145 146v118l-410 410v86l205 205v59h-614zM555 -205h59v60l-102 102l-59 -59z" />
    <glyph glyph-name="uni0294" unicode="&#x294;" 
d="M205 1024v145l264 265h496l264 -265v-86l-410 -409v-674h-205v760l367 366l-102 103h-324l-205 -205h-145z" />
    <glyph glyph-name="uni0295" unicode="&#x295;" 
d="M205 1083v86l264 265h496l264 -265v-145h-146l-204 205h-324l-102 -103l366 -366v-760h-205v674z" />
    <glyph glyph-name="uni0296" unicode="&#x296;" 
d="M205 264v146h145l205 -205h324l102 102l-367 367v760h205v-674l410 -410v-86l-264 -264h-496z" />
    <glyph glyph-name="uni0297" unicode="&#x297;" 
d="M205 1169l264 265h496l264 -265v-145h-146l-204 205h-324l-145 -146v-1142l145 -146h324l204 205h146v-145l-264 -265h-496l-264 265v1314z" />
    <glyph glyph-name="uni0298" unicode="&#x298;" 
d="M205 1169l264 265h496l264 -265v-905l-264 -264h-496l-264 264v905zM555 1229l-145 -146v-733l145 -145h324l145 145v733l-145 146h-324zM614 614v205h205v-205h-205z" />
    <glyph glyph-name="uni0299" unicode="&#x299;" 
d="M205 1024h760l264 -264v-86l-162 -162l162 -162v-86l-264 -264h-760v1024zM410 819v-205h469l102 103l-102 102h-469zM410 410v-205h469l102 102l-102 103h-469z" />
    <glyph glyph-name="uni029A" unicode="&#x29a;" 
d="M205 674v86l264 264h496l264 -264v-496l-264 -264h-496l-264 264v86l162 162zM555 614h264v-204h-264l-102 -103l102 -102h324l145 145v324l-145 145h-324l-102 -102z" />
    <glyph glyph-name="uni029B" unicode="&#x29b;" 
d="M205 760l264 264h350v145l264 265h146v-146l-205 -205v-264h-469l-145 -145v-324l145 -145h264v205h-205v204h410v-614h-555l-264 264v496z" />
    <glyph glyph-name="uni029C" unicode="&#x29c;" 
d="M205 1024h205v-410h614v410h205v-1024h-205v410h-614v-410h-205v1024z" />
    <glyph glyph-name="uni029D" unicode="&#x29d;" 
d="M205 145l264 265h145v614h205v-614h205v-205h-205v-350l-264 -265h-86l-264 265v290zM555 205l-145 -146v-118l102 -103l102 103v264h-59zM614 1229v205h205v-205h-205z" />
    <glyph glyph-name="uni029E" unicode="&#x29e;" 
d="M205 879v145h145l410 -410h59v410h205v-1434h-205v820h-59l-410 -410h-145v145l366 367z" />
    <glyph glyph-name="uni029F" unicode="&#x29f;" 
d="M205 1024h205v-819h819v-205h-1024v1024z" />
    <glyph glyph-name="uni02A0" unicode="&#x2a0;" 
d="M205 760l264 264h555v59l-145 146h-265v205h351l264 -265v-1579h-205v410h-555l-264 264v496zM555 819l-145 -145v-324l145 -145h469v614h-469z" />
    <glyph glyph-name="uni02A1" unicode="&#x2a1;" 
d="M205 1024v145l264 265h496l264 -265v-86l-410 -409v-60h410v-204h-410v-410h-205v410h-409v204h409v146l367 366l-102 103h-324l-205 -205h-145z" />
    <glyph glyph-name="uni02A2" unicode="&#x2a2;" 
d="M205 1083v86l264 265h496l264 -265v-145h-146l-204 205h-324l-102 -103l366 -366v-146h410v-204h-410v-410h-205v410h-409v204h409v60z" />
    <glyph glyph-name="uni02A3" unicode="&#x2a3;" 
d="M205 760l264 264h145v410h205v-410h410v-350l-205 -205v-264h205v-205h-760l-264 264v496zM555 819l-145 -145v-324l145 -145h59v614h-59zM819 819v-205h60l145 146v59h-205z" />
    <glyph glyph-name="uni02A4" unicode="&#x2a4;" 
d="M205 760l264 264h145v410h205v-410h410v-350l-162 -162l162 -162v-495l-264 -265h-351v205h265l145 146v323l-145 146h-60v-410h-350l-264 264v496zM555 819l-145 -145v-324l145 -145h59v614h-59zM819 819v-205h60l145 146v59h-205z" />
    <glyph glyph-name="uni02A5" unicode="&#x2a5;" 
d="M205 760l264 264h145v410h205v-410h410v-350l-205 -205v-264h205v-350l-264 -265h-86l-265 265v145h-145l-264 264v496zM555 819l-145 -145v-324l145 -145h59v614h-59zM819 819v-205h60l145 146v59h-205zM819 0v-59l103 -103l102 103v59h-205z" />
    <glyph glyph-name="uni02A6" unicode="&#x2a6;" 
d="M205 1434h205v-410h819v-205h-410v-59l410 -410v-86l-264 -264h-496l-264 264v1170zM410 819v-469l145 -145h324l102 102l-367 367v145h-204z" />
    <glyph glyph-name="uni02A7" unicode="&#x2a7;" 
d="M205 819v205h205v410h204v-410h205v145l264 265h146v-146l-205 -205v-1228l-264 -265h-146v146l205 205v59h-145l-264 264v555h-205zM614 819v-469l146 -145h59v614h-205z" />
    <glyph glyph-name="uni02A8" unicode="&#x2a8;" 
d="M205 1434h205v-205h204v-205h-204v-674l145 -145h59v555l265 264h350v-205h-264l-146 -145v-469h146l264 -264v-86l-264 -265h-86l-265 265v145h-145l-264 264v1170zM819 0v-59l103 -103l59 60l-102 102h-60z" />
    <glyph glyph-name="uni02A9" unicode="&#x2a9;" 
d="M205 1169l264 265h145v-146l-204 -205v-264h555l264 -264v-700l-264 -265h-351v205h265l145 146v528l-145 145h-60v-614h-205v614h-204v-614h-205v1169z" />
    <glyph glyph-name="uni02AA" unicode="&#x2aa;" 
d="M205 1229v205h409v-615h60l205 205h350v-205h-264l-103 -102l367 -367v-86l-264 -264h-760v205h205v1024h-205zM614 205h265l102 102l-307 307h-60v-409z" />
    <glyph glyph-name="uni02AB" unicode="&#x2ab;" 
d="M205 1229v205h409v-410h615v-350l-410 -410v-59h410v-205h-1024v205h205v1024h-205zM614 819v-409h60l350 350v59h-410z" />
    <glyph glyph-name="uni02AC" unicode="&#x2ac;" 
d="M205 879v145h145l162 -162l162 162h86l162 -162l161 162h146v-145l-264 -265h-86l-162 162l-162 -162h-86zM205 264v146h145l162 -162l162 162h86l162 -162l161 162h146v-146l-264 -264h-86l-162 162l-162 -162h-86z" />
    <glyph glyph-name="uni02AD" unicode="&#x2ad;" 
d="M410 1024h614v-410h-205v205h-205v-205h-204v410zM410 410h614v-410h-205v205h-205v-205h-204v410z" />
    <glyph glyph-name="uni02B0" unicode="&#x2b0;" 
d="M205 1434h205v-410h145l264 -264v-350h-205v264l-145 145h-59v-409h-205v1024z" />
    <glyph glyph-name="uni02B2" unicode="&#x2b2;" 
d="M410 555v469h204v-555l-264 -264h-145v145zM410 1229v205h204v-205h-204z" />
    <glyph glyph-name="uni02B9" unicode="&#x2b9;" 
d="M410 1169v265h204v-351l-204 -204v-265h-205v351z" />
    <glyph glyph-name="uni02BA" unicode="&#x2ba;" 
d="M410 1169v265h204v-351l-204 -204v-265h-205v351zM1024 1169v265h205v-351l-205 -204v-265h-205v351z" />
    <glyph glyph-name="uni02BC" unicode="&#x2bc;" 
d="M614 1169v265h205v-351l-264 -264h-145v146z" />
    <glyph glyph-name="circumflex" unicode="&#x2c6;" 
d="M410 1024v145l264 265h86l264 -265v-145h-145l-162 162l-162 -162h-145z" />
    <glyph glyph-name="caron" unicode="&#x2c7;" 
d="M410 1288v146h145l162 -162l162 162h145v-146l-264 -264h-86z" />
    <glyph glyph-name="uni02C8" unicode="&#x2c8;" 
d="M614 1434h205v-615h-205v615z" />
    <glyph glyph-name="uni02CC" unicode="&#x2cc;" 
d="M614 205h205v-615h-205v615z" />
    <glyph glyph-name="uni02D0" unicode="&#x2d0;" 
d="M410 879v145h145l162 -162l162 162h145v-145l-264 -265h-86zM410 0v145l264 265h86l264 -265v-145h-145l-162 162l-162 -162h-145z" />
    <glyph glyph-name="uni02D1" unicode="&#x2d1;" 
d="M410 879v145h145l162 -162l162 162h145v-145l-264 -265h-86z" />
    <glyph glyph-name="breve" unicode="&#x2d8;" 
d="M205 1288v146h145l205 -205h324l204 205h146v-146l-264 -264h-496z" />
    <glyph glyph-name="dotaccent" unicode="&#x2d9;" 
d="M614 1229v205h205v-205h-205z" />
    <glyph glyph-name="ring" unicode="&#x2da;" 
d="M410 1083v86l264 265h86l264 -265v-86l-264 -264h-86zM717 1067l59 59l-59 60l-60 -60z" />
    <glyph glyph-name="ogonek" unicode="&#x2db;" 
d="M410 -145v86l264 264h145v-146l-162 -161l162 -162v-146h-145z" />
    <glyph glyph-name="tilde" unicode="&#x2dc;" 
d="M410 1024v145l264 265h86l162 -162l161 162h146v-146l-264 -264h-86l-162 162l-162 -162h-145z" />
    <glyph glyph-name="hungarumlaut" unicode="&#x2dd;" 
d="M205 1024v145l264 265h145v-146l-264 -264h-145zM819 1024v145l264 265h146v-146l-264 -264h-146z" />
    <glyph glyph-name="uni02E0" unicode="&#x2e0;" 
d="M205 1288v146h145l162 -162l162 162h145v-146l-162 -162l162 -161v-291l-264 -264h-86l-264 264v291l162 161zM410 879v-119l102 -103l102 103v119l-102 102z" />
    <glyph glyph-name="uni02E1" unicode="&#x2e1;" 
d="M205 1229v205h409v-820h205v-204h-614v204h205v615h-205z" />
    <glyph glyph-name="uni02E2" unicode="&#x2e2;" 
d="M205 410v204h205v410h409v-205h-205v-409h-409z" />
    <glyph glyph-name="uni02E3" unicode="&#x2e3;" 
d="M205 879v145h145l162 -162l162 162h145v-145l-162 -162l162 -162v-145h-145l-162 161l-162 -161h-145v145l162 162z" />
    <glyph glyph-name="uni02E4" unicode="&#x2e4;" 
d="M205 1169l264 265h86l264 -265v-145h-145l-162 162l-102 -103v-118l204 -205v-350h-204v264l-205 205v290z" />
    <glyph glyph-name="uni02E5" unicode="&#x2e5;" 
d="M205 1229v205h1024v-1434h-205v1229h-819z" />
    <glyph glyph-name="uni02E6" unicode="&#x2e6;" 
d="M205 1024v205h819v205h205v-1434h-205v1024h-819z" />
    <glyph glyph-name="uni02E7" unicode="&#x2e7;" 
d="M205 614v205h819v615h205v-1434h-205v614h-819z" />
    <glyph glyph-name="uni02E8" unicode="&#x2e8;" 
d="M205 205v205h819v1024h205v-1434h-205v205h-819z" />
    <glyph glyph-name="uni02E9" unicode="&#x2e9;" 
d="M205 0v205h819v1229h205v-1434h-1024z" />
    <glyph glyph-name="uni037F" unicode="&#x37f;" 
d="M205 264v146h145l205 -205h324l145 145v1084h205v-1170l-264 -264h-496z" />
    <glyph glyph-name="tonos" unicode="&#x384;" 
d="M614 1229v205h205v-205h-205z" />
    <glyph glyph-name="dieresistonos" unicode="&#x385;" 
d="M205 1024v205h205v-205h-205zM614 1434h205v-410h-205v410zM1024 1024v205h205v-205h-205z" />
    <glyph glyph-name="Alphatonos" unicode="&#x386;" 
d="M205 1434h205v-410h-205v410zM614 1169l265 265h86l264 -265v-1169h-205v410h-205v-410h-205v1169zM819 1083v-469h205v469l-102 103z" />
    <glyph glyph-name="Epsilontonos" unicode="&#x388;" 
d="M205 1434h205v-410h-205v410zM614 1434h615v-205h-410v-410h205v-205h-205v-409h410v-205h-615v1434z" />
    <glyph glyph-name="Etatonos" unicode="&#x389;" 
d="M205 1434h205v-410h-205v410zM614 1434h205v-615h205v615h205v-1434h-205v614h-205v-614h-205v1434z" />
    <glyph glyph-name="Iotatonos" unicode="&#x38a;" 
d="M205 1434h205v-410h-205v410zM614 1229v205h615v-205h-205v-1024h205v-205h-615v205h205v1024h-205z" />
    <glyph glyph-name="Omicrontonos" unicode="&#x38c;" 
d="M205 1434h205v-410h-205v410zM614 1169l265 265h86l264 -265v-905l-264 -264h-86l-265 264v905zM819 1083v-733l103 -102l102 102v733l-102 103z" />
    <glyph glyph-name="Upsilontonos" unicode="&#x38e;" 
d="M205 1434h205v-410h-205v410zM614 1434h205v-469l103 -103l102 103v469h205v-555l-205 -205v-674h-205v674l-205 205v555z" />
    <glyph glyph-name="Omegatonos" unicode="&#x38f;" 
d="M205 1434h205v-410h-205v410zM614 1169l265 265h86l264 -265v-700l-205 -205v-59h205v-205h-615v205h205v59l-205 205v700zM819 1083v-528l103 -102l102 102v528l-102 103z" />
    <glyph glyph-name="iotadieresistonos" unicode="&#x390;" 
d="M205 1024v205h205v-205h-205zM410 614v205h409v-469l205 -205v-145h-145l-265 264v350h-204zM614 1434h205v-410h-205v410zM1024 1024v205h205v-205h-205z" />
    <glyph glyph-name="Alpha" unicode="&#x391;" 
d="M205 965l469 469h86l469 -469v-965h-205v410h-614v-410h-205v965zM410 879v-265h614v265l-307 307z" />
    <glyph glyph-name="Beta" unicode="&#x392;" 
d="M205 1434h760l264 -265v-290l-162 -162l162 -162v-291l-264 -264h-760v1434zM410 1229v-410h469l145 146v118l-145 146h-469zM410 614v-409h469l145 145v119l-145 145h-469z" />
    <glyph glyph-name="Gamma" unicode="&#x393;" 
d="M205 1434h1024v-205h-819v-1229h-205v1434z" />
    <glyph glyph-name="uni0394" unicode="&#x394;" 
d="M410 760v205l204 204v265h205v-265l205 -204v-205l205 -205v-555h-1024v555zM614 674l-204 -205v-264h614v264l-205 205v205l-102 102l-103 -102v-205z" />
    <glyph glyph-name="Epsilon" unicode="&#x395;" 
d="M205 1434h1024v-205h-819v-410h614v-205h-614v-409h819v-205h-1024v1434z" />
    <glyph glyph-name="Zeta" unicode="&#x396;" 
d="M205 1229v205h1024v-351l-819 -819v-59h819v-205h-1024v350l819 819v60h-819z" />
    <glyph glyph-name="Eta" unicode="&#x397;" 
d="M205 1434h205v-615h614v615h205v-1434h-205v614h-614v-614h-205v1434z" />
    <glyph glyph-name="Theta" unicode="&#x398;" 
d="M205 1169l264 265h496l264 -265v-905l-264 -264h-496l-264 264v905zM555 1229l-145 -146v-264h614v264l-145 146h-324zM410 614v-264l145 -145h324l145 145v264h-614z" />
    <glyph glyph-name="Iota" unicode="&#x399;" 
d="M410 1229v205h614v-205h-205v-1024h205v-205h-614v205h204v1024h-204z" />
    <glyph glyph-name="Kappa" unicode="&#x39a;" 
d="M205 1434h205v-615h59l614 615h146v-146l-572 -571l572 -572v-145h-146l-614 614h-59v-614h-205v1434z" />
    <glyph glyph-name="Lambda" unicode="&#x39b;" 
d="M410 760v205l204 204v265h205v-265l205 -204v-205l205 -205v-555h-205v469l-205 205v205l-102 102l-103 -102v-205l-204 -205v-469h-205v555z" />
    <glyph glyph-name="Mu" unicode="&#x39c;" 
d="M205 1434h205v-205h145l162 -162l162 162h145v205h205v-1434h-205v1024h-59l-146 -145v-265h-205v265l-145 145h-59v-1024h-205v1434z" />
    <glyph glyph-name="Nu" unicode="&#x39d;" 
d="M205 1434h205v-410h145l410 -410h59v820h205v-1434h-205v410h-145l-410 409h-59v-819h-205v1434z" />
    <glyph glyph-name="Xi" unicode="&#x39e;" 
d="M205 1229v205h1024v-205h-1024zM205 0v205h1024v-205h-1024zM410 614v205h614v-205h-614z" />
    <glyph glyph-name="Omicron" unicode="&#x39f;" 
d="M205 1169l264 265h496l264 -265v-905l-264 -264h-496l-264 264v905zM555 1229l-145 -146v-733l145 -145h324l145 145v733l-145 146h-324z" />
    <glyph glyph-name="Pi" unicode="&#x3a0;" 
d="M205 1434h1024v-1434h-205v1229h-614v-1229h-205v1434z" />
    <glyph glyph-name="Rho" unicode="&#x3a1;" 
d="M205 1434h760l264 -265v-290l-264 -265h-555v-614h-205v1434zM410 1229v-410h469l145 146v118l-145 146h-469z" />
    <glyph glyph-name="Sigma" unicode="&#x3a3;" 
d="M205 1434h1024v-205h-819v-60l409 -409v-86l-409 -410v-59h819v-205h-1024v350l366 367l-366 366v351z" />
    <glyph glyph-name="Tau" unicode="&#x3a4;" 
d="M205 1229v205h1024v-205h-410v-1229h-205v1229h-409z" />
    <glyph glyph-name="Upsilon" unicode="&#x3a5;" 
d="M205 1434h205v-265l307 -307l307 307v265h205v-351l-410 -409v-674h-205v674l-409 409v351z" />
    <glyph glyph-name="Phi" unicode="&#x3a6;" 
d="M205 965l264 264h145v205h205v-205h146l264 -264v-496l-264 -264h-146v-205h-205v205h-145l-264 264v496zM555 1024l-145 -145v-324l145 -145h59v614h-59zM819 1024v-614h60l145 145v324l-145 145h-60z" />
    <glyph glyph-name="Chi" unicode="&#x3a7;" 
d="M205 1434h205v-265l307 -307l307 307v265h205v-351l-367 -366l367 -367v-350h-205v264l-307 307l-307 -307v-264h-205v350l366 367l-366 366v351z" />
    <glyph glyph-name="Psi" unicode="&#x3a8;" 
d="M205 1434h205v-879l145 -145h59v1024h205v-1024h60l145 145v879h205v-965l-264 -264h-146v-205h-205v205h-145l-264 264v965z" />
    <glyph glyph-name="uni03A9" unicode="&#x3a9;" 
d="M205 1169l264 265h496l264 -265v-700l-205 -205v-59h205v-205h-410v350l205 205v528l-145 146h-324l-145 -146v-528l204 -205v-350h-409v205h205v59l-205 205v700z" />
    <glyph glyph-name="Iotadieresis" unicode="&#x3aa;" 
d="M410 1229v205h204v-205h-204zM410 819v205h614v-205h-205v-614h205v-205h-614v205h204v614h-204zM819 1229v205h205v-205h-205z" />
    <glyph glyph-name="Upsilondieresis" unicode="&#x3ab;" 
d="M205 879v145h145l367 -367l366 367h146v-145l-410 -410v-469h-205v469zM410 1229v205h204v-205h-204zM819 1229v205h205v-205h-205z" />
    <glyph glyph-name="alphatonos" unicode="&#x3ac;" 
d="M205 760l264 264h291l162 -162l161 162h146v-145l-205 -205v-324l205 -205v-145h-146l-161 162l-162 -162h-291l-264 264v496zM555 819l-145 -145v-324l145 -145h119l145 145v324l-145 145h-119zM614 1229v205h205v-205h-205z" />
    <glyph glyph-name="epsilontonos" unicode="&#x3ad;" 
d="M205 674v86l264 264h760v-205h-674l-102 -102l102 -103h469v-204h-469l-102 -103l102 -102h674v-205h-760l-264 264v86l162 162zM614 1229v205h205v-205h-205z" />
    <glyph glyph-name="etatonos" unicode="&#x3ae;" 
d="M205 1024h760l264 -264v-1170h-205v1084l-145 145h-469v-819h-205v1024zM614 1229v205h205v-205h-205z" />
    <glyph glyph-name="iotatonos" unicode="&#x3af;" 
d="M410 819v205h409v-674l205 -205v-145h-145l-265 264v555h-204zM614 1229v205h205v-205h-205z" />
    <glyph glyph-name="upsilondieresistonos" unicode="&#x3b0;" 
d="M205 1024v205h205v-205h-205zM205 819h205v-469l145 -145h324l145 145v119l-205 205v145h146l264 -264v-291l-264 -264h-496l-264 264v555zM614 1434h205v-410h-205v410zM1024 1024v205h205v-205h-205z" />
    <glyph glyph-name="alpha" unicode="&#x3b1;" 
d="M205 760l264 264h291l162 -162l161 162h146v-145l-205 -205v-324l205 -205v-145h-146l-161 162l-162 -162h-291l-264 264v496zM555 819l-145 -145v-324l145 -145h119l145 145v324l-145 145h-119z" />
    <glyph glyph-name="beta" unicode="&#x3b2;" 
d="M205 1169l264 265h496l264 -265v-290l-162 -162l162 -162v-291l-264 -264h-555v-410h-205v1579zM555 1229l-145 -146v-264h469l145 146v118l-145 146h-324zM410 614v-409h469l145 145v119l-145 145h-469z" />
    <glyph glyph-name="gamma" unicode="&#x3b3;" 
d="M205 1024h205v-264l204 -205v-205l103 -102l102 102v205l205 205v264h205v-350l-205 -205v-205l-205 -205v-469h-205v469l-204 205v205l-205 205v350z" />
    <glyph glyph-name="delta" unicode="&#x3b4;" 
d="M205 1083v86l264 265h760v-205h-674l-102 -103l102 -102h410l264 -264v-496l-264 -264h-496l-264 264v496l162 162zM555 819l-145 -145v-324l145 -145h324l145 145v324l-145 145h-324z" />
    <glyph glyph-name="epsilon" unicode="&#x3b5;" 
d="M205 674v86l264 264h760v-205h-674l-102 -102l102 -103h469v-204h-469l-102 -103l102 -102h674v-205h-760l-264 264v86l162 162z" />
    <glyph glyph-name="zeta" unicode="&#x3b6;" 
d="M205 1229v205h819v-351l-614 -614v-119l145 -145h205l264 -264v-86l-264 -265h-146v146l162 162l-102 102h-205l-264 264v291l614 614v60h-614z" />
    <glyph glyph-name="eta" unicode="&#x3b7;" 
d="M205 1024h760l264 -264v-1170h-205v1084l-145 145h-469v-819h-205v1024z" />
    <glyph glyph-name="theta" unicode="&#x3b8;" 
d="M205 1169l264 265h291l264 -265v-905l-264 -264h-291l-264 264v905zM555 1229l-145 -146v-264h409v264l-145 146h-119zM410 614v-264l145 -145h119l145 145v264h-409z" />
    <glyph glyph-name="iota" unicode="&#x3b9;" 
d="M410 819v205h409v-674l205 -205v-145h-145l-265 264v555h-204z" />
    <glyph glyph-name="kappa" unicode="&#x3ba;" 
d="M410 1024h204v-410h60l409 410h146v-145l-367 -367l367 -367v-145h-146l-409 410h-60v-410h-204v1024z" />
    <glyph glyph-name="lambda" unicode="&#x3bb;" 
d="M205 1229v205h350l264 -265v-204l205 -205v-205l205 -205v-350h-205v264l-205 205v205l-102 102l-103 -102v-205l-204 -205v-264h-205v350l205 205v205l204 205v118l-145 146h-264z" />
    <glyph glyph-name="uni03BC" unicode="&#x3bc;" 
d="M205 1024h205v-819h264l145 145v674h205v-674l205 -205v-145h-146l-161 162l-162 -162h-350v-410h-205v1434z" />
    <glyph glyph-name="nu" unicode="&#x3bd;" 
d="M205 1024h205v-264l204 -205v-205l103 -102l307 307v469h205v-555l-469 -469h-86l-264 264v205l-205 205v350z" />
    <glyph glyph-name="xi" unicode="&#x3be;" 
d="M205 1169l264 265h555v-205h-469l-145 -146v-118l145 -146h469v-205h-469l-145 -145v-119l145 -145h410l264 -264v-86l-264 -265h-146v146l162 162l-102 102h-410l-264 264v291l162 162l-162 162v290z" />
    <glyph glyph-name="omicron" unicode="&#x3bf;" 
d="M205 760l264 264h496l264 -264v-496l-264 -264h-496l-264 264v496zM555 819l-145 -145v-324l145 -145h324l145 145v324l-145 145h-324z" />
    <glyph glyph-name="pi" unicode="&#x3c0;" 
d="M205 819v205h1024v-205h-205v-469l205 -205v-145h-146l-264 264v555h-205v-819h-204v819h-205z" />
    <glyph glyph-name="rho" unicode="&#x3c1;" 
d="M205 760l264 264h496l264 -264v-496l-264 -264h-555v-410h-205v1170zM555 819l-145 -145v-469h469l145 145v324l-145 145h-324z" />
    <glyph glyph-name="sigma1" unicode="&#x3c2;" 
d="M205 760l264 264h760v-205h-674l-145 -145v-324l145 -145h410l264 -264v-86l-264 -265h-146v146l162 162l-102 102h-410l-264 264v496z" />
    <glyph glyph-name="sigma" unicode="&#x3c3;" 
d="M205 760l264 264h760v-205h-205v-59l205 -205v-291l-264 -264h-496l-264 264v496zM555 819l-145 -145v-324l145 -145h324l145 145v119l-205 205v145h-264z" />
    <glyph glyph-name="tau" unicode="&#x3c4;" 
d="M205 819v205h1024v-205h-410v-469l205 -205v-145h-145l-265 264v555h-409z" />
    <glyph glyph-name="upsilon" unicode="&#x3c5;" 
d="M205 1024h205v-674l145 -145h324l145 145v324l-205 205v145h146l264 -264v-496l-264 -264h-496l-264 264v760z" />
    <glyph glyph-name="phi" unicode="&#x3c6;" 
d="M205 1024h205v-674l145 -145h59v819h351l264 -264v-496l-264 -264h-146v-410h-205v410h-145l-264 264v760zM819 819v-614h60l145 145v324l-145 145h-60z" />
    <glyph glyph-name="chi" unicode="&#x3c7;" 
d="M205 879v145h145l264 -264v-205l103 -102l307 307v264h205v-350l-367 -367l162 -162v-204l205 -205v-146h-146l-264 265v204l-102 103l-307 -307v-265h-205v351l366 366l-161 162v205z" />
    <glyph glyph-name="psi" unicode="&#x3c8;" 
d="M205 1024h205v-674l145 -145h59v819h205v-819h60l145 145v674h205v-760l-264 -264h-146v-410h-205v410h-145l-264 264v760z" />
    <glyph glyph-name="omega" unicode="&#x3c9;" 
d="M205 760l264 264h145v-145l-204 -205v-324l102 -102l102 102v264h205v-264l103 -102l102 102v324l-205 205v145h146l264 -264v-496l-264 -264h-86l-162 162l-162 -162h-86l-264 264v496z" />
    <glyph glyph-name="iotadieresis" unicode="&#x3ca;" 
d="M410 1229v205h204v-205h-204zM410 819v205h409v-674l205 -205v-145h-145l-265 264v555h-204zM819 1229v205h205v-205h-205z" />
    <glyph glyph-name="upsilondieresis" unicode="&#x3cb;" 
d="M205 1024h205v-674l145 -145h324l145 145v324l-205 205v145h146l264 -264v-496l-264 -264h-496l-264 264v760zM410 1229v205h204v-205h-204zM819 1229v205h205v-205h-205z" />
    <glyph glyph-name="omicrontonos" unicode="&#x3cc;" 
d="M205 760l264 264h496l264 -264v-496l-264 -264h-496l-264 264v496zM555 819l-145 -145v-324l145 -145h324l145 145v324l-145 145h-324zM614 1229v205h205v-205h-205z" />
    <glyph glyph-name="upsilontonos" unicode="&#x3cd;" 
d="M205 1024h205v-674l145 -145h324l145 145v324l-205 205v145h146l264 -264v-496l-264 -264h-496l-264 264v760zM614 1229v205h205v-205h-205z" />
    <glyph glyph-name="omegatonos" unicode="&#x3ce;" 
d="M205 760l264 264h145v-145l-204 -205v-324l102 -102l102 102v264h205v-264l103 -102l102 102v324l-205 205v145h146l264 -264v-496l-264 -264h-86l-162 162l-162 -162h-86l-264 264v496zM614 1229v205h205v-205h-205z" />
    <glyph glyph-name="phi1" unicode="&#x3d5;" 
d="M205 760l264 264h145v410h205v-410h146l264 -264v-496l-264 -264h-146v-410h-205v410h-145l-264 264v496zM555 819l-145 -145v-324l145 -145h59v614h-59zM819 819v-614h60l145 145v324l-145 145h-60z" />
    <glyph glyph-name="uni03F3" unicode="&#x3f3;" 
d="M614 -59v1083h205v-1169l-264 -265h-145v146zM614 1229v205h205v-205h-205z" />
    <glyph glyph-name="uni0400" unicode="&#x400;" 
d="M205 1024h409v59l-204 205v146h145l264 -265v-145h410v-205h-819v-205h614v-204h-614v-205h819v-205h-1024v1024z" />
    <glyph glyph-name="uni0401" unicode="&#x401;" 
d="M205 1024h1024v-205h-819v-205h614v-204h-614v-205h819v-205h-1024v1024zM410 1229v205h204v-205h-204zM819 1229v205h205v-205h-205z" />
    <glyph glyph-name="uni0402" unicode="&#x402;" 
d="M205 1229v205h819v-205h-410v-410h351l264 -264v-700l-264 -265h-146v146l205 205v528l-145 145h-265v-614h-204v1229h-205z" />
    <glyph glyph-name="uni0404" unicode="&#x404;" 
d="M205 965l469 469h291l264 -265v-145h-146l-204 205h-119l-350 -350v-60h409v-205h-409v-59l350 -350h119l204 205h146v-146l-264 -264h-291l-469 469v496z" />
    <glyph glyph-name="uni0405" unicode="&#x405;" 
d="M205 1169l264 265h496l264 -265v-145h-146l-204 205h-324l-145 -146v-118l145 -146h410l264 -264v-291l-264 -264h-496l-264 264v146h145l205 -205h324l145 145v119l-145 145h-410l-264 265v290z" />
    <glyph glyph-name="uni0406" unicode="&#x406;" 
d="M410 1229v205h614v-205h-205v-1024h205v-205h-614v205h204v1024h-204z" />
    <glyph glyph-name="uni0407" unicode="&#x407;" 
d="M410 1229v205h204v-205h-204zM410 819v205h614v-205h-205v-614h205v-205h-614v205h204v614h-204zM819 1229v205h205v-205h-205z" />
    <glyph glyph-name="uni0408" unicode="&#x408;" 
d="M205 264v146h145l205 -205h324l145 145v1084h205v-1170l-264 -264h-496z" />
    <glyph glyph-name="uni0409" unicode="&#x409;" 
d="M205 1169l264 265h350v-615h410v-819h-615v1229h-59l-145 -146v-1083h-205v1169zM819 614v-409h205v409h-205z" />
    <glyph glyph-name="uni040A" unicode="&#x40a;" 
d="M205 1434h205v-615h204v615h205v-615h410v-819h-615v614h-204v-614h-205v1434zM819 614v-409h205v409h-205z" />
    <glyph glyph-name="uni040B" unicode="&#x40b;" 
d="M205 1229v205h819v-205h-410v-410h351l264 -264v-555h-205v469l-145 145h-265v-614h-204v1229h-205z" />
    <glyph glyph-name="uni040E" unicode="&#x40e;" 
d="M205 1434h205v-615h614v615h205v-1434h-1024v205h819v409h-819v820zM614 1229v205h205v-205h-205z" />
    <glyph glyph-name="uni040F" unicode="&#x40f;" 
d="M205 1434h205v-1229h614v1229h205v-1434h-410v-205h-205v205h-409v1434z" />
    <glyph glyph-name="uni0410" unicode="&#x410;" 
d="M205 1169l264 265h496l264 -265v-1169h-205v410h-614v-410h-205v1169zM555 1229l-145 -146v-469h614v469l-145 146h-324z" />
    <glyph glyph-name="uni0411" unicode="&#x411;" 
d="M205 1434h1024v-205h-819v-410h819v-819h-1024v1434zM410 614v-409h614v409h-614z" />
    <glyph glyph-name="uni0412" unicode="&#x412;" 
d="M205 1434h760l264 -265v-290l-162 -162l162 -162v-291l-264 -264h-760v1434zM410 1229v-410h469l145 146v118l-145 146h-469zM410 614v-409h469l145 145v119l-145 145h-469z" />
    <glyph glyph-name="uni0413" unicode="&#x413;" 
d="M205 1434h1024v-205h-819v-1229h-205v1434z" />
    <glyph glyph-name="uni0414" unicode="&#x414;" 
d="M205 205h205v964l264 265h350v-1229h205v-410h-205v205h-614v-205h-205v410zM614 205h205v1024h-59l-146 -146v-878z" />
    <glyph glyph-name="uni0415" unicode="&#x415;" 
d="M205 1434h1024v-205h-819v-410h614v-205h-614v-409h819v-205h-1024v1434z" />
    <glyph glyph-name="uni0416" unicode="&#x416;" 
d="M205 1434h205v-469l145 -146h59v615h205v-615h60l145 146v469h205v-555l-162 -162l162 -162v-555h-205v469l-145 145h-60v-614h-205v614h-59l-145 -145v-469h-205v555l162 162l-162 162v555z" />
    <glyph glyph-name="uni0417" unicode="&#x417;" 
d="M205 1024v145l264 265h496l264 -265v-290l-162 -162l162 -162v-291l-264 -264h-496l-264 264v146h145l205 -205h324l145 145v119l-145 145h-265v205h265l145 146v118l-145 146h-324l-205 -205h-145z" />
    <glyph glyph-name="uni0418" unicode="&#x418;" 
d="M205 1434h205v-820h59l410 410h145v410h205v-1434h-205v819h-59l-410 -409h-145v-410h-205v1434z" />
    <glyph glyph-name="uni0419" unicode="&#x419;" 
d="M205 1434h205v-820h59l410 410h145v410h205v-1434h-205v819h-59l-410 -409h-145v-410h-205v1434zM614 1229v205h205v-205h-205z" />
    <glyph glyph-name="uni041A" unicode="&#x41a;" 
d="M205 1434h205v-615h59l614 615h146v-146l-572 -571l572 -572v-145h-146l-614 614h-59v-614h-205v1434z" />
    <glyph glyph-name="uni041B" unicode="&#x41b;" 
d="M205 0v205h205v964l264 265h555v-1434h-205v1229h-264l-146 -146v-1083h-409z" />
    <glyph glyph-name="uni041C" unicode="&#x41c;" 
d="M205 1434h205v-205h145l162 -162l162 162h145v205h205v-1434h-205v1024h-59l-146 -145v-265h-205v265l-145 145h-59v-1024h-205v1434z" />
    <glyph glyph-name="uni041D" unicode="&#x41d;" 
d="M205 1434h205v-615h614v615h205v-1434h-205v614h-614v-614h-205v1434z" />
    <glyph glyph-name="uni041E" unicode="&#x41e;" 
d="M205 1169l264 265h496l264 -265v-905l-264 -264h-496l-264 264v905zM555 1229l-145 -146v-733l145 -145h324l145 145v733l-145 146h-324z" />
    <glyph glyph-name="uni041F" unicode="&#x41f;" 
d="M205 1434h1024v-1434h-205v1229h-614v-1229h-205v1434z" />
    <glyph glyph-name="uni0420" unicode="&#x420;" 
d="M205 1434h760l264 -265v-290l-264 -265h-555v-614h-205v1434zM410 1229v-410h469l145 146v118l-145 146h-469z" />
    <glyph glyph-name="uni0421" unicode="&#x421;" 
d="M205 1169l264 265h496l264 -265v-145h-146l-204 205h-324l-145 -146v-733l145 -145h324l204 205h146v-146l-264 -264h-496l-264 264v905z" />
    <glyph glyph-name="uni0422" unicode="&#x422;" 
d="M205 1229v205h1024v-205h-410v-1229h-205v1229h-409z" />
    <glyph glyph-name="uni0423" unicode="&#x423;" 
d="M205 1434h205v-615h614v615h205v-1434h-1024v205h819v409h-819v820z" />
    <glyph glyph-name="uni0424" unicode="&#x424;" 
d="M205 1229h409v205h205v-205h410v-1024h-410v-205h-205v205h-409v1024zM410 1024v-614h204v614h-204zM819 1024v-614h205v614h-205z" />
    <glyph glyph-name="uni0425" unicode="&#x425;" 
d="M205 1434h205v-265l307 -307l307 307v265h205v-351l-367 -366l367 -367v-350h-205v264l-307 307l-307 -307v-264h-205v350l366 367l-366 366v351z" />
    <glyph glyph-name="uni0426" unicode="&#x426;" 
d="M205 1434h205v-1229h409v1229h205v-1229h205v-410h-205v205h-819v1434z" />
    <glyph glyph-name="uni0427" unicode="&#x427;" 
d="M205 1434h205v-615h614v615h205v-1434h-205v614h-819v820z" />
    <glyph glyph-name="uni0428" unicode="&#x428;" 
d="M205 1434h205v-1229h204v1229h205v-1229h205v1229h205v-1434h-1024v1434z" />
    <glyph glyph-name="uni0429" unicode="&#x429;" 
d="M205 1434h205v-1229h204v1229h205v-1229h205v1229h205v-1639h-205v205h-819v1434z" />
    <glyph glyph-name="uni042A" unicode="&#x42a;" 
d="M205 1229v205h409v-615h615v-819h-819v1229h-205zM614 614v-409h410v409h-410z" />
    <glyph glyph-name="uni042B" unicode="&#x42b;" 
d="M205 1434h205v-615h409v-819h-614v1434zM410 614v-409h204v409h-204zM1024 1434h205v-1434h-205v1434z" />
    <glyph glyph-name="uni042C" unicode="&#x42c;" 
d="M205 1434h205v-615h819v-819h-1024v1434zM410 614v-409h614v409h-614z" />
    <glyph glyph-name="uni042D" unicode="&#x42d;" 
d="M205 1024v145l264 265h291l469 -469v-496l-469 -469h-291l-264 264v146h145l205 -205h119l350 350v59h-410v205h410v60l-350 350h-119l-205 -205h-145z" />
    <glyph glyph-name="uni042E" unicode="&#x42e;" 
d="M205 1434h205v-615h204v350l265 265h86l264 -265v-905l-264 -264h-86l-265 264v350h-204v-614h-205v1434zM819 1083v-733l103 -102l102 102v733l-102 103z" />
    <glyph glyph-name="uni042F" unicode="&#x42f;" 
d="M205 1169l264 265h760v-1434h-205v614h-205v-145l-469 -469h-145v145l409 410v59h-145l-264 265v290zM555 1229l-145 -146v-118l145 -146h469v410h-469z" />
    <glyph glyph-name="uni0430" unicode="&#x430;" 
d="M205 264v86l264 264h555v60l-145 145h-469v205h555l264 -264v-760h-760zM555 205h469v205h-469l-102 -103z" />
    <glyph glyph-name="uni0431" unicode="&#x431;" 
d="M205 1169l264 265h555v-205h-469l-145 -146v-59h555l264 -264v-496l-264 -264h-760v1169zM410 819v-614h469l145 145v324l-145 145h-469z" />
    <glyph glyph-name="uni0432" unicode="&#x432;" 
d="M205 1024h760l264 -264v-86l-162 -162l162 -162v-86l-264 -264h-760v1024zM410 819v-205h469l102 103l-102 102h-469zM410 410v-205h469l102 102l-102 103h-469z" />
    <glyph glyph-name="uni0433" unicode="&#x433;" 
d="M205 1024h1024v-205h-819v-819h-205v1024z" />
    <glyph glyph-name="uni0434" unicode="&#x434;" 
d="M205 205h205v555l264 264h350v-819h205v-410h-205v205h-614v-205h-205v410zM614 205h205v614h-59l-146 -145v-469z" />
    <glyph glyph-name="uni0435" unicode="&#x435;" 
d="M205 760l264 264h496l264 -264v-350h-819v-60l145 -145h469v-205h-555l-264 264v496zM555 819l-145 -145v-60h614v60l-145 145h-324z" />
    <glyph glyph-name="uni0436" unicode="&#x436;" 
d="M205 1024h205v-264l145 -146h59v410h205v-410h60l145 146v264h205v-350l-162 -162l162 -162v-350h-205v264l-145 146h-60v-410h-205v410h-59l-145 -146v-264h-205v350l162 162l-162 162v350z" />
    <glyph glyph-name="uni0437" unicode="&#x437;" 
d="M205 614v146l264 264h496l264 -264v-86l-162 -162l162 -162v-86l-264 -264h-496l-264 264v146h145l205 -205h324l102 102l-102 103h-265v204h265l102 103l-102 102h-324l-205 -205h-145z" />
    <glyph glyph-name="uni0438" unicode="&#x438;" 
d="M205 1024h205v-614h59l410 409h145v205h205v-1024h-205v614h-59l-410 -409h-145v-205h-205v1024z" />
    <glyph glyph-name="uni0439" unicode="&#x439;" 
d="M205 1024h205v-614h59l410 409h145v205h205v-1024h-205v614h-59l-410 -409h-145v-205h-205v1024zM614 1024v205h205v-205h-205z" />
    <glyph glyph-name="uni043A" unicode="&#x43a;" 
d="M205 1024h205v-410h264l409 410h146v-145l-367 -367l367 -367v-145h-146l-409 410h-264v-410h-205v1024z" />
    <glyph glyph-name="uni043B" unicode="&#x43b;" 
d="M205 0v205h205v555l264 264h555v-1024h-205v819h-264l-146 -145v-674h-409z" />
    <glyph glyph-name="uni043C" unicode="&#x43c;" 
d="M205 1024h205v-205h145l162 -162l162 162h145v205h205v-1024h-205v614h-59l-205 -204h-86l-205 204h-59v-614h-205v1024z" />
    <glyph glyph-name="uni043D" unicode="&#x43d;" 
d="M205 1024h205v-410h614v410h205v-1024h-205v410h-614v-410h-205v1024z" />
    <glyph glyph-name="uni043E" unicode="&#x43e;" 
d="M205 760l264 264h496l264 -264v-496l-264 -264h-496l-264 264v496zM555 819l-145 -145v-324l145 -145h324l145 145v324l-145 145h-324z" />
    <glyph glyph-name="uni043F" unicode="&#x43f;" 
d="M205 1024h1024v-1024h-205v819h-614v-819h-205v1024z" />
    <glyph glyph-name="uni0440" unicode="&#x440;" 
d="M205 1024h760l264 -264v-496l-264 -264h-555v-410h-205v1434zM410 819v-614h469l145 145v324l-145 145h-469z" />
    <glyph glyph-name="uni0441" unicode="&#x441;" 
d="M205 760l264 264h496l264 -264v-146h-146l-204 205h-324l-145 -145v-324l145 -145h324l204 205h146v-146l-264 -264h-496l-264 264v496z" />
    <glyph glyph-name="uni0442" unicode="&#x442;" 
d="M205 819v205h1024v-205h-410v-819h-205v819h-409z" />
    <glyph glyph-name="uni0443" unicode="&#x443;" 
d="M205 1024h205v-674l145 -145h469v819h205v-1169l-264 -265h-555v205h469l145 146v59h-555l-264 264v760z" />
    <glyph glyph-name="uni0444" unicode="&#x444;" 
d="M205 760l264 264h145v205h205v-205h146l264 -264v-496l-264 -264h-146v-205h-205v205h-145l-264 264v496zM555 819l-145 -145v-324l145 -145h59v614h-59zM819 819v-614h60l145 145v324l-145 145h-60z" />
    <glyph glyph-name="uni0445" unicode="&#x445;" 
d="M205 879v145h145l367 -367l366 367h146v-145l-367 -367l367 -367v-145h-146l-366 367l-367 -367h-145v145l366 367z" />
    <glyph glyph-name="uni0446" unicode="&#x446;" 
d="M205 1024h205v-819h409v819h205v-819h205v-410h-205v205h-819v1024z" />
    <glyph glyph-name="uni0447" unicode="&#x447;" 
d="M205 1024h205v-469l145 -145h469v614h205v-1024h-205v205h-555l-264 264v555z" />
    <glyph glyph-name="uni0448" unicode="&#x448;" 
d="M205 1024h205v-819h204v819h205v-819h205v819h205v-1024h-1024v1024z" />
    <glyph glyph-name="uni0449" unicode="&#x449;" 
d="M205 1024h205v-819h204v819h205v-819h205v819h205v-1229h-205v205h-819v1024z" />
    <glyph glyph-name="uni044A" unicode="&#x44a;" 
d="M205 819v205h409v-410h351l264 -264v-86l-264 -264h-555v819h-205zM614 410v-205h265l102 102l-102 103h-265z" />
    <glyph glyph-name="uni044B" unicode="&#x44b;" 
d="M205 1024h205v-410h409v-614h-614v1024zM410 410v-205h204v205h-204zM1024 1024h205v-1024h-205v1024z" />
    <glyph glyph-name="uni044C" unicode="&#x44c;" 
d="M205 1024h205v-410h555l264 -264v-86l-264 -264h-760v1024zM410 410v-205h469l102 102l-102 103h-469z" />
    <glyph glyph-name="uni044D" unicode="&#x44d;" 
d="M205 614v146l264 264h291l264 -264v-496l-264 -264h-291l-264 264v146h145l205 -205h119l145 145v60h-205v204h205v60l-145 145h-119l-205 -205h-145z" />
    <glyph glyph-name="uni044E" unicode="&#x44e;" 
d="M205 1024h205v-410h204v146l265 264h86l264 -264v-496l-264 -264h-86l-265 264v146h-204v-410h-205v1024zM819 674v-324l103 -102l102 102v324l-102 102z" />
    <glyph glyph-name="uni044F" unicode="&#x44f;" 
d="M205 674v86l264 264h760v-1024h-205v410h-205v-146l-264 -264h-350v205h264l145 145v60h-145zM555 614h469v205h-469l-102 -102z" />
    <glyph glyph-name="uni0450" unicode="&#x450;" 
d="M205 760l264 264h145v59l-204 205v146h145l264 -265v-145h146l264 -264v-350h-819v-60l145 -145h469v-205h-555l-264 264v496zM555 819l-145 -145v-60h614v60l-145 145h-324z" />
    <glyph glyph-name="uni0451" unicode="&#x451;" 
d="M205 760l264 264h496l264 -264v-350h-819v-60l145 -145h469v-205h-555l-264 264v496zM410 1229v205h204v-205h-204zM555 819l-145 -145v-60h614v60l-145 145h-324zM819 1229v205h205v-205h-205z" />
    <glyph glyph-name="uni0452" unicode="&#x452;" 
d="M205 1024v205h205v205h204v-205h410v-205h-410v-205h351l264 -264v-700l-264 -265h-146v146l205 205v528l-145 145h-265v-614h-204v1024h-205z" />
    <glyph glyph-name="uni0454" unicode="&#x454;" 
d="M205 760l264 264h291l264 -264v-146h-145l-205 205h-119l-145 -145v-60h204v-204h-204v-60l145 -145h119l205 205h145v-146l-264 -264h-291l-264 264v496z" />
    <glyph glyph-name="uni0455" unicode="&#x455;" 
d="M205 674v86l264 264h760v-205h-674l-102 -102l102 -103h410l264 -264v-86l-264 -264h-760v205h674l102 102l-102 103h-410z" />
    <glyph glyph-name="uni0456" unicode="&#x456;" 
d="M410 819v205h409v-819h205v-205h-614v205h204v614h-204zM614 1229v205h205v-205h-205z" />
    <glyph glyph-name="uni0457" unicode="&#x457;" 
d="M410 1229v205h204v-205h-204zM410 819v205h409v-819h205v-205h-614v205h204v614h-204zM819 1229v205h205v-205h-205z" />
    <glyph glyph-name="uni0458" unicode="&#x458;" 
d="M614 -59v1083h205v-1169l-264 -265h-145v146zM614 1229v205h205v-205h-205z" />
    <glyph glyph-name="uni0459" unicode="&#x459;" 
d="M205 760l264 264h350v-410h146l264 -264v-86l-264 -264h-351v819h-59l-145 -145v-674h-205v760zM819 410v-205h60l102 102l-102 103h-60z" />
    <glyph glyph-name="uni045A" unicode="&#x45a;" 
d="M205 1024h205v-410h204v410h205v-410h146l264 -264v-86l-264 -264h-351v410h-204v-410h-205v1024zM819 410v-205h60l102 102l-102 103h-60z" />
    <glyph glyph-name="uni045B" unicode="&#x45b;" 
d="M205 1024v205h205v205h204v-205h410v-205h-410v-205h351l264 -264v-555h-205v469l-145 145h-265v-614h-204v1024h-205z" />
    <glyph glyph-name="uni045E" unicode="&#x45e;" 
d="M205 1024h205v-674l145 -145h469v819h205v-1169l-264 -265h-555v205h469l145 146v59h-555l-264 264v760zM614 1024v205h205v-205h-205z" />
    <glyph glyph-name="uni045F" unicode="&#x45f;" 
d="M205 1024h205v-819h614v819h205v-1024h-410v-205h-205v205h-409v1024z" />
    <glyph glyph-name="uni0490" unicode="&#x490;" 
d="M205 1229h819v205h205v-410h-819v-1024h-205v1229z" />
    <glyph glyph-name="uni0491" unicode="&#x491;" 
d="M205 1024h819v205h205v-410h-819v-819h-205v1024z" />
    <glyph glyph-name="uni0492" unicode="&#x492;" 
d="M205 614v205h205v615h819v-205h-615v-410h410v-205h-410v-614h-204v614h-205z" />
    <glyph glyph-name="uni0493" unicode="&#x493;" 
d="M205 410v204h205v410h819v-205h-615v-205h410v-204h-410v-410h-204v410h-205z" />
    <glyph glyph-name="uni05D0" unicode="&#x5d0;" 
d="M205 1083v146h145l572 -572l102 103v469h205v-555l-162 -162l162 -162v-350h-205v264l-512 512l-102 -102v-674h-205v760l162 162z" />
    <glyph glyph-name="uni05D1" unicode="&#x5d1;" 
d="M205 0v205h614v819h-409v205h614v-1024h205v-205h-1024z" />
    <glyph glyph-name="uni05D2" unicode="&#x5d2;" 
d="M410 0v145l469 469h145v410h-205v205h410v-1229h-205v410h-59l-410 -410h-145z" />
    <glyph glyph-name="uni05D3" unicode="&#x5d3;" 
d="M205 1024v205h1024v-205h-205v-1024h-205v1024h-614z" />
    <glyph glyph-name="uni05D4" unicode="&#x5d4;" 
d="M205 1024v205h1024v-1229h-205v1024h-819zM205 614h205v-614h-205v614z" />
    <glyph glyph-name="uni05D5" unicode="&#x5d5;" 
d="M410 1024v205h409v-1229h-205v1024h-204z" />
    <glyph glyph-name="uni05D6" unicode="&#x5d6;" 
d="M410 1024v205h614v-205h-205v-145l-162 -162l162 -162v-555h-205v469l-204 205v86l204 205v59h-204z" />
    <glyph glyph-name="uni05D7" unicode="&#x5d7;" 
d="M205 1229h1024v-1229h-205v1024h-614v-1024h-205v1229z" />
    <glyph glyph-name="uni05D8" unicode="&#x5d8;" 
d="M205 1229h205v-1024h614v614h-59l-205 -205h-146v146l265 264h145v205h205v-1229h-1024v1229z" />
    <glyph glyph-name="uni05D9" unicode="&#x5d9;" 
d="M410 1024v205h409v-410h-205v205h-204z" />
    <glyph glyph-name="uni05DA" unicode="&#x5da;" 
d="M205 1024v205h1024v-1434h-205v1229h-819z" />
    <glyph glyph-name="uni05DB" unicode="&#x5db;" 
d="M205 1024v205h1024v-1229h-1024v205h819v819h-819z" />
    <glyph glyph-name="uni05DC" unicode="&#x5dc;" 
d="M205 1434h205v-205h819v-760l-469 -469h-350v205h264l350 350v469h-819v410z" />
    <glyph glyph-name="uni05DD" unicode="&#x5dd;" 
d="M205 1229h1024v-1229h-1024v1229zM410 1024v-819h614v819h-614z" />
    <glyph glyph-name="uni05DE" unicode="&#x5de;" 
d="M205 1083v146h145l162 -162l162 162h291l264 -264v-965h-615v205h410v674l-145 145h-119l-350 -350v-674h-205v760l162 162z" />
    <glyph glyph-name="uni05DF" unicode="&#x5df;" 
d="M410 1024v205h409v-1639h-205v1434h-204z" />
    <glyph glyph-name="uni05E0" unicode="&#x5e0;" 
d="M410 0v205h409v819h-205v205h410v-1229h-614z" />
    <glyph glyph-name="uni05E1" unicode="&#x5e1;" 
d="M205 1024v205h1024v-965l-264 -264h-496l-264 264v496l205 205v59h-205zM614 1024v-145l-204 -205v-324l145 -145h324l145 145v674h-410z" />
    <glyph glyph-name="uni05E2" unicode="&#x5e2;" 
d="M205 0v205h205v1024h204v-1024h60l350 350v674h205v-760l-469 -469h-555z" />
    <glyph glyph-name="uni05E3" unicode="&#x5e3;" 
d="M205 1024v205h1024v-1434h-205v1229h-410v-205h205v-205h-409v410h-205z" />
    <glyph glyph-name="uni05E4" unicode="&#x5e4;" 
d="M205 1024v205h1024v-1229h-1024v205h819v819h-410v-205h205v-205h-409v410h-205z" />
    <glyph glyph-name="uni05E5" unicode="&#x5e5;" 
d="M205 1024v205h409v-410h60l409 410h146v-146l-469 -469h-146v-819h-204v1229h-205z" />
    <glyph glyph-name="uni05E6" unicode="&#x5e6;" 
d="M205 1229h205v-264l307 -308l307 308v264h205v-350l-367 -367l162 -162v-145h205v-205h-1024v205h614v59l-614 615v350z" />
    <glyph glyph-name="uni05E7" unicode="&#x5e7;" 
d="M205 1024v205h1024v-760l-264 -264h-146v145l205 205v469h-819zM410 819h204v-1024h-204v1024z" />
    <glyph glyph-name="uni05E8" unicode="&#x5e8;" 
d="M205 1024v205h1024v-1229h-205v1024h-819z" />
    <glyph glyph-name="uni05E9" unicode="&#x5e9;" 
d="M205 1229h205v-615h59l145 146v469h205v-555l-264 -264h-145v-205h469l145 145v879h205v-965l-264 -264h-760v1229z" />
    <glyph glyph-name="uni05EA" unicode="&#x5ea;" 
d="M205 0v205h205v1024h819v-1229h-205v1024h-410v-1024h-409z" />
    <glyph glyph-name="uni1D00" unicode="&#x1d00;" 
d="M205 760l264 264h496l264 -264v-760h-205v410h-614v-410h-205v760zM555 819l-145 -145v-60h614v60l-145 145h-324z" />
    <glyph glyph-name="uni1D01" unicode="&#x1d01;" 
d="M205 760l264 264h760v-205h-410v-205h205v-204h-205v-205h410v-205h-615v205h-204v-205h-205v760zM555 819l-145 -145v-264h204v409h-59z" />
    <glyph glyph-name="uni1D02" unicode="&#x1d02;" 
d="M205 614h409v205h-204v205h555l264 -264v-86l-264 -264h-146v-60l205 -205v-145h-145l-162 162l-162 -162h-86l-264 264v350zM410 410v-60l102 -102l102 102v60h-204zM819 819v-205h60l102 103l-102 102h-60z" />
    <glyph glyph-name="uni1D04" unicode="&#x1d04;" 
d="M205 760l264 264h496l264 -264v-146h-146l-204 205h-324l-145 -145v-324l145 -145h324l204 205h146v-146l-264 -264h-496l-264 264v496z" />
    <glyph glyph-name="uni1D05" unicode="&#x1d05;" 
d="M205 1024h760l264 -264v-496l-264 -264h-760v1024zM410 819v-614h469l145 145v324l-145 145h-469z" />
    <glyph glyph-name="uni1D06" unicode="&#x1d06;" 
d="M205 410v204h205v410h555l264 -264v-496l-264 -264h-555v410h-205zM614 819v-205h205v-204h-205v-205h265l145 145v324l-145 145h-265z" />
    <glyph glyph-name="uni1D07" unicode="&#x1d07;" 
d="M205 1024h1024v-205h-819v-205h614v-204h-614v-205h819v-205h-1024v1024z" />
    <glyph glyph-name="uni1D09" unicode="&#x1d09;" 
d="M410 819v205h614v-205h-205v-614h205v-205h-410v819h-204zM614 -410v205h205v-205h-205z" />
    <glyph glyph-name="uni1D0A" unicode="&#x1d0a;" 
d="M205 264v146h145l205 -205h324l145 145v674h205v-760l-264 -264h-496z" />
    <glyph glyph-name="uni1D0B" unicode="&#x1d0b;" 
d="M205 1024h205v-410h264l409 410h146v-145l-367 -367l367 -367v-145h-146l-409 410h-264v-410h-205v1024z" />
    <glyph glyph-name="uni1D0D" unicode="&#x1d0d;" 
d="M205 1024h205v-205h145l162 -162l162 162h145v205h205v-1024h-205v614h-59l-205 -204h-86l-205 204h-59v-614h-205v1024z" />
    <glyph glyph-name="uni1D0E" unicode="&#x1d0e;" 
d="M205 1024h205v-614h59l410 409h145v205h205v-1024h-205v614h-59l-410 -409h-145v-205h-205v1024z" />
    <glyph glyph-name="uni1D0F" unicode="&#x1d0f;" 
d="M205 760l264 264h496l264 -264v-496l-264 -264h-496l-264 264v496zM555 819l-145 -145v-324l145 -145h324l145 145v324l-145 145h-324z" />
    <glyph glyph-name="uni1D14" unicode="&#x1d14;" 
d="M205 819v205h350l162 -162l162 162h86l264 -264v-496l-264 -264h-86l-162 162l-162 -162h-86l-264 264v350h409v60l-145 145h-264zM410 410v-60l102 -102l102 102v60h-204zM819 674v-324l103 -102l102 102v324l-102 102z" />
    <glyph glyph-name="uni1D18" unicode="&#x1d18;" 
d="M205 1024h760l264 -264v-86l-264 -264h-555v-410h-205v1024zM410 819v-205h469l102 103l-102 102h-469z" />
    <glyph glyph-name="uni1D19" unicode="&#x1d19;" 
d="M205 674v86l264 264h760v-1024h-205v410h-410v-146l-264 -264h-145v145l205 205v119zM555 614h469v205h-469l-102 -102z" />
    <glyph glyph-name="uni1D1A" unicode="&#x1d1a;" 
d="M205 879v145h145l264 -264v-146h410v410h205v-1024h-760l-264 264v86l205 205v119zM555 205h469v205h-469l-102 -103z" />
    <glyph glyph-name="uni1D1B" unicode="&#x1d1b;" 
d="M205 819v205h1024v-205h-410v-819h-205v819h-409z" />
    <glyph glyph-name="uni1D1C" unicode="&#x1d1c;" 
d="M205 1024h205v-674l145 -145h324l145 145v674h205v-760l-264 -264h-496l-264 264v760z" />
    <glyph glyph-name="uni1D1D" unicode="&#x1d1d;" 
d="M205 819v205h1024v-760l-264 -264h-760v205h674l145 145v469h-819z" />
    <glyph glyph-name="uni1D1F" unicode="&#x1d1f;" 
d="M205 819v205h1024v-350l-162 -162l162 -162v-86l-264 -264h-760v205h674l102 102l-102 103h-674v204h674l145 146v59h-819z" />
    <glyph glyph-name="uni1D20" unicode="&#x1d20;" 
d="M205 1024h205v-264l204 -205v-205l103 -102l102 102v205l205 205v264h205v-350l-205 -205v-205l-264 -264h-86l-264 264v205l-205 205v350z" />
    <glyph glyph-name="uni1D21" unicode="&#x1d21;" 
d="M205 1024h205v-674l102 -102l102 102v264h205v-264l103 -102l102 102v674h205v-760l-264 -264h-86l-162 162l-162 -162h-86l-264 264v760z" />
    <glyph glyph-name="uni1D22" unicode="&#x1d22;" 
d="M205 819v205h1024v-350l-264 -264h-410l-145 -146v-59h819v-205h-1024v350l264 264h410l145 146v59h-819z" />
    <glyph glyph-name="uni1D4A" unicode="&#x1d4a;" 
d="M205 1229v205h350l264 -265v-495l-264 -264h-86l-264 264v350h409v59l-145 146h-264zM410 819v-59l102 -103l102 103v59h-204z" />
    <glyph glyph-name="uni1D62" unicode="&#x1d62;" 
d="M410 0v205h409v-410h205v-205h-614v205h204v205h-204zM614 410v204h205v-204h-205z" />
    <glyph glyph-name="uni1DBF" unicode="&#x1dbf;" 
d="M205 1169l264 265h86l264 -265v-495l-264 -264h-86l-264 264v495zM410 1083v-59h204v59l-102 103zM410 819v-59l102 -103l102 103v59h-204z" />
    <glyph glyph-name="uni1E02" unicode="&#x1e02;" 
d="M205 1024h760l264 -264v-86l-162 -162l162 -162v-86l-264 -264h-760v1024zM410 819v-205h469l102 103l-102 102h-469zM410 410v-205h469l102 102l-102 103h-469zM614 1229v205h205v-205h-205z" />
    <glyph glyph-name="uni1E03" unicode="&#x1e03;" 
d="M205 1434h205v-410h555l264 -264v-496l-264 -264h-760v1434zM410 819v-614h469l145 145v324l-145 145h-469zM614 1229v205h205v-205h-205z" />
    <glyph glyph-name="uni1E04" unicode="&#x1e04;" 
d="M205 1434h760l264 -265v-290l-162 -162l162 -162v-291l-264 -264h-760v1434zM410 1229v-410h469l145 146v118l-145 146h-469zM410 614v-409h469l145 145v119l-145 145h-469zM614 -410v205h205v-205h-205z" />
    <glyph glyph-name="uni1E05" unicode="&#x1e05;" 
d="M205 1434h205v-410h555l264 -264v-496l-264 -264h-760v1434zM410 819v-614h469l145 145v324l-145 145h-469zM614 -410v205h205v-205h-205z" />
    <glyph glyph-name="uni1E06" unicode="&#x1e06;" 
d="M205 1434h760l264 -265v-290l-162 -162l162 -162v-291l-264 -264h-760v1434zM410 1229v-410h469l145 146v118l-145 146h-469zM410 614v-409h469l145 145v119l-145 145h-469zM410 -410v205h614v-205h-614z" />
    <glyph glyph-name="uni1E07" unicode="&#x1e07;" 
d="M205 1434h205v-410h555l264 -264v-496l-264 -264h-760v1434zM410 819v-614h469l145 145v324l-145 145h-469zM410 -410v205h614v-205h-614z" />
    <glyph glyph-name="uni1E08" unicode="&#x1e08;" 
d="M205 760l264 264h145v145l265 265h145v-146l-205 -205v-59h146l264 -264v-146h-146l-204 205h-324l-145 -145v-324l145 -145h324l204 205h146v-146l-264 -264h-146v-145l-264 -265h-145v146l204 205v59h-145l-264 264v496z" />
    <glyph glyph-name="uni1E09" unicode="&#x1e09;" 
d="M205 760l264 264h145v145l265 265h145v-146l-205 -205v-59h410v-205h-674l-145 -145v-324l145 -145h674v-205h-410v-145l-264 -265h-145v146l204 205v59h-145l-264 264v496z" />
    <glyph glyph-name="uni1E0A" unicode="&#x1e0a;" 
d="M205 1024h760l264 -264v-496l-264 -264h-760v1024zM410 819v-614h469l145 145v324l-145 145h-469zM614 1229v205h205v-205h-205z" />
    <glyph glyph-name="uni1E0B" unicode="&#x1e0b;" 
d="M205 760l264 264h555v410h205v-1434h-760l-264 264v496zM555 819l-145 -145v-324l145 -145h469v614h-469zM614 1229v205h205v-205h-205z" />
    <glyph glyph-name="uni1E0C" unicode="&#x1e0c;" 
d="M205 1434h760l264 -265v-905l-264 -264h-760v1434zM410 1229v-1024h469l145 145v733l-145 146h-469zM614 -410v205h205v-205h-205z" />
    <glyph glyph-name="uni1E0D" unicode="&#x1e0d;" 
d="M205 760l264 264h555v410h205v-1434h-760l-264 264v496zM555 819l-145 -145v-324l145 -145h469v614h-469zM614 -410v205h205v-205h-205z" />
    <glyph glyph-name="uni1E0E" unicode="&#x1e0e;" 
d="M205 1434h760l264 -265v-905l-264 -264h-760v1434zM410 1229v-1024h469l145 145v733l-145 146h-469zM410 -410v205h614v-205h-614z" />
    <glyph glyph-name="uni1E0F" unicode="&#x1e0f;" 
d="M205 760l264 264h555v410h205v-1434h-760l-264 264v496zM555 819l-145 -145v-324l145 -145h469v614h-469zM410 -410v205h614v-205h-614z" />
    <glyph glyph-name="uni1E10" unicode="&#x1e10;" 
d="M205 1434h760l264 -265v-905l-264 -264h-146v-145l-264 -265h-145v146l204 205v59h-409v1434zM410 1229v-1024h469l145 145v733l-145 146h-469z" />
    <glyph glyph-name="uni1E11" unicode="&#x1e11;" 
d="M205 760l264 264h555v410h205v-1434h-410v-145l-264 -265h-145v146l204 205v59h-145l-264 264v496zM555 819l-145 -145v-324l145 -145h469v614h-469z" />
    <glyph glyph-name="uni1E12" unicode="&#x1e12;" 
d="M205 1434h760l264 -265v-905l-264 -264h-146v-59l205 -205v-146h-145l-162 162l-162 -162h-145v146l204 205v59h-409v1434zM410 1229v-1024h469l145 145v733l-145 146h-469z" />
    <glyph glyph-name="uni1E13" unicode="&#x1e13;" 
d="M205 760l264 264h555v410h205v-1434h-410v-59l205 -205v-146h-145l-162 162l-162 -162h-145v146l204 205v59h-145l-264 264v496zM555 819l-145 -145v-324l145 -145h469v614h-469z" />
    <glyph glyph-name="uni1E18" unicode="&#x1e18;" 
d="M205 1434h1024v-205h-819v-410h614v-205h-614v-409h819v-205h-410v-59l205 -205v-146h-145l-162 162l-162 -162h-145v146l204 205v59h-409v1434z" />
    <glyph glyph-name="uni1E19" unicode="&#x1e19;" 
d="M205 760l264 264h496l264 -264v-350h-819v-60l145 -145h469v-205h-205v-59l205 -205v-146h-145l-162 162l-162 -162h-145v146l204 205v59h-145l-264 264v496zM555 819l-145 -145v-60h614v60l-145 145h-324z" />
    <glyph glyph-name="uni1E1E" unicode="&#x1e1e;" 
d="M205 1024h1024v-205h-819v-205h614v-204h-614v-410h-205v1024zM614 1229v205h205v-205h-205z" />
    <glyph glyph-name="uni1E1F" unicode="&#x1e1f;" 
d="M410 410v204h204v146l265 264h145v-145l-205 -205v-60h205v-204h-205v-410h-205v410h-204zM614 1229v205h205v-205h-205z" />
    <glyph glyph-name="uni1E20" unicode="&#x1e20;" 
d="M205 760l264 264h760v-205h-674l-145 -145v-324l145 -145h469v205h-205v204h410v-614h-760l-264 264v496zM410 1229v205h614v-205h-614z" />
    <glyph glyph-name="uni1E21" unicode="&#x1e21;" 
d="M205 760l264 264h760v-1169l-264 -265h-555v205h469l145 146v59h-555l-264 264v496zM410 1229v205h614v-205h-614zM555 819l-145 -145v-324l145 -145h469v614h-469z" />
    <glyph glyph-name="uni1E22" unicode="&#x1e22;" 
d="M205 1434h205v-615h614v615h205v-1434h-205v614h-614v-614h-205v1434zM614 1229v205h205v-205h-205z" />
    <glyph glyph-name="uni1E23" unicode="&#x1e23;" 
d="M205 1434h205v-410h555l264 -264v-760h-205v674l-145 145h-469v-819h-205v1434zM614 1229v205h205v-205h-205z" />
    <glyph glyph-name="uni1E24" unicode="&#x1e24;" 
d="M205 1434h205v-615h614v615h205v-1434h-205v614h-614v-614h-205v1434zM614 -410v205h205v-205h-205z" />
    <glyph glyph-name="uni1E25" unicode="&#x1e25;" 
d="M205 1434h205v-410h555l264 -264v-760h-205v674l-145 145h-469v-819h-205v1434zM614 -410v205h205v-205h-205z" />
    <glyph glyph-name="uni1E26" unicode="&#x1e26;" 
d="M205 1024h205v-410h614v410h205v-1024h-205v410h-614v-410h-205v1024zM410 1229v205h204v-205h-204zM819 1229v205h205v-205h-205z" />
    <glyph glyph-name="uni1E27" unicode="&#x1e27;" 
d="M205 1434h205v-410h555l264 -264v-760h-205v674l-145 145h-469v-819h-205v1434zM614 1229v205h205v-205h-205zM1024 1229v205h205v-205h-205z" />
    <glyph glyph-name="uni1E28" unicode="&#x1e28;" 
d="M205 1434h205v-410h614v410h205v-1229h-205v614h-614v-614h-205v1229zM614 59v146h146l264 -264v-86l-264 -265h-146v146l162 162z" />
    <glyph glyph-name="uni1E29" unicode="&#x1e29;" 
d="M205 1434h205v-410h555l264 -264v-555h-205v469l-145 145h-469v-614h-205v1229zM614 59v146h146l264 -264v-86l-264 -265h-146v146l162 162z" />
    <glyph glyph-name="uni1E32" unicode="&#x1e32;" 
d="M205 1434h205v-615h59l614 615h146v-146l-572 -571l572 -572v-145h-146l-614 614h-59v-614h-205v1434zM614 -410v205h205v-205h-205z" />
    <glyph glyph-name="uni1E33" unicode="&#x1e33;" 
d="M410 1434h204v-820h60l409 410h146v-145l-367 -367l367 -367v-145h-146l-409 410h-60v-410h-204v1434zM614 -410v205h205v-205h-205z" />
    <glyph glyph-name="uni1E34" unicode="&#x1e34;" 
d="M205 1434h205v-615h59l614 615h146v-146l-572 -571l572 -572v-145h-146l-614 614h-59v-614h-205v1434zM410 -410v205h614v-205h-614z" />
    <glyph glyph-name="uni1E35" unicode="&#x1e35;" 
d="M410 1434h204v-820h60l409 410h146v-145l-367 -367l367 -367v-145h-146l-409 410h-60v-410h-204v1434zM410 -410v205h614v-205h-614z" />
    <glyph glyph-name="uni1E36" unicode="&#x1e36;" 
d="M205 1434h205v-1229h819v-205h-1024v1434zM614 -410v205h205v-205h-205z" />
    <glyph glyph-name="uni1E37" unicode="&#x1e37;" 
d="M410 1229v205h409v-1229h205v-205h-614v205h204v1024h-204zM614 -410v205h205v-205h-205z" />
    <glyph glyph-name="uni1E3A" unicode="&#x1e3a;" 
d="M205 1434h205v-1229h819v-205h-1024v1434zM410 -410v205h614v-205h-614z" />
    <glyph glyph-name="uni1E3B" unicode="&#x1e3b;" 
d="M410 1229v205h409v-1229h205v-205h-614v205h204v1024h-204zM410 -410v205h614v-205h-614z" />
    <glyph glyph-name="uni1E3C" unicode="&#x1e3c;" 
d="M205 1434h205v-1229h819v-205h-410v-59l205 -205v-146h-145l-162 162l-162 -162h-145v146l204 205v59h-409v1434z" />
    <glyph glyph-name="uni1E3D" unicode="&#x1e3d;" 
d="M410 1229v205h409v-1024h205v-205h-614v205h204v819h-204zM410 -410v146l264 264h86l264 -264v-146h-145l-162 162l-162 -162h-145z" />
    <glyph glyph-name="uni1E3E" unicode="&#x1e3e;" 
d="M205 1024h205v-205h145l162 -162l162 162h145v205h205v-1024h-205v614h-59l-205 -204h-86l-205 204h-59v-614h-205v1024zM614 1024v145l265 265h145v-146l-264 -264h-146z" />
    <glyph glyph-name="uni1E3F" unicode="&#x1e3f;" 
d="M205 819h350l162 -162l162 162h86l264 -264v-555h-205v469l-102 102l-103 -102v-469h-205v469l-145 145h-59v-614h-205v819zM614 1024v145l265 265h145v-146l-264 -264h-146z" />
    <glyph glyph-name="uni1E40" unicode="&#x1e40;" 
d="M205 1229h205v-205h145l162 -162l162 162h145v205h205v-1229h-205v819h-59l-205 -205h-86l-205 205h-59v-819h-205v1229zM614 1229v205h205v-205h-205z" />
    <glyph glyph-name="uni1E41" unicode="&#x1e41;" 
d="M205 1024h350l162 -162l162 162h86l264 -264v-760h-205v674l-102 102l-103 -102v-674h-205v674l-145 145h-59v-819h-205v1024zM614 1229v205h205v-205h-205z" />
    <glyph glyph-name="uni1E42" unicode="&#x1e42;" 
d="M205 1434h205v-205h145l162 -162l162 162h145v205h205v-1434h-205v1024h-59l-146 -145v-265h-205v265l-145 145h-59v-1024h-205v1434zM614 -410v205h205v-205h-205z" />
    <glyph glyph-name="uni1E43" unicode="&#x1e43;" 
d="M205 1024h350l162 -162l162 162h86l264 -264v-760h-205v674l-102 102l-103 -102v-674h-205v674l-145 145h-59v-819h-205v1024zM614 -410v205h205v-205h-205z" />
    <glyph glyph-name="uni1E44" unicode="&#x1e44;" 
d="M205 1434h205v-410h145l410 -410h59v820h205v-1434h-205v410h-145l-410 409h-59v-819h-205v1434zM614 1229v205h205v-205h-205z" />
    <glyph glyph-name="uni1E45" unicode="&#x1e45;" 
d="M205 1024h760l264 -264v-760h-205v674l-145 145h-469v-819h-205v1024zM614 1229v205h205v-205h-205z" />
    <glyph glyph-name="uni1E46" unicode="&#x1e46;" 
d="M205 1434h205v-410h145l410 -410h59v820h205v-1434h-205v410h-145l-410 409h-59v-819h-205v1434zM614 -410v205h205v-205h-205z" />
    <glyph glyph-name="uni1E47" unicode="&#x1e47;" 
d="M205 1024h760l264 -264v-760h-205v674l-145 145h-469v-819h-205v1024zM614 -410v205h205v-205h-205z" />
    <glyph glyph-name="uni1E48" unicode="&#x1e48;" 
d="M205 1434h205v-410h145l410 -410h59v820h205v-1434h-205v410h-145l-410 409h-59v-819h-205v1434zM410 -410v205h614v-205h-614z" />
    <glyph glyph-name="uni1E49" unicode="&#x1e49;" 
d="M205 1024h760l264 -264v-760h-205v674l-145 145h-469v-819h-205v1024zM410 -410v205h614v-205h-614z" />
    <glyph glyph-name="uni1E54" unicode="&#x1e54;" 
d="M205 1024h409v145l265 265h145v-146l-205 -205v-59h146l264 -264v-86l-264 -264h-555v-410h-205v1024zM410 819v-205h469l102 103l-102 102h-469z" />
    <glyph glyph-name="uni1E55" unicode="&#x1e55;" 
d="M205 1024h409v145l265 265h145v-146l-205 -205v-59h146l264 -264v-496l-264 -264h-555v-410h-205v1434zM410 819v-614h469l145 145v324l-145 145h-469z" />
    <glyph glyph-name="uni1E56" unicode="&#x1e56;" 
d="M205 1024h760l264 -264v-86l-264 -264h-555v-410h-205v1024zM410 819v-205h469l102 103l-102 102h-469zM614 1229v205h205v-205h-205z" />
    <glyph glyph-name="uni1E57" unicode="&#x1e57;" 
d="M205 1024h760l264 -264v-496l-264 -264h-555v-410h-205v1434zM410 819v-614h469l145 145v324l-145 145h-469zM614 1229v205h205v-205h-205z" />
    <glyph glyph-name="uni1E58" unicode="&#x1e58;" 
d="M205 1024h760l264 -264v-86l-205 -205v-119l205 -205v-145h-146l-264 264v146h-409v-410h-205v1024zM410 819v-205h469l102 103l-102 102h-469zM614 1229v205h205v-205h-205z" />
    <glyph glyph-name="uni1E59" unicode="&#x1e59;" 
d="M410 1024h204v-205h60l205 205h350v-205h-264l-205 -205h-146v-614h-204v1024zM614 1229v205h205v-205h-205z" />
    <glyph glyph-name="uni1E5A" unicode="&#x1e5a;" 
d="M205 1434h760l264 -265v-290l-264 -265h-146v-59l410 -410v-145h-146l-469 469v145h-204v-614h-205v1434zM410 1229v-410h469l145 146v118l-145 146h-469zM614 -410v205h205v-205h-205z" />
    <glyph glyph-name="uni1E5B" unicode="&#x1e5b;" 
d="M410 1024h204v-205h60l205 205h350v-205h-264l-205 -205h-146v-614h-204v1024zM614 -410v205h205v-205h-205z" />
    <glyph glyph-name="uni1E5C" unicode="&#x1e5c;" 
d="M205 1024h760l264 -264v-86l-205 -205v-119l205 -205v-145h-146l-264 264v146h-409v-410h-205v1024zM410 819v-205h469l102 103l-102 102h-469zM410 1229v205h614v-205h-614zM614 -410v205h205v-205h-205z" />
    <glyph glyph-name="uni1E5D" unicode="&#x1e5d;" 
d="M410 1229v205h614v-205h-614zM410 1024h204v-205h60l205 205h350v-205h-264l-205 -205h-146v-614h-204v1024zM614 -410v205h205v-205h-205z" />
    <glyph glyph-name="uni1E5E" unicode="&#x1e5e;" 
d="M205 1434h760l264 -265v-290l-264 -265h-146v-59l410 -410v-145h-146l-469 469v145h-204v-614h-205v1434zM410 1229v-410h469l145 146v118l-145 146h-469zM410 -410v205h614v-205h-614z" />
    <glyph glyph-name="uni1E5F" unicode="&#x1e5f;" 
d="M410 1024h204v-205h60l205 205h350v-205h-264l-205 -205h-146v-614h-204v1024zM410 -410v205h614v-205h-614z" />
    <glyph glyph-name="uni1E62" unicode="&#x1e62;" 
d="M205 1169l264 265h496l264 -265v-145h-146l-204 205h-324l-145 -146v-118l145 -146h410l264 -264v-291l-264 -264h-496l-264 264v146h145l205 -205h324l145 145v119l-145 145h-410l-264 265v290zM614 -410v205h205v-205h-205z" />
    <glyph glyph-name="uni1E63" unicode="&#x1e63;" 
d="M205 674v86l264 264h760v-205h-674l-102 -102l102 -103h410l264 -264v-86l-264 -264h-760v205h674l102 102l-102 103h-410zM614 -410v205h205v-205h-205z" />
    <glyph glyph-name="uni1E6A" unicode="&#x1e6a;" 
d="M205 819v205h1024v-205h-410v-819h-205v819h-409zM614 1229v205h205v-205h-205z" />
    <glyph glyph-name="uni1E6B" unicode="&#x1e6b;" 
d="M410 614v205h204v205h205v-205h205v-205h-205v-264l205 -205v-145h-145l-265 264v350h-204zM614 1229v205h205v-205h-205z" />
    <glyph glyph-name="uni1E6C" unicode="&#x1e6c;" 
d="M205 1229v205h1024v-205h-410v-1229h-205v1229h-409zM614 -410v205h205v-205h-205z" />
    <glyph glyph-name="uni1E6D" unicode="&#x1e6d;" 
d="M410 819v205h204v410h205v-410h205v-205h-205v-469l205 -205v-145h-145l-265 264v555h-204zM614 -410v205h205v-205h-205z" />
    <glyph glyph-name="uni1E6E" unicode="&#x1e6e;" 
d="M205 1229v205h1024v-205h-410v-1229h-205v1229h-409zM410 -410v205h614v-205h-614z" />
    <glyph glyph-name="uni1E6F" unicode="&#x1e6f;" 
d="M410 819v205h204v410h205v-410h205v-205h-205v-469l205 -205v-145h-145l-265 264v555h-204zM410 -410v205h614v-205h-614z" />
    <glyph glyph-name="uni1E70" unicode="&#x1e70;" 
d="M205 1229v205h1024v-205h-410v-1024h-205v1024h-409zM410 -410v146l264 264h86l264 -264v-146h-145l-162 162l-162 -162h-145z" />
    <glyph glyph-name="uni1E71" unicode="&#x1e71;" 
d="M410 819v205h204v410h205v-410h205v-205h-205v-264l205 -205v-145h-145l-265 264v350h-204zM410 -410v146l264 264h86l264 -264v-146h-145l-162 162l-162 -162h-145z" />
    <glyph glyph-name="uni1E72" unicode="&#x1e72;" 
d="M205 1434h205v-1084l145 -145h324l145 145v1084h205v-1170l-264 -264h-496l-264 264v1170zM410 -410v205h204v-205h-204zM819 -410v205h205v-205h-205z" />
    <glyph glyph-name="uni1E73" unicode="&#x1e73;" 
d="M205 1024h205v-674l145 -145h469v819h205v-1024h-760l-264 264v760zM410 -410v205h204v-205h-204zM819 -410v205h205v-205h-205z" />
    <glyph glyph-name="uni1E76" unicode="&#x1e76;" 
d="M205 1434h205v-1084l145 -145h324l145 145v1084h205v-1170l-264 -264h-146v-59l205 -205v-146h-145l-162 162l-162 -162h-145v146l204 205v59h-145l-264 264v1170z" />
    <glyph glyph-name="uni1E77" unicode="&#x1e77;" 
d="M205 1024h205v-674l145 -145h469v819h205v-1024h-410v-59l205 -205v-146h-145l-162 162l-162 -162h-145v146l204 205v59h-145l-264 264v760z" />
    <glyph glyph-name="uni1E7A" unicode="&#x1e7a;" 
d="M205 614h205v-264l145 -145h324l145 145v264h205v-350l-264 -264h-496l-264 264v350zM410 1229v205h204v-205h-204zM410 819v205h614v-205h-614zM819 1229v205h205v-205h-205z" />
    <glyph glyph-name="uni1E7B" unicode="&#x1e7b;" 
d="M205 614h205v-264l145 -145h469v409h205v-614h-760l-264 264v350zM410 1229v205h204v-205h-204zM410 819v205h614v-205h-614zM819 1229v205h205v-205h-205z" />
    <glyph glyph-name="uni1E7E" unicode="&#x1e7e;" 
d="M205 1434h205v-469l204 -205v-205l103 -102l102 102v205l205 205v469h205v-555l-205 -205v-205l-205 -205v-264h-205v264l-204 205v205l-205 205v555zM614 -410v205h205v-205h-205z" />
    <glyph glyph-name="uni1E7F" unicode="&#x1e7f;" 
d="M205 1024h205v-264l204 -205v-205l103 -102l102 102v205l205 205v264h205v-350l-205 -205v-205l-264 -264h-86l-264 264v205l-205 205v350zM614 -410v205h205v-205h-205z" />
    <glyph glyph-name="Wdieresis" unicode="&#x1e84;" 
d="M205 1024h205v-674l102 -102l102 102v469h205v-469l103 -102l102 102v674h205v-760l-264 -264h-86l-162 162l-162 -162h-86l-264 264v760zM410 1229v205h204v-205h-204zM819 1229v205h205v-205h-205z" />
    <glyph glyph-name="wdieresis" unicode="&#x1e85;" 
d="M205 1024h205v-674l102 -102l102 102v264h205v-264l103 -102l102 102v674h205v-760l-264 -264h-86l-162 162l-162 -162h-86l-264 264v760zM410 1229v205h204v-205h-204zM819 1229v205h205v-205h-205z" />
    <glyph glyph-name="uni1E88" unicode="&#x1e88;" 
d="M205 1434h205v-1084l102 -102l102 102v469h205v-469l103 -102l102 102v1084h205v-1170l-264 -264h-86l-162 162l-162 -162h-86l-264 264v1170zM614 -410v205h205v-205h-205z" />
    <glyph glyph-name="uni1E89" unicode="&#x1e89;" 
d="M205 1024h205v-674l102 -102l102 102v264h205v-264l103 -102l102 102v674h205v-760l-264 -264h-86l-162 162l-162 -162h-86l-264 264v760zM614 -410v205h205v-205h-205z" />
    <glyph glyph-name="uni1E8A" unicode="&#x1e8a;" 
d="M205 1434h205v-265l307 -307l307 307v265h205v-351l-367 -366l367 -367v-350h-205v264l-307 307l-307 -307v-264h-205v350l366 367l-366 366v351zM614 1229v205h205v-205h-205z" />
    <glyph glyph-name="uni1E8B" unicode="&#x1e8b;" 
d="M205 879v145h145l367 -367l366 367h146v-145l-367 -367l367 -367v-145h-146l-366 367l-367 -367h-145v145l366 367zM614 1229v205h205v-205h-205z" />
    <glyph glyph-name="uni1E8C" unicode="&#x1e8c;" 
d="M205 1024h205v-264l145 -146h324l145 146v264h205v-350l-162 -162l162 -162v-350h-205v264l-145 146h-324l-145 -146v-264h-205v350l162 162l-162 162v350zM410 1229v205h204v-205h-204zM819 1229v205h205v-205h-205z" />
    <glyph glyph-name="uni1E8D" unicode="&#x1e8d;" 
d="M205 879v145h145l367 -367l366 367h146v-145l-367 -367l367 -367v-145h-146l-366 367l-367 -367h-145v145l366 367zM410 1229v205h204v-205h-204zM819 1229v205h205v-205h-205z" />
    <glyph glyph-name="uni1E8E" unicode="&#x1e8e;" 
d="M205 1434h205v-265l307 -307l307 307v265h205v-351l-410 -409v-674h-205v674l-409 409v351zM614 1229v205h205v-205h-205z" />
    <glyph glyph-name="uni1E8F" unicode="&#x1e8f;" 
d="M205 1024h205v-674l145 -145h469v819h205v-1169l-264 -265h-555v205h469l145 146v59h-555l-264 264v760zM614 1229v205h205v-205h-205z" />
    <glyph glyph-name="uni1E90" unicode="&#x1e90;" 
d="M205 819v205h205v145l264 265h86l264 -265v-145h205v-350l-264 -264h-410l-145 -146v-59h819v-205h-1024v350l264 264h410l145 146v59h-819zM614 1024h205v59l-102 103l-103 -103v-59z" />
    <glyph glyph-name="uni1E91" unicode="&#x1e91;" 
d="M205 819v205h205v145l264 265h86l264 -265v-145h205v-205h-205v-145l-410 -410v-59h615v-205h-1024v205h205v145l409 410v59h-614zM614 1024h205v59l-102 103l-103 -103v-59z" />
    <glyph glyph-name="uni1E92" unicode="&#x1e92;" 
d="M205 1229v205h1024v-351l-819 -819v-59h819v-205h-1024v350l819 819v60h-819zM614 -410v205h205v-205h-205z" />
    <glyph glyph-name="uni1E93" unicode="&#x1e93;" 
d="M205 819v205h1024v-205h-205v-145l-410 -410v-59h615v-205h-1024v205h205v145l409 410v59h-614zM614 -410v205h205v-205h-205z" />
    <glyph glyph-name="uni1E94" unicode="&#x1e94;" 
d="M205 1229v205h1024v-351l-819 -819v-59h819v-205h-1024v350l819 819v60h-819zM410 -410v205h614v-205h-614z" />
    <glyph glyph-name="uni1E95" unicode="&#x1e95;" 
d="M205 819v205h1024v-205h-205v-145l-410 -410v-59h615v-205h-1024v205h205v145l409 410v59h-614zM410 -410v205h614v-205h-614z" />
    <glyph glyph-name="uni1E96" unicode="&#x1e96;" 
d="M205 1434h205v-410h555l264 -264v-760h-205v674l-145 145h-469v-819h-205v1434zM410 -410v205h614v-205h-614z" />
    <glyph glyph-name="uni1E97" unicode="&#x1e97;" 
d="M205 1229v205h205v-205h-205zM410 819v205h204v410h205v-410h205v-205h-205v-469l205 -205v-145h-145l-265 264v555h-204zM1024 1229v205h205v-205h-205z" />
    <glyph glyph-name="uni1E9E" unicode="&#x1e9e;" 
d="M205 1169l264 265h496l264 -265v-86l-205 -204v-119l205 -205v-291l-264 -264h-351v205h265l145 145v119l-205 205v291l162 161l-102 103h-324l-145 -146v-1083h-205v1169z" />
    <glyph glyph-name="uni1EA0" unicode="&#x1ea0;" 
d="M205 965l469 469h86l469 -469v-965h-205v410h-614v-410h-205v965zM410 879v-265h614v265l-307 307zM614 -410v205h205v-205h-205z" />
    <glyph glyph-name="uni1EA1" unicode="&#x1ea1;" 
d="M205 264v86l264 264h555v60l-145 145h-469v205h555l264 -264v-760h-760zM555 205h469v205h-469l-102 -103zM614 -410v205h205v-205h-205z" />
    <glyph glyph-name="uni1EB8" unicode="&#x1eb8;" 
d="M205 1434h1024v-205h-819v-410h614v-205h-614v-409h819v-205h-1024v1434zM614 -410v205h205v-205h-205z" />
    <glyph glyph-name="uni1EB9" unicode="&#x1eb9;" 
d="M205 760l264 264h496l264 -264v-350h-819v-60l145 -145h469v-205h-555l-264 264v496zM555 819l-145 -145v-60h614v60l-145 145h-324zM614 -410v205h205v-205h-205z" />
    <glyph glyph-name="uni1ECA" unicode="&#x1eca;" 
d="M410 1229v205h614v-205h-205v-1024h205v-205h-614v205h204v1024h-204zM614 -410v205h205v-205h-205z" />
    <glyph glyph-name="uni1ECB" unicode="&#x1ecb;" 
d="M410 819v205h409v-819h205v-205h-614v205h204v614h-204zM614 1229v205h205v-205h-205zM614 -410v205h205v-205h-205z" />
    <glyph glyph-name="uni1ECC" unicode="&#x1ecc;" 
d="M205 1169l264 265h496l264 -265v-905l-264 -264h-496l-264 264v905zM555 1229l-145 -146v-733l145 -145h324l145 145v733l-145 146h-324zM614 -410v205h205v-205h-205z" />
    <glyph glyph-name="uni1ECD" unicode="&#x1ecd;" 
d="M205 760l264 264h496l264 -264v-496l-264 -264h-496l-264 264v496zM555 819l-145 -145v-324l145 -145h324l145 145v324l-145 145h-324zM614 -410v205h205v-205h-205z" />
    <glyph glyph-name="uni1EE4" unicode="&#x1ee4;" 
d="M205 1434h205v-1084l145 -145h324l145 145v1084h205v-1170l-264 -264h-496l-264 264v1170zM614 -410v205h205v-205h-205z" />
    <glyph glyph-name="uni1EE5" unicode="&#x1ee5;" 
d="M205 1024h205v-674l145 -145h469v819h205v-1024h-760l-264 264v760zM614 -410v205h205v-205h-205z" />
    <glyph glyph-name="uni1EF4" unicode="&#x1ef4;" 
d="M205 1434h205v-265l307 -307l307 307v265h205v-351l-410 -409v-674h-205v674l-409 409v351zM614 -410v205h205v-205h-205z" />
    <glyph glyph-name="uni1EF5" unicode="&#x1ef5;" 
d="M205 1024h205v-264l145 -146h469v410h205v-760l-264 -264h-555v205h469l145 145v60h-555l-264 264v350zM614 -410v205h205v-205h-205z" />
    <glyph glyph-name="uni2010" unicode="&#x2010;" 
d="M410 614v205h614v-205h-614z" />
    <glyph glyph-name="uni2011" unicode="&#x2011;" 
d="M410 614v205h614v-205h-614z" />
    <glyph glyph-name="endash" unicode="&#x2013;" 
d="M205 614v205h819v-205h-819z" />
    <glyph glyph-name="emdash" unicode="&#x2014;" 
d="M205 614v205h1024v-205h-1024z" />
    <glyph glyph-name="dblverticalbar" unicode="&#x2016;" 
d="M410 1434h204v-1434h-204v1434zM819 1434h205v-1434h-205v1434z" />
    <glyph glyph-name="underscoredbl" unicode="&#x2017;" 
d="M205 0v205h1024v-205h-1024zM205 -410v205h1024v-205h-1024z" />
    <glyph glyph-name="quoteleft" unicode="&#x2018;" 
d="M614 1169l265 265h145v-146l-205 -205v-264h-205v350z" />
    <glyph glyph-name="quoteright" unicode="&#x2019;" 
d="M614 1169v265h205v-351l-264 -264h-145v146z" />
    <glyph glyph-name="quotesinglbase" unicode="&#x201a;" 
d="M614 145v265h205v-351l-264 -264h-145v146z" />
    <glyph glyph-name="quotereversed" unicode="&#x201b;" 
d="M614 1434h205v-265l205 -204v-146h-145l-265 264v351z" />
    <glyph glyph-name="quotedblleft" unicode="&#x201c;" 
d="M205 1169l264 265h145v-146l-204 -205v-264h-205v350zM819 1169l264 265h146v-146l-205 -205v-264h-205v350z" />
    <glyph glyph-name="quotedblright" unicode="&#x201d;" 
d="M410 1169v265h204v-351l-264 -264h-145v146zM1024 1169v265h205v-351l-264 -264h-146v146z" />
    <glyph glyph-name="quotedblbase" unicode="&#x201e;" 
d="M410 145v265h204v-351l-264 -264h-145v146zM1024 145v265h205v-351l-264 -264h-146v146z" />
    <glyph glyph-name="uni201F" unicode="&#x201f;" 
d="M205 1434h205v-265l204 -204v-146h-145l-264 264v351zM819 1434h205v-265l205 -204v-146h-146l-264 264v351z" />
    <glyph glyph-name="dagger" unicode="&#x2020;" 
d="M205 819v205h409v410h205v-410h410v-205h-410v-1229h-205v1229h-409z" />
    <glyph glyph-name="daggerdbl" unicode="&#x2021;" 
d="M205 819v205h409v410h205v-410h410v-205h-410v-614h410v-205h-410v-410h-205v410h-409v205h409v614h-409z" />
    <glyph glyph-name="bullet" unicode="&#x2022;" 
d="M410 1024h614v-614h-614v614z" />
    <glyph glyph-name="ellipsis" unicode="&#x2026;" 
d="M205 0v205h205v-205h-205zM614 0v205h205v-205h-205zM1024 0v205h205v-205h-205z" />
    <glyph glyph-name="perthousand" unicode="&#x2030;" 
d="M205 1434h205v-410h-205v410zM205 410v145l878 879h146v-146l-879 -878h-145zM614 410h205v-410h-205v410zM1024 410h205v-410h-205v410z" />
    <glyph glyph-name="minute" unicode="&#x2032;" 
d="M410 1169v265h204v-351l-204 -204v-265h-205v351z" />
    <glyph glyph-name="second" unicode="&#x2033;" 
d="M410 1169v265h204v-351l-204 -204v-265h-205v351zM1024 1169v265h205v-351l-205 -204v-265h-205v351z" />
    <glyph glyph-name="uni2035" unicode="&#x2035;" 
d="M819 1434h205v-265l205 -204v-351h-205v265l-205 204v351z" />
    <glyph glyph-name="uni2036" unicode="&#x2036;" 
d="M205 1434h205v-265l204 -204v-351h-204v265l-205 204v351zM819 1434h205v-265l205 -204v-351h-205v265l-205 204v351z" />
    <glyph glyph-name="guilsinglleft" unicode="&#x2039;" 
d="M614 469v86l265 264h145v-145l-162 -162l162 -162v-145h-145z" />
    <glyph glyph-name="guilsinglright" unicode="&#x203a;" 
d="M410 674v145h145l264 -264v-86l-264 -264h-145v145l161 162z" />
    <glyph glyph-name="uni203B" unicode="&#x203b;" 
d="M205 1434h205v-265l307 -307l307 307v265h205v-351l-410 -409v-324l410 -409v-351h-205v265l-307 307l-307 -307v-265h-205v351l409 409v324l-409 409v351zM205 410v204h205v-204h-205zM614 1229v205h205v-205h-205zM614 -410v205h205v-205h-205zM1024 410v204h205v-204
h-205z" />
    <glyph glyph-name="exclamdbl" unicode="&#x203c;" 
d="M410 1434h204v-1024h-204v1024zM410 0v205h204v-205h-204zM819 1434h205v-1024h-205v1024zM819 0v205h205v-205h-205z" />
    <glyph glyph-name="uni203D" unicode="&#x203d;" 
d="M205 1024v145l264 265h496l264 -265v-290l-264 -265h-146v-204h-205v819h-59l-205 -205h-145zM819 1229v-410h60l145 146v118l-145 146h-60zM614 0v205h205v-205h-205z" />
    <glyph glyph-name="uni203E" unicode="&#x203e;" 
d="M205 1229v205h1024v-205h-1024z" />
    <glyph glyph-name="uni203F" unicode="&#x203f;" 
d="M205 -145v145h145l205 -205h324l204 205h146v-145l-264 -265h-496z" />
    <glyph glyph-name="uni2040" unicode="&#x2040;" 
d="M205 1024v145l264 265h496l264 -265v-145h-146l-204 205h-324l-205 -205h-145z" />
    <glyph glyph-name="fraction" unicode="&#x2044;" 
d="M410 145v205l409 410v205l205 204v265h205v-351l-205 -204v-205l-410 -410v-205l-204 -204v-265h-205v351z" />
    <glyph glyph-name="uni2047" unicode="&#x2047;" 
d="M205 1024v145l264 265h86l162 -162l162 162h86l264 -265v-495l-264 -264h-146v145l205 205v323l-102 103l-103 -103v-204l-205 -205v-264h-204v350l204 205v118l-102 103l-162 -162h-145zM410 0v205h204v-205h-204zM819 0v205h205v-205h-205z" />
    <glyph glyph-name="uni2048" unicode="&#x2048;" 
d="M205 1024v145l264 265h86l264 -265v-290l-205 -205v-264h-204v350l204 205v118l-102 103l-162 -162h-145zM410 0v205h204v-205h-204zM1024 1434h205v-1024h-205v1024zM1024 0v205h205v-205h-205z" />
    <glyph glyph-name="uni2049" unicode="&#x2049;" 
d="M205 1434h205v-1024h-205v1024zM205 0v205h205v-205h-205zM614 1024v145l265 265h86l264 -265v-290l-205 -205v-264h-205v350l205 205v118l-102 103l-162 -162h-146zM819 0v205h205v-205h-205z" />
    <glyph glyph-name="uni204B" unicode="&#x204b;" 
d="M205 1434h205v-1434h-205v1434zM614 1434h351l264 -265v-290l-264 -265h-146v-614h-205v1434zM819 1229v-410h60l145 146v118l-145 146h-60z" />
    <glyph glyph-name="uni204F" unicode="&#x204f;" 
d="M614 819v205h205v-205h-205zM614 410h205v-265l205 -204v-146h-145l-265 264v351z" />
    <glyph glyph-name="uni2052" unicode="&#x2052;" 
d="M205 1229v205h205v-205h-205zM205 350l819 819v265h205v-351l-819 -819v-264h-205v350zM1024 0v205h205v-205h-205z" />
    <glyph glyph-name="uni2053" unicode="&#x2053;" 
d="M205 614v146l264 264h86l367 -367l161 162h146v-145l-264 -264h-86l-367 366l-162 -162h-145z" />
    <glyph glyph-name="uni2054" unicode="&#x2054;" 
d="M205 -410v146l264 264h496l264 -264v-146h-146l-204 205h-324l-205 -205h-145z" />
    <glyph glyph-name="uni2056" unicode="&#x2056;" 
d="M205 410v204h205v-204h-205zM1024 819v205h205v-205h-205zM1024 0v205h205v-205h-205z" />
    <glyph glyph-name="uni2058" unicode="&#x2058;" 
d="M205 410v204h205v-204h-205zM614 819v205h205v-205h-205zM614 0v205h205v-205h-205zM1024 410v204h205v-204h-205z" />
    <glyph glyph-name="uni2059" unicode="&#x2059;" 
d="M205 819v205h205v-205h-205zM205 0v205h205v-205h-205zM614 410v204h205v-204h-205zM1024 819v205h205v-205h-205zM1024 0v205h205v-205h-205z" />
    <glyph glyph-name="uni205A" unicode="&#x205a;" 
d="M614 1229v205h205v-205h-205zM614 0v205h205v-205h-205z" />
    <glyph glyph-name="uni205B" unicode="&#x205b;" 
d="M205 410v204h205v-204h-205zM614 1229v205h205v-205h-205zM614 -410v205h205v-205h-205zM1024 410v204h205v-204h-205z" />
    <glyph glyph-name="uni205C" unicode="&#x205c;" 
d="M205 819v205h205v-205h-205zM205 410v204h409v410h205v-410h410v-204h-410v-410h-205v410h-409zM205 0v205h205v-205h-205zM1024 819v205h205v-205h-205zM1024 0v205h205v-205h-205z" />
    <glyph glyph-name="uni205D" unicode="&#x205d;" 
d="M614 1229v205h205v-205h-205zM614 614v205h205v-205h-205zM614 0v205h205v-205h-205z" />
    <glyph glyph-name="uni205E" unicode="&#x205e;" 
d="M614 1229v205h205v-205h-205zM614 819v205h205v-205h-205zM614 410v204h205v-204h-205zM614 0v205h205v-205h-205z" />
    <glyph glyph-name="uni2070" unicode="&#x2070;" 
d="M410 1169l264 265h86l264 -265v-495l-264 -264h-86l-264 264v495zM614 1083v-323l103 -103l102 103v323l-102 103z" />
    <glyph glyph-name="uni2071" unicode="&#x2071;" 
d="M410 819v205h409v-410h205v-204h-614v204h204v205h-204zM614 1229v205h205v-205h-205z" />
    <glyph glyph-name="uni2074" unicode="&#x2074;" 
d="M410 965l264 264h145v205h205v-1024h-205v204h-409v351zM760 1024l-146 -145v-60h205v205h-59z" />
    <glyph glyph-name="uni2075" unicode="&#x2075;" 
d="M410 1434h614v-205h-410v-205h146l264 -264v-86l-264 -264h-350v204h264l102 103l-102 102h-264v615z" />
    <glyph glyph-name="uni2076" unicode="&#x2076;" 
d="M410 1169l264 265h145v-146l-205 -205v-59h146l264 -264v-86l-264 -264h-86l-264 264v495zM614 819v-59l103 -103l59 60l-102 102h-60z" />
    <glyph glyph-name="uni2077" unicode="&#x2077;" 
d="M410 1229v205h614v-351l-410 -409v-264h-204v350l409 409v60h-409z" />
    <glyph glyph-name="uni2078" unicode="&#x2078;" 
d="M410 1083v86l264 265h86l264 -265v-86l-162 -161l162 -162v-86l-264 -264h-86l-264 264v86l161 162zM717 1067l59 59l-59 60l-60 -60zM717 657l59 60l-59 59l-60 -59z" />
    <glyph glyph-name="uni2079" unicode="&#x2079;" 
d="M410 1083v86l264 265h86l264 -265v-495l-264 -264h-146v145l205 205v59h-145zM760 1024h59v59l-102 103l-60 -60z" />
    <glyph glyph-name="uni207A" unicode="&#x207a;" 
d="M410 819v205h204v205h205v-205h205v-205h-205v-205h-205v205h-204z" />
    <glyph glyph-name="uni207B" unicode="&#x207b;" 
d="M410 819v205h614v-205h-614z" />
    <glyph glyph-name="uni207C" unicode="&#x207c;" 
d="M410 1024v205h614v-205h-614zM410 614v205h614v-205h-614z" />
    <glyph glyph-name="uni207D" unicode="&#x207d;" 
d="M614 1169l265 265h145v-146l-205 -205v-323l205 -205v-145h-145l-265 264v495z" />
    <glyph glyph-name="uni207E" unicode="&#x207e;" 
d="M410 1288v146h145l264 -265v-495l-264 -264h-145v145l204 205v323z" />
    <glyph glyph-name="uni207F" unicode="&#x207f;" 
d="M410 1024h350l264 -264v-350h-205v264l-145 145h-60v-409h-204v614z" />
    <glyph glyph-name="uni2080" unicode="&#x2080;" 
d="M410 350l264 264h86l264 -264v-495l-264 -265h-86l-264 265v495zM614 264v-323l103 -103l102 103v323l-102 103z" />
    <glyph glyph-name="uni2081" unicode="&#x2081;" 
d="M410 205v205h204v204h205v-819h205v-205h-614v205h204v410h-204z" />
    <glyph glyph-name="uni2082" unicode="&#x2082;" 
d="M410 410v204h350l264 -264v-86l-410 -409v-60h410v-205h-614v351l366 366l-102 103h-264z" />
    <glyph glyph-name="uni2083" unicode="&#x2083;" 
d="M410 410v204h350l264 -264v-86l-162 -162l162 -161v-86l-264 -265h-350v205h264l102 103l-102 102h-264v205h264l102 102l-102 103h-264z" />
    <glyph glyph-name="uni2084" unicode="&#x2084;" 
d="M410 145l264 265h145v204h205v-1024h-205v205h-409v350zM760 205l-146 -146v-59h205v205h-59z" />
    <glyph glyph-name="uni2085" unicode="&#x2085;" 
d="M410 614h614v-204h-410v-205h146l264 -264v-86l-264 -265h-350v205h264l102 103l-102 102h-264v614z" />
    <glyph glyph-name="uni2086" unicode="&#x2086;" 
d="M410 350l264 264h145v-145l-205 -205v-59h146l264 -264v-86l-264 -265h-86l-264 265v495zM614 0v-59l103 -103l59 60l-102 102h-60z" />
    <glyph glyph-name="uni2087" unicode="&#x2087;" 
d="M410 410v204h614v-350l-410 -409v-265h-204v351l409 409v60h-409z" />
    <glyph glyph-name="uni2088" unicode="&#x2088;" 
d="M410 264v86l264 264h86l264 -264v-86l-162 -162l162 -161v-86l-264 -265h-86l-264 265v86l161 161zM717 248l59 59l-59 60l-60 -60zM717 -162l59 60l-59 59l-60 -59z" />
    <glyph glyph-name="uni2089" unicode="&#x2089;" 
d="M410 264v86l264 264h86l264 -264v-495l-264 -265h-146v146l205 205v59h-145zM760 205h59v59l-102 103l-60 -60z" />
    <glyph glyph-name="uni208A" unicode="&#x208a;" 
d="M410 0v205h204v205h205v-205h205v-205h-205v-205h-205v205h-204z" />
    <glyph glyph-name="uni208B" unicode="&#x208b;" 
d="M410 0v205h614v-205h-614z" />
    <glyph glyph-name="uni208C" unicode="&#x208c;" 
d="M410 205v205h614v-205h-614zM410 -205v205h614v-205h-614z" />
    <glyph glyph-name="uni208D" unicode="&#x208d;" 
d="M614 350l265 264h145v-145l-205 -205v-323l205 -205v-146h-145l-265 265v495z" />
    <glyph glyph-name="uni208E" unicode="&#x208e;" 
d="M410 469v145h145l264 -264v-495l-264 -265h-145v146l204 205v323z" />
    <glyph glyph-name="uni2099" unicode="&#x2099;" 
d="M410 205h350l264 -264v-351h-205v265l-145 145h-60v-410h-204v615z" />
    <glyph glyph-name="peseta" unicode="&#x20a7;" 
d="M205 1434h350l264 -265v-86l-264 -264h-145v-819h-205v1434zM410 1229v-205h59l102 102l-102 103h-59zM614 410v204h205v205h205v-205h205v-204h-205v-60l205 -205v-145h-146l-264 264v146h-205z" />
    <glyph glyph-name="uni20AA" unicode="&#x20aa;" 
d="M205 1434h350l264 -265v-350h-205v264l-145 146h-59v-1229h-205v1434zM614 614h205v-409h60l145 145v1084h205v-1170l-264 -264h-351v614z" />
    <glyph glyph-name="Euro" unicode="&#x20ac;" 
d="M205 819v205h205v145l264 265h291l264 -265v-145h-146l-204 205h-119l-146 -146v-59h205v-205h-205v-205h205v-204h-205v-60l146 -145h119l204 205h146v-146l-264 -264h-291l-264 264v146h-205v204h205v205h-205z" />
    <glyph glyph-name="uni2117" unicode="&#x2117;" 
d="M205 1169l264 265h496l264 -265v-1314l-264 -265h-496l-264 265v1314zM555 1229l-145 -146v-59h350l205 -205h59v264l-145 146h-324zM614 819v-409h60l145 145v119l-145 145h-60zM410 0v-59l145 -146h324l145 146v469h-59l-205 -205h-146v-205h-204z" />
    <glyph glyph-name="Omega" unicode="&#x2126;" 
d="M205 1169l264 265h496l264 -265v-700l-205 -205v-59h205v-205h-410v350l205 205v528l-145 146h-324l-145 -146v-528l204 -205v-350h-409v205h205v59l-205 205v700z" />
    <glyph glyph-name="uni2127" unicode="&#x2127;" 
d="M205 1229v205h409v-351l-204 -204v-529l145 -145h324l145 145v529l-205 204v351h410v-205h-205v-60l205 -204v-701l-264 -264h-496l-264 264v701l205 204v60h-205z" />
    <glyph glyph-name="uni2129" unicode="&#x2129;" 
d="M410 879v145h145l264 -264v-555h205v-205h-410v674z" />
    <glyph glyph-name="uni2132" unicode="&#x2132;" 
d="M205 0v205h819v409h-614v205h614v615h205v-1434h-1024z" />
    <glyph glyph-name="uni214B" unicode="&#x214b;" 
d="M205 1288v146h145l162 -162l162 162h291l264 -265v-290l-162 -162l162 -162v-291l-264 -264h-86l-265 264v291l162 162l-264 264l-162 -162h-145v146l162 161zM760 1229l-103 -103l265 -264l102 103v118l-145 146h-119zM819 469v-119l103 -102l102 102v119l-102 102z" />
    <glyph glyph-name="uni214E" unicode="&#x214e;" 
d="M205 0v205h819v205h-614v204h614v410h205v-1024h-1024z" />
    <glyph glyph-name="uni2150" unicode="&#x2150;" 
d="M205 1434h205v-1024h-205v1024zM614 410v204h615v-350l-410 -409v-265h-205v351l410 409v60h-410z" />
    <glyph glyph-name="uni2151" unicode="&#x2151;" 
d="M205 1434h205v-1024h-205v1024zM614 264v86l265 264h86l264 -264v-495l-264 -265h-146v146l205 205v59h-145zM965 205h59v59l-102 103l-60 -60z" />
    <glyph glyph-name="uni2152" unicode="&#x2152;" 
d="M205 410h205v-820h-205v820zM410 1434h204v-820h-204v820zM614 145l265 265h86l264 -265v-290l-264 -265h-86l-265 265v290zM819 59v-118l103 -103l102 103v118l-102 103z" />
    <glyph glyph-name="onethird" unicode="&#x2153;" 
d="M205 1434h205v-1024h-205v1024zM614 410v204h351l264 -264v-86l-162 -162l162 -161v-86l-264 -265h-351v205h265l102 103l-102 102h-265v205h265l102 102l-102 103h-265z" />
    <glyph glyph-name="twothirds" unicode="&#x2154;" 
d="M205 1288v146h145l264 -265v-290l-204 -205v-60h204v-204h-409v350l205 205v118zM819 469v145h146l264 -264v-86l-162 -162l162 -161v-86l-264 -265h-146v146l162 162l-162 161v86l162 162z" />
    <glyph glyph-name="uni2155" unicode="&#x2155;" 
d="M205 1434h205v-1024h-205v1024zM614 614h615v-204h-410v-205h146l264 -264v-86l-264 -265h-351v205h265l102 103l-102 102h-265v614z" />
    <glyph glyph-name="uni2156" unicode="&#x2156;" 
d="M205 1288v146h145l264 -265v-290l-204 -205v-60h204v-204h-409v350l205 205v118zM819 614h410v-204h-205v-205h205v-350l-264 -265h-146v146l205 205v59h-205v614z" />
    <glyph glyph-name="uni2157" unicode="&#x2157;" 
d="M205 1288v146h145l264 -265v-86l-161 -161l161 -162v-86l-264 -264h-145v145l162 162l-162 162v86l162 161zM819 614h410v-204h-205v-205h205v-350l-264 -265h-146v146l205 205v59h-205v614z" />
    <glyph glyph-name="uni2158" unicode="&#x2158;" 
d="M205 965l264 264h145v205h205v-820h410v-204h-205v-205h205v-350l-264 -265h-146v146l205 205v59h-205v410h-205v204h-409v351zM555 1024l-145 -145v-60h204v205h-59z" />
    <glyph glyph-name="uni2159" unicode="&#x2159;" 
d="M205 1434h205v-1024h-205v1024zM614 350l265 264h145v-145l-205 -205v-59h146l264 -264v-86l-264 -265h-86l-265 265v495zM819 0v-59l103 -103l59 60l-102 102h-60z" />
    <glyph glyph-name="uni215A" unicode="&#x215a;" 
d="M205 1434h409v-205h-204v-205h204v-350l-264 -264h-145v145l205 205v59h-205v615zM614 350l265 264h145v-145l-205 -205v-59h146l264 -264v-86l-264 -265h-86l-265 265v495zM819 0v-59l103 -103l59 60l-102 102h-60z" />
    <glyph glyph-name="oneeighth" unicode="&#x215b;" 
d="M205 1434h205v-1024h-205v1024zM614 264v86l265 264h86l264 -264v-86l-162 -162l162 -161v-86l-264 -265h-86l-265 265v86l162 161zM922 248l59 59l-59 60l-60 -60zM922 -162l59 60l-59 59l-60 -59z" />
    <glyph glyph-name="threeeighths" unicode="&#x215c;" 
d="M205 1288v146h145l264 -265v-86l-161 -161l161 -162v-86l-264 -264h-145v145l162 162l-162 162v86l162 161zM614 264v86l265 264h86l264 -264v-86l-162 -162l162 -161v-86l-264 -265h-86l-265 265v86l162 161zM922 248l59 59l-59 60l-60 -60zM922 -162l59 60l-59 59
l-60 -59z" />
    <glyph glyph-name="fiveeighths" unicode="&#x215d;" 
d="M205 1434h409v-205h-204v-205h204v-350l-264 -264h-145v145l205 205v59h-205v615zM614 264v86l265 264h86l264 -264v-86l-162 -162l162 -161v-86l-264 -265h-86l-265 265v86l162 161zM922 248l59 59l-59 60l-60 -60zM922 -162l59 60l-59 59l-60 -59z" />
    <glyph glyph-name="seveneighths" unicode="&#x215e;" 
d="M205 1229v205h614v-351l-409 -409v-264h-205v350l409 409v60h-409zM614 264v86l265 264h86l264 -264v-86l-162 -162l162 -161v-86l-264 -265h-86l-265 265v86l162 161zM922 248l59 59l-59 60l-60 -60zM922 -162l59 60l-59 59l-60 -59z" />
    <glyph glyph-name="uni2189" unicode="&#x2189;" 
d="M205 1169l264 265h86l264 -265v-290l-264 -265h-86l-264 265v290zM410 1083v-118l102 -103l102 103v118l-102 103zM819 469v145h146l264 -264v-86l-162 -162l162 -161v-86l-264 -265h-146v146l162 162l-162 161v86l162 162z" />
    <glyph glyph-name="uni218A" unicode="&#x218a;" 
d="M205 1229v205h1024v-351l-469 -469h-205l-145 -145v-119l145 -145h324l204 205h146v-146l-264 -264h-496l-264 264v291l264 264h205l350 350v60h-819z" />
    <glyph glyph-name="uni218B" unicode="&#x218b;" 
d="M205 1169l264 265h496l264 -265v-145h-146l-204 205h-324l-145 -146v-118l145 -146h264v-205h-205v-145l-204 -205v-59h819v-205h-1024v350l205 205v119l-205 205v290z" />
    <glyph glyph-name="arrowleft" unicode="&#x2190;" 
d="M205 614v205h205v146l264 264h145v-146l-205 -204v-60h615v-205h-615v-59l205 -205v-145h-145l-264 264v145h-205z" />
    <glyph glyph-name="arrowup" unicode="&#x2191;" 
d="M205 614v146l264 264h145v205h205v-205h146l264 -264v-146h-146l-204 205h-60v-614h-205v614h-59l-205 -205h-145z" />
    <glyph glyph-name="arrowright" unicode="&#x2192;" 
d="M205 614v205h614v60l-205 204v146h146l264 -264v-146h205v-205h-205v-145l-264 -264h-146v145l205 205v59h-614z" />
    <glyph glyph-name="arrowdown" unicode="&#x2193;" 
d="M205 674v145h145l205 -205h59v615h205v-615h60l204 205h146v-145l-264 -264h-146v-205h-205v205h-145z" />
    <glyph glyph-name="arrowboth" unicode="&#x2194;" 
d="M205 965l264 264h145v-146l-204 -204v-60h614v60l-205 204v146h146l264 -264v-496l-264 -264h-146v145l205 205v59h-614v-59l204 -205v-145h-145l-264 264v496z" />
    <glyph glyph-name="arrowupdn" unicode="&#x2195;" 
d="M205 819v146l264 264h145v205h205v-205h146l264 -264v-146h-146l-204 205h-60v-614h60l204 204h146v-145l-264 -264h-146v-205h-205v205h-145l-264 264v145h145l205 -204h59v614h-59l-205 -205h-145z" />
    <glyph glyph-name="uni2196" unicode="&#x2196;" 
d="M205 1229h819v-205h-410v-59l615 -615v-145h-146l-614 614h-59v-409h-205v819z" />
    <glyph glyph-name="uni2197" unicode="&#x2197;" 
d="M205 205v145l614 615v59h-409v205h819v-819h-205v409h-59l-615 -614h-145z" />
    <glyph glyph-name="uni2198" unicode="&#x2198;" 
d="M205 1083v146h145l615 -615h59v410h205v-819h-819v205h409v59z" />
    <glyph glyph-name="uni2199" unicode="&#x2199;" 
d="M205 1024h205v-410h59l614 615h146v-146l-615 -614v-59h410v-205h-819v819z" />
    <glyph glyph-name="uni21A4" unicode="&#x21a4;" 
d="M205 614v205h205v146l264 264h145v-146l-205 -204v-60h410v410h205v-1024h-205v409h-410v-59l205 -205v-145h-145l-264 264v145h-205z" />
    <glyph glyph-name="uni21A5" unicode="&#x21a5;" 
d="M205 614v146l264 264h145v205h205v-205h146l264 -264v-146h-146l-204 205h-60v-409h410v-205h-1024v205h409v409h-59l-205 -205h-145z" />
    <glyph glyph-name="uni21A6" unicode="&#x21a6;" 
d="M205 1229h205v-410h409v60l-205 204v146h146l264 -264v-146h205v-205h-205v-145l-264 -264h-146v145l205 205v59h-409v-409h-205v1024z" />
    <glyph glyph-name="uni21A7" unicode="&#x21a7;" 
d="M205 1024v205h1024v-205h-410v-410h60l204 205h146v-145l-264 -264h-146v-205h-205v205h-145l-264 264v145h145l205 -205h59v410h-409z" />
    <glyph glyph-name="arrowupdnbse" unicode="&#x21a8;" 
d="M205 819v146l264 264h145v205h205v-205h146l264 -264v-146h-146l-204 205h-60v-614h60l204 204h146v-145l-205 -205v-59h205v-205h-1024v205h205v59l-205 205v145h145l205 -204h59v614h-59l-205 -205h-145z" />
    <glyph glyph-name="uni21B4" unicode="&#x21b4;" 
d="M205 1024v205h614v-615h60l204 205h146v-145l-264 -264h-146v-205h-205v205h-145l-264 264v145h145l205 -205h59v410h-409z" />
    <glyph glyph-name="carriagereturn" unicode="&#x21b5;" 
d="M205 614v205h205v146l264 264h145v-146l-205 -204v-60h410v615h205v-820h-615v-59l205 -205v-145h-145l-264 264v145h-205z" />
    <glyph glyph-name="uni21B9" unicode="&#x21b9;" 
d="M205 1434h205v-205h59l205 205h145v-146l-205 -205v-59h615v-205h-615v-59l351 -350h59v204h205v-1024h-205v205h-59l-205 -205h-146v146l205 205v59h-614v205h614v59l-350 350h-59v-204h-205v1024z" />
    <glyph glyph-name="uni21BC" unicode="&#x21bc;" 
d="M205 614v205h205v146l264 264h145v-146l-205 -204v-60h615v-205h-1024z" />
    <glyph glyph-name="uni21BD" unicode="&#x21bd;" 
d="M205 614v205h1024v-205h-615v-59l205 -205v-145h-145l-264 264v145h-205z" />
    <glyph glyph-name="uni21BE" unicode="&#x21be;" 
d="M614 1229h205v-205h146l264 -264v-146h-146l-204 205h-60v-614h-205v1024z" />
    <glyph glyph-name="uni21BF" unicode="&#x21bf;" 
d="M205 614v146l264 264h145v205h205v-1024h-205v614h-59l-205 -205h-145z" />
    <glyph glyph-name="uni21C0" unicode="&#x21c0;" 
d="M205 614v205h614v60l-205 204v146h146l264 -264v-146h205v-205h-1024z" />
    <glyph glyph-name="uni21C1" unicode="&#x21c1;" 
d="M205 614v205h1024v-205h-205v-145l-264 -264h-146v145l205 205v59h-614z" />
    <glyph glyph-name="uni21C2" unicode="&#x21c2;" 
d="M614 1229h205v-615h60l204 205h146v-145l-264 -264h-146v-205h-205v1024z" />
    <glyph glyph-name="uni21C3" unicode="&#x21c3;" 
d="M205 674v145h145l205 -205h59v615h205v-1024h-205v205h-145z" />
    <glyph glyph-name="uni21CB" unicode="&#x21cb;" 
d="M205 819v205h205v145l264 265h145v-146l-205 -205v-59h615v-205h-1024zM205 410v204h1024v-204h-205v-146l-264 -264h-146v145l205 205v60h-614z" />
    <glyph glyph-name="uni21CC" unicode="&#x21cc;" 
d="M205 819v205h614v59l-205 205v146h146l264 -265v-145h205v-205h-1024zM205 410v204h1024v-204h-615v-60l205 -205v-145h-145l-264 264v146h-205z" />
    <glyph glyph-name="arrowdblleft" unicode="&#x21d0;" 
d="M205 674v86l469 469h350v-205h205v-205h-410v205h-59l-307 -307l307 -307h59v204h410v-204h-205v-205h-350z" />
    <glyph glyph-name="arrowdblup" unicode="&#x21d1;" 
d="M205 965l469 469h86l469 -469v-351h-205v-614h-205v819h205v60l-307 307l-307 -307v-60h204v-819h-204v614h-205v351z" />
    <glyph glyph-name="arrowdblright" unicode="&#x21d2;" 
d="M205 819v205h205v205h350l469 -469v-86l-469 -469h-350v205h-205v204h409v-204h60l307 307l-307 307h-60v-205h-409z" />
    <glyph glyph-name="arrowdbldown" unicode="&#x21d3;" 
d="M205 819h205v615h204v-820h-204v-59l307 -307l307 307v59h-205v820h205v-615h205v-350l-469 -469h-86l-469 469v350z" />
    <glyph glyph-name="uni21E4" unicode="&#x21e4;" 
d="M205 1229h205v-205h59l205 205h145v-146l-205 -204v-60h615v-205h-615v-59l205 -205v-145h-145l-205 205h-59v-205h-205v1024z" />
    <glyph glyph-name="uni21E5" unicode="&#x21e5;" 
d="M205 614v205h614v60l-205 204v146h146l205 -205h59v205h205v-1024h-205v205h-59l-205 -205h-146v145l205 205v59h-614z" />
    <glyph glyph-name="uni21E6" unicode="&#x21e6;" 
d="M205 674v86l469 469h350v-205h205v-614h-205v-205h-350zM453 717l307 -307h59v204h205v205h-205v205h-59z" />
    <glyph glyph-name="uni21E7" unicode="&#x21e7;" 
d="M205 965l469 469h86l469 -469v-351h-205v-614h-614v614h-205v351zM410 879v-60h204v-614h205v614h205v60l-307 307z" />
    <glyph glyph-name="uni21E8" unicode="&#x21e8;" 
d="M205 1024h205v205h350l469 -469v-86l-469 -469h-350v205h-205v614zM410 819v-205h204v-204h60l307 307l-307 307h-60v-205h-204z" />
    <glyph glyph-name="uni21E9" unicode="&#x21e9;" 
d="M205 819h205v615h614v-615h205v-350l-469 -469h-86l-469 469v350zM410 614v-59l307 -307l307 307v59h-205v615h-205v-615h-204z" />
    <glyph glyph-name="uni21EA" unicode="&#x21ea;" 
d="M205 965l469 469h86l469 -469v-351h-205v-614h-614v614h-205v351zM410 879v-60h204v-205h205v205h205v60l-307 307zM614 410v-205h205v205h-205z" />
    <glyph glyph-name="partialdiff" unicode="&#x2202;" 
d="M205 1024v145l264 265h496l264 -265v-905l-264 -264h-496l-264 264v291l264 264h555v264l-145 146h-324l-205 -205h-145zM555 614l-145 -145v-119l145 -145h324l145 145v264h-469z" />
    <glyph glyph-name="Delta" unicode="&#x2206;" 
d="M410 760v205l204 204v265h205v-265l205 -204v-205l205 -205v-555h-1024v555zM614 674l-204 -205v-264h614v264l-205 205v205l-102 102l-103 -102v-205z" />
    <glyph glyph-name="gradient" unicode="&#x2207;" 
d="M205 1434h1024v-555l-205 -205v-205l-205 -205v-264h-205v264l-204 205v205l-205 205v555zM410 1229v-264l204 -205v-205l103 -102l102 102v205l205 205v264h-614z" />
    <glyph glyph-name="element" unicode="&#x2208;" 
d="M205 1169l264 265h760v-205h-674l-145 -146v-264h819v-205h-819v-264l145 -145h674v-205h-760l-264 264v905z" />
    <glyph glyph-name="uni220A" unicode="&#x220a;" 
d="M205 965l264 264h760v-205h-674l-145 -145v-60h819v-205h-819v-59l145 -145h674v-205h-760l-264 264v496z" />
    <glyph glyph-name="suchthat" unicode="&#x220b;" 
d="M205 1229v205h760l264 -265v-905l-264 -264h-760v205h674l145 145v264h-819v205h819v264l-145 146h-674z" />
    <glyph glyph-name="uni220D" unicode="&#x220d;" 
d="M205 1024v205h760l264 -264v-496l-264 -264h-760v205h674l145 145v59h-819v205h819v60l-145 145h-674z" />
    <glyph glyph-name="product" unicode="&#x220f;" 
d="M205 1434h1024v-1844h-205v1639h-614v-1639h-205v1844z" />
    <glyph glyph-name="uni2210" unicode="&#x2210;" 
d="M205 1434h205v-1639h614v1639h205v-1844h-1024v1844z" />
    <glyph glyph-name="summation" unicode="&#x2211;" 
d="M205 1434h1024v-205h-819v-60l614 -614v-86l-614 -614v-60h819v-205h-1024v351l571 571l-571 571v351z" />
    <glyph glyph-name="minus" unicode="&#x2212;" 
d="M205 614v205h1024v-205h-1024z" />
    <glyph glyph-name="uni2213" unicode="&#x2213;" 
d="M205 1229v205h1024v-205h-1024zM205 410v204h409v410h205v-410h410v-204h-410v-410h-205v410h-409z" />
    <glyph glyph-name="uni2214" unicode="&#x2214;" 
d="M205 410v204h409v410h205v-410h410v-204h-410v-410h-205v410h-409zM614 1229v205h205v-205h-205z" />
    <glyph glyph-name="uni2218" unicode="&#x2218;" 
d="M410 760l264 264h86l264 -264v-291l-264 -264h-86l-264 264v291zM614 674v-119l103 -102l102 102v119l-102 102z" />
    <glyph glyph-name="uni2219" unicode="&#x2219;" 
d="M410 614v205h204v205h205v-205h205v-205h-205v-204h-205v204h-204z" />
    <glyph glyph-name="radical" unicode="&#x221a;" 
d="M205 469v145h145l205 -204h59v1024h615v-205h-410v-1229h-205v205h-145z" />
    <glyph glyph-name="uni221B" unicode="&#x221b;" 
d="M205 1288v146h145l264 -265v-86l-161 -161l161 -162v-86l-264 -264h-145v145l162 162l-162 162v86l162 161zM614 205v205h205v1024h410v-205h-205v-1229h-205v205h-205z" />
    <glyph glyph-name="uni221C" unicode="&#x221c;" 
d="M205 1169l264 265h350v-820h-205v205h-409v350zM555 1229l-145 -146v-59h204v205h-59zM819 205v205h205v1024h205v-1434h-205v205h-205z" />
    <glyph glyph-name="proportional" unicode="&#x221d;" 
d="M205 965l264 264h86l162 -162l162 162h86l264 -264v-146h-146l-161 162l-103 -102v-324l103 -102l161 161h146v-145l-264 -264h-86l-162 162l-162 -162h-86l-264 264v496zM410 879v-324l102 -102l102 102v324l-102 102z" />
    <glyph glyph-name="infinity" unicode="&#x221e;" 
d="M205 965l264 264h86l162 -162l162 162h86l264 -264v-496l-264 -264h-86l-162 162l-162 -162h-86l-264 264v496zM410 879v-324l102 -102l102 102v324l-102 102zM819 879v-324l103 -102l102 102v324l-102 102z" />
    <glyph glyph-name="orthogonal" unicode="&#x221f;" 
d="M205 1229h205v-819h819v-205h-1024v1024z" />
    <glyph glyph-name="uni2223" unicode="&#x2223;" 
d="M614 1434h205v-1434h-205v1434z" />
    <glyph glyph-name="uni2225" unicode="&#x2225;" 
d="M410 1434h204v-1434h-204v1434zM819 1434h205v-1434h-205v1434z" />
    <glyph glyph-name="logicaland" unicode="&#x2227;" 
d="M205 410v145l469 469h86l469 -469v-145h-146l-366 366l-367 -366h-145z" />
    <glyph glyph-name="logicalor" unicode="&#x2228;" 
d="M205 879v145h145l367 -367l366 367h146v-145l-469 -469h-86z" />
    <glyph glyph-name="intersection" unicode="&#x2229;" 
d="M205 965l264 264h496l264 -264v-760h-205v674l-145 145h-324l-145 -145v-674h-205v760z" />
    <glyph glyph-name="union" unicode="&#x222a;" 
d="M205 1229h205v-674l145 -145h324l145 145v674h205v-760l-264 -264h-496l-264 264v760z" />
    <glyph glyph-name="integral" unicode="&#x222b;" 
d="M205 -145v145h145l162 -162l102 103v1228l265 265h86l264 -265v-145h-146l-161 162l-103 -103v-1228l-264 -265h-86z" />
    <glyph glyph-name="uni222E" unicode="&#x222e;" 
d="M205 469v86l264 264h145v350l265 265h86l264 -265v-145h-146l-161 162l-103 -103v-264h146l264 -264v-86l-264 -264h-146v-350l-264 -265h-86l-264 265v145h145l162 -162l102 103v264h-145zM555 410h59v204h-59l-102 -102zM819 614v-204h60l102 102l-102 102h-60z" />
    <glyph glyph-name="therefore" unicode="&#x2234;" 
d="M205 205v205h205v-205h-205zM614 1024v205h205v-205h-205zM1024 205v205h205v-205h-205z" />
    <glyph glyph-name="uni2235" unicode="&#x2235;" 
d="M205 1024v205h205v-205h-205zM614 205v205h205v-205h-205zM1024 1024v205h205v-205h-205z" />
    <glyph glyph-name="uni2238" unicode="&#x2238;" 
d="M205 614v205h1024v-205h-1024zM614 1024v205h205v-205h-205z" />
    <glyph glyph-name="uni223A" unicode="&#x223a;" 
d="M205 1024v205h205v-205h-205zM205 614v205h1024v-205h-1024zM205 205v205h205v-205h-205zM1024 1024v205h205v-205h-205zM1024 205v205h205v-205h-205z" />
    <glyph glyph-name="similar" unicode="&#x223c;" 
d="M205 614v146l264 264h86l367 -367l161 162h146v-145l-264 -264h-86l-367 366l-162 -162h-145z" />
    <glyph glyph-name="uni223D" unicode="&#x223d;" 
d="M205 674v145h145l162 -162l367 367h86l264 -264v-146h-146l-161 162l-367 -366h-86z" />
    <glyph glyph-name="uni223F" unicode="&#x223f;" 
d="M205 965l264 264h86l264 -264v-410l103 -102l102 102v264h205v-350l-264 -264h-86l-265 264v410l-102 102l-102 -102v-265h-205v351z" />
    <glyph glyph-name="uni2242" unicode="&#x2242;" 
d="M205 1024v205h1024v-205h-1024zM205 410v145l264 264h86l367 -366l161 161h146v-145l-264 -264h-86l-367 366l-162 -161h-145z" />
    <glyph glyph-name="uni2243" unicode="&#x2243;" 
d="M205 819v146l264 264h86l367 -367l161 162h146v-145l-264 -265h-86l-367 367l-162 -162h-145zM205 205v205h1024v-205h-1024z" />
    <glyph glyph-name="congruent" unicode="&#x2245;" 
d="M205 1024v145l264 265h86l367 -367l161 162h146v-146l-264 -264h-86l-367 367l-162 -162h-145zM205 410v204h1024v-204h-1024zM205 0v205h1024v-205h-1024z" />
    <glyph glyph-name="approxequal" unicode="&#x2248;" 
d="M205 819v146l264 264h86l367 -367l161 162h146v-145l-264 -265h-86l-367 367l-162 -162h-145zM205 205v145l264 264h86l367 -366l161 162h146v-146l-264 -264h-86l-367 367l-162 -162h-145z" />
    <glyph glyph-name="uni224C" unicode="&#x224c;" 
d="M205 1083v146h145l162 -162l367 367h86l264 -265v-145h-146l-161 162l-367 -367h-86zM205 410v204h1024v-204h-1024zM205 0v205h1024v-205h-1024z" />
    <glyph glyph-name="uni224D" unicode="&#x224d;" 
d="M205 1083v146h145l205 -205h324l204 205h146v-146l-264 -264h-496zM205 205v145l264 264h496l264 -264v-145h-146l-204 205h-324l-205 -205h-145z" />
    <glyph glyph-name="uni224E" unicode="&#x224e;" 
d="M205 819v205h264l205 205h86l205 -205h264v-205h-350l-162 162l-162 -162h-350zM205 410v204h350l162 -161l162 161h350v-204h-264l-205 -205h-86l-205 205h-264z" />
    <glyph glyph-name="uni224F" unicode="&#x224f;" 
d="M205 819v205h264l205 205h86l205 -205h264v-205h-350l-162 162l-162 -162h-350zM205 410v204h1024v-204h-1024z" />
    <glyph glyph-name="uni2250" unicode="&#x2250;" 
d="M205 819v205h1024v-205h-1024zM205 410v204h1024v-204h-1024zM614 1229v205h205v-205h-205z" />
    <glyph glyph-name="uni2251" unicode="&#x2251;" 
d="M205 819v205h1024v-205h-1024zM205 410v204h1024v-204h-1024zM614 1229v205h205v-205h-205zM614 0v205h205v-205h-205z" />
    <glyph glyph-name="uni2252" unicode="&#x2252;" 
d="M205 1229v205h205v-205h-205zM205 819v205h1024v-205h-1024zM205 410v204h1024v-204h-1024zM1024 0v205h205v-205h-205z" />
    <glyph glyph-name="uni2253" unicode="&#x2253;" 
d="M205 819v205h1024v-205h-1024zM205 410v204h1024v-204h-1024zM205 0v205h205v-205h-205zM1024 1229v205h205v-205h-205z" />
    <glyph glyph-name="uni2258" unicode="&#x2258;" 
d="M205 1024v145l264 265h496l264 -265v-145h-146l-204 205h-324l-205 -205h-145zM205 614v205h1024v-205h-1024zM205 205v205h1024v-205h-1024z" />
    <glyph glyph-name="uni225E" unicode="&#x225e;" 
d="M205 1434h350l162 -162l162 162h86l264 -265v-350h-205v264l-102 103l-103 -103v-264h-205v264l-145 146h-59v-410h-205v615zM205 410v204h1024v-204h-1024zM205 0v205h1024v-205h-1024z" />
    <glyph glyph-name="notequal" unicode="&#x2260;" 
d="M205 819v205h614v205h205v-205h205v-205h-410v-205h410v-204h-615v-205h-204v205h-205v204h409v205h-409z" />
    <glyph glyph-name="equivalence" unicode="&#x2261;" 
d="M205 1024v205h1024v-205h-1024zM205 614v205h1024v-205h-1024zM205 205v205h1024v-205h-1024z" />
    <glyph glyph-name="uni2262" unicode="&#x2262;" 
d="M205 1024v205h614v205h205v-205h205v-205h-410v-205h410v-205h-410v-204h410v-205h-615v-205h-204v205h-205v205h409v204h-409v205h409v205h-409z" />
    <glyph glyph-name="lessequal" unicode="&#x2264;" 
d="M205 879v86l264 264h205l205 205h350v-205h-264l-205 -205h-205l-102 -102l102 -103h205l205 -205h264v-204h-350l-205 204h-205zM205 205v205h350l205 -205h469v-205h-555l-205 205h-264z" />
    <glyph glyph-name="greaterequal" unicode="&#x2265;" 
d="M205 1229v205h350l205 -205h205l264 -264v-86l-264 -265h-205l-205 -204h-350v204h264l205 205h205l102 103l-102 102h-205l-205 205h-264zM205 0v205h469l205 205h350v-205h-264l-205 -205h-555z" />
    <glyph glyph-name="uni226C" unicode="&#x226c;" 
d="M410 1288v146h145l162 -162l162 162h145v-146l-162 -162l162 -161v-496l-162 -162l162 -162v-145h-145l-162 162l-162 -162h-145v145l161 162l-161 162v496l161 161zM614 879v-324l103 -102l102 102v324l-102 102z" />
    <glyph glyph-name="propersubset" unicode="&#x2282;" 
d="M205 965l264 264h760v-205h-674l-145 -145v-324l145 -145h674v-205h-760l-264 264v496z" />
    <glyph glyph-name="propersuperset" unicode="&#x2283;" 
d="M205 1024v205h760l264 -264v-496l-264 -264h-760v205h674l145 145v324l-145 145h-674z" />
    <glyph glyph-name="reflexsubset" unicode="&#x2286;" 
d="M205 1169l264 265h760v-205h-674l-145 -146v-323l145 -146h674v-204h-760l-264 264v495zM205 0v205h1024v-205h-1024z" />
    <glyph glyph-name="reflexsuperset" unicode="&#x2287;" 
d="M205 1229v205h760l264 -265v-495l-264 -264h-760v204h674l145 146v323l-145 146h-674zM205 0v205h1024v-205h-1024z" />
    <glyph glyph-name="uni228D" unicode="&#x228d;" 
d="M205 1229h205v-674l145 -145h324l145 145v674h205v-760l-264 -264h-496l-264 264v760zM614 614v205h205v-205h-205z" />
    <glyph glyph-name="uni228F" unicode="&#x228f;" 
d="M205 1229h1024v-205h-819v-614h819v-205h-1024v1024z" />
    <glyph glyph-name="uni2290" unicode="&#x2290;" 
d="M205 1024v205h1024v-1024h-1024v205h819v614h-819z" />
    <glyph glyph-name="uni2291" unicode="&#x2291;" 
d="M205 1434h1024v-205h-819v-615h819v-204h-1024v1024zM205 0v205h1024v-205h-1024z" />
    <glyph glyph-name="uni2292" unicode="&#x2292;" 
d="M205 1229v205h1024v-1024h-1024v204h819v615h-819zM205 0v205h1024v-205h-1024z" />
    <glyph glyph-name="uni2293" unicode="&#x2293;" 
d="M205 1229h1024v-1024h-205v819h-614v-819h-205v1024z" />
    <glyph glyph-name="uni2294" unicode="&#x2294;" 
d="M205 1229h205v-819h614v819h205v-1024h-1024v1024z" />
    <glyph glyph-name="circleplus" unicode="&#x2295;" 
d="M205 965l264 264h496l264 -264v-496l-264 -264h-496l-264 264v496zM555 1024l-145 -145v-60h204v205h-59zM410 614v-59l145 -145h59v204h-204zM819 1024v-205h205v60l-145 145h-60zM819 614v-204h60l145 145v59h-205z" />
    <glyph glyph-name="uni2296" unicode="&#x2296;" 
d="M205 965l264 264h496l264 -264v-496l-264 -264h-496l-264 264v496zM555 1024l-145 -145v-60h614v60l-145 145h-324zM410 614v-59l145 -145h324l145 145v59h-614z" />
    <glyph glyph-name="uni2299" unicode="&#x2299;" 
d="M205 965l264 264h496l264 -264v-496l-264 -264h-496l-264 264v496zM555 1024l-145 -145v-324l145 -145h324l145 145v324l-145 145h-324zM614 614v205h205v-205h-205z" />
    <glyph glyph-name="uni229E" unicode="&#x229e;" 
d="M205 1229h1024v-1024h-1024v1024zM410 1024v-205h204v205h-204zM410 614v-204h204v204h-204zM819 1024v-205h205v205h-205zM819 614v-204h205v204h-205z" />
    <glyph glyph-name="uni229F" unicode="&#x229f;" 
d="M205 1229h1024v-1024h-1024v1024zM410 1024v-205h614v205h-614zM410 614v-204h614v204h-614z" />
    <glyph glyph-name="uni22A1" unicode="&#x22a1;" 
d="M205 1229h1024v-1024h-1024v1024zM410 1024v-614h614v614h-614zM614 614v205h205v-205h-205z" />
    <glyph glyph-name="uni22A2" unicode="&#x22a2;" 
d="M205 1229h205v-410h819v-205h-819v-409h-205v1024z" />
    <glyph glyph-name="uni22A3" unicode="&#x22a3;" 
d="M205 614v205h819v410h205v-1024h-205v409h-819z" />
    <glyph glyph-name="uni22A4" unicode="&#x22a4;" 
d="M205 1024v205h1024v-205h-410v-819h-205v819h-409z" />
    <glyph glyph-name="perpendicular" unicode="&#x22a5;" 
d="M205 205v205h409v819h205v-819h410v-205h-1024z" />
    <glyph glyph-name="uni22A6" unicode="&#x22a6;" 
d="M410 1229h204v-410h410v-205h-410v-409h-204v1024z" />
    <glyph glyph-name="uni22A7" unicode="&#x22a7;" 
d="M410 1229h204v-205h410v-205h-410v-205h410v-204h-410v-205h-204v1024z" />
    <glyph glyph-name="uni22A8" unicode="&#x22a8;" 
d="M205 1229h205v-205h819v-205h-819v-205h819v-204h-819v-205h-205v1024z" />
    <glyph glyph-name="uni22A9" unicode="&#x22a9;" 
d="M205 1229h205v-1024h-205v1024zM614 1229h205v-410h410v-205h-410v-409h-205v1024z" />
    <glyph glyph-name="uni22AB" unicode="&#x22ab;" 
d="M205 1229h205v-1024h-205v1024zM614 1229h205v-205h410v-205h-410v-205h410v-204h-410v-205h-205v1024z" />
    <glyph glyph-name="uni22C2" unicode="&#x22c2;" 
d="M205 1169l264 265h496l264 -265v-1579h-205v1493l-145 146h-324l-145 -146v-1493h-205v1579z" />
    <glyph glyph-name="uni22C3" unicode="&#x22c3;" 
d="M205 1434h205v-1493l145 -146h324l145 146v1493h205v-1579l-264 -265h-496l-264 265v1579z" />
    <glyph glyph-name="uni22C4" unicode="&#x22c4;" 
d="M205 674v86l469 469h86l469 -469v-86l-469 -469h-86zM453 717l264 -264l264 264l-264 264z" />
    <glyph glyph-name="uni22CB" unicode="&#x22cb;" 
d="M205 1083v146h145l879 -879v-145h-146l-366 366l-367 -366h-145v145l366 367z" />
    <glyph glyph-name="uni22CC" unicode="&#x22cc;" 
d="M205 205v145l878 879h146v-146l-367 -366l367 -367v-145h-146l-366 366l-367 -366h-145z" />
    <glyph glyph-name="uni22CD" unicode="&#x22cd;" 
d="M205 879v145h145l162 -162l367 367h86l264 -264v-146h-146l-161 162l-367 -367h-86zM205 205v205h1024v-205h-1024z" />
    <glyph glyph-name="uni22D4" unicode="&#x22d4;" 
d="M205 760l264 264h145v410h205v-410h146l264 -264v-760h-205v674l-145 145h-60v-819h-205v819h-59l-145 -145v-674h-205v760z" />
    <glyph glyph-name="uni22DC" unicode="&#x22dc;" 
d="M205 1024v205h264l205 205h555v-205h-469l-205 -205h-350zM205 469v86l264 264h205l205 205h350v-205h-264l-205 -205h-205l-102 -102l102 -102h205l205 -205h264v-205h-350l-205 205h-205z" />
    <glyph glyph-name="uni22DD" unicode="&#x22dd;" 
d="M205 1229v205h555l205 -205h264v-205h-350l-205 205h-469zM205 819v205h350l205 -205h205l264 -264v-86l-264 -264h-205l-205 -205h-350v205h264l205 205h205l102 102l-102 102h-205l-205 205h-264z" />
    <glyph glyph-name="uni22EE" unicode="&#x22ee;" 
d="M614 1024v205h205v-205h-205zM614 614v205h205v-205h-205zM614 205v205h205v-205h-205z" />
    <glyph glyph-name="uni22EF" unicode="&#x22ef;" 
d="M205 614v205h205v-205h-205zM614 614v205h205v-205h-205zM1024 614v205h205v-205h-205z" />
    <glyph glyph-name="uni22F0" unicode="&#x22f0;" 
d="M205 205v205h205v-205h-205zM614 614v205h205v-205h-205zM1024 1024v205h205v-205h-205z" />
    <glyph glyph-name="uni22F1" unicode="&#x22f1;" 
d="M205 1024v205h205v-205h-205zM614 614v205h205v-205h-205zM1024 205v205h205v-205h-205z" />
    <glyph glyph-name="uni22F7" unicode="&#x22f7;" 
d="M205 1229v205h1024v-205h-1024zM205 760l264 264h760v-205h-674l-145 -145v-60h819v-204h-819v-60l145 -145h674v-205h-760l-264 264v496z" />
    <glyph glyph-name="uni22F8" unicode="&#x22f8;" 
d="M205 1169l264 265h760v-205h-674l-145 -146v-264h819v-205h-819v-264l145 -145h674v-205h-760l-264 264v905zM205 -410v205h1024v-205h-1024z" />
    <glyph glyph-name="uni22FE" unicode="&#x22fe;" 
d="M205 1229v205h1024v-205h-1024zM205 819v205h760l264 -264v-496l-264 -264h-760v205h674l145 145v60h-819v204h819v60l-145 145h-674z" />
    <glyph glyph-name="house" unicode="&#x2302;" 
d="M205 965l469 469h86l469 -469v-965h-1024v965zM410 879v-674h614v674l-307 307z" />
    <glyph glyph-name="uni2308" unicode="&#x2308;" 
d="M410 1434h614v-205h-410v-1229h-204v1434z" />
    <glyph glyph-name="uni2309" unicode="&#x2309;" 
d="M410 1229v205h614v-1434h-205v1229h-409z" />
    <glyph glyph-name="uni230A" unicode="&#x230a;" 
d="M410 1434h204v-1229h410v-205h-614v1434z" />
    <glyph glyph-name="uni230B" unicode="&#x230b;" 
d="M410 0v205h409v1229h205v-1434h-614z" />
    <glyph glyph-name="revlogicalnot" unicode="&#x2310;" 
d="M205 1024h1024v-205h-819v-409h-205v614z" />
    <glyph glyph-name="integraltp" unicode="&#x2320;" 
d="M614 760l265 264h86l264 -264v-146h-146l-161 162l-103 -102v-1084h-205v1170z" />
    <glyph glyph-name="integralbt" unicode="&#x2321;" 
d="M205 264v146h145l162 -162l102 102v1084h205v-1170l-264 -264h-86z" />
    <glyph glyph-name="uni2336" unicode="&#x2336;" 
d="M205 1024v205h1024v-205h-410v-614h410v-205h-1024v205h409v614h-409z" />
    <glyph glyph-name="uni2337" unicode="&#x2337;" 
d="M410 1434h614v-1434h-614v1434zM614 1229v-1024h205v1024h-205z" />
    <glyph glyph-name="uni2338" unicode="&#x2338;" 
d="M205 1434h1024v-1434h-1024v1434zM410 1229v-205h614v205h-614zM410 819v-205h614v205h-614zM410 410v-205h614v205h-614z" />
    <glyph glyph-name="uni2339" unicode="&#x2339;" 
d="M205 1434h1024v-1434h-1024v1434zM410 1229v-410h614v410h-205v-205h-205v205h-204zM410 614v-409h204v205h205v-205h205v409h-614z" />
    <glyph glyph-name="uni233A" unicode="&#x233a;" 
d="M205 1434h1024v-1434h-1024v1434zM410 1229v-205h59l145 145v60h-204zM410 819v-205h145l162 -161l162 161h145v205h-145l-162 162l-162 -162h-145zM410 410v-205h204v59l-145 146h-59zM819 1229v-60l146 -145h59v205h-205zM819 205h205v205h-59l-146 -146v-59z" />
    <glyph glyph-name="uni233B" unicode="&#x233b;" 
d="M205 1434h1024v-1434h-1024v1434zM410 1229v-410h59l205 205h86l205 -205h59v410h-614zM410 614v-409h614v409h-59l-205 -204h-86l-205 204h-59zM717 657l59 60l-59 59l-60 -59z" />
    <glyph glyph-name="uni233D" unicode="&#x233d;" 
d="M205 965l264 264h145v205h205v-205h146l264 -264v-496l-264 -264h-146v-205h-205v205h-145l-264 264v496zM555 1024l-145 -145v-324l145 -145h59v614h-59zM819 1024v-614h60l145 145v324l-145 145h-60z" />
    <glyph glyph-name="uni233F" unicode="&#x233f;" 
d="M205 205v145l366 367l-161 162v145h145l162 -162l366 367h146v-146l-367 -366l162 -162v-145h-145l-162 161l-367 -366h-145z" />
    <glyph glyph-name="uni2340" unicode="&#x2340;" 
d="M205 1083v146h145l367 -367l162 162h145v-145l-162 -162l367 -367v-145h-146l-366 366l-162 -161h-145v145l161 162z" />
    <glyph glyph-name="uni2341" unicode="&#x2341;" 
d="M205 1434h1024v-1434h-1024v1434zM410 1229v-615h59l410 410h145v205h-614zM410 410v-205h614v614h-59l-410 -409h-145z" />
    <glyph glyph-name="uni2342" unicode="&#x2342;" 
d="M205 1434h1024v-1434h-1024v1434zM410 1229v-205h145l410 -410h59v615h-614zM410 819v-614h614v205h-145l-410 409h-59z" />
    <glyph glyph-name="uni2349" unicode="&#x2349;" 
d="M205 1083v146h145l162 -162l162 162h291l264 -264v-291l-162 -162l162 -162v-145h-146l-161 162l-162 -162h-291l-264 264v291l162 162zM410 674v-119l145 -145h119l102 102l-264 264zM760 1024l-103 -102l265 -265l102 103v119l-145 145h-119z" />
    <glyph glyph-name="uni234A" unicode="&#x234a;" 
d="M205 410v204h409v820h205v-820h410v-204h-1024zM205 0v205h1024v-205h-1024z" />
    <glyph glyph-name="uni234B" unicode="&#x234b;" 
d="M410 760v205l204 204v265h205v-265l205 -204v-205l205 -205v-555h-410v-410h-205v410h-409v555zM410 469v-264h204v264l-102 102zM614 879v-119l103 -103l102 103v119l-102 102zM819 205h205v264l-102 102l-103 -102v-264z" />
    <glyph glyph-name="uni234E" unicode="&#x234e;" 
d="M205 965l264 264h145v205h205v-205h146l264 -264v-291l-264 -264h-146v-205h410v-205h-1024v205h409v205h-145l-264 264v291zM555 1024l-145 -145v-119l145 -146h59v410h-59zM819 1024v-410h60l145 146v119l-145 145h-60z" />
    <glyph glyph-name="uni2351" unicode="&#x2351;" 
d="M205 1229v205h1024v-205h-1024zM205 819v205h1024v-205h-410v-819h-205v819h-409z" />
    <glyph glyph-name="uni2352" unicode="&#x2352;" 
d="M205 1024h409v410h205v-410h410v-555l-205 -205v-205l-205 -204v-265h-205v265l-204 204v205l-205 205v555zM410 819v-264l102 -102l102 102v264h-204zM819 819v-264l103 -102l102 102v264h-205zM614 264v-119l103 -102l102 102v119l-102 103z" />
    <glyph glyph-name="uni2355" unicode="&#x2355;" 
d="M205 1229v205h1024v-205h-410v-205h146l264 -264v-291l-264 -264h-146v-205h-205v205h-145l-264 264v291l264 264h145v205h-409zM555 819l-145 -145v-119l145 -145h59v409h-59zM819 819v-409h60l145 145v119l-145 145h-60z" />
    <glyph glyph-name="uni2359" unicode="&#x2359;" 
d="M410 760v205l204 204v265h205v-265l205 -204v-205l205 -205v-555h-1024v555zM205 -410v205h1024v-205h-1024zM614 674l-204 -205v-264h614v264l-205 205v205l-102 102l-103 -102v-205z" />
    <glyph glyph-name="uni235D" unicode="&#x235d;" 
d="M205 965l264 264h496l264 -264v-760h-205v409h-59l-205 -204h-86l-205 204h-59v-409h-205v760zM555 1024l-145 -145v-60h59l145 146v59h-59zM819 1024v-59l146 -146h59v60l-145 145h-60zM717 657l59 60l-59 59l-60 -59z" />
    <glyph glyph-name="uni235E" unicode="&#x235e;" 
d="M205 1434h1024v-1434h-1024v1434zM410 1229v-1024h614v1024h-205v-410h-205v410h-204z" />
    <glyph glyph-name="uni235F" unicode="&#x235f;" 
d="M205 1169l264 265h496l264 -265v-905l-264 -264h-496l-264 264v905zM555 1229l-145 -146v-59h204v205h-59zM410 819v-205h59l145 146v59h-204zM410 410v-60l145 -145h324l145 145v60h-145l-162 161l-162 -161h-145zM819 1229v-205h205v59l-145 146h-60zM819 819v-59
l146 -146h59v205h-205z" />
    <glyph glyph-name="uni2360" unicode="&#x2360;" 
d="M205 1434h1024v-1434h-1024v1434zM410 1229v-1024h614v1024h-614zM614 819v205h205v-205h-205zM614 410v204h205v-204h-205z" />
    <glyph glyph-name="uni2363" unicode="&#x2363;" 
d="M205 879v145h145l205 -205h59v205h205v-205h60l204 205h146v-145l-264 -265h-146v-204h146l264 -265v-145h-146l-204 205h-60v-205h-205v205h-59l-205 -205h-145v145l264 265h145v204h-145zM410 1229v205h204v-205h-204zM819 1229v205h205v-205h-205z" />
    <glyph glyph-name="uni2364" unicode="&#x2364;" 
d="M410 1229v205h204v-205h-204zM410 760l264 264h86l264 -264v-291l-264 -264h-86l-264 264v291zM614 674v-119l103 -102l102 102v119l-102 102zM819 1229v205h205v-205h-205z" />
    <glyph glyph-name="uni2368" unicode="&#x2368;" 
d="M205 614v146l264 264h86l367 -367l161 162h146v-145l-264 -264h-86l-367 366l-162 -162h-145zM410 1229v205h204v-205h-204zM819 1229v205h205v-205h-205z" />
    <glyph glyph-name="uni236A" unicode="&#x236a;" 
d="M205 614v205h1024v-205h-1024zM614 -59v264h205v-350l-264 -265h-145v146z" />
    <glyph glyph-name="uni236B" unicode="&#x236b;" 
d="M205 1434h1024v-555l-205 -205v-60h205v-204h-264l-146 -146v-264h-205v264l-145 146h-264v204h205v60l-205 205v555zM410 1229v-264l145 -146h324l145 146v264h-614zM614 614v-59l103 -102l102 102v59h-205z" />
    <glyph glyph-name="uni236C" unicode="&#x236c;" 
d="M205 965l469 469h86l469 -469v-496l-469 -469h-86l-469 469v496zM410 879v-60h614v60l-307 307zM410 614v-59l307 -307l307 307v59h-614z" />
    <glyph glyph-name="uni2371" unicode="&#x2371;" 
d="M205 1024v145l264 265h86l367 -367l161 162h146v-146l-264 -264h-86l-367 367l-162 -162h-145zM205 469v145h145l367 -366l366 366h146v-145l-469 -469h-86z" />
    <glyph glyph-name="uni2372" unicode="&#x2372;" 
d="M205 1024v145l264 265h86l367 -367l161 162h146v-146l-264 -264h-86l-367 367l-162 -162h-145zM205 0v145l469 469h86l469 -469v-145h-146l-366 367l-367 -367h-145z" />
    <glyph glyph-name="uni2373" unicode="&#x2373;" 
d="M410 819v205h409v-674l205 -205v-145h-145l-265 264v555h-204z" />
    <glyph glyph-name="uni2374" unicode="&#x2374;" 
d="M205 760l264 264h496l264 -264v-496l-264 -264h-555v-410h-205v1170zM555 819l-145 -145v-469h469l145 145v324l-145 145h-324z" />
    <glyph glyph-name="uni2375" unicode="&#x2375;" 
d="M205 760l264 264h145v-145l-204 -205v-324l102 -102l102 102v264h205v-264l103 -102l102 102v324l-205 205v145h146l264 -264v-496l-264 -264h-86l-162 162l-162 -162h-86l-264 264v496z" />
    <glyph glyph-name="uni2376" unicode="&#x2376;" 
d="M205 760l264 264h291l162 -162l161 162h146v-145l-205 -205v-324l205 -205v-145h-146l-161 162l-162 -162h-291l-264 264v496zM205 -410v205h1024v-205h-1024zM555 819l-145 -145v-324l145 -145h119l145 145v324l-145 145h-119z" />
    <glyph glyph-name="uni2377" unicode="&#x2377;" 
d="M205 1169l264 265h760v-205h-674l-145 -146v-59h819v-205h-819v-59l145 -146h674v-204h-760l-264 264v495zM205 0v205h1024v-205h-1024z" />
    <glyph glyph-name="uni2378" unicode="&#x2378;" 
d="M205 -410v205h1024v-205h-1024zM410 819v205h409v-674l205 -205v-145h-145l-265 264v555h-204z" />
    <glyph glyph-name="uni2379" unicode="&#x2379;" 
d="M205 760l264 264h145v-145l-204 -205v-324l102 -102l102 102v264h205v-264l103 -102l102 102v324l-205 205v145h146l264 -264v-496l-264 -264h-86l-162 162l-162 -162h-86l-264 264v496zM205 -410v205h1024v-205h-1024z" />
    <glyph glyph-name="uni237A" unicode="&#x237a;" 
d="M205 760l264 264h291l162 -162l161 162h146v-145l-205 -205v-324l205 -205v-145h-146l-161 162l-162 -162h-291l-264 264v496zM555 819l-145 -145v-324l145 -145h119l145 145v324l-145 145h-119z" />
    <glyph glyph-name="uni237B" unicode="&#x237b;" 
d="M205 469v145h145l162 -161l264 264l-162 162v145h146l162 -162l161 162h146v-145l-162 -162l162 -162v-145h-146l-161 161l-367 -366h-86z" />
    <glyph glyph-name="uni237D" unicode="&#x237d;" 
d="M205 205v205h409v-205h205v205h410v-205h-205v-205h-614v205h-205z" />
    <glyph glyph-name="uni237E" unicode="&#x237e;" 
d="M205 965l264 264h496l264 -264v-351h-205v-204h205v-205h-410v409h-205v-409h-409v205h205v204h-205v351zM555 1024l-145 -145v-60h614v60l-145 145h-324z" />
    <glyph glyph-name="uni237F" unicode="&#x237f;" 
d="M614 965v469h205v-469l205 -205v-86l-205 -205v-469h-205v469l-204 205v86zM717 657l59 60l-59 59l-60 -59z" />
    <glyph glyph-name="uni238D" unicode="&#x238d;" 
d="M205 205v205h205v819h614v-819h205v-205h-410v819h-205v-819h-409z" />
    <glyph glyph-name="uni238E" unicode="&#x238e;" 
d="M205 205v205h205v555l264 264h555v-205h-205v-555l-264 -264h-555zM614 410h60l145 145v469h-59l-146 -145v-469z" />
    <glyph glyph-name="uni2393" unicode="&#x2393;" 
d="M205 819v205h1024v-205h-1024zM205 410v204h205v-204h-205zM614 410v204h205v-204h-205zM1024 410v204h205v-204h-205z" />
    <glyph glyph-name="uni2395" unicode="&#x2395;" 
d="M205 1434h1024v-1434h-1024v1434zM410 1229v-1024h614v1024h-614z" />
    <glyph glyph-name="uni239B" unicode="&#x239b;" 
d="M410 965l469 469h145v-146l-410 -409v-1289h-204v1375z" />
    <glyph glyph-name="uni239C" unicode="&#x239c;" 
d="M410 1434h204v-1844h-204v1844z" />
    <glyph glyph-name="uni239D" unicode="&#x239d;" 
d="M410 1434h204v-879l410 -410v-145h-145l-469 469v965z" />
    <glyph glyph-name="uni239E" unicode="&#x239e;" 
d="M410 1288v146h145l469 -469v-1375h-205v1289z" />
    <glyph glyph-name="uni239F" unicode="&#x239f;" 
d="M819 1434h205v-1844h-205v1844z" />
    <glyph glyph-name="uni23A0" unicode="&#x23a0;" 
d="M410 0v145l409 410v879h205v-965l-469 -469h-145z" />
    <glyph glyph-name="uni23A1" unicode="&#x23a1;" 
d="M410 1434h819v-205h-615v-1639h-204v1844z" />
    <glyph glyph-name="uni23A2" unicode="&#x23a2;" 
d="M410 1434h204v-1844h-204v1844z" />
    <glyph glyph-name="uni23A3" unicode="&#x23a3;" 
d="M410 1434h204v-1229h615v-205h-819v1434z" />
    <glyph glyph-name="uni23A4" unicode="&#x23a4;" 
d="M205 1229v205h819v-1844h-205v1639h-614z" />
    <glyph glyph-name="uni23A5" unicode="&#x23a5;" 
d="M819 1434h205v-1844h-205v1844z" />
    <glyph glyph-name="uni23A6" unicode="&#x23a6;" 
d="M205 0v205h614v1229h205v-1434h-819z" />
    <glyph glyph-name="uni23A7" unicode="&#x23a7;" 
d="M614 1169l265 265h350v-205h-264l-146 -146v-1493h-205v1579z" />
    <glyph glyph-name="uni23A8" unicode="&#x23a8;" 
d="M614 965v469h205v-555l-162 -162l162 -162v-965h-205v879l-204 205v86z" />
    <glyph glyph-name="uni23A9" unicode="&#x23a9;" 
d="M614 1434h205v-1084l146 -145h264v-205h-350l-265 264v1170z" />
    <glyph glyph-name="uni23AA" unicode="&#x23aa;" 
d="M614 1434h205v-1844h-205v1844z" />
    <glyph glyph-name="uni23AB" unicode="&#x23ab;" 
d="M205 1229v205h350l264 -265v-1579h-205v1493l-145 146h-264z" />
    <glyph glyph-name="uni23AC" unicode="&#x23ac;" 
d="M614 1434h205v-469l205 -205v-86l-205 -205v-879h-205v965l162 162l-162 162v555z" />
    <glyph glyph-name="uni23AD" unicode="&#x23ad;" 
d="M205 0v205h264l145 145v1084h205v-1170l-264 -264h-350z" />
    <glyph glyph-name="uni23AE" unicode="&#x23ae;" 
d="M614 1434h205v-1844h-205v1844z" />
    <glyph glyph-name="uni23B0" unicode="&#x23b0;" 
d="M205 -410v205h264l145 146v1228l265 265h350v-205h-264l-146 -146v-1228l-264 -265h-350z" />
    <glyph glyph-name="uni23B1" unicode="&#x23b1;" 
d="M205 1229v205h350l264 -265v-1228l146 -146h264v-205h-350l-265 265v1228l-145 146h-264z" />
    <glyph glyph-name="uni23B2" unicode="&#x23b2;" 
d="M205 1434h1024v-205h-819v-60l204 -204v-205l205 -205v-205l205 -205v-204l205 -205v-146h-146l-264 265v204l-205 205v205l-204 205v205l-205 204v351z" />
    <glyph glyph-name="uni23B3" unicode="&#x23b3;" 
d="M410 145v205l204 205v205l205 205v204l264 265h146v-146l-205 -205v-204l-205 -205v-205l-205 -205v-205l-204 -204v-60h819v-205h-1024v351z" />
    <glyph glyph-name="uni23BA" unicode="&#x23ba;" 
d="M205 1229v205h1024v-205h-1024z" />
    <glyph glyph-name="uni23BB" unicode="&#x23bb;" 
d="M205 819v205h1024v-205h-1024z" />
    <glyph glyph-name="uni23BC" unicode="&#x23bc;" 
d="M205 0v205h1024v-205h-1024z" />
    <glyph glyph-name="uni23BD" unicode="&#x23bd;" 
d="M205 -410v205h1024v-205h-1024z" />
    <glyph glyph-name="uni23DA" unicode="&#x23da;" 
d="M205 819v205h409v410h205v-410h410v-205h-1024zM410 410v204h614v-204h-614zM614 0v205h205v-205h-205z" />
    <glyph glyph-name="uni2400" unicode="&#x2400;" 
d="M205 1434h350l205 -205h59v205h205v-820h-205v410h-145l-205 205h-59v-615h-205v820zM410 410h204v-469l146 -146h119l145 146v469h205v-555l-264 -265h-291l-264 265v555z" />
    <glyph glyph-name="uni2401" unicode="&#x2401;" 
d="M205 1083v86l264 265h145v-146l-161 -162l161 -161v-86l-264 -265h-145v146l162 162zM614 614h205v-409h205v409h205v-1024h-205v410h-205v-410h-205v1024z" />
    <glyph glyph-name="uni2402" unicode="&#x2402;" 
d="M205 1083v86l264 265h145v-146l-161 -162l161 -161v-86l-264 -265h-145v146l162 162zM614 614h205v-264l103 -102l102 102v264h205v-350l-162 -162l162 -161v-351h-205v265l-102 102l-103 -102v-265h-205v351l162 161l-162 162v350z" />
    <glyph glyph-name="uni2403" unicode="&#x2403;" 
d="M205 1434h614v-205h-409v-205h204v-205h-204v-205h409v-264l103 -102l102 102v264h205v-350l-162 -162l162 -161v-351h-205v265l-102 102l-103 -102v-265h-205v351l162 161l-162 162v146h-409v1024z" />
    <glyph glyph-name="uni2404" unicode="&#x2404;" 
d="M205 1434h614v-205h-409v-205h204v-205h-204v-205h819v-204h-205v-820h-205v820h-614v1024z" />
    <glyph glyph-name="uni2405" unicode="&#x2405;" 
d="M205 1434h614v-205h-409v-205h204v-205h-204v-205h264l205 205h86l264 -264v-496l-162 -161l162 -162v-146h-146l-469 469v351h-409v1024zM819 469v-324l103 -102l102 102v324l-102 102z" />
    <glyph glyph-name="uni2406" unicode="&#x2406;" 
d="M205 1169l264 265h86l264 -265v-964h60l145 145v264h205v-350l-162 -162l162 -161v-351h-205v265l-145 145h-60v-410h-205v1229h-204v-409h-205v759zM410 1083v-59h204v59l-102 103z" />
    <glyph glyph-name="uni2407" unicode="&#x2407;" 
d="M205 1434h350l264 -265v-86l-162 -161l162 -162v-86l-264 -264h-350v1024zM410 1229v-205h59l102 102l-102 103h-59zM410 819v-205h59l102 103l-102 102h-59zM819 410h205v-615h205v-205h-410v820z" />
    <glyph glyph-name="uni2408" unicode="&#x2408;" 
d="M205 1434h350l264 -265v-86l-162 -161l162 -162v-86l-264 -264h-350v1024zM410 1229v-205h59l102 102l-102 103h-59zM410 819v-205h59l102 103l-102 102h-59zM819 59v86l264 265h146v-146l-162 -162l162 -161v-86l-264 -265h-146v146l162 162z" />
    <glyph glyph-name="uni2409" unicode="&#x2409;" 
d="M205 1434h205v-410h204v410h205v-820h410v-204h-205v-820h-205v820h-205v409h-204v-409h-205v1024z" />
    <glyph glyph-name="uni240A" unicode="&#x240a;" 
d="M205 1434h205v-820h819v-204h-410v-205h205v-205h-205v-410h-205v820h-409v1024z" />
    <glyph glyph-name="uni240B" unicode="&#x240b;" 
d="M205 1434h205v-469l102 -103l102 103v469h205v-555l-205 -205v-60h615v-204h-205v-820h-205v820h-409v264l-205 205v555z" />
    <glyph glyph-name="uni240C" unicode="&#x240c;" 
d="M205 1434h614v-205h-409v-205h204v-205h-204v-409h-205v1024zM614 614h615v-204h-410v-205h205v-205h-205v-410h-205v1024z" />
    <glyph glyph-name="uni240D" unicode="&#x240d;" 
d="M205 1169l264 265h350v-205h-264l-145 -146v-323l145 -146h410l264 -264v-86l-162 -162l162 -161v-351h-205v265l-145 145h-60v-410h-205v820h-145l-264 264v495zM819 410v-205h60l102 102l-102 103h-60z" />
    <glyph glyph-name="uni240E" unicode="&#x240e;" 
d="M205 1083v86l264 265h350v-205h-264l-102 -103l366 -366v-86l-264 -264h-350v204h264l102 103zM614 145l265 265h86l264 -265v-290l-264 -265h-86l-265 265v290zM819 59v-118l103 -103l102 103v118l-102 103z" />
    <glyph glyph-name="uni240F" unicode="&#x240f;" 
d="M205 1083v86l264 265h350v-205h-264l-102 -103l366 -366v-86l-264 -264h-350v204h264l102 103zM1024 614h205v-1024h-205v1024z" />
    <glyph glyph-name="uni2410" unicode="&#x2410;" 
d="M205 1434h350l264 -265v-495l-264 -264h-350v1024zM410 1229v-615h59l145 146v323l-145 146h-59zM819 410h205v-615h205v-205h-410v820z" />
    <glyph glyph-name="uni2411" unicode="&#x2411;" 
d="M205 1434h350l264 -265v-495l-264 -264h-350v1024zM410 1229v-615h59l145 146v323l-145 146h-59zM1024 614h205v-1024h-205v1024z" />
    <glyph glyph-name="uni2412" unicode="&#x2412;" 
d="M205 1434h350l264 -265v-495l-264 -264h-350v1024zM410 1229v-615h59l145 146v323l-145 146h-59zM819 264v146h146l264 -265v-86l-205 -204v-60h205v-205h-410v351l162 161z" />
    <glyph glyph-name="uni2413" unicode="&#x2413;" 
d="M205 1434h350l264 -265v-290l-264 -265h-350v820zM410 1229v-410h59l145 146v118l-145 146h-59zM819 469v145h146l264 -264v-86l-162 -162l162 -161v-86l-264 -265h-146v146l162 162l-162 161v86l162 162z" />
    <glyph glyph-name="uni2414" unicode="&#x2414;" 
d="M205 1434h350l264 -265v-495l-264 -264h-350v1024zM410 1229v-615h59l145 146v323l-145 146h-59zM614 145l265 265h145v204h205v-1024h-205v205h-410v350zM965 205l-146 -146v-59h205v205h-59z" />
    <glyph glyph-name="uni2415" unicode="&#x2415;" 
d="M205 1434h350l205 -205h59v205h205v-820h-205v410h-145l-205 205h-59v-615h-205v820zM614 410h205v-205h60l204 205h146v-146l-162 -162l162 -161v-351h-205v265l-145 145h-60v-410h-205v820z" />
    <glyph glyph-name="uni2416" unicode="&#x2416;" 
d="M205 1083v86l264 265h145v-146l-161 -162l161 -161v-86l-264 -265h-145v146l162 162zM614 614h205v-264l103 -102l102 102v264h205v-350l-205 -205v-469h-205v469l-205 205v350z" />
    <glyph glyph-name="uni2417" unicode="&#x2417;" 
d="M205 1434h614v-205h-409v-205h204v-205h-204v-205h555l264 -264v-86l-162 -162l162 -161v-86l-264 -265h-351v820h-409v1024zM819 410v-205h60l102 102l-102 103h-60zM819 0v-205h60l102 103l-102 102h-60z" />
    <glyph glyph-name="uni2418" unicode="&#x2418;" 
d="M205 1169l264 265h350v-205h-264l-145 -146v-118l145 -146h264v-205h-350l-264 265v290zM410 410h350l205 -205h59v205h205v-820h-205v410h-145l-205 205h-60v-615h-204v820z" />
    <glyph glyph-name="uni2419" unicode="&#x2419;" 
d="M205 1434h614v-205h-409v-205h204v-205h-204v-205h409v-204h-614v1024zM205 205h350l162 -162l162 162h350v-615h-205v410h-59l-205 -205h-86l-205 205h-59v-410h-205v615z" />
    <glyph glyph-name="uni241A" unicode="&#x241a;" 
d="M205 1083v86l264 265h145v-146l-161 -162l161 -161v-86l-264 -265h-145v146l162 162zM614 614h351l264 -264v-86l-162 -162l162 -161v-86l-264 -265h-351v1024zM819 410v-205h60l102 102l-102 103h-60zM819 0v-205h60l102 103l-102 102h-60z" />
    <glyph glyph-name="uni241B" unicode="&#x241b;" 
d="M205 1434h409v-205h-204v-205h204v-205h-204v-205h204v-204h-409v1024zM614 145l265 265h350v-205h-264l-146 -146v-118l146 -146h264v-205h-350l-265 265v290z" />
    <glyph glyph-name="uni241C" unicode="&#x241c;" 
d="M205 1434h614v-205h-409v-205h204v-205h-204v-409h-205v1024zM614 264v86l265 264h350v-204h-264l-103 -103l367 -366v-86l-264 -265h-351v205h265l102 103z" />
    <glyph glyph-name="uni241D" unicode="&#x241d;" 
d="M205 1169l264 265h350v-205h-264l-145 -146v-323l145 -146h59v205h205v-409h-350l-264 264v495zM819 59v86l264 265h146v-146l-162 -162l162 -161v-86l-264 -265h-146v146l162 162z" />
    <glyph glyph-name="uni241E" unicode="&#x241e;" 
d="M205 1434h350l264 -265v-86l-162 -161l162 -162v-350h-205v264l-145 145h-59v-409h-205v1024zM410 1229v-205h59l102 102l-102 103h-59zM819 59v86l264 265h146v-146l-162 -162l162 -161v-86l-264 -265h-146v146l162 162z" />
    <glyph glyph-name="uni241F" unicode="&#x241f;" 
d="M205 1434h205v-265l145 -145h119l145 145v265h205v-351l-264 -264h-291l-264 264v351zM614 264v86l265 264h350v-204h-264l-103 -103l367 -366v-86l-264 -265h-351v205h265l102 103z" />
    <glyph glyph-name="uni2420" unicode="&#x2420;" 
d="M205 1083v86l264 265h145v-146l-161 -162l161 -161v-86l-264 -265h-145v146l162 162zM614 614h351l264 -264v-86l-264 -264h-146v-410h-205v1024zM819 410v-205h60l102 102l-102 103h-60z" />
    <glyph glyph-name="uni2421" unicode="&#x2421;" 
d="M205 1434h350l264 -265v-290l-264 -265h-350v820zM410 1229v-410h59l145 146v118l-145 146h-59zM614 205v205h615v-205h-205v-615h-205v615h-205z" />
    <glyph glyph-name="uni2423" unicode="&#x2423;" 
d="M205 410h205v-205h614v205h205v-410h-1024v410z" />
    <glyph glyph-name="uni2424" unicode="&#x2424;" 
d="M205 1434h350l205 -205h59v205h205v-820h-205v410h-145l-205 205h-59v-615h-205v820zM614 410h205v-615h410v-205h-615v820z" />
    <glyph glyph-name="uni2425" unicode="&#x2425;" 
d="M205 819v146l469 469h145v-146l-469 -469h-145zM205 205v145l878 879h146v-146l-879 -878h-145zM614 0v145l469 469h146v-145l-469 -469h-146z" />
    </font>
</defs>
</svg>
