<?xml version="1.0" standalone="no"?>
<!DOCTYPE svg PUBLIC "-//W3C//DTD SVG 1.1//EN" "http://www.w3.org/Graphics/SVG/1.1/DTD/svg11.dtd" >
<svg xmlns="http://www.w3.org/2000/svg" xmlns:xlink="http://www.w3.org/1999/xlink" version="1.1">
<metadata>
Created by FontForge 20201107 at Mon Apr  6 19:27:22 2026
 By www-data
Dedicated to the public domain
</metadata>
<defs>
<font id="Bedstead-Extended" horiz-adv-x="1536" >
  <font-face 
    font-family="Bedstead Extended"
    font-weight="500"
    font-stretch="expanded"
    units-per-em="2048"
    panose-1="2 11 6 9 3 5 1 5 3 7"
    ascent="1638"
    descent="-410"
    x-height="1024"
    cap-height="1434"
    bbox="0 -410 1536 1638"
    underline-thickness="204"
    underline-position="-306"
    unicode-range="U+0020-1FBCA"
  />
<missing-glyph 
d="M256 1434h1280v-1434h-1280v1434zM512 1229v-1024h768v1024h-768z" />
    <glyph glyph-name=".notdef" 
d="M256 1434h1280v-1434h-1280v1434zM512 1229v-1024h768v1024h-768z" />
    <glyph glyph-name=".null" horiz-adv-x="0" 
 />
    <glyph glyph-name="nonmarkingreturn" 
 />
    <glyph glyph-name="space" unicode=" " 
 />
    <glyph glyph-name="exclam" unicode="!" 
d="M768 1434h256v-1024h-256v1024zM768 0v205h256v-205h-256z" />
    <glyph glyph-name="quotedbl" unicode="&#x22;" 
d="M512 1434h256v-615h-256v615zM1024 1434h256v-615h-256v615z" />
    <glyph glyph-name="numbersign" unicode="#" 
d="M256 819v205h256v410h256v-410h256v410h256v-410h256v-205h-256v-205h256v-204h-256v-410h-256v410h-256v-410h-256v410h-256v204h256v205h-256zM768 819v-205h256v205h-256z" />
    <glyph glyph-name="dollar" unicode="$" 
d="M256 1169l330 265h620l330 -265v-145h-182l-256 205h-74v-410h182l330 -264v-291l-330 -264h-620l-330 264v146h182l256 -205h74v409h-182l-330 265v290zM694 1229l-182 -146v-118l182 -146h74v410h-74zM1024 614v-409h74l182 145v119l-182 145h-74z" />
    <glyph glyph-name="percent" unicode="%" 
d="M256 1434h512v-410h-512v410zM256 205v145l1098 879h182v-146l-1098 -878h-182zM1024 410h512v-410h-512v410z" />
    <glyph glyph-name="ampersand" unicode="&#x26;" 
d="M256 1169l330 265h108l330 -265v-290l-202 -162l330 -264l202 161h182v-145l-202 -162l202 -162v-145h-182l-202 162l-202 -162h-364l-330 264v291l202 162l-202 162v290zM512 1083v-118l128 -103l128 103v118l-128 103zM512 469v-119l182 -145h148l128 102l-330 264z
" />
    <glyph glyph-name="quotesingle" unicode="'" 
d="M768 1434h256v-615h-256v615z" />
    <glyph glyph-name="parenleft" unicode="(" 
d="M512 965l586 469h182v-146l-512 -409v-324l512 -410v-145h-182l-586 469v496z" />
    <glyph glyph-name="parenright" unicode=")" 
d="M512 1288v146h182l586 -469v-496l-586 -469h-182v145l512 410v324z" />
    <glyph glyph-name="asterisk" unicode="*" 
d="M256 1083v146h182l256 -205h74v410h256v-410h74l256 205h182v-146l-330 -264h-182v-205h182l330 -264v-145h-182l-256 205h-74v-410h-256v410h-74l-256 -205h-182v145l330 264h182v205h-182z" />
    <glyph glyph-name="plus" unicode="+" 
d="M256 614v205h512v410h256v-410h512v-205h-512v-409h-256v409h-512z" />
    <glyph glyph-name="comma" unicode="," 
d="M768 145v265h256v-351l-330 -264h-182v146z" />
    <glyph glyph-name="hyphen" unicode="-" 
d="M512 614v205h768v-205h-768z" />
    <glyph glyph-name="period" unicode="." 
d="M768 0v205h256v-205h-256z" />
    <glyph glyph-name="slash" unicode="/" 
d="M256 205v145l1098 879h182v-146l-1098 -878h-182z" />
    <glyph glyph-name="zero" unicode="0" 
d="M256 965l586 469h108l586 -469v-496l-586 -469h-108l-586 469v496zM512 879v-324l384 -307l384 307v324l-384 307z" />
    <glyph glyph-name="one" unicode="1" 
d="M512 1024v205h256v205h256v-1229h256v-205h-768v205h256v819h-256z" />
    <glyph glyph-name="two" unicode="2" 
d="M256 1024v145l330 265h620l330 -265v-290l-330 -265h-256l-438 -350v-59h1024v-205h-1280v350l586 469h256l182 146v118l-182 146h-404l-256 -205h-182z" />
    <glyph glyph-name="three" unicode="3" 
d="M256 1229v205h1280v-351l-256 -204v-119l256 -205v-291l-330 -264h-620l-330 264v146h182l256 -205h404l182 145v119l-182 145h-330v205h256v146l256 204v60h-1024z" />
    <glyph glyph-name="four" unicode="4" 
d="M256 760l586 469h182v205h256v-820h256v-204h-256v-410h-256v410h-768v350zM512 674v-60h512v410h-74z" />
    <glyph glyph-name="five" unicode="5" 
d="M256 1434h1280v-205h-1024v-205h694l330 -264v-496l-330 -264h-620l-330 264v146h182l256 -205h404l182 145v324l-182 145h-842v615z" />
    <glyph glyph-name="six" unicode="6" 
d="M256 965l586 469h438v-205h-330l-438 -350v-60h694l330 -264v-291l-330 -264h-620l-330 264v701zM512 614v-264l182 -145h404l182 145v119l-182 145h-586z" />
    <glyph glyph-name="seven" unicode="7" 
d="M256 1229v205h1280v-351l-768 -614v-469h-256v555l768 614v60h-1024z" />
    <glyph glyph-name="eight" unicode="8" 
d="M256 1169l330 265h620l330 -265v-290l-202 -162l202 -162v-291l-330 -264h-620l-330 264v291l202 162l-202 162v290zM694 1229l-182 -146v-118l182 -146h404l182 146v118l-182 146h-404zM694 614l-182 -145v-119l182 -145h404l182 145v119l-182 145h-404z" />
    <glyph glyph-name="nine" unicode="9" 
d="M256 1169l330 265h620l330 -265v-700l-586 -469h-438v205h330l438 350v59h-694l-330 265v290zM694 1229l-182 -146v-118l182 -146h586v264l-182 146h-404z" />
    <glyph glyph-name="colon" unicode=":" 
d="M768 819v205h256v-205h-256zM768 0v205h256v-205h-256z" />
    <glyph glyph-name="semicolon" unicode=";" 
d="M768 145v265h256v-351l-330 -264h-182v146zM768 819v205h256v-205h-256z" />
    <glyph glyph-name="less" unicode="&#x3c;" 
d="M256 674v86l842 674h182v-146l-714 -571l714 -572v-145h-182z" />
    <glyph glyph-name="equal" unicode="=" 
d="M256 819v205h1280v-205h-1280zM256 410v204h1280v-204h-1280z" />
    <glyph glyph-name="greater" unicode="&#x3e;" 
d="M512 1288v146h182l842 -674v-86l-842 -674h-182v145l714 572z" />
    <glyph glyph-name="question" unicode="?" 
d="M256 1024v145l330 265h620l330 -265v-86l-512 -409v-264h-256v350l458 366l-128 103h-404l-256 -205h-182zM768 0v205h256v-205h-256z" />
    <glyph glyph-name="at" unicode="@" 
d="M256 1169l330 265h620l330 -265v-759h-768v614h512v59l-182 146h-404l-182 -146v-733l182 -145h586v-205h-694l-330 264v905zM1024 819v-205h256v205h-256z" />
    <glyph glyph-name="A" unicode="A" 
d="M256 965l586 469h108l586 -469v-965h-256v410h-768v-410h-256v965zM512 879v-265h768v265l-384 307z" />
    <glyph glyph-name="B" unicode="B" 
d="M256 1434h950l330 -265v-290l-202 -162l202 -162v-291l-330 -264h-950v1434zM512 1229v-410h586l182 146v118l-182 146h-586zM512 614v-409h586l182 145v119l-182 145h-586z" />
    <glyph glyph-name="C" unicode="C" 
d="M256 1169l330 265h620l330 -265v-145h-182l-256 205h-404l-182 -146v-733l182 -145h404l256 205h182v-146l-330 -264h-620l-330 264v905z" />
    <glyph glyph-name="D" unicode="D" 
d="M256 1434h950l330 -265v-905l-330 -264h-950v1434zM512 1229v-1024h586l182 145v733l-182 146h-586z" />
    <glyph glyph-name="E" unicode="E" 
d="M256 1434h1280v-205h-1024v-410h768v-205h-768v-409h1024v-205h-1280v1434z" />
    <glyph glyph-name="F" unicode="F" 
d="M256 1434h1280v-205h-1024v-410h768v-205h-768v-614h-256v1434z" />
    <glyph glyph-name="G" unicode="G" 
d="M256 1169l330 265h620l330 -265v-145h-182l-256 205h-404l-182 -146v-733l182 -145h586v205h-256v204h512v-614h-950l-330 264v905z" />
    <glyph glyph-name="H" unicode="H" 
d="M256 1434h256v-615h768v615h256v-1434h-256v614h-768v-614h-256v1434z" />
    <glyph glyph-name="I" unicode="I" 
d="M512 1229v205h768v-205h-256v-1024h256v-205h-768v205h256v1024h-256z" />
    <glyph glyph-name="J" unicode="J" 
d="M256 264v146h182l256 -205h404l182 145v1084h256v-1170l-330 -264h-620z" />
    <glyph glyph-name="K" unicode="K" 
d="M256 1434h256v-615h74l768 615h182v-146l-714 -571l714 -572v-145h-182l-768 614h-74v-614h-256v1434z" />
    <glyph glyph-name="L" unicode="L" 
d="M256 1434h256v-1229h1024v-205h-1280v1434z" />
    <glyph glyph-name="M" unicode="M" 
d="M256 1434h256v-205h182l202 -162l202 162h182v205h256v-1434h-256v1024h-74l-182 -145v-265h-256v265l-182 145h-74v-1024h-256v1434z" />
    <glyph glyph-name="N" unicode="N" 
d="M256 1434h256v-410h182l512 -410h74v820h256v-1434h-256v410h-182l-512 409h-74v-819h-256v1434z" />
    <glyph glyph-name="O" unicode="O" 
d="M256 1169l330 265h620l330 -265v-905l-330 -264h-620l-330 264v905zM694 1229l-182 -146v-733l182 -145h404l182 145v733l-182 146h-404z" />
    <glyph glyph-name="P" unicode="P" 
d="M256 1434h950l330 -265v-290l-330 -265h-694v-614h-256v1434zM512 1229v-410h586l182 146v118l-182 146h-586z" />
    <glyph glyph-name="Q" unicode="Q" 
d="M256 1169l330 265h620l330 -265v-700l-202 -162l202 -162v-145h-182l-202 162l-202 -162h-364l-330 264v905zM694 1229l-182 -146v-733l182 -145h148l128 102l-202 162v145h182l202 -161l128 102v528l-182 146h-404z" />
    <glyph glyph-name="R" unicode="R" 
d="M256 1434h950l330 -265v-290l-330 -265h-182v-59l512 -410v-145h-182l-586 469v145h-256v-614h-256v1434zM512 1229v-410h586l182 146v118l-182 146h-586z" />
    <glyph glyph-name="S" unicode="S" 
d="M256 1169l330 265h620l330 -265v-145h-182l-256 205h-404l-182 -146v-118l182 -146h512l330 -264v-291l-330 -264h-620l-330 264v146h182l256 -205h404l182 145v119l-182 145h-512l-330 265v290z" />
    <glyph glyph-name="T" unicode="T" 
d="M256 1229v205h1280v-205h-512v-1229h-256v1229h-512z" />
    <glyph glyph-name="U" unicode="U" 
d="M256 1434h256v-1084l182 -145h404l182 145v1084h256v-1170l-330 -264h-620l-330 264v1170z" />
    <glyph glyph-name="V" unicode="V" 
d="M256 1434h256v-469l256 -205v-205l128 -102l128 102v205l256 205v469h256v-555l-256 -205v-205l-256 -205v-264h-256v264l-256 205v205l-256 205v555z" />
    <glyph glyph-name="W" unicode="W" 
d="M256 1434h256v-1084l128 -102l128 102v469h256v-469l128 -102l128 102v1084h256v-1170l-330 -264h-108l-202 162l-202 -162h-108l-330 264v1170z" />
    <glyph glyph-name="X" unicode="X" 
d="M256 1434h256v-265l384 -307l384 307v265h256v-351l-458 -366l458 -367v-350h-256v264l-384 307l-384 -307v-264h-256v350l458 367l-458 366v351z" />
    <glyph glyph-name="Y" unicode="Y" 
d="M256 1434h256v-265l384 -307l384 307v265h256v-351l-512 -409v-674h-256v674l-512 409v351z" />
    <glyph glyph-name="Z" unicode="Z" 
d="M256 1229v205h1280v-351l-1024 -819v-59h1024v-205h-1280v350l1024 819v60h-1024z" />
    <glyph glyph-name="bracketleft" unicode="[" 
d="M512 1434h1024v-205h-768v-1024h768v-205h-1024v1434z" />
    <glyph glyph-name="backslash" unicode="\" 
d="M256 1083v146h182l1098 -879v-145h-182z" />
    <glyph glyph-name="bracketright" unicode="]" 
d="M256 1229v205h1024v-1434h-1024v205h768v1024h-768z" />
    <glyph glyph-name="asciicircum" unicode="^" 
d="M256 819v146l586 469h108l586 -469v-146h-182l-458 367l-458 -367h-182z" />
    <glyph glyph-name="underscore" unicode="_" 
d="M256 0v205h1280v-205h-1280z" />
    <glyph glyph-name="grave" unicode="`" 
d="M512 1288v146h182l586 -469v-146h-182z" />
    <glyph glyph-name="a" unicode="a" 
d="M256 264v86l330 264h694v60l-182 145h-586v205h694l330 -264v-760h-950zM694 205h586v205h-586l-128 -103z" />
    <glyph glyph-name="b" unicode="b" 
d="M256 1434h256v-410h694l330 -264v-496l-330 -264h-950v1434zM512 819v-614h586l182 145v324l-182 145h-586z" />
    <glyph glyph-name="c" unicode="c" 
d="M256 760l330 264h950v-205h-842l-182 -145v-324l182 -145h842v-205h-950l-330 264v496z" />
    <glyph glyph-name="d" unicode="d" 
d="M256 760l330 264h694v410h256v-1434h-950l-330 264v496zM694 819l-182 -145v-324l182 -145h586v614h-586z" />
    <glyph glyph-name="e" unicode="e" 
d="M256 760l330 264h620l330 -264v-350h-1024v-60l182 -145h586v-205h-694l-330 264v496zM694 819l-182 -145v-60h768v60l-182 145h-404z" />
    <glyph glyph-name="f" unicode="f" 
d="M512 614v205h256v350l330 265h182v-146l-256 -205v-264h256v-205h-256v-614h-256v614h-256z" />
    <glyph glyph-name="g" unicode="g" 
d="M256 760l330 264h950v-1169l-330 -265h-694v205h586l182 146v59h-694l-330 264v496zM694 819l-182 -145v-324l182 -145h586v614h-586z" />
    <glyph glyph-name="h" unicode="h" 
d="M256 1434h256v-410h694l330 -264v-760h-256v674l-182 145h-586v-819h-256v1434z" />
    <glyph glyph-name="i" unicode="i" 
d="M512 819v205h512v-819h256v-205h-768v205h256v614h-256zM768 1229v205h256v-205h-256z" />
    <glyph glyph-name="j" unicode="j" 
d="M768 -59v1083h256v-1169l-330 -265h-182v146zM768 1229v205h256v-205h-256z" />
    <glyph glyph-name="k" unicode="k" 
d="M512 1434h256v-820h74l512 410h182v-145l-458 -367l458 -367v-145h-182l-512 410h-74v-410h-256v1434z" />
    <glyph glyph-name="l" unicode="l" 
d="M512 1229v205h512v-1229h256v-205h-768v205h256v1024h-256z" />
    <glyph glyph-name="m" unicode="m" 
d="M256 1024h438l202 -162l202 162h108l330 -264v-760h-256v674l-128 102l-128 -102v-674h-256v674l-182 145h-74v-819h-256v1024z" />
    <glyph glyph-name="n" unicode="n" 
d="M256 1024h950l330 -264v-760h-256v674l-182 145h-586v-819h-256v1024z" />
    <glyph glyph-name="o" unicode="o" 
d="M256 760l330 264h620l330 -264v-496l-330 -264h-620l-330 264v496zM694 819l-182 -145v-324l182 -145h404l182 145v324l-182 145h-404z" />
    <glyph glyph-name="p" unicode="p" 
d="M256 1024h950l330 -264v-496l-330 -264h-694v-410h-256v1434zM512 819v-614h586l182 145v324l-182 145h-586z" />
    <glyph glyph-name="q" unicode="q" 
d="M256 760l330 264h950v-1434h-256v410h-694l-330 264v496zM694 819l-182 -145v-324l182 -145h586v614h-586z" />
    <glyph glyph-name="r" unicode="r" 
d="M512 1024h256v-205h74l256 205h438v-205h-330l-256 -205h-182v-614h-256v1024z" />
    <glyph glyph-name="s" unicode="s" 
d="M256 674v86l330 264h950v-205h-842l-128 -102l128 -103h512l330 -264v-86l-330 -264h-950v205h842l128 102l-128 103h-512z" />
    <glyph glyph-name="t" unicode="t" 
d="M512 819v205h256v410h256v-410h256v-205h-256v-469l256 -205v-145h-182l-330 264v555h-256z" />
    <glyph glyph-name="u" unicode="u" 
d="M256 1024h256v-674l182 -145h586v819h256v-1024h-950l-330 264v760z" />
    <glyph glyph-name="v" unicode="v" 
d="M256 1024h256v-264l256 -205v-205l128 -102l128 102v205l256 205v264h256v-350l-256 -205v-205l-330 -264h-108l-330 264v205l-256 205v350z" />
    <glyph glyph-name="w" unicode="w" 
d="M256 1024h256v-674l128 -102l128 102v264h256v-264l128 -102l128 102v674h256v-760l-330 -264h-108l-202 162l-202 -162h-108l-330 264v760z" />
    <glyph glyph-name="x" unicode="x" 
d="M256 879v145h182l458 -367l458 367h182v-145l-458 -367l458 -367v-145h-182l-458 367l-458 -367h-182v145l458 367z" />
    <glyph glyph-name="y" unicode="y" 
d="M256 1024h256v-674l182 -145h586v819h256v-1169l-330 -265h-694v205h586l182 146v59h-694l-330 264v760z" />
    <glyph glyph-name="z" unicode="z" 
d="M256 819v205h1280v-205h-256v-145l-512 -410v-59h768v-205h-1280v205h256v145l512 410v59h-768z" />
    <glyph glyph-name="braceleft" unicode="{" 
d="M768 965v204l330 265h438v-205h-330l-182 -146v-204l-202 -162l202 -162v-205l182 -145h330v-205h-438l-330 264v205l-256 205v86z" />
    <glyph glyph-name="bar" unicode="|" 
d="M768 1434h256v-1434h-256v1434z" />
    <glyph glyph-name="braceright" unicode="}" 
d="M256 1229v205h438l330 -265v-204l256 -205v-86l-256 -205v-205l-330 -264h-438v205h330l182 145v205l202 162l-202 162v204l-182 146h-330z" />
    <glyph glyph-name="asciitilde" unicode="~" 
d="M256 1024v145l330 265h108l458 -367l202 162h182v-146l-330 -264h-108l-458 367l-202 -162h-182z" />
    <glyph glyph-name="uni00A0" unicode="&#xa0;" 
 />
    <glyph glyph-name="exclamdown" unicode="&#xa1;" 
d="M768 819v205h256v-205h-256zM768 614h256v-1024h-256v1024z" />
    <glyph glyph-name="cent" unicode="&#xa2;" 
d="M256 760l330 264h182v205h256v-205h512v-205h-512v-614h512v-205h-512v-205h-256v205h-182l-330 264v496zM694 819l-182 -145v-324l182 -145h74v614h-74z" />
    <glyph glyph-name="sterling" unicode="&#xa3;" 
d="M256 614v205h256v350l330 265h364l330 -265v-145h-182l-256 205h-148l-182 -146v-264h256v-205h-256v-409h768v-205h-1280v205h256v409h-256z" />
    <glyph glyph-name="currency" unicode="&#xa4;" 
d="M256 879v145h182l256 -205h404l256 205h182v-145l-256 -205v-324l256 -205v-145h-182l-256 205h-404l-256 -205h-182v145l256 205v324zM768 614v-204h256v204h-256z" />
    <glyph glyph-name="yen" unicode="&#xa5;" 
d="M256 1288v146h182l330 -265v-145h256v145l330 265h182v-146l-256 -205v-59h256v-205h-512v-205h512v-204h-512v-410h-256v410h-512v204h512v205h-512v205h256v59z" />
    <glyph glyph-name="brokenbar" unicode="&#xa6;" 
d="M768 1434h256v-615h-256v615zM768 614h256v-614h-256v614z" />
    <glyph glyph-name="section" unicode="&#xa7;" 
d="M256 1169l330 265h620l330 -265v-145h-182l-256 205h-404l-182 -146v-118l182 -146h512l330 -264v-86l-202 -162l202 -162v-290l-330 -265h-620l-330 265v145h182l256 -205h404l182 146v118l-182 146h-512l-330 264v86l202 162l-202 162v290zM694 410h404l128 102
l-128 102h-404l-128 -102z" />
    <glyph glyph-name="dieresis" unicode="&#xa8;" 
d="M512 1229v205h256v-205h-256zM1024 1229v205h256v-205h-256z" />
    <glyph glyph-name="copyright" unicode="&#xa9;" 
d="M256 1169l330 265h620l330 -265v-1314l-330 -265h-620l-330 265v1314zM694 1229l-182 -146v-264h74l256 205h108l256 -205h74v264l-182 146h-404zM512 205v-264l182 -146h404l182 146v264h-74l-256 -205h-108l-256 205h-74zM768 674v-324l128 -102l202 162h182v204h-182
l-202 162z" />
    <glyph glyph-name="ordfeminine" unicode="&#xaa;" 
d="M256 674v86l330 264h694v59l-182 146h-586v205h694l330 -265v-759h-950zM256 0v205h1280v-205h-1280zM694 614h586v205h-586l-128 -102z" />
    <glyph glyph-name="guillemotleft" unicode="&#xab;" 
d="M256 469v86l330 264h182v-145l-202 -162l202 -162v-145h-182zM1024 469v86l330 264h182v-145l-202 -162l202 -162v-145h-182z" />
    <glyph glyph-name="logicalnot" unicode="&#xac;" 
d="M256 819v205h1280v-614h-256v409h-1024z" />
    <glyph glyph-name="registered" unicode="&#xae;" 
d="M256 1169l330 265h620l330 -265v-1314l-330 -265h-620l-330 265v1314zM694 1229l-182 -146v-59h438l256 -205h74v264l-182 146h-404zM768 819v-409h74l182 145v119l-182 145h-74zM512 0v-59l182 -146h404l182 146v59h-182l-256 205h-74v-205h-256zM1206 205h74v205h-74
l-128 -103z" />
    <glyph glyph-name="macron" unicode="&#xaf;" 
d="M512 1229v205h768v-205h-768z" />
    <glyph glyph-name="degree" unicode="&#xb0;" 
d="M512 1083v86l330 265h364l330 -265v-86l-330 -264h-364zM950 1024h148l128 102l-128 103h-148l-128 -103z" />
    <glyph glyph-name="plusminus" unicode="&#xb1;" 
d="M256 819v205h512v410h256v-410h512v-205h-512v-409h-256v409h-512zM256 0v205h1280v-205h-1280z" />
    <glyph glyph-name="twosuperior" unicode="&#xb2;" 
d="M512 1229v205h438l330 -265v-86l-512 -409v-60h512v-204h-768v350l458 366l-128 103h-330z" />
    <glyph glyph-name="threesuperior" unicode="&#xb3;" 
d="M512 1229v205h438l330 -265v-86l-202 -161l202 -162v-86l-330 -264h-438v204h330l128 103l-128 102h-330v205h330l128 102l-128 103h-330z" />
    <glyph glyph-name="acute" unicode="&#xb4;" 
d="M512 819v146l586 469h182v-146l-586 -469h-182z" />
    <glyph glyph-name="mu" unicode="&#xb5;" 
d="M256 1024h256v-819h330l182 145v674h256v-674l256 -205v-145h-182l-202 162l-202 -162h-438v-410h-256v1434z" />
    <glyph glyph-name="paragraph" unicode="&#xb6;" 
d="M256 1169l330 265h438v-1434h-256v614h-182l-330 265v290zM694 1229l-182 -146v-118l182 -146h74v410h-74zM1280 1434h256v-1434h-256v1434z" />
    <glyph glyph-name="periodcentered" unicode="&#xb7;" 
d="M768 614v205h256v-205h-256z" />
    <glyph glyph-name="cedilla" unicode="&#xb8;" 
d="M768 59v146h182l330 -264v-86l-330 -265h-182v146l202 162z" />
    <glyph glyph-name="onesuperior" unicode="&#xb9;" 
d="M512 1024v205h256v205h256v-820h256v-204h-768v204h256v410h-256z" />
    <glyph glyph-name="ordmasculine" unicode="&#xba;" 
d="M256 1169l330 265h620l330 -265v-495l-330 -264h-620l-330 264v495zM256 0v205h1280v-205h-1280zM694 1229l-182 -146v-323l182 -146h404l182 146v323l-182 146h-404z" />
    <glyph glyph-name="guillemotright" unicode="&#xbb;" 
d="M256 674v145h182l330 -264v-86l-330 -264h-182v145l202 162zM1024 674v145h182l330 -264v-86l-330 -264h-182v145l202 162z" />
    <glyph glyph-name="onequarter" unicode="&#xbc;" 
d="M512 1434h256v-1024h-256v1024zM768 145l330 265h182v204h256v-1024h-256v205h-512v350zM1206 205l-182 -146v-59h256v205h-74z" />
    <glyph glyph-name="onehalf" unicode="&#xbd;" 
d="M256 1434h256v-1024h-256v1024zM768 410v204h438l330 -264v-86l-512 -409v-60h512v-205h-768v351l458 366l-128 103h-330z" />
    <glyph glyph-name="threequarters" unicode="&#xbe;" 
d="M256 1229v205h438l330 -265v-86l-202 -161l202 -162v-86l-330 -264h-438v204h330l128 103l-128 102h-330v205h330l128 102l-128 103h-330zM768 145l330 265h182v204h256v-1024h-256v205h-512v350zM1206 205l-182 -146v-59h256v205h-74z" />
    <glyph glyph-name="questiondown" unicode="&#xbf;" 
d="M256 -145v86l512 409v264h256v-350l-458 -366l128 -103h404l256 205h182v-145l-330 -265h-620zM768 819v205h256v-205h-256z" />
    <glyph glyph-name="Agrave" unicode="&#xc0;" 
d="M256 760l330 264h182v59l-256 205v146h182l330 -265v-145h182l330 -264v-760h-256v410h-768v-410h-256v760zM694 819l-182 -145v-60h768v60l-182 145h-404z" />
    <glyph glyph-name="Aacute" unicode="&#xc1;" 
d="M256 760l330 264h182v145l330 265h182v-146l-256 -205v-59h182l330 -264v-760h-256v410h-768v-410h-256v760zM694 819l-182 -145v-60h768v60l-182 145h-404z" />
    <glyph glyph-name="Acircumflex" unicode="&#xc2;" 
d="M512 965v204l330 265h108l330 -265v-204l256 -205v-760h-256v410h-768v-410h-256v760zM694 819l-182 -145v-60h768v60l-182 145h-404zM768 1083v-59h256v59l-128 103z" />
    <glyph glyph-name="Atilde" unicode="&#xc3;" 
d="M512 965v204l330 265h108l202 -162l202 162h182v-146l-256 -205v-118l256 -205v-760h-256v410h-768v-410h-256v760zM694 819l-182 -145v-60h768v60l-182 145h-404zM768 1083v-59h256v59l-128 103z" />
    <glyph glyph-name="Adieresis" unicode="&#xc4;" 
d="M256 760l330 264h620l330 -264v-760h-256v410h-768v-410h-256v760zM512 1229v205h256v-205h-256zM694 819l-182 -145v-60h768v60l-182 145h-404zM1024 1229v205h256v-205h-256z" />
    <glyph glyph-name="Aring" unicode="&#xc5;" 
d="M256 760l330 264h620l330 -264v-760h-256v410h-768v-410h-256v760zM694 819l-182 -145v-60h768v60l-182 145h-404zM768 1229v205h256v-205h-256z" />
    <glyph glyph-name="AE" unicode="&#xc6;" 
d="M256 1169l330 265h950v-205h-512v-410h256v-205h-256v-409h512v-205h-768v410h-256v-410h-256v1169zM694 1229l-182 -146v-469h256v615h-74z" />
    <glyph glyph-name="Ccedilla" unicode="&#xc7;" 
d="M256 1169l330 265h620l330 -265v-145h-182l-256 205h-404l-182 -146v-733l182 -145h404l256 205h182v-146l-330 -264h-182v-145l-330 -265h-182v146l256 205v59h-182l-330 264v905z" />
    <glyph glyph-name="Egrave" unicode="&#xc8;" 
d="M256 1024h512v59l-256 205v146h182l330 -265v-145h512v-205h-1024v-205h768v-204h-768v-205h1024v-205h-1280v1024z" />
    <glyph glyph-name="Eacute" unicode="&#xc9;" 
d="M256 1024h512v145l330 265h182v-146l-256 -205v-59h512v-205h-1024v-205h768v-204h-768v-205h1024v-205h-1280v1024z" />
    <glyph glyph-name="Ecircumflex" unicode="&#xca;" 
d="M256 1024h256v145l330 265h108l330 -265v-145h256v-205h-1024v-205h768v-204h-768v-205h1024v-205h-1280v1024zM768 1024h256v59l-128 103l-128 -103v-59z" />
    <glyph glyph-name="Edieresis" unicode="&#xcb;" 
d="M256 1024h1280v-205h-1024v-205h768v-204h-768v-205h1024v-205h-1280v1024zM512 1229v205h256v-205h-256zM1024 1229v205h256v-205h-256z" />
    <glyph glyph-name="Igrave" unicode="&#xcc;" 
d="M512 1288v146h182l330 -265v-145h-182zM512 614v205h768v-205h-256v-409h256v-205h-768v205h256v409h-256z" />
    <glyph glyph-name="Iacute" unicode="&#xcd;" 
d="M512 614v205h768v-205h-256v-409h256v-205h-768v205h256v409h-256zM768 1024v145l330 265h182v-146l-330 -264h-182z" />
    <glyph glyph-name="Icircumflex" unicode="&#xce;" 
d="M512 1024v145l330 265h108l330 -265v-145h-182l-202 162l-202 -162h-182zM512 614v205h768v-205h-256v-409h256v-205h-768v205h256v409h-256z" />
    <glyph glyph-name="Idieresis" unicode="&#xcf;" 
d="M512 1229v205h256v-205h-256zM512 819v205h768v-205h-256v-614h256v-205h-768v205h256v614h-256zM1024 1229v205h256v-205h-256z" />
    <glyph glyph-name="Eth" unicode="&#xd0;" 
d="M256 614v205h256v615h694l330 -265v-905l-330 -264h-694v614h-256zM768 1229v-410h256v-205h-256v-409h330l182 145v733l-182 146h-330z" />
    <glyph glyph-name="Ntilde" unicode="&#xd1;" 
d="M256 819h438l512 -409h74v409h256v-819h-256v205h-182l-512 409h-74v-614h-256v819zM512 1024v145l330 265h108l202 -162l202 162h182v-146l-330 -264h-108l-202 162l-202 -162h-182z" />
    <glyph glyph-name="Ograve" unicode="&#xd2;" 
d="M256 760l330 264h182v59l-256 205v146h182l330 -265v-145h182l330 -264v-496l-330 -264h-620l-330 264v496zM694 819l-182 -145v-324l182 -145h404l182 145v324l-182 145h-404z" />
    <glyph glyph-name="Oacute" unicode="&#xd3;" 
d="M256 760l330 264h182v145l330 265h182v-146l-256 -205v-59h182l330 -264v-496l-330 -264h-620l-330 264v496zM694 819l-182 -145v-324l182 -145h404l182 145v324l-182 145h-404z" />
    <glyph glyph-name="Ocircumflex" unicode="&#xd4;" 
d="M512 965v204l330 265h108l330 -265v-204l256 -205v-496l-330 -264h-620l-330 264v496zM694 819l-182 -145v-324l182 -145h404l182 145v324l-182 145h-404zM768 1083v-59h256v59l-128 103z" />
    <glyph glyph-name="Otilde" unicode="&#xd5;" 
d="M512 965v204l330 265h108l202 -162l202 162h182v-146l-256 -205v-118l256 -205v-496l-330 -264h-620l-330 264v496zM694 819l-182 -145v-324l182 -145h404l182 145v324l-182 145h-404zM768 1083v-59h256v59l-128 103z" />
    <glyph glyph-name="Odieresis" unicode="&#xd6;" 
d="M256 760l330 264h620l330 -264v-496l-330 -264h-620l-330 264v496zM512 1229v205h256v-205h-256zM694 819l-182 -145v-324l182 -145h404l182 145v324l-182 145h-404zM1024 1229v205h256v-205h-256z" />
    <glyph glyph-name="multiply" unicode="&#xd7;" 
d="M256 1083v146h182l458 -367l458 367h182v-146l-458 -366l458 -367v-145h-182l-458 366l-458 -366h-182v145l458 367z" />
    <glyph glyph-name="Oslash" unicode="&#xd8;" 
d="M256 1169l330 265h620l330 -265v-905l-330 -264h-620l-330 264v905zM694 1229l-182 -146v-469h74l512 410h182v59l-182 146h-404zM512 410v-60l182 -145h404l182 145v469h-74l-512 -409h-182z" />
    <glyph glyph-name="Ugrave" unicode="&#xd9;" 
d="M256 1024h256v-674l182 -145h404l182 145v674h256v-760l-330 -264h-620l-330 264v760zM512 1288v146h182l330 -265v-145h-182z" />
    <glyph glyph-name="Uacute" unicode="&#xda;" 
d="M256 1024h256v-674l182 -145h404l182 145v674h256v-760l-330 -264h-620l-330 264v760zM768 1024v145l330 265h182v-146l-330 -264h-182z" />
    <glyph glyph-name="Ucircumflex" unicode="&#xdb;" 
d="M256 819h256v-469l182 -145h404l182 145v469h256v-555l-330 -264h-620l-330 264v555zM512 1024v145l330 265h108l330 -265v-145h-182l-202 162l-202 -162h-182z" />
    <glyph glyph-name="Udieresis" unicode="&#xdc;" 
d="M256 1024h256v-674l182 -145h404l182 145v674h256v-760l-330 -264h-620l-330 264v760zM512 1229v205h256v-205h-256zM1024 1229v205h256v-205h-256z" />
    <glyph glyph-name="Yacute" unicode="&#xdd;" 
d="M256 879v145h182l458 -367l458 367h182v-145l-512 -410v-469h-256v469zM768 1024v145l330 265h182v-146l-330 -264h-182z" />
    <glyph glyph-name="Thorn" unicode="&#xde;" 
d="M256 1434h256v-205h694l330 -264v-291l-330 -264h-694v-410h-256v1434zM512 1024v-410h586l182 146v119l-182 145h-586z" />
    <glyph glyph-name="germandbls" unicode="&#xdf;" 
d="M256 1169l330 265h364l330 -265v-409l256 -205v-291l-330 -264h-438v205h330l182 145v119l-182 145h-330v205h256v264l-182 146h-148l-182 -146v-1493h-256v1579z" />
    <glyph glyph-name="agrave" unicode="&#xe0;" 
d="M256 264v86l330 264h694v60l-182 145h-586v205h256v59l-256 205v146h182l330 -265v-145h182l330 -264v-760h-950zM694 205h586v205h-586l-128 -103z" />
    <glyph glyph-name="aacute" unicode="&#xe1;" 
d="M256 264v86l330 264h694v60l-182 145h-586v205h256v145l330 265h182v-146l-256 -205v-59h182l330 -264v-760h-950zM694 205h586v205h-586l-128 -103z" />
    <glyph glyph-name="acircumflex" unicode="&#xe2;" 
d="M256 264v86l330 264h694v60l-182 145h-586v350l330 265h108l330 -265v-204l256 -205v-760h-950zM694 205h586v205h-586l-128 -103zM768 1083v-59h256v59l-128 103z" />
    <glyph glyph-name="atilde" unicode="&#xe3;" 
d="M256 264v86l330 264h694v60l-182 145h-586v350l330 265h108l202 -162l202 162h182v-146l-256 -205v-118l256 -205v-760h-950zM694 205h586v205h-586l-128 -103zM768 1083v-59h256v59l-128 103z" />
    <glyph glyph-name="adieresis" unicode="&#xe4;" 
d="M256 264v86l330 264h694v60l-182 145h-586v205h694l330 -264v-760h-950zM512 1229v205h256v-205h-256zM694 205h586v205h-586l-128 -103zM1024 1229v205h256v-205h-256z" />
    <glyph glyph-name="aring" unicode="&#xe5;" 
d="M256 264v86l330 264h694v60l-182 145h-586v205h694l330 -264v-760h-950zM694 205h586v205h-586l-128 -103zM768 1229v205h256v-205h-256z" />
    <glyph glyph-name="ae" unicode="&#xe6;" 
d="M256 264v86l330 264h182v60l-256 205v145h182l202 -162l202 162h108l330 -264v-350h-512v-205h256v-205h-694zM694 205h74v205h-74l-128 -103zM1024 614h256v60l-128 102l-128 -102v-60z" />
    <glyph glyph-name="ccedilla" unicode="&#xe7;" 
d="M256 760l330 264h950v-205h-842l-182 -145v-324l182 -145h842v-205h-256v-145l-330 -265h-182v146l256 205v59h-438l-330 264v496z" />
    <glyph glyph-name="egrave" unicode="&#xe8;" 
d="M256 760l330 264h182v59l-256 205v146h182l330 -265v-145h182l330 -264v-350h-1024v-60l182 -145h586v-205h-694l-330 264v496zM694 819l-182 -145v-60h768v60l-182 145h-404z" />
    <glyph glyph-name="eacute" unicode="&#xe9;" 
d="M256 760l330 264h182v145l330 265h182v-146l-256 -205v-59h182l330 -264v-350h-1024v-60l182 -145h586v-205h-694l-330 264v496zM694 819l-182 -145v-60h768v60l-182 145h-404z" />
    <glyph glyph-name="ecircumflex" unicode="&#xea;" 
d="M512 965v204l330 265h108l330 -265v-204l256 -205v-350h-1024v-60l182 -145h586v-205h-694l-330 264v496zM694 819l-182 -145v-60h768v60l-182 145h-404zM768 1083v-59h256v59l-128 103z" />
    <glyph glyph-name="edieresis" unicode="&#xeb;" 
d="M256 760l330 264h620l330 -264v-350h-1024v-60l182 -145h586v-205h-694l-330 264v496zM512 1229v205h256v-205h-256zM694 819l-182 -145v-60h768v60l-182 145h-404zM1024 1229v205h256v-205h-256z" />
    <glyph glyph-name="igrave" unicode="&#xec;" 
d="M512 1288v146h182l330 -265v-145h-182zM512 614v205h512v-614h256v-205h-768v205h256v409h-256z" />
    <glyph glyph-name="iacute" unicode="&#xed;" 
d="M512 614v205h512v-614h256v-205h-768v205h256v409h-256zM768 1024v145l330 265h182v-146l-330 -264h-182z" />
    <glyph glyph-name="icircumflex" unicode="&#xee;" 
d="M512 1024v145l330 265h108l330 -265v-145h-182l-202 162l-202 -162h-182zM512 614v205h512v-614h256v-205h-768v205h256v409h-256z" />
    <glyph glyph-name="idieresis" unicode="&#xef;" 
d="M512 1229v205h256v-205h-256zM512 819v205h512v-819h256v-205h-768v205h256v614h-256zM1024 1229v205h256v-205h-256z" />
    <glyph glyph-name="eth" unicode="&#xf0;" 
d="M256 1229v205h438l202 -162l202 162h182v-146l-202 -162l458 -366v-496l-330 -264h-620l-330 264v86l330 264h694v60l-384 307l-202 -162h-182v146l202 161l-128 103h-330zM694 205h404l182 145v60h-586l-128 -103z" />
    <glyph glyph-name="ntilde" unicode="&#xf1;" 
d="M256 1024h256v145l330 265h108l202 -162l202 162h182v-146l-256 -205v-118l256 -205v-760h-256v674l-182 145h-586v-819h-256v1024zM768 1024h256v59l-128 103l-128 -103v-59z" />
    <glyph glyph-name="ograve" unicode="&#xf2;" 
d="M256 555l330 264h620l330 -264v-291l-330 -264h-620l-330 264v291zM512 1288v146h182l330 -265v-145h-182zM694 614l-182 -145v-119l182 -145h404l182 145v119l-182 145h-404z" />
    <glyph glyph-name="oacute" unicode="&#xf3;" 
d="M256 555l330 264h620l330 -264v-291l-330 -264h-620l-330 264v291zM694 614l-182 -145v-119l182 -145h404l182 145v119l-182 145h-404zM768 1024v145l330 265h182v-146l-330 -264h-182z" />
    <glyph glyph-name="ocircumflex" unicode="&#xf4;" 
d="M256 555l330 264h620l330 -264v-291l-330 -264h-620l-330 264v291zM512 1024v145l330 265h108l330 -265v-145h-182l-202 162l-202 -162h-182zM694 614l-182 -145v-119l182 -145h404l182 145v119l-182 145h-404z" />
    <glyph glyph-name="otilde" unicode="&#xf5;" 
d="M256 555l330 264h620l330 -264v-291l-330 -264h-620l-330 264v291zM512 1024v145l330 265h108l202 -162l202 162h182v-146l-330 -264h-108l-202 162l-202 -162h-182zM694 614l-182 -145v-119l182 -145h404l182 145v119l-182 145h-404z" />
    <glyph glyph-name="odieresis" unicode="&#xf6;" 
d="M256 555l330 264h620l330 -264v-291l-330 -264h-620l-330 264v291zM512 1024v205h256v-205h-256zM694 614l-182 -145v-119l182 -145h404l182 145v119l-182 145h-404zM1024 1024v205h256v-205h-256z" />
    <glyph glyph-name="divide" unicode="&#xf7;" 
d="M256 614v205h1280v-205h-1280zM768 1024v205h256v-205h-256zM768 205v205h256v-205h-256z" />
    <glyph glyph-name="oslash" unicode="&#xf8;" 
d="M256 760l330 264h364l202 -162l202 162h182v-145l-202 -162l202 -162v-291l-330 -264h-364l-202 162l-202 -162h-182v145l202 162l-202 162v291zM694 819l-182 -145v-119l128 -102l330 264l-128 102h-148zM950 205h148l182 145v119l-128 102l-330 -264z" />
    <glyph glyph-name="ugrave" unicode="&#xf9;" 
d="M256 1024h256v-674l182 -145h586v819h256v-1024h-950l-330 264v760zM512 1288v146h182l330 -265v-145h-182z" />
    <glyph glyph-name="uacute" unicode="&#xfa;" 
d="M256 1024h256v-674l182 -145h586v819h256v-1024h-950l-330 264v760zM768 1024v145l330 265h182v-146l-330 -264h-182z" />
    <glyph glyph-name="ucircumflex" unicode="&#xfb;" 
d="M256 819h256v-469l182 -145h586v614h256v-819h-950l-330 264v555zM512 1024v145l330 265h108l330 -265v-145h-182l-202 162l-202 -162h-182z" />
    <glyph glyph-name="udieresis" unicode="&#xfc;" 
d="M256 819h256v-469l182 -145h586v614h256v-819h-950l-330 264v555zM512 1024v205h256v-205h-256zM1024 1024v205h256v-205h-256z" />
    <glyph glyph-name="yacute" unicode="&#xfd;" 
d="M256 1024h256v-674l182 -145h586v819h256v-1169l-330 -265h-694v205h586l182 146v59h-694l-330 264v760zM768 1024v145l330 265h182v-146l-330 -264h-182z" />
    <glyph glyph-name="thorn" unicode="&#xfe;" 
d="M256 1434h256v-410h694l330 -264v-496l-330 -264h-694v-410h-256v1844zM512 819v-614h586l182 145v324l-182 145h-586z" />
    <glyph glyph-name="ydieresis" unicode="&#xff;" 
d="M256 1024h256v-674l182 -145h586v819h256v-1169l-330 -265h-694v205h586l182 146v59h-694l-330 264v760zM512 1229v205h256v-205h-256zM1024 1229v205h256v-205h-256z" />
    <glyph glyph-name="Amacron" unicode="&#x100;" 
d="M256 760l330 264h620l330 -264v-760h-256v410h-768v-410h-256v760zM512 1229v205h768v-205h-768zM694 819l-182 -145v-60h768v60l-182 145h-404z" />
    <glyph glyph-name="amacron" unicode="&#x101;" 
d="M256 264v86l330 264h694v60l-182 145h-586v205h694l330 -264v-760h-950zM512 1229v205h768v-205h-768zM694 205h586v205h-586l-128 -103z" />
    <glyph glyph-name="Aogonek" unicode="&#x104;" 
d="M256 965l586 469h108l586 -469v-906l-202 -161l202 -162v-146h-182l-330 265v86l256 204v265h-768v-410h-256v965zM512 879v-265h768v265l-384 307z" />
    <glyph glyph-name="aogonek" unicode="&#x105;" 
d="M256 264v86l330 264h694v60l-182 145h-586v205h694l330 -264v-760h-256v-59l256 -205v-146h-182l-330 265v145h-438zM694 205h586v205h-586l-128 -103z" />
    <glyph glyph-name="Cacute" unicode="&#x106;" 
d="M256 760l330 264h182v145l330 265h182v-146l-256 -205v-59h182l330 -264v-146h-182l-256 205h-404l-182 -145v-324l182 -145h404l256 205h182v-146l-330 -264h-620l-330 264v496z" />
    <glyph glyph-name="cacute" unicode="&#x107;" 
d="M256 760l330 264h182v145l330 265h182v-146l-256 -205v-59h512v-205h-842l-182 -145v-324l182 -145h842v-205h-950l-330 264v496z" />
    <glyph glyph-name="Ccircumflex" unicode="&#x108;" 
d="M512 965v204l330 265h108l330 -265v-204l256 -205v-146h-182l-256 205h-404l-182 -145v-324l182 -145h404l256 205h182v-146l-330 -264h-620l-330 264v496zM768 1083v-59h256v59l-128 103z" />
    <glyph glyph-name="ccircumflex" unicode="&#x109;" 
d="M512 965v204l330 265h108l330 -265v-145h256v-205h-842l-182 -145v-324l182 -145h842v-205h-950l-330 264v496zM768 1083v-59h256v59l-128 103z" />
    <glyph glyph-name="Cdotaccent" unicode="&#x10a;" 
d="M256 760l330 264h620l330 -264v-146h-182l-256 205h-404l-182 -145v-324l182 -145h404l256 205h182v-146l-330 -264h-620l-330 264v496zM768 1229v205h256v-205h-256z" />
    <glyph glyph-name="cdotaccent" unicode="&#x10b;" 
d="M256 760l330 264h950v-205h-842l-182 -145v-324l182 -145h842v-205h-950l-330 264v496zM768 1229v205h256v-205h-256z" />
    <glyph glyph-name="Ccaron" unicode="&#x10c;" 
d="M256 760l330 264h182v59l-256 205v146h182l202 -162l202 162h182v-146l-256 -205v-59h182l330 -264v-146h-182l-256 205h-404l-182 -145v-324l182 -145h404l256 205h182v-146l-330 -264h-620l-330 264v496z" />
    <glyph glyph-name="ccaron" unicode="&#x10d;" 
d="M256 760l330 264h182v59l-256 205v146h182l202 -162l202 162h182v-146l-256 -205v-59h512v-205h-842l-182 -145v-324l182 -145h842v-205h-950l-330 264v496z" />
    <glyph glyph-name="Dcaron" unicode="&#x10e;" 
d="M256 1024h512v59l-256 205v146h182l202 -162l202 162h182v-146l-256 -205v-59h182l330 -264v-496l-330 -264h-950v1024zM512 819v-614h586l182 145v324l-182 145h-586z" />
    <glyph glyph-name="dcaron" unicode="&#x10f;" 
d="M256 760l330 264h182v410h256v-1434h-438l-330 264v496zM694 819l-182 -145v-324l182 -145h74v614h-74zM1280 1434h256v-410h-256v410z" />
    <glyph glyph-name="Dcroat" unicode="&#x110;" 
d="M256 614v205h256v615h694l330 -265v-905l-330 -264h-694v614h-256zM768 1229v-410h256v-205h-256v-409h330l182 145v733l-182 146h-330z" />
    <glyph glyph-name="dcroat" unicode="&#x111;" 
d="M256 555l330 264h438v205h-256v205h256v205h256v-205h256v-205h-256v-1024h-694l-330 264v291zM694 614l-182 -145v-119l182 -145h330v409h-330z" />
    <glyph glyph-name="Emacron" unicode="&#x112;" 
d="M256 1024h1280v-205h-1024v-205h768v-204h-768v-205h1024v-205h-1280v1024zM512 1229v205h768v-205h-768z" />
    <glyph glyph-name="emacron" unicode="&#x113;" 
d="M256 760l330 264h620l330 -264v-350h-1024v-60l182 -145h586v-205h-694l-330 264v496zM512 1229v205h768v-205h-768zM694 819l-182 -145v-60h768v60l-182 145h-404z" />
    <glyph glyph-name="Edotaccent" unicode="&#x116;" 
d="M256 1024h1280v-205h-1024v-205h768v-204h-768v-205h1024v-205h-1280v1024zM768 1229v205h256v-205h-256z" />
    <glyph glyph-name="edotaccent" unicode="&#x117;" 
d="M256 760l330 264h620l330 -264v-350h-1024v-60l182 -145h586v-205h-694l-330 264v496zM694 819l-182 -145v-60h768v60l-182 145h-404zM768 1229v205h256v-205h-256z" />
    <glyph glyph-name="Eogonek" unicode="&#x118;" 
d="M256 1434h1280v-205h-1024v-410h768v-205h-768v-409h1024v-205h-256v-59l256 -205v-146h-182l-330 265v145h-768v1434z" />
    <glyph glyph-name="eogonek" unicode="&#x119;" 
d="M256 760l330 264h620l330 -264v-350h-1024v-60l182 -145h586v-264l256 -205v-146h-182l-330 265v145h-438l-330 264v496zM694 819l-182 -145v-60h768v60l-182 145h-404z" />
    <glyph glyph-name="Ecaron" unicode="&#x11a;" 
d="M256 1024h512v59l-256 205v146h182l202 -162l202 162h182v-146l-256 -205v-59h512v-205h-1024v-205h768v-204h-768v-205h1024v-205h-1280v1024z" />
    <glyph glyph-name="ecaron" unicode="&#x11b;" 
d="M256 760l330 264h182v59l-256 205v146h182l202 -162l202 162h182v-146l-256 -205v-59h182l330 -264v-350h-1024v-60l182 -145h586v-205h-694l-330 264v496zM694 819l-182 -145v-60h768v60l-182 145h-404z" />
    <glyph glyph-name="Gcircumflex" unicode="&#x11c;" 
d="M512 965v204l330 265h108l330 -265v-145h256v-205h-842l-182 -145v-324l182 -145h586v205h-256v204h512v-614h-950l-330 264v496zM768 1083v-59h256v59l-128 103z" />
    <glyph glyph-name="gcircumflex" unicode="&#x11d;" 
d="M512 965v204l330 265h108l330 -265v-145h256v-1169l-330 -265h-694v205h586l182 146v59h-694l-330 264v496zM694 819l-182 -145v-324l182 -145h586v614h-586zM768 1083v-59h256v59l-128 103z" />
    <glyph glyph-name="Gdotaccent" unicode="&#x120;" 
d="M256 760l330 264h950v-205h-842l-182 -145v-324l182 -145h586v205h-256v204h512v-614h-950l-330 264v496zM768 1229v205h256v-205h-256z" />
    <glyph glyph-name="gdotaccent" unicode="&#x121;" 
d="M256 760l330 264h950v-1169l-330 -265h-694v205h586l182 146v59h-694l-330 264v496zM694 819l-182 -145v-324l182 -145h586v614h-586zM768 1229v205h256v-205h-256z" />
    <glyph glyph-name="Hbar" unicode="&#x126;" 
d="M256 1434h256v-205h768v205h256v-1434h-256v614h-768v-614h-256v1434zM512 1024v-205h768v205h-768z" />
    <glyph glyph-name="hbar" unicode="&#x127;" 
d="M256 1024v205h256v205h256v-205h256v-205h-256v-205h438l330 -264v-555h-256v469l-182 145h-330v-614h-256v1024h-256z" />
    <glyph glyph-name="Itilde" unicode="&#x128;" 
d="M512 1024v145l330 265h108l202 -162l202 162h182v-146l-330 -264h-108l-202 162l-202 -162h-182zM512 614v205h768v-205h-256v-409h256v-205h-768v205h256v409h-256z" />
    <glyph glyph-name="itilde" unicode="&#x129;" 
d="M512 1024v145l330 265h108l202 -162l202 162h182v-146l-330 -264h-108l-202 162l-202 -162h-182zM512 614v205h512v-614h256v-205h-768v205h256v409h-256z" />
    <glyph glyph-name="Imacron" unicode="&#x12a;" 
d="M512 1229v205h768v-205h-768zM512 819v205h768v-205h-256v-614h256v-205h-768v205h256v614h-256z" />
    <glyph glyph-name="imacron" unicode="&#x12b;" 
d="M512 1229v205h768v-205h-768zM512 819v205h512v-819h256v-205h-768v205h256v614h-256z" />
    <glyph glyph-name="Iogonek" unicode="&#x12e;" 
d="M512 1229v205h768v-205h-256v-1024h256v-205h-256v-59l256 -205v-146h-182l-330 265v145h-256v205h256v1024h-256z" />
    <glyph glyph-name="iogonek" unicode="&#x12f;" 
d="M512 819v205h512v-819h256v-205h-256v-59l256 -205v-146h-182l-330 265v145h-256v205h256v614h-256zM768 1229v205h256v-205h-256z" />
    <glyph glyph-name="Idotaccent" unicode="&#x130;" 
d="M512 819v205h768v-205h-256v-614h256v-205h-768v205h256v614h-256zM768 1229v205h256v-205h-256z" />
    <glyph glyph-name="dotlessi" unicode="&#x131;" 
d="M512 819v205h512v-819h256v-205h-768v205h256v614h-256z" />
    <glyph glyph-name="IJ" unicode="&#x132;" 
d="M256 1434h256v-1434h-256v1434zM768 264v146h182l202 -162l128 102v1084h256v-1170l-330 -264h-108z" />
    <glyph glyph-name="ij" unicode="&#x133;" 
d="M256 819v205h512v-819h256v-205h-768v205h256v614h-256zM512 1229v205h256v-205h-256zM1280 -59v1083h256v-1169l-330 -265h-182v146zM1280 1229v205h256v-205h-256z" />
    <glyph glyph-name="Jcircumflex" unicode="&#x134;" 
d="M256 264v146h182l256 -205h148l182 145v469h256v-555l-330 -264h-364zM768 1024v145l330 265h108l330 -265v-145h-182l-202 162l-202 -162h-182z" />
    <glyph glyph-name="jcircumflex" unicode="&#x135;" 
d="M512 1024v145l330 265h108l330 -265v-145h-182l-202 162l-202 -162h-182zM768 -59v878h256v-964l-330 -265h-182v146z" />
    <glyph glyph-name="kgreenlandic" unicode="&#x138;" 
d="M256 1024h256v-410h330l512 410h182v-145l-458 -367l458 -367v-145h-182l-512 410h-330v-410h-256v1024z" />
    <glyph glyph-name="Lcaron" unicode="&#x13d;" 
d="M256 1434h256v-1229h1024v-205h-1280v1434zM1024 1169v265h256v-351l-330 -264h-182v146z" />
    <glyph glyph-name="lcaron" unicode="&#x13e;" 
d="M256 1229v205h512v-1229h256v-205h-768v205h256v1024h-256zM1280 1169v265h256v-351l-330 -264h-182v146z" />
    <glyph glyph-name="Ldot" unicode="&#x13f;" 
d="M256 1434h256v-1229h1024v-205h-1280v1434zM1280 614v205h256v-205h-256z" />
    <glyph glyph-name="ldot" unicode="&#x140;" 
d="M256 1229v205h512v-1229h256v-205h-768v205h256v1024h-256zM1280 614v205h256v-205h-256z" />
    <glyph glyph-name="Lslash" unicode="&#x141;" 
d="M256 614v205h256v615h256v-410h256v-205h-256v-614h768v-205h-1024v614h-256z" />
    <glyph glyph-name="lslash" unicode="&#x142;" 
d="M512 1229v205h512v-410h256v-205h-256v-614h256v-205h-768v205h256v409h-256v205h256v410h-256z" />
    <glyph glyph-name="Nacute" unicode="&#x143;" 
d="M256 1024h256v-205h182l512 -409h74v614h256v-1024h-256v205h-182l-512 409h-74v-614h-256v1024zM768 1024v145l330 265h182v-146l-330 -264h-182z" />
    <glyph glyph-name="nacute" unicode="&#x144;" 
d="M256 1024h512v145l330 265h182v-146l-256 -205v-59h182l330 -264v-760h-256v674l-182 145h-586v-819h-256v1024z" />
    <glyph glyph-name="Ncaron" unicode="&#x147;" 
d="M256 1024h256v-205h182l512 -409h74v614h256v-1024h-256v205h-182l-512 409h-74v-614h-256v1024zM512 1288v146h182l202 -162l202 162h182v-146l-330 -264h-108z" />
    <glyph glyph-name="ncaron" unicode="&#x148;" 
d="M256 1024h512v59l-256 205v146h182l202 -162l202 162h182v-146l-256 -205v-59h182l330 -264v-760h-256v674l-182 145h-586v-819h-256v1024z" />
    <glyph glyph-name="napostrophe" unicode="&#x149;" 
d="M256 1434h256v-615h-256v615zM768 1024h438l330 -264v-760h-256v674l-182 145h-74v-819h-256v1024z" />
    <glyph glyph-name="Eng" unicode="&#x14a;" 
d="M256 1434h256v-410h182l512 -410h74v820h256v-1579l-330 -265h-694v205h586l182 146v469h-182l-512 409h-74v-819h-256v1434z" />
    <glyph glyph-name="eng" unicode="&#x14b;" 
d="M256 1024h950l330 -264v-905l-330 -265h-694v205h586l182 146v733l-182 145h-586v-819h-256v1024z" />
    <glyph glyph-name="Omacron" unicode="&#x14c;" 
d="M256 760l330 264h620l330 -264v-496l-330 -264h-620l-330 264v496zM512 1229v205h768v-205h-768zM694 819l-182 -145v-324l182 -145h404l182 145v324l-182 145h-404z" />
    <glyph glyph-name="omacron" unicode="&#x14d;" 
d="M256 555l330 264h620l330 -264v-291l-330 -264h-620l-330 264v291zM512 1024v205h768v-205h-768zM694 614l-182 -145v-119l182 -145h404l182 145v119l-182 145h-404z" />
    <glyph glyph-name="OE" unicode="&#x152;" 
d="M256 1169l330 265h950v-205h-512v-410h256v-205h-256v-409h512v-205h-950l-330 264v905zM694 1229l-182 -146v-733l182 -145h74v1024h-74z" />
    <glyph glyph-name="oe" unicode="&#x153;" 
d="M256 760l330 264h108l202 -162l202 162h108l330 -264v-350h-512v-60l182 -145h330v-205h-438l-202 162l-202 -162h-108l-330 264v496zM512 674v-324l128 -102l128 102v324l-128 102zM1024 674v-60h256v60l-128 102z" />
    <glyph glyph-name="Racute" unicode="&#x154;" 
d="M256 1024h512v145l330 265h182v-146l-256 -205v-59h182l330 -264v-86l-256 -205v-119l256 -205v-145h-182l-330 264v146h-512v-410h-256v1024zM512 819v-205h586l128 103l-128 102h-586z" />
    <glyph glyph-name="racute" unicode="&#x155;" 
d="M512 1024h256v-205h74l182 146v204l330 265h182v-146l-256 -205v-59h256v-205h-330l-256 -205h-182v-614h-256v1024z" />
    <glyph glyph-name="Rcaron" unicode="&#x158;" 
d="M256 1024h512v59l-256 205v146h182l202 -162l202 162h182v-146l-256 -205v-59h182l330 -264v-86l-256 -205v-119l256 -205v-145h-182l-330 264v146h-512v-410h-256v1024zM512 819v-205h586l128 103l-128 102h-586z" />
    <glyph glyph-name="rcaron" unicode="&#x159;" 
d="M512 1024h256v-205h74l182 146v118l-256 205v146h182l202 -162l202 162h182v-146l-256 -205v-59h256v-205h-330l-256 -205h-182v-614h-256v1024z" />
    <glyph glyph-name="sacute" unicode="&#x15b;" 
d="M256 674v86l330 264h182v145l330 265h182v-146l-256 -205v-59h512v-205h-842l-128 -102l128 -103h512l330 -264v-86l-330 -264h-950v205h842l128 102l-128 103h-512z" />
    <glyph glyph-name="Scedilla" unicode="&#x15e;" 
d="M256 1169l330 265h620l330 -265v-145h-182l-256 205h-404l-182 -146v-118l182 -146h512l330 -264v-291l-330 -264h-182v-145l-330 -265h-182v146l256 205v59h-182l-330 264v146h182l256 -205h404l182 145v119l-182 145h-512l-330 265v290z" />
    <glyph glyph-name="scedilla" unicode="&#x15f;" 
d="M256 674v86l330 264h950v-205h-842l-128 -102l128 -103h512l330 -264v-86l-330 -264h-182v-145l-330 -265h-182v146l256 205v59h-512v205h842l128 102l-128 103h-512z" />
    <glyph glyph-name="scaron" unicode="&#x161;" 
d="M256 674v86l330 264h182v59l-256 205v146h182l202 -162l202 162h182v-146l-256 -205v-59h512v-205h-842l-128 -102l128 -103h512l330 -264v-86l-330 -264h-950v205h842l128 102l-128 103h-512z" />
    <glyph glyph-name="uni0162" unicode="&#x162;" 
d="M256 1229v205h1280v-205h-512v-1084l256 -204v-86l-330 -265h-182v146l202 162l-202 161v1170h-512z" />
    <glyph glyph-name="uni0163" unicode="&#x163;" 
d="M512 819v205h256v410h256v-410h256v-205h-256v-469l128 -102l202 162h182v-146l-256 -205v-204l-330 -265h-182v146l256 205v118l-256 205v555h-256z" />
    <glyph glyph-name="Tcaron" unicode="&#x164;" 
d="M256 819v205h512v59l-256 205v146h182l202 -162l202 162h182v-146l-256 -205v-59h512v-205h-512v-819h-256v819h-512z" />
    <glyph glyph-name="tcaron" unicode="&#x165;" 
d="M256 819v205h256v410h256v-410h256v-205h-256v-469l256 -205v-145h-182l-330 264v555h-256zM1280 1434h256v-410h-256v410z" />
    <glyph glyph-name="Umacron" unicode="&#x16a;" 
d="M256 1024h256v-674l182 -145h404l182 145v674h256v-760l-330 -264h-620l-330 264v760zM512 1229v205h768v-205h-768z" />
    <glyph glyph-name="umacron" unicode="&#x16b;" 
d="M256 819h256v-469l182 -145h586v614h256v-819h-950l-330 264v555zM512 1024v205h768v-205h-768z" />
    <glyph glyph-name="Uring" unicode="&#x16e;" 
d="M256 1024h256v-674l182 -145h404l182 145v674h256v-760l-330 -264h-620l-330 264v760zM768 1229v205h256v-205h-256z" />
    <glyph glyph-name="uring" unicode="&#x16f;" 
d="M256 1024h256v-674l182 -145h586v819h256v-1024h-950l-330 264v760zM768 1229v205h256v-205h-256z" />
    <glyph glyph-name="Uogonek" unicode="&#x172;" 
d="M256 1434h256v-1084l182 -145h404l182 145v1084h256v-1170l-330 -264h-182v-59l256 -205v-146h-182l-330 265v145h-182l-330 264v1170z" />
    <glyph glyph-name="uogonek" unicode="&#x173;" 
d="M256 1024h256v-674l182 -145h586v819h256v-1024h-256v-59l256 -205v-146h-182l-330 265v145h-438l-330 264v760z" />
    <glyph glyph-name="Wcircumflex" unicode="&#x174;" 
d="M256 819h256v-469l128 -102l128 102v264h256v-264l128 -102l128 102v469h256v-555l-330 -264h-108l-202 162l-202 -162h-108l-330 264v555zM512 1024v145l330 265h108l330 -265v-145h-182l-202 162l-202 -162h-182z" />
    <glyph glyph-name="wcircumflex" unicode="&#x175;" 
d="M256 819h256v-469l128 -102l202 162h108l202 -162l128 102v469h256v-555l-330 -264h-108l-202 162l-202 -162h-108l-330 264v555zM512 1024v145l330 265h108l330 -265v-145h-182l-202 162l-202 -162h-182z" />
    <glyph glyph-name="Ycircumflex" unicode="&#x176;" 
d="M256 674v145h182l458 -366l458 366h182v-145l-512 -410v-264h-256v264zM512 1024v145l330 265h108l330 -265v-145h-182l-202 162l-202 -162h-182z" />
    <glyph glyph-name="ycircumflex" unicode="&#x177;" 
d="M256 819h256v-469l182 -145h586v614h256v-964l-330 -265h-694v205h586l182 146v59h-694l-330 264v555zM512 1024v145l330 265h108l330 -265v-145h-182l-202 162l-202 -162h-182z" />
    <glyph glyph-name="Ydieresis" unicode="&#x178;" 
d="M256 879v145h182l458 -367l458 367h182v-145l-512 -410v-469h-256v469zM512 1229v205h256v-205h-256zM1024 1229v205h256v-205h-256z" />
    <glyph glyph-name="Zacute" unicode="&#x179;" 
d="M256 819v205h512v145l330 265h182v-146l-256 -205v-59h512v-350l-330 -264h-512l-182 -146v-59h1024v-205h-1280v350l330 264h512l182 146v59h-1024z" />
    <glyph glyph-name="zacute" unicode="&#x17a;" 
d="M256 819v205h512v145l330 265h182v-146l-256 -205v-59h512v-205h-256v-145l-512 -410v-59h768v-205h-1280v205h256v145l512 410v59h-768z" />
    <glyph glyph-name="Zdotaccent" unicode="&#x17b;" 
d="M256 819v205h1280v-350l-330 -264h-512l-182 -146v-59h1024v-205h-1280v350l330 264h512l182 146v59h-1024zM768 1229v205h256v-205h-256z" />
    <glyph glyph-name="zdotaccent" unicode="&#x17c;" 
d="M256 819v205h1280v-205h-256v-145l-512 -410v-59h768v-205h-1280v205h256v145l512 410v59h-768zM768 1229v205h256v-205h-256z" />
    <glyph glyph-name="Zcaron" unicode="&#x17d;" 
d="M256 819v205h512v59l-256 205v146h182l202 -162l202 162h182v-146l-256 -205v-59h512v-350l-330 -264h-512l-182 -146v-59h1024v-205h-1280v350l330 264h512l182 146v59h-1024z" />
    <glyph glyph-name="zcaron" unicode="&#x17e;" 
d="M256 819v205h512v59l-256 205v146h182l202 -162l202 162h182v-146l-256 -205v-59h512v-205h-256v-145l-512 -410v-59h768v-205h-1280v205h256v145l512 410v59h-768z" />
    <glyph glyph-name="longs" unicode="&#x17f;" 
d="M768 1169l330 265h182v-146l-256 -205v-1083h-256v1169z" />
    <glyph glyph-name="uni0188" unicode="&#x188;" 
d="M256 760l330 264h438v410h512v-205h-256v-205h256v-205h-842l-182 -145v-324l182 -145h842v-205h-950l-330 264v496z" />
    <glyph glyph-name="uni018E" unicode="&#x18e;" 
d="M256 1229v205h1280v-1434h-1280v205h1024v409h-768v205h768v410h-1024z" />
    <glyph glyph-name="uni018F" unicode="&#x18f;" 
d="M256 1024v145l330 265h620l330 -265v-905l-330 -264h-620l-330 264v555h1024v264l-182 146h-404l-256 -205h-182zM512 614v-264l182 -145h404l182 145v264h-768z" />
    <glyph glyph-name="florin" unicode="&#x192;" 
d="M512 614v205h256v350l330 265h182v-146l-256 -205v-264h256v-205h-256v-759l-330 -265h-182v146l256 205v673h-256z" />
    <glyph glyph-name="uni0199" unicode="&#x199;" 
d="M512 1169l330 265h438v-205h-330l-182 -146v-469h74l512 410h182v-145l-458 -367l458 -367v-145h-182l-512 410h-74v-410h-256v1169z" />
    <glyph glyph-name="uni019B" unicode="&#x19b;" 
d="M256 1229v205h438l330 -265v-145h256v-205h-256v-59l256 -205v-205l256 -205v-145h-182l-330 264v205l-128 102l-128 -102v-205l-330 -264h-182v145l256 205v205l256 205v59h-256v205h256v59l-182 146h-330z" />
    <glyph glyph-name="uni019E" unicode="&#x19e;" 
d="M256 1024h950l330 -264v-1170h-256v1084l-182 145h-586v-819h-256v1024z" />
    <glyph glyph-name="uni01A5" unicode="&#x1a5;" 
d="M256 1169l330 265h438v-205h-330l-182 -146v-59h694l330 -264v-496l-330 -264h-694v-410h-256v1579zM512 819v-614h586l182 145v324l-182 145h-586z" />
    <glyph glyph-name="uni01A7" unicode="&#x1a7;" 
d="M256 1024v145l330 265h620l330 -265v-290l-330 -265h-512l-182 -145v-119l182 -145h404l256 205h182v-146l-330 -264h-620l-330 264v291l330 264h512l182 146v118l-182 146h-404l-256 -205h-182z" />
    <glyph glyph-name="uni01A8" unicode="&#x1a8;" 
d="M256 264v86l330 264h512l128 103l-128 102h-586v205h694l330 -264v-86l-330 -264h-512l-128 -103l128 -102h586v-205h-694z" />
    <glyph glyph-name="uni01AB" unicode="&#x1ab;" 
d="M512 819v205h256v410h256v-410h256v-205h-256v-469l256 -205v-86l-330 -264h-438v205h330l128 102l-202 162v555h-256z" />
    <glyph glyph-name="uni01AD" unicode="&#x1ad;" 
d="M512 819v205h256v145l330 265h182v-146l-256 -205v-59h256v-205h-256v-469l256 -205v-145h-182l-330 264v555h-256z" />
    <glyph glyph-name="uni01BB" unicode="&#x1bb;" 
d="M256 1024v145l330 265h620l330 -265v-290l-202 -162l202 -162v-145h-182l-202 161l-202 -161h-256l-182 -146v-59h1024v-205h-1280v350l330 264h256l128 103l-202 162v145h182l202 -162l128 103v118l-182 146h-404l-256 -205h-182z" />
    <glyph glyph-name="uni01C0" unicode="&#x1c0;" 
d="M768 1434h256v-1844h-256v1844z" />
    <glyph glyph-name="uni01C1" unicode="&#x1c1;" 
d="M512 1434h256v-1844h-256v1844zM1024 1434h256v-1844h-256v1844z" />
    <glyph glyph-name="uni01C2" unicode="&#x1c2;" 
d="M256 614v205h512v615h256v-615h512v-205h-512v-204h512v-205h-512v-615h-256v615h-512v205h512v204h-512z" />
    <glyph glyph-name="uni01C3" unicode="&#x1c3;" 
d="M768 1434h256v-1024h-256v1024zM768 0v205h256v-205h-256z" />
    <glyph glyph-name="uni01CD" unicode="&#x1cd;" 
d="M256 760l330 264h182v59l-256 205v146h182l202 -162l202 162h182v-146l-256 -205v-59h182l330 -264v-760h-256v410h-768v-410h-256v760zM694 819l-182 -145v-60h768v60l-182 145h-404z" />
    <glyph glyph-name="uni01CE" unicode="&#x1ce;" 
d="M256 264v86l330 264h694v60l-182 145h-586v205h256v59l-256 205v146h182l202 -162l202 162h182v-146l-256 -205v-59h182l330 -264v-760h-950zM694 205h586v205h-586l-128 -103z" />
    <glyph glyph-name="uni01CF" unicode="&#x1cf;" 
d="M512 1288v146h182l202 -162l202 162h182v-146l-330 -264h-108zM512 614v205h768v-205h-256v-409h256v-205h-768v205h256v409h-256z" />
    <glyph glyph-name="uni01D0" unicode="&#x1d0;" 
d="M512 1288v146h182l202 -162l202 162h182v-146l-330 -264h-108zM512 614v205h512v-614h256v-205h-768v205h256v409h-256z" />
    <glyph glyph-name="uni01D1" unicode="&#x1d1;" 
d="M256 760l330 264h182v59l-256 205v146h182l202 -162l202 162h182v-146l-256 -205v-59h182l330 -264v-496l-330 -264h-620l-330 264v496zM694 819l-182 -145v-324l182 -145h404l182 145v324l-182 145h-404z" />
    <glyph glyph-name="uni01D2" unicode="&#x1d2;" 
d="M256 555l330 264h620l330 -264v-291l-330 -264h-620l-330 264v291zM512 1288v146h182l202 -162l202 162h182v-146l-330 -264h-108zM694 614l-182 -145v-119l182 -145h404l182 145v119l-182 145h-404z" />
    <glyph glyph-name="uni01D3" unicode="&#x1d3;" 
d="M256 1024h256v-674l182 -145h404l182 145v674h256v-760l-330 -264h-620l-330 264v760zM512 1288v146h182l202 -162l202 162h182v-146l-330 -264h-108z" />
    <glyph glyph-name="uni01D4" unicode="&#x1d4;" 
d="M256 1024h256v-674l182 -145h586v819h256v-1024h-950l-330 264v760zM512 1288v146h182l202 -162l202 162h182v-146l-330 -264h-108z" />
    <glyph glyph-name="uni01D5" unicode="&#x1d5;" 
d="M256 614h256v-264l182 -145h404l182 145v264h256v-350l-330 -264h-620l-330 264v350zM512 1229v205h768v-205h-768zM512 819v205h256v-205h-256zM1024 819v205h256v-205h-256z" />
    <glyph glyph-name="uni01D6" unicode="&#x1d6;" 
d="M256 614h256v-264l182 -145h586v409h256v-614h-950l-330 264v350zM512 1229v205h768v-205h-768zM512 819v205h256v-205h-256zM1024 819v205h256v-205h-256z" />
    <glyph glyph-name="uni01D7" unicode="&#x1d7;" 
d="M256 819v205h256v-205h-256zM256 614h256v-264l182 -145h404l182 145v264h256v-350l-330 -264h-620l-330 264v350zM768 1024v145l330 265h182v-146l-330 -264h-182zM1280 819v205h256v-205h-256z" />
    <glyph glyph-name="uni01D8" unicode="&#x1d8;" 
d="M256 819v205h256v-205h-256zM256 614h256v-264l182 -145h586v409h256v-614h-950l-330 264v350zM768 1024v145l330 265h182v-146l-330 -264h-182zM1280 819v205h256v-205h-256z" />
    <glyph glyph-name="uni01D9" unicode="&#x1d9;" 
d="M256 819v205h256v-205h-256zM256 614h256v-264l182 -145h404l182 145v264h256v-350l-330 -264h-620l-330 264v350zM512 1288v146h182l202 -162l202 162h182v-146l-330 -264h-108zM1280 819v205h256v-205h-256z" />
    <glyph glyph-name="uni01DA" unicode="&#x1da;" 
d="M256 819v205h256v-205h-256zM256 614h256v-264l182 -145h586v409h256v-614h-950l-330 264v350zM512 1288v146h182l202 -162l202 162h182v-146l-330 -264h-108zM1280 819v205h256v-205h-256z" />
    <glyph glyph-name="uni01DB" unicode="&#x1db;" 
d="M256 819v205h256v-205h-256zM256 614h256v-264l182 -145h404l182 145v264h256v-350l-330 -264h-620l-330 264v350zM512 1288v146h182l202 -162l202 162h182v-146l-330 -264h-108zM1280 819v205h256v-205h-256z" />
    <glyph glyph-name="uni01DC" unicode="&#x1dc;" 
d="M256 819v205h256v-205h-256zM256 614h256v-264l182 -145h586v409h256v-614h-950l-330 264v350zM512 1288v146h182l202 -162l202 162h182v-146l-330 -264h-108zM1280 819v205h256v-205h-256z" />
    <glyph glyph-name="uni01DD" unicode="&#x1dd;" 
d="M256 614h1024v60l-182 145h-586v205h694l330 -264v-496l-330 -264h-620l-330 264v350zM512 410v-60l182 -145h404l182 145v60h-768z" />
    <glyph glyph-name="uni01E2" unicode="&#x1e2;" 
d="M256 760l330 264h950v-205h-512v-205h256v-204h-256v-205h512v-205h-768v205h-256v-205h-256v760zM512 1229v205h768v-205h-768zM694 819l-182 -145v-264h256v409h-74z" />
    <glyph glyph-name="uni01E3" unicode="&#x1e3;" 
d="M256 264v86l330 264h182v60l-256 205v145h182l202 -162l202 162h108l330 -264v-350h-512v-205h256v-205h-694zM512 1229v205h768v-205h-768zM694 205h74v205h-74l-128 -103zM1024 614h256v60l-128 102l-128 -102v-60z" />
    <glyph glyph-name="uni01F0" unicode="&#x1f0;" 
d="M512 1288v146h182l202 -162l202 162h182v-146l-330 -264h-108zM768 -59v878h256v-964l-330 -265h-182v146z" />
    <glyph glyph-name="uni01F8" unicode="&#x1f8;" 
d="M256 1024h256v-205h182l512 -409h74v614h256v-1024h-256v205h-182l-512 409h-74v-614h-256v1024zM512 1288v146h182l330 -265v-145h-182z" />
    <glyph glyph-name="uni01F9" unicode="&#x1f9;" 
d="M256 1024h512v59l-256 205v146h182l330 -265v-145h182l330 -264v-760h-256v674l-182 145h-586v-819h-256v1024z" />
    <glyph glyph-name="uni0232" unicode="&#x232;" 
d="M256 879v145h182l458 -367l458 367h182v-145l-512 -410v-469h-256v469zM512 1229v205h768v-205h-768z" />
    <glyph glyph-name="uni0233" unicode="&#x233;" 
d="M256 1024h256v-674l182 -145h586v819h256v-1169l-330 -265h-694v205h586l182 146v59h-694l-330 264v760zM512 1229v205h768v-205h-768z" />
    <glyph glyph-name="uni0237" unicode="&#x237;" 
d="M768 -59v1083h256v-1169l-330 -265h-182v146z" />
    <glyph glyph-name="uni023F" unicode="&#x23f;" 
d="M256 674v86l330 264h950v-205h-842l-128 -102l128 -103h512l330 -264v-86l-330 -264h-182v-59l182 -146h330v-205h-438l-330 265v145h-512v205h842l128 102l-128 103h-512z" />
    <glyph glyph-name="uni0240" unicode="&#x240;" 
d="M256 819v205h1280v-205h-256v-145l-512 -410v-119l438 -350h330v-205h-438l-512 410h-330v205h256v145l512 410v59h-768z" />
    <glyph glyph-name="uni0245" unicode="&#x245;" 
d="M512 760v205l256 204v265h256v-265l256 -204v-205l256 -205v-555h-256v469l-256 205v205l-128 102l-128 -102v-205l-256 -205v-469h-256v555z" />
    <glyph glyph-name="uni0250" unicode="&#x250;" 
d="M256 1024h950l330 -264v-86l-330 -264h-694v-60l182 -145h586v-205h-694l-330 264v760zM512 819v-205h586l128 103l-128 102h-586z" />
    <glyph glyph-name="uni0251" unicode="&#x251;" 
d="M256 760l330 264h950v-1024h-256v205h-74l-256 -205h-364l-330 264v496zM694 819l-182 -145v-324l182 -145h148l256 205h182v409h-586z" />
    <glyph glyph-name="uni0252" unicode="&#x252;" 
d="M256 1024h256v-205h74l256 205h364l330 -264v-496l-330 -264h-950v1024zM512 614v-409h586l182 145v324l-182 145h-148l-256 -205h-182z" />
    <glyph glyph-name="uni0253" unicode="&#x253;" 
d="M256 1169l330 265h438v-205h-330l-182 -146v-59h694l330 -264v-496l-330 -264h-950v1169zM512 819v-614h586l182 145v324l-182 145h-586z" />
    <glyph glyph-name="uni0254" unicode="&#x254;" 
d="M256 819v205h950l330 -264v-496l-330 -264h-950v205h842l182 145v324l-182 145h-842z" />
    <glyph glyph-name="uni0255" unicode="&#x255;" 
d="M256 760l330 264h950v-205h-842l-182 -145v-324l182 -145h74v145l330 264h108l330 -264v-86l-330 -264h-182v-205h-256v205h-182l-330 264v496zM1024 205h74l128 102l-74 60l-128 -103v-59z" />
    <glyph glyph-name="uni0256" unicode="&#x256;" 
d="M256 760l330 264h438v410h256v-1493l256 -205v-146h-182l-330 265v145h-438l-330 264v496zM694 819l-182 -145v-324l182 -145h330v614h-330z" />
    <glyph glyph-name="uni0257" unicode="&#x257;" 
d="M256 760l330 264h438v145l330 265h182v-146l-256 -205v-1083h-694l-330 264v496zM694 819l-182 -145v-324l182 -145h330v614h-330z" />
    <glyph glyph-name="uni0258" unicode="&#x258;" 
d="M256 760l330 264h620l330 -264v-496l-330 -264h-694v205h586l182 145v60h-1024v350zM694 819l-182 -145v-60h768v60l-182 145h-404z" />
    <glyph glyph-name="uni0259" unicode="&#x259;" 
d="M256 614h1024v60l-182 145h-586v205h694l330 -264v-496l-330 -264h-620l-330 264v350zM512 410v-60l182 -145h404l182 145v60h-768z" />
    <glyph glyph-name="uni025A" unicode="&#x25a;" 
d="M256 819v205h438l330 -264v-350h74l256 204h182v-145l-330 -264h-256l-256 -205h-108l-330 264v350h512v60l-182 145h-330zM512 410v-60l128 -102l128 102v60h-256z" />
    <glyph glyph-name="uni025B" unicode="&#x25b;" 
d="M256 674v86l330 264h950v-205h-842l-128 -102l128 -103h586v-204h-586l-128 -103l128 -102h842v-205h-950l-330 264v86l202 162z" />
    <glyph glyph-name="uni025C" unicode="&#x25c;" 
d="M256 819v205h950l330 -264v-86l-202 -162l202 -162v-86l-330 -264h-950v205h842l128 102l-128 103h-586v204h586l128 103l-128 102h-842z" />
    <glyph glyph-name="uni025D" unicode="&#x25d;" 
d="M256 819v205h438l330 -264v-86l-202 -162l128 -102h148l256 204h182v-145l-330 -264h-256l-256 -205h-438v205h330l128 102l-128 103h-330v204h330l128 103l-128 102h-330z" />
    <glyph glyph-name="uni025E" unicode="&#x25e;" 
d="M256 760l330 264h620l330 -264v-86l-202 -162l202 -162v-86l-330 -264h-620l-330 264v496zM694 819l-182 -145v-324l182 -145h404l128 102l-128 103h-330v204h330l128 103l-128 102h-404z" />
    <glyph glyph-name="uni025F" unicode="&#x25f;" 
d="M512 205v205h256v614h256v-614h256v-205h-256v-350l-330 -265h-182v146l256 205v264h-256z" />
    <glyph glyph-name="uni0260" unicode="&#x260;" 
d="M256 760l330 264h438v145l330 265h182v-146l-256 -205v-1228l-330 -265h-438v205h330l182 146v59h-438l-330 264v496zM694 819l-182 -145v-324l182 -145h330v614h-330z" />
    <glyph glyph-name="uni0261" unicode="&#x261;" 
d="M256 760l330 264h950v-1169l-330 -265h-694v205h586l182 146v59h-694l-330 264v496zM694 819l-182 -145v-324l182 -145h586v614h-586z" />
    <glyph glyph-name="uni0262" unicode="&#x262;" 
d="M256 760l330 264h950v-205h-842l-182 -145v-324l182 -145h586v205h-256v204h512v-614h-950l-330 264v496z" />
    <glyph glyph-name="uni0263" unicode="&#x263;" 
d="M256 879v145h182l330 -264v-205l128 -102l128 102v205l330 264h182v-145l-256 -205v-205l-202 -162l202 -162v-290l-330 -265h-108l-330 265v290l202 162l-202 162v205zM768 59v-118l128 -103l128 103v118l-128 103z" />
    <glyph glyph-name="uni0264" unicode="&#x264;" 
d="M256 819v205h438l202 -162l202 162h438v-205h-330l-128 -102l202 -162v-291l-330 -264h-108l-330 264v291l202 162l-128 102h-330zM768 469v-119l128 -102l128 102v119l-128 102z" />
    <glyph glyph-name="uni0265" unicode="&#x265;" 
d="M256 1024h256v-674l182 -145h586v819h256v-1434h-256v410h-694l-330 264v760z" />
    <glyph glyph-name="uni0266" unicode="&#x266;" 
d="M256 1169l330 265h438v-205h-330l-182 -146v-59h694l330 -264v-760h-256v674l-182 145h-586v-819h-256v1169z" />
    <glyph glyph-name="uni0267" unicode="&#x267;" 
d="M256 1169l330 265h438v-205h-330l-182 -146v-59h694l330 -264v-905l-330 -265h-438v205h330l182 146v733l-182 145h-586v-819h-256v1169z" />
    <glyph glyph-name="uni0268" unicode="&#x268;" 
d="M512 819v205h512v-410h256v-204h-256v-205h256v-205h-768v205h256v205h-256v204h256v205h-256zM768 1229v205h256v-205h-256z" />
    <glyph glyph-name="uni0269" unicode="&#x269;" 
d="M512 819v205h512v-674l256 -205v-145h-182l-330 264v555h-256z" />
    <glyph glyph-name="uni026A" unicode="&#x26a;" 
d="M512 819v205h768v-205h-256v-614h256v-205h-768v205h256v614h-256z" />
    <glyph glyph-name="uni026B" unicode="&#x26b;" 
d="M256 614v146l330 264h182v205h-256v205h512v-615h74l256 205h182v-145l-330 -265h-182v-409h256v-205h-768v205h256v614h-74l-256 -205h-182z" />
    <glyph glyph-name="uni026C" unicode="&#x26c;" 
d="M256 674v86l330 264h182v205h-256v205h512v-820h74l256 205h182v-145l-330 -264h-182v-205h256v-205h-768v205h256v205h-182zM694 614h74v205h-74l-128 -102z" />
    <glyph glyph-name="uni026D" unicode="&#x26d;" 
d="M512 1229v205h512v-1493l256 -205v-146h-182l-330 265v1374h-256z" />
    <glyph glyph-name="uni026E" unicode="&#x26e;" 
d="M256 1229v205h512v-410h768v-350l-202 -162l202 -162v-495l-330 -265h-438v205h330l182 146v323l-256 205v86l256 205v59h-512v-614h256v-205h-768v205h256v1024h-256z" />
    <glyph glyph-name="uni026F" unicode="&#x26f;" 
d="M256 1024h256v-674l128 -102l128 102v674h256v-674l182 -145h74v819h256v-1024h-438l-202 162l-202 -162h-108l-330 264v760z" />
    <glyph glyph-name="uni0270" unicode="&#x270;" 
d="M256 1024h256v-674l128 -102l128 102v674h256v-674l182 -145h74v819h256v-1434h-256v410h-182l-202 162l-202 -162h-108l-330 264v760z" />
    <glyph glyph-name="uni0271" unicode="&#x271;" 
d="M256 1024h438l202 -162l202 162h108l330 -264v-905l-330 -265h-182v146l256 205v733l-128 102l-128 -102v-674h-256v674l-182 145h-74v-819h-256v1024z" />
    <glyph glyph-name="uni0272" unicode="&#x272;" 
d="M512 -59v1083h694l330 -264v-760h-256v674l-182 145h-330v-964l-330 -265h-182v146z" />
    <glyph glyph-name="uni0273" unicode="&#x273;" 
d="M256 1024h694l330 -264v-819l256 -205v-146h-182l-330 265v819l-182 145h-330v-819h-256v1024z" />
    <glyph glyph-name="uni0274" unicode="&#x274;" 
d="M256 1024h256v-205h182l512 -409h74v614h256v-1024h-256v205h-182l-512 409h-74v-614h-256v1024z" />
    <glyph glyph-name="uni0275" unicode="&#x275;" 
d="M256 760l330 264h620l330 -264v-496l-330 -264h-620l-330 264v496zM694 819l-182 -145v-60h768v60l-182 145h-404zM512 410v-60l182 -145h404l182 145v60h-768z" />
    <glyph glyph-name="uni0276" unicode="&#x276;" 
d="M256 760l330 264h950v-205h-512v-205h512v-204h-512v-205h512v-205h-950l-330 264v496zM694 819l-182 -145v-324l182 -145h74v614h-74z" />
    <glyph glyph-name="uni0277" unicode="&#x277;" 
d="M256 760l330 264h620l330 -264v-496l-330 -264h-108l-202 162l-202 -162h-108l-330 264v496zM694 819l-182 -145v-324l128 -102l128 102v264h256v-264l128 -102l128 102v324l-182 145h-404z" />
    <glyph glyph-name="uni0278" unicode="&#x278;" 
d="M256 760l330 264h182v410h256v-410h182l330 -264v-496l-330 -264h-182v-410h-256v410h-182l-330 264v496zM694 819l-182 -145v-324l182 -145h74v614h-74zM1024 819v-614h74l182 145v324l-182 145h-74z" />
    <glyph glyph-name="uni0279" unicode="&#x279;" 
d="M256 0v205h330l256 205h182v614h256v-1024h-256v205h-74l-256 -205h-438z" />
    <glyph glyph-name="uni027A" unicode="&#x27a;" 
d="M256 0v205h330l256 205h182v1024h256v-1434h-256v205h-74l-256 -205h-438z" />
    <glyph glyph-name="uni027B" unicode="&#x27b;" 
d="M256 0v205h330l256 205h182v614h256v-1083l256 -205v-146h-182l-330 265v350h-74l-256 -205h-438z" />
    <glyph glyph-name="uni027C" unicode="&#x27c;" 
d="M512 1024h256v-205h74l256 205h438v-205h-330l-256 -205h-182v-1024h-256v1434z" />
    <glyph glyph-name="uni027D" unicode="&#x27d;" 
d="M512 1024h256v-205h74l256 205h438v-205h-330l-256 -205h-182v-673l256 -205v-146h-182l-330 265v1169z" />
    <glyph glyph-name="uni027E" unicode="&#x27e;" 
d="M512 760l330 264h364l330 -264v-146h-182l-256 205h-148l-182 -145v-674h-256v760z" />
    <glyph glyph-name="uni0280" unicode="&#x280;" 
d="M256 1024h950l330 -264v-86l-256 -205v-119l256 -205v-145h-182l-330 264v146h-512v-410h-256v1024zM512 819v-205h586l128 103l-128 102h-586z" />
    <glyph glyph-name="uni0281" unicode="&#x281;" 
d="M256 1024h256v-410h512v146l330 264h182v-145l-256 -205v-119l256 -205v-86l-330 -264h-950v1024zM512 410v-205h586l128 102l-128 103h-586z" />
    <glyph glyph-name="uni0282" unicode="&#x282;" 
d="M256 674v86l330 264h950v-205h-842l-128 -102l128 -103h512l330 -264v-86l-330 -264h-694v-59l256 -205v-146h-182l-330 265v350h842l128 102l-128 103h-512z" />
    <glyph glyph-name="uni0283" unicode="&#x283;" 
d="M768 -59v1228l330 265h182v-146l-256 -205v-1228l-330 -265h-182v146z" />
    <glyph glyph-name="uni0284" unicode="&#x284;" 
d="M512 205v205h256v759l330 265h182v-146l-256 -205v-673h256v-205h-256v-350l-330 -265h-182v146l256 205v264h-256z" />
    <glyph glyph-name="uni0286" unicode="&#x286;" 
d="M256 145l330 265h182v759l330 265h182v-146l-256 -205v-673h256v-205h-256v-350l-330 -265h-108l-330 265v290zM694 205l-182 -146v-118l128 -103l128 103v264h-74z" />
    <glyph glyph-name="uni0287" unicode="&#x287;" 
d="M512 879v145h182l330 -264v-555h256v-205h-256v-410h-256v410h-256v205h256v469z" />
    <glyph glyph-name="uni0288" unicode="&#x288;" 
d="M512 819v205h256v410h256v-410h256v-205h-256v-878l256 -205v-146h-182l-330 265v964h-256z" />
    <glyph glyph-name="uni0289" unicode="&#x289;" 
d="M256 614v205h256v205h256v-205h256v205h256v-205h256v-205h-256v-614h-438l-330 264v350h-256zM768 614v-264l182 -145h74v409h-256z" />
    <glyph glyph-name="uni028A" unicode="&#x28a;" 
d="M256 819v205h512v-350l-256 -205v-119l182 -145h404l182 145v119l-256 205v350h512v-205h-256v-59l256 -205v-291l-330 -264h-620l-330 264v291l256 205v59h-256z" />
    <glyph glyph-name="uni028B" unicode="&#x28b;" 
d="M256 819v205h512v-819h74l438 350v119l-256 205v145h182l330 -264v-291l-586 -469h-438v819h-256z" />
    <glyph glyph-name="uni028C" unicode="&#x28c;" 
d="M512 555v205l330 264h108l330 -264v-205l256 -205v-350h-256v264l-256 205v205l-128 102l-128 -102v-205l-256 -205v-264h-256v350z" />
    <glyph glyph-name="uni028D" unicode="&#x28d;" 
d="M256 760l330 264h108l202 -162l202 162h108l330 -264v-760h-256v674l-128 102l-128 -102v-264h-256v264l-128 102l-128 -102v-674h-256v760z" />
    <glyph glyph-name="uni028E" unicode="&#x28e;" 
d="M256 1169l330 265h694v-205h-586l-182 -146v-59h438l586 -469v-555h-256v469l-438 350h-330v-819h-256v1169z" />
    <glyph glyph-name="uni028F" unicode="&#x28f;" 
d="M256 879v145h182l458 -367l458 367h182v-145l-512 -410v-469h-256v469z" />
    <glyph glyph-name="uni0290" unicode="&#x290;" 
d="M256 819v205h1024v-205h-256v-145l-512 -410v-59h768v-264l256 -205v-146h-182l-330 265v145h-768v350l512 410v59h-512z" />
    <glyph glyph-name="uni0291" unicode="&#x291;" 
d="M256 819v205h1280v-205h-256v-145l-512 -410v-59h438l330 -264v-86l-330 -265h-108l-330 265v145h-512v205h256v145l512 410v59h-768zM1024 0v-59l128 -103l74 60l-128 102h-74z" />
    <glyph glyph-name="uni0292" unicode="&#x292;" 
d="M256 819v205h1280v-205h-256v-145l-256 -205v-59h182l330 -265v-290l-330 -265h-620l-330 265v145h182l256 -205h404l182 146v118l-182 146h-586v205h256v145l256 205v59h-768z" />
    <glyph glyph-name="uni0293" unicode="&#x293;" 
d="M256 819v205h1280v-205h-256v-145l-202 -162l458 -367v-290l-330 -265h-620l-330 265v86l330 264h108l330 -264v-146h74l182 146v118l-512 410v86l256 205v59h-768zM694 -205h74v60l-128 102l-74 -59z" />
    <glyph glyph-name="uni0294" unicode="&#x294;" 
d="M256 1024v145l330 265h620l330 -265v-86l-512 -409v-674h-256v760l458 366l-128 103h-404l-256 -205h-182z" />
    <glyph glyph-name="uni0295" unicode="&#x295;" 
d="M256 1083v86l330 265h620l330 -265v-145h-182l-256 205h-404l-128 -103l458 -366v-760h-256v674z" />
    <glyph glyph-name="uni0296" unicode="&#x296;" 
d="M256 264v146h182l256 -205h404l128 102l-458 367v760h256v-674l512 -410v-86l-330 -264h-620z" />
    <glyph glyph-name="uni0297" unicode="&#x297;" 
d="M256 1169l330 265h620l330 -265v-145h-182l-256 205h-404l-182 -146v-1142l182 -146h404l256 205h182v-145l-330 -265h-620l-330 265v1314z" />
    <glyph glyph-name="uni0298" unicode="&#x298;" 
d="M256 1169l330 265h620l330 -265v-905l-330 -264h-620l-330 264v905zM694 1229l-182 -146v-733l182 -145h404l182 145v733l-182 146h-404zM768 614v205h256v-205h-256z" />
    <glyph glyph-name="uni0299" unicode="&#x299;" 
d="M256 1024h950l330 -264v-86l-202 -162l202 -162v-86l-330 -264h-950v1024zM512 819v-205h586l128 103l-128 102h-586zM512 410v-205h586l128 102l-128 103h-586z" />
    <glyph glyph-name="uni029A" unicode="&#x29a;" 
d="M256 674v86l330 264h620l330 -264v-496l-330 -264h-620l-330 264v86l202 162zM694 614h330v-204h-330l-128 -103l128 -102h404l182 145v324l-182 145h-404l-128 -102z" />
    <glyph glyph-name="uni029B" unicode="&#x29b;" 
d="M256 760l330 264h438v145l330 265h182v-146l-256 -205v-264h-586l-182 -145v-324l182 -145h330v205h-256v204h512v-614h-694l-330 264v496z" />
    <glyph glyph-name="uni029C" unicode="&#x29c;" 
d="M256 1024h256v-410h768v410h256v-1024h-256v410h-768v-410h-256v1024z" />
    <glyph glyph-name="uni029D" unicode="&#x29d;" 
d="M256 145l330 265h182v614h256v-614h256v-205h-256v-350l-330 -265h-108l-330 265v290zM694 205l-182 -146v-118l128 -103l128 103v264h-74zM768 1229v205h256v-205h-256z" />
    <glyph glyph-name="uni029E" unicode="&#x29e;" 
d="M256 879v145h182l512 -410h74v410h256v-1434h-256v820h-74l-512 -410h-182v145l458 367z" />
    <glyph glyph-name="uni029F" unicode="&#x29f;" 
d="M256 1024h256v-819h1024v-205h-1280v1024z" />
    <glyph glyph-name="uni02A0" unicode="&#x2a0;" 
d="M256 760l330 264h694v59l-182 146h-330v205h438l330 -265v-1579h-256v410h-694l-330 264v496zM694 819l-182 -145v-324l182 -145h586v614h-586z" />
    <glyph glyph-name="uni02A1" unicode="&#x2a1;" 
d="M256 1024v145l330 265h620l330 -265v-86l-512 -409v-60h512v-204h-512v-410h-256v410h-512v204h512v146l458 366l-128 103h-404l-256 -205h-182z" />
    <glyph glyph-name="uni02A2" unicode="&#x2a2;" 
d="M256 1083v86l330 265h620l330 -265v-145h-182l-256 205h-404l-128 -103l458 -366v-146h512v-204h-512v-410h-256v410h-512v204h512v60z" />
    <glyph glyph-name="uni02A3" unicode="&#x2a3;" 
d="M256 760l330 264h182v410h256v-410h512v-350l-256 -205v-264h256v-205h-950l-330 264v496zM694 819l-182 -145v-324l182 -145h74v614h-74zM1024 819v-205h74l182 146v59h-256z" />
    <glyph glyph-name="uni02A4" unicode="&#x2a4;" 
d="M256 760l330 264h182v410h256v-410h512v-350l-202 -162l202 -162v-495l-330 -265h-438v205h330l182 146v323l-182 146h-74v-410h-438l-330 264v496zM694 819l-182 -145v-324l182 -145h74v614h-74zM1024 819v-205h74l182 146v59h-256z" />
    <glyph glyph-name="uni02A5" unicode="&#x2a5;" 
d="M256 760l330 264h182v410h256v-410h512v-350l-256 -205v-264h256v-350l-330 -265h-108l-330 265v145h-182l-330 264v496zM694 819l-182 -145v-324l182 -145h74v614h-74zM1024 819v-205h74l182 146v59h-256zM1024 0v-59l128 -103l128 103v59h-256z" />
    <glyph glyph-name="uni02A6" unicode="&#x2a6;" 
d="M256 1434h256v-410h1024v-205h-512v-59l512 -410v-86l-330 -264h-620l-330 264v1170zM512 819v-469l182 -145h404l128 102l-458 367v145h-256z" />
    <glyph glyph-name="uni02A7" unicode="&#x2a7;" 
d="M256 819v205h256v410h256v-410h256v145l330 265h182v-146l-256 -205v-1228l-330 -265h-182v146l256 205v59h-182l-330 264v555h-256zM768 819v-469l182 -145h74v614h-256z" />
    <glyph glyph-name="uni02A8" unicode="&#x2a8;" 
d="M256 1434h256v-205h256v-205h-256v-674l182 -145h74v555l330 264h438v-205h-330l-182 -145v-469h182l330 -264v-86l-330 -265h-108l-330 265v145h-182l-330 264v1170zM1024 0v-59l128 -103l74 60l-128 102h-74z" />
    <glyph glyph-name="uni02A9" unicode="&#x2a9;" 
d="M256 1169l330 265h182v-146l-256 -205v-264h694l330 -264v-700l-330 -265h-438v205h330l182 146v528l-182 145h-74v-614h-256v614h-256v-614h-256v1169z" />
    <glyph glyph-name="uni02AA" unicode="&#x2aa;" 
d="M256 1229v205h512v-615h74l256 205h438v-205h-330l-128 -102l458 -367v-86l-330 -264h-950v205h256v1024h-256zM768 205h330l128 102l-384 307h-74v-409z" />
    <glyph glyph-name="uni02AB" unicode="&#x2ab;" 
d="M256 1229v205h512v-410h768v-350l-512 -410v-59h512v-205h-1280v205h256v1024h-256zM768 819v-409h74l438 350v59h-512z" />
    <glyph glyph-name="uni02AC" unicode="&#x2ac;" 
d="M256 879v145h182l202 -162l202 162h108l202 -162l202 162h182v-145l-330 -265h-108l-202 162l-202 -162h-108zM256 264v146h182l202 -162l202 162h108l202 -162l202 162h182v-146l-330 -264h-108l-202 162l-202 -162h-108z" />
    <glyph glyph-name="uni02AD" unicode="&#x2ad;" 
d="M512 1024h768v-410h-256v205h-256v-205h-256v410zM512 410h768v-410h-256v205h-256v-205h-256v410z" />
    <glyph glyph-name="uni02B0" unicode="&#x2b0;" 
d="M256 1434h256v-410h182l330 -264v-350h-256v264l-182 145h-74v-409h-256v1024z" />
    <glyph glyph-name="uni02B2" unicode="&#x2b2;" 
d="M512 555v469h256v-555l-330 -264h-182v145zM512 1229v205h256v-205h-256z" />
    <glyph glyph-name="uni02B9" unicode="&#x2b9;" 
d="M512 1169v265h256v-351l-256 -204v-265h-256v351z" />
    <glyph glyph-name="uni02BA" unicode="&#x2ba;" 
d="M512 1169v265h256v-351l-256 -204v-265h-256v351zM1280 1169v265h256v-351l-256 -204v-265h-256v351z" />
    <glyph glyph-name="uni02BC" unicode="&#x2bc;" 
d="M768 1169v265h256v-351l-330 -264h-182v146z" />
    <glyph glyph-name="circumflex" unicode="&#x2c6;" 
d="M512 1024v145l330 265h108l330 -265v-145h-182l-202 162l-202 -162h-182z" />
    <glyph glyph-name="caron" unicode="&#x2c7;" 
d="M512 1288v146h182l202 -162l202 162h182v-146l-330 -264h-108z" />
    <glyph glyph-name="uni02C8" unicode="&#x2c8;" 
d="M768 1434h256v-615h-256v615z" />
    <glyph glyph-name="uni02CC" unicode="&#x2cc;" 
d="M768 205h256v-615h-256v615z" />
    <glyph glyph-name="uni02D0" unicode="&#x2d0;" 
d="M512 879v145h182l202 -162l202 162h182v-145l-330 -265h-108zM512 0v145l330 265h108l330 -265v-145h-182l-202 162l-202 -162h-182z" />
    <glyph glyph-name="uni02D1" unicode="&#x2d1;" 
d="M512 879v145h182l202 -162l202 162h182v-145l-330 -265h-108z" />
    <glyph glyph-name="breve" unicode="&#x2d8;" 
d="M256 1288v146h182l256 -205h404l256 205h182v-146l-330 -264h-620z" />
    <glyph glyph-name="dotaccent" unicode="&#x2d9;" 
d="M768 1229v205h256v-205h-256z" />
    <glyph glyph-name="ring" unicode="&#x2da;" 
d="M512 1083v86l330 265h108l330 -265v-86l-330 -264h-108zM896 1067l74 59l-74 60l-74 -60z" />
    <glyph glyph-name="ogonek" unicode="&#x2db;" 
d="M512 -145v86l330 264h182v-146l-202 -161l202 -162v-146h-182z" />
    <glyph glyph-name="tilde" unicode="&#x2dc;" 
d="M512 1024v145l330 265h108l202 -162l202 162h182v-146l-330 -264h-108l-202 162l-202 -162h-182z" />
    <glyph glyph-name="hungarumlaut" unicode="&#x2dd;" 
d="M256 1024v145l330 265h182v-146l-330 -264h-182zM1024 1024v145l330 265h182v-146l-330 -264h-182z" />
    <glyph glyph-name="uni02E0" unicode="&#x2e0;" 
d="M256 1288v146h182l202 -162l202 162h182v-146l-202 -162l202 -161v-291l-330 -264h-108l-330 264v291l202 161zM512 879v-119l128 -103l128 103v119l-128 102z" />
    <glyph glyph-name="uni02E1" unicode="&#x2e1;" 
d="M256 1229v205h512v-820h256v-204h-768v204h256v615h-256z" />
    <glyph glyph-name="uni02E2" unicode="&#x2e2;" 
d="M256 410v204h256v410h512v-205h-256v-409h-512z" />
    <glyph glyph-name="uni02E3" unicode="&#x2e3;" 
d="M256 879v145h182l202 -162l202 162h182v-145l-202 -162l202 -162v-145h-182l-202 161l-202 -161h-182v145l202 162z" />
    <glyph glyph-name="uni02E4" unicode="&#x2e4;" 
d="M256 1169l330 265h108l330 -265v-145h-182l-202 162l-128 -103v-118l256 -205v-350h-256v264l-256 205v290z" />
    <glyph glyph-name="uni02E5" unicode="&#x2e5;" 
d="M256 1229v205h1280v-1434h-256v1229h-1024z" />
    <glyph glyph-name="uni02E6" unicode="&#x2e6;" 
d="M256 1024v205h1024v205h256v-1434h-256v1024h-1024z" />
    <glyph glyph-name="uni02E7" unicode="&#x2e7;" 
d="M256 614v205h1024v615h256v-1434h-256v614h-1024z" />
    <glyph glyph-name="uni02E8" unicode="&#x2e8;" 
d="M256 205v205h1024v1024h256v-1434h-256v205h-1024z" />
    <glyph glyph-name="uni02E9" unicode="&#x2e9;" 
d="M256 0v205h1024v1229h256v-1434h-1280z" />
    <glyph glyph-name="uni037F" unicode="&#x37f;" 
d="M256 264v146h182l256 -205h404l182 145v1084h256v-1170l-330 -264h-620z" />
    <glyph glyph-name="tonos" unicode="&#x384;" 
d="M768 1229v205h256v-205h-256z" />
    <glyph glyph-name="dieresistonos" unicode="&#x385;" 
d="M256 1024v205h256v-205h-256zM768 1434h256v-410h-256v410zM1280 1024v205h256v-205h-256z" />
    <glyph glyph-name="Alphatonos" unicode="&#x386;" 
d="M256 1434h256v-410h-256v410zM768 1169l330 265h108l330 -265v-1169h-256v410h-256v-410h-256v1169zM1024 1083v-469h256v469l-128 103z" />
    <glyph glyph-name="Epsilontonos" unicode="&#x388;" 
d="M256 1434h256v-410h-256v410zM768 1434h768v-205h-512v-410h256v-205h-256v-409h512v-205h-768v1434z" />
    <glyph glyph-name="Etatonos" unicode="&#x389;" 
d="M256 1434h256v-410h-256v410zM768 1434h256v-615h256v615h256v-1434h-256v614h-256v-614h-256v1434z" />
    <glyph glyph-name="Iotatonos" unicode="&#x38a;" 
d="M256 1434h256v-410h-256v410zM768 1229v205h768v-205h-256v-1024h256v-205h-768v205h256v1024h-256z" />
    <glyph glyph-name="Omicrontonos" unicode="&#x38c;" 
d="M256 1434h256v-410h-256v410zM768 1169l330 265h108l330 -265v-905l-330 -264h-108l-330 264v905zM1024 1083v-733l128 -102l128 102v733l-128 103z" />
    <glyph glyph-name="Upsilontonos" unicode="&#x38e;" 
d="M256 1434h256v-410h-256v410zM768 1434h256v-469l128 -103l128 103v469h256v-555l-256 -205v-674h-256v674l-256 205v555z" />
    <glyph glyph-name="Omegatonos" unicode="&#x38f;" 
d="M256 1434h256v-410h-256v410zM768 1169l330 265h108l330 -265v-700l-256 -205v-59h256v-205h-768v205h256v59l-256 205v700zM1024 1083v-528l128 -102l128 102v528l-128 103z" />
    <glyph glyph-name="iotadieresistonos" unicode="&#x390;" 
d="M256 1024v205h256v-205h-256zM512 614v205h512v-469l256 -205v-145h-182l-330 264v350h-256zM768 1434h256v-410h-256v410zM1280 1024v205h256v-205h-256z" />
    <glyph glyph-name="Alpha" unicode="&#x391;" 
d="M256 965l586 469h108l586 -469v-965h-256v410h-768v-410h-256v965zM512 879v-265h768v265l-384 307z" />
    <glyph glyph-name="Beta" unicode="&#x392;" 
d="M256 1434h950l330 -265v-290l-202 -162l202 -162v-291l-330 -264h-950v1434zM512 1229v-410h586l182 146v118l-182 146h-586zM512 614v-409h586l182 145v119l-182 145h-586z" />
    <glyph glyph-name="Gamma" unicode="&#x393;" 
d="M256 1434h1280v-205h-1024v-1229h-256v1434z" />
    <glyph glyph-name="uni0394" unicode="&#x394;" 
d="M512 760v205l256 204v265h256v-265l256 -204v-205l256 -205v-555h-1280v555zM768 674l-256 -205v-264h768v264l-256 205v205l-128 102l-128 -102v-205z" />
    <glyph glyph-name="Epsilon" unicode="&#x395;" 
d="M256 1434h1280v-205h-1024v-410h768v-205h-768v-409h1024v-205h-1280v1434z" />
    <glyph glyph-name="Zeta" unicode="&#x396;" 
d="M256 1229v205h1280v-351l-1024 -819v-59h1024v-205h-1280v350l1024 819v60h-1024z" />
    <glyph glyph-name="Eta" unicode="&#x397;" 
d="M256 1434h256v-615h768v615h256v-1434h-256v614h-768v-614h-256v1434z" />
    <glyph glyph-name="Theta" unicode="&#x398;" 
d="M256 1169l330 265h620l330 -265v-905l-330 -264h-620l-330 264v905zM694 1229l-182 -146v-264h768v264l-182 146h-404zM512 614v-264l182 -145h404l182 145v264h-768z" />
    <glyph glyph-name="Iota" unicode="&#x399;" 
d="M512 1229v205h768v-205h-256v-1024h256v-205h-768v205h256v1024h-256z" />
    <glyph glyph-name="Kappa" unicode="&#x39a;" 
d="M256 1434h256v-615h74l768 615h182v-146l-714 -571l714 -572v-145h-182l-768 614h-74v-614h-256v1434z" />
    <glyph glyph-name="Lambda" unicode="&#x39b;" 
d="M512 760v205l256 204v265h256v-265l256 -204v-205l256 -205v-555h-256v469l-256 205v205l-128 102l-128 -102v-205l-256 -205v-469h-256v555z" />
    <glyph glyph-name="Mu" unicode="&#x39c;" 
d="M256 1434h256v-205h182l202 -162l202 162h182v205h256v-1434h-256v1024h-74l-182 -145v-265h-256v265l-182 145h-74v-1024h-256v1434z" />
    <glyph glyph-name="Nu" unicode="&#x39d;" 
d="M256 1434h256v-410h182l512 -410h74v820h256v-1434h-256v410h-182l-512 409h-74v-819h-256v1434z" />
    <glyph glyph-name="Xi" unicode="&#x39e;" 
d="M256 1229v205h1280v-205h-1280zM256 0v205h1280v-205h-1280zM512 614v205h768v-205h-768z" />
    <glyph glyph-name="Omicron" unicode="&#x39f;" 
d="M256 1169l330 265h620l330 -265v-905l-330 -264h-620l-330 264v905zM694 1229l-182 -146v-733l182 -145h404l182 145v733l-182 146h-404z" />
    <glyph glyph-name="Pi" unicode="&#x3a0;" 
d="M256 1434h1280v-1434h-256v1229h-768v-1229h-256v1434z" />
    <glyph glyph-name="Rho" unicode="&#x3a1;" 
d="M256 1434h950l330 -265v-290l-330 -265h-694v-614h-256v1434zM512 1229v-410h586l182 146v118l-182 146h-586z" />
    <glyph glyph-name="Sigma" unicode="&#x3a3;" 
d="M256 1434h1280v-205h-1024v-60l512 -409v-86l-512 -410v-59h1024v-205h-1280v350l458 367l-458 366v351z" />
    <glyph glyph-name="Tau" unicode="&#x3a4;" 
d="M256 1229v205h1280v-205h-512v-1229h-256v1229h-512z" />
    <glyph glyph-name="Upsilon" unicode="&#x3a5;" 
d="M256 1434h256v-265l384 -307l384 307v265h256v-351l-512 -409v-674h-256v674l-512 409v351z" />
    <glyph glyph-name="Phi" unicode="&#x3a6;" 
d="M256 965l330 264h182v205h256v-205h182l330 -264v-496l-330 -264h-182v-205h-256v205h-182l-330 264v496zM694 1024l-182 -145v-324l182 -145h74v614h-74zM1024 1024v-614h74l182 145v324l-182 145h-74z" />
    <glyph glyph-name="Chi" unicode="&#x3a7;" 
d="M256 1434h256v-265l384 -307l384 307v265h256v-351l-458 -366l458 -367v-350h-256v264l-384 307l-384 -307v-264h-256v350l458 367l-458 366v351z" />
    <glyph glyph-name="Psi" unicode="&#x3a8;" 
d="M256 1434h256v-879l182 -145h74v1024h256v-1024h74l182 145v879h256v-965l-330 -264h-182v-205h-256v205h-182l-330 264v965z" />
    <glyph glyph-name="uni03A9" unicode="&#x3a9;" 
d="M256 1169l330 265h620l330 -265v-700l-256 -205v-59h256v-205h-512v350l256 205v528l-182 146h-404l-182 -146v-528l256 -205v-350h-512v205h256v59l-256 205v700z" />
    <glyph glyph-name="Iotadieresis" unicode="&#x3aa;" 
d="M512 1229v205h256v-205h-256zM512 819v205h768v-205h-256v-614h256v-205h-768v205h256v614h-256zM1024 1229v205h256v-205h-256z" />
    <glyph glyph-name="Upsilondieresis" unicode="&#x3ab;" 
d="M256 879v145h182l458 -367l458 367h182v-145l-512 -410v-469h-256v469zM512 1229v205h256v-205h-256zM1024 1229v205h256v-205h-256z" />
    <glyph glyph-name="alphatonos" unicode="&#x3ac;" 
d="M256 760l330 264h364l202 -162l202 162h182v-145l-256 -205v-324l256 -205v-145h-182l-202 162l-202 -162h-364l-330 264v496zM694 819l-182 -145v-324l182 -145h148l182 145v324l-182 145h-148zM768 1229v205h256v-205h-256z" />
    <glyph glyph-name="epsilontonos" unicode="&#x3ad;" 
d="M256 674v86l330 264h950v-205h-842l-128 -102l128 -103h586v-204h-586l-128 -103l128 -102h842v-205h-950l-330 264v86l202 162zM768 1229v205h256v-205h-256z" />
    <glyph glyph-name="etatonos" unicode="&#x3ae;" 
d="M256 1024h950l330 -264v-1170h-256v1084l-182 145h-586v-819h-256v1024zM768 1229v205h256v-205h-256z" />
    <glyph glyph-name="iotatonos" unicode="&#x3af;" 
d="M512 819v205h512v-674l256 -205v-145h-182l-330 264v555h-256zM768 1229v205h256v-205h-256z" />
    <glyph glyph-name="upsilondieresistonos" unicode="&#x3b0;" 
d="M256 1024v205h256v-205h-256zM256 819h256v-469l182 -145h404l182 145v119l-256 205v145h182l330 -264v-291l-330 -264h-620l-330 264v555zM768 1434h256v-410h-256v410zM1280 1024v205h256v-205h-256z" />
    <glyph glyph-name="alpha" unicode="&#x3b1;" 
d="M256 760l330 264h364l202 -162l202 162h182v-145l-256 -205v-324l256 -205v-145h-182l-202 162l-202 -162h-364l-330 264v496zM694 819l-182 -145v-324l182 -145h148l182 145v324l-182 145h-148z" />
    <glyph glyph-name="beta" unicode="&#x3b2;" 
d="M256 1169l330 265h620l330 -265v-290l-202 -162l202 -162v-291l-330 -264h-694v-410h-256v1579zM694 1229l-182 -146v-264h586l182 146v118l-182 146h-404zM512 614v-409h586l182 145v119l-182 145h-586z" />
    <glyph glyph-name="gamma" unicode="&#x3b3;" 
d="M256 1024h256v-264l256 -205v-205l128 -102l128 102v205l256 205v264h256v-350l-256 -205v-205l-256 -205v-469h-256v469l-256 205v205l-256 205v350z" />
    <glyph glyph-name="delta" unicode="&#x3b4;" 
d="M256 1083v86l330 265h950v-205h-842l-128 -103l128 -102h512l330 -264v-496l-330 -264h-620l-330 264v496l202 162zM694 819l-182 -145v-324l182 -145h404l182 145v324l-182 145h-404z" />
    <glyph glyph-name="epsilon" unicode="&#x3b5;" 
d="M256 674v86l330 264h950v-205h-842l-128 -102l128 -103h586v-204h-586l-128 -103l128 -102h842v-205h-950l-330 264v86l202 162z" />
    <glyph glyph-name="zeta" unicode="&#x3b6;" 
d="M256 1229v205h1024v-351l-768 -614v-119l182 -145h256l330 -264v-86l-330 -265h-182v146l202 162l-128 102h-256l-330 264v291l768 614v60h-768z" />
    <glyph glyph-name="eta" unicode="&#x3b7;" 
d="M256 1024h950l330 -264v-1170h-256v1084l-182 145h-586v-819h-256v1024z" />
    <glyph glyph-name="theta" unicode="&#x3b8;" 
d="M256 1169l330 265h364l330 -265v-905l-330 -264h-364l-330 264v905zM694 1229l-182 -146v-264h512v264l-182 146h-148zM512 614v-264l182 -145h148l182 145v264h-512z" />
    <glyph glyph-name="iota" unicode="&#x3b9;" 
d="M512 819v205h512v-674l256 -205v-145h-182l-330 264v555h-256z" />
    <glyph glyph-name="kappa" unicode="&#x3ba;" 
d="M512 1024h256v-410h74l512 410h182v-145l-458 -367l458 -367v-145h-182l-512 410h-74v-410h-256v1024z" />
    <glyph glyph-name="lambda" unicode="&#x3bb;" 
d="M256 1229v205h438l330 -265v-204l256 -205v-205l256 -205v-350h-256v264l-256 205v205l-128 102l-128 -102v-205l-256 -205v-264h-256v350l256 205v205l256 205v118l-182 146h-330z" />
    <glyph glyph-name="uni03BC" unicode="&#x3bc;" 
d="M256 1024h256v-819h330l182 145v674h256v-674l256 -205v-145h-182l-202 162l-202 -162h-438v-410h-256v1434z" />
    <glyph glyph-name="nu" unicode="&#x3bd;" 
d="M256 1024h256v-264l256 -205v-205l128 -102l384 307v469h256v-555l-586 -469h-108l-330 264v205l-256 205v350z" />
    <glyph glyph-name="xi" unicode="&#x3be;" 
d="M256 1169l330 265h694v-205h-586l-182 -146v-118l182 -146h586v-205h-586l-182 -145v-119l182 -145h512l330 -264v-86l-330 -265h-182v146l202 162l-128 102h-512l-330 264v291l202 162l-202 162v290z" />
    <glyph glyph-name="omicron" unicode="&#x3bf;" 
d="M256 760l330 264h620l330 -264v-496l-330 -264h-620l-330 264v496zM694 819l-182 -145v-324l182 -145h404l182 145v324l-182 145h-404z" />
    <glyph glyph-name="pi" unicode="&#x3c0;" 
d="M256 819v205h1280v-205h-256v-469l256 -205v-145h-182l-330 264v555h-256v-819h-256v819h-256z" />
    <glyph glyph-name="rho" unicode="&#x3c1;" 
d="M256 760l330 264h620l330 -264v-496l-330 -264h-694v-410h-256v1170zM694 819l-182 -145v-469h586l182 145v324l-182 145h-404z" />
    <glyph glyph-name="sigma1" unicode="&#x3c2;" 
d="M256 760l330 264h950v-205h-842l-182 -145v-324l182 -145h512l330 -264v-86l-330 -265h-182v146l202 162l-128 102h-512l-330 264v496z" />
    <glyph glyph-name="sigma" unicode="&#x3c3;" 
d="M256 760l330 264h950v-205h-256v-59l256 -205v-291l-330 -264h-620l-330 264v496zM694 819l-182 -145v-324l182 -145h404l182 145v119l-256 205v145h-330z" />
    <glyph glyph-name="tau" unicode="&#x3c4;" 
d="M256 819v205h1280v-205h-512v-469l256 -205v-145h-182l-330 264v555h-512z" />
    <glyph glyph-name="upsilon" unicode="&#x3c5;" 
d="M256 1024h256v-674l182 -145h404l182 145v324l-256 205v145h182l330 -264v-496l-330 -264h-620l-330 264v760z" />
    <glyph glyph-name="phi" unicode="&#x3c6;" 
d="M256 1024h256v-674l182 -145h74v819h438l330 -264v-496l-330 -264h-182v-410h-256v410h-182l-330 264v760zM1024 819v-614h74l182 145v324l-182 145h-74z" />
    <glyph glyph-name="chi" unicode="&#x3c7;" 
d="M256 879v145h182l330 -264v-205l128 -102l384 307v264h256v-350l-458 -367l202 -162v-204l256 -205v-146h-182l-330 265v204l-128 103l-384 -307v-265h-256v351l458 366l-202 162v205z" />
    <glyph glyph-name="psi" unicode="&#x3c8;" 
d="M256 1024h256v-674l182 -145h74v819h256v-819h74l182 145v674h256v-760l-330 -264h-182v-410h-256v410h-182l-330 264v760z" />
    <glyph glyph-name="omega" unicode="&#x3c9;" 
d="M256 760l330 264h182v-145l-256 -205v-324l128 -102l128 102v264h256v-264l128 -102l128 102v324l-256 205v145h182l330 -264v-496l-330 -264h-108l-202 162l-202 -162h-108l-330 264v496z" />
    <glyph glyph-name="iotadieresis" unicode="&#x3ca;" 
d="M512 1229v205h256v-205h-256zM512 819v205h512v-674l256 -205v-145h-182l-330 264v555h-256zM1024 1229v205h256v-205h-256z" />
    <glyph glyph-name="upsilondieresis" unicode="&#x3cb;" 
d="M256 1024h256v-674l182 -145h404l182 145v324l-256 205v145h182l330 -264v-496l-330 -264h-620l-330 264v760zM512 1229v205h256v-205h-256zM1024 1229v205h256v-205h-256z" />
    <glyph glyph-name="omicrontonos" unicode="&#x3cc;" 
d="M256 760l330 264h620l330 -264v-496l-330 -264h-620l-330 264v496zM694 819l-182 -145v-324l182 -145h404l182 145v324l-182 145h-404zM768 1229v205h256v-205h-256z" />
    <glyph glyph-name="upsilontonos" unicode="&#x3cd;" 
d="M256 1024h256v-674l182 -145h404l182 145v324l-256 205v145h182l330 -264v-496l-330 -264h-620l-330 264v760zM768 1229v205h256v-205h-256z" />
    <glyph glyph-name="omegatonos" unicode="&#x3ce;" 
d="M256 760l330 264h182v-145l-256 -205v-324l128 -102l128 102v264h256v-264l128 -102l128 102v324l-256 205v145h182l330 -264v-496l-330 -264h-108l-202 162l-202 -162h-108l-330 264v496zM768 1229v205h256v-205h-256z" />
    <glyph glyph-name="phi1" unicode="&#x3d5;" 
d="M256 760l330 264h182v410h256v-410h182l330 -264v-496l-330 -264h-182v-410h-256v410h-182l-330 264v496zM694 819l-182 -145v-324l182 -145h74v614h-74zM1024 819v-614h74l182 145v324l-182 145h-74z" />
    <glyph glyph-name="uni03F3" unicode="&#x3f3;" 
d="M768 -59v1083h256v-1169l-330 -265h-182v146zM768 1229v205h256v-205h-256z" />
    <glyph glyph-name="uni0400" unicode="&#x400;" 
d="M256 1024h512v59l-256 205v146h182l330 -265v-145h512v-205h-1024v-205h768v-204h-768v-205h1024v-205h-1280v1024z" />
    <glyph glyph-name="uni0401" unicode="&#x401;" 
d="M256 1024h1280v-205h-1024v-205h768v-204h-768v-205h1024v-205h-1280v1024zM512 1229v205h256v-205h-256zM1024 1229v205h256v-205h-256z" />
    <glyph glyph-name="uni0402" unicode="&#x402;" 
d="M256 1229v205h1024v-205h-512v-410h438l330 -264v-700l-330 -265h-182v146l256 205v528l-182 145h-330v-614h-256v1229h-256z" />
    <glyph glyph-name="uni0404" unicode="&#x404;" 
d="M256 965l586 469h364l330 -265v-145h-182l-256 205h-148l-438 -350v-60h512v-205h-512v-59l438 -350h148l256 205h182v-146l-330 -264h-364l-586 469v496z" />
    <glyph glyph-name="uni0405" unicode="&#x405;" 
d="M256 1169l330 265h620l330 -265v-145h-182l-256 205h-404l-182 -146v-118l182 -146h512l330 -264v-291l-330 -264h-620l-330 264v146h182l256 -205h404l182 145v119l-182 145h-512l-330 265v290z" />
    <glyph glyph-name="uni0406" unicode="&#x406;" 
d="M512 1229v205h768v-205h-256v-1024h256v-205h-768v205h256v1024h-256z" />
    <glyph glyph-name="uni0407" unicode="&#x407;" 
d="M512 1229v205h256v-205h-256zM512 819v205h768v-205h-256v-614h256v-205h-768v205h256v614h-256zM1024 1229v205h256v-205h-256z" />
    <glyph glyph-name="uni0408" unicode="&#x408;" 
d="M256 264v146h182l256 -205h404l182 145v1084h256v-1170l-330 -264h-620z" />
    <glyph glyph-name="uni0409" unicode="&#x409;" 
d="M256 1169l330 265h438v-615h512v-819h-768v1229h-74l-182 -146v-1083h-256v1169zM1024 614v-409h256v409h-256z" />
    <glyph glyph-name="uni040A" unicode="&#x40a;" 
d="M256 1434h256v-615h256v615h256v-615h512v-819h-768v614h-256v-614h-256v1434zM1024 614v-409h256v409h-256z" />
    <glyph glyph-name="uni040B" unicode="&#x40b;" 
d="M256 1229v205h1024v-205h-512v-410h438l330 -264v-555h-256v469l-182 145h-330v-614h-256v1229h-256z" />
    <glyph glyph-name="uni040E" unicode="&#x40e;" 
d="M256 1434h256v-615h768v615h256v-1434h-1280v205h1024v409h-1024v820zM768 1229v205h256v-205h-256z" />
    <glyph glyph-name="uni040F" unicode="&#x40f;" 
d="M256 1434h256v-1229h768v1229h256v-1434h-512v-205h-256v205h-512v1434z" />
    <glyph glyph-name="uni0410" unicode="&#x410;" 
d="M256 1169l330 265h620l330 -265v-1169h-256v410h-768v-410h-256v1169zM694 1229l-182 -146v-469h768v469l-182 146h-404z" />
    <glyph glyph-name="uni0411" unicode="&#x411;" 
d="M256 1434h1280v-205h-1024v-410h1024v-819h-1280v1434zM512 614v-409h768v409h-768z" />
    <glyph glyph-name="uni0412" unicode="&#x412;" 
d="M256 1434h950l330 -265v-290l-202 -162l202 -162v-291l-330 -264h-950v1434zM512 1229v-410h586l182 146v118l-182 146h-586zM512 614v-409h586l182 145v119l-182 145h-586z" />
    <glyph glyph-name="uni0413" unicode="&#x413;" 
d="M256 1434h1280v-205h-1024v-1229h-256v1434z" />
    <glyph glyph-name="uni0414" unicode="&#x414;" 
d="M256 205h256v964l330 265h438v-1229h256v-410h-256v205h-768v-205h-256v410zM768 205h256v1024h-74l-182 -146v-878z" />
    <glyph glyph-name="uni0415" unicode="&#x415;" 
d="M256 1434h1280v-205h-1024v-410h768v-205h-768v-409h1024v-205h-1280v1434z" />
    <glyph glyph-name="uni0416" unicode="&#x416;" 
d="M256 1434h256v-469l182 -146h74v615h256v-615h74l182 146v469h256v-555l-202 -162l202 -162v-555h-256v469l-182 145h-74v-614h-256v614h-74l-182 -145v-469h-256v555l202 162l-202 162v555z" />
    <glyph glyph-name="uni0417" unicode="&#x417;" 
d="M256 1024v145l330 265h620l330 -265v-290l-202 -162l202 -162v-291l-330 -264h-620l-330 264v146h182l256 -205h404l182 145v119l-182 145h-330v205h330l182 146v118l-182 146h-404l-256 -205h-182z" />
    <glyph glyph-name="uni0418" unicode="&#x418;" 
d="M256 1434h256v-820h74l512 410h182v410h256v-1434h-256v819h-74l-512 -409h-182v-410h-256v1434z" />
    <glyph glyph-name="uni0419" unicode="&#x419;" 
d="M256 1434h256v-820h74l512 410h182v410h256v-1434h-256v819h-74l-512 -409h-182v-410h-256v1434zM768 1229v205h256v-205h-256z" />
    <glyph glyph-name="uni041A" unicode="&#x41a;" 
d="M256 1434h256v-615h74l768 615h182v-146l-714 -571l714 -572v-145h-182l-768 614h-74v-614h-256v1434z" />
    <glyph glyph-name="uni041B" unicode="&#x41b;" 
d="M256 0v205h256v964l330 265h694v-1434h-256v1229h-330l-182 -146v-1083h-512z" />
    <glyph glyph-name="uni041C" unicode="&#x41c;" 
d="M256 1434h256v-205h182l202 -162l202 162h182v205h256v-1434h-256v1024h-74l-182 -145v-265h-256v265l-182 145h-74v-1024h-256v1434z" />
    <glyph glyph-name="uni041D" unicode="&#x41d;" 
d="M256 1434h256v-615h768v615h256v-1434h-256v614h-768v-614h-256v1434z" />
    <glyph glyph-name="uni041E" unicode="&#x41e;" 
d="M256 1169l330 265h620l330 -265v-905l-330 -264h-620l-330 264v905zM694 1229l-182 -146v-733l182 -145h404l182 145v733l-182 146h-404z" />
    <glyph glyph-name="uni041F" unicode="&#x41f;" 
d="M256 1434h1280v-1434h-256v1229h-768v-1229h-256v1434z" />
    <glyph glyph-name="uni0420" unicode="&#x420;" 
d="M256 1434h950l330 -265v-290l-330 -265h-694v-614h-256v1434zM512 1229v-410h586l182 146v118l-182 146h-586z" />
    <glyph glyph-name="uni0421" unicode="&#x421;" 
d="M256 1169l330 265h620l330 -265v-145h-182l-256 205h-404l-182 -146v-733l182 -145h404l256 205h182v-146l-330 -264h-620l-330 264v905z" />
    <glyph glyph-name="uni0422" unicode="&#x422;" 
d="M256 1229v205h1280v-205h-512v-1229h-256v1229h-512z" />
    <glyph glyph-name="uni0423" unicode="&#x423;" 
d="M256 1434h256v-615h768v615h256v-1434h-1280v205h1024v409h-1024v820z" />
    <glyph glyph-name="uni0424" unicode="&#x424;" 
d="M256 1229h512v205h256v-205h512v-1024h-512v-205h-256v205h-512v1024zM512 1024v-614h256v614h-256zM1024 1024v-614h256v614h-256z" />
    <glyph glyph-name="uni0425" unicode="&#x425;" 
d="M256 1434h256v-265l384 -307l384 307v265h256v-351l-458 -366l458 -367v-350h-256v264l-384 307l-384 -307v-264h-256v350l458 367l-458 366v351z" />
    <glyph glyph-name="uni0426" unicode="&#x426;" 
d="M256 1434h256v-1229h512v1229h256v-1229h256v-410h-256v205h-1024v1434z" />
    <glyph glyph-name="uni0427" unicode="&#x427;" 
d="M256 1434h256v-615h768v615h256v-1434h-256v614h-1024v820z" />
    <glyph glyph-name="uni0428" unicode="&#x428;" 
d="M256 1434h256v-1229h256v1229h256v-1229h256v1229h256v-1434h-1280v1434z" />
    <glyph glyph-name="uni0429" unicode="&#x429;" 
d="M256 1434h256v-1229h256v1229h256v-1229h256v1229h256v-1639h-256v205h-1024v1434z" />
    <glyph glyph-name="uni042A" unicode="&#x42a;" 
d="M256 1229v205h512v-615h768v-819h-1024v1229h-256zM768 614v-409h512v409h-512z" />
    <glyph glyph-name="uni042B" unicode="&#x42b;" 
d="M256 1434h256v-615h512v-819h-768v1434zM512 614v-409h256v409h-256zM1280 1434h256v-1434h-256v1434z" />
    <glyph glyph-name="uni042C" unicode="&#x42c;" 
d="M256 1434h256v-615h1024v-819h-1280v1434zM512 614v-409h768v409h-768z" />
    <glyph glyph-name="uni042D" unicode="&#x42d;" 
d="M256 1024v145l330 265h364l586 -469v-496l-586 -469h-364l-330 264v146h182l256 -205h148l438 350v59h-512v205h512v60l-438 350h-148l-256 -205h-182z" />
    <glyph glyph-name="uni042E" unicode="&#x42e;" 
d="M256 1434h256v-615h256v350l330 265h108l330 -265v-905l-330 -264h-108l-330 264v350h-256v-614h-256v1434zM1024 1083v-733l128 -102l128 102v733l-128 103z" />
    <glyph glyph-name="uni042F" unicode="&#x42f;" 
d="M256 1169l330 265h950v-1434h-256v614h-256v-145l-586 -469h-182v145l512 410v59h-182l-330 265v290zM694 1229l-182 -146v-118l182 -146h586v410h-586z" />
    <glyph glyph-name="uni0430" unicode="&#x430;" 
d="M256 264v86l330 264h694v60l-182 145h-586v205h694l330 -264v-760h-950zM694 205h586v205h-586l-128 -103z" />
    <glyph glyph-name="uni0431" unicode="&#x431;" 
d="M256 1169l330 265h694v-205h-586l-182 -146v-59h694l330 -264v-496l-330 -264h-950v1169zM512 819v-614h586l182 145v324l-182 145h-586z" />
    <glyph glyph-name="uni0432" unicode="&#x432;" 
d="M256 1024h950l330 -264v-86l-202 -162l202 -162v-86l-330 -264h-950v1024zM512 819v-205h586l128 103l-128 102h-586zM512 410v-205h586l128 102l-128 103h-586z" />
    <glyph glyph-name="uni0433" unicode="&#x433;" 
d="M256 1024h1280v-205h-1024v-819h-256v1024z" />
    <glyph glyph-name="uni0434" unicode="&#x434;" 
d="M256 205h256v555l330 264h438v-819h256v-410h-256v205h-768v-205h-256v410zM768 205h256v614h-74l-182 -145v-469z" />
    <glyph glyph-name="uni0435" unicode="&#x435;" 
d="M256 760l330 264h620l330 -264v-350h-1024v-60l182 -145h586v-205h-694l-330 264v496zM694 819l-182 -145v-60h768v60l-182 145h-404z" />
    <glyph glyph-name="uni0436" unicode="&#x436;" 
d="M256 1024h256v-264l182 -146h74v410h256v-410h74l182 146v264h256v-350l-202 -162l202 -162v-350h-256v264l-182 146h-74v-410h-256v410h-74l-182 -146v-264h-256v350l202 162l-202 162v350z" />
    <glyph glyph-name="uni0437" unicode="&#x437;" 
d="M256 614v146l330 264h620l330 -264v-86l-202 -162l202 -162v-86l-330 -264h-620l-330 264v146h182l256 -205h404l128 102l-128 103h-330v204h330l128 103l-128 102h-404l-256 -205h-182z" />
    <glyph glyph-name="uni0438" unicode="&#x438;" 
d="M256 1024h256v-614h74l512 409h182v205h256v-1024h-256v614h-74l-512 -409h-182v-205h-256v1024z" />
    <glyph glyph-name="uni0439" unicode="&#x439;" 
d="M256 1024h256v-614h74l512 409h182v205h256v-1024h-256v614h-74l-512 -409h-182v-205h-256v1024zM768 1024v205h256v-205h-256z" />
    <glyph glyph-name="uni043A" unicode="&#x43a;" 
d="M256 1024h256v-410h330l512 410h182v-145l-458 -367l458 -367v-145h-182l-512 410h-330v-410h-256v1024z" />
    <glyph glyph-name="uni043B" unicode="&#x43b;" 
d="M256 0v205h256v555l330 264h694v-1024h-256v819h-330l-182 -145v-674h-512z" />
    <glyph glyph-name="uni043C" unicode="&#x43c;" 
d="M256 1024h256v-205h182l202 -162l202 162h182v205h256v-1024h-256v614h-74l-256 -204h-108l-256 204h-74v-614h-256v1024z" />
    <glyph glyph-name="uni043D" unicode="&#x43d;" 
d="M256 1024h256v-410h768v410h256v-1024h-256v410h-768v-410h-256v1024z" />
    <glyph glyph-name="uni043E" unicode="&#x43e;" 
d="M256 760l330 264h620l330 -264v-496l-330 -264h-620l-330 264v496zM694 819l-182 -145v-324l182 -145h404l182 145v324l-182 145h-404z" />
    <glyph glyph-name="uni043F" unicode="&#x43f;" 
d="M256 1024h1280v-1024h-256v819h-768v-819h-256v1024z" />
    <glyph glyph-name="uni0440" unicode="&#x440;" 
d="M256 1024h950l330 -264v-496l-330 -264h-694v-410h-256v1434zM512 819v-614h586l182 145v324l-182 145h-586z" />
    <glyph glyph-name="uni0441" unicode="&#x441;" 
d="M256 760l330 264h620l330 -264v-146h-182l-256 205h-404l-182 -145v-324l182 -145h404l256 205h182v-146l-330 -264h-620l-330 264v496z" />
    <glyph glyph-name="uni0442" unicode="&#x442;" 
d="M256 819v205h1280v-205h-512v-819h-256v819h-512z" />
    <glyph glyph-name="uni0443" unicode="&#x443;" 
d="M256 1024h256v-674l182 -145h586v819h256v-1169l-330 -265h-694v205h586l182 146v59h-694l-330 264v760z" />
    <glyph glyph-name="uni0444" unicode="&#x444;" 
d="M256 760l330 264h182v205h256v-205h182l330 -264v-496l-330 -264h-182v-205h-256v205h-182l-330 264v496zM694 819l-182 -145v-324l182 -145h74v614h-74zM1024 819v-614h74l182 145v324l-182 145h-74z" />
    <glyph glyph-name="uni0445" unicode="&#x445;" 
d="M256 879v145h182l458 -367l458 367h182v-145l-458 -367l458 -367v-145h-182l-458 367l-458 -367h-182v145l458 367z" />
    <glyph glyph-name="uni0446" unicode="&#x446;" 
d="M256 1024h256v-819h512v819h256v-819h256v-410h-256v205h-1024v1024z" />
    <glyph glyph-name="uni0447" unicode="&#x447;" 
d="M256 1024h256v-469l182 -145h586v614h256v-1024h-256v205h-694l-330 264v555z" />
    <glyph glyph-name="uni0448" unicode="&#x448;" 
d="M256 1024h256v-819h256v819h256v-819h256v819h256v-1024h-1280v1024z" />
    <glyph glyph-name="uni0449" unicode="&#x449;" 
d="M256 1024h256v-819h256v819h256v-819h256v819h256v-1229h-256v205h-1024v1024z" />
    <glyph glyph-name="uni044A" unicode="&#x44a;" 
d="M256 819v205h512v-410h438l330 -264v-86l-330 -264h-694v819h-256zM768 410v-205h330l128 102l-128 103h-330z" />
    <glyph glyph-name="uni044B" unicode="&#x44b;" 
d="M256 1024h256v-410h512v-614h-768v1024zM512 410v-205h256v205h-256zM1280 1024h256v-1024h-256v1024z" />
    <glyph glyph-name="uni044C" unicode="&#x44c;" 
d="M256 1024h256v-410h694l330 -264v-86l-330 -264h-950v1024zM512 410v-205h586l128 102l-128 103h-586z" />
    <glyph glyph-name="uni044D" unicode="&#x44d;" 
d="M256 614v146l330 264h364l330 -264v-496l-330 -264h-364l-330 264v146h182l256 -205h148l182 145v60h-256v204h256v60l-182 145h-148l-256 -205h-182z" />
    <glyph glyph-name="uni044E" unicode="&#x44e;" 
d="M256 1024h256v-410h256v146l330 264h108l330 -264v-496l-330 -264h-108l-330 264v146h-256v-410h-256v1024zM1024 674v-324l128 -102l128 102v324l-128 102z" />
    <glyph glyph-name="uni044F" unicode="&#x44f;" 
d="M256 674v86l330 264h950v-1024h-256v410h-256v-146l-330 -264h-438v205h330l182 145v60h-182zM694 614h586v205h-586l-128 -102z" />
    <glyph glyph-name="uni0450" unicode="&#x450;" 
d="M256 760l330 264h182v59l-256 205v146h182l330 -265v-145h182l330 -264v-350h-1024v-60l182 -145h586v-205h-694l-330 264v496zM694 819l-182 -145v-60h768v60l-182 145h-404z" />
    <glyph glyph-name="uni0451" unicode="&#x451;" 
d="M256 760l330 264h620l330 -264v-350h-1024v-60l182 -145h586v-205h-694l-330 264v496zM512 1229v205h256v-205h-256zM694 819l-182 -145v-60h768v60l-182 145h-404zM1024 1229v205h256v-205h-256z" />
    <glyph glyph-name="uni0452" unicode="&#x452;" 
d="M256 1024v205h256v205h256v-205h512v-205h-512v-205h438l330 -264v-700l-330 -265h-182v146l256 205v528l-182 145h-330v-614h-256v1024h-256z" />
    <glyph glyph-name="uni0454" unicode="&#x454;" 
d="M256 760l330 264h364l330 -264v-146h-182l-256 205h-148l-182 -145v-60h256v-204h-256v-60l182 -145h148l256 205h182v-146l-330 -264h-364l-330 264v496z" />
    <glyph glyph-name="uni0455" unicode="&#x455;" 
d="M256 674v86l330 264h950v-205h-842l-128 -102l128 -103h512l330 -264v-86l-330 -264h-950v205h842l128 102l-128 103h-512z" />
    <glyph glyph-name="uni0456" unicode="&#x456;" 
d="M512 819v205h512v-819h256v-205h-768v205h256v614h-256zM768 1229v205h256v-205h-256z" />
    <glyph glyph-name="uni0457" unicode="&#x457;" 
d="M512 1229v205h256v-205h-256zM512 819v205h512v-819h256v-205h-768v205h256v614h-256zM1024 1229v205h256v-205h-256z" />
    <glyph glyph-name="uni0458" unicode="&#x458;" 
d="M768 -59v1083h256v-1169l-330 -265h-182v146zM768 1229v205h256v-205h-256z" />
    <glyph glyph-name="uni0459" unicode="&#x459;" 
d="M256 760l330 264h438v-410h182l330 -264v-86l-330 -264h-438v819h-74l-182 -145v-674h-256v760zM1024 410v-205h74l128 102l-128 103h-74z" />
    <glyph glyph-name="uni045A" unicode="&#x45a;" 
d="M256 1024h256v-410h256v410h256v-410h182l330 -264v-86l-330 -264h-438v410h-256v-410h-256v1024zM1024 410v-205h74l128 102l-128 103h-74z" />
    <glyph glyph-name="uni045B" unicode="&#x45b;" 
d="M256 1024v205h256v205h256v-205h512v-205h-512v-205h438l330 -264v-555h-256v469l-182 145h-330v-614h-256v1024h-256z" />
    <glyph glyph-name="uni045E" unicode="&#x45e;" 
d="M256 1024h256v-674l182 -145h586v819h256v-1169l-330 -265h-694v205h586l182 146v59h-694l-330 264v760zM768 1024v205h256v-205h-256z" />
    <glyph glyph-name="uni045F" unicode="&#x45f;" 
d="M256 1024h256v-819h768v819h256v-1024h-512v-205h-256v205h-512v1024z" />
    <glyph glyph-name="uni0490" unicode="&#x490;" 
d="M256 1229h1024v205h256v-410h-1024v-1024h-256v1229z" />
    <glyph glyph-name="uni0491" unicode="&#x491;" 
d="M256 1024h1024v205h256v-410h-1024v-819h-256v1024z" />
    <glyph glyph-name="uni0492" unicode="&#x492;" 
d="M256 614v205h256v615h1024v-205h-768v-410h512v-205h-512v-614h-256v614h-256z" />
    <glyph glyph-name="uni0493" unicode="&#x493;" 
d="M256 410v204h256v410h1024v-205h-768v-205h512v-204h-512v-410h-256v410h-256z" />
    <glyph glyph-name="uni05D0" unicode="&#x5d0;" 
d="M256 1083v146h182l714 -572l128 103v469h256v-555l-202 -162l202 -162v-350h-256v264l-640 512l-128 -102v-674h-256v760l202 162z" />
    <glyph glyph-name="uni05D1" unicode="&#x5d1;" 
d="M256 0v205h768v819h-512v205h768v-1024h256v-205h-1280z" />
    <glyph glyph-name="uni05D2" unicode="&#x5d2;" 
d="M512 0v145l586 469h182v410h-256v205h512v-1229h-256v410h-74l-512 -410h-182z" />
    <glyph glyph-name="uni05D3" unicode="&#x5d3;" 
d="M256 1024v205h1280v-205h-256v-1024h-256v1024h-768z" />
    <glyph glyph-name="uni05D4" unicode="&#x5d4;" 
d="M256 1024v205h1280v-1229h-256v1024h-1024zM256 614h256v-614h-256v614z" />
    <glyph glyph-name="uni05D5" unicode="&#x5d5;" 
d="M512 1024v205h512v-1229h-256v1024h-256z" />
    <glyph glyph-name="uni05D6" unicode="&#x5d6;" 
d="M512 1024v205h768v-205h-256v-145l-202 -162l202 -162v-555h-256v469l-256 205v86l256 205v59h-256z" />
    <glyph glyph-name="uni05D7" unicode="&#x5d7;" 
d="M256 1229h1280v-1229h-256v1024h-768v-1024h-256v1229z" />
    <glyph glyph-name="uni05D8" unicode="&#x5d8;" 
d="M256 1229h256v-1024h768v614h-74l-256 -205h-182v146l330 264h182v205h256v-1229h-1280v1229z" />
    <glyph glyph-name="uni05D9" unicode="&#x5d9;" 
d="M512 1024v205h512v-410h-256v205h-256z" />
    <glyph glyph-name="uni05DA" unicode="&#x5da;" 
d="M256 1024v205h1280v-1434h-256v1229h-1024z" />
    <glyph glyph-name="uni05DB" unicode="&#x5db;" 
d="M256 1024v205h1280v-1229h-1280v205h1024v819h-1024z" />
    <glyph glyph-name="uni05DC" unicode="&#x5dc;" 
d="M256 1434h256v-205h1024v-760l-586 -469h-438v205h330l438 350v469h-1024v410z" />
    <glyph glyph-name="uni05DD" unicode="&#x5dd;" 
d="M256 1229h1280v-1229h-1280v1229zM512 1024v-819h768v819h-768z" />
    <glyph glyph-name="uni05DE" unicode="&#x5de;" 
d="M256 1083v146h182l202 -162l202 162h364l330 -264v-965h-768v205h512v674l-182 145h-148l-438 -350v-674h-256v760l202 162z" />
    <glyph glyph-name="uni05DF" unicode="&#x5df;" 
d="M512 1024v205h512v-1639h-256v1434h-256z" />
    <glyph glyph-name="uni05E0" unicode="&#x5e0;" 
d="M512 0v205h512v819h-256v205h512v-1229h-768z" />
    <glyph glyph-name="uni05E1" unicode="&#x5e1;" 
d="M256 1024v205h1280v-965l-330 -264h-620l-330 264v496l256 205v59h-256zM768 1024v-145l-256 -205v-324l182 -145h404l182 145v674h-512z" />
    <glyph glyph-name="uni05E2" unicode="&#x5e2;" 
d="M256 0v205h256v1024h256v-1024h74l438 350v674h256v-760l-586 -469h-694z" />
    <glyph glyph-name="uni05E3" unicode="&#x5e3;" 
d="M256 1024v205h1280v-1434h-256v1229h-512v-205h256v-205h-512v410h-256z" />
    <glyph glyph-name="uni05E4" unicode="&#x5e4;" 
d="M256 1024v205h1280v-1229h-1280v205h1024v819h-512v-205h256v-205h-512v410h-256z" />
    <glyph glyph-name="uni05E5" unicode="&#x5e5;" 
d="M256 1024v205h512v-410h74l512 410h182v-146l-586 -469h-182v-819h-256v1229h-256z" />
    <glyph glyph-name="uni05E6" unicode="&#x5e6;" 
d="M256 1229h256v-264l384 -308l384 308v264h256v-350l-458 -367l202 -162v-145h256v-205h-1280v205h768v59l-768 615v350z" />
    <glyph glyph-name="uni05E7" unicode="&#x5e7;" 
d="M256 1024v205h1280v-760l-330 -264h-182v145l256 205v469h-1024zM512 819h256v-1024h-256v1024z" />
    <glyph glyph-name="uni05E8" unicode="&#x5e8;" 
d="M256 1024v205h1280v-1229h-256v1024h-1024z" />
    <glyph glyph-name="uni05E9" unicode="&#x5e9;" 
d="M256 1229h256v-615h74l182 146v469h256v-555l-330 -264h-182v-205h586l182 145v879h256v-965l-330 -264h-950v1229z" />
    <glyph glyph-name="uni05EA" unicode="&#x5ea;" 
d="M256 0v205h256v1024h1024v-1229h-256v1024h-512v-1024h-512z" />
    <glyph glyph-name="uni1D00" unicode="&#x1d00;" 
d="M256 760l330 264h620l330 -264v-760h-256v410h-768v-410h-256v760zM694 819l-182 -145v-60h768v60l-182 145h-404z" />
    <glyph glyph-name="uni1D01" unicode="&#x1d01;" 
d="M256 760l330 264h950v-205h-512v-205h256v-204h-256v-205h512v-205h-768v205h-256v-205h-256v760zM694 819l-182 -145v-264h256v409h-74z" />
    <glyph glyph-name="uni1D02" unicode="&#x1d02;" 
d="M256 614h512v205h-256v205h694l330 -264v-86l-330 -264h-182v-60l256 -205v-145h-182l-202 162l-202 -162h-108l-330 264v350zM512 410v-60l128 -102l128 102v60h-256zM1024 819v-205h74l128 103l-128 102h-74z" />
    <glyph glyph-name="uni1D04" unicode="&#x1d04;" 
d="M256 760l330 264h620l330 -264v-146h-182l-256 205h-404l-182 -145v-324l182 -145h404l256 205h182v-146l-330 -264h-620l-330 264v496z" />
    <glyph glyph-name="uni1D05" unicode="&#x1d05;" 
d="M256 1024h950l330 -264v-496l-330 -264h-950v1024zM512 819v-614h586l182 145v324l-182 145h-586z" />
    <glyph glyph-name="uni1D06" unicode="&#x1d06;" 
d="M256 410v204h256v410h694l330 -264v-496l-330 -264h-694v410h-256zM768 819v-205h256v-204h-256v-205h330l182 145v324l-182 145h-330z" />
    <glyph glyph-name="uni1D07" unicode="&#x1d07;" 
d="M256 1024h1280v-205h-1024v-205h768v-204h-768v-205h1024v-205h-1280v1024z" />
    <glyph glyph-name="uni1D09" unicode="&#x1d09;" 
d="M512 819v205h768v-205h-256v-614h256v-205h-512v819h-256zM768 -410v205h256v-205h-256z" />
    <glyph glyph-name="uni1D0A" unicode="&#x1d0a;" 
d="M256 264v146h182l256 -205h404l182 145v674h256v-760l-330 -264h-620z" />
    <glyph glyph-name="uni1D0B" unicode="&#x1d0b;" 
d="M256 1024h256v-410h330l512 410h182v-145l-458 -367l458 -367v-145h-182l-512 410h-330v-410h-256v1024z" />
    <glyph glyph-name="uni1D0D" unicode="&#x1d0d;" 
d="M256 1024h256v-205h182l202 -162l202 162h182v205h256v-1024h-256v614h-74l-256 -204h-108l-256 204h-74v-614h-256v1024z" />
    <glyph glyph-name="uni1D0E" unicode="&#x1d0e;" 
d="M256 1024h256v-614h74l512 409h182v205h256v-1024h-256v614h-74l-512 -409h-182v-205h-256v1024z" />
    <glyph glyph-name="uni1D0F" unicode="&#x1d0f;" 
d="M256 760l330 264h620l330 -264v-496l-330 -264h-620l-330 264v496zM694 819l-182 -145v-324l182 -145h404l182 145v324l-182 145h-404z" />
    <glyph glyph-name="uni1D14" unicode="&#x1d14;" 
d="M256 819v205h438l202 -162l202 162h108l330 -264v-496l-330 -264h-108l-202 162l-202 -162h-108l-330 264v350h512v60l-182 145h-330zM512 410v-60l128 -102l128 102v60h-256zM1024 674v-324l128 -102l128 102v324l-128 102z" />
    <glyph glyph-name="uni1D18" unicode="&#x1d18;" 
d="M256 1024h950l330 -264v-86l-330 -264h-694v-410h-256v1024zM512 819v-205h586l128 103l-128 102h-586z" />
    <glyph glyph-name="uni1D19" unicode="&#x1d19;" 
d="M256 674v86l330 264h950v-1024h-256v410h-512v-146l-330 -264h-182v145l256 205v119zM694 614h586v205h-586l-128 -102z" />
    <glyph glyph-name="uni1D1A" unicode="&#x1d1a;" 
d="M256 879v145h182l330 -264v-146h512v410h256v-1024h-950l-330 264v86l256 205v119zM694 205h586v205h-586l-128 -103z" />
    <glyph glyph-name="uni1D1B" unicode="&#x1d1b;" 
d="M256 819v205h1280v-205h-512v-819h-256v819h-512z" />
    <glyph glyph-name="uni1D1C" unicode="&#x1d1c;" 
d="M256 1024h256v-674l182 -145h404l182 145v674h256v-760l-330 -264h-620l-330 264v760z" />
    <glyph glyph-name="uni1D1D" unicode="&#x1d1d;" 
d="M256 819v205h1280v-760l-330 -264h-950v205h842l182 145v469h-1024z" />
    <glyph glyph-name="uni1D1F" unicode="&#x1d1f;" 
d="M256 819v205h1280v-350l-202 -162l202 -162v-86l-330 -264h-950v205h842l128 102l-128 103h-842v204h842l182 146v59h-1024z" />
    <glyph glyph-name="uni1D20" unicode="&#x1d20;" 
d="M256 1024h256v-264l256 -205v-205l128 -102l128 102v205l256 205v264h256v-350l-256 -205v-205l-330 -264h-108l-330 264v205l-256 205v350z" />
    <glyph glyph-name="uni1D21" unicode="&#x1d21;" 
d="M256 1024h256v-674l128 -102l128 102v264h256v-264l128 -102l128 102v674h256v-760l-330 -264h-108l-202 162l-202 -162h-108l-330 264v760z" />
    <glyph glyph-name="uni1D22" unicode="&#x1d22;" 
d="M256 819v205h1280v-350l-330 -264h-512l-182 -146v-59h1024v-205h-1280v350l330 264h512l182 146v59h-1024z" />
    <glyph glyph-name="uni1D4A" unicode="&#x1d4a;" 
d="M256 1229v205h438l330 -265v-495l-330 -264h-108l-330 264v350h512v59l-182 146h-330zM512 819v-59l128 -103l128 103v59h-256z" />
    <glyph glyph-name="uni1D62" unicode="&#x1d62;" 
d="M512 0v205h512v-410h256v-205h-768v205h256v205h-256zM768 410v204h256v-204h-256z" />
    <glyph glyph-name="uni1DBF" unicode="&#x1dbf;" 
d="M256 1169l330 265h108l330 -265v-495l-330 -264h-108l-330 264v495zM512 1083v-59h256v59l-128 103zM512 819v-59l128 -103l128 103v59h-256z" />
    <glyph glyph-name="uni1E02" unicode="&#x1e02;" 
d="M256 1024h950l330 -264v-86l-202 -162l202 -162v-86l-330 -264h-950v1024zM512 819v-205h586l128 103l-128 102h-586zM512 410v-205h586l128 102l-128 103h-586zM768 1229v205h256v-205h-256z" />
    <glyph glyph-name="uni1E03" unicode="&#x1e03;" 
d="M256 1434h256v-410h694l330 -264v-496l-330 -264h-950v1434zM512 819v-614h586l182 145v324l-182 145h-586zM768 1229v205h256v-205h-256z" />
    <glyph glyph-name="uni1E04" unicode="&#x1e04;" 
d="M256 1434h950l330 -265v-290l-202 -162l202 -162v-291l-330 -264h-950v1434zM512 1229v-410h586l182 146v118l-182 146h-586zM512 614v-409h586l182 145v119l-182 145h-586zM768 -410v205h256v-205h-256z" />
    <glyph glyph-name="uni1E05" unicode="&#x1e05;" 
d="M256 1434h256v-410h694l330 -264v-496l-330 -264h-950v1434zM512 819v-614h586l182 145v324l-182 145h-586zM768 -410v205h256v-205h-256z" />
    <glyph glyph-name="uni1E06" unicode="&#x1e06;" 
d="M256 1434h950l330 -265v-290l-202 -162l202 -162v-291l-330 -264h-950v1434zM512 1229v-410h586l182 146v118l-182 146h-586zM512 614v-409h586l182 145v119l-182 145h-586zM512 -410v205h768v-205h-768z" />
    <glyph glyph-name="uni1E07" unicode="&#x1e07;" 
d="M256 1434h256v-410h694l330 -264v-496l-330 -264h-950v1434zM512 819v-614h586l182 145v324l-182 145h-586zM512 -410v205h768v-205h-768z" />
    <glyph glyph-name="uni1E08" unicode="&#x1e08;" 
d="M256 760l330 264h182v145l330 265h182v-146l-256 -205v-59h182l330 -264v-146h-182l-256 205h-404l-182 -145v-324l182 -145h404l256 205h182v-146l-330 -264h-182v-145l-330 -265h-182v146l256 205v59h-182l-330 264v496z" />
    <glyph glyph-name="uni1E09" unicode="&#x1e09;" 
d="M256 760l330 264h182v145l330 265h182v-146l-256 -205v-59h512v-205h-842l-182 -145v-324l182 -145h842v-205h-512v-145l-330 -265h-182v146l256 205v59h-182l-330 264v496z" />
    <glyph glyph-name="uni1E0A" unicode="&#x1e0a;" 
d="M256 1024h950l330 -264v-496l-330 -264h-950v1024zM512 819v-614h586l182 145v324l-182 145h-586zM768 1229v205h256v-205h-256z" />
    <glyph glyph-name="uni1E0B" unicode="&#x1e0b;" 
d="M256 760l330 264h694v410h256v-1434h-950l-330 264v496zM694 819l-182 -145v-324l182 -145h586v614h-586zM768 1229v205h256v-205h-256z" />
    <glyph glyph-name="uni1E0C" unicode="&#x1e0c;" 
d="M256 1434h950l330 -265v-905l-330 -264h-950v1434zM512 1229v-1024h586l182 145v733l-182 146h-586zM768 -410v205h256v-205h-256z" />
    <glyph glyph-name="uni1E0D" unicode="&#x1e0d;" 
d="M256 760l330 264h694v410h256v-1434h-950l-330 264v496zM694 819l-182 -145v-324l182 -145h586v614h-586zM768 -410v205h256v-205h-256z" />
    <glyph glyph-name="uni1E0E" unicode="&#x1e0e;" 
d="M256 1434h950l330 -265v-905l-330 -264h-950v1434zM512 1229v-1024h586l182 145v733l-182 146h-586zM512 -410v205h768v-205h-768z" />
    <glyph glyph-name="uni1E0F" unicode="&#x1e0f;" 
d="M256 760l330 264h694v410h256v-1434h-950l-330 264v496zM694 819l-182 -145v-324l182 -145h586v614h-586zM512 -410v205h768v-205h-768z" />
    <glyph glyph-name="uni1E10" unicode="&#x1e10;" 
d="M256 1434h950l330 -265v-905l-330 -264h-182v-145l-330 -265h-182v146l256 205v59h-512v1434zM512 1229v-1024h586l182 145v733l-182 146h-586z" />
    <glyph glyph-name="uni1E11" unicode="&#x1e11;" 
d="M256 760l330 264h694v410h256v-1434h-512v-145l-330 -265h-182v146l256 205v59h-182l-330 264v496zM694 819l-182 -145v-324l182 -145h586v614h-586z" />
    <glyph glyph-name="uni1E12" unicode="&#x1e12;" 
d="M256 1434h950l330 -265v-905l-330 -264h-182v-59l256 -205v-146h-182l-202 162l-202 -162h-182v146l256 205v59h-512v1434zM512 1229v-1024h586l182 145v733l-182 146h-586z" />
    <glyph glyph-name="uni1E13" unicode="&#x1e13;" 
d="M256 760l330 264h694v410h256v-1434h-512v-59l256 -205v-146h-182l-202 162l-202 -162h-182v146l256 205v59h-182l-330 264v496zM694 819l-182 -145v-324l182 -145h586v614h-586z" />
    <glyph glyph-name="uni1E18" unicode="&#x1e18;" 
d="M256 1434h1280v-205h-1024v-410h768v-205h-768v-409h1024v-205h-512v-59l256 -205v-146h-182l-202 162l-202 -162h-182v146l256 205v59h-512v1434z" />
    <glyph glyph-name="uni1E19" unicode="&#x1e19;" 
d="M256 760l330 264h620l330 -264v-350h-1024v-60l182 -145h586v-205h-256v-59l256 -205v-146h-182l-202 162l-202 -162h-182v146l256 205v59h-182l-330 264v496zM694 819l-182 -145v-60h768v60l-182 145h-404z" />
    <glyph glyph-name="uni1E1E" unicode="&#x1e1e;" 
d="M256 1024h1280v-205h-1024v-205h768v-204h-768v-410h-256v1024zM768 1229v205h256v-205h-256z" />
    <glyph glyph-name="uni1E1F" unicode="&#x1e1f;" 
d="M512 410v204h256v146l330 264h182v-145l-256 -205v-60h256v-204h-256v-410h-256v410h-256zM768 1229v205h256v-205h-256z" />
    <glyph glyph-name="uni1E20" unicode="&#x1e20;" 
d="M256 760l330 264h950v-205h-842l-182 -145v-324l182 -145h586v205h-256v204h512v-614h-950l-330 264v496zM512 1229v205h768v-205h-768z" />
    <glyph glyph-name="uni1E21" unicode="&#x1e21;" 
d="M256 760l330 264h950v-1169l-330 -265h-694v205h586l182 146v59h-694l-330 264v496zM512 1229v205h768v-205h-768zM694 819l-182 -145v-324l182 -145h586v614h-586z" />
    <glyph glyph-name="uni1E22" unicode="&#x1e22;" 
d="M256 1434h256v-615h768v615h256v-1434h-256v614h-768v-614h-256v1434zM768 1229v205h256v-205h-256z" />
    <glyph glyph-name="uni1E23" unicode="&#x1e23;" 
d="M256 1434h256v-410h694l330 -264v-760h-256v674l-182 145h-586v-819h-256v1434zM768 1229v205h256v-205h-256z" />
    <glyph glyph-name="uni1E24" unicode="&#x1e24;" 
d="M256 1434h256v-615h768v615h256v-1434h-256v614h-768v-614h-256v1434zM768 -410v205h256v-205h-256z" />
    <glyph glyph-name="uni1E25" unicode="&#x1e25;" 
d="M256 1434h256v-410h694l330 -264v-760h-256v674l-182 145h-586v-819h-256v1434zM768 -410v205h256v-205h-256z" />
    <glyph glyph-name="uni1E26" unicode="&#x1e26;" 
d="M256 1024h256v-410h768v410h256v-1024h-256v410h-768v-410h-256v1024zM512 1229v205h256v-205h-256zM1024 1229v205h256v-205h-256z" />
    <glyph glyph-name="uni1E27" unicode="&#x1e27;" 
d="M256 1434h256v-410h694l330 -264v-760h-256v674l-182 145h-586v-819h-256v1434zM768 1229v205h256v-205h-256zM1280 1229v205h256v-205h-256z" />
    <glyph glyph-name="uni1E28" unicode="&#x1e28;" 
d="M256 1434h256v-410h768v410h256v-1229h-256v614h-768v-614h-256v1229zM768 59v146h182l330 -264v-86l-330 -265h-182v146l202 162z" />
    <glyph glyph-name="uni1E29" unicode="&#x1e29;" 
d="M256 1434h256v-410h694l330 -264v-555h-256v469l-182 145h-586v-614h-256v1229zM768 59v146h182l330 -264v-86l-330 -265h-182v146l202 162z" />
    <glyph glyph-name="uni1E32" unicode="&#x1e32;" 
d="M256 1434h256v-615h74l768 615h182v-146l-714 -571l714 -572v-145h-182l-768 614h-74v-614h-256v1434zM768 -410v205h256v-205h-256z" />
    <glyph glyph-name="uni1E33" unicode="&#x1e33;" 
d="M512 1434h256v-820h74l512 410h182v-145l-458 -367l458 -367v-145h-182l-512 410h-74v-410h-256v1434zM768 -410v205h256v-205h-256z" />
    <glyph glyph-name="uni1E34" unicode="&#x1e34;" 
d="M256 1434h256v-615h74l768 615h182v-146l-714 -571l714 -572v-145h-182l-768 614h-74v-614h-256v1434zM512 -410v205h768v-205h-768z" />
    <glyph glyph-name="uni1E35" unicode="&#x1e35;" 
d="M512 1434h256v-820h74l512 410h182v-145l-458 -367l458 -367v-145h-182l-512 410h-74v-410h-256v1434zM512 -410v205h768v-205h-768z" />
    <glyph glyph-name="uni1E36" unicode="&#x1e36;" 
d="M256 1434h256v-1229h1024v-205h-1280v1434zM768 -410v205h256v-205h-256z" />
    <glyph glyph-name="uni1E37" unicode="&#x1e37;" 
d="M512 1229v205h512v-1229h256v-205h-768v205h256v1024h-256zM768 -410v205h256v-205h-256z" />
    <glyph glyph-name="uni1E3A" unicode="&#x1e3a;" 
d="M256 1434h256v-1229h1024v-205h-1280v1434zM512 -410v205h768v-205h-768z" />
    <glyph glyph-name="uni1E3B" unicode="&#x1e3b;" 
d="M512 1229v205h512v-1229h256v-205h-768v205h256v1024h-256zM512 -410v205h768v-205h-768z" />
    <glyph glyph-name="uni1E3C" unicode="&#x1e3c;" 
d="M256 1434h256v-1229h1024v-205h-512v-59l256 -205v-146h-182l-202 162l-202 -162h-182v146l256 205v59h-512v1434z" />
    <glyph glyph-name="uni1E3D" unicode="&#x1e3d;" 
d="M512 1229v205h512v-1024h256v-205h-768v205h256v819h-256zM512 -410v146l330 264h108l330 -264v-146h-182l-202 162l-202 -162h-182z" />
    <glyph glyph-name="uni1E3E" unicode="&#x1e3e;" 
d="M256 1024h256v-205h182l202 -162l202 162h182v205h256v-1024h-256v614h-74l-256 -204h-108l-256 204h-74v-614h-256v1024zM768 1024v145l330 265h182v-146l-330 -264h-182z" />
    <glyph glyph-name="uni1E3F" unicode="&#x1e3f;" 
d="M256 819h438l202 -162l202 162h108l330 -264v-555h-256v469l-128 102l-128 -102v-469h-256v469l-182 145h-74v-614h-256v819zM768 1024v145l330 265h182v-146l-330 -264h-182z" />
    <glyph glyph-name="uni1E40" unicode="&#x1e40;" 
d="M256 1229h256v-205h182l202 -162l202 162h182v205h256v-1229h-256v819h-74l-256 -205h-108l-256 205h-74v-819h-256v1229zM768 1229v205h256v-205h-256z" />
    <glyph glyph-name="uni1E41" unicode="&#x1e41;" 
d="M256 1024h438l202 -162l202 162h108l330 -264v-760h-256v674l-128 102l-128 -102v-674h-256v674l-182 145h-74v-819h-256v1024zM768 1229v205h256v-205h-256z" />
    <glyph glyph-name="uni1E42" unicode="&#x1e42;" 
d="M256 1434h256v-205h182l202 -162l202 162h182v205h256v-1434h-256v1024h-74l-182 -145v-265h-256v265l-182 145h-74v-1024h-256v1434zM768 -410v205h256v-205h-256z" />
    <glyph glyph-name="uni1E43" unicode="&#x1e43;" 
d="M256 1024h438l202 -162l202 162h108l330 -264v-760h-256v674l-128 102l-128 -102v-674h-256v674l-182 145h-74v-819h-256v1024zM768 -410v205h256v-205h-256z" />
    <glyph glyph-name="uni1E44" unicode="&#x1e44;" 
d="M256 1434h256v-410h182l512 -410h74v820h256v-1434h-256v410h-182l-512 409h-74v-819h-256v1434zM768 1229v205h256v-205h-256z" />
    <glyph glyph-name="uni1E45" unicode="&#x1e45;" 
d="M256 1024h950l330 -264v-760h-256v674l-182 145h-586v-819h-256v1024zM768 1229v205h256v-205h-256z" />
    <glyph glyph-name="uni1E46" unicode="&#x1e46;" 
d="M256 1434h256v-410h182l512 -410h74v820h256v-1434h-256v410h-182l-512 409h-74v-819h-256v1434zM768 -410v205h256v-205h-256z" />
    <glyph glyph-name="uni1E47" unicode="&#x1e47;" 
d="M256 1024h950l330 -264v-760h-256v674l-182 145h-586v-819h-256v1024zM768 -410v205h256v-205h-256z" />
    <glyph glyph-name="uni1E48" unicode="&#x1e48;" 
d="M256 1434h256v-410h182l512 -410h74v820h256v-1434h-256v410h-182l-512 409h-74v-819h-256v1434zM512 -410v205h768v-205h-768z" />
    <glyph glyph-name="uni1E49" unicode="&#x1e49;" 
d="M256 1024h950l330 -264v-760h-256v674l-182 145h-586v-819h-256v1024zM512 -410v205h768v-205h-768z" />
    <glyph glyph-name="uni1E54" unicode="&#x1e54;" 
d="M256 1024h512v145l330 265h182v-146l-256 -205v-59h182l330 -264v-86l-330 -264h-694v-410h-256v1024zM512 819v-205h586l128 103l-128 102h-586z" />
    <glyph glyph-name="uni1E55" unicode="&#x1e55;" 
d="M256 1024h512v145l330 265h182v-146l-256 -205v-59h182l330 -264v-496l-330 -264h-694v-410h-256v1434zM512 819v-614h586l182 145v324l-182 145h-586z" />
    <glyph glyph-name="uni1E56" unicode="&#x1e56;" 
d="M256 1024h950l330 -264v-86l-330 -264h-694v-410h-256v1024zM512 819v-205h586l128 103l-128 102h-586zM768 1229v205h256v-205h-256z" />
    <glyph glyph-name="uni1E57" unicode="&#x1e57;" 
d="M256 1024h950l330 -264v-496l-330 -264h-694v-410h-256v1434zM512 819v-614h586l182 145v324l-182 145h-586zM768 1229v205h256v-205h-256z" />
    <glyph glyph-name="uni1E58" unicode="&#x1e58;" 
d="M256 1024h950l330 -264v-86l-256 -205v-119l256 -205v-145h-182l-330 264v146h-512v-410h-256v1024zM512 819v-205h586l128 103l-128 102h-586zM768 1229v205h256v-205h-256z" />
    <glyph glyph-name="uni1E59" unicode="&#x1e59;" 
d="M512 1024h256v-205h74l256 205h438v-205h-330l-256 -205h-182v-614h-256v1024zM768 1229v205h256v-205h-256z" />
    <glyph glyph-name="uni1E5A" unicode="&#x1e5a;" 
d="M256 1434h950l330 -265v-290l-330 -265h-182v-59l512 -410v-145h-182l-586 469v145h-256v-614h-256v1434zM512 1229v-410h586l182 146v118l-182 146h-586zM768 -410v205h256v-205h-256z" />
    <glyph glyph-name="uni1E5B" unicode="&#x1e5b;" 
d="M512 1024h256v-205h74l256 205h438v-205h-330l-256 -205h-182v-614h-256v1024zM768 -410v205h256v-205h-256z" />
    <glyph glyph-name="uni1E5C" unicode="&#x1e5c;" 
d="M256 1024h950l330 -264v-86l-256 -205v-119l256 -205v-145h-182l-330 264v146h-512v-410h-256v1024zM512 819v-205h586l128 103l-128 102h-586zM512 1229v205h768v-205h-768zM768 -410v205h256v-205h-256z" />
    <glyph glyph-name="uni1E5D" unicode="&#x1e5d;" 
d="M512 1229v205h768v-205h-768zM512 1024h256v-205h74l256 205h438v-205h-330l-256 -205h-182v-614h-256v1024zM768 -410v205h256v-205h-256z" />
    <glyph glyph-name="uni1E5E" unicode="&#x1e5e;" 
d="M256 1434h950l330 -265v-290l-330 -265h-182v-59l512 -410v-145h-182l-586 469v145h-256v-614h-256v1434zM512 1229v-410h586l182 146v118l-182 146h-586zM512 -410v205h768v-205h-768z" />
    <glyph glyph-name="uni1E5F" unicode="&#x1e5f;" 
d="M512 1024h256v-205h74l256 205h438v-205h-330l-256 -205h-182v-614h-256v1024zM512 -410v205h768v-205h-768z" />
    <glyph glyph-name="uni1E62" unicode="&#x1e62;" 
d="M256 1169l330 265h620l330 -265v-145h-182l-256 205h-404l-182 -146v-118l182 -146h512l330 -264v-291l-330 -264h-620l-330 264v146h182l256 -205h404l182 145v119l-182 145h-512l-330 265v290zM768 -410v205h256v-205h-256z" />
    <glyph glyph-name="uni1E63" unicode="&#x1e63;" 
d="M256 674v86l330 264h950v-205h-842l-128 -102l128 -103h512l330 -264v-86l-330 -264h-950v205h842l128 102l-128 103h-512zM768 -410v205h256v-205h-256z" />
    <glyph glyph-name="uni1E6A" unicode="&#x1e6a;" 
d="M256 819v205h1280v-205h-512v-819h-256v819h-512zM768 1229v205h256v-205h-256z" />
    <glyph glyph-name="uni1E6B" unicode="&#x1e6b;" 
d="M512 614v205h256v205h256v-205h256v-205h-256v-264l256 -205v-145h-182l-330 264v350h-256zM768 1229v205h256v-205h-256z" />
    <glyph glyph-name="uni1E6C" unicode="&#x1e6c;" 
d="M256 1229v205h1280v-205h-512v-1229h-256v1229h-512zM768 -410v205h256v-205h-256z" />
    <glyph glyph-name="uni1E6D" unicode="&#x1e6d;" 
d="M512 819v205h256v410h256v-410h256v-205h-256v-469l256 -205v-145h-182l-330 264v555h-256zM768 -410v205h256v-205h-256z" />
    <glyph glyph-name="uni1E6E" unicode="&#x1e6e;" 
d="M256 1229v205h1280v-205h-512v-1229h-256v1229h-512zM512 -410v205h768v-205h-768z" />
    <glyph glyph-name="uni1E6F" unicode="&#x1e6f;" 
d="M512 819v205h256v410h256v-410h256v-205h-256v-469l256 -205v-145h-182l-330 264v555h-256zM512 -410v205h768v-205h-768z" />
    <glyph glyph-name="uni1E70" unicode="&#x1e70;" 
d="M256 1229v205h1280v-205h-512v-1024h-256v1024h-512zM512 -410v146l330 264h108l330 -264v-146h-182l-202 162l-202 -162h-182z" />
    <glyph glyph-name="uni1E71" unicode="&#x1e71;" 
d="M512 819v205h256v410h256v-410h256v-205h-256v-264l256 -205v-145h-182l-330 264v350h-256zM512 -410v146l330 264h108l330 -264v-146h-182l-202 162l-202 -162h-182z" />
    <glyph glyph-name="uni1E72" unicode="&#x1e72;" 
d="M256 1434h256v-1084l182 -145h404l182 145v1084h256v-1170l-330 -264h-620l-330 264v1170zM512 -410v205h256v-205h-256zM1024 -410v205h256v-205h-256z" />
    <glyph glyph-name="uni1E73" unicode="&#x1e73;" 
d="M256 1024h256v-674l182 -145h586v819h256v-1024h-950l-330 264v760zM512 -410v205h256v-205h-256zM1024 -410v205h256v-205h-256z" />
    <glyph glyph-name="uni1E76" unicode="&#x1e76;" 
d="M256 1434h256v-1084l182 -145h404l182 145v1084h256v-1170l-330 -264h-182v-59l256 -205v-146h-182l-202 162l-202 -162h-182v146l256 205v59h-182l-330 264v1170z" />
    <glyph glyph-name="uni1E77" unicode="&#x1e77;" 
d="M256 1024h256v-674l182 -145h586v819h256v-1024h-512v-59l256 -205v-146h-182l-202 162l-202 -162h-182v146l256 205v59h-182l-330 264v760z" />
    <glyph glyph-name="uni1E7A" unicode="&#x1e7a;" 
d="M256 614h256v-264l182 -145h404l182 145v264h256v-350l-330 -264h-620l-330 264v350zM512 1229v205h256v-205h-256zM512 819v205h768v-205h-768zM1024 1229v205h256v-205h-256z" />
    <glyph glyph-name="uni1E7B" unicode="&#x1e7b;" 
d="M256 614h256v-264l182 -145h586v409h256v-614h-950l-330 264v350zM512 1229v205h256v-205h-256zM512 819v205h768v-205h-768zM1024 1229v205h256v-205h-256z" />
    <glyph glyph-name="uni1E7E" unicode="&#x1e7e;" 
d="M256 1434h256v-469l256 -205v-205l128 -102l128 102v205l256 205v469h256v-555l-256 -205v-205l-256 -205v-264h-256v264l-256 205v205l-256 205v555zM768 -410v205h256v-205h-256z" />
    <glyph glyph-name="uni1E7F" unicode="&#x1e7f;" 
d="M256 1024h256v-264l256 -205v-205l128 -102l128 102v205l256 205v264h256v-350l-256 -205v-205l-330 -264h-108l-330 264v205l-256 205v350zM768 -410v205h256v-205h-256z" />
    <glyph glyph-name="Wdieresis" unicode="&#x1e84;" 
d="M256 1024h256v-674l128 -102l128 102v469h256v-469l128 -102l128 102v674h256v-760l-330 -264h-108l-202 162l-202 -162h-108l-330 264v760zM512 1229v205h256v-205h-256zM1024 1229v205h256v-205h-256z" />
    <glyph glyph-name="wdieresis" unicode="&#x1e85;" 
d="M256 1024h256v-674l128 -102l128 102v264h256v-264l128 -102l128 102v674h256v-760l-330 -264h-108l-202 162l-202 -162h-108l-330 264v760zM512 1229v205h256v-205h-256zM1024 1229v205h256v-205h-256z" />
    <glyph glyph-name="uni1E88" unicode="&#x1e88;" 
d="M256 1434h256v-1084l128 -102l128 102v469h256v-469l128 -102l128 102v1084h256v-1170l-330 -264h-108l-202 162l-202 -162h-108l-330 264v1170zM768 -410v205h256v-205h-256z" />
    <glyph glyph-name="uni1E89" unicode="&#x1e89;" 
d="M256 1024h256v-674l128 -102l128 102v264h256v-264l128 -102l128 102v674h256v-760l-330 -264h-108l-202 162l-202 -162h-108l-330 264v760zM768 -410v205h256v-205h-256z" />
    <glyph glyph-name="uni1E8A" unicode="&#x1e8a;" 
d="M256 1434h256v-265l384 -307l384 307v265h256v-351l-458 -366l458 -367v-350h-256v264l-384 307l-384 -307v-264h-256v350l458 367l-458 366v351zM768 1229v205h256v-205h-256z" />
    <glyph glyph-name="uni1E8B" unicode="&#x1e8b;" 
d="M256 879v145h182l458 -367l458 367h182v-145l-458 -367l458 -367v-145h-182l-458 367l-458 -367h-182v145l458 367zM768 1229v205h256v-205h-256z" />
    <glyph glyph-name="uni1E8C" unicode="&#x1e8c;" 
d="M256 1024h256v-264l182 -146h404l182 146v264h256v-350l-202 -162l202 -162v-350h-256v264l-182 146h-404l-182 -146v-264h-256v350l202 162l-202 162v350zM512 1229v205h256v-205h-256zM1024 1229v205h256v-205h-256z" />
    <glyph glyph-name="uni1E8D" unicode="&#x1e8d;" 
d="M256 879v145h182l458 -367l458 367h182v-145l-458 -367l458 -367v-145h-182l-458 367l-458 -367h-182v145l458 367zM512 1229v205h256v-205h-256zM1024 1229v205h256v-205h-256z" />
    <glyph glyph-name="uni1E8E" unicode="&#x1e8e;" 
d="M256 1434h256v-265l384 -307l384 307v265h256v-351l-512 -409v-674h-256v674l-512 409v351zM768 1229v205h256v-205h-256z" />
    <glyph glyph-name="uni1E8F" unicode="&#x1e8f;" 
d="M256 1024h256v-674l182 -145h586v819h256v-1169l-330 -265h-694v205h586l182 146v59h-694l-330 264v760zM768 1229v205h256v-205h-256z" />
    <glyph glyph-name="uni1E90" unicode="&#x1e90;" 
d="M256 819v205h256v145l330 265h108l330 -265v-145h256v-350l-330 -264h-512l-182 -146v-59h1024v-205h-1280v350l330 264h512l182 146v59h-1024zM768 1024h256v59l-128 103l-128 -103v-59z" />
    <glyph glyph-name="uni1E91" unicode="&#x1e91;" 
d="M256 819v205h256v145l330 265h108l330 -265v-145h256v-205h-256v-145l-512 -410v-59h768v-205h-1280v205h256v145l512 410v59h-768zM768 1024h256v59l-128 103l-128 -103v-59z" />
    <glyph glyph-name="uni1E92" unicode="&#x1e92;" 
d="M256 1229v205h1280v-351l-1024 -819v-59h1024v-205h-1280v350l1024 819v60h-1024zM768 -410v205h256v-205h-256z" />
    <glyph glyph-name="uni1E93" unicode="&#x1e93;" 
d="M256 819v205h1280v-205h-256v-145l-512 -410v-59h768v-205h-1280v205h256v145l512 410v59h-768zM768 -410v205h256v-205h-256z" />
    <glyph glyph-name="uni1E94" unicode="&#x1e94;" 
d="M256 1229v205h1280v-351l-1024 -819v-59h1024v-205h-1280v350l1024 819v60h-1024zM512 -410v205h768v-205h-768z" />
    <glyph glyph-name="uni1E95" unicode="&#x1e95;" 
d="M256 819v205h1280v-205h-256v-145l-512 -410v-59h768v-205h-1280v205h256v145l512 410v59h-768zM512 -410v205h768v-205h-768z" />
    <glyph glyph-name="uni1E96" unicode="&#x1e96;" 
d="M256 1434h256v-410h694l330 -264v-760h-256v674l-182 145h-586v-819h-256v1434zM512 -410v205h768v-205h-768z" />
    <glyph glyph-name="uni1E97" unicode="&#x1e97;" 
d="M256 1229v205h256v-205h-256zM512 819v205h256v410h256v-410h256v-205h-256v-469l256 -205v-145h-182l-330 264v555h-256zM1280 1229v205h256v-205h-256z" />
    <glyph glyph-name="uni1E9E" unicode="&#x1e9e;" 
d="M256 1169l330 265h620l330 -265v-86l-256 -204v-119l256 -205v-291l-330 -264h-438v205h330l182 145v119l-256 205v291l202 161l-128 103h-404l-182 -146v-1083h-256v1169z" />
    <glyph glyph-name="uni1EA0" unicode="&#x1ea0;" 
d="M256 965l586 469h108l586 -469v-965h-256v410h-768v-410h-256v965zM512 879v-265h768v265l-384 307zM768 -410v205h256v-205h-256z" />
    <glyph glyph-name="uni1EA1" unicode="&#x1ea1;" 
d="M256 264v86l330 264h694v60l-182 145h-586v205h694l330 -264v-760h-950zM694 205h586v205h-586l-128 -103zM768 -410v205h256v-205h-256z" />
    <glyph glyph-name="uni1EB8" unicode="&#x1eb8;" 
d="M256 1434h1280v-205h-1024v-410h768v-205h-768v-409h1024v-205h-1280v1434zM768 -410v205h256v-205h-256z" />
    <glyph glyph-name="uni1EB9" unicode="&#x1eb9;" 
d="M256 760l330 264h620l330 -264v-350h-1024v-60l182 -145h586v-205h-694l-330 264v496zM694 819l-182 -145v-60h768v60l-182 145h-404zM768 -410v205h256v-205h-256z" />
    <glyph glyph-name="uni1ECA" unicode="&#x1eca;" 
d="M512 1229v205h768v-205h-256v-1024h256v-205h-768v205h256v1024h-256zM768 -410v205h256v-205h-256z" />
    <glyph glyph-name="uni1ECB" unicode="&#x1ecb;" 
d="M512 819v205h512v-819h256v-205h-768v205h256v614h-256zM768 1229v205h256v-205h-256zM768 -410v205h256v-205h-256z" />
    <glyph glyph-name="uni1ECC" unicode="&#x1ecc;" 
d="M256 1169l330 265h620l330 -265v-905l-330 -264h-620l-330 264v905zM694 1229l-182 -146v-733l182 -145h404l182 145v733l-182 146h-404zM768 -410v205h256v-205h-256z" />
    <glyph glyph-name="uni1ECD" unicode="&#x1ecd;" 
d="M256 760l330 264h620l330 -264v-496l-330 -264h-620l-330 264v496zM694 819l-182 -145v-324l182 -145h404l182 145v324l-182 145h-404zM768 -410v205h256v-205h-256z" />
    <glyph glyph-name="uni1EE4" unicode="&#x1ee4;" 
d="M256 1434h256v-1084l182 -145h404l182 145v1084h256v-1170l-330 -264h-620l-330 264v1170zM768 -410v205h256v-205h-256z" />
    <glyph glyph-name="uni1EE5" unicode="&#x1ee5;" 
d="M256 1024h256v-674l182 -145h586v819h256v-1024h-950l-330 264v760zM768 -410v205h256v-205h-256z" />
    <glyph glyph-name="uni1EF4" unicode="&#x1ef4;" 
d="M256 1434h256v-265l384 -307l384 307v265h256v-351l-512 -409v-674h-256v674l-512 409v351zM768 -410v205h256v-205h-256z" />
    <glyph glyph-name="uni1EF5" unicode="&#x1ef5;" 
d="M256 1024h256v-264l182 -146h586v410h256v-760l-330 -264h-694v205h586l182 145v60h-694l-330 264v350zM768 -410v205h256v-205h-256z" />
    <glyph glyph-name="uni2010" unicode="&#x2010;" 
d="M512 614v205h768v-205h-768z" />
    <glyph glyph-name="uni2011" unicode="&#x2011;" 
d="M512 614v205h768v-205h-768z" />
    <glyph glyph-name="endash" unicode="&#x2013;" 
d="M256 614v205h1024v-205h-1024z" />
    <glyph glyph-name="emdash" unicode="&#x2014;" 
d="M256 614v205h1280v-205h-1280z" />
    <glyph glyph-name="dblverticalbar" unicode="&#x2016;" 
d="M512 1434h256v-1434h-256v1434zM1024 1434h256v-1434h-256v1434z" />
    <glyph glyph-name="underscoredbl" unicode="&#x2017;" 
d="M256 0v205h1280v-205h-1280zM256 -410v205h1280v-205h-1280z" />
    <glyph glyph-name="quoteleft" unicode="&#x2018;" 
d="M768 1169l330 265h182v-146l-256 -205v-264h-256v350z" />
    <glyph glyph-name="quoteright" unicode="&#x2019;" 
d="M768 1169v265h256v-351l-330 -264h-182v146z" />
    <glyph glyph-name="quotesinglbase" unicode="&#x201a;" 
d="M768 145v265h256v-351l-330 -264h-182v146z" />
    <glyph glyph-name="quotereversed" unicode="&#x201b;" 
d="M768 1434h256v-265l256 -204v-146h-182l-330 264v351z" />
    <glyph glyph-name="quotedblleft" unicode="&#x201c;" 
d="M256 1169l330 265h182v-146l-256 -205v-264h-256v350zM1024 1169l330 265h182v-146l-256 -205v-264h-256v350z" />
    <glyph glyph-name="quotedblright" unicode="&#x201d;" 
d="M512 1169v265h256v-351l-330 -264h-182v146zM1280 1169v265h256v-351l-330 -264h-182v146z" />
    <glyph glyph-name="quotedblbase" unicode="&#x201e;" 
d="M512 145v265h256v-351l-330 -264h-182v146zM1280 145v265h256v-351l-330 -264h-182v146z" />
    <glyph glyph-name="uni201F" unicode="&#x201f;" 
d="M256 1434h256v-265l256 -204v-146h-182l-330 264v351zM1024 1434h256v-265l256 -204v-146h-182l-330 264v351z" />
    <glyph glyph-name="dagger" unicode="&#x2020;" 
d="M256 819v205h512v410h256v-410h512v-205h-512v-1229h-256v1229h-512z" />
    <glyph glyph-name="daggerdbl" unicode="&#x2021;" 
d="M256 819v205h512v410h256v-410h512v-205h-512v-614h512v-205h-512v-410h-256v410h-512v205h512v614h-512z" />
    <glyph glyph-name="bullet" unicode="&#x2022;" 
d="M512 1024h768v-614h-768v614z" />
    <glyph glyph-name="ellipsis" unicode="&#x2026;" 
d="M256 0v205h256v-205h-256zM768 0v205h256v-205h-256zM1280 0v205h256v-205h-256z" />
    <glyph glyph-name="perthousand" unicode="&#x2030;" 
d="M256 1434h256v-410h-256v410zM256 410v145l1098 879h182v-146l-1098 -878h-182zM768 410h256v-410h-256v410zM1280 410h256v-410h-256v410z" />
    <glyph glyph-name="minute" unicode="&#x2032;" 
d="M512 1169v265h256v-351l-256 -204v-265h-256v351z" />
    <glyph glyph-name="second" unicode="&#x2033;" 
d="M512 1169v265h256v-351l-256 -204v-265h-256v351zM1280 1169v265h256v-351l-256 -204v-265h-256v351z" />
    <glyph glyph-name="uni2035" unicode="&#x2035;" 
d="M1024 1434h256v-265l256 -204v-351h-256v265l-256 204v351z" />
    <glyph glyph-name="uni2036" unicode="&#x2036;" 
d="M256 1434h256v-265l256 -204v-351h-256v265l-256 204v351zM1024 1434h256v-265l256 -204v-351h-256v265l-256 204v351z" />
    <glyph glyph-name="guilsinglleft" unicode="&#x2039;" 
d="M768 469v86l330 264h182v-145l-202 -162l202 -162v-145h-182z" />
    <glyph glyph-name="guilsinglright" unicode="&#x203a;" 
d="M512 674v145h182l330 -264v-86l-330 -264h-182v145l202 162z" />
    <glyph glyph-name="uni203B" unicode="&#x203b;" 
d="M256 1434h256v-265l384 -307l384 307v265h256v-351l-512 -409v-324l512 -409v-351h-256v265l-384 307l-384 -307v-265h-256v351l512 409v324l-512 409v351zM256 410v204h256v-204h-256zM768 1229v205h256v-205h-256zM768 -410v205h256v-205h-256zM1280 410v204h256v-204
h-256z" />
    <glyph glyph-name="exclamdbl" unicode="&#x203c;" 
d="M512 1434h256v-1024h-256v1024zM512 0v205h256v-205h-256zM1024 1434h256v-1024h-256v1024zM1024 0v205h256v-205h-256z" />
    <glyph glyph-name="uni203D" unicode="&#x203d;" 
d="M256 1024v145l330 265h620l330 -265v-290l-330 -265h-182v-204h-256v819h-74l-256 -205h-182zM1024 1229v-410h74l182 146v118l-182 146h-74zM768 0v205h256v-205h-256z" />
    <glyph glyph-name="uni203E" unicode="&#x203e;" 
d="M256 1229v205h1280v-205h-1280z" />
    <glyph glyph-name="uni203F" unicode="&#x203f;" 
d="M256 -145v145h182l256 -205h404l256 205h182v-145l-330 -265h-620z" />
    <glyph glyph-name="uni2040" unicode="&#x2040;" 
d="M256 1024v145l330 265h620l330 -265v-145h-182l-256 205h-404l-256 -205h-182z" />
    <glyph glyph-name="fraction" unicode="&#x2044;" 
d="M512 145v205l512 410v205l256 204v265h256v-351l-256 -204v-205l-512 -410v-205l-256 -204v-265h-256v351z" />
    <glyph glyph-name="uni2047" unicode="&#x2047;" 
d="M256 1024v145l330 265h108l202 -162l202 162h108l330 -265v-495l-330 -264h-182v145l256 205v323l-128 103l-128 -103v-204l-256 -205v-264h-256v350l256 205v118l-128 103l-202 -162h-182zM512 0v205h256v-205h-256zM1024 0v205h256v-205h-256z" />
    <glyph glyph-name="uni2048" unicode="&#x2048;" 
d="M256 1024v145l330 265h108l330 -265v-290l-256 -205v-264h-256v350l256 205v118l-128 103l-202 -162h-182zM512 0v205h256v-205h-256zM1280 1434h256v-1024h-256v1024zM1280 0v205h256v-205h-256z" />
    <glyph glyph-name="uni2049" unicode="&#x2049;" 
d="M256 1434h256v-1024h-256v1024zM256 0v205h256v-205h-256zM768 1024v145l330 265h108l330 -265v-290l-256 -205v-264h-256v350l256 205v118l-128 103l-202 -162h-182zM1024 0v205h256v-205h-256z" />
    <glyph glyph-name="uni204B" unicode="&#x204b;" 
d="M256 1434h256v-1434h-256v1434zM768 1434h438l330 -265v-290l-330 -265h-182v-614h-256v1434zM1024 1229v-410h74l182 146v118l-182 146h-74z" />
    <glyph glyph-name="uni204F" unicode="&#x204f;" 
d="M768 819v205h256v-205h-256zM768 410h256v-265l256 -204v-146h-182l-330 264v351z" />
    <glyph glyph-name="uni2052" unicode="&#x2052;" 
d="M256 1229v205h256v-205h-256zM256 350l1024 819v265h256v-351l-1024 -819v-264h-256v350zM1280 0v205h256v-205h-256z" />
    <glyph glyph-name="uni2053" unicode="&#x2053;" 
d="M256 614v146l330 264h108l458 -367l202 162h182v-145l-330 -264h-108l-458 366l-202 -162h-182z" />
    <glyph glyph-name="uni2054" unicode="&#x2054;" 
d="M256 -410v146l330 264h620l330 -264v-146h-182l-256 205h-404l-256 -205h-182z" />
    <glyph glyph-name="uni2056" unicode="&#x2056;" 
d="M256 410v204h256v-204h-256zM1280 819v205h256v-205h-256zM1280 0v205h256v-205h-256z" />
    <glyph glyph-name="uni2058" unicode="&#x2058;" 
d="M256 410v204h256v-204h-256zM768 819v205h256v-205h-256zM768 0v205h256v-205h-256zM1280 410v204h256v-204h-256z" />
    <glyph glyph-name="uni2059" unicode="&#x2059;" 
d="M256 819v205h256v-205h-256zM256 0v205h256v-205h-256zM768 410v204h256v-204h-256zM1280 819v205h256v-205h-256zM1280 0v205h256v-205h-256z" />
    <glyph glyph-name="uni205A" unicode="&#x205a;" 
d="M768 1229v205h256v-205h-256zM768 0v205h256v-205h-256z" />
    <glyph glyph-name="uni205B" unicode="&#x205b;" 
d="M256 410v204h256v-204h-256zM768 1229v205h256v-205h-256zM768 -410v205h256v-205h-256zM1280 410v204h256v-204h-256z" />
    <glyph glyph-name="uni205C" unicode="&#x205c;" 
d="M256 819v205h256v-205h-256zM256 410v204h512v410h256v-410h512v-204h-512v-410h-256v410h-512zM256 0v205h256v-205h-256zM1280 819v205h256v-205h-256zM1280 0v205h256v-205h-256z" />
    <glyph glyph-name="uni205D" unicode="&#x205d;" 
d="M768 1229v205h256v-205h-256zM768 614v205h256v-205h-256zM768 0v205h256v-205h-256z" />
    <glyph glyph-name="uni205E" unicode="&#x205e;" 
d="M768 1229v205h256v-205h-256zM768 819v205h256v-205h-256zM768 410v204h256v-204h-256zM768 0v205h256v-205h-256z" />
    <glyph glyph-name="uni2070" unicode="&#x2070;" 
d="M512 1169l330 265h108l330 -265v-495l-330 -264h-108l-330 264v495zM768 1083v-323l128 -103l128 103v323l-128 103z" />
    <glyph glyph-name="uni2071" unicode="&#x2071;" 
d="M512 819v205h512v-410h256v-204h-768v204h256v205h-256zM768 1229v205h256v-205h-256z" />
    <glyph glyph-name="uni2074" unicode="&#x2074;" 
d="M512 965l330 264h182v205h256v-1024h-256v204h-512v351zM950 1024l-182 -145v-60h256v205h-74z" />
    <glyph glyph-name="uni2075" unicode="&#x2075;" 
d="M512 1434h768v-205h-512v-205h182l330 -264v-86l-330 -264h-438v204h330l128 103l-128 102h-330v615z" />
    <glyph glyph-name="uni2076" unicode="&#x2076;" 
d="M512 1169l330 265h182v-146l-256 -205v-59h182l330 -264v-86l-330 -264h-108l-330 264v495zM768 819v-59l128 -103l74 60l-128 102h-74z" />
    <glyph glyph-name="uni2077" unicode="&#x2077;" 
d="M512 1229v205h768v-351l-512 -409v-264h-256v350l512 409v60h-512z" />
    <glyph glyph-name="uni2078" unicode="&#x2078;" 
d="M512 1083v86l330 265h108l330 -265v-86l-202 -161l202 -162v-86l-330 -264h-108l-330 264v86l202 162zM896 1067l74 59l-74 60l-74 -60zM896 657l74 60l-74 59l-74 -59z" />
    <glyph glyph-name="uni2079" unicode="&#x2079;" 
d="M512 1083v86l330 265h108l330 -265v-495l-330 -264h-182v145l256 205v59h-182zM950 1024h74v59l-128 103l-74 -60z" />
    <glyph glyph-name="uni207A" unicode="&#x207a;" 
d="M512 819v205h256v205h256v-205h256v-205h-256v-205h-256v205h-256z" />
    <glyph glyph-name="uni207B" unicode="&#x207b;" 
d="M512 819v205h768v-205h-768z" />
    <glyph glyph-name="uni207C" unicode="&#x207c;" 
d="M512 1024v205h768v-205h-768zM512 614v205h768v-205h-768z" />
    <glyph glyph-name="uni207D" unicode="&#x207d;" 
d="M768 1169l330 265h182v-146l-256 -205v-323l256 -205v-145h-182l-330 264v495z" />
    <glyph glyph-name="uni207E" unicode="&#x207e;" 
d="M512 1288v146h182l330 -265v-495l-330 -264h-182v145l256 205v323z" />
    <glyph glyph-name="uni207F" unicode="&#x207f;" 
d="M512 1024h438l330 -264v-350h-256v264l-182 145h-74v-409h-256v614z" />
    <glyph glyph-name="uni2080" unicode="&#x2080;" 
d="M512 350l330 264h108l330 -264v-495l-330 -265h-108l-330 265v495zM768 264v-323l128 -103l128 103v323l-128 103z" />
    <glyph glyph-name="uni2081" unicode="&#x2081;" 
d="M512 205v205h256v204h256v-819h256v-205h-768v205h256v410h-256z" />
    <glyph glyph-name="uni2082" unicode="&#x2082;" 
d="M512 410v204h438l330 -264v-86l-512 -409v-60h512v-205h-768v351l458 366l-128 103h-330z" />
    <glyph glyph-name="uni2083" unicode="&#x2083;" 
d="M512 410v204h438l330 -264v-86l-202 -162l202 -161v-86l-330 -265h-438v205h330l128 103l-128 102h-330v205h330l128 102l-128 103h-330z" />
    <glyph glyph-name="uni2084" unicode="&#x2084;" 
d="M512 145l330 265h182v204h256v-1024h-256v205h-512v350zM950 205l-182 -146v-59h256v205h-74z" />
    <glyph glyph-name="uni2085" unicode="&#x2085;" 
d="M512 614h768v-204h-512v-205h182l330 -264v-86l-330 -265h-438v205h330l128 103l-128 102h-330v614z" />
    <glyph glyph-name="uni2086" unicode="&#x2086;" 
d="M512 350l330 264h182v-145l-256 -205v-59h182l330 -264v-86l-330 -265h-108l-330 265v495zM768 0v-59l128 -103l74 60l-128 102h-74z" />
    <glyph glyph-name="uni2087" unicode="&#x2087;" 
d="M512 410v204h768v-350l-512 -409v-265h-256v351l512 409v60h-512z" />
    <glyph glyph-name="uni2088" unicode="&#x2088;" 
d="M512 264v86l330 264h108l330 -264v-86l-202 -162l202 -161v-86l-330 -265h-108l-330 265v86l202 161zM896 248l74 59l-74 60l-74 -60zM896 -162l74 60l-74 59l-74 -59z" />
    <glyph glyph-name="uni2089" unicode="&#x2089;" 
d="M512 264v86l330 264h108l330 -264v-495l-330 -265h-182v146l256 205v59h-182zM950 205h74v59l-128 103l-74 -60z" />
    <glyph glyph-name="uni208A" unicode="&#x208a;" 
d="M512 0v205h256v205h256v-205h256v-205h-256v-205h-256v205h-256z" />
    <glyph glyph-name="uni208B" unicode="&#x208b;" 
d="M512 0v205h768v-205h-768z" />
    <glyph glyph-name="uni208C" unicode="&#x208c;" 
d="M512 205v205h768v-205h-768zM512 -205v205h768v-205h-768z" />
    <glyph glyph-name="uni208D" unicode="&#x208d;" 
d="M768 350l330 264h182v-145l-256 -205v-323l256 -205v-146h-182l-330 265v495z" />
    <glyph glyph-name="uni208E" unicode="&#x208e;" 
d="M512 469v145h182l330 -264v-495l-330 -265h-182v146l256 205v323z" />
    <glyph glyph-name="uni2099" unicode="&#x2099;" 
d="M512 205h438l330 -264v-351h-256v265l-182 145h-74v-410h-256v615z" />
    <glyph glyph-name="peseta" unicode="&#x20a7;" 
d="M256 1434h438l330 -265v-86l-330 -264h-182v-819h-256v1434zM512 1229v-205h74l128 102l-128 103h-74zM768 410v204h256v205h256v-205h256v-204h-256v-60l256 -205v-145h-182l-330 264v146h-256z" />
    <glyph glyph-name="uni20AA" unicode="&#x20aa;" 
d="M256 1434h438l330 -265v-350h-256v264l-182 146h-74v-1229h-256v1434zM768 614h256v-409h74l182 145v1084h256v-1170l-330 -264h-438v614z" />
    <glyph glyph-name="Euro" unicode="&#x20ac;" 
d="M256 819v205h256v145l330 265h364l330 -265v-145h-182l-256 205h-148l-182 -146v-59h256v-205h-256v-205h256v-204h-256v-60l182 -145h148l256 205h182v-146l-330 -264h-364l-330 264v146h-256v204h256v205h-256z" />
    <glyph glyph-name="uni2117" unicode="&#x2117;" 
d="M256 1169l330 265h620l330 -265v-1314l-330 -265h-620l-330 265v1314zM694 1229l-182 -146v-59h438l256 -205h74v264l-182 146h-404zM768 819v-409h74l182 145v119l-182 145h-74zM512 0v-59l182 -146h404l182 146v469h-74l-256 -205h-182v-205h-256z" />
    <glyph glyph-name="Omega" unicode="&#x2126;" 
d="M256 1169l330 265h620l330 -265v-700l-256 -205v-59h256v-205h-512v350l256 205v528l-182 146h-404l-182 -146v-528l256 -205v-350h-512v205h256v59l-256 205v700z" />
    <glyph glyph-name="uni2127" unicode="&#x2127;" 
d="M256 1229v205h512v-351l-256 -204v-529l182 -145h404l182 145v529l-256 204v351h512v-205h-256v-60l256 -204v-701l-330 -264h-620l-330 264v701l256 204v60h-256z" />
    <glyph glyph-name="uni2129" unicode="&#x2129;" 
d="M512 879v145h182l330 -264v-555h256v-205h-512v674z" />
    <glyph glyph-name="uni2132" unicode="&#x2132;" 
d="M256 0v205h1024v409h-768v205h768v615h256v-1434h-1280z" />
    <glyph glyph-name="uni214B" unicode="&#x214b;" 
d="M256 1288v146h182l202 -162l202 162h364l330 -265v-290l-202 -162l202 -162v-291l-330 -264h-108l-330 264v291l202 162l-330 264l-202 -162h-182v146l202 161zM950 1229l-128 -103l330 -264l128 103v118l-182 146h-148zM1024 469v-119l128 -102l128 102v119l-128 102z
" />
    <glyph glyph-name="uni214E" unicode="&#x214e;" 
d="M256 0v205h1024v205h-768v204h768v410h256v-1024h-1280z" />
    <glyph glyph-name="uni2150" unicode="&#x2150;" 
d="M256 1434h256v-1024h-256v1024zM768 410v204h768v-350l-512 -409v-265h-256v351l512 409v60h-512z" />
    <glyph glyph-name="uni2151" unicode="&#x2151;" 
d="M256 1434h256v-1024h-256v1024zM768 264v86l330 264h108l330 -264v-495l-330 -265h-182v146l256 205v59h-182zM1206 205h74v59l-128 103l-74 -60z" />
    <glyph glyph-name="uni2152" unicode="&#x2152;" 
d="M256 410h256v-820h-256v820zM512 1434h256v-820h-256v820zM768 145l330 265h108l330 -265v-290l-330 -265h-108l-330 265v290zM1024 59v-118l128 -103l128 103v118l-128 103z" />
    <glyph glyph-name="onethird" unicode="&#x2153;" 
d="M256 1434h256v-1024h-256v1024zM768 410v204h438l330 -264v-86l-202 -162l202 -161v-86l-330 -265h-438v205h330l128 103l-128 102h-330v205h330l128 102l-128 103h-330z" />
    <glyph glyph-name="twothirds" unicode="&#x2154;" 
d="M256 1288v146h182l330 -265v-290l-256 -205v-60h256v-204h-512v350l256 205v118zM1024 469v145h182l330 -264v-86l-202 -162l202 -161v-86l-330 -265h-182v146l202 162l-202 161v86l202 162z" />
    <glyph glyph-name="uni2155" unicode="&#x2155;" 
d="M256 1434h256v-1024h-256v1024zM768 614h768v-204h-512v-205h182l330 -264v-86l-330 -265h-438v205h330l128 103l-128 102h-330v614z" />
    <glyph glyph-name="uni2156" unicode="&#x2156;" 
d="M256 1288v146h182l330 -265v-290l-256 -205v-60h256v-204h-512v350l256 205v118zM1024 614h512v-204h-256v-205h256v-350l-330 -265h-182v146l256 205v59h-256v614z" />
    <glyph glyph-name="uni2157" unicode="&#x2157;" 
d="M256 1288v146h182l330 -265v-86l-202 -161l202 -162v-86l-330 -264h-182v145l202 162l-202 162v86l202 161zM1024 614h512v-204h-256v-205h256v-350l-330 -265h-182v146l256 205v59h-256v614z" />
    <glyph glyph-name="uni2158" unicode="&#x2158;" 
d="M256 965l330 264h182v205h256v-820h512v-204h-256v-205h256v-350l-330 -265h-182v146l256 205v59h-256v410h-256v204h-512v351zM694 1024l-182 -145v-60h256v205h-74z" />
    <glyph glyph-name="uni2159" unicode="&#x2159;" 
d="M256 1434h256v-1024h-256v1024zM768 350l330 264h182v-145l-256 -205v-59h182l330 -264v-86l-330 -265h-108l-330 265v495zM1024 0v-59l128 -103l74 60l-128 102h-74z" />
    <glyph glyph-name="uni215A" unicode="&#x215a;" 
d="M256 1434h512v-205h-256v-205h256v-350l-330 -264h-182v145l256 205v59h-256v615zM768 350l330 264h182v-145l-256 -205v-59h182l330 -264v-86l-330 -265h-108l-330 265v495zM1024 0v-59l128 -103l74 60l-128 102h-74z" />
    <glyph glyph-name="oneeighth" unicode="&#x215b;" 
d="M256 1434h256v-1024h-256v1024zM768 264v86l330 264h108l330 -264v-86l-202 -162l202 -161v-86l-330 -265h-108l-330 265v86l202 161zM1152 248l74 59l-74 60l-74 -60zM1152 -162l74 60l-74 59l-74 -59z" />
    <glyph glyph-name="threeeighths" unicode="&#x215c;" 
d="M256 1288v146h182l330 -265v-86l-202 -161l202 -162v-86l-330 -264h-182v145l202 162l-202 162v86l202 161zM768 264v86l330 264h108l330 -264v-86l-202 -162l202 -161v-86l-330 -265h-108l-330 265v86l202 161zM1152 248l74 59l-74 60l-74 -60zM1152 -162l74 60l-74 59
l-74 -59z" />
    <glyph glyph-name="fiveeighths" unicode="&#x215d;" 
d="M256 1434h512v-205h-256v-205h256v-350l-330 -264h-182v145l256 205v59h-256v615zM768 264v86l330 264h108l330 -264v-86l-202 -162l202 -161v-86l-330 -265h-108l-330 265v86l202 161zM1152 248l74 59l-74 60l-74 -60zM1152 -162l74 60l-74 59l-74 -59z" />
    <glyph glyph-name="seveneighths" unicode="&#x215e;" 
d="M256 1229v205h768v-351l-512 -409v-264h-256v350l512 409v60h-512zM768 264v86l330 264h108l330 -264v-86l-202 -162l202 -161v-86l-330 -265h-108l-330 265v86l202 161zM1152 248l74 59l-74 60l-74 -60zM1152 -162l74 60l-74 59l-74 -59z" />
    <glyph glyph-name="uni2189" unicode="&#x2189;" 
d="M256 1169l330 265h108l330 -265v-290l-330 -265h-108l-330 265v290zM512 1083v-118l128 -103l128 103v118l-128 103zM1024 469v145h182l330 -264v-86l-202 -162l202 -161v-86l-330 -265h-182v146l202 162l-202 161v86l202 162z" />
    <glyph glyph-name="uni218A" unicode="&#x218a;" 
d="M256 1229v205h1280v-351l-586 -469h-256l-182 -145v-119l182 -145h404l256 205h182v-146l-330 -264h-620l-330 264v291l330 264h256l438 350v60h-1024z" />
    <glyph glyph-name="uni218B" unicode="&#x218b;" 
d="M256 1169l330 265h620l330 -265v-145h-182l-256 205h-404l-182 -146v-118l182 -146h330v-205h-256v-145l-256 -205v-59h1024v-205h-1280v350l256 205v119l-256 205v290z" />
    <glyph glyph-name="arrowleft" unicode="&#x2190;" 
d="M256 614v205h256v146l330 264h182v-146l-256 -204v-60h768v-205h-768v-59l256 -205v-145h-182l-330 264v145h-256z" />
    <glyph glyph-name="arrowup" unicode="&#x2191;" 
d="M256 614v146l330 264h182v205h256v-205h182l330 -264v-146h-182l-256 205h-74v-614h-256v614h-74l-256 -205h-182z" />
    <glyph glyph-name="arrowright" unicode="&#x2192;" 
d="M256 614v205h768v60l-256 204v146h182l330 -264v-146h256v-205h-256v-145l-330 -264h-182v145l256 205v59h-768z" />
    <glyph glyph-name="arrowdown" unicode="&#x2193;" 
d="M256 674v145h182l256 -205h74v615h256v-615h74l256 205h182v-145l-330 -264h-182v-205h-256v205h-182z" />
    <glyph glyph-name="arrowboth" unicode="&#x2194;" 
d="M256 965l330 264h182v-146l-256 -204v-60h768v60l-256 204v146h182l330 -264v-496l-330 -264h-182v145l256 205v59h-768v-59l256 -205v-145h-182l-330 264v496z" />
    <glyph glyph-name="arrowupdn" unicode="&#x2195;" 
d="M256 819v146l330 264h182v205h256v-205h182l330 -264v-146h-182l-256 205h-74v-614h74l256 204h182v-145l-330 -264h-182v-205h-256v205h-182l-330 264v145h182l256 -204h74v614h-74l-256 -205h-182z" />
    <glyph glyph-name="uni2196" unicode="&#x2196;" 
d="M256 1229h1024v-205h-512v-59l768 -615v-145h-182l-768 614h-74v-409h-256v819z" />
    <glyph glyph-name="uni2197" unicode="&#x2197;" 
d="M256 205v145l768 615v59h-512v205h1024v-819h-256v409h-74l-768 -614h-182z" />
    <glyph glyph-name="uni2198" unicode="&#x2198;" 
d="M256 1083v146h182l768 -615h74v410h256v-819h-1024v205h512v59z" />
    <glyph glyph-name="uni2199" unicode="&#x2199;" 
d="M256 1024h256v-410h74l768 615h182v-146l-768 -614v-59h512v-205h-1024v819z" />
    <glyph glyph-name="uni21A4" unicode="&#x21a4;" 
d="M256 614v205h256v146l330 264h182v-146l-256 -204v-60h512v410h256v-1024h-256v409h-512v-59l256 -205v-145h-182l-330 264v145h-256z" />
    <glyph glyph-name="uni21A5" unicode="&#x21a5;" 
d="M256 614v146l330 264h182v205h256v-205h182l330 -264v-146h-182l-256 205h-74v-409h512v-205h-1280v205h512v409h-74l-256 -205h-182z" />
    <glyph glyph-name="uni21A6" unicode="&#x21a6;" 
d="M256 1229h256v-410h512v60l-256 204v146h182l330 -264v-146h256v-205h-256v-145l-330 -264h-182v145l256 205v59h-512v-409h-256v1024z" />
    <glyph glyph-name="uni21A7" unicode="&#x21a7;" 
d="M256 1024v205h1280v-205h-512v-410h74l256 205h182v-145l-330 -264h-182v-205h-256v205h-182l-330 264v145h182l256 -205h74v410h-512z" />
    <glyph glyph-name="arrowupdnbse" unicode="&#x21a8;" 
d="M256 819v146l330 264h182v205h256v-205h182l330 -264v-146h-182l-256 205h-74v-614h74l256 204h182v-145l-256 -205v-59h256v-205h-1280v205h256v59l-256 205v145h182l256 -204h74v614h-74l-256 -205h-182z" />
    <glyph glyph-name="uni21B4" unicode="&#x21b4;" 
d="M256 1024v205h768v-615h74l256 205h182v-145l-330 -264h-182v-205h-256v205h-182l-330 264v145h182l256 -205h74v410h-512z" />
    <glyph glyph-name="carriagereturn" unicode="&#x21b5;" 
d="M256 614v205h256v146l330 264h182v-146l-256 -204v-60h512v615h256v-820h-768v-59l256 -205v-145h-182l-330 264v145h-256z" />
    <glyph glyph-name="uni21B9" unicode="&#x21b9;" 
d="M256 1434h256v-205h74l256 205h182v-146l-256 -205v-59h768v-205h-768v-59l438 -350h74v204h256v-1024h-256v205h-74l-256 -205h-182v146l256 205v59h-768v205h768v59l-438 350h-74v-204h-256v1024z" />
    <glyph glyph-name="uni21BC" unicode="&#x21bc;" 
d="M256 614v205h256v146l330 264h182v-146l-256 -204v-60h768v-205h-1280z" />
    <glyph glyph-name="uni21BD" unicode="&#x21bd;" 
d="M256 614v205h1280v-205h-768v-59l256 -205v-145h-182l-330 264v145h-256z" />
    <glyph glyph-name="uni21BE" unicode="&#x21be;" 
d="M768 1229h256v-205h182l330 -264v-146h-182l-256 205h-74v-614h-256v1024z" />
    <glyph glyph-name="uni21BF" unicode="&#x21bf;" 
d="M256 614v146l330 264h182v205h256v-1024h-256v614h-74l-256 -205h-182z" />
    <glyph glyph-name="uni21C0" unicode="&#x21c0;" 
d="M256 614v205h768v60l-256 204v146h182l330 -264v-146h256v-205h-1280z" />
    <glyph glyph-name="uni21C1" unicode="&#x21c1;" 
d="M256 614v205h1280v-205h-256v-145l-330 -264h-182v145l256 205v59h-768z" />
    <glyph glyph-name="uni21C2" unicode="&#x21c2;" 
d="M768 1229h256v-615h74l256 205h182v-145l-330 -264h-182v-205h-256v1024z" />
    <glyph glyph-name="uni21C3" unicode="&#x21c3;" 
d="M256 674v145h182l256 -205h74v615h256v-1024h-256v205h-182z" />
    <glyph glyph-name="uni21CB" unicode="&#x21cb;" 
d="M256 819v205h256v145l330 265h182v-146l-256 -205v-59h768v-205h-1280zM256 410v204h1280v-204h-256v-146l-330 -264h-182v145l256 205v60h-768z" />
    <glyph glyph-name="uni21CC" unicode="&#x21cc;" 
d="M256 819v205h768v59l-256 205v146h182l330 -265v-145h256v-205h-1280zM256 410v204h1280v-204h-768v-60l256 -205v-145h-182l-330 264v146h-256z" />
    <glyph glyph-name="arrowdblleft" unicode="&#x21d0;" 
d="M256 674v86l586 469h438v-205h256v-205h-512v205h-74l-384 -307l384 -307h74v204h512v-204h-256v-205h-438z" />
    <glyph glyph-name="arrowdblup" unicode="&#x21d1;" 
d="M256 965l586 469h108l586 -469v-351h-256v-614h-256v819h256v60l-384 307l-384 -307v-60h256v-819h-256v614h-256v351z" />
    <glyph glyph-name="arrowdblright" unicode="&#x21d2;" 
d="M256 819v205h256v205h438l586 -469v-86l-586 -469h-438v205h-256v204h512v-204h74l384 307l-384 307h-74v-205h-512z" />
    <glyph glyph-name="arrowdbldown" unicode="&#x21d3;" 
d="M256 819h256v615h256v-820h-256v-59l384 -307l384 307v59h-256v820h256v-615h256v-350l-586 -469h-108l-586 469v350z" />
    <glyph glyph-name="uni21E4" unicode="&#x21e4;" 
d="M256 1229h256v-205h74l256 205h182v-146l-256 -204v-60h768v-205h-768v-59l256 -205v-145h-182l-256 205h-74v-205h-256v1024z" />
    <glyph glyph-name="uni21E5" unicode="&#x21e5;" 
d="M256 614v205h768v60l-256 204v146h182l256 -205h74v205h256v-1024h-256v205h-74l-256 -205h-182v145l256 205v59h-768z" />
    <glyph glyph-name="uni21E6" unicode="&#x21e6;" 
d="M256 674v86l586 469h438v-205h256v-614h-256v-205h-438zM566 717l384 -307h74v204h256v205h-256v205h-74z" />
    <glyph glyph-name="uni21E7" unicode="&#x21e7;" 
d="M256 965l586 469h108l586 -469v-351h-256v-614h-768v614h-256v351zM512 879v-60h256v-614h256v614h256v60l-384 307z" />
    <glyph glyph-name="uni21E8" unicode="&#x21e8;" 
d="M256 1024h256v205h438l586 -469v-86l-586 -469h-438v205h-256v614zM512 819v-205h256v-204h74l384 307l-384 307h-74v-205h-256z" />
    <glyph glyph-name="uni21E9" unicode="&#x21e9;" 
d="M256 819h256v615h768v-615h256v-350l-586 -469h-108l-586 469v350zM512 614v-59l384 -307l384 307v59h-256v615h-256v-615h-256z" />
    <glyph glyph-name="uni21EA" unicode="&#x21ea;" 
d="M256 965l586 469h108l586 -469v-351h-256v-614h-768v614h-256v351zM512 879v-60h256v-205h256v205h256v60l-384 307zM768 410v-205h256v205h-256z" />
    <glyph glyph-name="partialdiff" unicode="&#x2202;" 
d="M256 1024v145l330 265h620l330 -265v-905l-330 -264h-620l-330 264v291l330 264h694v264l-182 146h-404l-256 -205h-182zM694 614l-182 -145v-119l182 -145h404l182 145v264h-586z" />
    <glyph glyph-name="Delta" unicode="&#x2206;" 
d="M512 760v205l256 204v265h256v-265l256 -204v-205l256 -205v-555h-1280v555zM768 674l-256 -205v-264h768v264l-256 205v205l-128 102l-128 -102v-205z" />
    <glyph glyph-name="gradient" unicode="&#x2207;" 
d="M256 1434h1280v-555l-256 -205v-205l-256 -205v-264h-256v264l-256 205v205l-256 205v555zM512 1229v-264l256 -205v-205l128 -102l128 102v205l256 205v264h-768z" />
    <glyph glyph-name="element" unicode="&#x2208;" 
d="M256 1169l330 265h950v-205h-842l-182 -146v-264h1024v-205h-1024v-264l182 -145h842v-205h-950l-330 264v905z" />
    <glyph glyph-name="uni220A" unicode="&#x220a;" 
d="M256 965l330 264h950v-205h-842l-182 -145v-60h1024v-205h-1024v-59l182 -145h842v-205h-950l-330 264v496z" />
    <glyph glyph-name="suchthat" unicode="&#x220b;" 
d="M256 1229v205h950l330 -265v-905l-330 -264h-950v205h842l182 145v264h-1024v205h1024v264l-182 146h-842z" />
    <glyph glyph-name="uni220D" unicode="&#x220d;" 
d="M256 1024v205h950l330 -264v-496l-330 -264h-950v205h842l182 145v59h-1024v205h1024v60l-182 145h-842z" />
    <glyph glyph-name="product" unicode="&#x220f;" 
d="M256 1434h1280v-1844h-256v1639h-768v-1639h-256v1844z" />
    <glyph glyph-name="uni2210" unicode="&#x2210;" 
d="M256 1434h256v-1639h768v1639h256v-1844h-1280v1844z" />
    <glyph glyph-name="summation" unicode="&#x2211;" 
d="M256 1434h1280v-205h-1024v-60l768 -614v-86l-768 -614v-60h1024v-205h-1280v351l714 571l-714 571v351z" />
    <glyph glyph-name="minus" unicode="&#x2212;" 
d="M256 614v205h1280v-205h-1280z" />
    <glyph glyph-name="uni2213" unicode="&#x2213;" 
d="M256 1229v205h1280v-205h-1280zM256 410v204h512v410h256v-410h512v-204h-512v-410h-256v410h-512z" />
    <glyph glyph-name="uni2214" unicode="&#x2214;" 
d="M256 410v204h512v410h256v-410h512v-204h-512v-410h-256v410h-512zM768 1229v205h256v-205h-256z" />
    <glyph glyph-name="uni2218" unicode="&#x2218;" 
d="M512 760l330 264h108l330 -264v-291l-330 -264h-108l-330 264v291zM768 674v-119l128 -102l128 102v119l-128 102z" />
    <glyph glyph-name="uni2219" unicode="&#x2219;" 
d="M512 614v205h256v205h256v-205h256v-205h-256v-204h-256v204h-256z" />
    <glyph glyph-name="radical" unicode="&#x221a;" 
d="M256 469v145h182l256 -204h74v1024h768v-205h-512v-1229h-256v205h-182z" />
    <glyph glyph-name="uni221B" unicode="&#x221b;" 
d="M256 1288v146h182l330 -265v-86l-202 -161l202 -162v-86l-330 -264h-182v145l202 162l-202 162v86l202 161zM768 205v205h256v1024h512v-205h-256v-1229h-256v205h-256z" />
    <glyph glyph-name="uni221C" unicode="&#x221c;" 
d="M256 1169l330 265h438v-820h-256v205h-512v350zM694 1229l-182 -146v-59h256v205h-74zM1024 205v205h256v1024h256v-1434h-256v205h-256z" />
    <glyph glyph-name="proportional" unicode="&#x221d;" 
d="M256 965l330 264h108l202 -162l202 162h108l330 -264v-146h-182l-202 162l-128 -102v-324l128 -102l202 161h182v-145l-330 -264h-108l-202 162l-202 -162h-108l-330 264v496zM512 879v-324l128 -102l128 102v324l-128 102z" />
    <glyph glyph-name="infinity" unicode="&#x221e;" 
d="M256 965l330 264h108l202 -162l202 162h108l330 -264v-496l-330 -264h-108l-202 162l-202 -162h-108l-330 264v496zM512 879v-324l128 -102l128 102v324l-128 102zM1024 879v-324l128 -102l128 102v324l-128 102z" />
    <glyph glyph-name="orthogonal" unicode="&#x221f;" 
d="M256 1229h256v-819h1024v-205h-1280v1024z" />
    <glyph glyph-name="uni2223" unicode="&#x2223;" 
d="M768 1434h256v-1434h-256v1434z" />
    <glyph glyph-name="uni2225" unicode="&#x2225;" 
d="M512 1434h256v-1434h-256v1434zM1024 1434h256v-1434h-256v1434z" />
    <glyph glyph-name="logicaland" unicode="&#x2227;" 
d="M256 410v145l586 469h108l586 -469v-145h-182l-458 366l-458 -366h-182z" />
    <glyph glyph-name="logicalor" unicode="&#x2228;" 
d="M256 879v145h182l458 -367l458 367h182v-145l-586 -469h-108z" />
    <glyph glyph-name="intersection" unicode="&#x2229;" 
d="M256 965l330 264h620l330 -264v-760h-256v674l-182 145h-404l-182 -145v-674h-256v760z" />
    <glyph glyph-name="union" unicode="&#x222a;" 
d="M256 1229h256v-674l182 -145h404l182 145v674h256v-760l-330 -264h-620l-330 264v760z" />
    <glyph glyph-name="integral" unicode="&#x222b;" 
d="M256 -145v145h182l202 -162l128 103v1228l330 265h108l330 -265v-145h-182l-202 162l-128 -103v-1228l-330 -265h-108z" />
    <glyph glyph-name="uni222E" unicode="&#x222e;" 
d="M256 469v86l330 264h182v350l330 265h108l330 -265v-145h-182l-202 162l-128 -103v-264h182l330 -264v-86l-330 -264h-182v-350l-330 -265h-108l-330 265v145h182l202 -162l128 103v264h-182zM694 410h74v204h-74l-128 -102zM1024 614v-204h74l128 102l-128 102h-74z" />
    <glyph glyph-name="therefore" unicode="&#x2234;" 
d="M256 205v205h256v-205h-256zM768 1024v205h256v-205h-256zM1280 205v205h256v-205h-256z" />
    <glyph glyph-name="uni2235" unicode="&#x2235;" 
d="M256 1024v205h256v-205h-256zM768 205v205h256v-205h-256zM1280 1024v205h256v-205h-256z" />
    <glyph glyph-name="uni2238" unicode="&#x2238;" 
d="M256 614v205h1280v-205h-1280zM768 1024v205h256v-205h-256z" />
    <glyph glyph-name="uni223A" unicode="&#x223a;" 
d="M256 1024v205h256v-205h-256zM256 614v205h1280v-205h-1280zM256 205v205h256v-205h-256zM1280 1024v205h256v-205h-256zM1280 205v205h256v-205h-256z" />
    <glyph glyph-name="similar" unicode="&#x223c;" 
d="M256 614v146l330 264h108l458 -367l202 162h182v-145l-330 -264h-108l-458 366l-202 -162h-182z" />
    <glyph glyph-name="uni223D" unicode="&#x223d;" 
d="M256 674v145h182l202 -162l458 367h108l330 -264v-146h-182l-202 162l-458 -366h-108z" />
    <glyph glyph-name="uni223F" unicode="&#x223f;" 
d="M256 965l330 264h108l330 -264v-410l128 -102l128 102v264h256v-350l-330 -264h-108l-330 264v410l-128 102l-128 -102v-265h-256v351z" />
    <glyph glyph-name="uni2242" unicode="&#x2242;" 
d="M256 1024v205h1280v-205h-1280zM256 410v145l330 264h108l458 -366l202 161h182v-145l-330 -264h-108l-458 366l-202 -161h-182z" />
    <glyph glyph-name="uni2243" unicode="&#x2243;" 
d="M256 819v146l330 264h108l458 -367l202 162h182v-145l-330 -265h-108l-458 367l-202 -162h-182zM256 205v205h1280v-205h-1280z" />
    <glyph glyph-name="congruent" unicode="&#x2245;" 
d="M256 1024v145l330 265h108l458 -367l202 162h182v-146l-330 -264h-108l-458 367l-202 -162h-182zM256 410v204h1280v-204h-1280zM256 0v205h1280v-205h-1280z" />
    <glyph glyph-name="approxequal" unicode="&#x2248;" 
d="M256 819v146l330 264h108l458 -367l202 162h182v-145l-330 -265h-108l-458 367l-202 -162h-182zM256 205v145l330 264h108l458 -366l202 162h182v-146l-330 -264h-108l-458 367l-202 -162h-182z" />
    <glyph glyph-name="uni224C" unicode="&#x224c;" 
d="M256 1083v146h182l202 -162l458 367h108l330 -265v-145h-182l-202 162l-458 -367h-108zM256 410v204h1280v-204h-1280zM256 0v205h1280v-205h-1280z" />
    <glyph glyph-name="uni224D" unicode="&#x224d;" 
d="M256 1083v146h182l256 -205h404l256 205h182v-146l-330 -264h-620zM256 205v145l330 264h620l330 -264v-145h-182l-256 205h-404l-256 -205h-182z" />
    <glyph glyph-name="uni224E" unicode="&#x224e;" 
d="M256 819v205h330l256 205h108l256 -205h330v-205h-438l-202 162l-202 -162h-438zM256 410v204h438l202 -161l202 161h438v-204h-330l-256 -205h-108l-256 205h-330z" />
    <glyph glyph-name="uni224F" unicode="&#x224f;" 
d="M256 819v205h330l256 205h108l256 -205h330v-205h-438l-202 162l-202 -162h-438zM256 410v204h1280v-204h-1280z" />
    <glyph glyph-name="uni2250" unicode="&#x2250;" 
d="M256 819v205h1280v-205h-1280zM256 410v204h1280v-204h-1280zM768 1229v205h256v-205h-256z" />
    <glyph glyph-name="uni2251" unicode="&#x2251;" 
d="M256 819v205h1280v-205h-1280zM256 410v204h1280v-204h-1280zM768 1229v205h256v-205h-256zM768 0v205h256v-205h-256z" />
    <glyph glyph-name="uni2252" unicode="&#x2252;" 
d="M256 1229v205h256v-205h-256zM256 819v205h1280v-205h-1280zM256 410v204h1280v-204h-1280zM1280 0v205h256v-205h-256z" />
    <glyph glyph-name="uni2253" unicode="&#x2253;" 
d="M256 819v205h1280v-205h-1280zM256 410v204h1280v-204h-1280zM256 0v205h256v-205h-256zM1280 1229v205h256v-205h-256z" />
    <glyph glyph-name="uni2258" unicode="&#x2258;" 
d="M256 1024v145l330 265h620l330 -265v-145h-182l-256 205h-404l-256 -205h-182zM256 614v205h1280v-205h-1280zM256 205v205h1280v-205h-1280z" />
    <glyph glyph-name="uni225E" unicode="&#x225e;" 
d="M256 1434h438l202 -162l202 162h108l330 -265v-350h-256v264l-128 103l-128 -103v-264h-256v264l-182 146h-74v-410h-256v615zM256 410v204h1280v-204h-1280zM256 0v205h1280v-205h-1280z" />
    <glyph glyph-name="notequal" unicode="&#x2260;" 
d="M256 819v205h768v205h256v-205h256v-205h-512v-205h512v-204h-768v-205h-256v205h-256v204h512v205h-512z" />
    <glyph glyph-name="equivalence" unicode="&#x2261;" 
d="M256 1024v205h1280v-205h-1280zM256 614v205h1280v-205h-1280zM256 205v205h1280v-205h-1280z" />
    <glyph glyph-name="uni2262" unicode="&#x2262;" 
d="M256 1024v205h768v205h256v-205h256v-205h-512v-205h512v-205h-512v-204h512v-205h-768v-205h-256v205h-256v205h512v204h-512v205h512v205h-512z" />
    <glyph glyph-name="lessequal" unicode="&#x2264;" 
d="M256 879v86l330 264h256l256 205h438v-205h-330l-256 -205h-256l-128 -102l128 -103h256l256 -205h330v-204h-438l-256 204h-256zM256 205v205h438l256 -205h586v-205h-694l-256 205h-330z" />
    <glyph glyph-name="greaterequal" unicode="&#x2265;" 
d="M256 1229v205h438l256 -205h256l330 -264v-86l-330 -265h-256l-256 -204h-438v204h330l256 205h256l128 103l-128 102h-256l-256 205h-330zM256 0v205h586l256 205h438v-205h-330l-256 -205h-694z" />
    <glyph glyph-name="uni226C" unicode="&#x226c;" 
d="M512 1288v146h182l202 -162l202 162h182v-146l-202 -162l202 -161v-496l-202 -162l202 -162v-145h-182l-202 162l-202 -162h-182v145l202 162l-202 162v496l202 161zM768 879v-324l128 -102l128 102v324l-128 102z" />
    <glyph glyph-name="propersubset" unicode="&#x2282;" 
d="M256 965l330 264h950v-205h-842l-182 -145v-324l182 -145h842v-205h-950l-330 264v496z" />
    <glyph glyph-name="propersuperset" unicode="&#x2283;" 
d="M256 1024v205h950l330 -264v-496l-330 -264h-950v205h842l182 145v324l-182 145h-842z" />
    <glyph glyph-name="reflexsubset" unicode="&#x2286;" 
d="M256 1169l330 265h950v-205h-842l-182 -146v-323l182 -146h842v-204h-950l-330 264v495zM256 0v205h1280v-205h-1280z" />
    <glyph glyph-name="reflexsuperset" unicode="&#x2287;" 
d="M256 1229v205h950l330 -265v-495l-330 -264h-950v204h842l182 146v323l-182 146h-842zM256 0v205h1280v-205h-1280z" />
    <glyph glyph-name="uni228D" unicode="&#x228d;" 
d="M256 1229h256v-674l182 -145h404l182 145v674h256v-760l-330 -264h-620l-330 264v760zM768 614v205h256v-205h-256z" />
    <glyph glyph-name="uni228F" unicode="&#x228f;" 
d="M256 1229h1280v-205h-1024v-614h1024v-205h-1280v1024z" />
    <glyph glyph-name="uni2290" unicode="&#x2290;" 
d="M256 1024v205h1280v-1024h-1280v205h1024v614h-1024z" />
    <glyph glyph-name="uni2291" unicode="&#x2291;" 
d="M256 1434h1280v-205h-1024v-615h1024v-204h-1280v1024zM256 0v205h1280v-205h-1280z" />
    <glyph glyph-name="uni2292" unicode="&#x2292;" 
d="M256 1229v205h1280v-1024h-1280v204h1024v615h-1024zM256 0v205h1280v-205h-1280z" />
    <glyph glyph-name="uni2293" unicode="&#x2293;" 
d="M256 1229h1280v-1024h-256v819h-768v-819h-256v1024z" />
    <glyph glyph-name="uni2294" unicode="&#x2294;" 
d="M256 1229h256v-819h768v819h256v-1024h-1280v1024z" />
    <glyph glyph-name="circleplus" unicode="&#x2295;" 
d="M256 965l330 264h620l330 -264v-496l-330 -264h-620l-330 264v496zM694 1024l-182 -145v-60h256v205h-74zM512 614v-59l182 -145h74v204h-256zM1024 1024v-205h256v60l-182 145h-74zM1024 614v-204h74l182 145v59h-256z" />
    <glyph glyph-name="uni2296" unicode="&#x2296;" 
d="M256 965l330 264h620l330 -264v-496l-330 -264h-620l-330 264v496zM694 1024l-182 -145v-60h768v60l-182 145h-404zM512 614v-59l182 -145h404l182 145v59h-768z" />
    <glyph glyph-name="uni2299" unicode="&#x2299;" 
d="M256 965l330 264h620l330 -264v-496l-330 -264h-620l-330 264v496zM694 1024l-182 -145v-324l182 -145h404l182 145v324l-182 145h-404zM768 614v205h256v-205h-256z" />
    <glyph glyph-name="uni229E" unicode="&#x229e;" 
d="M256 1229h1280v-1024h-1280v1024zM512 1024v-205h256v205h-256zM512 614v-204h256v204h-256zM1024 1024v-205h256v205h-256zM1024 614v-204h256v204h-256z" />
    <glyph glyph-name="uni229F" unicode="&#x229f;" 
d="M256 1229h1280v-1024h-1280v1024zM512 1024v-205h768v205h-768zM512 614v-204h768v204h-768z" />
    <glyph glyph-name="uni22A1" unicode="&#x22a1;" 
d="M256 1229h1280v-1024h-1280v1024zM512 1024v-614h768v614h-768zM768 614v205h256v-205h-256z" />
    <glyph glyph-name="uni22A2" unicode="&#x22a2;" 
d="M256 1229h256v-410h1024v-205h-1024v-409h-256v1024z" />
    <glyph glyph-name="uni22A3" unicode="&#x22a3;" 
d="M256 614v205h1024v410h256v-1024h-256v409h-1024z" />
    <glyph glyph-name="uni22A4" unicode="&#x22a4;" 
d="M256 1024v205h1280v-205h-512v-819h-256v819h-512z" />
    <glyph glyph-name="perpendicular" unicode="&#x22a5;" 
d="M256 205v205h512v819h256v-819h512v-205h-1280z" />
    <glyph glyph-name="uni22A6" unicode="&#x22a6;" 
d="M512 1229h256v-410h512v-205h-512v-409h-256v1024z" />
    <glyph glyph-name="uni22A7" unicode="&#x22a7;" 
d="M512 1229h256v-205h512v-205h-512v-205h512v-204h-512v-205h-256v1024z" />
    <glyph glyph-name="uni22A8" unicode="&#x22a8;" 
d="M256 1229h256v-205h1024v-205h-1024v-205h1024v-204h-1024v-205h-256v1024z" />
    <glyph glyph-name="uni22A9" unicode="&#x22a9;" 
d="M256 1229h256v-1024h-256v1024zM768 1229h256v-410h512v-205h-512v-409h-256v1024z" />
    <glyph glyph-name="uni22AB" unicode="&#x22ab;" 
d="M256 1229h256v-1024h-256v1024zM768 1229h256v-205h512v-205h-512v-205h512v-204h-512v-205h-256v1024z" />
    <glyph glyph-name="uni22C2" unicode="&#x22c2;" 
d="M256 1169l330 265h620l330 -265v-1579h-256v1493l-182 146h-404l-182 -146v-1493h-256v1579z" />
    <glyph glyph-name="uni22C3" unicode="&#x22c3;" 
d="M256 1434h256v-1493l182 -146h404l182 146v1493h256v-1579l-330 -265h-620l-330 265v1579z" />
    <glyph glyph-name="uni22C4" unicode="&#x22c4;" 
d="M256 674v86l586 469h108l586 -469v-86l-586 -469h-108zM566 717l330 -264l330 264l-330 264z" />
    <glyph glyph-name="uni22CB" unicode="&#x22cb;" 
d="M256 1083v146h182l1098 -879v-145h-182l-458 366l-458 -366h-182v145l458 367z" />
    <glyph glyph-name="uni22CC" unicode="&#x22cc;" 
d="M256 205v145l1098 879h182v-146l-458 -366l458 -367v-145h-182l-458 366l-458 -366h-182z" />
    <glyph glyph-name="uni22CD" unicode="&#x22cd;" 
d="M256 879v145h182l202 -162l458 367h108l330 -264v-146h-182l-202 162l-458 -367h-108zM256 205v205h1280v-205h-1280z" />
    <glyph glyph-name="uni22D4" unicode="&#x22d4;" 
d="M256 760l330 264h182v410h256v-410h182l330 -264v-760h-256v674l-182 145h-74v-819h-256v819h-74l-182 -145v-674h-256v760z" />
    <glyph glyph-name="uni22DC" unicode="&#x22dc;" 
d="M256 1024v205h330l256 205h694v-205h-586l-256 -205h-438zM256 469v86l330 264h256l256 205h438v-205h-330l-256 -205h-256l-128 -102l128 -102h256l256 -205h330v-205h-438l-256 205h-256z" />
    <glyph glyph-name="uni22DD" unicode="&#x22dd;" 
d="M256 1229v205h694l256 -205h330v-205h-438l-256 205h-586zM256 819v205h438l256 -205h256l330 -264v-86l-330 -264h-256l-256 -205h-438v205h330l256 205h256l128 102l-128 102h-256l-256 205h-330z" />
    <glyph glyph-name="uni22EE" unicode="&#x22ee;" 
d="M768 1024v205h256v-205h-256zM768 614v205h256v-205h-256zM768 205v205h256v-205h-256z" />
    <glyph glyph-name="uni22EF" unicode="&#x22ef;" 
d="M256 614v205h256v-205h-256zM768 614v205h256v-205h-256zM1280 614v205h256v-205h-256z" />
    <glyph glyph-name="uni22F0" unicode="&#x22f0;" 
d="M256 205v205h256v-205h-256zM768 614v205h256v-205h-256zM1280 1024v205h256v-205h-256z" />
    <glyph glyph-name="uni22F1" unicode="&#x22f1;" 
d="M256 1024v205h256v-205h-256zM768 614v205h256v-205h-256zM1280 205v205h256v-205h-256z" />
    <glyph glyph-name="uni22F7" unicode="&#x22f7;" 
d="M256 1229v205h1280v-205h-1280zM256 760l330 264h950v-205h-842l-182 -145v-60h1024v-204h-1024v-60l182 -145h842v-205h-950l-330 264v496z" />
    <glyph glyph-name="uni22F8" unicode="&#x22f8;" 
d="M256 1169l330 265h950v-205h-842l-182 -146v-264h1024v-205h-1024v-264l182 -145h842v-205h-950l-330 264v905zM256 -410v205h1280v-205h-1280z" />
    <glyph glyph-name="uni22FE" unicode="&#x22fe;" 
d="M256 1229v205h1280v-205h-1280zM256 819v205h950l330 -264v-496l-330 -264h-950v205h842l182 145v60h-1024v204h1024v60l-182 145h-842z" />
    <glyph glyph-name="house" unicode="&#x2302;" 
d="M256 965l586 469h108l586 -469v-965h-1280v965zM512 879v-674h768v674l-384 307z" />
    <glyph glyph-name="uni2308" unicode="&#x2308;" 
d="M512 1434h768v-205h-512v-1229h-256v1434z" />
    <glyph glyph-name="uni2309" unicode="&#x2309;" 
d="M512 1229v205h768v-1434h-256v1229h-512z" />
    <glyph glyph-name="uni230A" unicode="&#x230a;" 
d="M512 1434h256v-1229h512v-205h-768v1434z" />
    <glyph glyph-name="uni230B" unicode="&#x230b;" 
d="M512 0v205h512v1229h256v-1434h-768z" />
    <glyph glyph-name="revlogicalnot" unicode="&#x2310;" 
d="M256 1024h1280v-205h-1024v-409h-256v614z" />
    <glyph glyph-name="integraltp" unicode="&#x2320;" 
d="M768 760l330 264h108l330 -264v-146h-182l-202 162l-128 -102v-1084h-256v1170z" />
    <glyph glyph-name="integralbt" unicode="&#x2321;" 
d="M256 264v146h182l202 -162l128 102v1084h256v-1170l-330 -264h-108z" />
    <glyph glyph-name="uni2336" unicode="&#x2336;" 
d="M256 1024v205h1280v-205h-512v-614h512v-205h-1280v205h512v614h-512z" />
    <glyph glyph-name="uni2337" unicode="&#x2337;" 
d="M512 1434h768v-1434h-768v1434zM768 1229v-1024h256v1024h-256z" />
    <glyph glyph-name="uni2338" unicode="&#x2338;" 
d="M256 1434h1280v-1434h-1280v1434zM512 1229v-205h768v205h-768zM512 819v-205h768v205h-768zM512 410v-205h768v205h-768z" />
    <glyph glyph-name="uni2339" unicode="&#x2339;" 
d="M256 1434h1280v-1434h-1280v1434zM512 1229v-410h768v410h-256v-205h-256v205h-256zM512 614v-409h256v205h256v-205h256v409h-768z" />
    <glyph glyph-name="uni233A" unicode="&#x233a;" 
d="M256 1434h1280v-1434h-1280v1434zM512 1229v-205h74l182 145v60h-256zM512 819v-205h182l202 -161l202 161h182v205h-182l-202 162l-202 -162h-182zM512 410v-205h256v59l-182 146h-74zM1024 1229v-60l182 -145h74v205h-256zM1024 205h256v205h-74l-182 -146v-59z" />
    <glyph glyph-name="uni233B" unicode="&#x233b;" 
d="M256 1434h1280v-1434h-1280v1434zM512 1229v-410h74l256 205h108l256 -205h74v410h-768zM512 614v-409h768v409h-74l-256 -204h-108l-256 204h-74zM896 657l74 60l-74 59l-74 -59z" />
    <glyph glyph-name="uni233D" unicode="&#x233d;" 
d="M256 965l330 264h182v205h256v-205h182l330 -264v-496l-330 -264h-182v-205h-256v205h-182l-330 264v496zM694 1024l-182 -145v-324l182 -145h74v614h-74zM1024 1024v-614h74l182 145v324l-182 145h-74z" />
    <glyph glyph-name="uni233F" unicode="&#x233f;" 
d="M256 205v145l458 367l-202 162v145h182l202 -162l458 367h182v-146l-458 -366l202 -162v-145h-182l-202 161l-458 -366h-182z" />
    <glyph glyph-name="uni2340" unicode="&#x2340;" 
d="M256 1083v146h182l458 -367l202 162h182v-145l-202 -162l458 -367v-145h-182l-458 366l-202 -161h-182v145l202 162z" />
    <glyph glyph-name="uni2341" unicode="&#x2341;" 
d="M256 1434h1280v-1434h-1280v1434zM512 1229v-615h74l512 410h182v205h-768zM512 410v-205h768v614h-74l-512 -409h-182z" />
    <glyph glyph-name="uni2342" unicode="&#x2342;" 
d="M256 1434h1280v-1434h-1280v1434zM512 1229v-205h182l512 -410h74v615h-768zM512 819v-614h768v205h-182l-512 409h-74z" />
    <glyph glyph-name="uni2349" unicode="&#x2349;" 
d="M256 1083v146h182l202 -162l202 162h364l330 -264v-291l-202 -162l202 -162v-145h-182l-202 162l-202 -162h-364l-330 264v291l202 162zM512 674v-119l182 -145h148l128 102l-330 264zM950 1024l-128 -102l330 -265l128 103v119l-182 145h-148z" />
    <glyph glyph-name="uni234A" unicode="&#x234a;" 
d="M256 410v204h512v820h256v-820h512v-204h-1280zM256 0v205h1280v-205h-1280z" />
    <glyph glyph-name="uni234B" unicode="&#x234b;" 
d="M512 760v205l256 204v265h256v-265l256 -204v-205l256 -205v-555h-512v-410h-256v410h-512v555zM512 469v-264h256v264l-128 102zM768 879v-119l128 -103l128 103v119l-128 102zM1024 205h256v264l-128 102l-128 -102v-264z" />
    <glyph glyph-name="uni234E" unicode="&#x234e;" 
d="M256 965l330 264h182v205h256v-205h182l330 -264v-291l-330 -264h-182v-205h512v-205h-1280v205h512v205h-182l-330 264v291zM694 1024l-182 -145v-119l182 -146h74v410h-74zM1024 1024v-410h74l182 146v119l-182 145h-74z" />
    <glyph glyph-name="uni2351" unicode="&#x2351;" 
d="M256 1229v205h1280v-205h-1280zM256 819v205h1280v-205h-512v-819h-256v819h-512z" />
    <glyph glyph-name="uni2352" unicode="&#x2352;" 
d="M256 1024h512v410h256v-410h512v-555l-256 -205v-205l-256 -204v-265h-256v265l-256 204v205l-256 205v555zM512 819v-264l128 -102l128 102v264h-256zM1024 819v-264l128 -102l128 102v264h-256zM768 264v-119l128 -102l128 102v119l-128 103z" />
    <glyph glyph-name="uni2355" unicode="&#x2355;" 
d="M256 1229v205h1280v-205h-512v-205h182l330 -264v-291l-330 -264h-182v-205h-256v205h-182l-330 264v291l330 264h182v205h-512zM694 819l-182 -145v-119l182 -145h74v409h-74zM1024 819v-409h74l182 145v119l-182 145h-74z" />
    <glyph glyph-name="uni2359" unicode="&#x2359;" 
d="M512 760v205l256 204v265h256v-265l256 -204v-205l256 -205v-555h-1280v555zM256 -410v205h1280v-205h-1280zM768 674l-256 -205v-264h768v264l-256 205v205l-128 102l-128 -102v-205z" />
    <glyph glyph-name="uni235D" unicode="&#x235d;" 
d="M256 965l330 264h620l330 -264v-760h-256v409h-74l-256 -204h-108l-256 204h-74v-409h-256v760zM694 1024l-182 -145v-60h74l182 146v59h-74zM1024 1024v-59l182 -146h74v60l-182 145h-74zM896 657l74 60l-74 59l-74 -59z" />
    <glyph glyph-name="uni235E" unicode="&#x235e;" 
d="M256 1434h1280v-1434h-1280v1434zM512 1229v-1024h768v1024h-256v-410h-256v410h-256z" />
    <glyph glyph-name="uni235F" unicode="&#x235f;" 
d="M256 1169l330 265h620l330 -265v-905l-330 -264h-620l-330 264v905zM694 1229l-182 -146v-59h256v205h-74zM512 819v-205h74l182 146v59h-256zM512 410v-60l182 -145h404l182 145v60h-182l-202 161l-202 -161h-182zM1024 1229v-205h256v59l-182 146h-74zM1024 819v-59
l182 -146h74v205h-256z" />
    <glyph glyph-name="uni2360" unicode="&#x2360;" 
d="M256 1434h1280v-1434h-1280v1434zM512 1229v-1024h768v1024h-768zM768 819v205h256v-205h-256zM768 410v204h256v-204h-256z" />
    <glyph glyph-name="uni2363" unicode="&#x2363;" 
d="M256 879v145h182l256 -205h74v205h256v-205h74l256 205h182v-145l-330 -265h-182v-204h182l330 -265v-145h-182l-256 205h-74v-205h-256v205h-74l-256 -205h-182v145l330 265h182v204h-182zM512 1229v205h256v-205h-256zM1024 1229v205h256v-205h-256z" />
    <glyph glyph-name="uni2364" unicode="&#x2364;" 
d="M512 1229v205h256v-205h-256zM512 760l330 264h108l330 -264v-291l-330 -264h-108l-330 264v291zM768 674v-119l128 -102l128 102v119l-128 102zM1024 1229v205h256v-205h-256z" />
    <glyph glyph-name="uni2368" unicode="&#x2368;" 
d="M256 614v146l330 264h108l458 -367l202 162h182v-145l-330 -264h-108l-458 366l-202 -162h-182zM512 1229v205h256v-205h-256zM1024 1229v205h256v-205h-256z" />
    <glyph glyph-name="uni236A" unicode="&#x236a;" 
d="M256 614v205h1280v-205h-1280zM768 -59v264h256v-350l-330 -265h-182v146z" />
    <glyph glyph-name="uni236B" unicode="&#x236b;" 
d="M256 1434h1280v-555l-256 -205v-60h256v-204h-330l-182 -146v-264h-256v264l-182 146h-330v204h256v60l-256 205v555zM512 1229v-264l182 -146h404l182 146v264h-768zM768 614v-59l128 -102l128 102v59h-256z" />
    <glyph glyph-name="uni236C" unicode="&#x236c;" 
d="M256 965l586 469h108l586 -469v-496l-586 -469h-108l-586 469v496zM512 879v-60h768v60l-384 307zM512 614v-59l384 -307l384 307v59h-768z" />
    <glyph glyph-name="uni2371" unicode="&#x2371;" 
d="M256 1024v145l330 265h108l458 -367l202 162h182v-146l-330 -264h-108l-458 367l-202 -162h-182zM256 469v145h182l458 -366l458 366h182v-145l-586 -469h-108z" />
    <glyph glyph-name="uni2372" unicode="&#x2372;" 
d="M256 1024v145l330 265h108l458 -367l202 162h182v-146l-330 -264h-108l-458 367l-202 -162h-182zM256 0v145l586 469h108l586 -469v-145h-182l-458 367l-458 -367h-182z" />
    <glyph glyph-name="uni2373" unicode="&#x2373;" 
d="M512 819v205h512v-674l256 -205v-145h-182l-330 264v555h-256z" />
    <glyph glyph-name="uni2374" unicode="&#x2374;" 
d="M256 760l330 264h620l330 -264v-496l-330 -264h-694v-410h-256v1170zM694 819l-182 -145v-469h586l182 145v324l-182 145h-404z" />
    <glyph glyph-name="uni2375" unicode="&#x2375;" 
d="M256 760l330 264h182v-145l-256 -205v-324l128 -102l128 102v264h256v-264l128 -102l128 102v324l-256 205v145h182l330 -264v-496l-330 -264h-108l-202 162l-202 -162h-108l-330 264v496z" />
    <glyph glyph-name="uni2376" unicode="&#x2376;" 
d="M256 760l330 264h364l202 -162l202 162h182v-145l-256 -205v-324l256 -205v-145h-182l-202 162l-202 -162h-364l-330 264v496zM256 -410v205h1280v-205h-1280zM694 819l-182 -145v-324l182 -145h148l182 145v324l-182 145h-148z" />
    <glyph glyph-name="uni2377" unicode="&#x2377;" 
d="M256 1169l330 265h950v-205h-842l-182 -146v-59h1024v-205h-1024v-59l182 -146h842v-204h-950l-330 264v495zM256 0v205h1280v-205h-1280z" />
    <glyph glyph-name="uni2378" unicode="&#x2378;" 
d="M256 -410v205h1280v-205h-1280zM512 819v205h512v-674l256 -205v-145h-182l-330 264v555h-256z" />
    <glyph glyph-name="uni2379" unicode="&#x2379;" 
d="M256 760l330 264h182v-145l-256 -205v-324l128 -102l128 102v264h256v-264l128 -102l128 102v324l-256 205v145h182l330 -264v-496l-330 -264h-108l-202 162l-202 -162h-108l-330 264v496zM256 -410v205h1280v-205h-1280z" />
    <glyph glyph-name="uni237A" unicode="&#x237a;" 
d="M256 760l330 264h364l202 -162l202 162h182v-145l-256 -205v-324l256 -205v-145h-182l-202 162l-202 -162h-364l-330 264v496zM694 819l-182 -145v-324l182 -145h148l182 145v324l-182 145h-148z" />
    <glyph glyph-name="uni237B" unicode="&#x237b;" 
d="M256 469v145h182l202 -161l330 264l-202 162v145h182l202 -162l202 162h182v-145l-202 -162l202 -162v-145h-182l-202 161l-458 -366h-108z" />
    <glyph glyph-name="uni237D" unicode="&#x237d;" 
d="M256 205v205h512v-205h256v205h512v-205h-256v-205h-768v205h-256z" />
    <glyph glyph-name="uni237E" unicode="&#x237e;" 
d="M256 965l330 264h620l330 -264v-351h-256v-204h256v-205h-512v409h-256v-409h-512v205h256v204h-256v351zM694 1024l-182 -145v-60h768v60l-182 145h-404z" />
    <glyph glyph-name="uni237F" unicode="&#x237f;" 
d="M768 965v469h256v-469l256 -205v-86l-256 -205v-469h-256v469l-256 205v86zM896 657l74 60l-74 59l-74 -59z" />
    <glyph glyph-name="uni238D" unicode="&#x238d;" 
d="M256 205v205h256v819h768v-819h256v-205h-512v819h-256v-819h-512z" />
    <glyph glyph-name="uni238E" unicode="&#x238e;" 
d="M256 205v205h256v555l330 264h694v-205h-256v-555l-330 -264h-694zM768 410h74l182 145v469h-74l-182 -145v-469z" />
    <glyph glyph-name="uni2393" unicode="&#x2393;" 
d="M256 819v205h1280v-205h-1280zM256 410v204h256v-204h-256zM768 410v204h256v-204h-256zM1280 410v204h256v-204h-256z" />
    <glyph glyph-name="uni2395" unicode="&#x2395;" 
d="M256 1434h1280v-1434h-1280v1434zM512 1229v-1024h768v1024h-768z" />
    <glyph glyph-name="uni239B" unicode="&#x239b;" 
d="M512 965l586 469h182v-146l-512 -409v-1289h-256v1375z" />
    <glyph glyph-name="uni239C" unicode="&#x239c;" 
d="M512 1434h256v-1844h-256v1844z" />
    <glyph glyph-name="uni239D" unicode="&#x239d;" 
d="M512 1434h256v-879l512 -410v-145h-182l-586 469v965z" />
    <glyph glyph-name="uni239E" unicode="&#x239e;" 
d="M512 1288v146h182l586 -469v-1375h-256v1289z" />
    <glyph glyph-name="uni239F" unicode="&#x239f;" 
d="M1024 1434h256v-1844h-256v1844z" />
    <glyph glyph-name="uni23A0" unicode="&#x23a0;" 
d="M512 0v145l512 410v879h256v-965l-586 -469h-182z" />
    <glyph glyph-name="uni23A1" unicode="&#x23a1;" 
d="M512 1434h1024v-205h-768v-1639h-256v1844z" />
    <glyph glyph-name="uni23A2" unicode="&#x23a2;" 
d="M512 1434h256v-1844h-256v1844z" />
    <glyph glyph-name="uni23A3" unicode="&#x23a3;" 
d="M512 1434h256v-1229h768v-205h-1024v1434z" />
    <glyph glyph-name="uni23A4" unicode="&#x23a4;" 
d="M256 1229v205h1024v-1844h-256v1639h-768z" />
    <glyph glyph-name="uni23A5" unicode="&#x23a5;" 
d="M1024 1434h256v-1844h-256v1844z" />
    <glyph glyph-name="uni23A6" unicode="&#x23a6;" 
d="M256 0v205h768v1229h256v-1434h-1024z" />
    <glyph glyph-name="uni23A7" unicode="&#x23a7;" 
d="M768 1169l330 265h438v-205h-330l-182 -146v-1493h-256v1579z" />
    <glyph glyph-name="uni23A8" unicode="&#x23a8;" 
d="M768 965v469h256v-555l-202 -162l202 -162v-965h-256v879l-256 205v86z" />
    <glyph glyph-name="uni23A9" unicode="&#x23a9;" 
d="M768 1434h256v-1084l182 -145h330v-205h-438l-330 264v1170z" />
    <glyph glyph-name="uni23AA" unicode="&#x23aa;" 
d="M768 1434h256v-1844h-256v1844z" />
    <glyph glyph-name="uni23AB" unicode="&#x23ab;" 
d="M256 1229v205h438l330 -265v-1579h-256v1493l-182 146h-330z" />
    <glyph glyph-name="uni23AC" unicode="&#x23ac;" 
d="M768 1434h256v-469l256 -205v-86l-256 -205v-879h-256v965l202 162l-202 162v555z" />
    <glyph glyph-name="uni23AD" unicode="&#x23ad;" 
d="M256 0v205h330l182 145v1084h256v-1170l-330 -264h-438z" />
    <glyph glyph-name="uni23AE" unicode="&#x23ae;" 
d="M768 1434h256v-1844h-256v1844z" />
    <glyph glyph-name="uni23B0" unicode="&#x23b0;" 
d="M256 -410v205h330l182 146v1228l330 265h438v-205h-330l-182 -146v-1228l-330 -265h-438z" />
    <glyph glyph-name="uni23B1" unicode="&#x23b1;" 
d="M256 1229v205h438l330 -265v-1228l182 -146h330v-205h-438l-330 265v1228l-182 146h-330z" />
    <glyph glyph-name="uni23B2" unicode="&#x23b2;" 
d="M256 1434h1280v-205h-1024v-60l256 -204v-205l256 -205v-205l256 -205v-204l256 -205v-146h-182l-330 265v204l-256 205v205l-256 205v205l-256 204v351z" />
    <glyph glyph-name="uni23B3" unicode="&#x23b3;" 
d="M512 145v205l256 205v205l256 205v204l330 265h182v-146l-256 -205v-204l-256 -205v-205l-256 -205v-205l-256 -204v-60h1024v-205h-1280v351z" />
    <glyph glyph-name="uni23BA" unicode="&#x23ba;" 
d="M256 1229v205h1280v-205h-1280z" />
    <glyph glyph-name="uni23BB" unicode="&#x23bb;" 
d="M256 819v205h1280v-205h-1280z" />
    <glyph glyph-name="uni23BC" unicode="&#x23bc;" 
d="M256 0v205h1280v-205h-1280z" />
    <glyph glyph-name="uni23BD" unicode="&#x23bd;" 
d="M256 -410v205h1280v-205h-1280z" />
    <glyph glyph-name="uni23DA" unicode="&#x23da;" 
d="M256 819v205h512v410h256v-410h512v-205h-1280zM512 410v204h768v-204h-768zM768 0v205h256v-205h-256z" />
    <glyph glyph-name="uni2400" unicode="&#x2400;" 
d="M256 1434h438l256 -205h74v205h256v-820h-256v410h-182l-256 205h-74v-615h-256v820zM512 410h256v-469l182 -146h148l182 146v469h256v-555l-330 -265h-364l-330 265v555z" />
    <glyph glyph-name="uni2401" unicode="&#x2401;" 
d="M256 1083v86l330 265h182v-146l-202 -162l202 -161v-86l-330 -265h-182v146l202 162zM768 614h256v-409h256v409h256v-1024h-256v410h-256v-410h-256v1024z" />
    <glyph glyph-name="uni2402" unicode="&#x2402;" 
d="M256 1083v86l330 265h182v-146l-202 -162l202 -161v-86l-330 -265h-182v146l202 162zM768 614h256v-264l128 -102l128 102v264h256v-350l-202 -162l202 -161v-351h-256v265l-128 102l-128 -102v-265h-256v351l202 161l-202 162v350z" />
    <glyph glyph-name="uni2403" unicode="&#x2403;" 
d="M256 1434h768v-205h-512v-205h256v-205h-256v-205h512v-264l128 -102l128 102v264h256v-350l-202 -162l202 -161v-351h-256v265l-128 102l-128 -102v-265h-256v351l202 161l-202 162v146h-512v1024z" />
    <glyph glyph-name="uni2404" unicode="&#x2404;" 
d="M256 1434h768v-205h-512v-205h256v-205h-256v-205h1024v-204h-256v-820h-256v820h-768v1024z" />
    <glyph glyph-name="uni2405" unicode="&#x2405;" 
d="M256 1434h768v-205h-512v-205h256v-205h-256v-205h330l256 205h108l330 -264v-496l-202 -161l202 -162v-146h-182l-586 469v351h-512v1024zM1024 469v-324l128 -102l128 102v324l-128 102z" />
    <glyph glyph-name="uni2406" unicode="&#x2406;" 
d="M256 1169l330 265h108l330 -265v-964h74l182 145v264h256v-350l-202 -162l202 -161v-351h-256v265l-182 145h-74v-410h-256v1229h-256v-409h-256v759zM512 1083v-59h256v59l-128 103z" />
    <glyph glyph-name="uni2407" unicode="&#x2407;" 
d="M256 1434h438l330 -265v-86l-202 -161l202 -162v-86l-330 -264h-438v1024zM512 1229v-205h74l128 102l-128 103h-74zM512 819v-205h74l128 103l-128 102h-74zM1024 410h256v-615h256v-205h-512v820z" />
    <glyph glyph-name="uni2408" unicode="&#x2408;" 
d="M256 1434h438l330 -265v-86l-202 -161l202 -162v-86l-330 -264h-438v1024zM512 1229v-205h74l128 102l-128 103h-74zM512 819v-205h74l128 103l-128 102h-74zM1024 59v86l330 265h182v-146l-202 -162l202 -161v-86l-330 -265h-182v146l202 162z" />
    <glyph glyph-name="uni2409" unicode="&#x2409;" 
d="M256 1434h256v-410h256v410h256v-820h512v-204h-256v-820h-256v820h-256v409h-256v-409h-256v1024z" />
    <glyph glyph-name="uni240A" unicode="&#x240a;" 
d="M256 1434h256v-820h1024v-204h-512v-205h256v-205h-256v-410h-256v820h-512v1024z" />
    <glyph glyph-name="uni240B" unicode="&#x240b;" 
d="M256 1434h256v-469l128 -103l128 103v469h256v-555l-256 -205v-60h768v-204h-256v-820h-256v820h-512v264l-256 205v555z" />
    <glyph glyph-name="uni240C" unicode="&#x240c;" 
d="M256 1434h768v-205h-512v-205h256v-205h-256v-409h-256v1024zM768 614h768v-204h-512v-205h256v-205h-256v-410h-256v1024z" />
    <glyph glyph-name="uni240D" unicode="&#x240d;" 
d="M256 1169l330 265h438v-205h-330l-182 -146v-323l182 -146h512l330 -264v-86l-202 -162l202 -161v-351h-256v265l-182 145h-74v-410h-256v820h-182l-330 264v495zM1024 410v-205h74l128 102l-128 103h-74z" />
    <glyph glyph-name="uni240E" unicode="&#x240e;" 
d="M256 1083v86l330 265h438v-205h-330l-128 -103l458 -366v-86l-330 -264h-438v204h330l128 103zM768 145l330 265h108l330 -265v-290l-330 -265h-108l-330 265v290zM1024 59v-118l128 -103l128 103v118l-128 103z" />
    <glyph glyph-name="uni240F" unicode="&#x240f;" 
d="M256 1083v86l330 265h438v-205h-330l-128 -103l458 -366v-86l-330 -264h-438v204h330l128 103zM1280 614h256v-1024h-256v1024z" />
    <glyph glyph-name="uni2410" unicode="&#x2410;" 
d="M256 1434h438l330 -265v-495l-330 -264h-438v1024zM512 1229v-615h74l182 146v323l-182 146h-74zM1024 410h256v-615h256v-205h-512v820z" />
    <glyph glyph-name="uni2411" unicode="&#x2411;" 
d="M256 1434h438l330 -265v-495l-330 -264h-438v1024zM512 1229v-615h74l182 146v323l-182 146h-74zM1280 614h256v-1024h-256v1024z" />
    <glyph glyph-name="uni2412" unicode="&#x2412;" 
d="M256 1434h438l330 -265v-495l-330 -264h-438v1024zM512 1229v-615h74l182 146v323l-182 146h-74zM1024 264v146h182l330 -265v-86l-256 -204v-60h256v-205h-512v351l202 161z" />
    <glyph glyph-name="uni2413" unicode="&#x2413;" 
d="M256 1434h438l330 -265v-290l-330 -265h-438v820zM512 1229v-410h74l182 146v118l-182 146h-74zM1024 469v145h182l330 -264v-86l-202 -162l202 -161v-86l-330 -265h-182v146l202 162l-202 161v86l202 162z" />
    <glyph glyph-name="uni2414" unicode="&#x2414;" 
d="M256 1434h438l330 -265v-495l-330 -264h-438v1024zM512 1229v-615h74l182 146v323l-182 146h-74zM768 145l330 265h182v204h256v-1024h-256v205h-512v350zM1206 205l-182 -146v-59h256v205h-74z" />
    <glyph glyph-name="uni2415" unicode="&#x2415;" 
d="M256 1434h438l256 -205h74v205h256v-820h-256v410h-182l-256 205h-74v-615h-256v820zM768 410h256v-205h74l256 205h182v-146l-202 -162l202 -161v-351h-256v265l-182 145h-74v-410h-256v820z" />
    <glyph glyph-name="uni2416" unicode="&#x2416;" 
d="M256 1083v86l330 265h182v-146l-202 -162l202 -161v-86l-330 -265h-182v146l202 162zM768 614h256v-264l128 -102l128 102v264h256v-350l-256 -205v-469h-256v469l-256 205v350z" />
    <glyph glyph-name="uni2417" unicode="&#x2417;" 
d="M256 1434h768v-205h-512v-205h256v-205h-256v-205h694l330 -264v-86l-202 -162l202 -161v-86l-330 -265h-438v820h-512v1024zM1024 410v-205h74l128 102l-128 103h-74zM1024 0v-205h74l128 103l-128 102h-74z" />
    <glyph glyph-name="uni2418" unicode="&#x2418;" 
d="M256 1169l330 265h438v-205h-330l-182 -146v-118l182 -146h330v-205h-438l-330 265v290zM512 410h438l256 -205h74v205h256v-820h-256v410h-182l-256 205h-74v-615h-256v820z" />
    <glyph glyph-name="uni2419" unicode="&#x2419;" 
d="M256 1434h768v-205h-512v-205h256v-205h-256v-205h512v-204h-768v1024zM256 205h438l202 -162l202 162h438v-615h-256v410h-74l-256 -205h-108l-256 205h-74v-410h-256v615z" />
    <glyph glyph-name="uni241A" unicode="&#x241a;" 
d="M256 1083v86l330 265h182v-146l-202 -162l202 -161v-86l-330 -265h-182v146l202 162zM768 614h438l330 -264v-86l-202 -162l202 -161v-86l-330 -265h-438v1024zM1024 410v-205h74l128 102l-128 103h-74zM1024 0v-205h74l128 103l-128 102h-74z" />
    <glyph glyph-name="uni241B" unicode="&#x241b;" 
d="M256 1434h512v-205h-256v-205h256v-205h-256v-205h256v-204h-512v1024zM768 145l330 265h438v-205h-330l-182 -146v-118l182 -146h330v-205h-438l-330 265v290z" />
    <glyph glyph-name="uni241C" unicode="&#x241c;" 
d="M256 1434h768v-205h-512v-205h256v-205h-256v-409h-256v1024zM768 264v86l330 264h438v-204h-330l-128 -103l458 -366v-86l-330 -265h-438v205h330l128 103z" />
    <glyph glyph-name="uni241D" unicode="&#x241d;" 
d="M256 1169l330 265h438v-205h-330l-182 -146v-323l182 -146h74v205h256v-409h-438l-330 264v495zM1024 59v86l330 265h182v-146l-202 -162l202 -161v-86l-330 -265h-182v146l202 162z" />
    <glyph glyph-name="uni241E" unicode="&#x241e;" 
d="M256 1434h438l330 -265v-86l-202 -161l202 -162v-350h-256v264l-182 145h-74v-409h-256v1024zM512 1229v-205h74l128 102l-128 103h-74zM1024 59v86l330 265h182v-146l-202 -162l202 -161v-86l-330 -265h-182v146l202 162z" />
    <glyph glyph-name="uni241F" unicode="&#x241f;" 
d="M256 1434h256v-265l182 -145h148l182 145v265h256v-351l-330 -264h-364l-330 264v351zM768 264v86l330 264h438v-204h-330l-128 -103l458 -366v-86l-330 -265h-438v205h330l128 103z" />
    <glyph glyph-name="uni2420" unicode="&#x2420;" 
d="M256 1083v86l330 265h182v-146l-202 -162l202 -161v-86l-330 -265h-182v146l202 162zM768 614h438l330 -264v-86l-330 -264h-182v-410h-256v1024zM1024 410v-205h74l128 102l-128 103h-74z" />
    </font>
</defs>
</svg>
