<?xml version="1.0" standalone="no"?>
<!DOCTYPE svg PUBLIC "-//W3C//DTD SVG 1.1//EN" "http://www.w3.org/Graphics/SVG/1.1/DTD/svg11.dtd" >
<svg xmlns="http://www.w3.org/2000/svg" xmlns:xlink="http://www.w3.org/1999/xlink" version="1.1">
<metadata>
Created by FontForge 20201107 at Mon Apr  6 19:27:20 2026
 By www-data
Dedicated to the public domain
</metadata>
<defs>
<font id="Bedstead-BoldExtraCondensed" horiz-adv-x="768" >
  <font-face 
    font-family="Bedstead Extra Condensed"
    font-weight="700"
    font-stretch="extra-condensed"
    units-per-em="2048"
    panose-1="4 2 5 3 2 11 2 2 3 2"
    ascent="1638"
    descent="-410"
    x-height="1024"
    cap-height="1434"
    bbox="0 -410 768 1638"
    underline-thickness="204"
    underline-position="-306"
    unicode-range="U+0020-1FBCA"
  />
<missing-glyph 
d="M64 1434h704v-1434h-704v1434zM256 1229v-1024h320v1024h-320z" />
    <glyph glyph-name=".notdef" 
d="M64 1434h704v-1434h-704v1434zM256 1229v-1024h320v1024h-320z" />
    <glyph glyph-name=".null" horiz-adv-x="0" 
 />
    <glyph glyph-name="nonmarkingreturn" 
 />
    <glyph glyph-name="space" unicode=" " 
 />
    <glyph glyph-name="exclam" unicode="!" 
d="M320 1434h192v-1024h-192v1024zM320 0v205h192v-205h-192z" />
    <glyph glyph-name="quotedbl" unicode="&#x22;" 
d="M192 1434h192v-615h-192v615zM448 1434h192v-615h-192v615z" />
    <glyph glyph-name="numbersign" unicode="#" 
d="M64 819v205h128v410h192v-410h64v410h192v-410h128v-205h-128v-205h128v-204h-128v-410h-192v410h-64v-410h-192v410h-128v204h128v205h-128zM384 819v-205h64v205h-64z" />
    <glyph glyph-name="dollar" unicode="$" 
d="M64 1169l165 265h374l165 -265v-145h-155l-101 162v-367h91l165 -264v-291l-165 -264h-374l-165 264v146h155l101 -162v366h-91l-165 265v290zM256 1083v-118l64 -103v324zM576 469l-64 102v-323l64 102v119z" />
    <glyph glyph-name="percent" unicode="%" 
d="M64 1434h320v-410h-320v410zM64 205v145l549 879h155v-146l-549 -878h-155zM448 410h320v-410h-320v410z" />
    <glyph glyph-name="ampersand" unicode="&#x26;" 
d="M64 1169l165 265h118l165 -265v-290l-101 -162l133 -213l69 110h155v-145l-101 -162l101 -162v-145h-155l-69 111l-69 -111h-246l-165 264v291l101 162l-101 162v290zM256 1083v-118l32 -52l32 52v118l-32 52zM256 469v-119l91 -145h10l64 102l-133 213z" />
    <glyph glyph-name="quotesingle" unicode="'" 
d="M320 1434h192v-615h-192v615z" />
    <glyph glyph-name="parenleft" unicode="(" 
d="M192 965l293 469h155v-146l-256 -409v-324l256 -410v-145h-155l-293 469v496z" />
    <glyph glyph-name="parenright" unicode=")" 
d="M192 1288v146h155l293 -469v-496l-293 -469h-155v145l256 410v324z" />
    <glyph glyph-name="asterisk" unicode="*" 
d="M64 1083v146h155l101 -162v367h192v-367l101 162h155v-146l-165 -264h-91v-205h91l165 -264v-145h-155l-101 162v-367h-192v367l-101 -162h-155v145l165 264h91v205h-91z" />
    <glyph glyph-name="plus" unicode="+" 
d="M64 614v205h256v410h192v-410h256v-205h-256v-409h-192v409h-256z" />
    <glyph glyph-name="comma" unicode="," 
d="M320 145v265h192v-351l-165 -264h-155v146z" />
    <glyph glyph-name="hyphen" unicode="-" 
d="M192 614v205h448v-205h-448z" />
    <glyph glyph-name="period" unicode="." 
d="M320 0v205h192v-205h-192z" />
    <glyph glyph-name="slash" unicode="/" 
d="M64 205v145l549 879h155v-146l-549 -878h-155z" />
    <glyph glyph-name="zero" unicode="0" 
d="M64 965l293 469h118l293 -469v-496l-293 -469h-118l-293 469v496zM256 879v-324l160 -256l160 256v324l-160 256z" />
    <glyph glyph-name="one" unicode="1" 
d="M192 1024v205h128v205h192v-1229h128v-205h-448v205h128v819h-128z" />
    <glyph glyph-name="two" unicode="2" 
d="M64 1024v145l165 265h374l165 -265v-290l-165 -265h-128l-219 -350v-59h512v-205h-704v350l293 469h128l91 146v118l-91 146h-138l-128 -205h-155z" />
    <glyph glyph-name="three" unicode="3" 
d="M64 1229v205h704v-351l-128 -204v-119l128 -205v-291l-165 -264h-374l-165 264v146h155l128 -205h138l91 145v119l-91 145h-165v205h128v146l128 204v60h-512z" />
    <glyph glyph-name="four" unicode="4" 
d="M64 760l293 469h91v205h192v-820h128v-204h-128v-410h-192v410h-384v350zM256 674v-60h192v367z" />
    <glyph glyph-name="five" unicode="5" 
d="M64 1434h704v-205h-512v-205h347l165 -264v-496l-165 -264h-374l-165 264v146h155l128 -205h138l91 145v324l-91 145h-421v615z" />
    <glyph glyph-name="six" unicode="6" 
d="M64 965l293 469h283v-205h-165l-219 -350v-60h347l165 -264v-291l-165 -264h-374l-165 264v701zM256 614v-264l91 -145h138l91 145v119l-91 145h-229z" />
    <glyph glyph-name="seven" unicode="7" 
d="M64 1229v205h704v-351l-384 -614v-469h-192v555l384 614v60h-512z" />
    <glyph glyph-name="eight" unicode="8" 
d="M64 1169l165 265h374l165 -265v-290l-101 -162l101 -162v-291l-165 -264h-374l-165 264v291l101 162l-101 162v290zM347 1229l-91 -146v-118l91 -146h138l91 146v118l-91 146h-138zM347 614l-91 -145v-119l91 -145h138l91 145v119l-91 145h-138z" />
    <glyph glyph-name="nine" unicode="9" 
d="M64 1169l165 265h374l165 -265v-700l-293 -469h-283v205h165l219 350v59h-347l-165 265v290zM347 1229l-91 -146v-118l91 -146h229v264l-91 146h-138z" />
    <glyph glyph-name="colon" unicode=":" 
d="M320 819v205h192v-205h-192zM320 0v205h192v-205h-192z" />
    <glyph glyph-name="semicolon" unicode=";" 
d="M320 145v265h192v-351l-165 -264h-155v146zM320 819v205h192v-205h-192z" />
    <glyph glyph-name="less" unicode="&#x3c;" 
d="M64 674v86l421 674h155v-146l-357 -571l357 -572v-145h-155z" />
    <glyph glyph-name="equal" unicode="=" 
d="M64 819v205h704v-205h-704zM64 410v204h704v-204h-704z" />
    <glyph glyph-name="greater" unicode="&#x3e;" 
d="M192 1288v146h155l421 -674v-86l-421 -674h-155v145l357 572z" />
    <glyph glyph-name="question" unicode="?" 
d="M64 1024v145l165 265h374l165 -265v-86l-256 -409v-264h-192v350l229 366l-64 103h-138l-128 -205h-155zM320 0v205h192v-205h-192z" />
    <glyph glyph-name="at" unicode="@" 
d="M64 1169l165 265h374l165 -265v-759h-448v614h256v59l-91 146h-138l-91 -146v-733l91 -145h293v-205h-411l-165 264v905zM512 819v-205h64v205h-64z" />
    <glyph glyph-name="A" unicode="A" 
d="M64 965l293 469h118l293 -469v-965h-192v410h-320v-410h-192v965zM256 879v-265h320v265l-160 256z" />
    <glyph glyph-name="B" unicode="B" 
d="M64 1434h539l165 -265v-290l-101 -162l101 -162v-291l-165 -264h-539v1434zM256 1229v-410h229l91 146v118l-91 146h-229zM256 614v-409h229l91 145v119l-91 145h-229z" />
    <glyph glyph-name="C" unicode="C" 
d="M64 1169l165 265h374l165 -265v-145h-155l-128 205h-138l-91 -146v-733l91 -145h138l128 205h155v-146l-165 -264h-374l-165 264v905z" />
    <glyph glyph-name="D" unicode="D" 
d="M64 1434h539l165 -265v-905l-165 -264h-539v1434zM256 1229v-1024h229l91 145v733l-91 146h-229z" />
    <glyph glyph-name="E" unicode="E" 
d="M64 1434h704v-205h-512v-410h384v-205h-384v-409h512v-205h-704v1434z" />
    <glyph glyph-name="F" unicode="F" 
d="M64 1434h704v-205h-512v-410h384v-205h-384v-614h-192v1434z" />
    <glyph glyph-name="G" unicode="G" 
d="M64 1169l165 265h374l165 -265v-145h-155l-128 205h-138l-91 -146v-733l91 -145h229v205h-128v204h320v-614h-539l-165 264v905z" />
    <glyph glyph-name="H" unicode="H" 
d="M64 1434h192v-615h320v615h192v-1434h-192v614h-320v-614h-192v1434z" />
    <glyph glyph-name="I" unicode="I" 
d="M192 1229v205h448v-205h-128v-1024h128v-205h-448v205h128v1024h-128z" />
    <glyph glyph-name="J" unicode="J" 
d="M64 264v146h155l128 -205h138l91 145v1084h192v-1170l-165 -264h-374z" />
    <glyph glyph-name="K" unicode="K" 
d="M64 1434h192v-572l357 572h155v-146l-357 -571l357 -572v-145h-155l-357 571v-571h-192v1434z" />
    <glyph glyph-name="L" unicode="L" 
d="M64 1434h192v-1229h512v-205h-704v1434z" />
    <glyph glyph-name="M" unicode="M" 
d="M64 1434h192v-205h91l69 -111l69 111h91v205h192v-1434h-192v981l-64 -102v-265h-192v265l-64 102v-981h-192v1434z" />
    <glyph glyph-name="N" unicode="N" 
d="M64 1434h192v-410h91l229 -367v777h192v-1434h-192v410h-91l-229 366v-776h-192v1434z" />
    <glyph glyph-name="O" unicode="O" 
d="M64 1169l165 265h374l165 -265v-905l-165 -264h-374l-165 264v905zM347 1229l-91 -146v-733l91 -145h138l91 145v733l-91 146h-138z" />
    <glyph glyph-name="P" unicode="P" 
d="M64 1434h539l165 -265v-290l-165 -265h-347v-614h-192v1434zM256 1229v-410h229l91 146v118l-91 146h-229z" />
    <glyph glyph-name="Q" unicode="Q" 
d="M64 1169l165 265h374l165 -265v-700l-101 -162l101 -162v-145h-155l-69 111l-69 -111h-246l-165 264v905zM347 1229l-91 -146v-733l91 -145h10l64 102l-101 162v145h155l69 -110l32 51v528l-91 146h-138z" />
    <glyph glyph-name="R" unicode="R" 
d="M64 1434h539l165 -265v-290l-165 -265h-91v-59l256 -410v-145h-155l-293 469v145h-64v-614h-192v1434zM256 1229v-410h229l91 146v118l-91 146h-229z" />
    <glyph glyph-name="S" unicode="S" 
d="M64 1169l165 265h374l165 -265v-145h-155l-128 205h-138l-91 -146v-118l91 -146h256l165 -264v-291l-165 -264h-374l-165 264v146h155l128 -205h138l91 145v119l-91 145h-256l-165 265v290z" />
    <glyph glyph-name="T" unicode="T" 
d="M64 1229v205h704v-205h-256v-1229h-192v1229h-256z" />
    <glyph glyph-name="U" unicode="U" 
d="M64 1434h192v-1084l91 -145h138l91 145v1084h192v-1170l-165 -264h-374l-165 264v1170z" />
    <glyph glyph-name="V" unicode="V" 
d="M64 1434h192v-469l128 -205v-205l32 -51l32 51v205l128 205v469h192v-555l-128 -205v-205l-128 -205v-264h-192v264l-128 205v205l-128 205v555z" />
    <glyph glyph-name="W" unicode="W" 
d="M64 1434h192v-1084l32 -51l32 51v469h192v-469l32 -51l32 51v1084h192v-1170l-165 -264h-118l-69 111l-69 -111h-118l-165 264v1170z" />
    <glyph glyph-name="X" unicode="X" 
d="M64 1434h192v-265l160 -256l160 256v265h192v-351l-229 -366l229 -367v-350h-192v264l-160 256l-160 -256v-264h-192v350l229 367l-229 366v351z" />
    <glyph glyph-name="Y" unicode="Y" 
d="M64 1434h192v-265l160 -256l160 256v265h192v-351l-256 -409v-674h-192v674l-256 409v351z" />
    <glyph glyph-name="Z" unicode="Z" 
d="M64 1229v205h704v-351l-512 -819v-59h512v-205h-704v350l512 819v60h-512z" />
    <glyph glyph-name="bracketleft" unicode="[" 
d="M192 1434h576v-205h-384v-1024h384v-205h-576v1434z" />
    <glyph glyph-name="backslash" unicode="\" 
d="M64 1083v146h155l549 -879v-145h-155z" />
    <glyph glyph-name="bracketright" unicode="]" 
d="M64 1229v205h576v-1434h-576v205h384v1024h-384z" />
    <glyph glyph-name="asciicircum" unicode="^" 
d="M64 819v146l293 469h118l293 -469v-146h-155l-197 316l-197 -316h-155z" />
    <glyph glyph-name="underscore" unicode="_" 
d="M64 0v205h704v-205h-704z" />
    <glyph glyph-name="grave" unicode="`" 
d="M192 1288v146h155l293 -469v-146h-155z" />
    <glyph glyph-name="a" unicode="a" 
d="M64 264v86l165 264h347v60l-91 145h-293v205h411l165 -264v-760h-539zM347 205h229v205h-229l-64 -103z" />
    <glyph glyph-name="b" unicode="b" 
d="M64 1434h192v-410h347l165 -264v-496l-165 -264h-539v1434zM256 819v-614h229l91 145v324l-91 145h-229z" />
    <glyph glyph-name="c" unicode="c" 
d="M64 760l165 264h539v-205h-421l-91 -145v-324l91 -145h421v-205h-539l-165 264v496z" />
    <glyph glyph-name="d" unicode="d" 
d="M64 760l165 264h347v410h192v-1434h-539l-165 264v496zM347 819l-91 -145v-324l91 -145h229v614h-229z" />
    <glyph glyph-name="e" unicode="e" 
d="M64 760l165 264h374l165 -264v-350h-512v-60l91 -145h293v-205h-411l-165 264v496zM347 819l-91 -145v-60h320v60l-91 145h-138z" />
    <glyph glyph-name="f" unicode="f" 
d="M192 614v205h128v350l165 265h155v-146l-128 -205v-264h128v-205h-128v-614h-192v614h-128z" />
    <glyph glyph-name="g" unicode="g" 
d="M64 760l165 264h539v-1169l-165 -265h-411v205h293l91 146v59h-347l-165 264v496zM347 819l-91 -145v-324l91 -145h229v614h-229z" />
    <glyph glyph-name="h" unicode="h" 
d="M64 1434h192v-410h347l165 -264v-760h-192v674l-91 145h-229v-819h-192v1434z" />
    <glyph glyph-name="i" unicode="i" 
d="M192 819v205h320v-819h128v-205h-448v205h128v614h-128zM320 1229v205h192v-205h-192z" />
    <glyph glyph-name="j" unicode="j" 
d="M320 -59v1083h192v-1169l-165 -265h-155v146zM320 1229v205h192v-205h-192z" />
    <glyph glyph-name="k" unicode="k" 
d="M192 1434h192v-777l229 367h155v-145l-229 -367l229 -367v-145h-155l-229 367v-367h-192v1434z" />
    <glyph glyph-name="l" unicode="l" 
d="M192 1229v205h320v-1229h128v-205h-448v205h128v1024h-128z" />
    <glyph glyph-name="m" unicode="m" 
d="M64 1024h283l69 -111l69 111h118l165 -264v-760h-192v674l-32 51l-32 -51v-674h-192v674l-64 102v-776h-192v1024z" />
    <glyph glyph-name="n" unicode="n" 
d="M64 1024h539l165 -264v-760h-192v674l-91 145h-229v-819h-192v1024z" />
    <glyph glyph-name="o" unicode="o" 
d="M64 760l165 264h374l165 -264v-496l-165 -264h-374l-165 264v496zM347 819l-91 -145v-324l91 -145h138l91 145v324l-91 145h-138z" />
    <glyph glyph-name="p" unicode="p" 
d="M64 1024h539l165 -264v-496l-165 -264h-347v-410h-192v1434zM256 819v-614h229l91 145v324l-91 145h-229z" />
    <glyph glyph-name="q" unicode="q" 
d="M64 760l165 264h539v-1434h-192v410h-347l-165 264v496zM347 819l-91 -145v-324l91 -145h229v614h-229z" />
    <glyph glyph-name="r" unicode="r" 
d="M192 1024h192v-162l101 162h283v-205h-165l-128 -205h-91v-614h-192v1024z" />
    <glyph glyph-name="s" unicode="s" 
d="M64 674v86l165 264h539v-205h-421l-64 -102l64 -103h256l165 -264v-86l-165 -264h-539v205h421l64 102l-64 103h-256z" />
    <glyph glyph-name="t" unicode="t" 
d="M192 819v205h128v410h192v-410h128v-205h-128v-469l128 -205v-145h-155l-165 264v555h-128z" />
    <glyph glyph-name="u" unicode="u" 
d="M64 1024h192v-674l91 -145h229v819h192v-1024h-539l-165 264v760z" />
    <glyph glyph-name="v" unicode="v" 
d="M64 1024h192v-264l128 -205v-205l32 -51l32 51v205l128 205v264h192v-350l-128 -205v-205l-165 -264h-118l-165 264v205l-128 205v350z" />
    <glyph glyph-name="w" unicode="w" 
d="M64 1024h192v-674l32 -51l32 51v264h192v-264l32 -51l32 51v674h192v-760l-165 -264h-118l-69 111l-69 -111h-118l-165 264v760z" />
    <glyph glyph-name="x" unicode="x" 
d="M64 879v145h155l197 -315l197 315h155v-145l-229 -367l229 -367v-145h-155l-197 315l-197 -315h-155v145l229 367z" />
    <glyph glyph-name="y" unicode="y" 
d="M64 1024h192v-674l91 -145h229v819h192v-1169l-165 -265h-411v205h293l91 146v59h-347l-165 264v760z" />
    <glyph glyph-name="z" unicode="z" 
d="M64 819v205h704v-205h-128v-145l-256 -410v-59h384v-205h-704v205h128v145l256 410v59h-384z" />
    <glyph glyph-name="braceleft" unicode="{" 
d="M320 965v204l165 265h283v-205h-165l-91 -146v-204l-101 -162l101 -162v-205l91 -145h165v-205h-283l-165 264v205l-128 205v86z" />
    <glyph glyph-name="bar" unicode="|" 
d="M320 1434h192v-1434h-192v1434z" />
    <glyph glyph-name="braceright" unicode="}" 
d="M64 1229v205h283l165 -265v-204l128 -205v-86l-128 -205v-205l-165 -264h-283v205h165l91 145v205l101 162l-101 162v204l-91 146h-165z" />
    <glyph glyph-name="asciitilde" unicode="~" 
d="M64 1024v145l165 265h118l197 -316l69 111h155v-146l-165 -264h-118l-197 316l-69 -111h-155z" />
    <glyph glyph-name="uni00A0" unicode="&#xa0;" 
 />
    <glyph glyph-name="exclamdown" unicode="&#xa1;" 
d="M320 819v205h192v-205h-192zM320 614h192v-1024h-192v1024z" />
    <glyph glyph-name="cent" unicode="&#xa2;" 
d="M64 760l165 264h91v205h192v-205h256v-205h-256v-614h256v-205h-256v-205h-192v205h-91l-165 264v496zM256 674v-324l64 -102v528z" />
    <glyph glyph-name="sterling" unicode="&#xa3;" 
d="M64 614v205h128v350l165 265h246l165 -265v-145h-155l-128 205h-10l-91 -146v-264h128v-205h-128v-409h384v-205h-704v205h128v409h-128z" />
    <glyph glyph-name="currency" unicode="&#xa4;" 
d="M64 879v145h155l128 -205h138l128 205h155v-145l-128 -205v-324l128 -205v-145h-155l-128 205h-138l-128 -205h-155v145l128 205v324zM384 614v-204h64v204h-64z" />
    <glyph glyph-name="yen" unicode="&#xa5;" 
d="M64 1288v146h155l165 -265v-145h64v145l165 265h155v-146l-128 -205v-59h128v-205h-256v-205h256v-204h-256v-410h-192v410h-256v204h256v205h-256v205h128v59z" />
    <glyph glyph-name="brokenbar" unicode="&#xa6;" 
d="M320 1434h192v-615h-192v615zM320 614h192v-614h-192v614z" />
    <glyph glyph-name="section" unicode="&#xa7;" 
d="M64 1169l165 265h374l165 -265v-145h-155l-128 205h-138l-91 -146v-118l91 -146h256l165 -264v-86l-101 -162l101 -162v-290l-165 -265h-374l-165 265v145h155l128 -205h138l91 146v118l-91 146h-256l-165 264v86l101 162l-101 162v290zM347 410h138l64 102l-64 102h-138
l-64 -102z" />
    <glyph glyph-name="dieresis" unicode="&#xa8;" 
d="M192 1229v205h192v-205h-192zM448 1229v205h192v-205h-192z" />
    <glyph glyph-name="copyright" unicode="&#xa9;" 
d="M64 1169l165 265h374l165 -265v-1314l-165 -265h-374l-165 265v1314zM347 1229l-91 -146v-221l101 162h118l101 -162v221l-91 146h-138zM256 162v-221l91 -146h138l91 146v221l-101 -162h-118zM384 674v-324l32 -51l69 111h91v204h-91l-69 111z" />
    <glyph glyph-name="ordfeminine" unicode="&#xaa;" 
d="M64 674v86l165 264h347v59l-91 146h-293v205h411l165 -265v-759h-539zM64 0v205h704v-205h-704zM347 614h229v205h-229l-64 -102z" />
    <glyph glyph-name="guillemotleft" unicode="&#xab;" 
d="M64 469v86l165 264h155v-145l-101 -162l101 -162v-145h-155zM448 469v86l165 264h155v-145l-101 -162l101 -162v-145h-155z" />
    <glyph glyph-name="logicalnot" unicode="&#xac;" 
d="M64 819v205h704v-614h-192v409h-512z" />
    <glyph glyph-name="registered" unicode="&#xae;" 
d="M64 1169l165 265h374l165 -265v-1314l-165 -265h-374l-165 265v1314zM347 1229l-91 -146v-59h219l101 -162v221l-91 146h-138zM256 0v-59l91 -146h138l91 146v59h-91l-101 162v-162h-128zM448 674l-64 102v-323l64 102v119zM539 307l37 -59v119z" />
    <glyph glyph-name="macron" unicode="&#xaf;" 
d="M192 1229v205h448v-205h-448z" />
    <glyph glyph-name="degree" unicode="&#xb0;" 
d="M192 1083v86l165 265h246l165 -265v-86l-165 -264h-246zM475 1024h10l64 102l-64 103h-10l-64 -103z" />
    <glyph glyph-name="plusminus" unicode="&#xb1;" 
d="M64 819v205h256v410h192v-410h256v-205h-256v-409h-192v409h-256zM64 0v205h704v-205h-704z" />
    <glyph glyph-name="twosuperior" unicode="&#xb2;" 
d="M192 1229v205h283l165 -265v-86l-256 -409v-60h256v-204h-448v350l229 366l-64 103h-165z" />
    <glyph glyph-name="threesuperior" unicode="&#xb3;" 
d="M192 1229v205h283l165 -265v-86l-101 -161l101 -162v-86l-165 -264h-283v204h165l64 103l-64 102h-165v205h165l64 102l-64 103h-165z" />
    <glyph glyph-name="acute" unicode="&#xb4;" 
d="M192 819v146l293 469h155v-146l-293 -469h-155z" />
    <glyph glyph-name="mu" unicode="&#xb5;" 
d="M64 1024h192v-819h101l91 145v674h192v-674l128 -205v-145h-155l-69 111l-69 -111h-219v-410h-192v1434z" />
    <glyph glyph-name="paragraph" unicode="&#xb6;" 
d="M64 1169l165 265h283v-1434h-192v614h-91l-165 265v290zM256 1083v-118l64 -103v324zM576 1434h192v-1434h-192v1434z" />
    <glyph glyph-name="periodcentered" unicode="&#xb7;" 
d="M320 614v205h192v-205h-192z" />
    <glyph glyph-name="cedilla" unicode="&#xb8;" 
d="M320 59v146h155l165 -264v-86l-165 -265h-155v146l101 162z" />
    <glyph glyph-name="onesuperior" unicode="&#xb9;" 
d="M192 1024v205h128v205h192v-820h128v-204h-448v204h128v410h-128z" />
    <glyph glyph-name="ordmasculine" unicode="&#xba;" 
d="M64 1169l165 265h374l165 -265v-495l-165 -264h-374l-165 264v495zM64 0v205h704v-205h-704zM347 1229l-91 -146v-323l91 -146h138l91 146v323l-91 146h-138z" />
    <glyph glyph-name="guillemotright" unicode="&#xbb;" 
d="M64 674v145h155l165 -264v-86l-165 -264h-155v145l101 162zM448 674v145h155l165 -264v-86l-165 -264h-155v145l101 162z" />
    <glyph glyph-name="onequarter" unicode="&#xbc;" 
d="M192 1434h192v-1024h-192v1024zM320 145l165 265h91v204h192v-1024h-192v205h-256v350zM512 59v-59h64v162z" />
    <glyph glyph-name="onehalf" unicode="&#xbd;" 
d="M64 1434h192v-1024h-192v1024zM320 410v204h283l165 -264v-86l-256 -409v-60h256v-205h-448v351l229 366l-64 103h-165z" />
    <glyph glyph-name="threequarters" unicode="&#xbe;" 
d="M64 1229v205h283l165 -265v-86l-101 -161l101 -162v-86l-165 -264h-283v204h165l64 103l-64 102h-165v205h165l64 102l-64 103h-165zM320 145l165 265h91v204h192v-1024h-192v205h-256v350zM512 59v-59h64v162z" />
    <glyph glyph-name="questiondown" unicode="&#xbf;" 
d="M64 -145v86l256 409v264h192v-350l-229 -366l64 -103h138l128 205h155v-145l-165 -265h-374zM320 819v205h192v-205h-192z" />
    <glyph glyph-name="Agrave" unicode="&#xc0;" 
d="M64 760l165 264h91v59l-128 205v146h155l165 -265v-145h91l165 -264v-760h-192v410h-320v-410h-192v760zM347 819l-91 -145v-60h320v60l-91 145h-138z" />
    <glyph glyph-name="Aacute" unicode="&#xc1;" 
d="M64 760l165 264h91v145l165 265h155v-146l-128 -205v-59h91l165 -264v-760h-192v410h-320v-410h-192v760zM347 819l-91 -145v-60h320v60l-91 145h-138z" />
    <glyph glyph-name="Acircumflex" unicode="&#xc2;" 
d="M192 965v204l165 265h118l165 -265v-204l128 -205v-760h-192v410h-320v-410h-192v760zM347 819l-91 -145v-60h320v60l-91 145h-138zM384 1083v-59h64v59l-32 52z" />
    <glyph glyph-name="Atilde" unicode="&#xc3;" 
d="M192 965v204l165 265h118l69 -111l69 111h155v-146l-128 -205v-118l128 -205v-760h-192v410h-320v-410h-192v760zM347 819l-91 -145v-60h320v60l-91 145h-138zM384 1083v-59h64v59l-32 52z" />
    <glyph glyph-name="Adieresis" unicode="&#xc4;" 
d="M64 760l165 264h374l165 -264v-760h-192v410h-320v-410h-192v760zM192 1229v205h192v-205h-192zM347 819l-91 -145v-60h320v60l-91 145h-138zM448 1229v205h192v-205h-192z" />
    <glyph glyph-name="Aring" unicode="&#xc5;" 
d="M64 760l165 264h374l165 -264v-760h-192v410h-320v-410h-192v760zM347 819l-91 -145v-60h320v60l-91 145h-138zM320 1229v205h192v-205h-192z" />
    <glyph glyph-name="AE" unicode="&#xc6;" 
d="M64 1169l165 265h539v-205h-256v-410h128v-205h-128v-409h256v-205h-448v410h-64v-410h-192v1169zM256 1083v-469h64v572z" />
    <glyph glyph-name="Ccedilla" unicode="&#xc7;" 
d="M64 1169l165 265h374l165 -265v-145h-155l-128 205h-138l-91 -146v-733l91 -145h138l128 205h155v-146l-165 -264h-91v-145l-165 -265h-155v146l128 205v59h-91l-165 264v905z" />
    <glyph glyph-name="Egrave" unicode="&#xc8;" 
d="M64 1024h256v59l-128 205v146h155l165 -265v-145h256v-205h-512v-205h384v-204h-384v-205h512v-205h-704v1024z" />
    <glyph glyph-name="Eacute" unicode="&#xc9;" 
d="M64 1024h256v145l165 265h155v-146l-128 -205v-59h256v-205h-512v-205h384v-204h-384v-205h512v-205h-704v1024z" />
    <glyph glyph-name="Ecircumflex" unicode="&#xca;" 
d="M64 1024h128v145l165 265h118l165 -265v-145h128v-205h-512v-205h384v-204h-384v-205h512v-205h-704v1024zM384 1024h64v59l-32 52l-32 -52v-59z" />
    <glyph glyph-name="Edieresis" unicode="&#xcb;" 
d="M64 1024h704v-205h-512v-205h384v-204h-384v-205h512v-205h-704v1024zM192 1229v205h192v-205h-192zM448 1229v205h192v-205h-192z" />
    <glyph glyph-name="Igrave" unicode="&#xcc;" 
d="M192 1288v146h155l165 -265v-145h-155zM192 614v205h448v-205h-128v-409h128v-205h-448v205h128v409h-128z" />
    <glyph glyph-name="Iacute" unicode="&#xcd;" 
d="M192 614v205h448v-205h-128v-409h128v-205h-448v205h128v409h-128zM320 1024v145l165 265h155v-146l-165 -264h-155z" />
    <glyph glyph-name="Icircumflex" unicode="&#xce;" 
d="M192 1024v145l165 265h118l165 -265v-145h-155l-69 111l-69 -111h-155zM192 614v205h448v-205h-128v-409h128v-205h-448v205h128v409h-128z" />
    <glyph glyph-name="Idieresis" unicode="&#xcf;" 
d="M192 1229v205h192v-205h-192zM192 819v205h448v-205h-128v-614h128v-205h-448v205h128v614h-128zM448 1229v205h192v-205h-192z" />
    <glyph glyph-name="Eth" unicode="&#xd0;" 
d="M64 614v205h128v615h411l165 -265v-905l-165 -264h-411v614h-128zM384 1229v-410h128v-205h-128v-409h101l91 145v733l-91 146h-101z" />
    <glyph glyph-name="Ntilde" unicode="&#xd1;" 
d="M64 819h283l229 -366v366h192v-819h-192v205h-91l-229 366v-571h-192v819zM192 1024v145l165 265h118l69 -111l69 111h155v-146l-165 -264h-118l-69 111l-69 -111h-155z" />
    <glyph glyph-name="Ograve" unicode="&#xd2;" 
d="M64 760l165 264h91v59l-128 205v146h155l165 -265v-145h91l165 -264v-496l-165 -264h-374l-165 264v496zM347 819l-91 -145v-324l91 -145h138l91 145v324l-91 145h-138z" />
    <glyph glyph-name="Oacute" unicode="&#xd3;" 
d="M64 760l165 264h91v145l165 265h155v-146l-128 -205v-59h91l165 -264v-496l-165 -264h-374l-165 264v496zM347 819l-91 -145v-324l91 -145h138l91 145v324l-91 145h-138z" />
    <glyph glyph-name="Ocircumflex" unicode="&#xd4;" 
d="M192 965v204l165 265h118l165 -265v-204l128 -205v-496l-165 -264h-374l-165 264v496zM347 819l-91 -145v-324l91 -145h138l91 145v324l-91 145h-138zM384 1083v-59h64v59l-32 52z" />
    <glyph glyph-name="Otilde" unicode="&#xd5;" 
d="M192 965v204l165 265h118l69 -111l69 111h155v-146l-128 -205v-118l128 -205v-496l-165 -264h-374l-165 264v496zM347 819l-91 -145v-324l91 -145h138l91 145v324l-91 145h-138zM384 1083v-59h64v59l-32 52z" />
    <glyph glyph-name="Odieresis" unicode="&#xd6;" 
d="M64 760l165 264h374l165 -264v-496l-165 -264h-374l-165 264v496zM192 1229v205h192v-205h-192zM347 819l-91 -145v-324l91 -145h138l91 145v324l-91 145h-138zM448 1229v205h192v-205h-192z" />
    <glyph glyph-name="multiply" unicode="&#xd7;" 
d="M64 1083v146h155l197 -316l197 316h155v-146l-229 -366l229 -367v-145h-155l-197 315l-197 -315h-155v145l229 367z" />
    <glyph glyph-name="Oslash" unicode="&#xd8;" 
d="M64 1169l165 265h374l165 -265v-905l-165 -264h-374l-165 264v905zM347 1229l-91 -146v-426l229 367h91v59l-91 146h-138zM256 410v-60l91 -145h138l91 145v426l-229 -366h-91z" />
    <glyph glyph-name="Ugrave" unicode="&#xd9;" 
d="M64 1024h192v-674l91 -145h138l91 145v674h192v-760l-165 -264h-374l-165 264v760zM192 1288v146h155l165 -265v-145h-155z" />
    <glyph glyph-name="Uacute" unicode="&#xda;" 
d="M64 1024h192v-674l91 -145h138l91 145v674h192v-760l-165 -264h-374l-165 264v760zM320 1024v145l165 265h155v-146l-165 -264h-155z" />
    <glyph glyph-name="Ucircumflex" unicode="&#xdb;" 
d="M64 819h192v-469l91 -145h138l91 145v469h192v-555l-165 -264h-374l-165 264v555zM192 1024v145l165 265h118l165 -265v-145h-155l-69 111l-69 -111h-155z" />
    <glyph glyph-name="Udieresis" unicode="&#xdc;" 
d="M64 1024h192v-674l91 -145h138l91 145v674h192v-760l-165 -264h-374l-165 264v760zM192 1229v205h192v-205h-192zM448 1229v205h192v-205h-192z" />
    <glyph glyph-name="Yacute" unicode="&#xdd;" 
d="M64 879v145h155l197 -315l197 315h155v-145l-256 -410v-469h-192v469zM320 1024v145l165 265h155v-146l-165 -264h-155z" />
    <glyph glyph-name="Thorn" unicode="&#xde;" 
d="M64 1434h192v-205h347l165 -264v-291l-165 -264h-347v-410h-192v1434zM256 1024v-410h229l91 146v119l-91 145h-229z" />
    <glyph glyph-name="germandbls" unicode="&#xdf;" 
d="M64 1169l165 265h246l165 -265v-409l128 -205v-291l-165 -264h-283v205h165l91 145v119l-91 145h-165v205h128v264l-91 146h-10l-91 -146v-1493h-192v1579z" />
    <glyph glyph-name="agrave" unicode="&#xe0;" 
d="M64 264v86l165 264h347v60l-91 145h-293v205h128v59l-128 205v146h155l165 -265v-145h91l165 -264v-760h-539zM347 205h229v205h-229l-64 -103z" />
    <glyph glyph-name="aacute" unicode="&#xe1;" 
d="M64 264v86l165 264h347v60l-91 145h-293v205h128v145l165 265h155v-146l-128 -205v-59h91l165 -264v-760h-539zM347 205h229v205h-229l-64 -103z" />
    <glyph glyph-name="acircumflex" unicode="&#xe2;" 
d="M64 264v86l165 264h347v60l-91 145h-293v350l165 265h118l165 -265v-204l128 -205v-760h-539zM347 205h229v205h-229l-64 -103zM384 1083v-59h64v59l-32 52z" />
    <glyph glyph-name="atilde" unicode="&#xe3;" 
d="M64 264v86l165 264h347v60l-91 145h-293v350l165 265h118l69 -111l69 111h155v-146l-128 -205v-118l128 -205v-760h-539zM347 205h229v205h-229l-64 -103zM384 1083v-59h64v59l-32 52z" />
    <glyph glyph-name="adieresis" unicode="&#xe4;" 
d="M64 264v86l165 264h347v60l-91 145h-293v205h411l165 -264v-760h-539zM192 1229v205h192v-205h-192zM347 205h229v205h-229l-64 -103zM448 1229v205h192v-205h-192z" />
    <glyph glyph-name="aring" unicode="&#xe5;" 
d="M64 264v86l165 264h347v60l-91 145h-293v205h411l165 -264v-760h-539zM347 205h229v205h-229l-64 -103zM320 1229v205h192v-205h-192z" />
    <glyph glyph-name="ae" unicode="&#xe6;" 
d="M64 264v86l165 264h91v60l-128 205v145h155l69 -111l69 111h118l165 -264v-350h-256v-205h128v-205h-411zM283 307l37 -59v119zM512 614h64v60l-32 51l-32 -51v-60z" />
    <glyph glyph-name="ccedilla" unicode="&#xe7;" 
d="M64 760l165 264h539v-205h-421l-91 -145v-324l91 -145h421v-205h-128v-145l-165 -265h-155v146l128 205v59h-219l-165 264v496z" />
    <glyph glyph-name="egrave" unicode="&#xe8;" 
d="M64 760l165 264h91v59l-128 205v146h155l165 -265v-145h91l165 -264v-350h-512v-60l91 -145h293v-205h-411l-165 264v496zM347 819l-91 -145v-60h320v60l-91 145h-138z" />
    <glyph glyph-name="eacute" unicode="&#xe9;" 
d="M64 760l165 264h91v145l165 265h155v-146l-128 -205v-59h91l165 -264v-350h-512v-60l91 -145h293v-205h-411l-165 264v496zM347 819l-91 -145v-60h320v60l-91 145h-138z" />
    <glyph glyph-name="ecircumflex" unicode="&#xea;" 
d="M192 965v204l165 265h118l165 -265v-204l128 -205v-350h-512v-60l91 -145h293v-205h-411l-165 264v496zM347 819l-91 -145v-60h320v60l-91 145h-138zM384 1083v-59h64v59l-32 52z" />
    <glyph glyph-name="edieresis" unicode="&#xeb;" 
d="M64 760l165 264h374l165 -264v-350h-512v-60l91 -145h293v-205h-411l-165 264v496zM192 1229v205h192v-205h-192zM347 819l-91 -145v-60h320v60l-91 145h-138zM448 1229v205h192v-205h-192z" />
    <glyph glyph-name="igrave" unicode="&#xec;" 
d="M192 1288v146h155l165 -265v-145h-155zM192 614v205h320v-614h128v-205h-448v205h128v409h-128z" />
    <glyph glyph-name="iacute" unicode="&#xed;" 
d="M192 614v205h320v-614h128v-205h-448v205h128v409h-128zM320 1024v145l165 265h155v-146l-165 -264h-155z" />
    <glyph glyph-name="icircumflex" unicode="&#xee;" 
d="M192 1024v145l165 265h118l165 -265v-145h-155l-69 111l-69 -111h-155zM192 614v205h320v-614h128v-205h-448v205h128v409h-128z" />
    <glyph glyph-name="idieresis" unicode="&#xef;" 
d="M192 1229v205h192v-205h-192zM192 819v205h320v-819h128v-205h-448v205h128v614h-128zM448 1229v205h192v-205h-192z" />
    <glyph glyph-name="eth" unicode="&#xf0;" 
d="M64 1229v205h283l69 -111l69 111h155v-146l-101 -162l229 -366v-496l-165 -264h-374l-165 264v86l165 264h347v60l-160 256l-69 -111h-155v146l101 161l-64 103h-165zM347 205h138l91 145v60h-229l-64 -103z" />
    <glyph glyph-name="ntilde" unicode="&#xf1;" 
d="M64 1024h128v145l165 265h118l69 -111l69 111h155v-146l-128 -205v-118l128 -205v-760h-192v674l-91 145h-229v-819h-192v1024zM384 1024h64v59l-32 52l-32 -52v-59z" />
    <glyph glyph-name="ograve" unicode="&#xf2;" 
d="M64 555l165 264h374l165 -264v-291l-165 -264h-374l-165 264v291zM192 1288v146h155l165 -265v-145h-155zM347 614l-91 -145v-119l91 -145h138l91 145v119l-91 145h-138z" />
    <glyph glyph-name="oacute" unicode="&#xf3;" 
d="M64 555l165 264h374l165 -264v-291l-165 -264h-374l-165 264v291zM347 614l-91 -145v-119l91 -145h138l91 145v119l-91 145h-138zM320 1024v145l165 265h155v-146l-165 -264h-155z" />
    <glyph glyph-name="ocircumflex" unicode="&#xf4;" 
d="M64 555l165 264h374l165 -264v-291l-165 -264h-374l-165 264v291zM192 1024v145l165 265h118l165 -265v-145h-155l-69 111l-69 -111h-155zM347 614l-91 -145v-119l91 -145h138l91 145v119l-91 145h-138z" />
    <glyph glyph-name="otilde" unicode="&#xf5;" 
d="M64 555l165 264h374l165 -264v-291l-165 -264h-374l-165 264v291zM192 1024v145l165 265h118l69 -111l69 111h155v-146l-165 -264h-118l-69 111l-69 -111h-155zM347 614l-91 -145v-119l91 -145h138l91 145v119l-91 145h-138z" />
    <glyph glyph-name="odieresis" unicode="&#xf6;" 
d="M64 555l165 264h374l165 -264v-291l-165 -264h-374l-165 264v291zM192 1024v205h192v-205h-192zM347 614l-91 -145v-119l91 -145h138l91 145v119l-91 145h-138zM448 1024v205h192v-205h-192z" />
    <glyph glyph-name="divide" unicode="&#xf7;" 
d="M64 614v205h704v-205h-704zM320 1024v205h192v-205h-192zM320 205v205h192v-205h-192z" />
    <glyph glyph-name="oslash" unicode="&#xf8;" 
d="M64 760l165 264h246l69 -111l69 111h155v-145l-101 -162l101 -162v-291l-165 -264h-246l-69 111l-69 -111h-155v145l101 162l-101 162v291zM347 819l-91 -145v-119l32 -51l133 213l-64 102h-10zM475 205h10l91 145v119l-32 51l-133 -213z" />
    <glyph glyph-name="ugrave" unicode="&#xf9;" 
d="M64 1024h192v-674l91 -145h229v819h192v-1024h-539l-165 264v760zM192 1288v146h155l165 -265v-145h-155z" />
    <glyph glyph-name="uacute" unicode="&#xfa;" 
d="M64 1024h192v-674l91 -145h229v819h192v-1024h-539l-165 264v760zM320 1024v145l165 265h155v-146l-165 -264h-155z" />
    <glyph glyph-name="ucircumflex" unicode="&#xfb;" 
d="M64 819h192v-469l91 -145h229v614h192v-819h-539l-165 264v555zM192 1024v145l165 265h118l165 -265v-145h-155l-69 111l-69 -111h-155z" />
    <glyph glyph-name="udieresis" unicode="&#xfc;" 
d="M64 819h192v-469l91 -145h229v614h192v-819h-539l-165 264v555zM192 1024v205h192v-205h-192zM448 1024v205h192v-205h-192z" />
    <glyph glyph-name="yacute" unicode="&#xfd;" 
d="M64 1024h192v-674l91 -145h229v819h192v-1169l-165 -265h-411v205h293l91 146v59h-347l-165 264v760zM320 1024v145l165 265h155v-146l-165 -264h-155z" />
    <glyph glyph-name="thorn" unicode="&#xfe;" 
d="M64 1434h192v-410h347l165 -264v-496l-165 -264h-347v-410h-192v1844zM256 819v-614h229l91 145v324l-91 145h-229z" />
    <glyph glyph-name="ydieresis" unicode="&#xff;" 
d="M64 1024h192v-674l91 -145h229v819h192v-1169l-165 -265h-411v205h293l91 146v59h-347l-165 264v760zM192 1229v205h192v-205h-192zM448 1229v205h192v-205h-192z" />
    <glyph glyph-name="Amacron" unicode="&#x100;" 
d="M64 760l165 264h374l165 -264v-760h-192v410h-320v-410h-192v760zM192 1229v205h448v-205h-448zM347 819l-91 -145v-60h320v60l-91 145h-138z" />
    <glyph glyph-name="amacron" unicode="&#x101;" 
d="M64 264v86l165 264h347v60l-91 145h-293v205h411l165 -264v-760h-539zM192 1229v205h448v-205h-448zM347 205h229v205h-229l-64 -103z" />
    <glyph glyph-name="Aogonek" unicode="&#x104;" 
d="M64 965l293 469h118l293 -469v-906l-101 -161l101 -162v-146h-155l-165 265v86l128 204v265h-320v-410h-192v965zM256 879v-265h320v265l-160 256z" />
    <glyph glyph-name="aogonek" unicode="&#x105;" 
d="M64 264v86l165 264h347v60l-91 145h-293v205h411l165 -264v-760h-128v-59l128 -205v-146h-155l-165 265v145h-219zM347 205h229v205h-229l-64 -103z" />
    <glyph glyph-name="Cacute" unicode="&#x106;" 
d="M64 760l165 264h91v145l165 265h155v-146l-128 -205v-59h91l165 -264v-146h-155l-128 205h-138l-91 -145v-324l91 -145h138l128 205h155v-146l-165 -264h-374l-165 264v496z" />
    <glyph glyph-name="cacute" unicode="&#x107;" 
d="M64 760l165 264h91v145l165 265h155v-146l-128 -205v-59h256v-205h-421l-91 -145v-324l91 -145h421v-205h-539l-165 264v496z" />
    <glyph glyph-name="Ccircumflex" unicode="&#x108;" 
d="M192 965v204l165 265h118l165 -265v-204l128 -205v-146h-155l-128 205h-138l-91 -145v-324l91 -145h138l128 205h155v-146l-165 -264h-374l-165 264v496zM384 1083v-59h64v59l-32 52z" />
    <glyph glyph-name="ccircumflex" unicode="&#x109;" 
d="M192 965v204l165 265h118l165 -265v-145h128v-205h-421l-91 -145v-324l91 -145h421v-205h-539l-165 264v496zM384 1083v-59h64v59l-32 52z" />
    <glyph glyph-name="Cdotaccent" unicode="&#x10a;" 
d="M64 760l165 264h374l165 -264v-146h-155l-128 205h-138l-91 -145v-324l91 -145h138l128 205h155v-146l-165 -264h-374l-165 264v496zM320 1229v205h192v-205h-192z" />
    <glyph glyph-name="cdotaccent" unicode="&#x10b;" 
d="M64 760l165 264h539v-205h-421l-91 -145v-324l91 -145h421v-205h-539l-165 264v496zM320 1229v205h192v-205h-192z" />
    <glyph glyph-name="Ccaron" unicode="&#x10c;" 
d="M64 760l165 264h91v59l-128 205v146h155l69 -111l69 111h155v-146l-128 -205v-59h91l165 -264v-146h-155l-128 205h-138l-91 -145v-324l91 -145h138l128 205h155v-146l-165 -264h-374l-165 264v496z" />
    <glyph glyph-name="ccaron" unicode="&#x10d;" 
d="M64 760l165 264h91v59l-128 205v146h155l69 -111l69 111h155v-146l-128 -205v-59h256v-205h-421l-91 -145v-324l91 -145h421v-205h-539l-165 264v496z" />
    <glyph glyph-name="Dcaron" unicode="&#x10e;" 
d="M64 1024h256v59l-128 205v146h155l69 -111l69 111h155v-146l-128 -205v-59h91l165 -264v-496l-165 -264h-539v1024zM256 819v-614h229l91 145v324l-91 145h-229z" />
    <glyph glyph-name="dcaron" unicode="&#x10f;" 
d="M64 760l165 264h91v410h192v-1434h-283l-165 264v496zM256 674v-324l64 -102v528zM576 1434h192v-410h-192v410z" />
    <glyph glyph-name="Dcroat" unicode="&#x110;" 
d="M64 614v205h128v615h411l165 -265v-905l-165 -264h-411v614h-128zM384 1229v-410h128v-205h-128v-409h101l91 145v733l-91 146h-101z" />
    <glyph glyph-name="dcroat" unicode="&#x111;" 
d="M64 555l165 264h219v205h-128v205h128v205h192v-205h128v-205h-128v-1024h-411l-165 264v291zM347 614l-91 -145v-119l91 -145h101v409h-101z" />
    <glyph glyph-name="Emacron" unicode="&#x112;" 
d="M64 1024h704v-205h-512v-205h384v-204h-384v-205h512v-205h-704v1024zM192 1229v205h448v-205h-448z" />
    <glyph glyph-name="emacron" unicode="&#x113;" 
d="M64 760l165 264h374l165 -264v-350h-512v-60l91 -145h293v-205h-411l-165 264v496zM192 1229v205h448v-205h-448zM347 819l-91 -145v-60h320v60l-91 145h-138z" />
    <glyph glyph-name="Edotaccent" unicode="&#x116;" 
d="M64 1024h704v-205h-512v-205h384v-204h-384v-205h512v-205h-704v1024zM320 1229v205h192v-205h-192z" />
    <glyph glyph-name="edotaccent" unicode="&#x117;" 
d="M64 760l165 264h374l165 -264v-350h-512v-60l91 -145h293v-205h-411l-165 264v496zM347 819l-91 -145v-60h320v60l-91 145h-138zM320 1229v205h192v-205h-192z" />
    <glyph glyph-name="Eogonek" unicode="&#x118;" 
d="M64 1434h704v-205h-512v-410h384v-205h-384v-409h512v-205h-128v-59l128 -205v-146h-155l-165 265v145h-384v1434z" />
    <glyph glyph-name="eogonek" unicode="&#x119;" 
d="M64 760l165 264h374l165 -264v-350h-512v-60l91 -145h293v-264l128 -205v-146h-155l-165 265v145h-219l-165 264v496zM347 819l-91 -145v-60h320v60l-91 145h-138z" />
    <glyph glyph-name="Ecaron" unicode="&#x11a;" 
d="M64 1024h256v59l-128 205v146h155l69 -111l69 111h155v-146l-128 -205v-59h256v-205h-512v-205h384v-204h-384v-205h512v-205h-704v1024z" />
    <glyph glyph-name="ecaron" unicode="&#x11b;" 
d="M64 760l165 264h91v59l-128 205v146h155l69 -111l69 111h155v-146l-128 -205v-59h91l165 -264v-350h-512v-60l91 -145h293v-205h-411l-165 264v496zM347 819l-91 -145v-60h320v60l-91 145h-138z" />
    <glyph glyph-name="Gcircumflex" unicode="&#x11c;" 
d="M192 965v204l165 265h118l165 -265v-145h128v-205h-421l-91 -145v-324l91 -145h229v205h-128v204h320v-614h-539l-165 264v496zM384 1083v-59h64v59l-32 52z" />
    <glyph glyph-name="gcircumflex" unicode="&#x11d;" 
d="M192 965v204l165 265h118l165 -265v-145h128v-1169l-165 -265h-411v205h293l91 146v59h-347l-165 264v496zM347 819l-91 -145v-324l91 -145h229v614h-229zM384 1083v-59h64v59l-32 52z" />
    <glyph glyph-name="Gdotaccent" unicode="&#x120;" 
d="M64 760l165 264h539v-205h-421l-91 -145v-324l91 -145h229v205h-128v204h320v-614h-539l-165 264v496zM320 1229v205h192v-205h-192z" />
    <glyph glyph-name="gdotaccent" unicode="&#x121;" 
d="M64 760l165 264h539v-1169l-165 -265h-411v205h293l91 146v59h-347l-165 264v496zM347 819l-91 -145v-324l91 -145h229v614h-229zM320 1229v205h192v-205h-192z" />
    <glyph glyph-name="Hbar" unicode="&#x126;" 
d="M64 1434h192v-205h320v205h192v-1434h-192v614h-320v-614h-192v1434zM256 1024v-205h320v205h-320z" />
    <glyph glyph-name="hbar" unicode="&#x127;" 
d="M64 1024v205h128v205h192v-205h128v-205h-128v-205h219l165 -264v-555h-192v469l-91 145h-101v-614h-192v1024h-128z" />
    <glyph glyph-name="Itilde" unicode="&#x128;" 
d="M192 1024v145l165 265h118l69 -111l69 111h155v-146l-165 -264h-118l-69 111l-69 -111h-155zM192 614v205h448v-205h-128v-409h128v-205h-448v205h128v409h-128z" />
    <glyph glyph-name="itilde" unicode="&#x129;" 
d="M192 1024v145l165 265h118l69 -111l69 111h155v-146l-165 -264h-118l-69 111l-69 -111h-155zM192 614v205h320v-614h128v-205h-448v205h128v409h-128z" />
    <glyph glyph-name="Imacron" unicode="&#x12a;" 
d="M192 1229v205h448v-205h-448zM192 819v205h448v-205h-128v-614h128v-205h-448v205h128v614h-128z" />
    <glyph glyph-name="imacron" unicode="&#x12b;" 
d="M192 1229v205h448v-205h-448zM192 819v205h320v-819h128v-205h-448v205h128v614h-128z" />
    <glyph glyph-name="Iogonek" unicode="&#x12e;" 
d="M192 1229v205h448v-205h-128v-1024h128v-205h-128v-59l128 -205v-146h-155l-165 265v145h-128v205h128v1024h-128z" />
    <glyph glyph-name="iogonek" unicode="&#x12f;" 
d="M192 819v205h320v-819h128v-205h-128v-59l128 -205v-146h-155l-165 265v145h-128v205h128v614h-128zM320 1229v205h192v-205h-192z" />
    <glyph glyph-name="Idotaccent" unicode="&#x130;" 
d="M192 819v205h448v-205h-128v-614h128v-205h-448v205h128v614h-128zM320 1229v205h192v-205h-192z" />
    <glyph glyph-name="dotlessi" unicode="&#x131;" 
d="M192 819v205h320v-819h128v-205h-448v205h128v614h-128z" />
    <glyph glyph-name="IJ" unicode="&#x132;" 
d="M64 1434h192v-1434h-192v1434zM320 264v146h155l69 -111l32 51v1084h192v-1170l-165 -264h-118z" />
    <glyph glyph-name="ij" unicode="&#x133;" 
d="M64 819v205h320v-819h128v-205h-448v205h128v614h-128zM192 1229v205h192v-205h-192zM576 -59v1083h192v-1169l-165 -265h-155v146zM576 1229v205h192v-205h-192z" />
    <glyph glyph-name="Jcircumflex" unicode="&#x134;" 
d="M64 264v146h155l128 -205h10l91 145v469h192v-555l-165 -264h-246zM320 1024v145l165 265h118l165 -265v-145h-155l-69 111l-69 -111h-155z" />
    <glyph glyph-name="jcircumflex" unicode="&#x135;" 
d="M192 1024v145l165 265h118l165 -265v-145h-155l-69 111l-69 -111h-155zM320 -59v878h192v-964l-165 -265h-155v146z" />
    <glyph glyph-name="kgreenlandic" unicode="&#x138;" 
d="M64 1024h192v-410h101l256 410h155v-145l-229 -367l229 -367v-145h-155l-256 410h-101v-410h-192v1024z" />
    <glyph glyph-name="Lcaron" unicode="&#x13d;" 
d="M64 1434h192v-1229h512v-205h-704v1434zM448 1169v265h192v-351l-165 -264h-155v146z" />
    <glyph glyph-name="lcaron" unicode="&#x13e;" 
d="M64 1229v205h320v-1229h128v-205h-448v205h128v1024h-128zM576 1169v265h192v-351l-165 -264h-155v146z" />
    <glyph glyph-name="Ldot" unicode="&#x13f;" 
d="M64 1434h192v-1229h512v-205h-704v1434zM576 614v205h192v-205h-192z" />
    <glyph glyph-name="ldot" unicode="&#x140;" 
d="M64 1229v205h320v-1229h128v-205h-448v205h128v1024h-128zM576 614v205h192v-205h-192z" />
    <glyph glyph-name="Lslash" unicode="&#x141;" 
d="M64 614v205h128v615h192v-410h128v-205h-128v-614h384v-205h-576v614h-128z" />
    <glyph glyph-name="lslash" unicode="&#x142;" 
d="M192 1229v205h320v-410h128v-205h-128v-614h128v-205h-448v205h128v409h-128v205h128v410h-128z" />
    <glyph glyph-name="Nacute" unicode="&#x143;" 
d="M64 1024h192v-205h91l229 -366v571h192v-1024h-192v205h-91l-229 366v-571h-192v1024zM320 1024v145l165 265h155v-146l-165 -264h-155z" />
    <glyph glyph-name="nacute" unicode="&#x144;" 
d="M64 1024h256v145l165 265h155v-146l-128 -205v-59h91l165 -264v-760h-192v674l-91 145h-229v-819h-192v1024z" />
    <glyph glyph-name="Ncaron" unicode="&#x147;" 
d="M64 1024h192v-205h91l229 -366v571h192v-1024h-192v205h-91l-229 366v-571h-192v1024zM192 1288v146h155l69 -111l69 111h155v-146l-165 -264h-118z" />
    <glyph glyph-name="ncaron" unicode="&#x148;" 
d="M64 1024h256v59l-128 205v146h155l69 -111l69 111h155v-146l-128 -205v-59h91l165 -264v-760h-192v674l-91 145h-229v-819h-192v1024z" />
    <glyph glyph-name="napostrophe" unicode="&#x149;" 
d="M64 1434h192v-615h-192v615zM320 1024h283l165 -264v-760h-192v674l-64 102v-776h-192v1024z" />
    <glyph glyph-name="Eng" unicode="&#x14a;" 
d="M64 1434h192v-410h91l229 -367v777h192v-1579l-165 -265h-411v205h293l91 146v469h-91l-229 366v-776h-192v1434z" />
    <glyph glyph-name="eng" unicode="&#x14b;" 
d="M64 1024h539l165 -264v-905l-165 -265h-411v205h293l91 146v733l-91 145h-229v-819h-192v1024z" />
    <glyph glyph-name="Omacron" unicode="&#x14c;" 
d="M64 760l165 264h374l165 -264v-496l-165 -264h-374l-165 264v496zM192 1229v205h448v-205h-448zM347 819l-91 -145v-324l91 -145h138l91 145v324l-91 145h-138z" />
    <glyph glyph-name="omacron" unicode="&#x14d;" 
d="M64 555l165 264h374l165 -264v-291l-165 -264h-374l-165 264v291zM192 1024v205h448v-205h-448zM347 614l-91 -145v-119l91 -145h138l91 145v119l-91 145h-138z" />
    <glyph glyph-name="OE" unicode="&#x152;" 
d="M64 1169l165 265h539v-205h-256v-410h128v-205h-128v-409h256v-205h-539l-165 264v905zM256 1083v-733l64 -102v938z" />
    <glyph glyph-name="oe" unicode="&#x153;" 
d="M64 760l165 264h118l69 -111l69 111h118l165 -264v-350h-256v-60l91 -145h165v-205h-283l-69 111l-69 -111h-118l-165 264v496zM256 674v-324l32 -51l32 51v324l-32 51zM512 674v-60h64v60l-32 51z" />
    <glyph glyph-name="Racute" unicode="&#x154;" 
d="M64 1024h256v145l165 265h155v-146l-128 -205v-59h91l165 -264v-86l-128 -205v-119l128 -205v-145h-155l-165 264v146h-192v-410h-192v1024zM256 819v-205h229l64 103l-64 102h-229z" />
    <glyph glyph-name="racute" unicode="&#x155;" 
d="M192 1024h192v-162l64 103v204l165 265h155v-146l-128 -205v-59h128v-205h-165l-128 -205h-91v-614h-192v1024z" />
    <glyph glyph-name="Rcaron" unicode="&#x158;" 
d="M64 1024h256v59l-128 205v146h155l69 -111l69 111h155v-146l-128 -205v-59h91l165 -264v-86l-128 -205v-119l128 -205v-145h-155l-165 264v146h-192v-410h-192v1024zM256 819v-205h229l64 103l-64 102h-229z" />
    <glyph glyph-name="rcaron" unicode="&#x159;" 
d="M192 1024h192v-162l64 103v118l-128 205v146h155l69 -111l69 111h155v-146l-128 -205v-59h128v-205h-165l-128 -205h-91v-614h-192v1024z" />
    <glyph glyph-name="sacute" unicode="&#x15b;" 
d="M64 674v86l165 264h91v145l165 265h155v-146l-128 -205v-59h256v-205h-421l-64 -102l64 -103h256l165 -264v-86l-165 -264h-539v205h421l64 102l-64 103h-256z" />
    <glyph glyph-name="Scedilla" unicode="&#x15e;" 
d="M64 1169l165 265h374l165 -265v-145h-155l-128 205h-138l-91 -146v-118l91 -146h256l165 -264v-291l-165 -264h-91v-145l-165 -265h-155v146l128 205v59h-91l-165 264v146h155l128 -205h138l91 145v119l-91 145h-256l-165 265v290z" />
    <glyph glyph-name="scedilla" unicode="&#x15f;" 
d="M64 674v86l165 264h539v-205h-421l-64 -102l64 -103h256l165 -264v-86l-165 -264h-91v-145l-165 -265h-155v146l128 205v59h-256v205h421l64 102l-64 103h-256z" />
    <glyph glyph-name="scaron" unicode="&#x161;" 
d="M64 674v86l165 264h91v59l-128 205v146h155l69 -111l69 111h155v-146l-128 -205v-59h256v-205h-421l-64 -102l64 -103h256l165 -264v-86l-165 -264h-539v205h421l64 102l-64 103h-256z" />
    <glyph glyph-name="uni0162" unicode="&#x162;" 
d="M64 1229v205h704v-205h-256v-1084l128 -204v-86l-165 -265h-155v146l101 162l-101 161v1170h-256z" />
    <glyph glyph-name="uni0163" unicode="&#x163;" 
d="M192 819v205h128v410h192v-410h128v-205h-128v-469l32 -51l69 111h155v-146l-128 -205v-204l-165 -265h-155v146l128 205v118l-128 205v555h-128z" />
    <glyph glyph-name="Tcaron" unicode="&#x164;" 
d="M64 819v205h256v59l-128 205v146h155l69 -111l69 111h155v-146l-128 -205v-59h256v-205h-256v-819h-192v819h-256z" />
    <glyph glyph-name="tcaron" unicode="&#x165;" 
d="M64 819v205h128v410h192v-410h128v-205h-128v-469l128 -205v-145h-155l-165 264v555h-128zM576 1434h192v-410h-192v410z" />
    <glyph glyph-name="Umacron" unicode="&#x16a;" 
d="M64 1024h192v-674l91 -145h138l91 145v674h192v-760l-165 -264h-374l-165 264v760zM192 1229v205h448v-205h-448z" />
    <glyph glyph-name="umacron" unicode="&#x16b;" 
d="M64 819h192v-469l91 -145h229v614h192v-819h-539l-165 264v555zM192 1024v205h448v-205h-448z" />
    <glyph glyph-name="Uring" unicode="&#x16e;" 
d="M64 1024h192v-674l91 -145h138l91 145v674h192v-760l-165 -264h-374l-165 264v760zM320 1229v205h192v-205h-192z" />
    <glyph glyph-name="uring" unicode="&#x16f;" 
d="M64 1024h192v-674l91 -145h229v819h192v-1024h-539l-165 264v760zM320 1229v205h192v-205h-192z" />
    <glyph glyph-name="Uogonek" unicode="&#x172;" 
d="M64 1434h192v-1084l91 -145h138l91 145v1084h192v-1170l-165 -264h-91v-59l128 -205v-146h-155l-165 265v145h-91l-165 264v1170z" />
    <glyph glyph-name="uogonek" unicode="&#x173;" 
d="M64 1024h192v-674l91 -145h229v819h192v-1024h-128v-59l128 -205v-146h-155l-165 265v145h-219l-165 264v760z" />
    <glyph glyph-name="Wcircumflex" unicode="&#x174;" 
d="M64 819h192v-469l32 -51l32 51v264h192v-264l32 -51l32 51v469h192v-555l-165 -264h-118l-69 111l-69 -111h-118l-165 264v555zM192 1024v145l165 265h118l165 -265v-145h-155l-69 111l-69 -111h-155z" />
    <glyph glyph-name="wcircumflex" unicode="&#x175;" 
d="M64 819h192v-469l32 -51l69 111h118l69 -111l32 51v469h192v-555l-165 -264h-118l-69 111l-69 -111h-118l-165 264v555zM192 1024v145l165 265h118l165 -265v-145h-155l-69 111l-69 -111h-155z" />
    <glyph glyph-name="Ycircumflex" unicode="&#x176;" 
d="M64 674v145h155l197 -315l197 315h155v-145l-256 -410v-264h-192v264zM192 1024v145l165 265h118l165 -265v-145h-155l-69 111l-69 -111h-155z" />
    <glyph glyph-name="ycircumflex" unicode="&#x177;" 
d="M64 819h192v-469l91 -145h229v614h192v-964l-165 -265h-411v205h293l91 146v59h-347l-165 264v555zM192 1024v145l165 265h118l165 -265v-145h-155l-69 111l-69 -111h-155z" />
    <glyph glyph-name="Ydieresis" unicode="&#x178;" 
d="M64 879v145h155l197 -315l197 315h155v-145l-256 -410v-469h-192v469zM192 1229v205h192v-205h-192zM448 1229v205h192v-205h-192z" />
    <glyph glyph-name="Zacute" unicode="&#x179;" 
d="M64 819v205h256v145l165 265h155v-146l-128 -205v-59h256v-350l-165 -264h-256l-91 -146v-59h512v-205h-704v350l165 264h256l91 146v59h-512z" />
    <glyph glyph-name="zacute" unicode="&#x17a;" 
d="M64 819v205h256v145l165 265h155v-146l-128 -205v-59h256v-205h-128v-145l-256 -410v-59h384v-205h-704v205h128v145l256 410v59h-384z" />
    <glyph glyph-name="Zdotaccent" unicode="&#x17b;" 
d="M64 819v205h704v-350l-165 -264h-256l-91 -146v-59h512v-205h-704v350l165 264h256l91 146v59h-512zM320 1229v205h192v-205h-192z" />
    <glyph glyph-name="zdotaccent" unicode="&#x17c;" 
d="M64 819v205h704v-205h-128v-145l-256 -410v-59h384v-205h-704v205h128v145l256 410v59h-384zM320 1229v205h192v-205h-192z" />
    <glyph glyph-name="Zcaron" unicode="&#x17d;" 
d="M64 819v205h256v59l-128 205v146h155l69 -111l69 111h155v-146l-128 -205v-59h256v-350l-165 -264h-256l-91 -146v-59h512v-205h-704v350l165 264h256l91 146v59h-512z" />
    <glyph glyph-name="zcaron" unicode="&#x17e;" 
d="M64 819v205h256v59l-128 205v146h155l69 -111l69 111h155v-146l-128 -205v-59h256v-205h-128v-145l-256 -410v-59h384v-205h-704v205h128v145l256 410v59h-384z" />
    <glyph glyph-name="longs" unicode="&#x17f;" 
d="M320 1169l165 265h155v-146l-128 -205v-1083h-192v1169z" />
    <glyph glyph-name="uni0188" unicode="&#x188;" 
d="M64 760l165 264h219v410h320v-205h-128v-205h128v-205h-421l-91 -145v-324l91 -145h421v-205h-539l-165 264v496z" />
    <glyph glyph-name="uni018E" unicode="&#x18e;" 
d="M64 1229v205h704v-1434h-704v205h512v409h-384v205h384v410h-512z" />
    <glyph glyph-name="uni018F" unicode="&#x18f;" 
d="M64 1024v145l165 265h374l165 -265v-905l-165 -264h-374l-165 264v555h512v264l-91 146h-138l-128 -205h-155zM256 614v-264l91 -145h138l91 145v264h-320z" />
    <glyph glyph-name="florin" unicode="&#x192;" 
d="M192 614v205h128v350l165 265h155v-146l-128 -205v-264h128v-205h-128v-759l-165 -265h-155v146l128 205v673h-128z" />
    <glyph glyph-name="uni0199" unicode="&#x199;" 
d="M192 1169l165 265h283v-205h-165l-91 -146v-426l229 367h155v-145l-229 -367l229 -367v-145h-155l-229 367v-367h-192v1169z" />
    <glyph glyph-name="uni019B" unicode="&#x19b;" 
d="M64 1229v205h283l165 -265v-145h128v-205h-128v-59l128 -205v-205l128 -205v-145h-155l-165 264v205l-32 51l-32 -51v-205l-165 -264h-155v145l128 205v205l128 205v59h-128v205h128v59l-91 146h-165z" />
    <glyph glyph-name="uni019E" unicode="&#x19e;" 
d="M64 1024h539l165 -264v-1170h-192v1084l-91 145h-229v-819h-192v1024z" />
    <glyph glyph-name="uni01A5" unicode="&#x1a5;" 
d="M64 1169l165 265h283v-205h-165l-91 -146v-59h347l165 -264v-496l-165 -264h-347v-410h-192v1579zM256 819v-614h229l91 145v324l-91 145h-229z" />
    <glyph glyph-name="uni01A7" unicode="&#x1a7;" 
d="M64 1024v145l165 265h374l165 -265v-290l-165 -265h-256l-91 -145v-119l91 -145h138l128 205h155v-146l-165 -264h-374l-165 264v291l165 264h256l91 146v118l-91 146h-138l-128 -205h-155z" />
    <glyph glyph-name="uni01A8" unicode="&#x1a8;" 
d="M64 264v86l165 264h256l64 103l-64 102h-293v205h411l165 -264v-86l-165 -264h-256l-64 -103l64 -102h293v-205h-411z" />
    <glyph glyph-name="uni01AB" unicode="&#x1ab;" 
d="M192 819v205h128v410h192v-410h128v-205h-128v-469l128 -205v-86l-165 -264h-283v205h165l64 102l-101 162v555h-128z" />
    <glyph glyph-name="uni01AD" unicode="&#x1ad;" 
d="M192 819v205h128v145l165 265h155v-146l-128 -205v-59h128v-205h-128v-469l128 -205v-145h-155l-165 264v555h-128z" />
    <glyph glyph-name="uni01BB" unicode="&#x1bb;" 
d="M64 1024v145l165 265h374l165 -265v-290l-101 -162l101 -162v-145h-155l-69 110l-69 -110h-128l-91 -146v-59h512v-205h-704v350l165 264h128l64 103l-101 162v145h155l69 -111l32 52v118l-91 146h-138l-128 -205h-155z" />
    <glyph glyph-name="uni01C0" unicode="&#x1c0;" 
d="M320 1434h192v-1844h-192v1844z" />
    <glyph glyph-name="uni01C1" unicode="&#x1c1;" 
d="M192 1434h192v-1844h-192v1844zM448 1434h192v-1844h-192v1844z" />
    <glyph glyph-name="uni01C2" unicode="&#x1c2;" 
d="M64 614v205h256v615h192v-615h256v-205h-256v-204h256v-205h-256v-615h-192v615h-256v205h256v204h-256z" />
    <glyph glyph-name="uni01C3" unicode="&#x1c3;" 
d="M320 1434h192v-1024h-192v1024zM320 0v205h192v-205h-192z" />
    <glyph glyph-name="uni01CD" unicode="&#x1cd;" 
d="M64 760l165 264h91v59l-128 205v146h155l69 -111l69 111h155v-146l-128 -205v-59h91l165 -264v-760h-192v410h-320v-410h-192v760zM347 819l-91 -145v-60h320v60l-91 145h-138z" />
    <glyph glyph-name="uni01CE" unicode="&#x1ce;" 
d="M64 264v86l165 264h347v60l-91 145h-293v205h128v59l-128 205v146h155l69 -111l69 111h155v-146l-128 -205v-59h91l165 -264v-760h-539zM347 205h229v205h-229l-64 -103z" />
    <glyph glyph-name="uni01CF" unicode="&#x1cf;" 
d="M192 1288v146h155l69 -111l69 111h155v-146l-165 -264h-118zM192 614v205h448v-205h-128v-409h128v-205h-448v205h128v409h-128z" />
    <glyph glyph-name="uni01D0" unicode="&#x1d0;" 
d="M192 1288v146h155l69 -111l69 111h155v-146l-165 -264h-118zM192 614v205h320v-614h128v-205h-448v205h128v409h-128z" />
    <glyph glyph-name="uni01D1" unicode="&#x1d1;" 
d="M64 760l165 264h91v59l-128 205v146h155l69 -111l69 111h155v-146l-128 -205v-59h91l165 -264v-496l-165 -264h-374l-165 264v496zM347 819l-91 -145v-324l91 -145h138l91 145v324l-91 145h-138z" />
    <glyph glyph-name="uni01D2" unicode="&#x1d2;" 
d="M64 555l165 264h374l165 -264v-291l-165 -264h-374l-165 264v291zM192 1288v146h155l69 -111l69 111h155v-146l-165 -264h-118zM347 614l-91 -145v-119l91 -145h138l91 145v119l-91 145h-138z" />
    <glyph glyph-name="uni01D3" unicode="&#x1d3;" 
d="M64 1024h192v-674l91 -145h138l91 145v674h192v-760l-165 -264h-374l-165 264v760zM192 1288v146h155l69 -111l69 111h155v-146l-165 -264h-118z" />
    <glyph glyph-name="uni01D4" unicode="&#x1d4;" 
d="M64 1024h192v-674l91 -145h229v819h192v-1024h-539l-165 264v760zM192 1288v146h155l69 -111l69 111h155v-146l-165 -264h-118z" />
    <glyph glyph-name="uni01D5" unicode="&#x1d5;" 
d="M64 614h192v-264l91 -145h138l91 145v264h192v-350l-165 -264h-374l-165 264v350zM192 1229v205h448v-205h-448zM192 819v205h192v-205h-192zM448 819v205h192v-205h-192z" />
    <glyph glyph-name="uni01D6" unicode="&#x1d6;" 
d="M64 614h192v-264l91 -145h229v409h192v-614h-539l-165 264v350zM192 1229v205h448v-205h-448zM192 819v205h192v-205h-192zM448 819v205h192v-205h-192z" />
    <glyph glyph-name="uni01D7" unicode="&#x1d7;" 
d="M64 819v205h192v-205h-192zM64 614h192v-264l91 -145h138l91 145v264h192v-350l-165 -264h-374l-165 264v350zM320 1024v145l165 265h155v-146l-165 -264h-155zM576 819v205h192v-205h-192z" />
    <glyph glyph-name="uni01D8" unicode="&#x1d8;" 
d="M64 819v205h192v-205h-192zM64 614h192v-264l91 -145h229v409h192v-614h-539l-165 264v350zM320 1024v145l165 265h155v-146l-165 -264h-155zM576 819v205h192v-205h-192z" />
    <glyph glyph-name="uni01D9" unicode="&#x1d9;" 
d="M64 819v205h192v-205h-192zM64 614h192v-264l91 -145h138l91 145v264h192v-350l-165 -264h-374l-165 264v350zM192 1288v146h155l69 -111l69 111h155v-146l-165 -264h-118zM576 819v205h192v-205h-192z" />
    <glyph glyph-name="uni01DA" unicode="&#x1da;" 
d="M64 819v205h192v-205h-192zM64 614h192v-264l91 -145h229v409h192v-614h-539l-165 264v350zM192 1288v146h155l69 -111l69 111h155v-146l-165 -264h-118zM576 819v205h192v-205h-192z" />
    <glyph glyph-name="uni01DB" unicode="&#x1db;" 
d="M64 819v205h192v-205h-192zM64 614h192v-264l91 -145h138l91 145v264h192v-350l-165 -264h-374l-165 264v350zM192 1288v146h155l69 -111l69 111h155v-146l-165 -264h-118zM576 819v205h192v-205h-192z" />
    <glyph glyph-name="uni01DC" unicode="&#x1dc;" 
d="M64 819v205h192v-205h-192zM64 614h192v-264l91 -145h229v409h192v-614h-539l-165 264v350zM192 1288v146h155l69 -111l69 111h155v-146l-165 -264h-118zM576 819v205h192v-205h-192z" />
    <glyph glyph-name="uni01DD" unicode="&#x1dd;" 
d="M64 614h512v60l-91 145h-293v205h411l165 -264v-496l-165 -264h-374l-165 264v350zM256 410v-60l91 -145h138l91 145v60h-320z" />
    <glyph glyph-name="uni01E2" unicode="&#x1e2;" 
d="M64 760l165 264h539v-205h-256v-205h128v-204h-128v-205h256v-205h-448v205h-64v-205h-192v760zM192 1229v205h448v-205h-448zM256 674v-264h64v366z" />
    <glyph glyph-name="uni01E3" unicode="&#x1e3;" 
d="M64 264v86l165 264h91v60l-128 205v145h155l69 -111l69 111h118l165 -264v-350h-256v-205h128v-205h-411zM192 1229v205h448v-205h-448zM283 307l37 -59v119zM512 614h64v60l-32 51l-32 -51v-60z" />
    <glyph glyph-name="uni01F0" unicode="&#x1f0;" 
d="M192 1288v146h155l69 -111l69 111h155v-146l-165 -264h-118zM320 -59v878h192v-964l-165 -265h-155v146z" />
    <glyph glyph-name="uni01F8" unicode="&#x1f8;" 
d="M64 1024h192v-205h91l229 -366v571h192v-1024h-192v205h-91l-229 366v-571h-192v1024zM192 1288v146h155l165 -265v-145h-155z" />
    <glyph glyph-name="uni01F9" unicode="&#x1f9;" 
d="M64 1024h256v59l-128 205v146h155l165 -265v-145h91l165 -264v-760h-192v674l-91 145h-229v-819h-192v1024z" />
    <glyph glyph-name="uni0232" unicode="&#x232;" 
d="M64 879v145h155l197 -315l197 315h155v-145l-256 -410v-469h-192v469zM192 1229v205h448v-205h-448z" />
    <glyph glyph-name="uni0233" unicode="&#x233;" 
d="M64 1024h192v-674l91 -145h229v819h192v-1169l-165 -265h-411v205h293l91 146v59h-347l-165 264v760zM192 1229v205h448v-205h-448z" />
    <glyph glyph-name="uni0237" unicode="&#x237;" 
d="M320 -59v1083h192v-1169l-165 -265h-155v146z" />
    <glyph glyph-name="uni023F" unicode="&#x23f;" 
d="M64 674v86l165 264h539v-205h-421l-64 -102l64 -103h256l165 -264v-86l-165 -264h-91v-59l91 -146h165v-205h-283l-165 265v145h-256v205h421l64 102l-64 103h-256z" />
    <glyph glyph-name="uni0240" unicode="&#x240;" 
d="M64 819v205h704v-205h-128v-145l-256 -410v-119l219 -350h165v-205h-283l-256 410h-165v205h128v145l256 410v59h-384z" />
    <glyph glyph-name="uni0245" unicode="&#x245;" 
d="M192 760v205l128 204v265h192v-265l128 -204v-205l128 -205v-555h-192v469l-128 205v205l-32 51l-32 -51v-205l-128 -205v-469h-192v555z" />
    <glyph glyph-name="uni0250" unicode="&#x250;" 
d="M64 1024h539l165 -264v-86l-165 -264h-347v-60l91 -145h293v-205h-411l-165 264v760zM256 819v-205h229l64 103l-64 102h-229z" />
    <glyph glyph-name="uni0251" unicode="&#x251;" 
d="M64 760l165 264h539v-1024h-192v162l-101 -162h-246l-165 264v496zM347 819l-91 -145v-324l91 -145h10l128 205h91v409h-229z" />
    <glyph glyph-name="uni0252" unicode="&#x252;" 
d="M64 1024h192v-162l101 162h246l165 -264v-496l-165 -264h-539v1024zM256 614v-409h229l91 145v324l-91 145h-10l-128 -205h-91z" />
    <glyph glyph-name="uni0253" unicode="&#x253;" 
d="M64 1169l165 265h283v-205h-165l-91 -146v-59h347l165 -264v-496l-165 -264h-539v1169zM256 819v-614h229l91 145v324l-91 145h-229z" />
    <glyph glyph-name="uni0254" unicode="&#x254;" 
d="M64 819v205h539l165 -264v-496l-165 -264h-539v205h421l91 145v324l-91 145h-421z" />
    <glyph glyph-name="uni0255" unicode="&#x255;" 
d="M64 760l165 264h539v-205h-421l-91 -145v-324l64 -102v102l165 264h118l165 -264v-86l-165 -264h-91v-205h-192v205h-91l-165 264v496zM512 264v-16l37 59l-5 8z" />
    <glyph glyph-name="uni0256" unicode="&#x256;" 
d="M64 760l165 264h219v410h192v-1493l128 -205v-146h-155l-165 265v145h-219l-165 264v496zM347 819l-91 -145v-324l91 -145h101v614h-101z" />
    <glyph glyph-name="uni0257" unicode="&#x257;" 
d="M64 760l165 264h219v145l165 265h155v-146l-128 -205v-1083h-411l-165 264v496zM347 819l-91 -145v-324l91 -145h101v614h-101z" />
    <glyph glyph-name="uni0258" unicode="&#x258;" 
d="M64 760l165 264h374l165 -264v-496l-165 -264h-411v205h293l91 145v60h-512v350zM347 819l-91 -145v-60h320v60l-91 145h-138z" />
    <glyph glyph-name="uni0259" unicode="&#x259;" 
d="M64 614h512v60l-91 145h-293v205h411l165 -264v-496l-165 -264h-374l-165 264v350zM256 410v-60l91 -145h138l91 145v60h-320z" />
    <glyph glyph-name="uni025A" unicode="&#x25a;" 
d="M64 819v205h283l165 -264v-307l101 161h155v-145l-165 -264h-128l-128 -205h-118l-165 264v350h256v60l-91 145h-165zM256 410v-60l32 -51l32 51v60h-64z" />
    <glyph glyph-name="uni025B" unicode="&#x25b;" 
d="M64 674v86l165 264h539v-205h-421l-64 -102l64 -103h293v-204h-293l-64 -103l64 -102h421v-205h-539l-165 264v86l101 162z" />
    <glyph glyph-name="uni025C" unicode="&#x25c;" 
d="M64 819v205h539l165 -264v-86l-101 -162l101 -162v-86l-165 -264h-539v205h421l64 102l-64 103h-293v204h293l64 103l-64 102h-421z" />
    <glyph glyph-name="uni025D" unicode="&#x25d;" 
d="M64 819v205h283l165 -264v-86l-101 -162l64 -102h10l128 204h155v-145l-165 -264h-128l-128 -205h-283v205h165l64 102l-64 103h-165v204h165l64 103l-64 102h-165z" />
    <glyph glyph-name="uni025E" unicode="&#x25e;" 
d="M64 760l165 264h374l165 -264v-86l-101 -162l101 -162v-86l-165 -264h-374l-165 264v496zM347 819l-91 -145v-324l91 -145h138l64 102l-64 103h-165v204h165l64 103l-64 102h-138z" />
    <glyph glyph-name="uni025F" unicode="&#x25f;" 
d="M192 205v205h128v614h192v-614h128v-205h-128v-350l-165 -265h-155v146l128 205v264h-128z" />
    <glyph glyph-name="uni0260" unicode="&#x260;" 
d="M64 760l165 264h219v145l165 265h155v-146l-128 -205v-1228l-165 -265h-283v205h165l91 146v59h-219l-165 264v496zM347 819l-91 -145v-324l91 -145h101v614h-101z" />
    <glyph glyph-name="uni0261" unicode="&#x261;" 
d="M64 760l165 264h539v-1169l-165 -265h-411v205h293l91 146v59h-347l-165 264v496zM347 819l-91 -145v-324l91 -145h229v614h-229z" />
    <glyph glyph-name="uni0262" unicode="&#x262;" 
d="M64 760l165 264h539v-205h-421l-91 -145v-324l91 -145h229v205h-128v204h320v-614h-539l-165 264v496z" />
    <glyph glyph-name="uni0263" unicode="&#x263;" 
d="M64 879v145h155l165 -264v-205l32 -51l32 51v205l165 264h155v-145l-128 -205v-205l-101 -162l101 -162v-290l-165 -265h-118l-165 265v290l101 162l-101 162v205zM384 59v-118l32 -52l32 52v118l-32 52z" />
    <glyph glyph-name="uni0264" unicode="&#x264;" 
d="M64 819v205h283l69 -111l69 111h283v-205h-165l-64 -102l101 -162v-291l-165 -264h-118l-165 264v291l101 162l-64 102h-165zM384 469v-119l32 -51l32 51v119l-32 51z" />
    <glyph glyph-name="uni0265" unicode="&#x265;" 
d="M64 1024h192v-674l91 -145h229v819h192v-1434h-192v410h-347l-165 264v760z" />
    <glyph glyph-name="uni0266" unicode="&#x266;" 
d="M64 1169l165 265h283v-205h-165l-91 -146v-59h347l165 -264v-760h-192v674l-91 145h-229v-819h-192v1169z" />
    <glyph glyph-name="uni0267" unicode="&#x267;" 
d="M64 1169l165 265h283v-205h-165l-91 -146v-59h347l165 -264v-905l-165 -265h-283v205h165l91 146v733l-91 145h-229v-819h-192v1169z" />
    <glyph glyph-name="uni0268" unicode="&#x268;" 
d="M192 819v205h320v-410h128v-204h-128v-205h128v-205h-448v205h128v205h-128v204h128v205h-128zM320 1229v205h192v-205h-192z" />
    <glyph glyph-name="uni0269" unicode="&#x269;" 
d="M192 819v205h320v-674l128 -205v-145h-155l-165 264v555h-128z" />
    <glyph glyph-name="uni026A" unicode="&#x26a;" 
d="M192 819v205h448v-205h-128v-614h128v-205h-448v205h128v614h-128z" />
    <glyph glyph-name="uni026B" unicode="&#x26b;" 
d="M64 614v146l165 264h91v205h-128v205h320v-572l101 162h155v-145l-165 -265h-91v-409h128v-205h-448v205h128v571l-101 -162h-155z" />
    <glyph glyph-name="uni026C" unicode="&#x26c;" 
d="M64 674v86l165 264h91v205h-128v205h320v-777l101 162h155v-145l-165 -264h-91v-205h128v-205h-448v205h128v205h-91zM283 717l37 -60v119z" />
    <glyph glyph-name="uni026D" unicode="&#x26d;" 
d="M192 1229v205h320v-1493l128 -205v-146h-155l-165 265v1374h-128z" />
    <glyph glyph-name="uni026E" unicode="&#x26e;" 
d="M64 1229v205h320v-410h384v-350l-101 -162l101 -162v-495l-165 -265h-283v205h165l91 146v323l-128 205v86l128 205v59h-192v-614h128v-205h-448v205h128v1024h-128z" />
    <glyph glyph-name="uni026F" unicode="&#x26f;" 
d="M64 1024h192v-674l32 -51l32 51v674h192v-674l64 -102v776h192v-1024h-283l-69 111l-69 -111h-118l-165 264v760z" />
    <glyph glyph-name="uni0270" unicode="&#x270;" 
d="M64 1024h192v-674l32 -51l32 51v674h192v-674l64 -102v776h192v-1434h-192v410h-91l-69 111l-69 -111h-118l-165 264v760z" />
    <glyph glyph-name="uni0271" unicode="&#x271;" 
d="M64 1024h283l69 -111l69 111h118l165 -264v-905l-165 -265h-155v146l128 205v733l-32 51l-32 -51v-674h-192v674l-64 102v-776h-192v1024z" />
    <glyph glyph-name="uni0272" unicode="&#x272;" 
d="M192 -59v1083h411l165 -264v-760h-192v674l-91 145h-101v-964l-165 -265h-155v146z" />
    <glyph glyph-name="uni0273" unicode="&#x273;" 
d="M64 1024h411l165 -264v-819l128 -205v-146h-155l-165 265v819l-91 145h-101v-819h-192v1024z" />
    <glyph glyph-name="uni0274" unicode="&#x274;" 
d="M64 1024h192v-205h91l229 -366v571h192v-1024h-192v205h-91l-229 366v-571h-192v1024z" />
    <glyph glyph-name="uni0275" unicode="&#x275;" 
d="M64 760l165 264h374l165 -264v-496l-165 -264h-374l-165 264v496zM347 819l-91 -145v-60h320v60l-91 145h-138zM256 410v-60l91 -145h138l91 145v60h-320z" />
    <glyph glyph-name="uni0276" unicode="&#x276;" 
d="M64 760l165 264h539v-205h-256v-205h256v-204h-256v-205h256v-205h-539l-165 264v496zM256 674v-324l64 -102v528z" />
    <glyph glyph-name="uni0277" unicode="&#x277;" 
d="M64 760l165 264h374l165 -264v-496l-165 -264h-118l-69 111l-69 -111h-118l-165 264v496zM347 819l-91 -145v-324l32 -51l32 51v264h192v-264l32 -51l32 51v324l-91 145h-138z" />
    <glyph glyph-name="uni0278" unicode="&#x278;" 
d="M64 760l165 264h91v410h192v-410h91l165 -264v-496l-165 -264h-91v-410h-192v410h-91l-165 264v496zM256 674v-324l64 -102v528zM576 674l-64 102v-528l64 102v324z" />
    <glyph glyph-name="uni0279" unicode="&#x279;" 
d="M64 0v205h165l128 205h91v614h192v-1024h-192v162l-101 -162h-283z" />
    <glyph glyph-name="uni027A" unicode="&#x27a;" 
d="M64 0v205h165l128 205h91v1024h192v-1434h-192v162l-101 -162h-283z" />
    <glyph glyph-name="uni027B" unicode="&#x27b;" 
d="M64 0v205h165l128 205h91v614h192v-1083l128 -205v-146h-155l-165 265v307l-101 -162h-283z" />
    <glyph glyph-name="uni027C" unicode="&#x27c;" 
d="M192 1024h192v-162l101 162h283v-205h-165l-128 -205h-91v-1024h-192v1434z" />
    <glyph glyph-name="uni027D" unicode="&#x27d;" 
d="M192 1024h192v-162l101 162h283v-205h-165l-128 -205h-91v-673l128 -205v-146h-155l-165 265v1169z" />
    <glyph glyph-name="uni027E" unicode="&#x27e;" 
d="M192 760l165 264h246l165 -264v-146h-155l-128 205h-10l-91 -145v-674h-192v760z" />
    <glyph glyph-name="uni0280" unicode="&#x280;" 
d="M64 1024h539l165 -264v-86l-128 -205v-119l128 -205v-145h-155l-165 264v146h-192v-410h-192v1024zM256 819v-205h229l64 103l-64 102h-229z" />
    <glyph glyph-name="uni0281" unicode="&#x281;" 
d="M64 1024h192v-410h192v146l165 264h155v-145l-128 -205v-119l128 -205v-86l-165 -264h-539v1024zM256 410v-205h229l64 102l-64 103h-229z" />
    <glyph glyph-name="uni0282" unicode="&#x282;" 
d="M64 674v86l165 264h539v-205h-421l-64 -102l64 -103h256l165 -264v-86l-165 -264h-347v-59l128 -205v-146h-155l-165 265v350h421l64 102l-64 103h-256z" />
    <glyph glyph-name="uni0283" unicode="&#x283;" 
d="M320 -59v1228l165 265h155v-146l-128 -205v-1228l-165 -265h-155v146z" />
    <glyph glyph-name="uni0284" unicode="&#x284;" 
d="M192 205v205h128v759l165 265h155v-146l-128 -205v-673h128v-205h-128v-350l-165 -265h-155v146l128 205v264h-128z" />
    <glyph glyph-name="uni0286" unicode="&#x286;" 
d="M64 145l165 265h91v759l165 265h155v-146l-128 -205v-673h128v-205h-128v-350l-165 -265h-118l-165 265v290zM256 59v-118l32 -52l32 52v221z" />
    <glyph glyph-name="uni0287" unicode="&#x287;" 
d="M192 879v145h155l165 -264v-555h128v-205h-128v-410h-192v410h-128v205h128v469z" />
    <glyph glyph-name="uni0288" unicode="&#x288;" 
d="M192 819v205h128v410h192v-410h128v-205h-128v-878l128 -205v-146h-155l-165 265v964h-128z" />
    <glyph glyph-name="uni0289" unicode="&#x289;" 
d="M64 614v205h128v205h192v-205h64v205h192v-205h128v-205h-128v-614h-283l-165 264v350h-128zM384 614v-264l64 -102v366h-64z" />
    <glyph glyph-name="uni028A" unicode="&#x28a;" 
d="M64 819v205h320v-350l-128 -205v-119l91 -145h138l91 145v119l-128 205v350h320v-205h-128v-59l128 -205v-291l-165 -264h-374l-165 264v291l128 205v59h-128z" />
    <glyph glyph-name="uni028B" unicode="&#x28b;" 
d="M64 819v205h320v-776l192 307v119l-128 205v145h155l165 -264v-291l-293 -469h-283v819h-128z" />
    <glyph glyph-name="uni028C" unicode="&#x28c;" 
d="M192 555v205l165 264h118l165 -264v-205l128 -205v-350h-192v264l-128 205v205l-32 51l-32 -51v-205l-128 -205v-264h-192v350z" />
    <glyph glyph-name="uni028D" unicode="&#x28d;" 
d="M64 760l165 264h118l69 -111l69 111h118l165 -264v-760h-192v674l-32 51l-32 -51v-264h-192v264l-32 51l-32 -51v-674h-192v760z" />
    <glyph glyph-name="uni028E" unicode="&#x28e;" 
d="M64 1169l165 265h411v-205h-293l-91 -146v-59h219l293 -469v-555h-192v469l-219 350h-101v-819h-192v1169z" />
    <glyph glyph-name="uni028F" unicode="&#x28f;" 
d="M64 879v145h155l197 -315l197 315h155v-145l-256 -410v-469h-192v469z" />
    <glyph glyph-name="uni0290" unicode="&#x290;" 
d="M64 819v205h576v-205h-128v-145l-256 -410v-59h384v-264l128 -205v-146h-155l-165 265v145h-384v350l256 410v59h-256z" />
    <glyph glyph-name="uni0291" unicode="&#x291;" 
d="M64 819v205h704v-205h-128v-145l-256 -410v-59h219l165 -264v-86l-165 -265h-118l-165 265v145h-256v205h128v145l256 410v59h-384zM512 -59l32 -52l5 9l-37 59v-16z" />
    <glyph glyph-name="uni0292" unicode="&#x292;" 
d="M64 819v205h704v-205h-128v-145l-128 -205v-59h91l165 -265v-290l-165 -265h-374l-165 265v145h155l128 -205h138l91 146v118l-91 146h-293v205h128v145l128 205v59h-384z" />
    <glyph glyph-name="uni0293" unicode="&#x293;" 
d="M64 819v205h704v-205h-128v-145l-101 -162l229 -367v-290l-165 -265h-374l-165 265v86l165 264h118l165 -264v-103l64 103v118l-256 410v86l128 205v59h-384zM283 -102l37 -60v17l-32 51z" />
    <glyph glyph-name="uni0294" unicode="&#x294;" 
d="M64 1024v145l165 265h374l165 -265v-86l-256 -409v-674h-192v760l229 366l-64 103h-138l-128 -205h-155z" />
    <glyph glyph-name="uni0295" unicode="&#x295;" 
d="M64 1083v86l165 265h374l165 -265v-145h-155l-128 205h-138l-64 -103l229 -366v-760h-192v674z" />
    <glyph glyph-name="uni0296" unicode="&#x296;" 
d="M64 264v146h155l128 -205h138l64 102l-229 367v760h192v-674l256 -410v-86l-165 -264h-374z" />
    <glyph glyph-name="uni0297" unicode="&#x297;" 
d="M64 1169l165 265h374l165 -265v-145h-155l-128 205h-138l-91 -146v-1142l91 -146h138l128 205h155v-145l-165 -265h-374l-165 265v1314z" />
    <glyph glyph-name="uni0298" unicode="&#x298;" 
d="M64 1169l165 265h374l165 -265v-905l-165 -264h-374l-165 264v905zM347 1229l-91 -146v-733l91 -145h138l91 145v733l-91 146h-138zM320 614v205h192v-205h-192z" />
    <glyph glyph-name="uni0299" unicode="&#x299;" 
d="M64 1024h539l165 -264v-86l-101 -162l101 -162v-86l-165 -264h-539v1024zM256 819v-205h229l64 103l-64 102h-229zM256 410v-205h229l64 102l-64 103h-229z" />
    <glyph glyph-name="uni029A" unicode="&#x29a;" 
d="M64 674v86l165 264h374l165 -264v-496l-165 -264h-374l-165 264v86l101 162zM347 614h165v-204h-165l-64 -103l64 -102h138l91 145v324l-91 145h-138l-64 -102z" />
    <glyph glyph-name="uni029B" unicode="&#x29b;" 
d="M64 760l165 264h219v145l165 265h155v-146l-128 -205v-264h-293l-91 -145v-324l91 -145h101v205h-128v204h320v-614h-411l-165 264v496z" />
    <glyph glyph-name="uni029C" unicode="&#x29c;" 
d="M64 1024h192v-410h320v410h192v-1024h-192v410h-320v-410h-192v1024z" />
    <glyph glyph-name="uni029D" unicode="&#x29d;" 
d="M64 145l165 265h91v614h192v-614h128v-205h-128v-350l-165 -265h-118l-165 265v290zM256 59v-118l32 -52l32 52v221zM320 1229v205h192v-205h-192z" />
    <glyph glyph-name="uni029E" unicode="&#x29e;" 
d="M64 879v145h155l229 -367v367h192v-1434h-192v777l-229 -367h-155v145l229 367z" />
    <glyph glyph-name="uni029F" unicode="&#x29f;" 
d="M64 1024h192v-819h512v-205h-704v1024z" />
    <glyph glyph-name="uni02A0" unicode="&#x2a0;" 
d="M64 760l165 264h347v59l-91 146h-165v205h283l165 -265v-1579h-192v410h-347l-165 264v496zM347 819l-91 -145v-324l91 -145h229v614h-229z" />
    <glyph glyph-name="uni02A1" unicode="&#x2a1;" 
d="M64 1024v145l165 265h374l165 -265v-86l-256 -409v-60h256v-204h-256v-410h-192v410h-256v204h256v146l229 366l-64 103h-138l-128 -205h-155z" />
    <glyph glyph-name="uni02A2" unicode="&#x2a2;" 
d="M64 1083v86l165 265h374l165 -265v-145h-155l-128 205h-138l-64 -103l229 -366v-146h256v-204h-256v-410h-192v410h-256v204h256v60z" />
    <glyph glyph-name="uni02A3" unicode="&#x2a3;" 
d="M64 760l165 264h91v410h192v-410h256v-350l-128 -205v-264h128v-205h-539l-165 264v496zM256 674v-324l64 -102v528zM512 819v-162l64 103v59h-64z" />
    <glyph glyph-name="uni02A4" unicode="&#x2a4;" 
d="M64 760l165 264h91v410h192v-410h256v-350l-101 -162l101 -162v-495l-165 -265h-283v205h165l91 146v323l-64 103v-367h-283l-165 264v496zM256 674v-324l64 -102v528zM512 819v-162l64 103v59h-64z" />
    <glyph glyph-name="uni02A5" unicode="&#x2a5;" 
d="M64 760l165 264h91v410h192v-410h256v-350l-128 -205v-264h128v-350l-165 -265h-118l-165 265v145h-91l-165 264v496zM256 674v-324l64 -102v528zM512 819v-162l64 103v59h-64zM512 0v-59l32 -52l32 52v59h-64z" />
    <glyph glyph-name="uni02A6" unicode="&#x2a6;" 
d="M64 1434h192v-410h512v-205h-256v-59l256 -410v-86l-165 -264h-374l-165 264v1170zM256 819v-469l91 -145h138l64 102l-229 367v145h-64z" />
    <glyph glyph-name="uni02A7" unicode="&#x2a7;" 
d="M64 819v205h128v410h192v-410h64v145l165 265h155v-146l-128 -205v-1228l-165 -265h-155v146l128 205v59h-91l-165 264v555h-128zM384 819v-469l64 -102v571h-64z" />
    <glyph glyph-name="uni02A8" unicode="&#x2a8;" 
d="M64 1434h192v-205h128v-205h-128v-674l64 -102v512l165 264h283v-205h-165l-91 -145v-469h91l165 -264v-86l-165 -265h-118l-165 265v145h-91l-165 264v1170zM512 -59l32 -52l5 9l-37 59v-16z" />
    <glyph glyph-name="uni02A9" unicode="&#x2a9;" 
d="M64 1169l165 265h155v-146l-128 -205v-264h347l165 -264v-700l-165 -265h-283v205h165l91 146v528l-64 102v-571h-192v614h-64v-614h-192v1169z" />
    <glyph glyph-name="uni02AA" unicode="&#x2aa;" 
d="M64 1229v205h320v-572l101 162h283v-205h-165l-64 -102l229 -367v-86l-165 -264h-539v205h128v1024h-128zM384 205h101l64 102l-165 264v-366z" />
    <glyph glyph-name="uni02AB" unicode="&#x2ab;" 
d="M64 1229v205h320v-410h384v-350l-256 -410v-59h256v-205h-704v205h128v1024h-128zM384 819v-366l192 307v59h-192z" />
    <glyph glyph-name="uni02AC" unicode="&#x2ac;" 
d="M64 879v145h155l69 -111l69 111h118l69 -111l69 111h155v-145l-165 -265h-118l-69 111l-69 -111h-118zM64 264v146h155l69 -111l69 111h118l69 -111l69 111h155v-146l-165 -264h-118l-69 111l-69 -111h-118z" />
    <glyph glyph-name="uni02AD" unicode="&#x2ad;" 
d="M192 1024h448v-410h-192v205h-64v-205h-192v410zM192 410h448v-410h-192v205h-64v-205h-192v410z" />
    <glyph glyph-name="uni02B0" unicode="&#x2b0;" 
d="M64 1434h192v-410h91l165 -264v-350h-192v264l-64 102v-366h-192v1024z" />
    <glyph glyph-name="uni02B2" unicode="&#x2b2;" 
d="M192 555v469h192v-555l-165 -264h-155v145zM192 1229v205h192v-205h-192z" />
    <glyph glyph-name="uni02B9" unicode="&#x2b9;" 
d="M192 1169v265h192v-351l-128 -204v-265h-192v351z" />
    <glyph glyph-name="uni02BA" unicode="&#x2ba;" 
d="M192 1169v265h192v-351l-128 -204v-265h-192v351zM576 1169v265h192v-351l-128 -204v-265h-192v351z" />
    <glyph glyph-name="uni02BC" unicode="&#x2bc;" 
d="M320 1169v265h192v-351l-165 -264h-155v146z" />
    <glyph glyph-name="circumflex" unicode="&#x2c6;" 
d="M192 1024v145l165 265h118l165 -265v-145h-155l-69 111l-69 -111h-155z" />
    <glyph glyph-name="caron" unicode="&#x2c7;" 
d="M192 1288v146h155l69 -111l69 111h155v-146l-165 -264h-118z" />
    <glyph glyph-name="uni02C8" unicode="&#x2c8;" 
d="M320 1434h192v-615h-192v615z" />
    <glyph glyph-name="uni02CC" unicode="&#x2cc;" 
d="M320 205h192v-615h-192v615z" />
    <glyph glyph-name="uni02D0" unicode="&#x2d0;" 
d="M192 879v145h155l69 -111l69 111h155v-145l-165 -265h-118zM192 0v145l165 265h118l165 -265v-145h-155l-69 111l-69 -111h-155z" />
    <glyph glyph-name="uni02D1" unicode="&#x2d1;" 
d="M192 879v145h155l69 -111l69 111h155v-145l-165 -265h-118z" />
    <glyph glyph-name="breve" unicode="&#x2d8;" 
d="M64 1288v146h155l128 -205h138l128 205h155v-146l-165 -264h-374z" />
    <glyph glyph-name="dotaccent" unicode="&#x2d9;" 
d="M320 1229v205h192v-205h-192z" />
    <glyph glyph-name="ring" unicode="&#x2da;" 
d="M192 1083v86l165 265h118l165 -265v-86l-165 -264h-118zM416 1118l5 8l-5 9l-5 -9z" />
    <glyph glyph-name="ogonek" unicode="&#x2db;" 
d="M192 -145v86l165 264h155v-146l-101 -161l101 -162v-146h-155z" />
    <glyph glyph-name="tilde" unicode="&#x2dc;" 
d="M192 1024v145l165 265h118l69 -111l69 111h155v-146l-165 -264h-118l-69 111l-69 -111h-155z" />
    <glyph glyph-name="hungarumlaut" unicode="&#x2dd;" 
d="M64 1024v145l165 265h155v-146l-165 -264h-155zM448 1024v145l165 265h155v-146l-165 -264h-155z" />
    <glyph glyph-name="uni02E0" unicode="&#x2e0;" 
d="M64 1288v146h155l69 -111l69 111h155v-146l-101 -162l101 -161v-291l-165 -264h-118l-165 264v291l101 161zM256 879v-119l32 -51l32 51v119l-32 51z" />
    <glyph glyph-name="uni02E1" unicode="&#x2e1;" 
d="M64 1229v205h320v-820h128v-204h-448v204h128v615h-128z" />
    <glyph glyph-name="uni02E2" unicode="&#x2e2;" 
d="M64 410v204h128v410h320v-205h-128v-409h-320z" />
    <glyph glyph-name="uni02E3" unicode="&#x2e3;" 
d="M64 879v145h155l69 -111l69 111h155v-145l-101 -162l101 -162v-145h-155l-69 110l-69 -110h-155v145l101 162z" />
    <glyph glyph-name="uni02E4" unicode="&#x2e4;" 
d="M64 1169l165 265h118l165 -265v-145h-155l-69 111l-32 -52v-118l128 -205v-350h-192v264l-128 205v290z" />
    <glyph glyph-name="uni02E5" unicode="&#x2e5;" 
d="M64 1229v205h704v-1434h-192v1229h-512z" />
    <glyph glyph-name="uni02E6" unicode="&#x2e6;" 
d="M64 1024v205h512v205h192v-1434h-192v1024h-512z" />
    <glyph glyph-name="uni02E7" unicode="&#x2e7;" 
d="M64 614v205h512v615h192v-1434h-192v614h-512z" />
    <glyph glyph-name="uni02E8" unicode="&#x2e8;" 
d="M64 205v205h512v1024h192v-1434h-192v205h-512z" />
    <glyph glyph-name="uni02E9" unicode="&#x2e9;" 
d="M64 0v205h512v1229h192v-1434h-704z" />
    <glyph glyph-name="uni037F" unicode="&#x37f;" 
d="M64 264v146h155l128 -205h138l91 145v1084h192v-1170l-165 -264h-374z" />
    <glyph glyph-name="tonos" unicode="&#x384;" 
d="M320 1229v205h192v-205h-192z" />
    <glyph glyph-name="dieresistonos" unicode="&#x385;" 
d="M64 1024v205h192v-205h-192zM320 1434h192v-410h-192v410zM576 1024v205h192v-205h-192z" />
    <glyph glyph-name="Alphatonos" unicode="&#x386;" 
d="M64 1434h192v-410h-192v410zM320 1169l165 265h118l165 -265v-1169h-192v410h-64v-410h-192v1169zM512 1083v-469h64v469l-32 52z" />
    <glyph glyph-name="Epsilontonos" unicode="&#x388;" 
d="M64 1434h192v-410h-192v410zM320 1434h448v-205h-256v-410h128v-205h-128v-409h256v-205h-448v1434z" />
    <glyph glyph-name="Etatonos" unicode="&#x389;" 
d="M64 1434h192v-410h-192v410zM320 1434h192v-615h64v615h192v-1434h-192v614h-64v-614h-192v1434z" />
    <glyph glyph-name="Iotatonos" unicode="&#x38a;" 
d="M64 1434h192v-410h-192v410zM320 1229v205h448v-205h-128v-1024h128v-205h-448v205h128v1024h-128z" />
    <glyph glyph-name="Omicrontonos" unicode="&#x38c;" 
d="M64 1434h192v-410h-192v410zM320 1169l165 265h118l165 -265v-905l-165 -264h-118l-165 264v905zM512 1083v-733l32 -51l32 51v733l-32 52z" />
    <glyph glyph-name="Upsilontonos" unicode="&#x38e;" 
d="M64 1434h192v-410h-192v410zM320 1434h192v-469l32 -52l32 52v469h192v-555l-128 -205v-674h-192v674l-128 205v555z" />
    <glyph glyph-name="Omegatonos" unicode="&#x38f;" 
d="M64 1434h192v-410h-192v410zM320 1169l165 265h118l165 -265v-700l-128 -205v-59h128v-205h-448v205h128v59l-128 205v700zM512 1083v-528l32 -51l32 51v528l-32 52z" />
    <glyph glyph-name="iotadieresistonos" unicode="&#x390;" 
d="M64 1024v205h192v-205h-192zM192 614v205h320v-469l128 -205v-145h-155l-165 264v350h-128zM320 1434h192v-410h-192v410zM576 1024v205h192v-205h-192z" />
    <glyph glyph-name="Alpha" unicode="&#x391;" 
d="M64 965l293 469h118l293 -469v-965h-192v410h-320v-410h-192v965zM256 879v-265h320v265l-160 256z" />
    <glyph glyph-name="Beta" unicode="&#x392;" 
d="M64 1434h539l165 -265v-290l-101 -162l101 -162v-291l-165 -264h-539v1434zM256 1229v-410h229l91 146v118l-91 146h-229zM256 614v-409h229l91 145v119l-91 145h-229z" />
    <glyph glyph-name="Gamma" unicode="&#x393;" 
d="M64 1434h704v-205h-512v-1229h-192v1434z" />
    <glyph glyph-name="uni0394" unicode="&#x394;" 
d="M192 760v205l128 204v265h192v-265l128 -204v-205l128 -205v-555h-704v555zM384 674l-128 -205v-264h320v264l-128 205v205l-32 51l-32 -51v-205z" />
    <glyph glyph-name="Epsilon" unicode="&#x395;" 
d="M64 1434h704v-205h-512v-410h384v-205h-384v-409h512v-205h-704v1434z" />
    <glyph glyph-name="Zeta" unicode="&#x396;" 
d="M64 1229v205h704v-351l-512 -819v-59h512v-205h-704v350l512 819v60h-512z" />
    <glyph glyph-name="Eta" unicode="&#x397;" 
d="M64 1434h192v-615h320v615h192v-1434h-192v614h-320v-614h-192v1434z" />
    <glyph glyph-name="Theta" unicode="&#x398;" 
d="M64 1169l165 265h374l165 -265v-905l-165 -264h-374l-165 264v905zM347 1229l-91 -146v-264h320v264l-91 146h-138zM256 614v-264l91 -145h138l91 145v264h-320z" />
    <glyph glyph-name="Iota" unicode="&#x399;" 
d="M192 1229v205h448v-205h-128v-1024h128v-205h-448v205h128v1024h-128z" />
    <glyph glyph-name="Kappa" unicode="&#x39a;" 
d="M64 1434h192v-572l357 572h155v-146l-357 -571l357 -572v-145h-155l-357 571v-571h-192v1434z" />
    <glyph glyph-name="Lambda" unicode="&#x39b;" 
d="M192 760v205l128 204v265h192v-265l128 -204v-205l128 -205v-555h-192v469l-128 205v205l-32 51l-32 -51v-205l-128 -205v-469h-192v555z" />
    <glyph glyph-name="Mu" unicode="&#x39c;" 
d="M64 1434h192v-205h91l69 -111l69 111h91v205h192v-1434h-192v981l-64 -102v-265h-192v265l-64 102v-981h-192v1434z" />
    <glyph glyph-name="Nu" unicode="&#x39d;" 
d="M64 1434h192v-410h91l229 -367v777h192v-1434h-192v410h-91l-229 366v-776h-192v1434z" />
    <glyph glyph-name="Xi" unicode="&#x39e;" 
d="M64 1229v205h704v-205h-704zM64 0v205h704v-205h-704zM192 614v205h448v-205h-448z" />
    <glyph glyph-name="Omicron" unicode="&#x39f;" 
d="M64 1169l165 265h374l165 -265v-905l-165 -264h-374l-165 264v905zM347 1229l-91 -146v-733l91 -145h138l91 145v733l-91 146h-138z" />
    <glyph glyph-name="Pi" unicode="&#x3a0;" 
d="M64 1434h704v-1434h-192v1229h-320v-1229h-192v1434z" />
    <glyph glyph-name="Rho" unicode="&#x3a1;" 
d="M64 1434h539l165 -265v-290l-165 -265h-347v-614h-192v1434zM256 1229v-410h229l91 146v118l-91 146h-229z" />
    <glyph glyph-name="Sigma" unicode="&#x3a3;" 
d="M64 1434h704v-205h-512v-60l256 -409v-86l-256 -410v-59h512v-205h-704v350l229 367l-229 366v351z" />
    <glyph glyph-name="Tau" unicode="&#x3a4;" 
d="M64 1229v205h704v-205h-256v-1229h-192v1229h-256z" />
    <glyph glyph-name="Upsilon" unicode="&#x3a5;" 
d="M64 1434h192v-265l160 -256l160 256v265h192v-351l-256 -409v-674h-192v674l-256 409v351z" />
    <glyph glyph-name="Phi" unicode="&#x3a6;" 
d="M64 965l165 264h91v205h192v-205h91l165 -264v-496l-165 -264h-91v-205h-192v205h-91l-165 264v496zM256 879v-324l64 -102v528zM576 879l-64 102v-528l64 102v324z" />
    <glyph glyph-name="Chi" unicode="&#x3a7;" 
d="M64 1434h192v-265l160 -256l160 256v265h192v-351l-229 -366l229 -367v-350h-192v264l-160 256l-160 -256v-264h-192v350l229 367l-229 366v351z" />
    <glyph glyph-name="Psi" unicode="&#x3a8;" 
d="M64 1434h192v-879l64 -102v981h192v-981l64 102v879h192v-965l-165 -264h-91v-205h-192v205h-91l-165 264v965z" />
    <glyph glyph-name="uni03A9" unicode="&#x3a9;" 
d="M64 1169l165 265h374l165 -265v-700l-128 -205v-59h128v-205h-320v350l128 205v528l-91 146h-138l-91 -146v-528l128 -205v-350h-320v205h128v59l-128 205v700z" />
    <glyph glyph-name="Iotadieresis" unicode="&#x3aa;" 
d="M192 1229v205h192v-205h-192zM192 819v205h448v-205h-128v-614h128v-205h-448v205h128v614h-128zM448 1229v205h192v-205h-192z" />
    <glyph glyph-name="Upsilondieresis" unicode="&#x3ab;" 
d="M64 879v145h155l197 -315l197 315h155v-145l-256 -410v-469h-192v469zM192 1229v205h192v-205h-192zM448 1229v205h192v-205h-192z" />
    <glyph glyph-name="alphatonos" unicode="&#x3ac;" 
d="M64 760l165 264h246l69 -111l69 111h155v-145l-128 -205v-324l128 -205v-145h-155l-69 111l-69 -111h-246l-165 264v496zM347 819l-91 -145v-324l91 -145h10l91 145v324l-91 145h-10zM320 1229v205h192v-205h-192z" />
    <glyph glyph-name="epsilontonos" unicode="&#x3ad;" 
d="M64 674v86l165 264h539v-205h-421l-64 -102l64 -103h293v-204h-293l-64 -103l64 -102h421v-205h-539l-165 264v86l101 162zM320 1229v205h192v-205h-192z" />
    <glyph glyph-name="etatonos" unicode="&#x3ae;" 
d="M64 1024h539l165 -264v-1170h-192v1084l-91 145h-229v-819h-192v1024zM320 1229v205h192v-205h-192z" />
    <glyph glyph-name="iotatonos" unicode="&#x3af;" 
d="M192 819v205h320v-674l128 -205v-145h-155l-165 264v555h-128zM320 1229v205h192v-205h-192z" />
    <glyph glyph-name="upsilondieresistonos" unicode="&#x3b0;" 
d="M64 1024v205h192v-205h-192zM64 819h192v-469l91 -145h138l91 145v119l-128 205v145h155l165 -264v-291l-165 -264h-374l-165 264v555zM320 1434h192v-410h-192v410zM576 1024v205h192v-205h-192z" />
    <glyph glyph-name="alpha" unicode="&#x3b1;" 
d="M64 760l165 264h246l69 -111l69 111h155v-145l-128 -205v-324l128 -205v-145h-155l-69 111l-69 -111h-246l-165 264v496zM347 819l-91 -145v-324l91 -145h10l91 145v324l-91 145h-10z" />
    <glyph glyph-name="beta" unicode="&#x3b2;" 
d="M64 1169l165 265h374l165 -265v-290l-101 -162l101 -162v-291l-165 -264h-347v-410h-192v1579zM347 1229l-91 -146v-264h229l91 146v118l-91 146h-138zM256 614v-409h229l91 145v119l-91 145h-229z" />
    <glyph glyph-name="gamma" unicode="&#x3b3;" 
d="M64 1024h192v-264l128 -205v-205l32 -51l32 51v205l128 205v264h192v-350l-128 -205v-205l-128 -205v-469h-192v469l-128 205v205l-128 205v350z" />
    <glyph glyph-name="delta" unicode="&#x3b4;" 
d="M64 1083v86l165 265h539v-205h-421l-64 -103l64 -102h256l165 -264v-496l-165 -264h-374l-165 264v496l101 162zM347 819l-91 -145v-324l91 -145h138l91 145v324l-91 145h-138z" />
    <glyph glyph-name="epsilon" unicode="&#x3b5;" 
d="M64 674v86l165 264h539v-205h-421l-64 -102l64 -103h293v-204h-293l-64 -103l64 -102h421v-205h-539l-165 264v86l101 162z" />
    <glyph glyph-name="zeta" unicode="&#x3b6;" 
d="M64 1229v205h576v-351l-384 -614v-119l91 -145h128l165 -264v-86l-165 -265h-155v146l101 162l-64 102h-128l-165 264v291l384 614v60h-384z" />
    <glyph glyph-name="eta" unicode="&#x3b7;" 
d="M64 1024h539l165 -264v-1170h-192v1084l-91 145h-229v-819h-192v1024z" />
    <glyph glyph-name="theta" unicode="&#x3b8;" 
d="M64 1169l165 265h246l165 -265v-905l-165 -264h-246l-165 264v905zM347 1229l-91 -146v-264h192v264l-91 146h-10zM256 614v-264l91 -145h10l91 145v264h-192z" />
    <glyph glyph-name="iota" unicode="&#x3b9;" 
d="M192 819v205h320v-674l128 -205v-145h-155l-165 264v555h-128z" />
    <glyph glyph-name="kappa" unicode="&#x3ba;" 
d="M192 1024h192v-367l229 367h155v-145l-229 -367l229 -367v-145h-155l-229 367v-367h-192v1024z" />
    <glyph glyph-name="lambda" unicode="&#x3bb;" 
d="M64 1229v205h283l165 -265v-204l128 -205v-205l128 -205v-350h-192v264l-128 205v205l-32 51l-32 -51v-205l-128 -205v-264h-192v350l128 205v205l128 205v118l-91 146h-165z" />
    <glyph glyph-name="uni03BC" unicode="&#x3bc;" 
d="M64 1024h192v-819h101l91 145v674h192v-674l128 -205v-145h-155l-69 111l-69 -111h-219v-410h-192v1434z" />
    <glyph glyph-name="nu" unicode="&#x3bd;" 
d="M64 1024h192v-264l128 -205v-205l32 -51l160 256v469h192v-555l-293 -469h-118l-165 264v205l-128 205v350z" />
    <glyph glyph-name="xi" unicode="&#x3be;" 
d="M64 1169l165 265h411v-205h-293l-91 -146v-118l91 -146h293v-205h-293l-91 -145v-119l91 -145h256l165 -264v-86l-165 -265h-155v146l101 162l-64 102h-256l-165 264v291l101 162l-101 162v290z" />
    <glyph glyph-name="omicron" unicode="&#x3bf;" 
d="M64 760l165 264h374l165 -264v-496l-165 -264h-374l-165 264v496zM347 819l-91 -145v-324l91 -145h138l91 145v324l-91 145h-138z" />
    <glyph glyph-name="pi" unicode="&#x3c0;" 
d="M64 819v205h704v-205h-128v-469l128 -205v-145h-155l-165 264v555h-64v-819h-192v819h-128z" />
    <glyph glyph-name="rho" unicode="&#x3c1;" 
d="M64 760l165 264h374l165 -264v-496l-165 -264h-347v-410h-192v1170zM347 819l-91 -145v-469h229l91 145v324l-91 145h-138z" />
    <glyph glyph-name="sigma1" unicode="&#x3c2;" 
d="M64 760l165 264h539v-205h-421l-91 -145v-324l91 -145h256l165 -264v-86l-165 -265h-155v146l101 162l-64 102h-256l-165 264v496z" />
    <glyph glyph-name="sigma" unicode="&#x3c3;" 
d="M64 760l165 264h539v-205h-128v-59l128 -205v-291l-165 -264h-374l-165 264v496zM347 819l-91 -145v-324l91 -145h138l91 145v119l-128 205v145h-101z" />
    <glyph glyph-name="tau" unicode="&#x3c4;" 
d="M64 819v205h704v-205h-256v-469l128 -205v-145h-155l-165 264v555h-256z" />
    <glyph glyph-name="upsilon" unicode="&#x3c5;" 
d="M64 1024h192v-674l91 -145h138l91 145v324l-128 205v145h155l165 -264v-496l-165 -264h-374l-165 264v760z" />
    <glyph glyph-name="phi" unicode="&#x3c6;" 
d="M64 1024h192v-674l64 -102v776h283l165 -264v-496l-165 -264h-91v-410h-192v410h-91l-165 264v760zM576 674l-64 102v-528l64 102v324z" />
    <glyph glyph-name="chi" unicode="&#x3c7;" 
d="M64 879v145h155l165 -264v-205l32 -51l160 256v264h192v-350l-229 -367l101 -162v-204l128 -205v-146h-155l-165 265v204l-32 52l-160 -256v-265h-192v351l229 366l-101 162v205z" />
    <glyph glyph-name="psi" unicode="&#x3c8;" 
d="M64 1024h192v-674l64 -102v776h192v-776l64 102v674h192v-760l-165 -264h-91v-410h-192v410h-91l-165 264v760z" />
    <glyph glyph-name="omega" unicode="&#x3c9;" 
d="M64 760l165 264h155v-145l-128 -205v-324l32 -51l32 51v264h192v-264l32 -51l32 51v324l-128 205v145h155l165 -264v-496l-165 -264h-118l-69 111l-69 -111h-118l-165 264v496z" />
    <glyph glyph-name="iotadieresis" unicode="&#x3ca;" 
d="M192 1229v205h192v-205h-192zM192 819v205h320v-674l128 -205v-145h-155l-165 264v555h-128zM448 1229v205h192v-205h-192z" />
    <glyph glyph-name="upsilondieresis" unicode="&#x3cb;" 
d="M64 1024h192v-674l91 -145h138l91 145v324l-128 205v145h155l165 -264v-496l-165 -264h-374l-165 264v760zM192 1229v205h192v-205h-192zM448 1229v205h192v-205h-192z" />
    <glyph glyph-name="omicrontonos" unicode="&#x3cc;" 
d="M64 760l165 264h374l165 -264v-496l-165 -264h-374l-165 264v496zM347 819l-91 -145v-324l91 -145h138l91 145v324l-91 145h-138zM320 1229v205h192v-205h-192z" />
    <glyph glyph-name="upsilontonos" unicode="&#x3cd;" 
d="M64 1024h192v-674l91 -145h138l91 145v324l-128 205v145h155l165 -264v-496l-165 -264h-374l-165 264v760zM320 1229v205h192v-205h-192z" />
    <glyph glyph-name="omegatonos" unicode="&#x3ce;" 
d="M64 760l165 264h155v-145l-128 -205v-324l32 -51l32 51v264h192v-264l32 -51l32 51v324l-128 205v145h155l165 -264v-496l-165 -264h-118l-69 111l-69 -111h-118l-165 264v496zM320 1229v205h192v-205h-192z" />
    <glyph glyph-name="phi1" unicode="&#x3d5;" 
d="M64 760l165 264h91v410h192v-410h91l165 -264v-496l-165 -264h-91v-410h-192v410h-91l-165 264v496zM256 674v-324l64 -102v528zM576 674l-64 102v-528l64 102v324z" />
    <glyph glyph-name="uni03F3" unicode="&#x3f3;" 
d="M320 -59v1083h192v-1169l-165 -265h-155v146zM320 1229v205h192v-205h-192z" />
    <glyph glyph-name="uni0400" unicode="&#x400;" 
d="M64 1024h256v59l-128 205v146h155l165 -265v-145h256v-205h-512v-205h384v-204h-384v-205h512v-205h-704v1024z" />
    <glyph glyph-name="uni0401" unicode="&#x401;" 
d="M64 1024h704v-205h-512v-205h384v-204h-384v-205h512v-205h-704v1024zM192 1229v205h192v-205h-192zM448 1229v205h192v-205h-192z" />
    <glyph glyph-name="uni0402" unicode="&#x402;" 
d="M64 1229v205h576v-205h-256v-410h219l165 -264v-700l-165 -265h-155v146l128 205v528l-91 145h-101v-614h-192v1229h-128z" />
    <glyph glyph-name="uni0404" unicode="&#x404;" 
d="M64 965l293 469h246l165 -265v-145h-155l-128 205h-10l-219 -350v-60h256v-205h-256v-59l219 -350h10l128 205h155v-146l-165 -264h-246l-293 469v496z" />
    <glyph glyph-name="uni0405" unicode="&#x405;" 
d="M64 1169l165 265h374l165 -265v-145h-155l-128 205h-138l-91 -146v-118l91 -146h256l165 -264v-291l-165 -264h-374l-165 264v146h155l128 -205h138l91 145v119l-91 145h-256l-165 265v290z" />
    <glyph glyph-name="uni0406" unicode="&#x406;" 
d="M192 1229v205h448v-205h-128v-1024h128v-205h-448v205h128v1024h-128z" />
    <glyph glyph-name="uni0407" unicode="&#x407;" 
d="M192 1229v205h192v-205h-192zM192 819v205h448v-205h-128v-614h128v-205h-448v205h128v614h-128zM448 1229v205h192v-205h-192z" />
    <glyph glyph-name="uni0408" unicode="&#x408;" 
d="M64 264v146h155l128 -205h138l91 145v1084h192v-1170l-165 -264h-374z" />
    <glyph glyph-name="uni0409" unicode="&#x409;" 
d="M64 1169l165 265h283v-615h256v-819h-448v1186l-64 -103v-1083h-192v1169zM512 614v-409h64v409h-64z" />
    <glyph glyph-name="uni040A" unicode="&#x40a;" 
d="M64 1434h192v-615h64v615h192v-615h256v-819h-448v614h-64v-614h-192v1434zM512 614v-409h64v409h-64z" />
    <glyph glyph-name="uni040B" unicode="&#x40b;" 
d="M64 1229v205h576v-205h-256v-410h219l165 -264v-555h-192v469l-91 145h-101v-614h-192v1229h-128z" />
    <glyph glyph-name="uni040E" unicode="&#x40e;" 
d="M64 1434h192v-615h320v615h192v-1434h-704v205h512v409h-512v820zM320 1229v205h192v-205h-192z" />
    <glyph glyph-name="uni040F" unicode="&#x40f;" 
d="M64 1434h192v-1229h320v1229h192v-1434h-256v-205h-192v205h-256v1434z" />
    <glyph glyph-name="uni0410" unicode="&#x410;" 
d="M64 1169l165 265h374l165 -265v-1169h-192v410h-320v-410h-192v1169zM347 1229l-91 -146v-469h320v469l-91 146h-138z" />
    <glyph glyph-name="uni0411" unicode="&#x411;" 
d="M64 1434h704v-205h-512v-410h512v-819h-704v1434zM256 614v-409h320v409h-320z" />
    <glyph glyph-name="uni0412" unicode="&#x412;" 
d="M64 1434h539l165 -265v-290l-101 -162l101 -162v-291l-165 -264h-539v1434zM256 1229v-410h229l91 146v118l-91 146h-229zM256 614v-409h229l91 145v119l-91 145h-229z" />
    <glyph glyph-name="uni0413" unicode="&#x413;" 
d="M64 1434h704v-205h-512v-1229h-192v1434z" />
    <glyph glyph-name="uni0414" unicode="&#x414;" 
d="M64 205h128v964l165 265h283v-1229h128v-410h-192v205h-320v-205h-192v410zM384 205h64v981l-64 -103v-878z" />
    <glyph glyph-name="uni0415" unicode="&#x415;" 
d="M64 1434h704v-205h-512v-410h384v-205h-384v-409h512v-205h-704v1434z" />
    <glyph glyph-name="uni0416" unicode="&#x416;" 
d="M64 1434h192v-469l64 -103v572h192v-572l64 103v469h192v-555l-101 -162l101 -162v-555h-192v469l-64 102v-571h-192v571l-64 -102v-469h-192v555l101 162l-101 162v555z" />
    <glyph glyph-name="uni0417" unicode="&#x417;" 
d="M64 1024v145l165 265h374l165 -265v-290l-101 -162l101 -162v-291l-165 -264h-374l-165 264v146h155l128 -205h138l91 145v119l-91 145h-165v205h165l91 146v118l-91 146h-138l-128 -205h-155z" />
    <glyph glyph-name="uni0418" unicode="&#x418;" 
d="M64 1434h192v-777l229 367h91v410h192v-1434h-192v776l-229 -366h-91v-410h-192v1434z" />
    <glyph glyph-name="uni0419" unicode="&#x419;" 
d="M64 1434h192v-777l229 367h91v410h192v-1434h-192v776l-229 -366h-91v-410h-192v1434zM320 1229v205h192v-205h-192z" />
    <glyph glyph-name="uni041A" unicode="&#x41a;" 
d="M64 1434h192v-572l357 572h155v-146l-357 -571l357 -572v-145h-155l-357 571v-571h-192v1434z" />
    <glyph glyph-name="uni041B" unicode="&#x41b;" 
d="M64 0v205h128v964l165 265h411v-1434h-192v1229h-101l-91 -146v-1083h-320z" />
    <glyph glyph-name="uni041C" unicode="&#x41c;" 
d="M64 1434h192v-205h91l69 -111l69 111h91v205h192v-1434h-192v981l-64 -102v-265h-192v265l-64 102v-981h-192v1434z" />
    <glyph glyph-name="uni041D" unicode="&#x41d;" 
d="M64 1434h192v-615h320v615h192v-1434h-192v614h-320v-614h-192v1434z" />
    <glyph glyph-name="uni041E" unicode="&#x41e;" 
d="M64 1169l165 265h374l165 -265v-905l-165 -264h-374l-165 264v905zM347 1229l-91 -146v-733l91 -145h138l91 145v733l-91 146h-138z" />
    <glyph glyph-name="uni041F" unicode="&#x41f;" 
d="M64 1434h704v-1434h-192v1229h-320v-1229h-192v1434z" />
    <glyph glyph-name="uni0420" unicode="&#x420;" 
d="M64 1434h539l165 -265v-290l-165 -265h-347v-614h-192v1434zM256 1229v-410h229l91 146v118l-91 146h-229z" />
    <glyph glyph-name="uni0421" unicode="&#x421;" 
d="M64 1169l165 265h374l165 -265v-145h-155l-128 205h-138l-91 -146v-733l91 -145h138l128 205h155v-146l-165 -264h-374l-165 264v905z" />
    <glyph glyph-name="uni0422" unicode="&#x422;" 
d="M64 1229v205h704v-205h-256v-1229h-192v1229h-256z" />
    <glyph glyph-name="uni0423" unicode="&#x423;" 
d="M64 1434h192v-615h320v615h192v-1434h-704v205h512v409h-512v820z" />
    <glyph glyph-name="uni0424" unicode="&#x424;" 
d="M64 1229h256v205h192v-205h256v-1024h-256v-205h-192v205h-256v1024zM256 1024v-614h64v614h-64zM512 1024v-614h64v614h-64z" />
    <glyph glyph-name="uni0425" unicode="&#x425;" 
d="M64 1434h192v-265l160 -256l160 256v265h192v-351l-229 -366l229 -367v-350h-192v264l-160 256l-160 -256v-264h-192v350l229 367l-229 366v351z" />
    <glyph glyph-name="uni0426" unicode="&#x426;" 
d="M64 1434h192v-1229h192v1229h192v-1229h128v-410h-192v205h-512v1434z" />
    <glyph glyph-name="uni0427" unicode="&#x427;" 
d="M64 1434h192v-615h320v615h192v-1434h-192v614h-512v820z" />
    <glyph glyph-name="uni0428" unicode="&#x428;" 
d="M64 1434h192v-1229h64v1229h192v-1229h64v1229h192v-1434h-704v1434z" />
    <glyph glyph-name="uni0429" unicode="&#x429;" 
d="M64 1434h192v-1229h64v1229h192v-1229h64v1229h192v-1639h-192v205h-512v1434z" />
    <glyph glyph-name="uni042A" unicode="&#x42a;" 
d="M64 1229v205h320v-615h384v-819h-576v1229h-128zM384 614v-409h192v409h-192z" />
    <glyph glyph-name="uni042B" unicode="&#x42b;" 
d="M64 1434h192v-615h256v-819h-448v1434zM256 614v-409h64v409h-64zM576 1434h192v-1434h-192v1434z" />
    <glyph glyph-name="uni042C" unicode="&#x42c;" 
d="M64 1434h192v-615h512v-819h-704v1434zM256 614v-409h320v409h-320z" />
    <glyph glyph-name="uni042D" unicode="&#x42d;" 
d="M64 1024v145l165 265h246l293 -469v-496l-293 -469h-246l-165 264v146h155l128 -205h10l219 350v59h-256v205h256v60l-219 350h-10l-128 -205h-155z" />
    <glyph glyph-name="uni042E" unicode="&#x42e;" 
d="M64 1434h192v-615h64v350l165 265h118l165 -265v-905l-165 -264h-118l-165 264v350h-64v-614h-192v1434zM512 1083v-733l32 -51l32 51v733l-32 52z" />
    <glyph glyph-name="uni042F" unicode="&#x42f;" 
d="M64 1169l165 265h539v-1434h-192v614h-64v-145l-293 -469h-155v145l256 410v59h-91l-165 265v290zM347 1229l-91 -146v-118l91 -146h229v410h-229z" />
    <glyph glyph-name="uni0430" unicode="&#x430;" 
d="M64 264v86l165 264h347v60l-91 145h-293v205h411l165 -264v-760h-539zM347 205h229v205h-229l-64 -103z" />
    <glyph glyph-name="uni0431" unicode="&#x431;" 
d="M64 1169l165 265h411v-205h-293l-91 -146v-59h347l165 -264v-496l-165 -264h-539v1169zM256 819v-614h229l91 145v324l-91 145h-229z" />
    <glyph glyph-name="uni0432" unicode="&#x432;" 
d="M64 1024h539l165 -264v-86l-101 -162l101 -162v-86l-165 -264h-539v1024zM256 819v-205h229l64 103l-64 102h-229zM256 410v-205h229l64 102l-64 103h-229z" />
    <glyph glyph-name="uni0433" unicode="&#x433;" 
d="M64 1024h704v-205h-512v-819h-192v1024z" />
    <glyph glyph-name="uni0434" unicode="&#x434;" 
d="M64 205h128v555l165 264h283v-819h128v-410h-192v205h-320v-205h-192v410zM384 205h64v571l-64 -102v-469z" />
    <glyph glyph-name="uni0435" unicode="&#x435;" 
d="M64 760l165 264h374l165 -264v-350h-512v-60l91 -145h293v-205h-411l-165 264v496zM347 819l-91 -145v-60h320v60l-91 145h-138z" />
    <glyph glyph-name="uni0436" unicode="&#x436;" 
d="M64 1024h192v-264l64 -103v367h192v-367l64 103v264h192v-350l-101 -162l101 -162v-350h-192v264l-64 103v-367h-192v367l-64 -103v-264h-192v350l101 162l-101 162v350z" />
    <glyph glyph-name="uni0437" unicode="&#x437;" 
d="M64 614v146l165 264h374l165 -264v-86l-101 -162l101 -162v-86l-165 -264h-374l-165 264v146h155l128 -205h138l64 102l-64 103h-165v204h165l64 103l-64 102h-138l-128 -205h-155z" />
    <glyph glyph-name="uni0438" unicode="&#x438;" 
d="M64 1024h192v-571l229 366h91v205h192v-1024h-192v571l-229 -366h-91v-205h-192v1024z" />
    <glyph glyph-name="uni0439" unicode="&#x439;" 
d="M64 1024h192v-571l229 366h91v205h192v-1024h-192v571l-229 -366h-91v-205h-192v1024zM320 1024v205h192v-205h-192z" />
    <glyph glyph-name="uni043A" unicode="&#x43a;" 
d="M64 1024h192v-410h101l256 410h155v-145l-229 -367l229 -367v-145h-155l-256 410h-101v-410h-192v1024z" />
    <glyph glyph-name="uni043B" unicode="&#x43b;" 
d="M64 0v205h128v555l165 264h411v-1024h-192v819h-101l-91 -145v-674h-320z" />
    <glyph glyph-name="uni043C" unicode="&#x43c;" 
d="M64 1024h192v-205h91l69 -110l69 110h91v205h192v-1024h-192v571l-101 -161h-118l-101 161v-571h-192v1024z" />
    <glyph glyph-name="uni043D" unicode="&#x43d;" 
d="M64 1024h192v-410h320v410h192v-1024h-192v410h-320v-410h-192v1024z" />
    <glyph glyph-name="uni043E" unicode="&#x43e;" 
d="M64 760l165 264h374l165 -264v-496l-165 -264h-374l-165 264v496zM347 819l-91 -145v-324l91 -145h138l91 145v324l-91 145h-138z" />
    <glyph glyph-name="uni043F" unicode="&#x43f;" 
d="M64 1024h704v-1024h-192v819h-320v-819h-192v1024z" />
    <glyph glyph-name="uni0440" unicode="&#x440;" 
d="M64 1024h539l165 -264v-496l-165 -264h-347v-410h-192v1434zM256 819v-614h229l91 145v324l-91 145h-229z" />
    <glyph glyph-name="uni0441" unicode="&#x441;" 
d="M64 760l165 264h374l165 -264v-146h-155l-128 205h-138l-91 -145v-324l91 -145h138l128 205h155v-146l-165 -264h-374l-165 264v496z" />
    <glyph glyph-name="uni0442" unicode="&#x442;" 
d="M64 819v205h704v-205h-256v-819h-192v819h-256z" />
    <glyph glyph-name="uni0443" unicode="&#x443;" 
d="M64 1024h192v-674l91 -145h229v819h192v-1169l-165 -265h-411v205h293l91 146v59h-347l-165 264v760z" />
    <glyph glyph-name="uni0444" unicode="&#x444;" 
d="M64 760l165 264h91v205h192v-205h91l165 -264v-496l-165 -264h-91v-205h-192v205h-91l-165 264v496zM256 674v-324l64 -102v528zM576 674l-64 102v-528l64 102v324z" />
    <glyph glyph-name="uni0445" unicode="&#x445;" 
d="M64 879v145h155l197 -315l197 315h155v-145l-229 -367l229 -367v-145h-155l-197 315l-197 -315h-155v145l229 367z" />
    <glyph glyph-name="uni0446" unicode="&#x446;" 
d="M64 1024h192v-819h192v819h192v-819h128v-410h-192v205h-512v1024z" />
    <glyph glyph-name="uni0447" unicode="&#x447;" 
d="M64 1024h192v-469l91 -145h229v614h192v-1024h-192v205h-347l-165 264v555z" />
    <glyph glyph-name="uni0448" unicode="&#x448;" 
d="M64 1024h192v-819h64v819h192v-819h64v819h192v-1024h-704v1024z" />
    <glyph glyph-name="uni0449" unicode="&#x449;" 
d="M64 1024h192v-819h64v819h192v-819h64v819h192v-1229h-192v205h-512v1024z" />
    <glyph glyph-name="uni044A" unicode="&#x44a;" 
d="M64 819v205h320v-410h219l165 -264v-86l-165 -264h-411v819h-128zM384 410v-205h101l64 102l-64 103h-101z" />
    <glyph glyph-name="uni044B" unicode="&#x44b;" 
d="M64 1024h192v-410h256v-614h-448v1024zM256 410v-205h64v205h-64zM576 1024h192v-1024h-192v1024z" />
    <glyph glyph-name="uni044C" unicode="&#x44c;" 
d="M64 1024h192v-410h347l165 -264v-86l-165 -264h-539v1024zM256 410v-205h229l64 102l-64 103h-229z" />
    <glyph glyph-name="uni044D" unicode="&#x44d;" 
d="M64 614v146l165 264h246l165 -264v-496l-165 -264h-246l-165 264v146h155l128 -205h10l91 145v60h-128v204h128v60l-91 145h-10l-128 -205h-155z" />
    <glyph glyph-name="uni044E" unicode="&#x44e;" 
d="M64 1024h192v-410h64v146l165 264h118l165 -264v-496l-165 -264h-118l-165 264v146h-64v-410h-192v1024zM512 674v-324l32 -51l32 51v324l-32 51z" />
    <glyph glyph-name="uni044F" unicode="&#x44f;" 
d="M64 674v86l165 264h539v-1024h-192v410h-64v-146l-165 -264h-283v205h165l91 145v60h-91zM347 614h229v205h-229l-64 -102z" />
    <glyph glyph-name="uni0450" unicode="&#x450;" 
d="M64 760l165 264h91v59l-128 205v146h155l165 -265v-145h91l165 -264v-350h-512v-60l91 -145h293v-205h-411l-165 264v496zM347 819l-91 -145v-60h320v60l-91 145h-138z" />
    <glyph glyph-name="uni0451" unicode="&#x451;" 
d="M64 760l165 264h374l165 -264v-350h-512v-60l91 -145h293v-205h-411l-165 264v496zM192 1229v205h192v-205h-192zM347 819l-91 -145v-60h320v60l-91 145h-138zM448 1229v205h192v-205h-192z" />
    <glyph glyph-name="uni0452" unicode="&#x452;" 
d="M64 1024v205h128v205h192v-205h256v-205h-256v-205h219l165 -264v-700l-165 -265h-155v146l128 205v528l-91 145h-101v-614h-192v1024h-128z" />
    <glyph glyph-name="uni0454" unicode="&#x454;" 
d="M64 760l165 264h246l165 -264v-146h-155l-128 205h-10l-91 -145v-60h128v-204h-128v-60l91 -145h10l128 205h155v-146l-165 -264h-246l-165 264v496z" />
    <glyph glyph-name="uni0455" unicode="&#x455;" 
d="M64 674v86l165 264h539v-205h-421l-64 -102l64 -103h256l165 -264v-86l-165 -264h-539v205h421l64 102l-64 103h-256z" />
    <glyph glyph-name="uni0456" unicode="&#x456;" 
d="M192 819v205h320v-819h128v-205h-448v205h128v614h-128zM320 1229v205h192v-205h-192z" />
    <glyph glyph-name="uni0457" unicode="&#x457;" 
d="M192 1229v205h192v-205h-192zM192 819v205h320v-819h128v-205h-448v205h128v614h-128zM448 1229v205h192v-205h-192z" />
    <glyph glyph-name="uni0458" unicode="&#x458;" 
d="M320 -59v1083h192v-1169l-165 -265h-155v146zM320 1229v205h192v-205h-192z" />
    <glyph glyph-name="uni0459" unicode="&#x459;" 
d="M64 760l165 264h283v-410h91l165 -264v-86l-165 -264h-283v776l-64 -102v-674h-192v760zM512 367v-119l37 59z" />
    <glyph glyph-name="uni045A" unicode="&#x45a;" 
d="M64 1024h192v-410h64v410h192v-410h91l165 -264v-86l-165 -264h-283v410h-64v-410h-192v1024zM512 367v-119l37 59z" />
    <glyph glyph-name="uni045B" unicode="&#x45b;" 
d="M64 1024v205h128v205h192v-205h256v-205h-256v-205h219l165 -264v-555h-192v469l-91 145h-101v-614h-192v1024h-128z" />
    <glyph glyph-name="uni045E" unicode="&#x45e;" 
d="M64 1024h192v-674l91 -145h229v819h192v-1169l-165 -265h-411v205h293l91 146v59h-347l-165 264v760zM320 1024v205h192v-205h-192z" />
    <glyph glyph-name="uni045F" unicode="&#x45f;" 
d="M64 1024h192v-819h320v819h192v-1024h-256v-205h-192v205h-256v1024z" />
    <glyph glyph-name="uni0490" unicode="&#x490;" 
d="M64 1229h512v205h192v-410h-512v-1024h-192v1229z" />
    <glyph glyph-name="uni0491" unicode="&#x491;" 
d="M64 1024h512v205h192v-410h-512v-819h-192v1024z" />
    <glyph glyph-name="uni0492" unicode="&#x492;" 
d="M64 614v205h128v615h576v-205h-384v-410h256v-205h-256v-614h-192v614h-128z" />
    <glyph glyph-name="uni0493" unicode="&#x493;" 
d="M64 410v204h128v410h576v-205h-384v-205h256v-204h-256v-410h-192v410h-128z" />
    <glyph glyph-name="uni05D0" unicode="&#x5d0;" 
d="M64 1083v146h155l325 -520l32 51v469h192v-555l-101 -162l101 -162v-350h-192v264l-288 461l-32 -51v-674h-192v760l101 162z" />
    <glyph glyph-name="uni05D1" unicode="&#x5d1;" 
d="M64 0v205h384v819h-256v205h448v-1024h128v-205h-704z" />
    <glyph glyph-name="uni05D2" unicode="&#x5d2;" 
d="M192 0v145l293 469h91v410h-128v205h320v-1229h-192v367l-229 -367h-155z" />
    <glyph glyph-name="uni05D3" unicode="&#x5d3;" 
d="M64 1024v205h704v-205h-128v-1024h-192v1024h-384z" />
    <glyph glyph-name="uni05D4" unicode="&#x5d4;" 
d="M64 1024v205h704v-1229h-192v1024h-512zM64 614h192v-614h-192v614z" />
    <glyph glyph-name="uni05D5" unicode="&#x5d5;" 
d="M192 1024v205h320v-1229h-192v1024h-128z" />
    <glyph glyph-name="uni05D6" unicode="&#x5d6;" 
d="M192 1024v205h448v-205h-128v-145l-101 -162l101 -162v-555h-192v469l-128 205v86l128 205v59h-128z" />
    <glyph glyph-name="uni05D7" unicode="&#x5d7;" 
d="M64 1229h704v-1229h-192v1024h-320v-1024h-192v1229z" />
    <glyph glyph-name="uni05D8" unicode="&#x5d8;" 
d="M64 1229h192v-1024h320v571l-101 -162h-155v146l165 264h91v205h192v-1229h-704v1229z" />
    <glyph glyph-name="uni05D9" unicode="&#x5d9;" 
d="M192 1024v205h320v-410h-192v205h-128z" />
    <glyph glyph-name="uni05DA" unicode="&#x5da;" 
d="M64 1024v205h704v-1434h-192v1229h-512z" />
    <glyph glyph-name="uni05DB" unicode="&#x5db;" 
d="M64 1024v205h704v-1229h-704v205h512v819h-512z" />
    <glyph glyph-name="uni05DC" unicode="&#x5dc;" 
d="M64 1434h192v-205h512v-760l-293 -469h-283v205h165l219 350v469h-512v410z" />
    <glyph glyph-name="uni05DD" unicode="&#x5dd;" 
d="M64 1229h704v-1229h-704v1229zM256 1024v-819h320v819h-320z" />
    <glyph glyph-name="uni05DE" unicode="&#x5de;" 
d="M64 1083v146h155l69 -111l69 111h246l165 -264v-965h-448v205h256v674l-91 145h-10l-219 -350v-674h-192v760l101 162z" />
    <glyph glyph-name="uni05DF" unicode="&#x5df;" 
d="M192 1024v205h320v-1639h-192v1434h-128z" />
    <glyph glyph-name="uni05E0" unicode="&#x5e0;" 
d="M192 0v205h256v819h-128v205h320v-1229h-448z" />
    <glyph glyph-name="uni05E1" unicode="&#x5e1;" 
d="M64 1024v205h704v-965l-165 -264h-374l-165 264v496l128 205v59h-128zM384 1024v-145l-128 -205v-324l91 -145h138l91 145v674h-192z" />
    <glyph glyph-name="uni05E2" unicode="&#x5e2;" 
d="M64 0v205h128v1024h192v-981l192 307v674h192v-760l-293 -469h-411z" />
    <glyph glyph-name="uni05E3" unicode="&#x5e3;" 
d="M64 1024v205h704v-1434h-192v1229h-192v-205h128v-205h-320v410h-128z" />
    <glyph glyph-name="uni05E4" unicode="&#x5e4;" 
d="M64 1024v205h704v-1229h-704v205h512v819h-192v-205h128v-205h-320v410h-128z" />
    <glyph glyph-name="uni05E5" unicode="&#x5e5;" 
d="M64 1024v205h320v-367l229 367h155v-146l-293 -469h-91v-819h-192v1229h-128z" />
    <glyph glyph-name="uni05E6" unicode="&#x5e6;" 
d="M64 1229h192v-264l160 -256l160 256v264h192v-350l-229 -367l101 -162v-145h128v-205h-704v205h384v59l-384 615v350z" />
    <glyph glyph-name="uni05E7" unicode="&#x5e7;" 
d="M64 1024v205h704v-760l-165 -264h-155v145l128 205v469h-512zM192 819h192v-1024h-192v1024z" />
    <glyph glyph-name="uni05E8" unicode="&#x5e8;" 
d="M64 1024v205h704v-1229h-192v1024h-512z" />
    <glyph glyph-name="uni05E9" unicode="&#x5e9;" 
d="M64 1229h192v-572l64 103v469h192v-555l-165 -264h-91v-205h229l91 145v879h192v-965l-165 -264h-539v1229z" />
    <glyph glyph-name="uni05EA" unicode="&#x5ea;" 
d="M64 0v205h128v1024h576v-1229h-192v1024h-192v-1024h-320z" />
    <glyph glyph-name="uni1D00" unicode="&#x1d00;" 
d="M64 760l165 264h374l165 -264v-760h-192v410h-320v-410h-192v760zM347 819l-91 -145v-60h320v60l-91 145h-138z" />
    <glyph glyph-name="uni1D01" unicode="&#x1d01;" 
d="M64 760l165 264h539v-205h-256v-205h128v-204h-128v-205h256v-205h-448v205h-64v-205h-192v760zM256 674v-264h64v366z" />
    <glyph glyph-name="uni1D02" unicode="&#x1d02;" 
d="M64 614h256v205h-128v205h411l165 -264v-86l-165 -264h-91v-60l128 -205v-145h-155l-69 111l-69 -111h-118l-165 264v350zM256 410v-60l32 -51l32 51v60h-64zM512 776v-119l37 60z" />
    <glyph glyph-name="uni1D04" unicode="&#x1d04;" 
d="M64 760l165 264h374l165 -264v-146h-155l-128 205h-138l-91 -145v-324l91 -145h138l128 205h155v-146l-165 -264h-374l-165 264v496z" />
    <glyph glyph-name="uni1D05" unicode="&#x1d05;" 
d="M64 1024h539l165 -264v-496l-165 -264h-539v1024zM256 819v-614h229l91 145v324l-91 145h-229z" />
    <glyph glyph-name="uni1D06" unicode="&#x1d06;" 
d="M64 410v204h128v410h411l165 -264v-496l-165 -264h-411v410h-128zM384 819v-205h128v-204h-128v-205h101l91 145v324l-91 145h-101z" />
    <glyph glyph-name="uni1D07" unicode="&#x1d07;" 
d="M64 1024h704v-205h-512v-205h384v-204h-384v-205h512v-205h-704v1024z" />
    <glyph glyph-name="uni1D09" unicode="&#x1d09;" 
d="M192 819v205h448v-205h-128v-614h128v-205h-320v819h-128zM320 -410v205h192v-205h-192z" />
    <glyph glyph-name="uni1D0A" unicode="&#x1d0a;" 
d="M64 264v146h155l128 -205h138l91 145v674h192v-760l-165 -264h-374z" />
    <glyph glyph-name="uni1D0B" unicode="&#x1d0b;" 
d="M64 1024h192v-410h101l256 410h155v-145l-229 -367l229 -367v-145h-155l-256 410h-101v-410h-192v1024z" />
    <glyph glyph-name="uni1D0D" unicode="&#x1d0d;" 
d="M64 1024h192v-205h91l69 -110l69 110h91v205h192v-1024h-192v571l-101 -161h-118l-101 161v-571h-192v1024z" />
    <glyph glyph-name="uni1D0E" unicode="&#x1d0e;" 
d="M64 1024h192v-571l229 366h91v205h192v-1024h-192v571l-229 -366h-91v-205h-192v1024z" />
    <glyph glyph-name="uni1D0F" unicode="&#x1d0f;" 
d="M64 760l165 264h374l165 -264v-496l-165 -264h-374l-165 264v496zM347 819l-91 -145v-324l91 -145h138l91 145v324l-91 145h-138z" />
    <glyph glyph-name="uni1D14" unicode="&#x1d14;" 
d="M64 819v205h283l69 -111l69 111h118l165 -264v-496l-165 -264h-118l-69 111l-69 -111h-118l-165 264v350h256v60l-91 145h-165zM256 410v-60l32 -51l32 51v60h-64zM512 674v-324l32 -51l32 51v324l-32 51z" />
    <glyph glyph-name="uni1D18" unicode="&#x1d18;" 
d="M64 1024h539l165 -264v-86l-165 -264h-347v-410h-192v1024zM256 819v-205h229l64 103l-64 102h-229z" />
    <glyph glyph-name="uni1D19" unicode="&#x1d19;" 
d="M64 674v86l165 264h539v-1024h-192v410h-192v-146l-165 -264h-155v145l128 205v119zM347 614h229v205h-229l-64 -102z" />
    <glyph glyph-name="uni1D1A" unicode="&#x1d1a;" 
d="M64 879v145h155l165 -264v-146h192v410h192v-1024h-539l-165 264v86l128 205v119zM347 205h229v205h-229l-64 -103z" />
    <glyph glyph-name="uni1D1B" unicode="&#x1d1b;" 
d="M64 819v205h704v-205h-256v-819h-192v819h-256z" />
    <glyph glyph-name="uni1D1C" unicode="&#x1d1c;" 
d="M64 1024h192v-674l91 -145h138l91 145v674h192v-760l-165 -264h-374l-165 264v760z" />
    <glyph glyph-name="uni1D1D" unicode="&#x1d1d;" 
d="M64 819v205h704v-760l-165 -264h-539v205h421l91 145v469h-512z" />
    <glyph glyph-name="uni1D1F" unicode="&#x1d1f;" 
d="M64 819v205h704v-350l-101 -162l101 -162v-86l-165 -264h-539v205h421l64 102l-64 103h-421v204h421l91 146v59h-512z" />
    <glyph glyph-name="uni1D20" unicode="&#x1d20;" 
d="M64 1024h192v-264l128 -205v-205l32 -51l32 51v205l128 205v264h192v-350l-128 -205v-205l-165 -264h-118l-165 264v205l-128 205v350z" />
    <glyph glyph-name="uni1D21" unicode="&#x1d21;" 
d="M64 1024h192v-674l32 -51l32 51v264h192v-264l32 -51l32 51v674h192v-760l-165 -264h-118l-69 111l-69 -111h-118l-165 264v760z" />
    <glyph glyph-name="uni1D22" unicode="&#x1d22;" 
d="M64 819v205h704v-350l-165 -264h-256l-91 -146v-59h512v-205h-704v350l165 264h256l91 146v59h-512z" />
    <glyph glyph-name="uni1D4A" unicode="&#x1d4a;" 
d="M64 1229v205h283l165 -265v-495l-165 -264h-118l-165 264v350h256v59l-91 146h-165zM256 819v-59l32 -51l32 51v59h-64z" />
    <glyph glyph-name="uni1D62" unicode="&#x1d62;" 
d="M192 0v205h320v-410h128v-205h-448v205h128v205h-128zM320 410v204h192v-204h-192z" />
    <glyph glyph-name="uni1DBF" unicode="&#x1dbf;" 
d="M64 1169l165 265h118l165 -265v-495l-165 -264h-118l-165 264v495zM256 1083v-59h64v59l-32 52zM256 819v-59l32 -51l32 51v59h-64z" />
    <glyph glyph-name="uni1E02" unicode="&#x1e02;" 
d="M64 1024h539l165 -264v-86l-101 -162l101 -162v-86l-165 -264h-539v1024zM256 819v-205h229l64 103l-64 102h-229zM256 410v-205h229l64 102l-64 103h-229zM320 1229v205h192v-205h-192z" />
    <glyph glyph-name="uni1E03" unicode="&#x1e03;" 
d="M64 1434h192v-410h347l165 -264v-496l-165 -264h-539v1434zM256 819v-614h229l91 145v324l-91 145h-229zM320 1229v205h192v-205h-192z" />
    <glyph glyph-name="uni1E04" unicode="&#x1e04;" 
d="M64 1434h539l165 -265v-290l-101 -162l101 -162v-291l-165 -264h-539v1434zM256 1229v-410h229l91 146v118l-91 146h-229zM256 614v-409h229l91 145v119l-91 145h-229zM320 -410v205h192v-205h-192z" />
    <glyph glyph-name="uni1E05" unicode="&#x1e05;" 
d="M64 1434h192v-410h347l165 -264v-496l-165 -264h-539v1434zM256 819v-614h229l91 145v324l-91 145h-229zM320 -410v205h192v-205h-192z" />
    <glyph glyph-name="uni1E06" unicode="&#x1e06;" 
d="M64 1434h539l165 -265v-290l-101 -162l101 -162v-291l-165 -264h-539v1434zM256 1229v-410h229l91 146v118l-91 146h-229zM256 614v-409h229l91 145v119l-91 145h-229zM192 -410v205h448v-205h-448z" />
    <glyph glyph-name="uni1E07" unicode="&#x1e07;" 
d="M64 1434h192v-410h347l165 -264v-496l-165 -264h-539v1434zM256 819v-614h229l91 145v324l-91 145h-229zM192 -410v205h448v-205h-448z" />
    <glyph glyph-name="uni1E08" unicode="&#x1e08;" 
d="M64 760l165 264h91v145l165 265h155v-146l-128 -205v-59h91l165 -264v-146h-155l-128 205h-138l-91 -145v-324l91 -145h138l128 205h155v-146l-165 -264h-91v-145l-165 -265h-155v146l128 205v59h-91l-165 264v496z" />
    <glyph glyph-name="uni1E09" unicode="&#x1e09;" 
d="M64 760l165 264h91v145l165 265h155v-146l-128 -205v-59h256v-205h-421l-91 -145v-324l91 -145h421v-205h-256v-145l-165 -265h-155v146l128 205v59h-91l-165 264v496z" />
    <glyph glyph-name="uni1E0A" unicode="&#x1e0a;" 
d="M64 1024h539l165 -264v-496l-165 -264h-539v1024zM256 819v-614h229l91 145v324l-91 145h-229zM320 1229v205h192v-205h-192z" />
    <glyph glyph-name="uni1E0B" unicode="&#x1e0b;" 
d="M64 760l165 264h347v410h192v-1434h-539l-165 264v496zM347 819l-91 -145v-324l91 -145h229v614h-229zM320 1229v205h192v-205h-192z" />
    <glyph glyph-name="uni1E0C" unicode="&#x1e0c;" 
d="M64 1434h539l165 -265v-905l-165 -264h-539v1434zM256 1229v-1024h229l91 145v733l-91 146h-229zM320 -410v205h192v-205h-192z" />
    <glyph glyph-name="uni1E0D" unicode="&#x1e0d;" 
d="M64 760l165 264h347v410h192v-1434h-539l-165 264v496zM347 819l-91 -145v-324l91 -145h229v614h-229zM320 -410v205h192v-205h-192z" />
    <glyph glyph-name="uni1E0E" unicode="&#x1e0e;" 
d="M64 1434h539l165 -265v-905l-165 -264h-539v1434zM256 1229v-1024h229l91 145v733l-91 146h-229zM192 -410v205h448v-205h-448z" />
    <glyph glyph-name="uni1E0F" unicode="&#x1e0f;" 
d="M64 760l165 264h347v410h192v-1434h-539l-165 264v496zM347 819l-91 -145v-324l91 -145h229v614h-229zM192 -410v205h448v-205h-448z" />
    <glyph glyph-name="uni1E10" unicode="&#x1e10;" 
d="M64 1434h539l165 -265v-905l-165 -264h-91v-145l-165 -265h-155v146l128 205v59h-256v1434zM256 1229v-1024h229l91 145v733l-91 146h-229z" />
    <glyph glyph-name="uni1E11" unicode="&#x1e11;" 
d="M64 760l165 264h347v410h192v-1434h-256v-145l-165 -265h-155v146l128 205v59h-91l-165 264v496zM347 819l-91 -145v-324l91 -145h229v614h-229z" />
    <glyph glyph-name="uni1E12" unicode="&#x1e12;" 
d="M64 1434h539l165 -265v-905l-165 -264h-91v-59l128 -205v-146h-155l-69 111l-69 -111h-155v146l128 205v59h-256v1434zM256 1229v-1024h229l91 145v733l-91 146h-229z" />
    <glyph glyph-name="uni1E13" unicode="&#x1e13;" 
d="M64 760l165 264h347v410h192v-1434h-256v-59l128 -205v-146h-155l-69 111l-69 -111h-155v146l128 205v59h-91l-165 264v496zM347 819l-91 -145v-324l91 -145h229v614h-229z" />
    <glyph glyph-name="uni1E18" unicode="&#x1e18;" 
d="M64 1434h704v-205h-512v-410h384v-205h-384v-409h512v-205h-256v-59l128 -205v-146h-155l-69 111l-69 -111h-155v146l128 205v59h-256v1434z" />
    <glyph glyph-name="uni1E19" unicode="&#x1e19;" 
d="M64 760l165 264h374l165 -264v-350h-512v-60l91 -145h293v-205h-128v-59l128 -205v-146h-155l-69 111l-69 -111h-155v146l128 205v59h-91l-165 264v496zM347 819l-91 -145v-60h320v60l-91 145h-138z" />
    <glyph glyph-name="uni1E1E" unicode="&#x1e1e;" 
d="M64 1024h704v-205h-512v-205h384v-204h-384v-410h-192v1024zM320 1229v205h192v-205h-192z" />
    <glyph glyph-name="uni1E1F" unicode="&#x1e1f;" 
d="M192 410v204h128v146l165 264h155v-145l-128 -205v-60h128v-204h-128v-410h-192v410h-128zM320 1229v205h192v-205h-192z" />
    <glyph glyph-name="uni1E20" unicode="&#x1e20;" 
d="M64 760l165 264h539v-205h-421l-91 -145v-324l91 -145h229v205h-128v204h320v-614h-539l-165 264v496zM192 1229v205h448v-205h-448z" />
    <glyph glyph-name="uni1E21" unicode="&#x1e21;" 
d="M64 760l165 264h539v-1169l-165 -265h-411v205h293l91 146v59h-347l-165 264v496zM192 1229v205h448v-205h-448zM347 819l-91 -145v-324l91 -145h229v614h-229z" />
    <glyph glyph-name="uni1E22" unicode="&#x1e22;" 
d="M64 1434h192v-615h320v615h192v-1434h-192v614h-320v-614h-192v1434zM320 1229v205h192v-205h-192z" />
    <glyph glyph-name="uni1E23" unicode="&#x1e23;" 
d="M64 1434h192v-410h347l165 -264v-760h-192v674l-91 145h-229v-819h-192v1434zM320 1229v205h192v-205h-192z" />
    <glyph glyph-name="uni1E24" unicode="&#x1e24;" 
d="M64 1434h192v-615h320v615h192v-1434h-192v614h-320v-614h-192v1434zM320 -410v205h192v-205h-192z" />
    <glyph glyph-name="uni1E25" unicode="&#x1e25;" 
d="M64 1434h192v-410h347l165 -264v-760h-192v674l-91 145h-229v-819h-192v1434zM320 -410v205h192v-205h-192z" />
    <glyph glyph-name="uni1E26" unicode="&#x1e26;" 
d="M64 1024h192v-410h320v410h192v-1024h-192v410h-320v-410h-192v1024zM192 1229v205h192v-205h-192zM448 1229v205h192v-205h-192z" />
    <glyph glyph-name="uni1E27" unicode="&#x1e27;" 
d="M64 1434h192v-410h347l165 -264v-760h-192v674l-91 145h-229v-819h-192v1434zM320 1229v205h192v-205h-192zM576 1229v205h192v-205h-192z" />
    <glyph glyph-name="uni1E28" unicode="&#x1e28;" 
d="M64 1434h192v-410h320v410h192v-1229h-192v614h-320v-614h-192v1229zM320 59v146h155l165 -264v-86l-165 -265h-155v146l101 162z" />
    <glyph glyph-name="uni1E29" unicode="&#x1e29;" 
d="M64 1434h192v-410h347l165 -264v-555h-192v469l-91 145h-229v-614h-192v1229zM320 59v146h155l165 -264v-86l-165 -265h-155v146l101 162z" />
    <glyph glyph-name="uni1E32" unicode="&#x1e32;" 
d="M64 1434h192v-572l357 572h155v-146l-357 -571l357 -572v-145h-155l-357 571v-571h-192v1434zM320 -410v205h192v-205h-192z" />
    <glyph glyph-name="uni1E33" unicode="&#x1e33;" 
d="M192 1434h192v-777l229 367h155v-145l-229 -367l229 -367v-145h-155l-229 367v-367h-192v1434zM320 -410v205h192v-205h-192z" />
    <glyph glyph-name="uni1E34" unicode="&#x1e34;" 
d="M64 1434h192v-572l357 572h155v-146l-357 -571l357 -572v-145h-155l-357 571v-571h-192v1434zM192 -410v205h448v-205h-448z" />
    <glyph glyph-name="uni1E35" unicode="&#x1e35;" 
d="M192 1434h192v-777l229 367h155v-145l-229 -367l229 -367v-145h-155l-229 367v-367h-192v1434zM192 -410v205h448v-205h-448z" />
    <glyph glyph-name="uni1E36" unicode="&#x1e36;" 
d="M64 1434h192v-1229h512v-205h-704v1434zM320 -410v205h192v-205h-192z" />
    <glyph glyph-name="uni1E37" unicode="&#x1e37;" 
d="M192 1229v205h320v-1229h128v-205h-448v205h128v1024h-128zM320 -410v205h192v-205h-192z" />
    <glyph glyph-name="uni1E3A" unicode="&#x1e3a;" 
d="M64 1434h192v-1229h512v-205h-704v1434zM192 -410v205h448v-205h-448z" />
    <glyph glyph-name="uni1E3B" unicode="&#x1e3b;" 
d="M192 1229v205h320v-1229h128v-205h-448v205h128v1024h-128zM192 -410v205h448v-205h-448z" />
    <glyph glyph-name="uni1E3C" unicode="&#x1e3c;" 
d="M64 1434h192v-1229h512v-205h-256v-59l128 -205v-146h-155l-69 111l-69 -111h-155v146l128 205v59h-256v1434z" />
    <glyph glyph-name="uni1E3D" unicode="&#x1e3d;" 
d="M192 1229v205h320v-1024h128v-205h-448v205h128v819h-128zM192 -410v146l165 264h118l165 -264v-146h-155l-69 111l-69 -111h-155z" />
    <glyph glyph-name="uni1E3E" unicode="&#x1e3e;" 
d="M64 1024h192v-205h91l69 -110l69 110h91v205h192v-1024h-192v571l-101 -161h-118l-101 161v-571h-192v1024zM320 1024v145l165 265h155v-146l-165 -264h-155z" />
    <glyph glyph-name="uni1E3F" unicode="&#x1e3f;" 
d="M64 819h283l69 -110l69 110h118l165 -264v-555h-192v469l-32 51l-32 -51v-469h-192v469l-64 102v-571h-192v819zM320 1024v145l165 265h155v-146l-165 -264h-155z" />
    <glyph glyph-name="uni1E40" unicode="&#x1e40;" 
d="M64 1229h192v-205h91l69 -111l69 111h91v205h192v-1229h-192v776l-101 -162h-118l-101 162v-776h-192v1229zM320 1229v205h192v-205h-192z" />
    <glyph glyph-name="uni1E41" unicode="&#x1e41;" 
d="M64 1024h283l69 -111l69 111h118l165 -264v-760h-192v674l-32 51l-32 -51v-674h-192v674l-64 102v-776h-192v1024zM320 1229v205h192v-205h-192z" />
    <glyph glyph-name="uni1E42" unicode="&#x1e42;" 
d="M64 1434h192v-205h91l69 -111l69 111h91v205h192v-1434h-192v981l-64 -102v-265h-192v265l-64 102v-981h-192v1434zM320 -410v205h192v-205h-192z" />
    <glyph glyph-name="uni1E43" unicode="&#x1e43;" 
d="M64 1024h283l69 -111l69 111h118l165 -264v-760h-192v674l-32 51l-32 -51v-674h-192v674l-64 102v-776h-192v1024zM320 -410v205h192v-205h-192z" />
    <glyph glyph-name="uni1E44" unicode="&#x1e44;" 
d="M64 1434h192v-410h91l229 -367v777h192v-1434h-192v410h-91l-229 366v-776h-192v1434zM320 1229v205h192v-205h-192z" />
    <glyph glyph-name="uni1E45" unicode="&#x1e45;" 
d="M64 1024h539l165 -264v-760h-192v674l-91 145h-229v-819h-192v1024zM320 1229v205h192v-205h-192z" />
    <glyph glyph-name="uni1E46" unicode="&#x1e46;" 
d="M64 1434h192v-410h91l229 -367v777h192v-1434h-192v410h-91l-229 366v-776h-192v1434zM320 -410v205h192v-205h-192z" />
    <glyph glyph-name="uni1E47" unicode="&#x1e47;" 
d="M64 1024h539l165 -264v-760h-192v674l-91 145h-229v-819h-192v1024zM320 -410v205h192v-205h-192z" />
    <glyph glyph-name="uni1E48" unicode="&#x1e48;" 
d="M64 1434h192v-410h91l229 -367v777h192v-1434h-192v410h-91l-229 366v-776h-192v1434zM192 -410v205h448v-205h-448z" />
    <glyph glyph-name="uni1E49" unicode="&#x1e49;" 
d="M64 1024h539l165 -264v-760h-192v674l-91 145h-229v-819h-192v1024zM192 -410v205h448v-205h-448z" />
    <glyph glyph-name="uni1E54" unicode="&#x1e54;" 
d="M64 1024h256v145l165 265h155v-146l-128 -205v-59h91l165 -264v-86l-165 -264h-347v-410h-192v1024zM256 819v-205h229l64 103l-64 102h-229z" />
    <glyph glyph-name="uni1E55" unicode="&#x1e55;" 
d="M64 1024h256v145l165 265h155v-146l-128 -205v-59h91l165 -264v-496l-165 -264h-347v-410h-192v1434zM256 819v-614h229l91 145v324l-91 145h-229z" />
    <glyph glyph-name="uni1E56" unicode="&#x1e56;" 
d="M64 1024h539l165 -264v-86l-165 -264h-347v-410h-192v1024zM256 819v-205h229l64 103l-64 102h-229zM320 1229v205h192v-205h-192z" />
    <glyph glyph-name="uni1E57" unicode="&#x1e57;" 
d="M64 1024h539l165 -264v-496l-165 -264h-347v-410h-192v1434zM256 819v-614h229l91 145v324l-91 145h-229zM320 1229v205h192v-205h-192z" />
    <glyph glyph-name="uni1E58" unicode="&#x1e58;" 
d="M64 1024h539l165 -264v-86l-128 -205v-119l128 -205v-145h-155l-165 264v146h-192v-410h-192v1024zM256 819v-205h229l64 103l-64 102h-229zM320 1229v205h192v-205h-192z" />
    <glyph glyph-name="uni1E59" unicode="&#x1e59;" 
d="M192 1024h192v-162l101 162h283v-205h-165l-128 -205h-91v-614h-192v1024zM320 1229v205h192v-205h-192z" />
    <glyph glyph-name="uni1E5A" unicode="&#x1e5a;" 
d="M64 1434h539l165 -265v-290l-165 -265h-91v-59l256 -410v-145h-155l-293 469v145h-64v-614h-192v1434zM256 1229v-410h229l91 146v118l-91 146h-229zM320 -410v205h192v-205h-192z" />
    <glyph glyph-name="uni1E5B" unicode="&#x1e5b;" 
d="M192 1024h192v-162l101 162h283v-205h-165l-128 -205h-91v-614h-192v1024zM320 -410v205h192v-205h-192z" />
    <glyph glyph-name="uni1E5C" unicode="&#x1e5c;" 
d="M64 1024h539l165 -264v-86l-128 -205v-119l128 -205v-145h-155l-165 264v146h-192v-410h-192v1024zM256 819v-205h229l64 103l-64 102h-229zM192 1229v205h448v-205h-448zM320 -410v205h192v-205h-192z" />
    <glyph glyph-name="uni1E5D" unicode="&#x1e5d;" 
d="M192 1229v205h448v-205h-448zM192 1024h192v-162l101 162h283v-205h-165l-128 -205h-91v-614h-192v1024zM320 -410v205h192v-205h-192z" />
    <glyph glyph-name="uni1E5E" unicode="&#x1e5e;" 
d="M64 1434h539l165 -265v-290l-165 -265h-91v-59l256 -410v-145h-155l-293 469v145h-64v-614h-192v1434zM256 1229v-410h229l91 146v118l-91 146h-229zM192 -410v205h448v-205h-448z" />
    <glyph glyph-name="uni1E5F" unicode="&#x1e5f;" 
d="M192 1024h192v-162l101 162h283v-205h-165l-128 -205h-91v-614h-192v1024zM192 -410v205h448v-205h-448z" />
    <glyph glyph-name="uni1E62" unicode="&#x1e62;" 
d="M64 1169l165 265h374l165 -265v-145h-155l-128 205h-138l-91 -146v-118l91 -146h256l165 -264v-291l-165 -264h-374l-165 264v146h155l128 -205h138l91 145v119l-91 145h-256l-165 265v290zM320 -410v205h192v-205h-192z" />
    <glyph glyph-name="uni1E63" unicode="&#x1e63;" 
d="M64 674v86l165 264h539v-205h-421l-64 -102l64 -103h256l165 -264v-86l-165 -264h-539v205h421l64 102l-64 103h-256zM320 -410v205h192v-205h-192z" />
    <glyph glyph-name="uni1E6A" unicode="&#x1e6a;" 
d="M64 819v205h704v-205h-256v-819h-192v819h-256zM320 1229v205h192v-205h-192z" />
    <glyph glyph-name="uni1E6B" unicode="&#x1e6b;" 
d="M192 614v205h128v205h192v-205h128v-205h-128v-264l128 -205v-145h-155l-165 264v350h-128zM320 1229v205h192v-205h-192z" />
    <glyph glyph-name="uni1E6C" unicode="&#x1e6c;" 
d="M64 1229v205h704v-205h-256v-1229h-192v1229h-256zM320 -410v205h192v-205h-192z" />
    <glyph glyph-name="uni1E6D" unicode="&#x1e6d;" 
d="M192 819v205h128v410h192v-410h128v-205h-128v-469l128 -205v-145h-155l-165 264v555h-128zM320 -410v205h192v-205h-192z" />
    <glyph glyph-name="uni1E6E" unicode="&#x1e6e;" 
d="M64 1229v205h704v-205h-256v-1229h-192v1229h-256zM192 -410v205h448v-205h-448z" />
    <glyph glyph-name="uni1E6F" unicode="&#x1e6f;" 
d="M192 819v205h128v410h192v-410h128v-205h-128v-469l128 -205v-145h-155l-165 264v555h-128zM192 -410v205h448v-205h-448z" />
    <glyph glyph-name="uni1E70" unicode="&#x1e70;" 
d="M64 1229v205h704v-205h-256v-1024h-192v1024h-256zM192 -410v146l165 264h118l165 -264v-146h-155l-69 111l-69 -111h-155z" />
    <glyph glyph-name="uni1E71" unicode="&#x1e71;" 
d="M192 819v205h128v410h192v-410h128v-205h-128v-264l128 -205v-145h-155l-165 264v350h-128zM192 -410v146l165 264h118l165 -264v-146h-155l-69 111l-69 -111h-155z" />
    <glyph glyph-name="uni1E72" unicode="&#x1e72;" 
d="M64 1434h192v-1084l91 -145h138l91 145v1084h192v-1170l-165 -264h-374l-165 264v1170zM192 -410v205h192v-205h-192zM448 -410v205h192v-205h-192z" />
    <glyph glyph-name="uni1E73" unicode="&#x1e73;" 
d="M64 1024h192v-674l91 -145h229v819h192v-1024h-539l-165 264v760zM192 -410v205h192v-205h-192zM448 -410v205h192v-205h-192z" />
    <glyph glyph-name="uni1E76" unicode="&#x1e76;" 
d="M64 1434h192v-1084l91 -145h138l91 145v1084h192v-1170l-165 -264h-91v-59l128 -205v-146h-155l-69 111l-69 -111h-155v146l128 205v59h-91l-165 264v1170z" />
    <glyph glyph-name="uni1E77" unicode="&#x1e77;" 
d="M64 1024h192v-674l91 -145h229v819h192v-1024h-256v-59l128 -205v-146h-155l-69 111l-69 -111h-155v146l128 205v59h-91l-165 264v760z" />
    <glyph glyph-name="uni1E7A" unicode="&#x1e7a;" 
d="M64 614h192v-264l91 -145h138l91 145v264h192v-350l-165 -264h-374l-165 264v350zM192 1229v205h192v-205h-192zM192 819v205h448v-205h-448zM448 1229v205h192v-205h-192z" />
    <glyph glyph-name="uni1E7B" unicode="&#x1e7b;" 
d="M64 614h192v-264l91 -145h229v409h192v-614h-539l-165 264v350zM192 1229v205h192v-205h-192zM192 819v205h448v-205h-448zM448 1229v205h192v-205h-192z" />
    <glyph glyph-name="uni1E7E" unicode="&#x1e7e;" 
d="M64 1434h192v-469l128 -205v-205l32 -51l32 51v205l128 205v469h192v-555l-128 -205v-205l-128 -205v-264h-192v264l-128 205v205l-128 205v555zM320 -410v205h192v-205h-192z" />
    <glyph glyph-name="uni1E7F" unicode="&#x1e7f;" 
d="M64 1024h192v-264l128 -205v-205l32 -51l32 51v205l128 205v264h192v-350l-128 -205v-205l-165 -264h-118l-165 264v205l-128 205v350zM320 -410v205h192v-205h-192z" />
    <glyph glyph-name="Wdieresis" unicode="&#x1e84;" 
d="M64 1024h192v-674l32 -51l32 51v469h192v-469l32 -51l32 51v674h192v-760l-165 -264h-118l-69 111l-69 -111h-118l-165 264v760zM192 1229v205h192v-205h-192zM448 1229v205h192v-205h-192z" />
    <glyph glyph-name="wdieresis" unicode="&#x1e85;" 
d="M64 1024h192v-674l32 -51l32 51v264h192v-264l32 -51l32 51v674h192v-760l-165 -264h-118l-69 111l-69 -111h-118l-165 264v760zM192 1229v205h192v-205h-192zM448 1229v205h192v-205h-192z" />
    <glyph glyph-name="uni1E88" unicode="&#x1e88;" 
d="M64 1434h192v-1084l32 -51l32 51v469h192v-469l32 -51l32 51v1084h192v-1170l-165 -264h-118l-69 111l-69 -111h-118l-165 264v1170zM320 -410v205h192v-205h-192z" />
    <glyph glyph-name="uni1E89" unicode="&#x1e89;" 
d="M64 1024h192v-674l32 -51l32 51v264h192v-264l32 -51l32 51v674h192v-760l-165 -264h-118l-69 111l-69 -111h-118l-165 264v760zM320 -410v205h192v-205h-192z" />
    <glyph glyph-name="uni1E8A" unicode="&#x1e8a;" 
d="M64 1434h192v-265l160 -256l160 256v265h192v-351l-229 -366l229 -367v-350h-192v264l-160 256l-160 -256v-264h-192v350l229 367l-229 366v351zM320 1229v205h192v-205h-192z" />
    <glyph glyph-name="uni1E8B" unicode="&#x1e8b;" 
d="M64 879v145h155l197 -315l197 315h155v-145l-229 -367l229 -367v-145h-155l-197 315l-197 -315h-155v145l229 367zM320 1229v205h192v-205h-192z" />
    <glyph glyph-name="uni1E8C" unicode="&#x1e8c;" 
d="M64 1024h192v-264l91 -146h138l91 146v264h192v-350l-101 -162l101 -162v-350h-192v264l-91 146h-138l-91 -146v-264h-192v350l101 162l-101 162v350zM192 1229v205h192v-205h-192zM448 1229v205h192v-205h-192z" />
    <glyph glyph-name="uni1E8D" unicode="&#x1e8d;" 
d="M64 879v145h155l197 -315l197 315h155v-145l-229 -367l229 -367v-145h-155l-197 315l-197 -315h-155v145l229 367zM192 1229v205h192v-205h-192zM448 1229v205h192v-205h-192z" />
    <glyph glyph-name="uni1E8E" unicode="&#x1e8e;" 
d="M64 1434h192v-265l160 -256l160 256v265h192v-351l-256 -409v-674h-192v674l-256 409v351zM320 1229v205h192v-205h-192z" />
    <glyph glyph-name="uni1E8F" unicode="&#x1e8f;" 
d="M64 1024h192v-674l91 -145h229v819h192v-1169l-165 -265h-411v205h293l91 146v59h-347l-165 264v760zM320 1229v205h192v-205h-192z" />
    <glyph glyph-name="uni1E90" unicode="&#x1e90;" 
d="M64 819v205h128v145l165 265h118l165 -265v-145h128v-350l-165 -264h-256l-91 -146v-59h512v-205h-704v350l165 264h256l91 146v59h-512zM384 1024h64v59l-32 52l-32 -52v-59z" />
    <glyph glyph-name="uni1E91" unicode="&#x1e91;" 
d="M64 819v205h128v145l165 265h118l165 -265v-145h128v-205h-128v-145l-256 -410v-59h384v-205h-704v205h128v145l256 410v59h-384zM384 1024h64v59l-32 52l-32 -52v-59z" />
    <glyph glyph-name="uni1E92" unicode="&#x1e92;" 
d="M64 1229v205h704v-351l-512 -819v-59h512v-205h-704v350l512 819v60h-512zM320 -410v205h192v-205h-192z" />
    <glyph glyph-name="uni1E93" unicode="&#x1e93;" 
d="M64 819v205h704v-205h-128v-145l-256 -410v-59h384v-205h-704v205h128v145l256 410v59h-384zM320 -410v205h192v-205h-192z" />
    <glyph glyph-name="uni1E94" unicode="&#x1e94;" 
d="M64 1229v205h704v-351l-512 -819v-59h512v-205h-704v350l512 819v60h-512zM192 -410v205h448v-205h-448z" />
    <glyph glyph-name="uni1E95" unicode="&#x1e95;" 
d="M64 819v205h704v-205h-128v-145l-256 -410v-59h384v-205h-704v205h128v145l256 410v59h-384zM192 -410v205h448v-205h-448z" />
    <glyph glyph-name="uni1E96" unicode="&#x1e96;" 
d="M64 1434h192v-410h347l165 -264v-760h-192v674l-91 145h-229v-819h-192v1434zM192 -410v205h448v-205h-448z" />
    <glyph glyph-name="uni1E97" unicode="&#x1e97;" 
d="M64 1229v205h192v-205h-192zM192 819v205h128v410h192v-410h128v-205h-128v-469l128 -205v-145h-155l-165 264v555h-128zM576 1229v205h192v-205h-192z" />
    <glyph glyph-name="uni1E9E" unicode="&#x1e9e;" 
d="M64 1169l165 265h374l165 -265v-86l-128 -204v-119l128 -205v-291l-165 -264h-283v205h165l91 145v119l-128 205v291l101 161l-64 103h-138l-91 -146v-1083h-192v1169z" />
    <glyph glyph-name="uni1EA0" unicode="&#x1ea0;" 
d="M64 965l293 469h118l293 -469v-965h-192v410h-320v-410h-192v965zM256 879v-265h320v265l-160 256zM320 -410v205h192v-205h-192z" />
    <glyph glyph-name="uni1EA1" unicode="&#x1ea1;" 
d="M64 264v86l165 264h347v60l-91 145h-293v205h411l165 -264v-760h-539zM347 205h229v205h-229l-64 -103zM320 -410v205h192v-205h-192z" />
    <glyph glyph-name="uni1EB8" unicode="&#x1eb8;" 
d="M64 1434h704v-205h-512v-410h384v-205h-384v-409h512v-205h-704v1434zM320 -410v205h192v-205h-192z" />
    <glyph glyph-name="uni1EB9" unicode="&#x1eb9;" 
d="M64 760l165 264h374l165 -264v-350h-512v-60l91 -145h293v-205h-411l-165 264v496zM347 819l-91 -145v-60h320v60l-91 145h-138zM320 -410v205h192v-205h-192z" />
    <glyph glyph-name="uni1ECA" unicode="&#x1eca;" 
d="M192 1229v205h448v-205h-128v-1024h128v-205h-448v205h128v1024h-128zM320 -410v205h192v-205h-192z" />
    <glyph glyph-name="uni1ECB" unicode="&#x1ecb;" 
d="M192 819v205h320v-819h128v-205h-448v205h128v614h-128zM320 1229v205h192v-205h-192zM320 -410v205h192v-205h-192z" />
    <glyph glyph-name="uni1ECC" unicode="&#x1ecc;" 
d="M64 1169l165 265h374l165 -265v-905l-165 -264h-374l-165 264v905zM347 1229l-91 -146v-733l91 -145h138l91 145v733l-91 146h-138zM320 -410v205h192v-205h-192z" />
    <glyph glyph-name="uni1ECD" unicode="&#x1ecd;" 
d="M64 760l165 264h374l165 -264v-496l-165 -264h-374l-165 264v496zM347 819l-91 -145v-324l91 -145h138l91 145v324l-91 145h-138zM320 -410v205h192v-205h-192z" />
    <glyph glyph-name="uni1EE4" unicode="&#x1ee4;" 
d="M64 1434h192v-1084l91 -145h138l91 145v1084h192v-1170l-165 -264h-374l-165 264v1170zM320 -410v205h192v-205h-192z" />
    <glyph glyph-name="uni1EE5" unicode="&#x1ee5;" 
d="M64 1024h192v-674l91 -145h229v819h192v-1024h-539l-165 264v760zM320 -410v205h192v-205h-192z" />
    <glyph glyph-name="uni1EF4" unicode="&#x1ef4;" 
d="M64 1434h192v-265l160 -256l160 256v265h192v-351l-256 -409v-674h-192v674l-256 409v351zM320 -410v205h192v-205h-192z" />
    <glyph glyph-name="uni1EF5" unicode="&#x1ef5;" 
d="M64 1024h192v-264l91 -146h229v410h192v-760l-165 -264h-411v205h293l91 145v60h-347l-165 264v350zM320 -410v205h192v-205h-192z" />
    <glyph glyph-name="uni2010" unicode="&#x2010;" 
d="M192 614v205h448v-205h-448z" />
    <glyph glyph-name="uni2011" unicode="&#x2011;" 
d="M192 614v205h448v-205h-448z" />
    <glyph glyph-name="endash" unicode="&#x2013;" 
d="M64 614v205h576v-205h-576z" />
    <glyph glyph-name="emdash" unicode="&#x2014;" 
d="M64 614v205h704v-205h-704z" />
    <glyph glyph-name="dblverticalbar" unicode="&#x2016;" 
d="M192 1434h192v-1434h-192v1434zM448 1434h192v-1434h-192v1434z" />
    <glyph glyph-name="underscoredbl" unicode="&#x2017;" 
d="M64 0v205h704v-205h-704zM64 -410v205h704v-205h-704z" />
    <glyph glyph-name="quoteleft" unicode="&#x2018;" 
d="M320 1169l165 265h155v-146l-128 -205v-264h-192v350z" />
    <glyph glyph-name="quoteright" unicode="&#x2019;" 
d="M320 1169v265h192v-351l-165 -264h-155v146z" />
    <glyph glyph-name="quotesinglbase" unicode="&#x201a;" 
d="M320 145v265h192v-351l-165 -264h-155v146z" />
    <glyph glyph-name="quotereversed" unicode="&#x201b;" 
d="M320 1434h192v-265l128 -204v-146h-155l-165 264v351z" />
    <glyph glyph-name="quotedblleft" unicode="&#x201c;" 
d="M64 1169l165 265h155v-146l-128 -205v-264h-192v350zM448 1169l165 265h155v-146l-128 -205v-264h-192v350z" />
    <glyph glyph-name="quotedblright" unicode="&#x201d;" 
d="M192 1169v265h192v-351l-165 -264h-155v146zM576 1169v265h192v-351l-165 -264h-155v146z" />
    <glyph glyph-name="quotedblbase" unicode="&#x201e;" 
d="M192 145v265h192v-351l-165 -264h-155v146zM576 145v265h192v-351l-165 -264h-155v146z" />
    <glyph glyph-name="uni201F" unicode="&#x201f;" 
d="M64 1434h192v-265l128 -204v-146h-155l-165 264v351zM448 1434h192v-265l128 -204v-146h-155l-165 264v351z" />
    <glyph glyph-name="dagger" unicode="&#x2020;" 
d="M64 819v205h256v410h192v-410h256v-205h-256v-1229h-192v1229h-256z" />
    <glyph glyph-name="daggerdbl" unicode="&#x2021;" 
d="M64 819v205h256v410h192v-410h256v-205h-256v-614h256v-205h-256v-410h-192v410h-256v205h256v614h-256z" />
    <glyph glyph-name="bullet" unicode="&#x2022;" 
d="M192 1024h448v-614h-448v614z" />
    <glyph glyph-name="ellipsis" unicode="&#x2026;" 
d="M64 0v205h192v-205h-192zM320 0v205h192v-205h-192zM576 0v205h192v-205h-192z" />
    <glyph glyph-name="perthousand" unicode="&#x2030;" 
d="M64 1434h192v-410h-192v410zM64 410v145l549 879h155v-146l-549 -878h-155zM320 410h192v-410h-192v410zM576 410h192v-410h-192v410z" />
    <glyph glyph-name="minute" unicode="&#x2032;" 
d="M192 1169v265h192v-351l-128 -204v-265h-192v351z" />
    <glyph glyph-name="second" unicode="&#x2033;" 
d="M192 1169v265h192v-351l-128 -204v-265h-192v351zM576 1169v265h192v-351l-128 -204v-265h-192v351z" />
    <glyph glyph-name="uni2035" unicode="&#x2035;" 
d="M448 1434h192v-265l128 -204v-351h-192v265l-128 204v351z" />
    <glyph glyph-name="uni2036" unicode="&#x2036;" 
d="M64 1434h192v-265l128 -204v-351h-192v265l-128 204v351zM448 1434h192v-265l128 -204v-351h-192v265l-128 204v351z" />
    <glyph glyph-name="guilsinglleft" unicode="&#x2039;" 
d="M320 469v86l165 264h155v-145l-101 -162l101 -162v-145h-155z" />
    <glyph glyph-name="guilsinglright" unicode="&#x203a;" 
d="M192 674v145h155l165 -264v-86l-165 -264h-155v145l101 162z" />
    <glyph glyph-name="uni203B" unicode="&#x203b;" 
d="M64 1434h192v-265l160 -256l160 256v265h192v-351l-256 -409v-324l256 -409v-351h-192v265l-160 256l-160 -256v-265h-192v351l256 409v324l-256 409v351zM64 410v204h192v-204h-192zM320 1229v205h192v-205h-192zM320 -410v205h192v-205h-192zM576 410v204h192v-204
h-192z" />
    <glyph glyph-name="exclamdbl" unicode="&#x203c;" 
d="M192 1434h192v-1024h-192v1024zM192 0v205h192v-205h-192zM448 1434h192v-1024h-192v1024zM448 0v205h192v-205h-192z" />
    <glyph glyph-name="uni203D" unicode="&#x203d;" 
d="M64 1024v145l165 265h374l165 -265v-290l-165 -265h-91v-204h-192v776l-101 -162h-155zM320 0v205h192v-205h-192zM576 1083l-64 103v-324l64 103v118z" />
    <glyph glyph-name="uni203E" unicode="&#x203e;" 
d="M64 1229v205h704v-205h-704z" />
    <glyph glyph-name="uni203F" unicode="&#x203f;" 
d="M64 -145v145h155l128 -205h138l128 205h155v-145l-165 -265h-374z" />
    <glyph glyph-name="uni2040" unicode="&#x2040;" 
d="M64 1024v145l165 265h374l165 -265v-145h-155l-128 205h-138l-128 -205h-155z" />
    <glyph glyph-name="fraction" unicode="&#x2044;" 
d="M192 145v205l256 410v205l128 204v265h192v-351l-128 -204v-205l-256 -410v-205l-128 -204v-265h-192v351z" />
    <glyph glyph-name="uni2047" unicode="&#x2047;" 
d="M64 1024v145l165 265h118l69 -111l69 111h118l165 -265v-495l-165 -264h-155v145l128 205v323l-32 52l-32 -52v-204l-128 -205v-264h-192v350l128 205v118l-32 52l-69 -111h-155zM192 0v205h192v-205h-192zM448 0v205h192v-205h-192z" />
    <glyph glyph-name="uni2048" unicode="&#x2048;" 
d="M64 1024v145l165 265h118l165 -265v-290l-128 -205v-264h-192v350l128 205v118l-32 52l-69 -111h-155zM192 0v205h192v-205h-192zM576 1434h192v-1024h-192v1024zM576 0v205h192v-205h-192z" />
    <glyph glyph-name="uni2049" unicode="&#x2049;" 
d="M64 1434h192v-1024h-192v1024zM64 0v205h192v-205h-192zM320 1024v145l165 265h118l165 -265v-290l-128 -205v-264h-192v350l128 205v118l-32 52l-69 -111h-155zM448 0v205h192v-205h-192z" />
    <glyph glyph-name="uni204B" unicode="&#x204b;" 
d="M64 1434h192v-1434h-192v1434zM320 1434h283l165 -265v-290l-165 -265h-91v-614h-192v1434zM576 1083l-64 103v-324l64 103v118z" />
    <glyph glyph-name="uni204F" unicode="&#x204f;" 
d="M320 819v205h192v-205h-192zM320 410h192v-265l128 -204v-146h-155l-165 264v351z" />
    <glyph glyph-name="uni2052" unicode="&#x2052;" 
d="M64 1229v205h192v-205h-192zM64 350l512 819v265h192v-351l-512 -819v-264h-192v350zM576 0v205h192v-205h-192z" />
    <glyph glyph-name="uni2053" unicode="&#x2053;" 
d="M64 614v146l165 264h118l197 -315l69 110h155v-145l-165 -264h-118l-197 315l-69 -111h-155z" />
    <glyph glyph-name="uni2054" unicode="&#x2054;" 
d="M64 -410v146l165 264h374l165 -264v-146h-155l-128 205h-138l-128 -205h-155z" />
    <glyph glyph-name="uni2056" unicode="&#x2056;" 
d="M64 410v204h192v-204h-192zM576 819v205h192v-205h-192zM576 0v205h192v-205h-192z" />
    <glyph glyph-name="uni2058" unicode="&#x2058;" 
d="M64 410v204h192v-204h-192zM320 819v205h192v-205h-192zM320 0v205h192v-205h-192zM576 410v204h192v-204h-192z" />
    <glyph glyph-name="uni2059" unicode="&#x2059;" 
d="M64 819v205h192v-205h-192zM64 0v205h192v-205h-192zM320 410v204h192v-204h-192zM576 819v205h192v-205h-192zM576 0v205h192v-205h-192z" />
    <glyph glyph-name="uni205A" unicode="&#x205a;" 
d="M320 1229v205h192v-205h-192zM320 0v205h192v-205h-192z" />
    <glyph glyph-name="uni205B" unicode="&#x205b;" 
d="M64 410v204h192v-204h-192zM320 1229v205h192v-205h-192zM320 -410v205h192v-205h-192zM576 410v204h192v-204h-192z" />
    <glyph glyph-name="uni205C" unicode="&#x205c;" 
d="M64 819v205h192v-205h-192zM64 410v204h256v410h192v-410h256v-204h-256v-410h-192v410h-256zM64 0v205h192v-205h-192zM576 819v205h192v-205h-192zM576 0v205h192v-205h-192z" />
    <glyph glyph-name="uni205D" unicode="&#x205d;" 
d="M320 1229v205h192v-205h-192zM320 614v205h192v-205h-192zM320 0v205h192v-205h-192z" />
    <glyph glyph-name="uni205E" unicode="&#x205e;" 
d="M320 1229v205h192v-205h-192zM320 819v205h192v-205h-192zM320 410v204h192v-204h-192zM320 0v205h192v-205h-192z" />
    <glyph glyph-name="uni2070" unicode="&#x2070;" 
d="M192 1169l165 265h118l165 -265v-495l-165 -264h-118l-165 264v495zM384 1083v-323l32 -51l32 51v323l-32 52z" />
    <glyph glyph-name="uni2071" unicode="&#x2071;" 
d="M192 819v205h320v-410h128v-204h-448v204h128v205h-128zM320 1229v205h192v-205h-192z" />
    <glyph glyph-name="uni2074" unicode="&#x2074;" 
d="M192 965l165 264h91v205h192v-1024h-192v204h-256v351zM384 879v-60h64v162z" />
    <glyph glyph-name="uni2075" unicode="&#x2075;" 
d="M192 1434h448v-205h-256v-205h91l165 -264v-86l-165 -264h-283v204h165l64 103l-64 102h-165v615z" />
    <glyph glyph-name="uni2076" unicode="&#x2076;" 
d="M192 1169l165 265h155v-146l-128 -205v-59h91l165 -264v-86l-165 -264h-118l-165 264v495zM384 760l32 -51l5 8l-37 59v-16z" />
    <glyph glyph-name="uni2077" unicode="&#x2077;" 
d="M192 1229v205h448v-351l-256 -409v-264h-192v350l256 409v60h-256z" />
    <glyph glyph-name="uni2078" unicode="&#x2078;" 
d="M192 1083v86l165 265h118l165 -265v-86l-101 -161l101 -162v-86l-165 -264h-118l-165 264v86l101 162zM416 1118l5 8l-5 9l-5 -9zM416 709l5 8l-5 8l-5 -8z" />
    <glyph glyph-name="uni2079" unicode="&#x2079;" 
d="M192 1083v86l165 265h118l165 -265v-495l-165 -264h-155v145l128 205v59h-91zM411 1126l37 -59v16l-32 52z" />
    <glyph glyph-name="uni207A" unicode="&#x207a;" 
d="M192 819v205h128v205h192v-205h128v-205h-128v-205h-192v205h-128z" />
    <glyph glyph-name="uni207B" unicode="&#x207b;" 
d="M192 819v205h448v-205h-448z" />
    <glyph glyph-name="uni207C" unicode="&#x207c;" 
d="M192 1024v205h448v-205h-448zM192 614v205h448v-205h-448z" />
    <glyph glyph-name="uni207D" unicode="&#x207d;" 
d="M320 1169l165 265h155v-146l-128 -205v-323l128 -205v-145h-155l-165 264v495z" />
    <glyph glyph-name="uni207E" unicode="&#x207e;" 
d="M192 1288v146h155l165 -265v-495l-165 -264h-155v145l128 205v323z" />
    <glyph glyph-name="uni207F" unicode="&#x207f;" 
d="M192 1024h283l165 -264v-350h-192v264l-64 102v-366h-192v614z" />
    <glyph glyph-name="uni2080" unicode="&#x2080;" 
d="M192 350l165 264h118l165 -264v-495l-165 -265h-118l-165 265v495zM384 264v-323l32 -52l32 52v323l-32 51z" />
    <glyph glyph-name="uni2081" unicode="&#x2081;" 
d="M192 205v205h128v204h192v-819h128v-205h-448v205h128v410h-128z" />
    <glyph glyph-name="uni2082" unicode="&#x2082;" 
d="M192 410v204h283l165 -264v-86l-256 -409v-60h256v-205h-448v351l229 366l-64 103h-165z" />
    <glyph glyph-name="uni2083" unicode="&#x2083;" 
d="M192 410v204h283l165 -264v-86l-101 -162l101 -161v-86l-165 -265h-283v205h165l64 103l-64 102h-165v205h165l64 102l-64 103h-165z" />
    <glyph glyph-name="uni2084" unicode="&#x2084;" 
d="M192 145l165 265h91v204h192v-1024h-192v205h-256v350zM384 59v-59h64v162z" />
    <glyph glyph-name="uni2085" unicode="&#x2085;" 
d="M192 614h448v-204h-256v-205h91l165 -264v-86l-165 -265h-283v205h165l64 103l-64 102h-165v614z" />
    <glyph glyph-name="uni2086" unicode="&#x2086;" 
d="M192 350l165 264h155v-145l-128 -205v-59h91l165 -264v-86l-165 -265h-118l-165 265v495zM384 -59l32 -52l5 9l-37 59v-16z" />
    <glyph glyph-name="uni2087" unicode="&#x2087;" 
d="M192 410v204h448v-350l-256 -409v-265h-192v351l256 409v60h-256z" />
    <glyph glyph-name="uni2088" unicode="&#x2088;" 
d="M192 264v86l165 264h118l165 -264v-86l-101 -162l101 -161v-86l-165 -265h-118l-165 265v86l101 161zM416 299l5 8l-5 8l-5 -8zM416 -111l5 9l-5 8l-5 -8z" />
    <glyph glyph-name="uni2089" unicode="&#x2089;" 
d="M192 264v86l165 264h118l165 -264v-495l-165 -265h-155v146l128 205v59h-91zM411 307l37 -59v16l-32 51z" />
    <glyph glyph-name="uni208A" unicode="&#x208a;" 
d="M192 0v205h128v205h192v-205h128v-205h-128v-205h-192v205h-128z" />
    <glyph glyph-name="uni208B" unicode="&#x208b;" 
d="M192 0v205h448v-205h-448z" />
    <glyph glyph-name="uni208C" unicode="&#x208c;" 
d="M192 205v205h448v-205h-448zM192 -205v205h448v-205h-448z" />
    <glyph glyph-name="uni208D" unicode="&#x208d;" 
d="M320 350l165 264h155v-145l-128 -205v-323l128 -205v-146h-155l-165 265v495z" />
    <glyph glyph-name="uni208E" unicode="&#x208e;" 
d="M192 469v145h155l165 -264v-495l-165 -265h-155v146l128 205v323z" />
    <glyph glyph-name="uni2099" unicode="&#x2099;" 
d="M192 205h283l165 -264v-351h-192v265l-64 102v-367h-192v615z" />
    <glyph glyph-name="peseta" unicode="&#x20a7;" 
d="M64 1434h283l165 -265v-86l-165 -264h-91v-819h-192v1434zM256 1186v-119l37 59zM320 410v204h128v205h192v-205h128v-204h-128v-60l128 -205v-145h-155l-165 264v146h-128z" />
    <glyph glyph-name="uni20AA" unicode="&#x20aa;" 
d="M64 1434h283l165 -265v-350h-192v264l-64 103v-1186h-192v1434zM320 614h192v-366l64 102v1084h192v-1170l-165 -264h-283v614z" />
    <glyph glyph-name="Euro" unicode="&#x20ac;" 
d="M64 819v205h128v145l165 265h246l165 -265v-145h-155l-128 205h-10l-91 -146v-59h128v-205h-128v-205h128v-204h-128v-60l91 -145h10l128 205h155v-146l-165 -264h-246l-165 264v146h-128v204h128v205h-128z" />
    <glyph glyph-name="uni2117" unicode="&#x2117;" 
d="M64 1169l165 265h374l165 -265v-1314l-165 -265h-374l-165 265v1314zM347 1229l-91 -146v-59h219l101 -162v221l-91 146h-138zM256 0v-59l91 -146h138l91 146v426l-101 -162h-91v-205h-128zM448 674l-64 102v-323l64 102v119z" />
    <glyph glyph-name="Omega" unicode="&#x2126;" 
d="M64 1169l165 265h374l165 -265v-700l-128 -205v-59h128v-205h-320v350l128 205v528l-91 146h-138l-91 -146v-528l128 -205v-350h-320v205h128v59l-128 205v700z" />
    <glyph glyph-name="uni2127" unicode="&#x2127;" 
d="M64 1229v205h320v-351l-128 -204v-529l91 -145h138l91 145v529l-128 204v351h320v-205h-128v-60l128 -204v-701l-165 -264h-374l-165 264v701l128 204v60h-128z" />
    <glyph glyph-name="uni2129" unicode="&#x2129;" 
d="M192 879v145h155l165 -264v-555h128v-205h-320v674z" />
    <glyph glyph-name="uni2132" unicode="&#x2132;" 
d="M64 0v205h512v409h-384v205h384v615h192v-1434h-704z" />
    <glyph glyph-name="uni214B" unicode="&#x214b;" 
d="M64 1288v146h155l69 -111l69 111h246l165 -265v-290l-101 -162l101 -162v-291l-165 -264h-118l-165 264v291l101 162l-133 213l-69 -111h-155v146l101 161zM475 1229l-64 -103l133 -213l32 52v118l-91 146h-10zM512 469v-119l32 -51l32 51v119l-32 51z" />
    <glyph glyph-name="uni214E" unicode="&#x214e;" 
d="M64 0v205h512v205h-384v204h384v410h192v-1024h-704z" />
    <glyph glyph-name="uni2150" unicode="&#x2150;" 
d="M64 1434h192v-1024h-192v1024zM320 410v204h448v-350l-256 -409v-265h-192v351l256 409v60h-256z" />
    <glyph glyph-name="uni2151" unicode="&#x2151;" 
d="M64 1434h192v-1024h-192v1024zM320 264v86l165 264h118l165 -264v-495l-165 -265h-155v146l128 205v59h-91zM539 307l37 -59v16l-32 51z" />
    <glyph glyph-name="uni2152" unicode="&#x2152;" 
d="M64 410h192v-820h-192v820zM192 1434h192v-820h-192v820zM320 145l165 265h118l165 -265v-290l-165 -265h-118l-165 265v290zM512 59v-118l32 -52l32 52v118l-32 52z" />
    <glyph glyph-name="onethird" unicode="&#x2153;" 
d="M64 1434h192v-1024h-192v1024zM320 410v204h283l165 -264v-86l-101 -162l101 -161v-86l-165 -265h-283v205h165l64 103l-64 102h-165v205h165l64 102l-64 103h-165z" />
    <glyph glyph-name="twothirds" unicode="&#x2154;" 
d="M64 1288v146h155l165 -265v-290l-128 -205v-60h128v-204h-320v350l128 205v118zM448 469v145h155l165 -264v-86l-101 -162l101 -161v-86l-165 -265h-155v146l101 162l-101 161v86l101 162z" />
    <glyph glyph-name="uni2155" unicode="&#x2155;" 
d="M64 1434h192v-1024h-192v1024zM320 614h448v-204h-256v-205h91l165 -264v-86l-165 -265h-283v205h165l64 103l-64 102h-165v614z" />
    <glyph glyph-name="uni2156" unicode="&#x2156;" 
d="M64 1288v146h155l165 -265v-290l-128 -205v-60h128v-204h-320v350l128 205v118zM448 614h320v-204h-128v-205h128v-350l-165 -265h-155v146l128 205v59h-128v614z" />
    <glyph glyph-name="uni2157" unicode="&#x2157;" 
d="M64 1288v146h155l165 -265v-86l-101 -161l101 -162v-86l-165 -264h-155v145l101 162l-101 162v86l101 161zM448 614h320v-204h-128v-205h128v-350l-165 -265h-155v146l128 205v59h-128v614z" />
    <glyph glyph-name="uni2158" unicode="&#x2158;" 
d="M64 965l165 264h91v205h192v-820h256v-204h-128v-205h128v-350l-165 -265h-155v146l128 205v59h-128v410h-128v204h-256v351zM256 879v-60h64v162z" />
    <glyph glyph-name="uni2159" unicode="&#x2159;" 
d="M64 1434h192v-1024h-192v1024zM320 350l165 264h155v-145l-128 -205v-59h91l165 -264v-86l-165 -265h-118l-165 265v495zM512 -59l32 -52l5 9l-37 59v-16z" />
    <glyph glyph-name="uni215A" unicode="&#x215a;" 
d="M64 1434h320v-205h-128v-205h128v-350l-165 -264h-155v145l128 205v59h-128v615zM320 350l165 264h155v-145l-128 -205v-59h91l165 -264v-86l-165 -265h-118l-165 265v495zM512 -59l32 -52l5 9l-37 59v-16z" />
    <glyph glyph-name="oneeighth" unicode="&#x215b;" 
d="M64 1434h192v-1024h-192v1024zM320 264v86l165 264h118l165 -264v-86l-101 -162l101 -161v-86l-165 -265h-118l-165 265v86l101 161zM544 299l5 8l-5 8l-5 -8zM544 -111l5 9l-5 8l-5 -8z" />
    <glyph glyph-name="threeeighths" unicode="&#x215c;" 
d="M64 1288v146h155l165 -265v-86l-101 -161l101 -162v-86l-165 -264h-155v145l101 162l-101 162v86l101 161zM320 264v86l165 264h118l165 -264v-86l-101 -162l101 -161v-86l-165 -265h-118l-165 265v86l101 161zM544 299l5 8l-5 8l-5 -8zM544 -111l5 9l-5 8l-5 -8z" />
    <glyph glyph-name="fiveeighths" unicode="&#x215d;" 
d="M64 1434h320v-205h-128v-205h128v-350l-165 -264h-155v145l128 205v59h-128v615zM320 264v86l165 264h118l165 -264v-86l-101 -162l101 -161v-86l-165 -265h-118l-165 265v86l101 161zM544 299l5 8l-5 8l-5 -8zM544 -111l5 9l-5 8l-5 -8z" />
    <glyph glyph-name="seveneighths" unicode="&#x215e;" 
d="M64 1229v205h448v-351l-256 -409v-264h-192v350l256 409v60h-256zM320 264v86l165 264h118l165 -264v-86l-101 -162l101 -161v-86l-165 -265h-118l-165 265v86l101 161zM544 299l5 8l-5 8l-5 -8zM544 -111l5 9l-5 8l-5 -8z" />
    <glyph glyph-name="uni2189" unicode="&#x2189;" 
d="M64 1169l165 265h118l165 -265v-290l-165 -265h-118l-165 265v290zM256 1083v-118l32 -52l32 52v118l-32 52zM448 469v145h155l165 -264v-86l-101 -162l101 -161v-86l-165 -265h-155v146l101 162l-101 161v86l101 162z" />
    <glyph glyph-name="uni218A" unicode="&#x218a;" 
d="M64 1229v205h704v-351l-293 -469h-128l-91 -145v-119l91 -145h138l128 205h155v-146l-165 -264h-374l-165 264v291l165 264h128l219 350v60h-512z" />
    <glyph glyph-name="uni218B" unicode="&#x218b;" 
d="M64 1169l165 265h374l165 -265v-145h-155l-128 205h-138l-91 -146v-118l91 -146h165v-205h-128v-145l-128 -205v-59h512v-205h-704v350l128 205v119l-128 205v290z" />
    <glyph glyph-name="arrowleft" unicode="&#x2190;" 
d="M64 614v205h128v146l165 264h155v-146l-128 -204v-60h384v-205h-384v-59l128 -205v-145h-155l-165 264v145h-128z" />
    <glyph glyph-name="arrowup" unicode="&#x2191;" 
d="M64 614v146l165 264h91v205h192v-205h91l165 -264v-146h-155l-101 162v-571h-192v571l-101 -162h-155z" />
    <glyph glyph-name="arrowright" unicode="&#x2192;" 
d="M64 614v205h384v60l-128 204v146h155l165 -264v-146h128v-205h-128v-145l-165 -264h-155v145l128 205v59h-384z" />
    <glyph glyph-name="arrowdown" unicode="&#x2193;" 
d="M64 674v145h155l101 -162v572h192v-572l101 162h155v-145l-165 -264h-91v-205h-192v205h-91z" />
    <glyph glyph-name="arrowboth" unicode="&#x2194;" 
d="M64 965l165 264h155v-146l-128 -204v-60h320v60l-128 204v146h155l165 -264v-496l-165 -264h-155v145l128 205v59h-320v-59l128 -205v-145h-155l-165 264v496z" />
    <glyph glyph-name="arrowupdn" unicode="&#x2195;" 
d="M64 819v146l165 264h91v205h192v-205h91l165 -264v-146h-155l-101 162v-528l101 161h155v-145l-165 -264h-91v-205h-192v205h-91l-165 264v145h155l101 -161v528l-101 -162h-155z" />
    <glyph glyph-name="uni2196" unicode="&#x2196;" 
d="M64 1229h576v-205h-256v-59l384 -615v-145h-155l-357 571v-366h-192v819z" />
    <glyph glyph-name="uni2197" unicode="&#x2197;" 
d="M64 205v145l384 615v59h-256v205h576v-819h-192v366l-357 -571h-155z" />
    <glyph glyph-name="uni2198" unicode="&#x2198;" 
d="M64 1083v146h155l357 -572v367h192v-819h-576v205h256v59z" />
    <glyph glyph-name="uni2199" unicode="&#x2199;" 
d="M64 1024h192v-367l357 572h155v-146l-384 -614v-59h256v-205h-576v819z" />
    <glyph glyph-name="uni21A4" unicode="&#x21a4;" 
d="M64 614v205h128v146l165 264h155v-146l-128 -204v-60h192v410h192v-1024h-192v409h-192v-59l128 -205v-145h-155l-165 264v145h-128z" />
    <glyph glyph-name="uni21A5" unicode="&#x21a5;" 
d="M64 614v146l165 264h91v205h192v-205h91l165 -264v-146h-155l-101 162v-366h256v-205h-704v205h256v366l-101 -162h-155z" />
    <glyph glyph-name="uni21A6" unicode="&#x21a6;" 
d="M64 1229h192v-410h192v60l-128 204v146h155l165 -264v-146h128v-205h-128v-145l-165 -264h-155v145l128 205v59h-192v-409h-192v1024z" />
    <glyph glyph-name="uni21A7" unicode="&#x21a7;" 
d="M64 1024v205h704v-205h-256v-367l101 162h155v-145l-165 -264h-91v-205h-192v205h-91l-165 264v145h155l101 -162v367h-256z" />
    <glyph glyph-name="arrowupdnbse" unicode="&#x21a8;" 
d="M64 819v146l165 264h91v205h192v-205h91l165 -264v-146h-155l-101 162v-528l101 161h155v-145l-128 -205v-59h128v-205h-704v205h128v59l-128 205v145h155l101 -161v528l-101 -162h-155z" />
    <glyph glyph-name="uni21B4" unicode="&#x21b4;" 
d="M64 1024v205h448v-572l101 162h155v-145l-165 -264h-91v-205h-192v205h-91l-165 264v145h155l101 -162v367h-256z" />
    <glyph glyph-name="carriagereturn" unicode="&#x21b5;" 
d="M64 614v205h128v146l165 264h155v-146l-128 -204v-60h192v615h192v-820h-384v-59l128 -205v-145h-155l-165 264v145h-128z" />
    <glyph glyph-name="uni21B9" unicode="&#x21b9;" 
d="M64 1434h192v-162l101 162h155v-146l-128 -205v-59h384v-205h-384v-59l192 -307v161h192v-1024h-192v162l-101 -162h-155v146l128 205v59h-384v205h384v59l-192 307v-161h-192v1024z" />
    <glyph glyph-name="uni21BC" unicode="&#x21bc;" 
d="M64 614v205h128v146l165 264h155v-146l-128 -204v-60h384v-205h-704z" />
    <glyph glyph-name="uni21BD" unicode="&#x21bd;" 
d="M64 614v205h704v-205h-384v-59l128 -205v-145h-155l-165 264v145h-128z" />
    <glyph glyph-name="uni21BE" unicode="&#x21be;" 
d="M320 1229h192v-205h91l165 -264v-146h-155l-101 162v-571h-192v1024z" />
    <glyph glyph-name="uni21BF" unicode="&#x21bf;" 
d="M64 614v146l165 264h91v205h192v-1024h-192v571l-101 -162h-155z" />
    <glyph glyph-name="uni21C0" unicode="&#x21c0;" 
d="M64 614v205h384v60l-128 204v146h155l165 -264v-146h128v-205h-704z" />
    <glyph glyph-name="uni21C1" unicode="&#x21c1;" 
d="M64 614v205h704v-205h-128v-145l-165 -264h-155v145l128 205v59h-384z" />
    <glyph glyph-name="uni21C2" unicode="&#x21c2;" 
d="M320 1229h192v-572l101 162h155v-145l-165 -264h-91v-205h-192v1024z" />
    <glyph glyph-name="uni21C3" unicode="&#x21c3;" 
d="M64 674v145h155l101 -162v572h192v-1024h-192v205h-91z" />
    <glyph glyph-name="uni21CB" unicode="&#x21cb;" 
d="M64 819v205h128v145l165 265h155v-146l-128 -205v-59h384v-205h-704zM64 410v204h704v-204h-128v-146l-165 -264h-155v145l128 205v60h-384z" />
    <glyph glyph-name="uni21CC" unicode="&#x21cc;" 
d="M64 819v205h384v59l-128 205v146h155l165 -265v-145h128v-205h-704zM64 410v204h704v-204h-384v-60l128 -205v-145h-155l-165 264v146h-128z" />
    <glyph glyph-name="arrowdblleft" unicode="&#x21d0;" 
d="M64 674v86l293 469h283v-205h128v-205h-320v162l-165 -264l165 -264v161h320v-204h-128v-205h-283z" />
    <glyph glyph-name="arrowdblup" unicode="&#x21d1;" 
d="M64 965l293 469h118l293 -469v-351h-128v-614h-192v819h128v60l-160 256l-160 -256v-60h128v-819h-192v614h-128v351z" />
    <glyph glyph-name="arrowdblright" unicode="&#x21d2;" 
d="M64 819v205h128v205h283l293 -469v-86l-293 -469h-283v205h-128v204h320v-161l165 264l-165 264v-162h-320z" />
    <glyph glyph-name="arrowdbldown" unicode="&#x21d3;" 
d="M64 819h128v615h192v-820h-128v-59l160 -256l160 256v59h-128v820h192v-615h128v-350l-293 -469h-118l-293 469v350z" />
    <glyph glyph-name="uni21E4" unicode="&#x21e4;" 
d="M64 1229h192v-162l101 162h155v-146l-128 -204v-60h384v-205h-384v-59l128 -205v-145h-155l-101 162v-162h-192v1024z" />
    <glyph glyph-name="uni21E5" unicode="&#x21e5;" 
d="M64 614v205h384v60l-128 204v146h155l101 -162v162h192v-1024h-192v162l-101 -162h-155v145l128 205v59h-384z" />
    <glyph glyph-name="uni21E6" unicode="&#x21e6;" 
d="M64 674v86l293 469h283v-205h128v-614h-128v-205h-283zM283 717l165 -264v161h128v205h-128v162z" />
    <glyph glyph-name="uni21E7" unicode="&#x21e7;" 
d="M64 965l293 469h118l293 -469v-351h-128v-614h-448v614h-128v351zM256 879v-60h128v-614h64v614h128v60l-160 256z" />
    <glyph glyph-name="uni21E8" unicode="&#x21e8;" 
d="M64 1024h128v205h283l293 -469v-86l-293 -469h-283v205h-128v614zM256 819v-205h128v-161l165 264l-165 264v-162h-128z" />
    <glyph glyph-name="uni21E9" unicode="&#x21e9;" 
d="M64 819h128v615h448v-615h128v-350l-293 -469h-118l-293 469v350zM256 614v-59l160 -256l160 256v59h-128v615h-64v-615h-128z" />
    <glyph glyph-name="uni21EA" unicode="&#x21ea;" 
d="M64 965l293 469h118l293 -469v-351h-128v-614h-448v614h-128v351zM256 879v-60h128v-205h64v205h128v60l-160 256zM384 410v-205h64v205h-64z" />
    <glyph glyph-name="partialdiff" unicode="&#x2202;" 
d="M64 1024v145l165 265h374l165 -265v-905l-165 -264h-374l-165 264v291l165 264h347v264l-91 146h-138l-128 -205h-155zM347 614l-91 -145v-119l91 -145h138l91 145v264h-229z" />
    <glyph glyph-name="Delta" unicode="&#x2206;" 
d="M192 760v205l128 204v265h192v-265l128 -204v-205l128 -205v-555h-704v555zM384 674l-128 -205v-264h320v264l-128 205v205l-32 51l-32 -51v-205z" />
    <glyph glyph-name="gradient" unicode="&#x2207;" 
d="M64 1434h704v-555l-128 -205v-205l-128 -205v-264h-192v264l-128 205v205l-128 205v555zM256 1229v-264l128 -205v-205l32 -51l32 51v205l128 205v264h-320z" />
    <glyph glyph-name="element" unicode="&#x2208;" 
d="M64 1169l165 265h539v-205h-421l-91 -146v-264h512v-205h-512v-264l91 -145h421v-205h-539l-165 264v905z" />
    <glyph glyph-name="uni220A" unicode="&#x220a;" 
d="M64 965l165 264h539v-205h-421l-91 -145v-60h512v-205h-512v-59l91 -145h421v-205h-539l-165 264v496z" />
    <glyph glyph-name="suchthat" unicode="&#x220b;" 
d="M64 1229v205h539l165 -265v-905l-165 -264h-539v205h421l91 145v264h-512v205h512v264l-91 146h-421z" />
    <glyph glyph-name="uni220D" unicode="&#x220d;" 
d="M64 1024v205h539l165 -264v-496l-165 -264h-539v205h421l91 145v59h-512v205h512v60l-91 145h-421z" />
    <glyph glyph-name="product" unicode="&#x220f;" 
d="M64 1434h704v-1844h-192v1639h-320v-1639h-192v1844z" />
    <glyph glyph-name="uni2210" unicode="&#x2210;" 
d="M64 1434h192v-1639h320v1639h192v-1844h-704v1844z" />
    <glyph glyph-name="summation" unicode="&#x2211;" 
d="M64 1434h704v-205h-512v-60l384 -614v-86l-384 -614v-60h512v-205h-704v351l357 571l-357 571v351z" />
    <glyph glyph-name="minus" unicode="&#x2212;" 
d="M64 614v205h704v-205h-704z" />
    <glyph glyph-name="uni2213" unicode="&#x2213;" 
d="M64 1229v205h704v-205h-704zM64 410v204h256v410h192v-410h256v-204h-256v-410h-192v410h-256z" />
    <glyph glyph-name="uni2214" unicode="&#x2214;" 
d="M64 410v204h256v410h192v-410h256v-204h-256v-410h-192v410h-256zM320 1229v205h192v-205h-192z" />
    <glyph glyph-name="uni2218" unicode="&#x2218;" 
d="M192 760l165 264h118l165 -264v-291l-165 -264h-118l-165 264v291zM384 674v-119l32 -51l32 51v119l-32 51z" />
    <glyph glyph-name="uni2219" unicode="&#x2219;" 
d="M192 614v205h128v205h192v-205h128v-205h-128v-204h-192v204h-128z" />
    <glyph glyph-name="radical" unicode="&#x221a;" 
d="M64 469v145h155l101 -161v981h448v-205h-256v-1229h-192v205h-91z" />
    <glyph glyph-name="uni221B" unicode="&#x221b;" 
d="M64 1288v146h155l165 -265v-86l-101 -161l101 -162v-86l-165 -264h-155v145l101 162l-101 162v86l101 161zM320 205v205h128v1024h320v-205h-128v-1229h-192v205h-128z" />
    <glyph glyph-name="uni221C" unicode="&#x221c;" 
d="M64 1169l165 265h283v-820h-192v205h-256v350zM256 1083v-59h64v162zM448 205v205h128v1024h192v-1434h-192v205h-128z" />
    <glyph glyph-name="proportional" unicode="&#x221d;" 
d="M64 965l165 264h118l69 -111l69 111h118l165 -264v-146h-155l-69 111l-32 -51v-324l32 -51l69 110h155v-145l-165 -264h-118l-69 110l-69 -110h-118l-165 264v496zM256 879v-324l32 -51l32 51v324l-32 51z" />
    <glyph glyph-name="infinity" unicode="&#x221e;" 
d="M64 965l165 264h118l69 -111l69 111h118l165 -264v-496l-165 -264h-118l-69 110l-69 -110h-118l-165 264v496zM256 879v-324l32 -51l32 51v324l-32 51zM512 879v-324l32 -51l32 51v324l-32 51z" />
    <glyph glyph-name="orthogonal" unicode="&#x221f;" 
d="M64 1229h192v-819h512v-205h-704v1024z" />
    <glyph glyph-name="uni2223" unicode="&#x2223;" 
d="M320 1434h192v-1434h-192v1434z" />
    <glyph glyph-name="uni2225" unicode="&#x2225;" 
d="M192 1434h192v-1434h-192v1434zM448 1434h192v-1434h-192v1434z" />
    <glyph glyph-name="logicaland" unicode="&#x2227;" 
d="M64 410v145l293 469h118l293 -469v-145h-155l-197 315l-197 -315h-155z" />
    <glyph glyph-name="logicalor" unicode="&#x2228;" 
d="M64 879v145h155l197 -315l197 315h155v-145l-293 -469h-118z" />
    <glyph glyph-name="intersection" unicode="&#x2229;" 
d="M64 965l165 264h374l165 -264v-760h-192v674l-91 145h-138l-91 -145v-674h-192v760z" />
    <glyph glyph-name="union" unicode="&#x222a;" 
d="M64 1229h192v-674l91 -145h138l91 145v674h192v-760l-165 -264h-374l-165 264v760z" />
    <glyph glyph-name="integral" unicode="&#x222b;" 
d="M64 -145v145h155l69 -111l32 52v1228l165 265h118l165 -265v-145h-155l-69 111l-32 -52v-1228l-165 -265h-118z" />
    <glyph glyph-name="uni222E" unicode="&#x222e;" 
d="M64 469v86l165 264h91v350l165 265h118l165 -265v-145h-155l-69 111l-32 -52v-264h91l165 -264v-86l-165 -264h-91v-350l-165 -265h-118l-165 265v145h155l69 -111l32 52v264h-91zM283 512l37 -59v118zM512 571v-118l37 59z" />
    <glyph glyph-name="therefore" unicode="&#x2234;" 
d="M64 205v205h192v-205h-192zM320 1024v205h192v-205h-192zM576 205v205h192v-205h-192z" />
    <glyph glyph-name="uni2235" unicode="&#x2235;" 
d="M64 1024v205h192v-205h-192zM320 205v205h192v-205h-192zM576 1024v205h192v-205h-192z" />
    <glyph glyph-name="uni2238" unicode="&#x2238;" 
d="M64 614v205h704v-205h-704zM320 1024v205h192v-205h-192z" />
    <glyph glyph-name="uni223A" unicode="&#x223a;" 
d="M64 1024v205h192v-205h-192zM64 614v205h704v-205h-704zM64 205v205h192v-205h-192zM576 1024v205h192v-205h-192zM576 205v205h192v-205h-192z" />
    <glyph glyph-name="similar" unicode="&#x223c;" 
d="M64 614v146l165 264h118l197 -315l69 110h155v-145l-165 -264h-118l-197 315l-69 -111h-155z" />
    <glyph glyph-name="uni223D" unicode="&#x223d;" 
d="M64 674v145h155l69 -110l197 315h118l165 -264v-146h-155l-69 111l-197 -315h-118z" />
    <glyph glyph-name="uni223F" unicode="&#x223f;" 
d="M64 965l165 264h118l165 -264v-410l32 -51l32 51v264h192v-350l-165 -264h-118l-165 264v410l-32 51l-32 -51v-265h-192v351z" />
    <glyph glyph-name="uni2242" unicode="&#x2242;" 
d="M64 1024v205h704v-205h-704zM64 410v145l165 264h118l197 -315l69 110h155v-145l-165 -264h-118l-197 315l-69 -110h-155z" />
    <glyph glyph-name="uni2243" unicode="&#x2243;" 
d="M64 819v146l165 264h118l197 -316l69 111h155v-145l-165 -265h-118l-197 316l-69 -111h-155zM64 205v205h704v-205h-704z" />
    <glyph glyph-name="congruent" unicode="&#x2245;" 
d="M64 1024v145l165 265h118l197 -316l69 111h155v-146l-165 -264h-118l-197 316l-69 -111h-155zM64 410v204h704v-204h-704zM64 0v205h704v-205h-704z" />
    <glyph glyph-name="approxequal" unicode="&#x2248;" 
d="M64 819v146l165 264h118l197 -316l69 111h155v-145l-165 -265h-118l-197 316l-69 -111h-155zM64 205v145l165 264h118l197 -315l69 111h155v-146l-165 -264h-118l-197 315l-69 -110h-155z" />
    <glyph glyph-name="uni224C" unicode="&#x224c;" 
d="M64 1083v146h155l69 -111l197 316h118l165 -265v-145h-155l-69 111l-197 -316h-118zM64 410v204h704v-204h-704zM64 0v205h704v-205h-704z" />
    <glyph glyph-name="uni224D" unicode="&#x224d;" 
d="M64 1083v146h155l128 -205h138l128 205h155v-146l-165 -264h-374zM64 205v145l165 264h374l165 -264v-145h-155l-128 205h-138l-128 -205h-155z" />
    <glyph glyph-name="uni224E" unicode="&#x224e;" 
d="M64 819v205h165l128 205h118l128 -205h165v-205h-283l-69 111l-69 -111h-283zM64 410v204h283l69 -110l69 110h283v-204h-165l-128 -205h-118l-128 205h-165z" />
    <glyph glyph-name="uni224F" unicode="&#x224f;" 
d="M64 819v205h165l128 205h118l128 -205h165v-205h-283l-69 111l-69 -111h-283zM64 410v204h704v-204h-704z" />
    <glyph glyph-name="uni2250" unicode="&#x2250;" 
d="M64 819v205h704v-205h-704zM64 410v204h704v-204h-704zM320 1229v205h192v-205h-192z" />
    <glyph glyph-name="uni2251" unicode="&#x2251;" 
d="M64 819v205h704v-205h-704zM64 410v204h704v-204h-704zM320 1229v205h192v-205h-192zM320 0v205h192v-205h-192z" />
    <glyph glyph-name="uni2252" unicode="&#x2252;" 
d="M64 1229v205h192v-205h-192zM64 819v205h704v-205h-704zM64 410v204h704v-204h-704zM576 0v205h192v-205h-192z" />
    <glyph glyph-name="uni2253" unicode="&#x2253;" 
d="M64 819v205h704v-205h-704zM64 410v204h704v-204h-704zM64 0v205h192v-205h-192zM576 1229v205h192v-205h-192z" />
    <glyph glyph-name="uni2258" unicode="&#x2258;" 
d="M64 1024v145l165 265h374l165 -265v-145h-155l-128 205h-138l-128 -205h-155zM64 614v205h704v-205h-704zM64 205v205h704v-205h-704z" />
    <glyph glyph-name="uni225E" unicode="&#x225e;" 
d="M64 1434h283l69 -111l69 111h118l165 -265v-350h-192v264l-32 52l-32 -52v-264h-192v264l-64 103v-367h-192v615zM64 410v204h704v-204h-704zM64 0v205h704v-205h-704z" />
    <glyph glyph-name="notequal" unicode="&#x2260;" 
d="M64 819v205h384v205h192v-205h128v-205h-256v-205h256v-204h-384v-205h-192v205h-128v204h256v205h-256z" />
    <glyph glyph-name="equivalence" unicode="&#x2261;" 
d="M64 1024v205h704v-205h-704zM64 614v205h704v-205h-704zM64 205v205h704v-205h-704z" />
    <glyph glyph-name="uni2262" unicode="&#x2262;" 
d="M64 1024v205h384v205h192v-205h128v-205h-256v-205h256v-205h-256v-204h256v-205h-384v-205h-192v205h-128v205h256v204h-256v205h256v205h-256z" />
    <glyph glyph-name="lessequal" unicode="&#x2264;" 
d="M64 879v86l165 264h128l128 205h283v-205h-165l-128 -205h-128l-64 -102l64 -103h128l128 -205h165v-204h-283l-128 204h-128zM64 205v205h283l128 -205h293v-205h-411l-128 205h-165z" />
    <glyph glyph-name="greaterequal" unicode="&#x2265;" 
d="M64 1229v205h283l128 -205h128l165 -264v-86l-165 -265h-128l-128 -204h-283v204h165l128 205h128l64 103l-64 102h-128l-128 205h-165zM64 0v205h293l128 205h283v-205h-165l-128 -205h-411z" />
    <glyph glyph-name="uni226C" unicode="&#x226c;" 
d="M192 1288v146h155l69 -111l69 111h155v-146l-101 -162l101 -161v-496l-101 -162l101 -162v-145h-155l-69 111l-69 -111h-155v145l101 162l-101 162v496l101 161zM384 879v-324l32 -51l32 51v324l-32 51z" />
    <glyph glyph-name="propersubset" unicode="&#x2282;" 
d="M64 965l165 264h539v-205h-421l-91 -145v-324l91 -145h421v-205h-539l-165 264v496z" />
    <glyph glyph-name="propersuperset" unicode="&#x2283;" 
d="M64 1024v205h539l165 -264v-496l-165 -264h-539v205h421l91 145v324l-91 145h-421z" />
    <glyph glyph-name="reflexsubset" unicode="&#x2286;" 
d="M64 1169l165 265h539v-205h-421l-91 -146v-323l91 -146h421v-204h-539l-165 264v495zM64 0v205h704v-205h-704z" />
    <glyph glyph-name="reflexsuperset" unicode="&#x2287;" 
d="M64 1229v205h539l165 -265v-495l-165 -264h-539v204h421l91 146v323l-91 146h-421zM64 0v205h704v-205h-704z" />
    <glyph glyph-name="uni228D" unicode="&#x228d;" 
d="M64 1229h192v-674l91 -145h138l91 145v674h192v-760l-165 -264h-374l-165 264v760zM320 614v205h192v-205h-192z" />
    <glyph glyph-name="uni228F" unicode="&#x228f;" 
d="M64 1229h704v-205h-512v-614h512v-205h-704v1024z" />
    <glyph glyph-name="uni2290" unicode="&#x2290;" 
d="M64 1024v205h704v-1024h-704v205h512v614h-512z" />
    <glyph glyph-name="uni2291" unicode="&#x2291;" 
d="M64 1434h704v-205h-512v-615h512v-204h-704v1024zM64 0v205h704v-205h-704z" />
    <glyph glyph-name="uni2292" unicode="&#x2292;" 
d="M64 1229v205h704v-1024h-704v204h512v615h-512zM64 0v205h704v-205h-704z" />
    <glyph glyph-name="uni2293" unicode="&#x2293;" 
d="M64 1229h704v-1024h-192v819h-320v-819h-192v1024z" />
    <glyph glyph-name="uni2294" unicode="&#x2294;" 
d="M64 1229h192v-819h320v819h192v-1024h-704v1024z" />
    <glyph glyph-name="circleplus" unicode="&#x2295;" 
d="M64 965l165 264h374l165 -264v-496l-165 -264h-374l-165 264v496zM256 879v-60h64v162zM256 614v-59l64 -102v161h-64zM512 819h64v60l-64 102v-162zM512 614v-161l64 102v59h-64z" />
    <glyph glyph-name="uni2296" unicode="&#x2296;" 
d="M64 965l165 264h374l165 -264v-496l-165 -264h-374l-165 264v496zM347 1024l-91 -145v-60h320v60l-91 145h-138zM256 614v-59l91 -145h138l91 145v59h-320z" />
    <glyph glyph-name="uni2299" unicode="&#x2299;" 
d="M64 965l165 264h374l165 -264v-496l-165 -264h-374l-165 264v496zM347 1024l-91 -145v-324l91 -145h138l91 145v324l-91 145h-138zM320 614v205h192v-205h-192z" />
    <glyph glyph-name="uni229E" unicode="&#x229e;" 
d="M64 1229h704v-1024h-704v1024zM256 1024v-205h64v205h-64zM256 614v-204h64v204h-64zM512 1024v-205h64v205h-64zM512 614v-204h64v204h-64z" />
    <glyph glyph-name="uni229F" unicode="&#x229f;" 
d="M64 1229h704v-1024h-704v1024zM256 1024v-205h320v205h-320zM256 614v-204h320v204h-320z" />
    <glyph glyph-name="uni22A1" unicode="&#x22a1;" 
d="M64 1229h704v-1024h-704v1024zM256 1024v-614h320v614h-320zM320 614v205h192v-205h-192z" />
    <glyph glyph-name="uni22A2" unicode="&#x22a2;" 
d="M64 1229h192v-410h512v-205h-512v-409h-192v1024z" />
    <glyph glyph-name="uni22A3" unicode="&#x22a3;" 
d="M64 614v205h512v410h192v-1024h-192v409h-512z" />
    <glyph glyph-name="uni22A4" unicode="&#x22a4;" 
d="M64 1024v205h704v-205h-256v-819h-192v819h-256z" />
    <glyph glyph-name="perpendicular" unicode="&#x22a5;" 
d="M64 205v205h256v819h192v-819h256v-205h-704z" />
    <glyph glyph-name="uni22A6" unicode="&#x22a6;" 
d="M192 1229h192v-410h256v-205h-256v-409h-192v1024z" />
    <glyph glyph-name="uni22A7" unicode="&#x22a7;" 
d="M192 1229h192v-205h256v-205h-256v-205h256v-204h-256v-205h-192v1024z" />
    <glyph glyph-name="uni22A8" unicode="&#x22a8;" 
d="M64 1229h192v-205h512v-205h-512v-205h512v-204h-512v-205h-192v1024z" />
    <glyph glyph-name="uni22A9" unicode="&#x22a9;" 
d="M64 1229h192v-1024h-192v1024zM320 1229h192v-410h256v-205h-256v-409h-192v1024z" />
    <glyph glyph-name="uni22AB" unicode="&#x22ab;" 
d="M64 1229h192v-1024h-192v1024zM320 1229h192v-205h256v-205h-256v-205h256v-204h-256v-205h-192v1024z" />
    <glyph glyph-name="uni22C2" unicode="&#x22c2;" 
d="M64 1169l165 265h374l165 -265v-1579h-192v1493l-91 146h-138l-91 -146v-1493h-192v1579z" />
    <glyph glyph-name="uni22C3" unicode="&#x22c3;" 
d="M64 1434h192v-1493l91 -146h138l91 146v1493h192v-1579l-165 -265h-374l-165 265v1579z" />
    <glyph glyph-name="uni22C4" unicode="&#x22c4;" 
d="M64 674v86l293 469h118l293 -469v-86l-293 -469h-118zM283 717l133 -213l133 213l-133 213z" />
    <glyph glyph-name="uni22CB" unicode="&#x22cb;" 
d="M64 1083v146h155l549 -879v-145h-155l-197 315l-197 -315h-155v145l229 367z" />
    <glyph glyph-name="uni22CC" unicode="&#x22cc;" 
d="M64 205v145l549 879h155v-146l-229 -366l229 -367v-145h-155l-197 315l-197 -315h-155z" />
    <glyph glyph-name="uni22CD" unicode="&#x22cd;" 
d="M64 879v145h155l69 -111l197 316h118l165 -264v-146h-155l-69 111l-197 -316h-118zM64 205v205h704v-205h-704z" />
    <glyph glyph-name="uni22D4" unicode="&#x22d4;" 
d="M64 760l165 264h91v410h192v-410h91l165 -264v-760h-192v674l-64 102v-776h-192v776l-64 -102v-674h-192v760z" />
    <glyph glyph-name="uni22DC" unicode="&#x22dc;" 
d="M64 1024v205h165l128 205h411v-205h-293l-128 -205h-283zM64 469v86l165 264h128l128 205h283v-205h-165l-128 -205h-128l-64 -102l64 -102h128l128 -205h165v-205h-283l-128 205h-128z" />
    <glyph glyph-name="uni22DD" unicode="&#x22dd;" 
d="M64 1229v205h411l128 -205h165v-205h-283l-128 205h-293zM64 819v205h283l128 -205h128l165 -264v-86l-165 -264h-128l-128 -205h-283v205h165l128 205h128l64 102l-64 102h-128l-128 205h-165z" />
    <glyph glyph-name="uni22EE" unicode="&#x22ee;" 
d="M320 1024v205h192v-205h-192zM320 614v205h192v-205h-192zM320 205v205h192v-205h-192z" />
    <glyph glyph-name="uni22EF" unicode="&#x22ef;" 
d="M64 614v205h192v-205h-192zM320 614v205h192v-205h-192zM576 614v205h192v-205h-192z" />
    <glyph glyph-name="uni22F0" unicode="&#x22f0;" 
d="M64 205v205h192v-205h-192zM320 614v205h192v-205h-192zM576 1024v205h192v-205h-192z" />
    <glyph glyph-name="uni22F1" unicode="&#x22f1;" 
d="M64 1024v205h192v-205h-192zM320 614v205h192v-205h-192zM576 205v205h192v-205h-192z" />
    <glyph glyph-name="uni22F7" unicode="&#x22f7;" 
d="M64 1229v205h704v-205h-704zM64 760l165 264h539v-205h-421l-91 -145v-60h512v-204h-512v-60l91 -145h421v-205h-539l-165 264v496z" />
    <glyph glyph-name="uni22F8" unicode="&#x22f8;" 
d="M64 1169l165 265h539v-205h-421l-91 -146v-264h512v-205h-512v-264l91 -145h421v-205h-539l-165 264v905zM64 -410v205h704v-205h-704z" />
    <glyph glyph-name="uni22FE" unicode="&#x22fe;" 
d="M64 1229v205h704v-205h-704zM64 819v205h539l165 -264v-496l-165 -264h-539v205h421l91 145v60h-512v204h512v60l-91 145h-421z" />
    <glyph glyph-name="house" unicode="&#x2302;" 
d="M64 965l293 469h118l293 -469v-965h-704v965zM256 879v-674h320v674l-160 256z" />
    <glyph glyph-name="uni2308" unicode="&#x2308;" 
d="M192 1434h448v-205h-256v-1229h-192v1434z" />
    <glyph glyph-name="uni2309" unicode="&#x2309;" 
d="M192 1229v205h448v-1434h-192v1229h-256z" />
    <glyph glyph-name="uni230A" unicode="&#x230a;" 
d="M192 1434h192v-1229h256v-205h-448v1434z" />
    <glyph glyph-name="uni230B" unicode="&#x230b;" 
d="M192 0v205h256v1229h192v-1434h-448z" />
    <glyph glyph-name="revlogicalnot" unicode="&#x2310;" 
d="M64 1024h704v-205h-512v-409h-192v614z" />
    <glyph glyph-name="integraltp" unicode="&#x2320;" 
d="M320 760l165 264h118l165 -264v-146h-155l-69 111l-32 -51v-1084h-192v1170z" />
    <glyph glyph-name="integralbt" unicode="&#x2321;" 
d="M64 264v146h155l69 -111l32 51v1084h192v-1170l-165 -264h-118z" />
    <glyph glyph-name="uni2336" unicode="&#x2336;" 
d="M64 1024v205h704v-205h-256v-614h256v-205h-704v205h256v614h-256z" />
    <glyph glyph-name="uni2337" unicode="&#x2337;" 
d="M192 1434h448v-1434h-448v1434zM384 1229v-1024h64v1024h-64z" />
    <glyph glyph-name="uni2338" unicode="&#x2338;" 
d="M64 1434h704v-1434h-704v1434zM256 1229v-205h320v205h-320zM256 819v-205h320v205h-320zM256 410v-205h320v205h-320z" />
    <glyph glyph-name="uni2339" unicode="&#x2339;" 
d="M64 1434h704v-1434h-704v1434zM256 1229v-410h320v410h-64v-205h-192v205h-64zM256 614v-409h64v205h192v-205h64v409h-320z" />
    <glyph glyph-name="uni233A" unicode="&#x233a;" 
d="M64 1434h704v-1434h-704v1434zM256 1229v-162l64 102v60h-64zM256 819v-205h91l69 -110l69 110h91v205h-91l-69 111l-69 -111h-91zM320 264l-64 103v-162h64v59zM512 1229v-60l64 -102v162h-64zM512 205h64v162l-64 -103v-59z" />
    <glyph glyph-name="uni233B" unicode="&#x233b;" 
d="M64 1434h704v-1434h-704v1434zM256 1229v-367l101 162h118l101 -162v367h-320zM256 571v-366h320v366l-101 -161h-118zM416 709l5 8l-5 8l-5 -8z" />
    <glyph glyph-name="uni233D" unicode="&#x233d;" 
d="M64 965l165 264h91v205h192v-205h91l165 -264v-496l-165 -264h-91v-205h-192v205h-91l-165 264v496zM256 879v-324l64 -102v528zM576 879l-64 102v-528l64 102v324z" />
    <glyph glyph-name="uni233F" unicode="&#x233f;" 
d="M64 205v145l229 367l-101 162v145h155l69 -111l197 316h155v-146l-229 -366l101 -162v-145h-155l-69 110l-197 -315h-155z" />
    <glyph glyph-name="uni2340" unicode="&#x2340;" 
d="M64 1083v146h155l197 -316l69 111h155v-145l-101 -162l229 -367v-145h-155l-197 315l-69 -110h-155v145l101 162z" />
    <glyph glyph-name="uni2341" unicode="&#x2341;" 
d="M64 1434h704v-1434h-704v1434zM256 1229v-572l229 367h91v205h-320zM256 410v-205h320v571l-229 -366h-91z" />
    <glyph glyph-name="uni2342" unicode="&#x2342;" 
d="M64 1434h704v-1434h-704v1434zM256 1229v-205h91l229 -367v572h-320zM256 776v-571h320v205h-91z" />
    <glyph glyph-name="uni2349" unicode="&#x2349;" 
d="M64 1083v146h155l69 -111l69 111h246l165 -264v-291l-101 -162l101 -162v-145h-155l-69 110l-69 -110h-246l-165 264v291l101 162zM256 674v-119l91 -145h10l64 102l-133 213zM475 1024l-64 -102l133 -213l32 51v119l-91 145h-10z" />
    <glyph glyph-name="uni234A" unicode="&#x234a;" 
d="M64 410v204h256v820h192v-820h256v-204h-704zM64 0v205h704v-205h-704z" />
    <glyph glyph-name="uni234B" unicode="&#x234b;" 
d="M192 760v205l128 204v265h192v-265l128 -204v-205l128 -205v-555h-256v-410h-192v410h-256v555zM256 469v-264h64v264l-32 51zM384 879v-119l32 -51l32 51v119l-32 51zM512 205h64v264l-32 51l-32 -51v-264z" />
    <glyph glyph-name="uni234E" unicode="&#x234e;" 
d="M64 965l165 264h91v205h192v-205h91l165 -264v-291l-165 -264h-91v-205h256v-205h-704v205h256v205h-91l-165 264v291zM256 879v-119l64 -103v324zM576 879l-64 102v-324l64 103v119z" />
    <glyph glyph-name="uni2351" unicode="&#x2351;" 
d="M64 1229v205h704v-205h-704zM64 819v205h704v-205h-256v-819h-192v819h-256z" />
    <glyph glyph-name="uni2352" unicode="&#x2352;" 
d="M64 1024h256v410h192v-410h256v-555l-128 -205v-205l-128 -204v-265h-192v265l-128 204v205l-128 205v555zM256 819v-264l32 -51l32 51v264h-64zM512 819v-264l32 -51l32 51v264h-64zM384 264v-119l32 -51l32 51v119l-32 51z" />
    <glyph glyph-name="uni2355" unicode="&#x2355;" 
d="M64 1229v205h704v-205h-256v-205h91l165 -264v-291l-165 -264h-91v-205h-192v205h-91l-165 264v291l165 264h91v205h-256zM256 674v-119l64 -102v323zM576 674l-64 102v-323l64 102v119z" />
    <glyph glyph-name="uni2359" unicode="&#x2359;" 
d="M192 760v205l128 204v265h192v-265l128 -204v-205l128 -205v-555h-704v555zM64 -410v205h704v-205h-704zM384 674l-128 -205v-264h320v264l-128 205v205l-32 51l-32 -51v-205z" />
    <glyph glyph-name="uni235D" unicode="&#x235d;" 
d="M64 965l165 264h374l165 -264v-760h-192v366l-101 -161h-118l-101 161v-366h-192v760zM256 879v-17l64 103v16zM416 709l5 8l-5 8l-5 -8zM512 965l64 -103v17l-64 102v-16z" />
    <glyph glyph-name="uni235E" unicode="&#x235e;" 
d="M64 1434h704v-1434h-704v1434zM256 1229v-1024h320v1024h-64v-410h-192v410h-64z" />
    <glyph glyph-name="uni235F" unicode="&#x235f;" 
d="M64 1169l165 265h374l165 -265v-905l-165 -264h-374l-165 264v905zM256 1083v-59h64v162zM256 819v-162l64 103v59h-64zM256 410v-60l91 -145h138l91 145v60h-91l-69 110l-69 -110h-91zM512 1024h64v59l-64 103v-162zM512 819v-59l64 -103v162h-64z" />
    <glyph glyph-name="uni2360" unicode="&#x2360;" 
d="M64 1434h704v-1434h-704v1434zM256 1229v-1024h320v1024h-320zM320 819v205h192v-205h-192zM320 410v204h192v-204h-192z" />
    <glyph glyph-name="uni2363" unicode="&#x2363;" 
d="M64 879v145h155l101 -162v162h192v-162l101 162h155v-145l-165 -265h-91v-204h91l165 -265v-145h-155l-101 162v-162h-192v162l-101 -162h-155v145l165 265h91v204h-91zM192 1229v205h192v-205h-192zM448 1229v205h192v-205h-192z" />
    <glyph glyph-name="uni2364" unicode="&#x2364;" 
d="M192 1229v205h192v-205h-192zM192 760l165 264h118l165 -264v-291l-165 -264h-118l-165 264v291zM384 674v-119l32 -51l32 51v119l-32 51zM448 1229v205h192v-205h-192z" />
    <glyph glyph-name="uni2368" unicode="&#x2368;" 
d="M64 614v146l165 264h118l197 -315l69 110h155v-145l-165 -264h-118l-197 315l-69 -111h-155zM192 1229v205h192v-205h-192zM448 1229v205h192v-205h-192z" />
    <glyph glyph-name="uni236A" unicode="&#x236a;" 
d="M64 614v205h704v-205h-704zM320 -59v264h192v-350l-165 -265h-155v146z" />
    <glyph glyph-name="uni236B" unicode="&#x236b;" 
d="M64 1434h704v-555l-128 -205v-60h128v-204h-165l-91 -146v-264h-192v264l-91 146h-165v204h128v60l-128 205v555zM256 1229v-264l91 -146h138l91 146v264h-320zM384 614v-59l32 -51l32 51v59h-64z" />
    <glyph glyph-name="uni236C" unicode="&#x236c;" 
d="M64 965l293 469h118l293 -469v-496l-293 -469h-118l-293 469v496zM256 879v-60h320v60l-160 256zM256 614v-59l160 -256l160 256v59h-320z" />
    <glyph glyph-name="uni2371" unicode="&#x2371;" 
d="M64 1024v145l165 265h118l197 -316l69 111h155v-146l-165 -264h-118l-197 316l-69 -111h-155zM64 469v145h155l197 -315l197 315h155v-145l-293 -469h-118z" />
    <glyph glyph-name="uni2372" unicode="&#x2372;" 
d="M64 1024v145l165 265h118l197 -316l69 111h155v-146l-165 -264h-118l-197 316l-69 -111h-155zM64 0v145l293 469h118l293 -469v-145h-155l-197 315l-197 -315h-155z" />
    <glyph glyph-name="uni2373" unicode="&#x2373;" 
d="M192 819v205h320v-674l128 -205v-145h-155l-165 264v555h-128z" />
    <glyph glyph-name="uni2374" unicode="&#x2374;" 
d="M64 760l165 264h374l165 -264v-496l-165 -264h-347v-410h-192v1170zM347 819l-91 -145v-469h229l91 145v324l-91 145h-138z" />
    <glyph glyph-name="uni2375" unicode="&#x2375;" 
d="M64 760l165 264h155v-145l-128 -205v-324l32 -51l32 51v264h192v-264l32 -51l32 51v324l-128 205v145h155l165 -264v-496l-165 -264h-118l-69 111l-69 -111h-118l-165 264v496z" />
    <glyph glyph-name="uni2376" unicode="&#x2376;" 
d="M64 760l165 264h246l69 -111l69 111h155v-145l-128 -205v-324l128 -205v-145h-155l-69 111l-69 -111h-246l-165 264v496zM64 -410v205h704v-205h-704zM347 819l-91 -145v-324l91 -145h10l91 145v324l-91 145h-10z" />
    <glyph glyph-name="uni2377" unicode="&#x2377;" 
d="M64 1169l165 265h539v-205h-421l-91 -146v-59h512v-205h-512v-59l91 -146h421v-204h-539l-165 264v495zM64 0v205h704v-205h-704z" />
    <glyph glyph-name="uni2378" unicode="&#x2378;" 
d="M64 -410v205h704v-205h-704zM192 819v205h320v-674l128 -205v-145h-155l-165 264v555h-128z" />
    <glyph glyph-name="uni2379" unicode="&#x2379;" 
d="M64 760l165 264h155v-145l-128 -205v-324l32 -51l32 51v264h192v-264l32 -51l32 51v324l-128 205v145h155l165 -264v-496l-165 -264h-118l-69 111l-69 -111h-118l-165 264v496zM64 -410v205h704v-205h-704z" />
    <glyph glyph-name="uni237A" unicode="&#x237a;" 
d="M64 760l165 264h246l69 -111l69 111h155v-145l-128 -205v-324l128 -205v-145h-155l-69 111l-69 -111h-246l-165 264v496zM347 819l-91 -145v-324l91 -145h10l91 145v324l-91 145h-10z" />
    <glyph glyph-name="uni237B" unicode="&#x237b;" 
d="M64 469v145h155l69 -110l133 213l-101 162v145h155l69 -111l69 111h155v-145l-101 -162l101 -162v-145h-155l-69 110l-197 -315h-118z" />
    <glyph glyph-name="uni237D" unicode="&#x237d;" 
d="M64 205v205h320v-205h64v205h320v-205h-128v-205h-448v205h-128z" />
    <glyph glyph-name="uni237E" unicode="&#x237e;" 
d="M64 965l165 264h374l165 -264v-351h-128v-204h128v-205h-320v409h-64v-409h-320v205h128v204h-128v351zM347 1024l-91 -145v-60h320v60l-91 145h-138z" />
    <glyph glyph-name="uni237F" unicode="&#x237f;" 
d="M320 965v469h192v-469l128 -205v-86l-128 -205v-469h-192v469l-128 205v86zM416 709l5 8l-5 8l-5 -8z" />
    <glyph glyph-name="uni238D" unicode="&#x238d;" 
d="M64 205v205h128v819h448v-819h128v-205h-320v819h-64v-819h-320z" />
    <glyph glyph-name="uni238E" unicode="&#x238e;" 
d="M64 205v205h128v555l165 264h411v-205h-128v-555l-165 -264h-411zM384 879v-426l64 102v426z" />
    <glyph glyph-name="uni2393" unicode="&#x2393;" 
d="M64 819v205h704v-205h-704zM64 410v204h192v-204h-192zM320 410v204h192v-204h-192zM576 410v204h192v-204h-192z" />
    <glyph glyph-name="uni2395" unicode="&#x2395;" 
d="M64 1434h704v-1434h-704v1434zM256 1229v-1024h320v1024h-320z" />
    <glyph glyph-name="uni239B" unicode="&#x239b;" 
d="M192 965l293 469h155v-146l-256 -409v-1289h-192v1375z" />
    <glyph glyph-name="uni239C" unicode="&#x239c;" 
d="M192 1434h192v-1844h-192v1844z" />
    <glyph glyph-name="uni239D" unicode="&#x239d;" 
d="M192 1434h192v-879l256 -410v-145h-155l-293 469v965z" />
    <glyph glyph-name="uni239E" unicode="&#x239e;" 
d="M192 1288v146h155l293 -469v-1375h-192v1289z" />
    <glyph glyph-name="uni239F" unicode="&#x239f;" 
d="M448 1434h192v-1844h-192v1844z" />
    <glyph glyph-name="uni23A0" unicode="&#x23a0;" 
d="M192 0v145l256 410v879h192v-965l-293 -469h-155z" />
    <glyph glyph-name="uni23A1" unicode="&#x23a1;" 
d="M192 1434h576v-205h-384v-1639h-192v1844z" />
    <glyph glyph-name="uni23A2" unicode="&#x23a2;" 
d="M192 1434h192v-1844h-192v1844z" />
    <glyph glyph-name="uni23A3" unicode="&#x23a3;" 
d="M192 1434h192v-1229h384v-205h-576v1434z" />
    <glyph glyph-name="uni23A4" unicode="&#x23a4;" 
d="M64 1229v205h576v-1844h-192v1639h-384z" />
    <glyph glyph-name="uni23A5" unicode="&#x23a5;" 
d="M448 1434h192v-1844h-192v1844z" />
    <glyph glyph-name="uni23A6" unicode="&#x23a6;" 
d="M64 0v205h384v1229h192v-1434h-576z" />
    <glyph glyph-name="uni23A7" unicode="&#x23a7;" 
d="M320 1169l165 265h283v-205h-165l-91 -146v-1493h-192v1579z" />
    <glyph glyph-name="uni23A8" unicode="&#x23a8;" 
d="M320 965v469h192v-555l-101 -162l101 -162v-965h-192v879l-128 205v86z" />
    <glyph glyph-name="uni23A9" unicode="&#x23a9;" 
d="M320 1434h192v-1084l91 -145h165v-205h-283l-165 264v1170z" />
    <glyph glyph-name="uni23AA" unicode="&#x23aa;" 
d="M320 1434h192v-1844h-192v1844z" />
    <glyph glyph-name="uni23AB" unicode="&#x23ab;" 
d="M64 1229v205h283l165 -265v-1579h-192v1493l-91 146h-165z" />
    <glyph glyph-name="uni23AC" unicode="&#x23ac;" 
d="M320 1434h192v-469l128 -205v-86l-128 -205v-879h-192v965l101 162l-101 162v555z" />
    <glyph glyph-name="uni23AD" unicode="&#x23ad;" 
d="M64 0v205h165l91 145v1084h192v-1170l-165 -264h-283z" />
    <glyph glyph-name="uni23AE" unicode="&#x23ae;" 
d="M320 1434h192v-1844h-192v1844z" />
    <glyph glyph-name="uni23B0" unicode="&#x23b0;" 
d="M64 -410v205h165l91 146v1228l165 265h283v-205h-165l-91 -146v-1228l-165 -265h-283z" />
    <glyph glyph-name="uni23B1" unicode="&#x23b1;" 
d="M64 1229v205h283l165 -265v-1228l91 -146h165v-205h-283l-165 265v1228l-91 146h-165z" />
    <glyph glyph-name="uni23B2" unicode="&#x23b2;" 
d="M64 1434h704v-205h-512v-60l128 -204v-205l128 -205v-205l128 -205v-204l128 -205v-146h-155l-165 265v204l-128 205v205l-128 205v205l-128 204v351z" />
    <glyph glyph-name="uni23B3" unicode="&#x23b3;" 
d="M192 145v205l128 205v205l128 205v204l165 265h155v-146l-128 -205v-204l-128 -205v-205l-128 -205v-205l-128 -204v-60h512v-205h-704v351z" />
    <glyph glyph-name="uni23BA" unicode="&#x23ba;" 
d="M64 1229v205h704v-205h-704z" />
    <glyph glyph-name="uni23BB" unicode="&#x23bb;" 
d="M64 819v205h704v-205h-704z" />
    <glyph glyph-name="uni23BC" unicode="&#x23bc;" 
d="M64 0v205h704v-205h-704z" />
    <glyph glyph-name="uni23BD" unicode="&#x23bd;" 
d="M64 -410v205h704v-205h-704z" />
    <glyph glyph-name="uni23DA" unicode="&#x23da;" 
d="M64 819v205h256v410h192v-410h256v-205h-704zM192 410v204h448v-204h-448zM320 0v205h192v-205h-192z" />
    <glyph glyph-name="uni2400" unicode="&#x2400;" 
d="M64 1434h283l101 -162v162h192v-820h-192v410h-91l-101 162v-572h-192v820zM192 410h192v-469l91 -146h10l91 146v469h192v-555l-165 -265h-246l-165 265v555z" />
    <glyph glyph-name="uni2401" unicode="&#x2401;" 
d="M64 1083v86l165 265h155v-146l-101 -162l101 -161v-86l-165 -265h-155v146l101 162zM320 614h192v-409h64v409h192v-1024h-192v410h-64v-410h-192v1024z" />
    <glyph glyph-name="uni2402" unicode="&#x2402;" 
d="M64 1083v86l165 265h155v-146l-101 -162l101 -161v-86l-165 -265h-155v146l101 162zM320 614h192v-264l32 -51l32 51v264h192v-350l-101 -162l101 -161v-351h-192v265l-32 51l-32 -51v-265h-192v351l101 161l-101 162v350z" />
    <glyph glyph-name="uni2403" unicode="&#x2403;" 
d="M64 1434h448v-205h-256v-205h128v-205h-128v-205h256v-264l32 -51l32 51v264h192v-350l-101 -162l101 -161v-351h-192v265l-32 51l-32 -51v-265h-192v351l101 161l-101 162v146h-256v1024z" />
    <glyph glyph-name="uni2404" unicode="&#x2404;" 
d="M64 1434h448v-205h-256v-205h128v-205h-128v-205h512v-204h-128v-820h-192v820h-384v1024z" />
    <glyph glyph-name="uni2405" unicode="&#x2405;" 
d="M64 1434h448v-205h-256v-205h128v-205h-128v-205h101l128 205h118l165 -264v-496l-101 -161l101 -162v-146h-155l-293 469v351h-256v1024zM512 469v-324l32 -51l32 51v324l-32 51z" />
    <glyph glyph-name="uni2406" unicode="&#x2406;" 
d="M64 1169l165 265h118l165 -265v-921l64 102v264h192v-350l-101 -162l101 -161v-351h-192v265l-64 102v-367h-192v1229h-64v-409h-192v759zM256 1083v-59h64v59l-32 52z" />
    <glyph glyph-name="uni2407" unicode="&#x2407;" 
d="M64 1434h283l165 -265v-86l-101 -161l101 -162v-86l-165 -264h-283v1024zM256 1186v-119l37 59zM256 776v-119l37 60zM448 410h192v-615h128v-205h-320v820z" />
    <glyph glyph-name="uni2408" unicode="&#x2408;" 
d="M64 1434h283l165 -265v-86l-101 -161l101 -162v-86l-165 -264h-283v1024zM256 1186v-119l37 59zM256 776v-119l37 60zM448 59v86l165 265h155v-146l-101 -162l101 -161v-86l-165 -265h-155v146l101 162z" />
    <glyph glyph-name="uni2409" unicode="&#x2409;" 
d="M64 1434h192v-410h64v410h192v-820h256v-204h-128v-820h-192v820h-128v409h-64v-409h-192v1024z" />
    <glyph glyph-name="uni240A" unicode="&#x240a;" 
d="M64 1434h192v-820h512v-204h-256v-205h128v-205h-128v-410h-192v820h-256v1024z" />
    <glyph glyph-name="uni240B" unicode="&#x240b;" 
d="M64 1434h192v-469l32 -52l32 52v469h192v-555l-128 -205v-60h384v-204h-128v-820h-192v820h-256v264l-128 205v555z" />
    <glyph glyph-name="uni240C" unicode="&#x240c;" 
d="M64 1434h448v-205h-256v-205h128v-205h-128v-409h-192v1024zM320 614h448v-204h-256v-205h128v-205h-128v-410h-192v1024z" />
    <glyph glyph-name="uni240D" unicode="&#x240d;" 
d="M64 1169l165 265h283v-205h-165l-91 -146v-323l91 -146h256l165 -264v-86l-101 -162l101 -161v-351h-192v265l-64 102v-367h-192v820h-91l-165 264v495zM512 367v-119l37 59z" />
    <glyph glyph-name="uni240E" unicode="&#x240e;" 
d="M64 1083v86l165 265h283v-205h-165l-64 -103l229 -366v-86l-165 -264h-283v204h165l64 103zM320 145l165 265h118l165 -265v-290l-165 -265h-118l-165 265v290zM512 59v-118l32 -52l32 52v118l-32 52z" />
    <glyph glyph-name="uni240F" unicode="&#x240f;" 
d="M64 1083v86l165 265h283v-205h-165l-64 -103l229 -366v-86l-165 -264h-283v204h165l64 103zM576 614h192v-1024h-192v1024z" />
    <glyph glyph-name="uni2410" unicode="&#x2410;" 
d="M64 1434h283l165 -265v-495l-165 -264h-283v1024zM320 1083l-64 103v-529l64 103v323zM448 410h192v-615h128v-205h-320v820z" />
    <glyph glyph-name="uni2411" unicode="&#x2411;" 
d="M64 1434h283l165 -265v-495l-165 -264h-283v1024zM320 1083l-64 103v-529l64 103v323zM576 614h192v-1024h-192v1024z" />
    <glyph glyph-name="uni2412" unicode="&#x2412;" 
d="M64 1434h283l165 -265v-495l-165 -264h-283v1024zM320 1083l-64 103v-529l64 103v323zM448 264v146h155l165 -265v-86l-128 -204v-60h128v-205h-320v351l101 161z" />
    <glyph glyph-name="uni2413" unicode="&#x2413;" 
d="M64 1434h283l165 -265v-290l-165 -265h-283v820zM320 1083l-64 103v-324l64 103v118zM448 469v145h155l165 -264v-86l-101 -162l101 -161v-86l-165 -265h-155v146l101 162l-101 161v86l101 162z" />
    <glyph glyph-name="uni2414" unicode="&#x2414;" 
d="M64 1434h283l165 -265v-495l-165 -264h-283v1024zM320 1083l-64 103v-529l64 103v323zM320 145l165 265h91v204h192v-1024h-192v205h-256v350zM512 59v-59h64v162z" />
    <glyph glyph-name="uni2415" unicode="&#x2415;" 
d="M64 1434h283l101 -162v162h192v-820h-192v410h-91l-101 162v-572h-192v820zM320 410h192v-162l101 162h155v-146l-101 -162l101 -161v-351h-192v265l-64 102v-367h-192v820z" />
    <glyph glyph-name="uni2416" unicode="&#x2416;" 
d="M64 1083v86l165 265h155v-146l-101 -162l101 -161v-86l-165 -265h-155v146l101 162zM320 614h192v-264l32 -51l32 51v264h192v-350l-128 -205v-469h-192v469l-128 205v350z" />
    <glyph glyph-name="uni2417" unicode="&#x2417;" 
d="M64 1434h448v-205h-256v-205h128v-205h-128v-205h347l165 -264v-86l-101 -162l101 -161v-86l-165 -265h-283v820h-256v1024zM512 367v-119l37 59zM512 -43v-119l37 60z" />
    <glyph glyph-name="uni2418" unicode="&#x2418;" 
d="M64 1169l165 265h283v-205h-165l-91 -146v-118l91 -146h165v-205h-283l-165 265v290zM192 410h283l101 -162v162h192v-820h-192v410h-91l-101 162v-572h-192v820z" />
    <glyph glyph-name="uni2419" unicode="&#x2419;" 
d="M64 1434h448v-205h-256v-205h128v-205h-128v-205h256v-204h-448v1024zM64 205h283l69 -111l69 111h283v-615h-192v367l-101 -162h-118l-101 162v-367h-192v615z" />
    <glyph glyph-name="uni241A" unicode="&#x241a;" 
d="M64 1083v86l165 265h155v-146l-101 -162l101 -161v-86l-165 -265h-155v146l101 162zM320 614h283l165 -264v-86l-101 -162l101 -161v-86l-165 -265h-283v1024zM512 367v-119l37 59zM512 -43v-119l37 60z" />
    <glyph glyph-name="uni241B" unicode="&#x241b;" 
d="M64 1434h320v-205h-128v-205h128v-205h-128v-205h128v-204h-320v1024zM320 145l165 265h283v-205h-165l-91 -146v-118l91 -146h165v-205h-283l-165 265v290z" />
    <glyph glyph-name="uni241C" unicode="&#x241c;" 
d="M64 1434h448v-205h-256v-205h128v-205h-128v-409h-192v1024zM320 264v86l165 264h283v-204h-165l-64 -103l229 -366v-86l-165 -265h-283v205h165l64 103z" />
    <glyph glyph-name="uni241D" unicode="&#x241d;" 
d="M64 1169l165 265h283v-205h-165l-91 -146v-323l64 -103v162h192v-409h-283l-165 264v495zM448 59v86l165 265h155v-146l-101 -162l101 -161v-86l-165 -265h-155v146l101 162z" />
    <glyph glyph-name="uni241E" unicode="&#x241e;" 
d="M64 1434h283l165 -265v-86l-101 -161l101 -162v-350h-192v264l-64 102v-366h-192v1024zM256 1186v-119l37 59zM448 59v86l165 265h155v-146l-101 -162l101 -161v-86l-165 -265h-155v146l101 162z" />
    <glyph glyph-name="uni241F" unicode="&#x241f;" 
d="M64 1434h192v-265l91 -145h10l91 145v265h192v-351l-165 -264h-246l-165 264v351zM320 264v86l165 264h283v-204h-165l-64 -103l229 -366v-86l-165 -265h-283v205h165l64 103z" />
    <glyph glyph-name="uni2420" unicode="&#x2420;" 
d="M64 1083v86l165 265h155v-146l-101 -162l101 -161v-86l-165 -265h-155v146l101 162zM320 614h283l165 -264v-86l-165 -264h-91v-410h-192v1024zM512 367v-119l37 59z" />
    <glyph glyph-name="uni2421" unicode="&#x2421;" 
d="M64 1434h283l165 -265v-290l-165 -265h-283v820zM320 1083l-64 103v-324l64 103v118zM320 205v205h448v-205h-128v-615h-192v615h-128z" />
    <glyph glyph-name="uni2423" unicode="&#x2423;" 
d="M64 410h192v-205h320v205h192v-410h-704v410z" />
    <glyph glyph-name="uni2424" unicode="&#x2424;" 
d="M64 1434h283l101 -162v162h192v-820h-192v410h-91l-101 162v-572h-192v820zM320 410h192v-615h256v-205h-448v820z" />
    <glyph glyph-name="uni2425" unicode="&#x2425;" 
d="M64 819v146l293 469h155v-146l-293 -469h-155zM64 205v145l549 879h155v-146l-549 -878h-155zM320 0v145l293 469h155v-145l-293 -469h-155z" />
    <glyph glyph-name="uni2426" unicode="&#x2426;" 
d="M64 1083v86l165 265h374l165 -265v-145h-155l-128 205h-138l-64 -103l229 -366v-350h-192v264zM320 0v205h192v-205h-192z" />
    <glyph glyph-name="SF100000" unicode="&#x2500;" 
d="M64 410v204h704v-204h-704z" />
    <glyph glyph-name="uni2501" unicode="&#x2501;" 
d="M64 819h704v-614h-704v614z" />
    <glyph glyph-name="SF110000" unicode="&#x2502;" 
d="M320 1434h192v-1844h-192v1844z" />
    <glyph glyph-name="uni2503" unicode="&#x2503;" 
d="M192 1434h448v-1844h-448v1844z" />
    <glyph glyph-name="uni2504" unicode="&#x2504;" 
d="M64 410v204h192v-204h-192zM320 410v204h192v-204h-192zM576 410v204h192v-204h-192z" />
    <glyph glyph-name="uni2505" unicode="&#x2505;" 
d="M64 819h192v-614h-192v614zM320 819h192v-614h-192v614zM576 819h192v-614h-192v614z" />
    <glyph glyph-name="uni2506" unicode="&#x2506;" 
d="M320 1434h192v-410h-192v410zM320 819h192v-614h-192v614zM320 0h192v-410h-192v410z" />
    <glyph glyph-name="uni2507" unicode="&#x2507;" 
d="M192 1434h448v-410h-448v410zM192 819h448v-614h-448v614zM192 0h448v-410h-448v410z" />
    <glyph glyph-name="uni250A" unicode="&#x250a;" 
d="M320 1229v205h192v-205h-192zM320 1024h192v-410h-192v410zM320 205v205h192v-205h-192zM320 0h192v-410h-192v410z" />
    <glyph glyph-name="uni250B" unicode="&#x250b;" 
d="M192 1229v205h448v-205h-448zM192 1024h448v-410h-448v410zM192 205v205h448v-205h-448zM192 0h448v-410h-448v410z" />
    <glyph glyph-name="SF010000" unicode="&#x250c;" 
d="M320 614h448v-204h-256v-820h-192v1024z" />
    <glyph glyph-name="uni250D" unicode="&#x250d;" 
d="M320 819h448v-614h-256v-615h-192v1229z" />
    <glyph glyph-name="uni250E" unicode="&#x250e;" 
d="M192 614h576v-204h-128v-820h-448v1024z" />
    <glyph glyph-name="uni250F" unicode="&#x250f;" 
d="M192 819h576v-614h-128v-615h-448v1229z" />
    <glyph glyph-name="SF030000" unicode="&#x2510;" 
d="M64 410v204h448v-1024h-192v820h-256z" />
    <glyph glyph-name="uni2511" unicode="&#x2511;" 
d="M64 819h448v-1229h-192v615h-256v614z" />
    <glyph glyph-name="uni2512" unicode="&#x2512;" 
d="M64 410v204h576v-1024h-448v820h-128z" />
    <glyph glyph-name="uni2513" unicode="&#x2513;" 
d="M64 819h576v-1229h-448v615h-128v614z" />
    <glyph glyph-name="SF020000" unicode="&#x2514;" 
d="M320 1434h192v-820h256v-204h-448v1024z" />
    <glyph glyph-name="uni2515" unicode="&#x2515;" 
d="M320 1434h192v-615h256v-614h-448v1229z" />
    <glyph glyph-name="uni2516" unicode="&#x2516;" 
d="M192 1434h448v-820h128v-204h-576v1024z" />
    <glyph glyph-name="uni2517" unicode="&#x2517;" 
d="M192 1434h448v-615h128v-614h-576v1229z" />
    <glyph glyph-name="SF040000" unicode="&#x2518;" 
d="M64 410v204h256v820h192v-1024h-448z" />
    <glyph glyph-name="uni2519" unicode="&#x2519;" 
d="M64 819h256v615h192v-1229h-448v614z" />
    <glyph glyph-name="uni251A" unicode="&#x251a;" 
d="M64 410v204h128v820h448v-1024h-576z" />
    <glyph glyph-name="uni251B" unicode="&#x251b;" 
d="M64 819h128v615h448v-1229h-576v614z" />
    <glyph glyph-name="SF080000" unicode="&#x251c;" 
d="M320 1434h192v-820h256v-204h-256v-820h-192v1844z" />
    <glyph glyph-name="uni251D" unicode="&#x251d;" 
d="M320 1434h192v-615h256v-614h-256v-615h-192v1844z" />
    <glyph glyph-name="uni251E" unicode="&#x251e;" 
d="M192 1434h448v-820h128v-204h-256v-820h-192v820h-128v1024z" />
    <glyph glyph-name="uni251F" unicode="&#x251f;" 
d="M192 614h128v820h192v-820h256v-204h-128v-820h-448v1024z" />
    <glyph glyph-name="uni2520" unicode="&#x2520;" 
d="M192 1434h448v-820h128v-204h-128v-820h-448v1844z" />
    <glyph glyph-name="uni2521" unicode="&#x2521;" 
d="M192 1434h448v-615h128v-614h-256v-615h-192v615h-128v1229z" />
    <glyph glyph-name="uni2522" unicode="&#x2522;" 
d="M192 819h128v615h192v-615h256v-614h-128v-615h-448v1229z" />
    <glyph glyph-name="uni2523" unicode="&#x2523;" 
d="M192 1434h448v-615h128v-614h-128v-615h-448v1844z" />
    <glyph glyph-name="SF090000" unicode="&#x2524;" 
d="M64 410v204h256v820h192v-1844h-192v820h-256z" />
    <glyph glyph-name="uni2525" unicode="&#x2525;" 
d="M64 819h256v615h192v-1844h-192v615h-256v614z" />
    <glyph glyph-name="uni2526" unicode="&#x2526;" 
d="M64 410v204h128v820h448v-1024h-128v-820h-192v820h-256z" />
    <glyph glyph-name="uni2527" unicode="&#x2527;" 
d="M64 410v204h256v820h192v-820h128v-1024h-448v820h-128z" />
    <glyph glyph-name="uni2528" unicode="&#x2528;" 
d="M64 410v204h128v820h448v-1844h-448v820h-128z" />
    <glyph glyph-name="uni2529" unicode="&#x2529;" 
d="M64 819h128v615h448v-1229h-128v-615h-192v615h-256v614z" />
    <glyph glyph-name="uni252A" unicode="&#x252a;" 
d="M64 819h256v615h192v-615h128v-1229h-448v615h-128v614z" />
    <glyph glyph-name="uni252B" unicode="&#x252b;" 
d="M64 819h128v615h448v-1844h-448v615h-128v614z" />
    <glyph glyph-name="SF060000" unicode="&#x252c;" 
d="M64 410v204h704v-204h-256v-820h-192v820h-256z" />
    <glyph glyph-name="uni252D" unicode="&#x252d;" 
d="M64 819h448v-205h256v-204h-256v-820h-192v615h-256v614z" />
    <glyph glyph-name="uni252E" unicode="&#x252e;" 
d="M64 410v204h256v205h448v-614h-256v-615h-192v820h-256z" />
    <glyph glyph-name="uni252F" unicode="&#x252f;" 
d="M64 819h704v-614h-256v-615h-192v615h-256v614z" />
    <glyph glyph-name="uni2530" unicode="&#x2530;" 
d="M64 410v204h704v-204h-128v-820h-448v820h-128z" />
    <glyph glyph-name="uni2531" unicode="&#x2531;" 
d="M64 819h576v-205h128v-204h-128v-820h-448v615h-128v614z" />
    <glyph glyph-name="uni2532" unicode="&#x2532;" 
d="M64 410v204h128v205h576v-614h-128v-615h-448v820h-128z" />
    <glyph glyph-name="uni2533" unicode="&#x2533;" 
d="M64 819h704v-614h-128v-615h-448v615h-128v614z" />
    <glyph glyph-name="SF070000" unicode="&#x2534;" 
d="M64 410v204h256v820h192v-820h256v-204h-704z" />
    </font>
</defs>
</svg>
