<?xml version="1.0" standalone="no"?>
<!DOCTYPE svg PUBLIC "-//W3C//DTD SVG 1.1//EN" "http://www.w3.org/Graphics/SVG/1.1/DTD/svg11.dtd" >
<svg xmlns="http://www.w3.org/2000/svg" xmlns:xlink="http://www.w3.org/1999/xlink" version="1.1">
<metadata>
Created by FontForge 20201107 at Mon Apr  6 19:28:47 2026
 By www-data
Copyright (c) 2019 by typedepot. All rights reserved.
</metadata>
<defs>
<font id="CorsaGrotesk-Regular" horiz-adv-x="804" >
  <font-face 
    font-family="Corsa Grotesk"
    font-weight="400"
    font-stretch="normal"
    units-per-em="2048"
    panose-1="2 11 8 5 3 2 2 2 2 4"
    ascent="1640"
    descent="-408"
    x-height="1065"
    cap-height="1434"
    bbox="-1026 -465 2820 2005"
    underline-thickness="118"
    underline-position="-222"
    unicode-range="U+000D-F8FF"
  />
<missing-glyph horiz-adv-x="1409" 
d="M217 -248v1747h973v-1747h-973zM705 739l346 658h-693zM317 0l328 627l-328 624v-1251zM1092 0v1251l-328 -624zM358 -145h693l-346 657z" />
    <glyph glyph-name=".notdef" horiz-adv-x="1409" 
d="M217 -248v1747h973v-1747h-973zM705 739l346 658h-693zM317 0l328 627l-328 624v-1251zM1092 0v1251l-328 -624zM358 -145h693l-346 657z" />
    <glyph glyph-name=".null" horiz-adv-x="1337" 
 />
    <glyph glyph-name="nonmarkingreturn" horiz-adv-x="682" 
 />
    <glyph glyph-name="CR" unicode="&#xd;" horiz-adv-x="712" 
 />
    <glyph glyph-name="space" unicode=" " horiz-adv-x="530" 
 />
    <glyph glyph-name="exclam" unicode="!" horiz-adv-x="518" 
d="M190 379l-26 1055h192l-26 -1055h-140zM258 -25q-47 0 -77.5 30.5t-30.5 76.5q0 45 30.5 75.5t77.5 30.5q46 0 76.5 -31t30.5 -75q0 -46 -30.5 -76.5t-76.5 -30.5z" />
    <glyph glyph-name="quotedbl" unicode="&#x22;" horiz-adv-x="745" 
d="M141 954l-2 480h164l-43 -480h-119zM471 954l-4 480h164l-43 -480h-117z" />
    <glyph glyph-name="numbersign" unicode="#" horiz-adv-x="1531" 
d="M1473 965h-293l-93 -512h277v-123h-297l-59 -330h-134l60 330h-465l-59 -330h-136l60 330h-254v123h274l92 512h-260v122h283l61 347h136l-62 -347h465l61 347h134l-62 -347h271v-122zM954 453l93 512h-465l-93 -512h465z" />
    <glyph glyph-name="dollar" unicode="$" horiz-adv-x="1165" 
d="M1083 379q0 -184 -123.5 -282.5t-324.5 -108.5v-178h-98v178q-293 17 -490 239l111 111q33 -39 71.5 -73t92.5 -69.5t123.5 -56t144.5 -20.5q143 0 228 65t85 185q0 53 -22 94.5t-47.5 66.5t-87 50.5t-96.5 36t-120 32.5q-15 4 -22 6q-75 21 -132 44t-111.5 57.5
t-89.5 76t-56 101t-21 131.5q0 96 34.5 169.5t96 118.5t139 69t169.5 28v172h98v-174q254 -21 424 -174l-94 -129q-66 68 -165 119t-220 51q-133 0 -216 -61t-83 -183q0 -53 19 -95t47 -69t77.5 -51t91 -37t107.5 -31q49 -14 75.5 -21.5t72.5 -23t72 -27.5t63.5 -32.5
t59.5 -40t47 -48t38.5 -59.5t22.5 -71t9 -86z" />
    <glyph glyph-name="percent" unicode="%" horiz-adv-x="1601" 
d="M274 -61l924 1556h121l-924 -1556h-121zM436 844q-145 0 -234 84t-89 219q0 137 90.5 223t236.5 86q144 0 233 -85t89 -222q0 -136 -89 -220.5t-237 -84.5zM438 940q90 0 145.5 55.5t55.5 151.5q0 97 -54.5 153t-146.5 56t-147 -57t-55 -152t56 -151t146 -56zM1167 -18
q-145 0 -234 84t-89 219q0 137 90.5 223t234.5 86q146 0 235 -85t89 -222q0 -136 -89.5 -220.5t-236.5 -84.5zM1169 78q90 0 145.5 55.5t55.5 151.5q0 98 -54.5 153.5t-146.5 55.5t-147 -57t-55 -152t55.5 -151t146.5 -56z" />
    <glyph glyph-name="ampersand" unicode="&#x26;" horiz-adv-x="1325" 
d="M1374 0h-178l-186 162q-196 -180 -459 -180q-130 0 -234 40.5t-169.5 127.5t-65.5 208q0 128 73 224.5t201 181.5q-145 184 -145 354q0 153 101 243.5t257 90.5q147 0 242.5 -82t95.5 -217q0 -45 -12 -86.5t-28.5 -73t-48 -64.5t-56 -54t-68 -49.5t-68 -42.5t-71.5 -40
l-10 -6q28 -28 106 -98l342 -301q93 114 181 293l122 -62q-88 -187 -202 -321zM348 1114q0 -133 117 -285q3 1 8 4.5t8 4.5q55 32 81 47.5t68 43.5t62 48.5t43 49t32 59t9 65.5q0 83 -57.5 132.5t-147.5 49.5q-92 0 -157.5 -56.5t-65.5 -162.5zM565 109q193 0 344 141
l-364 319q-41 35 -111 105q-93 -58 -145.5 -126t-52.5 -163q0 -128 93.5 -202t235.5 -74z" />
    <glyph glyph-name="quotesingle" unicode="'" horiz-adv-x="415" 
d="M139 975l-2 459h160l-33 -459h-125z" />
    <glyph glyph-name="parenleft" unicode="(" horiz-adv-x="653" 
d="M459 -348q-47 47 -92 107t-95 149.5t-87 187t-61 224.5t-24 258q0 130 24 256t61 223t87 186t95 149t92 107h178q-371 -395 -371 -921q0 -531 371 -926h-178z" />
    <glyph glyph-name="parenright" unicode=")" horiz-adv-x="653" 
d="M18 -348q371 401 371 926q0 526 -371 921h177q60 -60 117.5 -143t115 -198.5t92.5 -267t35 -312.5q0 -131 -24 -258t-61 -224.5t-87 -187t-95.5 -149.5t-92.5 -107h-177z" />
    <glyph glyph-name="asterisk" unicode="*" horiz-adv-x="847" 
d="M375 803l20 262l-217 -152l-59 101l237 114l-235 113l57 98l217 -149l-20 262h110l-20 -262l217 149l57 -98l-237 -113l239 -114l-59 -101l-217 152l20 -262h-110z" />
    <glyph glyph-name="plus" unicode="+" horiz-adv-x="1392" 
d="M635 246v387h-381v106h381v387h121v-387h381v-106h-381v-387h-121z" />
    <glyph glyph-name="comma" unicode="," horiz-adv-x="485" 
d="M229 195q61 0 102.5 -50.5t41.5 -134.5q0 -107 -63 -196t-148 -138l-62 45q84 47 134.5 134t33.5 165q-17 -30 -59 -30q-44 0 -69 26.5t-25 69.5q0 51 31.5 80t82.5 29z" />
    <glyph glyph-name="hyphen" unicode="-" horiz-adv-x="980" 
d="M139 485v127h703v-127h-703z" />
    <glyph glyph-name="period" unicode="." horiz-adv-x="450" 
d="M225 -18q-46 0 -78 31t-32 75q0 46 32 77.5t78 31.5t78.5 -31.5t32.5 -77.5q0 -44 -32.5 -75t-78.5 -31z" />
    <glyph glyph-name="slash" unicode="/" horiz-adv-x="1019" 
d="M27 -348l821 1990h147l-823 -1990h-145z" />
    <glyph glyph-name="zero" unicode="0" horiz-adv-x="1349" 
d="M674 -18q-181 0 -308.5 92.5t-190 257t-62.5 387.5q0 221 62.5 384.5t190.5 256t310 92.5q181 0 308.5 -92.5t190 -256t62.5 -384.5q0 -222 -63 -386.5t-191 -257.5t-309 -93zM676 123q131 0 217.5 76t125 206.5t38.5 313.5q0 181 -39 311t-125.5 205.5t-216.5 75.5
q-194 0 -288.5 -157.5t-94.5 -434.5q0 -183 39 -313.5t126 -206.5t218 -76z" />
    <glyph glyph-name="one" unicode="1" horiz-adv-x="1085" 
d="M70 0v129h405v1157l-366 -43l-7 141l512 60h33v-1315h393v-129h-970z" />
    <glyph glyph-name="two" unicode="2" horiz-adv-x="1155" 
d="M389 131l670 10v-141h-983v33l502 502q62 62 97 99t76.5 89t62.5 92t35.5 91t14.5 104q0 148 -85.5 226.5t-229.5 78.5q-174 0 -377 -189l-98 121q216 203 483 203q227 0 360.5 -112t133.5 -324q0 -68 -18.5 -131.5t-45 -114t-79.5 -114.5t-97.5 -109.5t-122.5 -120.5z
" />
    <glyph glyph-name="three" unicode="3" horiz-adv-x="1175" 
d="M614 844q222 -11 350 -119t128 -297q0 -109 -42.5 -194.5t-117.5 -139t-173.5 -81t-213.5 -27.5q-300 0 -488 188l93 121q174 -174 391 -174q159 0 264.5 80.5t105.5 232.5t-115 223.5t-313 71.5h-104v35l403 530h-647v140h905v-29z" />
    <glyph glyph-name="four" unicode="4" horiz-adv-x="1253" 
d="M965 449h235v-130h-235v-319h-168v319h-744v29l527 1086h178l-482 -985h521l2 450h166v-450z" />
    <glyph glyph-name="five" unicode="5" horiz-adv-x="1216" 
d="M610 879q243 0 379.5 -113t136.5 -317q0 -216 -150 -340.5t-403 -124.5q-293 0 -477 166l80 124q187 -159 383 -159q173 0 280 85t107 242q0 153 -105.5 229.5t-299.5 76.5q-156 0 -346 -35l-19 10v711h877v-138h-727v-442q146 25 284 25z" />
    <glyph glyph-name="six" unicode="6" horiz-adv-x="1312" 
d="M737 903q212 0 346 -116t134 -330q0 -221 -146.5 -346t-388.5 -125q-177 0 -294.5 70t-186.5 210q-92 179 -92 428q0 161 42.5 301t118.5 238q161 219 469 219q131 0 254.5 -39t210.5 -102l-69 -125q-174 131 -383 131q-251 0 -371 -191q-97 -153 -100 -370q0 -66 6 -121
q54 124 170 196t280 72zM682 113q159 0 255.5 92.5t96.5 245.5q0 150 -97 239.5t-251 89.5q-167 0 -267 -101t-100 -239q0 -58 19 -110q34 -100 126 -158.5t218 -58.5z" />
    <glyph glyph-name="seven" unicode="7" horiz-adv-x="1103" 
d="M49 1434h1004v-35l-699 -1399h-188l653 1294h-770v140z" />
    <glyph glyph-name="eight" unicode="8" horiz-adv-x="1286" 
d="M877 760q145 -37 229 -132t84 -245q0 -197 -148.5 -299t-394.5 -102q-161 0 -283 42.5t-195 135.5t-73 227q0 146 83.5 240.5t230.5 132.5q-117 35 -184.5 121.5t-67.5 203.5q0 174 132 270.5t353 96.5q222 0 354.5 -96.5t132.5 -270.5q0 -117 -68 -203.5t-185 -121.5z
M332 1071q0 -110 80 -180t231 -70t232 70.5t81 179.5q0 121 -84 186.5t-229 65.5q-144 0 -227.5 -65.5t-83.5 -186.5zM643 111q172 0 268.5 75.5t96.5 210.5q0 137 -96.5 215t-268.5 78t-268 -78t-96 -215q0 -135 96 -210.5t268 -75.5z" />
    <glyph glyph-name="nine" unicode="9" horiz-adv-x="1308" 
d="M629 1452q145 0 256 -53.5t179 -150t102 -224.5t34 -285q0 -165 -39.5 -302t-115.5 -238t-194 -157t-269 -56q-134 0 -259.5 38.5t-213.5 102.5l71 125q181 -133 391 -133q113 0 200.5 44t141.5 121.5t82.5 178t30.5 219.5q0 78 -4 113q-52 -124 -167.5 -193.5
t-281.5 -69.5q-210 0 -342.5 117t-132.5 330q0 222 145.5 347.5t385.5 125.5zM625 657q111 0 195.5 49t126.5 125.5t42 165.5q0 147 -102 236.5t-258 89.5q-158 0 -254 -91.5t-96 -244.5q0 -151 96.5 -240.5t249.5 -89.5z" />
    <glyph glyph-name="colon" unicode=":" horiz-adv-x="495" 
d="M248 735q-52 0 -82.5 27t-30.5 78q0 47 31 76.5t82 29.5t81.5 -29.5t30.5 -76.5q0 -51 -30 -78t-82 -27zM248 -18q-52 0 -82.5 27.5t-30.5 78.5q0 47 31 77t82 30t81.5 -29.5t30.5 -77.5q0 -51 -30 -78.5t-82 -27.5z" />
    <glyph glyph-name="semicolon" unicode=";" horiz-adv-x="555" 
d="M268 735q-51 0 -80.5 27t-29.5 78q0 47 30.5 76.5t79.5 29.5q51 0 82 -29.5t31 -76.5q0 -51 -30.5 -78t-82.5 -27zM270 195q61 0 102.5 -50.5t41.5 -134.5q0 -107 -63 -196t-148 -138l-62 45q83 47 133 133t35 164q-21 -28 -59 -28q-44 0 -69 26.5t-25 69.5q0 51 31.5 80
t82.5 29z" />
    <glyph glyph-name="less" unicode="&#x3c;" horiz-adv-x="1406" 
d="M1167 1137v-148l-819 -301l819 -301v-147l-995 378v140z" />
    <glyph glyph-name="equal" unicode="=" horiz-adv-x="1396" 
d="M322 799v121h751v-121h-751zM322 449v118h751v-118h-751z" />
    <glyph glyph-name="greater" unicode="&#x3e;" horiz-adv-x="1406" 
d="M240 1137l993 -379v-140l-993 -378v147l819 301l-819 301v148z" />
    <glyph glyph-name="question" unicode="?" horiz-adv-x="927" 
d="M324 379q-17 63 -17 137q0 69 20.5 124.5t53.5 93.5t72.5 70.5t79.5 62t73 61t53.5 75.5t20.5 97q0 73 -36.5 125t-91.5 75t-120 23q-87 0 -170.5 -49t-144.5 -137l-111 98q163 217 436 217q83 0 154 -19.5t129 -59.5t91.5 -107.5t33.5 -155.5q0 -69 -21 -125t-55 -93.5
t-75 -70t-82 -62.5t-76 -62.5t-57.5 -79t-24.5 -103.5q-3 -63 12 -135h-147zM406 -25q-46 0 -76.5 30.5t-30.5 76.5q0 44 30.5 75t76.5 31t77 -31t31 -75q0 -46 -31 -76.5t-77 -30.5z" />
    <glyph glyph-name="at" unicode="@" horiz-adv-x="1929" 
d="M975 1417q259 0 454.5 -99.5t299.5 -278t104 -410.5q0 -77 -11.5 -143t-38 -123.5t-67 -98t-100 -63.5t-135.5 -23q-99 0 -169.5 43.5t-86.5 128.5q-78 -172 -310 -172q-178 0 -278 108t-100 292q0 83 21.5 152.5t65 125.5t117.5 87.5t172 31.5q102 0 176.5 -45.5
t112.5 -124.5l10 158h105l-2 -502q0 -191 170 -191q56 0 98.5 22t67.5 56t40.5 81.5t21 92.5t5.5 94q0 332 -195.5 521.5t-539.5 189.5q-361 0 -565.5 -199t-204.5 -534q0 -216 90 -381.5t265 -259.5t413 -94q241 0 467 106l29 -90q-230 -106 -490 -106q-204 0 -371.5 61
t-280 170.5t-174 262t-61.5 333.5q0 244 106.5 430t305.5 288.5t463 102.5zM938 281q70 0 121.5 24t80.5 65.5t42.5 91t13.5 107.5q0 140 -69 221.5t-187 81.5q-73 0 -127 -22.5t-85 -63.5t-45.5 -91t-14.5 -111q0 -143 70.5 -223t199.5 -80z" />
    <glyph glyph-name="A" unicode="A" horiz-adv-x="1515" 
d="M1274 0l-150 369h-743l-148 -369h-180l592 1442h227l588 -1442h-186zM438 510h631l-315 780h-2z" />
    <glyph glyph-name="B" unicode="B" horiz-adv-x="1411" 
d="M1008 735q54 -8 105 -33.5t94.5 -68t70.5 -107.5t27 -143q0 -178 -126.5 -280.5t-322.5 -102.5h-666v1434h615q205 0 326.5 -96.5t121.5 -270.5q0 -72 -22 -131t-60 -98t-78 -63.5t-85 -39.5zM371 1298v-505h432q123 0 193.5 69.5t70.5 179.5q0 118 -80.5 187t-198.5 69
h-417zM825 135q127 0 209 72t82 192q0 109 -73 187t-216 78h-456v-529h454z" />
    <glyph glyph-name="C" unicode="C" horiz-adv-x="1519" 
d="M889 -14q-228 0 -404 89.5t-274 256t-98 385.5q0 329 211.5 531t556.5 202q185 0 321.5 -55.5t247.5 -169.5l-125 -113q-175 186 -438 186q-266 0 -428 -157.5t-162 -421.5q0 -265 163 -424.5t423 -159.5q262 0 458 205l119 -115q-236 -239 -571 -239z" />
    <glyph glyph-name="D" unicode="D" horiz-adv-x="1536" 
d="M190 0v1434h558q203 0 358 -94.5t236 -257t81 -365.5q1 -203 -79 -365t-235.5 -257t-360.5 -95h-558zM369 141h336q171 0 292.5 76t179.5 205t58 299q0 256 -140 413.5t-388 157.5h-338v-1151z" />
    <glyph glyph-name="E" unicode="E" horiz-adv-x="1304" 
d="M190 0v1434h1006v-142h-827v-522h712v-139h-712v-490h854v-141h-1033z" />
    <glyph glyph-name="F" unicode="F" horiz-adv-x="1234" 
d="M190 0v1434h992v-142h-813v-538h698v-142h-698v-612h-179z" />
    <glyph glyph-name="G" unicode="G" horiz-adv-x="1619" 
d="M885 725h608v-504q-117 -119 -283.5 -178t-330.5 -59q-161 0 -300.5 49.5t-243 141t-163 231.5t-59.5 311q0 334 215 533.5t573 199.5q164 0 308 -50.5t255 -146.5l-104 -125q-71 74 -192.5 123t-264.5 49q-281 0 -440.5 -158t-159.5 -419q0 -265 161.5 -427.5
t412.5 -162.5q127 0 247.5 43t196.5 111v317h-436v121z" />
    <glyph glyph-name="H" unicode="H" horiz-adv-x="1550" 
d="M190 0v1434h181v-650h811v650h180v-1434h-180v635h-811v-635h-181z" />
    <glyph glyph-name="I" unicode="I" horiz-adv-x="559" 
d="M190 0v1434h181v-1434h-181z" />
    <glyph glyph-name="J" unicode="J" horiz-adv-x="802" 
d="M250 -16q-114 0 -193 22v154q93 -29 187 -29q92 0 149.5 54t57.5 169v1080h178v-1076q0 -189 -104 -281.5t-275 -92.5z" />
    <glyph glyph-name="K" unicode="K" horiz-adv-x="1331" 
d="M750 723l553 -723h-207l-484 635h-250v-635h-172v1434h172v-646h246l490 646h192z" />
    <glyph glyph-name="L" unicode="L" horiz-adv-x="1153" 
d="M190 0v1434h179v-1291h755v-143h-934z" />
    <glyph glyph-name="M" unicode="M" horiz-adv-x="1902" 
d="M190 0v1434h183l583 -818l576 818h180v-1434h-182v813l16 361h-2l-575 -812h-41l-576 812h-2l15 -361v-813h-175z" />
    <glyph glyph-name="N" unicode="N" horiz-adv-x="1550" 
d="M1188 1434h174v-1434h-154l-860 1182v-4q14 -243 14 -408v-770h-172v1434h154l856 -1168q-12 174 -12 441v727z" />
    <glyph glyph-name="O" unicode="O" horiz-adv-x="1751" 
d="M874 -16q-224 0 -397 91.5t-268.5 257.5t-95.5 382t95.5 383.5t269 259.5t396.5 92q342 0 552 -203t210 -532q0 -327 -210 -529t-552 -202zM874 137q257 0 417.5 156t160.5 420q0 265 -160.5 424t-417.5 159q-253 0 -414 -158.5t-161 -424.5q0 -263 161 -419.5
t414 -156.5z" />
    <glyph glyph-name="P" unicode="P" horiz-adv-x="1400" 
d="M190 0v1434h615q122 0 222.5 -40t163 -106.5t96.5 -150t34 -174.5q0 -90 -34 -173t-96.5 -149.5t-162 -106.5t-221.5 -40h-438v-494h-179zM369 633h405q88 0 158 27t113 73t65.5 105t22.5 125q0 141 -92.5 235t-266.5 94h-405v-659z" />
    <glyph glyph-name="Q" unicode="Q" horiz-adv-x="1726" 
d="M1638 715q0 -187 -70.5 -336.5t-199.5 -247.5l174 -266l-110 -72l-179 270q-164 -79 -376 -79q-344 0 -554 200.5t-210 530.5q0 331 210.5 533t553.5 202q344 0 552.5 -201.5t208.5 -533.5zM877 137q158 0 286 64l-248 379l111 73l248 -379q84 76 130 188.5t46 250.5
q0 265 -156.5 424t-416.5 159q-258 0 -416 -159t-158 -424q0 -262 158 -419t416 -157z" />
    <glyph glyph-name="R" unicode="R" horiz-adv-x="1423" 
d="M1321 963q0 -144 -88 -267t-240 -174l310 -522h-197l-283 494h-16h-438v-494h-179v1434h615q118 0 217.5 -40t163.5 -106.5t99.5 -150.5t35.5 -174zM369 1292v-659h405q164 0 261.5 96.5t97.5 233.5q0 139 -96 234t-263 95h-405z" />
    <glyph glyph-name="S" unicode="S" horiz-adv-x="1261" 
d="M641 -14q-342 0 -569 235l106 119q201 -215 461 -215q150 0 237 64t87 184q0 39 -12 71.5t-30 56t-52 45t-62 35t-78.5 28.5t-84 23.5t-93.5 22.5q-74 18 -134 41t-116 58t-93.5 78.5t-60 104t-22.5 132.5q0 80 26 144.5t72 108t109.5 73t136.5 42.5t156 13
q143 0 271.5 -45t229.5 -123l-86 -123q-197 156 -411 156q-137 0 -225.5 -59t-88.5 -179q0 -38 10.5 -70t26 -55.5t44 -45t54.5 -35.5t67.5 -29t73.5 -24.5t81 -22.5q64 -18 104.5 -30.5t97 -34t92 -42.5t75 -52.5t62 -67t37.5 -84t15 -105.5q0 -82 -26 -148t-72.5 -111
t-111.5 -75.5t-141 -44.5t-163 -14z" />
    <glyph glyph-name="T" unicode="T" horiz-adv-x="1236" 
d="M528 0v1292h-493v142h1167v-142h-493v-1292h-181z" />
    <glyph glyph-name="U" unicode="U" horiz-adv-x="1480" 
d="M741 -16q-258 0 -413.5 152t-155.5 417v881h180v-871q0 -208 107 -322t282 -114t281 114.5t106 321.5v871h181v-881q0 -182 -75 -312t-202 -193.5t-291 -63.5z" />
    <glyph glyph-name="V" unicode="V" horiz-adv-x="1413" 
d="M1178 1434h178l-545 -1434h-209l-545 1434h189l467 -1250z" />
    <glyph glyph-name="W" unicode="W" horiz-adv-x="2023" 
d="M449 0l-410 1434h186l353 -1250h8l327 1250h209l332 -1250h8l357 1250h163l-407 -1434h-246l-315 1188h-8l-314 -1188h-243z" />
    <glyph glyph-name="X" unicode="X" horiz-adv-x="1323" 
d="M1311 0h-213l-434 594l-433 -594h-204l526 700l-533 734h209l433 -598l434 598h196l-518 -703z" />
    <glyph glyph-name="Y" unicode="Y" horiz-adv-x="1320" 
d="M1288 1434l-536 -881l-2 -553h-181l2 547l-538 887h190l441 -736l442 736h182z" />
    <glyph glyph-name="Z" unicode="Z" horiz-adv-x="1243" 
d="M1165 1434v-119l-884 -1180l434 6h450v-141h-1102v121l885 1177l-434 -6h-420v142h1071z" />
    <glyph glyph-name="bracketleft" unicode="[" horiz-adv-x="618" 
d="M178 -348v1847h375v-119h-213v-1609h213v-119h-375z" />
    <glyph glyph-name="backslash" unicode="\" horiz-adv-x="1040" 
d="M862 -348l-823 1990h141l821 -1990h-139z" />
    <glyph glyph-name="bracketright" unicode="]" horiz-adv-x="616" 
d="M63 -348v119h213v1609h-213v119h375v-1847h-375z" />
    <glyph glyph-name="asciicircum" unicode="^" horiz-adv-x="1376" 
d="M1130 756h-135l-307 602l-305 -602h-137l366 678h154z" />
    <glyph glyph-name="underscore" unicode="_" horiz-adv-x="917" 
d="M-14 -281v121h946v-121h-946z" />
    <glyph glyph-name="grave" unicode="`" horiz-adv-x="667" 
d="M381 1227l-152 325h158l121 -325h-127z" />
    <glyph glyph-name="a" unicode="a" horiz-adv-x="1343" 
d="M1051 1065h155v-1065h-153l-15 229q-60 -125 -175.5 -185t-258.5 -60q-162 0 -282.5 71.5t-182 194t-61.5 278.5q0 242 144.5 397.5t389.5 155.5q148 0 259.5 -59.5t168.5 -171.5zM649 125q164 0 277.5 112.5t113.5 292.5t-112 295t-279 115q-177 0 -286 -110.5
t-109 -299.5q0 -186 109 -295.5t286 -109.5z" />
    <glyph glyph-name="b" unicode="b" horiz-adv-x="1355" 
d="M756 1079q158 0 278 -73t182 -196.5t62 -277.5q0 -238 -146 -392t-384 -154q-139 0 -254 58t-175 179l-14 -223h-153v1581h170v-733q59 111 174.5 171t259.5 60zM713 123q170 0 280.5 112t110.5 297q0 186 -110 298t-283 112q-172 0 -283 -115t-111 -295
q0 -182 112 -295.5t284 -113.5z" />
    <glyph glyph-name="c" unicode="c" horiz-adv-x="1157" 
d="M659 -14q-259 0 -420 147.5t-161 398.5q0 248 158.5 397.5t420.5 149.5q267 0 445 -172l-96 -114q-145 149 -342 149q-184 0 -297 -110t-113 -297q0 -189 114.5 -300.5t297.5 -111.5q203 0 342 151l100 -114q-100 -95 -208 -134.5t-241 -39.5z" />
    <glyph glyph-name="d" unicode="d" horiz-adv-x="1357" 
d="M1036 1581h170v-1581h-153l-15 225q-60 -122 -175.5 -180.5t-258.5 -58.5q-165 0 -286 73t-180.5 195.5t-59.5 277.5q0 239 142.5 393t391.5 154q142 0 253.5 -56t170.5 -161v719zM649 125q166 0 278.5 113.5t112.5 293.5q0 177 -111 292.5t-280 115.5q-179 0 -287 -111
t-108 -297t108 -296.5t287 -110.5z" />
    <glyph glyph-name="e" unicode="e" horiz-adv-x="1214" 
d="M1135 596q0 -56 -9 -117h-872q10 -182 124.5 -274t291.5 -92q207 0 366 151l80 -114q-190 -164 -446 -164q-283 0 -437.5 148t-154.5 398q0 159 64 282t191 194t300 71q231 0 366.5 -129t135.5 -354zM633 956q-164 0 -265.5 -94.5t-111.5 -265.5h702q3 15 3 31
q0 151 -88 240t-240 89z" />
    <glyph glyph-name="f" unicode="f" horiz-adv-x="745" 
d="M227 0v936h-202v129h202v207q0 171 80.5 251.5t247.5 80.5q81 0 186 -23l-10 -135q-79 27 -141 27q-103 0 -148 -52t-45 -166v-190h324v-129h-324v-936h-170z" />
    <glyph glyph-name="g" unicode="g" horiz-adv-x="1341" 
d="M1061 1065h143v-903q0 -114 -32 -204.5t-87 -150t-133 -99t-165.5 -56.5t-188.5 -17q-118 0 -248 37t-223 105l59 123q82 -62 193 -101t217 -39q90 0 166.5 20t138.5 62t97.5 113.5t35.5 167.5v141q-52 -113 -168.5 -172t-259.5 -59q-89 0 -167 19t-144.5 60t-114.5 101
t-75 147t-27 193q0 131 40.5 233t113 165.5t167 95.5t207.5 32q152 0 269.5 -57t171.5 -156zM647 166q183 0 287 105t104 284q0 177 -104.5 284t-286.5 107q-187 0 -292 -106.5t-105 -284.5t104.5 -283.5t292.5 -105.5z" />
    <glyph glyph-name="h" unicode="h" horiz-adv-x="1230" 
d="M694 1079q197 0 300.5 -106t103.5 -297v-676h-168v639q0 143 -70.5 222t-210.5 79q-78 0 -138 -25t-95 -63.5t-57 -91t-29.5 -99.5t-7.5 -98v-563h-170v1581h170v-682q55 83 151 131.5t221 48.5z" />
    <glyph glyph-name="i" unicode="i" horiz-adv-x="473" 
d="M238 1278q-54 0 -89.5 34.5t-35.5 86.5t35.5 86.5t89.5 34.5q53 0 87.5 -34.5t34.5 -86.5t-34.5 -86.5t-87.5 -34.5zM152 0v1065h170v-1065h-170z" />
    <glyph glyph-name="j" unicode="j" horiz-adv-x="575" 
d="M340 1278q-54 0 -89.5 34.5t-35.5 86.5t35.5 86.5t89.5 34.5q53 0 88 -34.5t35 -86.5t-35 -86.5t-88 -34.5zM156 -365q-101 0 -176 37l26 131q75 -32 119 -32q64 0 97.5 33t33.5 114v1147h168v-1153q0 -75 -22 -130.5t-60.5 -86.5t-84.5 -45.5t-101 -14.5z" />
    <glyph glyph-name="k" unicode="k" horiz-adv-x="1107" 
d="M1079 0h-196l-369 471h-192v-471h-170v1581h170v-975l188 -2l367 461h188l-426 -522z" />
    <glyph glyph-name="l" unicode="l" horiz-adv-x="473" 
d="M152 0v1581h170v-1581h-170z" />
    <glyph glyph-name="m" unicode="m" horiz-adv-x="1832" 
d="M1323 1079q175 0 276 -101t101 -310v-668h-168v659q0 140 -63.5 210.5t-182.5 70.5q-135 0 -204.5 -91.5t-69.5 -238.5v-610h-168v680q0 124 -68.5 192t-177.5 68q-131 0 -203.5 -89.5t-72.5 -240.5v-610h-170v1065h147l6 -170q47 87 132 135.5t198 48.5q72 0 134 -21
t115.5 -70t80.5 -122q90 213 358 213z" />
    <glyph glyph-name="n" unicode="n" horiz-adv-x="1230" 
d="M690 1079q201 0 304.5 -105.5t103.5 -297.5v-676h-168v639q0 143 -70.5 222t-210.5 79q-78 0 -138 -25t-95 -63.5t-57 -91t-29.5 -99.5t-7.5 -98v-563h-170v1065h149l8 -191q48 93 146.5 149t234.5 56z" />
    <glyph glyph-name="o" unicode="o" horiz-adv-x="1298" 
d="M651 -16q-252 0 -412.5 149.5t-160.5 396.5q0 250 159.5 399.5t413.5 149.5q251 0 411.5 -151t160.5 -398t-160.5 -396.5t-411.5 -149.5zM651 125q176 0 288 109t112 296t-112.5 298.5t-287.5 111.5q-176 0 -287.5 -111t-111.5 -299q0 -187 111 -296t288 -109z" />
    <glyph glyph-name="p" unicode="p" horiz-adv-x="1357" 
d="M743 1079q167 0 290.5 -73.5t185 -196.5t61.5 -277t-62 -276.5t-186 -196t-291 -73.5q-136 0 -246.5 52.5t-172.5 149.5v-536h-170v1413h145l18 -211q60 111 176.5 168t251.5 57zM711 125q178 0 286.5 110.5t108.5 296.5t-108.5 297t-284.5 111q-169 0 -282.5 -114
t-113.5 -294q0 -176 113 -291.5t281 -115.5z" />
    <glyph glyph-name="q" unicode="q" horiz-adv-x="1374" 
d="M1061 1065h145v-1413h-168v555q-57 -112 -169 -166.5t-255 -54.5q-127 0 -230 42.5t-169 116.5t-101.5 173t-35.5 214q0 154 62 277t185.5 196.5t288.5 73.5q141 0 255 -54t173 -153zM651 123q165 0 278 114t113 295q0 175 -112.5 292.5t-278.5 117.5q-178 0 -287.5 -112
t-109.5 -298t109.5 -297.5t287.5 -111.5z" />
    <glyph glyph-name="r" unicode="r" horiz-adv-x="747" 
d="M610 1077q58 0 105 -12l-4 -139q-62 12 -103 12q-73 0 -129 -39t-89.5 -106.5t-50.5 -153.5t-17 -186v-453h-170v1065h141l14 -270q34 125 110 203.5t193 78.5z" />
    <glyph glyph-name="s" unicode="s" horiz-adv-x="1040" 
d="M541 -16q-305 0 -482 221l119 100q137 -192 361 -192q245 0 245 170q0 26 -8 47t-18.5 36.5t-34.5 29.5t-42.5 22.5t-56.5 19t-61.5 15.5t-72.5 16q-25 5 -37 8q-153 35 -242.5 112t-89.5 202q0 78 32.5 136t89.5 90.5t124.5 48t146.5 15.5q126 0 241 -45t195 -121
l-94 -108q-156 147 -332 147q-104 0 -166.5 -37t-62.5 -120q0 -37 15.5 -67t38.5 -49t62 -35.5t71.5 -25.5t82.5 -20q166 -39 235 -72q160 -80 161 -241q0 -77 -33 -136t-91.5 -95t-133 -54t-162.5 -18z" />
    <glyph glyph-name="t" unicode="t" horiz-adv-x="882" 
d="M575 -14q-296 0 -296 329v621h-254v129h133q74 0 104.5 35.5t30.5 107.5v191h153v-334h375v-129h-375v-608q0 -34 2 -58.5t11.5 -55t26 -49.5t47.5 -32.5t75 -13.5q100 0 217 20l4 -133q-88 -20 -254 -20z" />
    <glyph glyph-name="u" unicode="u" horiz-adv-x="1179" 
d="M590 -14q-220 0 -341.5 119t-121.5 337v623h168v-637q0 -146 82.5 -229.5t212.5 -83.5q132 0 213.5 83.5t81.5 229.5v637h170v-623q0 -221 -122.5 -338.5t-342.5 -117.5z" />
    <glyph glyph-name="v" unicode="v" horiz-adv-x="1079" 
d="M438 -14l-405 1079h180l158 -422q81 -225 172 -510h6q113 343 176 510l160 422h162l-406 -1079h-203z" />
    <glyph glyph-name="w" unicode="w" horiz-adv-x="1656" 
d="M1464 1065h156l-324 -1075h-209l-143 483l-106 389l-111 -391l-145 -481h-211l-320 1075h164l150 -510l116 -414l117 414l152 518h182l147 -518l117 -416l117 416z" />
    <glyph glyph-name="x" unicode="x" horiz-adv-x="1069" 
d="M1036 0h-186l-318 438l-325 -438h-172l395 528l-389 537h188l310 -420l315 420h170l-385 -518z" />
    <glyph glyph-name="y" unicode="y" horiz-adv-x="1105" 
d="M907 1065h168l-563 -1413h-170l137 336l-450 1077h180l203 -500q97 -247 153 -395h4q47 125 146 395z" />
    <glyph glyph-name="z" unicode="z" horiz-adv-x="1038" 
d="M965 131v-131h-895v115l686 823l-674 -2v129h879v-115l-687 -821z" />
    <glyph glyph-name="braceleft" unicode="{" horiz-adv-x="686" 
d="M389 782q0 -90 -39 -143t-112 -64q73 -11 112 -63.5t39 -142.5v-435q0 -85 38 -124t124 -39h76v-119h-107q-85 0 -143 20.5t-89 61t-44 90t-13 117.5v436q0 143 -127 143h-34v111h34q127 0 127 143v436q0 68 13 117.5t44 90t89 61t143 20.5h107v-119h-76q-86 0 -124 -39
t-38 -124v-435z" />
    <glyph glyph-name="bar" unicode="|" horiz-adv-x="495" 
d="M178 -336v1942h139v-1942h-139z" />
    <glyph glyph-name="braceright" unicode="}" horiz-adv-x="688" 
d="M582 631h36v-111h-36q-125 0 -125 -143v-436q0 -68 -13 -117.5t-44 -90t-89 -61t-143 -20.5h-107v119h74q87 0 124.5 38.5t37.5 124.5v435q0 90 40 142.5t114 63.5q-74 11 -114 64t-40 143v435q0 86 -37.5 124.5t-124.5 38.5h-74v119h107q85 0 143 -20.5t89 -61t44 -90
t13 -117.5v-436q0 -143 125 -143z" />
    <glyph glyph-name="asciitilde" unicode="~" horiz-adv-x="1179" 
d="M768 592q-64 0 -194 49t-181 49q-82 0 -114 -82l-64 27q22 84 76 127t125 43q63 0 190 -49t182 -49q90 0 113 81l64 -26q-22 -84 -75 -127t-122 -43z" />
    <glyph glyph-name="exclamdown" unicode="&#xa1;" horiz-adv-x="489" 
d="M244 1090q46 0 76 -30t30 -75t-30.5 -75.5t-75.5 -30.5q-47 0 -78 30.5t-31 75.5t31 75t78 30zM311 688l25 -1055h-191l27 1055h139z" />
    <glyph glyph-name="cent" unicode="&#xa2;" horiz-adv-x="1298" 
d="M1178 324q-96 -89 -197 -130.5t-219 -46.5l2 -161h-98l2 164q-234 19 -377.5 164.5t-143.5 379.5t141 381t380 166l-2 168h98l-2 -166q225 -11 409 -172l-98 -117q-154 150 -342 150q-184 0 -295.5 -110.5t-111.5 -297.5q0 -188 113 -298.5t296 -110.5q203 0 344 149z
" />
    <glyph glyph-name="sterling" unicode="&#xa3;" horiz-adv-x="1196" 
d="M516 463q0 -235 -186 -330h770v-133h-996v123q40 15 71 31.5t63.5 43.5t54 59.5t35.5 81t14 107.5q0 76 -29 179h-229v114h190q-59 167 -59 281q0 200 133.5 316t343.5 116q128 0 231.5 -49.5t194.5 -149.5l-102 -108q-69 85 -141.5 127.5t-167.5 42.5q-148 0 -233 -79
t-85 -220q0 -46 11 -98.5t22 -85t33 -93.5h497v-114h-458q22 -94 22 -162z" />
    <glyph glyph-name="currency" unicode="&#xa4;" horiz-adv-x="1492" 
d="M1268 715q0 -175 -82 -297l209 -217l-74 -70l-201 209q-144 -129 -377 -129q-230 0 -372 127l-199 -207l-74 70l207 215q-84 120 -84 299q0 174 82 299l-205 213l74 69l199 -206q141 129 372 129q236 0 377 -129l201 206l74 -69l-207 -215q80 -122 80 -297zM743 328
q79 0 149 24t125.5 70t87.5 121.5t32 171.5q0 95 -32 170t-87.5 121t-125.5 70t-149 24q-78 0 -147 -24t-123.5 -70t-86.5 -121t-32 -170q0 -96 32 -171.5t86.5 -121.5t123.5 -70t147 -24z" />
    <glyph glyph-name="yen" unicode="&#xa5;" horiz-adv-x="1277" 
d="M1245 1434l-487 -820h344v-86h-373v-147h373v-86h-375v-295h-180v295h-369v86h371v147h-371v86h340l-487 820h190l420 -713l422 713h182z" />
    <glyph glyph-name="section" unicode="&#xa7;" horiz-adv-x="1214" 
d="M883 238q196 -94 196 -273q0 -151 -122 -233t-326 -82q-150 0 -271 44t-233 128l80 125q102 -83 196 -125.5t209 -42.5q79 0 139 17t99 58.5t39 104.5q0 40 -17 71.5t-44.5 54t-75.5 44t-95.5 37.5t-119.5 38q-28 8 -43 13q-65 19 -110 35.5t-103 47t-93.5 64t-60.5 85
t-25 112.5q0 100 63.5 172.5t164.5 114.5q-197 94 -197 272q0 150 123 233t326 83q150 0 270.5 -44t232.5 -128l-79 -125q-102 83 -196.5 125.5t-209.5 42.5q-79 0 -139.5 -17.5t-99.5 -59t-39 -104.5q0 -40 19 -72t41 -53t78.5 -45t92.5 -36t121 -38q30 -9 45 -14
q64 -19 109.5 -35.5t103 -47t93 -64t60.5 -85t25 -112.5q0 -100 -63 -172t-164 -114zM258 592q0 -39 15.5 -72t40.5 -57t65 -46t81 -37t97 -32q165 -47 215 -65q101 43 141.5 95.5t40.5 115.5q0 49 -21.5 87t-65.5 66.5t-92 48t-120 41.5q-151 43 -215 66
q-101 -43 -141.5 -95.5t-40.5 -115.5z" />
    <glyph glyph-name="dieresis" unicode="&#xa8;" horiz-adv-x="999" 
d="M289 1260q-47 0 -79 30t-32 76q0 49 32.5 79t80.5 30q47 0 78.5 -30t31.5 -79q0 -47 -32 -76.5t-80 -29.5zM709 1260q-48 0 -79.5 29.5t-31.5 76.5q0 49 31.5 79t81.5 30q47 0 77.5 -30t30.5 -79q0 -47 -31 -76.5t-79 -29.5z" />
    <glyph glyph-name="copyright" unicode="&#xa9;" horiz-adv-x="1761" 
d="M881 -18q-217 0 -394 93t-279 261.5t-102 380.5q0 213 101.5 381.5t278.5 261t395 92.5q220 0 396.5 -92.5t277 -261t100.5 -381.5q0 -212 -101.5 -380.5t-278 -261.5t-394.5 -93zM881 51q197 0 353.5 81.5t246.5 233.5t90 349q0 196 -90.5 349t-247.5 235.5t-352 82.5
q-146 0 -273.5 -48.5t-219.5 -134.5t-145 -211t-53 -273q0 -197 90.5 -349t247 -233.5t353.5 -81.5zM909 340q-179 0 -292 104t-113 275q0 170 111 274.5t290 104.5q171 0 295 -105l-72 -84q-34 38 -90.5 62t-122.5 24q-127 0 -203.5 -75.5t-76.5 -198.5q0 -127 77 -203
t203 -76q123 0 218 84l69 -80q-129 -106 -293 -106z" />
    <glyph glyph-name="ordfeminine" unicode="&#xaa;" horiz-adv-x="1005" 
d="M782 1434h107v-732h-107l-10 156q-41 -85 -119.5 -125.5t-177.5 -40.5q-167 0 -262.5 104t-95.5 271q0 165 98.5 271t265.5 106q100 0 177.5 -42t117.5 -118zM510 791q111 0 187.5 76t76.5 200q0 123 -76 201t-188 78q-124 0 -198 -75.5t-74 -203.5t74 -202t198 -74z
M117 414v106h772v-106h-772z" />
    <glyph glyph-name="guillemotleft" unicode="&#xab;" horiz-adv-x="993" 
d="M336 885h147l-241 -353l241 -352h-145l-246 352zM901 885l-239 -353l239 -352h-143l-246 352l244 353h145z" />
    <glyph glyph-name="registered" unicode="&#xae;" horiz-adv-x="1701" 
d="M852 1452q215 0 387 -92.5t269.5 -260.5t97.5 -382q0 -212 -98.5 -380.5t-270.5 -261.5t-385 -93q-212 0 -384.5 93t-272 261.5t-99.5 380.5q0 213 99 381.5t271.5 261t385.5 92.5zM852 47q191 0 343.5 82.5t239.5 235.5t87 350q0 196 -87.5 350t-240 237.5t-342.5 83.5
q-189 0 -341.5 -83.5t-240.5 -237t-88 -350.5t87.5 -350t239.5 -235.5t343 -82.5zM1149 860q0 -87 -48 -144t-130 -75l168 -283h-121l-154 275h-166v-275h-112v725h309q109 0 181.5 -64.5t72.5 -158.5zM889 725q66 0 108.5 36.5t42.5 98.5q0 61 -42.5 96t-108.5 35h-191
v-266h191z" />
    <glyph glyph-name="macron" unicode="&#xaf;" horiz-adv-x="1009" 
d="M195 1298v101h620v-101h-620z" />
    <glyph glyph-name="degree" unicode="&#xb0;" horiz-adv-x="839" 
d="M420 838q-140 0 -233 83.5t-93 225.5t93 224.5t233 82.5q141 0 233 -82.5t92 -224.5t-92 -225.5t-233 -83.5zM420 930q94 0 155.5 59.5t61.5 157.5t-61.5 156.5t-155.5 58.5q-97 0 -157 -57.5t-60 -157.5t60 -158.5t157 -58.5z" />
    <glyph glyph-name="plusminus" unicode="&#xb1;" horiz-adv-x="1402" 
d="M639 326v325h-367v119h367v328h121v-328h366v-119h-366v-325h-121zM272 106v119h854v-119h-854z" />
    <glyph glyph-name="uni00B2" unicode="&#xb2;" 
d="M340 664l387 4v-111h-641v23l313 309q93 90 131.5 147.5t38.5 128.5q0 80 -51 125t-133 45q-108 0 -233 -116l-74 94q141 135 321 135q144 0 229 -74.5t85 -204.5q0 -31 -7 -60.5t-13.5 -50.5t-29 -53.5t-32 -46t-45.5 -51.5t-46 -48t-57 -56z" />
    <glyph glyph-name="uni00B3" unicode="&#xb3;" 
d="M442 1077q140 -10 212.5 -76.5t72.5 -179.5q0 -134 -100 -206t-254 -72q-99 0 -184 31t-140 85l72 97q127 -109 248 -109q91 0 151 44.5t60 129.5q0 48 -22 82t-60 52t-80 26t-92 8h-70v27l236 311h-390v107h596v-19z" />
    <glyph glyph-name="acute" unicode="&#xb4;" horiz-adv-x="653" 
d="M201 1227l149 325h160l-182 -325h-127z" />
    <glyph glyph-name="paragraph" unicode="&#xb6;" horiz-adv-x="1212" 
d="M61 1006q0 103 35.5 187t94 135.5t129 78.5t145.5 27h137v-863h-164q-70 0 -136.5 28.5t-120.5 81.5t-87 137.5t-33 187.5zM1165 1434v-138h-231l-2 -1644h-150l2 1782h381z" />
    <glyph glyph-name="periodcentered" unicode="&#xb7;" horiz-adv-x="479" 
d="M240 508q-52 0 -81.5 29t-29.5 77q0 47 30 77t81 30q54 0 83 -29.5t29 -77.5q0 -47 -29 -76.5t-83 -29.5z" />
    <glyph glyph-name="cedilla" unicode="&#xb8;" horiz-adv-x="710" 
d="M350 -109q30 1 57.5 -1.5t62 -12.5t59.5 -27.5t42 -51t17 -79.5q0 -48 -22.5 -83.5t-61 -53.5t-80.5 -26.5t-90 -8.5q-110 0 -189 23l7 86q27 -9 78 -19t89 -10q23 0 46 3.5t48.5 13.5t41.5 31.5t16 52.5q0 35 -16.5 58t-49 34.5t-70 16t-89.5 3.5l55 191h90z" />
    <glyph glyph-name="uni00B9" unicode="&#xb9;" 
d="M145 557v102h220v674l-215 -24l-7 102l326 37h27v-789h192v-102h-543z" />
    <glyph glyph-name="ordmasculine" unicode="&#xba;" horiz-adv-x="1013" 
d="M506 692q-167 0 -280 101.5t-113 273.5q0 176 111.5 280.5t281.5 104.5q169 0 281 -104.5t112 -280.5q0 -172 -113 -273.5t-280 -101.5zM506 799q118 0 192 73.5t74 198.5q0 128 -76.5 201.5t-189.5 73.5t-189.5 -73.5t-76.5 -199.5t74.5 -200t191.5 -74zM164 412v104
h686v-104h-686z" />
    <glyph glyph-name="guillemotright" unicode="&#xbb;" horiz-adv-x="993" 
d="M92 885h146l245 -353l-245 -352h-146l240 352zM657 885l244 -353l-244 -352h-145l242 352l-242 353h145z" />
    <glyph glyph-name="onequarter" unicode="&#xbc;" horiz-adv-x="1861" 
d="M145 657h220v674l-215 -24l-7 104l326 37h27v-791h192v-102h-543v102zM1370 1434h133l-841 -1434h-134zM1675 289h142v-101h-142v-188h-127v188h-446l-2 19l344 674h137l-307 -592h274v225l19 37h108v-262z" />
    <glyph glyph-name="onehalf" unicode="&#xbd;" horiz-adv-x="2035" 
d="M145 657h220v674l-215 -24l-7 104l326 37h27v-791h192v-102h-543v102zM1370 1434h133l-841 -1434h-134zM1571 109l387 4v-113h-641v23l311 309q93 90 131.5 147.5t38.5 128.5q0 80 -50.5 125t-131.5 45q-113 0 -234 -116l-73 94q138 135 321 135q143 0 227.5 -74
t84.5 -205q0 -42 -12.5 -82.5t-27 -69t-51.5 -71t-60 -65.5t-77 -76z" />
    <glyph glyph-name="threequarters" unicode="&#xbe;" horiz-adv-x="1845" 
d="M727 819q0 -89 -48.5 -153t-127 -94.5t-178.5 -30.5q-98 0 -183 31.5t-141 84.5l72 99q127 -109 248 -109q91 0 151 44.5t60 129.5q0 47 -22 81t-59.5 52.5t-80 26.5t-92.5 8h-70v27l238 311h-392v107h596v-21l-256 -338q140 -10 212.5 -76.5t72.5 -179.5zM1352 1434h135
l-842 -1434h-135zM1657 289h141v-101h-141v-188h-125v188h-449v19l344 674h136l-306 -592h275v225l16 37h109v-262z" />
    <glyph glyph-name="questiondown" unicode="&#xbf;" horiz-adv-x="917" 
d="M516 1090q47 0 78 -30.5t31 -76.5q0 -45 -31 -75.5t-78 -30.5q-45 0 -75.5 30.5t-30.5 75.5q0 46 30 76.5t76 30.5zM600 686q14 -52 14 -137q0 -69 -20.5 -124.5t-53.5 -93.5t-72.5 -70.5t-79 -62t-72.5 -61t-53.5 -75.5t-20.5 -97q0 -109 72.5 -166t174.5 -57
q88 0 171.5 48.5t144.5 137.5l113 -98q-166 -217 -439 -217q-82 0 -153 19.5t-129 59.5t-91.5 107.5t-33.5 155.5q0 61 16.5 112t43.5 85.5t61.5 66.5t70.5 56t71.5 53.5t63 58.5t46 71.5t20.5 92.5q0 67 -14 135h149z" />
    <glyph glyph-name="Agrave" unicode="&#xc0;" horiz-adv-x="1515" 
d="M836 1575h-125l-150 246h156zM1274 0l-150 369h-743l-148 -369h-180l592 1442h227l588 -1442h-186zM438 510h631l-315 780h-2z" />
    <glyph glyph-name="Aacute" unicode="&#xc1;" horiz-adv-x="1515" 
d="M989 1821l-166 -246h-125l133 246h158zM1274 0l-150 369h-743l-148 -369h-180l592 1442h227l588 -1442h-186zM438 510h631l-315 780h-2z" />
    <glyph glyph-name="Acircumflex" unicode="&#xc2;" horiz-adv-x="1515" 
d="M758 1741l-176 -160h-146l285 254h67l287 -254h-145zM1274 0l-150 369h-743l-148 -369h-180l592 1442h227l588 -1442h-186zM438 510h631l-315 780h-2z" />
    <glyph glyph-name="Atilde" unicode="&#xc3;" horiz-adv-x="1515" 
d="M598 1739q-41 0 -71.5 -22t-41.5 -58l-63 8q16 98 68 143t124 45q68 0 160 -47l32 -16t38.5 -18t34.5 -11t41 -6q42 0 72.5 23t39.5 59l64 -8q-14 -97 -66.5 -143t-126.5 -46q-64 0 -158 46q-2 1 -26.5 13.5t-31.5 15.5t-26 10t-33.5 9.5t-29.5 2.5zM1274 0l-150 369
h-743l-148 -369h-180l592 1442h227l588 -1442h-186zM438 510h631l-315 780h-2z" />
    <glyph glyph-name="Adieresis" unicode="&#xc4;" horiz-adv-x="1515" 
d="M549 1630q-48 0 -78.5 30t-30.5 79t30.5 78.5t78.5 29.5t78 -29.5t30 -78.5t-30 -79t-78 -30zM967 1630q-46 0 -76.5 30t-30.5 79t30.5 78.5t78.5 29.5q46 0 76 -29.5t30 -78.5t-30 -79t-78 -30zM1274 0l-150 369h-743l-148 -369h-180l592 1442h227l588 -1442h-186z
M438 510h631l-315 780h-2z" />
    <glyph glyph-name="Aring" unicode="&#xc5;" horiz-adv-x="1515" 
d="M756 1597q-95 0 -159.5 55t-64.5 148q0 97 64 151t160 54q97 0 160 -54t63 -151q0 -94 -63.5 -148.5t-159.5 -54.5zM756 1927q-56 0 -91.5 -33t-35.5 -94q0 -58 35.5 -91.5t91.5 -33.5t91.5 33.5t35.5 91.5q0 61 -35.5 94t-91.5 33zM1274 0l-150 369h-743l-148 -369h-180
l592 1442h227l588 -1442h-186zM438 510h631l-315 780h-2z" />
    <glyph glyph-name="AE" unicode="&#xc6;" horiz-adv-x="1992" 
d="M1108 137h803v-137h-977v395h-547l-233 -395h-181l844 1434h1065v-138h-774v-530h661v-135h-661v-494zM934 535v761h-12l-451 -761h463z" />
    <glyph glyph-name="Ccedilla" unicode="&#xc7;" horiz-adv-x="1519" 
d="M889 -14h-6l-27 -95q30 1 57.5 -1.5t62 -12.5t59.5 -27.5t42 -51t17 -79.5q0 -48 -22.5 -83.5t-61 -53.5t-80.5 -26.5t-90 -8.5q-110 0 -189 23l6 86q27 -9 78 -19t90 -10q23 0 46 3.5t48.5 13.5t41.5 31.5t16 52.5q0 35 -16.5 58t-49 34.5t-70 16t-89.5 3.5l43 150
q-309 28 -495.5 223.5t-186.5 503.5q0 329 211.5 531t556.5 202q185 0 321.5 -55.5t247.5 -169.5l-125 -113q-175 186 -438 186q-266 0 -428 -157.5t-162 -421.5q0 -265 163 -424.5t423 -159.5q262 0 458 205l119 -115q-236 -239 -571 -239z" />
    <glyph glyph-name="Egrave" unicode="&#xc8;" horiz-adv-x="1304" 
d="M653 1575l-149 246h155l119 -246h-125zM190 0v1434h1006v-142h-827v-522h712v-139h-712v-490h854v-141h-1033z" />
    <glyph glyph-name="Eacute" unicode="&#xc9;" horiz-adv-x="1304" 
d="M639 1575l133 246h158l-166 -246h-125zM190 0v1434h1006v-142h-827v-522h712v-139h-712v-490h854v-141h-1033z" />
    <glyph glyph-name="Ecircumflex" unicode="&#xca;" horiz-adv-x="1304" 
d="M698 1741l-176 -160h-145l285 254h67l287 -254h-146zM369 141h854v-141h-1033v1434h1006v-142h-827v-522h712v-139h-712v-490z" />
    <glyph glyph-name="Edieresis" unicode="&#xcb;" horiz-adv-x="1304" 
d="M489 1630q-48 0 -78 30t-30 79t30 78.5t78 29.5t78.5 -29.5t30.5 -78.5t-30.5 -79t-78.5 -30zM907 1630q-46 0 -76 30t-30 79t30 78.5t78 29.5q47 0 77 -29.5t30 -78.5t-30.5 -79t-78.5 -30zM190 0v1434h1006v-142h-827v-522h712v-139h-712v-490h854v-141h-1033z" />
    <glyph glyph-name="Igrave" unicode="&#xcc;" horiz-adv-x="559" 
d="M236 1575l-150 246h156l118 -246h-124zM190 0v1434h181v-1434h-181z" />
    <glyph glyph-name="Iacute" unicode="&#xcd;" horiz-adv-x="559" 
d="M223 1575l133 246h158l-166 -246h-125zM190 0v1434h181v-1434h-181z" />
    <glyph glyph-name="Icircumflex" unicode="&#xce;" horiz-adv-x="559" 
d="M313 1835l287 -254h-145l-172 160l-177 -160h-145l285 254h67zM190 0v1434h181v-1434h-181z" />
    <glyph glyph-name="Idieresis" unicode="&#xcf;" horiz-adv-x="559" 
d="M74 1630q-48 0 -78.5 30t-30.5 79t30.5 78.5t78.5 29.5t78 -29.5t30 -78.5t-30 -79t-78 -30zM492 1630q-46 0 -76.5 30t-30.5 79t30.5 78.5t78.5 29.5q46 0 76 -29.5t30 -78.5t-30 -79t-78 -30zM190 0v1434h181v-1434h-181z" />
    <glyph glyph-name="Eth" unicode="&#xd0;" horiz-adv-x="1536" 
d="M745 1434q154 0 281.5 -55t214 -151t134 -227.5t48.5 -283.5q0 -204 -80.5 -365.5t-236 -256.5t-361.5 -95h-557v666h-174v96h174v672h557zM705 141q171 0 292 76t178.5 205t57.5 299q0 256 -140 413.5t-388 157.5h-336v-530h362v-96h-362v-525h336z" />
    <glyph glyph-name="Ntilde" unicode="&#xd1;" horiz-adv-x="1550" 
d="M639 1739q-41 0 -71.5 -22t-41.5 -58l-63 8q16 98 68 143t124 45q68 0 160 -47l32 -16t38.5 -18t34.5 -11t41 -6q42 0 72.5 23t39.5 59l64 -8q-14 -97 -66.5 -143t-126.5 -46q-64 0 -158 46q-2 1 -26.5 13.5t-31.5 15.5t-26 10t-33.5 9.5t-29.5 2.5zM1188 1434h174v-1434
h-154l-860 1182v-4q14 -243 14 -408v-770h-172v1434h154l856 -1168q-12 174 -12 441v727z" />
    <glyph glyph-name="Ograve" unicode="&#xd2;" horiz-adv-x="1751" 
d="M831 1575l-149 246h156l118 -246h-125zM874 -16q-224 0 -397 91.5t-268.5 257.5t-95.5 382t95.5 383.5t269 259.5t396.5 92q342 0 552 -203t210 -532q0 -327 -210 -529t-552 -202zM874 137q257 0 417.5 156t160.5 420q0 265 -160.5 424t-417.5 159q-253 0 -414 -158.5
t-161 -424.5q0 -263 161 -419.5t414 -156.5z" />
    <glyph glyph-name="Oacute" unicode="&#xd3;" horiz-adv-x="1751" 
d="M817 1575l133 246h158l-166 -246h-125zM874 -16q-224 0 -397 91.5t-268.5 257.5t-95.5 382t95.5 383.5t269 259.5t396.5 92q342 0 552 -203t210 -532q0 -327 -210 -529t-552 -202zM874 137q257 0 417.5 156t160.5 420q0 265 -160.5 424t-417.5 159q-253 0 -414 -158.5
t-161 -424.5q0 -263 161 -419.5t414 -156.5z" />
    <glyph glyph-name="Ocircumflex" unicode="&#xd4;" horiz-adv-x="1751" 
d="M877 1741l-177 -160h-145l285 254h67l287 -254h-145zM874 1450q342 0 552 -203t210 -532q0 -327 -210 -529t-552 -202q-224 0 -397 91.5t-268.5 257.5t-95.5 382t95.5 383.5t269 259.5t396.5 92zM874 137q257 0 417.5 156t160.5 420q0 265 -160.5 424t-417.5 159
q-253 0 -414 -158.5t-161 -424.5q0 -263 161 -419.5t414 -156.5z" />
    <glyph glyph-name="Otilde" unicode="&#xd5;" horiz-adv-x="1751" 
d="M1022 1642q-64 0 -158 46q-2 1 -26.5 13.5t-31.5 15.5t-26 10t-33.5 9.5t-29.5 2.5q-41 0 -71.5 -22t-41.5 -58l-63 8q16 98 68 143t124 45q68 0 160 -47q7 -3 32 -15.5t38 -18t34.5 -11.5t40.5 -6q42 0 73 23t40 59l63 -8q-14 -97 -66 -143t-126 -46zM874 -16
q-224 0 -397 91.5t-268.5 257.5t-95.5 382t95.5 383.5t269 259.5t396.5 92q342 0 552 -203t210 -532q0 -327 -210 -529t-552 -202zM874 137q257 0 417.5 156t160.5 420q0 265 -160.5 424t-417.5 159q-253 0 -414 -158.5t-161 -424.5q0 -263 161 -419.5t414 -156.5z" />
    <glyph glyph-name="Odieresis" unicode="&#xd6;" horiz-adv-x="1751" 
d="M668 1630q-48 0 -78.5 30t-30.5 79t30.5 78.5t78.5 29.5t78 -29.5t30 -78.5t-30 -79t-78 -30zM1085 1630q-46 0 -76 30t-30 79t30 78.5t78 29.5q47 0 77 -29.5t30 -78.5t-30.5 -79t-78.5 -30zM874 -16q-224 0 -397 91.5t-268.5 257.5t-95.5 382t95.5 383.5t269 259.5
t396.5 92q342 0 552 -203t210 -532q0 -327 -210 -529t-552 -202zM874 137q257 0 417.5 156t160.5 420q0 265 -160.5 424t-417.5 159q-253 0 -414 -158.5t-161 -424.5q0 -263 161 -419.5t414 -156.5z" />
    <glyph glyph-name="multiply" unicode="&#xd7;" horiz-adv-x="1388" 
d="M377 276l-88 91l315 319l-317 318l90 90l317 -318l316 318l90 -90l-318 -318l320 -319l-90 -88l-318 317z" />
    <glyph glyph-name="Oslash" unicode="&#xd8;" horiz-adv-x="1751" 
d="M1294 1346q163 -93 252.5 -256.5t89.5 -374.5q0 -327 -210 -529t-552 -202q-224 0 -401 94l-92 -144h-111l125 193q-135 96 -208.5 247.5t-73.5 340.5q0 216 95.5 383.5t269 259.5t396.5 92q183 0 336 -64l70 107h111zM299 713q0 -284 188 -445l635 981q-112 47 -248 47
q-253 0 -414 -158.5t-161 -424.5zM874 137q257 0 417.5 156t160.5 420q0 165 -65 291.5t-183 201.5l-641 -991q135 -78 311 -78z" />
    <glyph glyph-name="Ugrave" unicode="&#xd9;" horiz-adv-x="1480" 
d="M696 1575l-149 246h155l119 -246h-125zM741 -16q-258 0 -413.5 152t-155.5 417v881h180v-871q0 -208 107 -322t282 -114t281 114.5t106 321.5v871h181v-881q0 -182 -75 -312t-202 -193.5t-291 -63.5z" />
    <glyph glyph-name="Uacute" unicode="&#xda;" horiz-adv-x="1480" 
d="M684 1575l133 246h158l-166 -246h-125zM741 -16q-258 0 -413.5 152t-155.5 417v881h180v-871q0 -208 107 -322t282 -114t281 114.5t106 321.5v871h181v-881q0 -182 -75 -312t-202 -193.5t-291 -63.5z" />
    <glyph glyph-name="Ucircumflex" unicode="&#xdb;" horiz-adv-x="1480" 
d="M743 1741l-176 -160h-145l285 254h67l287 -254h-146zM1128 1434h181v-881q0 -182 -75 -312t-202 -193.5t-291 -63.5q-258 0 -413.5 152t-155.5 417v881h180v-871q0 -208 107 -322t282 -114t281 114.5t106 321.5v871z" />
    <glyph glyph-name="Udieresis" unicode="&#xdc;" horiz-adv-x="1480" 
d="M535 1630q-48 0 -78.5 30t-30.5 79t30.5 78.5t78.5 29.5t78 -29.5t30 -78.5t-30 -79t-78 -30zM952 1630q-46 0 -76 30t-30 79t30 78.5t78 29.5q47 0 77 -29.5t30 -78.5t-30.5 -79t-78.5 -30zM741 -16q-258 0 -413.5 152t-155.5 417v881h180v-871q0 -208 107 -322
t282 -114t281 114.5t106 321.5v871h181v-881q0 -182 -75 -312t-202 -193.5t-291 -63.5z" />
    <glyph glyph-name="Yacute" unicode="&#xdd;" horiz-adv-x="1320" 
d="M893 1821l-166 -246h-125l133 246h158zM1288 1434l-536 -881l-2 -553h-181l2 547l-538 887h190l441 -736l442 736h182z" />
    <glyph glyph-name="Thorn" unicode="&#xde;" horiz-adv-x="1400" 
d="M190 0v1434h179v-236h436q98 0 183 -26.5t145 -71.5t103 -105t64 -128t21 -140q0 -90 -34 -173.5t-96.5 -150.5t-162 -107t-221.5 -40h-438v-256h-179zM369 397h407q172 0 265.5 95t93.5 235q0 141 -93 235.5t-266 94.5h-407v-660z" />
    <glyph glyph-name="germandbls" unicode="&#xdf;" horiz-adv-x="1220" 
d="M825 -23q-97 0 -193.5 37.5t-172.5 104.5l71 114q69 -62 131.5 -94.5t137.5 -32.5q99 0 148.5 48.5t49.5 124.5q0 46 -18.5 83t-47.5 62t-64 47.5t-70.5 46.5t-64.5 51.5t-47.5 70t-18.5 95.5q0 59 17.5 111t42 91l49 78t42 89t17.5 106q0 105 -68.5 156t-167.5 51
q-140 0 -207 -82.5t-67 -222.5v-1112h-172v1108q0 219 120.5 330.5t335.5 111.5q108 0 193.5 -31.5t140.5 -103t55 -174.5q0 -64 -18 -121.5t-44 -100.5t-52 -83t-44 -86.5t-18 -95.5q0 -39 19 -71.5t49.5 -57t67.5 -48.5t74 -52.5t67.5 -62t49.5 -83.5t19 -111
q0 -127 -85.5 -209t-256.5 -82z" />
    <glyph glyph-name="agrave" unicode="&#xe0;" horiz-adv-x="1343" 
d="M774 1227h-127l-151 325h157zM1051 1065h155v-1065h-153l-15 229q-60 -125 -175.5 -185t-258.5 -60q-162 0 -282.5 71.5t-182 194t-61.5 278.5q0 242 144.5 397.5t389.5 155.5q148 0 259.5 -59.5t168.5 -171.5zM649 125q164 0 277.5 112.5t113.5 292.5t-112 295t-279 115
q-177 0 -286 -110.5t-109 -299.5q0 -186 109 -295.5t286 -109.5z" />
    <glyph glyph-name="aacute" unicode="&#xe1;" horiz-adv-x="1343" 
d="M926 1552l-183 -325h-127l150 325h160zM1051 1065h155v-1065h-153l-15 229q-60 -125 -175.5 -185t-258.5 -60q-162 0 -282.5 71.5t-182 194t-61.5 278.5q0 242 144.5 397.5t389.5 155.5q148 0 259.5 -59.5t168.5 -171.5zM649 125q164 0 277.5 112.5t113.5 292.5t-112 295
t-279 115q-177 0 -286 -110.5t-109 -299.5q0 -186 109 -295.5t286 -109.5z" />
    <glyph glyph-name="acircumflex" unicode="&#xe2;" horiz-adv-x="1343" 
d="M686 1448l-176 -221h-145l278 332h82l279 -332h-146zM1051 1065h155v-1065h-153l-15 229q-60 -125 -175.5 -185t-258.5 -60q-162 0 -282.5 71.5t-182 194t-61.5 278.5q0 242 144.5 397.5t389.5 155.5q148 0 259.5 -59.5t168.5 -171.5zM649 125q164 0 277.5 112.5
t113.5 292.5t-112 295t-279 115q-177 0 -286 -110.5t-109 -299.5q0 -186 109 -295.5t286 -109.5z" />
    <glyph glyph-name="atilde" unicode="&#xe3;" horiz-adv-x="1329" 
d="M481 1370q-41 0 -71 -22t-39 -58l-64 8q16 98 67.5 143.5t123.5 45.5q69 0 161 -47l32 -16t38.5 -18t34.5 -11t41 -6q41 0 71 22.5t39 58.5l64 -8q-14 -97 -66 -142.5t-127 -45.5q-61 0 -157 45l-27 13.5t-31 15t-26.5 10.5t-33 9.5t-30.5 2.5zM1051 1065h155v-1065h-153
l-15 229q-60 -125 -175.5 -185t-258.5 -60q-162 0 -282.5 71.5t-182 194t-61.5 278.5q0 242 144.5 397.5t389.5 155.5q148 0 259.5 -59.5t168.5 -171.5zM649 125q164 0 277.5 112.5t113.5 292.5t-112 295t-279 115q-177 0 -286 -110.5t-109 -299.5q0 -186 109 -295.5
t286 -109.5z" />
    <glyph glyph-name="adieresis" unicode="&#xe4;" horiz-adv-x="1343" 
d="M475 1260q-47 0 -78.5 29.5t-31.5 76.5q0 49 32 79t80 30q47 0 79 -30.5t32 -78.5q0 -47 -32.5 -76.5t-80.5 -29.5zM895 1260q-48 0 -79.5 29.5t-31.5 76.5q0 49 31.5 79t81.5 30q47 0 78 -30t31 -79q0 -47 -31.5 -76.5t-79.5 -29.5zM1051 1065h155v-1065h-153l-15 229
q-60 -125 -175.5 -185t-258.5 -60q-162 0 -282.5 71.5t-182 194t-61.5 278.5q0 242 144.5 397.5t389.5 155.5q148 0 259.5 -59.5t168.5 -171.5zM649 125q164 0 277.5 112.5t113.5 292.5t-112 295t-279 115q-177 0 -286 -110.5t-109 -299.5q0 -186 109 -295.5t286 -109.5z
" />
    <glyph glyph-name="aring" unicode="&#xe5;" horiz-adv-x="1329" 
d="M641 1229q-96 0 -159.5 54.5t-63.5 148.5q0 97 63 150.5t160 53.5t160 -53.5t63 -150.5q0 -94 -63.5 -148.5t-159.5 -54.5zM639 1559q-55 0 -90 -33t-35 -94q0 -58 35.5 -91.5t89.5 -33.5q57 0 93 33t36 92q0 61 -35.5 94t-93.5 33zM1051 1065h155v-1065h-153l-15 229
q-60 -125 -175.5 -185t-258.5 -60q-162 0 -282.5 71.5t-182 194t-61.5 278.5q0 242 144.5 397.5t389.5 155.5q148 0 259.5 -59.5t168.5 -171.5zM649 125q164 0 277.5 112.5t113.5 292.5t-112 295t-279 115q-177 0 -286 -110.5t-109 -299.5q0 -186 109 -295.5t286 -109.5z
" />
    <glyph glyph-name="ae" unicode="&#xe6;" horiz-adv-x="2021" 
d="M473 -16q-180 0 -287.5 79.5t-107.5 237.5q0 173 125.5 247.5t353.5 74.5q123 0 317 -21v129q-1 118 -79 170.5t-222 52.5q-210 0 -409 -71l-8 143q198 53 438 53q174 0 274 -52t129 -177q69 109 186 169t273 60q227 0 356.5 -134.5t129.5 -352.5q0 -56 -9 -115h-848
q7 -181 122.5 -277t301.5 -96q89 0 190 26t183 65l8 -134q-178 -75 -401 -75q-194 0 -326.5 75t-193.5 213q-142 -290 -496 -290zM1085 588h687q12 167 -77.5 270t-240.5 103q-163 0 -261 -97t-108 -276zM500 104q91 0 176 40.5t140 114.5t56 163l2 78q-142 18 -286 18
q-165 0 -251.5 -48t-86.5 -163q0 -56 21.5 -97t58 -63.5t79 -32.5t91.5 -10z" />
    <glyph glyph-name="ccedilla" unicode="&#xe7;" horiz-adv-x="1157" 
d="M614 -109q30 1 57.5 -1.5t62 -12.5t59.5 -27.5t42 -51t17 -79.5q0 -48 -22.5 -83.5t-61 -53.5t-80.5 -26.5t-90 -8.5q-109 0 -188 23l6 86q27 -9 78 -19t90 -10q23 0 45.5 3.5t48.5 13.5t41.5 31.5t15.5 52.5q0 35 -16.5 58t-49 34.5t-70 16t-89.5 3.5l45 152
q-217 30 -347 173t-130 367q0 248 158.5 397.5t420.5 149.5q267 0 445 -172l-96 -114q-145 149 -342 149q-184 0 -297 -110t-113 -297q0 -189 114.5 -300.5t297.5 -111.5q203 0 342 151l100 -114q-100 -95 -208 -134.5t-241 -39.5h-18z" />
    <glyph glyph-name="egrave" unicode="&#xe8;" horiz-adv-x="1214" 
d="M711 1227h-127l-152 325h158zM1135 596q0 -56 -9 -117h-872q10 -182 124.5 -274t291.5 -92q207 0 366 151l80 -114q-190 -164 -446 -164q-283 0 -437.5 148t-154.5 398q0 159 64 282t191 194t300 71q231 0 366.5 -129t135.5 -354zM633 956q-164 0 -265.5 -94.5
t-111.5 -265.5h702q3 15 3 31q0 151 -88 240t-240 89z" />
    <glyph glyph-name="eacute" unicode="&#xe9;" horiz-adv-x="1214" 
d="M860 1552l-182 -325h-127l149 325h160zM1135 596q0 -56 -9 -117h-872q10 -182 124.5 -274t291.5 -92q207 0 366 151l80 -114q-190 -164 -446 -164q-283 0 -437.5 148t-154.5 398q0 159 64 282t191 194t300 71q231 0 366.5 -129t135.5 -354zM633 956q-164 0 -265.5 -94.5
t-111.5 -265.5h702q3 15 3 31q0 151 -88 240t-240 89z" />
    <glyph glyph-name="ecircumflex" unicode="&#xea;" horiz-adv-x="1214" 
d="M621 1448l-177 -221h-145l279 332h81l279 -332h-145zM1135 596q0 -56 -9 -117h-872q10 -182 124.5 -274t291.5 -92q207 0 366 151l80 -114q-190 -164 -446 -164q-283 0 -437.5 148t-154.5 398q0 159 64 282t191 194t300 71q231 0 366.5 -129t135.5 -354zM633 956
q-164 0 -265.5 -94.5t-111.5 -265.5h702q3 15 3 31q0 151 -88 240t-240 89z" />
    <glyph glyph-name="edieresis" unicode="&#xeb;" horiz-adv-x="1214" 
d="M410 1260q-47 0 -79 30t-32 76q0 49 32.5 79t80.5 30q47 0 78.5 -30t31.5 -79q0 -47 -32 -76.5t-80 -29.5zM829 1260q-48 0 -79 29.5t-31 76.5q0 49 31 79t81 30q47 0 78 -30t31 -79q0 -47 -31.5 -76.5t-79.5 -29.5zM1135 596q0 -56 -9 -117h-872q10 -182 124.5 -274
t291.5 -92q207 0 366 151l80 -114q-190 -164 -446 -164q-283 0 -437.5 148t-154.5 398q0 159 64 282t191 194t300 71q231 0 366.5 -129t135.5 -354zM633 956q-164 0 -265.5 -94.5t-111.5 -265.5h702q3 15 3 31q0 151 -88 240t-240 89z" />
    <glyph glyph-name="igrave" unicode="&#xec;" horiz-adv-x="471" 
d="M201 1227l-152 325h158l121 -325h-127zM152 0v1065h170v-1065h-170z" />
    <glyph glyph-name="iacute" unicode="&#xed;" horiz-adv-x="471" 
d="M170 1227l149 325h160l-182 -325h-127zM152 0v1065h170v-1065h-170z" />
    <glyph glyph-name="icircumflex" unicode="&#xee;" horiz-adv-x="471" 
d="M279 1559l278 -332h-145l-172 221l-177 -221h-145l279 332h82zM152 0v1065h170v-1065h-170z" />
    <glyph glyph-name="idieresis" unicode="&#xef;" horiz-adv-x="471" 
d="M29 1260q-47 0 -79 30t-32 76q0 49 32.5 79t80.5 30q47 0 78.5 -30t31.5 -79q0 -47 -32 -76.5t-80 -29.5zM449 1260q-48 0 -79.5 29.5t-31.5 76.5q0 49 31.5 79t81.5 30q47 0 77.5 -30t30.5 -79q0 -47 -31 -76.5t-79 -29.5zM152 0v1065h170v-1065h-170z" />
    <glyph glyph-name="eth" unicode="&#xf0;" horiz-adv-x="1296" 
d="M850 1378q159 -154 249.5 -353.5t90.5 -434.5q0 -304 -147 -454t-408 -150q-254 0 -397.5 138t-143.5 365q0 155 70 269.5t186.5 172t261.5 58.5q166 0 275.5 -67t154.5 -160q-26 195 -137 362q-66 102 -164 185l-223 -142l-51 68l205 131q-107 82 -275 166l115 84
q150 -73 272 -178l181 116l53 -69zM637 113q176 0 274.5 103t98.5 276q0 172 -100 270t-273 98q-170 0 -270.5 -102t-100.5 -269q0 -165 96 -270.5t275 -105.5z" />
    <glyph glyph-name="ntilde" unicode="&#xf1;" horiz-adv-x="1230" 
d="M467 1370q-41 0 -71.5 -22t-41.5 -58l-63 8q16 98 68 143.5t124 45.5q68 0 160 -47q7 -3 32 -15.5t38 -18t34.5 -11.5t40.5 -6q42 0 73 22.5t40 58.5l64 -8q-14 -97 -66 -142.5t-127 -45.5q-66 0 -158 45q-2 1 -26.5 13.5t-31.5 15.5t-26 10t-33.5 9.5t-29.5 2.5z
M690 1079q201 0 304.5 -105.5t103.5 -297.5v-676h-168v639q0 143 -70.5 222t-210.5 79q-78 0 -138 -25t-95 -63.5t-57 -91t-29.5 -99.5t-7.5 -98v-563h-170v1065h149l8 -191q48 93 146.5 149t234.5 56z" />
    <glyph glyph-name="ograve" unicode="&#xf2;" horiz-adv-x="1298" 
d="M614 1227l-151 325h158l120 -325h-127zM651 -16q-252 0 -412.5 149.5t-160.5 396.5q0 250 159.5 399.5t413.5 149.5q251 0 411.5 -151t160.5 -398t-160.5 -396.5t-411.5 -149.5zM651 125q176 0 288 109t112 296t-112.5 298.5t-287.5 111.5q-176 0 -287.5 -111
t-111.5 -299q0 -187 111 -296t288 -109z" />
    <glyph glyph-name="oacute" unicode="&#xf3;" horiz-adv-x="1298" 
d="M584 1227l149 325h160l-182 -325h-127zM651 -16q-252 0 -412.5 149.5t-160.5 396.5q0 250 159.5 399.5t413.5 149.5q251 0 411.5 -151t160.5 -398t-160.5 -396.5t-411.5 -149.5zM651 125q176 0 288 109t112 296t-112.5 298.5t-287.5 111.5q-176 0 -287.5 -111
t-111.5 -299q0 -187 111 -296t288 -109z" />
    <glyph glyph-name="ocircumflex" unicode="&#xf4;" horiz-adv-x="1298" 
d="M653 1448l-176 -221h-145l278 332h82l279 -332h-146zM651 1079q251 0 411.5 -151t160.5 -398t-160.5 -396.5t-411.5 -149.5q-252 0 -412.5 149.5t-160.5 396.5q0 250 159.5 399.5t413.5 149.5zM651 125q176 0 288 109t112 296t-112.5 298.5t-287.5 111.5
q-176 0 -287.5 -111t-111.5 -299q0 -187 111 -296t288 -109z" />
    <glyph glyph-name="otilde" unicode="&#xf5;" horiz-adv-x="1298" 
d="M797 1274q-66 0 -158 45q-2 1 -26.5 13.5t-31.5 15.5t-26 10t-33.5 9.5t-29.5 2.5q-41 0 -71.5 -22t-41.5 -58l-64 8q16 98 68.5 143.5t124.5 45.5q68 0 160 -47q7 -3 32 -15.5t38 -18t34.5 -11.5t40.5 -6q42 0 73 22.5t40 58.5l63 -8q-14 -97 -66 -142.5t-126 -45.5z
M651 -16q-252 0 -412.5 149.5t-160.5 396.5q0 250 159.5 399.5t413.5 149.5q251 0 411.5 -151t160.5 -398t-160.5 -396.5t-411.5 -149.5zM651 125q176 0 288 109t112 296t-112.5 298.5t-287.5 111.5q-176 0 -287.5 -111t-111.5 -299q0 -187 111 -296t288 -109z" />
    <glyph glyph-name="odieresis" unicode="&#xf6;" horiz-adv-x="1298" 
d="M442 1260q-47 0 -78.5 29.5t-31.5 76.5q0 49 32 79t80 30q47 0 79 -30.5t32 -78.5q0 -47 -32.5 -76.5t-80.5 -29.5zM862 1260q-48 0 -79 29.5t-31 76.5q0 49 31 79t81 30q47 0 78 -30t31 -79q0 -47 -31.5 -76.5t-79.5 -29.5zM651 -16q-252 0 -412.5 149.5t-160.5 396.5
q0 250 159.5 399.5t413.5 149.5q251 0 411.5 -151t160.5 -398t-160.5 -396.5t-411.5 -149.5zM651 125q176 0 288 109t112 296t-112.5 298.5t-287.5 111.5q-176 0 -287.5 -111t-111.5 -299q0 -187 111 -296t288 -109z" />
    <glyph glyph-name="divide" unicode="&#xf7;" horiz-adv-x="1400" 
d="M702 950q-39 0 -63.5 23.5t-24.5 62.5q0 37 25 59.5t63 22.5q39 0 62.5 -22t23.5 -60q0 -39 -24.5 -62.5t-61.5 -23.5zM274 627v118h854v-118h-854zM702 258q-38 0 -63 24t-25 62q0 37 25 59.5t63 22.5q39 0 62.5 -22t23.5 -60q0 -39 -24.5 -62.5t-61.5 -23.5z" />
    <glyph glyph-name="oslash" unicode="&#xf8;" horiz-adv-x="1298" 
d="M981 993q114 -70 178 -189t64 -272q0 -248 -160.5 -397t-411.5 -149q-156 0 -284 61l-76 -115h-92l100 154q-105 72 -163 186t-58 260q0 250 159.5 399.5t413.5 149.5q139 0 260 -51l66 103h94zM252 532q0 -203 131 -315l446 688q-81 35 -178 35q-176 0 -287.5 -110.5
t-111.5 -297.5zM651 125q175 0 287.5 110t112.5 297q0 110 -40.5 195t-113.5 137l-451 -692q89 -47 205 -47z" />
    <glyph glyph-name="ugrave" unicode="&#xf9;" horiz-adv-x="1179" 
d="M553 1227l-152 325h158l121 -325h-127zM590 -14q-220 0 -341.5 119t-121.5 337v623h168v-637q0 -146 82.5 -229.5t212.5 -83.5q132 0 213.5 83.5t81.5 229.5v637h170v-623q0 -221 -122.5 -338.5t-342.5 -117.5z" />
    <glyph glyph-name="uacute" unicode="&#xfa;" horiz-adv-x="1179" 
d="M520 1227l150 325h159l-182 -325h-127zM590 -14q-220 0 -341.5 119t-121.5 337v623h168v-637q0 -146 82.5 -229.5t212.5 -83.5q132 0 213.5 83.5t81.5 229.5v637h170v-623q0 -221 -122.5 -338.5t-342.5 -117.5z" />
    <glyph glyph-name="ucircumflex" unicode="&#xfb;" horiz-adv-x="1179" 
d="M590 1448l-176 -221h-146l279 332h82l278 -332h-145zM885 1065h170v-623q0 -221 -122.5 -338.5t-342.5 -117.5t-341.5 119t-121.5 337v623h168v-637q0 -146 82.5 -229.5t212.5 -83.5q132 0 213.5 83.5t81.5 229.5v637z" />
    <glyph glyph-name="udieresis" unicode="&#xfc;" horiz-adv-x="1179" 
d="M379 1260q-47 0 -79 30t-32 76q0 49 32.5 79t80.5 30q47 0 79 -30.5t32 -78.5q0 -47 -32.5 -76.5t-80.5 -29.5zM799 1260q-48 0 -79.5 29.5t-31.5 76.5q0 49 31.5 79t81.5 30q47 0 77.5 -30t30.5 -79q0 -47 -31 -76.5t-79 -29.5zM590 -14q-220 0 -341.5 119t-121.5 337
v623h168v-637q0 -146 82.5 -229.5t212.5 -83.5q132 0 213.5 83.5t81.5 229.5v637h170v-623q0 -221 -122.5 -338.5t-342.5 -117.5z" />
    <glyph glyph-name="yacute" unicode="&#xfd;" horiz-adv-x="1105" 
d="M805 1552l-182 -325h-127l149 325h160zM907 1065h168l-563 -1413h-170l137 336l-450 1077h180l203 -500q97 -247 153 -395h4q47 125 146 395z" />
    <glyph glyph-name="thorn" unicode="&#xfe;" horiz-adv-x="1357" 
d="M152 -348v1929h170v-721q60 108 175 163.5t246 55.5q167 0 290.5 -73.5t185 -196.5t61.5 -277t-62 -276.5t-186 -196t-291 -73.5q-135 0 -247 55.5t-172 153.5v-543h-170zM711 125q178 0 286.5 110.5t108.5 296.5t-108.5 297t-284.5 111q-169 0 -282.5 -114t-113.5 -294
q0 -176 113 -291.5t281 -115.5z" />
    <glyph glyph-name="ydieresis" unicode="&#xff;" horiz-adv-x="1105" 
d="M354 1260q-47 0 -78.5 29.5t-31.5 76.5q0 49 32 79t80 30q47 0 79 -30.5t32 -78.5q0 -47 -32.5 -76.5t-80.5 -29.5zM774 1260q-48 0 -79 29.5t-31 76.5q0 49 31 79t81 30q47 0 78 -30t31 -79q0 -47 -31.5 -76.5t-79.5 -29.5zM907 1065h168l-563 -1413h-170l137 336
l-450 1077h180l203 -500q97 -247 153 -395h4q47 125 146 395z" />
    <glyph glyph-name="Amacron" unicode="&#x100;" horiz-adv-x="1515" 
d="M1065 1767v-100h-621v100h621zM1274 0l-150 369h-743l-148 -369h-180l592 1442h227l588 -1442h-186zM438 510h631l-315 780h-2z" />
    <glyph glyph-name="amacron" unicode="&#x101;" horiz-adv-x="1343" 
d="M993 1399v-101h-620v101h620zM1051 1065h155v-1065h-153l-15 229q-60 -125 -175.5 -185t-258.5 -60q-162 0 -282.5 71.5t-182 194t-61.5 278.5q0 242 144.5 397.5t389.5 155.5q148 0 259.5 -59.5t168.5 -171.5zM649 125q164 0 277.5 112.5t113.5 292.5t-112 295t-279 115
q-177 0 -286 -110.5t-109 -299.5q0 -186 109 -295.5t286 -109.5z" />
    <glyph glyph-name="Abreve" unicode="&#x102;" horiz-adv-x="1515" 
d="M756 1593q-286 0 -305 244h106q6 -80 58 -119t141 -39q186 0 198 158h109q-19 -244 -307 -244zM1274 0l-150 369h-743l-148 -369h-180l592 1442h227l588 -1442h-186zM438 510h631l-315 780h-2z" />
    <glyph glyph-name="abreve" unicode="&#x103;" horiz-adv-x="1329" 
d="M647 1241q-146 0 -231 71.5t-92 217.5h112q10 -195 211 -195t211 195h115q-7 -146 -93 -217.5t-233 -71.5zM1051 1065h155v-1065h-153l-15 229q-60 -125 -175.5 -185t-258.5 -60q-162 0 -282.5 71.5t-182 194t-61.5 278.5q0 242 144.5 397.5t389.5 155.5
q148 0 259.5 -59.5t168.5 -171.5zM649 125q164 0 277.5 112.5t113.5 292.5t-112 295t-279 115q-177 0 -286 -110.5t-109 -299.5q0 -186 109 -295.5t286 -109.5z" />
    <glyph glyph-name="Aogonek" unicode="&#x104;" horiz-adv-x="1515" 
d="M1505 -217l4 -111q-65 -16 -151 -16q-44 0 -81 8t-70 26.5t-51.5 53t-18.5 82.5q0 129 133 184l-146 359h-743l-148 -369h-180l592 1442h227l588 -1442h-12q-199 -21 -199 -139q0 -97 125 -97q53 0 131 19zM438 510h631l-315 780h-2z" />
    <glyph glyph-name="aogonek" unicode="&#x105;" horiz-adv-x="1294" 
d="M1239 -219l2 -109q-71 -18 -151 -18q-90 0 -155 43.5t-65 132.5q0 147 181 197l-13 202q-60 -125 -175.5 -185t-258.5 -60q-162 0 -282.5 71.5t-182 194t-61.5 278.5q0 242 144.5 397.5t389.5 155.5q148 0 259.5 -59.5t168.5 -171.5l11 215h155v-1065h-24
q-199 -23 -199 -141q0 -95 125 -95q61 0 131 17zM649 125q164 0 277.5 112.5t113.5 292.5t-112 295t-279 115q-177 0 -286 -110.5t-109 -299.5q0 -186 109 -295.5t286 -109.5z" />
    <glyph glyph-name="Cacute" unicode="&#x106;" horiz-adv-x="1519" 
d="M809 1575l133 246h158l-166 -246h-125zM889 -14q-228 0 -404 89.5t-274 256t-98 385.5q0 329 211.5 531t556.5 202q185 0 321.5 -55.5t247.5 -169.5l-125 -113q-175 186 -438 186q-266 0 -428 -157.5t-162 -421.5q0 -265 163 -424.5t423 -159.5q262 0 458 205l119 -115
q-236 -239 -571 -239z" />
    <glyph glyph-name="cacute" unicode="&#x107;" horiz-adv-x="1157" 
d="M545 1227l149 325h160l-182 -325h-127zM659 -14q-259 0 -420 147.5t-161 398.5q0 248 158.5 397.5t420.5 149.5q267 0 445 -172l-96 -114q-145 149 -342 149q-184 0 -297 -110t-113 -297q0 -189 114.5 -300.5t297.5 -111.5q203 0 342 151l100 -114q-100 -95 -208 -134.5
t-241 -39.5z" />
    <glyph glyph-name="Ccircumflex" unicode="&#x108;" horiz-adv-x="1519" 
d="M868 1741l-176 -160h-145l284 254h68l287 -254h-146zM1341 340l119 -115q-236 -239 -571 -239q-228 0 -404 89.5t-274 256t-98 385.5q0 329 211.5 531t556.5 202q185 0 321.5 -55.5t247.5 -169.5l-125 -113q-175 186 -438 186q-266 0 -428 -157.5t-162 -421.5
q0 -265 163 -424.5t423 -159.5q262 0 458 205z" />
    <glyph glyph-name="ccircumflex" unicode="&#x109;" horiz-adv-x="1157" 
d="M614 1448l-176 -221h-145l278 332h82l279 -332h-146zM1008 274l100 -114q-100 -95 -208 -134.5t-241 -39.5q-259 0 -420 147.5t-161 398.5q0 248 158.5 397.5t420.5 149.5q267 0 445 -172l-96 -114q-145 149 -342 149q-184 0 -297 -110t-113 -297q0 -189 114.5 -300.5
t297.5 -111.5q203 0 342 151z" />
    <glyph glyph-name="Cdotaccent" unicode="&#x10a;" horiz-adv-x="1519" 
d="M872 1628q-46 0 -78 31.5t-32 75.5q0 46 32 77t78 31q45 0 78 -31.5t33 -76.5q0 -44 -33 -75.5t-78 -31.5zM889 -14q-228 0 -404 89.5t-274 256t-98 385.5q0 329 211.5 531t556.5 202q185 0 321.5 -55.5t247.5 -169.5l-125 -113q-175 186 -438 186q-266 0 -428 -157.5
t-162 -421.5q0 -265 163 -424.5t423 -159.5q262 0 458 205l119 -115q-236 -239 -571 -239z" />
    <glyph glyph-name="cdotaccent" unicode="&#x10b;" horiz-adv-x="1157" 
d="M614 1260q-48 0 -79 29.5t-31 76.5q0 49 31 79t81 30q47 0 78 -30t31 -79q0 -47 -31.5 -76.5t-79.5 -29.5zM659 -14q-259 0 -420 147.5t-161 398.5q0 248 158.5 397.5t420.5 149.5q267 0 445 -172l-96 -114q-145 149 -342 149q-184 0 -297 -110t-113 -297
q0 -189 114.5 -300.5t297.5 -111.5q203 0 342 151l100 -114q-100 -95 -208 -134.5t-241 -39.5z" />
    <glyph glyph-name="Ccaron" unicode="&#x10c;" horiz-adv-x="1519" 
d="M952 1577h-176l-254 248h154l188 -187l191 187h153zM1341 340l119 -115q-236 -239 -571 -239q-228 0 -404 89.5t-274 256t-98 385.5q0 329 211.5 531t556.5 202q185 0 321.5 -55.5t247.5 -169.5l-125 -113q-175 186 -438 186q-266 0 -428 -157.5t-162 -421.5
q0 -265 163 -424.5t423 -159.5q262 0 458 205z" />
    <glyph glyph-name="ccaron" unicode="&#x10d;" horiz-adv-x="1157" 
d="M674 1227h-111l-264 332h145l177 -238l172 238h145zM1008 274l100 -114q-100 -95 -208 -134.5t-241 -39.5q-259 0 -420 147.5t-161 398.5q0 248 158.5 397.5t420.5 149.5q267 0 445 -172l-96 -114q-145 149 -342 149q-184 0 -297 -110t-113 -297q0 -189 114.5 -300.5
t297.5 -111.5q203 0 342 151z" />
    <glyph glyph-name="Dcaron" unicode="&#x10e;" horiz-adv-x="1536" 
d="M823 1577h-176l-254 248h154l188 -187l191 187h153zM1423 717q1 -203 -79 -365t-235.5 -257t-360.5 -95h-558v1434h558q203 0 358 -94.5t236 -257t81 -365.5zM705 141q171 0 292.5 76t179.5 205t58 299q0 256 -140 413.5t-388 157.5h-338v-1151h336z" />
    <glyph glyph-name="dcaron" unicode="&#x10f;" horiz-adv-x="1316" 
d="M1036 862v719h170v-1581h-153l-15 225q-60 -122 -175.5 -180.5t-258.5 -58.5q-165 0 -286 73t-180.5 195.5t-59.5 277.5q0 239 142.5 393t391.5 154q142 0 253.5 -56t170.5 -161zM1348 1540h125l-31 -317h-92zM649 125q166 0 278.5 113.5t112.5 293.5q0 177 -111 292.5
t-280 115.5q-179 0 -287 -111t-108 -297t108 -296.5t287 -110.5z" />
    <glyph glyph-name="Dcroat" unicode="&#x110;" horiz-adv-x="1536" 
d="M745 1434q154 0 281.5 -55t214 -151t134 -227.5t48.5 -283.5q0 -204 -80.5 -365.5t-236 -256.5t-361.5 -95h-557v666h-174v96h174v672h557zM705 141q171 0 292 76t178.5 205t57.5 299q0 256 -140 413.5t-388 157.5h-336v-530h362v-96h-362v-525h336z" />
    <glyph glyph-name="dcroat" unicode="&#x111;" horiz-adv-x="1411" 
d="M1395 1376v-82h-189v-1294h-153l-15 225q-60 -122 -175.5 -180.5t-258.5 -58.5q-165 0 -286 73t-180.5 195.5t-59.5 277.5q0 239 142.5 393t391.5 154q142 0 253.5 -56t170.5 -161v432h-321v82h321v205h170v-205h189zM649 125q166 0 278.5 113.5t112.5 293.5
q0 177 -111 292.5t-280 115.5q-179 0 -287 -111t-108 -297t108 -296.5t287 -110.5z" />
    <glyph glyph-name="Emacron" unicode="&#x112;" horiz-adv-x="1304" 
d="M387 1667v100h621v-100h-621zM190 0v1434h1006v-142h-827v-522h712v-139h-712v-490h854v-141h-1033z" />
    <glyph glyph-name="emacron" unicode="&#x113;" horiz-adv-x="1214" 
d="M928 1399v-101h-621v101h621zM1135 596q0 -56 -9 -117h-872q10 -182 124.5 -274t291.5 -92q207 0 366 151l80 -114q-190 -164 -446 -164q-283 0 -437.5 148t-154.5 398q0 159 64 282t191 194t300 71q231 0 366.5 -129t135.5 -354zM633 956q-164 0 -265.5 -94.5
t-111.5 -265.5h702q3 15 3 31q0 151 -88 240t-240 89z" />
    <glyph glyph-name="Ebreve" unicode="&#x114;" horiz-adv-x="1304" 
d="M696 1593q-286 0 -305 244h107q12 -158 198 -158q187 0 199 158h109q-19 -244 -308 -244zM190 0v1434h1006v-142h-827v-522h712v-139h-712v-490h854v-141h-1033z" />
    <glyph glyph-name="ebreve" unicode="&#x115;" horiz-adv-x="1214" 
d="M618 1241q-147 0 -232.5 71.5t-92.5 217.5h115q10 -195 210 -195q198 0 211 195h115q-9 -146 -94.5 -217.5t-231.5 -71.5zM1135 596q0 -56 -9 -117h-872q10 -182 124.5 -274t291.5 -92q207 0 366 151l80 -114q-190 -164 -446 -164q-283 0 -437.5 148t-154.5 398
q0 159 64 282t191 194t300 71q231 0 366.5 -129t135.5 -354zM633 956q-164 0 -265.5 -94.5t-111.5 -265.5h702q3 15 3 31q0 151 -88 240t-240 89z" />
    <glyph glyph-name="Edotaccent" unicode="&#x116;" horiz-adv-x="1304" 
d="M705 1628q-46 0 -78.5 31.5t-32.5 75.5q0 45 32.5 76.5t78.5 31.5q45 0 77.5 -31.5t32.5 -76.5q0 -44 -32.5 -75.5t-77.5 -31.5zM190 0v1434h1006v-142h-827v-522h712v-139h-712v-490h854v-141h-1033z" />
    <glyph glyph-name="edotaccent" unicode="&#x117;" horiz-adv-x="1214" 
d="M623 1260q-48 0 -79.5 29.5t-31.5 76.5q0 49 31.5 79t81.5 30q47 0 77.5 -30t30.5 -79q0 -47 -31 -76.5t-79 -29.5zM1135 596q0 -56 -9 -117h-872q10 -182 124.5 -274t291.5 -92q207 0 366 151l80 -114q-190 -164 -446 -164q-283 0 -437.5 148t-154.5 398q0 159 64 282
t191 194t300 71q231 0 366.5 -129t135.5 -354zM633 956q-164 0 -265.5 -94.5t-111.5 -265.5h702q3 15 3 31q0 151 -88 240t-240 89z" />
    <glyph glyph-name="Eogonek" unicode="&#x118;" horiz-adv-x="1304" 
d="M1237 -217l4 -111q-65 -16 -151 -16q-44 0 -81 8t-70 26.5t-52 53t-19 82.5q0 116 113 174h-791v1434h1006v-142h-827v-522h712v-139h-712v-490h854v-141h-43q-199 -21 -199 -139q0 -97 125 -97q53 0 131 19z" />
    <glyph glyph-name="eogonek" unicode="&#x119;" horiz-adv-x="1214" 
d="M1135 596q0 -56 -9 -117h-872q10 -182 124.5 -274t291.5 -92q207 0 366 151l80 -114q-96 -80 -184 -115q-93 -45 -126.5 -76.5t-33.5 -83.5q0 -53 30.5 -82t88.5 -29q53 0 131 46l43 -95q-84 -59 -197 -59q-38 0 -71.5 8t-66 26.5t-52 55t-19.5 88.5q0 94 70 154
q-18 -2 -59 -2q-283 0 -437.5 148t-154.5 398q0 159 64 282t191 194t300 71q231 0 366.5 -129t135.5 -354zM633 956q-164 0 -265.5 -94.5t-111.5 -265.5h702q3 15 3 31q0 151 -88 240t-240 89z" />
    <glyph glyph-name="Ecaron" unicode="&#x11a;" horiz-adv-x="1304" 
d="M784 1577h-176l-254 248h154l188 -187l191 187h153zM369 141h854v-141h-1033v1434h1006v-142h-827v-522h712v-139h-712v-490z" />
    <glyph glyph-name="ecaron" unicode="&#x11b;" horiz-adv-x="1214" 
d="M682 1227h-111l-264 332h146l176 -238l172 238h145zM1135 596q0 -56 -9 -117h-872q10 -182 124.5 -274t291.5 -92q207 0 366 151l80 -114q-190 -164 -446 -164q-283 0 -437.5 148t-154.5 398q0 159 64 282t191 194t300 71q231 0 366.5 -129t135.5 -354zM633 956
q-164 0 -265.5 -94.5t-111.5 -265.5h702q3 15 3 31q0 151 -88 240t-240 89z" />
    <glyph glyph-name="Gcircumflex" unicode="&#x11c;" horiz-adv-x="1619" 
d="M846 1741l-176 -160h-146l285 254h68l286 -254h-145zM885 725h608v-504q-117 -119 -283.5 -178t-330.5 -59q-161 0 -300.5 49.5t-243 141t-163 231.5t-59.5 311q0 334 215 533.5t573 199.5q164 0 308 -50.5t255 -146.5l-104 -125q-71 74 -192.5 123t-264.5 49
q-281 0 -440.5 -158t-159.5 -419q0 -265 161.5 -427.5t412.5 -162.5q127 0 247.5 43t196.5 111v317h-436v121z" />
    <glyph glyph-name="gcircumflex" unicode="&#x11d;" horiz-adv-x="1341" 
d="M678 1448l-176 -221h-146l279 332h82l278 -332h-145zM1061 1065h143v-903q0 -114 -32 -204.5t-87 -150t-133 -99t-165.5 -56.5t-188.5 -17q-118 0 -248 37t-223 105l59 123q82 -62 193 -101t217 -39q90 0 166.5 20t138.5 62t97.5 113.5t35.5 167.5v141
q-52 -113 -168.5 -172t-259.5 -59q-89 0 -167 19t-144.5 60t-114.5 101t-75 147t-27 193q0 131 40.5 233t113 165.5t167 95.5t207.5 32q152 0 269.5 -57t171.5 -156zM647 166q183 0 287 105t104 284q0 177 -104.5 284t-286.5 107q-187 0 -292 -106.5t-105 -284.5
t104.5 -283.5t292.5 -105.5z" />
    <glyph glyph-name="Gbreve" unicode="&#x11e;" horiz-adv-x="1619" 
d="M844 1593q-286 0 -305 244h106q6 -80 58 -119t141 -39q186 0 198 158h109q-19 -244 -307 -244zM885 725h608v-504q-117 -119 -283.5 -178t-330.5 -59q-161 0 -300.5 49.5t-243 141t-163 231.5t-59.5 311q0 334 215 533.5t573 199.5q164 0 308 -50.5t255 -146.5l-104 -125
q-71 74 -192.5 123t-264.5 49q-281 0 -440.5 -158t-159.5 -419q0 -265 161.5 -427.5t412.5 -162.5q127 0 247.5 43t196.5 111v317h-436v121z" />
    <glyph glyph-name="gbreve" unicode="&#x11f;" horiz-adv-x="1341" 
d="M676 1241q-148 0 -233.5 71.5t-92.5 217.5h115q10 -195 211 -195q198 0 211 195h114q-9 -146 -94 -217.5t-231 -71.5zM1061 1065h143v-903q0 -114 -32 -204.5t-87 -150t-133 -99t-165.5 -56.5t-188.5 -17q-118 0 -248 37t-223 105l59 123q82 -62 193 -101t217 -39
q90 0 166.5 20t138.5 62t97.5 113.5t35.5 167.5v141q-52 -113 -168.5 -172t-259.5 -59q-89 0 -167 19t-144.5 60t-114.5 101t-75 147t-27 193q0 131 40.5 233t113 165.5t167 95.5t207.5 32q152 0 269.5 -57t171.5 -156zM647 166q183 0 287 105t104 284q0 177 -104.5 284
t-286.5 107q-187 0 -292 -106.5t-105 -284.5t104.5 -283.5t292.5 -105.5z" />
    <glyph glyph-name="Gdotaccent" unicode="&#x120;" horiz-adv-x="1619" 
d="M852 1628q-46 0 -78.5 31.5t-32.5 75.5q0 45 32.5 76.5t78.5 31.5q45 0 78 -31.5t33 -76.5q0 -44 -33 -75.5t-78 -31.5zM885 725h608v-504q-117 -119 -283.5 -178t-330.5 -59q-161 0 -300.5 49.5t-243 141t-163 231.5t-59.5 311q0 334 215 533.5t573 199.5
q164 0 308 -50.5t255 -146.5l-104 -125q-71 74 -192.5 123t-264.5 49q-281 0 -440.5 -158t-159.5 -419q0 -265 161.5 -427.5t412.5 -162.5q127 0 247.5 43t196.5 111v317h-436v121z" />
    <glyph glyph-name="gdotaccent" unicode="&#x121;" horiz-adv-x="1341" 
d="M678 1260q-48 0 -79.5 29.5t-31.5 76.5q0 49 31.5 79t81.5 30q47 0 77.5 -30t30.5 -79q0 -47 -31 -76.5t-79 -29.5zM1061 1065h143v-903q0 -114 -32 -204.5t-87 -150t-133 -99t-165.5 -56.5t-188.5 -17q-118 0 -248 37t-223 105l59 123q82 -62 193 -101t217 -39
q90 0 166.5 20t138.5 62t97.5 113.5t35.5 167.5v141q-52 -113 -168.5 -172t-259.5 -59q-89 0 -167 19t-144.5 60t-114.5 101t-75 147t-27 193q0 131 40.5 233t113 165.5t167 95.5t207.5 32q152 0 269.5 -57t171.5 -156zM647 166q183 0 287 105t104 284q0 177 -104.5 284
t-286.5 107q-187 0 -292 -106.5t-105 -284.5t104.5 -283.5t292.5 -105.5z" />
    <glyph glyph-name="uni0122" unicode="&#x122;" horiz-adv-x="1619" 
d="M885 725h608v-504q-117 -119 -283.5 -178t-330.5 -59q-161 0 -300.5 49.5t-243 141t-163 231.5t-59.5 311q0 334 215 533.5t573 199.5q164 0 308 -50.5t255 -146.5l-104 -125q-71 74 -192.5 123t-264.5 49q-281 0 -440.5 -158t-159.5 -419q0 -265 161.5 -427.5
t412.5 -162.5q127 0 247.5 43t196.5 111v317h-436v121zM766 -463l31 311h125l-48 -311h-108z" />
    <glyph glyph-name="uni0123" unicode="&#x123;" horiz-adv-x="1341" 
d="M766 1528l-31 -311h-125l47 311h109zM1061 1065h143v-903q0 -114 -32 -204.5t-87 -150t-133 -99t-165.5 -56.5t-188.5 -17q-118 0 -248 37t-223 105l59 123q82 -62 193 -101t217 -39q90 0 166.5 20t138.5 62t97.5 113.5t35.5 167.5v141q-52 -113 -168.5 -172t-259.5 -59
q-89 0 -167 19t-144.5 60t-114.5 101t-75 147t-27 193q0 131 40.5 233t113 165.5t167 95.5t207.5 32q152 0 269.5 -57t171.5 -156zM647 166q183 0 287 105t104 284q0 177 -104.5 284t-286.5 107q-187 0 -292 -106.5t-105 -284.5t104.5 -283.5t292.5 -105.5z" />
    <glyph glyph-name="Hcircumflex" unicode="&#x124;" horiz-adv-x="1550" 
d="M774 1741l-176 -160h-145l284 254h68l287 -254h-146zM1182 1434h180v-1434h-180v635h-811v-635h-181v1434h181v-650h811v650z" />
    <glyph glyph-name="hcircumflex" unicode="&#x125;" horiz-adv-x="1230" 
d="M408 1729l-172 159l-177 -159h-145l285 253h67l287 -253h-145zM694 1079q197 0 300.5 -106t103.5 -297v-676h-168v639q0 143 -70.5 222t-210.5 79q-78 0 -138 -25t-95 -63.5t-57 -91t-29.5 -99.5t-7.5 -98v-563h-170v1581h170v-682q55 83 151 131.5t221 48.5z" />
    <glyph glyph-name="Hbar" unicode="&#x126;" horiz-adv-x="1566" 
d="M1505 1180v-99h-137v-1081h-180v635h-811v-635h-180v1081h-136v99h136v254h180v-254h811v254h180v-254h137zM1188 782v299h-811v-299h811z" />
    <glyph glyph-name="hbar" unicode="&#x127;" horiz-adv-x="1230" 
d="M694 1079q197 0 300.5 -106t103.5 -297v-676h-168v639q0 143 -70.5 222t-210.5 79q-78 0 -138 -25t-95 -63.5t-57 -91t-29.5 -99.5t-7.5 -98v-563h-170v1292h-156v84h156v205h170v-205h333v-84h-333v-393q55 83 151 131.5t221 48.5z" />
    <glyph glyph-name="Itilde" unicode="&#x128;" horiz-adv-x="559" 
d="M428 1642q-64 0 -158 46q-2 1 -26.5 13.5t-31.5 15.5t-26 10t-33.5 9.5t-29.5 2.5q-41 0 -71.5 -22t-41.5 -58l-63 8q16 98 68 143t124 45q68 0 160 -47q7 -3 32 -15.5t38 -18t34.5 -11.5t40.5 -6q42 0 73 23t40 59l64 -8q-14 -97 -66.5 -143t-126.5 -46zM190 0v1434h181
v-1434h-181z" />
    <glyph glyph-name="itilde" unicode="&#x129;" horiz-adv-x="471" 
d="M383 1274q-66 0 -158 45q-2 1 -26.5 13.5t-31.5 15.5t-26 10t-33.5 9.5t-29.5 2.5q-41 0 -71.5 -22t-41.5 -58l-63 8q16 98 68 143.5t124 45.5q68 0 160 -47q7 -3 32 -15.5t38 -18t34.5 -11.5t40.5 -6q42 0 73 22.5t40 58.5l63 -8q-14 -97 -66 -142.5t-126 -45.5zM152 0
v1065h170v-1065h-170z" />
    <glyph glyph-name="Imacron" unicode="&#x12a;" horiz-adv-x="559" 
d="M-31 1667v100h621v-100h-621zM190 0v1434h181v-1434h-181z" />
    <glyph glyph-name="imacron" unicode="&#x12b;" horiz-adv-x="471" 
d="M-74 1298v101h621v-101h-621zM152 0v1065h170v-1065h-170z" />
    <glyph glyph-name="Ibreve" unicode="&#x12c;" horiz-adv-x="559" 
d="M281 1593q-287 0 -306 244h107q6 -80 58 -119t141 -39q186 0 198 158h109q-19 -244 -307 -244zM190 0v1434h181v-1434h-181z" />
    <glyph glyph-name="ibreve" unicode="&#x12d;" horiz-adv-x="471" 
d="M238 1241q-148 0 -233.5 71.5t-92.5 217.5h115q10 -195 211 -195q198 0 211 195h114q-9 -146 -94 -217.5t-231 -71.5zM152 0v1065h170v-1065h-170z" />
    <glyph glyph-name="Iogonek" unicode="&#x12e;" horiz-adv-x="559" 
d="M428 -217l4 -111q-65 -16 -151 -16q-44 0 -81 8t-70 26.5t-52 53t-19 82.5q0 127 131 182v1426h181v-1434q-199 -21 -199 -139q0 -97 125 -97q53 0 131 19z" />
    <glyph glyph-name="iogonek" unicode="&#x12f;" horiz-adv-x="473" 
d="M238 1278q-54 0 -89.5 34.5t-35.5 86.5t35.5 86.5t89.5 34.5q53 0 87.5 -34.5t34.5 -86.5t-34.5 -86.5t-87.5 -34.5zM379 -217l4 -111q-65 -16 -152 -16q-44 0 -81 8t-70 26.5t-51.5 53t-18.5 82.5q0 130 142 186v1053h170v-1065q-199 -21 -199 -139q0 -97 125 -97
q53 0 131 19z" />
    <glyph glyph-name="Idotaccent" unicode="&#x130;" horiz-adv-x="559" 
d="M287 1628q-46 0 -78.5 31.5t-32.5 75.5q0 45 32.5 76.5t78.5 31.5q45 0 77.5 -31.5t32.5 -76.5q0 -44 -32.5 -75.5t-77.5 -31.5zM190 0v1434h181v-1434h-181z" />
    <glyph glyph-name="dotlessi" unicode="&#x131;" horiz-adv-x="471" 
d="M152 0v1065h170v-1065h-170z" />
    <glyph glyph-name="IJ" unicode="&#x132;" horiz-adv-x="1361" 
d="M190 0v1434h181v-1434h-181zM809 -16q-114 0 -193 22v154q93 -29 187 -29q92 0 149.5 54t57.5 169v1080h178v-1076q0 -189 -104 -281.5t-275 -92.5z" />
    <glyph glyph-name="ij" unicode="&#x133;" horiz-adv-x="1048" 
d="M238 1278q-54 0 -89.5 34.5t-35.5 86.5t35.5 86.5t89.5 34.5q53 0 87.5 -34.5t34.5 -86.5t-34.5 -86.5t-87.5 -34.5zM813 1278q-54 0 -89.5 34.5t-35.5 86.5t35.5 86.5t89.5 34.5q53 0 88 -34.5t35 -86.5t-35 -86.5t-88 -34.5zM152 0v1065h170v-1065h-170zM629 -365
q-101 0 -176 37l26 131q75 -32 119 -32q64 0 97.5 33t33.5 114v1147h168v-1153q0 -75 -22 -130.5t-60.5 -86.5t-84.5 -45.5t-101 -14.5z" />
    <glyph glyph-name="Jcircumflex" unicode="&#x134;" horiz-adv-x="802" 
d="M569 1835l287 -254h-145l-172 160l-177 -160h-145l285 254h67zM451 354v1080h178v-1076q0 -189 -104 -281.5t-275 -92.5q-114 0 -193 22v154q93 -29 187 -29q92 0 149.5 54t57.5 169z" />
    <glyph glyph-name="jcircumflex" unicode="&#x135;" horiz-adv-x="550" 
d="M397 1559l279 -332h-146l-174 221l-174 -221h-145l278 332h82zM274 -78v1143h168v-1147q0 -76 -23 -131.5t-64.5 -86t-91.5 -44.5t-111 -14q-95 0 -172 24l6 125q66 -24 137 -24q73 0 112 34.5t39 120.5z" />
    <glyph glyph-name="uni0136" unicode="&#x136;" horiz-adv-x="1331" 
d="M750 723l553 -723h-207l-484 635h-250v-635h-172v1434h172v-646h246l490 646h192zM625 -463l30 311h125l-47 -311h-108z" />
    <glyph glyph-name="uni0137" unicode="&#x137;" horiz-adv-x="1107" 
d="M639 543l440 -543h-196l-369 471h-192v-471h-170v1581h170v-975l188 -2l367 461h188zM459 -463l30 311h125l-47 -311h-108z" />
    <glyph glyph-name="kgreenlandic" unicode="&#x138;" horiz-adv-x="1103" 
d="M1075 0h-196l-369 471h-193v-471h-165v1065h165v-459l189 -2l366 461h189l-426 -520z" />
    <glyph glyph-name="Lacute" unicode="&#x139;" horiz-adv-x="1153" 
d="M221 1575l133 246h158l-166 -246h-125zM190 0v1434h179v-1291h755v-143h-934z" />
    <glyph glyph-name="lacute" unicode="&#x13a;" horiz-adv-x="473" 
d="M176 1669l133 246h158l-166 -246h-125zM152 0v1581h170v-1581h-170z" />
    <glyph glyph-name="uni013B" unicode="&#x13b;" horiz-adv-x="1153" 
d="M190 0v1434h179v-1291h755v-143h-934zM557 -463l31 311h125l-47 -311h-109z" />
    <glyph glyph-name="uni013C" unicode="&#x13c;" horiz-adv-x="473" 
d="M152 0v1581h170v-1581h-170zM147 -463l31 311h125l-47 -311h-109z" />
    <glyph glyph-name="Lcaron" unicode="&#x13d;" horiz-adv-x="1153" 
d="M727 1194v322h117l-35 -322h-82zM190 0v1434h179v-1291h755v-143h-934z" />
    <glyph glyph-name="lcaron" unicode="&#x13e;" horiz-adv-x="690" 
d="M152 0v1581h170v-1581h-170zM506 1235l-2 319h125l-31 -319h-92z" />
    <glyph glyph-name="Lslash" unicode="&#x141;" horiz-adv-x="1171" 
d="M387 143h754v-143h-932v590l-189 -113v125l189 115v717h178v-609l313 191v-129l-313 -189v-555z" />
    <glyph glyph-name="lslash" unicode="&#x142;" horiz-adv-x="620" 
d="M590 885v-99l-201 -118v-668h-168v567l-190 -112v100l190 111v915h168v-815z" />
    <glyph glyph-name="Nacute" unicode="&#x143;" horiz-adv-x="1550" 
d="M1032 1821l-166 -246h-125l133 246h158zM1188 1434h174v-1434h-154l-860 1182v-4q14 -243 14 -408v-770h-172v1434h154l856 -1168q-12 174 -12 441v727z" />
    <glyph glyph-name="nacute" unicode="&#x144;" horiz-adv-x="1230" 
d="M866 1552l-182 -325h-127l150 325h159zM690 1079q201 0 304.5 -105.5t103.5 -297.5v-676h-168v639q0 143 -70.5 222t-210.5 79q-78 0 -138 -25t-95 -63.5t-57 -91t-29.5 -99.5t-7.5 -98v-563h-170v1065h149l8 -191q48 93 146.5 149t234.5 56z" />
    <glyph glyph-name="uni0145" unicode="&#x145;" horiz-adv-x="1550" 
d="M1188 1434h174v-1434h-154l-860 1182v-4q14 -243 14 -408v-770h-172v1434h154l856 -1168q-12 174 -12 441v727zM676 -463l31 311h124l-47 -311h-108z" />
    <glyph glyph-name="uni0146" unicode="&#x146;" horiz-adv-x="1230" 
d="M690 1079q201 0 304.5 -105.5t103.5 -297.5v-676h-168v639q0 143 -70.5 222t-210.5 79q-78 0 -138 -25t-95 -63.5t-57 -91t-29.5 -99.5t-7.5 -98v-563h-170v1065h149l8 -191q48 93 146.5 149t234.5 56zM526 -463l31 311h125l-47 -311h-109z" />
    <glyph glyph-name="Ncaron" unicode="&#x147;" horiz-adv-x="1550" 
d="M885 1577h-176l-254 248h153l189 -187l190 187h154zM1188 1434h174v-1434h-154l-860 1182v-4q14 -243 14 -408v-770h-172v1434h154l856 -1168q-12 174 -12 441v727z" />
    <glyph glyph-name="ncaron" unicode="&#x148;" horiz-adv-x="1230" 
d="M688 1227h-110l-265 332h146l176 -238l172 238h145zM690 1079q201 0 304.5 -105.5t103.5 -297.5v-676h-168v639q0 143 -70.5 222t-210.5 79q-78 0 -138 -25t-95 -63.5t-57 -91t-29.5 -99.5t-7.5 -98v-563h-170v1065h149l8 -191q48 93 146.5 149t234.5 56z" />
    <glyph glyph-name="Eng" unicode="&#x14a;" horiz-adv-x="1550" 
d="M1188 1434h172v-1500q0 -81 -23 -139.5t-65 -90.5t-91.5 -47t-109.5 -15q-99 0 -172 24l4 125q66 -24 139 -24q72 0 111 39t39 133v86l-844 1157v-4q14 -243 14 -408v-770h-172l-2 1434h154l858 -1168v4q-12 172 -12 437v727z" />
    <glyph glyph-name="eng" unicode="&#x14b;" horiz-adv-x="1230" 
d="M807 -358q-95 0 -172 24l4 125q70 -24 139 -24q73 0 112.5 39t39.5 133v700q0 143 -70.5 222t-210.5 79q-78 0 -138 -25t-95 -63.5t-57 -91t-29.5 -99.5t-7.5 -98v-563h-170v1065h149l8 -193q49 93 149 150t236 57q197 0 300.5 -106t103.5 -297v-748q-1 -78 -24.5 -135.5
t-65 -89.5t-91.5 -46.5t-110 -14.5z" />
    <glyph glyph-name="Omacron" unicode="&#x14c;" horiz-adv-x="1751" 
d="M565 1667v100h621v-100h-621zM874 -16q-224 0 -397 91.5t-268.5 257.5t-95.5 382t95.5 383.5t269 259.5t396.5 92q342 0 552 -203t210 -532q0 -327 -210 -529t-552 -202zM874 137q257 0 417.5 156t160.5 420q0 265 -160.5 424t-417.5 159q-253 0 -414 -158.5t-161 -424.5
q0 -263 161 -419.5t414 -156.5z" />
    <glyph glyph-name="omacron" unicode="&#x14d;" horiz-adv-x="1298" 
d="M340 1298v101h621v-101h-621zM651 -16q-252 0 -412.5 149.5t-160.5 396.5q0 250 159.5 399.5t413.5 149.5q251 0 411.5 -151t160.5 -398t-160.5 -396.5t-411.5 -149.5zM651 125q176 0 288 109t112 296t-112.5 298.5t-287.5 111.5q-176 0 -287.5 -111t-111.5 -299
q0 -187 111 -296t288 -109z" />
    <glyph glyph-name="Obreve" unicode="&#x14e;" horiz-adv-x="1751" 
d="M874 1593q-286 0 -305 244h107q12 -158 198 -158q187 0 199 158h109q-19 -244 -308 -244zM874 -16q-224 0 -397 91.5t-268.5 257.5t-95.5 382t95.5 383.5t269 259.5t396.5 92q342 0 552 -203t210 -532q0 -327 -210 -529t-552 -202zM874 137q257 0 417.5 156t160.5 420
q0 265 -160.5 424t-417.5 159q-253 0 -414 -158.5t-161 -424.5q0 -263 161 -419.5t414 -156.5z" />
    <glyph glyph-name="obreve" unicode="&#x14f;" horiz-adv-x="1298" 
d="M651 1241q-147 0 -232.5 71.5t-92.5 217.5h114q10 -195 211 -195q198 0 211 195h115q-9 -146 -94.5 -217.5t-231.5 -71.5zM651 -16q-252 0 -412.5 149.5t-160.5 396.5q0 250 159.5 399.5t413.5 149.5q251 0 411.5 -151t160.5 -398t-160.5 -396.5t-411.5 -149.5zM651 125
q176 0 288 109t112 296t-112.5 298.5t-287.5 111.5q-176 0 -287.5 -111t-111.5 -299q0 -187 111 -296t288 -109z" />
    <glyph glyph-name="Ohungarumlaut" unicode="&#x150;" horiz-adv-x="1751" 
d="M639 1575l127 244h158l-160 -244h-125zM938 1575l127 244h158l-160 -244h-125zM874 -16q-224 0 -397 91.5t-268.5 257.5t-95.5 382t95.5 383.5t269 259.5t396.5 92q342 0 552 -203t210 -532q0 -327 -210 -529t-552 -202zM874 137q257 0 417.5 156t160.5 420
q0 265 -160.5 424t-417.5 159q-253 0 -414 -158.5t-161 -424.5q0 -263 161 -419.5t414 -156.5z" />
    <glyph glyph-name="ohungarumlaut" unicode="&#x151;" horiz-adv-x="1298" 
d="M416 1227l119 325h159l-153 -325h-125zM715 1227l119 325h159l-153 -325h-125zM651 -16q-252 0 -412.5 149.5t-160.5 396.5q0 250 159.5 399.5t413.5 149.5q251 0 411.5 -151t160.5 -398t-160.5 -396.5t-411.5 -149.5zM651 125q176 0 288 109t112 296t-112.5 298.5
t-287.5 111.5q-176 0 -287.5 -111t-111.5 -299q0 -187 111 -296t288 -109z" />
    <glyph glyph-name="OE" unicode="&#x152;" horiz-adv-x="2281" 
d="M918 0q-366 0 -585.5 193t-219.5 522q0 219 100.5 382.5t282.5 250t422 86.5h1255v-136h-838v-532h723v-135h-723v-496h867v-135h-1284zM918 137h245v1157h-245q-283 0 -453 -152t-170 -429q0 -274 169.5 -425t453.5 -151z" />
    <glyph glyph-name="oe" unicode="&#x153;" horiz-adv-x="2242" 
d="M2163 596q0 -56 -9 -117h-872q10 -182 124.5 -274t291.5 -92q207 0 366 151l78 -114q-188 -164 -444 -164q-197 0 -333 73.5t-202 208.5q-69 -135 -203.5 -209.5t-308.5 -74.5q-252 0 -412.5 149.5t-160.5 396.5q0 250 159.5 399.5t413.5 149.5q173 0 307 -74t203 -208
q63 132 191.5 207t308.5 75q230 0 366 -129.5t136 -353.5zM1661 956q-164 0 -265.5 -94.5t-111.5 -265.5h703q2 10 2 31q0 151 -88 240t-240 89zM651 125q176 0 288 109t112 296t-112.5 298.5t-287.5 111.5q-176 0 -287.5 -111t-111.5 -299q0 -187 111 -296t288 -109z" />
    <glyph glyph-name="Racute" unicode="&#x154;" horiz-adv-x="1423" 
d="M864 1821l-166 -246h-125l134 246h157zM1321 963q0 -144 -88 -267t-240 -174l310 -522h-197l-283 494h-16h-438v-494h-179v1434h615q118 0 217.5 -40t163.5 -106.5t99.5 -150.5t35.5 -174zM369 1292v-659h405q164 0 261.5 96.5t97.5 233.5q0 139 -96 234t-263 95h-405z
" />
    <glyph glyph-name="racute" unicode="&#x155;" horiz-adv-x="747" 
d="M623 1552l-183 -325h-127l150 325h160zM610 1077q58 0 105 -12l-4 -139q-62 12 -103 12q-73 0 -129 -39t-89.5 -106.5t-50.5 -153.5t-17 -186v-453h-170v1065h141l14 -270q34 125 110 203.5t193 78.5z" />
    <glyph glyph-name="uni0156" unicode="&#x156;" horiz-adv-x="1423" 
d="M1321 963q0 -144 -88 -267t-240 -174l310 -522h-197l-283 494h-16h-438v-494h-179v1434h615q118 0 217.5 -40t163.5 -106.5t99.5 -150.5t35.5 -174zM369 1292v-659h405q164 0 261.5 96.5t97.5 233.5q0 139 -96 234t-263 95h-405zM633 -463l31 311h124l-47 -311h-108z" />
    <glyph glyph-name="uni0157" unicode="&#x157;" horiz-adv-x="747" 
d="M610 1077q58 0 105 -12l-4 -139q-62 12 -103 12q-73 0 -129 -39t-89.5 -106.5t-50.5 -153.5t-17 -186v-453h-170v1065h141l14 -270q34 125 110 203.5t193 78.5zM141 -463l31 311h125l-47 -311h-109z" />
    <glyph glyph-name="Rcaron" unicode="&#x158;" horiz-adv-x="1423" 
d="M717 1577h-176l-254 248h153l189 -187l190 187h154zM1321 963q0 -144 -88 -267t-240 -174l310 -522h-197l-283 494h-16h-438v-494h-179v1434h615q118 0 217.5 -40t163.5 -106.5t99.5 -150.5t35.5 -174zM369 1292v-659h405q164 0 261.5 96.5t97.5 233.5q0 139 -96 234
t-263 95h-405z" />
    <glyph glyph-name="rcaron" unicode="&#x159;" horiz-adv-x="747" 
d="M442 1227h-110l-264 332h145l176 -238l172 238h146zM610 1077q58 0 105 -12l-4 -139q-62 12 -103 12q-73 0 -129 -39t-89.5 -106.5t-50.5 -153.5t-17 -186v-453h-170v1065h141l14 -270q34 125 110 203.5t193 78.5z" />
    <glyph glyph-name="Sacute" unicode="&#x15a;" horiz-adv-x="1261" 
d="M559 1575l133 246h158l-166 -246h-125zM641 -14q-342 0 -569 235l106 119q201 -215 461 -215q150 0 237 64t87 184q0 39 -12 71.5t-30 56t-52 45t-62 35t-78.5 28.5t-84 23.5t-93.5 22.5q-74 18 -134 41t-116 58t-93.5 78.5t-60 104t-22.5 132.5q0 80 26 144.5t72 108
t109.5 73t136.5 42.5t156 13q143 0 271.5 -45t229.5 -123l-86 -123q-197 156 -411 156q-137 0 -225.5 -59t-88.5 -179q0 -38 10.5 -70t26 -55.5t44 -45t54.5 -35.5t67.5 -29t73.5 -24.5t81 -22.5q64 -18 104.5 -30.5t97 -34t92 -42.5t75 -52.5t62 -67t37.5 -84t15 -105.5
q0 -82 -26 -148t-72.5 -111t-111.5 -75.5t-141 -44.5t-163 -14z" />
    <glyph glyph-name="sacute" unicode="&#x15b;" horiz-adv-x="1040" 
d="M467 1227l149 325h160l-182 -325h-127zM541 -16q-305 0 -482 221l119 100q137 -192 361 -192q245 0 245 170q0 26 -8 47t-18.5 36.5t-34.5 29.5t-42.5 22.5t-56.5 19t-61.5 15.5t-72.5 16q-25 5 -37 8q-153 35 -242.5 112t-89.5 202q0 78 32.5 136t89.5 90.5t124.5 48
t146.5 15.5q126 0 241 -45t195 -121l-94 -108q-156 147 -332 147q-104 0 -166.5 -37t-62.5 -120q0 -37 15.5 -67t38.5 -49t62 -35.5t71.5 -25.5t82.5 -20q166 -39 235 -72q160 -80 161 -241q0 -77 -33 -136t-91.5 -95t-133 -54t-162.5 -18z" />
    <glyph glyph-name="Scircumflex" unicode="&#x15c;" horiz-adv-x="1261" 
d="M618 1741l-176 -160h-145l285 254h67l287 -254h-145zM672 795q64 -18 104.5 -30.5t97 -34t92 -42.5t75 -52.5t62 -67t37.5 -84t15 -105.5q0 -82 -26 -148t-72.5 -111t-111.5 -75.5t-141 -44.5t-163 -14q-342 0 -569 235l106 119q201 -215 461 -215q150 0 237 64t87 184
q0 39 -12 71.5t-30 56t-52 45t-62 35t-78.5 28.5t-84 23.5t-93.5 22.5q-74 18 -134 41t-116 58t-93.5 78.5t-60 104t-22.5 132.5q0 80 26 144.5t72 108t109.5 73t136.5 42.5t156 13q143 0 271.5 -45t229.5 -123l-86 -123q-197 156 -411 156q-137 0 -225.5 -59t-88.5 -179
q0 -38 10.5 -70t26 -55.5t44 -45t54.5 -35.5t67.5 -29t73.5 -24.5t81 -22.5z" />
    <glyph glyph-name="scircumflex" unicode="&#x15d;" horiz-adv-x="1040" 
d="M537 1448l-177 -221h-145l279 332h81l279 -332h-145zM565 600q166 -39 235 -72q160 -80 161 -241q0 -77 -33 -136t-91.5 -95t-133 -54t-162.5 -18q-305 0 -482 221l119 100q137 -192 361 -192q245 0 245 170q0 26 -8 47t-18.5 36.5t-34.5 29.5t-42.5 22.5t-56.5 19
t-61.5 15.5t-72.5 16q-25 5 -37 8q-153 35 -242.5 112t-89.5 202q0 78 32.5 136t89.5 90.5t124.5 48t146.5 15.5q126 0 241 -45t195 -121l-94 -108q-156 147 -332 147q-104 0 -166.5 -37t-62.5 -120q0 -37 15.5 -67t38.5 -49t62 -35.5t71.5 -25.5t82.5 -20z" />
    <glyph glyph-name="Scedilla" unicode="&#x15e;" horiz-adv-x="1261" 
d="M1155 379q0 -81 -26 -146.5t-71.5 -110.5t-109.5 -76t-138.5 -45t-160.5 -15l-26 -95q30 1 57.5 -1.5t62 -12.5t59 -27.5t41.5 -51t17 -79.5q0 -48 -22.5 -83.5t-61 -53.5t-80.5 -26.5t-90 -8.5q-109 0 -188 23l6 86q27 -9 78 -19t90 -10q23 0 45.5 3.5t48.5 13.5
t41.5 31.5t15.5 52.5q0 35 -16.5 58t-49 34.5t-70 16t-89.5 3.5l43 150q-288 22 -489 231l106 119q201 -215 461 -215q150 0 237 64t87 184q0 39 -12 71.5t-30 56t-52 45t-62 35t-78.5 28.5t-84 23.5t-93.5 22.5q-74 18 -134 41t-116 58t-93.5 78.5t-60 104t-22.5 132.5
q0 80 26 144.5t72 108t109.5 73t136.5 42.5t156 13q143 0 271.5 -45t229.5 -123l-86 -123q-197 156 -411 156q-137 0 -225.5 -59t-88.5 -179q0 -38 10.5 -70t26 -55.5t44 -45t54.5 -35.5t67.5 -29t73.5 -24.5t81 -22.5q64 -18 104.5 -30.5t97 -34t92 -42.5t75 -52.5t62 -67
t37.5 -84t15 -105.5z" />
    <glyph glyph-name="scedilla" unicode="&#x15f;" horiz-adv-x="1040" 
d="M961 287q0 -101 -57 -170.5t-147.5 -100.5t-207.5 -32l-27 -93q30 1 57.5 -1.5t62 -12.5t59.5 -27.5t42 -51t17 -79.5q0 -48 -22.5 -83.5t-61 -53.5t-80.5 -26.5t-90 -8.5q-110 0 -189 23l7 86q27 -9 78 -19t90 -10q23 0 45.5 3.5t48.5 13.5t41.5 31.5t15.5 52.5
q0 35 -16.5 58t-49 34.5t-70 16t-89.5 3.5l43 148q-248 25 -402 217l119 100q137 -192 361 -192q245 0 245 170q0 26 -8 47t-18.5 36.5t-34.5 29.5t-42.5 22.5t-56.5 19t-61.5 15.5t-72.5 16q-25 5 -37 8q-153 35 -242.5 112t-89.5 202q0 78 32.5 136t89.5 90.5t124.5 48
t146.5 15.5q126 0 241 -45t195 -121l-94 -108q-156 147 -332 147q-104 0 -166.5 -37t-62.5 -120q0 -37 15.5 -67t38.5 -49t62 -35.5t71.5 -25.5t82.5 -20q166 -39 235 -72q160 -80 161 -241z" />
    <glyph glyph-name="Scaron" unicode="&#x160;" horiz-adv-x="1261" 
d="M705 1577h-177l-254 248h154l188 -187l191 187h154zM672 795q64 -18 104.5 -30.5t97 -34t92 -42.5t75 -52.5t62 -67t37.5 -84t15 -105.5q0 -82 -26 -148t-72.5 -111t-111.5 -75.5t-141 -44.5t-163 -14q-342 0 -569 235l106 119q201 -215 461 -215q150 0 237 64t87 184
q0 39 -12 71.5t-30 56t-52 45t-62 35t-78.5 28.5t-84 23.5t-93.5 22.5q-74 18 -134 41t-116 58t-93.5 78.5t-60 104t-22.5 132.5q0 80 26 144.5t72 108t109.5 73t136.5 42.5t156 13q143 0 271.5 -45t229.5 -123l-86 -123q-197 156 -411 156q-137 0 -225.5 -59t-88.5 -179
q0 -38 10.5 -70t26 -55.5t44 -45t54.5 -35.5t67.5 -29t73.5 -24.5t81 -22.5z" />
    <glyph glyph-name="scaron" unicode="&#x161;" horiz-adv-x="1040" 
d="M596 1227h-111l-264 332h146l176 -238l172 238h145zM565 600q166 -39 235 -72q160 -80 161 -241q0 -77 -33 -136t-91.5 -95t-133 -54t-162.5 -18q-305 0 -482 221l119 100q137 -192 361 -192q245 0 245 170q0 26 -8 47t-18.5 36.5t-34.5 29.5t-42.5 22.5t-56.5 19
t-61.5 15.5t-72.5 16q-25 5 -37 8q-153 35 -242.5 112t-89.5 202q0 78 32.5 136t89.5 90.5t124.5 48t146.5 15.5q126 0 241 -45t195 -121l-94 -108q-156 147 -332 147q-104 0 -166.5 -37t-62.5 -120q0 -37 15.5 -67t38.5 -49t62 -35.5t71.5 -25.5t82.5 -20z" />
    <glyph glyph-name="uni0162" unicode="&#x162;" horiz-adv-x="1236" 
d="M528 0v1292h-493v142h1167v-142h-493v-1292h-181zM528 -463l31 311h125l-47 -311h-109z" />
    <glyph glyph-name="uni0163" unicode="&#x163;" horiz-adv-x="882" 
d="M575 -14q-296 0 -296 329v621h-254v129h133q74 0 104.5 35.5t30.5 107.5v191h153v-334h375v-129h-375v-608q0 -34 2 -58.5t11.5 -55t26 -49.5t47.5 -32.5t75 -13.5q100 0 217 20l4 -133q-88 -20 -254 -20zM428 -463l31 311h125l-47 -311h-109z" />
    <glyph glyph-name="Tcaron" unicode="&#x164;" horiz-adv-x="1236" 
d="M705 1577h-177l-254 248h154l188 -187l191 187h154zM35 1434h1167v-142h-493v-1292h-181v1292h-493v142z" />
    <glyph glyph-name="tcaron" unicode="&#x165;" horiz-adv-x="808" 
d="M608 1235l-2 319h125l-31 -319h-92zM520 -14q-154 0 -225.5 74.5t-71.5 254.5v627h-198v123h204l21 307h141v-307h363v-123h-363v-616q0 -121 40.5 -167t137.5 -46q78 0 185 39l6 -136q-36 -13 -109.5 -21.5t-130.5 -8.5z" />
    <glyph glyph-name="Tbar" unicode="&#x166;" horiz-adv-x="1236" 
d="M1202 1292h-493v-520h340v-82h-340v-690h-181v690h-338v82h338v520h-493v142h1167v-142z" />
    <glyph glyph-name="tbar" unicode="&#x167;" horiz-adv-x="882" 
d="M825 139l4 -133q-88 -20 -254 -20q-296 0 -296 329v347h-246v63h246v211h-254v129h133q74 0 104.5 35.5t30.5 107.5v191h153v-334h375v-129h-375v-211h375v-63h-375v-334q0 -34 2 -58.5t11.5 -55t26 -49.5t47.5 -32.5t75 -13.5q100 0 217 20z" />
    <glyph glyph-name="Utilde" unicode="&#x168;" horiz-adv-x="1480" 
d="M889 1642q-64 0 -158 46q-2 1 -26.5 13.5t-31.5 15.5t-26 10t-33.5 9.5t-29.5 2.5q-41 0 -71.5 -22t-41.5 -58l-63 8q16 98 68 143t124 45q68 0 160 -47q7 -3 32 -15.5t38 -18t34.5 -11.5t40.5 -6q42 0 73 23t40 59l63 -8q-14 -97 -66 -143t-126 -46zM741 -16
q-258 0 -413.5 152t-155.5 417v881h180v-871q0 -208 107 -322t282 -114t281 114.5t106 321.5v871h181v-881q0 -182 -75 -312t-202 -193.5t-291 -63.5z" />
    <glyph glyph-name="utilde" unicode="&#x169;" horiz-adv-x="1179" 
d="M735 1274q-65 0 -157 45q-5 2 -23 11.5t-25 12.5t-23 10t-26 9.5t-24 5t-27 2.5q-41 0 -71.5 -22t-41.5 -58l-63 8q16 98 68 143.5t124 45.5q68 0 160 -47l32 -16t38.5 -18t34.5 -11t41 -6q42 0 72.5 22.5t39.5 58.5l64 -8q-14 -97 -66 -142.5t-127 -45.5zM590 -14
q-220 0 -341.5 119t-121.5 337v623h168v-637q0 -146 82.5 -229.5t212.5 -83.5q132 0 213.5 83.5t81.5 229.5v637h170v-623q0 -221 -122.5 -338.5t-342.5 -117.5z" />
    <glyph glyph-name="Umacron" unicode="&#x16a;" horiz-adv-x="1480" 
d="M430 1667v100h621v-100h-621zM741 -16q-258 0 -413.5 152t-155.5 417v881h180v-871q0 -208 107 -322t282 -114t281 114.5t106 321.5v871h181v-881q0 -182 -75 -312t-202 -193.5t-291 -63.5z" />
    <glyph glyph-name="umacron" unicode="&#x16b;" horiz-adv-x="1179" 
d="M276 1298v101h621v-101h-621zM590 -14q-220 0 -341.5 119t-121.5 337v623h168v-637q0 -146 82.5 -229.5t212.5 -83.5q132 0 213.5 83.5t81.5 229.5v637h170v-623q0 -221 -122.5 -338.5t-342.5 -117.5z" />
    <glyph glyph-name="Ubreve" unicode="&#x16c;" horiz-adv-x="1480" 
d="M741 1593q-286 0 -305 244h107q12 -158 198 -158q187 0 199 158h109q-19 -244 -308 -244zM741 -16q-258 0 -413.5 152t-155.5 417v881h180v-871q0 -208 107 -322t282 -114t281 114.5t106 321.5v871h181v-881q0 -182 -75 -312t-202 -193.5t-291 -63.5z" />
    <glyph glyph-name="ubreve" unicode="&#x16d;" horiz-adv-x="1179" 
d="M588 1241q-148 0 -233.5 71.5t-92.5 217.5h115q10 -195 211 -195q198 0 211 195h114q-9 -146 -94 -217.5t-231 -71.5zM590 -14q-220 0 -341.5 119t-121.5 337v623h168v-637q0 -146 82.5 -229.5t212.5 -83.5q132 0 213.5 83.5t81.5 229.5v637h170v-623
q0 -221 -122.5 -338.5t-342.5 -117.5z" />
    <glyph glyph-name="Uring" unicode="&#x16e;" horiz-adv-x="1480" 
d="M741 1597q-95 0 -159 54.5t-64 148.5q0 97 63.5 151t159.5 54q97 0 160.5 -54t63.5 -151q0 -94 -64 -148.5t-160 -54.5zM741 1675q56 0 91.5 33.5t35.5 91.5q0 61 -35.5 94t-91.5 33t-91.5 -33t-35.5 -94q0 -58 35.5 -91.5t91.5 -33.5zM741 -16q-258 0 -413.5 152
t-155.5 417v881h180v-871q0 -208 107 -322t282 -114t281 114.5t106 321.5v871h181v-881q0 -182 -75 -312t-202 -193.5t-291 -63.5z" />
    <glyph glyph-name="uring" unicode="&#x16f;" horiz-adv-x="1179" 
d="M588 1229q-95 0 -159 54.5t-64 148.5q0 97 63.5 150.5t159.5 53.5q97 0 160 -53.5t63 -150.5q0 -94 -63.5 -148.5t-159.5 -54.5zM588 1307q56 0 91.5 33.5t35.5 91.5q0 61 -35.5 94t-91.5 33t-91.5 -33t-35.5 -94q0 -58 35.5 -91.5t91.5 -33.5zM590 -14
q-220 0 -341.5 119t-121.5 337v623h168v-637q0 -146 82.5 -229.5t212.5 -83.5q132 0 213.5 83.5t81.5 229.5v637h170v-623q0 -221 -122.5 -338.5t-342.5 -117.5z" />
    <glyph glyph-name="Uhungarumlaut" unicode="&#x170;" horiz-adv-x="1480" 
d="M506 1575l127 244h158l-160 -244h-125zM805 1575l127 244h158l-160 -244h-125zM741 -16q-258 0 -413.5 152t-155.5 417v881h180v-871q0 -208 107 -322t282 -114t281 114.5t106 321.5v871h181v-881q0 -182 -75 -312t-202 -193.5t-291 -63.5z" />
    <glyph glyph-name="uhungarumlaut" unicode="&#x171;" horiz-adv-x="1179" 
d="M352 1227l119 325h160l-154 -325h-125zM651 1227l119 325h160l-154 -325h-125zM590 -14q-220 0 -341.5 119t-121.5 337v623h168v-637q0 -146 82.5 -229.5t212.5 -83.5q132 0 213.5 83.5t81.5 229.5v637h170v-623q0 -221 -122.5 -338.5t-342.5 -117.5z" />
    <glyph glyph-name="Uogonek" unicode="&#x172;" horiz-adv-x="1480" 
d="M1128 1434h181v-881q0 -222 -108 -363.5t-292 -187.5q-123 -33 -123 -125q0 -96 125 -96q57 0 131 18l5 -110q-69 -17 -152 -17q-44 0 -81 8t-70 26.5t-51.5 53t-18.5 82.5q0 89 63 142q-257 2 -411 153.5t-154 415.5v881h180v-871q0 -208 107 -322t282 -114t281 114.5
t106 321.5v871z" />
    <glyph glyph-name="uogonek" unicode="&#x173;" horiz-adv-x="1241" 
d="M885 1065h170v-623q0 -181 -84 -293.5t-238 -148.5h-6q-30 -7 -53 -10q-137 -30 -137 -129q0 -97 125 -97q53 0 131 19l2 -111q-65 -16 -152 -16q-44 0 -81 8t-69 26.5t-50.5 53t-18.5 82.5q0 108 92 164q-187 20 -288 136.5t-101 315.5v623h168v-637q0 -146 82.5 -229.5
t212.5 -83.5q132 0 213.5 83.5t81.5 229.5v637z" />
    <glyph glyph-name="Wcircumflex" unicode="&#x174;" horiz-adv-x="2023" 
d="M1014 1741l-176 -160h-146l285 254h67l287 -254h-145zM1819 1434h163l-407 -1434h-246l-315 1188h-8l-314 -1188h-243l-410 1434h186l353 -1250h8l327 1250h209l332 -1250h8z" />
    <glyph glyph-name="wcircumflex" unicode="&#x175;" horiz-adv-x="1656" 
d="M834 1444l-177 -221h-145l279 331h81l279 -331h-145zM1464 1065h156l-324 -1075h-209l-143 483l-106 389l-111 -391l-145 -481h-211l-320 1075h164l150 -510l116 -414l117 414l152 518h182l147 -518l117 -416l117 416z" />
    <glyph glyph-name="Ycircumflex" unicode="&#x176;" horiz-adv-x="1320" 
d="M662 1741l-177 -160h-145l285 254h67l287 -254h-145zM1288 1434l-536 -881l-2 -553h-181l2 547l-538 887h190l441 -736l442 736h182z" />
    <glyph glyph-name="ycircumflex" unicode="&#x177;" horiz-adv-x="1105" 
d="M565 1448l-176 -221h-145l278 332h82l279 -332h-146zM907 1065h168l-563 -1413h-170l137 336l-450 1077h180l203 -500q97 -247 153 -395h4q47 125 146 395z" />
    <glyph glyph-name="Ydieresis" unicode="&#x178;" horiz-adv-x="1320" 
d="M453 1630q-48 0 -78.5 30t-30.5 79t30.5 78.5t78.5 29.5t78 -29.5t30 -78.5t-30 -79t-78 -30zM870 1630q-46 0 -76 30t-30 79t30 78.5t78 29.5q47 0 77 -29.5t30 -78.5t-30.5 -79t-78.5 -30zM1288 1434l-536 -881l-2 -553h-181l2 547l-538 887h190l441 -736l442 736h182z
" />
    <glyph glyph-name="Zacute" unicode="&#x179;" horiz-adv-x="1243" 
d="M852 1821l-166 -246h-125l133 246h158zM1165 1434v-119l-884 -1180l434 6h450v-141h-1102v121l885 1177l-434 -6h-420v142h1071z" />
    <glyph glyph-name="zacute" unicode="&#x17a;" horiz-adv-x="1038" 
d="M754 1552l-183 -325h-127l150 325h160zM965 131v-131h-895v115l686 823l-674 -2v129h879v-115l-687 -821z" />
    <glyph glyph-name="Zdotaccent" unicode="&#x17b;" horiz-adv-x="1243" 
d="M627 1628q-46 0 -78.5 31.5t-32.5 75.5q0 45 32.5 76.5t78.5 31.5q45 0 77.5 -31.5t32.5 -76.5q0 -44 -32.5 -75.5t-77.5 -31.5zM1165 1434v-119l-884 -1180l434 6h450v-141h-1102v121l885 1177l-434 -6h-420v142h1071z" />
    <glyph glyph-name="zdotaccent" unicode="&#x17c;" horiz-adv-x="1038" 
d="M514 1260q-48 0 -79.5 29.5t-31.5 76.5q0 49 31.5 79t81.5 30q47 0 78 -30t31 -79q0 -47 -31.5 -76.5t-79.5 -29.5zM965 131v-131h-895v115l686 823l-674 -2v129h879v-115l-687 -821z" />
    <glyph glyph-name="Zcaron" unicode="&#x17d;" horiz-adv-x="1243" 
d="M705 1577h-177l-254 248h154l188 -187l191 187h154zM1165 1434v-119l-884 -1180l434 6h450v-141h-1102v121l885 1177l-434 -6h-420v142h1071z" />
    <glyph glyph-name="zcaron" unicode="&#x17e;" horiz-adv-x="1038" 
d="M573 1227h-110l-264 332h145l176 -238l172 238h146zM965 131v-131h-895v115l686 823l-674 -2v129h879v-115l-687 -821z" />
    <glyph glyph-name="uni01F4" unicode="&#x1f4;" horiz-adv-x="1619" 
d="M1077 1821l-166 -246h-125l134 246h157zM885 725h608v-504q-117 -119 -283.5 -178t-330.5 -59q-161 0 -300.5 49.5t-243 141t-163 231.5t-59.5 311q0 334 215 533.5t573 199.5q164 0 308 -50.5t255 -146.5l-104 -125q-71 74 -192.5 123t-264.5 49q-281 0 -440.5 -158
t-159.5 -419q0 -265 161.5 -427.5t412.5 -162.5q127 0 247.5 43t196.5 111v317h-436v121z" />
    <glyph glyph-name="uni01F5" unicode="&#x1f5;" horiz-adv-x="1341" 
d="M918 1552l-183 -325h-127l150 325h160zM1061 1065h143v-903q0 -114 -32 -204.5t-87 -150t-133 -99t-165.5 -56.5t-188.5 -17q-118 0 -248 37t-223 105l59 123q82 -62 193 -101t217 -39q90 0 166.5 20t138.5 62t97.5 113.5t35.5 167.5v141q-52 -113 -168.5 -172
t-259.5 -59q-89 0 -167 19t-144.5 60t-114.5 101t-75 147t-27 193q0 131 40.5 233t113 165.5t167 95.5t207.5 32q152 0 269.5 -57t171.5 -156zM647 166q183 0 287 105t104 284q0 177 -104.5 284t-286.5 107q-187 0 -292 -106.5t-105 -284.5t104.5 -283.5t292.5 -105.5z" />
    <glyph glyph-name="AEacute" unicode="&#x1fc;" horiz-adv-x="1992" 
d="M1595 1821l-165 -246h-125l133 246h157zM1108 137h803v-137h-977v395h-547l-233 -395h-181l844 1434h1065v-138h-774v-530h661v-135h-661v-494zM934 535v761h-12l-451 -761h463z" />
    <glyph glyph-name="aeacute" unicode="&#x1fd;" horiz-adv-x="2021" 
d="M969 1227l149 325h160l-182 -325h-127zM473 -16q-180 0 -287.5 79.5t-107.5 237.5q0 173 125.5 247.5t353.5 74.5q123 0 317 -21v129q-1 118 -79 170.5t-222 52.5q-210 0 -409 -71l-8 143q198 53 438 53q174 0 274 -52t129 -177q69 109 186 169t273 60
q227 0 356.5 -134.5t129.5 -352.5q0 -56 -9 -115h-848q7 -181 122.5 -277t301.5 -96q89 0 190 26t183 65l8 -134q-178 -75 -401 -75q-194 0 -326.5 75t-193.5 213q-142 -290 -496 -290zM1085 588h687q12 167 -77.5 270t-240.5 103q-163 0 -261 -97t-108 -276zM500 104
q91 0 176 40.5t140 114.5t56 163l2 78q-142 18 -286 18q-165 0 -251.5 -48t-86.5 -163q0 -56 21.5 -97t58 -63.5t79 -32.5t91.5 -10z" />
    <glyph glyph-name="Oslashacute" unicode="&#x1fe;" horiz-adv-x="1751" 
d="M1108 1821l-166 -246h-125l133 246h158zM1294 1346q163 -93 252.5 -256.5t89.5 -374.5q0 -327 -210 -529t-552 -202q-224 0 -401 94l-92 -144h-111l125 193q-135 96 -208.5 247.5t-73.5 340.5q0 216 95.5 383.5t269 259.5t396.5 92q183 0 336 -64l70 107h111zM299 713
q0 -284 188 -445l635 981q-112 47 -248 47q-253 0 -414 -158.5t-161 -424.5zM874 137q257 0 417.5 156t160.5 420q0 165 -65 291.5t-183 201.5l-641 -991q135 -78 311 -78z" />
    <glyph glyph-name="oslashacute" unicode="&#x1ff;" horiz-adv-x="1298" 
d="M827 1552l-184 -325h-125l150 325h159zM981 993q114 -70 178 -189t64 -272q0 -248 -160.5 -397t-411.5 -149q-156 0 -284 61l-76 -115h-92l100 154q-105 72 -163 186t-58 260q0 250 159.5 399.5t413.5 149.5q139 0 260 -51l66 103h94zM252 532q0 -203 131 -315l446 688
q-81 35 -178 35q-176 0 -287.5 -110.5t-111.5 -297.5zM651 125q175 0 287.5 110t112.5 297q0 110 -40.5 195t-113.5 137l-451 -692q89 -47 205 -47z" />
    <glyph glyph-name="uni0218" unicode="&#x218;" horiz-adv-x="1261" 
d="M641 -14q-342 0 -569 235l106 119q201 -215 461 -215q150 0 237 64t87 184q0 39 -12 71.5t-30 56t-52 45t-62 35t-78.5 28.5t-84 23.5t-93.5 22.5q-74 18 -134 41t-116 58t-93.5 78.5t-60 104t-22.5 132.5q0 80 26 144.5t72 108t109.5 73t136.5 42.5t156 13
q143 0 271.5 -45t229.5 -123l-86 -123q-197 156 -411 156q-137 0 -225.5 -59t-88.5 -179q0 -38 10.5 -70t26 -55.5t44 -45t54.5 -35.5t67.5 -29t73.5 -24.5t81 -22.5q64 -18 104.5 -30.5t97 -34t92 -42.5t75 -52.5t62 -67t37.5 -84t15 -105.5q0 -82 -26 -148t-72.5 -111
t-111.5 -75.5t-141 -44.5t-163 -14zM541 -463l30 311h125l-47 -311h-108z" />
    <glyph glyph-name="uni0219" unicode="&#x219;" horiz-adv-x="1040" 
d="M541 -16q-305 0 -482 221l119 100q137 -192 361 -192q245 0 245 170q0 26 -8 47t-18.5 36.5t-34.5 29.5t-42.5 22.5t-56.5 19t-61.5 15.5t-72.5 16q-25 5 -37 8q-153 35 -242.5 112t-89.5 202q0 78 32.5 136t89.5 90.5t124.5 48t146.5 15.5q126 0 241 -45t195 -121
l-94 -108q-156 147 -332 147q-104 0 -166.5 -37t-62.5 -120q0 -37 15.5 -67t38.5 -49t62 -35.5t71.5 -25.5t82.5 -20q166 -39 235 -72q160 -80 161 -241q0 -77 -33 -136t-91.5 -95t-133 -54t-162.5 -18zM440 -463l31 311h125l-47 -311h-109z" />
    <glyph glyph-name="uni021A" unicode="&#x21a;" horiz-adv-x="1236" 
d="M528 0v1292h-493v142h1167v-142h-493v-1292h-181zM528 -463l31 311h125l-47 -311h-109z" />
    <glyph glyph-name="uni021B" unicode="&#x21b;" horiz-adv-x="882" 
d="M575 -14q-296 0 -296 329v621h-254v129h133q74 0 104.5 35.5t30.5 107.5v191h153v-334h375v-129h-375v-608q0 -34 2 -58.5t11.5 -55t26 -49.5t47.5 -32.5t75 -13.5q100 0 217 20l4 -133q-88 -20 -254 -20zM428 -463l31 311h125l-47 -311h-109z" />
    <glyph glyph-name="uni0237" unicode="&#x237;" horiz-adv-x="569" 
d="M152 -358q-95 0 -172 24l6 125q66 -24 137 -24q73 0 112 34.5t39 120.5v1143h168v-1147q0 -76 -23 -131.5t-64.5 -86t-91.5 -44.5t-111 -14z" />
    <glyph glyph-name="circumflex" unicode="&#x2c6;" horiz-adv-x="966" 
d="M803 1227h-146l-172 221l-176 -221h-145l278 332h82z" />
    <glyph glyph-name="caron" unicode="&#x2c7;" horiz-adv-x="966" 
d="M657 1559h146l-264 -332h-111l-264 332h145l176 -238z" />
    <glyph glyph-name="breve" unicode="&#x2d8;" horiz-adv-x="923" 
d="M463 1241q-148 0 -233.5 71.5t-92.5 217.5h115q10 -195 211 -195q198 0 211 195h114q-9 -146 -94 -217.5t-231 -71.5z" />
    <glyph glyph-name="dotaccent" unicode="&#x2d9;" horiz-adv-x="555" 
d="M279 1260q-48 0 -79.5 29.5t-31.5 76.5q0 49 31.5 79t81.5 30q47 0 77.5 -30t30.5 -79q0 -47 -31 -76.5t-79 -29.5z" />
    <glyph glyph-name="ring" unicode="&#x2da;" horiz-adv-x="753" 
d="M379 1229q-95 0 -159 54.5t-64 148.5q0 97 63.5 150.5t159.5 53.5q97 0 160 -53.5t63 -150.5q0 -94 -63.5 -148.5t-159.5 -54.5zM379 1307q56 0 91.5 33.5t35.5 91.5q0 61 -35.5 94t-91.5 33t-91.5 -33t-35.5 -94q0 -58 35.5 -91.5t91.5 -33.5z" />
    <glyph glyph-name="ogonek" unicode="&#x2db;" horiz-adv-x="673" 
d="M387 -344q-44 0 -81 8t-70 26.5t-51.5 53t-18.5 82.5q0 69 39.5 116.5t100 70.5t143.5 30l28 -43q-198 -21 -198 -139q0 -97 124 -97q54 0 132 19l4 -111q-65 -16 -152 -16z" />
    <glyph glyph-name="tilde" unicode="&#x2dc;" horiz-adv-x="991" 
d="M641 1274q-66 0 -158 45q-2 1 -26.5 13.5t-31.5 15.5t-26 10t-33.5 9.5t-29.5 2.5q-41 0 -71.5 -22t-41.5 -58l-63 8q16 98 68 143.5t124 45.5q68 0 160 -47q7 -3 32 -15.5t38 -18t34.5 -11.5t40.5 -6q42 0 73 22.5t40 58.5l64 -8q-14 -97 -66 -142.5t-127 -45.5z" />
    <glyph glyph-name="hungarumlaut" unicode="&#x2dd;" horiz-adv-x="991" 
d="M215 1227l119 325h160l-154 -325h-125zM514 1227l119 325h160l-154 -325h-125z" />
    <glyph glyph-name="gravecomb" unicode="&#x300;" horiz-adv-x="0" 
d="M-653 1227l-154 325h160l119 -325h-125z" />
    <glyph glyph-name="uni0326" unicode="&#x326;" horiz-adv-x="0" 
d="M-350 -465q2 10 10.5 58t11.5 70t6.5 74t2.5 111h116q0 -57 -4.5 -104.5t-9 -70.5t-15.5 -70t-16 -68h-102z" />
    <glyph glyph-name="uni03BC" unicode="&#x3bc;" horiz-adv-x="1304" 
d="M154 -350v1415h170v-653q0 -297 249 -297q69 0 127 25.5t96 67t64.5 96.5t38.5 112.5t12 115.5v533h168v-852q0 -54 21.5 -75t60.5 -21q47 0 119 20v-133q-85 -18 -172 -18q-83 0 -130 37t-54 120q0 2 -6 115q-55 -125 -153 -198.5t-241 -73.5q-139 0 -202 88v-424h-168z
" />
    <glyph glyph-name="uni0400" unicode="&#x400;" horiz-adv-x="1304" 
d="M653 1575l-149 246h155l119 -246h-125zM190 0v1434h1006v-142h-827v-522h712v-139h-712v-490h854v-141h-1033z" />
    <glyph glyph-name="uni0401" unicode="&#x401;" horiz-adv-x="1304" 
d="M489 1630q-48 0 -78 30t-30 79t30 78.5t78 29.5t78.5 -29.5t30.5 -78.5t-30.5 -79t-78.5 -30zM907 1630q-46 0 -76 30t-30 79t30 78.5t78 29.5q47 0 77 -29.5t30 -78.5t-30.5 -79t-78.5 -30zM190 0v1434h1006v-142h-827v-522h712v-139h-712v-490h854v-141h-1033z" />
    <glyph glyph-name="uni0402" unicode="&#x402;" horiz-adv-x="1732" 
d="M1135 868q112 0 202.5 -26t158.5 -78t105 -136.5t37 -195.5q0 -202 -119.5 -323t-338.5 -121q-135 0 -262 41l10 131q139 -49 235 -49q147 0 231.5 83t84.5 236q0 311 -371 311q-197 0 -399 -94v-647h-174v1300h-496v134h1206v-134h-536v-514q223 82 426 82z" />
    <glyph glyph-name="uni0403" unicode="&#x403;" horiz-adv-x="1169" 
d="M662 1575l131 246h159l-166 -246h-124zM188 0v1434h926v-142h-745v-1292h-181z" />
    <glyph glyph-name="uni0404" unicode="&#x404;" horiz-adv-x="1509" 
d="M1333 340l119 -115q-236 -239 -571 -239q-229 0 -405 89.5t-274 256t-98 385.5q0 217 95.5 383.5t269.5 258t401 91.5q186 0 322.5 -55t247.5 -170l-125 -113q-175 186 -436 186q-250 0 -409 -139.5t-179 -378.5h717v-137h-715q23 -233 181.5 -370.5t399.5 -137.5
q258 0 459 205z" />
    <glyph glyph-name="uni0405" unicode="&#x405;" horiz-adv-x="1261" 
d="M641 -14q-342 0 -569 235l106 119q201 -215 461 -215q150 0 237 64t87 184q0 39 -12 71.5t-30 56t-52 45t-62 35t-78.5 28.5t-84 23.5t-93.5 22.5q-74 18 -134 41t-116 58t-93.5 78.5t-60 104t-22.5 132.5q0 80 26 144.5t72 108t109.5 73t136.5 42.5t156 13
q143 0 271.5 -45t229.5 -123l-86 -123q-197 156 -411 156q-137 0 -225.5 -59t-88.5 -179q0 -38 10.5 -70t26 -55.5t44 -45t54.5 -35.5t67.5 -29t73.5 -24.5t81 -22.5q64 -18 104.5 -30.5t97 -34t92 -42.5t75 -52.5t62 -67t37.5 -84t15 -105.5q0 -82 -26 -148t-72.5 -111
t-111.5 -75.5t-141 -44.5t-163 -14z" />
    <glyph glyph-name="uni0406" unicode="&#x406;" horiz-adv-x="559" 
d="M190 0v1434h181v-1434h-181z" />
    <glyph glyph-name="uni0407" unicode="&#x407;" horiz-adv-x="559" 
d="M74 1630q-48 0 -78.5 30t-30.5 79t30.5 78.5t78.5 29.5t78 -29.5t30 -78.5t-30 -79t-78 -30zM492 1630q-46 0 -76.5 30t-30.5 79t30.5 78.5t78.5 29.5q46 0 76 -29.5t30 -78.5t-30 -79t-78 -30zM190 0v1434h181v-1434h-181z" />
    <glyph glyph-name="uni0408" unicode="&#x408;" horiz-adv-x="802" 
d="M250 -16q-114 0 -193 22v154q93 -29 187 -29q92 0 149.5 54t57.5 169v1080h178v-1076q0 -189 -104 -281.5t-275 -92.5z" />
    <glyph glyph-name="uni0409" unicode="&#x409;" horiz-adv-x="2420" 
d="M203 -8q-79 0 -131 12l2 137q44 -10 80 -10q55 0 96 20.5t71 65.5t50 107t33 155t19 198t9 247q1 64 1 141t-0.5 186.5t-0.5 182.5h981v-519h402q247 0 390.5 -127t143.5 -323q0 -203 -149.5 -334t-384.5 -131h-582v1294h-625q0 -276 -4 -403q-4 -193 -17.5 -331
t-41.5 -250.5t-73 -179.5t-111.5 -102.5t-157.5 -35.5zM1413 133h373q97 0 171 26t118.5 72.5t67 104.5t22.5 127q0 143 -96.5 230t-282.5 87h-373v-647z" />
    <glyph glyph-name="uni040A" unicode="&#x40a;" horiz-adv-x="2328" 
d="M190 0v1434h179v-578h774v578h180v-586h399q251 0 393 -113.5t142 -304.5q0 -201 -147 -315.5t-386 -114.5h-581v707h-774v-707h-179zM1323 133h371q193 0 287 78t94 217q0 137 -95.5 211t-285.5 74h-371v-580z" />
    <glyph glyph-name="uni040B" unicode="&#x40b;" horiz-adv-x="1738" 
d="M1167 961q220 0 343.5 -113.5t123.5 -333.5v-514h-174v496q0 153 -84 240t-258 87q-80 0 -155 -20.5t-127 -51.5t-85 -57.5t-51 -48.5v-645h-178v1294h-495v140h1210v-140h-537v-501q24 23 63 48t98 54t140 47.5t166 18.5z" />
    <glyph glyph-name="uni040C" unicode="&#x40c;" horiz-adv-x="1310" 
d="M940 1821l-164 -246h-127l133 246h158zM741 723l551 -723h-207l-483 635h-248v-635h-174v1434h174v-646h244l492 646h190z" />
    <glyph glyph-name="uni040D" unicode="&#x40d;" horiz-adv-x="1581" 
d="M758 1575l-150 246h156l119 -246h-125zM197 0l2 1434h172v-670q0 -285 -15 -522v-2l852 1194h168v-1434h-170v666q0 280 11 522v2l-848 -1190h-172z" />
    <glyph glyph-name="uni040E" unicode="&#x40e;" horiz-adv-x="1345" 
d="M686 1593q-286 0 -305 244h106q6 -80 58 -119t141 -39q187 0 199 158h108q-19 -244 -307 -244zM1122 1434h181l-652 -1434h-188l180 379l-573 1055h192l469 -879z" />
    <glyph glyph-name="uni040F" unicode="&#x40f;" horiz-adv-x="1531" 
d="M700 -348l-6 348h-506v1434h181v-1295h794v1295h180v-1434h-503l-6 -348h-134z" />
    <glyph glyph-name="uni0410" unicode="&#x410;" horiz-adv-x="1515" 
d="M1274 0l-150 369h-743l-148 -369h-180l592 1442h227l588 -1442h-186zM438 510h631l-315 780h-2z" />
    <glyph glyph-name="uni0411" unicode="&#x411;" horiz-adv-x="1409" 
d="M190 0v1434h1022v-142h-841v-458h409q257 0 396 -108.5t139 -299.5q0 -202 -140.5 -314t-375.5 -112h-609zM371 133h411q164 0 255 78t91 209q0 134 -93 207t-261 73h-403v-567z" />
    <glyph glyph-name="uni0412" unicode="&#x412;" horiz-adv-x="1411" 
d="M1008 735q54 -8 105 -33.5t94.5 -68t70.5 -107.5t27 -143q0 -178 -126.5 -280.5t-322.5 -102.5h-666v1434h615q205 0 326.5 -96.5t121.5 -270.5q0 -72 -22 -131t-60 -98t-78 -63.5t-85 -39.5zM371 1298v-505h432q123 0 193.5 69.5t70.5 179.5q0 118 -80.5 187t-198.5 69
h-417zM825 135q127 0 209 72t82 192q0 109 -73 187t-216 78h-456v-529h454z" />
    <glyph glyph-name="uni0413" unicode="&#x413;" horiz-adv-x="1140" 
d="M188 0v1434h926v-142h-745v-1292h-181z" />
    <glyph glyph-name="uni0414" unicode="&#x414;" horiz-adv-x="1630" 
d="M1362 137h199v-465h-142l-10 328h-1210l-11 -328h-143v465h193l1 1q55 89 96 357q54 360 54 939h973v-1297zM1184 137v1161h-631q1 -264 -12.5 -480.5t-33 -337t-39 -204t-32.5 -111.5l-14 -28h762z" />
    <glyph glyph-name="uni0415" unicode="&#x415;" horiz-adv-x="1304" 
d="M190 0v1434h1006v-142h-827v-522h712v-139h-712v-490h854v-141h-1033z" />
    <glyph glyph-name="uni0416" unicode="&#x416;" horiz-adv-x="2050" 
d="M29 0l538 723l-524 711h197l479 -650h219v650h176v-650h219l479 650h197l-524 -711l536 -723h-213l-469 639h-225v-639h-176v639h-225l-469 -639h-215z" />
    <glyph glyph-name="uni0417" unicode="&#x417;" horiz-adv-x="1327" 
d="M872 737q157 -27 246.5 -118.5t89.5 -237.5q0 -100 -42 -176.5t-118 -124.5t-176 -72t-221 -24q-326 0 -565 206l90 121q213 -186 469 -186q77 0 144 16t121 48t85 86.5t31 125.5q0 93 -53 154.5t-135.5 87t-192.5 25.5h-289v129h277q100 0 178 25.5t129 86.5t51 152
q0 86 -46 143t-118.5 81t-169.5 24q-240 0 -473 -179l-92 123q270 199 567 199q235 0 373 -96t139 -271q1 -127 -79 -219t-220 -129z" />
    <glyph glyph-name="uni0418" unicode="&#x418;" horiz-adv-x="1581" 
d="M197 0l2 1434h172v-670q0 -285 -15 -522v-2l852 1194h168v-1434h-170v666q0 280 11 522v2l-848 -1190h-172z" />
    <glyph glyph-name="uni0419" unicode="&#x419;" horiz-adv-x="1560" 
d="M467 1632v101h633v-101h-633zM190 0v1434h175v-670q0 -285 -15 -522v-2l852 1194h168v-1434h-172v666q4 349 10 522v2l-848 -1190h-170z" />
    <glyph glyph-name="uni041A" unicode="&#x41a;" horiz-adv-x="1331" 
d="M750 723l553 -723h-207l-484 635h-250v-635h-172v1434h172v-646h246l490 646h192z" />
    <glyph glyph-name="uni041B" unicode="&#x41b;" horiz-adv-x="1603" 
d="M203 -8q-79 0 -131 12l2 137q44 -10 80 -10q55 0 96 20.5t71 65.5t50 107t33 155t19 198t9 247q1 64 1 141t-0.5 186.5t-0.5 182.5h981v-1434h-180v1294h-625q0 -264 -4 -405q-4 -192 -17.5 -330t-41.5 -250t-73 -179t-111.5 -102.5t-157.5 -35.5z" />
    <glyph glyph-name="uni041C" unicode="&#x41c;" horiz-adv-x="1902" 
d="M190 0v1434h183l583 -818l576 818h180v-1434h-182v813l16 361h-2l-575 -812h-41l-576 812h-2l15 -361v-813h-175z" />
    <glyph glyph-name="uni041D" unicode="&#x41d;" horiz-adv-x="1550" 
d="M190 0v1434h181v-650h811v650h180v-1434h-180v635h-811v-635h-181z" />
    <glyph glyph-name="uni041E" unicode="&#x41e;" horiz-adv-x="1751" 
d="M874 -16q-224 0 -397 91.5t-268.5 257.5t-95.5 382t95.5 383.5t269 259.5t396.5 92q342 0 552 -203t210 -532q0 -327 -210 -529t-552 -202zM874 137q257 0 417.5 156t160.5 420q0 265 -160.5 424t-417.5 159q-253 0 -414 -158.5t-161 -424.5q0 -263 161 -419.5
t414 -156.5z" />
    <glyph glyph-name="uni041F" unicode="&#x41f;" horiz-adv-x="1538" 
d="M188 0v1434h1160v-1434h-181l2 1292h-800v-1292h-181z" />
    <glyph glyph-name="uni0420" unicode="&#x420;" horiz-adv-x="1400" 
d="M190 0v1434h615q122 0 222.5 -40t163 -106.5t96.5 -150t34 -174.5q0 -90 -34 -173t-96.5 -149.5t-162 -106.5t-221.5 -40h-438v-494h-179zM369 633h405q88 0 158 27t113 73t65.5 105t22.5 125q0 141 -92.5 235t-266.5 94h-405v-659z" />
    <glyph glyph-name="uni0421" unicode="&#x421;" horiz-adv-x="1519" 
d="M889 -14q-228 0 -404 89.5t-274 256t-98 385.5q0 329 211.5 531t556.5 202q185 0 321.5 -55.5t247.5 -169.5l-125 -113q-175 186 -438 186q-266 0 -428 -157.5t-162 -421.5q0 -265 163 -424.5t423 -159.5q262 0 458 205l119 -115q-236 -239 -571 -239z" />
    <glyph glyph-name="uni0422" unicode="&#x422;" horiz-adv-x="1236" 
d="M528 0v1292h-493v142h1167v-142h-493v-1292h-181z" />
    <glyph glyph-name="uni0423" unicode="&#x423;" horiz-adv-x="1345" 
d="M1122 1434h181l-652 -1434h-188l180 379l-573 1055h192l469 -879z" />
    <glyph glyph-name="uni0424" unicode="&#x424;" horiz-adv-x="1826" 
d="M829 -45v129q-335 8 -530 174.5t-195 456.5q0 289 195 457t530 176v127h168v-127q335 -6 530 -174.5t195 -458.5t-194.5 -457.5t-530.5 -173.5v-129h-168zM829 219v993q-255 -6 -401.5 -135.5t-146.5 -361.5t147 -361t401 -135zM997 219q259 6 405 135t146 361
t-148.5 362t-402.5 135v-993z" />
    <glyph glyph-name="uni0425" unicode="&#x425;" horiz-adv-x="1323" 
d="M1311 0h-213l-434 594l-433 -594h-204l526 700l-533 734h209l433 -598l434 598h196l-518 -703z" />
    <glyph glyph-name="uni0426" unicode="&#x426;" horiz-adv-x="1597" 
d="M1386 -348l-8 348h-1190v1434h181v-1293h786v1293h180v-1295h199v-487h-148z" />
    <glyph glyph-name="uni0427" unicode="&#x427;" horiz-adv-x="1431" 
d="M1063 1434h180v-1434h-180v623q-24 -22 -62 -47t-97.5 -55t-142 -49t-169.5 -19q-222 0 -349.5 114t-127.5 332v535h178v-519q0 -154 84.5 -241.5t259.5 -87.5q82 0 159 21t130 53t86.5 59t50.5 49v666z" />
    <glyph glyph-name="uni0428" unicode="&#x428;" horiz-adv-x="2199" 
d="M190 -2v1436h181v-1295h639v1295h180v-1295h639v1295h180v-1436h-1819z" />
    <glyph glyph-name="uni0429" unicode="&#x429;" horiz-adv-x="2267" 
d="M2060 -348l-10 348h-1862v1434h179v-1295h641v1295h178v-1295h643v1295h178v-1297h195v-485h-142z" />
    <glyph glyph-name="uni042A" unicode="&#x42a;" horiz-adv-x="1603" 
d="M416 0v1294h-416v140h596v-519h401q247 0 391 -127t144 -323q0 -203 -150 -334t-385 -131h-581zM596 133h373q97 0 171 26t118.5 72.5t67 104.5t22.5 127q0 143 -97 230t-282 87h-373v-647z" />
    <glyph glyph-name="uni042B" unicode="&#x42b;" horiz-adv-x="1896" 
d="M190 0v1434h181v-519h399q247 0 391 -127t144 -323q0 -203 -149.5 -334t-383.5 -131h-582zM1538 0v1434h168v-1434h-168zM371 133h370q189 0 285 93t96 237q0 143 -97 230t-284 87h-370v-647z" />
    <glyph glyph-name="uni042C" unicode="&#x42c;" horiz-adv-x="1376" 
d="M190 0v1434h181v-519h399q251 0 393 -128.5t142 -321.5q0 -201 -147.5 -333t-385.5 -132h-582zM371 133h370q185 0 283 92t98 236q0 146 -98.5 232.5t-280.5 86.5h-372v-647z" />
    <glyph glyph-name="uni042D" unicode="&#x42d;" horiz-adv-x="1484" 
d="M598 1450q226 0 401 -89.5t273 -256t98 -385.5q0 -217 -95.5 -383.5t-269.5 -258t-401 -91.5q-308 0 -543 178l103 137q74 -72 184 -118t246 -46q246 0 405 140t179 376h-711v138h709q-23 234 -181.5 371.5t-400.5 137.5q-250 0 -434 -161l-101 129q240 182 539 182z" />
    <glyph glyph-name="uni042E" unicode="&#x42e;" horiz-adv-x="2170" 
d="M1335 -16q-309 0 -508 176.5t-221 480.5h-241v-641h-177v1434h177v-652h239q22 306 220.5 487t510.5 181q219 0 386 -90.5t258.5 -257.5t91.5 -387q0 -331 -201.5 -531t-534.5 -200zM1335 125q248 0 397.5 156.5t149.5 431.5q0 277 -150 436.5t-397 159.5
q-242 0 -393 -160t-151 -436q0 -274 150 -431t394 -157z" />
    <glyph glyph-name="uni042F" unicode="&#x42f;" horiz-adv-x="1421" 
d="M641 1434h592v-1434h-180v504h-412h-20l-312 -504h-190l336 528q-166 48 -260.5 171t-94.5 270q0 90 36.5 172.5t103 148t171 105t230.5 39.5zM1053 643v649h-391q-175 0 -274 -92.5t-99 -230.5t100 -232t273 -94h391z" />
    <glyph glyph-name="uni0430" unicode="&#x430;" horiz-adv-x="1343" 
d="M1051 1065h155v-1065h-153l-15 229q-60 -125 -175.5 -185t-258.5 -60q-162 0 -282.5 71.5t-182 194t-61.5 278.5q0 242 144.5 397.5t389.5 155.5q148 0 259.5 -59.5t168.5 -171.5zM649 125q164 0 277.5 112.5t113.5 292.5t-112 295t-279 115q-177 0 -286 -110.5
t-109 -299.5q0 -186 109 -295.5t286 -109.5z" />
    <glyph glyph-name="uni0431" unicode="&#x431;" horiz-adv-x="1306" 
d="M729 1022q121 0 217.5 -41t157 -112t92 -163t31.5 -198q0 -149 -61 -266t-186 -187.5t-298 -70.5q-259 0 -408 145.5t-149 392.5v275q0 60 1.5 93t11 96t28 104t56.5 99t92 100.5t138.5 88t192.5 80.5q45 15 217.5 63t267.5 89l31 -150q-95 -33 -261 -70t-238 -59
q-64 -20 -116.5 -45.5t-90.5 -50.5t-68 -58t-49.5 -60t-33 -64.5t-20 -62.5t-10 -64.5t-4 -60.5t-0.5 -58v-27q59 116 183 179t276 63zM680 113q167 0 272 104.5t105 288.5t-103 287.5t-272 103.5q-77 0 -143.5 -22.5t-120 -67.5t-85.5 -119t-36 -170q-3 -97 26 -175
t82 -127.5t123 -76t152 -26.5z" />
    <glyph glyph-name="uni0432" unicode="&#x432;" horiz-adv-x="1148" 
d="M811 553q45 -6 86.5 -23.5t79 -48.5t60 -81.5t22.5 -114.5q0 -132 -94 -208.5t-250 -76.5h-563v1065h538q144 0 232 -70t88 -196q0 -54 -17.5 -97.5t-47.5 -72t-63 -47t-71 -29.5zM319 954v-356h343q86 0 135 50.5t49 129.5q0 81 -53.5 128.5t-137.5 47.5h-336zM688 111
q89 0 144 51.5t55 138.5q0 85 -55.5 138t-151.5 53h-361v-381h369z" />
    <glyph glyph-name="uni0433" unicode="&#x433;" horiz-adv-x="929" 
d="M154 0v1065h751v-119h-583v-946h-168z" />
    <glyph glyph-name="uni0434" unicode="&#x434;" horiz-adv-x="1308" 
d="M1083 115h170v-361h-133l-8 246h-954l-8 -246h-134v361h152q15 19 30.5 49t39 105.5t41 172.5t29.5 261t11 362h764v-950zM915 115v835h-442q0 -580 -125 -835h567z" />
    <glyph glyph-name="uni0435" unicode="&#x435;" horiz-adv-x="1214" 
d="M1135 596q0 -56 -9 -117h-872q10 -182 124.5 -274t291.5 -92q207 0 366 151l80 -114q-190 -164 -446 -164q-283 0 -437.5 148t-154.5 398q0 159 64 282t191 194t300 71q231 0 366.5 -129t135.5 -354zM633 956q-164 0 -265.5 -94.5t-111.5 -265.5h702q3 15 3 31
q0 151 -88 240t-240 89z" />
    <glyph glyph-name="uni0436" unicode="&#x436;" horiz-adv-x="1691" 
d="M41 0l391 547l-379 518h187l342 -471h186v471h170v-471h174l352 471h187l-391 -520l403 -545h-193l-354 479h-178v-479h-170v479h-193l-339 -479h-195z" />
    <glyph glyph-name="uni0437" unicode="&#x437;" horiz-adv-x="1069" 
d="M705 541q134 -18 200 -86t66 -172q0 -79 -38.5 -138.5t-106 -93.5t-148.5 -50t-176 -15q-246 0 -451 159l74 117q169 -149 375 -149q130 0 212.5 48t82.5 146q0 176 -283 176h-223v113h221q128 0 195 44.5t67 129.5q0 90 -70 136t-186 46q-99 0 -196.5 -38.5
t-174.5 -106.5l-86 113q207 159 476 159q190 0 303.5 -73.5t113.5 -208.5q0 -100 -65.5 -167t-181.5 -89z" />
    <glyph glyph-name="uni0438" unicode="&#x438;" horiz-adv-x="1257" 
d="M152 0v1065h161v-537q-4 -210 -8 -305l4 -2l641 844h154v-1065h-160v494q6 306 8 356l-4 2l-641 -852h-155z" />
    <glyph glyph-name="uni0439" unicode="&#x439;" horiz-adv-x="1284" 
d="M381 1270v100h541v-100h-541zM152 0v1065h161v-537q-4 -210 -8 -305l4 -2l641 844h154v-1065h-160v494q6 306 8 356l-4 2l-641 -852h-155z" />
    <glyph glyph-name="uni043A" unicode="&#x43a;" horiz-adv-x="1103" 
d="M1075 0h-196l-369 471h-193v-471h-165v1065h165v-459l189 -2l366 461h189l-426 -520z" />
    <glyph glyph-name="uni043B" unicode="&#x43b;" horiz-adv-x="1265" 
d="M143 -8q-50 0 -112 8l4 131q30 -6 61 -6q125 0 171 112t57 404q2 53 2 119.5t-1 158t-1 146.5h788v-1065h-168v944h-450q0 -80 -5 -315q-9 -336 -84.5 -486.5t-261.5 -150.5z" />
    <glyph glyph-name="uni043C" unicode="&#x43c;" horiz-adv-x="1533" 
d="M1233 1065h149v-1065h-168v479q0 123 11 352h-4l-433 -602h-32l-449 605h-4q8 -246 8 -345v-489h-159v1065h159l461 -629z" />
    <glyph glyph-name="uni043D" unicode="&#x43d;" horiz-adv-x="1251" 
d="M152 0v1065h170v-463h608v463h170v-1065h-170v467h-608v-467h-170z" />
    <glyph glyph-name="uni043E" unicode="&#x43e;" horiz-adv-x="1298" 
d="M651 -16q-252 0 -412.5 149.5t-160.5 396.5q0 250 159.5 399.5t413.5 149.5q251 0 411.5 -151t160.5 -398t-160.5 -396.5t-411.5 -149.5zM651 125q176 0 288 109t112 296t-112.5 298.5t-287.5 111.5q-176 0 -287.5 -111t-111.5 -299q0 -187 111 -296t288 -109z" />
    <glyph glyph-name="uni043F" unicode="&#x43f;" horiz-adv-x="1261" 
d="M160 0v1065h942v-1065h-168v940h-606v-940h-168z" />
    <glyph glyph-name="uni0440" unicode="&#x440;" horiz-adv-x="1357" 
d="M743 1079q167 0 290.5 -73.5t185 -196.5t61.5 -277t-62 -276.5t-186 -196t-291 -73.5q-136 0 -246.5 52.5t-172.5 149.5v-536h-170v1413h145l18 -211q60 111 176.5 168t251.5 57zM711 125q178 0 286.5 110.5t108.5 296.5t-108.5 297t-284.5 111q-169 0 -282.5 -114
t-113.5 -294q0 -176 113 -291.5t281 -115.5z" />
    <glyph glyph-name="uni0441" unicode="&#x441;" horiz-adv-x="1157" 
d="M659 -14q-259 0 -420 147.5t-161 398.5q0 248 158.5 397.5t420.5 149.5q267 0 445 -172l-96 -114q-145 149 -342 149q-184 0 -297 -110t-113 -297q0 -189 114.5 -300.5t297.5 -111.5q203 0 342 151l100 -114q-100 -95 -208 -134.5t-241 -39.5z" />
    <glyph glyph-name="uni0442" unicode="&#x442;" horiz-adv-x="997" 
d="M416 0v936h-385v129h936v-129h-383v-936h-168z" />
    <glyph glyph-name="uni0443" unicode="&#x443;" horiz-adv-x="1105" 
d="M907 1065h168l-563 -1413h-170l137 336l-450 1077h180l203 -500q97 -247 153 -395h4q47 125 146 395z" />
    <glyph glyph-name="uni0444" unicode="&#x444;" horiz-adv-x="1531" 
d="M682 -348v328q-280 2 -442 147t-162 405q0 262 162 406.5t442 146.5v496h168v-496q281 -2 442.5 -147t161.5 -406q0 -260 -162 -405t-442 -147v-328h-168zM682 109v847q-205 -2 -318.5 -112.5t-113.5 -313.5q0 -200 113.5 -309.5t318.5 -111.5zM850 109q206 2 319 112
t113 309q0 202 -113 313t-319 113v-847z" />
    <glyph glyph-name="uni0445" unicode="&#x445;" horiz-adv-x="1069" 
d="M1036 0h-186l-318 438l-325 -438h-172l395 528l-389 537h188l310 -420l315 420h170l-385 -518z" />
    <glyph glyph-name="uni0446" unicode="&#x446;" horiz-adv-x="1261" 
d="M1087 -246l-6 246h-927v1065h168v-950h567v950h168v-946h170v-365h-140z" />
    <glyph glyph-name="uni0447" unicode="&#x447;" horiz-adv-x="1179" 
d="M850 1065h170v-1065h-170v428q-185 -100 -371 -100q-175 0 -279 95.5t-104 274.5v367h168v-348q0 -124 63 -193t193 -69q100 0 195 33t135 61v516z" />
    <glyph glyph-name="uni0448" unicode="&#x448;" horiz-adv-x="1814" 
d="M152 0v1065h170v-950h497v950h168v-950h500v950h168v-1065h-1503z" />
    <glyph glyph-name="uni0449" unicode="&#x449;" horiz-adv-x="1880" 
d="M1688 -246l-9 246h-1527v1065h170v-950h497v950h168v-950h500v950h168v-946h170v-365h-137z" />
    <glyph glyph-name="uni044A" unicode="&#x44a;" horiz-adv-x="1329" 
d="M362 0v936h-303v129h471v-401h340q181 0 289.5 -86.5t108.5 -241.5t-107.5 -245.5t-292.5 -90.5h-506zM530 115h306q123 0 190.5 56t67.5 163q0 106 -67 160.5t-189 54.5h-308v-434z" />
    <glyph glyph-name="uni044B" unicode="&#x44b;" horiz-adv-x="1613" 
d="M176 0v1065h170v-403h336q176 0 283.5 -86.5t107.5 -241.5t-105.5 -244.5t-287.5 -89.5h-504zM1286 0v1065h168v-1065h-168zM346 113h305q122 0 189 56t67 165q0 106 -67 160.5t-189 54.5h-305v-436z" />
    <glyph glyph-name="uni044C" unicode="&#x44c;" horiz-adv-x="1114" 
d="M152 0v1065h170v-401h335q178 0 287 -87.5t109 -242.5t-106.5 -244.5t-291.5 -89.5h-503zM322 113h305q122 0 189 56t67 165q0 106 -67 160.5t-189 54.5h-305v-436z" />
    <glyph glyph-name="uni044D" unicode="&#x44d;" horiz-adv-x="1171" 
d="M500 1079q256 0 417.5 -148t161.5 -399q0 -248 -158.5 -398t-418.5 -150q-251 0 -447 174l101 112q142 -149 336 -149q175 0 285 98.5t124 265.5h-516v109h514q-20 161 -129.5 254.5t-277.5 93.5q-206 0 -340 -145l-103 108q103 94 211 134t240 40z" />
    <glyph glyph-name="uni044E" unicode="&#x44e;" horiz-adv-x="1703" 
d="M1071 -16q-228 0 -384 134.5t-171 362.5h-197v-481h-167v1065h167v-471h197q12 149 89.5 260t198.5 168t267 57q155 0 280.5 -65t200 -190.5t74.5 -291.5q0 -126 -43.5 -230.5t-119 -173t-176.5 -106.5t-216 -38zM1071 121q166 0 274.5 111t108.5 298q0 189 -108.5 300.5
t-274.5 111.5q-167 0 -276 -111.5t-109 -300.5q0 -188 109 -298.5t276 -110.5z" />
    <glyph glyph-name="uni044F" unicode="&#x44f;" horiz-adv-x="1144" 
d="M510 1065h510v-1065h-168v360h-328l-256 -360h-190l280 381q-123 34 -190.5 121.5t-67.5 210.5q0 158 110.5 255t299.5 97zM852 471v481h-313q-124 0 -195.5 -64t-71.5 -175t71.5 -176.5t195.5 -65.5h313z" />
    <glyph glyph-name="uni0450" unicode="&#x450;" horiz-adv-x="1214" 
d="M711 1227h-127l-152 325h158zM1135 596q0 -56 -9 -117h-872q10 -182 124.5 -274t291.5 -92q207 0 366 151l80 -114q-190 -164 -446 -164q-283 0 -437.5 148t-154.5 398q0 159 64 282t191 194t300 71q231 0 366.5 -129t135.5 -354zM633 956q-164 0 -265.5 -94.5
t-111.5 -265.5h702q3 15 3 31q0 151 -88 240t-240 89z" />
    <glyph glyph-name="uni0451" unicode="&#x451;" horiz-adv-x="1214" 
d="M410 1260q-47 0 -79 30t-32 76q0 49 32.5 79t80.5 30q47 0 78.5 -30t31.5 -79q0 -47 -32 -76.5t-80 -29.5zM829 1260q-48 0 -79 29.5t-31 76.5q0 49 31 79t81 30q47 0 78 -30t31 -79q0 -47 -31.5 -76.5t-79.5 -29.5zM1135 596q0 -56 -9 -117h-872q10 -182 124.5 -274
t291.5 -92q207 0 366 151l80 -114q-190 -164 -446 -164q-283 0 -437.5 148t-154.5 398q0 159 64 282t191 194t300 71q231 0 366.5 -129t135.5 -354zM633 956q-164 0 -265.5 -94.5t-111.5 -265.5h702q3 15 3 31q0 151 -88 240t-240 89z" />
    <glyph glyph-name="uni0452" unicode="&#x452;" horiz-adv-x="1280" 
d="M793 -344l-70 129q147 48 203.5 120.5t56.5 221.5v487q0 140 -71 217.5t-212 77.5q-151 0 -327 -88v-821h-168v1225h-193v90h193v266h168v-266h471v-90h-471v-275q70 34 171 61t210 27q191 0 292 -103.5t101 -295.5v-506q0 -146 -33 -234t-107.5 -143.5t-213.5 -99.5z
" />
    <glyph glyph-name="uni0453" unicode="&#x453;" horiz-adv-x="929" 
d="M459 1227l149 325h160l-182 -325h-127zM154 0v1065h751v-119h-583v-946h-168z" />
    <glyph glyph-name="uni0454" unicode="&#x454;" horiz-adv-x="1171" 
d="M1020 268l102 -108q-103 -94 -210.5 -134t-239.5 -40q-168 0 -299 65t-206 189.5t-75 291.5q0 247 159 397t419 150q253 0 446 -172l-100 -112q-142 149 -336 149q-170 0 -280.5 -94.5t-127.5 -255.5h514v-109h-516q15 -166 127 -264t283 -98q206 0 340 145z" />
    <glyph glyph-name="uni0455" unicode="&#x455;" horiz-adv-x="1040" 
d="M541 -16q-305 0 -482 221l119 100q137 -192 361 -192q245 0 245 170q0 26 -8 47t-18.5 36.5t-34.5 29.5t-42.5 22.5t-56.5 19t-61.5 15.5t-72.5 16q-25 5 -37 8q-153 35 -242.5 112t-89.5 202q0 78 32.5 136t89.5 90.5t124.5 48t146.5 15.5q126 0 241 -45t195 -121
l-94 -108q-156 147 -332 147q-104 0 -166.5 -37t-62.5 -120q0 -37 15.5 -67t38.5 -49t62 -35.5t71.5 -25.5t82.5 -20q166 -39 235 -72q160 -80 161 -241q0 -77 -33 -136t-91.5 -95t-133 -54t-162.5 -18z" />
    <glyph glyph-name="uni0456" unicode="&#x456;" horiz-adv-x="473" 
d="M238 1278q-54 0 -89.5 34.5t-35.5 86.5t35.5 86.5t89.5 34.5q53 0 87.5 -34.5t34.5 -86.5t-34.5 -86.5t-87.5 -34.5zM152 0v1065h170v-1065h-170z" />
    <glyph glyph-name="uni0457" unicode="&#x457;" horiz-adv-x="471" 
d="M29 1260q-47 0 -79 30t-32 76q0 49 32.5 79t80.5 30q47 0 78.5 -30t31.5 -79q0 -47 -32 -76.5t-80 -29.5zM449 1260q-48 0 -79.5 29.5t-31.5 76.5q0 49 31.5 79t81.5 30q47 0 77.5 -30t30.5 -79q0 -47 -31 -76.5t-79 -29.5zM152 0v1065h170v-1065h-170z" />
    <glyph glyph-name="uni0458" unicode="&#x458;" horiz-adv-x="575" 
d="M340 1278q-54 0 -89.5 34.5t-35.5 86.5t35.5 86.5t89.5 34.5q53 0 88 -34.5t35 -86.5t-35 -86.5t-88 -34.5zM156 -365q-101 0 -176 37l26 131q75 -32 119 -32q64 0 97.5 33t33.5 114v1147h168v-1153q0 -75 -22 -130.5t-60.5 -86.5t-84.5 -45.5t-101 -14.5z" />
    <glyph glyph-name="uni0459" unicode="&#x459;" horiz-adv-x="1867" 
d="M117 -8q-51 0 -99 10l2 131q35 -6 60 -6q54 0 91.5 18.5t62 53.5t39.5 100.5t22 143t12 198.5q2 60 2 424h778v-403h336q177 0 285.5 -86.5t108.5 -241.5t-106 -244.5t-288 -89.5h-503v948h-455q0 -225 -4 -319q-4 -134 -16 -231.5t-36.5 -177t-63 -128t-95 -74.5
t-133.5 -26zM1087 113h306q123 0 190.5 56t67.5 165q0 106 -67.5 160.5t-190.5 54.5h-306v-436z" />
    <glyph glyph-name="uni045A" unicode="&#x45a;" horiz-adv-x="1837" 
d="M1395 641q178 0 284.5 -81.5t106.5 -235.5q0 -155 -104.5 -239.5t-288.5 -84.5h-504v516h-561v-516h-168v1065h168v-428h561v428h168v-424h338zM1362 113q258 0 258 209q0 206 -256 206h-307v-415h305z" />
    <glyph glyph-name="uni045B" unicode="&#x45b;" horiz-adv-x="1241" 
d="M205 0v1225h-193v92h193v264h168v-264h471v-92h-471v-273q65 34 169 60t218 26q113 0 190 -29t120 -87.5t61 -135.5t18 -186v-600h-168l2 600q2 154 -61.5 231.5t-212.5 77.5q-74 0 -140.5 -15t-98 -28.5t-97.5 -44.5v-821h-168z" />
    <glyph glyph-name="uni045C" unicode="&#x45c;" horiz-adv-x="1103" 
d="M803 1552l-182 -325h-127l149 325h160zM1075 0h-196l-369 471h-193v-471h-165v1065h165v-459l189 -2l366 461h189l-426 -520z" />
    <glyph glyph-name="uni045D" unicode="&#x45d;" horiz-adv-x="1257" 
d="M604 1227l-151 325h157l121 -325h-127zM152 0v1065h161v-537q-4 -210 -8 -305l4 -2l641 844h154v-1065h-160v494q6 306 8 356l-4 2l-641 -852h-155z" />
    <glyph glyph-name="uni045E" unicode="&#x45e;" horiz-adv-x="1105" 
d="M555 1241q-148 0 -233.5 71.5t-92.5 217.5h115q10 -195 211 -195q198 0 211 195h115q-9 -146 -94.5 -217.5t-231.5 -71.5zM907 1065h168l-563 -1413h-170l137 336l-450 1077h180l203 -500q97 -247 153 -395h4q47 125 146 395z" />
    <glyph glyph-name="uni045F" unicode="&#x45f;" horiz-adv-x="1255" 
d="M563 -272l-8 272h-395v1065h168v-950h602v950h168v-1065h-396l-6 -272h-133z" />
    <glyph glyph-name="uni0490" unicode="&#x490;" horiz-adv-x="1187" 
d="M188 0v1434h824l8 239h141v-381h-792v-1292h-181z" />
    <glyph glyph-name="uni0491" unicode="&#x491;" horiz-adv-x="915" 
d="M160 0v1065h598l14 223h125v-338h-569v-950h-168z" />
    <glyph glyph-name="uni04E2" unicode="&#x4e2;" horiz-adv-x="1581" 
d="M492 1667v100h620v-100h-620zM197 0l2 1434h172v-670q0 -285 -15 -522v-2l852 1194h168v-1434h-170v666q0 280 11 522v2l-848 -1190h-172z" />
    <glyph glyph-name="uni04E3" unicode="&#x4e3;" horiz-adv-x="1241" 
d="M913 1399v-101h-620v101h620zM905 1065h168v-1065h-147l-13 205q-107 -219 -374 -219q-89 0 -158 22.5t-112 60.5t-70.5 92t-38 111t-10.5 125v668h167v-647q0 -133 64.5 -214t204.5 -81q82 0 146 35t100 92t54.5 122t18.5 134v559z" />
    <glyph glyph-name="uni04EE" unicode="&#x4ee;" horiz-adv-x="1345" 
d="M997 1767v-100h-620v100h620zM1122 1434h181l-652 -1434h-188l180 379l-573 1055h192l469 -879z" />
    <glyph glyph-name="uni04EF" unicode="&#x4ef;" horiz-adv-x="1105" 
d="M872 1399v-101h-620v101h620zM907 1065h168l-563 -1413h-170l137 336l-450 1077h180l203 -500q97 -247 153 -395h4q47 125 146 395z" />
    <glyph glyph-name="Wgrave" unicode="&#x1e80;" horiz-adv-x="2023" 
d="M967 1575l-150 246h156l119 -246h-125zM449 0l-410 1434h186l353 -1250h8l327 1250h209l332 -1250h8l357 1250h163l-407 -1434h-246l-315 1188h-8l-314 -1188h-243z" />
    <glyph glyph-name="wgrave" unicode="&#x1e81;" horiz-adv-x="1656" 
d="M922 1223h-127l-152 325h158zM1464 1065h156l-324 -1075h-209l-143 483l-106 389l-111 -391l-145 -481h-211l-320 1075h164l150 -510l116 -414l117 414l152 518h182l147 -518l117 -416l117 416z" />
    <glyph glyph-name="Wacute" unicode="&#x1e82;" horiz-adv-x="2023" 
d="M954 1575l133 246h158l-166 -246h-125zM449 0l-410 1434h186l353 -1250h8l327 1250h209l332 -1250h8l357 1250h163l-407 -1434h-246l-315 1188h-8l-314 -1188h-243z" />
    <glyph glyph-name="wacute" unicode="&#x1e83;" horiz-adv-x="1656" 
d="M1073 1548l-182 -325h-127l149 325h160zM1464 1065h156l-324 -1075h-209l-143 483l-106 389l-111 -391l-145 -481h-211l-320 1075h164l150 -510l116 -414l117 414l152 518h182l147 -518l117 -416l117 416z" />
    <glyph glyph-name="Wdieresis" unicode="&#x1e84;" horiz-adv-x="2023" 
d="M805 1630q-48 0 -78.5 30t-30.5 79t30.5 78.5t78.5 29.5t78 -29.5t30 -78.5t-30 -79t-78 -30zM1223 1630q-46 0 -76.5 30t-30.5 79t30.5 78.5t78.5 29.5q46 0 76 -29.5t30 -78.5t-30 -79t-78 -30zM449 0l-410 1434h186l353 -1250h8l327 1250h209l332 -1250h8l357 1250
h163l-407 -1434h-246l-315 1188h-8l-314 -1188h-243z" />
    <glyph glyph-name="wdieresis" unicode="&#x1e85;" horiz-adv-x="1656" 
d="M623 1255q-47 0 -79 30t-32 77q0 48 32.5 78t80.5 30q47 0 78.5 -30t31.5 -78q0 -47 -32 -77t-80 -30zM1042 1255q-48 0 -79 30t-31 77q0 49 31 78.5t81 29.5q47 0 78 -29.5t31 -78.5q0 -47 -31.5 -77t-79.5 -30zM1464 1065h156l-324 -1075h-209l-143 483l-106 389
l-111 -391l-145 -481h-211l-320 1075h164l150 -510l116 -414l117 414l152 518h182l147 -518l117 -416l117 416z" />
    <glyph glyph-name="uni1E9E" unicode="&#x1e9e;" horiz-adv-x="1505" 
d="M1237 586q77 -57 119.5 -124.5t42.5 -174.5q0 -307 -393 -307q-190 0 -412 83l22 158q74 -36 121 -56t117 -38t133 -18q121 0 181.5 50t60.5 138q0 69 -34.5 117t-96.5 96q-77 62 -105 96q-69 84 -69 201q0 206 186 375q-67 64 -160 97.5t-194 33.5q-190 0 -288.5 -111
t-98.5 -295v-905l-179 -2v905q0 254 144 401.5t411 147.5q347 0 582 -260q-242 -178 -242 -371q0 -21 2.5 -39.5t9 -36t11 -30t17.5 -28t18.5 -23t23 -22.5t22 -19.5t25 -20.5t23.5 -18z" />
    <glyph glyph-name="Ygrave" unicode="&#x1ef2;" horiz-adv-x="1320" 
d="M741 1575h-125l-149 246h156zM1288 1434l-536 -881l-2 -553h-181l2 547l-538 887h190l441 -736l442 736h182z" />
    <glyph glyph-name="ygrave" unicode="&#x1ef3;" horiz-adv-x="1105" 
d="M653 1227h-127l-151 325h157zM907 1065h168l-563 -1413h-170l137 336l-450 1077h180l203 -500q97 -247 153 -395h4q47 125 146 395z" />
    <glyph glyph-name="uni2009" unicode="&#x2009;" horiz-adv-x="108" 
 />
    <glyph glyph-name="endash" unicode="&#x2013;" horiz-adv-x="1224" 
d="M139 485v127h944v-127h-944z" />
    <glyph glyph-name="emdash" unicode="&#x2014;" horiz-adv-x="1828" 
d="M139 485v127h1551v-127h-1551z" />
    <glyph glyph-name="quoteleft" unicode="&#x2018;" horiz-adv-x="481" 
d="M262 1204q44 0 69 -26.5t25 -69.5q0 -51 -31.5 -79t-82.5 -28q-61 0 -102.5 49.5t-41.5 133.5q0 107 63 196t148 138l62 -43q-83 -48 -133 -134.5t-35 -164.5q19 28 59 28z" />
    <glyph glyph-name="quoteright" unicode="&#x2019;" horiz-adv-x="481" 
d="M236 1518q62 0 103.5 -50t41.5 -135q0 -106 -63 -194.5t-148 -137.5l-64 43q84 49 134.5 135t33.5 164q-16 -28 -59 -28q-44 0 -69 26.5t-25 67.5q0 51 33 80t82 29z" />
    <glyph glyph-name="quotesinglbase" unicode="&#x201a;" horiz-adv-x="491" 
d="M233 195q61 0 102.5 -50.5t41.5 -134.5q0 -108 -62.5 -196.5t-148.5 -137.5l-62 45q83 46 132 132t34 165q-18 -28 -59 -28q-43 0 -67.5 27t-24.5 69q0 51 31.5 80t82.5 29z" />
    <glyph glyph-name="quotedblleft" unicode="&#x201c;" horiz-adv-x="849" 
d="M375 1475q-83 -48 -133 -134.5t-35 -164.5q16 28 59 28q44 0 69 -26.5t25 -69.5q0 -51 -31.5 -79t-82.5 -28q-61 0 -102.5 49.5t-41.5 133.5q0 107 63 196t148 138zM633 1204q44 0 69 -26.5t25 -69.5q0 -51 -32 -79t-83 -28q-61 0 -102 49.5t-41 133.5q0 107 63 196
t148 138l61 -43q-83 -48 -133 -134.5t-35 -164.5q19 28 60 28z" />
    <glyph glyph-name="quotedblright" unicode="&#x201d;" horiz-adv-x="849" 
d="M236 1518q62 0 103.5 -50t41.5 -135q0 -106 -63 -194.5t-148 -137.5l-64 43q84 49 134.5 135t33.5 164q-16 -28 -59 -28q-44 0 -69 26.5t-25 67.5q0 51 33 80t82 29zM604 1518q61 0 102.5 -50t41.5 -135q0 -107 -62.5 -195t-148.5 -137l-62 43q84 49 133.5 134t32.5 163
q-16 -26 -57 -26q-44 0 -69.5 26.5t-25.5 67.5q0 51 32 80t83 29z" />
    <glyph glyph-name="quotedblbase" unicode="&#x201e;" horiz-adv-x="868" 
d="M244 195q62 0 103.5 -50.5t41.5 -134.5q0 -107 -63 -196t-148 -138l-61 45q82 47 132.5 134t33.5 163q-17 -28 -60 -28t-67.5 27t-24.5 69q0 51 32 80t81 29zM612 195q61 0 102.5 -50.5t41.5 -134.5q0 -107 -63 -196t-148 -138l-62 45q83 47 133 133t35 164
q-21 -28 -59 -28q-44 0 -69 26.5t-25 69.5q0 51 31.5 80t82.5 29z" />
    <glyph glyph-name="dagger" unicode="&#x2020;" horiz-adv-x="829" 
d="M702 1260v-119l-233 12l12 -541h-133l12 541l-233 -12v119l233 -11l-12 271h133l-12 -271z" />
    <glyph glyph-name="daggerdbl" unicode="&#x2021;" horiz-adv-x="829" 
d="M348 444l10 291l-231 -12v119l229 -13l-4 175l6 172l-231 -13v119l233 -12l-12 250h133l-12 -250l233 12v-119l-231 13l6 -172l-4 -175l229 13v-119l-231 12l10 -291h-133z" />
    <glyph glyph-name="bullet" unicode="&#x2022;" horiz-adv-x="714" 
d="M356 535q-79 0 -130.5 47t-51.5 129t51.5 129t130.5 47q80 0 131.5 -46.5t51.5 -129.5t-51.5 -129.5t-131.5 -46.5z" />
    <glyph glyph-name="ellipsis" unicode="&#x2026;" horiz-adv-x="1464" 
d="M225 -18q-52 0 -81 27t-29 79q0 48 30 77.5t80 29.5q51 0 82 -30t31 -77q0 -51 -30.5 -78.5t-82.5 -27.5zM731 -18q-51 0 -80.5 27.5t-29.5 78.5q0 47 30.5 77t79.5 30q51 0 82 -30t31 -77q0 -51 -30.5 -78.5t-82.5 -27.5zM1237 -18q-51 0 -81 27.5t-30 78.5q0 47 31 77
t80 30q51 0 83 -30t32 -77q0 -51 -31.5 -78.5t-83.5 -27.5z" />
    <glyph glyph-name="perthousand" unicode="&#x2030;" horiz-adv-x="2539" 
d="M324 -61l923 1556h123l-924 -1556h-122zM483 844q-145 0 -234 84t-89 219q0 137 90.5 223t236.5 86q144 0 233 -85t89 -222q0 -136 -89 -220.5t-237 -84.5zM485 940q91 0 147 56t56 151q0 97 -55 153t-148 56q-92 0 -147 -57t-55 -152t55.5 -151t146.5 -56zM1212 -18
q-143 0 -232 84t-89 219q0 137 90.5 223t235.5 86q146 0 234.5 -85t88.5 -222q0 -136 -90 -220.5t-238 -84.5zM1991 -18q-144 0 -233 84t-89 219q0 137 90.5 223t235.5 86t233 -85t88 -222q0 -136 -88.5 -220.5t-236.5 -84.5zM1214 78q92 0 147.5 55.5t55.5 151.5
q0 99 -55 154t-148 55q-91 0 -145.5 -57t-54.5 -152t55.5 -151t144.5 -56zM1993 78q91 0 146.5 56t55.5 151q0 99 -54.5 154t-147.5 55q-92 0 -147.5 -57t-55.5 -152t56 -151t147 -56z" />
    <glyph glyph-name="guilsinglleft" unicode="&#x2039;" horiz-adv-x="569" 
d="M475 885l-239 -353l239 -352h-137l-246 352l244 353h139z" />
    <glyph glyph-name="guilsinglright" unicode="&#x203a;" horiz-adv-x="569" 
d="M231 885l244 -353l-244 -352h-139l242 352l-242 353h139z" />
    <glyph glyph-name="fraction" unicode="&#x2044;" horiz-adv-x="524" 
d="M-225 0l841 1434h134l-842 -1434h-133z" />
    <glyph glyph-name="Euro" unicode="&#x20ac;" horiz-adv-x="1601" 
d="M1413 283l86 -125q-114 -93 -226 -134.5t-255 -41.5q-285 0 -473 149.5t-238 413.5h-190l30 90h150q-4 54 -4 82q0 13 1 40t1 40h-174l31 90h155q47 265 231 415t449 150q138 0 271 -41.5t223 -114.5l-72 -143q-94 81 -189.5 117.5t-207.5 36.5q-203 0 -336.5 -113.5
t-175.5 -306.5h686l-31 -90h-668q-4 -54 -4 -80q0 -28 4 -82h584l-31 -90h-538q43 -196 180 -307t344 -111q65 0 118.5 10.5t103.5 36.5t80 46.5t85 62.5z" />
    <glyph glyph-name="uni20BA" unicode="&#x20ba;" horiz-adv-x="1259" 
d="M1198 629q6 -319 -169 -479t-523 -160q-23 0 -168 10v690l-246 -115v93l246 114v125l-246 -112v90l246 112v437h182v-353l383 179v-93l-383 -176v-125l383 178v-92l-383 -178l-2 -639q254 -15 388.5 110t125.5 384h166z" />
    <glyph glyph-name="uni20BD" unicode="&#x20bd;" horiz-adv-x="1327" 
d="M301 0v332h-207v112h209v144h-209v112h209v734h422q246 0 384 -112.5t138 -315.5q0 -209 -138 -318.5t-384 -109.5h-246v-134h547l-2 -112h-545v-332h-178zM479 700h242q153 0 246.5 80.5t93.5 225.5q0 144 -93.5 219t-250.5 75h-238v-600z" />
    <glyph glyph-name="uni2116" unicode="&#x2116;" horiz-adv-x="2424" 
d="M1917 692q-167 0 -279 101.5t-112 273.5q0 176 111 280.5t280 104.5q170 0 281.5 -104.5t111.5 -280.5q0 -172 -113 -273.5t-280 -101.5zM1188 707v727h174v-1434h-154l-860 1182v-4q14 -243 14 -408v-770h-172v1434h154l856 -1168q-12 174 -12 441zM1917 1346
q-113 0 -189.5 -73.5t-76.5 -199.5t74.5 -200t191.5 -74q118 0 192 73.5t74 198.5q0 128 -76.5 201.5t-189.5 73.5zM1575 412v104h686v-104h-686z" />
    <glyph glyph-name="trademark" unicode="&#x2122;" horiz-adv-x="1536" 
d="M72 1346v88h549v-88h-218v-547h-112v547h-219zM1268 1434h106v-635h-108v452l-207 -333h-25l-215 335v-454h-106v635h102l232 -373z" />
    <glyph glyph-name="oneeighth" unicode="&#x215b;" horiz-adv-x="1998" 
d="M145 657h220v674l-215 -24l-7 102l326 37h27v-789h192v-102h-543v102zM1370 1434h133l-841 -1434h-134zM1753 463q80 -24 131 -80.5t51 -146.5q0 -123 -92.5 -186.5t-245.5 -63.5t-246.5 64t-93.5 186q0 89 49 146t136 81q-67 23 -108.5 75.5t-41.5 123.5q0 107 84.5 167
t220.5 60q134 0 219 -60.5t85 -166.5q0 -71 -41 -123.5t-107 -75.5zM1597 793q-77 0 -124.5 -38t-47.5 -106q0 -61 46 -99t126 -38t125 38t45 99q0 67 -47.5 105.5t-122.5 38.5zM1597 82q91 0 145 43t54 121t-54 122t-145 44q-92 0 -146 -43.5t-54 -122.5q0 -78 54 -121
t146 -43z" />
    <glyph glyph-name="threeeighths" unicode="&#x215c;" horiz-adv-x="1980" 
d="M727 821q0 -134 -100 -206t-254 -72q-99 0 -184 31t-140 85l72 97q127 -109 248 -109q91 0 151 44.5t60 129.5q0 48 -22 82t-60 52t-80 26t-92 8h-70v27l236 311h-390v107h596v-19l-256 -338q140 -10 212.5 -76.5t72.5 -179.5zM1352 1434h135l-842 -1434h-135zM1735 463
q81 -24 131.5 -80t50.5 -147q0 -123 -91.5 -186.5t-244.5 -63.5t-246.5 64t-93.5 186q0 89 48.5 146t133.5 81q-66 23 -107.5 75.5t-41.5 123.5q0 107 85.5 167t221.5 60q134 0 218.5 -60.5t84.5 -166.5q0 -71 -41 -123.5t-108 -75.5zM1581 793q-77 0 -124.5 -38t-47.5 -106
q0 -61 46 -99t126 -38t124 37.5t44 99.5q0 68 -46.5 106t-121.5 38zM1581 82q90 0 144.5 43t54.5 121t-54.5 122t-144.5 44q-92 0 -146.5 -44t-54.5 -122t54.5 -121t146.5 -43z" />
    <glyph glyph-name="fiveeighths" unicode="&#x215d;" horiz-adv-x="1984" 
d="M727 829q0 -134 -94 -211t-252 -77q-196 0 -311 112l65 101q114 -109 242 -109q89 0 148 46t59 134q0 86 -60 130t-174 44q-90 0 -200 -20l-19 8v447h547v-105h-426v-246q68 15 156 15q149 0 234 -72t85 -197zM1356 1434h133l-842 -1434h-133zM1739 463q80 -24 131 -80.5
t51 -146.5q0 -123 -92.5 -186.5t-245.5 -63.5t-246.5 64t-93.5 186q0 89 48.5 146t135.5 81q-67 23 -108 75.5t-41 123.5q0 107 84.5 167t220.5 60q134 0 218.5 -60.5t84.5 -166.5q0 -71 -41 -123.5t-106 -75.5zM1583 793q-77 0 -124.5 -38t-47.5 -106q0 -61 46 -99t126 -38
t125 38t45 99q0 67 -47.5 105.5t-122.5 38.5zM1583 82q90 0 144.5 43t54.5 121t-54.5 122t-144.5 44q-92 0 -146.5 -44t-54.5 -122t54.5 -121t146.5 -43z" />
    <glyph glyph-name="seveneighths" unicode="&#x215e;" horiz-adv-x="1789" 
d="M739 1434v-23l-469 -856h-151l434 772h-467v107h653zM1157 1434h133l-841 -1434h-134zM1544 463q81 -24 131.5 -80t50.5 -147q0 -123 -92 -186.5t-245 -63.5q-152 0 -245 64t-93 186q0 89 48.5 146t133.5 81q-66 23 -108 75.5t-42 123.5q0 107 85 167t221 60
q135 0 220 -60.5t85 -166.5q0 -71 -41.5 -123.5t-108.5 -75.5zM1389 793q-75 0 -122.5 -38.5t-47.5 -105.5q0 -61 46 -99t124 -38q81 0 125.5 37.5t44.5 99.5q0 68 -46.5 106t-123.5 38zM1389 82q91 0 144.5 43t53.5 121t-53.5 122t-144.5 44t-145 -44t-54 -122t53.5 -121
t145.5 -43z" />
    <glyph glyph-name="arrowleft" unicode="&#x2190;" horiz-adv-x="1642" 
d="M924 -43l-754 758l756 755l102 -104l-577 -578l1103 5v-160l-1103 4l577 -578z" />
    <glyph glyph-name="arrowup" unicode="&#x2191;" horiz-adv-x="1691" 
d="M766 0l2 1102l-575 -578l-105 105l758 753l758 -755l-105 -103l-573 578v-1102h-160z" />
    <glyph glyph-name="arrowright" unicode="&#x2192;" horiz-adv-x="1562" 
d="M717 -43l-103 104l578 578l-1104 -4v160l1104 -4l-578 577l105 102l754 -757z" />
    <glyph glyph-name="arrowdown" unicode="&#x2193;" horiz-adv-x="1691" 
d="M846 0l-758 758l105 102l577 -579l-4 1103h160l-2 -1101l575 575l105 -102z" />
    <glyph glyph-name="uni2196" unicode="&#x2196;" horiz-adv-x="1312" 
d="M109 188l2 1072h1069v-148h-818l783 -776l-113 -113l-778 781v-816h-145z" />
    <glyph glyph-name="uni2197" unicode="&#x2197;" horiz-adv-x="1247" 
d="M1012 176l2 817l-778 -782l-113 113l782 778h-817v145l1071 -2v-1069h-147z" />
    <glyph glyph-name="uni2198" unicode="&#x2198;" horiz-adv-x="1249" 
d="M88 178l2 148l817 -2l-784 778l113 112l780 -782v817l145 -2l-4 -1069h-1069z" />
    <glyph glyph-name="uni2199" unicode="&#x2199;" horiz-adv-x="1249" 
d="M88 178v1069h148l-3 -817l779 782l112 -112l-782 -778h817l-2 -146z" />
    <glyph glyph-name="minus" unicode="&#x2212;" horiz-adv-x="1366" 
d="M254 627v118h854v-118h-854z" />
    <glyph glyph-name="uni26C7" unicode="&#x26c7;" horiz-adv-x="1548" 
d="M170 1491q0 -13 -11 -24t-24 -11t-24 11t-11 24t11 24t24 11t24 -11t11 -24zM1413 1526q13 0 24 -11t11 -24t-11 -24t-24 -11t-24 11t-11 24t11 24t24 11zM559 1446q-13 0 -24 11t-11 24t11 24t24 11t24 -11t11 -24t-11 -24t-24 -11zM774 1446q-14 0 -24.5 11t-10.5 24
t10.5 24t24.5 11t24.5 -11t10.5 -24t-10.5 -24t-24.5 -11zM989 1446q-13 0 -24 11t-11 24t11 24t24 11t24 -11t11 -24t-11 -24t-24 -11zM334 1417q-15 0 -26 11t-11 26q0 14 11 24.5t26 10.5q14 0 24.5 -10.5t10.5 -24.5q0 -15 -10.5 -26t-24.5 -11zM1214 1417q-14 0 -24 11
t-10 26q0 14 10.5 24.5t23.5 10.5q15 0 26 -10.5t11 -24.5q0 -15 -11 -26t-26 -11zM1053 817q237 -101 237 -373q0 -109 -39 -194.5t-108.5 -139.5t-163 -82t-205.5 -28q-153 0 -272.5 48.5t-192.5 150.5t-73 245q0 140 68 233.5t190 141.5q-127 77 -127 238q0 117 56 195.5
t145 112.5t206 34q87 0 159 -20t128 -60t87.5 -107t31.5 -155q0 -163 -127 -240zM115 1309q0 13 10.5 23.5t24.5 10.5t24 -10.5t10 -23.5q0 -14 -10.5 -24.5t-23.5 -10.5q-14 0 -24.5 11t-10.5 24zM1399 1343q14 0 24.5 -10.5t10.5 -23.5t-11 -24t-24 -11t-24 11t-11 24
t10.5 23.5t24.5 10.5zM293 1202q-13 0 -24 11t-11 24t11 24t24 11t24 -11t11 -24t-11 -24t-24 -11zM1255 1272q13 0 24 -11t11 -24t-11 -24t-24 -11t-23.5 10.5t-10.5 24.5t10.5 24.5t23.5 10.5zM608 1126q-34 0 -57 -22.5t-23 -56.5t23 -57t57 -23t57 23t23 57t-23 56.5
t-57 22.5zM961 1126q-34 0 -57 -22.5t-23 -56.5t23 -57t57 -23t56.5 23t22.5 57t-22.5 56.5t-56.5 22.5zM188 1096q14 0 24.5 -11t10.5 -24t-10.5 -24t-24.5 -11q-13 0 -23.5 10.5t-10.5 24.5t10.5 24.5t23.5 10.5zM1395 1061q0 -13 -10.5 -24t-24.5 -11t-24.5 11t-10.5 24
t10.5 24t24.5 11t24.5 -11t10.5 -24zM793 950q-13 -7 -17.5 -20t0.5 -23l142 -14zM293 854q-13 0 -24 11t-11 24t11 24t24 11t24 -11t11 -24t-11 -24t-24 -11zM1255 924q13 0 24 -11t11 -24t-11 -24t-24 -11t-23.5 10.5t-10.5 24.5t10.5 24.5t23.5 10.5zM150 729
q13 0 23.5 -10.5t10.5 -24.5t-10.5 -24.5t-23.5 -10.5q-14 0 -24.5 10.5t-10.5 24.5t10.5 24.5t24.5 10.5zM1399 729q13 0 24 -10.5t11 -24.5t-11 -24.5t-24 -10.5t-24 10.5t-11 24.5t11 24.5t24 10.5zM778 510q12 0 21.5 9.5t9.5 21.5t-9.5 20t-21.5 8t-21 -8t-9 -20
t9 -21.5t21 -9.5zM778 334q12 0 21.5 9.5t9.5 21.5t-9.5 21t-21.5 9t-21 -9t-9 -21t9 -21.5t21 -9.5zM778 160q12 0 21.5 8t9.5 20t-9.5 21.5t-21.5 9.5t-21 -9.5t-9 -21.5t9 -20t21 -8z" />
    <glyph glyph-name="uniF8FF" unicode="&#xf8ff;" horiz-adv-x="2951" 
d="M1440 485q-47 0 -74 31t-27 94q0 127 103 127q34 0 67 -20v121h131v-344h-118l-6 22q-36 -31 -76 -31zM287 492q-58 0 -83.5 23.5t-25.5 82.5v55h-47v76h47l17 90h110v-90h60v-76h-60v-39q0 -24 13.5 -31t50.5 1l2 -76q-37 -16 -84 -16zM2738 492q-60 0 -85 23.5
t-25 82.5v55h-45v76h45l16 90h113v-90h57v-76h-57v-39q0 -24 13 -31t48 1l2 -76q-37 -16 -82 -16zM1817 487q-150 0 -150 125q0 61 36.5 94t108.5 33q123 0 123 -94q0 -35 -2 -53h-149q3 -20 16 -27.5t43 -7.5q46 0 82 10v-59q-58 -21 -108 -21zM721 385v344h108l9 -27
q39 35 90 35q43 0 68.5 -32t25.5 -93q0 -59 -25 -93t-77 -34q-42 0 -68 23v-123h-131zM1196 485q-149 0 -149 125q0 61 36.5 94t108.5 33q123 0 123 -94q0 -35 -2 -53h-150q3 -20 16.5 -27.5t43.5 -7.5q48 0 82 10v-59q-54 -21 -109 -21zM1966 385v344h109l8 -27
q39 35 90 35q43 0 68.5 -32t25.5 -93q0 -59 -25 -93t-77 -34q-42 0 -68 23v-123h-131zM2429 485q-72 0 -104.5 30.5t-32.5 96.5q0 65 32.5 95t104.5 30h2q72 0 105.5 -30t33.5 -95q0 -66 -33 -96.5t-104 -30.5h-4zM535 373q-69 0 -119 18v76q44 -18 94.5 -14t50.5 39v12
q-32 -19 -67 -19q-93 0 -93 88v156h129v-164q0 -24 29 -12v176h127v-215q0 -141 -151 -141zM1782 631h51q7 41 -23 41q-28 0 -28 -41zM1161 629h51q7 41 -22 41t-29 -41zM2431 561q18 0 18 55q0 52 -18 52q-21 0 -21 -52q0 -55 21 -55zM1485 555q12 0 26 14v84q-12 6 -20 6
q-18 0 -26.5 -11.5t-8.5 -39.5q0 -53 29 -53zM874 555q31 0 31 51q0 49 -26 49q-15 0 -29 -14v-76q13 -10 24 -10zM2120 555q30 0 30 51q0 49 -26 49q-15 0 -29 -14v-76q13 -10 25 -10z" />
    <glyph glyph-name="Iacute_J.loclNLD" horiz-adv-x="1361" 
d="M225 1575l133 246h158l-164 -246h-127zM1036 1575l131 246h160l-166 -246h-125zM190 0v1434h181v-1434h-181zM809 -16q-114 0 -193 22v154q93 -29 187 -29q92 0 149.5 54t57.5 169v1080h178v-1076q0 -189 -104 -281.5t-275 -92.5z" />
    <glyph glyph-name="Q.alt" horiz-adv-x="1712" 
d="M874 -16q-224 0 -397 91.5t-268.5 257.5t-95.5 382t95.5 383.5t269 259.5t396.5 92q342 0 552 -203t210 -532q0 -327 -210 -529t-552 -202zM874 137q257 0 417.5 156t160.5 420q0 265 -160.5 424t-417.5 159q-253 0 -414 -158.5t-161 -424.5q0 -263 161 -419.5
t414 -156.5zM1542 -305l-792 37v121l792 -3v-155z" />
    <glyph glyph-name="uni1E9E.alt" horiz-adv-x="1513" 
d="M977 838q219 -35 342 -143t123 -283q0 -197 -127.5 -311.5t-333.5 -114.5q-240 0 -436 137l63 135q43 -30 70.5 -47t76 -41.5t100.5 -36.5t108 -12q133 0 215 82.5t82 210.5q0 148 -123 226t-375 108v32l311 514h-704v-1294h-179l3 1434h1122l-2 -29z" />
    <glyph glyph-name="a.alt" horiz-adv-x="1189" 
d="M602 1079q227 0 341 -105.5t114 -309.5v-664h-170v221q-57 -107 -161.5 -171t-256.5 -64q-108 0 -190 32.5t-132.5 105.5t-50.5 181q0 163 122.5 238t373.5 75q115 0 299 -16v68q0 130 -85.5 207t-223.5 77q-202 0 -408 -153l-68 119q234 159 496 159zM506 104
q79 0 151.5 30.5t123 80.5t80.5 114.5t30 131.5v37q-197 16 -293 16q-167 0 -249.5 -49t-82.5 -156q0 -56 21 -97.5t56.5 -64t76 -33t86.5 -10.5z" />
    <glyph glyph-name="aacute.alt" horiz-adv-x="1189" 
d="M856 1552l-182 -325h-127l149 325h160zM602 1079q227 0 341 -105.5t114 -309.5v-664h-170v221q-57 -107 -161.5 -171t-256.5 -64q-108 0 -190 32.5t-132.5 105.5t-50.5 181q0 163 122.5 238t373.5 75q115 0 299 -16v68q0 130 -85.5 207t-223.5 77q-202 0 -408 -153
l-68 119q234 159 496 159zM506 104q79 0 151.5 30.5t123 80.5t80.5 114.5t30 131.5v37q-197 16 -293 16q-167 0 -249.5 -49t-82.5 -156q0 -56 21 -97.5t56.5 -64t76 -33t86.5 -10.5z" />
    <glyph glyph-name="abreve.alt" horiz-adv-x="1189" 
d="M614 1241q-147 0 -232.5 71.5t-92.5 217.5h114q10 -195 211 -195q198 0 211 195h115q-9 -146 -94.5 -217.5t-231.5 -71.5zM602 1079q227 0 341 -105.5t114 -309.5v-664h-170v221q-57 -107 -161.5 -171t-256.5 -64q-108 0 -190 32.5t-132.5 105.5t-50.5 181
q0 163 122.5 238t373.5 75q115 0 299 -16v68q0 130 -85.5 207t-223.5 77q-202 0 -408 -153l-68 119q234 159 496 159zM506 104q79 0 151.5 30.5t123 80.5t80.5 114.5t30 131.5v37q-197 16 -293 16q-167 0 -249.5 -49t-82.5 -156q0 -56 21 -97.5t56.5 -64t76 -33t86.5 -10.5z
" />
    <glyph glyph-name="acircumflex.alt" horiz-adv-x="1189" 
d="M616 1448l-176 -221h-145l278 332h82l279 -332h-146zM602 1079q227 0 341 -105.5t114 -309.5v-664h-170v221q-57 -107 -161.5 -171t-256.5 -64q-108 0 -190 32.5t-132.5 105.5t-50.5 181q0 163 122.5 238t373.5 75q115 0 299 -16v68q0 130 -85.5 207t-223.5 77
q-202 0 -408 -153l-68 119q234 159 496 159zM506 104q79 0 151.5 30.5t123 80.5t80.5 114.5t30 131.5v37q-197 16 -293 16q-167 0 -249.5 -49t-82.5 -156q0 -56 21 -97.5t56.5 -64t76 -33t86.5 -10.5z" />
    <glyph glyph-name="adieresis.alt" horiz-adv-x="1189" 
d="M403 1260q-47 0 -78.5 29.5t-31.5 76.5q0 49 32.5 79t80.5 30q47 0 78.5 -30t31.5 -79q0 -47 -32.5 -76.5t-80.5 -29.5zM823 1260q-48 0 -79 29.5t-31 76.5q0 49 31 79t81 30q47 0 78 -30t31 -79q0 -47 -31.5 -76.5t-79.5 -29.5zM602 1079q227 0 341 -105.5t114 -309.5
v-664h-170v221q-57 -107 -161.5 -171t-256.5 -64q-108 0 -190 32.5t-132.5 105.5t-50.5 181q0 163 122.5 238t373.5 75q115 0 299 -16v68q0 130 -85.5 207t-223.5 77q-202 0 -408 -153l-68 119q234 159 496 159zM506 104q79 0 151.5 30.5t123 80.5t80.5 114.5t30 131.5v37
q-197 16 -293 16q-167 0 -249.5 -49t-82.5 -156q0 -56 21 -97.5t56.5 -64t76 -33t86.5 -10.5z" />
    <glyph glyph-name="agrave.alt" horiz-adv-x="1189" 
d="M705 1227h-127l-152 325h158zM602 1079q227 0 341 -105.5t114 -309.5v-664h-170v221q-57 -107 -161.5 -171t-256.5 -64q-108 0 -190 32.5t-132.5 105.5t-50.5 181q0 163 122.5 238t373.5 75q115 0 299 -16v68q0 130 -85.5 207t-223.5 77q-202 0 -408 -153l-68 119
q234 159 496 159zM506 104q79 0 151.5 30.5t123 80.5t80.5 114.5t30 131.5v37q-197 16 -293 16q-167 0 -249.5 -49t-82.5 -156q0 -56 21 -97.5t56.5 -64t76 -33t86.5 -10.5z" />
    <glyph glyph-name="amacron.alt" horiz-adv-x="1189" 
d="M924 1399v-101h-621v101h621zM602 1079q227 0 341 -105.5t114 -309.5v-664h-170v221q-57 -107 -161.5 -171t-256.5 -64q-108 0 -190 32.5t-132.5 105.5t-50.5 181q0 163 122.5 238t373.5 75q115 0 299 -16v68q0 130 -85.5 207t-223.5 77q-202 0 -408 -153l-68 119
q234 159 496 159zM506 104q79 0 151.5 30.5t123 80.5t80.5 114.5t30 131.5v37q-197 16 -293 16q-167 0 -249.5 -49t-82.5 -156q0 -56 21 -97.5t56.5 -64t76 -33t86.5 -10.5z" />
    <glyph glyph-name="aogonek.alt" horiz-adv-x="1189" 
d="M1114 -217l4 -111q-65 -16 -151 -16q-44 0 -81 8t-70 26.5t-52 53t-19 82.5q0 130 142 186v209q-57 -107 -161.5 -171t-256.5 -64q-108 0 -190 32.5t-132.5 105.5t-50.5 181q0 163 122.5 238t373.5 75q115 0 299 -16v68q0 130 -85.5 207t-223.5 77q-202 0 -408 -153
l-68 119q234 159 496 159q227 0 341 -105.5t114 -309.5v-664q-199 -21 -199 -139q0 -97 125 -97q53 0 131 19zM506 104q79 0 151.5 30.5t123 80.5t80.5 114.5t30 131.5v37q-197 16 -293 16q-167 0 -249.5 -49t-82.5 -156q0 -56 21 -97.5t56.5 -64t76 -33t86.5 -10.5z" />
    <glyph glyph-name="aring.alt" horiz-adv-x="1189" 
d="M612 1229q-95 0 -159 54.5t-64 148.5q0 97 63.5 150.5t159.5 53.5q97 0 160.5 -53.5t63.5 -150.5q0 -94 -64 -148.5t-160 -54.5zM612 1559q-56 0 -91.5 -33t-35.5 -94q0 -58 35.5 -91.5t91.5 -33.5t91.5 33.5t35.5 91.5q0 61 -35.5 94t-91.5 33zM602 1079
q227 0 341 -105.5t114 -309.5v-664h-170v221q-57 -107 -161.5 -171t-256.5 -64q-108 0 -190 32.5t-132.5 105.5t-50.5 181q0 163 122.5 238t373.5 75q115 0 299 -16v68q0 130 -85.5 207t-223.5 77q-202 0 -408 -153l-68 119q234 159 496 159zM506 104q79 0 151.5 30.5
t123 80.5t80.5 114.5t30 131.5v37q-197 16 -293 16q-167 0 -249.5 -49t-82.5 -156q0 -56 21 -97.5t56.5 -64t76 -33t86.5 -10.5z" />
    <glyph glyph-name="atilde.alt" horiz-adv-x="1189" 
d="M455 1370q-41 0 -71.5 -22t-41.5 -58l-63 8q16 98 68 143.5t124 45.5q68 0 160 -47q7 -3 32 -15.5t38 -18t34.5 -11.5t40.5 -6q42 0 73 22.5t40 58.5l63 -8q-14 -97 -66 -142.5t-126 -45.5q-66 0 -158 45q-2 1 -26.5 13.5t-31.5 15.5t-26 10t-33.5 9.5t-29.5 2.5z
M602 1079q227 0 341 -105.5t114 -309.5v-664h-170v221q-57 -107 -161.5 -171t-256.5 -64q-108 0 -190 32.5t-132.5 105.5t-50.5 181q0 163 122.5 238t373.5 75q115 0 299 -16v68q0 130 -85.5 207t-223.5 77q-202 0 -408 -153l-68 119q234 159 496 159zM506 104
q79 0 151.5 30.5t123 80.5t80.5 114.5t30 131.5v37q-197 16 -293 16q-167 0 -249.5 -49t-82.5 -156q0 -56 21 -97.5t56.5 -64t76 -33t86.5 -10.5z" />
    <glyph glyph-name="y.alt" horiz-adv-x="1296" 
d="M973 1065h172v-936q0 -107 -29.5 -191.5t-80 -140t-122 -92t-151.5 -52t-172 -15.5q-117 0 -243.5 41t-219.5 120l63 131q81 -75 190 -122.5t214 -47.5q168 0 273.5 84.5t105.5 251.5v135q-114 -198 -355 -198q-203 0 -324.5 117.5t-121.5 326.5v588h170v-582
q0 -148 90 -233.5t225 -85.5t225.5 85.5t90.5 233.5v582z" />
    <glyph glyph-name="yacute.alt" horiz-adv-x="1296" 
d="M901 1552l-182 -325h-127l149 325h160zM973 1065h172v-936q0 -107 -29.5 -191.5t-80 -140t-122 -92t-151.5 -52t-172 -15.5q-117 0 -243.5 41t-219.5 120l63 131q81 -75 190 -122.5t214 -47.5q168 0 273.5 84.5t105.5 251.5v135q-114 -198 -355 -198q-203 0 -324.5 117.5
t-121.5 326.5v588h170v-582q0 -148 90 -233.5t225 -85.5t225.5 85.5t90.5 233.5v582z" />
    <glyph glyph-name="ycircumflex.alt" horiz-adv-x="1296" 
d="M662 1448l-177 -221h-145l278 332h82l279 -332h-145zM973 1065h172v-936q0 -107 -29.5 -191.5t-80 -140t-122 -92t-151.5 -52t-172 -15.5q-117 0 -243.5 41t-219.5 120l63 131q81 -75 190 -122.5t214 -47.5q168 0 273.5 84.5t105.5 251.5v135q-114 -198 -355 -198
q-203 0 -324.5 117.5t-121.5 326.5v588h170v-582q0 -148 90 -233.5t225 -85.5t225.5 85.5t90.5 233.5v582z" />
    <glyph glyph-name="ydieresis.alt" horiz-adv-x="1296" 
d="M449 1260q-47 0 -79 30t-32 76q0 49 32.5 79t80.5 30q47 0 78.5 -30t31.5 -79q0 -47 -32 -76.5t-80 -29.5zM868 1260q-48 0 -79 29.5t-31 76.5q0 49 31 79t81 30q47 0 78 -30t31 -79q0 -47 -31.5 -76.5t-79.5 -29.5zM973 1065h172v-936q0 -107 -29.5 -191.5t-80 -140
t-122 -92t-151.5 -52t-172 -15.5q-117 0 -243.5 41t-219.5 120l63 131q81 -75 190 -122.5t214 -47.5q168 0 273.5 84.5t105.5 251.5v135q-114 -198 -355 -198q-203 0 -324.5 117.5t-121.5 326.5v588h170v-582q0 -148 90 -233.5t225 -85.5t225.5 85.5t90.5 233.5v582z" />
    <glyph glyph-name="ygrave.alt" horiz-adv-x="1296" 
d="M750 1227h-127l-152 325h158zM973 1065h172v-936q0 -107 -29.5 -191.5t-80 -140t-122 -92t-151.5 -52t-172 -15.5q-117 0 -243.5 41t-219.5 120l63 131q81 -75 190 -122.5t214 -47.5q168 0 273.5 84.5t105.5 251.5v135q-114 -198 -355 -198q-203 0 -324.5 117.5
t-121.5 326.5v588h170v-582q0 -148 90 -233.5t225 -85.5t225.5 85.5t90.5 233.5v582z" />
    <glyph glyph-name="iacute_j.loclNLD" horiz-adv-x="1110" 
d="M158 1227l149 325h158l-182 -325h-125zM809 1227l149 325h158l-182 -325h-125zM139 0v1065h168v-1065h-168zM690 -358q-96 0 -172 24l6 125q66 -24 138 -24q73 0 112 34.5t39 120.5v1143h168v-1147q0 -76 -23.5 -131.5t-65 -86t-91.5 -44.5t-111 -14z" />
    <glyph glyph-name="uni0414.bg" horiz-adv-x="1787" 
d="M61 -287v426h162l561 1307h220l559 -1307h161v-426h-139l-10 287h-1356l-10 -287h-148zM397 133h987l-260 594q-34 80 -107.5 271t-121.5 298h-6q-132 -340 -232 -567z" />
    <glyph glyph-name="uni041B.bg" horiz-adv-x="1427" 
d="M31 0l573 1444h221l572 -1444h-183l-501 1284h-2l-504 -1284h-176z" />
    <glyph glyph-name="uni0424.bg" horiz-adv-x="1826" 
d="M829 -170v180q-334 9 -529.5 201.5t-195.5 501.5q0 310 195.5 503.5t529.5 202.5v176h168v-176q167 -4 303.5 -57t228.5 -145.5t142.5 -221.5t50.5 -282q0 -204 -86 -360.5t-251 -247t-388 -95.5v-180h-168zM829 147v1135q-253 -6 -400.5 -160.5t-147.5 -408.5
q0 -253 147.5 -406t400.5 -160zM997 147q255 6 403 159.5t148 406.5t-148 408t-403 161v-1135z" />
    <glyph glyph-name="uni0409.bg" horiz-adv-x="2195" 
d="M47 0l844 1434h297v-519h401q126 0 229 -35.5t169 -97.5t101.5 -143t35.5 -174q0 -201 -148 -333t-387 -132h-581v1296h-13l-768 -1296h-180zM1188 133h371q185 0 282.5 92t97.5 236q0 146 -98 232.5t-280 86.5h-373v-647z" />
    <glyph glyph-name="uni0434.alt.bg" horiz-adv-x="1349" 
d="M33 -246v365h153l385 956h205l383 -956h156v-365h-141l-9 246h-983l-6 -246h-143zM348 111h651l-178 452q-115 282 -147 367h-8q-34 -96 -138 -367z" />
    <glyph glyph-name="uni0432.bg" horiz-adv-x="1323" 
d="M846 838q175 -25 276 -130.5t101 -271.5q0 -216 -148.5 -334t-402.5 -118q-105 0 -195 25.5t-166.5 80.5t-121 153t-44.5 230v633q0 233 138.5 364.5t371.5 131.5q229 0 356.5 -108t127.5 -294q0 -131 -75.5 -230.5t-217.5 -131.5zM313 1130v-243h316q162 0 256 82
t94 217q0 139 -85 215t-241 76q-158 0 -249 -88.5t-91 -258.5zM672 109q184 0 281.5 91.5t97.5 248.5q0 158 -107.5 241.5t-288.5 83.5h-342v-311q0 -158 89 -256t270 -98z" />
    <glyph glyph-name="uni0433.bg" horiz-adv-x="991" 
d="M477 -14q-188 0 -301 75t-113 222q0 47 13 86t31.5 67t53 52t62 38.5t76 29t77 21.5t81.5 19q48 10 80 19t71.5 25.5t63 36t39.5 50t16 68.5q0 83 -64.5 122t-168.5 39q-98 0 -182 -42.5t-144 -104.5l-94 109q81 75 196.5 118t243.5 43q79 0 145.5 -15.5t121 -47.5
t85.5 -88t31 -131q0 -243 -342 -310q-161 -34 -215 -58q-106 -49 -107 -144q0 -85 67 -129.5t183 -44.5q121 0 212 55.5t147 134.5l114 -96q-168 -219 -479 -219z" />
    <glyph glyph-name="uni0453.bg" horiz-adv-x="976" 
d="M436 1227l152 325h157l-182 -325h-127zM477 -14q-188 0 -301 75t-113 222q0 47 13 86t31.5 67t53 52t62 38.5t76 29t77 21.5t81.5 19q48 10 80 19t71.5 25.5t63 36t39.5 50t16 68.5q0 83 -64.5 122t-168.5 39q-98 0 -182 -42.5t-144 -104.5l-94 109q81 75 196.5 118
t243.5 43q79 0 145.5 -15.5t121 -47.5t85.5 -88t31 -131q0 -243 -342 -310q-161 -34 -215 -58q-106 -49 -107 -144q0 -85 67 -129.5t183 -44.5q121 0 212 55.5t147 134.5l114 -96q-168 -219 -479 -219z" />
    <glyph glyph-name="uni0491.bg" horiz-adv-x="991" 
d="M842 301l114 -96q-168 -219 -479 -219q-188 0 -301 75t-113 222q0 47 13 86t31.5 67t53 52t62 38.5t76 29t77 21.5t81.5 19q48 10 80 19t71.5 25.5t63 36t39.5 50t16 68.5q0 83 -64.5 122t-168.5 39q-98 0 -182 -42.5t-144 -104.5l-94 109q71 67 170.5 108.5t212.5 50.5
l-2 209h137l-4 -211q66 -6 120.5 -25t97.5 -51.5t67 -84t24 -117.5q0 -243 -342 -310q-161 -34 -215 -58q-106 -49 -107 -144q0 -85 67 -129.5t183 -44.5q121 0 212 55.5t147 134.5z" />
    <glyph glyph-name="uni0434.bg" horiz-adv-x="1341" 
d="M1061 1065h143v-903q0 -114 -32 -204.5t-87 -150t-133 -99t-165.5 -56.5t-188.5 -17q-118 0 -248 37t-223 105l59 123q82 -62 193 -101t217 -39q90 0 166.5 20t138.5 62t97.5 113.5t35.5 167.5v141q-52 -113 -168.5 -172t-259.5 -59q-89 0 -167 19t-144.5 60t-114.5 101
t-75 147t-27 193q0 131 40.5 233t113 165.5t167 95.5t207.5 32q152 0 269.5 -57t171.5 -156zM647 166q183 0 287 105t104 284q0 177 -104.5 284t-286.5 107q-187 0 -292 -106.5t-105 -284.5t104.5 -283.5t292.5 -105.5z" />
    <glyph glyph-name="uni0436.bg" horiz-adv-x="1736" 
d="M1710 0h-192l-371 471h-197v-471h-164v471h-196l-371 -471h-190l440 543l-428 522h186l367 -461l192 2v975h164v-975l193 -2l368 461h185l-426 -522z" />
    <glyph glyph-name="uni0437.bg" horiz-adv-x="1046" 
d="M631 371q66 -11 121.5 -34.5t102 -62.5t73 -101t26.5 -140q0 -101 -42.5 -177.5t-117 -121t-165 -66.5t-195.5 -22q-128 0 -260 45.5t-231 134.5l82 117q74 -71 183.5 -121.5t219.5 -50.5q159 0 255.5 71.5t96.5 202.5q0 132 -96.5 196t-269.5 64h-224v117h216
q169 0 258.5 76.5t89.5 195.5q0 121 -87.5 190.5t-236.5 69.5q-186 0 -358 -133l-74 115q82 61 201 102t247 41q217 0 344.5 -98t127.5 -270q0 -130 -78 -219t-209 -121z" />
    <glyph glyph-name="uni0438.bg" horiz-adv-x="1241" 
d="M905 1065h168v-1065h-147l-13 205q-107 -219 -374 -219q-89 0 -158 22.5t-112 60.5t-70.5 92t-38 111t-10.5 125v668h167v-647q0 -133 64.5 -214t204.5 -81q82 0 146 35t100 92t54.5 122t18.5 134v559z" />
    <glyph glyph-name="uni0439.bg" horiz-adv-x="1177" 
d="M858 1370v-100h-541v100h541zM883 1065h168v-1065h-148l-12 205q-107 -219 -375 -219q-89 0 -158 22.5t-112 60.5t-70.5 92t-38 111t-10.5 125v668h168v-647q0 -133 64.5 -214t203.5 -81q82 0 146 35t100.5 92t55 122.5t18.5 133.5v559z" />
    <glyph glyph-name="uni045D.bg" horiz-adv-x="1241" 
d="M758 1227h-127l-152 325h158zM905 1065h168v-1065h-147l-13 205q-107 -219 -374 -219q-89 0 -158 22.5t-112 60.5t-70.5 92t-38 111t-10.5 125v668h167v-647q0 -133 64.5 -214t204.5 -81q82 0 146 35t100 92t54.5 122t18.5 134v559z" />
    <glyph glyph-name="uni043A.bg" horiz-adv-x="1110" 
d="M1081 0h-194l-371 471h-192v-471h-164v1528h164v-922l188 -2l369 461h188l-428 -520z" />
    <glyph glyph-name="uni043B.bg" horiz-adv-x="1099" 
d="M1069 0h-178l-342 924l-344 -924h-174l413 1065h213z" />
    <glyph glyph-name="uni043F.bg" horiz-adv-x="1230" 
d="M690 1079q201 0 304.5 -105.5t103.5 -297.5v-676h-168v639q0 143 -70.5 222t-210.5 79q-78 0 -138 -25t-95 -63.5t-57 -91t-29.5 -99.5t-7.5 -98v-563h-170v1065h149l8 -191q48 93 146.5 149t234.5 56z" />
    <glyph glyph-name="uni0442.bg" horiz-adv-x="1832" 
d="M1323 1079q175 0 276 -101t101 -310v-668h-168v659q0 140 -63.5 210.5t-182.5 70.5q-135 0 -204.5 -91.5t-69.5 -238.5v-610h-168v680q0 124 -68.5 192t-177.5 68q-131 0 -203.5 -89.5t-72.5 -240.5v-610h-170v1065h147l6 -170q47 87 132 135.5t198 48.5q72 0 134 -21
t115.5 -70t80.5 -122q90 213 358 213z" />
    <glyph glyph-name="uni0446.bg" horiz-adv-x="1273" 
d="M1051 117h168v-363h-134l-12 246h-170l-14 236q-114 -250 -385 -250q-377 0 -377 411v668h168v-647q0 -133 61.5 -214t194.5 -81q69 0 125.5 25.5t94.5 67t63.5 96t37 112t11.5 115.5v526h168v-948z" />
    <glyph glyph-name="uni0448.bg" horiz-adv-x="1777" 
d="M1483 1065h168v-1065h-146l-8 219q-45 -109 -132 -171t-204 -62q-112 0 -199 63t-120 193q-43 -123 -136 -189.5t-229 -66.5q-165 0 -257.5 101t-92.5 310v668h168v-668q0 -140 60.5 -211t172.5 -71q72 0 127 35.5t86.5 95t47.5 129.5t16 147v543h168v-666
q0 -134 65.5 -209t169.5 -75q130 0 202.5 112t72.5 295v543z" />
    <glyph glyph-name="uni0449.bg" horiz-adv-x="1918" 
d="M1729 -246l-11 246h-170l-8 223q-41 -112 -130 -174.5t-208 -62.5q-111 0 -198.5 64t-120.5 194q-42 -124 -135 -191t-228 -67q-166 0 -259 100.5t-93 310.5v668h170v-668q0 -141 59.5 -211.5t171.5 -70.5q72 0 127.5 35.5t87 95t47 129.5t15.5 147v543h170v-666
q0 -134 65 -209t168 -75q131 0 205 112.5t74 294.5v543h168v-948h168v-363h-135z" />
    <glyph glyph-name="uni045F.bg" horiz-adv-x="1216" 
d="M905 1065h168v-1065h-147l-13 205q-103 -208 -348 -219l8 -258h-141l10 266q-292 47 -292 403v668h167v-647q0 -133 64.5 -214t204.5 -81q82 0 146 35t100 92t54.5 122t18.5 134v559z" />
    <glyph glyph-name="uni044C.bg" horiz-adv-x="1191" 
d="M678 825q121 0 217.5 -44.5t156.5 -140.5t60 -232q0 -206 -131 -315t-352 -109q-105 0 -192 27.5t-153.5 82t-103.5 143t-37 203.5v625h168v-420q48 84 145 132t222 48zM627 96q144 0 229.5 81t85.5 229q0 147 -84.5 228t-228.5 81q-145 0 -231.5 -83t-86.5 -231
q0 -146 88 -225.5t228 -79.5z" />
    <glyph glyph-name="uni044A.bg" horiz-adv-x="1400" 
d="M885 825q91 0 169 -26t139 -76t95.5 -131t34.5 -184q0 -206 -132 -315t-355 -109q-105 0 -193 27.5t-154.5 82t-103.5 143t-37 203.5v506h-332v119h500v-420q47 85 145 132.5t224 47.5zM834 96q144 0 230.5 81t86.5 229q0 146 -86 227.5t-229 81.5q-145 0 -232.5 -83.5
t-87.5 -230.5q0 -144 89 -224.5t229 -80.5z" />
    <glyph glyph-name="uni044B.bg" horiz-adv-x="1634" 
d="M678 825q121 0 217.5 -44.5t156.5 -140.5t60 -232q0 -206 -131 -315t-352 -109q-105 0 -192 27.5t-153.5 82t-103.5 143t-37 203.5v625h168v-420q48 84 145 132t222 48zM1307 1065h168v-1065h-168v1065zM627 96q144 0 229.5 81t85.5 229q0 147 -84.5 228t-228.5 81
q-145 0 -231.5 -83t-86.5 -231q0 -146 88 -225.5t228 -79.5z" />
    <glyph glyph-name="uni0459.bg" horiz-adv-x="1822" 
d="M1292 827q92 0 173 -26.5t144 -77t99.5 -132t36.5 -183.5q0 -206 -131 -315t-352 -109q-169 0 -289.5 73.5t-175.5 225.5l-244 645l-346 -928h-176l413 1065h213l211 -545q33 142 144 224.5t280 82.5zM1260 96q144 0 229.5 81t85.5 229q0 147 -84.5 228t-228.5 81
q-145 0 -231.5 -83t-86.5 -231q0 -146 88 -225.5t228 -79.5z" />
    <glyph glyph-name="uni045A.bg" horiz-adv-x="1929" 
d="M1415 825q91 0 169 -26t138 -76.5t94.5 -131.5t34.5 -183q0 -206 -131 -315t-352 -109q-105 0 -192 27.5t-153 82t-103 143t-37 203.5v41h-561v-481h-170v1065h170v-463h561v463h168v-420q48 84 143.5 132t220.5 48zM1366 96q144 0 229.5 81t85.5 229q0 147 -84.5 228
t-228.5 81q-145 0 -231 -83t-86 -231q0 -146 87.5 -225.5t227.5 -79.5z" />
    <glyph glyph-name="uni044E.bg" horiz-adv-x="1703" 
d="M1071 -16q-228 0 -384 134.5t-171 362.5h-197v-481h-167v1581h167v-987h197q12 149 89.5 260t198.5 168t267 57q155 0 280.5 -65t200 -190.5t74.5 -291.5q0 -126 -43.5 -230.5t-119 -173t-176.5 -106.5t-216 -38zM1071 121q166 0 274.5 111t108.5 298q0 189 -108.5 300.5
t-274.5 111.5q-167 0 -276 -111.5t-109 -300.5q0 -188 109 -298.5t276 -110.5z" />
    <glyph glyph-name="zero.tnum" horiz-adv-x="1351" 
d="M676 -18q-263 0 -406 199t-143 538q0 335 143 534t408 199q264 0 406.5 -198.5t142.5 -534.5q0 -337 -144 -537t-407 -200zM678 123q186 0 276 159t90 437q0 134 -21.5 241t-65 186.5t-114.5 122t-165 42.5q-127 0 -211 -76t-121 -205.5t-37 -310.5q0 -182 37 -312.5
t121 -207t211 -76.5z" />
    <glyph glyph-name="one.tnum" horiz-adv-x="1351" 
d="M203 0v131h405v1143l-366 -113l-9 142l486 139h61v-1311h391v-131h-968z" />
    <glyph glyph-name="two.tnum" horiz-adv-x="1351" 
d="M487 131l672 10v-141h-983v33l500 502q64 64 97.5 99.5t77 88t64 92.5t35.5 91t15 104q0 148 -86.5 226.5t-229.5 78.5q-179 0 -377 -189l-100 121q216 203 483 203q228 0 361 -112t133 -324q0 -68 -18.5 -131.5t-45 -114t-79.5 -114.5t-97.5 -109.5t-122.5 -120.5z" />
    <glyph glyph-name="three.tnum" horiz-adv-x="1351" 
d="M707 844q222 -11 349.5 -119t127.5 -297q0 -109 -42.5 -194.5t-117.5 -139t-173.5 -81t-213.5 -27.5q-299 0 -490 188l95 121q174 -174 391 -174q159 0 265 80.5t106 232.5t-116 223.5t-315 71.5h-102v35l403 530h-647v140h903v-29z" />
    <glyph glyph-name="four.tnum" horiz-adv-x="1351" 
d="M1020 449h233v-130h-233v-319h-170v319h-744v29l527 1086h178l-481 -985h520l2 450h168v-450z" />
    <glyph glyph-name="five.tnum" horiz-adv-x="1351" 
d="M682 879q243 0 379.5 -113t136.5 -317q0 -216 -150 -340.5t-403 -124.5q-293 0 -477 166l80 124q187 -159 385 -159q173 0 279 85t106 242q0 152 -106 229t-300 77q-156 0 -346 -35l-18 10v711h876v-138h-727v-442q146 25 285 25z" />
    <glyph glyph-name="six.tnum" horiz-adv-x="1351" 
d="M758 903q137 0 243.5 -49t170 -151.5t63.5 -245.5q0 -221 -146.5 -346t-388.5 -125q-344 0 -481 280q-92 186 -92 428q0 160 43 300.5t119 238.5q164 219 469 219q131 0 254.5 -39t210.5 -102l-70 -125q-174 131 -383 131q-251 0 -371 -191q-94 -153 -100 -370
q0 -66 6 -121q54 124 170.5 196t282.5 72zM700 113q159 0 256 92.5t97 245.5q0 150 -96 239.5t-250 89.5q-169 0 -269 -101t-100 -239q0 -51 18 -110q34 -100 127 -158.5t217 -58.5z" />
    <glyph glyph-name="seven.tnum" horiz-adv-x="1351" 
d="M172 1434h1006v-35l-699 -1399h-190l655 1294h-772v140z" />
    <glyph glyph-name="eight.tnum" horiz-adv-x="1351" 
d="M909 760q145 -37 229.5 -132.5t84.5 -244.5q0 -132 -71 -224t-191.5 -134.5t-282.5 -42.5q-247 0 -398 103t-151 302q0 147 83 241t230 132q-118 35 -186 122t-68 203q0 174 133.5 270.5t354.5 96.5q222 0 354.5 -96.5t132.5 -270.5q0 -116 -68 -203t-186 -122zM362 1071
q0 -109 81.5 -179.5t232.5 -70.5t232 70.5t81 179.5q0 121 -84 186.5t-229 65.5q-144 0 -229 -65.5t-85 -186.5zM676 111q172 0 268 75.5t96 210.5q0 137 -96 215t-268 78t-268.5 -78t-96.5 -215q0 -135 96.5 -210.5t268.5 -75.5z" />
    <glyph glyph-name="nine.tnum" horiz-adv-x="1351" 
d="M647 1452q145 0 256 -53.5t179.5 -150t102.5 -224.5t34 -285q0 -165 -39.5 -302t-115.5 -238t-194.5 -157t-269.5 -56q-132 0 -257.5 38.5t-215.5 102.5l72 125q181 -133 391 -133q113 0 200.5 44t142 121.5t83.5 178t31 219.5q0 52 -7 113q-52 -124 -167 -193.5
t-281 -69.5q-136 0 -242 49.5t-169.5 152.5t-63.5 245q0 222 145.5 347.5t384.5 125.5zM643 657q167 0 267 101t100 239q0 147 -102 236.5t-259 89.5q-158 0 -254 -91.5t-96 -244.5q0 -152 95.5 -241t248.5 -89z" />
    <glyph glyph-name="zero.zero" horiz-adv-x="1386" 
d="M692 -18q-180 0 -311.5 92t-199.5 258t-68 387q0 219 68 384t200 257t313 92t313 -92t200.5 -257t68.5 -384q0 -334 -156 -535.5t-428 -201.5zM375 352l598 824q-104 135 -281 135q-192 0 -295.5 -160t-103.5 -432q0 -218 82 -367zM694 123q193 0 295.5 161t102.5 435
q0 203 -70 334l-592 -815q98 -115 264 -115z" />
    <glyph glyph-name="zero.dnom" 
d="M403 -14q-171 0 -263.5 119t-92.5 333q0 212 94 332.5t265 120.5q170 0 262 -121t92 -332q0 -213 -92.5 -332.5t-264.5 -119.5zM406 96q212 0 212 342q0 160 -51.5 251t-160.5 91q-111 0 -163.5 -90.5t-52.5 -251.5q0 -160 52.5 -251t163.5 -91z" />
    <glyph glyph-name="one.dnom" 
d="M145 0v102h220v674l-215 -24l-7 104l326 37h27v-791h192v-102h-543z" />
    <glyph glyph-name="two.dnom" 
d="M340 109l387 4v-113h-641v23l313 309q93 90 131.5 147.5t38.5 128.5q0 80 -51 125t-133 45q-108 0 -233 -116l-74 94q141 135 321 135q144 0 229 -74t85 -205q0 -31 -7 -60.5t-14 -51t-28 -52.5t-32.5 -46.5t-45 -50.5t-47 -48t-56.5 -55z" />
    <glyph glyph-name="three.dnom" 
d="M442 520q139 -9 212 -75.5t73 -180.5q0 -89 -48.5 -153t-127 -94.5t-178.5 -30.5q-98 0 -183 31.5t-141 84.5l72 99q127 -109 248 -109q91 0 151 44.5t60 129.5q0 47 -22 81t-59.5 52.5t-80 26.5t-92.5 8h-70v27l238 311h-392v107h596v-21z" />
    <glyph glyph-name="four.dnom" 
d="M618 289h142v-101h-142v-188h-126v188h-447v19l344 674h135l-305 -592h273v225l18 37h108v-262z" />
    <glyph glyph-name="five.dnom" 
d="M416 543q149 0 234 -71.5t85 -197.5q0 -134 -94 -211t-252 -77q-196 0 -311 112l65 101q114 -109 242 -109q89 0 148 46t59 134q0 86 -60 130t-174 44q-90 0 -200 -20l-17 8v447h545v-105h-426v-246q68 15 156 15z" />
    <glyph glyph-name="six.dnom" 
d="M455 557q127 0 210 -73t83 -205q0 -137 -92 -216t-240 -79q-88 0 -157 34t-111.5 93.5t-64.5 137t-22 169.5q0 205 104.5 337t289.5 132q75 0 151 -25t129 -63l-47 -94q-101 77 -227 77q-124 0 -192.5 -92t-71.5 -221v-51q33 65 99 102t159 37zM416 86q84 0 137 51.5
t53 134.5q0 84 -52 134.5t-136 50.5q-93 0 -148 -55.5t-55 -133.5q0 -80 59.5 -131t141.5 -51z" />
    <glyph glyph-name="seven.dnom" 
d="M86 879h653v-25l-469 -854h-151l434 772h-467v107z" />
    <glyph glyph-name="eight.dnom" 
d="M559 463q81 -24 131.5 -80t50.5 -147q0 -123 -92 -186.5t-243 -63.5q-153 0 -246.5 64t-93.5 186q0 89 48.5 146t133.5 81q-66 23 -108 75.5t-42 123.5q0 107 86 167t222 60q134 0 218.5 -60.5t84.5 -166.5q0 -71 -41.5 -123.5t-108.5 -75.5zM406 793q-77 0 -125 -38.5
t-48 -105.5q0 -61 46.5 -99t126.5 -38t123.5 37.5t43.5 99.5q0 68 -46 106t-121 38zM406 82q90 0 144 43t54 121t-54.5 122t-143.5 44q-92 0 -146.5 -44t-54.5 -122t54.5 -121t146.5 -43z" />
    <glyph glyph-name="nine.dnom" 
d="M389 889q176 0 266 -121t90 -315q0 -207 -104 -337t-287 -130q-158 0 -286 88l49 98q108 -82 229 -82q123 0 192 89.5t72 223.5q3 35 0 66q-34 -72 -100.5 -113t-161.5 -41q-123 0 -206 73.5t-83 203.5q0 135 91 216t239 81zM389 416q91 0 146 55.5t55 132.5
q0 80 -57 131t-142 51t-137.5 -51.5t-52.5 -134.5q0 -82 52.5 -133t135.5 -51z" />
    <glyph glyph-name="zero.numr" 
d="M403 547q-171 0 -263.5 118.5t-92.5 331.5t93.5 333t265.5 120q171 0 262.5 -120.5t91.5 -330.5q0 -214 -92.5 -333t-264.5 -119zM406 655q212 0 212 342q0 162 -51.5 253t-160.5 91q-111 0 -163.5 -91t-52.5 -251q0 -162 52.5 -253t163.5 -91z" />
    <glyph glyph-name="one.numr" 
d="M145 551v102h220v674l-215 -24l-7 102l326 37h27v-789h192v-102h-543z" />
    <glyph glyph-name="two.numr" 
d="M340 664l387 4v-111h-641v23l313 309q93 90 131.5 147.5t38.5 128.5q0 80 -51 125t-133 45q-108 0 -233 -116l-74 94q141 135 321 135q144 0 229 -74.5t85 -204.5q0 -31 -7 -60.5t-13.5 -50.5t-29 -53.5t-32 -46t-45.5 -51.5t-46 -48t-57 -56z" />
    <glyph glyph-name="three.numr" 
d="M442 1077q140 -10 212.5 -76.5t72.5 -179.5q0 -134 -100 -206t-254 -72q-99 0 -184 31t-140 85l72 97q127 -109 248 -109q91 0 151 44.5t60 129.5q0 48 -22 82t-60 52t-80 26t-92 8h-70v27l236 311h-390v107h596v-19z" />
    <glyph glyph-name="four.numr" 
d="M618 850h142v-98h-142v-189h-126v189h-447v18l344 674h135l-307 -594h275v227l18 35h108v-262z" />
    <glyph glyph-name="five.numr" 
d="M416 1102q149 0 234 -72.5t85 -198.5q0 -133 -94 -209.5t-252 -76.5q-198 0 -311 110l65 103q114 -109 242 -109q89 0 148 46t59 134q0 85 -60 128.5t-174 43.5q-81 0 -200 -18l-17 8v447h545v-107h-426v-246q77 17 156 17z" />
    <glyph glyph-name="six.numr" 
d="M455 1118q127 0 210 -73t83 -205q0 -137 -92 -216t-240 -79q-88 0 -157 34t-111.5 93.5t-64.5 137t-22 169.5q0 205 104.5 337t289.5 132q75 0 151 -25t129 -63l-47 -94q-101 77 -227 77q-124 0 -192.5 -92t-71.5 -221v-51q33 65 99 102t159 37zM416 647q84 0 137 52
t53 135q0 84 -52 134t-136 50q-93 0 -148 -55.5t-55 -133.5q0 -80 59.5 -131t141.5 -51z" />
    <glyph glyph-name="seven.numr" 
d="M86 1438h653v-25l-469 -854h-151l434 772h-467v107z" />
    <glyph glyph-name="eight.numr" 
d="M561 1024q79 -24 129.5 -81t50.5 -148q0 -122 -92 -186t-243 -64q-153 0 -246.5 64t-93.5 186q0 89 48.5 146t133.5 81q-66 23 -108 76t-42 123q0 107 86 167t222 60q134 0 218.5 -60.5t84.5 -166.5q0 -71 -41 -122.5t-107 -74.5zM406 1352q-77 0 -125 -38.5t-48 -105.5
q0 -61 46.5 -99t126.5 -38q79 0 123 38t44 99q0 69 -45.5 106.5t-121.5 37.5zM406 641q90 0 144 43t54 121t-54.5 122t-143.5 44q-92 0 -146.5 -44t-54.5 -122q0 -77 54.5 -120.5t146.5 -43.5z" />
    <glyph glyph-name="nine.numr" 
d="M389 1448q119 0 200.5 -58.5t118.5 -154.5t37 -223q0 -207 -104 -337t-287 -130q-158 0 -286 88l49 98q108 -82 229 -82q123 0 192 90.5t72 225.5q3 35 0 63q-33 -71 -99.5 -111t-162.5 -40q-123 0 -206 72.5t-83 203.5q0 135 91 215t239 80zM389 977q92 0 146.5 55
t54.5 133q0 79 -57.5 130t-141.5 51q-85 0 -137.5 -52t-52.5 -135q0 -82 52.5 -132t135.5 -50z" />
    <glyph glyph-name="exclamdown.case" horiz-adv-x="546" 
d="M272 1458q46 0 76.5 -30t30.5 -76q0 -45 -31 -76t-76 -31q-47 0 -77.5 31t-30.5 76q0 46 30.5 76t77.5 30zM340 1055l25 -1055h-191l27 1055h139z" />
    <glyph glyph-name="questiondown.case" horiz-adv-x="929" 
d="M522 1462q46 0 76.5 -31t30.5 -75q0 -45 -31 -76t-76 -31q-47 0 -77.5 31t-30.5 76t30.5 75.5t77.5 30.5zM604 1059q17 -66 17 -137q0 -69 -20.5 -124.5t-53.5 -93.5t-72.5 -70.5t-79.5 -62t-73 -61.5t-53.5 -76t-20.5 -98q0 -109 72 -165t176 -56q87 0 170.5 49
t144.5 137l111 -100q-166 -215 -437 -215q-83 0 -154 19.5t-129 59t-91 107t-33 156.5q0 69 21 124.5t55 93t75 70t82 62.5t76 63t57.5 79.5t24.5 103.5q3 63 -12 135h147z" />
    <glyph glyph-name="period.tnum" horiz-adv-x="1351" 
d="M676 -18q-53 0 -83 29t-30 77q0 47 30 77t83 30t82.5 -30t29.5 -77t-29.5 -76.5t-82.5 -29.5z" />
    <glyph glyph-name="parenleft.case" horiz-adv-x="669" 
d="M467 -207q-47 47 -92 107t-94.5 148.5t-86.5 186t-61 224t-24 256.5q0 161 35 313t92 268.5t114.5 200t116.5 143.5h178q-67 -71 -124 -151.5t-117 -196.5t-95 -265t-35 -312q0 -521 371 -922h-178z" />
    <glyph glyph-name="parenright.case" horiz-adv-x="669" 
d="M27 -207q370 400 370 922q0 132 -24.5 257t-61.5 220t-89 184.5t-97.5 149t-97.5 114.5h178q59 -60 116.5 -143.5t114.5 -200t92 -268.5t35 -313q0 -130 -24 -256.5t-61 -224t-86.5 -186t-94.5 -148.5t-92 -107h-178z" />
    <glyph glyph-name="braceleft.case" horiz-adv-x="704" 
d="M397 924q0 -90 -39 -143t-112 -64q73 -11 112 -64t39 -143v-434q0 -85 38 -124.5t124 -39.5h76v-119h-107q-85 0 -143 20.5t-89 61t-43.5 90t-12.5 117.5v436q0 144 -127 144h-35v110h35q127 0 127 143v437q0 68 12.5 117.5t43.5 89.5t89 60.5t143 20.5h107v-118h-76
q-86 0 -124 -39.5t-38 -124.5v-434z" />
    <glyph glyph-name="braceright.case" horiz-adv-x="704" 
d="M592 772h35v-110h-35q-127 0 -127 -144v-436q0 -68 -13 -117.5t-44 -90t-89 -61t-143 -20.5h-106v119h75q87 0 124.5 39t37.5 125v434q0 90 39.5 143t112.5 64q-73 11 -112.5 64t-39.5 143v434q0 86 -37.5 125t-124.5 39h-75v118h106q85 0 143 -20.5t89 -60.5t44 -89.5
t13 -117.5v-437q0 -143 127 -143z" />
    <glyph glyph-name="bracketleft.case" horiz-adv-x="645" 
d="M193 -207v1847h374v-118h-213v-1610h213v-119h-374z" />
    <glyph glyph-name="bracketright.case" horiz-adv-x="645" 
d="M78 -207v119h213v1610h-213v118h375v-1847h-375z" />
    <glyph glyph-name="hyphen.case" horiz-adv-x="999" 
d="M150 657v129h702v-129h-702z" />
    <glyph glyph-name="endash.case" horiz-adv-x="1243" 
d="M150 657v129h944v-127z" />
    <glyph glyph-name="emdash.case" horiz-adv-x="1849" 
d="M150 657v129h1550v-129h-1550z" />
    <glyph glyph-name="guillemotleft.case" horiz-adv-x="993" 
d="M336 1061h147l-239 -352l239 -353h-145l-246 353zM901 1061l-239 -352l239 -353h-143l-246 353l244 352h145z" />
    <glyph glyph-name="guillemotright.case" horiz-adv-x="993" 
d="M92 1061h146l245 -352l-245 -353h-146l240 353zM657 1061l244 -352l-244 -353h-145l240 353l-240 352h145z" />
    <glyph glyph-name="guilsinglleft.case" horiz-adv-x="569" 
d="M475 1061l-237 -352l237 -353h-139l-244 353l246 352h137z" />
    <glyph glyph-name="guilsinglright.case" horiz-adv-x="569" 
d="M233 1061l244 -352l-246 -353h-137l238 353l-238 352h139z" />
    <glyph glyph-name="cent.tnum" horiz-adv-x="1351" 
d="M1206 324q-98 -89 -199 -130.5t-219 -46.5l3 -161h-99l2 164q-235 19 -377.5 164.5t-142.5 379.5q0 233 141 380.5t379 166.5l-2 168h99l-3 -166q229 -11 410 -172l-98 -117q-70 68 -150.5 109t-191.5 41q-184 0 -296 -111t-112 -297q0 -188 113.5 -298.5t296.5 -110.5
q201 0 346 149z" />
    <glyph glyph-name="dollar.tnum" horiz-adv-x="1351" 
d="M1188 379q0 -184 -124 -282.5t-325 -108.5v-178h-98v178q-294 17 -487 239l108 111q33 -39 71.5 -73t92.5 -69.5t123.5 -56t144.5 -20.5q143 0 228.5 65t85.5 185q0 53 -22 94.5t-47.5 66.5t-87 50t-96.5 35.5t-121 33.5q-15 4 -22 6q-75 21 -131.5 44t-110.5 57.5
t-88.5 76t-55.5 101t-21 131.5q0 96 34 169.5t95 118.5t138 69t169 28v172h98v-174q254 -21 424 -174l-94 -129q-66 68 -165 119t-220 51q-133 0 -216 -61t-83 -183q0 -53 19.5 -95t47 -69t77.5 -51t91 -37t107 -31q49 -14 75.5 -21.5t72.5 -23t72 -27.5t64 -32.5t59.5 -40
t47 -48t39 -59.5t22.5 -71t9 -86z" />
    <glyph glyph-name="Euro.tnum" horiz-adv-x="1351" 
d="M926 1307q-194 0 -316.5 -112.5t-158.5 -307.5h600l-31 -90h-582q-4 -54 -4 -82q0 -26 4 -80h512l-30 -90h-471q37 -197 158.5 -307.5t310.5 -110.5q55 0 111.5 12.5t87.5 24t87 35.5v-156q-136 -61 -313 -61q-252 0 -421.5 149.5t-213.5 413.5h-172l31 90h131
q-2 27 -2 80q0 55 2 82h-156l31 90h137q44 266 215 415.5t420 149.5q100 0 201.5 -23t173.5 -65l-27 -152q-167 95 -315 95z" />
    <glyph glyph-name="uni20BD.tnum" horiz-adv-x="1351" 
d="M313 0l-2 332h-194v112h196v144h-194l-2 112h196l2 734h435q213 0 350 -114.5t137 -318.5q0 -139 -65.5 -236t-173.5 -142t-248 -45h-261v-134h547l-2 -112h-547l2 -332h-176zM489 700h246q144 0 234 78.5t90 222.5q0 143 -89.5 221t-234.5 78h-248z" />
    <glyph glyph-name="sterling.tnum" horiz-adv-x="1351" 
d="M596 463q0 -235 -186 -330h770v-133h-996v123q40 15 71 31.5t63.5 43.5t54 59.5t35.5 81t14 107.5q0 76 -29 179h-229v114h190q-59 167 -59 281q0 200 133.5 316t343.5 116q128 0 230.5 -49t195.5 -150l-102 -108q-69 85 -142 127.5t-168 42.5q-147 0 -232 -79t-85 -220
q0 -46 11 -98.5t22 -85t33 -93.5h497v-114h-459q23 -98 23 -162z" />
    <glyph glyph-name="yen.tnum" horiz-adv-x="1351" 
d="M1257 1434l-469 -820h332v-86h-356v-147h356v-86h-358v-295h-174v295h-355v86h357v147h-357v86h328l-467 820h182l402 -717l405 717h174z" />
    <glyph glyph-name="arrowup.alt" horiz-adv-x="1757" 
d="M913 -35q-156 0 -294.5 53.5t-241 149t-162 238t-59.5 311.5q0 171 59.5 315t162 241t241 150.5t294.5 53.5q155 0 292 -54t239 -150.5t161.5 -240.5t59.5 -315q0 -169 -59.5 -311.5t-161.5 -238t-239 -149t-292 -53.5zM858 270h107l-2 731l385 -383l67 68l-502 504
l-503 -502l67 -70l383 383z" />
    <glyph glyph-name="uni2197.alt" horiz-adv-x="1757" 
d="M913 -35q-156 0 -294.5 53t-241 148.5t-162 238t-59.5 312.5q0 171 59.5 315t162 241t241 150.5t294.5 53.5q155 0 292 -54t239 -150.5t161.5 -240.5t59.5 -315q0 -169 -59.5 -311.5t-161.5 -238t-239 -149t-292 -53.5zM1145 344h98v707h-713v-97h545l-522 -516l76 -73
l516 520v-541z" />
    <glyph glyph-name="arrowright.alt" horiz-adv-x="1759" 
d="M909 -35q-170 0 -312.5 59.5t-238.5 161.5t-149 239.5t-53 293.5t53 294.5t149 241.5t238.5 162.5t312.5 59.5q171 0 315 -59.5t240.5 -162.5t150.5 -241.5t54 -294.5t-53.5 -293.5t-150.5 -239.5t-241 -161.5t-315 -59.5zM879 217l503 502l-501 504l-70 -68l381 -381
h-733v-108l735 2l-383 -385z" />
    <glyph glyph-name="uni2198.alt" horiz-adv-x="1757" 
d="M913 -35q-215 0 -387.5 94.5t-271 267t-98.5 390.5q0 221 98.5 395t271 269.5t387.5 95.5q160 0 299.5 -56t239.5 -155t157.5 -241t57.5 -308q0 -164 -57.5 -304.5t-157.5 -238.5t-239.5 -153.5t-299.5 -55.5zM532 387h711v711h-96v-541l-518 520l-74 -76l518 -516
l-541 -2v-96z" />
    <glyph glyph-name="arrowdown.alt" horiz-adv-x="1755" 
d="M909 -35q-156 0 -293 53.5t-239 150.5t-161 240.5t-60 313.5q0 170 59 312.5t161 238.5t239.5 149.5t293.5 53.5t293.5 -53.5t240.5 -149.5t162.5 -238.5t59.5 -312.5q0 -137 -38.5 -257t-108 -211t-163.5 -156.5t-208 -99.5t-238 -34zM909 252l504 502l-67 67l-381 -381
v736l-109 -2l2 -732l-381 381l-69 -69z" />
    <glyph glyph-name="uni2199.alt" horiz-adv-x="1757" 
d="M911 -35q-156 0 -293.5 53.5t-240 149.5t-162 238.5t-59.5 312.5t59.5 314t162 240.5t240 150t293.5 53.5t293.5 -53.5t239.5 -150t161.5 -240.5t59.5 -314t-59.5 -312.5t-161.5 -238.5t-239.5 -149.5t-293.5 -53.5zM578 389h710v94h-540l520 518l-76 76l-516 -518v539
h-96z" />
    <glyph glyph-name="arrowleft.alt" horiz-adv-x="1761" 
d="M915 -35q-171 0 -315 59.5t-240.5 162.5t-150 241.5t-53.5 294.5t53.5 294t150 240t240.5 161t315 59q170 0 313 -59t239.5 -161t150 -240t53.5 -294q-1 -156 -54.5 -294.5t-150 -241.5t-239 -162.5t-312.5 -59.5zM948 219l68 66l-381 385h733l-2 104h-729l381 383
l-72 68l-502 -502z" />
    <glyph glyph-name="uni2196.alt" horiz-adv-x="1759" 
d="M915 -35q-215 0 -388 94.5t-272 267.5t-99 392q0 221 99 394.5t272 268.5t388 95q213 0 384.5 -95t269.5 -268.5t98 -394.5q0 -164 -57.5 -305.5t-157 -239.5t-238.5 -153.5t-299 -55.5zM580 340h96v541l518 -521l74 78l-518 516h542v99h-712v-713z" />
    <glyph glyph-name="gravecomb.case" horiz-adv-x="0" 
d="M-879 1583l-147 246h156l116 -246h-125z" />
    <glyph glyph-name="acute.case" horiz-adv-x="651" 
d="M207 1206l133 246h158l-166 -246h-125z" />
    <glyph glyph-name="breve.case" horiz-adv-x="921" 
d="M459 1225q-286 0 -305 243h106q12 -157 199 -157q186 0 198 157h109q-19 -243 -307 -243z" />
    <glyph glyph-name="caron.case" horiz-adv-x="968" 
d="M674 1456h153l-256 -248h-176l-254 248h154l188 -186z" />
    <glyph glyph-name="circumflex.case" horiz-adv-x="968" 
d="M795 1212h-146l-172 160l-176 -160h-145l284 254h68z" />
    <glyph glyph-name="dieresis.case" horiz-adv-x="999" 
d="M291 1262q-48 0 -78.5 29.5t-30.5 78.5t30.5 79t78.5 30t78 -30t30 -79t-30 -78.5t-78 -29.5zM709 1262q-47 0 -77 29.5t-30 78.5t30.5 79t78.5 30q46 0 76 -30t30 -79t-30 -78.5t-78 -29.5z" />
    <glyph glyph-name="dotaccent.case" horiz-adv-x="559" 
d="M289 1260q-46 0 -78.5 31t-32.5 75q0 46 32.5 77.5t78.5 31.5q45 0 77.5 -32t32.5 -77q0 -44 -32.5 -75t-77.5 -31z" />
    <glyph glyph-name="grave.case" horiz-adv-x="669" 
d="M346 1206l-149 246h155l119 -246h-125z" />
    <glyph glyph-name="hungarumlaut.case" horiz-adv-x="987" 
d="M215 1206l127 244h158l-160 -244h-125zM514 1206l127 244h158l-160 -244h-125z" />
    <glyph glyph-name="Agravecy" horiz-adv-x="1515" 
d="M836 1575h-125l-150 246h156zM1274 0l-150 369h-743l-148 -369h-180l592 1442h227l588 -1442h-186zM438 510h631l-315 780h-2z" />
    <glyph glyph-name="Hardsigngravecy" horiz-adv-x="1603" 
d="M924 1575l-150 246h156l119 -246h-125zM416 0v1294h-416v140h596v-519h401q247 0 391 -127t144 -323q0 -203 -150 -334t-385 -131h-581zM596 133h373q97 0 171 26t118.5 72.5t67 104.5t22.5 127q0 143 -97 230t-282 87h-373v-647z" />
    <glyph glyph-name="Iagravecy" horiz-adv-x="1421" 
d="M889 1575h-125l-150 246h156zM641 1434h592v-1434h-180v504h-412h-20l-312 -504h-190l336 528q-166 48 -260.5 171t-94.5 270q0 90 36.5 172.5t103 148t171 105t230.5 39.5zM1053 643v649h-391q-175 0 -274 -92.5t-99 -230.5t100 -232t273 -94h391z" />
    <glyph glyph-name="Iugravecy" horiz-adv-x="2170" 
d="M1290 1575l-149 246h155l119 -246h-125zM1335 -16q-309 0 -508 176.5t-221 480.5h-241v-641h-177v1434h177v-652h239q22 306 220.5 487t510.5 181q219 0 386 -90.5t258.5 -257.5t91.5 -387q0 -331 -201.5 -531t-534.5 -200zM1335 125q248 0 397.5 156.5t149.5 431.5
q0 277 -150 436.5t-397 159.5q-242 0 -393 -160t-151 -436q0 -274 150 -431t394 -157z" />
    <glyph glyph-name="Ogravecy" horiz-adv-x="1751" 
d="M831 1575l-149 246h156l118 -246h-125zM874 -16q-224 0 -397 91.5t-268.5 257.5t-95.5 382t95.5 383.5t269 259.5t396.5 92q342 0 552 -203t210 -532q0 -327 -210 -529t-552 -202zM874 137q257 0 417.5 156t160.5 420q0 265 -160.5 424t-417.5 159q-253 0 -414 -158.5
t-161 -424.5q0 -263 161 -419.5t414 -156.5z" />
    <glyph glyph-name="Ugravecy" horiz-adv-x="1345" 
d="M768 1575h-125l-149 246h155zM1122 1434h181l-652 -1434h-188l180 379l-573 1055h192l469 -879z" />
    <glyph glyph-name="agravecy" horiz-adv-x="1343" 
d="M774 1227h-127l-151 325h157zM1051 1065h155v-1065h-153l-15 229q-60 -125 -175.5 -185t-258.5 -60q-162 0 -282.5 71.5t-182 194t-61.5 278.5q0 242 144.5 397.5t389.5 155.5q148 0 259.5 -59.5t168.5 -171.5zM649 125q164 0 277.5 112.5t113.5 292.5t-112 295t-279 115
q-177 0 -286 -110.5t-109 -299.5q0 -186 109 -295.5t286 -109.5z" />
    <glyph glyph-name="hardsigngravecy" horiz-adv-x="1400" 
d="M918 1227h-127l-152 325h158zM885 825q91 0 169 -26t139 -76t95.5 -131t34.5 -184q0 -206 -132 -315t-355 -109q-105 0 -193 27.5t-154.5 82t-103.5 143t-37 203.5v506h-332v119h500v-420q47 85 145 132.5t224 47.5zM834 96q144 0 230.5 81t86.5 229q0 146 -86 227.5
t-229 81.5q-145 0 -232.5 -83.5t-87.5 -230.5q0 -144 89 -224.5t229 -80.5z" />
    <glyph glyph-name="iagravecy" horiz-adv-x="1171" 
d="M725 1227h-127l-152 325h158zM510 1065h510v-1065h-168v360h-328l-256 -360h-190l280 381q-123 34 -190.5 121.5t-67.5 210.5q0 158 110.5 255t299.5 97zM852 471v481h-313q-124 0 -195.5 -64t-71.5 -175t71.5 -176.5t195.5 -65.5h313z" />
    <glyph glyph-name="iugravecy" horiz-adv-x="1703" 
d="M1071 -16q-228 0 -384 134.5t-171 362.5h-197v-481h-167v1581h167v-987h197q12 149 89.5 260t198.5 168t267 57q155 0 280.5 -65t200 -190.5t74.5 -291.5q0 -126 -43.5 -230.5t-119 -173t-176.5 -106.5t-216 -38zM1008 1227l-152 325h158l121 -325h-127zM1071 121
q166 0 274.5 111t108.5 298q0 189 -108.5 300.5t-274.5 111.5q-167 0 -276 -111.5t-109 -300.5q0 -188 109 -298.5t276 -110.5z" />
    <glyph glyph-name="ogravecy" horiz-adv-x="1298" 
d="M614 1227l-151 325h158l120 -325h-127zM651 -16q-252 0 -412.5 149.5t-160.5 396.5q0 250 159.5 399.5t413.5 149.5q251 0 411.5 -151t160.5 -398t-160.5 -396.5t-411.5 -149.5zM651 125q176 0 288 109t112 296t-112.5 298.5t-287.5 111.5q-176 0 -287.5 -111
t-111.5 -299q0 -187 111 -296t288 -109z" />
    <glyph glyph-name="ugravecy" horiz-adv-x="1105" 
d="M645 1227h-127l-151 325h157zM907 1065h168l-563 -1413h-170l137 336l-450 1077h180l203 -500q97 -247 153 -395h4q47 125 146 395z" />
    </font>
</defs>
</svg>
