<?xml version="1.0" standalone="no"?>
<!DOCTYPE svg PUBLIC "-//W3C//DTD SVG 1.1//EN" "http://www.w3.org/Graphics/SVG/1.1/DTD/svg11.dtd" >
<svg xmlns="http://www.w3.org/2000/svg" xmlns:xlink="http://www.w3.org/1999/xlink" version="1.1">
<metadata>
Created by FontForge 20201107 at Sun Mar 19 16:10:24 2023
 By www-data
Copyright Piotrkowy 2022
</metadata>
<defs>
<font id="Cursyger" horiz-adv-x="2252" >
  <font-face 
    font-family="Cursyger"
    font-weight="400"
    font-stretch="normal"
    units-per-em="2048"
    panose-1="0 0 4 0 0 0 0 0 0 0"
    ascent="2048"
    descent="0"
    x-height="2048"
    cap-height="2662"
    bbox="-102 -512 3072 3379"
    underline-thickness="102"
    underline-position="153"
    unicode-range="U+0020-045E"
  />
<missing-glyph horiz-adv-x="1677" 
d="M1506 50l-719 954l-718 -954h1437zM50 69l718 955l-718 954v-1909zM1525 69v1909l-719 -954zM787 1043l719 955h-1437zM0 0v2048h1575v-2048h-1575z" />
    <glyph glyph-name=".notdef" horiz-adv-x="1677" 
d="M1506 50l-719 954l-718 -954h1437zM50 69l718 955l-718 954v-1909zM1525 69v1909l-719 -954zM787 1043l719 955h-1437zM0 0v2048h1575v-2048h-1575z" />
    <glyph glyph-name=".null" horiz-adv-x="0" 
 />
    <glyph glyph-name="nonmarkingreturn" horiz-adv-x="682" 
 />
    <glyph glyph-name="space" unicode=" " horiz-adv-x="1433" 
 />
    <glyph glyph-name="exclam" unicode="!" horiz-adv-x="1433" 
d="M204 0v512h717v-512h-717zM307 921v512h102v410h103v512h102v307h614v-512h-102v-819h-102v-410h-717z" />
    <glyph glyph-name="dollar" unicode="$" 
d="M614 0v307h-205v102h-205v103h-102v204h-102v308h716v-103h103v-102h307v102h102v205h-102v102h-205v103h-205v102h-102v205h-102v307h102v205h102v102h205v103h205v307h410v-307h102v-103h205v-102h102v-205h103v-307h-512v102h-103v103h-205v-103h-102v-102h102v-102
h308v-103h204v-102h103v-103h102v-409h-102v-205h-103v-102h-102v-103h-205v-102h-102v-307h-717z" />
    <glyph glyph-name="percent" unicode="%" 
d="M1536 307v307h-103v-307h103zM716 2048v307h-102v-307h102zM0 0v102h102v205h102v205h103v204h102v205h103v103h102v204h102v205h103v205h102v102h-512v103h-102v717h102v102h512v-102h103v-615h102v205h102v205h103v205h102v102h615v-205h-103v-205h-102v-204h-103v-205
h-102v-205h-102v-205h-103v-205h-102v-204h-103v-103h512v-102h103v-717h-103v-102h-512v102h-102v512h-102v-205h-103v-205h-102v-204h-819z" />
    <glyph glyph-name="quotesingle" unicode="'" horiz-adv-x="1331" 
d="M409 1843v512h103v307h614v-512h-102v-307h-615z" />
    <glyph glyph-name="parenleft" unicode="(" horiz-adv-x="1536" 
d="M409 0v102h-205v102h-102v205h-102v512h102v512h102v410h103v307h102v205h103v102h102v103h205v102h512v-512h-205v-102h-102v-103h-103v-614h-102v-717h102v-102h205v-512h-717z" />
    <glyph glyph-name="parenright" unicode=")" horiz-adv-x="1331" 
d="M0 0v512h204v102h103v102h102v512h103v820h-103v102h-205v512h512v-102h205v-103h103v-205h102v-921h-102v-819h-103v-205h-102v-103h-103v-102h-204v-102h-512z" />
    <glyph glyph-name="comma" unicode="," horiz-adv-x="1228" 
d="M307 -409v307h307v102h-410v512h820v-614h-103v-102h-102v-103h-205v-102h-307z" />
    <glyph glyph-name="hyphen" unicode="-" horiz-adv-x="1740" 
d="M204 921v205h103v205h1229v-410h-1332z" />
    <glyph glyph-name="period" unicode="." horiz-adv-x="1126" 
d="M204 0v512h717v-512h-717z" />
    <glyph glyph-name="slash" unicode="/" 
d="M0 0v102h102v205h102v205h103v204h102v205h103v103h102v204h102v205h103v205h102v205h103v102h102v205h102v205h103v205h102v102h615v-205h-103v-205h-102v-204h-103v-205h-102v-205h-102v-205h-103v-205h-102v-204h-103v-205h-102v-205h-102v-205h-103v-205h-102v-204
h-819z" />
    <glyph glyph-name="zero" unicode="0" 
d="M1126 512v102h102v102h103v512h102v820h-102v102h-205v-102h-102v-103h-103v-614h-102v-717h102v-102h205zM409 0v102h-205v102h-102v205h-102v512h102v512h102v410h103v307h102v205h103v102h102v103h205v102h819v-102h205v-103h102v-205h103v-921h-103v-819h-102v-205
h-103v-103h-102v-102h-205v-102h-1024z" />
    <glyph glyph-name="one" unicode="1" horiz-adv-x="1536" 
d="M204 0v409h103v512h102v512h103v410h-308v409h410v103h102v307h615v-512h-103v-819h-102v-1331h-922z" />
    <glyph glyph-name="two" unicode="2" 
d="M0 0v614h102v205h102v102h103v103h102v102h103v102h204v103h205v102h205v103h102v102h103v102h102v308h-102v102h-205v-102h-102v-103h-512v307h102v205h102v103h205v102h717v-102h205v-103h102v-205h103v-614h-103v-205h-102v-102h-103v-103h-204v-102h-205v-102h-205
v-103h-102v-102h-103v-103h-102v-204h1024v-512h-1843z" />
    <glyph glyph-name="three" unicode="3" 
d="M409 0v102h-205v102h-102v205h-102v512h716v-307h103v-102h205v102h102v102h102v410h-102v102h-307v512h512v103h102v205h-102v102h-205v-102h-102v-103h-512v307h102v205h102v103h205v102h717v-102h205v-103h102v-205h103v-409h-103v-205h-102v-102h-103v-205h103v-205
h102v-614h-102v-205h-103v-103h-102v-102h-205v-102h-1024z" />
    <glyph glyph-name="four" unicode="4" 
d="M1331 921v307h102v615h-102v-205h-103v-102h-102v-205h-102v-103h-103v-204h-102v-103h512zM1228 0v512h-1126v614h102v102h103v205h102v103h103v102h102v102h102v205h103v103h102v102h103v102h102v205h102v103h103v102h717v-1331h-103v-1331h-717z" />
    <glyph glyph-name="five" unicode="5" 
d="M409 0v102h-205v102h-102v205h-102v512h716v-307h103v-102h205v102h102v102h102v410h-102v102h-307v-102h-615v717h103v512h102v307h1639v-512h-1127v-410h512v-102h205v-102h102v-103h103v-205h102v-716h-102v-205h-103v-103h-102v-102h-205v-102h-1024z" />
    <glyph glyph-name="six" unicode="6" 
d="M1126 512v102h102v102h103v410h-103v102h-307v-102h-102v-512h102v-102h205zM409 0v102h-205v102h-102v205h-102v512h102v512h102v410h103v307h102v205h103v102h102v103h205v102h819v-102h205v-103h102v-205h103v-409h-615v205h-102v102h-205v-102h-102v-103h-103v-205
h512v-102h205v-102h102v-103h103v-205h102v-716h-102v-205h-103v-103h-102v-102h-205v-102h-1024z" />
    <glyph glyph-name="seven" unicode="7" 
d="M512 0v307h102v205h102v204h103v205h102v205h103v205h102v205h102v204h103v205h102v205h-1024v512h1639v-717h-103v-205h-102v-307h-103v-205h-102v-307h-102v-205h-103v-307h-102v-205h-103v-204h-716z" />
    <glyph glyph-name="eight" unicode="8" 
d="M1126 512v102h102v102h103v410h-103v102h-204v-102h-103v-205h-102v-307h102v-102h205zM1331 1740v103h102v205h-102v102h-205v-102h-102v-205h102v-103h205zM409 0v102h-205v102h-102v205h-102v512h102v205h102v102h103v103h102v102h103v103h102v102h-102v614h102v205
h102v103h205v102h717v-102h205v-103h102v-205h103v-409h-103v-205h-102v-102h-103v-205h103v-205h102v-614h-102v-205h-103v-103h-102v-102h-205v-102h-1024z" />
    <glyph glyph-name="nine" unicode="9" 
d="M1433 1638v410h-102v102h-205v-102h-102v-308h102v-102h307zM409 0v102h-205v102h-102v205h-102v512h819v-307h102v-102h205v102h102v102h103v410h-512v102h-205v103h-102v102h-103v205h-102v512h102v205h103v102h102v103h205v102h819v-102h205v-103h102v-205h103v-921
h-103v-819h-102v-205h-103v-103h-102v-102h-205v-102h-1024z" />
    <glyph glyph-name="colon" unicode=":" horiz-adv-x="1331" 
d="M204 0v512h717v-512h-717zM409 1536v512h717v-512h-717z" />
    <glyph glyph-name="semicolon" unicode=";" horiz-adv-x="1331" 
d="M307 -409v307h307v102h-410v512h820v-614h-103v-102h-102v-103h-205v-102h-307zM409 1536v512h717v-512h-717z" />
    <glyph glyph-name="question" unicode="?" horiz-adv-x="2048" 
d="M307 0v512h717v-512h-717zM409 819v307h103v205h102v102h205v103h205v102h102v102h102v308h-102v102h-205v-102h-102v-205h-512v409h102v205h103v103h204v102h717v-102h205v-103h102v-205h103v-512h-103v-204h-102v-103h-102v-102h-103v-103h-205v-102h-102v-307h-717z
" />
    <glyph glyph-name="A" unicode="A" 
d="M1228 1126v410h-102v-410h102zM0 0v204h102v308h102v204h103v205h102v205h103v205h102v205h102v307h103v205h102v204h103v205h102v205h512v-307h102v-615h103v-716h102v-717h103v-307h-717v716h-410v-409h-102v-307h-819z" />
    <glyph glyph-name="B" unicode="B" 
d="M1126 512v102h102v102h103v410h-103v102h-307v-716h205zM1331 1740v103h102v205h-102v102h-307v-410h307zM0 0v409h102v512h102v512h103v410h102v512h103v307h1126v-102h205v-103h102v-205h103v-409h-103v-205h-102v-102h-103v-205h103v-205h102v-614h-102v-205h-103
v-103h-102v-102h-205v-102h-1433z" />
    <glyph glyph-name="C" unicode="C" 
d="M409 0v102h-205v102h-102v205h-102v512h102v512h102v410h103v307h102v205h103v102h102v103h205v102h819v-102h205v-103h102v-205h103v-409h-615v205h-102v102h-205v-102h-102v-103h-103v-614h-102v-717h102v-102h205v102h102v102h103v205h614v-409h-102v-205h-103v-103
h-102v-102h-205v-102h-1024z" />
    <glyph glyph-name="D" unicode="D" 
d="M1126 512v102h102v102h103v512h102v820h-102v102h-307v-819h-103v-819h205zM0 0v409h102v512h102v512h103v410h102v512h103v307h1126v-102h205v-103h102v-205h103v-921h-103v-819h-102v-205h-103v-103h-102v-102h-205v-102h-1433z" />
    <glyph glyph-name="E" unicode="E" 
d="M0 0v409h102v512h102v512h103v410h102v512h103v307h1536v-512h-1024v-512h512v-410h-615v-716h1024v-512h-1945z" />
    <glyph glyph-name="F" unicode="F" 
d="M0 0v409h102v512h102v512h103v410h102v512h103v307h1536v-512h-1024v-512h512v-410h-615v-1228h-921z" />
    <glyph glyph-name="G" unicode="G" 
d="M409 0v102h-205v102h-102v205h-102v512h102v512h102v410h103v307h102v205h103v102h102v103h205v102h819v-102h205v-103h102v-205h103v-409h-615v205h-102v102h-205v-102h-102v-103h-103v-614h-102v-717h102v-102h205v102h102v102h103v103h-307v409h921v-716h-102v-205
h-103v-103h-102v-102h-205v-102h-1024z" />
    <glyph glyph-name="H" unicode="H" horiz-adv-x="2355" 
d="M0 0v409h102v512h102v512h103v410h102v512h103v307h614v-512h-102v-512h512v307h102v717h512v-1331h-102v-1331h-717v614h102v614h-512v-1228h-921z" />
    <glyph glyph-name="I" unicode="I" horiz-adv-x="1331" 
d="M0 0v409h102v512h102v512h103v410h102v512h103v307h614v-512h-102v-819h-103v-1331h-921z" />
    <glyph glyph-name="J" unicode="J" 
d="M409 0v102h-205v102h-102v205h-102v512h819v-307h102v-102h205v102h102v102h103v512h102v717h103v717h512v-1331h-103v-819h-102v-205h-103v-103h-102v-102h-205v-102h-1024z" />
    <glyph glyph-name="K" unicode="K" 
d="M0 0v409h102v512h102v512h103v410h102v512h103v307h614v-512h-102v-410h307v103h102v307h103v512h512v-614h-103v-308h-102v-102h-103v-102h-102v-205h102v-205h103v-410h102v-716h-717v614h-102v512h-102v102h-103v-1228h-921z" />
    <glyph glyph-name="L" unicode="L" horiz-adv-x="2150" 
d="M0 0v409h102v512h102v512h103v410h102v512h103v307h614v-512h-102v-819h-103v-819h1024v-512h-1945z" />
    <glyph glyph-name="M" unicode="M" horiz-adv-x="3276" 
d="M0 0v204h102v308h102v204h103v205h102v205h103v205h102v205h102v307h103v205h102v204h103v205h102v205h512v-307h102v-512h103v205h102v204h103v205h102v205h512v-307h102v-615h103v-716h102v-717h103v-307h-717v921h-103v615h-102v-410h-102v-410h-103v-409h-614v614
h-103v615h-102v-410h-102v-410h-103v-409h-102v-307h-819z" />
    <glyph glyph-name="N" unicode="N" horiz-adv-x="2457" 
d="M0 0v409h102v512h102v512h103v410h102v512h103v307h614v-102h102v-308h103v-307h102v-307h103v-307h102v614h102v717h512v-1331h-102v-1331h-717v204h-102v308h-103v307h-102v307h-102v205h-103v-1331h-921z" />
    <glyph glyph-name="O" unicode="O" 
d="M1126 512v102h102v102h103v512h102v820h-102v102h-205v-102h-102v-103h-103v-614h-102v-717h102v-102h205zM409 0v102h-205v102h-102v205h-102v512h102v512h102v410h103v307h102v205h103v102h102v103h205v102h819v-102h205v-103h102v-205h103v-921h-103v-819h-102v-205
h-103v-103h-102v-102h-205v-102h-1024z" />
    <glyph glyph-name="P" unicode="P" 
d="M1331 1740v103h102v205h-102v102h-307v-410h307zM0 0v409h102v512h102v512h103v410h102v512h103v307h1126v-102h205v-103h102v-205h103v-409h-103v-205h-102v-102h-103v-103h-102v-102h-205v-103h-512v-1228h-921z" />
    <glyph glyph-name="Q" unicode="Q" 
d="M1024 512v102h-103v410h410v204h102v820h-102v102h-205v-102h-102v-103h-103v-614h-102v-717h102v-102h103zM409 0v102h-205v102h-102v205h-102v512h102v512h102v410h103v307h102v205h103v102h102v103h205v102h819v-102h205v-103h102v-205h103v-921h-103v-922h103v-409
h-512v102h-103v-102h-1024z" />
    <glyph glyph-name="R" unicode="R" 
d="M1331 1740v103h102v205h-102v102h-307v-410h307zM0 0v409h102v512h102v512h103v410h102v512h103v307h1126v-102h205v-103h102v-205h103v-409h-103v-205h-102v-102h-103v-103h-102v-102h102v-205h103v-410h102v-716h-717v614h-102v512h-102v102h-103v-1228h-921z" />
    <glyph glyph-name="S" unicode="S" 
d="M409 0v102h-205v102h-102v205h-102v512h716v-307h103v-102h205v102h102v102h102v410h-102v102h-205v103h-102v102h-103v103h-102v204h-102v512h102v205h102v103h205v102h717v-102h205v-103h102v-205h103v-409h-512v205h-103v102h-205v-102h-102v-308h102v-102h103v-102
h205v-103h204v-102h103v-205h102v-614h-102v-205h-103v-103h-102v-102h-205v-102h-1024z" />
    <glyph glyph-name="T" unicode="T" horiz-adv-x="2150" 
d="M409 0v409h103v512h102v512h102v410h103v307h-512v512h1638v-512h-512v-819h-102v-1331h-922z" />
    <glyph glyph-name="U" unicode="U" 
d="M409 0v102h-205v102h-102v205h-102v512h102v512h102v410h103v512h102v307h615v-512h-103v-819h-102v-717h102v-102h205v102h102v102h103v512h102v717h103v717h512v-1331h-103v-819h-102v-205h-103v-103h-102v-102h-205v-102h-1024z" />
    <glyph glyph-name="V" unicode="V" horiz-adv-x="2150" 
d="M512 0v307h-103v921h-102v820h-103v614h717v-1536h103v307h102v307h102v410h103v307h102v205h512v-307h-102v-307h-103v-308h-102v-307h-102v-307h-103v-307h-102v-307h-103v-308h-102v-204h-614z" />
    <glyph glyph-name="W" unicode="W" horiz-adv-x="3072" 
d="M512 0v307h-103v921h-102v820h-103v614h717v-1536h103v307h102v307h102v410h103v307h512v-1331h102v307h103v307h102v410h102v307h103v205h512v-307h-103v-307h-102v-308h-102v-307h-103v-307h-102v-307h-103v-307h-102v-308h-102v-204h-615v307h-102v205h-103v-308h-102
v-204h-614z" />
    <glyph glyph-name="X" unicode="X" 
d="M0 0v204h102v103h102v205h103v204h102v103h103v205h102v204h102v512h-102v308h-102v307h-103v307h717v-307h102v-205h103v205h102v205h103v102h512v-307h-103v-205h-102v-205h-103v-205h-102v-204h-102v-512h102v-410h102v-307h103v-307h-717v204h-102v103h-103v-205
h-102v-102h-819z" />
    <glyph glyph-name="Y" unicode="Y" horiz-adv-x="2150" 
d="M409 0v409h103v512h102v512h-102v410h-103v307h-102v307h-103v205h717v-512h103v-205h102v103h102v204h103v205h102v205h512v-205h-102v-205h-103v-204h-102v-205h-102v-205h-103v-205h-102v-1433h-922z" />
    <glyph glyph-name="Z" unicode="Z" 
d="M0 0v614h102v102h102v103h103v102h102v103h103v102h102v102h102v205h103v103h102v102h103v102h102v103h102v102h103v103h102v102h-1024v512h1639v-614h-103v-205h-102v-103h-103v-102h-102v-102h-102v-205h-103v-103h-102v-102h-103v-205h-102v-102h-102v-103h-103v-102
h-102v-102h1126v-512h-1945z" />
    <glyph glyph-name="backslash" unicode="\" horiz-adv-x="2150" 
d="M1228 0v204h-102v308h-102v307h-103v307h-102v410h-103v307h-102v307h-102v307h-103v205h615v-205h102v-307h102v-205h103v-307h102v-307h103v-307h102v-308h102v-204h103v-308h102v-204h-717z" />
    <glyph glyph-name="underscore" unicode="_" horiz-adv-x="2150" 
d="M0 0v307h102v205h1843v-512h-1945z" />
    <glyph glyph-name="a" unicode="a" 
d="M1228 614v307h-102v-102h-102v-205h204zM0 0v102h102v205h102v205h103v204h102v103h103v205h102v204h102v103h103v205h102v204h103v205h102v103h512v-308h102v-512h103v-409h102v-512h103v-307h-717v204h-512v-204h-819z" />
    <glyph glyph-name="b" unicode="b" 
d="M1228 512v102h103v102h-103v103h-307v-307h307zM1331 1228v103h102v102h-102v103h-307v-308h307zM0 0v307h102v409h102v410h103v307h102v410h103v205h1126v-103h205v-102h102v-205h103v-410h-103v-102h-102v-102h-103v-103h103v-102h102v-307h-102v-205h-103v-103h-102
v-102h-205v-102h-1433z" />
    <glyph glyph-name="c" unicode="c" 
d="M409 0v102h-205v102h-102v205h-102v307h102v410h102v307h103v205h102v102h103v103h102v102h205v103h819v-103h205v-102h102v-205h103v-307h-615v102h-102v103h-205v-103h-102v-102h-103v-307h-102v-410h102v-102h205v102h102v102h717v-204h-102v-205h-103v-103h-102v-102
h-205v-102h-1024z" />
    <glyph glyph-name="d" unicode="d" 
d="M1126 512v102h102v102h103v308h102v409h-102v103h-307v-512h-103v-512h205zM0 0v307h102v409h102v410h103v307h102v410h103v205h1126v-103h205v-102h102v-205h103v-614h-103v-512h-102v-205h-103v-103h-102v-102h-205v-102h-1433z" />
    <glyph glyph-name="e" unicode="e" 
d="M0 0v307h102v409h102v410h103v307h102v410h103v205h1536v-512h-1024v-205h512v-410h-615v-409h1024v-512h-1945z" />
    <glyph glyph-name="f" unicode="f" 
d="M0 0v307h102v409h102v410h103v307h102v410h103v205h1536v-512h-1024v-205h512v-410h-615v-921h-921z" />
    <glyph glyph-name="g" unicode="g" 
d="M409 0v102h-205v102h-102v205h-102v307h102v410h102v307h103v205h102v102h103v103h102v102h205v103h819v-103h205v-102h102v-205h103v-307h-615v102h-102v103h-205v-103h-102v-102h-103v-307h-102v-410h102v-102h205v102h102v102h-204v410h921v-614h-102v-205h-103v-103
h-102v-102h-205v-102h-1024z" />
    <glyph glyph-name="h" unicode="h" horiz-adv-x="2355" 
d="M0 0v307h102v409h102v410h103v307h102v410h103v205h614v-308h-102v-409h512v205h102v512h512v-1024h-102v-1024h-717v512h102v409h-512v-921h-921z" />
    <glyph glyph-name="i" unicode="i" horiz-adv-x="1331" 
d="M0 0v307h102v409h102v410h103v307h102v410h103v205h614v-308h-102v-716h-103v-1024h-921z" />
    <glyph glyph-name="j" unicode="j" 
d="M409 0v102h-205v102h-102v205h-102v307h819v-102h102v-102h205v102h102v102h103v308h102v512h103v512h512v-1024h-103v-512h-102v-205h-103v-103h-102v-102h-205v-102h-1024z" />
    <glyph glyph-name="k" unicode="k" 
d="M0 0v307h102v409h102v410h103v307h102v410h103v205h614v-308h-102v-409h307v102h102v205h103v410h512v-512h-103v-205h-102v-103h-103v-102h-102v-102h102v-205h103v-307h102v-512h-717v409h-102v307h-102v103h-103v-819h-921z" />
    <glyph glyph-name="l" unicode="l" horiz-adv-x="2150" 
d="M0 0v307h102v409h102v410h103v307h102v410h103v205h614v-308h-102v-716h-103v-512h1024v-512h-1945z" />
    <glyph glyph-name="m" unicode="m" horiz-adv-x="3276" 
d="M0 0v102h102v205h102v205h103v204h102v103h103v205h102v204h102v103h103v205h102v204h103v205h102v103h512v-308h102v-409h103v205h102v204h103v205h102v103h512v-308h102v-512h103v-409h102v-512h103v-307h-717v307h-103v614h-102v-102h-102v-307h-103v-205h-717v614
h-102v-102h-102v-307h-103v-308h-102v-204h-819z" />
    <glyph glyph-name="n" unicode="n" horiz-adv-x="2457" 
d="M0 0v307h102v409h102v410h103v307h102v410h103v205h614v-205h102v-205h103v-205h102v-205h103v-204h102v512h102v512h512v-1024h-102v-1024h-717v102h-102v205h-103v205h-102v204h-102v205h-103v-921h-921z" />
    <glyph glyph-name="o" unicode="o" 
d="M1126 512v102h102v102h103v308h102v409h-102v103h-205v-103h-102v-102h-103v-307h-102v-410h102v-102h205zM409 0v102h-205v102h-102v205h-102v307h102v410h102v307h103v205h102v102h103v103h102v102h205v103h819v-103h205v-102h102v-205h103v-614h-103v-512h-102v-205
h-103v-103h-102v-102h-205v-102h-1024z" />
    <glyph glyph-name="p" unicode="p" 
d="M1331 1228v103h102v102h-102v103h-307v-308h307zM0 0v307h102v409h102v410h103v307h102v410h103v205h1126v-103h205v-102h102v-205h103v-410h-103v-102h-102v-102h-103v-103h-204v-102h-615v-819h-921z" />
    <glyph glyph-name="q" unicode="q" 
d="M1024 512v102h-103v410h512v409h-102v103h-205v-103h-102v-102h-103v-307h-102v-410h102v-102h103zM409 0v102h-205v102h-102v205h-102v307h102v410h102v307h103v205h102v102h103v103h102v102h205v103h819v-103h205v-102h102v-205h103v-614h-103v-615h103v-409h-512v102
h-103v-102h-1024z" />
    <glyph glyph-name="r" unicode="r" 
d="M1331 1228v103h102v102h-102v103h-307v-308h307zM0 0v307h102v409h102v410h103v307h102v410h103v205h1126v-103h205v-102h102v-205h103v-410h-103v-102h-102v-102h-103v-205h103v-307h102v-512h-717v409h-102v307h-102v103h-103v-819h-921z" />
    <glyph glyph-name="s" unicode="s" 
d="M409 0v102h-205v102h-102v205h-102v307h716v-102h103v-102h307v102h102v205h-102v102h-205v103h-205v102h-102v205h-102v307h102v205h102v102h205v103h717v-103h205v-102h102v-205h103v-307h-512v102h-103v103h-205v-103h-102v-102h102v-103h308v-102h204v-102h103v-103
h102v-409h-102v-205h-103v-103h-102v-102h-205v-102h-1024z" />
    <glyph glyph-name="t" unicode="t" horiz-adv-x="2150" 
d="M409 0v307h103v409h102v410h102v307h103v103h-512v512h1638v-512h-512v-512h-102v-1024h-922z" />
    <glyph glyph-name="u" unicode="u" 
d="M409 0v102h-205v102h-102v205h-102v307h102v410h102v307h103v410h102v205h615v-308h-103v-716h-102v-410h102v-102h205v102h102v102h103v308h102v512h103v512h512v-1024h-103v-512h-102v-205h-103v-103h-102v-102h-205v-102h-1024z" />
    <glyph glyph-name="v" unicode="v" horiz-adv-x="2150" 
d="M512 0v409h-103v615h-102v614h-103v410h717v-717h103v-307h102v307h102v205h103v307h102v205h512v-205h-102v-205h-103v-205h-102v-307h-102v-205h-103v-307h-102v-205h-103v-205h-102v-204h-614z" />
    <glyph glyph-name="w" unicode="w" horiz-adv-x="3072" 
d="M512 0v409h-103v615h-102v614h-103v410h717v-717h103v-307h102v307h102v205h103v307h512v-512h102v-307h103v307h102v205h102v307h103v205h512v-205h-103v-205h-102v-205h-102v-307h-103v-205h-102v-307h-103v-205h-102v-205h-102v-204h-615v409h-205v-205h-102v-204
h-614z" />
    <glyph glyph-name="x" unicode="x" 
d="M0 0v102h102v102h102v205h103v103h102v102h103v102h102v205h102v410h-102v205h-102v307h-103v205h717v-205h102v-205h103v205h102v102h103v103h512v-103h-103v-205h-102v-102h-103v-205h-102v-205h-102v-102h-103v-102h103v-308h102v-204h102v-308h103v-204h-717v204
h-102v103h-103v-205h-102v-102h-819z" />
    <glyph glyph-name="y" unicode="y" horiz-adv-x="2150" 
d="M409 0v307h103v409h102v512h-102v205h-103v205h-102v205h-103v205h717v-205h103v-205h204v205h103v102h102v103h512v-103h-102v-205h-103v-102h-102v-205h-102v-102h-103v-205h-102v-1126h-922z" />
    <glyph glyph-name="z" unicode="z" 
d="M0 0v614h102v102h205v103h102v102h103v103h204v102h103v102h205v103h102v102h102v103h-819v512h1639v-615h-103v-102h-102v-103h-205v-102h-102v-102h-103v-103h-102v-102h-103v-103h-204v-102h-103v-102h1024v-512h-1945z" />
    <glyph glyph-name="Agrave" unicode="&#xc0;" 
d="M1228 1126v410h-102v-410h102zM0 0v204h102v308h102v204h103v205h102v205h103v205h102v205h102v307h103v205h102v204h103v205h102v205h512v-307h102v-615h103v-716h102v-717h103v-307h-717v716h-410v-409h-102v-307h-819zM1024 2764v103h-103v102h-102v103h-103v102h-102
v205h717v-205h102v-205h103v-205h-512z" />
    <glyph glyph-name="Aacute" unicode="&#xc1;" 
d="M1228 1126v410h-102v-410h102zM0 0v204h102v308h102v204h103v205h102v205h103v205h102v205h102v307h103v205h102v204h103v205h102v205h512v-307h102v-615h103v-716h102v-717h103v-307h-717v716h-410v-409h-102v-307h-819zM1024 2764v205h102v205h102v205h717v-205h-102
v-102h-103v-103h-102v-102h-102v-103h-512z" />
    <glyph glyph-name="Acircumflex" unicode="&#xc2;" 
d="M1228 1126v410h-102v-410h102zM0 0v204h102v308h102v204h103v205h102v205h103v205h102v205h102v307h103v205h102v204h103v205h102v205h512v-307h102v-615h103v-716h102v-717h103v-307h-717v716h-410v-409h-102v-307h-819zM614 2764v205h102v205h103v205h921v-205h103
v-205h102v-205h-409v103h-103v102h-102v103h-103v-103h-102v-102h-102v-103h-410z" />
    <glyph glyph-name="Atilde" unicode="&#xc3;" 
d="M1228 1126v410h-102v-410h102zM0 0v204h102v308h102v204h103v205h102v205h103v205h102v205h102v307h103v205h102v204h103v205h102v205h512v-307h102v-615h103v-716h102v-717h103v-307h-717v716h-410v-409h-102v-307h-819zM614 2764v308h102v204h103v103h512v-103h102
v-102h103v205h409v-307h-102v-205h-103v-103h-512v103h-102v102h-102v-205h-410z" />
    <glyph glyph-name="Adieresis" unicode="&#xc4;" 
d="M1228 1126v410h-102v-410h102zM0 0v204h102v308h102v204h103v205h102v205h103v205h102v205h102v307h103v205h102v204h103v205h102v205h512v-307h102v-615h103v-716h102v-717h103v-307h-717v716h-410v-409h-102v-307h-819zM614 2764v512h512v-512h-512zM1433 2764v512h512
v-512h-512z" />
    <glyph glyph-name="Aring" unicode="&#xc5;" 
d="M1228 1126v410h-102v-410h102zM0 0v204h102v308h102v204h103v205h102v205h103v205h102v205h102v307h103v205h102v204h103v205h102v205h512v-307h102v-615h103v-716h102v-717h103v-307h-717v716h-410v-409h-102v-307h-819zM1331 2969v205h-103v-205h103zM1024 2764v103
h-103v409h103v103h512v-103h102v-409h-102v-103h-512z" />
    <glyph glyph-name="AE" unicode="&#xc6;" horiz-adv-x="3276" 
d="M1228 1126v410h-102v-410h102zM0 0v204h102v308h102v204h103v205h102v205h103v205h102v205h102v307h103v205h102v204h103v205h102v205h1946v-512h-1332v-410h103v-102h717v-410h-717v-204h102v-512h1024v-512h-1638v716h-410v-409h-102v-307h-819z" />
    <glyph glyph-name="Ccedilla" unicode="&#xc7;" 
d="M614 -512v308h205v102h-103v102h-307v102h-205v102h-102v205h-102v512h102v512h102v410h103v307h102v205h103v102h102v103h205v102h819v-102h205v-103h102v-205h103v-409h-615v205h-102v102h-205v-102h-102v-103h-103v-614h-102v-717h102v-102h205v102h102v102h103v205
h614v-409h-102v-205h-103v-103h-102v-102h-205v-102h-205v-102h103v-307h-103v-103h-614z" />
    <glyph glyph-name="Egrave" unicode="&#xc8;" 
d="M0 0v409h102v512h102v512h103v410h102v512h103v307h1536v-512h-1024v-512h512v-410h-615v-716h1024v-512h-1945zM1024 2764v103h-103v102h-102v103h-103v102h-102v205h717v-205h102v-205h103v-205h-512z" />
    <glyph glyph-name="Eacute" unicode="&#xc9;" 
d="M0 0v409h102v512h102v512h103v410h102v512h103v307h1536v-512h-1024v-512h512v-410h-615v-716h1024v-512h-1945zM1024 2764v205h102v205h102v205h717v-205h-102v-102h-103v-103h-102v-102h-102v-103h-512z" />
    <glyph glyph-name="Ecircumflex" unicode="&#xca;" 
d="M0 0v409h102v512h102v512h103v410h102v512h103v307h1536v-512h-1024v-512h512v-410h-615v-716h1024v-512h-1945zM614 2764v205h102v205h103v205h921v-205h103v-205h102v-205h-409v103h-103v102h-102v103h-103v-103h-102v-102h-102v-103h-410z" />
    <glyph glyph-name="Edieresis" unicode="&#xcb;" 
d="M0 0v409h102v512h102v512h103v410h102v512h103v307h1536v-512h-1024v-512h512v-410h-615v-716h1024v-512h-1945zM614 2764v512h512v-512h-512zM1433 2764v512h512v-512h-512z" />
    <glyph glyph-name="Igrave" unicode="&#xcc;" horiz-adv-x="1331" 
d="M0 0v409h102v512h102v512h103v410h102v512h103v307h614v-512h-102v-819h-103v-1331h-921zM512 2764v103h-103v102h-102v103h-103v102h-102v205h717v-205h102v-205h103v-205h-512z" />
    <glyph glyph-name="Iacute" unicode="&#xcd;" horiz-adv-x="1331" 
d="M0 0v409h102v512h102v512h103v410h102v512h103v307h614v-512h-102v-819h-103v-1331h-921zM512 2764v205h102v205h102v205h717v-205h-102v-102h-103v-103h-102v-102h-102v-103h-512z" />
    <glyph glyph-name="Icircumflex" unicode="&#xce;" horiz-adv-x="1331" 
d="M0 0v409h102v512h102v512h103v410h102v512h103v307h614v-512h-102v-819h-103v-1331h-921zM102 2764v205h102v205h103v205h921v-205h103v-205h102v-205h-409v103h-103v102h-102v103h-103v-103h-102v-102h-102v-103h-410z" />
    <glyph glyph-name="Idieresis" unicode="&#xcf;" horiz-adv-x="1331" 
d="M0 0v409h102v512h102v512h103v410h102v512h103v307h614v-512h-102v-819h-103v-1331h-921zM102 2764v512h512v-512h-512zM921 2764v512h512v-512h-512z" />
    <glyph glyph-name="Eth" unicode="&#xd0;" 
d="M1126 512v102h102v102h103v512h102v820h-102v102h-307v-614h204v-410h-307v-614h205zM0 0v409h102v512h102v205h-204v410h307v307h102v512h103v307h1126v-102h205v-103h102v-205h103v-921h-103v-819h-102v-205h-103v-103h-102v-102h-205v-102h-1433z" />
    <glyph glyph-name="Ntilde" unicode="&#xd1;" horiz-adv-x="2457" 
d="M0 0v409h102v512h102v512h103v410h102v512h103v307h614v-102h102v-308h103v-307h102v-307h103v-307h102v614h102v717h512v-1331h-102v-1331h-717v204h-102v308h-103v307h-102v307h-102v205h-103v-1331h-921zM716 2764v308h103v204h102v103h512v-103h103v-102h102v205h410
v-307h-103v-205h-102v-103h-512v103h-103v102h-102v-205h-410z" />
    <glyph glyph-name="Ograve" unicode="&#xd2;" 
d="M1126 512v102h102v102h103v512h102v820h-102v102h-205v-102h-102v-103h-103v-614h-102v-717h102v-102h205zM409 0v102h-205v102h-102v205h-102v512h102v512h102v410h103v307h102v205h103v102h102v103h205v102h819v-102h205v-103h102v-205h103v-921h-103v-819h-102v-205
h-103v-103h-102v-102h-205v-102h-1024zM1024 2764v103h-103v102h-102v103h-103v102h-102v205h717v-205h102v-205h103v-205h-512z" />
    <glyph glyph-name="Oacute" unicode="&#xd3;" 
d="M1126 512v102h102v102h103v512h102v820h-102v102h-205v-102h-102v-103h-103v-614h-102v-717h102v-102h205zM409 0v102h-205v102h-102v205h-102v512h102v512h102v410h103v307h102v205h103v102h102v103h205v102h819v-102h205v-103h102v-205h103v-921h-103v-819h-102v-205
h-103v-103h-102v-102h-205v-102h-1024zM1024 2764v205h102v205h102v205h717v-205h-102v-102h-103v-103h-102v-102h-102v-103h-512z" />
    <glyph glyph-name="Ocircumflex" unicode="&#xd4;" 
d="M1126 512v102h102v102h103v512h102v820h-102v102h-205v-102h-102v-103h-103v-614h-102v-717h102v-102h205zM409 0v102h-205v102h-102v205h-102v512h102v512h102v410h103v307h102v205h103v102h102v103h205v102h819v-102h205v-103h102v-205h103v-921h-103v-819h-102v-205
h-103v-103h-102v-102h-205v-102h-1024zM614 2764v205h102v205h103v205h921v-205h103v-205h102v-205h-409v103h-103v102h-102v103h-103v-103h-102v-102h-102v-103h-410z" />
    <glyph glyph-name="Otilde" unicode="&#xd5;" 
d="M1126 512v102h102v102h103v512h102v820h-102v102h-205v-102h-102v-103h-103v-614h-102v-717h102v-102h205zM409 0v102h-205v102h-102v205h-102v512h102v512h102v410h103v307h102v205h103v102h102v103h205v102h819v-102h205v-103h102v-205h103v-921h-103v-819h-102v-205
h-103v-103h-102v-102h-205v-102h-1024zM614 2764v308h102v204h103v103h512v-103h102v-102h103v205h409v-307h-102v-205h-103v-103h-512v103h-102v102h-102v-205h-410z" />
    <glyph glyph-name="Odieresis" unicode="&#xd6;" 
d="M1126 512v102h102v102h103v512h102v820h-102v102h-205v-102h-102v-103h-103v-614h-102v-717h102v-102h205zM409 0v102h-205v102h-102v205h-102v512h102v512h102v410h103v307h102v205h103v102h102v103h205v102h819v-102h205v-103h102v-205h103v-921h-103v-819h-102v-205
h-103v-103h-102v-102h-205v-102h-1024zM614 2764v512h512v-512h-512zM1433 2764v512h512v-512h-512z" />
    <glyph glyph-name="Oslash" unicode="&#xd8;" 
d="M1126 512v102h102v102h103v512h102v103h-102v-103h-103v-102h-102v-102h-102v-103h-103v-102h-102v-205h102v-102h205zM1024 1433v103h102v102h102v102h103v103h102v205h-102v102h-205v-102h-102v-103h-103v-512h103zM-102 0v409h102v512h102v512h102v410h103v307h102
v205h103v102h102v103h205v102h819v-102h205v-103h307v-409h-102v-717h-103v-819h-102v-205h-103v-103h-102v-102h-205v-102h-1024v102h-307v-102h-204z" />
    <glyph glyph-name="Ugrave" unicode="&#xd9;" 
d="M409 0v102h-205v102h-102v205h-102v512h102v512h102v410h103v512h102v307h615v-512h-103v-819h-102v-717h102v-102h205v102h102v102h103v512h102v717h103v717h512v-1331h-103v-819h-102v-205h-103v-103h-102v-102h-205v-102h-1024zM1024 2764v103h-103v102h-102v103h-103
v102h-102v205h717v-205h102v-205h103v-205h-512z" />
    <glyph glyph-name="Uacute" unicode="&#xda;" 
d="M409 0v102h-205v102h-102v205h-102v512h102v512h102v410h103v512h102v307h615v-512h-103v-819h-102v-717h102v-102h205v102h102v102h103v512h102v717h103v717h512v-1331h-103v-819h-102v-205h-103v-103h-102v-102h-205v-102h-1024zM1024 2764v205h102v205h102v205h717
v-205h-102v-102h-103v-103h-102v-102h-102v-103h-512z" />
    <glyph glyph-name="Ucircumflex" unicode="&#xdb;" 
d="M409 0v102h-205v102h-102v205h-102v512h102v512h102v410h103v512h102v307h615v-512h-103v-819h-102v-717h102v-102h205v102h102v102h103v512h102v717h103v717h512v-1331h-103v-819h-102v-205h-103v-103h-102v-102h-205v-102h-1024zM614 2764v205h102v205h103v205h921
v-205h103v-205h102v-205h-409v103h-103v102h-102v103h-103v-103h-102v-102h-102v-103h-410z" />
    <glyph glyph-name="Udieresis" unicode="&#xdc;" 
d="M409 0v102h-205v102h-102v205h-102v512h102v512h102v410h103v512h102v307h615v-512h-103v-819h-102v-717h102v-102h205v102h102v102h103v512h102v717h103v717h512v-1331h-103v-819h-102v-205h-103v-103h-102v-102h-205v-102h-1024zM614 2764v512h512v-512h-512z
M1433 2764v512h512v-512h-512z" />
    <glyph glyph-name="Yacute" unicode="&#xdd;" horiz-adv-x="2150" 
d="M409 0v409h103v512h102v512h-102v410h-103v307h-102v307h-103v205h717v-512h103v-205h102v103h102v204h103v205h102v205h512v-205h-102v-205h-103v-204h-102v-205h-102v-205h-103v-205h-102v-1433h-922zM921 2764v205h103v205h102v205h717v-205h-103v-102h-102v-103h-102
v-102h-103v-103h-512z" />
    <glyph glyph-name="Thorn" unicode="&#xde;" 
d="M1126 819v102h102v103h103v307h102v409h-102v103h-205v-103h-102v-409h-103v-512h205zM0 0v409h102v512h102v512h103v410h102v512h103v307h614v-307h512v-103h205v-102h102v-205h103v-614h-103v-512h-102v-205h-103v-102h-102v-103h-205v-102h-512v-307h-921z" />
    <glyph glyph-name="germandbls" unicode="&#xdf;" 
d="M0 0v409h102v512h102v512h103v410h102v409h103v205h102v103h205v102h819v-102h205v-103h102v-205h103v-409h-103v-205h-102v-102h-103v-205h103v-205h102v-614h-102v-205h-103v-103h-102v-102h-205v-102h-409v512h204v102h103v512h-103v614h103v103h102v205h-102v102
h-205v-102h-102v-717h-103v-1331h-921z" />
    <glyph glyph-name="agrave" unicode="&#xe0;" 
d="M1228 614v307h-102v-102h-102v-205h204zM0 0v102h102v205h102v205h103v204h102v103h103v205h102v204h102v103h103v205h102v204h103v205h102v103h512v-308h102v-512h103v-409h102v-512h103v-307h-717v204h-512v-204h-819zM1024 2150v102h-103v103h-102v102h-103v103h-102
v204h717v-204h102v-205h103v-205h-512z" />
    <glyph glyph-name="aacute" unicode="&#xe1;" 
d="M1228 614v307h-102v-102h-102v-205h204zM0 0v102h102v205h102v205h103v204h102v103h103v205h102v204h102v103h103v205h102v204h103v205h102v103h512v-308h102v-512h103v-409h102v-512h103v-307h-717v204h-512v-204h-819zM1024 2150v205h102v205h102v204h717v-204h-102
v-103h-103v-102h-102v-103h-102v-102h-512z" />
    <glyph glyph-name="acircumflex" unicode="&#xe2;" 
d="M1228 614v307h-102v-102h-102v-205h204zM0 0v102h102v205h102v205h103v204h102v103h103v205h102v204h102v103h103v205h102v204h103v205h102v103h512v-308h102v-512h103v-409h102v-512h103v-307h-717v204h-512v-204h-819zM614 2150v205h102v205h103v204h921v-204h103v-205
h102v-205h-409v102h-103v103h-102v102h-103v-102h-102v-103h-102v-102h-410z" />
    <glyph glyph-name="atilde" unicode="&#xe3;" 
d="M1228 614v307h-102v-102h-102v-205h204zM0 0v102h102v205h102v205h103v204h102v103h103v205h102v204h102v103h103v205h102v204h103v205h102v103h512v-308h102v-512h103v-409h102v-512h103v-307h-717v204h-512v-204h-819zM614 2150v307h102v205h103v102h512v-102h102v-102
h103v204h409v-307h-102v-205h-103v-102h-512v102h-102v103h-102v-205h-410z" />
    <glyph glyph-name="adieresis" unicode="&#xe4;" 
d="M1228 614v307h-102v-102h-102v-205h204zM0 0v102h102v205h102v205h103v204h102v103h103v205h102v204h102v103h103v205h102v204h103v205h102v103h512v-308h102v-512h103v-409h102v-512h103v-307h-717v204h-512v-204h-819zM614 2150v512h512v-512h-512zM1433 2150v512h512
v-512h-512z" />
    <glyph glyph-name="aring" unicode="&#xe5;" 
d="M1228 614v307h-102v-102h-102v-205h204zM0 0v102h102v205h102v205h103v204h102v103h103v205h102v204h102v103h103v205h102v204h103v205h102v103h512v-308h102v-512h103v-409h102v-512h103v-307h-717v204h-512v-204h-819zM1331 2355v205h-103v-205h103zM1024 2150v102
h-103v410h103v102h512v-102h102v-410h-102v-102h-512z" />
    <glyph glyph-name="ae" unicode="&#xe6;" horiz-adv-x="3276" 
d="M1228 614v307h-102v-102h-102v-205h204zM0 0v102h102v205h102v205h103v204h102v103h103v205h102v204h102v103h103v205h102v204h103v205h102v103h1946v-512h-1332v-205h820v-410h-717v-102h102v-307h1024v-512h-1638v204h-512v-204h-819z" />
    <glyph glyph-name="ccedilla" unicode="&#xe7;" 
d="M614 -512v308h205v102h-103v102h-307v102h-205v102h-102v205h-102v307h102v410h102v307h103v205h102v102h103v103h102v102h205v103h819v-103h205v-102h102v-205h103v-307h-615v102h-102v103h-205v-103h-102v-102h-103v-307h-102v-410h102v-102h205v102h102v102h717v-204
h-102v-205h-103v-103h-102v-102h-205v-102h-205v-102h103v-307h-103v-103h-614z" />
    <glyph glyph-name="egrave" unicode="&#xe8;" 
d="M0 0v307h102v409h102v410h103v307h102v410h103v205h1536v-512h-1024v-205h512v-410h-615v-409h1024v-512h-1945zM1024 2150v102h-103v103h-102v102h-103v103h-102v204h717v-204h102v-205h103v-205h-512z" />
    <glyph glyph-name="eacute" unicode="&#xe9;" 
d="M0 0v307h102v409h102v410h103v307h102v410h103v205h1536v-512h-1024v-205h512v-410h-615v-409h1024v-512h-1945zM1024 2150v205h102v205h102v204h717v-204h-102v-103h-103v-102h-102v-103h-102v-102h-512z" />
    <glyph glyph-name="ecircumflex" unicode="&#xea;" 
d="M0 0v307h102v409h102v410h103v307h102v410h103v205h1536v-512h-1024v-205h512v-410h-615v-409h1024v-512h-1945zM614 2150v205h102v205h103v204h921v-204h103v-205h102v-205h-409v102h-103v103h-102v102h-103v-102h-102v-103h-102v-102h-410z" />
    <glyph glyph-name="edieresis" unicode="&#xeb;" 
d="M0 0v307h102v409h102v410h103v307h102v410h103v205h1536v-512h-1024v-205h512v-410h-615v-409h1024v-512h-1945zM614 2150v512h512v-512h-512zM1433 2150v512h512v-512h-512z" />
    <glyph glyph-name="igrave" unicode="&#xec;" horiz-adv-x="1331" 
d="M0 0v307h102v409h102v410h103v307h102v410h103v205h614v-308h-102v-716h-103v-1024h-921zM512 2150v102h-103v103h-102v102h-103v103h-102v204h717v-204h102v-205h103v-205h-512z" />
    <glyph glyph-name="iacute" unicode="&#xed;" horiz-adv-x="1331" 
d="M0 0v307h102v409h102v410h103v307h102v410h103v205h614v-308h-102v-716h-103v-1024h-921zM512 2150v205h102v205h102v204h717v-204h-102v-103h-103v-102h-102v-103h-102v-102h-512z" />
    <glyph glyph-name="icircumflex" unicode="&#xee;" horiz-adv-x="1331" 
d="M0 0v307h102v409h102v410h103v307h102v410h103v205h614v-308h-102v-716h-103v-1024h-921zM102 2150v205h102v205h103v204h921v-204h103v-205h102v-205h-409v102h-103v103h-102v102h-103v-102h-102v-103h-102v-102h-410z" />
    <glyph glyph-name="idieresis" unicode="&#xef;" horiz-adv-x="1331" 
d="M0 0v307h102v409h102v410h103v307h102v410h103v205h614v-308h-102v-716h-103v-1024h-921zM102 2150v512h512v-512h-512zM921 2150v512h512v-512h-512z" />
    <glyph glyph-name="eth" unicode="&#xf0;" 
d="M1126 512v102h102v102h103v308h102v409h-102v103h-307v-308h204v-409h-307v-307h205zM0 0v307h102v409h102v103h-204v409h307v205h102v410h103v205h1126v-103h205v-102h102v-205h103v-614h-103v-512h-102v-205h-103v-103h-102v-102h-205v-102h-1433z" />
    <glyph glyph-name="ntilde" unicode="&#xf1;" horiz-adv-x="2457" 
d="M0 0v307h102v409h102v410h103v307h102v410h103v205h614v-205h102v-205h103v-205h102v-205h103v-204h102v512h102v512h512v-1024h-102v-1024h-717v102h-102v205h-103v205h-102v204h-102v205h-103v-921h-921zM716 2150v307h103v205h102v102h512v-102h103v-102h102v204h410
v-307h-103v-205h-102v-102h-512v102h-103v103h-102v-205h-410z" />
    <glyph glyph-name="ograve" unicode="&#xf2;" 
d="M1126 512v102h102v102h103v308h102v409h-102v103h-205v-103h-102v-102h-103v-307h-102v-410h102v-102h205zM409 0v102h-205v102h-102v205h-102v307h102v410h102v307h103v205h102v102h103v103h102v102h205v103h819v-103h205v-102h102v-205h103v-614h-103v-512h-102v-205
h-103v-103h-102v-102h-205v-102h-1024zM1024 2150v102h-103v103h-102v102h-103v103h-102v204h717v-204h102v-205h103v-205h-512z" />
    <glyph glyph-name="oacute" unicode="&#xf3;" 
d="M1126 512v102h102v102h103v308h102v409h-102v103h-205v-103h-102v-102h-103v-307h-102v-410h102v-102h205zM409 0v102h-205v102h-102v205h-102v307h102v410h102v307h103v205h102v102h103v103h102v102h205v103h819v-103h205v-102h102v-205h103v-614h-103v-512h-102v-205
h-103v-103h-102v-102h-205v-102h-1024zM1024 2150v205h102v205h102v204h717v-204h-102v-103h-103v-102h-102v-103h-102v-102h-512z" />
    <glyph glyph-name="ocircumflex" unicode="&#xf4;" 
d="M1126 512v102h102v102h103v308h102v409h-102v103h-205v-103h-102v-102h-103v-307h-102v-410h102v-102h205zM409 0v102h-205v102h-102v205h-102v307h102v410h102v307h103v205h102v102h103v103h102v102h205v103h819v-103h205v-102h102v-205h103v-614h-103v-512h-102v-205
h-103v-103h-102v-102h-205v-102h-1024zM614 2150v205h102v205h103v204h921v-204h103v-205h102v-205h-409v102h-103v103h-102v102h-103v-102h-102v-103h-102v-102h-410z" />
    <glyph glyph-name="otilde" unicode="&#xf5;" 
d="M1126 512v102h102v102h103v308h102v409h-102v103h-205v-103h-102v-102h-103v-307h-102v-410h102v-102h205zM409 0v102h-205v102h-102v205h-102v307h102v410h102v307h103v205h102v102h103v103h102v102h205v103h819v-103h205v-102h102v-205h103v-614h-103v-512h-102v-205
h-103v-103h-102v-102h-205v-102h-1024zM614 2150v307h102v205h103v102h512v-102h102v-102h103v204h409v-307h-102v-205h-103v-102h-512v102h-102v103h-102v-205h-410z" />
    <glyph glyph-name="odieresis" unicode="&#xf6;" 
d="M1126 512v102h102v102h103v308h102v409h-102v103h-205v-103h-102v-102h-103v-307h-102v-410h102v-102h205zM409 0v102h-205v102h-102v205h-102v307h102v410h102v307h103v205h102v102h103v103h102v102h205v103h819v-103h205v-102h102v-205h103v-614h-103v-512h-102v-205
h-103v-103h-102v-102h-205v-102h-1024zM614 2150v512h512v-512h-512zM1433 2150v512h512v-512h-512z" />
    <glyph glyph-name="oslash" unicode="&#xf8;" 
d="M1126 512v102h102v102h103v205h-103v-102h-102v-103h-102v-102h-103v-102h205zM1024 1126v102h102v103h102v102h103v103h-205v-103h-102v-102h-103v-205h103zM0 -204v408h102v205h-102v307h102v410h102v307h103v205h102v102h103v103h102v102h205v103h819v-103h205v103
h102v102h205v-410h-102v-716h-103v-512h-102v-205h-103v-103h-102v-102h-205v-102h-1126v-102h-103v-102h-204z" />
    <glyph glyph-name="ugrave" unicode="&#xf9;" 
d="M409 0v102h-205v102h-102v205h-102v307h102v410h102v307h103v410h102v205h615v-308h-103v-716h-102v-410h102v-102h205v102h102v102h103v308h102v512h103v512h512v-1024h-103v-512h-102v-205h-103v-103h-102v-102h-205v-102h-1024zM1024 2150v102h-103v103h-102v102h-103
v103h-102v204h717v-204h102v-205h103v-205h-512z" />
    <glyph glyph-name="uacute" unicode="&#xfa;" 
d="M409 0v102h-205v102h-102v205h-102v307h102v410h102v307h103v410h102v205h615v-308h-103v-716h-102v-410h102v-102h205v102h102v102h103v308h102v512h103v512h512v-1024h-103v-512h-102v-205h-103v-103h-102v-102h-205v-102h-1024zM1024 2150v205h102v205h102v204h717
v-204h-102v-103h-103v-102h-102v-103h-102v-102h-512z" />
    <glyph glyph-name="ucircumflex" unicode="&#xfb;" 
d="M409 0v102h-205v102h-102v205h-102v307h102v410h102v307h103v410h102v205h615v-308h-103v-716h-102v-410h102v-102h205v102h102v102h103v308h102v512h103v512h512v-1024h-103v-512h-102v-205h-103v-103h-102v-102h-205v-102h-1024zM614 2150v205h102v205h103v204h921
v-204h103v-205h102v-205h-409v102h-103v103h-102v102h-103v-102h-102v-103h-102v-102h-410z" />
    <glyph glyph-name="udieresis" unicode="&#xfc;" 
d="M409 0v102h-205v102h-102v205h-102v307h102v410h102v307h103v410h102v205h615v-308h-103v-716h-102v-410h102v-102h205v102h102v102h103v308h102v512h103v512h512v-1024h-103v-512h-102v-205h-103v-103h-102v-102h-205v-102h-1024zM614 2150v512h512v-512h-512z
M1433 2150v512h512v-512h-512z" />
    <glyph glyph-name="yacute" unicode="&#xfd;" horiz-adv-x="2150" 
d="M409 0v307h103v409h102v512h-102v205h-103v205h-102v205h-103v205h717v-205h103v-205h204v205h103v102h102v103h512v-103h-102v-205h-103v-102h-102v-205h-102v-102h-103v-205h-102v-1126h-922zM921 2150v205h103v205h102v204h717v-204h-103v-103h-102v-102h-102v-103
h-103v-102h-512z" />
    <glyph glyph-name="thorn" unicode="&#xfe;" 
d="M1331 819v102h102v103h-102v102h-307v-102h-103v-205h410zM0 0v307h102v409h102v410h103v307h102v410h103v205h614v-308h-102v-102h614v-102h205v-103h102v-205h103v-409h-103v-103h-102v-102h-103v-102h-204v-103h-615v-409h-921z" />
    <glyph glyph-name="ydieresis" unicode="&#xff;" horiz-adv-x="2150" 
d="M409 0v307h103v409h102v512h-102v205h-103v205h-102v205h-103v205h717v-205h103v-205h204v205h103v102h102v103h512v-103h-102v-205h-103v-102h-102v-205h-102v-102h-103v-205h-102v-1126h-922zM512 2150v512h512v-512h-512zM1331 2150v512h512v-512h-512z" />
    <glyph glyph-name="Amacron" unicode="&#x100;" 
d="M1228 1126v410h-102v-410h102zM0 0v204h102v308h102v204h103v205h102v205h103v205h102v205h102v307h103v205h102v204h103v205h102v205h512v-307h102v-615h103v-716h102v-717h103v-307h-717v716h-410v-409h-102v-307h-819zM614 2764v410h1331v-410h-1331z" />
    <glyph glyph-name="amacron" unicode="&#x101;" 
d="M1228 614v307h-102v-102h-102v-205h204zM0 0v102h102v205h102v205h103v204h102v103h103v205h102v204h102v103h103v205h102v204h103v205h102v103h512v-308h102v-512h103v-409h102v-512h103v-307h-717v204h-512v-204h-819zM614 2150v410h1331v-410h-1331z" />
    <glyph glyph-name="Abreve" unicode="&#x102;" 
d="M1228 1126v410h-102v-410h102zM0 0v204h102v308h102v204h103v205h102v205h103v205h102v205h102v307h103v205h102v204h103v205h102v205h512v-307h102v-615h103v-716h102v-717h103v-307h-717v716h-410v-409h-102v-307h-819zM819 2764v103h-103v102h-102v410h410v-205h102
v-102h307v102h103v205h409v-410h-102v-102h-103v-103h-921z" />
    <glyph glyph-name="abreve" unicode="&#x103;" 
d="M1228 614v307h-102v-102h-102v-205h204zM0 0v102h102v205h102v205h103v204h102v103h103v205h102v204h102v103h103v205h102v204h103v205h102v103h512v-308h102v-512h103v-409h102v-512h103v-307h-717v204h-512v-204h-819zM819 2150v102h-103v103h-102v409h410v-204h102
v-103h307v103h103v204h409v-409h-102v-103h-103v-102h-921z" />
    <glyph glyph-name="Aogonek" unicode="&#x104;" 
d="M1228 1126v410h-102v-410h102zM1331 -512v103h-103v307h103v818h-410v-409h-102v-307h-819v204h102v308h102v204h103v205h102v205h103v205h102v205h102v307h103v205h102v204h103v205h102v205h512v-307h102v-615h103v-716h102v-717h103v-307h-205v-102h-103v-102h205v-308
h-614z" />
    <glyph glyph-name="aogonek" unicode="&#x105;" 
d="M1228 614v307h-102v-102h-102v-205h204zM1331 -512v103h-103v307h103v306h-512v-204h-819v102h102v205h102v205h103v204h102v103h103v205h102v204h102v103h103v205h102v204h103v205h102v103h512v-308h102v-512h103v-409h102v-512h103v-307h-205v-102h-103v-102h205v-308
h-614z" />
    <glyph glyph-name="Cacute" unicode="&#x106;" 
d="M409 0v102h-205v102h-102v205h-102v512h102v512h102v410h103v307h102v205h103v102h102v103h205v102h819v-102h205v-103h102v-205h103v-409h-615v205h-102v102h-205v-102h-102v-103h-103v-614h-102v-717h102v-102h205v102h102v102h103v205h614v-409h-102v-205h-103v-103
h-102v-102h-205v-102h-1024zM1024 2764v205h102v205h102v205h717v-205h-102v-102h-103v-103h-102v-102h-102v-103h-512z" />
    <glyph glyph-name="cacute" unicode="&#x107;" 
d="M409 0v102h-205v102h-102v205h-102v307h102v410h102v307h103v205h102v102h103v103h102v102h205v103h819v-103h205v-102h102v-205h103v-307h-615v102h-102v103h-205v-103h-102v-102h-103v-307h-102v-410h102v-102h205v102h102v102h717v-204h-102v-205h-103v-103h-102v-102
h-205v-102h-1024zM1024 2150v205h102v205h102v204h717v-204h-102v-103h-103v-102h-102v-103h-102v-102h-512z" />
    <glyph glyph-name="Ccircumflex" unicode="&#x108;" 
d="M409 0v102h-205v102h-102v205h-102v512h102v512h102v410h103v307h102v205h103v102h102v103h205v102h819v-102h205v-103h102v-205h103v-409h-615v205h-102v102h-205v-102h-102v-103h-103v-614h-102v-717h102v-102h205v102h102v102h103v205h614v-409h-102v-205h-103v-103
h-102v-102h-205v-102h-1024zM614 2764v205h102v205h103v205h921v-205h103v-205h102v-205h-409v103h-103v102h-102v103h-103v-103h-102v-102h-102v-103h-410z" />
    <glyph glyph-name="ccircumflex" unicode="&#x109;" 
d="M409 0v102h-205v102h-102v205h-102v307h102v410h102v307h103v205h102v102h103v103h102v102h205v103h819v-103h205v-102h102v-205h103v-307h-615v102h-102v103h-205v-103h-102v-102h-103v-307h-102v-410h102v-102h205v102h102v102h717v-204h-102v-205h-103v-103h-102v-102
h-205v-102h-1024zM614 2150v205h102v205h103v204h921v-204h103v-205h102v-205h-409v102h-103v103h-102v102h-103v-102h-102v-103h-102v-102h-410z" />
    <glyph glyph-name="Cdotaccent" unicode="&#x10a;" 
d="M409 0v102h-205v102h-102v205h-102v512h102v512h102v410h103v307h102v205h103v102h102v103h205v102h819v-102h205v-103h102v-205h103v-409h-615v205h-102v102h-205v-102h-102v-103h-103v-614h-102v-717h102v-102h205v102h102v102h103v205h614v-409h-102v-205h-103v-103
h-102v-102h-205v-102h-1024zM1024 2764v512h512v-512h-512z" />
    <glyph glyph-name="cdotaccent" unicode="&#x10b;" 
d="M409 0v102h-205v102h-102v205h-102v307h102v410h102v307h103v205h102v102h103v103h102v102h205v103h819v-103h205v-102h102v-205h103v-307h-615v102h-102v103h-205v-103h-102v-102h-103v-307h-102v-410h102v-102h205v102h102v102h717v-204h-102v-205h-103v-103h-102v-102
h-205v-102h-1024zM1024 2150v512h512v-512h-512z" />
    <glyph glyph-name="Ccaron" unicode="&#x10c;" 
d="M409 0v102h-205v102h-102v205h-102v512h102v512h102v410h103v307h102v205h103v102h102v103h205v102h819v-102h205v-103h102v-205h103v-409h-615v205h-102v102h-205v-102h-102v-103h-103v-614h-102v-717h102v-102h205v102h102v102h103v205h614v-409h-102v-205h-103v-103
h-102v-102h-205v-102h-1024zM819 2764v205h-103v205h-102v205h410v-103h102v-102h102v-102h103v102h102v102h103v103h409v-205h-102v-205h-103v-205h-921z" />
    <glyph glyph-name="ccaron" unicode="&#x10d;" 
d="M409 0v102h-205v102h-102v205h-102v307h102v410h102v307h103v205h102v102h103v103h102v102h205v103h819v-103h205v-102h102v-205h103v-307h-615v102h-102v103h-205v-103h-102v-102h-103v-307h-102v-410h102v-102h205v102h102v102h717v-204h-102v-205h-103v-103h-102v-102
h-205v-102h-1024zM819 2150v205h-103v205h-102v204h410v-102h102v-102h102v-103h103v103h102v102h103v102h409v-204h-102v-205h-103v-205h-921z" />
    <glyph glyph-name="Dcaron" unicode="&#x10e;" 
d="M1126 512v102h102v102h103v512h102v820h-102v102h-307v-819h-103v-819h205zM0 0v409h102v512h102v512h103v410h102v512h103v307h1126v-102h205v-103h102v-205h103v-921h-103v-819h-102v-205h-103v-103h-102v-102h-205v-102h-1433zM819 2764v205h-103v205h-102v205h410
v-103h102v-102h102v-102h103v102h102v102h103v103h409v-205h-102v-205h-103v-205h-921z" />
    <glyph glyph-name="dcaron" unicode="&#x10f;" 
d="M1126 512v102h102v102h103v308h102v409h-102v103h-307v-512h-103v-512h205zM0 0v307h102v409h102v410h103v307h102v410h103v205h1126v-103h205v-102h102v-205h103v-614h-103v-512h-102v-205h-103v-103h-102v-102h-205v-102h-1433zM819 2150v205h-103v205h-102v204h410
v-102h102v-102h102v-103h103v103h102v102h103v102h409v-204h-102v-205h-103v-205h-921z" />
    <glyph glyph-name="Dcroat" unicode="&#x110;" 
d="M1126 512v102h102v102h103v512h102v820h-102v102h-307v-614h204v-410h-307v-614h205zM0 0v409h102v512h102v205h-204v410h307v307h102v512h103v307h1126v-102h205v-103h102v-205h103v-921h-103v-819h-102v-205h-103v-103h-102v-102h-205v-102h-1433z" />
    <glyph glyph-name="dcroat" unicode="&#x111;" 
d="M1126 512v102h102v102h103v308h102v409h-102v103h-307v-308h204v-409h-307v-307h205zM0 0v307h102v409h102v103h-204v409h307v205h102v410h103v205h1126v-103h205v-102h102v-205h103v-614h-103v-512h-102v-205h-103v-103h-102v-102h-205v-102h-1433z" />
    <glyph glyph-name="Emacron" unicode="&#x112;" 
d="M0 0v409h102v512h102v512h103v410h102v512h103v307h1536v-512h-1024v-512h512v-410h-615v-716h1024v-512h-1945zM614 2764v410h1331v-410h-1331z" />
    <glyph glyph-name="emacron" unicode="&#x113;" 
d="M0 0v307h102v409h102v410h103v307h102v410h103v205h1536v-512h-1024v-205h512v-410h-615v-409h1024v-512h-1945zM614 2150v410h1331v-410h-1331z" />
    <glyph glyph-name="Ebreve" unicode="&#x114;" 
d="M0 0v409h102v512h102v512h103v410h102v512h103v307h1536v-512h-1024v-512h512v-410h-615v-716h1024v-512h-1945zM819 2764v103h-103v102h-102v410h410v-205h102v-102h307v102h103v205h409v-410h-102v-102h-103v-103h-921z" />
    <glyph glyph-name="ebreve" unicode="&#x115;" 
d="M0 0v307h102v409h102v410h103v307h102v410h103v205h1536v-512h-1024v-205h512v-410h-615v-409h1024v-512h-1945zM819 2150v102h-103v103h-102v409h410v-204h102v-103h307v103h103v204h409v-409h-102v-103h-103v-102h-921z" />
    <glyph glyph-name="Edotaccent" unicode="&#x116;" 
d="M0 0v409h102v512h102v512h103v410h102v512h103v307h1536v-512h-1024v-512h512v-410h-615v-716h1024v-512h-1945zM1024 2764v512h512v-512h-512z" />
    <glyph glyph-name="edotaccent" unicode="&#x117;" 
d="M0 0v307h102v409h102v410h103v307h102v410h103v205h1536v-512h-1024v-205h512v-410h-615v-409h1024v-512h-1945zM1024 2150v512h512v-512h-512z" />
    <glyph glyph-name="Eogonek" unicode="&#x118;" 
d="M1024 -512v103h-103v307h103v102h-1024v409h102v512h102v512h103v410h102v512h103v307h1536v-512h-1024v-512h512v-410h-615v-716h1024v-512h-409v-102h-103v-102h205v-308h-614z" />
    <glyph glyph-name="eogonek" unicode="&#x119;" 
d="M1024 -512v103h-103v307h103v102h-1024v307h102v409h102v410h103v307h102v410h103v205h1536v-512h-1024v-205h512v-410h-615v-409h1024v-512h-409v-102h-103v-102h205v-308h-614z" />
    <glyph glyph-name="Ecaron" unicode="&#x11a;" 
d="M0 0v409h102v512h102v512h103v410h102v512h103v307h1536v-512h-1024v-512h512v-410h-615v-716h1024v-512h-1945zM819 2764v205h-103v205h-102v205h410v-103h102v-102h102v-102h103v102h102v102h103v103h409v-205h-102v-205h-103v-205h-921z" />
    <glyph glyph-name="ecaron" unicode="&#x11b;" 
d="M0 0v307h102v409h102v410h103v307h102v410h103v205h1536v-512h-1024v-205h512v-410h-615v-409h1024v-512h-1945zM819 2150v205h-103v205h-102v204h410v-102h102v-102h102v-103h103v103h102v102h103v102h409v-204h-102v-205h-103v-205h-921z" />
    <glyph glyph-name="Gcircumflex" unicode="&#x11c;" 
d="M409 0v102h-205v102h-102v205h-102v512h102v512h102v410h103v307h102v205h103v102h102v103h205v102h819v-102h205v-103h102v-205h103v-409h-615v205h-102v102h-205v-102h-102v-103h-103v-614h-102v-717h102v-102h205v102h102v102h103v103h-307v409h921v-716h-102v-205
h-103v-103h-102v-102h-205v-102h-1024zM614 2764v205h102v205h103v205h921v-205h103v-205h102v-205h-409v103h-103v102h-102v103h-103v-103h-102v-102h-102v-103h-410z" />
    <glyph glyph-name="gcircumflex" unicode="&#x11d;" 
d="M409 0v102h-205v102h-102v205h-102v307h102v410h102v307h103v205h102v102h103v103h102v102h205v103h819v-103h205v-102h102v-205h103v-307h-615v102h-102v103h-205v-103h-102v-102h-103v-307h-102v-410h102v-102h205v102h102v102h-204v410h921v-614h-102v-205h-103v-103
h-102v-102h-205v-102h-1024zM614 2150v205h102v205h103v204h921v-204h103v-205h102v-205h-409v102h-103v103h-102v102h-103v-102h-102v-103h-102v-102h-410z" />
    <glyph glyph-name="Gbreve" unicode="&#x11e;" 
d="M409 0v102h-205v102h-102v205h-102v512h102v512h102v410h103v307h102v205h103v102h102v103h205v102h819v-102h205v-103h102v-205h103v-409h-615v205h-102v102h-205v-102h-102v-103h-103v-614h-102v-717h102v-102h205v102h102v102h103v103h-307v409h921v-716h-102v-205
h-103v-103h-102v-102h-205v-102h-1024zM819 2764v103h-103v102h-102v410h410v-205h102v-102h307v102h103v205h409v-410h-102v-102h-103v-103h-921z" />
    <glyph glyph-name="gbreve" unicode="&#x11f;" 
d="M409 0v102h-205v102h-102v205h-102v307h102v410h102v307h103v205h102v102h103v103h102v102h205v103h819v-103h205v-102h102v-205h103v-307h-615v102h-102v103h-205v-103h-102v-102h-103v-307h-102v-410h102v-102h205v102h102v102h-204v410h921v-614h-102v-205h-103v-103
h-102v-102h-205v-102h-1024zM819 2150v102h-103v103h-102v409h410v-204h102v-103h307v103h103v204h409v-409h-102v-103h-103v-102h-921z" />
    <glyph glyph-name="Gdotaccent" unicode="&#x120;" 
d="M409 0v102h-205v102h-102v205h-102v512h102v512h102v410h103v307h102v205h103v102h102v103h205v102h819v-102h205v-103h102v-205h103v-409h-615v205h-102v102h-205v-102h-102v-103h-103v-614h-102v-717h102v-102h205v102h102v102h103v103h-307v409h921v-716h-102v-205
h-103v-103h-102v-102h-205v-102h-1024zM1024 2764v512h512v-512h-512z" />
    <glyph glyph-name="gdotaccent" unicode="&#x121;" 
d="M409 0v102h-205v102h-102v205h-102v307h102v410h102v307h103v205h102v102h103v103h102v102h205v103h819v-103h205v-102h102v-205h103v-307h-615v102h-102v103h-205v-103h-102v-102h-103v-307h-102v-410h102v-102h205v102h102v102h-204v410h921v-614h-102v-205h-103v-103
h-102v-102h-205v-102h-1024zM1024 2150v512h512v-512h-512z" />
    <glyph glyph-name="uni0122" unicode="&#x122;" 
d="M614 -512v308h205v102h-103v102h-307v102h-205v102h-102v205h-102v512h102v512h102v410h103v307h102v205h103v102h102v103h205v102h819v-102h205v-103h102v-205h103v-409h-615v205h-102v102h-205v-102h-102v-103h-103v-614h-102v-717h102v-102h205v102h102v102h103v103
h-307v409h921v-716h-102v-205h-103v-103h-102v-102h-205v-102h-205v-102h103v-307h-103v-103h-614z" />
    <glyph glyph-name="uni0123" unicode="&#x123;" 
d="M614 -512v308h205v102h-103v102h-307v102h-205v102h-102v205h-102v307h102v410h102v307h103v205h102v102h103v103h102v102h205v103h819v-103h205v-102h102v-205h103v-307h-615v102h-102v103h-205v-103h-102v-102h-103v-307h-102v-410h102v-102h205v102h102v102h-204v410
h921v-614h-102v-205h-103v-103h-102v-102h-205v-102h-205v-102h103v-307h-103v-103h-614z" />
    <glyph glyph-name="Hcircumflex" unicode="&#x124;" horiz-adv-x="2355" 
d="M0 0v409h102v512h102v512h103v410h102v512h103v307h614v-512h-102v-512h512v307h102v717h512v-1331h-102v-1331h-717v614h102v614h-512v-1228h-921zM716 2764v205h103v205h102v205h922v-205h102v-205h103v-205h-410v103h-102v102h-103v103h-102v-103h-103v-102h-102v-103
h-410z" />
    <glyph glyph-name="hcircumflex" unicode="&#x125;" horiz-adv-x="2355" 
d="M0 0v307h102v409h102v410h103v307h102v410h103v205h614v-308h-102v-409h512v205h102v512h512v-1024h-102v-1024h-717v512h102v409h-512v-921h-921zM716 2150v205h103v205h102v204h922v-204h102v-205h103v-205h-410v102h-102v103h-103v102h-102v-102h-103v-103h-102v-102
h-410z" />
    <glyph glyph-name="Hbar" unicode="&#x126;" horiz-adv-x="2355" 
d="M1536 1638v307h-512v-307h512zM0 0v409h102v512h102v512h103v410h102v102h-102v410h205v307h614v-307h512v307h512v-307h102v-410h-102v-614h-102v-1331h-717v614h102v614h-512v-1228h-921z" />
    <glyph glyph-name="hbar" unicode="&#x127;" horiz-adv-x="2457" 
d="M1536 1331v205h-512v-205h512zM0 0v307h102v409h102v410h103v307h102v103h-102v307h205v205h614v-205h512v205h512v-205h102v-307h-102v-512h-102v-1024h-717v512h102v409h-512v-921h-921z" />
    <glyph glyph-name="Itilde" unicode="&#x128;" horiz-adv-x="1331" 
d="M0 0v409h102v512h102v512h103v410h102v512h103v307h614v-512h-102v-819h-103v-1331h-921zM102 2764v308h102v204h103v103h512v-103h102v-102h103v205h409v-307h-102v-205h-103v-103h-512v103h-102v102h-102v-205h-410z" />
    <glyph glyph-name="itilde" unicode="&#x129;" horiz-adv-x="1331" 
d="M0 0v307h102v409h102v410h103v307h102v410h103v205h614v-308h-102v-716h-103v-1024h-921zM102 2150v307h102v205h103v102h512v-102h102v-102h103v204h409v-307h-102v-205h-103v-102h-512v102h-102v103h-102v-205h-410z" />
    <glyph glyph-name="Imacron" unicode="&#x12a;" horiz-adv-x="1331" 
d="M0 0v409h102v512h102v512h103v410h102v512h103v307h614v-512h-102v-819h-103v-1331h-921zM102 2764v410h1331v-410h-1331z" />
    <glyph glyph-name="imacron" unicode="&#x12b;" horiz-adv-x="1331" 
d="M0 0v307h102v409h102v410h103v307h102v410h103v205h614v-308h-102v-716h-103v-1024h-921zM102 2150v410h1331v-410h-1331z" />
    <glyph glyph-name="Ibreve" unicode="&#x12c;" horiz-adv-x="1331" 
d="M0 0v409h102v512h102v512h103v410h102v512h103v307h614v-512h-102v-819h-103v-1331h-921zM307 2764v103h-103v102h-102v410h410v-205h102v-102h307v102h103v205h409v-410h-102v-102h-103v-103h-921z" />
    <glyph glyph-name="ibreve" unicode="&#x12d;" horiz-adv-x="1331" 
d="M0 0v307h102v409h102v410h103v307h102v410h103v205h614v-308h-102v-716h-103v-1024h-921zM307 2150v102h-103v103h-102v409h410v-204h102v-103h307v103h103v204h409v-409h-102v-103h-103v-102h-921z" />
    <glyph glyph-name="Iogonek" unicode="&#x12e;" horiz-adv-x="1331" 
d="M204 -512v103h-102v307h102v102h-204v409h102v512h102v512h103v410h102v512h103v307h614v-512h-102v-819h-103v-1331h-205v-102h-102v-102h205v-308h-615z" />
    <glyph glyph-name="iogonek" unicode="&#x12f;" horiz-adv-x="1331" 
d="M204 -512v103h-102v307h102v102h-204v307h102v409h102v410h103v307h102v410h103v205h614v-308h-102v-716h-103v-1024h-205v-102h-102v-102h205v-308h-615z" />
    <glyph glyph-name="Idotaccent" unicode="&#x130;" horiz-adv-x="1331" 
d="M0 0v409h102v512h102v512h103v410h102v512h103v307h614v-512h-102v-819h-103v-1331h-921zM512 2764v512h512v-512h-512z" />
    <glyph glyph-name="dotlessi" unicode="&#x131;" horiz-adv-x="1331" 
d="M0 0v307h102v409h102v410h103v307h102v410h103v205h614v-308h-102v-716h-103v-1024h-921z" />
    <glyph glyph-name="IJ" unicode="&#x132;" horiz-adv-x="2560" 
d="M0 0v409h102v512h102v512h103v410h102v512h103v307h614v-512h-102v-819h-103v-1331h-921zM1126 0v512h307v102h103v102h102v512h102v717h103v717h512v-1331h-103v-819h-102v-205h-102v-103h-103v-102h-205v-102h-614z" />
    <glyph glyph-name="ij" unicode="&#x133;" horiz-adv-x="2560" 
d="M0 0v307h102v409h102v410h103v307h102v410h103v205h614v-308h-102v-716h-103v-1024h-921zM1126 0v512h307v102h103v102h102v308h102v512h103v512h512v-1024h-103v-512h-102v-205h-102v-103h-103v-102h-205v-102h-614z" />
    <glyph glyph-name="Jcircumflex" unicode="&#x134;" 
d="M409 0v102h-205v102h-102v205h-102v512h819v-307h102v-102h205v102h102v102h103v512h102v717h103v717h512v-1331h-103v-819h-102v-205h-103v-103h-102v-102h-205v-102h-1024zM614 2764v205h102v205h103v205h921v-205h103v-205h102v-205h-409v103h-103v102h-102v103h-103
v-103h-102v-102h-102v-103h-410z" />
    <glyph glyph-name="jcircumflex" unicode="&#x135;" 
d="M409 0v102h-205v102h-102v205h-102v307h819v-102h102v-102h205v102h102v102h103v308h102v512h103v512h512v-1024h-103v-512h-102v-205h-103v-103h-102v-102h-205v-102h-1024zM614 2150v205h102v205h103v204h921v-204h103v-205h102v-205h-409v102h-103v103h-102v102h-103
v-102h-102v-103h-102v-102h-410z" />
    <glyph glyph-name="uni0136" unicode="&#x136;" 
d="M1228 0v614h-102v512h-102v102h-103v-1228h307zM716 -512v308h205v102h-102v102h-819v409h102v512h102v512h103v410h102v512h103v307h614v-512h-102v-410h307v103h102v307h103v512h512v-614h-103v-308h-102v-102h-103v-102h-102v-205h102v-205h103v-410h102v-716h-614
v-102h102v-307h-102v-103h-615z" />
    <glyph glyph-name="uni0137" unicode="&#x137;" 
d="M1228 0v409h-102v307h-102v103h-103v-819h307zM716 -512v308h205v102h-102v102h-819v307h102v409h102v410h103v307h102v410h103v205h614v-308h-102v-409h307v102h102v205h103v410h512v-512h-103v-205h-102v-103h-103v-102h-102v-102h102v-205h103v-307h102v-512h-614
v-102h102v-307h-102v-103h-615z" />
    <glyph glyph-name="kgreenlandic" unicode="&#x138;" 
d="M0 0v307h102v409h102v410h103v307h102v410h103v205h614v-308h-102v-409h307v102h102v205h103v410h512v-512h-103v-205h-102v-103h-103v-102h-102v-102h102v-205h103v-307h102v-512h-717v409h-102v307h-102v103h-103v-819h-921z" />
    <glyph glyph-name="Lacute" unicode="&#x139;" horiz-adv-x="2150" 
d="M0 0v409h102v512h102v512h103v410h102v512h103v307h614v-512h-102v-819h-103v-819h1024v-512h-1945zM1024 2764v205h102v205h102v205h717v-205h-102v-102h-103v-103h-102v-102h-102v-103h-512z" />
    <glyph glyph-name="lacute" unicode="&#x13a;" horiz-adv-x="2150" 
d="M0 0v307h102v409h102v410h103v307h102v410h103v205h614v-308h-102v-716h-103v-512h1024v-512h-1945zM1024 2150v205h102v205h102v204h717v-204h-102v-103h-103v-102h-102v-103h-102v-102h-512z" />
    <glyph glyph-name="uni013B" unicode="&#x13b;" horiz-adv-x="2150" 
d="M614 -512v308h205v102h-103v102h-716v409h102v512h102v512h103v410h102v512h103v307h614v-512h-102v-819h-103v-819h1024v-512h-717v-102h103v-307h-103v-103h-614z" />
    <glyph glyph-name="uni013C" unicode="&#x13c;" horiz-adv-x="2150" 
d="M614 -512v308h205v102h-103v102h-716v307h102v409h102v410h103v307h102v410h103v205h614v-308h-102v-716h-103v-512h1024v-512h-717v-102h103v-307h-103v-103h-614z" />
    <glyph glyph-name="Lcaron" unicode="&#x13d;" horiz-adv-x="2150" 
d="M0 0v409h102v512h102v512h103v410h102v512h103v307h614v-512h-102v-819h-103v-819h1024v-512h-1945zM819 2764v205h-103v205h-102v205h410v-103h102v-102h102v-102h103v102h102v102h103v103h409v-205h-102v-205h-103v-205h-921z" />
    <glyph glyph-name="lcaron" unicode="&#x13e;" horiz-adv-x="2150" 
d="M0 0v307h102v409h102v410h103v307h102v410h103v205h614v-308h-102v-716h-103v-512h1024v-512h-1945zM819 2150v205h-103v205h-102v204h410v-102h102v-102h102v-103h103v103h102v102h103v102h409v-204h-102v-205h-103v-205h-921z" />
    <glyph glyph-name="Ldot" unicode="&#x13f;" horiz-adv-x="2150" 
d="M1331 1126v512h512v-512h-512zM0 0v409h102v512h102v512h103v410h102v512h103v307h614v-512h-102v-819h-103v-819h1024v-512h-1945z" />
    <glyph glyph-name="ldot" unicode="&#x140;" horiz-adv-x="2150" 
d="M1331 819v512h512v-512h-512zM0 0v307h102v409h102v410h103v307h102v410h103v205h614v-308h-102v-716h-103v-512h1024v-512h-1945z" />
    <glyph glyph-name="Lslash" unicode="&#x141;" horiz-adv-x="2150" 
d="M0 0v409h102v512h-102v512h307v410h102v512h103v307h614v-512h-102v-512h307v102h307v-512h-307v-102h-410v-614h1024v-512h-1945z" />
    <glyph glyph-name="lslash" unicode="&#x142;" horiz-adv-x="2150" 
d="M0 0v307h102v307h-102v512h307v307h102v410h103v205h614v-308h-102v-409h307v102h307v-512h-307v-102h-410v-307h1024v-512h-1945z" />
    <glyph glyph-name="Nacute" unicode="&#x143;" horiz-adv-x="2457" 
d="M0 0v409h102v512h102v512h103v410h102v512h103v307h614v-102h102v-308h103v-307h102v-307h103v-307h102v614h102v717h512v-1331h-102v-1331h-717v204h-102v308h-103v307h-102v307h-102v205h-103v-1331h-921zM1126 2764v205h102v205h103v205h717v-205h-103v-102h-102v-103
h-103v-102h-102v-103h-512z" />
    <glyph glyph-name="nacute" unicode="&#x144;" horiz-adv-x="2457" 
d="M0 0v307h102v409h102v410h103v307h102v410h103v205h614v-205h102v-205h103v-205h102v-205h103v-204h102v512h102v512h512v-1024h-102v-1024h-717v102h-102v205h-103v205h-102v204h-102v205h-103v-921h-921zM1126 2150v205h102v205h103v204h717v-204h-103v-103h-102v-102
h-103v-103h-102v-102h-512z" />
    <glyph glyph-name="uni0145" unicode="&#x145;" horiz-adv-x="2457" 
d="M819 -512v308h205v102h-103v102h512v-102h103v-307h-103v-103h-614zM0 0v409h102v512h102v512h103v410h102v512h103v307h614v-102h102v-308h103v-307h102v-307h103v-307h102v614h102v717h512v-1331h-102v-1331h-717v204h-102v308h-103v307h-102v307h-102v205h-103v-1331
h-921z" />
    <glyph glyph-name="uni0146" unicode="&#x146;" horiz-adv-x="2457" 
d="M819 -512v308h205v102h-103v102h512v-102h103v-307h-103v-103h-614zM0 0v307h102v409h102v410h103v307h102v410h103v205h614v-205h102v-205h103v-205h102v-205h103v-204h102v512h102v512h512v-1024h-102v-1024h-717v102h-102v205h-103v205h-102v204h-102v205h-103v-921
h-921z" />
    <glyph glyph-name="Ncaron" unicode="&#x147;" horiz-adv-x="2457" 
d="M0 0v409h102v512h102v512h103v410h102v512h103v307h614v-102h102v-308h103v-307h102v-307h103v-307h102v614h102v717h512v-1331h-102v-1331h-717v204h-102v308h-103v307h-102v307h-102v205h-103v-1331h-921zM921 2764v205h-102v205h-103v205h410v-103h102v-102h103v-102
h102v102h103v102h102v103h410v-205h-103v-205h-102v-205h-922z" />
    <glyph glyph-name="ncaron" unicode="&#x148;" horiz-adv-x="2457" 
d="M0 0v307h102v409h102v410h103v307h102v410h103v205h614v-205h102v-205h103v-205h102v-205h103v-204h102v512h102v512h512v-1024h-102v-1024h-717v102h-102v205h-103v205h-102v204h-102v205h-103v-921h-921zM921 2150v205h-102v205h-103v204h410v-102h102v-102h103v-103
h102v103h103v102h102v102h410v-204h-103v-205h-102v-205h-922z" />
    <glyph glyph-name="Eng" unicode="&#x14a;" horiz-adv-x="2457" 
d="M1126 -512v410h410v102h-103v204h-102v308h-103v307h-102v307h-102v205h-103v-1331h-921v409h102v512h102v512h103v410h102v512h103v307h614v-102h102v-308h103v-307h102v-307h103v-307h102v614h102v717h512v-1331h-102v-1535h-102v-205h-103v-103h-819z" />
    <glyph glyph-name="eng" unicode="&#x14b;" horiz-adv-x="2457" 
d="M1126 -512v410h410v102h-103v102h-102v205h-103v205h-102v204h-102v205h-103v-921h-921v307h102v409h102v410h103v307h102v410h103v205h614v-205h102v-205h103v-205h102v-205h103v-204h102v512h102v512h512v-1024h-102v-1228h-102v-205h-103v-103h-819z" />
    <glyph glyph-name="Omacron" unicode="&#x14c;" 
d="M1126 512v102h102v102h103v512h102v820h-102v102h-205v-102h-102v-103h-103v-614h-102v-717h102v-102h205zM409 0v102h-205v102h-102v205h-102v512h102v512h102v410h103v307h102v205h103v102h102v103h205v102h819v-102h205v-103h102v-205h103v-921h-103v-819h-102v-205
h-103v-103h-102v-102h-205v-102h-1024zM614 2764v410h1331v-410h-1331z" />
    <glyph glyph-name="omacron" unicode="&#x14d;" 
d="M1126 512v102h102v102h103v308h102v409h-102v103h-205v-103h-102v-102h-103v-307h-102v-410h102v-102h205zM409 0v102h-205v102h-102v205h-102v307h102v410h102v307h103v205h102v102h103v103h102v102h205v103h819v-103h205v-102h102v-205h103v-614h-103v-512h-102v-205
h-103v-103h-102v-102h-205v-102h-1024zM614 2150v410h1331v-410h-1331z" />
    <glyph glyph-name="Obreve" unicode="&#x14e;" 
d="M1126 512v102h102v102h103v512h102v820h-102v102h-205v-102h-102v-103h-103v-614h-102v-717h102v-102h205zM409 0v102h-205v102h-102v205h-102v512h102v512h102v410h103v307h102v205h103v102h102v103h205v102h819v-102h205v-103h102v-205h103v-921h-103v-819h-102v-205
h-103v-103h-102v-102h-205v-102h-1024zM819 2764v103h-103v102h-102v410h410v-205h102v-102h307v102h103v205h409v-410h-102v-102h-103v-103h-921z" />
    <glyph glyph-name="obreve" unicode="&#x14f;" 
d="M1126 512v102h102v102h103v308h102v409h-102v103h-205v-103h-102v-102h-103v-307h-102v-410h102v-102h205zM409 0v102h-205v102h-102v205h-102v307h102v410h102v307h103v205h102v102h103v103h102v102h205v103h819v-103h205v-102h102v-205h103v-614h-103v-512h-102v-205
h-103v-103h-102v-102h-205v-102h-1024zM819 2150v102h-103v103h-102v409h410v-204h102v-103h307v103h103v204h409v-409h-102v-103h-103v-102h-921z" />
    <glyph glyph-name="Ohungarumlaut" unicode="&#x150;" 
d="M1126 512v102h102v102h103v512h102v820h-102v102h-205v-102h-102v-103h-103v-614h-102v-717h102v-102h205zM409 0v102h-205v102h-102v205h-102v512h102v512h102v410h103v307h102v205h103v102h102v103h205v102h819v-102h205v-103h102v-205h103v-921h-103v-819h-102v-205
h-103v-103h-102v-102h-205v-102h-1024zM716 2764v205h103v205h102v205h512v-205h-102v-102h-103v-103h-102v-102h-102v-103h-308zM1331 2764v205h102v205h103v205h512v-205h-103v-102h-102v-103h-103v-102h-102v-103h-307z" />
    <glyph glyph-name="ohungarumlaut" unicode="&#x151;" 
d="M1126 512v102h102v102h103v308h102v409h-102v103h-205v-103h-102v-102h-103v-307h-102v-410h102v-102h205zM409 0v102h-205v102h-102v205h-102v307h102v410h102v307h103v205h102v102h103v103h102v102h205v103h819v-103h205v-102h102v-205h103v-614h-103v-512h-102v-205
h-103v-103h-102v-102h-205v-102h-1024zM716 2150v205h103v205h102v204h512v-204h-102v-103h-103v-102h-102v-103h-102v-102h-308zM1331 2150v205h102v205h103v204h512v-204h-103v-103h-102v-102h-103v-103h-102v-102h-307z" />
    <glyph glyph-name="OE" unicode="&#x152;" horiz-adv-x="3276" 
d="M1126 512v102h102v102h103v512h102v820h-102v102h-205v-102h-102v-103h-103v-614h-102v-717h102v-102h205zM409 0v102h-205v102h-102v205h-102v512h102v512h102v410h103v307h102v205h103v102h102v103h205v102h2253v-512h-1024v-512h512v-410h-615v-716h1024v-512h-2560z
" />
    <glyph glyph-name="oe" unicode="&#x153;" horiz-adv-x="3276" 
d="M1126 512v102h102v102h103v308h102v409h-102v103h-205v-103h-102v-102h-103v-307h-102v-410h102v-102h205zM409 0v102h-205v102h-102v205h-102v307h102v410h102v307h103v205h102v102h103v103h102v102h205v103h2253v-512h-1024v-205h512v-410h-615v-409h1024v-512h-2560z
" />
    <glyph glyph-name="Racute" unicode="&#x154;" 
d="M1331 1740v103h102v205h-102v102h-307v-410h307zM0 0v409h102v512h102v512h103v410h102v512h103v307h1126v-102h205v-103h102v-205h103v-409h-103v-205h-102v-102h-103v-103h-102v-102h102v-205h103v-410h102v-716h-717v614h-102v512h-102v102h-103v-1228h-921z
M1024 2764v205h102v205h102v205h717v-205h-102v-102h-103v-103h-102v-102h-102v-103h-512z" />
    <glyph glyph-name="racute" unicode="&#x155;" 
d="M1331 1228v103h102v102h-102v103h-307v-308h307zM0 0v307h102v409h102v410h103v307h102v410h103v205h1126v-103h205v-102h102v-205h103v-410h-103v-102h-102v-102h-103v-205h103v-307h102v-512h-717v409h-102v307h-102v103h-103v-819h-921zM1024 2150v205h102v205h102
v204h717v-204h-102v-103h-103v-102h-102v-103h-102v-102h-512z" />
    <glyph glyph-name="uni0156" unicode="&#x156;" 
d="M1228 0v614h-102v512h-102v102h-103v-1228h307zM1331 1740v103h102v205h-102v102h-307v-410h307zM716 -512v308h205v102h-102v102h-819v409h102v512h102v512h103v410h102v512h103v307h1126v-102h205v-103h102v-205h103v-409h-103v-205h-102v-102h-103v-103h-102v-102h102
v-205h103v-410h102v-716h-614v-102h102v-307h-102v-103h-615z" />
    <glyph glyph-name="uni0157" unicode="&#x157;" 
d="M1228 0v409h-102v307h-102v103h-103v-819h307zM1331 1228v103h102v102h-102v103h-307v-308h307zM716 -512v308h205v102h-102v102h-819v307h102v409h102v410h103v307h102v410h103v205h1126v-103h205v-102h102v-205h103v-410h-103v-102h-102v-102h-103v-205h103v-307h102
v-512h-614v-102h102v-307h-102v-103h-615z" />
    <glyph glyph-name="Rcaron" unicode="&#x158;" 
d="M1331 1740v103h102v205h-102v102h-307v-410h307zM0 0v409h102v512h102v512h103v410h102v512h103v307h1126v-102h205v-103h102v-205h103v-409h-103v-205h-102v-102h-103v-103h-102v-102h102v-205h103v-410h102v-716h-717v614h-102v512h-102v102h-103v-1228h-921zM819 2764
v205h-103v205h-102v205h410v-103h102v-102h102v-102h103v102h102v102h103v103h409v-205h-102v-205h-103v-205h-921z" />
    <glyph glyph-name="rcaron" unicode="&#x159;" 
d="M1331 1228v103h102v102h-102v103h-307v-308h307zM0 0v307h102v409h102v410h103v307h102v410h103v205h1126v-103h205v-102h102v-205h103v-410h-103v-102h-102v-102h-103v-205h103v-307h102v-512h-717v409h-102v307h-102v103h-103v-819h-921zM819 2150v205h-103v205h-102
v204h410v-102h102v-102h102v-103h103v103h102v102h103v102h409v-204h-102v-205h-103v-205h-921z" />
    <glyph glyph-name="Sacute" unicode="&#x15a;" 
d="M409 0v102h-205v102h-102v205h-102v512h716v-307h103v-102h205v102h102v102h102v410h-102v102h-205v103h-102v102h-103v103h-102v204h-102v512h102v205h102v103h205v102h717v-102h205v-103h102v-205h103v-409h-512v205h-103v102h-205v-102h-102v-308h102v-102h103v-102
h205v-103h204v-102h103v-205h102v-614h-102v-205h-103v-103h-102v-102h-205v-102h-1024zM1024 2764v205h102v205h102v205h717v-205h-102v-102h-103v-103h-102v-102h-102v-103h-512z" />
    <glyph glyph-name="sacute" unicode="&#x15b;" 
d="M409 0v102h-205v102h-102v205h-102v307h716v-102h103v-102h307v102h102v205h-102v102h-205v103h-205v102h-102v205h-102v307h102v205h102v102h205v103h717v-103h205v-102h102v-205h103v-307h-512v102h-103v103h-205v-103h-102v-102h102v-103h308v-102h204v-102h103v-103
h102v-409h-102v-205h-103v-103h-102v-102h-205v-102h-1024zM1024 2150v205h102v205h102v204h717v-204h-102v-103h-103v-102h-102v-103h-102v-102h-512z" />
    <glyph glyph-name="Scircumflex" unicode="&#x15c;" 
d="M409 0v102h-205v102h-102v205h-102v512h716v-307h103v-102h205v102h102v102h102v410h-102v102h-205v103h-102v102h-103v103h-102v204h-102v512h102v205h102v103h205v102h717v-102h205v-103h102v-205h103v-409h-512v205h-103v102h-205v-102h-102v-308h102v-102h103v-102
h205v-103h204v-102h103v-205h102v-614h-102v-205h-103v-103h-102v-102h-205v-102h-1024zM614 2764v205h102v205h103v205h921v-205h103v-205h102v-205h-409v103h-103v102h-102v103h-103v-103h-102v-102h-102v-103h-410z" />
    <glyph glyph-name="scircumflex" unicode="&#x15d;" 
d="M409 0v102h-205v102h-102v205h-102v307h716v-102h103v-102h307v102h102v205h-102v102h-205v103h-205v102h-102v205h-102v307h102v205h102v102h205v103h717v-103h205v-102h102v-205h103v-307h-512v102h-103v103h-205v-103h-102v-102h102v-103h308v-102h204v-102h103v-103
h102v-409h-102v-205h-103v-103h-102v-102h-205v-102h-1024zM614 2150v205h102v205h103v204h921v-204h103v-205h102v-205h-409v102h-103v103h-102v102h-103v-102h-102v-103h-102v-102h-410z" />
    <glyph glyph-name="Scedilla" unicode="&#x15e;" 
d="M614 -512v308h205v102h-103v102h-307v102h-205v102h-102v205h-102v512h716v-307h103v-102h205v102h102v102h102v410h-102v102h-205v103h-102v102h-103v103h-102v204h-102v512h102v205h102v103h205v102h717v-102h205v-103h102v-205h103v-409h-512v205h-103v102h-205v-102
h-102v-308h102v-102h103v-102h205v-103h204v-102h103v-205h102v-614h-102v-205h-103v-103h-102v-102h-205v-102h-205v-102h103v-307h-103v-103h-614z" />
    <glyph glyph-name="scedilla" unicode="&#x15f;" 
d="M614 -512v308h205v102h-103v102h-307v102h-205v102h-102v205h-102v307h716v-102h103v-102h307v102h102v205h-102v102h-205v103h-205v102h-102v205h-102v307h102v205h102v102h205v103h717v-103h205v-102h102v-205h103v-307h-512v102h-103v103h-205v-103h-102v-102h102
v-103h308v-102h204v-102h103v-103h102v-409h-102v-205h-103v-103h-102v-102h-205v-102h-205v-102h103v-307h-103v-103h-614z" />
    <glyph glyph-name="Scaron" unicode="&#x160;" 
d="M409 0v102h-205v102h-102v205h-102v512h716v-307h103v-102h205v102h102v102h102v410h-102v102h-205v103h-102v102h-103v103h-102v204h-102v512h102v205h102v103h205v102h717v-102h205v-103h102v-205h103v-409h-512v205h-103v102h-205v-102h-102v-308h102v-102h103v-102
h205v-103h204v-102h103v-205h102v-614h-102v-205h-103v-103h-102v-102h-205v-102h-1024zM819 2764v205h-103v205h-102v205h410v-103h102v-102h102v-102h103v102h102v102h103v103h409v-205h-102v-205h-103v-205h-921z" />
    <glyph glyph-name="scaron" unicode="&#x161;" 
d="M409 0v102h-205v102h-102v205h-102v307h716v-102h103v-102h307v102h102v205h-102v102h-205v103h-205v102h-102v205h-102v307h102v205h102v102h205v103h717v-103h205v-102h102v-205h103v-307h-512v102h-103v103h-205v-103h-102v-102h102v-103h308v-102h204v-102h103v-103
h102v-409h-102v-205h-103v-103h-102v-102h-205v-102h-1024zM819 2150v205h-103v205h-102v204h410v-102h102v-102h102v-103h103v103h102v102h103v102h409v-204h-102v-205h-103v-205h-921z" />
    <glyph glyph-name="uni0162" unicode="&#x162;" horiz-adv-x="2150" 
d="M512 -512v308h204v102h-102v102h-205v409h103v512h102v512h102v410h103v307h-512v512h1638v-512h-512v-819h-102v-1331h-205v-102h102v-307h-102v-103h-614z" />
    <glyph glyph-name="uni0163" unicode="&#x163;" horiz-adv-x="2150" 
d="M512 -512v308h204v102h-102v102h-205v307h103v409h102v410h102v307h103v103h-512v512h1638v-512h-512v-512h-102v-1024h-205v-102h102v-307h-102v-103h-614z" />
    <glyph glyph-name="Tcaron" unicode="&#x164;" horiz-adv-x="2150" 
d="M409 0v409h103v512h102v512h102v410h103v307h-512v512h1638v-512h-512v-819h-102v-1331h-922zM716 2764v205h-102v205h-102v205h409v-103h103v-102h102v-102h102v102h103v102h102v103h410v-205h-103v-205h-102v-205h-922z" />
    <glyph glyph-name="tcaron" unicode="&#x165;" horiz-adv-x="2150" 
d="M409 0v307h103v409h102v410h102v307h103v103h-512v512h1638v-512h-512v-512h-102v-1024h-922zM716 2150v205h-102v205h-102v204h409v-102h103v-102h102v-103h102v103h103v102h102v102h410v-204h-103v-205h-102v-205h-922z" />
    <glyph glyph-name="Tbar" unicode="&#x166;" horiz-adv-x="2150" 
d="M409 0v409h103v512h102v205h-205v410h307v307h103v307h-512v512h1638v-512h-512v-614h307v-410h-409v-1126h-922z" />
    <glyph glyph-name="tbar" unicode="&#x167;" horiz-adv-x="2150" 
d="M409 0v307h103v409h102v103h-205v409h307v205h103v103h-512v512h1638v-512h-512v-308h307v-409h-409v-819h-922z" />
    <glyph glyph-name="Utilde" unicode="&#x168;" 
d="M409 0v102h-205v102h-102v205h-102v512h102v512h102v410h103v512h102v307h615v-512h-103v-819h-102v-717h102v-102h205v102h102v102h103v512h102v717h103v717h512v-1331h-103v-819h-102v-205h-103v-103h-102v-102h-205v-102h-1024zM614 2764v308h102v204h103v103h512
v-103h102v-102h103v205h409v-307h-102v-205h-103v-103h-512v103h-102v102h-102v-205h-410z" />
    <glyph glyph-name="utilde" unicode="&#x169;" 
d="M409 0v102h-205v102h-102v205h-102v307h102v410h102v307h103v410h102v205h615v-308h-103v-716h-102v-410h102v-102h205v102h102v102h103v308h102v512h103v512h512v-1024h-103v-512h-102v-205h-103v-103h-102v-102h-205v-102h-1024zM614 2150v307h102v205h103v102h512
v-102h102v-102h103v204h409v-307h-102v-205h-103v-102h-512v102h-102v103h-102v-205h-410z" />
    <glyph glyph-name="Umacron" unicode="&#x16a;" 
d="M409 0v102h-205v102h-102v205h-102v512h102v512h102v410h103v512h102v307h615v-512h-103v-819h-102v-717h102v-102h205v102h102v102h103v512h102v717h103v717h512v-1331h-103v-819h-102v-205h-103v-103h-102v-102h-205v-102h-1024zM614 2764v410h1331v-410h-1331z" />
    <glyph glyph-name="umacron" unicode="&#x16b;" 
d="M409 0v102h-205v102h-102v205h-102v307h102v410h102v307h103v410h102v205h615v-308h-103v-716h-102v-410h102v-102h205v102h102v102h103v308h102v512h103v512h512v-1024h-103v-512h-102v-205h-103v-103h-102v-102h-205v-102h-1024zM614 2150v410h1331v-410h-1331z" />
    <glyph glyph-name="Ubreve" unicode="&#x16c;" 
d="M409 0v102h-205v102h-102v205h-102v512h102v512h102v410h103v512h102v307h615v-512h-103v-819h-102v-717h102v-102h205v102h102v102h103v512h102v717h103v717h512v-1331h-103v-819h-102v-205h-103v-103h-102v-102h-205v-102h-1024zM819 2764v103h-103v102h-102v410h410
v-205h102v-102h307v102h103v205h409v-410h-102v-102h-103v-103h-921z" />
    <glyph glyph-name="ubreve" unicode="&#x16d;" 
d="M409 0v102h-205v102h-102v205h-102v307h102v410h102v307h103v410h102v205h615v-308h-103v-716h-102v-410h102v-102h205v102h102v102h103v308h102v512h103v512h512v-1024h-103v-512h-102v-205h-103v-103h-102v-102h-205v-102h-1024zM819 2150v102h-103v103h-102v409h410
v-204h102v-103h307v103h103v204h409v-409h-102v-103h-103v-102h-921z" />
    <glyph glyph-name="Uring" unicode="&#x16e;" 
d="M409 0v102h-205v102h-102v205h-102v512h102v512h102v410h103v512h102v307h615v-512h-103v-819h-102v-717h102v-102h205v102h102v102h103v512h102v717h103v717h512v-1331h-103v-819h-102v-205h-103v-103h-102v-102h-205v-102h-1024zM1331 2969v205h-103v-205h103z
M1024 2764v103h-103v409h103v103h512v-103h102v-409h-102v-103h-512z" />
    <glyph glyph-name="uring" unicode="&#x16f;" 
d="M409 0v102h-205v102h-102v205h-102v307h102v410h102v307h103v410h102v205h615v-308h-103v-716h-102v-410h102v-102h205v102h102v102h103v308h102v512h103v512h512v-1024h-103v-512h-102v-205h-103v-103h-102v-102h-205v-102h-1024zM1331 2355v205h-103v-205h103z
M1024 2150v102h-103v410h103v102h512v-102h102v-410h-102v-102h-512z" />
    <glyph glyph-name="Uhungarumlaut" unicode="&#x170;" 
d="M409 0v102h-205v102h-102v205h-102v512h102v512h102v410h103v512h102v307h615v-512h-103v-819h-102v-717h102v-102h205v102h102v102h103v512h102v717h103v717h512v-1331h-103v-819h-102v-205h-103v-103h-102v-102h-205v-102h-1024zM716 2764v205h103v205h102v205h512
v-205h-102v-102h-103v-103h-102v-102h-102v-103h-308zM1331 2764v205h102v205h103v205h512v-205h-103v-102h-102v-103h-103v-102h-102v-103h-307z" />
    <glyph glyph-name="uhungarumlaut" unicode="&#x171;" 
d="M409 0v102h-205v102h-102v205h-102v307h102v410h102v307h103v410h102v205h615v-308h-103v-716h-102v-410h102v-102h205v102h102v102h103v308h102v512h103v512h512v-1024h-103v-512h-102v-205h-103v-103h-102v-102h-205v-102h-1024zM716 2150v205h103v205h102v204h512
v-204h-102v-103h-103v-102h-102v-103h-102v-102h-308zM1331 2150v205h102v205h103v204h512v-204h-103v-103h-102v-102h-103v-103h-102v-102h-307z" />
    <glyph glyph-name="Uogonek" unicode="&#x172;" 
d="M819 -512v103h-103v307h103v102h-410v102h-205v102h-102v205h-102v512h102v512h102v410h103v512h102v307h615v-512h-103v-819h-102v-717h102v-102h205v102h102v102h103v512h102v717h103v717h512v-1331h-103v-819h-102v-205h-103v-103h-102v-102h-205v-102h-102v-102h-103
v-102h205v-308h-614z" />
    <glyph glyph-name="uogonek" unicode="&#x173;" 
d="M819 -512v103h-103v307h103v102h-410v102h-205v102h-102v205h-102v307h102v410h102v307h103v410h102v205h615v-308h-103v-716h-102v-410h102v-102h205v102h102v102h103v308h102v512h103v512h512v-1024h-103v-512h-102v-205h-103v-103h-102v-102h-205v-102h-102v-102h-103
v-102h205v-308h-614z" />
    <glyph glyph-name="Wcircumflex" unicode="&#x174;" horiz-adv-x="3072" 
d="M512 0v307h-103v921h-102v820h-103v614h717v-1536h103v307h102v307h102v410h103v307h512v-1331h102v307h103v307h102v410h102v307h103v205h512v-307h-103v-307h-102v-308h-102v-307h-103v-307h-102v-307h-103v-307h-102v-308h-102v-204h-615v307h-102v205h-103v-308h-102
v-204h-614zM921 2764v205h103v205h102v205h922v-205h102v-205h102v-205h-409v103h-103v102h-102v103h-102v-103h-103v-102h-102v-103h-410z" />
    <glyph glyph-name="wcircumflex" unicode="&#x175;" horiz-adv-x="3072" 
d="M512 0v409h-103v615h-102v614h-103v410h717v-717h103v-307h102v307h102v205h103v307h512v-512h102v-307h103v307h102v205h102v307h103v205h512v-205h-103v-205h-102v-205h-102v-307h-103v-205h-102v-307h-103v-205h-102v-205h-102v-204h-615v409h-205v-205h-102v-204
h-614zM921 2150v205h103v205h102v204h922v-204h102v-205h102v-205h-409v102h-103v103h-102v102h-102v-102h-103v-103h-102v-102h-410z" />
    <glyph glyph-name="Ycircumflex" unicode="&#x176;" horiz-adv-x="2150" 
d="M409 0v409h103v512h102v512h-102v410h-103v307h-102v307h-103v205h717v-512h103v-205h102v103h102v204h103v205h102v205h512v-205h-102v-205h-103v-204h-102v-205h-102v-205h-103v-205h-102v-1433h-922zM512 2764v205h102v205h102v205h922v-205h102v-205h103v-205h-410
v103h-102v102h-103v103h-102v-103h-102v-102h-103v-103h-409z" />
    <glyph glyph-name="ycircumflex" unicode="&#x177;" horiz-adv-x="2150" 
d="M409 0v307h103v409h102v512h-102v205h-103v205h-102v205h-103v205h717v-205h103v-205h204v205h103v102h102v103h512v-103h-102v-205h-103v-102h-102v-205h-102v-102h-103v-205h-102v-1126h-922zM512 2150v205h102v205h102v204h922v-204h102v-205h103v-205h-410v102h-102
v103h-103v102h-102v-102h-102v-103h-103v-102h-409z" />
    <glyph glyph-name="Ydieresis" unicode="&#x178;" horiz-adv-x="2150" 
d="M409 0v409h103v512h102v512h-102v410h-103v307h-102v307h-103v205h717v-512h103v-205h102v103h102v204h103v205h102v205h512v-205h-102v-205h-103v-204h-102v-205h-102v-205h-103v-205h-102v-1433h-922zM512 2764v512h512v-512h-512zM1331 2764v512h512v-512h-512z" />
    <glyph glyph-name="Zacute" unicode="&#x179;" 
d="M0 0v614h102v102h102v103h103v102h102v103h103v102h102v102h102v205h103v103h102v102h103v102h102v103h102v102h103v103h102v102h-1024v512h1639v-614h-103v-205h-102v-103h-103v-102h-102v-102h-102v-205h-103v-103h-102v-102h-103v-205h-102v-102h-102v-103h-103v-102
h-102v-102h1126v-512h-1945zM1024 2764v205h102v205h102v205h717v-205h-102v-102h-103v-103h-102v-102h-102v-103h-512z" />
    <glyph glyph-name="zacute" unicode="&#x17a;" 
d="M0 0v614h102v102h205v103h102v102h103v103h204v102h103v102h205v103h102v102h102v103h-819v512h1639v-615h-103v-102h-102v-103h-205v-102h-102v-102h-103v-103h-102v-102h-103v-103h-204v-102h-103v-102h1024v-512h-1945zM1024 2150v205h102v205h102v204h717v-204h-102
v-103h-103v-102h-102v-103h-102v-102h-512z" />
    <glyph glyph-name="Zdotaccent" unicode="&#x17b;" 
d="M0 0v614h102v102h102v103h103v102h102v103h103v102h102v102h102v205h103v103h102v102h103v102h102v103h102v102h103v103h102v102h-1024v512h1639v-614h-103v-205h-102v-103h-103v-102h-102v-102h-102v-205h-103v-103h-102v-102h-103v-205h-102v-102h-102v-103h-103v-102
h-102v-102h1126v-512h-1945zM1024 2764v512h512v-512h-512z" />
    <glyph glyph-name="zdotaccent" unicode="&#x17c;" 
d="M0 0v614h102v102h205v103h102v102h103v103h204v102h103v102h205v103h102v102h102v103h-819v512h1639v-615h-103v-102h-102v-103h-205v-102h-102v-102h-103v-103h-102v-102h-103v-103h-204v-102h-103v-102h1024v-512h-1945zM1024 2150v512h512v-512h-512z" />
    <glyph glyph-name="Zcaron" unicode="&#x17d;" 
d="M0 0v614h102v102h102v103h103v102h102v103h103v102h102v102h102v205h103v103h102v102h103v102h102v103h102v102h103v103h102v102h-1024v512h1639v-614h-103v-205h-102v-103h-103v-102h-102v-102h-102v-205h-103v-103h-102v-102h-103v-205h-102v-102h-102v-103h-103v-102
h-102v-102h1126v-512h-1945zM819 2764v205h-103v205h-102v205h410v-103h102v-102h102v-102h103v102h102v102h103v103h409v-205h-102v-205h-103v-205h-921z" />
    <glyph glyph-name="zcaron" unicode="&#x17e;" 
d="M0 0v614h102v102h205v103h102v102h103v103h204v102h103v102h205v103h102v102h102v103h-819v512h1639v-615h-103v-102h-102v-103h-205v-102h-102v-102h-103v-103h-102v-102h-103v-103h-204v-102h-103v-102h1024v-512h-1945zM819 2150v205h-103v205h-102v204h410v-102h102
v-102h102v-103h103v103h102v102h103v102h409v-204h-102v-205h-103v-205h-921z" />
    <glyph glyph-name="uni0401" unicode="&#x401;" 
d="M0 0v409h102v512h102v512h103v410h102v512h103v307h1536v-512h-1024v-512h512v-410h-615v-716h1024v-512h-1945zM614 2764v512h512v-512h-512zM1433 2764v512h512v-512h-512z" />
    <glyph glyph-name="uni0404" unicode="&#x404;" 
d="M409 0v102h-205v102h-102v205h-102v512h102v512h102v410h103v307h102v205h103v102h102v103h205v102h819v-102h205v-103h102v-205h103v-409h-615v205h-102v102h-205v-102h-102v-103h-103v-307h615v-410h-717v-614h102v-102h205v102h102v102h103v205h614v-409h-102v-205
h-103v-103h-102v-102h-205v-102h-1024z" />
    <glyph glyph-name="uni0406" unicode="&#x406;" horiz-adv-x="1331" 
d="M0 0v409h102v512h102v512h103v410h102v512h103v307h614v-512h-102v-819h-103v-1331h-921z" />
    <glyph glyph-name="uni0407" unicode="&#x407;" horiz-adv-x="1331" 
d="M0 0v409h102v512h102v512h103v410h102v512h103v307h614v-512h-102v-819h-103v-1331h-921zM102 2764v512h512v-512h-512zM921 2764v512h512v-512h-512z" />
    <glyph glyph-name="uni040E" unicode="&#x40e;" 
d="M0 0v204h102v103h102v205h103v204h102v103h103v205h102v204h102v512h-102v308h-102v307h-103v307h717v-307h102v-205h103v205h102v205h103v102h512v-307h-103v-205h-102v-205h-103v-205h-102v-204h-102v-205h-103v-205h-102v-205h-103v-205h-102v-204h-102v-205h-103
v-205h-102v-102h-819zM819 2764v103h-103v102h-102v410h410v-205h102v-102h307v102h103v205h409v-410h-102v-102h-103v-103h-921z" />
    <glyph glyph-name="uni0410" unicode="&#x410;" 
d="M1228 1126v410h-102v-410h102zM0 0v204h102v308h102v204h103v205h102v205h103v205h102v205h102v307h103v205h102v204h103v205h102v205h512v-307h102v-615h103v-716h102v-717h103v-307h-717v716h-410v-409h-102v-307h-819z" />
    <glyph glyph-name="uni0411" unicode="&#x411;" 
d="M1126 512v102h102v102h103v410h-103v102h-307v-716h205zM0 0v409h102v512h102v512h103v410h102v512h103v307h1536v-512h-1024v-410h409v-102h205v-102h102v-205h103v-205h102v-614h-102v-205h-103v-103h-102v-102h-205v-102h-1433z" />
    <glyph glyph-name="uni0412" unicode="&#x412;" 
d="M1126 512v102h102v102h103v410h-103v102h-307v-716h205zM1331 1740v103h102v205h-102v102h-307v-410h307zM0 0v409h102v512h102v512h103v410h102v512h103v307h1126v-102h205v-103h102v-205h103v-409h-103v-205h-102v-102h-103v-205h103v-205h102v-614h-102v-205h-103
v-103h-102v-102h-205v-102h-1433z" />
    <glyph glyph-name="uni0413" unicode="&#x413;" horiz-adv-x="2355" 
d="M0 0v409h102v512h102v512h103v410h102v512h103v307h1638v-512h-1126v-819h-103v-1331h-921z" />
    <glyph glyph-name="uni0414" unicode="&#x414;" 
d="M1331 512v409h-103v615h-102v-410h-102v-410h-103v-204h410zM0 -204v716h204v204h103v205h102v205h103v205h102v205h102v307h103v205h102v204h103v205h102v205h512v-307h102v-615h103v-716h102v-512h103v-716h-717v204h-512v-204h-819z" />
    <glyph glyph-name="uni0415" unicode="&#x415;" 
d="M0 0v409h102v512h102v512h103v410h102v512h103v307h1536v-512h-1024v-512h512v-410h-615v-716h1024v-512h-1945z" />
    <glyph glyph-name="uni0416" unicode="&#x416;" horiz-adv-x="3276" 
d="M0 0v512h102v307h102v205h103v204h102v103h103v102h102v103h102v102h-102v102h-102v308h-103v614h615v-614h102v-205h102v-103h103v410h102v512h717v-512h-102v-410h307v103h102v307h103v512h512v-614h-103v-308h-102v-102h-103v-102h-102v-205h102v-205h103v-410h102
v-716h-717v614h-102v512h-102v102h-103v-1228h-819v512h102v716h-102v-102h-102v-512h-103v-614h-921z" />
    <glyph glyph-name="uni0417" unicode="&#x417;" 
d="M409 0v102h-205v102h-102v205h-102v512h716v-307h103v-102h205v102h102v102h102v410h-102v102h-307v512h512v103h102v205h-102v102h-205v-102h-102v-103h-512v307h102v205h102v103h205v102h717v-102h205v-103h102v-205h103v-409h-103v-205h-102v-102h-103v-205h103v-205
h102v-614h-102v-205h-103v-103h-102v-102h-205v-102h-1024z" />
    <glyph glyph-name="uni0418" unicode="&#x418;" horiz-adv-x="2457" 
d="M0 0v409h102v512h102v512h103v410h102v512h103v307h614v-512h-102v-717h102v205h102v102h103v205h102v205h103v205h102v205h102v102h512v-1331h-102v-1331h-717v614h103v512h-103v-205h-102v-205h-103v-204h-102v-205h-102v-205h-103v-102h-921z" />
    <glyph glyph-name="uni0419" unicode="&#x419;" horiz-adv-x="2457" 
d="M0 0v409h102v512h102v512h103v410h102v512h103v307h614v-512h-102v-717h102v205h102v102h103v205h102v205h103v205h102v205h102v102h512v-1331h-102v-1331h-717v614h103v512h-103v-205h-102v-205h-103v-204h-102v-205h-102v-205h-103v-102h-921zM921 2764v103h-102v102
h-103v410h410v-205h102v-102h308v102h102v205h410v-410h-103v-102h-102v-103h-922z" />
    <glyph glyph-name="uni041A" unicode="&#x41a;" 
d="M0 0v409h102v512h102v512h103v410h102v512h103v307h614v-512h-102v-410h307v103h102v307h103v512h512v-614h-103v-308h-102v-102h-103v-102h-102v-205h102v-205h103v-410h102v-716h-717v614h-102v512h-102v102h-103v-1228h-921z" />
    <glyph glyph-name="uni041B" unicode="&#x41b;" 
d="M0 0v204h102v308h102v204h103v205h102v205h103v205h102v205h102v307h103v205h102v204h103v205h102v205h512v-307h102v-615h103v-716h102v-717h103v-307h-717v921h-103v615h-102v-410h-102v-410h-103v-409h-102v-307h-819z" />
    <glyph glyph-name="uni041C" unicode="&#x41c;" horiz-adv-x="3276" 
d="M0 0v204h102v308h102v204h103v205h102v205h103v205h102v205h102v307h103v205h102v204h103v205h102v205h512v-307h102v-512h103v205h102v204h103v205h102v205h512v-307h102v-615h103v-716h102v-717h103v-307h-717v921h-103v615h-102v-410h-102v-410h-103v-409h-614v614
h-103v615h-102v-410h-102v-410h-103v-409h-102v-307h-819z" />
    <glyph glyph-name="uni041D" unicode="&#x41d;" horiz-adv-x="2355" 
d="M0 0v409h102v512h102v512h103v410h102v512h103v307h614v-512h-102v-512h512v307h102v717h512v-1331h-102v-1331h-717v614h102v614h-512v-1228h-921z" />
    <glyph glyph-name="uni041E" unicode="&#x41e;" 
d="M1126 512v102h102v102h103v512h102v820h-102v102h-205v-102h-102v-103h-103v-614h-102v-717h102v-102h205zM409 0v102h-205v102h-102v205h-102v512h102v512h102v410h103v307h102v205h103v102h102v103h205v102h819v-102h205v-103h102v-205h103v-921h-103v-819h-102v-205
h-103v-103h-102v-102h-205v-102h-1024z" />
    <glyph glyph-name="uni041F" unicode="&#x41f;" horiz-adv-x="2355" 
d="M0 0v409h102v512h102v512h103v410h102v512h103v307h1638v-1331h-102v-1331h-717v614h102v614h103v717h102v205h-614v-819h-103v-1331h-921z" />
    <glyph glyph-name="uni0420" unicode="&#x420;" 
d="M1331 1740v103h102v205h-102v102h-307v-410h307zM0 0v409h102v512h102v512h103v410h102v512h103v307h1126v-102h205v-103h102v-205h103v-409h-103v-205h-102v-102h-103v-103h-102v-102h-205v-103h-512v-1228h-921z" />
    <glyph glyph-name="uni0421" unicode="&#x421;" 
d="M409 0v102h-205v102h-102v205h-102v512h102v512h102v410h103v307h102v205h103v102h102v103h205v102h819v-102h205v-103h102v-205h103v-409h-615v205h-102v102h-205v-102h-102v-103h-103v-614h-102v-717h102v-102h205v102h102v102h103v205h614v-409h-102v-205h-103v-103
h-102v-102h-205v-102h-1024z" />
    <glyph glyph-name="uni0422" unicode="&#x422;" horiz-adv-x="2150" 
d="M409 0v409h103v512h102v512h102v410h103v307h-512v512h1638v-512h-512v-819h-102v-1331h-922z" />
    <glyph glyph-name="uni0423" unicode="&#x423;" 
d="M0 0v204h102v103h102v205h103v204h102v103h103v205h102v204h102v512h-102v308h-102v307h-103v307h717v-307h102v-205h103v205h102v205h103v102h512v-307h-103v-205h-102v-205h-103v-205h-102v-204h-102v-205h-103v-205h-102v-205h-103v-205h-102v-204h-102v-205h-103
v-205h-102v-102h-819z" />
    <glyph glyph-name="uni0424" unicode="&#x424;" horiz-adv-x="2457" 
d="M921 921v410h103v307h-103v-307h-102v-410h102zM1536 1024v307h102v409h-102v-409h-103v-307h103zM716 0v307h-307v102h-205v103h-102v204h-102v308h102v409h102v307h103v205h102v103h103v102h102v102h205v103h409v307h410v-307h205v-103h205v-102h102v-205h102v-614
h-102v-512h-102v-205h-103v-102h-102v-103h-205v-102h-307v-307h-615z" />
    <glyph glyph-name="uni0425" unicode="&#x425;" 
d="M0 0v204h102v103h102v205h103v204h102v103h103v205h102v204h102v512h-102v308h-102v307h-103v307h717v-307h102v-205h103v205h102v205h103v102h512v-307h-103v-205h-102v-205h-103v-205h-102v-204h-102v-512h102v-410h102v-307h103v-307h-717v204h-102v103h-103v-205
h-102v-102h-819z" />
    <glyph glyph-name="uni0426" unicode="&#x426;" horiz-adv-x="2355" 
d="M1433 -204v204h-1433v409h102v512h102v512h103v410h102v512h103v307h614v-512h-102v-819h-103v-819h410v102h102v614h103v717h102v717h512v-1331h-102v-819h102v-716h-717z" />
    <glyph glyph-name="uni0427" unicode="&#x427;" horiz-adv-x="2355" 
d="M1331 0v614h102v614h-717v103h-204v102h-103v103h-102v409h102v410h103v307h614v-512h-102v-410h102v-102h410v307h102v717h512v-1331h-102v-1331h-717z" />
    <glyph glyph-name="uni0428" unicode="&#x428;" horiz-adv-x="3276" 
d="M0 0v409h102v512h102v512h103v410h102v512h103v307h614v-512h-102v-819h-103v-819h410v819h102v819h103v512h614v-717h-102v-1229h-103v-204h307v102h103v614h102v717h103v717h512v-1331h-103v-1331h-2969z" />
    <glyph glyph-name="uni0429" unicode="&#x429;" horiz-adv-x="3276" 
d="M2355 -204v204h-2355v409h102v512h102v512h103v410h102v512h103v307h614v-512h-102v-819h-103v-819h410v819h102v819h103v512h614v-717h-102v-1229h-103v-204h307v102h103v614h102v717h103v717h512v-1331h-103v-819h103v-716h-717z" />
    <glyph glyph-name="uni042A" unicode="&#x42a;" horiz-adv-x="2150" 
d="M1126 512v102h102v102h103v410h-103v102h-307v-716h205zM0 0v409h102v512h102v512h103v410h102v307h-307v512h1024v-512h-102v-410h409v-102h205v-102h102v-205h103v-205h102v-614h-102v-205h-103v-103h-102v-102h-205v-102h-1433z" />
    <glyph glyph-name="uni042B" unicode="&#x42b;" horiz-adv-x="2969" 
d="M1024 512v102h102v102h102v410h-102v102h-205v-716h103zM0 0v409h102v512h102v512h103v410h102v512h103v307h614v-512h-102v-410h307v-102h205v-102h102v-205h102v-205h103v-614h-103v-205h-102v-103h-102v-102h-205v-102h-1331zM1945 0v614h103v614h102v717h102v717h512
v-1331h-102v-1331h-717z" />
    <glyph glyph-name="uni042C" unicode="&#x42c;" horiz-adv-x="2150" 
d="M1126 512v102h102v102h103v410h-103v102h-307v-716h205zM0 0v409h102v512h102v512h103v410h102v512h103v307h614v-512h-102v-410h409v-102h205v-102h102v-205h103v-205h102v-614h-102v-205h-103v-103h-102v-102h-205v-102h-1433z" />
    <glyph glyph-name="uni042D" unicode="&#x42d;" 
d="M409 0v102h-205v102h-102v205h-102v512h819v-307h102v-102h205v102h102v102h103v512h-615v410h717v410h-102v102h-205v-102h-102v-103h-103v-102h-614v307h102v205h103v102h102v103h205v102h819v-102h205v-103h102v-205h103v-921h-103v-819h-102v-205h-103v-103h-102
v-102h-205v-102h-1024z" />
    <glyph glyph-name="uni042E" unicode="&#x42e;" horiz-adv-x="3276" 
d="M2150 512v102h102v102h103v512h102v820h-102v102h-103v-102h-102v-103h-102v-614h-103v-717h103v-102h102zM0 0v409h102v512h102v512h103v410h102v512h103v307h614v-512h-102v-512h307v205h102v307h103v205h102v102h102v103h205v102h717v-102h205v-103h102v-205h103v-921
h-103v-819h-102v-205h-103v-103h-102v-102h-205v-102h-921v102h-205v102h-103v205h-102v512h102v307h-307v-1228h-921z" />
    <glyph glyph-name="uni042F" unicode="&#x42f;" horiz-adv-x="2355" 
d="M1536 1740v205h102v205h-512v-102h-102v-205h102v-103h410zM0 0v512h102v307h102v205h103v204h102v103h103v102h102v103h-102v102h-103v410h103v204h102v103h102v102h103v103h205v102h1126v-1331h-102v-1331h-717v614h102v614h-307v-102h-102v-512h-103v-614h-921z" />
    <glyph glyph-name="uni0430" unicode="&#x430;" 
d="M1228 614v307h-102v-102h-102v-205h204zM0 0v102h102v205h102v205h103v204h102v103h103v205h102v204h102v103h103v205h102v204h103v205h102v103h512v-308h102v-512h103v-409h102v-512h103v-307h-717v204h-512v-204h-819z" />
    <glyph glyph-name="uni0431" unicode="&#x431;" 
d="M1228 512v102h103v102h-103v103h-307v-307h307zM0 0v307h102v409h102v410h103v307h102v410h103v205h1536v-512h-1024v-308h409v-102h205v-102h102v-103h103v-102h102v-307h-102v-205h-103v-103h-102v-102h-205v-102h-1433z" />
    <glyph glyph-name="uni0432" unicode="&#x432;" 
d="M1228 512v102h103v102h-103v103h-307v-307h307zM1331 1228v103h102v102h-102v103h-307v-308h307zM0 0v307h102v409h102v410h103v307h102v410h103v205h1126v-103h205v-102h102v-205h103v-410h-103v-102h-102v-102h-103v-103h103v-102h102v-307h-102v-205h-103v-103h-102
v-102h-205v-102h-1433z" />
    <glyph glyph-name="uni0433" unicode="&#x433;" horiz-adv-x="2355" 
d="M0 0v307h102v409h102v410h103v307h102v410h103v205h1638v-512h-1126v-512h-103v-1024h-921z" />
    <glyph glyph-name="uni0434" unicode="&#x434;" 
d="M1228 512v409h-102v-102h-102v-307h204zM102 -204v716h205v204h102v103h103v205h102v204h102v103h103v205h102v204h103v205h102v103h512v-308h102v-512h103v-409h102v-307h103v-716h-717v204h-512v-204h-717z" />
    <glyph glyph-name="uni0435" unicode="&#x435;" 
d="M0 0v307h102v409h102v410h103v307h102v410h103v205h1536v-512h-1024v-205h512v-410h-615v-409h1024v-512h-1945z" />
    <glyph glyph-name="uni0436" unicode="&#x436;" horiz-adv-x="3276" 
d="M0 0v307h102v205h102v204h103v103h102v102h103v103h102v102h102v102h-102v103h-102v307h-103v410h615v-410h102v-205h102v-102h103v307h102v410h717v-308h-102v-409h307v102h102v205h103v410h512v-512h-103v-205h-102v-103h-103v-102h-102v-102h102v-205h103v-307h102
v-512h-717v409h-102v307h-102v103h-103v-819h-819v409h102v410h-102v-103h-102v-307h-103v-409h-921z" />
    <glyph glyph-name="uni0437" unicode="&#x437;" 
d="M512 0v102h-205v102h-103v205h-102v307h819v-102h103v-102h204v102h103v102h-103v103h-409v409h512v103h102v102h-102v103h-205v-103h-102v-102h-615v307h103v102h102v103h102v102h205v103h717v-103h205v-102h102v-205h103v-410h-103v-102h-102v-102h-103v-103h103v-102
h102v-307h-102v-205h-103v-103h-102v-102h-205v-102h-921z" />
    <glyph glyph-name="uni0438" unicode="&#x438;" horiz-adv-x="2355" 
d="M0 0v307h102v409h102v410h103v307h102v410h103v205h614v-308h-102v-409h102v102h102v103h103v102h102v205h103v102h102v103h512v-1024h-102v-1024h-717v512h102v204h-102v-102h-103v-205h-102v-102h-102v-205h-103v-102h-921z" />
    <glyph glyph-name="uni0439" unicode="&#x439;" horiz-adv-x="2355" 
d="M0 0v307h102v409h102v410h103v307h102v410h103v205h614v-308h-102v-409h102v102h102v103h103v102h102v205h103v102h102v103h512v-1024h-102v-1024h-717v512h102v204h-102v-102h-103v-205h-102v-102h-102v-205h-103v-102h-921zM921 2150v102h-102v103h-103v409h410v-204
h102v-103h308v103h102v204h410v-409h-103v-103h-102v-102h-922z" />
    <glyph glyph-name="uni043A" unicode="&#x43a;" 
d="M0 0v307h102v409h102v410h103v307h102v410h103v205h614v-308h-102v-409h307v102h102v205h103v410h512v-512h-103v-205h-102v-103h-103v-102h-102v-102h102v-205h103v-307h102v-512h-717v409h-102v307h-102v103h-103v-819h-921z" />
    <glyph glyph-name="uni043B" unicode="&#x43b;" 
d="M0 0v102h102v205h102v205h103v204h102v103h103v205h102v204h102v103h103v205h102v204h103v205h102v103h512v-308h102v-512h103v-409h102v-512h103v-307h-717v307h-103v614h-102v-102h-102v-307h-103v-308h-102v-204h-819z" />
    <glyph glyph-name="uni043C" unicode="&#x43c;" horiz-adv-x="3276" 
d="M0 0v102h102v205h102v205h103v204h102v103h103v205h102v204h102v103h103v205h102v204h103v205h102v103h512v-308h102v-409h103v205h102v204h103v205h102v103h512v-308h102v-512h103v-409h102v-512h103v-307h-717v307h-103v614h-102v-102h-102v-307h-103v-205h-717v614
h-102v-102h-102v-307h-103v-308h-102v-204h-819z" />
    <glyph glyph-name="uni043D" unicode="&#x43d;" horiz-adv-x="2355" 
d="M0 0v307h102v409h102v410h103v307h102v410h103v205h614v-308h-102v-409h512v205h102v512h512v-1024h-102v-1024h-717v512h102v409h-512v-921h-921z" />
    <glyph glyph-name="uni043E" unicode="&#x43e;" 
d="M1126 512v102h102v102h103v308h102v409h-102v103h-205v-103h-102v-102h-103v-307h-102v-410h102v-102h205zM409 0v102h-205v102h-102v205h-102v307h102v410h102v307h103v205h102v102h103v103h102v102h205v103h819v-103h205v-102h102v-205h103v-614h-103v-512h-102v-205
h-103v-103h-102v-102h-205v-102h-1024z" />
    <glyph glyph-name="uni043F" unicode="&#x43f;" horiz-adv-x="2355" 
d="M0 0v307h102v409h102v410h103v307h102v410h103v205h1638v-1024h-102v-1024h-717v512h102v512h103v512h-512v-512h-103v-1024h-921z" />
    <glyph glyph-name="uni0440" unicode="&#x440;" 
d="M1331 1228v103h102v102h-102v103h-307v-308h307zM0 0v307h102v409h102v410h103v307h102v410h103v205h1126v-103h205v-102h102v-205h103v-410h-103v-102h-102v-102h-103v-103h-204v-102h-615v-819h-921z" />
    <glyph glyph-name="uni0441" unicode="&#x441;" 
d="M409 0v102h-205v102h-102v205h-102v307h102v410h102v307h103v205h102v102h103v103h102v102h205v103h819v-103h205v-102h102v-205h103v-307h-615v102h-102v103h-205v-103h-102v-102h-103v-307h-102v-410h102v-102h205v102h102v102h717v-204h-102v-205h-103v-103h-102v-102
h-205v-102h-1024z" />
    <glyph glyph-name="uni0442" unicode="&#x442;" horiz-adv-x="2150" 
d="M409 0v307h103v409h102v410h102v307h103v103h-512v512h1638v-512h-512v-512h-102v-1024h-922z" />
    <glyph glyph-name="uni0443" unicode="&#x443;" 
d="M0 0v102h102v102h102v205h103v103h102v102h103v102h102v205h102v410h-102v205h-102v307h-103v205h717v-205h102v-205h103v205h102v102h103v103h512v-103h-103v-205h-102v-102h-103v-205h-102v-205h-102v-102h-103v-205h-102v-102h-103v-205h-102v-205h-102v-102h-103
v-205h-102v-102h-819z" />
    <glyph glyph-name="uni0444" unicode="&#x444;" horiz-adv-x="2457" 
d="M921 819v205h103v204h-103v-102h-102v-307h102zM1536 819v102h102v307h-102v-204h-103v-205h103zM716 0v204h-307v103h-205v102h-102v205h-102v307h102v205h102v205h103v102h102v103h103v102h102v102h205v103h409v205h410v-205h205v-103h205v-102h102v-205h102v-409h-102
v-308h-102v-204h-103v-103h-102v-102h-205v-103h-307v-204h-615z" />
    <glyph glyph-name="uni0445" unicode="&#x445;" 
d="M0 0v102h102v102h102v205h103v103h102v102h103v102h102v205h102v410h-102v205h-102v307h-103v205h717v-205h102v-205h103v205h102v102h103v103h512v-103h-103v-205h-102v-102h-103v-205h-102v-205h-102v-102h-103v-102h103v-308h102v-204h102v-308h103v-204h-717v204
h-102v103h-103v-205h-102v-102h-819z" />
    <glyph glyph-name="uni0446" unicode="&#x446;" horiz-adv-x="2355" 
d="M1433 -204v204h-1433v307h102v409h102v410h103v307h102v410h103v205h614v-308h-102v-716h-103v-512h512v512h103v512h102v512h512v-1024h-102v-512h102v-716h-717z" />
    <glyph glyph-name="uni0447" unicode="&#x447;" horiz-adv-x="2355" 
d="M1331 0v512h102v409h-717v103h-204v102h-103v102h-102v308h102v307h103v205h614v-308h-102v-307h102v-102h410v205h102v512h512v-1024h-102v-1024h-717z" />
    <glyph glyph-name="uni0448" unicode="&#x448;" horiz-adv-x="3276" 
d="M0 0v307h102v409h102v410h103v307h102v410h103v205h614v-308h-102v-716h-103v-512h410v307h102v819h103v410h614v-512h-102v-1024h307v512h102v512h103v512h512v-1024h-103v-1024h-2969z" />
    <glyph glyph-name="uni0449" unicode="&#x449;" horiz-adv-x="3276" 
d="M2355 -204v204h-2355v307h102v409h102v410h103v307h102v410h103v205h614v-308h-102v-716h-103v-512h410v307h102v819h103v410h614v-512h-102v-1024h307v512h102v512h103v512h512v-1024h-103v-512h103v-716h-717z" />
    <glyph glyph-name="uni044A" unicode="&#x44a;" horiz-adv-x="2150" 
d="M1228 512v102h103v102h-103v103h-307v-307h307zM0 0v307h102v409h102v410h103v307h102v103h-307v512h1024v-308h-102v-512h409v-102h205v-102h102v-103h103v-102h102v-307h-102v-205h-103v-103h-102v-102h-205v-102h-1433z" />
    <glyph glyph-name="uni044B" unicode="&#x44b;" horiz-adv-x="2969" 
d="M1126 512v102h102v102h-102v103h-205v-307h205zM0 0v307h102v409h102v410h103v307h102v410h103v205h614v-308h-102v-512h307v-102h205v-102h102v-103h102v-102h103v-307h-103v-205h-102v-103h-102v-102h-205v-102h-1331zM1945 0v512h103v512h102v512h102v512h512v-1024
h-102v-1024h-717z" />
    <glyph glyph-name="uni044C" unicode="&#x44c;" horiz-adv-x="2150" 
d="M1228 512v102h103v102h-103v103h-307v-307h307zM0 0v307h102v409h102v410h103v307h102v410h103v205h614v-308h-102v-512h409v-102h205v-102h102v-103h103v-102h102v-307h-102v-205h-103v-103h-102v-102h-205v-102h-1433z" />
    <glyph glyph-name="uni044D" unicode="&#x44d;" 
d="M409 0v102h-205v102h-102v205h-102v307h819v-102h102v-102h205v102h102v102h103v103h-615v409h717v205h-102v103h-205v-103h-102v-102h-717v307h102v102h103v103h102v102h205v103h819v-103h205v-102h102v-205h103v-614h-103v-512h-102v-205h-103v-103h-102v-102h-205
v-102h-1024z" />
    <glyph glyph-name="uni044E" unicode="&#x44e;" horiz-adv-x="3276" 
d="M2150 512v102h102v102h103v308h102v409h-102v103h-103v-103h-102v-102h-102v-307h-103v-410h103v-102h102zM0 0v307h102v409h102v410h103v307h102v410h103v205h614v-308h-102v-512h307v205h102v205h103v102h102v103h102v102h205v103h717v-103h205v-102h102v-205h103v-614
h-103v-512h-102v-205h-103v-103h-102v-102h-205v-102h-921v102h-205v102h-103v205h-102v307h102v103h-307v-819h-921z" />
    <glyph glyph-name="uni044F" unicode="&#x44f;" horiz-adv-x="2355" 
d="M1536 1228v308h-410v-103h-102v-102h102v-103h410zM0 0v307h102v205h102v204h103v103h102v102h103v205h-103v512h103v102h102v103h102v102h205v103h1229v-1024h-102v-1024h-717v512h102v307h-307v-103h-102v-307h-103v-409h-921z" />
    <glyph glyph-name="uni0451" unicode="&#x451;" 
d="M0 0v307h102v409h102v410h103v307h102v410h103v205h1536v-512h-1024v-205h512v-410h-615v-409h1024v-512h-1945zM614 2150v512h512v-512h-512zM1433 2150v512h512v-512h-512z" />
    <glyph glyph-name="uni0454" unicode="&#x454;" 
d="M409 0v102h-205v102h-102v205h-102v307h102v410h102v307h103v205h102v102h103v103h102v102h205v103h819v-103h205v-102h102v-205h103v-307h-615v102h-102v103h-205v-103h-102v-102h-103v-103h615v-409h-717v-205h102v-102h205v102h102v102h717v-204h-102v-205h-103v-103
h-102v-102h-205v-102h-1024z" />
    <glyph glyph-name="uni0456" unicode="&#x456;" horiz-adv-x="1331" 
d="M0 0v307h102v409h102v410h103v307h102v410h103v205h614v-308h-102v-716h-103v-1024h-921z" />
    <glyph glyph-name="uni0457" unicode="&#x457;" horiz-adv-x="1331" 
d="M0 0v307h102v409h102v410h103v307h102v410h103v205h614v-308h-102v-716h-103v-1024h-921zM102 2150v512h512v-512h-512zM921 2150v512h512v-512h-512z" />
    <glyph glyph-name="uni045E" unicode="&#x45e;" 
d="M0 0v102h102v102h102v205h103v103h102v102h103v102h102v205h102v410h-102v205h-102v307h-103v205h717v-205h102v-205h103v205h102v102h103v103h512v-103h-103v-205h-102v-102h-103v-205h-102v-205h-102v-102h-103v-205h-102v-102h-103v-205h-102v-205h-102v-102h-103
v-205h-102v-102h-819zM819 2150v102h-103v103h-102v409h410v-204h102v-103h307v103h103v204h409v-409h-102v-103h-103v-102h-921z" />
    </font>
</defs>
</svg>
