<?xml version="1.0" standalone="no"?>
<!DOCTYPE svg PUBLIC "-//W3C//DTD SVG 1.1//EN" "http://www.w3.org/Graphics/SVG/1.1/DTD/svg11.dtd" >
<svg xmlns="http://www.w3.org/2000/svg" xmlns:xlink="http://www.w3.org/1999/xlink" version="1.1">
<metadata>
Created by FontForge 20201107 at Mon Apr  6 19:28:48 2026
 By www-data
Copyright (c) 1996-2022 Typodermic Fonts Inc. All rights reserved.
</metadata>
<defs>
<font id="Foo-Regular" horiz-adv-x="1030" >
  <font-face 
    font-family="Foo"
    font-weight="400"
    font-stretch="normal"
    units-per-em="2048"
    panose-1="4 1 0 0 0 0 0 0 0 0"
    ascent="1460"
    descent="-588"
    x-height="1094"
    cap-height="1401"
    bbox="-494 -588 2236 1849"
    underline-thickness="40"
    underline-position="-292"
    unicode-range="U+0017-25CA"
  />
<missing-glyph horiz-adv-x="1486" 
d="M1260 887q0 88 -51.5 185t-137 178t-208.5 133.5t-253 52.5q-28 0 -83 -107.5t-97.5 -230.5t-42.5 -170q0 -3 1 -6t3.5 -5t5 -3.5t7.5 -3t8.5 -2.5t10.5 -2t11.5 -1.5t13 -1.5t13.5 -2q49 -11 79.5 -40.5t30.5 -72.5q0 -40 -26.5 -74t-64 -64.5t-75 -66t-64 -96
t-26.5 -137.5q0 -90 62 -190q23 -23 98 -23q14 0 53 2t94 6.5t95.5 15t40.5 23.5q0 6 -12.5 29.5t-12.5 40.5q0 34 18 61t48.5 46.5t70 37.5t83 38.5t87.5 45t83.5 60.5t70 81.5t48.5 113t18 149.5zM707 137l-48 -8q-114 -36 -325 -68q-31 -7 -39 -21.5t-8 -43.5
q0 -84 21 -183.5t50 -103.5q4 -2 25 -2q71 0 165.5 14.5t168.5 40t74 52.5q0 61 -27.5 187.5t-56.5 135.5zM1227 -401h-965q-97 0 -143.5 40t-46.5 123v1584q0 165 190 165h965q192 0 192 -165v-1584q0 -163 -192 -163z" />
    <glyph glyph-name="copyright" unicode="&#x28;C&#x29;" horiz-adv-x="1572" 
d="M1501 684q0 -144 -56.5 -275.5t-152.5 -227t-229 -152t-279 -56.5q-193 0 -357 95.5t-259.5 259.5t-95.5 356q0 196 95.5 361t259 260.5t357.5 95.5q195 0 360 -95.5t261 -260.5t96 -361zM1303 684q0 143 -69 261.5t-188 186.5t-262 68q-105 0 -200.5 -40t-165 -108.5
t-111 -164.5t-41.5 -203q0 -138 70 -257t189.5 -189t258.5 -70q142 0 261.5 70t188.5 188.5t69 257.5zM995 748q0 -23 -22 -23q-3 0 -21 5t-49 5q-67 0 -107 -39.5t-40 -99.5q0 -58 38.5 -99.5t102.5 -41.5q21 0 38 5t21 5q19 0 19 -19q0 -32 -4 -73q-1 -17 -45 -30t-99 -13
q-70 0 -132 19.5t-113 59t-81 107.5t-30 158q0 142 97.5 240t248.5 98q101 0 150 -17q13 -7 20.5 -83.5t7.5 -163.5z" />
    <glyph glyph-name="registered" unicode="&#x28;R&#x29;" horiz-adv-x="1007" 
d="M936 963q0 -179 -127 -306t-305 -127t-305 127t-127 306t127 305.5t305 126.5t305 -126.5t127 -305.5zM504 649q130 0 220.5 91.5t90.5 222.5t-90.5 221t-220.5 90q-131 0 -222.5 -90.5t-91.5 -220.5q0 -131 92 -222.5t222 -91.5zM649 770h-78q-10 0 -10 14v113
q0 41 -43 41h-16q-31 0 -37 25v-177q0 -12 -14 -12h-74q-12 0 -12 12v353q0 31 12.5 47t48.5 16h102q55 0 90 -31t35 -84q0 -74 -43 -96q26 -6 37.5 -24.5t11.5 -55.5v-131q0 -10 -10 -10zM502 1024h14q41 0 41 49q0 21 -13.5 33t-37.5 12h-41v-121q7 27 37 27z" />
    <glyph glyph-name="uni2117" unicode="&#x28;P&#x29;" horiz-adv-x="1572" 
d="M1501 684q0 -144 -56.5 -275.5t-152.5 -227t-229 -152t-279 -56.5q-193 0 -357 95.5t-259.5 259.5t-95.5 356q0 196 95.5 361t259 260.5t357.5 95.5q195 0 360 -95.5t261 -260.5t96 -361zM1303 684q0 143 -69 261.5t-188 186.5t-262 68q-105 0 -200.5 -40t-165 -108.5
t-111 -164.5t-41.5 -203q0 -138 70 -257t189.5 -189t258.5 -70q142 0 261.5 70t188.5 188.5t69 257.5zM1137 705q0 -67 -24 -117.5t-67.5 -81.5t-96.5 -47.5t-118 -22.5v-80q0 -18 -112 -18q-106 0 -129 2q-13 1 -37.5 260t-24.5 383q0 21 70 34t166 13q168 0 270.5 -91
t102.5 -234zM938 627q0 36 -24 53.5t-58 17.5q-17 0 -25 -4v-155q47 0 77 25t30 63z" />
    <glyph glyph-name=".notdef" horiz-adv-x="1486" 
d="M1260 887q0 88 -51.5 185t-137 178t-208.5 133.5t-253 52.5q-28 0 -83 -107.5t-97.5 -230.5t-42.5 -170q0 -3 1 -6t3.5 -5t5 -3.5t7.5 -3t8.5 -2.5t10.5 -2t11.5 -1.5t13 -1.5t13.5 -2q49 -11 79.5 -40.5t30.5 -72.5q0 -40 -26.5 -74t-64 -64.5t-75 -66t-64 -96
t-26.5 -137.5q0 -90 62 -190q23 -23 98 -23q14 0 53 2t94 6.5t95.5 15t40.5 23.5q0 6 -12.5 29.5t-12.5 40.5q0 34 18 61t48.5 46.5t70 37.5t83 38.5t87.5 45t83.5 60.5t70 81.5t48.5 113t18 149.5zM707 137l-48 -8q-114 -36 -325 -68q-31 -7 -39 -21.5t-8 -43.5
q0 -84 21 -183.5t50 -103.5q4 -2 25 -2q71 0 165.5 14.5t168.5 40t74 52.5q0 61 -27.5 187.5t-56.5 135.5zM1227 -401h-965q-97 0 -143.5 40t-46.5 123v1584q0 165 190 165h965q192 0 192 -165v-1584q0 -163 -192 -163z" />
    <glyph glyph-name=".null" horiz-adv-x="0" 
 />
    <glyph glyph-name="nonmarkingreturn" horiz-adv-x="682" 
 />
    <glyph glyph-name="uni0017" horiz-adv-x="532" 
 />
    <glyph glyph-name="space" unicode=" " horiz-adv-x="532" 
 />
    <glyph glyph-name="exclam" unicode="!" horiz-adv-x="763" 
d="M692 1343q-45 -606 -45 -968q0 -17 -18 -17q-86 -4 -254 -4t-252 4q-19 0 -19 17q0 195 -16 481.5t-16 484.5q0 16 18 19q133 8 305 8q156 0 279 -8q18 0 18 -17zM461 330q32 0 100 -133.5t68 -163.5q0 -11 -16 -25t-29 -20q-143 -83 -326 -152q-15 -6 -22 -6
q-31 0 -88.5 120t-57.5 177q0 20 31 33q196 88 297 153q28 17 43 17z" />
    <glyph glyph-name="quotedbl" unicode="&#x22;" horiz-adv-x="976" 
d="M438 1358q-2 -36 -23.5 -262.5t-21.5 -319.5q0 -20 -43 -20q-153 0 -227 8q-19 3 -19 20q0 82 -16 298.5t-16 281.5q0 14 29 17t116 3q221 0 221 -26zM885 1358q-2 -36 -23.5 -262.5t-21.5 -319.5q0 -20 -43 -20q-154 0 -228 8q-18 3 -18 20q0 82 -16.5 298.5
t-16.5 281.5q0 14 29 17t117 3q221 0 221 -26z" />
    <glyph glyph-name="numbersign" unicode="#" horiz-adv-x="995" 
d="M969 907l-43 -196q-3 -17 -15 -17h-104q0 -111 -2 -125h113q16 0 16 -12q0 -14 -4 -16l-39 -199q-6 -14 -17 -14h-71v-314q0 -16 -8 -16h-207q-13 0 -13 330h-178q0 -330 -8 -330h-211q-3 0 -6.5 129t-3.5 201h-53q-10 0 -13 16l-22 205q0 20 14 20h70q0 111 -2 125h-96
q-14 0 -17 17l-24 207q0 18 14 18h119q-4 380 -4 416q0 14 6 14h241q7 0 7 -14l-5 -416h162q0 92 -4 227t-4 189q0 9 2 11.5t8 2.5h240q8 0 8 -14q-2 -110 -3.5 -203t-2 -131.5t-0.5 -81.5h143q17 0 17 -16v-13zM569 694h-168v-125h170z" />
    <glyph glyph-name="dollar" unicode="$" horiz-adv-x="798" 
d="M696 1243q42 -180 52 -416q0 -20 -23 -20q-32 4 -35 4q-61 0 -90 -24.5t-29 -65.5q0 -27 23 -57q52 -67 76 -131t24 -146q0 -163 -125 -240q78 -43 78 -51q0 -24 -53 -97t-80 -73q-2 0 -10 4q-170 112 -170 125q0 9 10 21q-20 -2 -49 -2q-59 0 -115 12q-22 90 -22 152
q0 10 0.5 15t3.5 9t10 4h27q14 0 38 4.5t53 13.5t49.5 27.5t20.5 42.5q0 28 -27.5 66.5t-80.5 79.5q-195 155 -195 344q0 126 51.5 221t143.5 147l-64 48q-10 7 -10 14q0 6 8 14q82 86 123 150q6 6 10 6q85 -36 162 -117q2 -2 6.5 -5.5t4.5 -6.5q0 -7 -5 -12l-26 -43
q77 6 119 6q85 0 116 -23z" />
    <glyph glyph-name="percent" unicode="%" horiz-adv-x="1587" 
d="M373 1411q141 0 220 -96.5t79 -241.5q0 -76 -19.5 -145.5t-56 -125.5t-95 -89t-130.5 -33q-139 0 -222 104.5t-83 280.5q0 153 82.5 249.5t224.5 96.5zM367 852q29 0 47 37t18 94q0 52 -14 73t-47 21q-41 0 -56.5 -21t-15.5 -73q0 -57 19.5 -94t48.5 -37zM1450 1362
q6 -6 6 -14q0 -25 -33 -70q-298 -392 -612 -787t-449 -542q-33 -36 -49.5 -49t-33.5 -13q-27 0 -104 38.5t-77 58.5q0 9 6 18q271 340 573.5 749t498.5 705q13 23 34 23q26 0 101 -32.5t139 -84.5zM1223 686q141 0 220 -96.5t79 -241.5q0 -76 -19.5 -145.5t-56 -125.5
t-95 -89t-130.5 -33q-139 0 -222.5 104.5t-83.5 280.5q0 152 83 249t225 97zM1217 127q29 0 47 37t18 94q0 52 -14 73t-47 21q-41 0 -56.5 -21t-15.5 -73q0 -57 19.5 -94t48.5 -37z" />
    <glyph glyph-name="ampersand" unicode="&#x26;" horiz-adv-x="1126" 
d="M967 551l-2 -105q42 2 69.5 5t37.5 5l9 3q27 0 27 -119q0 -18 -86 -18q-15 0 -36 1t-25 1q-3 -150 -7 -205q29 2 48.5 4t26 3t10.5 2t8 1q23 0 42 -60t19 -104q0 -24 -258 -24q-105 0 -190 5t-165 16.5t-138.5 32.5t-103 51t-67 73.5t-22.5 99.5q0 69 36.5 112t112.5 68
q-120 56 -192 165.5t-72 252.5q0 121 37 220t100.5 165.5t151 112t185.5 66t206 20.5q55 0 110.5 -6t102.5 -22.5t47 -41.5q0 -107 -44 -379t-95 -272q-4 0 -23.5 2.5t-52.5 5t-69 2.5q-80 0 -134.5 -27t-54.5 -79q0 -51 61 -84.5t158 -38.5v94q0 12 96 12q136 0 136 -16z
M739 313h-12q-26 -2 -39.5 -3t-33.5 -6.5t-30 -14t-18 -25t-8 -39.5q0 -41 44 -71t108 -31q-8 77 -11 190z" />
    <glyph glyph-name="quotesingle" unicode="'" horiz-adv-x="512" 
d="M438 1358q-2 -36 -23.5 -262.5t-21.5 -319.5q0 -20 -43 -20q-153 0 -227 8q-19 3 -19 20q0 82 -16 298.5t-16 281.5q0 14 29 17t116 3q221 0 221 -26z" />
    <glyph glyph-name="parenleft" unicode="(" horiz-adv-x="729" 
d="M698 -258q-33 -41 -75 -70.5t-74 -29.5q-11 0 -25 14q-105 97 -179 254t-107 324.5t-33 336.5q0 130 16 253t52 246t101.5 229t155.5 178q8 8 19 8q17 0 74 -46.5t57 -72.5q0 -11 -8 -16q-203 -251 -203 -787q0 -234 52 -410t184 -370q6 -6 6 -16q0 -15 -13 -25z" />
    <glyph glyph-name="parenright" unicode=")" horiz-adv-x="735" 
d="M180 -358q-25 0 -93.5 52.5t-68.5 72.5q0 2 7 16q133 193 184 368.5t51 411.5q0 536 -203 787q-6 6 -6 16q0 23 53.5 71t75.5 48q11 0 19 -8q91 -72 157 -178t101.5 -229t52 -246t16.5 -253q0 -169 -33.5 -336.5t-107.5 -324.5t-178 -254q-17 -14 -27 -14z" />
    <glyph glyph-name="asterisk" unicode="*" horiz-adv-x="1050" 
d="M549 1309l119 -346l276 28q35 0 35 -18q0 -14 -16 -27l-209 -176l131 -348q4 -12 4 -16q0 -19 -15 -19q-14 0 -26 12l-285 219l-221 -229q-13 -10 -20 -10q-17 0 -17 24l57 328l-266 150q-24 15 -24 26q0 16 34 19l318 28l84 357q7 20 18 20q14 0 23 -22z" />
    <glyph glyph-name="plus" unicode="+" 
d="M954 719l-36 -162q-3 -12 -15 -12h-252v-262q0 -38 -4 -54t-18 -16h-191q-21 0 -26.5 59t-5.5 273h-300q-10 0 -14 14l-20 166q0 14 12 14h313q-8 76 -8 238q0 102 10 102h256q9 0 9 -12q0 -156 -13 -328h291q14 0 14 -12q0 -6 -2 -8z" />
    <glyph glyph-name="comma" unicode="," horiz-adv-x="632" 
d="M444 344q36 -5 76.5 -129t40.5 -174q0 -14 -14 -33q-65 -101 -234 -274q-27 -23 -45 -23t-42.5 23t-24.5 43q0 3 6 12q90 90 90 117q0 16 -21 16q-18 0 -46.5 -18.5t-32.5 -18.5q-20 0 -72.5 111.5t-52.5 148.5q0 6 12 18t20 17q81 66 173 115t167 49z" />
    <glyph glyph-name="hyphen" unicode="-" horiz-adv-x="651" 
d="M625 696q0 -35 -22 -108.5t-48 -81.5q-99 8 -215 8q-150 0 -270 -8q-21 0 -32 62t-13 126q0 17 18 17q196 8 291 8q90 0 270 -8q21 0 21 -15z" />
    <glyph glyph-name="period" unicode="." horiz-adv-x="681" 
d="M442 330q32 0 100 -133.5t68 -163.5q0 -11 -16 -25t-29 -20q-145 -84 -325 -152q-15 -6 -23 -6q-30 0 -87.5 120t-57.5 177q0 20 30 33q196 88 297 153q28 17 43 17z" />
    <glyph glyph-name="slash" unicode="/" horiz-adv-x="1134" 
d="M1110 1518q14 -2 14 -25t-18 -57q-210 -436 -446.5 -897.5t-344.5 -640.5q-35 -61 -55.5 -74.5t-69.5 -13.5q-58 0 -92.5 1t-55 4.5t-27.5 8t-7 12.5q196 380 414.5 849.5t355.5 807.5q11 27 35.5 35t95.5 8q113 0 201 -18z" />
    <glyph glyph-name="zero" unicode="0" horiz-adv-x="1343" 
d="M682 1413q142 0 256.5 -53.5t188 -146.5t112.5 -214.5t39 -261.5q0 -120 -24 -234t-73.5 -214.5t-119.5 -175.5t-168.5 -118.5t-214.5 -43.5q-278 0 -445 210t-167 562q0 199 73 354.5t214 245.5t329 90zM668 295q59 0 96 74t37 188q0 102 -29.5 145t-95.5 43
q-81 0 -111 -42t-30 -146q0 -114 38 -188t95 -74z" />
    <glyph glyph-name="one" unicode="1" horiz-adv-x="800" 
d="M711 1333q0 -21 -0.5 -47.5t-2.5 -86t-4 -138.5t-6.5 -239.5t-9.5 -354.5q-8 -289 -8 -475q0 -16 -6.5 -24.5t-12.5 -9.5t-18 -1q-55 -2 -162 -2q-143 0 -299 12q-22 1 -31 15t-12 49q-49 759 -49 1296q0 17 8 26t35 13q86 8 203 8q203 0 344 -16q20 -3 25.5 -7.5
t5.5 -17.5z" />
    <glyph glyph-name="two" unicode="2" horiz-adv-x="1003" 
d="M862 174q0 -44 -11.5 -105t-21.5 -92q-9 -21 -79.5 -28.5t-249.5 -7.5q-49 0 -158 3t-158 3q-36 0 -47 16q-71 136 -71 246q0 92 40 177t130 142q82 54 110.5 96t28.5 101q0 149 -230 149q-16 0 -31.5 -2t-21.5 -2q-11 0 -17.5 20t-6.5 40q9 259 65 481q4 13 19 16t51 3
q764 0 764 -580q0 -273 -273 -428q-127 -71 -179 -114.5t-52 -86.5q0 -19 6 -37q85 -6 160 -6q56 0 130.5 5t86.5 5q16 0 16 -14z" />
    <glyph glyph-name="three" unicode="3" horiz-adv-x="1026" 
d="M971 803q0 -306 -223 -397q74 -21 116.5 -79t42.5 -128q0 -133 -140 -201t-402 -68q-90 0 -117 4.5t-27 18.5q0 54 11 114t30 60q4 0 21.5 -4t44.5 -4q87 0 130.5 31t43.5 71q0 33 -13.5 53t-61 34t-134.5 14q-18 0 -22.5 22.5t-4.5 79.5q0 33 13 33q6 0 34 -1t54 -1
q161 0 161 125q0 118 -178 118q-40 0 -66 -4.5t-37 -9t-16 -4.5q-41 0 -126 259.5t-85 350.5q0 54 89 86.5t219 32.5q137 0 252 -36t203.5 -107.5t138 -189.5t49.5 -273z" />
    <glyph glyph-name="four" unicode="4" horiz-adv-x="1288" 
d="M1198 1337q0 -160 -39 -663t-39 -713q0 -8 -21.5 -13t-72.5 -6.5t-78 -2t-94 -0.5q-40 0 -54 84t-14 247q-302 -26 -548 -26q-18 0 -28.5 11t-16.5 36q-24 119 -63.5 491.5t-39.5 515.5q0 31 55 37t293 6q61 0 193 -4q18 0 18 -16q0 -79 -17 -392.5t-32 -486.5
q84 0 184 17q-8 191 -8 442q0 224 8 432q1 15 53.5 21t180.5 6q74 0 115 -3t53 -7.5t12 -12.5z" />
    <glyph glyph-name="five" unicode="5" horiz-adv-x="1058" 
d="M897 1399q29 -156 37 -508v-4q0 -17 -25 -17q-221 0 -467 -26q-2 -16 -2 -51q0 -43 2 -68q63 8 131 8q206 0 320.5 -83.5t114.5 -237.5q0 -109 -40 -190t-105.5 -130t-164 -79t-201 -41t-231.5 -11q-30 0 -35 23q-3 17 -12 57t-14 69.5t-8 55.5q0 15 16 18
q183 18 257.5 59t74.5 109q0 50 -29.5 74.5t-122.5 24.5q-84 0 -162 -23q-24 -8 -41 -8q-14 0 -14 18q-45 223 -73.5 480.5t-28.5 433.5q0 43 158.5 61.5t551.5 18.5q64 0 87 -6t26 -27z" />
    <glyph glyph-name="six" unicode="6" horiz-adv-x="1112" 
d="M1051 367q0 -188 -115.5 -312.5t-306.5 -124.5q-117 0 -220.5 45.5t-182 128t-124 207.5t-45.5 275q0 197 57.5 360t158.5 273t240.5 170.5t303.5 60.5q99 0 129.5 -3t30.5 -17q0 -260 -16.5 -433.5t-47.5 -173.5q-5 0 -32.5 3t-63.5 3q-39 0 -82.5 -13t-86 -38.5
t-73.5 -71.5t-38 -104q77 92 239 92q118 0 196.5 -83.5t78.5 -243.5zM725 422q0 55 -31 55q-89 0 -139 -88q0 -106 59 -106q52 0 81.5 44.5t29.5 94.5z" />
    <glyph glyph-name="seven" unicode="7" horiz-adv-x="1099" 
d="M1049 1378q-12 -453 -50 -614q-369 -463 -571 -821q-7 -7 -16 -9q-72 4 -177.5 25t-105.5 41q0 8 4 14q250 439 461 740q-149 -13 -281 -13q-117 0 -219 9q-45 4 -45 464q0 89 4 132q2 16 76.5 26.5t298.5 17.5t604 7q17 0 17 -19z" />
    <glyph glyph-name="eight" unicode="8" horiz-adv-x="1089" 
d="M834 594q93 -39 133.5 -107t40.5 -174q0 -71 -29.5 -138t-85 -122.5t-146.5 -89t-204 -33.5q-98 0 -185 36t-145 92t-91.5 123.5t-33.5 131.5q0 108 32.5 170.5t119.5 96.5q-193 139 -193 415q0 193 129 307.5t367 114.5q231 0 366 -111t135 -278q0 -98 -14.5 -171
t-45 -122t-65 -80.5t-85.5 -60.5zM553 190q28 0 43.5 35.5t15.5 96.5q0 98 -59 98q-34 0 -49 -23t-15 -73q0 -134 64 -134zM557 563q32 0 46.5 41.5t14.5 106.5q0 112 -61 112q-68 0 -68 -112q0 -66 17 -107t51 -41z" />
    <glyph glyph-name="nine" unicode="9" horiz-adv-x="1091" 
d="M1038 702q0 -165 -39 -307.5t-112.5 -250.5t-188.5 -170t-258 -62q-233 0 -233 45q0 131 12 246.5t27 115.5q2 0 34.5 -7t81.5 -7q112 0 187.5 60t93.5 176q-43 -50 -98 -70t-137 -20q-160 0 -254.5 122.5t-94.5 319.5q0 123 26.5 218.5t71 156t108.5 99.5t132.5 55
t149.5 16q250 0 370.5 -183t120.5 -553zM594 750q-4 36 -24.5 67t-57.5 31q-28 0 -51 -33.5t-23 -83.5q0 -46 18.5 -73t39.5 -27q37 0 64 30t34 89z" />
    <glyph glyph-name="colon" unicode=":" horiz-adv-x="700" 
d="M451 330q32 0 99.5 -133.5t67.5 -163.5q0 -11 -16 -25t-29 -20q-143 -82 -323 -152q-18 -6 -25 -6q-30 0 -86.5 120t-56.5 177q0 21 31 33q199 91 295 153q34 17 43 17zM451 963q22 0 63.5 -68.5t72.5 -141t31 -89.5q0 -9 -15.5 -23.5t-29.5 -22.5q-118 -68 -323 -151
q-24 -4 -25 -4q-30 0 -86.5 119t-56.5 176q0 23 31 35q176 77 295 151q28 19 43 19z" />
    <glyph glyph-name="semicolon" unicode=";" horiz-adv-x="698" 
d="M455 344q38 -5 77 -128.5t39 -174.5q0 -14 -14 -33q-28 -46 -71 -98t-74 -84.5t-88 -91.5q-23 -23 -43 -23q-19 0 -44.5 23t-25.5 43q0 4 8 12q88 88 88 117q0 16 -20 16q-18 0 -46.5 -18.5t-33.5 -18.5q-20 0 -71.5 111.5t-51.5 148.5q0 7 12 18.5t19 16.5
q205 164 340 164zM451 963q31 0 99 -134t68 -165q0 -9 -16 -23.5t-31 -22.5q-118 -68 -323 -151q-20 -4 -25 -4q-30 0 -86.5 119t-56.5 176q0 23 31 35q176 77 295 151q28 19 45 19z" />
    <glyph glyph-name="less" unicode="&#x3c;" horiz-adv-x="1009" 
d="M881 1171l57 -176q0 -11 -14 -18l-596 -311l587 -308q9 -3 9 -14q0 -8 -4 -12l-103 -99q-8 -8 -14 -8q-3 0 -12 6l-680 361q-12 6 -15 18l-24 129q0 14 10 21l760 422q12 4 18 4q18 0 21 -15z" />
    <glyph glyph-name="equal" unicode="=" 
d="M918 528l-35 -141q-3 -12 -13 -12h-729q-12 0 -12 14l-18 148q0 12 10 12h786q13 0 13 -10q0 -9 -2 -11zM954 918l-36 -179q-3 -14 -15 -14h-797q-11 0 -14 16l-20 183q0 16 12 16h858q8 0 11 -2.5t3 -11.5q0 -6 -2 -8z" />
    <glyph glyph-name="greater" unicode="&#x3e;" horiz-adv-x="1009" 
d="M72 995l57 176q0 15 21 15q2 0 18 -4l760 -422q10 -7 10 -21l-25 -129q-3 -13 -14 -18l-680 -361q-9 -6 -12 -6q-5 0 -17 8l-100 99q-6 6 -6 12q0 11 10 14l586 308l-596 311q-12 8 -12 18z" />
    <glyph glyph-name="question" unicode="?" horiz-adv-x="978" 
d="M197 1430q133 0 241 -15.5t202 -52.5t157.5 -96t100 -149t36.5 -208q0 -128 -55 -217.5t-168 -163.5q-142 -92 -142 -186q0 -26 21.5 -49.5t21.5 -30.5q0 -11 -6 -17.5t-24 -13.5q-227 -98 -299 -98q-25 0 -31 12q-121 109 -121 275q0 118 94 227q58 66 58 113
q0 114 -142 114q-13 0 -32.5 -2t-24.5 -2q-12 0 -16.5 9t-4.5 39q0 307 66 493q7 19 68 19zM573 205q32 0 100 -134.5t68 -164.5q0 -18 -40.5 -45.5t-104.5 -57.5t-118 -52.5t-105 -41.5q-18 -6 -25 -6q-30 0 -86.5 120t-56.5 177q0 20 31 35q172 76 294 151q38 19 43 19z
" />
    <glyph glyph-name="at" unicode="@" horiz-adv-x="1368" 
d="M799 899q59 0 107 -9.5t48 -21.5q-8 -68 -8 -182q0 -54 2 -88t9.5 -67.5t23.5 -49.5t41 -16q45 0 63.5 48t18.5 157q0 86 -26 151t-67 103.5t-99 62.5t-113.5 32.5t-118.5 8.5q-383 0 -383 -430q0 -209 91.5 -352.5t260.5 -179.5q15 -3 15 -21q0 -79 -8.5 -116t-37.5 -38
q-187 27 -315 132.5t-189 269t-61 377.5q0 142 35 255t94.5 187.5t143 124t175 71t195.5 21.5q157 0 269 -28.5t192 -94.5t119 -176t39 -270q0 -85 -14.5 -163.5t-46 -152t-92 -117.5t-142.5 -44q-138 0 -193 67q-58 -67 -161 -67q-37 0 -77 18.5t-77.5 54t-61.5 99
t-24 143.5q0 140 61 217.5t170 77.5q71 0 119 -31q0 37 23 37zM707 467q32 0 50.5 39.5t18.5 99.5q0 84 -69 84q-43 0 -64.5 -24t-21.5 -62q0 -56 26.5 -96.5t59.5 -40.5z" />
    <glyph glyph-name="A" unicode="A" horiz-adv-x="1271" 
d="M977 1331q137 -597 283 -1368v-6q0 -14 -17 -14q-309 0 -465 14q-11 2 -17 8.5t-7 26.5l-13 133q-25 -24 -67 -47t-53 -23q-17 0 -35 26.5t-25 51.5l-18 -119q-4 -25 -17.5 -34t-57.5 -13t-155 -4q-168 0 -235.5 5t-67.5 18q0 8 4 20q195 800 361 1329q7 21 49 26t197 5
q142 0 219 -3.5t105.5 -11t31.5 -20.5zM680 397q25 0 72 -61q-61 292 -90 389q-55 -159 -103 -397q95 69 121 69z" />
    <glyph glyph-name="B" unicode="B" horiz-adv-x="1280" 
d="M1221 793q0 -276 -191 -390q172 -57 172 -215q0 -49 -16.5 -87.5t-40 -63.5t-63.5 -43t-73 -27t-83.5 -14t-79.5 -6t-76 -2q-38 -1 -103.5 -2.5t-120 -2.5t-104.5 -1q-93 0 -204 6q-57 1 -78 29.5t-23 86.5q-6 237 -30.5 586t-49.5 596q0 96 27 115q45 34 144 48.5
t272 14.5q268 0 446 -104q132 -78 203.5 -211.5t71.5 -312.5zM834 561q0 71 -36 117.5t-104 46.5q-34 0 -57 -10q-10 -125 -10 -307q8 -2 26 -2q32 0 62 8.5t57.5 26t44 49t17.5 71.5zM670 111q46 0 92.5 28.5t46.5 83.5q0 105 -182 105q-6 -59 -6 -119q0 -63 2 -94
q24 -4 47 -4z" />
    <glyph glyph-name="C" unicode="C" horiz-adv-x="1234" 
d="M1171 817q0 -16 -18 -16q-1 0 -53 9t-119 9q-143 0 -226 -83.5t-83 -213.5q0 -125 81.5 -213t215.5 -88q57 0 97 13l40 12q10 0 17 -9.5t7 -25.5q0 -78 -8 -170q-1 -34 -94 -60t-209 -26q-117 0 -223 25t-202.5 81.5t-167.5 140t-112.5 208t-41.5 278.5q0 150 53.5 283.5
t148 231.5t230.5 155t293 57q130 0 197 -9t116 -28q29 -11 45 -179t16 -382z" />
    <glyph glyph-name="D" unicode="D" horiz-adv-x="1257" 
d="M412 1401q359 0 571.5 -190t212.5 -502q0 -157 -44 -286.5t-118.5 -217.5t-175.5 -148.5t-213.5 -88t-234.5 -27.5q-82 0 -182.5 26t-110.5 60q-33 541 -33 907q0 270 8 401q1 27 10 39t27 15q73 12 283 12zM786 463q0 100 -56.5 160.5t-160.5 64.5q-10 -133 -10 -307
q0 -111 2 -164q71 0 148 71.5t77 174.5z" />
    <glyph glyph-name="E" unicode="E" horiz-adv-x="1124" 
d="M1063 1350q0 -144 -10.5 -284.5t-26 -226t-29.5 -85.5q-6 0 -46 3t-116 6t-171 3q-5 -56 -5 -148q61 0 167 8.5t130 8.5q60 0 60 -29q-11 -65 -47 -176q-9 -22 -187 -22q-80 0 -127 2q-8 -49 -8 -158q77 -6 158 -6q29 0 87 3t87 3q16 0 16 -29q0 -139 -10 -227
q-8 -41 -428 -41q-252 0 -317.5 8.5t-71.5 50.5q-30 201 -59 686t-29 592q0 25 52.5 40.5t203.5 24.5t416 9h295q16 0 16 -16z" />
    <glyph glyph-name="F" unicode="F" horiz-adv-x="1103" 
d="M1067 1348q-15 -313 -29.5 -452.5t-38.5 -139.5q-45 0 -142 5.5t-150 6.5q-7 -50 -7 -131q318 0 318 -29q-6 -113 -47 -209q-7 -20 -123 -20q-83 0 -154 10q-4 -62 -4 -96q0 -25 12 -289q2 -43 -385 -43q-37 0 -55 0.5t-41.5 1.5t-33.5 4.5t-11 9.5q-22 157 -45 485
t-35 573t-12 282q5 49 672 49h295q16 0 16 -18z" />
    <glyph glyph-name="G" unicode="G" horiz-adv-x="1318" 
d="M1243 602q15 0 22 -4.5t8 -11t1 -21.5q0 -49 -12.5 -243t-24.5 -289q-3 -25 -116 -48.5t-253 -23.5q-138 0 -257 26.5t-221 85t-174.5 146t-113.5 214.5t-41 284q0 108 30 210t92 191t148.5 156t207.5 106t262 39q161 0 276 -22q29 -6 47.5 -233t18.5 -355q0 -18 -19 -18
q-4 0 -33.5 5t-71.5 10t-77 5q-66 0 -117.5 -21t-82.5 -53t-51.5 -74t-28 -80t-7.5 -75q0 -85 48 -158t147 -102q8 112 8 196q0 45 -5 82.5t-5 44.5q0 31 239 31h156z" />
    <glyph glyph-name="H" unicode="H" horiz-adv-x="1501" 
d="M1051 1397q360 0 360 -35v-309q0 -592 -61 -1065q-3 -15 -19 -15q-139 0 -461 15q-13 0 -16 18l-23 340q-90 -106 -110 -106q-17 0 -57 108q-2 -141 -23 -330q-6 -24 -119 -24q-145 0 -222.5 1t-115 4.5t-44.5 7.5t-7 13q-43 1187 -43 1319q0 14 19.5 22t68.5 12.5
t135 4.5q31 0 99.5 -2t130.5 -2q41 0 85 3t54 3q18 0 18 -18q0 -426 -26 -784q71 71 96 71q17 0 61 -96v809q0 35 220 35z" />
    <glyph glyph-name="I" unicode="I" horiz-adv-x="800" 
d="M717 1333q-21 -778 -23 -866q-8 -289 -8 -475q0 -16 -6.5 -24.5t-13 -9.5t-17.5 -1q-55 -2 -164 -2q-141 0 -297 12q-22 2 -32 15.5t-11 48.5q-49 702 -49 1296q0 12 2 18t11.5 12t29.5 9q82 8 203 8q203 0 344 -16q19 -3 25 -7.5t6 -17.5z" />
    <glyph glyph-name="J" unicode="J" horiz-adv-x="1120" 
d="M1061 1331q0 -918 -125 -1149q-72 -131 -198.5 -198.5t-286.5 -67.5q-171 0 -274.5 41t-156.5 127q-20 24 -20 51q0 20 76.5 91t103.5 71q11 0 13 -6q26 -52 53.5 -73t68.5 -21q67 0 107.5 80.5t40.5 226.5q0 243 -10.5 491t-10.5 328q0 23 8 33t31 10q184 0 294 -1.5
t175.5 -6t88 -10.5t22.5 -17z" />
    <glyph glyph-name="K" unicode="K" horiz-adv-x="1378" 
d="M1362 1288q-65 -195 -138 -335t-184 -281q191 -362 287 -682q0 -21 -53 -37t-134 -23.5t-152 -10.5t-132 -3q-13 0 -18 10q-72 252 -179 471q-2 -53 -2 -155q0 -100 7 -244q0 -26 -41.5 -31.5t-204.5 -5.5q-189 0 -242 4q-31 3 -40 61t-23 308q-6 96 -18.5 309.5
t-17 296.5t-9.5 204t-5 204q0 24 102.5 29t452.5 5q19 0 19 -18q0 -15 -1 -41.5t-1 -38.5q0 -241 20 -514q149 340 230 600q3 12 18 12q107 0 287 -17t180 -38q0 -18 -8 -39z" />
    <glyph glyph-name="L" unicode="L" horiz-adv-x="1013" 
d="M1004 254q-3 -136 -19 -258q-1 -10 -45 -19t-144.5 -15.5t-236.5 -6.5q-381 0 -383 22q-24 159 -47 488.5t-35 571.5t-12 280q0 27 230.5 46t369.5 19q18 0 18 -16q-14 -396 -14 -807q0 -199 2 -297q25 -2 78 -2q77 0 146.5 6t72.5 6q19 0 19 -18z" />
    <glyph glyph-name="M" unicode="M" horiz-adv-x="1538" 
d="M1446 1360q10 -207 10 -498t-16 -839q-1 -31 -19.5 -39.5t-64.5 -8.5q-139 0 -220 2.5t-109 5.5t-75 11q-26 6 -31.5 14t-5.5 39q0 201 9 348q-68 -215 -172 -397q-9 -15 -21 -19t-55 -4q-39 0 -50.5 4t-23.5 23q-134 190 -213 406q8 -114 8 -299q0 -116 -22 -119
q-37 -13 -207 -13q-33 0 -44 8.5t-11 32.5q-15 480 -15 795q0 313 13 547q2 31 141 31q59 0 166 -11q23 -3 34.5 -10t20.5 -24q123 -249 258 -439q150 208 254 445q6 23 37 28q124 15 217 15q118 0 162.5 -7.5t44.5 -27.5z" />
    <glyph glyph-name="N" unicode="N" horiz-adv-x="1269" 
d="M1167 1350q6 -20 7.5 -71.5t1.5 -242.5q0 -80 2 -248t2 -262q0 -436 -6 -477q-7 -73 -21 -84q-28 -16 -182 -16q-63 0 -92.5 0.5t-63.5 4t-46.5 8t-31 17.5t-27.5 27t-26 41q-102 163 -274 375q2 -107 9 -232t7 -172q0 -30 -8.5 -42.5t-37.5 -18.5t-97 -6q-94 0 -126 4
t-44 18q-17 15 -17 115q0 39 -3 499.5t-3 717.5q0 36 13.5 47t56.5 14q148 8 225 8q48 0 71.5 -6.5t41.5 -24.5q171 -163 340 -458q0 69 -3.5 211t-3.5 209q0 49 13 59q13 8 133 8q68 0 103.5 -1t55.5 -3.5t24.5 -6t6.5 -11.5z" />
    <glyph glyph-name="O" unicode="O" horiz-adv-x="1343" 
d="M682 1413q142 0 256.5 -53.5t188 -146.5t112.5 -214.5t39 -261.5q0 -120 -24 -234t-73.5 -214.5t-119.5 -175.5t-168.5 -118.5t-214.5 -43.5q-278 0 -445 210t-167 562q0 199 73 354.5t214 245.5t329 90zM668 295q59 0 96 74t37 188q0 102 -29.5 145t-95.5 43
q-81 0 -111 -42t-30 -146q0 -114 38 -188t95 -74z" />
    <glyph glyph-name="P" unicode="P" horiz-adv-x="1382" 
d="M1337 715q0 -108 -33.5 -196.5t-91 -149.5t-140 -104.5t-175.5 -66t-201 -30.5v-170q0 -23 -61.5 -30t-169.5 -7q-228 0 -275 4q-27 3 -77 548t-50 806q0 42 147.5 71t346.5 29q177 0 324 -52t247 -145t154.5 -223t54.5 -284zM922 571q0 74 -50 113t-118 39q-34 0 -58 -8
v-334q101 0 163.5 53.5t62.5 136.5z" />
    <glyph glyph-name="Q" unicode="Q" horiz-adv-x="1351" 
d="M1278 186q75 -114 123 -258q2 -4 2 -12q0 -14 -14 -22q-185 -85 -420 -127q-39 0 -41 16q-11 91 -78 194q-76 -28 -172 -28q-277 0 -444.5 211t-167.5 563q0 199 73 354.5t214 245.5t329 90q125 0 227 -39.5t169 -105.5t113.5 -154t66.5 -182t20 -193
q0 -168 -51.5 -324.5t-149.5 -271.5q79 11 166 47q10 5 17 5q9 0 18 -9zM668 295q59 0 96 74t37 188q0 102 -29.5 145t-95.5 43q-81 0 -111 -42t-30 -146q0 -114 38 -188t95 -74z" />
    <glyph glyph-name="R" unicode="R" horiz-adv-x="1441" 
d="M1368 817q0 -186 -76 -310.5t-213 -178.5q138 -146 234 -297q8 -16 8 -23q0 -13 -16 -16q-160 -74 -320 -115q-12 -4 -27 -4q-19 0 -32 21q-68 127 -201 239v-135q0 -23 -61.5 -30t-169.5 -7q-195 0 -256 4q-35 4 -52.5 144.5t-52.5 616.5q-13 173 -20 273
q-23 299 -23 320q0 40 136 66t327 26q185 0 340.5 -48.5t258 -130.5t159.5 -189.5t57 -225.5zM948 588q0 64 -48.5 98.5t-119.5 34.5q-31 0 -55 -6v-334q103 8 163 63t60 144z" />
    <glyph glyph-name="S" unicode="S" horiz-adv-x="1003" 
d="M866 1405q29 -123 47.5 -273.5t18.5 -244.5q0 -17 -25 -17q-3 0 -16.5 2t-26.5 2q-79 0 -116 -31.5t-37 -84.5q0 -51 34 -94q129 -165 129 -306q0 -104 -42.5 -182.5t-120 -125.5t-179.5 -70t-229 -23q-40 0 -55 5.5t-21 25.5q-24 98 -24 180q0 10 10 13t37 3t43 2
q164 16 164 111q0 46 -30.5 86t-109.5 100q-124 99 -184.5 210t-60.5 249q0 84 23 156t74.5 134.5t130 106t195 68.5t263.5 25q103 0 108 -27z" />
    <glyph glyph-name="T" unicode="T" horiz-adv-x="1175" 
d="M1137 1358q6 -138 6 -256q0 -2 -6 -320q0 -18 -19 -18q-178 0 -260 -2q-14 -313 -67 -778q0 -29 -150 -29q-69 0 -244 10q-18 3 -20 51q-11 348 -51 750q-88 4 -265 4q-18 0 -18 18q-6 156 -6 316q0 127 6 268q0 19 18 19q119 4 363 4q331 0 694 -19q19 0 19 -18z" />
    <glyph glyph-name="U" unicode="U" horiz-adv-x="1243" 
d="M1178 1346q4 -10 4 -29q0 -90 -13.5 -408t-13.5 -428q0 -100 -13 -176t-48.5 -144.5t-94.5 -112.5t-153.5 -69.5t-222.5 -25.5q-285 0 -414 129t-129 397q0 162 -4 452.5t-4 342.5q0 36 9.5 50.5t37.5 18.5q129 21 270 21q132 0 234 -2q58 -2 75 -13t17 -59
q0 -148 -6.5 -458t-6.5 -459q0 -92 72 -92q28 0 46 13.5t25 40t9 46.5t2 53q0 134 -4 427.5t-4 453.5q0 39 23 49t110 10q112 0 150.5 -6t46.5 -22z" />
    <glyph glyph-name="V" unicode="V" horiz-adv-x="1083" 
d="M1067 1378q0 -7 -6 -43q-99 -586 -330 -1321q-10 -34 -237 -34q-108 0 -119 30q-202 599 -352 1288q-7 49 -7 50q0 25 30 29.5t147 4.5h104q174 0 215 -8q27 -8 29 -14q13 -79 43.5 -199.5t70.5 -226.5q73 200 119 432q6 27 244 27h20q29 0 29 -15z" />
    <glyph glyph-name="W" unicode="W" horiz-adv-x="1781" 
d="M1765 1376q0 -2 -1 -18t-1 -23q-80 -615 -280 -1333q0 -35 -240 -35q-108 0 -117 31q-9 33 -48.5 168t-55.5 192t-41.5 157t-42.5 181q-63 -295 -207 -694q0 -35 -237 -35q-110 0 -119 31q-242 729 -357 1319q0 1 -1 6t-1 10q0 23 17 29q32 8 194 8h88q148 0 203 -10
q20 -7 23 -12q26 -169 114 -363q72 196 101 346q3 32 63 35q59 6 215 6q142 0 209 -6q29 -3 38 -6.5t9 -11.5q31 -162 117 -363q55 147 96 375q0 18 31 22q149 9 178 9h35q18 0 18 -15z" />
    <glyph glyph-name="X" unicode="X" horiz-adv-x="1236" 
d="M1227 1315q-133 -336 -348 -670q163 -278 297 -665q0 -22 -146 -39t-233 -17h-56q-45 0 -51 29q-59 198 -88 260q-29 -65 -84 -266q-5 -21 -22 -21q-117 0 -279 13.5t-162 40.5q133 387 299 665q-174 262 -338 639q-8 13 -8 33q0 26 33 31q148 18 410 18q53 0 59 -12
q32 -141 131 -348q84 173 131 348q2 12 53 12h49q152 0 230 -4.5t101.5 -12t23.5 -22.5q0 -6 -2 -12z" />
    <glyph glyph-name="Y" unicode="Y" horiz-adv-x="1220" 
d="M1198 1348q16 -5 16 -27q0 -17 -4 -23q-151 -327 -340 -651q11 -143 11 -317q0 -188 -11 -346q0 -19 -18 -19q-109 -8 -242 -8q-134 0 -241 8q-19 3 -19 19q8 230 8 344q0 180 -8 319q-85 135 -132 213t-109 200.5t-99 229.5q-4 20 -4 27q0 30 25 33q215 20 448 20
q33 0 41 -10q35 -131 131 -348q74 174 129 334q5 15 29 20.5t98 5.5q210 0 291 -24z" />
    <glyph glyph-name="Z" unicode="Z" horiz-adv-x="1177" 
d="M1124 1382q0 -176 -18.5 -370t-36.5 -248q-346 -258 -573 -512q20 0 61 -1t61 -1q107 0 202 5.5t149.5 11t64.5 5.5q21 0 21 -65q0 -28 -2 -64.5t-6 -82t-5 -64.5q-2 -33 -303 -33q-51 0 -286.5 7t-284.5 7q-16 0 -19.5 20t-3.5 81v153q0 52 19 82q162 222 395 441
q-80 6 -184 6q-1 0 -277 -6q-11 0 -16.5 7t-6.5 12.5t-3 19.5q-6 88 -6 266q0 165 10 268q4 21 12 27.5t35 11.5q102 16 395 25.5t588 9.5q18 0 18 -19z" />
    <glyph glyph-name="bracketleft" unicode="[" horiz-adv-x="677" 
d="M612 -444q-91 -11 -192 -11q-128 0 -179 18t-51 75q-2 80 -9 299.5t-11 393.5t-4 335q0 615 24 927q3 25 53.5 33t198.5 8q56 0 174 -8q13 -2 22 -11t9 -22q0 -74 -10 -172q-4 -30 -31 -30q-46 4 -63 4q-16 0 -62 -4q-20 -303 -20 -723q0 -436 20 -875q20 -2 70 -2
q13 0 37 1t35 1q20 0 25 -9.5t5 -35.5q0 -186 -41 -192z" />
    <glyph glyph-name="backslash" unicode="\" horiz-adv-x="1134" 
d="M20 1518q88 18 201 18q71 0 95.5 -8t35.5 -35q137 -338 355.5 -807.5t414.5 -849.5q0 -8 -7 -12.5t-27.5 -8t-55.5 -4.5t-94 -1q-47 0 -67.5 13.5t-55.5 74.5q-106 176 -340.5 633t-451.5 905q-17 39 -17 57q0 23 14 25z" />
    <glyph glyph-name="bracketright" unicode="]" horiz-adv-x="673" 
d="M59 -444q-41 6 -41 192q0 26 5.5 35.5t25.5 9.5q11 0 35 -1t37 -1q49 0 69 2q21 461 21 875q0 405 -21 723q-46 4 -61 4q-17 0 -63 -4q-27 0 -31 30q-10 98 -10 172q0 13 9 22t21 11q118 8 174 8q148 0 198.5 -8t53.5 -33q25 -325 25 -927q0 -161 -4 -337t-11.5 -389
t-9.5 -302q0 -57 -50.5 -75t-178.5 -18q-102 0 -193 11z" />
    <glyph glyph-name="asciicircum" unicode="^" horiz-adv-x="776" 
d="M725 854q0 -28 -69.5 -53t-123.5 -25q-10 0 -18 12q-83 198 -166 322q-92 -152 -164 -328q-3 -10 -14 -10l-11 7q-108 69 -108 114q0 2 4 14q97 252 219 422q15 19 61 28t87 9q15 0 20 -8q143 -188 277 -486q6 -12 6 -18z" />
    <glyph glyph-name="underscore" unicode="_" horiz-adv-x="966" 
d="M956 -119q0 -37 -13.5 -110t-31.5 -82q-75 10 -434 10q-348 0 -440 -10q-13 0 -21 65t-8 123q0 17 10 17q84 8 455 8q395 0 471 -8q12 0 12 -13z" />
    <glyph glyph-name="grave" unicode="`" horiz-adv-x="616" 
d="M496 1169q-14 0 -39 5q-206 31 -361 100q-9 3 -16.5 11.5t-7.5 17.5q0 123 7.5 168t41.5 45q10 0 18.5 -2.5t15 -5.5t23 -12t33.5 -17q167 -79 301 -119q31 -11 31 -35q0 -62 -11.5 -109t-35.5 -47z" />
    <glyph glyph-name="a" unicode="a" horiz-adv-x="1052" 
d="M801 1053q125 -548 217 -1065q0 -33 -31 -33q-233 0 -354 12q-10 3 -15 5.5t-10.5 11t-7.5 24.5q-6 37 -8 74q-22 -16 -49 -27.5t-35 -11.5q-9 0 -24 8t-21 17l-8 -43q-2 -17 -5 -24t-11 -14.5t-30.5 -9t-53 -3t-89.5 -1.5q-86 0 -129.5 1t-72.5 5t-36.5 11t-7.5 20
q0 9 3 27q125 533 276 1022q9 24 43 28.5t166 4.5q169 0 228 -8.5t65 -30.5zM563 317q13 0 35 -10q-15 93 -61 250q-36 -115 -70 -281q48 28 63 34.5t33 6.5z" />
    <glyph glyph-name="b" unicode="b" horiz-adv-x="1060" 
d="M989 631q0 -200 -127 -297q113 -50 113 -172q0 -41 -13.5 -73.5t-32.5 -53.5t-53 -36.5t-61 -23t-71 -12t-69.5 -5t-68.5 -1.5q-148 -4 -237 -4q-92 0 -160 4q-54 3 -73 28.5t-21 80.5q-2 149 -32 516t-30 397q0 85 31 104q72 54 330 54q117 0 219 -30.5t182.5 -90.5
t127 -159t46.5 -226zM655 453q0 47 -23.5 77.5t-68.5 30.5q-20 0 -28 -2q-7 -73 -7 -209q51 0 88.5 24.5t38.5 78.5zM545 121q31 0 59.5 17t28.5 52q0 59 -107 64q0 -12 -1 -37t-1 -37v-57q2 -2 21 -2z" />
    <glyph glyph-name="c" unicode="c" horiz-adv-x="1024" 
d="M950 649q0 -31 -30 -31q-5 0 -20 4t-44.5 7.5t-69.5 3.5q-103 0 -162 -59t-59 -154q0 -89 57.5 -151t153.5 -62q42 0 73 9t34 9q13 0 25 -12.5t12 -30.5q0 -71 -7 -135q-3 -32 -80 -57t-171 -25t-178.5 20t-162 65t-133.5 112t-89 166.5t-33 222.5q0 160 73.5 292
t208 209.5t301.5 77.5q103 0 153.5 -7t90.5 -23q27 -11 42 -144.5t15 -306.5z" />
    <glyph glyph-name="d" unicode="d" horiz-adv-x="1042" 
d="M344 1120q285 0 455 -152t170 -401q0 -125 -34.5 -228t-94 -173.5t-140 -118.5t-170 -70t-186.5 -22q-69 0 -152.5 22.5t-93.5 53.5q-24 389 -24 708q0 183 8 316q1 46 49 55.5t213 9.5zM618 375q0 68 -35 108t-102 47q-6 -108 -6 -217q0 -73 2 -108q49 7 95 55.5
t46 114.5z" />
    <glyph glyph-name="e" unicode="e" horiz-adv-x="935" 
d="M866 1063q0 -114 -11 -228t-27 -182.5t-29 -68.5q-9 0 -37.5 2t-83 4t-123.5 2q-2 -23 -2 -86q87 3 150 7.5t83 4.5q43 0 43 -43q-13 -88 -38 -129q-21 -27 -160 -27h-84q-4 -50 -4 -90q37 -4 106 -4q21 0 65 3t70 3q31 0 31 -41q0 -113 -10 -182q-7 -43 -348 -43
q-203 0 -258.5 9t-61.5 51q-23 156 -45 534t-22 459q0 25 42 41t163 25.5t331 9.5h230q30 0 30 -31z" />
    <glyph glyph-name="f" unicode="f" horiz-adv-x="919" 
d="M870 1061q-12 -249 -26 -362t-43 -113q-39 0 -111.5 3.5t-101.5 4.5q0 -12 -1 -37t-1 -37q245 -3 245 -39q-6 -92 -38 -162q-7 -24 -113 -24q-65 0 -102 2q0 -57 6 -186q4 -58 4 -88q-2 -54 -316 -54q-62 0 -93 5.5t-34 23.5q-17 126 -35.5 380.5t-28 443t-9.5 216.5
q8 56 536 56h232q13 0 21.5 -9.5t8.5 -23.5z" />
    <glyph glyph-name="g" unicode="g" horiz-adv-x="1091" 
d="M989 500q29 -3 35 -10.5t6 -34.5q0 -38 -10 -190.5t-19 -225.5q-2 -23 -95.5 -46.5t-207.5 -23.5q-137 0 -251 35t-203 106t-139 189t-50 274q0 86 24 167t73.5 153t118.5 126t166 85t210 31q101 0 217 -19q28 -6 46 -188.5t18 -284.5q0 -31 -31 -31q-9 0 -53 8.5
t-88 8.5q-58 0 -100.5 -22t-64 -57.5t-31 -70t-9.5 -69.5q0 -56 28.5 -104.5t90.5 -69.5q4 51 4 124q0 39 -4 69t-4 32q0 41 202 41q98 0 121 -2z" />
    <glyph glyph-name="h" unicode="h" horiz-adv-x="1236" 
d="M1137 1071v-240q0 -183 -1.5 -272.5t-11 -233.5t-30.5 -323q-4 -25 -31 -25q-178 0 -324 11q-11 1 -17 2.5t-12 6.5t-8 13q-27 146 -40 236q-58 -60 -76 -60q-16 0 -29 25q-10 -149 -14 -184q-1 -11 -11 -18t-29 -9.5t-32.5 -3t-38.5 -0.5q-120 0 -177.5 1t-92.5 5.5
t-41 10.5t-6 20l-25 612q-10 325 -10 412q0 45 190 45q75 0 173.5 1t111.5 1q33 0 33 -33q0 -367 -19 -561q39 27 56 27q8 0 28 -23v557q0 45 189 45q29 0 68 -1.5t95.5 -5.5t94 -14t37.5 -24z" />
    <glyph glyph-name="i" unicode="i" horiz-adv-x="677" 
d="M596 1049q0 -1 -2.5 -71.5t-7 -236t-8.5 -362.5q-7 -276 -7 -367q0 -45 -45 -45q-39 -2 -127 -2q-131 0 -233 10q-44 3 -49 64q-37 557 -37 1008q0 20 9 30.5t40 14.5q41 8 158 8q137 0 270 -13q24 -5 31.5 -11.5t7.5 -26.5z" />
    <glyph glyph-name="j" unicode="j" horiz-adv-x="931" 
d="M862 1049q0 -712 -98 -899q-58 -105 -160 -160.5t-231 -55.5q-137 0 -221 33t-129 103q-15 25 -15 47q0 20 66 84.5t90 64.5q20 0 26 -14q28 -64 78 -64q44 0 71.5 58t27.5 162q0 186 -8.5 377t-8.5 257q0 27 9 39.5t38 12.5q146 0 236 -2.5t141.5 -8t69.5 -13.5t18 -21z
" />
    <glyph glyph-name="k" unicode="k" horiz-adv-x="1140" 
d="M1100 1008q-57 -158 -110 -262t-134 -209q147 -286 219 -523q0 -24 -42 -41t-110 -25t-122 -11.5t-109 -4.5q-27 0 -33 23q-34 140 -104 297v-47q0 -63 4 -189q0 -32 -35.5 -39.5t-171.5 -7.5q-108 0 -190 4q-17 2 -26.5 13t-16.5 46t-11 89t-8 153q-7 160 -24 396.5
t-17 390.5q0 31 85.5 38t363.5 7q33 0 33 -33q0 -1 -1 -19t-1 -42q0 -158 8 -330q86 202 149 401q8 23 31 23q89 0 235 -18.5t146 -40.5q0 -20 -8 -39z" />
    <glyph glyph-name="l" unicode="l" horiz-adv-x="847" 
d="M819 215q-3 -128 -14 -203q-2 -11 -39 -21t-118 -18t-189 -8q-306 0 -314 31q-20 127 -38.5 384t-27.5 441t-9 215q0 28 187 49t296 21q33 0 33 -31q-13 -356 -13 -624q0 -137 2 -213q135 0 179 6q14 2 34 2q31 0 31 -31z" />
    <glyph glyph-name="m" unicode="m" horiz-adv-x="1267" 
d="M1167 1069q7 -222 7 -385q0 -372 -13 -649q-1 -37 -19 -46t-65 -9q-227 0 -315 16q-17 4 -24 7.5t-13 15.5t-6 34q0 127 2 150q-44 -103 -94 -195q-8 -18 -21 -23t-55 -5q-36 0 -47.5 4t-24.5 24q-84 125 -127 225q2 -39 2 -133q0 -58 -7 -81.5t-23 -26.5
q-33 -10 -166 -10q-60 0 -60 49q-14 341 -14 616q0 255 12 422q2 43 127 43q55 0 131 -8q44 -7 54 -29q67 -153 186 -325q117 163 180 321q12 28 43 33q102 12 170 12q101 0 140.5 -10.5t39.5 -36.5z" />
    <glyph glyph-name="n" unicode="n" horiz-adv-x="1050" 
d="M948 1069q6 -23 6 -250v-710q0 -82 -3 -101.5t-19 -30.5q-9 -6 -18 -9t-41.5 -5t-94.5 -2q-135 0 -164 7t-53 46q-82 134 -201 283q2 -58 8.5 -142.5t6.5 -123.5q0 -43 -22 -56.5t-107 -13.5q-117 0 -144 21q-20 16 -20 102q0 22 -1 385.5t-1 558.5q0 39 12.5 50.5
t52.5 13.5q120 8 179 8q43 0 62.5 -6.5t37.5 -24.5q116 -110 233 -299q0 38 -3 126t-3 132t19 59q14 11 114 11q73 0 105.5 -3t42.5 -8t16 -18z" />
    <glyph glyph-name="o" unicode="o" horiz-adv-x="1110" 
d="M555 1128q114 0 205.5 -42.5t150 -117t90 -171.5t31.5 -209q0 -96 -19 -187t-58.5 -171t-96 -139.5t-135.5 -94.5t-172 -35q-222 0 -357 167t-135 447q0 243 134.5 398t361.5 155zM543 262q38 0 62 54t24 133q0 69 -19 97.5t-61 28.5q-52 0 -71 -27.5t-19 -98.5
q0 -79 24.5 -133t59.5 -54z" />
    <glyph glyph-name="p" unicode="p" horiz-adv-x="1140" 
d="M1081 571q0 -106 -38.5 -187.5t-108.5 -132.5t-156 -80t-192 -40v-115q0 -29 -54 -38t-145 -9q-178 0 -215 4q-26 30 -70.5 449t-44.5 616q0 41 120 69t280 28q285 0 454.5 -156.5t169.5 -407.5zM723 461q0 47 -34 72.5t-79 25.5q-18 0 -24 -2v-227q63 6 100 41.5
t37 89.5z" />
    <glyph glyph-name="q" unicode="q" horiz-adv-x="1116" 
d="M1001 186q15 0 23 -7t23 -34q30 -48 81 -172q5 -10 5 -22q0 -21 -25 -33q-141 -65 -328 -98q-48 0 -53 26q-10 83 -47 134q-70 -19 -127 -19q-223 0 -357.5 167.5t-134.5 446.5q0 160 59 284.5t172.5 196.5t264.5 72q100 0 181.5 -31.5t135.5 -83.5t91 -122.5t53 -146
t16 -156.5q0 -258 -129 -434q32 8 53 16t29 12t14 4zM545 262q38 0 61 53.5t23 133.5q0 70 -18 98t-60 28q-52 0 -72 -27.5t-20 -98.5q0 -80 24.5 -133.5t61.5 -53.5z" />
    <glyph glyph-name="r" unicode="r" horiz-adv-x="1187" 
d="M1108 649q0 -139 -58 -238.5t-157 -144.5q107 -124 168 -221q6 -10 6 -20q0 -20 -20 -31q-138 -58 -246 -86q-18 -6 -31 -6q-27 0 -43 24q-42 83 -121 156v-66q0 -29 -54 -38t-144 -9q-152 0 -197 4q-21 3 -32 22.5t-24.5 109.5t-25 237.5t-31.5 445.5q-18 246 -18 250
q0 39 110.5 64.5t264.5 25.5q299 0 476 -134.5t177 -344.5zM743 473q0 40 -31.5 62t-78.5 22h-27v-225q66 9 101.5 45.5t35.5 95.5z" />
    <glyph glyph-name="s" unicode="s" horiz-adv-x="839" 
d="M713 1108q22 -96 36.5 -213t14.5 -190q0 -29 -29 -29q-13 0 -25.5 1t-15.5 1q-52 0 -77 -20.5t-25 -53.5q0 -28 24 -61q50 -72 76.5 -130t26.5 -118q0 -166 -124.5 -247t-336.5 -81q-38 0 -54 6.5t-20 28.5q-20 74 -20 143q0 33 29 33q2 0 20 -1t31 -1q114 0 114 72
q0 32 -21 58.5t-77 70.5q-100 80 -148.5 169t-48.5 202q0 86 30 155.5t93.5 124.5t171.5 85t254 30q48 0 72.5 -7t28.5 -28z" />
    <glyph glyph-name="t" unicode="t" horiz-adv-x="978" 
d="M899 1102q28 -3 31 -31q6 -72 6 -201q0 -121 -6 -247q-4 -33 -31 -33h-184q-11 -261 -51 -586q-5 -39 -134 -39q-86 0 -192 8q-15 3 -21.5 14t-7.5 40q-23 388 -41 567q-59 4 -186 4q-31 0 -31 31q-6 117 -6 243q0 99 6 207q0 13 9.5 23t21.5 10q84 4 280 4
q336 0 537 -14z" />
    <glyph glyph-name="u" unicode="u" 
d="M954 1067q2 -8 2 -31q0 -70 -9 -314.5t-9 -330.5q0 -81 -10.5 -142.5t-39.5 -117t-76 -91.5t-123 -56.5t-179 -20.5q-231 0 -335.5 104t-104.5 322q0 119 -2 340.5t-2 274.5q0 37 10 51t39 20q118 17 278 17q65 0 150 -5q34 -3 44.5 -15t10.5 -56q0 -114 -5 -355t-5 -356
q0 -53 37 -53q16 0 26 9t14.5 26t5.5 31t1 36q0 104 -3 331.5t-3 348.5q0 43 20.5 54.5t99.5 11.5q95 0 128 -6.5t40 -26.5z" />
    <glyph glyph-name="v" unicode="v" horiz-adv-x="903" 
d="M868 1090q0 -1 -6 -43q-75 -450 -254 -1024q-17 -39 -202 -39q-89 0 -107 39q-161 476 -270 976q-9 47 -9 62q0 31 27.5 38t128.5 7h80q138 0 168 -6q13 -4 18 -6t10.5 -7t8.5 -14q28 -158 71 -282q44 131 76 294q7 19 48.5 24t172.5 5q39 0 39 -24z" />
    <glyph glyph-name="w" unicode="w" horiz-adv-x="1462" 
d="M1413 1092q0 -22 -4 -62q-84 -541 -213 -1007q-6 -22 -52 -31.5t-151 -9.5q-97 0 -108 36q-91 278 -129 465q-53 -217 -142 -458q-10 -22 -54 -32.5t-150 -10.5q-92 0 -107 34q-191 575 -272 1002q-2 9 -4 18.5t-3 15t-1 9.5q0 11 8 22t20 15q36 8 156 8h67q131 0 160 -8
q29 -11 31 -23q15 -100 70 -239q49 141 61 225q4 20 19 29t49 14q31 2 167 2q125 0 164 -4q29 -4 39 -9.5t13 -17.5q19 -112 69 -239q43 131 60 249q0 5 1.5 8.5t4.5 6.5t4.5 5t6.5 3.5t6.5 2t7.5 2t7 1.5q36 8 140 8h28q31 0 31 -30z" />
    <glyph glyph-name="x" unicode="x" horiz-adv-x="1026" 
d="M995 1042q0 -10 -8 -26q-101 -247 -260 -498q117 -203 227 -516q0 -26 -104.5 -43.5t-206.5 -17.5h-41q-50 0 -59 36q-16 80 -49 160q-29 -79 -48 -166q-7 -28 -38 -28q-93 0 -224 15t-131 44q99 295 228 516q-141 212 -258 477q-9 31 -9 41q0 38 39 41q109 17 322 17
q56 0 61 -21q27 -115 86 -237q50 106 84 235q7 21 60 21q142 0 215.5 -6t93.5 -16t20 -28z" />
    <glyph glyph-name="y" unicode="y" horiz-adv-x="1013" 
d="M956 1083q29 -9 29 -36q0 -12 -16 -52q-85 -186 -250 -475q6 -80 6 -248q0 -180 -6 -268q-3 -27 -31 -31q-91 -6 -190 -6q-138 0 -193 6q-9 1 -13.5 3t-7.5 9t-3 21q4 172 4 264q0 170 -4 252q-175 278 -258 477q-11 39 -11 45q0 21 8 29.5t29 11.5q209 19 348 19
q44 0 52 -27q35 -127 79 -227q41 86 88 223q5 18 27 25.5t84 7.5q43 0 118.5 -7t110.5 -16z" />
    <glyph glyph-name="z" unicode="z" horiz-adv-x="978" 
d="M913 1090q0 -138 -15 -293.5t-30 -200.5q-260 -191 -422 -367q20 -2 58 -2q121 0 219.5 9.5t103.5 9.5q33 0 33 -68q0 -92 -10 -166q-2 -39 -252 -39q-217 0 -442 9q-24 1 -30.5 20.5t-6.5 75.5v117q0 44 20 73q102 145 281 320h-105q-66 0 -133.5 -2t-81.5 -2t-22 8.5
t-9 15t-3 21.5q-7 82 -7 209q0 118 9 209q3 26 11.5 33t37.5 12q158 28 766 28q30 0 30 -30z" />
    <glyph glyph-name="braceleft" unicode="{" horiz-adv-x="708" 
d="M635 -436h-55q-98 0 -160 16t-96 53t-46 86.5t-12 128.5q0 20 3 233t3 228q0 75 -18.5 104t-75.5 29q-51 0 -51 199q0 13 9.5 23t23.5 10q59 0 85.5 31t26.5 104q0 15 -3 274t-3 281q0 77 12 126.5t46 87t96 53.5t160 16h79q31 0 31 -41q0 -183 -43 -183q-104 0 -104 -34
q0 -52 6 -337t6 -337q0 -102 -115 -158q50 -26 82.5 -68.5t32.5 -91.5q0 -53 -6 -288t-6 -285q0 -22 17 -29.5t54 -7.5h37q12 0 21.5 -10t9.5 -23q0 -190 -47 -190z" />
    <glyph glyph-name="bar" unicode="|" horiz-adv-x="593" 
d="M451 1432q0 -260 -22.5 -793t-22.5 -809v-158q0 -18 -17 -18q-121 0 -167 5t-46 24q0 282 -16.5 853.5t-16.5 882.5q0 17 23 21q165 12 227 12q58 0 58 -20z" />
    <glyph glyph-name="braceright" unicode="}" horiz-adv-x="708" 
d="M129 -436h-57q-47 0 -47 190q0 13 9 23t21 10h39q37 0 53.5 7.5t16.5 29.5q0 49 -5 284.5t-5 288.5q0 49 31.5 91.5t80.5 68.5q-52 26 -82 66.5t-30 91.5q0 52 5 337t5 337q0 34 -103 34q-43 0 -43 183q0 41 31 41h80q97 0 159 -16.5t96 -53.5t46 -86.5t12 -126.5
q0 -22 -4 -281t-4 -274q0 -72 27.5 -103.5t87.5 -31.5q13 0 23 -10t10 -23q0 -199 -54 -199q-57 0 -75.5 -29t-18.5 -104q0 -15 4 -227.5t4 -233.5q0 -79 -12 -128.5t-46 -86.5t-95.5 -53t-159.5 -16z" />
    <glyph glyph-name="asciitilde" unicode="~" horiz-adv-x="1046" 
d="M973 768q0 -84 -15 -158q-60 -49 -124.5 -70.5t-151.5 -21.5q-75 0 -191 32t-159 32q-107 0 -199 -86q-14 -9 -24 -9q-37 0 -37 54q0 90 12 129q51 45 106.5 70.5t135.5 25.5q91 0 212.5 -33t155.5 -33q140 0 219 82q22 11 27 11q11 0 22 -7.5t11 -17.5z" />
    <glyph glyph-name="nbspace" unicode="&#xa0;" horiz-adv-x="532" 
 />
    <glyph glyph-name="exclamdown" unicode="&#xa1;" horiz-adv-x="763" 
d="M72 23q45 606 45 968q0 17 18 17q86 4 254 4t252 -4q18 0 18 -17q0 -195 16.5 -481.5t16.5 -484.5q0 -16 -18 -19q-133 -8 -305 -8q-156 0 -279 8q-18 0 -18 17zM303 1036q-32 0 -100 133.5t-68 163.5q0 11 16 25t29 20q143 83 326 152q15 6 22 6q31 0 88.5 -120
t57.5 -177q0 -20 -31 -33q-196 -88 -297 -153q-28 -17 -43 -17z" />
    <glyph glyph-name="cent" unicode="&#xa2;" horiz-adv-x="753" 
d="M436 1444q9 0 17.5 -8t11.5 -17q55 -101 102 -166q8 -16 8 -18q0 -12 -40 -41q87 -5 131 -25q16 -7 26 -123.5t10 -259.5q0 -12 -10 -12q-4 0 -16 3t-34 6t-50 3q-81 0 -128.5 -56.5t-47.5 -145.5q0 -85 47 -146t121 -61q33 0 56 8t24 8q5 0 10.5 -6t5.5 -16
q0 -54 -6 -115q-1 -20 -39.5 -36.5t-93.5 -22.5q26 -47 90 -140q4 -12 4 -18q0 -22 -73 -65.5t-99 -43.5q-25 0 -84.5 93.5t-59.5 117.5q0 14 17 27t63 39q-70 14 -129 49.5t-108 93.5t-77 147t-28 199q0 166 85 296.5t216 178.5q-38 38 -70 90t-32 85q0 6 2 6q8 12 80.5 52
t97.5 40z" />
    <glyph glyph-name="sterling" unicode="&#xa3;" horiz-adv-x="1210" 
d="M895 725q-62 0 -85.5 2.5t-23.5 13.5q0 12 7.5 37t7.5 33q0 45 -45 45q-26 0 -44.5 -10t-29 -26.5t-16.5 -45t-7.5 -56.5t-1.5 -71q164 0 242 -2q6 0 12.5 -4t6.5 -8q0 -57 -14 -114.5t-38 -57.5q-168 8 -241 8q-4 -34 -39 -80t-62 -61q43 -6 144.5 -44t162.5 -38
q127 0 175 92q5 8 16 8q27 0 71 -90t44 -139q0 -18 -9 -33q-50 -63 -143 -94t-188 -31q-71 0 -147 25t-148.5 50t-134.5 25q-123 0 -238 -104q-6 -6 -14 -6q-10 0 -15 8q-74 110 -77 250q73 102 174 127q39 52 59 121q-18 -2 -47 -2q-47 0 -51 12q-15 67 -15 137
q0 25 23.5 31t116.5 6q-23 124 -23 246q0 499 479 499q200 0 314 -93t114 -271q0 -69 -20.5 -163t-50.5 -103q-89 -29 -201 -29z" />
    <glyph glyph-name="currency" unicode="&#xa4;" horiz-adv-x="933" 
d="M623 276q-74 -38 -150 -38q-75 0 -149 38q-38 -47 -58.5 -69.5t-26 -26.5t-10.5 -4q-27 0 -92 56.5t-65 84.5q0 6 5 14t27 34t70 81q-35 78 -35 168q0 84 35 168q-46 49 -68.5 74.5t-27 33t-4.5 13.5q0 27 62 86.5t93 59.5q5 0 10.5 -4.5t24 -26t55.5 -68.5q73 39 154 39
q77 0 150 -39q45 51 67.5 75t29 29t11.5 5t36 -28.5t62 -71t31 -70.5q0 -17 -86 -107q35 -93 35 -168q0 -81 -35 -170q8 -9 33 -33.5t40 -43t15 -29.5q0 -32 -51 -102t-78 -70q-5 0 -11.5 5t-30 29.5t-68.5 75.5zM649 602q0 82 -51 138.5t-125 56.5q-73 0 -123.5 -56.5
t-50.5 -138.5t50.5 -139t123.5 -57t124.5 57t51.5 139z" />
    <glyph glyph-name="yen" unicode="&#xa5;" horiz-adv-x="1046" 
d="M940 403l-33 -143q-3 -10 -14 -10h-154q0 -158 -6 -238q0 -14 -14 -14q-66 -6 -197 -6q-133 0 -196 6q-15 3 -15 14q2 53 2 238h-149q-9 0 -12 12l-19 148q0 12 12 12h170v178h-186q-11 0 -14 16l-19 183q0 16 13 16h178q-63 100 -98 160t-80.5 152t-73.5 173
q-4 12 -4 21q0 27 20 27q210 18 365 18q27 0 35 -10q33 -131 106 -283q76 186 105 273q3 13 20.5 16.5t81.5 3.5q182 0 235 -18q17 -7 17 -25q0 -10 -6 -16q-121 -263 -254 -492h211q14 0 14 -14q0 -8 -2 -10l-39 -177q-2 -9 -4 -11.5t-10 -2.5h-187q2 -63 2 -178h189
q12 0 12 -10q0 -7 -2 -9z" />
    <glyph glyph-name="brokenbar" unicode="&#xa6;" horiz-adv-x="593" 
d="M451 1432q0 -286 -17 -648q0 -9 -6.5 -17.5t-17.5 -8.5q-36 0 -75.5 2t-87.5 5.5t-75 4.5q-8 0 -14 8.5t-6 14.5q-9 308 -9 626q0 17 23 21q165 12 227 12q58 0 58 -20zM176 -317q0 335 -12 673q0 12 6 19t19.5 10t24 3.5t30.5 0.5q172 0 172 -41q0 -85 -5 -256.5
t-5 -261.5v-158q0 -18 -17 -18q-121 0 -167 5t-46 24z" />
    <glyph glyph-name="section" unicode="&#xa7;" horiz-adv-x="968" 
d="M518 1407q63 -76 125.5 -172t95.5 -160q6 -18 6 -22t-1.5 -6.5t-5 -5t-7.5 -3.5t-13 -4t-16 -6q-79 -37 -79 -98q0 -62 67 -96q115 -57 176.5 -131t61.5 -191q0 -194 -248 -305q45 -67 45 -141q0 -103 -82 -193.5t-225 -159.5q-28 -14 -45 -14q-15 0 -46.5 38t-50.5 77
q-6 12 -6 20q0 6 7.5 11.5t24 13.5t26.5 14q88 56 88 107q0 71 -131 104q-110 31 -173 104.5t-63 194.5q0 77 40 152t120 133q-61 55 -100 137t-39 162q0 115 88.5 224t275.5 200q50 22 68 22q10 0 16 -6zM616 442q0 24 -11.5 43t-34 31.5t-43.5 20t-50 14.5
q-57 -35 -57 -82q0 -20 6.5 -36t22 -29.5t26.5 -21t35 -20t33 -18.5q73 48 73 98z" />
    <glyph glyph-name="dieresis" unicode="&#xa8;" horiz-adv-x="868" 
d="M506 1497q0 26 27 33.5t102 7.5q117 0 139.5 -10t22.5 -68q0 -133 -13 -209q-4 -18 -22 -23t-74 -5q-180 0 -180 39q0 21 2 66.5t2 68.5q0 16 -3 49.5t-3 50.5zM72 1497q0 26 28 33.5t103 7.5q114 0 136.5 -10t22.5 -68q0 -138 -12 -209q-4 -18 -21.5 -23t-74.5 -5
q-180 0 -180 39q0 21 2 66.5t2 68.5q0 16 -3 49.5t-3 50.5z" />
    <glyph glyph-name="ordfeminine" unicode="&#xaa;" horiz-adv-x="702" 
d="M502 1194q67 -296 119 -586q0 -18 -17 -18q-128 0 -194 6q-23 7 -23 63q-30 -20 -47 -20q-13 0 -25 12l-4 -22q-3 -21 -17 -25t-87 -4q-87 0 -111 3.5t-24 17.5q0 8 2 14q77 324 151 561q6 13 24.5 15.5t90.5 2.5q93 0 126 -4.5t36 -15.5zM371 788q10 0 20 -6
q-4 27 -35 140q-19 -62 -39 -156q38 22 54 22z" />
    <glyph glyph-name="guillemotleft" unicode="&#xab;" horiz-adv-x="1073" 
d="M414 911q27 0 52.5 -74.5t25.5 -115.5q0 -15 -13 -19q-128 -40 -196 -100q61 -71 217 -143q10 -3 10 -15q0 -10 -51 -64t-70 -54q-42 0 -164 73.5t-168 126.5q-19 24 -25.5 53.5t-6.5 96.5q0 16 20 33q189 142 330 192q31 10 39 10zM950 911q27 0 52.5 -74.5t25.5 -115.5
q0 -15 -12 -19q-130 -40 -197 -100q61 -71 217 -143q11 -4 11 -15q0 -10 -51 -64t-70 -54q-42 0 -164 73.5t-168 126.5q-19 24 -26 54t-7 96q0 15 21 33q189 143 329 192q31 10 39 10z" />
    <glyph glyph-name="logicalnot" unicode="&#xac;" horiz-adv-x="1034" 
d="M963 139l-15 -18q-31 -6 -98 -6q-59 0 -84 6q-27 5 -27 172q0 31 1 138t1 120q-32 -2 -145 -11t-238 -15.5t-243 -6.5q-21 0 -32 57t-11 107q0 88 24 88q156 11 449.5 26t388.5 15q6 0 11 -5t5 -11q13 -437 13 -656z" />
    <glyph glyph-name="macron" unicode="&#xaf;" horiz-adv-x="796" 
d="M715 1430q0 -35 -22 -109t-48 -82q-148 8 -233 8q-115 0 -295 -8q-21 0 -32 62t-13 126q0 15 18 15q163 10 316 10q138 0 288 -10q21 0 21 -12z" />
    <glyph glyph-name="degree" unicode="&#xb0;" horiz-adv-x="602" 
d="M299 840q-114 0 -170.5 78.5t-56.5 205.5q0 128 56.5 206.5t170.5 78.5q117 0 173 -78t56 -207q0 -127 -56 -205.5t-173 -78.5zM299 987q36 0 54 31t18 78t-18 77.5t-54 30.5q-35 0 -52.5 -31t-17.5 -77t17.5 -77.5t52.5 -31.5z" />
    <glyph glyph-name="plusminus" unicode="&#xb1;" 
d="M954 719l-36 -162q-3 -12 -15 -12h-252v-262q0 -38 -4 -54t-18 -16h-191q-21 0 -26.5 59t-5.5 273h-300q-10 0 -14 14l-20 166q0 14 12 14h313q-8 76 -8 238q0 102 10 102h256q9 0 9 -12q0 -156 -13 -328h291q14 0 14 -12q0 -6 -2 -8zM954 104l-36 -161q-3 -13 -15 -13
h-797q-10 0 -14 15l-20 166q0 14 12 14h858q14 0 14 -12q0 -7 -2 -9z" />
    <glyph glyph-name="twosuperior" unicode="&#xb2;" horiz-adv-x="563" 
d="M461 791q0 -54 -17 -99q-4 -10 -39 -14t-124 -4q-25 0 -79 2t-79 2q-29 0 -44.5 47t-15.5 84q0 105 84 160q42 27 56 47.5t14 50.5q0 74 -115 74q-8 0 -15.5 -1t-10.5 -1q-6 0 -9.5 10t-3.5 20q6 130 33 240q4 10 35 10q383 0 383 -291q0 -137 -137 -213
q-65 -37 -90 -57.5t-25 -42.5q0 -8 5.5 -13.5t17.5 -7t20 -2t22.5 0t16.5 0.5q28 0 66 3t43 3q8 0 8 -8z" />
    <glyph glyph-name="threesuperior" unicode="&#xb3;" horiz-adv-x="573" 
d="M516 1106q0 -154 -113 -199q37 -10 58.5 -39.5t21.5 -64.5q0 -133 -270 -133q-45 0 -58.5 2t-13.5 8q0 27 6 57.5t15 30.5q2 0 10 -2t23 -2q43 0 64.5 15.5t21.5 35.5q0 25 -20.5 37t-84.5 12q-12 0 -12 51q0 17 6 17q73 0 99 12t26 49q0 60 -90 60q-20 0 -33 -2.5
t-19 -4.5t-8 -2q-20 0 -62 130t-42 176q0 27 44.5 43t109.5 16q142 0 231.5 -76t89.5 -227z" />
    <glyph glyph-name="acute" unicode="&#xb4;" horiz-adv-x="616" 
d="M119 1169q-24 0 -35.5 47t-11.5 109q0 24 32 35q137 41 302 119q17 8 33.5 17t23 12t15 5.5t18.5 2.5q32 0 39.5 -45t7.5 -168q0 -21 -23 -29q-160 -70 -360 -100q-30 -5 -41 -5z" />
    <glyph glyph-name="paragraph" unicode="&#xb6;" horiz-adv-x="1095" 
d="M1038 1382q14 0 18.5 -18t4.5 -76q0 -55 -0.5 -84t-3 -69t-9.5 -58.5t-18 -19.5l-106 -6q0 -644 -11 -1162q0 -7 -4.5 -12.5t-11.5 -5.5l-158 -14q-20 0 -20 18q10 1052 10 1172h-129q0 -404 -8 -1158q0 -6 -5 -12t-12 -6l-159 -14q-8 0 -14.5 5.5t-6.5 12.5q8 227 8 733
q-87 6 -149.5 28.5t-107.5 67t-67 115.5t-22 172q0 385 389 385q155 0 337 3t255 3z" />
    <glyph glyph-name="periodcentered" unicode="&#xb7;" horiz-adv-x="681" 
d="M442 842q32 0 100 -133.5t68 -163.5q0 -11 -16 -25t-29 -20q-145 -84 -325 -152q-15 -6 -23 -6q-30 0 -87.5 120t-57.5 177q0 20 30 33q196 88 297 153q28 17 43 17z" />
    <glyph glyph-name="cedilla" unicode="&#xb8;" horiz-adv-x="518" 
d="M344 -96q31 -3 65.5 -110t34.5 -152q0 -13 -12 -29q-10 -16 -19 -29.5t-16 -23t-17 -21.5t-15.5 -18.5t-18.5 -20t-18 -19t-23 -23t-26 -25.5q-25 -21 -39 -21q-15 0 -36.5 20.5t-21.5 35.5q0 6 6 12q76 76 76 100q0 14 -16 14q-17 0 -50 -14t-36 -14q-17 0 -59 77
t-42 109q0 10 29 29q137 123 254 123z" />
    <glyph glyph-name="onesuperior" unicode="&#xb9;" horiz-adv-x="460" 
d="M385 1370q-1 -13 -1 -43t-2.5 -133t-6.5 -256q-1 -33 -1 -78.5t-0.5 -72t-2 -53.5t-6.5 -39.5t-13 -12.5q-182 0 -231 6q-10 0 -14.5 7t-6.5 24q-24 390 -24 649q0 8 8 13t26.5 7t32.5 2.5t43 0.5h13q186 0 186 -21z" />
    <glyph glyph-name="ordmasculine" unicode="&#xba;" horiz-adv-x="733" 
d="M367 1235q124 0 193 -84.5t69 -212.5q0 -90 -28.5 -166.5t-90 -127t-145.5 -50.5q-122 0 -196.5 92t-74.5 246q0 133 74.5 218t198.5 85zM360 758q20 0 34 29.5t14 72.5q0 39 -11 55.5t-35 16.5q-28 0 -38.5 -16t-10.5 -56q0 -43 13.5 -72.5t33.5 -29.5z" />
    <glyph glyph-name="guillemotright" unicode="&#xbb;" horiz-adv-x="1073" 
d="M121 326q-27 0 -52.5 74.5t-25.5 115.5q0 15 12 19q130 40 197 100q-61 71 -217 143q-10 3 -10 15q0 9 50.5 63.5t69.5 54.5q42 0 164 -73.5t168 -126.5q19 -24 26 -54t7 -96q0 -15 -21 -33q-189 -143 -329 -192q-31 -10 -39 -10zM657 326q-27 0 -52 74.5t-25 115.5
q0 15 12 19q128 40 196 100q-61 71 -217 143q-10 3 -10 15q0 9 51 63.5t70 54.5q42 0 164 -73.5t168 -126.5q19 -24 26 -54t7 -96q0 -15 -21 -33q-189 -142 -330 -192q-31 -10 -39 -10z" />
    <glyph glyph-name="onequarter" unicode="&#xbc;" horiz-adv-x="1585" 
d="M524 1370q-1 -13 -1 -43t-2.5 -133t-6.5 -256q-1 -33 -1 -78v-72t-1.5 -54t-6.5 -39.5t-13 -12.5q-182 0 -232 6q-10 0 -14 6.5t-6 24.5q-25 406 -25 649q0 8 8 13t26.5 7t32.5 2.5t43 0.5h13q186 0 186 -21zM1417 1362q6 -6 6 -14q0 -27 -32 -70q-298 -392 -612 -787
t-449 -542q-32 -35 -49.5 -48.5t-34.5 -13.5q-27 0 -103.5 38.5t-76.5 58.5q0 9 6 18q270 338 572 747t499 707q13 23 35 23q26 0 100.5 -32.5t138.5 -84.5zM1520 647q0 -80 -19.5 -331t-19.5 -357q0 -10 -133 -10q-20 0 -26.5 41.5t-6.5 124.5q-156 -15 -275 -15
q-16 0 -22 25q-12 60 -31.5 246.5t-19.5 257.5q0 14 27.5 17t146.5 3q3 0 20 0.5t28 0t25.5 -1t22.5 -3t8 -6.5q0 -40 -8.5 -196t-15.5 -242q53 0 92 8q-4 144 -4 221q0 59 4 215q3 14 117 14q90 0 90 -12z" />
    <glyph glyph-name="onehalf" unicode="&#xbd;" horiz-adv-x="1490" 
d="M524 1370q-1 -13 -1 -43t-2.5 -133t-6.5 -256q-1 -33 -1 -78v-72t-1.5 -54t-6.5 -39.5t-13 -12.5q-182 0 -232 6q-10 0 -14 6.5t-6 24.5q-25 406 -25 649q0 8 8 13t26.5 7t32.5 2.5t43 0.5h13q186 0 186 -21zM1417 1362q6 -6 6 -14q0 -27 -32 -70q-298 -392 -612 -787
t-449 -542q-32 -35 -49.5 -48.5t-34.5 -13.5q-27 0 -103.5 38.5t-76.5 58.5q0 9 6 18q270 338 572 747t499 707q13 23 35 23q26 0 100.5 -32.5t138.5 -84.5zM1372 66q0 -56 -16 -99q-8 -18 -164 -18q-24 0 -79 2t-79 2q-29 0 -44 47t-15 84q0 105 84 160q41 27 55 47.5
t14 50.5q0 74 -114 74q-8 0 -16 -1t-11 -1q-12 0 -12 30q6 130 33 240q4 10 34 10q383 0 383 -291q0 -137 -137 -213q-64 -37 -89 -57.5t-25 -42.5q0 -8 5.5 -13.5t17 -7t19.5 -2t22.5 0t16.5 0.5q28 0 66 3t43 3q8 0 8 -8z" />
    <glyph glyph-name="threequarters" unicode="&#xbe;" horiz-adv-x="1564" 
d="M625 1106q0 -154 -113 -199q37 -10 58.5 -39.5t21.5 -64.5q0 -133 -270 -133q-45 0 -58.5 2t-13.5 8q0 28 5.5 58t14.5 30q2 0 10 -2t23 -2q43 0 64.5 15.5t21.5 35.5q0 25 -20 37t-84 12q-13 0 -13 51q0 17 7 17q73 0 98.5 12t25.5 49q0 60 -90 60q-20 0 -32.5 -2.5
t-18.5 -4.5t-8 -2q-20 0 -62 130t-42 176q0 27 44 43t109 16q142 0 232 -76t90 -227zM1417 1362q6 -6 6 -14q0 -27 -32 -70q-298 -392 -612 -787t-449 -542q-32 -35 -49.5 -48.5t-34.5 -13.5q-27 0 -103.5 38.5t-76.5 58.5q0 9 6 18q270 338 572 747t499 707q13 23 35 23
q26 0 100.5 -32.5t138.5 -84.5zM1499 647q0 -80 -19.5 -331t-19.5 -357q0 -10 -133 -10q-20 0 -26.5 41.5t-6.5 124.5q-156 -15 -274 -15q-17 0 -23 25q-12 60 -31.5 246.5t-19.5 257.5q0 14 27 17t147 3q3 0 20 0.5t28.5 0t26 -1t22.5 -3t8 -6.5q0 -39 -9 -194.5
t-16 -243.5q53 0 92 8q-4 144 -4 221q0 59 4 215q3 14 117 14q90 0 90 -12z" />
    <glyph glyph-name="questiondown" unicode="&#xbf;" horiz-adv-x="978" 
d="M801 -92q-133 0 -241 15.5t-202.5 52.5t-158 95.5t-100 148.5t-36.5 208q0 128 55.5 217.5t168.5 163.5q141 91 141 186q0 26 -21.5 49.5t-21.5 30.5q0 19 31 31q227 98 299 98q24 0 30 -12q63 -57 92 -122.5t29 -151.5q0 -119 -94 -228q-57 -65 -57 -112
q0 -115 141 -115q13 0 32.5 2t24.5 2q12 0 16.5 -8.5t4.5 -38.5q0 -308 -66 -494q-4 -11 -18.5 -14.5t-48.5 -3.5zM424 1133q-32 0 -100 134.5t-68 164.5q0 18 40.5 45.5t105.5 57t117.5 51.5t105.5 42q18 6 24 6q30 0 87 -120t57 -177q0 -19 -31 -34q-170 -75 -295 -152
q-36 -18 -43 -18z" />
    <glyph glyph-name="Agrave" unicode="&#xc0;" horiz-adv-x="1271" 
d="M977 1331q137 -597 283 -1368v-6q0 -14 -17 -14q-309 0 -465 14q-11 2 -17 8.5t-7 26.5l-13 133q-25 -24 -67 -47t-53 -23q-17 0 -35 26.5t-25 51.5l-18 -119q-4 -25 -17.5 -34t-57.5 -13t-155 -4q-168 0 -235.5 5t-67.5 18q0 8 4 20q195 800 361 1329q7 21 49 26t197 5
q142 0 219 -3.5t105.5 -11t31.5 -20.5zM680 397q25 0 72 -61q-61 292 -90 389q-55 -159 -103 -397q95 69 121 69zM782 1442q-19 0 -39 4q-204 31 -360 100q-9 3 -17 11.5t-8 17.5q0 121 8 167t42 46q10 0 18.5 -2.5t15 -5.5t23 -12t33.5 -17q167 -79 301 -119q30 -10 30 -35
q0 -62 -11.5 -108.5t-35.5 -46.5z" />
    <glyph glyph-name="Aacute" unicode="&#xc1;" horiz-adv-x="1271" 
d="M977 1331q137 -597 283 -1368v-6q0 -14 -17 -14q-309 0 -465 14q-11 2 -17 8.5t-7 26.5l-13 133q-25 -24 -67 -47t-53 -23q-17 0 -35 26.5t-25 51.5l-18 -119q-4 -25 -17.5 -34t-57.5 -13t-155 -4q-168 0 -235.5 5t-67.5 18q0 8 4 20q195 800 361 1329q7 21 49 26t197 5
q142 0 219 -3.5t105.5 -11t31.5 -20.5zM680 397q25 0 72 -61q-61 292 -90 389q-55 -159 -103 -397q95 69 121 69zM528 1442q-24 0 -35.5 46.5t-11.5 108.5q0 24 33 35q134 40 301 119q17 8 33.5 17t23 12t15 5.5t18.5 2.5q32 0 39.5 -45t7.5 -168q0 -9 -6.5 -17.5
t-15.5 -11.5q-160 -69 -361 -100q-24 -4 -41 -4z" />
    <glyph glyph-name="Acircumflex" unicode="&#xc2;" horiz-adv-x="1271" 
d="M977 1331q137 -597 283 -1368v-6q0 -14 -17 -14q-309 0 -465 14q-11 2 -17 8.5t-7 26.5l-13 133q-25 -24 -67 -47t-53 -23q-17 0 -35 26.5t-25 51.5l-18 -119q-4 -25 -17.5 -34t-57.5 -13t-155 -4q-168 0 -235.5 5t-67.5 18q0 8 4 20q195 800 361 1329q7 21 49 26t197 5
q142 0 219 -3.5t105.5 -11t31.5 -20.5zM680 397q25 0 72 -61q-61 292 -90 389q-55 -159 -103 -397q95 69 121 69zM844 1475q-121 73 -182 159q-96 -42 -189 -157q-5 -7 -20 -7q-19 0 -68 44.5t-49 80.5q0 11 16 35q83 119 205 207q24 12 41 12q152 0 182 -30
q72 -100 199 -201q10 -10 10 -23q0 -18 -46 -71.5t-73 -53.5q-16 0 -26 5z" />
    <glyph glyph-name="Atilde" unicode="&#xc3;" horiz-adv-x="1271" 
d="M977 1331q137 -597 283 -1368v-6q0 -14 -17 -14q-309 0 -465 14q-11 2 -17 8.5t-7 26.5l-13 133q-25 -24 -67 -47t-53 -23q-17 0 -35 26.5t-25 51.5l-18 -119q-4 -25 -17.5 -34t-57.5 -13t-155 -4q-168 0 -235.5 5t-67.5 18q0 8 4 20q195 800 361 1329q7 21 49 26t197 5
q142 0 219 -3.5t105.5 -11t31.5 -20.5zM680 397q25 0 72 -61q-61 292 -90 389q-55 -159 -103 -397q95 69 121 69zM983 1782q0 -112 -12 -183q-81 -90 -199 -90q-55 0 -139 31t-115 31q-78 0 -143 -82q-8 -8 -19 -8q-26 0 -26 51q0 119 10 156q75 94 172 94q67 0 155.5 -32
t114.5 -32q100 0 156 78q10 10 20 10q8 0 16.5 -7t8.5 -17z" />
    <glyph glyph-name="Adieresis" unicode="&#xc4;" horiz-adv-x="1271" 
d="M977 1331q137 -597 283 -1368v-6q0 -14 -17 -14q-309 0 -465 14q-11 2 -17 8.5t-7 26.5l-13 133q-25 -24 -67 -47t-53 -23q-17 0 -35 26.5t-25 51.5l-18 -119q-4 -25 -17.5 -34t-57.5 -13t-155 -4q-168 0 -235.5 5t-67.5 18q0 8 4 20q195 800 361 1329q7 21 49 26t197 5
q142 0 219 -3.5t105.5 -11t31.5 -20.5zM680 397q25 0 72 -61q-61 292 -90 389q-55 -159 -103 -397q95 69 121 69zM748 1769q0 26 27 33.5t102 7.5q117 0 139 -9.5t22 -67.5q0 -139 -12 -209q-4 -18 -22.5 -23.5t-73.5 -5.5q-180 0 -180 39q0 21 2 66.5t2 68.5q0 17 -3 50
t-3 50zM313 1769q0 26 28 33.5t103 7.5q115 0 137.5 -9.5t22.5 -67.5q0 -139 -12 -209q-4 -19 -22 -24t-74 -5q-181 0 -181 39q0 21 2 66.5t2 68.5q0 17 -3 50t-3 50z" />
    <glyph glyph-name="Aring" unicode="&#xc5;" horiz-adv-x="1271" 
d="M977 1331q137 -597 283 -1368v-6q0 -14 -17 -14q-309 0 -465 14q-11 2 -17 8.5t-7 26.5l-13 133q-25 -24 -67 -47t-53 -23q-17 0 -35 26.5t-25 51.5l-18 -119q-4 -25 -17.5 -34t-57.5 -13t-155 -4q-168 0 -235.5 5t-67.5 18q0 8 4 20q195 800 361 1329q7 21 49 26t197 5
q142 0 219 -3.5t105.5 -11t31.5 -20.5zM680 397q25 0 72 -61q-61 292 -90 389q-55 -159 -103 -397q95 69 121 69zM678 1423q-82 0 -145.5 63t-63.5 159q0 91 52 144.5t157 53.5q103 0 154 -53.5t51 -144.5q0 -95 -62 -158.5t-143 -63.5zM756 1610q0 100 -76 100
q-80 0 -80 -100q0 -40 23.5 -69.5t56.5 -29.5q31 0 53.5 29.5t22.5 69.5z" />
    <glyph glyph-name="AE" unicode="&#xc6;" horiz-adv-x="1728" 
d="M1657 1350q0 -143 -11 -284.5t-27 -226.5t-30 -85q-5 0 -44.5 3t-116 6t-171.5 3q-6 -45 -6 -148q61 0 167.5 8.5t129.5 8.5q60 0 60 -29q-11 -65 -47 -176q-9 -22 -187 -22q-80 0 -127 2q-8 -74 -8 -158q77 -6 158 -6q30 0 88 3t86 3q16 0 16 -29q0 -139 -10 -227
q-2 -10 -36.5 -19t-132.5 -16.5t-247 -7.5q-186 0 -373 14q-7 1 -11 8t-7 40.5t-4 99.5q-30 -24 -74.5 -47t-56.5 -23q-17 0 -31 27t-16 51l-37 -119q-8 -25 -22.5 -34t-59 -13t-156.5 -4q-86 0 -139 1t-91 3.5t-53 6.5t-14 11l7 19q107 287 174 460.5t170 420.5t200 450
q11 23 176 32t600 9h297q17 0 17 -16zM741 387q13 0 25.5 -12t36.5 -49q-11 230 -35 387q-80 -162 -156 -396q104 70 129 70z" />
    <glyph glyph-name="Ccedilla" unicode="&#xc7;" horiz-adv-x="1234" 
d="M1171 817q0 -16 -18 -16q-1 0 -53 9t-119 9q-143 0 -226 -83.5t-83 -213.5q0 -125 81.5 -213t215.5 -88q57 0 97 13l40 12q10 0 17 -9.5t7 -25.5q0 -78 -8 -170q-1 -34 -94 -60t-209 -26q-117 0 -223 25t-202.5 81.5t-167.5 140t-112.5 208t-41.5 278.5q0 150 53.5 283.5
t148 231.5t230.5 155t293 57q130 0 197 -9t116 -28q29 -11 45 -179t16 -382zM750 -96q31 -3 65.5 -110t34.5 -152q0 -13 -12 -29q-11 -18 -20.5 -32t-20.5 -27.5t-17.5 -22t-20 -23t-20.5 -21t-26 -25.5l-29 -29q-25 -21 -39 -21q-15 0 -36 20.5t-21 35.5q0 6 6 12
q76 76 76 100q0 14 -17 14t-50 -14t-36 -14q-17 0 -58.5 77t-41.5 109q0 10 29 29q137 123 254 123z" />
    <glyph glyph-name="Egrave" unicode="&#xc8;" horiz-adv-x="1124" 
d="M1063 1350q0 -144 -10.5 -284.5t-26 -226t-29.5 -85.5q-6 0 -46 3t-116 6t-171 3q-5 -56 -5 -148q61 0 167 8.5t130 8.5q60 0 60 -29q-11 -65 -47 -176q-9 -22 -187 -22q-80 0 -127 2q-8 -49 -8 -158q77 -6 158 -6q29 0 87 3t87 3q16 0 16 -29q0 -139 -10 -227
q-8 -41 -428 -41q-252 0 -317.5 8.5t-71.5 50.5q-30 201 -59 686t-29 592q0 25 52.5 40.5t203.5 24.5t416 9h295q16 0 16 -16zM688 1442q-19 0 -39 4q-204 31 -360 100q-9 3 -17 11.5t-8 17.5q0 123 7.5 168t41.5 45q10 0 18.5 -2.5t15 -5.5t23 -12t33.5 -17
q165 -78 302 -119q30 -10 30 -35q0 -62 -11.5 -108.5t-35.5 -46.5z" />
    <glyph glyph-name="Eacute" unicode="&#xc9;" horiz-adv-x="1124" 
d="M1063 1350q0 -144 -10.5 -284.5t-26 -226t-29.5 -85.5q-6 0 -46 3t-116 6t-171 3q-5 -56 -5 -148q61 0 167 8.5t130 8.5q60 0 60 -29q-11 -65 -47 -176q-9 -22 -187 -22q-80 0 -127 2q-8 -49 -8 -158q77 -6 158 -6q29 0 87 3t87 3q16 0 16 -29q0 -139 -10 -227
q-8 -41 -428 -41q-252 0 -317.5 8.5t-71.5 50.5q-30 201 -59 686t-29 592q0 25 52.5 40.5t203.5 24.5t416 9h295q16 0 16 -16zM434 1442q-24 0 -35.5 46.5t-11.5 108.5q0 24 33 35q134 40 301 119q17 8 33.5 17t23 12t15 5.5t18.5 2.5q32 0 39.5 -45t7.5 -168
q0 -9 -6.5 -17.5t-15.5 -11.5q-160 -69 -361 -100q-24 -4 -41 -4z" />
    <glyph glyph-name="Ecircumflex" unicode="&#xca;" horiz-adv-x="1124" 
d="M1063 1350q0 -144 -10.5 -284.5t-26 -226t-29.5 -85.5q-6 0 -46 3t-116 6t-171 3q-5 -56 -5 -148q61 0 167 8.5t130 8.5q60 0 60 -29q-11 -65 -47 -176q-9 -22 -187 -22q-80 0 -127 2q-8 -49 -8 -158q77 -6 158 -6q29 0 87 3t87 3q16 0 16 -29q0 -139 -10 -227
q-8 -41 -428 -41q-252 0 -317.5 8.5t-71.5 50.5q-30 201 -59 686t-29 592q0 25 52.5 40.5t203.5 24.5t416 9h295q16 0 16 -16zM764 1475q-121 73 -182 159q-96 -42 -189 -157q-5 -7 -20 -7q-19 0 -68 44.5t-49 80.5q0 11 16 35q83 119 205 207q24 12 41 12q152 0 182 -30
q72 -100 199 -201q10 -10 10 -23q0 -18 -45.5 -71.5t-72.5 -53.5q-17 0 -27 5z" />
    <glyph glyph-name="Edieresis" unicode="&#xcb;" horiz-adv-x="1124" 
d="M1063 1350q0 -144 -10.5 -284.5t-26 -226t-29.5 -85.5q-6 0 -46 3t-116 6t-171 3q-5 -56 -5 -148q61 0 167 8.5t130 8.5q60 0 60 -29q-11 -65 -47 -176q-9 -22 -187 -22q-80 0 -127 2q-8 -49 -8 -158q77 -6 158 -6q29 0 87 3t87 3q16 0 16 -29q0 -139 -10 -227
q-8 -41 -428 -41q-252 0 -317.5 8.5t-71.5 50.5q-30 201 -59 686t-29 592q0 25 52.5 40.5t203.5 24.5t416 9h295q16 0 16 -16zM633 1769q0 26 27 33.5t102 7.5q117 0 139.5 -9.5t22.5 -67.5q0 -133 -13 -209q-4 -18 -22.5 -23.5t-73.5 -5.5q-180 0 -180 39q0 21 2 66.5
t2 68.5q0 17 -3 50t-3 50zM199 1769q0 26 28 33.5t103 7.5q115 0 137 -9.5t22 -67.5q0 -139 -12 -209q-4 -19 -22 -24t-74 -5q-180 0 -180 39q0 21 2 66.5t2 68.5q0 17 -3 50t-3 50z" />
    <glyph glyph-name="Igrave" unicode="&#xcc;" horiz-adv-x="800" 
d="M717 1333q-21 -778 -23 -866q-8 -289 -8 -475q0 -16 -6.5 -24.5t-13 -9.5t-17.5 -1q-55 -2 -164 -2q-141 0 -297 12q-22 2 -32 15.5t-11 48.5q-49 702 -49 1296q0 12 2 18t11.5 12t29.5 9q82 8 203 8q203 0 344 -16q19 -3 25 -7.5t6 -17.5zM526 1442q-19 0 -39 4
q-204 31 -360 100q-9 3 -17 11.5t-8 17.5q0 121 8 167t42 46q10 0 18.5 -2.5t15 -5.5t23 -12t33.5 -17q167 -79 301 -119q30 -10 30 -35q0 -62 -11.5 -108.5t-35.5 -46.5z" />
    <glyph glyph-name="Iacute" unicode="&#xcd;" horiz-adv-x="800" 
d="M717 1333q-21 -778 -23 -866q-8 -289 -8 -475q0 -16 -6.5 -24.5t-13 -9.5t-17.5 -1q-55 -2 -164 -2q-141 0 -297 12q-22 2 -32 15.5t-11 48.5q-49 702 -49 1296q0 12 2 18t11.5 12t29.5 9q82 8 203 8q203 0 344 -16q19 -3 25 -7.5t6 -17.5zM272 1442q-24 0 -35.5 46.5
t-11.5 108.5q0 24 33 35q134 40 301 119q17 8 33.5 17t23 12t15 5.5t18.5 2.5q32 0 39.5 -45t7.5 -168q0 -9 -6.5 -17.5t-15.5 -11.5q-160 -69 -361 -100q-24 -4 -41 -4z" />
    <glyph glyph-name="Icircumflex" unicode="&#xce;" horiz-adv-x="800" 
d="M717 1333q-21 -778 -23 -866q-8 -289 -8 -475q0 -16 -6.5 -24.5t-13 -9.5t-17.5 -1q-55 -2 -164 -2q-141 0 -297 12q-22 2 -32 15.5t-11 48.5q-49 702 -49 1296q0 12 2 18t11.5 12t29.5 9q82 8 203 8q203 0 344 -16q19 -3 25 -7.5t6 -17.5zM602 1475q-121 73 -182 159
q-96 -42 -189 -157q-5 -7 -20 -7q-19 0 -68 44.5t-49 80.5q0 9 17 35q84 120 204 207q24 12 41 12q153 0 183 -30q74 -102 198 -201q11 -11 11 -23q0 -18 -46 -71.5t-73 -53.5q-17 0 -27 5z" />
    <glyph glyph-name="Idieresis" unicode="&#xcf;" horiz-adv-x="800" 
d="M717 1333q-21 -778 -23 -866q-8 -289 -8 -475q0 -16 -6.5 -24.5t-13 -9.5t-17.5 -1q-55 -2 -164 -2q-141 0 -297 12q-22 2 -32 15.5t-11 48.5q-49 702 -49 1296q0 12 2 18t11.5 12t29.5 9q82 8 203 8q203 0 344 -16q19 -3 25 -7.5t6 -17.5zM473 1769q0 26 27 33.5
t102 7.5q117 0 139.5 -9.5t22.5 -67.5q0 -139 -12 -209q-4 -18 -23 -23.5t-74 -5.5q-180 0 -180 39q0 21 2 66.5t2 68.5q0 17 -3 50t-3 50zM39 1769q0 26 28 33.5t103 7.5q115 0 137.5 -9.5t22.5 -67.5q0 -133 -13 -209q-4 -19 -22 -24t-74 -5q-180 0 -180 39q0 21 2 66.5
t2 68.5q0 17 -3 50t-3 50z" />
    <glyph glyph-name="Eth" unicode="&#xd0;" horiz-adv-x="1296" 
d="M451 1401q359 0 571.5 -190t212.5 -502q0 -157 -43.5 -286.5t-118 -217.5t-175.5 -148.5t-213 -88t-234 -27.5q-82 0 -182.5 26t-110.5 60q-12 158 -23 385q-31 -4 -78 -4q-57 0 -57 28q11 82 47 178q7 13 80 19q-4 98 -4 301q0 226 8 401q1 27 10 39t27 15q76 12 283 12
zM864 524q0 127 -66.5 202.5t-187.5 78.5q-8 -68 -8 -158q16 1 54.5 3.5t54.5 2.5q57 0 57 -28q-11 -65 -47 -176q-7 -17 -121 -23q0 -141 2 -209q36 0 80.5 22t85.5 60t68.5 98t27.5 127z" />
    <glyph glyph-name="Ntilde" unicode="&#xd1;" horiz-adv-x="1269" 
d="M1167 1350q6 -20 7.5 -71.5t1.5 -242.5q0 -80 2 -248t2 -262q0 -436 -6 -477q-7 -73 -21 -84q-28 -16 -182 -16q-63 0 -92.5 0.5t-63.5 4t-46.5 8t-31 17.5t-27.5 27t-26 41q-102 163 -274 375q2 -107 9 -232t7 -172q0 -30 -8.5 -42.5t-37.5 -18.5t-97 -6q-94 0 -126 4
t-44 18q-17 15 -17 115q0 39 -3 499.5t-3 717.5q0 36 13.5 47t56.5 14q148 8 225 8q48 0 71.5 -6.5t41.5 -24.5q171 -163 340 -458q0 69 -3.5 211t-3.5 209q0 49 13 59q13 8 133 8q68 0 103.5 -1t55.5 -3.5t24.5 -6t6.5 -11.5zM961 1782q0 -107 -13 -183q-81 -90 -198 -90
q-55 0 -139 31t-115 31q-79 0 -144 -82q-8 -8 -18 -8q-27 0 -27 51q0 119 10 156q75 94 172 94q67 0 156 -32t115 -32q99 0 155 78q10 10 21 10q8 0 16.5 -7t8.5 -17z" />
    <glyph glyph-name="Ograve" unicode="&#xd2;" horiz-adv-x="1343" 
d="M682 1413q142 0 256.5 -53.5t188 -146.5t112.5 -214.5t39 -261.5q0 -120 -24 -234t-73.5 -214.5t-119.5 -175.5t-168.5 -118.5t-214.5 -43.5q-278 0 -445 210t-167 562q0 199 73 354.5t214 245.5t329 90zM668 295q59 0 96 74t37 188q0 102 -29.5 145t-95.5 43
q-81 0 -111 -42t-30 -146q0 -114 38 -188t95 -74zM799 1442q-19 0 -39 4q-206 31 -361 100q-9 3 -16.5 11.5t-7.5 17.5q0 123 7.5 168t41.5 45q10 0 18.5 -2.5t15 -5.5t23 -12t33.5 -17q167 -79 301 -119q31 -11 31 -35q0 -62 -11.5 -108.5t-35.5 -46.5z" />
    <glyph glyph-name="Oacute" unicode="&#xd3;" horiz-adv-x="1343" 
d="M682 1413q142 0 256.5 -53.5t188 -146.5t112.5 -214.5t39 -261.5q0 -120 -24 -234t-73.5 -214.5t-119.5 -175.5t-168.5 -118.5t-214.5 -43.5q-278 0 -445 210t-167 562q0 199 73 354.5t214 245.5t329 90zM668 295q59 0 96 74t37 188q0 102 -29.5 145t-95.5 43
q-81 0 -111 -42t-30 -146q0 -114 38 -188t95 -74zM545 1442q-24 0 -35.5 46.5t-11.5 108.5q0 24 32 35q134 40 301 119q17 8 33.5 17t23 12t15.5 5.5t19 2.5q32 0 39.5 -45t7.5 -168q0 -21 -23 -29q-160 -70 -360 -100q-24 -4 -41 -4z" />
    <glyph glyph-name="Ocircumflex" unicode="&#xd4;" horiz-adv-x="1343" 
d="M682 1413q142 0 256.5 -53.5t188 -146.5t112.5 -214.5t39 -261.5q0 -120 -24 -234t-73.5 -214.5t-119.5 -175.5t-168.5 -118.5t-214.5 -43.5q-278 0 -445 210t-167 562q0 199 73 354.5t214 245.5t329 90zM668 295q59 0 96 74t37 188q0 102 -29.5 145t-95.5 43
q-81 0 -111 -42t-30 -146q0 -114 38 -188t95 -74zM852 1475q-121 73 -182 159q-96 -42 -189 -157q-5 -7 -20 -7q-19 0 -68 44.5t-49 80.5q0 11 16 35q83 119 205 207q24 12 41 12q152 0 182 -30q72 -100 199 -201q10 -10 10 -23q0 -18 -45.5 -71.5t-72.5 -53.5q-17 0 -27 5z
" />
    <glyph glyph-name="Otilde" unicode="&#xd5;" horiz-adv-x="1343" 
d="M682 1413q142 0 256.5 -53.5t188 -146.5t112.5 -214.5t39 -261.5q0 -120 -24 -234t-73.5 -214.5t-119.5 -175.5t-168.5 -118.5t-214.5 -43.5q-278 0 -445 210t-167 562q0 199 73 354.5t214 245.5t329 90zM668 295q59 0 96 74t37 188q0 102 -29.5 145t-95.5 43
q-81 0 -111 -42t-30 -146q0 -114 38 -188t95 -74zM997 1782q0 -112 -12 -183q-81 -90 -199 -90q-55 0 -139 31t-115 31q-78 0 -143 -82q-8 -8 -18 -8q-27 0 -27 51q0 119 10 156q75 94 172 94q67 0 156 -32t115 -32q99 0 155 78q10 10 21 10q8 0 16 -7t8 -17z" />
    <glyph glyph-name="Odieresis" unicode="&#xd6;" horiz-adv-x="1343" 
d="M682 1413q142 0 256.5 -53.5t188 -146.5t112.5 -214.5t39 -261.5q0 -120 -24 -234t-73.5 -214.5t-119.5 -175.5t-168.5 -118.5t-214.5 -43.5q-278 0 -445 210t-167 562q0 199 73 354.5t214 245.5t329 90zM668 295q59 0 96 74t37 188q0 102 -29.5 145t-95.5 43
q-81 0 -111 -42t-30 -146q0 -114 38 -188t95 -74zM743 1769q0 26 27 33.5t102 7.5q117 0 139.5 -9.5t22.5 -67.5q0 -139 -12 -209q-4 -18 -22.5 -23.5t-73.5 -5.5q-181 0 -181 39q0 21 2.5 66.5t2.5 68.5q0 17 -3.5 50t-3.5 50zM309 1769q0 26 28 33.5t103 7.5
q115 0 137.5 -9.5t22.5 -67.5q0 -139 -12 -209q-4 -19 -22 -24t-74 -5q-181 0 -181 39q0 21 2 66.5t2 68.5q0 17 -3 50t-3 50z" />
    <glyph glyph-name="multiply" unicode="&#xd7;" horiz-adv-x="987" 
d="M858 385l-141 -88q-4 -2 -8 -2q-7 0 -11 4l-204 207l-222 -221q-2 -2 -8 -2q-8 0 -12 2l-131 104q-6 3 -6 10q0 6 6 9l235 235l-221 219q-4 2 -4 10q0 7 4 11l103 133q2 0 6 2t6 2l8 -4l236 -236l231 236q2 0 6 2t6 2t8.5 -4.5t6.5 -7.5l86 -142l4 -8q0 -7 -6 -10
l-205 -205l233 -233q0 -1 3 -5t3 -6q0 -4 -4.5 -9t-7.5 -5z" />
    <glyph glyph-name="Oslash" unicode="&#xd8;" horiz-adv-x="1343" 
d="M1192 1427q25 -18 69 -75.5t44 -87.5q0 -3 -4.5 -10.5t-16 -22.5t-22.5 -29.5t-32.5 -41.5t-37.5 -48q86 -164 86 -375q0 -120 -24 -234t-73.5 -214.5t-119.5 -175.5t-168.5 -118.5t-214.5 -43.5q-169 0 -297 78q-14 -20 -32 -46.5t-29.5 -44t-23.5 -34.5t-20.5 -25
t-13.5 -8q-24 0 -98 37.5t-74 54.5q0 4 3.5 11.5t12 20.5t16.5 24.5t23 32t25.5 34t29.5 39t29 39.5q-163 208 -163 559q0 199 73 354.5t214 245.5t329 90q230 0 379 -133q112 147 123 147h8zM668 258q82 0 132 103t50 260q0 26 -2 38q-159 -194 -268 -362q42 -39 88 -39z
M483 621q0 -55 6 -101q160 189 263 350q-33 13 -72 13q-112 0 -154.5 -58.5t-42.5 -203.5z" />
    <glyph glyph-name="Ugrave" unicode="&#xd9;" horiz-adv-x="1243" 
d="M1178 1346q4 -10 4 -29q0 -90 -13.5 -408t-13.5 -428q0 -100 -13 -176t-48.5 -144.5t-94.5 -112.5t-153.5 -69.5t-222.5 -25.5q-285 0 -414 129t-129 397q0 162 -4 452.5t-4 342.5q0 36 9.5 50.5t37.5 18.5q129 21 270 21q132 0 234 -2q58 -2 75 -13t17 -59
q0 -148 -6.5 -458t-6.5 -459q0 -92 72 -92q28 0 46 13.5t25 40t9 46.5t2 53q0 134 -4 427.5t-4 453.5q0 39 23 49t110 10q112 0 150.5 -6t46.5 -22zM768 1442q-19 0 -39 4q-204 31 -360 100q-9 3 -17 11.5t-8 17.5q0 123 7.5 168t41.5 45q10 0 18.5 -2.5t15 -5.5t23 -12
t33.5 -17q167 -79 301 -119q31 -11 31 -35q0 -62 -11.5 -108.5t-35.5 -46.5z" />
    <glyph glyph-name="Uacute" unicode="&#xda;" horiz-adv-x="1243" 
d="M1178 1346q4 -10 4 -29q0 -90 -13.5 -408t-13.5 -428q0 -100 -13 -176t-48.5 -144.5t-94.5 -112.5t-153.5 -69.5t-222.5 -25.5q-285 0 -414 129t-129 397q0 162 -4 452.5t-4 342.5q0 36 9.5 50.5t37.5 18.5q129 21 270 21q132 0 234 -2q58 -2 75 -13t17 -59
q0 -148 -6.5 -458t-6.5 -459q0 -92 72 -92q28 0 46 13.5t25 40t9 46.5t2 53q0 134 -4 427.5t-4 453.5q0 39 23 49t110 10q112 0 150.5 -6t46.5 -22zM494 1442q-24 0 -36 47t-12 108q0 24 33 35q134 40 301 119q17 8 33.5 17t23 12t15 5.5t18.5 2.5q32 0 40 -46t8 -167
q0 -21 -23 -29q-160 -70 -360 -100q-24 -4 -41 -4z" />
    <glyph glyph-name="Ucircumflex" unicode="&#xdb;" horiz-adv-x="1243" 
d="M1178 1346q4 -10 4 -29q0 -90 -13.5 -408t-13.5 -428q0 -100 -13 -176t-48.5 -144.5t-94.5 -112.5t-153.5 -69.5t-222.5 -25.5q-285 0 -414 129t-129 397q0 162 -4 452.5t-4 342.5q0 36 9.5 50.5t37.5 18.5q129 21 270 21q132 0 234 -2q58 -2 75 -13t17 -59
q0 -148 -6.5 -458t-6.5 -459q0 -92 72 -92q28 0 46 13.5t25 40t9 46.5t2 53q0 134 -4 427.5t-4 453.5q0 39 23 49t110 10q112 0 150.5 -6t46.5 -22zM844 1475q-121 73 -182 159q-96 -42 -189 -157q-5 -7 -20 -7q-19 0 -68 44.5t-49 80.5q0 11 16 35q83 119 205 207
q24 12 41 12q152 0 182 -30q72 -100 199 -201q10 -10 10 -23q0 -18 -46 -71.5t-73 -53.5q-16 0 -26 5z" />
    <glyph glyph-name="Udieresis" unicode="&#xdc;" horiz-adv-x="1243" 
d="M1178 1346q4 -10 4 -29q0 -90 -13.5 -408t-13.5 -428q0 -100 -13 -176t-48.5 -144.5t-94.5 -112.5t-153.5 -69.5t-222.5 -25.5q-285 0 -414 129t-129 397q0 162 -4 452.5t-4 342.5q0 36 9.5 50.5t37.5 18.5q129 21 270 21q132 0 234 -2q58 -2 75 -13t17 -59
q0 -148 -6.5 -458t-6.5 -459q0 -92 72 -92q28 0 46 13.5t25 40t9 46.5t2 53q0 134 -4 427.5t-4 453.5q0 39 23 49t110 10q112 0 150.5 -6t46.5 -22zM733 1769q0 26 27 33.5t102 7.5q117 0 139.5 -9.5t22.5 -67.5q0 -139 -12 -209q-4 -18 -23 -23.5t-74 -5.5q-180 0 -180 39
q0 21 2 66.5t2 68.5q0 17 -3 50t-3 50zM299 1769q0 26 28 33.5t103 7.5q115 0 137.5 -9.5t22.5 -67.5q0 -139 -12 -209q-4 -19 -22.5 -24t-74.5 -5q-180 0 -180 39q0 21 2 66.5t2 68.5q0 17 -3 50t-3 50z" />
    <glyph glyph-name="Yacute" unicode="&#xdd;" horiz-adv-x="1220" 
d="M1198 1348q16 -5 16 -27q0 -17 -4 -23q-151 -327 -340 -651q11 -143 11 -317q0 -188 -11 -346q0 -19 -18 -19q-109 -8 -242 -8q-134 0 -241 8q-19 3 -19 19q8 230 8 344q0 180 -8 319q-85 135 -132 213t-109 200.5t-99 229.5q-4 20 -4 27q0 30 25 33q215 20 448 20
q33 0 41 -10q35 -131 131 -348q74 174 129 334q5 15 29 20.5t98 5.5q210 0 291 -24zM504 1442q-24 0 -35.5 46.5t-11.5 108.5q0 24 32 35q137 41 302 119q17 8 33.5 17t23 12t15 5.5t18.5 2.5q32 0 39.5 -45t7.5 -168q0 -21 -23 -29q-160 -70 -360 -100q-24 -4 -41 -4z" />
    <glyph glyph-name="Thorn" unicode="&#xde;" horiz-adv-x="1452" 
d="M711 1331v-76q0 -127 -13 -276q27 2 76 2q106 0 196 -15t154 -40t115 -60t83 -72.5t53 -80t29.5 -80.5t8.5 -76q0 -94 -37 -172.5t-98 -130.5t-140.5 -88t-163 -52t-167.5 -16q-51 0 -76 2l-10 -77q-6 -34 -27 -46.5t-82 -15.5q-132 -4 -202 -4q-120 0 -234 6
q-24 1 -31.5 14.5t-7.5 47.5q0 200 -23.5 615t-23.5 640q0 41 9 59t34 21q79 8 311 8q140 0 228 -6q34 -3 39 -31zM987 399q0 44 -41.5 69.5t-101.5 25.5q-20 0 -60 -9l-32 -233q114 0 174.5 37t60.5 110z" />
    <glyph glyph-name="germandbls" unicode="&#xdf;" horiz-adv-x="1679" 
d="M713 1108q22 -96 36.5 -213t14.5 -190q0 -29 -29 -29q-13 0 -25.5 1t-15.5 1q-52 0 -77 -20.5t-25 -53.5q0 -28 24 -61q50 -72 76.5 -130t26.5 -118q0 -166 -124.5 -247t-336.5 -81q-38 0 -54 6.5t-20 28.5q-20 74 -20 143q0 33 29 33q2 0 20 -1t31 -1q114 0 114 72
q0 32 -21 58.5t-77 70.5q-100 80 -148.5 169t-48.5 202q0 86 30 155.5t93.5 124.5t171.5 85t254 30q48 0 72.5 -7t28.5 -28zM1552 1108q23 -97 37.5 -214t14.5 -189q0 -29 -29 -29q-13 0 -25.5 1t-15.5 1q-52 0 -77 -20.5t-25 -53.5q0 -28 24 -61q50 -72 76.5 -130
t26.5 -118q0 -166 -124.5 -247t-336.5 -81q-38 0 -54 6.5t-20 28.5q-20 74 -20 143q0 33 28 33q2 0 20 -1t31 -1q115 0 115 72q0 32 -21 58.5t-77 70.5q-100 80 -148.5 169t-48.5 202q0 86 30 155.5t93.5 124.5t171.5 85t254 30q47 0 71.5 -7t28.5 -28z" />
    <glyph glyph-name="agrave" unicode="&#xe0;" horiz-adv-x="1052" 
d="M801 1053q125 -548 217 -1065q0 -33 -31 -33q-233 0 -354 12q-10 3 -15 5.5t-10.5 11t-7.5 24.5q-6 37 -8 74q-22 -16 -49 -27.5t-35 -11.5q-9 0 -24 8t-21 17l-8 -43q-2 -17 -5 -24t-11 -14.5t-30.5 -9t-53 -3t-89.5 -1.5q-86 0 -129.5 1t-72.5 5t-36.5 11t-7.5 20
q0 9 3 27q125 533 276 1022q9 24 43 28.5t166 4.5q169 0 228 -8.5t65 -30.5zM563 317q13 0 35 -10q-15 93 -61 250q-36 -115 -70 -281q48 28 63 34.5t33 6.5zM674 1169q-14 0 -39 5q-206 31 -361 100q-9 3 -16.5 11.5t-7.5 17.5q0 123 7.5 168t41.5 45q10 0 18.5 -2.5
t15 -5.5t23 -12t33.5 -17q167 -79 301 -119q31 -11 31 -35q0 -62 -11.5 -109t-35.5 -47z" />
    <glyph glyph-name="aacute" unicode="&#xe1;" horiz-adv-x="1052" 
d="M801 1053q125 -548 217 -1065q0 -33 -31 -33q-233 0 -354 12q-10 3 -15 5.5t-10.5 11t-7.5 24.5q-6 37 -8 74q-22 -16 -49 -27.5t-35 -11.5q-9 0 -24 8t-21 17l-8 -43q-2 -17 -5 -24t-11 -14.5t-30.5 -9t-53 -3t-89.5 -1.5q-86 0 -129.5 1t-72.5 5t-36.5 11t-7.5 20
q0 9 3 27q125 533 276 1022q9 24 43 28.5t166 4.5q169 0 228 -8.5t65 -30.5zM563 317q13 0 35 -10q-15 93 -61 250q-36 -115 -70 -281q48 28 63 34.5t33 6.5zM420 1169q-24 0 -35.5 47t-11.5 109q0 24 33 35q134 40 301 119q17 8 33.5 17t23 12t15 5.5t18.5 2.5
q32 0 39.5 -45t7.5 -168q0 -21 -23 -29q-160 -70 -360 -100q-30 -5 -41 -5z" />
    <glyph glyph-name="acircumflex" unicode="&#xe2;" horiz-adv-x="1052" 
d="M801 1053q125 -548 217 -1065q0 -33 -31 -33q-233 0 -354 12q-10 3 -15 5.5t-10.5 11t-7.5 24.5q-6 37 -8 74q-22 -16 -49 -27.5t-35 -11.5q-9 0 -24 8t-21 17l-8 -43q-2 -17 -5 -24t-11 -14.5t-30.5 -9t-53 -3t-89.5 -1.5q-86 0 -129.5 1t-72.5 5t-36.5 11t-7.5 20
q0 9 3 27q125 533 276 1022q9 24 43 28.5t166 4.5q169 0 228 -8.5t65 -30.5zM563 317q13 0 35 -10q-15 93 -61 250q-36 -115 -70 -281q48 28 63 34.5t33 6.5zM727 1202q-120 72 -182 160q-94 -42 -189 -158q-4 -6 -20 -6q-19 0 -68 44.5t-49 80.5q0 9 17 35q84 120 204 207
q24 12 41 12q152 0 183 -31q72 -100 198 -200q10 -10 10 -23q0 -18 -45.5 -71.5t-72.5 -53.5q-19 0 -27 4z" />
    <glyph glyph-name="atilde" unicode="&#xe3;" horiz-adv-x="1052" 
d="M801 1053q125 -548 217 -1065q0 -33 -31 -33q-233 0 -354 12q-10 3 -15 5.5t-10.5 11t-7.5 24.5q-6 37 -8 74q-22 -16 -49 -27.5t-35 -11.5q-9 0 -24 8t-21 17l-8 -43q-2 -17 -5 -24t-11 -14.5t-30.5 -9t-53 -3t-89.5 -1.5q-86 0 -129.5 1t-72.5 5t-36.5 11t-7.5 20
q0 9 3 27q125 533 276 1022q9 24 43 28.5t166 4.5q169 0 228 -8.5t65 -30.5zM563 317q13 0 35 -10q-15 93 -61 250q-36 -115 -70 -281q48 28 63 34.5t33 6.5zM872 1509q0 -111 -12 -182q-81 -90 -198 -90q-55 0 -139 30.5t-115 30.5q-80 0 -144 -81q-9 -9 -18 -9
q-27 0 -27 52q0 118 10 155q75 94 172 94q67 0 156 -31.5t115 -31.5q99 0 155 78q10 10 21 10q8 0 16 -7.5t8 -17.5z" />
    <glyph glyph-name="adieresis" unicode="&#xe4;" horiz-adv-x="1052" 
d="M801 1053q125 -548 217 -1065q0 -33 -31 -33q-233 0 -354 12q-10 3 -15 5.5t-10.5 11t-7.5 24.5q-6 37 -8 74q-22 -16 -49 -27.5t-35 -11.5q-9 0 -24 8t-21 17l-8 -43q-2 -17 -5 -24t-11 -14.5t-30.5 -9t-53 -3t-89.5 -1.5q-86 0 -129.5 1t-72.5 5t-36.5 11t-7.5 20
q0 9 3 27q125 533 276 1022q9 24 43 28.5t166 4.5q169 0 228 -8.5t65 -30.5zM563 317q13 0 35 -10q-15 93 -61 250q-36 -115 -70 -281q48 28 63 34.5t33 6.5zM618 1497q0 26 27.5 33.5t102.5 7.5q113 0 134 -8q23 -9 26 -43q1 -10 1 -27q0 -138 -12 -209q-4 -18 -22 -23
t-74 -5q-180 0 -180 39q0 21 2 66.5t2 68.5q0 17 -3.5 50t-3.5 50zM184 1497q0 26 28 33.5t103 7.5q115 0 137.5 -10t22.5 -68q0 -138 -12 -209q-4 -18 -21.5 -23t-74.5 -5q-181 0 -181 39q0 21 2 66.5t2 68.5q0 16 -3 49.5t-3 50.5z" />
    <glyph glyph-name="aring" unicode="&#xe5;" horiz-adv-x="1052" 
d="M801 1053q125 -548 217 -1065q0 -33 -31 -33q-233 0 -354 12q-10 3 -15 5.5t-10.5 11t-7.5 24.5q-6 37 -8 74q-22 -16 -49 -27.5t-35 -11.5q-9 0 -24 8t-21 17l-8 -43q-2 -17 -5 -24t-11 -14.5t-30.5 -9t-53 -3t-89.5 -1.5q-86 0 -129.5 1t-72.5 5t-36.5 11t-7.5 20
q0 9 3 27q125 533 276 1022q9 24 43 28.5t166 4.5q169 0 228 -8.5t65 -30.5zM563 317q13 0 35 -10q-15 93 -61 250q-36 -115 -70 -281q48 28 63 34.5t33 6.5zM541 1151q-82 0 -145.5 62.5t-63.5 158.5q0 91 52.5 145t156.5 54q103 0 153.5 -54t50.5 -145q0 -95 -61.5 -158
t-142.5 -63zM618 1337q0 101 -75 101q-80 0 -80 -101q0 -40 23.5 -69t56.5 -29q31 0 53 29t22 69z" />
    <glyph glyph-name="ae" unicode="&#xe6;" horiz-adv-x="1419" 
d="M1329 1063q0 -116 -10.5 -229t-27 -181.5t-31.5 -68.5q-2 0 -75 4t-167 4q-2 -25 -2 -88q26 1 73.5 4.5t82.5 5.5t57 2q34 0 47.5 -10t13.5 -31q-5 -33 -37 -125q-11 -28 -161 -28h-82q-4 -25 -4 -93q35 -4 104 -4q21 0 65.5 3t69.5 3q29 0 29 -41q0 -125 -8 -178
q-3 -12 -31.5 -22t-108.5 -18.5t-200 -8.5q-163 0 -281 12q-16 2 -25 20t-12 77q-65 -37 -86 -37q-13 0 -27 6t-18 16l-12 -41q-8 -26 -18.5 -34.5t-47.5 -13.5t-129 -5q-140 0 -193.5 7t-53.5 26q136 438 428 1055q11 25 141.5 34t476.5 9h229q14 0 22.5 -9t8.5 -22z
M600 317q19 0 35 -16q-2 90 -21 236q-54 -118 -98 -256q55 36 84 36z" />
    <glyph glyph-name="ccedilla" unicode="&#xe7;" horiz-adv-x="1024" 
d="M950 649q0 -31 -30 -31q-5 0 -20 4t-44.5 7.5t-69.5 3.5q-103 0 -162 -59t-59 -154q0 -89 57.5 -151t153.5 -62q42 0 73 9t34 9q13 0 25 -12.5t12 -30.5q0 -71 -7 -135q-3 -32 -80 -57t-171 -25t-178.5 20t-162 65t-133.5 112t-89 166.5t-33 222.5q0 160 73.5 292
t208 209.5t301.5 77.5q103 0 153.5 -7t90.5 -23q27 -11 42 -144.5t15 -306.5zM643 -96q31 -3 65.5 -110t34.5 -152q0 -13 -12 -29q-10 -16 -19 -29.5t-16 -23t-17 -21.5t-15.5 -18.5t-18.5 -20t-18 -19t-23 -23t-26 -25.5q-25 -21 -39 -21q-15 0 -36.5 20.5t-21.5 35.5
q0 6 6 12q76 76 76 100q0 14 -16 14q-17 0 -50 -14t-36 -14q-17 0 -59 77t-42 109q0 10 29 29q137 123 254 123z" />
    <glyph glyph-name="egrave" unicode="&#xe8;" horiz-adv-x="935" 
d="M866 1063q0 -114 -11 -228t-27 -182.5t-29 -68.5q-9 0 -37.5 2t-83 4t-123.5 2q-2 -23 -2 -86q87 3 150 7.5t83 4.5q43 0 43 -43q-13 -88 -38 -129q-21 -27 -160 -27h-84q-4 -50 -4 -90q37 -4 106 -4q21 0 65 3t70 3q31 0 31 -41q0 -113 -10 -182q-7 -43 -348 -43
q-203 0 -258.5 9t-61.5 51q-23 156 -45 534t-22 459q0 25 42 41t163 25.5t331 9.5h230q30 0 30 -31zM594 1169q-14 0 -39 5q-204 31 -360 100q-9 3 -17 11.5t-8 17.5q0 123 7.5 168t41.5 45q10 0 18.5 -2.5t15 -5.5t23 -12t33.5 -17q167 -79 301 -119q31 -11 31 -35
q0 -62 -11.5 -109t-35.5 -47z" />
    <glyph glyph-name="eacute" unicode="&#xe9;" horiz-adv-x="935" 
d="M866 1063q0 -114 -11 -228t-27 -182.5t-29 -68.5q-9 0 -37.5 2t-83 4t-123.5 2q-2 -23 -2 -86q87 3 150 7.5t83 4.5q43 0 43 -43q-13 -88 -38 -129q-21 -27 -160 -27h-84q-4 -50 -4 -90q37 -4 106 -4q21 0 65 3t70 3q31 0 31 -41q0 -113 -10 -182q-7 -43 -348 -43
q-203 0 -258.5 9t-61.5 51q-23 156 -45 534t-22 459q0 25 42 41t163 25.5t331 9.5h230q30 0 30 -31zM340 1169q-24 0 -35.5 47t-11.5 109q0 24 33 35q134 40 301 119q17 8 33.5 17t23 12t15 5.5t18.5 2.5q32 0 39.5 -45t7.5 -168q0 -21 -23 -29q-160 -70 -360 -100
q-30 -5 -41 -5z" />
    <glyph glyph-name="ecircumflex" unicode="&#xea;" horiz-adv-x="935" 
d="M866 1063q0 -114 -11 -228t-27 -182.5t-29 -68.5q-9 0 -37.5 2t-83 4t-123.5 2q-2 -23 -2 -86q87 3 150 7.5t83 4.5q43 0 43 -43q-13 -88 -38 -129q-21 -27 -160 -27h-84q-4 -50 -4 -90q37 -4 106 -4q21 0 65 3t70 3q31 0 31 -41q0 -113 -10 -182q-7 -43 -348 -43
q-203 0 -258.5 9t-61.5 51q-23 156 -45 534t-22 459q0 25 42 41t163 25.5t331 9.5h230q30 0 30 -31zM649 1202q-120 72 -182 160q-93 -41 -188 -158q-4 -6 -21 -6q-19 0 -68 44.5t-49 80.5q0 9 17 35q84 120 204 207q24 12 41 12q152 0 183 -31q72 -100 198 -200
q11 -11 11 -23q0 -18 -46 -71.5t-73 -53.5q-19 0 -27 4z" />
    <glyph glyph-name="edieresis" unicode="&#xeb;" horiz-adv-x="935" 
d="M866 1063q0 -114 -11 -228t-27 -182.5t-29 -68.5q-9 0 -37.5 2t-83 4t-123.5 2q-2 -23 -2 -86q87 3 150 7.5t83 4.5q43 0 43 -43q-13 -88 -38 -129q-21 -27 -160 -27h-84q-4 -50 -4 -90q37 -4 106 -4q21 0 65 3t70 3q31 0 31 -41q0 -113 -10 -182q-7 -43 -348 -43
q-203 0 -258.5 9t-61.5 51q-23 156 -45 534t-22 459q0 25 42 41t163 25.5t331 9.5h230q30 0 30 -31zM539 1497q0 26 27 33.5t102 7.5q113 0 134 -8q23 -9 26 -43q1 -10 1 -27q0 -138 -12 -209q-4 -18 -22 -23t-74 -5q-180 0 -180 39q0 21 2 66.5t2 68.5q0 16 -3 49.5
t-3 50.5zM104 1497q0 26 28.5 33.5t103.5 7.5q114 0 136.5 -10t22.5 -68q0 -138 -12 -209q-4 -18 -21.5 -23t-74.5 -5q-181 0 -181 39q0 21 2.5 66.5t2.5 68.5q0 17 -3.5 50t-3.5 50z" />
    <glyph glyph-name="igrave" unicode="&#xec;" horiz-adv-x="677" 
d="M596 1049q0 -1 -2.5 -71.5t-7 -236t-8.5 -362.5q-7 -276 -7 -367q0 -45 -45 -45q-39 -2 -127 -2q-131 0 -233 10q-44 3 -49 64q-37 557 -37 1008q0 20 9 30.5t40 14.5q41 8 158 8q137 0 270 -13q24 -5 31.5 -11.5t7.5 -26.5zM467 1169q-14 0 -39 5q-204 31 -360 100
q-9 3 -17 11.5t-8 17.5q0 123 7.5 168t41.5 45q10 0 18.5 -2.5t15 -5.5t23 -12t33.5 -17q167 -79 301 -119q31 -11 31 -35q0 -62 -11.5 -109t-35.5 -47z" />
    <glyph glyph-name="iacute" unicode="&#xed;" horiz-adv-x="677" 
d="M596 1049q0 -1 -2.5 -71.5t-7 -236t-8.5 -362.5q-7 -276 -7 -367q0 -45 -45 -45q-39 -2 -127 -2q-131 0 -233 10q-44 3 -49 64q-37 557 -37 1008q0 20 9 30.5t40 14.5q41 8 158 8q137 0 270 -13q24 -5 31.5 -11.5t7.5 -26.5zM211 1169q-24 0 -35.5 47t-11.5 109
q0 24 33 35q134 40 301 119q17 8 33.5 17t23 12t15 5.5t18.5 2.5q32 0 39.5 -45t7.5 -168q0 -21 -23 -29q-160 -70 -360 -100q-30 -5 -41 -5z" />
    <glyph glyph-name="icircumflex" unicode="&#xee;" horiz-adv-x="677" 
d="M596 1049q0 -1 -2.5 -71.5t-7 -236t-8.5 -362.5q-7 -276 -7 -367q0 -45 -45 -45q-39 -2 -127 -2q-131 0 -233 10q-44 3 -49 64q-37 557 -37 1008q0 20 9 30.5t40 14.5q41 8 158 8q137 0 270 -13q24 -5 31.5 -11.5t7.5 -26.5zM539 1202q-122 73 -183 160
q-93 -41 -188 -158q-4 -6 -21 -6q-19 0 -67.5 44.5t-48.5 80.5q0 11 16 35q83 119 205 207q24 12 41 12q151 0 182 -31q71 -98 199 -200q10 -10 10 -23q0 -18 -46 -71.5t-73 -53.5q-18 0 -26 4z" />
    <glyph glyph-name="idieresis" unicode="&#xef;" horiz-adv-x="753" 
d="M629 1049l-3 -71q-2 -72 -7 -237t-9 -362q-6 -237 -6 -367q0 -45 -45 -45q-39 -2 -127 -2q-131 0 -233 10q-44 3 -49 64q-37 557 -37 1008q0 20 9 30.5t40 14.5q41 8 157 8q138 0 271 -13q24 -5 31.5 -11.5t7.5 -26.5zM444 1497q0 26 27 33.5t102 7.5q117 0 139.5 -10
t22.5 -68q0 -138 -12 -209q-4 -18 -22 -23t-74 -5q-181 0 -181 39q0 21 2.5 66.5t2.5 68.5q0 17 -3.5 50t-3.5 50zM10 1497q0 26 28 33.5t103 7.5q115 0 137.5 -10t22.5 -68q0 -138 -12 -209q-4 -18 -21.5 -23t-74.5 -5q-181 0 -181 39q0 21 2 66.5t2 68.5q0 16 -3 49.5
t-3 50.5z" />
    <glyph glyph-name="eth" unicode="&#xf0;" horiz-adv-x="1073" 
d="M375 1120q285 0 454.5 -152t169.5 -401q0 -125 -35 -228.5t-94 -173.5t-139.5 -118t-169.5 -70t-186 -22q-79 0 -157.5 22t-88.5 54q-1 35 -7 132t-7 152h-43q-64 0 -64 43q13 74 37 138q7 20 57 26v217q0 226 9 316q3 47 46.5 56t217.5 9zM688 422q0 94 -39.5 146.5
t-134.5 56.5q-4 -70 -4 -88q38 6 51 6q64 0 64 -43q-7 -56 -37 -144q-10 -20 -78 -26v-125q80 20 129 74.5t49 142.5z" />
    <glyph glyph-name="ntilde" unicode="&#xf1;" horiz-adv-x="1050" 
d="M948 1069q6 -23 6 -250v-710q0 -82 -3 -101.5t-19 -30.5q-9 -6 -18 -9t-41.5 -5t-94.5 -2q-135 0 -164 7t-53 46q-82 134 -201 283q2 -58 8.5 -142.5t6.5 -123.5q0 -43 -22 -56.5t-107 -13.5q-117 0 -144 21q-20 16 -20 102q0 22 -1 385.5t-1 558.5q0 39 12.5 50.5
t52.5 13.5q120 8 179 8q43 0 62.5 -6.5t37.5 -24.5q116 -110 233 -299q0 38 -3 126t-3 132t19 59q14 11 114 11q73 0 105.5 -3t42.5 -8t16 -18zM852 1509q0 -111 -12 -182q-81 -90 -199 -90q-55 0 -139 30.5t-115 30.5q-79 0 -143 -81q-9 -9 -19 -9q-26 0 -26 52
q0 118 10 155q75 94 172 94q67 0 155.5 -31.5t114.5 -31.5q100 0 156 78q10 10 20 10q8 0 16.5 -7.5t8.5 -17.5z" />
    <glyph glyph-name="ograve" unicode="&#xf2;" horiz-adv-x="1110" 
d="M555 1128q114 0 205.5 -42.5t150 -117t90 -171.5t31.5 -209q0 -96 -19 -187t-58.5 -171t-96 -139.5t-135.5 -94.5t-172 -35q-222 0 -357 167t-135 447q0 243 134.5 398t361.5 155zM543 262q38 0 62 54t24 133q0 69 -19 97.5t-61 28.5q-52 0 -71 -27.5t-19 -98.5
q0 -79 24.5 -133t59.5 -54zM682 1169q-14 0 -39 5q-204 31 -360 100q-9 3 -17 11.5t-8 17.5q0 123 7.5 168t41.5 45q10 0 18.5 -2.5t15 -5.5t23 -12t33.5 -17q167 -79 301 -119q31 -11 31 -35q0 -62 -11.5 -109t-35.5 -47z" />
    <glyph glyph-name="oacute" unicode="&#xf3;" horiz-adv-x="1110" 
d="M555 1128q114 0 205.5 -42.5t150 -117t90 -171.5t31.5 -209q0 -96 -19 -187t-58.5 -171t-96 -139.5t-135.5 -94.5t-172 -35q-222 0 -357 167t-135 447q0 243 134.5 398t361.5 155zM543 262q38 0 62 54t24 133q0 69 -19 97.5t-61 28.5q-52 0 -71 -27.5t-19 -98.5
q0 -79 24.5 -133t59.5 -54zM428 1169q-24 0 -35.5 47t-11.5 109q0 24 33 35q134 40 301 119q17 8 33.5 17t23 12t15 5.5t18.5 2.5q32 0 39.5 -45t7.5 -168q0 -21 -23 -29q-160 -70 -360 -100q-30 -5 -41 -5z" />
    <glyph glyph-name="ocircumflex" unicode="&#xf4;" horiz-adv-x="1110" 
d="M555 1128q114 0 205.5 -42.5t150 -117t90 -171.5t31.5 -209q0 -96 -19 -187t-58.5 -171t-96 -139.5t-135.5 -94.5t-172 -35q-222 0 -357 167t-135 447q0 243 134.5 398t361.5 155zM543 262q38 0 62 54t24 133q0 69 -19 97.5t-61 28.5q-52 0 -71 -27.5t-19 -98.5
q0 -79 24.5 -133t59.5 -54zM735 1202q-120 72 -182 160q-93 -41 -188 -158q-4 -6 -21 -6q-19 0 -68 44.5t-49 80.5q0 9 17 35q83 119 205 207q24 12 40 12q152 0 183 -31q72 -100 198 -200q11 -11 11 -23q0 -18 -46 -71.5t-73 -53.5q-19 0 -27 4z" />
    <glyph glyph-name="otilde" unicode="&#xf5;" horiz-adv-x="1110" 
d="M555 1128q114 0 205.5 -42.5t150 -117t90 -171.5t31.5 -209q0 -96 -19 -187t-58.5 -171t-96 -139.5t-135.5 -94.5t-172 -35q-222 0 -357 167t-135 447q0 243 134.5 398t361.5 155zM543 262q38 0 62 54t24 133q0 69 -19 97.5t-61 28.5q-52 0 -71 -27.5t-19 -98.5
q0 -79 24.5 -133t59.5 -54zM881 1509q0 -106 -13 -182q-81 -90 -198 -90q-55 0 -139 30.5t-115 30.5q-80 0 -144 -81q-9 -9 -18 -9q-27 0 -27 52q0 114 11 155q75 94 172 94q67 0 155.5 -31.5t114.5 -31.5q100 0 156 78q10 10 20 10q8 0 16.5 -7.5t8.5 -17.5z" />
    <glyph glyph-name="odieresis" unicode="&#xf6;" horiz-adv-x="1110" 
d="M555 1128q114 0 205.5 -42.5t150 -117t90 -171.5t31.5 -209q0 -96 -19 -187t-58.5 -171t-96 -139.5t-135.5 -94.5t-172 -35q-222 0 -357 167t-135 447q0 243 134.5 398t361.5 155zM543 262q38 0 62 54t24 133q0 69 -19 97.5t-61 28.5q-52 0 -71 -27.5t-19 -98.5
q0 -79 24.5 -133t59.5 -54zM627 1497q0 26 27 33.5t102 7.5q117 0 139.5 -10t22.5 -68q0 -133 -13 -209q-4 -18 -22 -23t-74 -5q-180 0 -180 39q0 21 2 66.5t2 68.5q0 16 -3 49.5t-3 50.5zM193 1497q0 26 28 33.5t103 7.5q114 0 136.5 -10t22.5 -68q0 -138 -12 -209
q-4 -18 -21.5 -23t-74.5 -5q-180 0 -180 39q0 21 2 66.5t2 68.5q0 16 -3 49.5t-3 50.5z" />
    <glyph glyph-name="divide" unicode="&#xf7;" 
d="M954 719l-36 -162q-3 -12 -15 -12h-797q-10 0 -14 14l-20 166q0 14 12 14h858q14 0 14 -12q0 -6 -2 -8zM616 1321q32 0 100 -133.5t68 -163.5q0 -11 -16 -25t-29 -20q-145 -84 -325 -152q-15 -6 -23 -6q-30 0 -87.5 120t-57.5 177q0 20 30 33q191 86 297 154q27 16 43 16
zM616 463q32 0 100 -133.5t68 -163.5q0 -11 -16 -25t-29 -20q-145 -84 -325 -152q-15 -6 -23 -6q-30 0 -87.5 120t-57.5 177q0 20 30 33q196 88 297 153q28 17 43 17z" />
    <glyph glyph-name="oslash" unicode="&#xf8;" horiz-adv-x="1110" 
d="M944 1141q11 0 17 -4q22 -17 58 -65.5t36 -74.5q0 -16 -84 -118q61 -117 61 -291q0 -96 -19 -187t-58.5 -171t-96 -139.5t-135.5 -94.5t-172 -35q-127 0 -223 57l-37 -55q-3 -4 -8 -11.5t-7.5 -11.5t-6.5 -9.5t-6.5 -9t-6 -7.5t-6.5 -6t-6.5 -4t-7 -3t-7.5 -1
q-21 0 -85 36.5t-64 53.5q0 18 65 100l39 53q-125 163 -125 432q0 243 134.5 398t361.5 155q168 0 293 -94q47 62 66.5 84.5t29.5 22.5zM543 236q54 0 88 69t37 176q-109 -136 -170 -229q21 -16 45 -16zM420 461q101 116 166 221q-27 6 -49 6q-63 0 -91 -48t-28 -144
q0 -23 2 -35z" />
    <glyph glyph-name="ugrave" unicode="&#xf9;" 
d="M954 1067q2 -8 2 -31q0 -70 -9 -314.5t-9 -330.5q0 -81 -10.5 -142.5t-39.5 -117t-76 -91.5t-123 -56.5t-179 -20.5q-231 0 -335.5 104t-104.5 322q0 119 -2 340.5t-2 274.5q0 37 10 51t39 20q118 17 278 17q65 0 150 -5q34 -3 44.5 -15t10.5 -56q0 -114 -5 -355t-5 -356
q0 -53 37 -53q16 0 26 9t14.5 26t5.5 31t1 36q0 104 -3 331.5t-3 348.5q0 43 20.5 54.5t99.5 11.5q95 0 128 -6.5t40 -26.5zM641 1169q-14 0 -39 5q-204 31 -360 100q-9 3 -17 11.5t-8 17.5q0 123 7.5 168t41.5 45q10 0 18.5 -2.5t15 -5.5t23 -12t33.5 -17q167 -79 301 -119
q31 -11 31 -35q0 -62 -11.5 -109t-35.5 -47z" />
    <glyph glyph-name="uacute" unicode="&#xfa;" 
d="M954 1067q2 -8 2 -31q0 -70 -9 -314.5t-9 -330.5q0 -81 -10.5 -142.5t-39.5 -117t-76 -91.5t-123 -56.5t-179 -20.5q-231 0 -335.5 104t-104.5 322q0 119 -2 340.5t-2 274.5q0 37 10 51t39 20q118 17 278 17q65 0 150 -5q34 -3 44.5 -15t10.5 -56q0 -114 -5 -355t-5 -356
q0 -53 37 -53q16 0 26 9t14.5 26t5.5 31t1 36q0 104 -3 331.5t-3 348.5q0 43 20.5 54.5t99.5 11.5q95 0 128 -6.5t40 -26.5zM387 1169q-24 0 -35.5 47t-11.5 109q0 24 33 35q134 40 301 119q17 8 33.5 17t23 12t15 5.5t18.5 2.5q32 0 39.5 -45t7.5 -168q0 -21 -23 -29
q-160 -70 -360 -100q-30 -5 -41 -5z" />
    <glyph glyph-name="ucircumflex" unicode="&#xfb;" 
d="M954 1067q2 -8 2 -31q0 -70 -9 -314.5t-9 -330.5q0 -81 -10.5 -142.5t-39.5 -117t-76 -91.5t-123 -56.5t-179 -20.5q-231 0 -335.5 104t-104.5 322q0 119 -2 340.5t-2 274.5q0 37 10 51t39 20q118 17 278 17q65 0 150 -5q34 -3 44.5 -15t10.5 -56q0 -114 -5 -355t-5 -356
q0 -53 37 -53q16 0 26 9t14.5 26t5.5 31t1 36q0 104 -3 331.5t-3 348.5q0 43 20.5 54.5t99.5 11.5q95 0 128 -6.5t40 -26.5zM737 1202q-120 72 -182 160q-93 -41 -188 -158q-4 -6 -21 -6q-19 0 -68 44.5t-49 80.5q0 9 17 35q83 119 205 207q24 12 41 12q151 0 182 -31
q72 -100 198 -200q11 -11 11 -23q0 -18 -46 -71.5t-73 -53.5q-19 0 -27 4z" />
    <glyph glyph-name="udieresis" unicode="&#xfc;" 
d="M954 1067q2 -8 2 -31q0 -70 -9 -314.5t-9 -330.5q0 -81 -10.5 -142.5t-39.5 -117t-76 -91.5t-123 -56.5t-179 -20.5q-231 0 -335.5 104t-104.5 322q0 119 -2 340.5t-2 274.5q0 37 10 51t39 20q118 17 278 17q65 0 150 -5q34 -3 44.5 -15t10.5 -56q0 -114 -5 -355t-5 -356
q0 -53 37 -53q16 0 26 9t14.5 26t5.5 31t1 36q0 104 -3 331.5t-3 348.5q0 43 20.5 54.5t99.5 11.5q95 0 128 -6.5t40 -26.5zM606 1497q0 26 27 33.5t102 7.5q117 0 139.5 -10t22.5 -68q0 -138 -12 -209q-4 -18 -22.5 -23t-74.5 -5q-180 0 -180 39q0 21 2 66.5t2 68.5
q0 16 -3 49.5t-3 50.5zM172 1497q0 26 28 33.5t103 7.5q115 0 137.5 -10t22.5 -68q0 -138 -12 -209q-4 -18 -22 -23t-75 -5q-180 0 -180 39q0 21 2 66.5t2 68.5q0 16 -3 49.5t-3 50.5z" />
    <glyph glyph-name="yacute" unicode="&#xfd;" horiz-adv-x="1013" 
d="M956 1083q29 -9 29 -36q0 -12 -16 -52q-85 -186 -250 -475q6 -80 6 -248q0 -180 -6 -268q-3 -27 -31 -31q-91 -6 -190 -6q-138 0 -193 6q-9 1 -13.5 3t-7.5 9t-3 21q4 172 4 264q0 170 -4 252q-175 278 -258 477q-11 39 -11 45q0 21 8 29.5t29 11.5q209 19 348 19
q44 0 52 -27q35 -127 79 -227q41 86 88 223q5 18 27 25.5t84 7.5q43 0 118.5 -7t110.5 -16zM399 1169q-24 0 -35.5 47t-11.5 109q0 24 33 35q134 40 301 119q17 8 33.5 17t23 12t15 5.5t18.5 2.5q32 0 39.5 -45t7.5 -168q0 -9 -6.5 -17.5t-15.5 -11.5q-160 -69 -361 -100
q-30 -5 -41 -5z" />
    <glyph glyph-name="thorn" unicode="&#xfe;" horiz-adv-x="1198" 
d="M594 1051q2 -14 2 -62q0 -112 -8 -196h39q118 0 210.5 -23t147.5 -58.5t91 -83t49.5 -90.5t13.5 -87q0 -77 -30 -141t-78.5 -106.5t-112.5 -72t-131 -42.5t-134 -13q-33 0 -43 2l-8 -45q-5 -34 -25 -47.5t-75 -14.5q-102 -4 -156 -4q-96 0 -184 6q-28 1 -36.5 14.5
t-8.5 49.5q0 167 -19 463q-18 369 -18 510q0 39 11 56.5t38 20.5q57 7 244 7q131 0 178 -4q39 -8 43 -39zM776 328q0 24 -28.5 38.5t-67.5 14.5q-19 0 -31 -2l-20 -150q71 3 109 28.5t38 70.5z" />
    <glyph glyph-name="ydieresis" unicode="&#xff;" horiz-adv-x="1013" 
d="M956 1083q29 -9 29 -36q0 -12 -16 -52q-85 -186 -250 -475q6 -80 6 -248q0 -180 -6 -268q-3 -27 -31 -31q-91 -6 -190 -6q-138 0 -193 6q-9 1 -13.5 3t-7.5 9t-3 21q4 172 4 264q0 170 -4 252q-175 278 -258 477q-11 39 -11 45q0 21 8 29.5t29 11.5q209 19 348 19
q44 0 52 -27q35 -127 79 -227q41 86 88 223q5 18 27 25.5t84 7.5q43 0 118.5 -7t110.5 -16zM598 1497q0 26 27 33.5t102 7.5q117 0 139.5 -10t22.5 -68q0 -138 -12 -209q-4 -18 -22.5 -23t-74.5 -5q-180 0 -180 39q0 21 2 66.5t2 68.5q0 16 -3 49.5t-3 50.5zM164 1497
q0 26 28 33.5t103 7.5q115 0 137.5 -10t22.5 -68q0 -133 -13 -209q-4 -18 -21.5 -23t-74.5 -5q-180 0 -180 39q0 21 2 66.5t2 68.5q0 16 -3 49.5t-3 50.5z" />
    <glyph glyph-name="Amacron" unicode="&#x100;" horiz-adv-x="1271" 
d="M977 1331q137 -597 283 -1368v-6q0 -14 -17 -14q-309 0 -465 14q-11 2 -17 8.5t-7 26.5l-13 133q-25 -24 -67 -47t-53 -23q-17 0 -35 26.5t-25 51.5l-18 -119q-4 -25 -17.5 -34t-57.5 -13t-155 -4q-168 0 -235.5 5t-67.5 18q0 8 4 20q195 800 361 1329q7 21 49 26t197 5
q142 0 219 -3.5t105.5 -11t31.5 -20.5zM680 397q25 0 72 -61q-61 292 -90 389q-55 -159 -103 -397q95 69 121 69zM983 1702q0 -35 -22 -109t-48 -82q-167 9 -233 9q-92 0 -295 -9q-20 0 -31.5 62.5t-13.5 126.5q0 14 18 14q163 10 316 10q139 0 289 -10q20 0 20 -12z" />
    <glyph glyph-name="amacron" unicode="&#x101;" horiz-adv-x="1052" 
d="M801 1053q125 -548 217 -1065q0 -33 -31 -33q-233 0 -354 12q-10 3 -15 5.5t-10.5 11t-7.5 24.5q-6 37 -8 74q-22 -16 -49 -27.5t-35 -11.5q-9 0 -24 8t-21 17l-8 -43q-2 -17 -5 -24t-11 -14.5t-30.5 -9t-53 -3t-89.5 -1.5q-86 0 -129.5 1t-72.5 5t-36.5 11t-7.5 20
q0 9 3 27q125 533 276 1022q9 24 43 28.5t166 4.5q169 0 228 -8.5t65 -30.5zM563 317q13 0 35 -10q-15 93 -61 250q-36 -115 -70 -281q48 28 63 34.5t33 6.5zM868 1430q0 -36 -21.5 -109.5t-47.5 -81.5q-148 8 -234 8q-115 0 -295 -8q-21 0 -32 62t-13 126q0 15 19 15
q163 10 315 10q139 0 289 -10q20 0 20 -12z" />
    <glyph glyph-name="Abreve" unicode="&#x102;" horiz-adv-x="1271" 
d="M977 1331q137 -597 283 -1368v-6q0 -14 -17 -14q-309 0 -465 14q-11 2 -17 8.5t-7 26.5l-13 133q-25 -24 -67 -47t-53 -23q-17 0 -35 26.5t-25 51.5l-18 -119q-4 -25 -17.5 -34t-57.5 -13t-155 -4q-168 0 -235.5 5t-67.5 18q0 8 4 20q195 800 361 1329q7 21 49 26t197 5
q142 0 219 -3.5t105.5 -11t31.5 -20.5zM680 397q25 0 72 -61q-61 292 -90 389q-55 -159 -103 -397q95 69 121 69zM776 1790q72 14 125 14q13 0 19.5 -0.5t18 -3t17 -9t5.5 -17.5q0 -142 -88.5 -224t-208.5 -82q-57 0 -108.5 18t-94 52.5t-67.5 91.5t-25 129q0 47 182 47
q11 0 21.5 -9t11.5 -21q3 -47 23 -81t57 -34q72 0 79 100q3 20 33 29z" />
    <glyph glyph-name="abreve" unicode="&#x103;" horiz-adv-x="1052" 
d="M801 1053q125 -548 217 -1065q0 -33 -31 -33q-233 0 -354 12q-10 3 -15 5.5t-10.5 11t-7.5 24.5q-6 37 -8 74q-22 -16 -49 -27.5t-35 -11.5q-9 0 -24 8t-21 17l-8 -43q-2 -17 -5 -24t-11 -14.5t-30.5 -9t-53 -3t-89.5 -1.5q-86 0 -129.5 1t-72.5 5t-36.5 11t-7.5 20
q0 9 3 27q125 533 276 1022q9 24 43 28.5t166 4.5q169 0 228 -8.5t65 -30.5zM563 317q13 0 35 -10q-15 93 -61 250q-36 -115 -70 -281q48 28 63 34.5t33 6.5zM657 1518q72 14 125 14q60 0 60 -31q0 -72 -25 -131t-67 -96.5t-95 -57.5t-110 -20t-108.5 18t-94 52.5
t-67.5 91.5t-25 129q0 47 182 47q11 0 21.5 -9.5t11.5 -21.5q3 -47 23 -80.5t57 -33.5q73 0 80 100q3 21 32 29z" />
    <glyph glyph-name="Aogonek" unicode="&#x104;" horiz-adv-x="1271" 
d="M1257 -201q0 -105 -30 -213q-18 -41 -133 -41q-142 0 -208.5 59t-66.5 150q0 130 111 193q-57 2 -152 10q-11 2 -17 8.5t-7 26.5l-13 133q-25 -24 -67 -47t-53 -23q-17 0 -35 26.5t-25 51.5l-18 -119q-4 -25 -17.5 -34t-57.5 -13t-155 -4q-168 0 -235.5 5t-67.5 18
q0 8 4 20q195 800 361 1329q7 21 49 26t197 5q142 0 219 -3.5t105.5 -11t31.5 -20.5q137 -597 283 -1368v-6q0 -14 -17 -14q-145 0 -145 -95q0 -41 63 -41q19 0 44.5 8.5t35.5 8.5q16 0 16 -25zM680 397q25 0 72 -61q-61 292 -90 389q-55 -159 -103 -397q95 69 121 69z" />
    <glyph glyph-name="aogonek" unicode="&#x105;" horiz-adv-x="1052" 
d="M1016 -201q0 -101 -31 -213q-18 -41 -133 -41q-142 0 -208 59t-66 150q0 141 135 207l-80 6q-10 3 -15 5.5t-10.5 11t-7.5 24.5q-6 37 -8 74q-22 -16 -49 -27.5t-35 -11.5q-9 0 -24 8t-21 17l-8 -43q-2 -17 -5 -24t-11 -14.5t-30.5 -9t-53 -3t-89.5 -1.5q-86 0 -129.5 1
t-72.5 5t-36.5 11t-7.5 20q0 9 3 27q125 533 276 1022q9 24 43 28.5t166 4.5q169 0 228 -8.5t65 -30.5q125 -548 217 -1065q0 -33 -31 -33q-51 0 -91 -27.5t-40 -79.5q0 -41 64 -41q19 0 44 8.5t35 8.5q17 0 17 -25zM563 317q13 0 35 -10q-15 93 -61 250q-36 -115 -70 -281
q48 28 63 34.5t33 6.5z" />
    <glyph glyph-name="Cacute" unicode="&#x106;" horiz-adv-x="1234" 
d="M1171 817q0 -16 -18 -16q-1 0 -53 9t-119 9q-143 0 -226 -83.5t-83 -213.5q0 -125 81.5 -213t215.5 -88q57 0 97 13l40 12q10 0 17 -9.5t7 -25.5q0 -78 -8 -170q-1 -34 -94 -60t-209 -26q-117 0 -223 25t-202.5 81.5t-167.5 140t-112.5 208t-41.5 278.5q0 150 53.5 283.5
t148 231.5t230.5 155t293 57q130 0 197 -9t116 -28q29 -11 45 -179t16 -382zM571 1442q-24 0 -35.5 46.5t-11.5 108.5q0 24 33 35q134 40 301 119q17 8 33.5 17t23 12t15 5.5t18.5 2.5q32 0 39.5 -45t7.5 -168q0 -9 -6.5 -17.5t-15.5 -11.5q-160 -69 -361 -100
q-24 -4 -41 -4z" />
    <glyph glyph-name="cacute" unicode="&#x107;" horiz-adv-x="1024" 
d="M950 649q0 -31 -30 -31q-5 0 -20 4t-44.5 7.5t-69.5 3.5q-103 0 -162 -59t-59 -154q0 -89 57.5 -151t153.5 -62q42 0 73 9t34 9q13 0 25 -12.5t12 -30.5q0 -71 -7 -135q-3 -32 -80 -57t-171 -25t-178.5 20t-162 65t-133.5 112t-89 166.5t-33 222.5q0 160 73.5 292
t208 209.5t301.5 77.5q103 0 153.5 -7t90.5 -23q27 -11 42 -144.5t15 -306.5zM446 1169q-24 0 -35.5 47t-11.5 109q0 24 33 35q134 40 301 119q17 8 33.5 17t23 12t15 5.5t18.5 2.5q32 0 39.5 -45t7.5 -168q0 -9 -6.5 -17.5t-15.5 -11.5q-160 -69 -361 -100q-30 -5 -41 -5z
" />
    <glyph glyph-name="Cdotaccent" unicode="&#x10a;" horiz-adv-x="1234" 
d="M1171 817q0 -16 -18 -16q-1 0 -53 9t-119 9q-143 0 -226 -83.5t-83 -213.5q0 -125 81.5 -213t215.5 -88q57 0 97 13l40 12q10 0 17 -9.5t7 -25.5q0 -78 -8 -170q-1 -34 -94 -60t-209 -26q-117 0 -223 25t-202.5 81.5t-167.5 140t-112.5 208t-41.5 278.5q0 150 53.5 283.5
t148 231.5t230.5 155t293 57q130 0 197 -9t116 -28q29 -11 45 -179t16 -382zM614 1769q0 26 28 33.5t103 7.5q115 0 137.5 -9.5t22.5 -67.5q0 -139 -12 -209q-4 -19 -22 -24t-74 -5q-181 0 -181 39q0 21 2.5 66.5t2.5 68.5q0 17 -3.5 50t-3.5 50z" />
    <glyph glyph-name="cdotaccent" unicode="&#x10b;" horiz-adv-x="1024" 
d="M950 649q0 -31 -30 -31q-5 0 -20 4t-44.5 7.5t-69.5 3.5q-103 0 -162 -59t-59 -154q0 -89 57.5 -151t153.5 -62q42 0 73 9t34 9q13 0 25 -12.5t12 -30.5q0 -71 -7 -135q-3 -32 -80 -57t-171 -25t-178.5 20t-162 65t-133.5 112t-89 166.5t-33 222.5q0 160 73.5 292
t208 209.5t301.5 77.5q103 0 153.5 -7t90.5 -23q27 -11 42 -144.5t15 -306.5zM469 1497q0 26 28 33.5t103 7.5q115 0 137.5 -10t22.5 -68q0 -138 -12 -209q-4 -18 -22 -23t-75 -5q-180 0 -180 39q0 21 2 66.5t2 68.5q0 16 -3 49.5t-3 50.5z" />
    <glyph glyph-name="Ccaron" unicode="&#x10c;" horiz-adv-x="1234" 
d="M1171 817q0 -16 -18 -16q-1 0 -53 9t-119 9q-143 0 -226 -83.5t-83 -213.5q0 -125 81.5 -213t215.5 -88q57 0 97 13l40 12q10 0 17 -9.5t7 -25.5q0 -78 -8 -170q-1 -34 -94 -60t-209 -26q-117 0 -223 25t-202.5 81.5t-167.5 140t-112.5 208t-41.5 278.5q0 150 53.5 283.5
t148 231.5t230.5 155t293 57q130 0 197 -9t116 -28q29 -11 45 -179t16 -382zM498 1843q119 -68 182 -160q88 39 188 158q4 8 21 8q19 0 68 -45.5t49 -81.5q0 -8 -17 -34q-88 -122 -205 -207q-22 -11 -41 -11q-153 0 -182 31q-75 100 -199 199q-10 10 -10 22q0 20 46 73.5
t73 53.5q15 0 27 -6z" />
    <glyph glyph-name="ccaron" unicode="&#x10d;" horiz-adv-x="1024" 
d="M950 649q0 -31 -30 -31q-5 0 -20 4t-44.5 7.5t-69.5 3.5q-103 0 -162 -59t-59 -154q0 -89 57.5 -151t153.5 -62q42 0 73 9t34 9q13 0 25 -12.5t12 -30.5q0 -71 -7 -135q-3 -32 -80 -57t-171 -25t-178.5 20t-162 65t-133.5 112t-89 166.5t-33 222.5q0 160 73.5 292
t208 209.5t301.5 77.5q103 0 153.5 -7t90.5 -23q27 -11 42 -144.5t15 -306.5zM391 1571q119 -68 182 -160q90 40 189 158q4 8 20 8q19 0 68 -45.5t49 -81.5q0 -11 -16 -35q-88 -122 -205 -207q-20 -10 -41 -10q-153 0 -182 31q-73 98 -199 198q-10 10 -10 23q0 20 46 73.5
t73 53.5q14 0 26 -6z" />
    <glyph glyph-name="Dcaron" unicode="&#x10e;" horiz-adv-x="1257" 
d="M412 1401q359 0 571.5 -190t212.5 -502q0 -157 -44 -286.5t-118.5 -217.5t-175.5 -148.5t-213.5 -88t-234.5 -27.5q-82 0 -182.5 26t-110.5 60q-33 541 -33 907q0 270 8 401q1 27 10 39t27 15q73 12 283 12zM786 463q0 100 -56.5 160.5t-160.5 64.5q-10 -133 -10 -307
q0 -111 2 -164q71 0 148 71.5t77 174.5zM344 1843q119 -68 182 -160q90 40 189 158q4 8 20 8q19 0 68 -45.5t49 -81.5q0 -10 -16 -34q-88 -122 -205 -207q-22 -11 -41 -11q-153 0 -182 31q-75 100 -199 199q-10 10 -10 22q0 20 45.5 73.5t72.5 53.5q15 0 27 -6z" />
    <glyph glyph-name="dcaron" unicode="&#x10f;" horiz-adv-x="1042" 
d="M344 1120q285 0 455 -152t170 -401q0 -125 -34.5 -228t-94 -173.5t-140 -118.5t-170 -70t-186.5 -22q-69 0 -152.5 22.5t-93.5 53.5q-24 389 -24 708q0 183 8 316q1 46 49 55.5t213 9.5zM618 375q0 68 -35 108t-102 47q-6 -108 -6 -217q0 -73 2 -108q49 7 95 55.5
t46 114.5zM258 1571q119 -68 182 -160q90 40 189 158q4 8 20 8q19 0 68 -45.5t49 -81.5q0 -11 -16 -35q-88 -122 -205 -207q-20 -10 -41 -10q-153 0 -182 31q-73 98 -199 198q-10 10 -10 23q0 20 45.5 73.5t72.5 53.5q15 0 27 -6z" />
    <glyph glyph-name="Dcroat" unicode="&#x110;" horiz-adv-x="1296" 
d="M451 1401q359 0 571.5 -190t212.5 -502q0 -157 -43.5 -286.5t-118 -217.5t-175.5 -148.5t-213 -88t-234 -27.5q-82 0 -182.5 26t-110.5 60q-12 158 -23 385q-31 -4 -78 -4q-57 0 -57 28q11 82 47 178q7 13 80 19q-4 98 -4 301q0 226 8 401q1 27 10 39t27 15q76 12 283 12
zM864 524q0 127 -66.5 202.5t-187.5 78.5q-8 -68 -8 -158q16 1 54.5 3.5t54.5 2.5q57 0 57 -28q-11 -65 -47 -176q-7 -17 -121 -23q0 -141 2 -209q36 0 80.5 22t85.5 60t68.5 98t27.5 127z" />
    <glyph glyph-name="dcroat" unicode="&#x111;" horiz-adv-x="1073" 
d="M375 1120q285 0 454.5 -152t169.5 -401q0 -125 -35 -228.5t-94 -173.5t-139.5 -118t-169.5 -70t-186 -22q-79 0 -157.5 22t-88.5 54q-1 35 -7 132t-7 152h-43q-64 0 -64 43q13 74 37 138q7 20 57 26v217q0 226 9 316q3 47 46.5 56t217.5 9zM688 422q0 94 -39.5 146.5
t-134.5 56.5q-4 -70 -4 -88q38 6 51 6q64 0 64 -43q-7 -56 -37 -144q-10 -20 -78 -26v-125q80 20 129 74.5t49 142.5z" />
    <glyph glyph-name="Emacron" unicode="&#x112;" horiz-adv-x="1124" 
d="M1063 1350q0 -144 -10.5 -284.5t-26 -226t-29.5 -85.5q-6 0 -46 3t-116 6t-171 3q-5 -56 -5 -148q61 0 167 8.5t130 8.5q60 0 60 -29q-11 -65 -47 -176q-9 -22 -187 -22q-80 0 -127 2q-8 -49 -8 -158q77 -6 158 -6q29 0 87 3t87 3q16 0 16 -29q0 -139 -10 -227
q-8 -41 -428 -41q-252 0 -317.5 8.5t-71.5 50.5q-30 201 -59 686t-29 592q0 25 52.5 40.5t203.5 24.5t416 9h295q16 0 16 -16zM883 1702q0 -35 -22 -109t-48 -82q-166 9 -233 9q-92 0 -295 -9q-20 0 -31.5 62.5t-13.5 126.5q0 14 18 14q163 10 315 10q139 0 289 -10
q21 0 21 -12z" />
    <glyph glyph-name="emacron" unicode="&#x113;" horiz-adv-x="935" 
d="M866 1063q0 -114 -11 -228t-27 -182.5t-29 -68.5q-9 0 -37.5 2t-83 4t-123.5 2q-2 -23 -2 -86q87 3 150 7.5t83 4.5q43 0 43 -43q-13 -88 -38 -129q-21 -27 -160 -27h-84q-4 -50 -4 -90q37 -4 106 -4q21 0 65 3t70 3q31 0 31 -41q0 -113 -10 -182q-7 -43 -348 -43
q-203 0 -258.5 9t-61.5 51q-23 156 -45 534t-22 459q0 25 42 41t163 25.5t331 9.5h230q30 0 30 -31zM788 1430q0 -36 -21.5 -109.5t-47.5 -81.5q-148 8 -234 8q-115 0 -295 -8q-21 0 -32 62t-13 126q0 15 19 15q163 10 315 10q139 0 289 -10q20 0 20 -12z" />
    <glyph glyph-name="Edotaccent" unicode="&#x116;" horiz-adv-x="1124" 
d="M1063 1350q0 -144 -10.5 -284.5t-26 -226t-29.5 -85.5q-6 0 -46 3t-116 6t-171 3q-5 -56 -5 -148q61 0 167 8.5t130 8.5q60 0 60 -29q-11 -65 -47 -176q-9 -22 -187 -22q-80 0 -127 2q-8 -49 -8 -158q77 -6 158 -6q29 0 87 3t87 3q16 0 16 -29q0 -139 -10 -227
q-8 -41 -428 -41q-252 0 -317.5 8.5t-71.5 50.5q-30 201 -59 686t-29 592q0 25 52.5 40.5t203.5 24.5t416 9h295q16 0 16 -16zM416 1769q0 26 28 33.5t103 7.5q115 0 137.5 -9.5t22.5 -67.5q0 -133 -13 -209q-4 -19 -22 -24t-74 -5q-180 0 -180 39q0 21 2 66.5t2 68.5
q0 17 -3 50t-3 50z" />
    <glyph glyph-name="edotaccent" unicode="&#x117;" horiz-adv-x="935" 
d="M866 1063q0 -114 -11 -228t-27 -182.5t-29 -68.5q-9 0 -37.5 2t-83 4t-123.5 2q-2 -23 -2 -86q87 3 150 7.5t83 4.5q43 0 43 -43q-13 -88 -38 -129q-21 -27 -160 -27h-84q-4 -50 -4 -90q37 -4 106 -4q21 0 65 3t70 3q31 0 31 -41q0 -113 -10 -182q-7 -43 -348 -43
q-203 0 -258.5 9t-61.5 51q-23 156 -45 534t-22 459q0 25 42 41t163 25.5t331 9.5h230q30 0 30 -31zM322 1497q0 26 28 33.5t103 7.5q114 0 136.5 -10t22.5 -68q0 -138 -12 -209q-4 -18 -21.5 -23t-74.5 -5q-180 0 -180 39q0 21 2 66.5t2 68.5q0 16 -3 49.5t-3 50.5z" />
    <glyph glyph-name="Eogonek" unicode="&#x118;" horiz-adv-x="1124" 
d="M979 -201q0 -101 -31 -213q-18 -41 -133 -41q-142 0 -208 59t-66 150q0 136 125 203q-33 -2 -109 -2q-252 0 -317.5 8.5t-71.5 50.5q-30 201 -59 686t-29 592q0 25 52.5 40.5t203.5 24.5t416 9h295q16 0 16 -16q0 -144 -10.5 -284.5t-26 -226t-29.5 -85.5q-6 0 -46 3
t-116 6t-171 3q-5 -56 -5 -148q61 0 167 8.5t130 8.5q60 0 60 -29q-11 -65 -47 -176q-9 -22 -187 -22q-80 0 -127 2q-8 -49 -8 -158q77 -6 158 -6q29 0 87 3t87 3q16 0 16 -29q0 -139 -10 -227q-1 -4 -7 -6t-24.5 -7.5t-35.5 -11.5q-38 -15 -68.5 -50t-30.5 -73
q0 -41 64 -41q19 0 44.5 8.5t35.5 8.5q16 0 16 -25z" />
    <glyph glyph-name="eogonek" unicode="&#x119;" horiz-adv-x="935" 
d="M803 -201q0 -101 -31 -213q-18 -41 -133 -41q-142 0 -208 59t-66 150q0 145 145 211h-53q-203 0 -258.5 9t-61.5 51q-23 156 -45 534t-22 459q0 25 42 41t163 25.5t331 9.5h230q30 0 30 -31q0 -114 -11 -228t-27 -182.5t-29 -68.5q-9 0 -37.5 2t-83 4t-123.5 2
q-2 -23 -2 -86q87 3 150 7.5t83 4.5q43 0 43 -43q-13 -88 -38 -129q-21 -27 -160 -27h-84q-4 -50 -4 -90q37 -4 106 -4q21 0 65 3t70 3q31 0 31 -41q0 -113 -10 -182q-1 -6 -43 -24q-48 -21 -83.5 -56t-35.5 -80q0 -41 64 -41q19 0 44 8.5t35 8.5q17 0 17 -25z" />
    <glyph glyph-name="Ecaron" unicode="&#x11a;" horiz-adv-x="1124" 
d="M1063 1350q0 -144 -10.5 -284.5t-26 -226t-29.5 -85.5q-6 0 -46 3t-116 6t-171 3q-5 -56 -5 -148q61 0 167 8.5t130 8.5q60 0 60 -29q-11 -65 -47 -176q-9 -22 -187 -22q-80 0 -127 2q-8 -49 -8 -158q77 -6 158 -6q29 0 87 3t87 3q16 0 16 -29q0 -139 -10 -227
q-8 -41 -428 -41q-252 0 -317.5 8.5t-71.5 50.5q-30 201 -59 686t-29 592q0 25 52.5 40.5t203.5 24.5t416 9h295q16 0 16 -16zM381 1843q119 -68 182 -160q90 40 189 158q4 8 20 8q19 0 68 -45.5t49 -81.5q0 -8 -17 -34q-89 -123 -204 -207q-22 -11 -41 -11q-154 0 -183 31
q-77 102 -198 199q-10 10 -10 22q0 20 45.5 73.5t72.5 53.5q15 0 27 -6z" />
    <glyph glyph-name="ecaron" unicode="&#x11b;" horiz-adv-x="935" 
d="M866 1063q0 -114 -11 -228t-27 -182.5t-29 -68.5q-9 0 -37.5 2t-83 4t-123.5 2q-2 -23 -2 -86q87 3 150 7.5t83 4.5q43 0 43 -43q-13 -88 -38 -129q-21 -27 -160 -27h-84q-4 -50 -4 -90q37 -4 106 -4q21 0 65 3t70 3q31 0 31 -41q0 -113 -10 -182q-7 -43 -348 -43
q-203 0 -258.5 9t-61.5 51q-23 156 -45 534t-22 459q0 25 42 41t163 25.5t331 9.5h230q30 0 30 -31zM287 1571q119 -68 182 -160q88 39 188 158q4 8 21 8q19 0 68 -45.5t49 -81.5q0 -10 -17 -35q-88 -122 -205 -207q-20 -10 -41 -10q-153 0 -182 31q-75 100 -198 198
q-11 11 -11 23q0 20 46 73.5t73 53.5q15 0 27 -6z" />
    <glyph glyph-name="Gbreve" unicode="&#x11e;" horiz-adv-x="1318" 
d="M1243 602q15 0 22 -4.5t8 -11t1 -21.5q0 -49 -12.5 -243t-24.5 -289q-3 -25 -116 -48.5t-253 -23.5q-138 0 -257 26.5t-221 85t-174.5 146t-113.5 214.5t-41 284q0 108 30 210t92 191t148.5 156t207.5 106t262 39q161 0 276 -22q29 -6 47.5 -233t18.5 -355q0 -18 -19 -18
q-4 0 -33.5 5t-71.5 10t-77 5q-66 0 -117.5 -21t-82.5 -53t-51.5 -74t-28 -80t-7.5 -75q0 -85 48 -158t147 -102q8 112 8 196q0 45 -5 82.5t-5 44.5q0 31 239 31h156zM872 1790q72 14 125 14q13 0 19.5 -0.5t18 -3t17 -9t5.5 -17.5q0 -142 -88.5 -224t-208.5 -82
q-57 0 -108.5 18t-94 52.5t-67.5 91.5t-25 129q0 47 182 47q11 0 21.5 -9t11.5 -21q3 -47 23 -81t57 -34q73 0 80 100q3 21 32 29z" />
    <glyph glyph-name="gbreve" unicode="&#x11f;" horiz-adv-x="1091" 
d="M989 500q29 -3 35 -10.5t6 -34.5q0 -38 -10 -190.5t-19 -225.5q-2 -23 -95.5 -46.5t-207.5 -23.5q-137 0 -251 35t-203 106t-139 189t-50 274q0 86 24 167t73.5 153t118.5 126t166 85t210 31q101 0 217 -19q28 -6 46 -188.5t18 -284.5q0 -31 -31 -31q-9 0 -53 8.5
t-88 8.5q-58 0 -100.5 -22t-64 -57.5t-31 -70t-9.5 -69.5q0 -56 28.5 -104.5t90.5 -69.5q4 51 4 124q0 39 -4 69t-4 32q0 41 202 41q98 0 121 -2zM719 1518q72 14 125 14q59 0 59 -31q0 -72 -25 -131t-67 -96.5t-95 -57.5t-110 -20t-108.5 18t-94 52.5t-67.5 91.5t-25 129
q0 47 183 47q11 0 21 -9.5t11 -21.5q3 -47 23 -80.5t57 -33.5q73 0 80 100q3 20 33 29z" />
    <glyph glyph-name="Gdotaccent" unicode="&#x120;" horiz-adv-x="1318" 
d="M1243 602q15 0 22 -4.5t8 -11t1 -21.5q0 -49 -12.5 -243t-24.5 -289q-3 -25 -116 -48.5t-253 -23.5q-138 0 -257 26.5t-221 85t-174.5 146t-113.5 214.5t-41 284q0 108 30 210t92 191t148.5 156t207.5 106t262 39q161 0 276 -22q29 -6 47.5 -233t18.5 -355q0 -18 -19 -18
q-4 0 -33.5 5t-71.5 10t-77 5q-66 0 -117.5 -21t-82.5 -53t-51.5 -74t-28 -80t-7.5 -75q0 -85 48 -158t147 -102q8 112 8 196q0 45 -5 82.5t-5 44.5q0 31 239 31h156zM596 1769q0 26 28 33.5t103 7.5q115 0 137.5 -9.5t22.5 -67.5q0 -133 -13 -209q-4 -19 -22 -24t-74 -5
q-180 0 -180 39q0 21 2 66.5t2 68.5q0 17 -3 50t-3 50z" />
    <glyph glyph-name="gdotaccent" unicode="&#x121;" horiz-adv-x="1091" 
d="M989 500q29 -3 35 -10.5t6 -34.5q0 -38 -10 -190.5t-19 -225.5q-2 -23 -95.5 -46.5t-207.5 -23.5q-137 0 -251 35t-203 106t-139 189t-50 274q0 86 24 167t73.5 153t118.5 126t166 85t210 31q101 0 217 -19q28 -6 46 -188.5t18 -284.5q0 -31 -31 -31q-9 0 -53 8.5
t-88 8.5q-58 0 -100.5 -22t-64 -57.5t-31 -70t-9.5 -69.5q0 -56 28.5 -104.5t90.5 -69.5q4 51 4 124q0 39 -4 69t-4 32q0 41 202 41q98 0 121 -2zM461 1497q0 26 28 33.5t103 7.5q115 0 137.5 -10t22.5 -68q0 -133 -13 -209q-4 -18 -21.5 -23t-74.5 -5q-180 0 -180 39
q0 21 2 66.5t2 68.5q0 16 -3 49.5t-3 50.5z" />
    <glyph glyph-name="Gcommaaccent" unicode="&#x122;" horiz-adv-x="1318" 
d="M1243 602q15 0 22 -4.5t8 -11t1 -21.5q0 -49 -12.5 -243t-24.5 -289q-3 -25 -116 -48.5t-253 -23.5q-138 0 -257 26.5t-221 85t-174.5 146t-113.5 214.5t-41 284q0 108 30 210t92 191t148.5 156t207.5 106t262 39q161 0 276 -22q29 -6 47.5 -233t18.5 -355q0 -18 -19 -18
q-4 0 -33.5 5t-71.5 10t-77 5q-66 0 -117.5 -21t-82.5 -53t-51.5 -74t-28 -80t-7.5 -75q0 -85 48 -158t147 -102q8 112 8 196q0 45 -5 82.5t-5 44.5q0 31 239 31h156zM811 -96q31 -3 65.5 -110t34.5 -152q0 -13 -12 -29q-11 -18 -20.5 -32t-20.5 -27.5t-17.5 -22t-20 -23
t-20.5 -21t-26 -25.5l-29 -29q-25 -21 -38 -21q-15 0 -36.5 20.5t-21.5 35.5q0 6 6 12q76 76 76 100q0 14 -16 14q-17 0 -50 -14t-36 -14q-17 0 -59 77t-42 109q0 10 29 29q137 123 254 123z" />
    <glyph glyph-name="gcommaaccent" unicode="&#x123;" horiz-adv-x="1091" 
d="M989 500q29 -3 35 -10.5t6 -34.5q0 -38 -10 -190.5t-19 -225.5q-2 -23 -95.5 -46.5t-207.5 -23.5q-137 0 -251 35t-203 106t-139 189t-50 274q0 86 24 167t73.5 153t118.5 126t166 85t210 31q101 0 217 -19q28 -6 46 -188.5t18 -284.5q0 -31 -31 -31q-9 0 -53 8.5
t-88 8.5q-58 0 -100.5 -22t-64 -57.5t-31 -70t-9.5 -69.5q0 -56 28.5 -104.5t90.5 -69.5q4 51 4 124q0 39 -4 69t-4 32q0 41 202 41q98 0 121 -2zM678 -96q31 -3 65.5 -110t34.5 -152q0 -13 -12 -29q-11 -18 -20.5 -32t-20.5 -27.5t-17.5 -22t-20 -23t-20.5 -21t-26 -25.5
l-29 -29q-25 -21 -39 -21q-15 0 -36 20.5t-21 35.5q0 6 6 12q76 76 76 100q0 14 -16 14q-17 0 -50 -14t-36 -14q-17 0 -59 77t-42 109q0 10 29 29q137 123 254 123z" />
    <glyph glyph-name="Hbar" unicode="&#x126;" horiz-adv-x="1501" 
d="M1051 1397q360 0 360 -35v-309q0 -592 -61 -1065q-3 -15 -19 -15q-139 0 -461 15q-13 0 -16 18l-23 340q-90 -106 -110 -106q-17 0 -57 108q-2 -141 -23 -330q-6 -24 -119 -24q-145 0 -222.5 1t-115 4.5t-44.5 7.5t-7 13q-43 1187 -43 1319q0 14 19.5 22t68.5 12.5
t135 4.5q31 0 99.5 -2t130.5 -2q41 0 85 3t54 3q18 0 18 -18q0 -101 -4 -293h135v293q0 35 220 35zM770 649q17 0 61 -96v311h-141l-16 -286q71 71 96 71z" />
    <glyph glyph-name="hbar" unicode="&#x127;" horiz-adv-x="1236" 
d="M1137 1071v-240q0 -183 -1.5 -272.5t-11 -233.5t-30.5 -323q-4 -25 -31 -25q-178 0 -324 11q-11 1 -17 2.5t-12 6.5t-8 13q-27 146 -40 236q-58 -60 -76 -60q-16 0 -29 25q-10 -149 -14 -184q-1 -11 -11 -18t-29 -9.5t-32.5 -3t-38.5 -0.5q-120 0 -177.5 1t-92.5 5.5
t-41 10.5t-6 20l-25 612q-10 325 -10 412q0 45 190 45q75 0 173.5 1t111.5 1q33 0 33 -33v-192h65v192q0 45 189 45q29 0 68 -1.5t95.5 -5.5t94 -14t37.5 -24zM625 537q8 0 28 -23v160q-11 0 -34.5 -1t-36.5 -1l-13 -162q39 27 56 27z" />
    <glyph glyph-name="Imacron" unicode="&#x12a;" horiz-adv-x="800" 
d="M717 1333q-21 -778 -23 -866q-8 -289 -8 -475q0 -16 -6.5 -24.5t-13 -9.5t-17.5 -1q-55 -2 -164 -2q-141 0 -297 12q-22 2 -32 15.5t-11 48.5q-49 702 -49 1296q0 12 2 18t11.5 12t29.5 9q82 8 203 8q203 0 344 -16q19 -3 25 -7.5t6 -17.5zM721 1702q0 -35 -22 -109
t-48 -82q-167 9 -233 9q-92 0 -295 -9q-20 0 -31.5 62.5t-13.5 126.5q0 14 18 14q163 10 316 10q138 0 288 -10q21 0 21 -12z" />
    <glyph glyph-name="imacron" unicode="&#x12b;" horiz-adv-x="696" 
d="M610 1049q0 -1 -2.5 -71.5t-7 -236t-8.5 -362.5q-6 -237 -6 -367q0 -45 -45 -45q-39 -2 -127 -2q-132 0 -234 10q-44 3 -49 64q-37 557 -37 1008q0 20 9 30.5t40 14.5q41 8 158 8q137 0 270 -13q24 -5 31.5 -11.5t7.5 -26.5zM676 1430q0 -35 -22 -109t-48 -82
q-148 8 -233 8q-115 0 -295 -8q-21 0 -32 62t-13 126q0 15 18 15q163 10 316 10q138 0 288 -10q21 0 21 -12z" />
    <glyph glyph-name="Ibreve" unicode="&#x12c;" horiz-adv-x="800" 
d="M717 1333q-21 -778 -23 -866q-8 -289 -8 -475q0 -16 -6.5 -24.5t-13 -9.5t-17.5 -1q-55 -2 -164 -2q-141 0 -297 12q-22 2 -32 15.5t-11 48.5q-49 702 -49 1296q0 12 2 18t11.5 12t29.5 9q82 8 203 8q203 0 344 -16q19 -3 25 -7.5t6 -17.5zM512 1790q72 14 125 14
q18 0 27 -0.5t20.5 -8t11.5 -21.5q0 -142 -88.5 -224t-208.5 -82q-57 0 -108.5 18t-94 52.5t-67.5 91.5t-25 129q0 47 183 47q11 0 21 -9t11 -21q3 -47 23 -81t57 -34q73 0 80 100q3 20 33 29z" />
    <glyph glyph-name="ibreve" unicode="&#x12d;" horiz-adv-x="692" 
d="M604 1049q0 -1 -2.5 -71.5t-7 -236t-8.5 -362.5q-6 -237 -6 -367q0 -45 -45 -45q-39 -2 -127 -2q-132 0 -234 10q-44 3 -49 64q-37 557 -37 1008q0 20 9 30.5t40 14.5q41 8 158 8q137 0 270 -13q24 -5 31.5 -11.5t7.5 -26.5zM459 1518q72 14 125 14q59 0 59 -31
q0 -72 -25 -131t-67 -96.5t-95 -57.5t-110 -20t-108.5 18t-94 52.5t-67.5 91.5t-25 129q0 47 182 47q11 0 21.5 -9.5t11.5 -21.5q3 -47 23 -80.5t57 -33.5q73 0 80 100q3 20 33 29z" />
    <glyph glyph-name="Iogonek" unicode="&#x12e;" horiz-adv-x="800" 
d="M659 -201q0 -105 -30 -213q-18 -41 -133 -41q-142 0 -208.5 59t-66.5 150q0 140 129 203q-33 1 -89.5 5t-72.5 5q-22 2 -32 15.5t-11 48.5q-49 702 -49 1296q0 12 2 18t11.5 12t29.5 9q82 8 203 8q203 0 344 -16q19 -3 25 -7.5t6 -17.5q-21 -778 -23 -866
q-8 -289 -8 -475q0 -16 -6.5 -24.5t-13 -9.5t-17.5 -1q-59 0 -104 -29.5t-45 -79.5q0 -41 63 -41q19 0 44.5 8.5t35.5 8.5q16 0 16 -25z" />
    <glyph glyph-name="iogonek" unicode="&#x12f;" horiz-adv-x="677" 
d="M557 -201q0 -101 -31 -213q-18 -41 -133 -41q-142 0 -208 59t-66 150q0 149 151 215l-104 6q-44 3 -49 64q-37 557 -37 1008q0 20 9 30.5t40 14.5q41 8 158 8q137 0 270 -13q24 -5 31.5 -11.5t7.5 -26.5q0 -1 -2.5 -71.5t-7 -236t-8.5 -362.5q-7 -276 -7 -367
q0 -45 -45 -45q-48 0 -95 -38t-34 -81q11 -41 64 -41q19 0 44.5 8.5t35.5 8.5q16 0 16 -25z" />
    <glyph glyph-name="Idotaccent" unicode="&#x130;" horiz-adv-x="800" 
d="M717 1333q-21 -778 -23 -866q-8 -289 -8 -475q0 -16 -6.5 -24.5t-13 -9.5t-17.5 -1q-55 -2 -164 -2q-141 0 -297 12q-22 2 -32 15.5t-11 48.5q-49 702 -49 1296q0 12 2 18t11.5 12t29.5 9q82 8 203 8q203 0 344 -16q19 -3 25 -7.5t6 -17.5zM258 1769q0 26 28 33.5
t103 7.5q115 0 137.5 -9.5t22.5 -67.5q0 -139 -12 -209q-4 -19 -22.5 -24t-74.5 -5q-180 0 -180 39q0 21 2 66.5t2 68.5q0 17 -3 50t-3 50z" />
    <glyph glyph-name="dotlessi" unicode="&#x131;" horiz-adv-x="677" 
d="M596 1049q0 -1 -2.5 -71.5t-7 -236t-8.5 -362.5q-7 -276 -7 -367q0 -45 -45 -45q-39 -2 -127 -2q-131 0 -233 10q-44 3 -49 64q-37 557 -37 1008q0 20 9 30.5t40 14.5q41 8 158 8q137 0 270 -13q24 -5 31.5 -11.5t7.5 -26.5z" />
    <glyph glyph-name="IJ" unicode="&#x132;" horiz-adv-x="1921" 
d="M717 1333q-21 -778 -23 -866q-8 -289 -8 -475q0 -16 -6.5 -24.5t-13 -9.5t-17.5 -1q-55 -2 -164 -2q-141 0 -297 12q-22 2 -32 15.5t-11 48.5q-49 702 -49 1296q0 12 2 18t11.5 12t29.5 9q82 8 203 8q203 0 344 -16q19 -3 25 -7.5t6 -17.5zM1862 1331q0 -918 -125 -1149
q-72 -131 -199 -198.5t-287 -67.5q-171 0 -274 41t-156 127q-20 24 -20 51q0 20 76.5 91t103.5 71q10 0 12 -6q26 -52 53.5 -73t69.5 -21q67 0 107.5 80.5t40.5 226.5q0 243 -10.5 491t-10.5 328q0 23 8 33t31 10q184 0 294 -1.5t175.5 -6t88 -10.5t22.5 -17z" />
    <glyph glyph-name="ij" unicode="&#x133;" horiz-adv-x="1609" 
d="M596 1049q0 -1 -2.5 -71.5t-7 -236t-8.5 -362.5q-7 -276 -7 -367q0 -45 -45 -45q-39 -2 -127 -2q-131 0 -233 10q-44 3 -49 64q-37 557 -37 1008q0 20 9 30.5t40 14.5q41 8 158 8q137 0 270 -13q24 -5 31.5 -11.5t7.5 -26.5zM1540 1049q0 -712 -98 -899
q-58 -105 -160 -160.5t-231 -55.5q-137 0 -221.5 33t-129.5 103q-14 23 -14 47q0 20 66 84.5t90 64.5q20 0 26 -14q28 -64 78 -64q44 0 71 57.5t27 162.5q0 186 -8 377t-8 257q0 27 9 39.5t38 12.5q146 0 236 -2.5t141.5 -8t69.5 -13.5t18 -21z" />
    <glyph glyph-name="Kcommaaccent" unicode="&#x136;" horiz-adv-x="1378" 
d="M1362 1288q-65 -195 -138 -335t-184 -281q191 -362 287 -682q0 -21 -53 -37t-134 -23.5t-152 -10.5t-132 -3q-13 0 -18 10q-72 252 -179 471q-2 -53 -2 -155q0 -100 7 -244q0 -26 -41.5 -31.5t-204.5 -5.5q-189 0 -242 4q-31 3 -40 61t-23 308q-6 96 -18.5 309.5
t-17 296.5t-9.5 204t-5 204q0 24 102.5 29t452.5 5q19 0 19 -18q0 -15 -1 -41.5t-1 -38.5q0 -241 20 -514q149 340 230 600q3 12 18 12q107 0 287 -17t180 -38q0 -18 -8 -39zM780 -96q31 -3 66 -110.5t35 -151.5q0 -12 -13 -29q-10 -16 -19 -29.5t-16 -23t-17 -21.5
t-15.5 -18.5t-18.5 -20t-18 -19t-23 -23t-26 -25.5q-25 -21 -39 -21q-15 0 -36.5 20.5t-21.5 35.5q0 5 7 12q75 75 75 100q0 14 -16 14q-17 0 -50 -14t-36 -14q-17 0 -58.5 77t-41.5 109q0 10 28 29q137 123 254 123z" />
    <glyph glyph-name="kcommaaccent" unicode="&#x137;" horiz-adv-x="1140" 
d="M1100 1008q-57 -158 -110 -262t-134 -209q147 -286 219 -523q0 -24 -42 -41t-110 -25t-122 -11.5t-109 -4.5q-27 0 -33 23q-34 140 -104 297v-47q0 -63 4 -189q0 -32 -35.5 -39.5t-171.5 -7.5q-108 0 -190 4q-17 2 -26.5 13t-16.5 46t-11 89t-8 153q-7 160 -24 396.5
t-17 390.5q0 31 85.5 38t363.5 7q33 0 33 -33q0 -1 -1 -19t-1 -42q0 -158 8 -330q86 202 149 401q8 23 31 23q89 0 235 -18.5t146 -40.5q0 -20 -8 -39zM662 -96q31 -3 65.5 -110t34.5 -152q0 -13 -12 -29q-11 -18 -20.5 -32t-20.5 -27.5t-17.5 -22t-20 -23t-20.5 -21
t-26 -25.5l-29 -29q-25 -21 -39 -21q-15 0 -36 20.5t-21 35.5q0 6 6 12q76 76 76 100q0 14 -17 14t-50 -14t-36 -14q-17 0 -58.5 77t-41.5 109q0 10 29 29q137 123 254 123z" />
    <glyph glyph-name="Lacute" unicode="&#x139;" horiz-adv-x="1013" 
d="M1004 254q-3 -136 -19 -258q-1 -10 -45 -19t-144.5 -15.5t-236.5 -6.5q-381 0 -383 22q-24 159 -47 488.5t-35 571.5t-12 280q0 27 230.5 46t369.5 19q18 0 18 -16q-14 -396 -14 -807q0 -199 2 -297q25 -2 78 -2q77 0 146.5 6t72.5 6q19 0 19 -18zM256 1442
q-24 0 -35.5 46.5t-11.5 108.5q0 24 33 35q134 40 301 119q17 8 33.5 17t23 12t15 5.5t18.5 2.5q32 0 39.5 -45t7.5 -168q0 -21 -23 -29q-160 -70 -360 -100q-24 -4 -41 -4z" />
    <glyph glyph-name="lacute" unicode="&#x13a;" horiz-adv-x="847" 
d="M819 215q-3 -128 -14 -203q-2 -11 -39 -21t-118 -18t-189 -8q-306 0 -314 31q-20 127 -38.5 384t-27.5 441t-9 215q0 28 187 49t296 21q33 0 33 -31q-13 -356 -13 -624q0 -137 2 -213q135 0 179 6q14 2 34 2q31 0 31 -31zM195 1169q-24 0 -36 47.5t-12 108.5q0 24 33 35
q134 40 301 119q17 8 33.5 17t23 12t15 5.5t18.5 2.5q32 0 39.5 -45t7.5 -168q0 -9 -6.5 -17.5t-15.5 -11.5q-160 -70 -360 -100q-30 -5 -41 -5z" />
    <glyph glyph-name="Lcommaaccent" unicode="&#x13b;" horiz-adv-x="1013" 
d="M1004 254q-3 -136 -19 -258q-1 -10 -45 -19t-144.5 -15.5t-236.5 -6.5q-381 0 -383 22q-24 159 -47 488.5t-35 571.5t-12 280q0 27 230.5 46t369.5 19q18 0 18 -16q-14 -396 -14 -807q0 -199 2 -297q25 -2 78 -2q77 0 146.5 6t72.5 6q19 0 19 -18zM618 -96
q31 -3 66 -110.5t35 -151.5q0 -13 -12 -29q-11 -18 -20.5 -32t-20.5 -27.5t-17.5 -22t-20 -23t-20.5 -21t-26 -25.5l-29 -29q-25 -21 -39 -21q-15 0 -36 20.5t-21 35.5q0 6 6 12q76 76 76 100q0 14 -17 14t-50 -14t-36 -14q-17 0 -58.5 77t-41.5 109q0 10 29 29
q137 123 253 123z" />
    <glyph glyph-name="lcommaaccent" unicode="&#x13c;" horiz-adv-x="847" 
d="M819 215q-3 -128 -14 -203q-2 -11 -39 -21t-118 -18t-189 -8q-306 0 -314 31q-20 127 -38.5 384t-27.5 441t-9 215q0 28 187 49t296 21q33 0 33 -31q-13 -356 -13 -624q0 -137 2 -213q135 0 179 6q14 2 34 2q31 0 31 -31zM535 -96q31 -3 65.5 -110t34.5 -152
q0 -13 -12 -29q-11 -18 -20.5 -32t-20.5 -27.5t-17.5 -22t-20 -23t-20.5 -21t-26 -25.5l-29 -29q-25 -21 -39 -21q-15 0 -36 20.5t-21 35.5q0 6 6 12q76 76 76 100q0 14 -17 14t-50 -14t-36 -14q-17 0 -58.5 77t-41.5 109q0 10 29 29q137 123 254 123z" />
    <glyph glyph-name="Lcaron" unicode="&#x13d;" horiz-adv-x="1241" 
d="M1004 254q-3 -136 -19 -258q-1 -10 -45 -19t-144.5 -15.5t-236.5 -6.5q-381 0 -383 22q-24 159 -47 488.5t-35 571.5t-12 280q0 27 230.5 46t369.5 19q18 0 18 -16q-14 -396 -14 -807q0 -199 2 -297q25 -2 78 -2q77 0 146.5 6t72.5 6q19 0 19 -18zM1124 1622
q36 -4 76.5 -127.5t40.5 -173.5q0 -12 -14 -35q-68 -106 -234 -272q-29 -25 -45 -25q-18 0 -42.5 24t-24.5 42q0 6 6 12q90 90 90 119q0 16 -21 16q-18 0 -46.5 -19.5t-32.5 -19.5q-20 0 -72.5 112t-52.5 150q0 4 6 10.5t16 15.5l10 9q204 162 340 162z" />
    <glyph glyph-name="lcaron" unicode="&#x13e;" horiz-adv-x="1077" 
d="M819 215q-3 -128 -14 -203q-2 -11 -39 -21t-118 -18t-189 -8q-306 0 -314 31q-20 127 -38.5 384t-27.5 441t-9 215q0 28 187 49t296 21q33 0 33 -31q-13 -356 -13 -624q0 -137 2 -213q135 0 179 6q14 2 34 2q31 0 31 -31zM961 1372q36 -4 76 -127.5t40 -173.5
q0 -12 -14 -35q-68 -106 -234 -272q-29 -25 -45 -25q-18 0 -42.5 24t-24.5 42q0 6 6 12q90 90 90 119q0 16 -20 16q-18 0 -47 -19.5t-33 -19.5q-20 0 -72.5 112.5t-52.5 150.5q0 4 6.5 10.5t16 14.5t10.5 9q204 162 340 162z" />
    <glyph glyph-name="Lslash" unicode="&#x141;" horiz-adv-x="1048" 
d="M899 1090q9 0 15 -19t8 -47t3 -45.5t1 -28.5q0 -69 -17 -71q-102 -21 -186 -62q0 -457 2 -555q25 -2 76 -2q78 0 147.5 6t73.5 6q18 0 18 -18q-3 -126 -20 -258q-1 -10 -45 -19t-144 -15.5t-235 -6.5q-381 0 -385 22q-30 215 -57 625l-50 -20q-21 0 -62.5 73t-41.5 95
q0 10 44.5 30.5t96.5 36.5q-24 390 -24 500q0 27 231.5 46t370.5 19q18 0 18 -16q-9 -175 -12 -332l162 53q9 3 12 3z" />
    <glyph glyph-name="lslash" unicode="&#x142;" horiz-adv-x="876" 
d="M721 879q37 0 37 -125q0 -17 -0.5 -26t-2.5 -21.5t-7.5 -19t-14.5 -7.5q-69 -11 -131 -41v-401h43q55 0 109 4t63 4q31 0 31 -31q0 -106 -17 -203q-2 -11 -39 -21t-118 -18t-189 -8q-305 0 -313 31q-20 124 -43 465l-20 -10q-19 0 -60 63.5t-41 83.5q0 8 5.5 14.5
t17.5 13t23.5 11.5t30 12.5t30.5 12.5q-17 279 -17 374q0 28 186.5 49t297.5 21q30 0 30 -31q0 -51 -4 -123t-4 -108q88 35 117 35z" />
    <glyph glyph-name="Nacute" unicode="&#x143;" horiz-adv-x="1269" 
d="M1167 1350q6 -20 7.5 -71.5t1.5 -242.5q0 -80 2 -248t2 -262q0 -436 -6 -477q-7 -73 -21 -84q-28 -16 -182 -16q-63 0 -92.5 0.5t-63.5 4t-46.5 8t-31 17.5t-27.5 27t-26 41q-102 163 -274 375q2 -107 9 -232t7 -172q0 -30 -8.5 -42.5t-37.5 -18.5t-97 -6q-94 0 -126 4
t-44 18q-17 15 -17 115q0 39 -3 499.5t-3 717.5q0 36 13.5 47t56.5 14q148 8 225 8q48 0 71.5 -6.5t41.5 -24.5q171 -163 340 -458q0 69 -3.5 211t-3.5 209q0 49 13 59q13 8 133 8q68 0 103.5 -1t55.5 -3.5t24.5 -6t6.5 -11.5zM508 1442q-24 0 -35.5 46.5t-11.5 108.5
q0 24 33 35q134 40 301 119q17 8 33.5 17t23 12t15 5.5t18.5 2.5q32 0 39.5 -45t7.5 -168q0 -21 -23 -29q-160 -70 -360 -100q-24 -4 -41 -4z" />
    <glyph glyph-name="nacute" unicode="&#x144;" horiz-adv-x="1050" 
d="M948 1069q6 -23 6 -250v-710q0 -82 -3 -101.5t-19 -30.5q-9 -6 -18 -9t-41.5 -5t-94.5 -2q-135 0 -164 7t-53 46q-82 134 -201 283q2 -58 8.5 -142.5t6.5 -123.5q0 -43 -22 -56.5t-107 -13.5q-117 0 -144 21q-20 16 -20 102q0 22 -1 385.5t-1 558.5q0 39 12.5 50.5
t52.5 13.5q120 8 179 8q43 0 62.5 -6.5t37.5 -24.5q116 -110 233 -299q0 38 -3 126t-3 132t19 59q14 11 114 11q73 0 105.5 -3t42.5 -8t16 -18zM397 1169q-24 0 -35.5 47t-11.5 109q0 24 33 35q134 40 301 119q17 8 33.5 17t23 12t15 5.5t18.5 2.5q32 0 39.5 -45t7.5 -168
q0 -9 -6.5 -17.5t-15.5 -11.5q-160 -69 -361 -100q-30 -5 -41 -5z" />
    <glyph glyph-name="Ncommaaccent" unicode="&#x145;" horiz-adv-x="1269" 
d="M1167 1350q6 -20 7.5 -71.5t1.5 -242.5q0 -80 2 -248t2 -262q0 -436 -6 -477q-7 -73 -21 -84q-28 -16 -182 -16q-63 0 -92.5 0.5t-63.5 4t-46.5 8t-31 17.5t-27.5 27t-26 41q-102 163 -274 375q2 -107 9 -232t7 -172q0 -30 -8.5 -42.5t-37.5 -18.5t-97 -6q-94 0 -126 4
t-44 18q-17 15 -17 115q0 39 -3 499.5t-3 717.5q0 36 13.5 47t56.5 14q148 8 225 8q48 0 71.5 -6.5t41.5 -24.5q171 -163 340 -458q0 69 -3.5 211t-3.5 209q0 49 13 59q13 8 133 8q68 0 103.5 -1t55.5 -3.5t24.5 -6t6.5 -11.5zM725 -96q31 -3 65.5 -110t34.5 -152
q0 -13 -12 -29q-11 -18 -20.5 -32t-20.5 -27.5t-17.5 -22t-20 -23t-20.5 -21t-26 -25.5l-29 -29q-25 -21 -38 -21q-15 0 -36.5 20.5t-21.5 35.5q0 6 6 12q76 76 76 100q0 14 -16 14q-17 0 -50 -14t-36 -14q-17 0 -59 77t-42 109q0 10 29 29q137 123 254 123z" />
    <glyph glyph-name="ncommaaccent" unicode="&#x146;" horiz-adv-x="1050" 
d="M948 1069q6 -23 6 -250v-710q0 -82 -3 -101.5t-19 -30.5q-9 -6 -18 -9t-41.5 -5t-94.5 -2q-135 0 -164 7t-53 46q-82 134 -201 283q2 -58 8.5 -142.5t6.5 -123.5q0 -43 -22 -56.5t-107 -13.5q-117 0 -144 21q-20 16 -20 102q0 22 -1 385.5t-1 558.5q0 39 12.5 50.5
t52.5 13.5q120 8 179 8q43 0 62.5 -6.5t37.5 -24.5q116 -110 233 -299q0 38 -3 126t-3 132t19 59q14 11 114 11q73 0 105.5 -3t42.5 -8t16 -18zM616 -96q31 -3 66 -110.5t35 -151.5q0 -13 -12 -29q-11 -18 -20.5 -32t-20.5 -27.5t-17.5 -22t-20 -23t-20.5 -21t-26 -25.5
l-29 -29q-25 -21 -39 -21q-15 0 -36 20.5t-21 35.5q0 6 6 12q76 76 76 100q0 14 -17 14t-50 -14t-36 -14q-17 0 -58.5 77t-41.5 109q0 10 28 29q137 123 254 123z" />
    <glyph glyph-name="Ncaron" unicode="&#x147;" horiz-adv-x="1269" 
d="M1167 1350q6 -20 7.5 -71.5t1.5 -242.5q0 -80 2 -248t2 -262q0 -436 -6 -477q-7 -73 -21 -84q-28 -16 -182 -16q-63 0 -92.5 0.5t-63.5 4t-46.5 8t-31 17.5t-27.5 27t-26 41q-102 163 -274 375q2 -107 9 -232t7 -172q0 -30 -8.5 -42.5t-37.5 -18.5t-97 -6q-94 0 -126 4
t-44 18q-17 15 -17 115q0 39 -3 499.5t-3 717.5q0 36 13.5 47t56.5 14q148 8 225 8q48 0 71.5 -6.5t41.5 -24.5q171 -163 340 -458q0 69 -3.5 211t-3.5 209q0 49 13 59q13 8 133 8q68 0 103.5 -1t55.5 -3.5t24.5 -6t6.5 -11.5zM453 1843q119 -68 182 -160q88 39 188 158
q4 8 21 8q19 0 68 -45.5t49 -81.5q0 -8 -17 -34q-88 -122 -205 -207q-22 -11 -41 -11q-153 0 -182 31q-75 100 -199 199q-10 10 -10 22q0 20 46 73.5t73 53.5q15 0 27 -6z" />
    <glyph glyph-name="ncaron" unicode="&#x148;" horiz-adv-x="1050" 
d="M948 1069q6 -23 6 -250v-710q0 -82 -3 -101.5t-19 -30.5q-9 -6 -18 -9t-41.5 -5t-94.5 -2q-135 0 -164 7t-53 46q-82 134 -201 283q2 -58 8.5 -142.5t6.5 -123.5q0 -43 -22 -56.5t-107 -13.5q-117 0 -144 21q-20 16 -20 102q0 22 -1 385.5t-1 558.5q0 39 12.5 50.5
t52.5 13.5q120 8 179 8q43 0 62.5 -6.5t37.5 -24.5q116 -110 233 -299q0 38 -3 126t-3 132t19 59q14 11 114 11q73 0 105.5 -3t42.5 -8t16 -18zM344 1571q119 -68 182 -160q90 40 189 158q4 8 20 8q19 0 68 -45.5t49 -81.5q0 -11 -16 -35q-88 -122 -205 -207
q-20 -10 -41 -10q-153 0 -182 31q-73 98 -199 198q-10 10 -10 23q0 20 45.5 73.5t72.5 53.5q15 0 27 -6z" />
    <glyph glyph-name="Eng" unicode="&#x14a;" horiz-adv-x="1269" 
d="M1180 526v-67v-83t-1 -87.5t-2.5 -98t-5 -96t-8.5 -100t-12.5 -91t-17 -89t-23 -73.5t-29.5 -63q-78 -130 -202.5 -198t-282.5 -68q-171 0 -274 41t-156 127q-21 25 -21 51q0 20 77 91t104 71q10 0 12 -6q26 -52 53.5 -73t69.5 -21q67 0 107 80t40 227q0 111 -2 162
q-95 135 -196 260q2 -107 9 -232t7 -172q0 -30 -8.5 -42.5t-37.5 -18.5t-97 -6q-94 0 -126 4t-44 18q-17 15 -17 115q0 39 -3 499.5t-3 717.5q0 36 13.5 47t56.5 14q148 8 225 8q48 0 71.5 -6.5t41.5 -24.5q171 -163 340 -458q0 69 -3.5 211t-3.5 209q0 49 13 59q13 8 133 8
q68 0 103.5 -1t55.5 -3.5t24.5 -6t6.5 -11.5q6 -20 7.5 -71.5t1.5 -242.5q0 -80 2 -248t2 -262z" />
    <glyph glyph-name="eng" unicode="&#x14b;" horiz-adv-x="1050" 
d="M954 819v-710q0 -149 -15.5 -265t-66.5 -217q-58 -105 -160 -160t-231 -55q-137 0 -221 33t-129 102q-14 23 -14 47q0 20 65.5 85t89.5 65q21 0 27 -14q28 -64 78 -64q44 0 71 57.5t27 161.5q0 121 -4 265q-16 23 -34.5 47.5t-41.5 54t-35 45.5q2 -58 8.5 -142.5
t6.5 -123.5q0 -43 -22 -56.5t-107 -13.5q-117 0 -144 21q-20 16 -20 102q0 22 -1 385.5t-1 558.5q0 39 12.5 50.5t52.5 13.5q120 8 179 8q43 0 62.5 -6.5t37.5 -24.5q116 -110 233 -299q0 38 -3 126t-3 132t19 59q14 11 114 11q73 0 105.5 -3t42.5 -8t16 -18q6 -23 6 -250z
" />
    <glyph glyph-name="Omacron" unicode="&#x14c;" horiz-adv-x="1343" 
d="M682 1413q142 0 256.5 -53.5t188 -146.5t112.5 -214.5t39 -261.5q0 -120 -24 -234t-73.5 -214.5t-119.5 -175.5t-168.5 -118.5t-214.5 -43.5q-278 0 -445 210t-167 562q0 199 73 354.5t214 245.5t329 90zM668 295q59 0 96 74t37 188q0 102 -29.5 145t-95.5 43
q-81 0 -111 -42t-30 -146q0 -114 38 -188t95 -74zM993 1702q0 -36 -21.5 -109.5t-47.5 -81.5q-166 9 -234 9q-92 0 -295 -9q-20 0 -31.5 62.5t-13.5 126.5q0 14 19 14q163 10 315 10q139 0 289 -10q20 0 20 -12z" />
    <glyph glyph-name="omacron" unicode="&#x14d;" horiz-adv-x="1110" 
d="M555 1128q114 0 205.5 -42.5t150 -117t90 -171.5t31.5 -209q0 -96 -19 -187t-58.5 -171t-96 -139.5t-135.5 -94.5t-172 -35q-222 0 -357 167t-135 447q0 243 134.5 398t361.5 155zM543 262q38 0 62 54t24 133q0 69 -19 97.5t-61 28.5q-52 0 -71 -27.5t-19 -98.5
q0 -79 24.5 -133t59.5 -54zM877 1430q0 -35 -22 -109t-48 -82q-148 8 -234 8q-114 0 -294 -8q-21 0 -32.5 62.5t-13.5 125.5q0 15 19 15q163 10 315 10q139 0 289 -10q21 0 21 -12z" />
    <glyph glyph-name="Ohungarumlaut" unicode="&#x150;" horiz-adv-x="1343" 
d="M682 1413q142 0 256.5 -53.5t188 -146.5t112.5 -214.5t39 -261.5q0 -120 -24 -234t-73.5 -214.5t-119.5 -175.5t-168.5 -118.5t-214.5 -43.5q-278 0 -445 210t-167 562q0 199 73 354.5t214 245.5t329 90zM668 295q59 0 96 74t37 188q0 102 -29.5 145t-95.5 43
q-81 0 -111 -42t-30 -146q0 -114 38 -188t95 -74zM743 1489q-4 2 -4 10q0 13 4 21q54 133 181 303q4 8 12 8q19 0 72 -42.5t53 -59.5q0 -12 -14 -29q-70 -83 -158 -232q-9 -18 -29 -18t-117 39zM412 1489q-6 3 -6 10q0 9 6 21q56 136 180 303q4 8 10 8q20 0 73.5 -42.5
t53.5 -59.5q0 -8 -14 -29q-64 -77 -160 -232q-6 -18 -27 -18q-9 0 -23.5 3.5t-29.5 9t-27 11t-23.5 10.5t-12.5 5z" />
    <glyph glyph-name="ohungarumlaut" unicode="&#x151;" horiz-adv-x="1110" 
d="M555 1128q114 0 205.5 -42.5t150 -117t90 -171.5t31.5 -209q0 -96 -19 -187t-58.5 -171t-96 -139.5t-135.5 -94.5t-172 -35q-222 0 -357 167t-135 447q0 243 134.5 398t361.5 155zM543 262q38 0 62 54t24 133q0 69 -19 97.5t-61 28.5q-52 0 -71 -27.5t-19 -98.5
q0 -79 24.5 -133t59.5 -54zM627 1217q-4 2 -4 10q0 12 4 20q56 136 180 303q5 9 12 9q19 0 72 -43t53 -60q0 -12 -14 -29q-72 -86 -158 -231q-9 -18 -29 -18q-9 0 -23 3.5t-29 9t-27.5 10.5t-24 10.5t-12.5 5.5zM295 1217q-6 3 -6 10q0 8 6 20q56 136 180 303q5 9 10 9
q20 0 73.5 -43t53.5 -60q0 -8 -14 -29q-67 -79 -160 -231q-6 -18 -26 -18q-9 0 -23.5 3.5t-29.5 9t-27.5 10.5t-24 10.5t-12.5 5.5z" />
    <glyph glyph-name="OE" unicode="&#x152;" horiz-adv-x="1736" 
d="M1702 1350q0 -144 -10.5 -284.5t-26 -226t-29.5 -85.5q-6 0 -45.5 3t-115 6t-170.5 3q-7 -53 -7 -148q60 0 166 8.5t131 8.5q60 0 60 -29q-11 -65 -47 -176q-9 -22 -187 -22q-80 0 -127 2q-8 -74 -8 -158q77 -6 158 -6q30 0 88 3t86 3q16 0 16 -29q0 -139 -10 -227
q-8 -41 -426 -41q-189 0 -260.5 3t-101.5 17q-84 -24 -158 -24q-278 0 -445 210t-167 562q0 199 73 354.5t214 245.5t329 90q147 0 264 -57q125 10 445 10h297q14 0 14 -16zM668 295q59 0 96 74t37 188q0 102 -29.5 145t-95.5 43q-81 0 -111 -42t-30 -146q0 -114 38 -188
t95 -74z" />
    <glyph glyph-name="oe" unicode="&#x153;" horiz-adv-x="1427" 
d="M1366 1063q0 -115 -11 -228.5t-27.5 -182t-31.5 -68.5q-5 0 -76.5 4t-164.5 4q0 -13 -1 -43t-1 -41q29 1 76 4.5t81.5 5.5t55.5 2q35 0 48 -10t13 -31q-5 -36 -37 -127q-11 -28 -160 -28h-83q-3 -40 -3 -95q33 -4 105 -4q19 0 62.5 3t70.5 3q31 0 31 -41q-4 -152 -8 -178
q-8 -47 -351 -47q-239 0 -280 12q-62 -16 -119 -16q-223 0 -357.5 167t-134.5 447q0 244 134 398.5t360 154.5q122 0 207 -43q117 9 571 9q31 0 31 -31zM547 262q38 0 61 53.5t23 133.5q0 70 -18 98t-60 28q-53 0 -72.5 -27.5t-19.5 -98.5q0 -80 24.5 -133.5t61.5 -53.5z
" />
    <glyph glyph-name="Racute" unicode="&#x154;" horiz-adv-x="1441" 
d="M1368 817q0 -186 -76 -310.5t-213 -178.5q138 -146 234 -297q8 -16 8 -23q0 -13 -16 -16q-160 -74 -320 -115q-12 -4 -27 -4q-19 0 -32 21q-68 127 -201 239v-135q0 -23 -61.5 -30t-169.5 -7q-195 0 -256 4q-35 4 -52.5 144.5t-52.5 616.5q-13 173 -20 273
q-23 299 -23 320q0 40 136 66t327 26q185 0 340.5 -48.5t258 -130.5t159.5 -189.5t57 -225.5zM948 588q0 64 -48.5 98.5t-119.5 34.5q-31 0 -55 -6v-334q103 8 163 63t60 144zM594 1442q-24 0 -35.5 46.5t-11.5 108.5q0 24 33 35q134 40 301 119q17 8 33.5 17t23 12t15 5.5
t18.5 2.5q32 0 39.5 -45t7.5 -168q0 -21 -23 -29q-160 -70 -360 -100q-24 -4 -41 -4z" />
    <glyph glyph-name="racute" unicode="&#x155;" horiz-adv-x="1187" 
d="M1108 649q0 -139 -58 -238.5t-157 -144.5q107 -124 168 -221q6 -10 6 -20q0 -20 -20 -31q-138 -58 -246 -86q-18 -6 -31 -6q-27 0 -43 24q-42 83 -121 156v-66q0 -29 -54 -38t-144 -9q-152 0 -197 4q-21 3 -32 22.5t-24.5 109.5t-25 237.5t-31.5 445.5q-18 246 -18 250
q0 39 110.5 64.5t264.5 25.5q299 0 476 -134.5t177 -344.5zM743 473q0 40 -31.5 62t-78.5 22h-27v-225q66 9 101.5 45.5t35.5 95.5zM467 1169q-24 0 -35.5 47t-11.5 109q0 24 33 35q134 40 301 119q17 8 33.5 17t23 12t15 5.5t18.5 2.5q32 0 39.5 -45t7.5 -168
q0 -21 -23 -29q-160 -70 -360 -100q-30 -5 -41 -5z" />
    <glyph glyph-name="Rcommaaccent" unicode="&#x156;" horiz-adv-x="1441" 
d="M1368 817q0 -186 -76 -310.5t-213 -178.5q138 -146 234 -297q8 -16 8 -23q0 -13 -16 -16q-160 -74 -320 -115q-12 -4 -27 -4q-19 0 -32 21q-68 127 -201 239v-135q0 -23 -61.5 -30t-169.5 -7q-195 0 -256 4q-35 4 -52.5 144.5t-52.5 616.5q-13 173 -20 273
q-23 299 -23 320q0 40 136 66t327 26q185 0 340.5 -48.5t258 -130.5t159.5 -189.5t57 -225.5zM948 588q0 64 -48.5 98.5t-119.5 34.5q-31 0 -55 -6v-334q103 8 163 63t60 144zM831 -96q31 -3 66 -110.5t35 -151.5q0 -13 -12 -29q-11 -18 -20.5 -32t-20.5 -27.5t-17.5 -22
t-20 -23t-20.5 -21t-26 -25.5l-29 -29q-25 -21 -39 -21q-15 0 -36 20.5t-21 35.5q0 6 6 12q76 76 76 100q0 14 -17 14t-50 -14t-36 -14q-17 0 -58.5 77t-41.5 109q0 10 29 29q137 123 253 123z" />
    <glyph glyph-name="rcommaaccent" unicode="&#x157;" horiz-adv-x="1187" 
d="M1108 649q0 -139 -58 -238.5t-157 -144.5q107 -124 168 -221q6 -10 6 -20q0 -20 -20 -31q-138 -58 -246 -86q-18 -6 -31 -6q-27 0 -43 24q-42 83 -121 156v-66q0 -29 -54 -38t-144 -9q-152 0 -197 4q-21 3 -32 22.5t-24.5 109.5t-25 237.5t-31.5 445.5q-18 246 -18 250
q0 39 110.5 64.5t264.5 25.5q299 0 476 -134.5t177 -344.5zM743 473q0 40 -31.5 62t-78.5 22h-27v-225q66 9 101.5 45.5t35.5 95.5zM684 -96q31 -3 65.5 -110t34.5 -152q0 -13 -12 -29q-11 -18 -20.5 -32t-20.5 -27.5t-17.5 -22t-20 -23t-20.5 -21t-26 -25.5l-29 -29
q-25 -21 -38 -21q-15 0 -36.5 20.5t-21.5 35.5q0 6 6 12q76 76 76 100q0 14 -16 14q-17 0 -50 -14t-36 -14q-17 0 -59 77t-42 109q0 10 29 29q137 123 254 123z" />
    <glyph glyph-name="Rcaron" unicode="&#x158;" horiz-adv-x="1441" 
d="M1368 817q0 -186 -76 -310.5t-213 -178.5q138 -146 234 -297q8 -16 8 -23q0 -13 -16 -16q-160 -74 -320 -115q-12 -4 -27 -4q-19 0 -32 21q-68 127 -201 239v-135q0 -23 -61.5 -30t-169.5 -7q-195 0 -256 4q-35 4 -52.5 144.5t-52.5 616.5q-13 173 -20 273
q-23 299 -23 320q0 40 136 66t327 26q185 0 340.5 -48.5t258 -130.5t159.5 -189.5t57 -225.5zM948 588q0 64 -48.5 98.5t-119.5 34.5q-31 0 -55 -6v-334q103 8 163 63t60 144zM518 1843q119 -68 182 -160q90 40 189 158q4 8 20 8q19 0 68 -45.5t49 -81.5q0 -10 -16 -34
q-88 -122 -205 -207q-22 -11 -41 -11q-153 0 -182 31q-75 100 -199 199q-10 10 -10 22q0 20 46 73.5t73 53.5q14 0 26 -6z" />
    <glyph glyph-name="rcaron" unicode="&#x159;" horiz-adv-x="1187" 
d="M1108 649q0 -139 -58 -238.5t-157 -144.5q107 -124 168 -221q6 -10 6 -20q0 -20 -20 -31q-138 -58 -246 -86q-18 -6 -31 -6q-27 0 -43 24q-42 83 -121 156v-66q0 -29 -54 -38t-144 -9q-152 0 -197 4q-21 3 -32 22.5t-24.5 109.5t-25 237.5t-31.5 445.5q-18 246 -18 250
q0 39 110.5 64.5t264.5 25.5q299 0 476 -134.5t177 -344.5zM743 473q0 40 -31.5 62t-78.5 22h-27v-225q66 9 101.5 45.5t35.5 95.5zM391 1571q119 -68 182 -160q90 40 189 158q4 8 20 8q19 0 68 -45.5t49 -81.5q0 -11 -16 -35q-88 -122 -205 -207q-20 -10 -41 -10
q-153 0 -182 31q-73 98 -199 198q-10 10 -10 23q0 20 46 73.5t73 53.5q14 0 26 -6z" />
    <glyph glyph-name="Sacute" unicode="&#x15a;" horiz-adv-x="1003" 
d="M866 1405q29 -123 47.5 -273.5t18.5 -244.5q0 -17 -25 -17q-3 0 -16.5 2t-26.5 2q-79 0 -116 -31.5t-37 -84.5q0 -51 34 -94q129 -165 129 -306q0 -104 -42.5 -182.5t-120 -125.5t-179.5 -70t-229 -23q-40 0 -55 5.5t-21 25.5q-24 98 -24 180q0 10 10 13t37 3t43 2
q164 16 164 111q0 46 -30.5 86t-109.5 100q-124 99 -184.5 210t-60.5 249q0 84 23 156t74.5 134.5t130 106t195 68.5t263.5 25q103 0 108 -27zM416 1442q-24 0 -35.5 46.5t-11.5 108.5q0 24 32 35q134 40 301 119q17 8 33.5 17t23 12t15 5.5t19.5 2.5q32 0 39.5 -45
t7.5 -168q0 -21 -23 -29q-160 -70 -360 -100q-24 -4 -41 -4z" />
    <glyph glyph-name="sacute" unicode="&#x15b;" horiz-adv-x="839" 
d="M713 1108q22 -96 36.5 -213t14.5 -190q0 -29 -29 -29q-13 0 -25.5 1t-15.5 1q-52 0 -77 -20.5t-25 -53.5q0 -28 24 -61q50 -72 76.5 -130t26.5 -118q0 -166 -124.5 -247t-336.5 -81q-38 0 -54 6.5t-20 28.5q-20 74 -20 143q0 33 29 33q2 0 20 -1t31 -1q114 0 114 72
q0 32 -21 58.5t-77 70.5q-100 80 -148.5 169t-48.5 202q0 86 30 155.5t93.5 124.5t171.5 85t254 30q48 0 72.5 -7t28.5 -28zM293 1169q-24 0 -35.5 47t-11.5 109q0 24 33 35q134 40 301 119q17 8 33.5 17t23 12t15 5.5t18.5 2.5q32 0 39.5 -45t7.5 -168q0 -21 -23 -29
q-160 -70 -360 -100q-30 -5 -41 -5z" />
    <glyph glyph-name="Scedilla" unicode="&#x15e;" horiz-adv-x="1003" 
d="M866 1405q29 -123 47.5 -273.5t18.5 -244.5q0 -17 -25 -17q-3 0 -16.5 2t-26.5 2q-79 0 -116 -31.5t-37 -84.5q0 -51 34 -94q129 -165 129 -306q0 -104 -42.5 -182.5t-120 -125.5t-179.5 -70t-229 -23q-40 0 -55 5.5t-21 25.5q-24 98 -24 180q0 10 10 13t37 3t43 2
q164 16 164 111q0 46 -30.5 86t-109.5 100q-124 99 -184.5 210t-60.5 249q0 84 23 156t74.5 134.5t130 106t195 68.5t263.5 25q103 0 108 -27zM592 -96q31 -3 65.5 -110t34.5 -152q0 -13 -12 -29q-11 -18 -20.5 -32t-20.5 -27.5t-17.5 -22t-20 -23t-20.5 -21t-26 -25.5
l-29 -29q-25 -21 -39 -21q-15 0 -36 20.5t-21 35.5q0 6 6 12q76 76 76 100q0 14 -16 14q-17 0 -50 -14t-36 -14q-17 0 -59 77t-42 109q0 10 29 29q137 123 254 123z" />
    <glyph glyph-name="scedilla" unicode="&#x15f;" horiz-adv-x="839" 
d="M713 1108q22 -96 36.5 -213t14.5 -190q0 -29 -29 -29q-13 0 -25.5 1t-15.5 1q-52 0 -77 -20.5t-25 -53.5q0 -28 24 -61q50 -72 76.5 -130t26.5 -118q0 -166 -124.5 -247t-336.5 -81q-38 0 -54 6.5t-20 28.5q-20 74 -20 143q0 33 29 33q2 0 20 -1t31 -1q114 0 114 72
q0 32 -21 58.5t-77 70.5q-100 80 -148.5 169t-48.5 202q0 86 30 155.5t93.5 124.5t171.5 85t254 30q48 0 72.5 -7t28.5 -28zM510 -96q31 -3 65.5 -110t34.5 -152q0 -13 -12 -29q-11 -18 -20.5 -32t-20.5 -27.5t-17.5 -22t-20 -23t-20.5 -21t-26 -25.5l-29 -29
q-25 -21 -38 -21q-15 0 -36.5 20.5t-21.5 35.5q0 6 6 12q76 76 76 100q0 14 -16 14q-17 0 -50 -14t-36 -14q-17 0 -59 77t-42 109q0 10 29 29q137 123 254 123z" />
    <glyph glyph-name="Scaron" unicode="&#x160;" horiz-adv-x="1003" 
d="M866 1405q29 -123 47.5 -273.5t18.5 -244.5q0 -17 -25 -17q-3 0 -16.5 2t-26.5 2q-79 0 -116 -31.5t-37 -84.5q0 -51 34 -94q129 -165 129 -306q0 -104 -42.5 -182.5t-120 -125.5t-179.5 -70t-229 -23q-40 0 -55 5.5t-21 25.5q-24 98 -24 180q0 10 10 13t37 3t43 2
q164 16 164 111q0 46 -30.5 86t-109.5 100q-124 99 -184.5 210t-60.5 249q0 84 23 156t74.5 134.5t130 106t195 68.5t263.5 25q103 0 108 -27zM340 1843q119 -68 182 -160q90 40 189 158q4 8 20 8q19 0 68 -45.5t49 -81.5q0 -8 -17 -34q-89 -123 -204 -207q-22 -11 -41 -11
q-154 0 -183 31q-77 102 -198 199q-10 10 -10 22q0 20 45.5 73.5t72.5 53.5q15 0 27 -6z" />
    <glyph glyph-name="scaron" unicode="&#x161;" horiz-adv-x="839" 
d="M713 1108q22 -96 36.5 -213t14.5 -190q0 -29 -29 -29q-13 0 -25.5 1t-15.5 1q-52 0 -77 -20.5t-25 -53.5q0 -28 24 -61q50 -72 76.5 -130t26.5 -118q0 -166 -124.5 -247t-336.5 -81q-38 0 -54 6.5t-20 28.5q-20 74 -20 143q0 33 29 33q2 0 20 -1t31 -1q114 0 114 72
q0 32 -21 58.5t-77 70.5q-100 80 -148.5 169t-48.5 202q0 86 30 155.5t93.5 124.5t171.5 85t254 30q48 0 72.5 -7t28.5 -28zM238 1571q119 -68 182 -160q88 39 188 158q4 8 21 8q19 0 67.5 -45.5t48.5 -81.5q0 -11 -16 -35q-88 -122 -205 -207q-20 -10 -41 -10
q-153 0 -182 31q-73 98 -199 198q-10 10 -10 23q0 20 46 73.5t73 53.5q15 0 27 -6z" />
    <glyph glyph-name="Tcaron" unicode="&#x164;" horiz-adv-x="1175" 
d="M1137 1358q6 -138 6 -256q0 -2 -6 -320q0 -18 -19 -18q-178 0 -260 -2q-14 -313 -67 -778q0 -29 -150 -29q-69 0 -244 10q-18 3 -20 51q-11 348 -51 750q-88 4 -265 4q-18 0 -18 18q-6 156 -6 316q0 127 6 268q0 19 18 19q119 4 363 4q331 0 694 -19q19 0 19 -18z
M406 1843q119 -68 182 -160q88 39 188 158q4 8 21 8q19 0 67.5 -45.5t48.5 -81.5q0 -10 -16 -34q-88 -122 -205 -207q-22 -11 -41 -11q-153 0 -182 31q-75 100 -199 199q-10 10 -10 22q0 20 46 73.5t73 53.5q15 0 27 -6z" />
    <glyph glyph-name="tcaron" unicode="&#x165;" horiz-adv-x="978" 
d="M899 1102q28 -3 31 -31q6 -72 6 -201q0 -121 -6 -247q-4 -33 -31 -33h-184q-11 -261 -51 -586q-5 -39 -134 -39q-86 0 -192 8q-15 3 -21.5 14t-7.5 40q-23 388 -41 567q-59 4 -186 4q-31 0 -31 31q-6 117 -6 243q0 99 6 207q0 13 9.5 23t21.5 10q84 4 280 4
q336 0 537 -14zM307 1571q119 -68 182 -160q90 40 189 158q4 8 20 8q19 0 68 -45.5t49 -81.5q0 -11 -16 -35q-88 -122 -205 -207q-20 -10 -41 -10q-153 0 -182 31q-73 98 -199 198q-10 10 -10 23q0 20 46 73.5t73 53.5q14 0 26 -6z" />
    <glyph glyph-name="Tbar" unicode="&#x166;" horiz-adv-x="1175" 
d="M989 475q0 -36 -21.5 -109t-47.5 -81q-50 4 -99 4l-30 -305q0 -29 -150 -29q-69 0 -244 10q-18 3 -20 51l-12 273q-53 0 -115 -4q-21 0 -32 62t-13 126q0 16 18 16q9 0 127 5l-24 272q-88 4 -265 4q-18 0 -18 18q-6 156 -6 316q0 127 6 268q0 19 18 19q119 4 363 4
q331 0 694 -19q19 0 19 -18q6 -138 6 -256q0 -2 -6 -320q0 -18 -19 -18q-178 0 -260 -2q-7 -132 -18 -268q123 -5 129 -5q20 0 20 -14z" />
    <glyph glyph-name="tbar" unicode="&#x167;" horiz-adv-x="978" 
d="M829 389q0 -36 -21.5 -109t-47.5 -81q-46 4 -76 4q-12 -136 -20 -199q-5 -39 -134 -39q-86 0 -192 8q-15 3 -21.5 14t-7.5 40q-8 117 -10 176q-44 0 -106 -4q-21 0 -32.5 62.5t-13.5 125.5q0 16 19 16q16 0 56 2.5t63 2.5l-17 186q-59 4 -186 4q-31 0 -31 31
q-6 117 -6 243q0 99 6 207q0 13 9.5 23t21.5 10q84 4 280 4q336 0 537 -14q28 -3 31 -31q6 -72 6 -201q0 -121 -6 -247q-4 -33 -31 -33h-184q-2 -62 -13 -182q98 -5 107 -5q20 0 20 -14z" />
    <glyph glyph-name="Utilde" unicode="&#x168;" horiz-adv-x="1243" 
d="M1178 1346q4 -10 4 -29q0 -90 -13.5 -408t-13.5 -428q0 -100 -13 -176t-48.5 -144.5t-94.5 -112.5t-153.5 -69.5t-222.5 -25.5q-285 0 -414 129t-129 397q0 162 -4 452.5t-4 342.5q0 36 9.5 50.5t37.5 18.5q129 21 270 21q132 0 234 -2q58 -2 75 -13t17 -59
q0 -148 -6.5 -458t-6.5 -459q0 -92 72 -92q28 0 46 13.5t25 40t9 46.5t2 53q0 134 -4 427.5t-4 453.5q0 39 23 49t110 10q112 0 150.5 -6t46.5 -22zM989 1782q0 -112 -12 -183q-81 -90 -199 -90q-55 0 -139 31t-115 31q-78 0 -143 -82q-8 -8 -19 -8q-26 0 -26 51
q0 119 10 156q75 94 172 94q67 0 155.5 -32t114.5 -32q100 0 156 78q10 10 21 10q8 0 16 -7t8 -17z" />
    <glyph glyph-name="utilde" unicode="&#x169;" 
d="M954 1067q2 -8 2 -31q0 -70 -9 -314.5t-9 -330.5q0 -81 -10.5 -142.5t-39.5 -117t-76 -91.5t-123 -56.5t-179 -20.5q-231 0 -335.5 104t-104.5 322q0 119 -2 340.5t-2 274.5q0 37 10 51t39 20q118 17 278 17q65 0 150 -5q34 -3 44.5 -15t10.5 -56q0 -114 -5 -355t-5 -356
q0 -53 37 -53q16 0 26 9t14.5 26t5.5 31t1 36q0 104 -3 331.5t-3 348.5q0 43 20.5 54.5t99.5 11.5q95 0 128 -6.5t40 -26.5zM862 1509q0 -111 -12 -182q-81 -90 -199 -90q-55 0 -139 30.5t-115 30.5q-79 0 -143 -81q-9 -9 -18 -9q-27 0 -27 52q0 118 10 155q75 94 172 94
q67 0 156 -31.5t115 -31.5q99 0 155 78q10 10 21 10q8 0 16 -7.5t8 -17.5z" />
    <glyph glyph-name="Umacron" unicode="&#x16a;" horiz-adv-x="1243" 
d="M1178 1346q4 -10 4 -29q0 -90 -13.5 -408t-13.5 -428q0 -100 -13 -176t-48.5 -144.5t-94.5 -112.5t-153.5 -69.5t-222.5 -25.5q-285 0 -414 129t-129 397q0 162 -4 452.5t-4 342.5q0 36 9.5 50.5t37.5 18.5q129 21 270 21q132 0 234 -2q58 -2 75 -13t17 -59
q0 -148 -6.5 -458t-6.5 -459q0 -92 72 -92q28 0 46 13.5t25 40t9 46.5t2 53q0 134 -4 427.5t-4 453.5q0 39 23 49t110 10q112 0 150.5 -6t46.5 -22zM963 1702q0 -35 -22 -109t-48 -82q-167 9 -234 9q-91 0 -294 -9q-21 0 -32.5 63t-13.5 126q0 14 19 14q163 10 315 10
q139 0 289 -10q21 0 21 -12z" />
    <glyph glyph-name="umacron" unicode="&#x16b;" 
d="M954 1067q2 -8 2 -31q0 -70 -9 -314.5t-9 -330.5q0 -81 -10.5 -142.5t-39.5 -117t-76 -91.5t-123 -56.5t-179 -20.5q-231 0 -335.5 104t-104.5 322q0 119 -2 340.5t-2 274.5q0 37 10 51t39 20q118 17 278 17q65 0 150 -5q34 -3 44.5 -15t10.5 -56q0 -114 -5 -355t-5 -356
q0 -53 37 -53q16 0 26 9t14.5 26t5.5 31t1 36q0 104 -3 331.5t-3 348.5q0 43 20.5 54.5t99.5 11.5q95 0 128 -6.5t40 -26.5zM856 1430q0 -35 -22 -109t-48 -82q-148 8 -233 8q-115 0 -295 -8q-21 0 -32 62t-13 126q0 15 18 15q163 10 316 10q139 0 289 -10q20 0 20 -12z" />
    <glyph glyph-name="Ubreve" unicode="&#x16c;" horiz-adv-x="1243" 
d="M1178 1346q4 -10 4 -29q0 -90 -13.5 -408t-13.5 -428q0 -100 -13 -176t-48.5 -144.5t-94.5 -112.5t-153.5 -69.5t-222.5 -25.5q-285 0 -414 129t-129 397q0 162 -4 452.5t-4 342.5q0 36 9.5 50.5t37.5 18.5q129 21 270 21q132 0 234 -2q58 -2 75 -13t17 -59
q0 -148 -6.5 -458t-6.5 -459q0 -92 72 -92q28 0 46 13.5t25 40t9 46.5t2 53q0 134 -4 427.5t-4 453.5q0 39 23 49t110 10q112 0 150.5 -6t46.5 -22zM774 1790q72 14 125 14q18 0 27 -0.5t20.5 -8t11.5 -21.5q0 -142 -88 -224t-208 -82q-57 0 -108.5 18t-94 52.5t-67.5 91.5
t-25 129q0 47 182 47q11 0 21.5 -9t11.5 -21q3 -47 23 -81t57 -34q72 0 79 100q3 20 33 29z" />
    <glyph glyph-name="ubreve" unicode="&#x16d;" 
d="M954 1067q2 -8 2 -31q0 -70 -9 -314.5t-9 -330.5q0 -81 -10.5 -142.5t-39.5 -117t-76 -91.5t-123 -56.5t-179 -20.5q-231 0 -335.5 104t-104.5 322q0 119 -2 340.5t-2 274.5q0 37 10 51t39 20q118 17 278 17q65 0 150 -5q34 -3 44.5 -15t10.5 -56q0 -114 -5 -355t-5 -356
q0 -53 37 -53q16 0 26 9t14.5 26t5.5 31t1 36q0 104 -3 331.5t-3 348.5q0 43 20.5 54.5t99.5 11.5q95 0 128 -6.5t40 -26.5zM647 1518q72 14 125 14q59 0 59 -31q0 -72 -25 -131t-67 -96.5t-94.5 -57.5t-109.5 -20t-108.5 18t-94 52.5t-67.5 91.5t-25 129q0 47 182 47
q11 0 21.5 -9.5t11.5 -21.5q3 -47 23 -80.5t57 -33.5q72 0 79 100q3 20 33 29z" />
    <glyph glyph-name="Uring" unicode="&#x16e;" horiz-adv-x="1243" 
d="M1178 1346q4 -10 4 -29q0 -90 -13.5 -408t-13.5 -428q0 -100 -13 -176t-48.5 -144.5t-94.5 -112.5t-153.5 -69.5t-222.5 -25.5q-285 0 -414 129t-129 397q0 162 -4 452.5t-4 342.5q0 36 9.5 50.5t37.5 18.5q129 21 270 21q132 0 234 -2q58 -2 75 -13t17 -59
q0 -148 -6.5 -458t-6.5 -459q0 -92 72 -92q28 0 46 13.5t25 40t9 46.5t2 53q0 134 -4 427.5t-4 453.5q0 39 23 49t110 10q112 0 150.5 -6t46.5 -22zM664 1423q-82 0 -145.5 63t-63.5 159q0 91 52 144.5t157 53.5q103 0 153.5 -53.5t50.5 -144.5q0 -95 -61.5 -158.5
t-142.5 -63.5zM741 1610q0 100 -75 100q-80 0 -80 -100q0 -40 23.5 -69.5t56.5 -29.5q31 0 53 29.5t22 69.5z" />
    <glyph glyph-name="uring" unicode="&#x16f;" 
d="M954 1067q2 -8 2 -31q0 -70 -9 -314.5t-9 -330.5q0 -81 -10.5 -142.5t-39.5 -117t-76 -91.5t-123 -56.5t-179 -20.5q-231 0 -335.5 104t-104.5 322q0 119 -2 340.5t-2 274.5q0 37 10 51t39 20q118 17 278 17q65 0 150 -5q34 -3 44.5 -15t10.5 -56q0 -114 -5 -355t-5 -356
q0 -53 37 -53q16 0 26 9t14.5 26t5.5 31t1 36q0 104 -3 331.5t-3 348.5q0 43 20.5 54.5t99.5 11.5q95 0 128 -6.5t40 -26.5zM537 1151q-82 0 -145.5 62.5t-63.5 158.5q0 91 52.5 145t156.5 54q103 0 153.5 -54t50.5 -145q0 -95 -61.5 -158t-142.5 -63zM614 1337
q0 101 -75 101q-80 0 -80 -101q0 -40 23.5 -69t56.5 -29q31 0 53 29t22 69z" />
    <glyph glyph-name="Uhungarumlaut" unicode="&#x170;" horiz-adv-x="1243" 
d="M1178 1346q4 -10 4 -29q0 -90 -13.5 -408t-13.5 -428q0 -100 -13 -176t-48.5 -144.5t-94.5 -112.5t-153.5 -69.5t-222.5 -25.5q-285 0 -414 129t-129 397q0 162 -4 452.5t-4 342.5q0 36 9.5 50.5t37.5 18.5q129 21 270 21q132 0 234 -2q58 -2 75 -13t17 -59
q0 -148 -6.5 -458t-6.5 -459q0 -92 72 -92q28 0 46 13.5t25 40t9 46.5t2 53q0 134 -4 427.5t-4 453.5q0 39 23 49t110 10q112 0 150.5 -6t46.5 -22zM733 1489q-4 2 -4 10q0 13 4 21q56 136 180 303q4 8 13 8q19 0 72 -42.5t53 -59.5q0 -11 -15 -29q-66 -79 -157 -232
q-9 -18 -29 -18t-117 39zM401 1489q-6 3 -6 10q0 9 6 21q54 133 181 303q4 8 10 8q20 0 73.5 -42.5t53.5 -59.5q0 -8 -14 -29q-64 -77 -160 -232q-6 -18 -27 -18q-9 0 -23.5 3.5t-29.5 9t-27.5 10.5t-24 10.5t-12.5 5.5z" />
    <glyph glyph-name="uhungarumlaut" unicode="&#x171;" 
d="M954 1067q2 -8 2 -31q0 -70 -9 -314.5t-9 -330.5q0 -81 -10.5 -142.5t-39.5 -117t-76 -91.5t-123 -56.5t-179 -20.5q-231 0 -335.5 104t-104.5 322q0 119 -2 340.5t-2 274.5q0 37 10 51t39 20q118 17 278 17q65 0 150 -5q34 -3 44.5 -15t10.5 -56q0 -114 -5 -355t-5 -356
q0 -53 37 -53q16 0 26 9t14.5 26t5.5 31t1 36q0 104 -3 331.5t-3 348.5q0 43 20.5 54.5t99.5 11.5q95 0 128 -6.5t40 -26.5zM627 1217q-4 2 -4 10q0 12 4 20q56 136 180 303q5 9 12 9q19 0 72 -43t53 -60q0 -12 -14 -29q-72 -86 -158 -231q-9 -18 -29 -18q-9 0 -23 3.5
t-29 9t-27.5 10.5t-24 10.5t-12.5 5.5zM295 1217q-6 3 -6 10q0 8 6 20q56 136 180 303q5 9 10 9q20 0 73.5 -43t53.5 -60q0 -8 -14 -29q-67 -79 -160 -231q-6 -18 -26 -18q-9 0 -23.5 3.5t-29.5 9t-27.5 10.5t-24 10.5t-12.5 5.5z" />
    <glyph glyph-name="Uogonek" unicode="&#x172;" horiz-adv-x="1243" 
d="M901 -201q0 -101 -31 -213q-18 -41 -133 -41q-142 0 -208 59t-66 150q0 135 121 199q-264 9 -384 137.5t-120 388.5q0 162 -4 452.5t-4 342.5q0 36 9.5 50.5t37.5 18.5q129 21 270 21q132 0 234 -2q58 -2 75 -13t17 -59q0 -148 -6.5 -458t-6.5 -459q0 -92 72 -92
q28 0 46 13.5t25 40t9 46.5t2 53q0 134 -4 427.5t-4 453.5q0 39 23 49t110 10q112 0 150.5 -6t46.5 -22q4 -10 4 -29q0 -90 -13.5 -408t-13.5 -428q0 -192 -66 -310t-231 -189q-29 -12 -56.5 -30t-47.5 -47t-13 -57q11 -41 64 -41q19 0 44.5 8.5t35.5 8.5q16 0 16 -25z" />
    <glyph glyph-name="uogonek" unicode="&#x173;" 
d="M750 -201q0 -101 -31 -213q-18 -41 -133 -41q-142 0 -208.5 59t-66.5 150q0 144 144 211q-200 12 -292.5 115.5t-92.5 308.5q0 119 -2 340.5t-2 274.5q0 37 10 51t39 20q118 17 278 17q65 0 150 -5q34 -3 44.5 -15t10.5 -56q0 -114 -5 -355t-5 -356q0 -53 37 -53
q16 0 26 9t14.5 26t5.5 31t1 36q0 104 -3 331.5t-3 348.5q0 43 20.5 54.5t99.5 11.5q95 0 128 -6.5t40 -26.5q2 -8 2 -31q0 -70 -9 -314.5t-9 -330.5q0 -150 -47.5 -246t-163.5 -149q-89 -42 -117 -74q-32 -35 -20 -74q11 -41 63 -41q19 0 44.5 8.5t35.5 8.5q17 0 17 -25z
" />
    <glyph glyph-name="Wcircumflex" unicode="&#x174;" horiz-adv-x="1781" 
d="M1765 1376q0 -2 -1 -18t-1 -23q-80 -615 -280 -1333q0 -35 -240 -35q-108 0 -117 31q-9 33 -48.5 168t-55.5 192t-41.5 157t-42.5 181q-63 -295 -207 -694q0 -35 -237 -35q-110 0 -119 31q-242 729 -357 1319q0 1 -1 6t-1 10q0 23 17 29q32 8 194 8h88q148 0 203 -10
q20 -7 23 -12q26 -169 114 -363q72 196 101 346q3 32 63 35q59 6 215 6q142 0 209 -6q29 -3 38 -6.5t9 -11.5q31 -162 117 -363q55 147 96 375q0 18 31 22q149 9 178 9h35q18 0 18 -15zM1133 1475q-123 74 -183 159q-94 -42 -188 -157q-5 -7 -21 -7q-19 0 -67.5 44.5
t-48.5 80.5q0 11 16 35q83 119 205 207q24 12 41 12q152 0 182 -30q72 -100 199 -201q10 -10 10 -23q0 -18 -46 -71.5t-73 -53.5q-16 0 -26 5z" />
    <glyph glyph-name="wcircumflex" unicode="&#x175;" horiz-adv-x="1462" 
d="M1413 1092q0 -22 -4 -62q-84 -541 -213 -1007q-6 -22 -52 -31.5t-151 -9.5q-97 0 -108 36q-91 278 -129 465q-53 -217 -142 -458q-10 -22 -54 -32.5t-150 -10.5q-92 0 -107 34q-191 575 -272 1002q-2 9 -4 18.5t-3 15t-1 9.5q0 11 8 22t20 15q36 8 156 8h67q131 0 160 -8
q29 -11 31 -23q15 -100 70 -239q49 141 61 225q4 20 19 29t49 14q31 2 167 2q125 0 164 -4q29 -4 39 -9.5t13 -17.5q19 -112 69 -239q43 131 60 249q0 5 1.5 8.5t4.5 6.5t4.5 5t6.5 3.5t6.5 2t7.5 2t7 1.5q36 8 140 8h28q31 0 31 -30zM973 1202q-120 72 -182 160
q-94 -42 -189 -158q-4 -6 -20 -6q-19 0 -68 44.5t-49 80.5q0 11 16 35q83 119 205 207q24 12 41 12q151 0 182 -31q71 -98 199 -200q10 -10 10 -23q0 -18 -46 -71.5t-73 -53.5q-18 0 -26 4z" />
    <glyph glyph-name="Ycircumflex" unicode="&#x176;" horiz-adv-x="1220" 
d="M1198 1348q16 -5 16 -27q0 -17 -4 -23q-151 -327 -340 -651q11 -143 11 -317q0 -188 -11 -346q0 -19 -18 -19q-109 -8 -242 -8q-134 0 -241 8q-19 3 -19 19q8 230 8 344q0 180 -8 319q-85 135 -132 213t-109 200.5t-99 229.5q-4 20 -4 27q0 30 25 33q215 20 448 20
q33 0 41 -10q35 -131 131 -348q74 174 129 334q5 15 29 20.5t98 5.5q210 0 291 -24zM831 1475q-121 73 -182 159q-94 -42 -188 -157q-5 -7 -21 -7q-19 0 -67.5 44.5t-48.5 80.5q0 11 16 35q83 119 205 207q24 12 41 12q152 0 182 -30q72 -100 199 -201q10 -10 10 -23
q0 -18 -46 -71.5t-73 -53.5q-17 0 -27 5z" />
    <glyph glyph-name="ycircumflex" unicode="&#x177;" horiz-adv-x="1013" 
d="M956 1083q29 -9 29 -36q0 -12 -16 -52q-85 -186 -250 -475q6 -80 6 -248q0 -180 -6 -268q-3 -27 -31 -31q-91 -6 -190 -6q-138 0 -193 6q-9 1 -13.5 3t-7.5 9t-3 21q4 172 4 264q0 170 -4 252q-175 278 -258 477q-11 39 -11 45q0 21 8 29.5t29 11.5q209 19 348 19
q44 0 52 -27q35 -127 79 -227q41 86 88 223q5 18 27 25.5t84 7.5q43 0 118.5 -7t110.5 -16zM709 1202q-122 73 -183 160q-93 -41 -188 -158q-4 -6 -21 -6q-19 0 -67.5 44.5t-48.5 80.5q0 11 16 35q83 119 205 207q24 12 41 12q151 0 182 -31q71 -98 199 -200q10 -10 10 -23
q0 -18 -46 -71.5t-73 -53.5q-18 0 -26 4z" />
    <glyph glyph-name="Ydieresis" unicode="&#x178;" horiz-adv-x="1220" 
d="M1198 1348q16 -5 16 -27q0 -17 -4 -23q-151 -327 -340 -651q11 -143 11 -317q0 -188 -11 -346q0 -19 -18 -19q-109 -8 -242 -8q-134 0 -241 8q-19 3 -19 19q8 230 8 344q0 180 -8 319q-85 135 -132 213t-109 200.5t-99 229.5q-4 20 -4 27q0 30 25 33q215 20 448 20
q33 0 41 -10q35 -131 131 -348q74 174 129 334q5 15 29 20.5t98 5.5q210 0 291 -24zM702 1769q0 26 27 33.5t102 7.5q117 0 139.5 -9.5t22.5 -67.5q0 -139 -12 -209q-4 -18 -22.5 -23.5t-73.5 -5.5q-180 0 -180 39q0 21 2 66.5t2 68.5q0 17 -3.5 50t-3.5 50zM268 1769
q0 26 28 33.5t103 7.5q115 0 137.5 -9.5t22.5 -67.5q0 -139 -12 -209q-4 -19 -22 -24t-74 -5q-181 0 -181 39q0 21 2 66.5t2 68.5q0 17 -3 50t-3 50z" />
    <glyph glyph-name="Zacute" unicode="&#x179;" horiz-adv-x="1177" 
d="M1124 1382q0 -176 -18.5 -370t-36.5 -248q-346 -258 -573 -512q20 0 61 -1t61 -1q107 0 202 5.5t149.5 11t64.5 5.5q21 0 21 -65q0 -28 -2 -64.5t-6 -82t-5 -64.5q-2 -33 -303 -33q-51 0 -286.5 7t-284.5 7q-16 0 -19.5 20t-3.5 81v153q0 52 19 82q162 222 395 441
q-80 6 -184 6q-1 0 -277 -6q-11 0 -16.5 7t-6.5 12.5t-3 19.5q-6 88 -6 266q0 165 10 268q4 21 12 27.5t35 11.5q102 16 395 25.5t588 9.5q18 0 18 -19zM461 1442q-24 0 -35.5 46.5t-11.5 108.5q0 24 32 35q137 41 302 119q17 8 33.5 17t23 12t15 5.5t18.5 2.5
q32 0 39.5 -45t7.5 -168q0 -21 -23 -29q-160 -70 -360 -100q-24 -4 -41 -4z" />
    <glyph glyph-name="zacute" unicode="&#x17a;" horiz-adv-x="978" 
d="M913 1090q0 -138 -15 -293.5t-30 -200.5q-260 -191 -422 -367q20 -2 58 -2q121 0 219.5 9.5t103.5 9.5q33 0 33 -68q0 -92 -10 -166q-2 -39 -252 -39q-217 0 -442 9q-24 1 -30.5 20.5t-6.5 75.5v117q0 44 20 73q102 145 281 320h-105q-66 0 -133.5 -2t-81.5 -2t-22 8.5
t-9 15t-3 21.5q-7 82 -7 209q0 118 9 209q3 26 11.5 33t37.5 12q158 28 766 28q30 0 30 -30zM362 1169q-24 0 -35.5 47t-11.5 109q0 24 33 35q134 40 301 119q17 8 33.5 17t23 12t15 5.5t18.5 2.5q32 0 39.5 -45t7.5 -168q0 -9 -6.5 -17.5t-15.5 -11.5q-160 -69 -361 -100
q-30 -5 -41 -5z" />
    <glyph glyph-name="Zdotaccent" unicode="&#x17b;" horiz-adv-x="1177" 
d="M1124 1382q0 -176 -18.5 -370t-36.5 -248q-346 -258 -573 -512q20 0 61 -1t61 -1q107 0 202 5.5t149.5 11t64.5 5.5q21 0 21 -65q0 -28 -2 -64.5t-6 -82t-5 -64.5q-2 -33 -303 -33q-51 0 -286.5 7t-284.5 7q-16 0 -19.5 20t-3.5 81v153q0 52 19 82q162 222 395 441
q-80 6 -184 6q-1 0 -277 -6q-11 0 -16.5 7t-6.5 12.5t-3 19.5q-6 88 -6 266q0 165 10 268q4 21 12 27.5t35 11.5q102 16 395 25.5t588 9.5q18 0 18 -19zM463 1769q0 26 28 33.5t103 7.5q115 0 137.5 -9.5t22.5 -67.5q0 -133 -13 -209q-4 -19 -22 -24t-74 -5q-180 0 -180 39
q0 21 2 66.5t2 68.5q0 17 -3 50t-3 50z" />
    <glyph glyph-name="zdotaccent" unicode="&#x17c;" horiz-adv-x="978" 
d="M913 1090q0 -138 -15 -293.5t-30 -200.5q-260 -191 -422 -367q20 -2 58 -2q121 0 219.5 9.5t103.5 9.5q33 0 33 -68q0 -92 -10 -166q-2 -39 -252 -39q-217 0 -442 9q-24 1 -30.5 20.5t-6.5 75.5v117q0 44 20 73q102 145 281 320h-105q-66 0 -133.5 -2t-81.5 -2t-22 8.5
t-9 15t-3 21.5q-7 82 -7 209q0 118 9 209q3 26 11.5 33t37.5 12q158 28 766 28q30 0 30 -30zM344 1497q0 26 28 33.5t103 7.5q115 0 137.5 -10t22.5 -68q0 -138 -12 -209q-4 -18 -22 -23t-75 -5q-180 0 -180 39q0 21 2 66.5t2 68.5q0 16 -3 49.5t-3 50.5z" />
    <glyph glyph-name="Zcaron" unicode="&#x17d;" horiz-adv-x="1177" 
d="M1124 1382q0 -176 -18.5 -370t-36.5 -248q-346 -258 -573 -512q20 0 61 -1t61 -1q107 0 202 5.5t149.5 11t64.5 5.5q21 0 21 -65q0 -28 -2 -64.5t-6 -82t-5 -64.5q-2 -33 -303 -33q-51 0 -286.5 7t-284.5 7q-16 0 -19.5 20t-3.5 81v153q0 52 19 82q162 222 395 441
q-80 6 -184 6q-1 0 -277 -6q-11 0 -16.5 7t-6.5 12.5t-3 19.5q-6 88 -6 266q0 165 10 268q4 21 12 27.5t35 11.5q102 16 395 25.5t588 9.5q18 0 18 -19zM408 1843q119 -68 182 -160q88 39 188 158q4 8 21 8q19 0 67.5 -45.5t48.5 -81.5q0 -10 -16 -34q-88 -122 -205 -207
q-22 -11 -41 -11q-153 0 -182 31q-75 100 -199 199q-10 10 -10 22q0 20 46 73.5t73 53.5q15 0 27 -6z" />
    <glyph glyph-name="zcaron" unicode="&#x17e;" horiz-adv-x="978" 
d="M913 1090q0 -138 -15 -293.5t-30 -200.5q-260 -191 -422 -367q20 -2 58 -2q121 0 219.5 9.5t103.5 9.5q33 0 33 -68q0 -92 -10 -166q-2 -39 -252 -39q-217 0 -442 9q-24 1 -30.5 20.5t-6.5 75.5v117q0 44 20 73q102 145 281 320h-105q-66 0 -133.5 -2t-81.5 -2t-22 8.5
t-9 15t-3 21.5q-7 82 -7 209q0 118 9 209q3 26 11.5 33t37.5 12q158 28 766 28q30 0 30 -30zM307 1571q119 -68 182 -160q90 40 189 158q4 8 20 8q19 0 68 -45.5t49 -81.5q0 -11 -16 -35q-88 -122 -205 -207q-20 -10 -41 -10q-153 0 -182 31q-73 98 -199 198q-10 10 -10 23
q0 20 46 73.5t73 53.5q14 0 26 -6z" />
    <glyph glyph-name="florin" unicode="&#x192;" horiz-adv-x="1226" 
d="M813 793q65 0 112 8t48 8q22 0 22 -18q0 -83 -30 -175q-3 -8 -17.5 -13t-40 -8t-44.5 -4t-49 -2t-34 -1q0 -163 -14 -281.5t-46.5 -213t-87 -152t-135.5 -87.5t-192 -30q-177 0 -272 143q-15 23 -15 39q0 44 71 102t126 58q9 0 20 -18t26.5 -36t35.5 -18
q71 0 104.5 113.5t49.5 370.5q-59 -2 -107 -9.5t-55 -7.5q-16 0 -19.5 8t-3.5 29q0 95 17 150q10 27 198 34q2 171 24.5 283.5t75 191t140 112.5t221.5 34q234 0 270 -154q0 -10 -6 -16q-92 -102 -186 -158q-2 0 -4 -1t-4 -1q-9 0 -15 10.5t-9 23.5t-13.5 23.5t-28.5 10.5
q-68 0 -98 -83.5t-35 -264.5z" />
    <glyph glyph-name="Scommaaccent" unicode="&#x218;" horiz-adv-x="1003" 
d="M866 1405q29 -123 47.5 -273.5t18.5 -244.5q0 -17 -25 -17q-3 0 -16.5 2t-26.5 2q-79 0 -116 -31.5t-37 -84.5q0 -51 34 -94q129 -165 129 -306q0 -104 -42.5 -182.5t-120 -125.5t-179.5 -70t-229 -23q-40 0 -55 5.5t-21 25.5q-24 98 -24 180q0 10 10 13t37 3t43 2
q164 16 164 111q0 46 -30.5 86t-109.5 100q-124 99 -184.5 210t-60.5 249q0 84 23 156t74.5 134.5t130 106t195 68.5t263.5 25q103 0 108 -27zM592 -96q31 -3 65.5 -110t34.5 -152q0 -13 -12 -29q-11 -18 -20.5 -32t-20.5 -27.5t-17.5 -22t-20 -23t-20.5 -21t-26 -25.5
l-29 -29q-25 -21 -39 -21q-15 0 -36 20.5t-21 35.5q0 6 6 12q76 76 76 100q0 14 -16 14q-17 0 -50 -14t-36 -14q-17 0 -59 77t-42 109q0 10 29 29q137 123 254 123z" />
    <glyph glyph-name="scommaaccent" unicode="&#x219;" horiz-adv-x="839" 
d="M713 1108q22 -96 36.5 -213t14.5 -190q0 -29 -29 -29q-13 0 -25.5 1t-15.5 1q-52 0 -77 -20.5t-25 -53.5q0 -28 24 -61q50 -72 76.5 -130t26.5 -118q0 -166 -124.5 -247t-336.5 -81q-38 0 -54 6.5t-20 28.5q-20 74 -20 143q0 33 29 33q2 0 20 -1t31 -1q114 0 114 72
q0 32 -21 58.5t-77 70.5q-100 80 -148.5 169t-48.5 202q0 86 30 155.5t93.5 124.5t171.5 85t254 30q48 0 72.5 -7t28.5 -28zM510 -96q31 -3 65.5 -110t34.5 -152q0 -13 -12 -29q-11 -18 -20.5 -32t-20.5 -27.5t-17.5 -22t-20 -23t-20.5 -21t-26 -25.5l-29 -29
q-25 -21 -38 -21q-15 0 -36.5 20.5t-21.5 35.5q0 6 6 12q76 76 76 100q0 14 -16 14q-17 0 -50 -14t-36 -14q-17 0 -59 77t-42 109q0 10 29 29q137 123 254 123z" />
    <glyph glyph-name="uni021A" unicode="&#x21a;" horiz-adv-x="1175" 
d="M1137 1358q6 -138 6 -256q0 -2 -6 -320q0 -18 -19 -18q-178 0 -260 -2q-14 -313 -67 -778q0 -29 -150 -29q-69 0 -244 10q-18 3 -20 51q-11 348 -51 750q-88 4 -265 4q-18 0 -18 18q-6 156 -6 316q0 127 6 268q0 19 18 19q119 4 363 4q331 0 694 -19q19 0 19 -18z
M657 -96q31 -3 66 -110.5t35 -151.5q0 -12 -13 -29q-10 -16 -19 -29.5t-16 -23t-17 -21.5t-15.5 -18.5t-18.5 -20t-18 -19t-23 -23t-26 -25.5q-25 -21 -39 -21q-15 0 -36 20.5t-21 35.5q0 6 6 12q76 76 76 100q0 14 -17 14t-50 -14t-36 -14q-17 0 -58.5 77t-41.5 109
q0 10 28 29q137 123 254 123z" />
    <glyph glyph-name="uni021B" unicode="&#x21b;" horiz-adv-x="978" 
d="M899 1102q28 -3 31 -31q6 -72 6 -201q0 -121 -6 -247q-4 -33 -31 -33h-184q-11 -261 -51 -586q-5 -39 -134 -39q-86 0 -192 8q-15 3 -21.5 14t-7.5 40q-23 388 -41 567q-59 4 -186 4q-31 0 -31 31q-6 117 -6 243q0 99 6 207q0 13 9.5 23t21.5 10q84 4 280 4
q336 0 537 -14zM580 -96q31 -3 65.5 -110t34.5 -152q0 -13 -12 -29q-11 -18 -20.5 -32t-20.5 -27.5t-17.5 -22t-20 -23t-20.5 -21t-26 -25.5l-29 -29q-25 -21 -39 -21q-15 0 -36 20.5t-21 35.5q0 6 6 12q76 76 76 100q0 14 -17 14t-50 -14t-36 -14q-17 0 -58.5 77t-41.5 109
q0 10 29 29q137 123 254 123z" />
    <glyph glyph-name="circumflex" unicode="&#x2c6;" horiz-adv-x="796" 
d="M580 1202q-122 73 -183 160q-93 -41 -188 -158q-4 -6 -21 -6q-19 0 -67.5 44.5t-48.5 80.5q0 11 16 35q83 119 205 207q24 12 41 12q151 0 182 -31q71 -98 199 -200q10 -10 10 -23q0 -18 -46 -71.5t-73 -53.5q-18 0 -26 4z" />
    <glyph glyph-name="caron" unicode="&#x2c7;" horiz-adv-x="796" 
d="M217 1571q119 -68 182 -160q90 40 189 158q4 8 20 8q19 0 68 -45.5t49 -81.5q0 -11 -16 -35q-88 -122 -205 -207q-20 -10 -41 -10q-153 0 -182 31q-73 98 -199 198q-10 10 -10 23q0 20 45.5 73.5t72.5 53.5q15 0 27 -6z" />
    <glyph glyph-name="breve" unicode="&#x2d8;" horiz-adv-x="735" 
d="M479 1518q72 14 125 14q60 0 60 -31q0 -72 -25 -131t-67 -96.5t-95 -57.5t-110 -20t-108.5 18t-94 52.5t-67.5 91.5t-25 129q0 47 182 47q11 0 21.5 -9.5t11.5 -21.5q3 -47 23 -80.5t57 -33.5q72 0 79 100q3 20 33 29z" />
    <glyph glyph-name="dotaccent" unicode="&#x2d9;" horiz-adv-x="434" 
d="M72 1497q0 26 28 33.5t103 7.5q114 0 136.5 -10t22.5 -68q0 -138 -12 -209q-4 -18 -21.5 -23t-74.5 -5q-180 0 -180 39q0 21 2 66.5t2 68.5q0 16 -3 49.5t-3 50.5z" />
    <glyph glyph-name="ring" unicode="&#x2da;" horiz-adv-x="557" 
d="M281 1151q-82 0 -145.5 62.5t-63.5 158.5q0 91 52.5 145t156.5 54q103 0 153.5 -54t50.5 -145q0 -95 -61.5 -158t-142.5 -63zM358 1337q0 101 -75 101q-80 0 -80 -101q0 -40 23.5 -69t56.5 -29q31 0 53 29t22 69z" />
    <glyph glyph-name="ogonek" unicode="&#x2db;" horiz-adv-x="532" 
d="M481 -201q0 -105 -30 -213q-18 -41 -134 -41q-142 0 -208 59t-66 150q0 106 71 164.5t214 89.5h155q-105 -59 -141 -100q-20 -20 -20 -60q0 -41 63 -41q19 0 44.5 8.5t35.5 8.5q16 0 16 -25z" />
    <glyph glyph-name="tilde" unicode="&#x2dc;" horiz-adv-x="786" 
d="M725 1509q0 -111 -12 -182q-81 -90 -199 -90q-55 0 -139 30.5t-115 30.5q-79 0 -143 -81q-9 -9 -19 -9q-26 0 -26 52q0 118 10 155q75 94 172 94q67 0 155.5 -31.5t114.5 -31.5q100 0 156 78q10 10 20 10q8 0 16.5 -7.5t8.5 -17.5z" />
    <glyph glyph-name="hungarumlaut" unicode="&#x2dd;" horiz-adv-x="800" 
d="M410 1217q-4 2 -4 10q0 12 4 20q56 136 180 303q4 9 12 9q19 0 72 -43t53 -60q0 -12 -14 -29q-72 -86 -158 -231q-9 -18 -29 -18q-9 0 -23 3.5t-29 9t-27.5 10.5t-24 10.5t-12.5 5.5zM78 1217q-6 3 -6 10q0 8 6 20q56 136 180 303q4 9 10 9q20 0 73.5 -43t53.5 -60
q0 -8 -14 -29q-67 -79 -160 -231q-6 -18 -26 -18q-9 0 -23.5 3.5t-29.5 9t-27.5 10.5t-24 10.5t-12.5 5.5z" />
    <glyph glyph-name="Delta" unicode="&#x394;" horiz-adv-x="1093" 
d="M37 -39q0 17 4 45q81 502 317 1329q7 35 238 35q108 0 117 -31q196 -574 352 -1286q8 -28 8 -49t-23 -26q-10 -2 -130 -9q-13 -1 -25 -2q-360 -20 -829 -20q-29 0 -29 14zM434 379q-48 -129 -78 -279h168q-38 145 -90 279z" />
    <glyph glyph-name="Omega" unicode="&#x3a9;" horiz-adv-x="1388" 
d="M707 1411q168 0 283 -34.5t181.5 -106t94.5 -168t28 -232.5q0 -186 -39.5 -296.5t-121.5 -211.5q29 0 91.5 6.5t92.5 6.5q35 0 35 -115q0 -57 -13 -150t-32 -96q-194 -32 -557 -32q-25 0 -25 86q0 122 20 202q86 124 86 289q0 103 -26 138.5t-98 35.5q-79 0 -107.5 -33.5
t-28.5 -136.5q0 -178 78 -280q4 -50 4 -76q0 -46 -12.5 -130.5t-32.5 -84.5q-330 0 -528 33q-18 0 -28.5 59t-10.5 133q0 172 37 172q130 -14 184 -14q-80 99 -118 209t-38 295q0 136 29.5 231.5t98.5 165t186 102.5t287 33z" />
    <glyph glyph-name="mu" unicode="&#x3bc;" horiz-adv-x="1046" 
d="M463 -297q0 -15 -29.5 -21t-101.5 -6t-163 14t-91 38q-6 217 -6 688q0 276 28 635q1 18 71 26t132 8q162 0 162 -36q-14 -297 -14 -555q0 -31 0.5 -45.5t2 -42.5t6 -42.5t12 -32t20.5 -25t30 -7.5q34 0 66 41q8 156 8 262q0 118 -12 445q0 14 62 22t124 8t127 -7t68 -26
q8 -74 8 -548q0 -342 -8 -469q-1 -18 -109.5 -29.5t-181.5 -11.5q-29 0 -39.5 20t-16.5 82q-62 -71 -167 -96q2 -68 7 -169t5 -120z" />
    <glyph glyph-name="pi" unicode="&#x3c0;" horiz-adv-x="1187" 
d="M33 1087q6 15 16 15q180 -4 313 -4q344 0 754 30q39 0 39 -231q0 -170 -18 -170l-121 -14q-2 -72 -2 -240q0 -257 6 -453q0 -24 -77.5 -35.5t-141.5 -11.5q-123 0 -125 29q-12 131 -12 373q0 185 6 338q-113 0 -174 2q4 -66 4 -199q0 -271 -21 -489q-4 -38 -358 -47
q-6 0 -11.5 5t-5.5 11q13 244 13 516q0 27 -1 101.5t-1 109.5l-62 2q-30 2 -30 213q0 118 10 149z" />
    <glyph glyph-name="uni0400" unicode="&#x400;" horiz-adv-x="1124" 
d="M1063 1350q0 -144 -10.5 -284.5t-26 -226t-29.5 -85.5q-6 0 -46 3t-116 6t-171 3q-5 -56 -5 -148q61 0 167 8.5t130 8.5q60 0 60 -29q-11 -65 -47 -176q-9 -22 -187 -22q-80 0 -127 2q-8 -49 -8 -158q77 -6 158 -6q29 0 87 3t87 3q16 0 16 -29q0 -139 -10 -227
q-8 -41 -428 -41q-252 0 -317.5 8.5t-71.5 50.5q-30 201 -59 686t-29 592q0 25 52.5 40.5t203.5 24.5t416 9h295q16 0 16 -16zM688 1442q-19 0 -39 4q-204 31 -360 100q-9 3 -17 11.5t-8 17.5q0 123 7.5 168t41.5 45q10 0 18.5 -2.5t15 -5.5t23 -12t33.5 -17
q165 -78 302 -119q30 -10 30 -35q0 -62 -11.5 -108.5t-35.5 -46.5z" />
    <glyph glyph-name="uni0401" unicode="&#x401;" horiz-adv-x="1124" 
d="M1063 1350q0 -144 -10.5 -284.5t-26 -226t-29.5 -85.5q-6 0 -46 3t-116 6t-171 3q-5 -56 -5 -148q61 0 167 8.5t130 8.5q60 0 60 -29q-11 -65 -47 -176q-9 -22 -187 -22q-80 0 -127 2q-8 -49 -8 -158q77 -6 158 -6q29 0 87 3t87 3q16 0 16 -29q0 -139 -10 -227
q-8 -41 -428 -41q-252 0 -317.5 8.5t-71.5 50.5q-30 201 -59 686t-29 592q0 25 52.5 40.5t203.5 24.5t416 9h295q16 0 16 -16zM633 1769q0 26 27 33.5t102 7.5q117 0 139.5 -9.5t22.5 -67.5q0 -133 -13 -209q-4 -18 -22.5 -23.5t-73.5 -5.5q-180 0 -180 39q0 21 2 66.5
t2 68.5q0 17 -3 50t-3 50zM199 1769q0 26 28 33.5t103 7.5q115 0 137 -9.5t22 -67.5q0 -139 -12 -209q-4 -19 -22 -24t-74 -5q-180 0 -180 39q0 21 2 66.5t2 68.5q0 17 -3 50t-3 50z" />
    <glyph glyph-name="uni0402" unicode="&#x402;" horiz-adv-x="1402" 
d="M848 190q35 0 35 127q0 47 -20.5 66.5t-47.5 19.5q-43 0 -47 -30q-9 -57 -19.5 -192t-19.5 -195q-3 -20 -36.5 -25.5t-112.5 -5.5q-69 0 -244 10q-19 3 -21 51q-11 348 -51 750q-88 4 -203 4q-18 0 -18 18q-6 156 -6 316q0 127 6 268q0 19 18 19q119 4 301 4
q350 0 713 -19q19 0 19 -18q6 -138 6 -256q0 -2 -6 -320q0 -18 -19 -18q-196 0 -278 -2l-11 -158q52 8 136 8q89 0 152 -7.5t120 -30t91 -61t53.5 -102t19.5 -153.5t-31.5 -157.5t-85.5 -105.5t-117 -56.5t-133 -18.5q-78 0 -140.5 26t-62.5 60q-6 90 -6 166q0 16 5 25.5
t12 9.5q5 0 18 -8.5t31 -8.5z" />
    <glyph glyph-name="uni0403" unicode="&#x403;" horiz-adv-x="1034" 
d="M1004 801q0 -19 -19 -19q-3 0 -72.5 6.5t-146.5 6.5q-53 0 -78 -2q-6 -237 -6 -461q0 -177 6 -352q0 -17 -18 -17q-157 0 -339 8.5t-200 28.5q-25 30 -48.5 325.5t-23.5 594.5q0 270 23 419q1 16 174 29.5t303 13.5q136 0 236.5 -6.5t144.5 -15.5t45 -19q9 -68 19 -540z
M387 1442q-24 0 -35.5 46.5t-11.5 108.5q0 24 33 35q134 40 301 119q17 8 33.5 17t23 12t15 5.5t18.5 2.5q32 0 39.5 -45t7.5 -168q0 -21 -23 -29q-160 -70 -360 -100q-24 -4 -41 -4z" />
    <glyph glyph-name="uni0404" unicode="&#x404;" horiz-adv-x="1234" 
d="M1171 817q0 -16 -18 -16q-1 0 -53 9t-119 9q-114 0 -191 -54.5t-106 -146.5q58 1 174.5 9t142.5 8q60 0 60 -29q-11 -65 -47 -176q-9 -22 -187 -22h-135q31 -83 103.5 -135t173.5 -52q57 0 97 13l40 12q10 0 17 -9.5t7 -25.5q0 -78 -8 -170q-1 -34 -94 -60t-209 -26
q-117 0 -223 25t-202.5 81.5t-167.5 140t-112.5 208t-41.5 278.5q0 150 53.5 283.5t148 231.5t230.5 155t293 57q130 0 197 -9t116 -28q29 -11 45 -179t16 -382z" />
    <glyph glyph-name="uni0405" unicode="&#x405;" horiz-adv-x="1003" 
d="M866 1405q29 -123 47.5 -273.5t18.5 -244.5q0 -17 -25 -17q-3 0 -16.5 2t-26.5 2q-79 0 -116 -31.5t-37 -84.5q0 -51 34 -94q129 -165 129 -306q0 -104 -42.5 -182.5t-120 -125.5t-179.5 -70t-229 -23q-40 0 -55 5.5t-21 25.5q-24 98 -24 180q0 10 10 13t37 3t43 2
q164 16 164 111q0 46 -30.5 86t-109.5 100q-124 99 -184.5 210t-60.5 249q0 84 23 156t74.5 134.5t130 106t195 68.5t263.5 25q103 0 108 -27z" />
    <glyph glyph-name="uni0406" unicode="&#x406;" horiz-adv-x="800" 
d="M717 1333q-21 -778 -23 -866q-8 -289 -8 -475q0 -16 -6.5 -24.5t-13 -9.5t-17.5 -1q-55 -2 -164 -2q-141 0 -297 12q-22 2 -32 15.5t-11 48.5q-49 702 -49 1296q0 12 2 18t11.5 12t29.5 9q82 8 203 8q203 0 344 -16q19 -3 25 -7.5t6 -17.5z" />
    <glyph glyph-name="uni0407" unicode="&#x407;" horiz-adv-x="800" 
d="M717 1333q-21 -778 -23 -866q-8 -289 -8 -475q0 -16 -6.5 -24.5t-13 -9.5t-17.5 -1q-55 -2 -164 -2q-141 0 -297 12q-22 2 -32 15.5t-11 48.5q-49 702 -49 1296q0 12 2 18t11.5 12t29.5 9q82 8 203 8q203 0 344 -16q19 -3 25 -7.5t6 -17.5zM473 1769q0 26 27 33.5
t102 7.5q117 0 139.5 -9.5t22.5 -67.5q0 -139 -12 -209q-4 -18 -23 -23.5t-74 -5.5q-180 0 -180 39q0 21 2 66.5t2 68.5q0 17 -3 50t-3 50zM39 1769q0 26 28 33.5t103 7.5q115 0 137.5 -9.5t22.5 -67.5q0 -133 -13 -209q-4 -19 -22 -24t-74 -5q-180 0 -180 39q0 21 2 66.5
t2 68.5q0 17 -3 50t-3 50z" />
    <glyph glyph-name="uni0408" unicode="&#x408;" horiz-adv-x="1120" 
d="M1061 1331q0 -918 -125 -1149q-72 -131 -198.5 -198.5t-286.5 -67.5q-171 0 -274.5 41t-156.5 127q-20 24 -20 51q0 20 76.5 91t103.5 71q11 0 13 -6q26 -52 53.5 -73t68.5 -21q67 0 107.5 80.5t40.5 226.5q0 243 -10.5 491t-10.5 328q0 23 8 33t31 10q184 0 294 -1.5
t175.5 -6t88 -10.5t22.5 -17z" />
    <glyph glyph-name="uni0409" unicode="&#x409;" horiz-adv-x="2154" 
d="M2097 571q0 -149 -62 -267.5t-170 -194t-251 -115t-309 -39.5q-125 0 -261 12q-45 3 -57 21t-12 73q0 62 -2 317.5t-2 407.5q-78 5 -92 5q-13 0 -91 -5q-24 -457 -94 -604q-65 -131 -176.5 -198.5t-251.5 -67.5q-50 0 -94 5t-73 13t-50.5 18t-31 19t-9.5 17q0 27 35 116
q26 72 40 86q13 13 34 13q6 0 24 -5t25 -5q47 0 78.5 87.5t31.5 223.5q0 243 -9 491t-9 328q0 23 7 33t28 10q433 8 887 8q30 0 75.5 -2.5t109 -8.5t107 -20t44.5 -34l6 -160q306 0 440.5 -138.5t134.5 -439.5zM1731 422q0 83 -54.5 136.5t-144.5 53.5v-333q24 -9 51 -9
q60 0 104 39t44 113z" />
    <glyph glyph-name="uni040A" unicode="&#x40a;" horiz-adv-x="2066" 
d="M2015 639q0 -300 -196 -489t-523 -189q-127 0 -387 23q-30 3 -47.5 22.5t-19.5 50.5q-11 236 -11 289q-97 -106 -110 -106q-4 0 -10.5 9t-13.5 24.5t-13 28.5t-12.5 28.5t-7.5 17.5q-3 -144 -23 -330q-6 -24 -119 -24q-146 0 -217 0.5t-114 4t-50.5 7.5t-7.5 14l-31 791
q-12 314 -12 528q0 39 223 39q21 0 113.5 -2t116.5 -2q34 0 139 6q18 0 18 -18q0 -472 -26 -784q68 71 96 71q16 0 61 -96v809q0 35 220 35q374 0 374 -66v-164q100 -8 185.5 -30t161 -64t129 -100.5t84 -143.5t30.5 -190zM1632 406q0 72 -61 121t-168 59q-4 -103 -23 -326
q39 -2 97 -2q63 0 109 38t46 110z" />
    <glyph glyph-name="uni040B" unicode="&#x40b;" horiz-adv-x="1402" 
d="M1094 1358q6 -138 6 -256q0 -2 -6 -320q0 -18 -19 -18q-196 0 -278 -2l-11 -158q52 8 136 8q214 0 311.5 -59.5t97.5 -183.5q0 -69 2 -194.5t2 -156.5q0 -22 -9 -30t-36 -11q-96 -10 -219 -10h-76q-131 0 -131 43q0 66 3 182t3 181q0 11 -17 20.5t-38 9.5q-43 0 -47 -30
q-9 -57 -19.5 -192t-19.5 -195q-3 -20 -36.5 -25.5t-112.5 -5.5q-69 0 -244 10q-19 3 -21 51q-11 348 -51 750q-88 4 -203 4q-18 0 -18 18q-6 156 -6 316q0 127 6 268q0 19 18 19q119 4 301 4q350 0 713 -19q19 0 19 -18z" />
    <glyph glyph-name="uni040C" unicode="&#x40c;" horiz-adv-x="1378" 
d="M1362 1288q-65 -195 -138 -335t-184 -281q191 -362 287 -682q0 -21 -53 -37t-134 -23.5t-152 -10.5t-132 -3q-13 0 -18 10q-72 252 -179 471q-2 -53 -2 -155q0 -100 7 -244q0 -26 -41.5 -31.5t-204.5 -5.5q-189 0 -242 4q-31 3 -40 61t-23 308q-6 96 -18.5 309.5
t-17 296.5t-9.5 204t-5 204q0 24 102.5 29t452.5 5q19 0 19 -18q0 -15 -1 -41.5t-1 -38.5q0 -241 20 -514q149 340 230 600q3 12 18 12q107 0 287 -17t180 -38q0 -18 -8 -39zM582 1442q-24 0 -35.5 46.5t-11.5 108.5q0 24 32 35q134 40 301 119q17 8 33.5 17t23 12t15 5.5
t18.5 2.5q32 0 40 -46t8 -167q0 -21 -23 -29q-160 -70 -360 -100q-24 -4 -41 -4z" />
    <glyph glyph-name="uni040D" unicode="&#x40d;" horiz-adv-x="1269" 
d="M102 1350q2 8 6.5 11.5t24.5 6t56 3.5t104 1q120 0 133 -8q12 -10 12 -59q0 -67 -3 -209t-3 -211q169 295 340 458q18 18 41.5 24.5t71.5 6.5q77 0 225 -8q43 -3 56.5 -14t13.5 -47q0 -257 -3 -717.5t-3 -499.5q0 -100 -17 -115q-12 -14 -44 -18t-126 -4q-68 0 -97 6
t-37.5 18.5t-8.5 42.5q0 47 7 172t9 232q-172 -212 -274 -375q-17 -27 -26 -41t-27.5 -27t-31 -17.5t-46.5 -8t-63.5 -4t-92.5 -0.5q-154 0 -182 16q-14 11 -21 84q-6 41 -6 477q0 94 2 262t2 248q0 200 1 247t7 67zM823 1442q-19 0 -39 4q-204 31 -360 100q-9 3 -17 11.5
t-8 17.5q0 121 8 167t42 46q10 0 18.5 -2.5t15 -5.5t23 -12t33.5 -17q167 -79 301 -119q30 -10 30 -35q0 -62 -11.5 -108.5t-35.5 -46.5z" />
    <glyph glyph-name="uni040E" unicode="&#x40e;" horiz-adv-x="1236" 
d="M1227 1315q-132 -330 -422 -813q-99 -166 -166.5 -293.5t-120.5 -261.5q-8 -21 -22 -21q-117 0 -279 13.5t-162 40.5q133 387 299 665q-174 262 -338 639q-8 13 -8 33q0 26 33 31q148 18 410 18q53 0 59 -12q32 -141 131 -348q84 173 131 348q2 12 53 12h49
q152 0 230 -4.5t101.5 -12t23.5 -22.5q0 -6 -2 -12zM729 1790q72 14 125 14q18 0 27 -0.5t20.5 -8t11.5 -21.5q0 -142 -88.5 -224t-208.5 -82q-57 0 -108.5 18t-93.5 52.5t-67 91.5t-25 129q0 47 182 47q11 0 21.5 -9t11.5 -21q3 -48 22.5 -81.5t56.5 -33.5q73 0 80 100
q3 20 33 29z" />
    <glyph glyph-name="uni040F" unicode="&#x40f;" horiz-adv-x="1501" 
d="M170 1384q188 0 475 -14q25 0 25 -24q13 -563 14 -613q6 -498 6 -510q68 0 146 4q6 449 20 731q14 298 25 381q2 25 118 25q339 0 375 -4q31 -3 31 -23q6 -303 6 -704q0 -93 -10 -615q0 -29 -96.5 -41t-270.5 -18q-4 -137 -4 -332q0 -35 -37 -35q-55 -2 -164 -2
q-124 0 -297 13q-23 2 -32.5 15t-10.5 48l-20 293q-83 3 -129 5t-99.5 6t-77.5 10.5t-24 15.5q-22 282 -22 643q0 464 35 731q3 14 18 14z" />
    <glyph glyph-name="uni0410" unicode="&#x410;" horiz-adv-x="1271" 
d="M977 1331q137 -597 283 -1368v-6q0 -14 -17 -14q-309 0 -465 14q-11 2 -17 8.5t-7 26.5l-13 133q-25 -24 -67 -47t-53 -23q-17 0 -35 26.5t-25 51.5l-18 -119q-4 -25 -17.5 -34t-57.5 -13t-155 -4q-168 0 -235.5 5t-67.5 18q0 8 4 20q195 800 361 1329q7 21 49 26t197 5
q142 0 219 -3.5t105.5 -11t31.5 -20.5zM680 397q25 0 72 -61q-61 292 -90 389q-55 -159 -103 -397q95 69 121 69z" />
    <glyph glyph-name="uni0411" unicode="&#x411;" horiz-adv-x="1345" 
d="M1280 438q0 -108 -40.5 -193t-124.5 -149.5t-225 -99.5t-331 -35q-185 0 -321 19.5t-136 48.5q0 47 -2 238.5t-2 301.5q0 563 15 772q0 1 0.5 7t1.5 10t4 10t7 10t12.5 8t19.5 5q126 12 286 12q76 0 169.5 -2.5t157.5 -5.5t166 -8t138 -7q19 0 19 -16q6 -114 6 -213
q0 -2 -6 -266q0 -15 -19 -15q-301 0 -383 -2q-4 -36 -4 -59q126 -6 230 -30t187 -67.5t129 -113t46 -160.5zM895 272q0 56 -56.5 92.5t-150.5 36.5l-14 -225q24 -6 65 -6q64 0 110 26t46 76z" />
    <glyph glyph-name="uni0412" unicode="&#x412;" horiz-adv-x="1280" 
d="M1221 793q0 -276 -191 -390q172 -57 172 -215q0 -49 -16.5 -87.5t-40 -63.5t-63.5 -43t-73 -27t-83.5 -14t-79.5 -6t-76 -2q-38 -1 -103.5 -2.5t-120 -2.5t-104.5 -1q-93 0 -204 6q-57 1 -78 29.5t-23 86.5q-6 237 -30.5 586t-49.5 596q0 96 27 115q45 34 144 48.5
t272 14.5q268 0 446 -104q132 -78 203.5 -211.5t71.5 -312.5zM834 561q0 71 -36 117.5t-104 46.5q-34 0 -57 -10q-10 -125 -10 -307q8 -2 26 -2q32 0 62 8.5t57.5 26t44 49t17.5 71.5zM670 111q46 0 92.5 28.5t46.5 83.5q0 105 -182 105q-6 -59 -6 -119q0 -63 2 -94
q24 -4 47 -4z" />
    <glyph glyph-name="uni0413" unicode="&#x413;" horiz-adv-x="1034" 
d="M1004 801q0 -19 -19 -19q-3 0 -72.5 6.5t-146.5 6.5q-53 0 -78 -2q-6 -237 -6 -461q0 -177 6 -352q0 -17 -18 -17q-157 0 -339 8.5t-200 28.5q-25 30 -48.5 325.5t-23.5 594.5q0 270 23 419q1 16 174 29.5t303 13.5q136 0 236.5 -6.5t144.5 -15.5t45 -19q9 -68 19 -540z
" />
    <glyph glyph-name="uni0414" unicode="&#x414;" horiz-adv-x="1757" 
d="M1724 195v-144q0 -145 -10.5 -246.5t-46.5 -242.5q-3 -6 -18 -6q-185 0 -288.5 4t-134.5 9.5t-32 14.5q-16 112 -16 346h-621q-11 -212 -41 -354q-6 -10 -113 -10q-134 0 -204 0.5t-108 2t-46 3.5t-8 6l-29 363q-12 145 -12 235q0 17 74 24t213 11q35 31 56 109.5
t21 183.5q0 243 -9 491t-9 328q0 23 7.5 33t29.5 10q462 8 948 8q191 0 324 -16q18 -3 23 -7.5t5 -17.5q-1 -62 -12.5 -479.5t-13.5 -650.5q71 -3 71 -8zM909 786q-23 -397 -88 -573q196 0 309 -2q-15 233 -26 575q-83 5 -98 5q-14 0 -97 -5z" />
    <glyph glyph-name="uni0415" unicode="&#x415;" horiz-adv-x="1124" 
d="M1063 1350q0 -144 -10.5 -284.5t-26 -226t-29.5 -85.5q-6 0 -46 3t-116 6t-171 3q-5 -56 -5 -148q61 0 167 8.5t130 8.5q60 0 60 -29q-11 -65 -47 -176q-9 -22 -187 -22q-80 0 -127 2q-8 -49 -8 -158q77 -6 158 -6q29 0 87 3t87 3q16 0 16 -29q0 -139 -10 -227
q-8 -41 -428 -41q-252 0 -317.5 8.5t-71.5 50.5q-30 201 -59 686t-29 592q0 25 52.5 40.5t203.5 24.5t416 9h295q16 0 16 -16z" />
    <glyph glyph-name="uni0416" unicode="&#x416;" horiz-adv-x="1945" 
d="M1227 1333l-15 -526q132 306 213 563q3 12 19 12q107 0 287 -17t180 -38q0 -18 -8 -39q-65 -195 -138 -335t-184 -281q199 -378 293 -690q0 -21 -53 -37t-134 -23.5t-152 -10.5t-132 -3q-14 0 -19 10q-71 244 -180 469q-4 -178 -4 -395q0 -16 -6 -24.5t-11.5 -9.5
t-15.5 -1q-49 -2 -147 -2q-124 0 -264 12q-19 2 -28.5 16t-10.5 48l-19 346q-111 -252 -168 -451q-2 -10 -16 -10q-58 0 -126 3t-144.5 10.5t-126.5 23.5t-49 37q99 327 282 682q-103 140 -171 284.5t-128 341.5q-8 21 -8 39q1 21 173 38.5t273 17.5q14 0 17 -13
q61 -216 174 -522q-6 234 -6 469q0 12 2 18t10.5 12t26.5 9q74 8 180 8q179 0 307 -16q16 -3 21.5 -7.5t5.5 -17.5z" />
    <glyph glyph-name="uni0417" unicode="&#x417;" horiz-adv-x="1026" 
d="M971 803q0 -306 -223 -397q74 -21 116.5 -79t42.5 -128q0 -133 -140 -201t-402 -68q-90 0 -117 4.5t-27 18.5q0 54 11 114t30 60q4 0 21.5 -4t44.5 -4q87 0 130.5 31t43.5 71q0 33 -13.5 53t-61 34t-134.5 14q-18 0 -22.5 22.5t-4.5 79.5q0 33 13 33q6 0 34 -1t54 -1
q161 0 161 125q0 118 -178 118q-40 0 -66 -4.5t-37 -9t-16 -4.5q-41 0 -126 259.5t-85 350.5q0 54 89 86.5t219 32.5q137 0 252 -36t203.5 -107.5t138 -189.5t49.5 -273z" />
    <glyph glyph-name="uni0418" unicode="&#x418;" horiz-adv-x="1269" 
d="M102 1350q2 8 6.5 11.5t24.5 6t56 3.5t104 1q120 0 133 -8q12 -10 12 -59q0 -67 -3 -209t-3 -211q169 295 340 458q18 18 41.5 24.5t71.5 6.5q77 0 225 -8q43 -3 56.5 -14t13.5 -47q0 -257 -3 -717.5t-3 -499.5q0 -100 -17 -115q-12 -14 -44 -18t-126 -4q-68 0 -97 6
t-37.5 18.5t-8.5 42.5q0 47 7 172t9 232q-172 -212 -274 -375q-17 -27 -26 -41t-27.5 -27t-31 -17.5t-46.5 -8t-63.5 -4t-92.5 -0.5q-154 0 -182 16q-14 11 -21 84q-6 41 -6 477q0 94 2 262t2 248q0 200 1 247t7 67z" />
    <glyph glyph-name="uni0419" unicode="&#x419;" horiz-adv-x="1269" 
d="M102 1350q2 8 6.5 11.5t24.5 6t56 3.5t104 1q120 0 133 -8q12 -10 12 -59q0 -67 -3 -209t-3 -211q169 295 340 458q18 18 41.5 24.5t71.5 6.5q77 0 225 -8q43 -3 56.5 -14t13.5 -47q0 -257 -3 -717.5t-3 -499.5q0 -100 -17 -115q-12 -14 -44 -18t-126 -4q-68 0 -97 6
t-37.5 18.5t-8.5 42.5q0 47 7 172t9 232q-172 -212 -274 -375q-17 -27 -26 -41t-27.5 -27t-31 -17.5t-46.5 -8t-63.5 -4t-92.5 -0.5q-154 0 -182 16q-14 11 -21 84q-6 41 -6 477q0 94 2 262t2 248q0 200 1 247t7 67zM778 1790q72 14 125 14q13 0 19.5 -0.5t18 -3t17 -9
t5.5 -17.5q0 -142 -88.5 -224t-208.5 -82q-57 0 -108.5 18t-94 52.5t-67.5 91.5t-25 129q0 47 182 47q11 0 21.5 -9t11.5 -21q3 -47 23 -81t57 -34q72 0 79 100q3 20 33 29z" />
    <glyph glyph-name="uni041A" unicode="&#x41a;" horiz-adv-x="1378" 
d="M1362 1288q-65 -195 -138 -335t-184 -281q191 -362 287 -682q0 -21 -53 -37t-134 -23.5t-152 -10.5t-132 -3q-13 0 -18 10q-72 252 -179 471q-2 -53 -2 -155q0 -100 7 -244q0 -26 -41.5 -31.5t-204.5 -5.5q-189 0 -242 4q-31 3 -40 61t-23 308q-6 96 -18.5 309.5
t-17 296.5t-9.5 204t-5 204q0 24 102.5 29t452.5 5q19 0 19 -18q0 -15 -1 -41.5t-1 -38.5q0 -241 20 -514q149 340 230 600q3 12 18 12q107 0 287 -17t180 -38q0 -18 -8 -39z" />
    <glyph glyph-name="uni041B" unicode="&#x41b;" horiz-adv-x="1796" 
d="M1712 1333q-15 -560 -22 -866q-9 -326 -9 -475q0 -16 -6.5 -24.5t-12.5 -9.5t-17 -1q-55 -2 -164 -2q-141 0 -297 12q-28 1 -34.5 13.5t-8.5 50.5q-28 389 -39 755q-88 5 -105 5q-15 0 -102 -5q-30 -458 -109 -604q-72 -131 -199 -198.5t-286 -67.5q-93 0 -163.5 13
t-100 29t-29.5 30q0 30 39 116q24 55 41 77t43 22q7 0 27 -5t28 -5q56 0 91.5 87.5t35.5 223.5q0 243 -10 491t-10 328q0 23 8 33t31 10q490 8 1005 8q203 0 344 -16q19 -3 25 -7.5t6 -17.5z" />
    <glyph glyph-name="uni041C" unicode="&#x41c;" horiz-adv-x="1538" 
d="M1446 1360q10 -207 10 -498t-16 -839q-1 -31 -19.5 -39.5t-64.5 -8.5q-139 0 -220 2.5t-109 5.5t-75 11q-26 6 -31.5 14t-5.5 39q0 201 9 348q-68 -215 -172 -397q-9 -15 -21 -19t-55 -4q-39 0 -50.5 4t-23.5 23q-134 190 -213 406q8 -114 8 -299q0 -116 -22 -119
q-37 -13 -207 -13q-33 0 -44 8.5t-11 32.5q-15 480 -15 795q0 313 13 547q2 31 141 31q59 0 166 -11q23 -3 34.5 -10t20.5 -24q123 -249 258 -439q150 208 254 445q6 23 37 28q124 15 217 15q118 0 162.5 -7.5t44.5 -27.5z" />
    <glyph glyph-name="uni041D" unicode="&#x41d;" horiz-adv-x="1501" 
d="M1051 1397q360 0 360 -35v-309q0 -592 -61 -1065q-3 -15 -19 -15q-139 0 -461 15q-13 0 -16 18l-23 340q-90 -106 -110 -106q-17 0 -57 108q-2 -141 -23 -330q-6 -24 -119 -24q-145 0 -222.5 1t-115 4.5t-44.5 7.5t-7 13q-43 1187 -43 1319q0 14 19.5 22t68.5 12.5
t135 4.5q31 0 99.5 -2t130.5 -2q41 0 85 3t54 3q18 0 18 -18q0 -426 -26 -784q71 71 96 71q17 0 61 -96v809q0 35 220 35z" />
    <glyph glyph-name="uni041E" unicode="&#x41e;" horiz-adv-x="1343" 
d="M682 1413q142 0 256.5 -53.5t188 -146.5t112.5 -214.5t39 -261.5q0 -120 -24 -234t-73.5 -214.5t-119.5 -175.5t-168.5 -118.5t-214.5 -43.5q-278 0 -445 210t-167 562q0 199 73 354.5t214 245.5t329 90zM668 295q59 0 96 74t37 188q0 102 -29.5 145t-95.5 43
q-81 0 -111 -42t-30 -146q0 -114 38 -188t95 -74z" />
    <glyph glyph-name="uni041F" unicode="&#x41f;" horiz-adv-x="1501" 
d="M1411 1362v-309q0 -318 -11.5 -540t-49.5 -525q-3 -15 -19 -15q-253 0 -461 15q-13 0 -16 18q-3 20 -8 102.5t-10 271.5t-5 408q-100 0 -145 -2q-16 -489 -45 -768q-6 -24 -119 -24q-146 0 -217 0.5t-114 4t-50.5 7.5t-7.5 14l-31 791q-12 314 -12 528q0 62 551 62
q271 0 520.5 -8.5t249.5 -30.5z" />
    <glyph glyph-name="uni0420" unicode="&#x420;" horiz-adv-x="1382" 
d="M1337 715q0 -108 -33.5 -196.5t-91 -149.5t-140 -104.5t-175.5 -66t-201 -30.5v-170q0 -23 -61.5 -30t-169.5 -7q-228 0 -275 4q-27 3 -77 548t-50 806q0 42 147.5 71t346.5 29q177 0 324 -52t247 -145t154.5 -223t54.5 -284zM922 571q0 74 -50 113t-118 39q-34 0 -58 -8
v-334q101 0 163.5 53.5t62.5 136.5z" />
    <glyph glyph-name="uni0421" unicode="&#x421;" horiz-adv-x="1234" 
d="M1171 817q0 -16 -18 -16q-1 0 -53 9t-119 9q-143 0 -226 -83.5t-83 -213.5q0 -125 81.5 -213t215.5 -88q57 0 97 13l40 12q10 0 17 -9.5t7 -25.5q0 -78 -8 -170q-1 -34 -94 -60t-209 -26q-117 0 -223 25t-202.5 81.5t-167.5 140t-112.5 208t-41.5 278.5q0 150 53.5 283.5
t148 231.5t230.5 155t293 57q130 0 197 -9t116 -28q29 -11 45 -179t16 -382z" />
    <glyph glyph-name="uni0422" unicode="&#x422;" horiz-adv-x="1175" 
d="M1137 1358q6 -138 6 -256q0 -2 -6 -320q0 -18 -19 -18q-178 0 -260 -2q-14 -313 -67 -778q0 -29 -150 -29q-69 0 -244 10q-18 3 -20 51q-11 348 -51 750q-88 4 -265 4q-18 0 -18 18q-6 156 -6 316q0 127 6 268q0 19 18 19q119 4 363 4q331 0 694 -19q19 0 19 -18z" />
    <glyph glyph-name="uni0423" unicode="&#x423;" horiz-adv-x="1236" 
d="M1227 1315q-132 -330 -422 -813q-99 -166 -166.5 -293.5t-120.5 -261.5q-8 -21 -22 -21q-117 0 -279 13.5t-162 40.5q133 387 299 665q-174 262 -338 639q-8 13 -8 33q0 26 33 31q148 18 410 18q53 0 59 -12q32 -141 131 -348q84 173 131 348q2 12 53 12h49
q152 0 230 -4.5t101.5 -12t23.5 -22.5q0 -6 -2 -12z" />
    <glyph glyph-name="uni0424" unicode="&#x424;" horiz-adv-x="1509" 
d="M909 1333q-1 -9 -4 -145q144 -13 253.5 -55.5t175 -106t98 -140t32.5 -165.5q0 -99 -32.5 -187.5t-98.5 -164.5t-179 -127t-261 -66v-184q0 -16 -3.5 -24.5t-6.5 -9.5t-9 -1q-27 -2 -79 -2q-68 0 -146 12q-11 1 -14.5 13.5t-5.5 50.5l-6 145q-279 29 -426.5 170
t-147.5 365q0 190 141 316.5t414 156.5v143q0 30 23 38.5t71 8.5q128 0 195 -16q10 -3 13 -7.5t3 -17.5zM471 688q0 -86 38.5 -153t104.5 -103q-4 149 -8 449q-74 -18 -104.5 -63.5t-30.5 -129.5zM1008 688q0 75 -25.5 119.5t-81.5 66.5q0 -67 -4 -407v-14q111 81 111 235z
" />
    <glyph glyph-name="uni0425" unicode="&#x425;" horiz-adv-x="1236" 
d="M1227 1315q-133 -336 -348 -670q163 -278 297 -665q0 -22 -146 -39t-233 -17h-56q-45 0 -51 29q-59 198 -88 260q-29 -65 -84 -266q-5 -21 -22 -21q-117 0 -279 13.5t-162 40.5q133 387 299 665q-174 262 -338 639q-8 13 -8 33q0 26 33 31q148 18 410 18q53 0 59 -12
q32 -141 131 -348q84 173 131 348q2 12 53 12h49q152 0 230 -4.5t101.5 -12t23.5 -22.5q0 -6 -2 -12z" />
    <glyph glyph-name="uni0426" unicode="&#x426;" horiz-adv-x="1523" 
d="M170 1384q286 0 481 -14q17 0 17 -18q0 -2 2.5 -75t5.5 -191.5t6 -258t5.5 -304t2.5 -300.5q101 0 146 2q1 23 8 304t15.5 483t21.5 327q7 25 118 25q144 0 219.5 -1t120.5 -4t55.5 -8t10.5 -14q6 -451 6 -704q0 -192 -2.5 -315t-5 -176t-2.5 -74l59 -2q15 -1 24 -7.5
t13 -18.5t5 -22t1 -26q0 -93 -2 -215.5t-2 -149.5q0 -16 -6.5 -24.5t-13 -9.5t-17.5 -1q-55 -2 -164 -2q-128 0 -297 13q-29 1 -37 43.5t-23 268.5q-2 29 -3 44q-16 0 -98 2t-139.5 3.5t-149 3.5t-155.5 5t-127.5 6.5t-96.5 7.5t-33 9q-22 322 -22 643q0 466 35 731
q3 14 18 14z" />
    <glyph glyph-name="uni0427" unicode="&#x427;" horiz-adv-x="1243" 
d="M1182 1311q0 -200 -15.5 -640t-15.5 -583q0 -97 -4.5 -114t-32.5 -17t-82 -1t-82 -1q-141 0 -297 12q-31 1 -39 13.5t-10 50.5q-9 149 -20 458q-99 -24 -174 -24q-71 0 -127 19.5t-92 51t-61.5 76t-38 89t-17.5 94.5q-13 130 -13 303q0 166 9 252q1 7 12 11.5t58 8.5
t132 4q87 0 110.5 -5.5t23.5 -25.5q0 -82 -4.5 -233t-4.5 -219q0 -18 2 -29t9 -26t25 -23t46 -8q72 0 72 55q0 76 -6 235t-6 236q0 27 46 35t152 8q269 0 414 -16q20 -3 25.5 -10.5t5.5 -36.5z" />
    <glyph glyph-name="uni0428" unicode="&#x428;" horiz-adv-x="2093" 
d="M975 1366q205 0 315 -16q16 -3 21.5 -7.5t5.5 -17.5q-22 -772 -25 -1102q156 0 166 2q2 47 8 310t14 471t19 333q7 25 111 25q132 0 200.5 -1t109.5 -4t50.5 -8t9.5 -14q9 -906 9 -1202q0 -55 -9 -135q-2 -16 -7.5 -24.5t-10.5 -9.5t-14 -1q-129 -8 -514 -8
q-265 0 -781 15t-516 24q-20 326 -20 643q0 56 2 156.5t6.5 244t15 244t25.5 100.5q262 0 440 -14q17 0 17 -18q0 -1 2 -73.5t5 -191.5t6 -259t5 -304.5t2 -300.5h184q-32 604 -32 1096q0 31 43.5 39t136.5 8z" />
    <glyph glyph-name="uni0429" unicode="&#x429;" horiz-adv-x="2093" 
d="M975 1366q187 0 315 -16q16 -3 21.5 -7.5t5.5 -17.5q-22 -772 -25 -1102q156 0 166 2q2 47 8 310t14 471t19 333q7 25 111 25q132 0 200.5 -1t109.5 -4t50.5 -8t9.5 -14q7 -527 7 -704q0 -192 -2.5 -315t-5.5 -176t-3 -74q33 -1 53.5 -8t29 -19.5t10.5 -22.5t2 -26
q0 -93 -2.5 -215.5t-2.5 -149.5q0 -16 -6 -24.5t-11 -9.5t-15 -1q-51 -2 -152 -2q-116 0 -272 13q-26 1 -31.5 12.5t-7.5 50.5l-19 293q-345 1 -690 8.5t-535 16t-190 12.5q-20 326 -20 643q0 56 2 156.5t6.5 244t15 244t25.5 100.5q262 0 440 -14q17 0 17 -18l2 -72
q2 -73 5 -192t6 -259t5 -305t2 -301h184q-32 604 -32 1096q0 31 43.5 39t136.5 8z" />
    <glyph glyph-name="uni042A" unicode="&#x42a;" horiz-adv-x="1581" 
d="M1536 666q0 -154 -54.5 -284t-154.5 -223t-247 -145.5t-324 -52.5q-199 0 -346.5 29t-147.5 71q0 62 -2 316t-2 405q-66 2 -197 2q-18 0 -18 19q-6 156 -6 315q0 127 6 268q0 19 18 19q221 14 603 14q51 0 84 -1t71 -4.5t57 -11.5t19 -20v-170q108 -8 201 -30.5
t175.5 -66t140 -104t91 -149t33.5 -196.5zM1120 422q0 83 -62 136.5t-163 53.5v-333q27 -9 57 -9q68 0 118 39t50 113z" />
    <glyph glyph-name="uni042B" unicode="&#x42b;" horiz-adv-x="2183" 
d="M1337 666q0 -154 -54.5 -284t-154.5 -223t-247 -145.5t-324 -52.5q-199 0 -346.5 29t-147.5 71q0 68 -2 351.5t-2 445.5q0 544 23 547q165 14 383 14q51 0 84 -1t71 -4.5t57 -11.5t19 -20v-170q108 -8 201 -30.5t175.5 -66t140 -104t91 -149t33.5 -196.5zM922 422
q0 83 -62.5 136.5t-163.5 53.5v-333q27 -9 58 -9q68 0 118 39t50 113zM2099 1333q-15 -560 -22 -866q-9 -325 -9 -475q0 -16 -6.5 -24.5t-12.5 -9.5t-17 -1q-55 -2 -164 -2q-141 0 -297 12q-22 2 -32 15.5t-11 48.5q-49 702 -49 1296q0 12 2 18t11.5 12t29.5 9q82 8 202 8
q203 0 344 -16q19 -3 25 -7.5t6 -17.5z" />
    <glyph glyph-name="uni042C" unicode="&#x42c;" horiz-adv-x="1382" 
d="M1337 666q0 -154 -54.5 -284t-154.5 -223t-247 -145.5t-324 -52.5q-199 0 -346.5 29t-147.5 71q0 68 -2 351.5t-2 445.5q0 544 23 547q165 14 383 14q51 0 84 -1t71 -4.5t57 -11.5t19 -20v-170q108 -8 201 -30.5t175.5 -66t140 -104t91 -149t33.5 -196.5zM922 422
q0 83 -62.5 136.5t-163.5 53.5v-333q27 -9 58 -9q68 0 118 39t50 113z" />
    <glyph glyph-name="uni042D" unicode="&#x42d;" horiz-adv-x="1234" 
d="M72 817q0 214 16 382t45 179q49 19 116 28t197 9q157 0 293 -57t230.5 -155t148 -231.5t53.5 -283.5q0 -154 -41.5 -278.5t-112.5 -208t-167.5 -140t-202.5 -81.5t-223 -25q-116 0 -209 26t-94 60q-8 92 -8 170q0 16 7 25.5t17 9.5q1 0 40 -12.5t97 -12.5q101 0 173.5 52
t103.5 135h-135q-178 0 -187 22q-36 111 -47 176q0 29 60 29q26 0 142.5 -8t174.5 -9q-29 92 -106 146.5t-191 54.5q-66 0 -118.5 -9t-53.5 -9q-18 0 -18 16z" />
    <glyph glyph-name="uni042E" unicode="&#x42e;" horiz-adv-x="2091" 
d="M1423 1413q136 0 246 -53.5t180.5 -146.5t108 -214.5t37.5 -261.5q0 -120 -23 -234t-70.5 -214.5t-114.5 -175.5t-162 -118.5t-206 -43.5q-231 0 -384.5 162t-190.5 444h-19q-104 0 -153 -2q-2 -29 -2 -88q-8 -289 -8 -475q0 -16 -6.5 -24.5t-12.5 -9.5t-16 -1
q-53 -2 -158 -2q-137 0 -285 12q-21 2 -30.5 16t-10.5 48q-47 728 -47 1296q0 18 7 26.5t34 12.5q78 8 195 8q194 0 330 -16q18 -3 23 -7.5t5 -17.5q-8 -268 -14 -573q47 2 143 2h15q7 189 78.5 335.5t204 231t306.5 84.5zM1411 295q56 0 91.5 74t35.5 188
q0 103 -28.5 145.5t-92.5 42.5q-76 0 -105.5 -42t-29.5 -146q0 -114 36.5 -188t92.5 -74z" />
    <glyph glyph-name="uni042F" unicode="&#x42f;" horiz-adv-x="1441" 
d="M90 817q0 118 57 225.5t159.5 189.5t258 130.5t340.5 48.5q190 0 321.5 -26t131.5 -66q0 -22 -5.5 -143.5t-6.5 -176.5q-4 -129 -9 -346q-10 -411 -20 -548.5t-43 -139.5q-37 -4 -162 -4q-15 0 -55.5 -0.5t-69 -0.5t-70 0.5t-71 3t-57 6.5t-42 11t-14.5 17v135
q-133 -112 -201 -239q-13 -21 -32 -21q-15 0 -27 4q-158 40 -319 115q-17 3 -17 16q0 7 8 23q96 151 234 297q-137 54 -213 178.5t-76 310.5zM510 588q0 -89 60 -144t163 -63v334q-24 6 -55 6q-71 0 -119.5 -34.5t-48.5 -98.5z" />
    <glyph glyph-name="uni0430" unicode="&#x430;" horiz-adv-x="1052" 
d="M801 1053q125 -548 217 -1065q0 -33 -31 -33q-233 0 -354 12q-10 3 -15 5.5t-10.5 11t-7.5 24.5q-6 37 -8 74q-22 -16 -49 -27.5t-35 -11.5q-9 0 -24 8t-21 17l-8 -43q-2 -17 -5 -24t-11 -14.5t-30.5 -9t-53 -3t-89.5 -1.5q-86 0 -129.5 1t-72.5 5t-36.5 11t-7.5 20
q0 9 3 27q125 533 276 1022q9 24 43 28.5t166 4.5q169 0 228 -8.5t65 -30.5zM563 317q13 0 35 -10q-15 93 -61 250q-36 -115 -70 -281q48 28 63 34.5t33 6.5z" />
    <glyph glyph-name="uni0431" unicode="&#x431;" horiz-adv-x="1077" 
d="M1024 350q0 -178 -139.5 -279.5t-438.5 -101.5q-148 0 -256 15.5t-108 38.5q0 38 -2 191.5t-2 240.5q0 451 12 618q0 1 0.5 7.5t2 10t5 8.5t11 8.5t18.5 4.5q110 10 229 10q77 0 160.5 -2.5t203 -8.5t140.5 -7q14 0 14 -12q7 -107 7 -170q0 -42 -3.5 -119.5t-3.5 -93.5
q0 -13 -14 -13q-241 0 -307 -2q0 -7 -1 -23t-1 -24q100 -5 183 -24t149.5 -53.5t103.5 -90.5t37 -129zM717 217q0 45 -46 75t-120 30l-12 -181q21 -6 53 -6q50 0 87.5 21t37.5 61z" />
    <glyph glyph-name="uni0432" unicode="&#x432;" horiz-adv-x="1060" 
d="M989 631q0 -200 -127 -297q113 -50 113 -172q0 -41 -13.5 -73.5t-32.5 -53.5t-53 -36.5t-61 -23t-71 -12t-69.5 -5t-68.5 -1.5q-148 -4 -237 -4q-92 0 -160 4q-54 3 -73 28.5t-21 80.5q-2 149 -32 516t-30 397q0 85 31 104q72 54 330 54q117 0 219 -30.5t182.5 -90.5
t127 -159t46.5 -226zM655 453q0 47 -23.5 77.5t-68.5 30.5q-20 0 -28 -2q-7 -73 -7 -209q51 0 88.5 24.5t38.5 78.5zM545 121q31 0 59.5 17t28.5 52q0 59 -107 64q0 -12 -1 -37t-1 -37v-57q2 -2 21 -2z" />
    <glyph glyph-name="uni0433" unicode="&#x433;" horiz-adv-x="827" 
d="M803 641q0 -14 -15 -14q-9 0 -38.5 2t-81.5 4t-117 2q-6 -191 -6 -369q0 -141 6 -282q0 -13 -14 -13q-129 0 -273.5 6.5t-159.5 22.5q-20 23 -38.5 258.5t-18.5 476.5q0 203 19 336q1 12 139.5 23.5t240.5 11.5q108 0 189 -5.5t116.5 -12.5t36.5 -15q5 -35 15 -432z" />
    <glyph glyph-name="uni0434" unicode="&#x434;" horiz-adv-x="1404" 
d="M1061 1100q140 0 260 -15q14 -2 18 -5t4 -13q-1 -53 -10 -385.5t-10 -519.5q55 0 57 -27v-94q0 -114 -9 -196t-38 -195q-3 -6 -14 -6q-362 0 -365 24q-12 84 -12 277h-496q-12 -182 -32 -285q-6 -8 -90 -8q-107 0 -164.5 0.5t-87.5 1.5t-36.5 3t-6.5 5q-33 277 -33 475
q0 17 40.5 22.5t188.5 8.5q29 25 46.5 88t17.5 147q0 195 -7.5 393.5t-7.5 262.5q0 19 5.5 27t23.5 8q370 6 758 6zM727 629q-17 -312 -70 -459q158 0 248 -2q-20 287 -22 461q-25 4 -78 4q-32 0 -78 -4z" />
    <glyph glyph-name="uni0435" unicode="&#x435;" horiz-adv-x="935" 
d="M866 1063q0 -114 -11 -228t-27 -182.5t-29 -68.5q-9 0 -37.5 2t-83 4t-123.5 2q-2 -23 -2 -86q87 3 150 7.5t83 4.5q43 0 43 -43q-13 -88 -38 -129q-21 -27 -160 -27h-84q-4 -50 -4 -90q37 -4 106 -4q21 0 65 3t70 3q31 0 31 -41q0 -113 -10 -182q-7 -43 -348 -43
q-203 0 -258.5 9t-61.5 51q-23 156 -45 534t-22 459q0 25 42 41t163 25.5t331 9.5h230q30 0 30 -31z" />
    <glyph glyph-name="uni0436" unicode="&#x436;" horiz-adv-x="1556" 
d="M981 1067l-10 -422q109 262 170 451q3 10 14 10q85 0 229 -14t144 -31t-6 -31q-51 -155 -108.5 -266t-147.5 -227q156 -299 233 -551q0 -32 -126.5 -46t-250.5 -14q-11 0 -14 8q-61 202 -145 375q-2 -141 -2 -315q0 -13 -5 -20t-9.5 -8t-12.5 -1q-39 -2 -119 -2
q-73 0 -211 10q-28 3 -31 52l-14 276q-89 -200 -135 -360q-3 -9 -12 -9q-118 0 -238.5 14t-120.5 46q79 261 228 545q-84 115 -139 230t-101 271q-6 21 -6 31q1 17 138 31t218 14q12 0 15 -10q61 -212 139 -418q-6 188 -6 375q0 14 11 22.5t38 12t48 4t66 0.5h13
q129 0 246 -15q12 -2 16 -5t4 -13z" />
    <glyph glyph-name="uni0437" unicode="&#x437;" horiz-adv-x="821" 
d="M776 643q0 -246 -178 -319q60 -17 93.5 -62.5t33.5 -101.5q0 -107 -112 -161t-322 -54q-74 0 -94.5 3t-20.5 15q0 43 9 91t24 48q4 0 18 -4t35 -4q70 0 104.5 25.5t34.5 56.5q0 42 -33 62t-135 20q-14 0 -17 18t-3 64q0 25 10 25q114 0 156.5 19t42.5 79q0 96 -141 96
q-32 0 -53 -3.5t-30.5 -7t-13.5 -3.5q-33 0 -100.5 207.5t-67.5 279.5q0 43 70.5 68.5t175.5 25.5q110 0 201.5 -28.5t162.5 -85.5t110.5 -151.5t39.5 -217.5z" />
    <glyph glyph-name="uni0438" unicode="&#x438;" horiz-adv-x="1015" 
d="M82 1079q2 8 10.5 11.5t40.5 5.5t100 2q95 0 107 -6q10 -8 10 -48q0 -54 -2 -167t-2 -168q134 233 272 366q22 25 91 25q90 0 180 -6q32 -1 43.5 -11.5t11.5 -38.5q0 -206 -3 -574.5t-3 -399.5q0 -80 -12 -90q-9 -12 -34.5 -15.5t-100.5 -3.5q-77 0 -96 9.5t-19 43.5
q0 41 5 142t7 182q-144 -176 -219 -301q-13 -21 -20.5 -32t-22 -21.5t-24.5 -14t-37 -6.5t-51 -3.5t-74 -0.5q-126 0 -146 12q-9 7 -14 51q-1 11 -2 17q-6 50 -6 383q0 76 2 210t2 197q0 230 6 250z" />
    <glyph glyph-name="uni0439" unicode="&#x439;" horiz-adv-x="1015" 
d="M82 1079q2 8 10.5 11.5t40.5 5.5t100 2q95 0 107 -6q10 -8 10 -48q0 -54 -2 -167t-2 -168q134 233 272 366q22 25 91 25q90 0 180 -6q32 -1 43.5 -11.5t11.5 -38.5q0 -206 -3 -574.5t-3 -399.5q0 -80 -12 -90q-9 -12 -34.5 -15.5t-100.5 -3.5q-77 0 -96 9.5t-19 43.5
q0 41 5 142t7 182q-144 -176 -219 -301q-13 -21 -20.5 -32t-22 -21.5t-24.5 -14t-37 -6.5t-51 -3.5t-74 -0.5q-126 0 -146 12q-9 7 -14 51q-1 11 -2 17q-6 50 -6 383q0 76 2 210t2 197q0 230 6 250zM635 1473q72 14 125 14q59 0 59 -31q0 -72 -25 -131t-67 -96.5t-95 -57.5
t-110 -20t-108.5 18t-94 52.5t-67.5 91.5t-25 129q0 47 183 47q11 0 21 -9.5t11 -21.5q3 -47 23 -81t57 -34q73 0 80 101q3 20 33 29z" />
    <glyph glyph-name="uni043A" unicode="&#x43a;" horiz-adv-x="1101" 
d="M1090 1030q-53 -157 -111 -268t-148 -225q155 -289 230 -545q0 -32 -126.5 -46t-250.5 -14q-8 0 -14 9q-54 195 -142 376q-2 -43 -2 -124q0 -33 2 -97.5t2 -97.5q0 -20 -33 -24.5t-163 -4.5q-172 0 -193 2q-25 1 -32.5 48.5t-18.5 246.5q-6 103 -14.5 252.5t-13 228.5
t-8 171.5t-3.5 158.5q0 20 84.5 24.5t360.5 4.5q14 0 14 -14q0 -12 -1 -34t-1 -30q0 -202 16 -412q125 288 185 480q0 10 14 10q84 0 228.5 -14t144.5 -31q0 -10 -6 -31z" />
    <glyph glyph-name="uni043B" unicode="&#x43b;" horiz-adv-x="1437" 
d="M1370 1067q-9 -265 -18 -694q-6 -258 -6 -379q0 -13 -5.5 -20t-10.5 -8t-15 -1q-43 -2 -131 -2q-80 0 -238 10q-22 1 -27.5 11.5t-5.5 40.5q-17 221 -32 604q-54 4 -82 4t-82 -4q-24 -365 -88 -484q-57 -104 -159 -158.5t-228 -54.5q-75 0 -132 11t-80.5 24t-23.5 23
q0 40 35.5 106t62.5 66q6 0 22.5 -4t23.5 -4q44 0 72 70t28 179q0 195 -8.5 393.5t-8.5 262.5q0 18 7 26.5t26 8.5q392 6 803 6q148 0 277 -15q14 -2 19 -5t5 -13z" />
    <glyph glyph-name="uni043C" unicode="&#x43c;" horiz-adv-x="1267" 
d="M1167 1069q7 -222 7 -385q0 -372 -13 -649q-1 -37 -19 -46t-65 -9q-227 0 -315 16q-17 4 -24 7.5t-13 15.5t-6 34q0 127 2 150q-44 -103 -94 -195q-8 -18 -21 -23t-55 -5q-36 0 -47.5 4t-24.5 24q-84 125 -127 225q2 -39 2 -133q0 -58 -7 -81.5t-23 -26.5
q-33 -10 -166 -10q-60 0 -60 49q-14 341 -14 616q0 255 12 422q2 43 127 43q55 0 131 -8q44 -7 54 -29q67 -153 186 -325q117 163 180 321q12 28 43 33q102 12 170 12q101 0 140.5 -10.5t39.5 -36.5z" />
    <glyph glyph-name="uni043D" unicode="&#x43d;" horiz-adv-x="1236" 
d="M1137 1071v-240q0 -183 -1.5 -272.5t-11 -233.5t-30.5 -323q-4 -25 -31 -25q-178 0 -324 11q-11 1 -17 2.5t-12 6.5t-8 13q-27 146 -40 236q-58 -60 -76 -60q-16 0 -29 25q-10 -149 -14 -184q-1 -11 -11 -18t-29 -9.5t-32.5 -3t-38.5 -0.5q-120 0 -177.5 1t-92.5 5.5
t-41 10.5t-6 20l-25 612q-10 325 -10 412q0 45 190 45q75 0 173.5 1t111.5 1q33 0 33 -33q0 -367 -19 -561q39 27 56 27q8 0 28 -23v557q0 45 189 45q29 0 68 -1.5t95.5 -5.5t94 -14t37.5 -24z" />
    <glyph glyph-name="uni043E" unicode="&#x43e;" horiz-adv-x="1110" 
d="M555 1128q114 0 205.5 -42.5t150 -117t90 -171.5t31.5 -209q0 -96 -19 -187t-58.5 -171t-96 -139.5t-135.5 -94.5t-172 -35q-222 0 -357 167t-135 447q0 243 134.5 398t361.5 155zM543 262q38 0 62 54t24 133q0 69 -19 97.5t-61 28.5q-52 0 -71 -27.5t-19 -98.5
q0 -79 24.5 -133t59.5 -54z" />
    <glyph glyph-name="uni043F" unicode="&#x43f;" horiz-adv-x="1200" 
d="M512 1120q616 0 616 -30q0 -405 -9 -618.5t-36 -469.5q-1 -14 -8 -18t-24 -4q-216 0 -355 10q-9 0 -12 14q-2 18 -5.5 81t-8 217.5t-4.5 328.5q-80 0 -117 -2q-12 -393 -37 -615q-4 -18 -94 -18q-277 0 -302 8q-10 4 -10 12q-34 868 -34 1055q0 49 440 49z" />
    <glyph glyph-name="uni0440" unicode="&#x440;" horiz-adv-x="1140" 
d="M1081 571q0 -106 -38.5 -187.5t-108.5 -132.5t-156 -80t-192 -40v-115q0 -29 -54 -38t-145 -9q-178 0 -215 4q-26 30 -70.5 449t-44.5 616q0 41 120 69t280 28q285 0 454.5 -156.5t169.5 -407.5zM723 461q0 47 -34 72.5t-79 25.5q-18 0 -24 -2v-227q63 6 100 41.5
t37 89.5z" />
    <glyph glyph-name="uni0441" unicode="&#x441;" horiz-adv-x="1024" 
d="M950 649q0 -31 -30 -31q-5 0 -20 4t-44.5 7.5t-69.5 3.5q-103 0 -162 -59t-59 -154q0 -89 57.5 -151t153.5 -62q42 0 73 9t34 9q13 0 25 -12.5t12 -30.5q0 -71 -7 -135q-3 -32 -80 -57t-171 -25t-178.5 20t-162 65t-133.5 112t-89 166.5t-33 222.5q0 160 73.5 292
t208 209.5t301.5 77.5q103 0 153.5 -7t90.5 -23q27 -11 42 -144.5t15 -306.5z" />
    <glyph glyph-name="uni0442" unicode="&#x442;" horiz-adv-x="978" 
d="M899 1102q28 -3 31 -31q6 -72 6 -201q0 -121 -6 -247q-4 -33 -31 -33h-184q-11 -261 -51 -586q-5 -39 -134 -39q-86 0 -192 8q-15 3 -21.5 14t-7.5 40q-23 388 -41 567q-59 4 -186 4q-31 0 -31 31q-6 117 -6 243q0 99 6 207q0 13 9.5 23t21.5 10q84 4 280 4
q336 0 537 -14z" />
    <glyph glyph-name="uni0443" unicode="&#x443;" horiz-adv-x="989" 
d="M981 1053q-98 -245 -338 -652q-54 -92 -85 -147t-73 -138.5t-71 -158.5q-5 -16 -17 -16q-95 0 -223.5 11t-128.5 32q109 315 238 532q-141 216 -271 512q-6 12 -6 25q0 21 27 24q130 17 327 17q44 0 48 -11q27 -114 104 -278q66 131 106 278q0 11 41 11h41q92 0 148 -2
t86 -6t39.5 -10t9.5 -15q0 -4 -2 -8z" />
    <glyph glyph-name="uni0444" unicode="&#x444;" horiz-adv-x="1208" 
d="M727 1067q-2 -25 -2 -117q225 -21 335.5 -122.5t110.5 -249.5q0 -80 -26 -151t-78.5 -131.5t-142.5 -101.5t-209 -53v-147q0 -13 -5.5 -20.5t-15.5 -10t-18.5 -2.5t-22 1t-18.5 1q-37 0 -115 10q-10 1 -12 8t-3 30q-1 9 -1 14l-6 116q-223 23 -341 135t-118 293
q0 151 113 252t331 125v115q0 24 18.5 31.5t57.5 7.5q168 0 168 -33zM377 551q0 -69 31 -123t84 -82q-2 65 -7 359q-59 -15 -83.5 -51.5t-24.5 -102.5zM807 551q0 113 -86 149q0 -53 -4 -327v-11q90 65 90 189z" />
    <glyph glyph-name="uni0445" unicode="&#x445;" horiz-adv-x="1026" 
d="M995 1042q0 -10 -8 -26q-101 -247 -260 -498q117 -203 227 -516q0 -26 -104.5 -43.5t-206.5 -17.5h-41q-50 0 -59 36q-16 80 -49 160q-29 -79 -48 -166q-7 -28 -38 -28q-93 0 -224 15t-131 44q99 295 228 516q-141 212 -258 477q-9 31 -9 41q0 38 39 41q109 17 322 17
q56 0 61 -21q27 -115 86 -237q50 106 84 235q7 21 60 21q142 0 215.5 -6t93.5 -16t20 -28z" />
    <glyph glyph-name="uni0446" unicode="&#x446;" horiz-adv-x="1218" 
d="M135 1108q219 0 385 -12q15 0 15 -15q0 -1 2 -59.5t4.5 -153t5 -206.5t4.5 -243.5t2 -240.5q80 0 115 2q2 52 7.5 251t12.5 370t17 270q5 21 94 21q112 0 175.5 -1t97.5 -4t43 -7t9 -11q4 -480 4 -563q0 -153 -2 -252t-4 -141.5t-2 -59.5h47q35 0 35 -59q0 -74 -1 -172.5
t-1 -120.5q0 -13 -5.5 -19t-10.5 -7t-15 -1q-43 -2 -131 -2q-122 0 -237 11q-16 1 -23.5 6.5t-9 13.5t-2.5 31l-16 233q-21 1 -117 3t-171 4.5t-163 5.5t-138 7t-50 9q-17 251 -17 516q0 57 1.5 136.5t5 193t12.5 190t22 76.5z" />
    <glyph glyph-name="uni0447" unicode="&#x447;" horiz-adv-x="995" 
d="M946 1049q0 -160 -12 -511.5t-12 -467.5q0 -77 -4 -91t-27 -14q-21 0 -64.5 -1t-66.5 -1q-80 0 -238 10q-25 1 -31 11.5t-8 40.5q-11 205 -16 366q-79 -18 -139 -18q-70 0 -122 23t-81.5 62.5t-45 83t-20.5 93.5q-10 110 -10 244q0 133 6 200q4 21 162 21q68 0 87.5 -5
t19.5 -20q0 -67 -3.5 -187t-3.5 -175q0 -14 1.5 -23.5t7.5 -21.5t20.5 -18.5t36.5 -6.5q57 0 57 45q0 60 -5 187.5t-5 189.5q0 22 38 28.5t122 6.5q204 0 332 -15q11 -1 15 -3t6.5 -9.5t2.5 -23.5z" />
    <glyph glyph-name="uni0448" unicode="&#x448;" horiz-adv-x="1675" 
d="M780 1094q135 0 252 -15q13 -2 17 -5t4 -13q0 -19 -1.5 -68.5t-5.5 -211.5t-8 -406q-4 -148 -4 -197q125 0 133 2q1 19 6 243t11.5 386t15.5 262q5 21 88 21q102 0 159.5 -1t89 -4t40 -7t8.5 -11q6 -643 6 -960q0 -35 -6 -109q-1 -14 -5.5 -20.5t-8.5 -7.5t-12 -1
q-293 -6 -412 -6q-131 0 -383 6t-452.5 13.5t-200.5 11.5q-17 251 -17 516q0 40 1 111.5t4.5 194t12 206.5t21.5 84q199 0 352 -12q13 0 13 -15q1 -23 5 -156.5t7.5 -352.5t3.5 -394h148q-27 525 -27 877q0 25 35 32t110 7z" />
    </font>
</defs>
</svg>
