<?xml version="1.0" standalone="no"?>
<!DOCTYPE svg PUBLIC "-//W3C//DTD SVG 1.1//EN" "http://www.w3.org/Graphics/SVG/1.1/DTD/svg11.dtd" >
<svg xmlns="http://www.w3.org/2000/svg" xmlns:xlink="http://www.w3.org/1999/xlink" version="1.1">
<metadata>
Created by FontForge 20201107 at Tue Feb 28 16:40:13 2006
 By www-data
Copyright (c) Anatole &#38; Alexandra Gophmann, 2006. All rights reserved.
</metadata>
<defs>
<font id="Gloriascript" horiz-adv-x="225" >
  <font-face 
    font-family="Gloria script"
    font-weight="400"
    font-stretch="normal"
    units-per-em="2048"
    panose-1="3 11 5 0 0 0 0 0 0 0"
    ascent="1638"
    descent="-410"
    x-height="447"
    cap-height="1461"
    bbox="-709 -748 3245 1620"
    underline-thickness="0"
    underline-position="0"
    unicode-range="U+0020-2116"
  />
<missing-glyph horiz-adv-x="1024" 
d="M128 0v1620h768v-1620h-768zM256 128h512v1364h-512v-1364z" />
    <glyph glyph-name=".notdef" horiz-adv-x="1024" 
d="M128 0v1620h768v-1620h-768zM256 128h512v1364h-512v-1364z" />
    <glyph glyph-name=".null" horiz-adv-x="0" 
 />
    <glyph glyph-name="nonmarkingreturn" horiz-adv-x="639" 
 />
    <glyph glyph-name="space" unicode=" " horiz-adv-x="639" 
 />
    <glyph glyph-name="exclam" unicode="!" horiz-adv-x="512" 
d="M272 213q23 31 58.5 83.5t79.5 121.5t95.5 151.5t106.5 175.5q23 39 42 63t34.5 38t28.5 19t24 5q25 0 34 -14t9 -25q0 -18 -10.5 -41.5t-34 -56t-60.5 -77t-91 -105.5t-105.5 -123t-93.5 -113q-48 -59 -92 -114q-11 0 -18 3t-7 9zM158 -20q-26 0 -41 15t-15 40
q0 34 25 59t59 25q26 0 41 -15.5t15 -40.5q0 -34 -25 -58.5t-59 -24.5z" />
    <glyph glyph-name="quotedbl" unicode="&#x22;" 
d="M241 526q0 -25 -43 -69.5t-69 -51.5q-2 1 -2 4q0 4 16.5 31t16.5 35q0 1 -1 2q-36 4 -36 40q0 65 61 65q57 0 57 -56zM441 526q0 -25 -43 -69.5t-69 -51.5q-2 1 -2 4q0 4 16.5 31t16.5 35q0 1 -1 2q-36 4 -36 40q0 65 61 65q57 0 57 -56z" />
    <glyph glyph-name="ampersand" unicode="&#x26;" horiz-adv-x="1024" 
d="M930 154q8 0 15.5 -6.5t10.5 -18.5q-32 -31 -67.5 -58t-73 -47.5t-77 -32t-79.5 -11.5q-78 0 -128.5 27.5t-79.5 72.5q-47 -42 -103 -71t-131 -29q-48 0 -87.5 16t-68.5 44t-45 65t-16 79q0 54 22 99.5t58 83.5t82.5 69t96 56.5t97.5 45t88 35.5q33 87 81.5 167
t106.5 140.5t120.5 97t124.5 36.5q57 0 80.5 -20.5t23.5 -51.5q0 -45 -19.5 -83.5t-52.5 -72.5t-76.5 -63t-91 -54t-97 -46.5t-93.5 -40.5q-19 -60 -28 -125t-9 -133q0 -36 1.5 -66.5t6.5 -56.5q48 62 83.5 119.5t70 101.5t74 70t96.5 26q31 0 52 -10.5t34 -25.5t18.5 -31
t5.5 -27q0 -12 -3 -26t-10.5 -26t-19 -20t-28.5 -8q-16 0 -28.5 6t-20.5 15.5t-12.5 20.5t-4.5 20q0 21 5.5 32t5.5 25q0 8 -7.5 13t-19.5 5q-32 0 -66 -32.5t-69.5 -80.5t-72.5 -103.5t-75 -100.5q13 -51 33 -81t41.5 -46.5t43 -21.5t36.5 -5q53 0 114 34.5t132 109.5z
M432 537q-68 -28 -127 -58.5t-102 -71t-67.5 -93t-24.5 -124.5q0 -44 11 -78t30.5 -56.5t45.5 -34t56 -11.5q21 0 44.5 8t47 21t46 30t42.5 35q-25 48 -34 102t-9 105q0 54 11.5 111.5t29.5 114.5zM563 618q55 23 116.5 54.5t113.5 71t86 87t34 103.5q0 23 -11.5 38
t-37.5 15q-38 0 -79.5 -27.5t-82 -77t-77 -117t-62.5 -147.5z" />
    <glyph glyph-name="quotesingle" unicode="'" 
d="M241 526q0 -25 -43 -69.5t-69 -51.5q-2 1 -2 4q0 4 16.5 31t16.5 35q0 1 -1 2q-36 4 -36 40q0 65 61 65q57 0 57 -56z" />
    <glyph glyph-name="parenleft" unicode="(" horiz-adv-x="962" 
d="M1501 1358l7 -12q-307 -147 -527 -358q-224 -212 -425 -509q-168 -249 -257 -502q-43 -121 -80 -277h-14q38 244 137 519q118 325 317 547q200 224 530 427q151 91 312 165z" />
    <glyph glyph-name="parenright" unicode=")" horiz-adv-x="578" 
d="M840 1346l11 -2q-125 -643 -400 -976q-216 -270 -596 -496q-163 -96 -323 -167l-10 14q198 96 315 177q269 183 540 528q240 306 354 584q51 123 109 338z" />
    <glyph glyph-name="asterisk" unicode="*" horiz-adv-x="410" 
d="M242 731q10 3 10 8q0 1 -4 11l-109 188l2 4l168 -145q4 -4 8 -4t9 8l110 188l4 -2l-43 -215l-2 -8v-2q0 -4 13 -4h223v-4l-205 -70q-14 -6 -14 -10q0 -3 2 -6l4 -6l108 -189l-2 -2l-157 137q-8 6 -13 10.5t-8 4.5t-5 -4.5t-7 -12.5l-107 -186l-4 2l39 211q2 8 2 11v5
q0 5 -4 5.5t-12 0.5h-213v4z" />
    <glyph glyph-name="plus" unicode="+" horiz-adv-x="979" 
d="M218 455h324l157 384l49 7l-151 -391h331v-35l-341 7l-157 -417l-67 -14l161 424h-326z" />
    <glyph glyph-name="comma" unicode="," 
d="M81 56q0 -25 -43 -69.5t-69 -51.5q-2 1 -2 4q0 4 16.5 31t16.5 35q0 1 -1 2q-36 4 -36 40q0 65 61 65q57 0 57 -56z" />
    <glyph glyph-name="hyphen" unicode="-" horiz-adv-x="846" 
d="M154 325l26 60h596l-26 -60h-596z" />
    <glyph glyph-name="period" unicode="." 
d="M81 56q0 -39 -63 -56q-55 6 -55 47q0 65 61 65q57 0 57 -56z" />
    <glyph glyph-name="zero" unicode="0" horiz-adv-x="664" 
d="M830 601q0 -14 -59 -62q-25 -20 -56 -21q-55 -112 -220 -287q-177 -188 -269 -212q-26 -7 -47 -7q-52 0 -81 47q-26 41 -26 95q0 57 34 132q56 125 105 184q93 115 230 212q206 146 278 146q80 0 80 -92q0 -95 -67 -182l2 -4q23 2 52 31.5t36 29.5q8 0 8 -10zM768 751
q-2 43 -32 43q-63 0 -185 -135l-158 -192q-241 -284 -241 -379q0 -50 40 -50q57 0 138 68q76 62 198 204q130 151 162 222q-32 -1 -32 44q0 51 30 105q34 62 80 70z" />
    <glyph glyph-name="one" unicode="1" horiz-adv-x="607" 
d="M882 819q0 -1 -1 -5q-299 -333 -664 -812l-19 -11q-50 -2 -98 -2q-41 0 -41 13q0 9 7 18q30 35 90 104q216 249 470 511q-366 -232 -368 -232q-12 0 -12 12q0 5 6 9q50 34 329 219q285 188 288 188q13 0 13 -12z" />
    <glyph glyph-name="two" unicode="2" horiz-adv-x="805" 
d="M974 702q0 -172 -209 -297q-97 -59 -358 -153q-8 -3 -169 -77q51 0 79 -8q21 -6 100 -43q61 -29 104 -29q67 0 102 31q52 45 88 92q3 5 8 5q9 0 12 -11q-8 -36 -95 -120q-95 -90 -181 -90q-50 0 -136 43.5t-135 43.5q-52 0 -96.5 -40t-49.5 -40q-9 0 -15 11q-8 4 -8 9
q0 14 54 60q101 86 221 150q93 41 271 136q99 62 195 161q122 126 122 207q0 78 -60 78q-92 0 -217 -101q-129 -105 -129 -193q0 -40 34 -40q91 0 222 184q14 20 22 58q7 33 9 35h3q17 0 17 -54q0 -78 -86.5 -160.5t-165.5 -82.5q-77 0 -77 68q0 62 75 142q57 62 129 108
q90 58 177 58q143 0 143 -141z" />
    <glyph glyph-name="three" unicode="3" horiz-adv-x="805" 
d="M906 679q0 -25 -9 -49q-52 -141 -220 -154q-27 -1 -82 -4q-17 -4 -50 -8q131 -43 131 -155q0 -124 -135 -223q-125 -92 -254 -92q-135 0 -195 72q-35 43 -35 92q0 112 98 112q81 0 81 -76q0 -78 -81 -78q-25 0 -48 15v-9q0 -47 47 -73q39 -23 89 -23q37 0 71 17
q199 98 256 310q6 23 6 37q0 63 -61 63q-67 0 -80 -39.5t-48 -39.5q-44 0 -44 39q0 52 78 65q62 4 123 9q157 17 243 151q25 39 25 73q0 80 -99 80q-12 0 -43.5 -9.5t-36.5 -16.5q0 -6 -11 -25q26 -21 26 -55q0 -74 -70 -74q-68 0 -68 74q0 68 86 98q80 28 137 28
q67 0 116 -32q57 -37 57 -100z" />
    <glyph glyph-name="four" unicode="4" horiz-adv-x="710" 
d="M923 850q0 -2 -1 -7q-18 -19 -55 -58l-114 -121q-80 -85 -162 -183q14 -2 26 -2q44 0 91 20q43 19 85 39h3q10 0 10 -11q0 -6 -6 -9q-122 -75 -208 -75q-16 0 -33 1q-59 -73 -173 -221q-68 -92 -103 -143q-15 -23 -48 -68q-4 -5 -9 -4l-135 3q-14 0 -14 6q0 4 5 11
q213 281 385 433q-81 18 -178 66q-98 -55 -152 -55q-80 0 -80 53q0 62 113 62q77 0 136 -14q184 206 295 381q15 29 50 81q11 13 158 13q15 0 15 -6q0 -7 -5 -13q-21 -23 -61 -67q-237 -263 -397 -386q-6 -4 -17 -13q54 -22 163 -60q205 199 399 357q2 1 5 2q12 0 12 -12z
M264 538q-63 26 -101 26q-24 0 -48 -11q-30 -13 -30 -34q0 -25 50 -25q61 0 129 44z" />
    <glyph glyph-name="five" unicode="5" horiz-adv-x="664" 
d="M902 831q0 -11 -40 -60q-90 -112 -189 -112q-70 0 -140 43q-4 -10 -50 -73t-53 -68h4q4 0 13.5 1.5t14.5 1.5q87 0 141 -44q58 -48 58 -133q0 -56 -26 -109q-59 -117 -167 -190q-113 -77 -239 -77q-71 0 -123 28q-63 35 -63 101q0 62 33 107q37 49 97 49q32 0 58.5 -24
t26.5 -55q0 -76 -79 -76q-81 0 -81 82q-35 -29 -35 -77q0 -99 116 -99q125 0 257 159q128 153 128 282q0 54 -106 54q-31 0 -51 -12q-12 -7 -44 -71q-28 -56 -51 -56q-32 0 -32 34q0 49 54 80q69 39 75 47q10 15 189 269h1q4 0 53.5 -31t90.5 -31q55 0 104.5 37t42.5 37
q12 0 12 -14z" />
    <glyph glyph-name="six" unicode="6" horiz-adv-x="664" 
d="M966 914q0 -5 -6 -8q-204 -90 -353 -205q-154 -119 -289 -291q-166 -211 -166 -310q0 -83 72 -83q32 0 88 27q116 56 229 180q129 140 129 248q0 47 -32 47q-42 0 -87 -29q-56 -38 -111 -107q-141 -178 -141 -235q0 -9 4.5 -24.5t4.5 -23.5q-1 -1 -2 -6l-8 -5
q-21 5 -21 72q0 114 110 247q114 139 224 139q81 0 81 -86q0 -123 -174.5 -293.5t-297.5 -170.5q-75 0 -114 41q-49 52 -49 123q0 55 29 116q134 277 606 532q89 49 144 72q22 9 115 45h5q10 0 10 -12z" />
    <glyph glyph-name="seven" unicode="7" horiz-adv-x="664" 
d="M1022 824l-2 -3l-114 -93q-161 -139 -311 -312l79 -1q11 0 11 -11t-11 -11l-98 2q-220 -263 -389 -523q-16 -28 -33 -56q-24 -36 -45 -36q-92 0 -115 6l-11 13v3q136 219 496 594h-86q-10 0 -10 11t10 11l110 -2q149 146 294 274q-52 -11 -93 -11q-70 0 -127.5 37
t-73.5 37q-32 0 -79 -43t-52 -43q-12 0 -12 13q0 8 84.5 76.5t106.5 77.5q15 6 31 6q39 0 111.5 -43t130.5 -43q35 0 95 34q79 46 92 51q11 -2 11 -15z" />
    <glyph glyph-name="eight" unicode="8" horiz-adv-x="664" 
d="M854 626q-6 -16 -51 -42q-20 -12 -47 -12q-59 -60 -181 -103q0 -25 3.5 -75.5t3.5 -76.5q0 -38 -6 -74q-17 -103 -108.5 -180.5t-195.5 -77.5q-80 0 -143 47q-69 52 -69 129q0 122 110 214q50 41 126 61l138 26q-3 20 -3 44q0 109 42 176q94 148 220 148q115 0 125 -88
q7 -13 7 -29q0 -53 -54 -108q-4 -4 -6 -7q2 -2 6 -2q19 0 42 19.5t29 19.5q4 0 8 -2zM794 756q0 37 -45 37q-76 0 -133 -72q-52 -68 -52 -146q0 -9 9 -87q27 8 83 38q65 35 66 50q-30 -1 -30 31q0 43 27 82q31 42 72 45q3 12 3 22zM440 362q0 37 -5 79q-103 -9 -206 -116
q-106 -108 -106 -209q0 -47 34 -74.5t81 -27.5q104 0 159 129q43 99 43 219z" />
    <glyph glyph-name="nine" unicode="9" horiz-adv-x="664" 
d="M773 702q0 -85 -63 -194q-27 -45 -119 -171l-388 -531q-21 -27 -117 -27q-49 0 -49 12t478 555q-90 -66 -108 -76q-67 -41 -121 -41q-75 0 -101 88q-12 37 -12 63q0 49 31 101q141 237 371 318q61 22 98 22q100 0 100 -119zM740 725q0 60 -54 60q-42 0 -91 -43
q-78 -68 -254 -287q-28 -34 -78 -105q-20 -31 -20 -55q0 -35 69 -35q79 0 204 125q92 92 161 197q63 95 63 143z" />
    <glyph glyph-name="colon" unicode=":" 
d="M81 56q0 -25 -43 -69.5t-69 -51.5q-2 1 -2 4q0 4 16.5 31t16.5 35q0 1 -1 2q-36 4 -36 40q0 65 61 65q57 0 57 -56zM250 380q0 -40 -63 -57q-55 6 -55 47q0 65 61 65q57 0 57 -55z" />
    <glyph glyph-name="semicolon" unicode=";" 
d="M81 56q0 -39 -63 -56q-55 6 -55 47q0 65 61 65q57 0 57 -56zM250 380q0 -40 -63 -57q-55 6 -55 47q0 65 61 65q57 0 57 -55z" />
    <glyph glyph-name="question" unicode="?" horiz-adv-x="622" 
d="M158 -20q34 0 59 24.5t25 58.5q0 25 -15 40.5t-41 15.5q-34 0 -59 -25t-25 -59q0 -25 15 -40t41 -15zM573 812q13 -5 11 -19q-14 -38 -36 -71.5t-50.5 -56.5t-62 -31t-69.5 5q-17 6 -26.5 18t-12.5 26.5t-1 30.5t8 32q16 43 54.5 85t89 70.5t107 39t107.5 -8.5
q31 -11 51 -34t29 -52.5t8 -63t-13 -65.5q-15 -42 -44.5 -75.5t-68.5 -62t-85.5 -55.5t-94.5 -55q-33 -20 -57 -34.5t-41 -26t-27.5 -22.5t-14.5 -24q-4 -10 -3 -20.5t15 -15.5q16 -6 35 0.5t37.5 21t37 35t34.5 43.5q5 -2 11 -5t5 -10q-19 -27 -40 -51t-44 -40t-48 -22
t-52 4q-17 6 -27.5 19t-16 29t-5.5 33.5t5 32.5q7 18 23.5 36.5t44 39.5t66.5 46t92 57q105 64 157.5 117.5t67.5 94.5q11 30 1.5 59t-49.5 43q-59 22 -112.5 8t-96 -45.5t-72 -71t-40.5 -69.5q-8 -21 -4.5 -44.5t23.5 -30.5q25 -9 53 1.5t55 33t49.5 54.5t36.5 67zM178 129
q23 0 39 -20.5t16 -45.5q0 -15 -6 -30t-16.5 -26.5t-24.5 -19t-30 -7.5q-25 0 -39.5 19t-14.5 44q0 15 5.5 30t15.5 27.5t24 20.5t31 8z" />
    <glyph glyph-name="A" unicode="A" horiz-adv-x="1640" 
d="M2207 1280q0 27 -55 27q-33 0 -135 -90l-141 -125q-111 -97 -224.5 -208t-233.5 -240q-29 -30 -81 -90q12 -29 12 -92q0 -116 -37 -227q131 173 287 359t342 389q85 88 248 263q18 21 18 34zM1301 569q-30 60 -81 60q-47 0 -73 -77q-18 -56 -18 -115v-18t1 -18
q82 76 171 168zM1322 446q0 43 -6 72q-2 4 -3 12q-37 -40 -80.5 -84t-95.5 -94q9 -59 39 -110q38 -63 85 -75q23 33 44 134q8 46 12.5 82t4.5 63zM464 -8q-102 0 -186.5 21.5t-145 63t-93.5 100t-33 131.5q0 46 17 95t48.5 96t77.5 88.5t105.5 72.5t131 48.5t154.5 17.5
q78 0 133 -21t90.5 -54.5t51.5 -76.5t16 -87q0 -51 -22.5 -105t-67 -98.5t-111.5 -72.5t-156 -28q-30 0 -58.5 5.5t-52.5 12.5t-42 14t-28 10q0 7 4.5 15t15.5 7q6 0 15.5 -1t35.5 -1q85 0 164 13.5t140 44t98 80t37 120.5q0 42 -19 77t-53 60t-81 38.5t-102 13.5
q-43 0 -97.5 -10t-110.5 -30.5t-109 -52t-95 -73.5t-67.5 -96t-25.5 -119q-1 -66 26 -112.5t68.5 -78t92 -50t98.5 -28t87 -12t57 -2.5q151 0 327 109q108 66 280 216q-6 33 -6 71q0 161 91 212q29 17 56 17q65 0 101 -63q165 175 261 276t122 127q226 224 427 357
q143 95 198 95q35 0 35 -33q0 -32 -55 -102l-519 -657q-45 -58 -143.5 -186.5t-251.5 -331.5q91 0 180 51q88 51 77 51q4 0 9 -3q1 -1 1 -2t1 -3q0 -6 -8 -14q-107 -102 -242 -102q-18 0 -34 3l-84 -114l-143 -7v22l95 132q-124 54 -158 160q-60 -54 -123.5 -102t-132.5 -91
q-169 -105 -291 -119q-20 -2 -39.5 -3.5t-38.5 -1.5z" />
    <glyph glyph-name="B" unicode="B" horiz-adv-x="1856" 
d="M434 -8q-96 5 -177.5 29.5t-140.5 68t-91.5 105.5t-32.5 143q0 51 15 104.5t44.5 103.5t72 94.5t97.5 77t122.5 51t145.5 18.5q74 0 128 -21t89 -55.5t52 -79.5t17 -94q0 -57 -21.5 -116.5t-63.5 -108.5t-105.5 -80t-148.5 -31q-29 0 -55.5 6t-49.5 13.5t-40.5 15
t-26.5 10.5q0 8 4.5 17t15.5 8q5 0 14 -1.5t34 -1.5q81 0 155.5 15t132.5 49t93 88.5t35 133.5q0 47 -18 86t-50 66.5t-76.5 42.5t-96.5 15q-41 0 -92.5 -10.5t-105 -33.5t-104 -58t-90 -82t-64 -106.5t-24.5 -131.5q-1 -73 24 -125t64.5 -87t88 -55t95 -30.5t85.5 -13.5
t60 -3q91 0 175 31q202 73 386 253q48 46 122.5 134t179.5 219q45 57 93.5 115.5t100.5 120.5q223 267 502 443q-121 94 -329 94q-129 0 -261 -49q-227 -81 -378 -214q-78 -67 -121 -161q-29 -64 -29 -113q0 -121 141 -121q85 0 177 54q200 119 307 287q40 62 40 132
q0 13 -4 32t-4 28q0 8 13 8q24 0 24 -83q0 -61 -37 -132q-57 -110 -126 -177q-74 -71 -178 -121q-114 -53 -207 -53q-168 0 -168 142q0 57 31 123q44 99 126 170q63 54 136 100.5t160 84.5q189 83 336 83q227 0 372 -100q157 96 299 123q4 1 6.5 1h3.5q17 0 17 -16
q0 -18 -21 -24q-8 -1 -20.5 -3t-29.5 -5q-112 -20 -230 -93q129 -107 129 -255q0 -147 -128 -257q-112 -95 -268 -128q78 -86 78 -195q0 -146 -98 -288q-164 -233 -362 -233q-180 0 -180 167q0 134 123 269t253 135q60 0 60 -17q0 -6 -7 -7q-11 4 -35 4q-46 0 -125 -48
q-42 -25 -81 -64t-77 -94q-81 -117 -81 -205q0 -22 7.5 -41.5t21 -34.5t32 -23.5t39.5 -8.5q98 0 220 152q90 111 151 243q54 118 54 205q0 48 -19 79q-40 -10 -85 -10q-113 0 -113 54q0 36 58 36q73 0 141 -54q119 37 222 187q101 146 101 274q0 82 -56 141
q-103 -69 -204 -173.5t-202 -247.5q-23 -29 -57 -74t-79 -105q-72 -103 -126.5 -175t-91.5 -115q-121 -138 -273 -242q-289 -197 -561 -197zM1737 716q-43 40 -122 40q-33 0 -33 -16q0 -14 37 -24q34 -8 51 -8q15 0 31.5 2t35.5 6z" />
    <glyph glyph-name="C" unicode="C" horiz-adv-x="1017" 
d="M1399 1363q0 -39 -19 -83q-63 -148 -291 -276q-179 -100 -383 -153q-126 -32 -248 -32q-118 -143 -201 -294q-109 -198 -109 -331q0 -174 195 -174q150 0 291 102q118 85 204 199q105 140 105 258q0 51 -16 74q-35 48 -91 48q-90 0 -229 -120q-126 -107 -175 -200
q-34 -64 -34 -120q0 -13 6 -37t6 -36q0 -5 -10 -5q-14 0 -25 42q-8 33 -8 55q0 18 7 49q16 71 41 118q50 92 145.5 168t196.5 104q30 8 54 8q154 0 154 -157q0 -143 -147 -310q-132 -150 -280 -219q-104 -49 -209 -49q-121 0 -192 78q-71 75 -71 196q0 273 250 568
q-302 60 -302 249q0 38 17 77q57 127 215 191q129 52 292 52q152 0 273 -48q15 -4 36 -23l-2 -3q-1 -4 -4 -4q12 0 -75 19q-56 12 -137 12q-143 0 -279 -30q-175 -38 -247 -112q-30 -32 -50 -72q-16 -32 -16 -60q0 -170 294 -229q86 97 263 252q204 179 502 327
q89 44 174 44q129 0 129 -113zM1362 1385q0 59 -63 59q-70 0 -139 -29q-59 -26 -207 -134q-288 -211 -476 -441q356 8 680 261q205 160 205 284z" />
    <glyph glyph-name="D" unicode="D" horiz-adv-x="1559" 
d="M2069 1391q0 -7 -60 -30q-128 -49 -234 -150q19 -57 19 -113q0 -79 -37 -201q-75 -250 -272.5 -482t-432.5 -346q-93 -45 -207 -71q-71 -15 -111 -15q-47 0 -90.5 17.5t-86.5 36.5q-143 -40 -280 -40q-151 0 -208 43q-38 29 -38 58q0 59 77 92q59 25 127 25
q145 0 407 -120q327 146 693 702q76 116 163 217q96 113 245 221q-44 97 -116 136q-65 35 -178 35q-166 0 -325 -117q-276 -204 -432 -441q-69 -104 -69 -198q0 -52 39.5 -96t90.5 -44q103 0 257 118q124 94 211 203q97 121 97 224q0 82 -56 82q-101 0 -231 -151
q-31 -35 -125 -129q-35 -35 -46 -88q-2 -11 -10 -101q-1 -13 -10 -12l-4 -2q-17 0 -17 86q0 72 38 137q61 102 168 192q125 106 222 106q102 0 102 -108q0 -65 -18 -108q-61 -145 -240 -304q-194 -173 -333 -173q-204 0 -204 222q0 202 210 415q184 188 400 269
q127 48 252 48q269 0 346 -189q151 107 292 156q1 0 4 1q11 0 11 -13zM1772 1097q0 48 -13 96q-91 -94 -170 -211q-107 -165 -331 -488q-98 -131 -232 -234q-80 -62 -218 -128q-42 -20 -126 -54q76 -31 127 -31q88 0 219 47q168 59 339 228q147 144 257 325q70 116 112 256
q36 125 36 194zM525 53q-231 102 -346 102q-105 0 -105 -54q0 -26 33 -50q47 -34 174 -34q113 0 244 36z" />
    <glyph glyph-name="E" unicode="E" horiz-adv-x="1032" 
d="M1418 1368q0 -46 -39 -107q-75 -120 -268 -222q-168 -88 -332 -120q0 -23 8 -45q100 0 144 -26q4 -4 14 -9q30 -23 30 -43q0 -34 -52 -34q-108 0 -152 86q-185 -23 -397 -232q-219 -216 -219 -398q0 -91 59 -150t151 -59q104 0 186 34q155 63 271 183q130 134 153 284
q2 15 2 26q0 111 -108 111q-104 0 -190 -74q-258 -220 -258 -352q0 -31 10.5 -57t21.5 -51l-3 -9q-2 0 -4 -1q-31 0 -49 52q-13 40 -13 78q0 6 2 18q24 183 153 300q137 125 307 125q155 0 155 -126q0 -14 -3 -32q-14 -87 -39 -138q-78 -153 -247 -272q-177 -125 -340 -125
q-113 0 -205 71q-102 80 -102 245q0 178 171 354q194 198 525 219q-8 21 -10 41q-56 -16 -144 -16q-251 0 -320 149q-21 47 -21 84q0 20 6 39q31 104 170 170q120 58 242 58q173 0 241 -51q4 -4 4 -8q0 -9 -9 -11q-147 28 -198 28q-62 0 -177 -33q-255 -71 -255 -202
q0 -30 16 -65q62 -136 302 -136q72 0 140 15q0 182 137 329q131 142 314 175q42 7 122 7q97 0 97 -77zM1397 1371q0 44 -47 44q-70 0 -123 -30q-38 -20 -135 -90q-226 -163 -298 -316q-11 -24 -12 -39q192 39 360 142q255 155 255 289zM951 797q0 14 -31 31q-39 22 -121 22
q42 -67 124 -67q28 0 28 14z" />
    <glyph glyph-name="F" unicode="F" horiz-adv-x="1292" 
d="M404 -14q135 -2 273 47.5t285 149.5q97 66 167 123.5t115 108.5q42 45 86 104t95 132q1 1 1 2q24 -8 43 -23.5t19 -41.5q0 -10 -6.5 -15t-17.5 -6q-23 -2 -34.5 -17.5t-11.5 -35.5q0 -24 14 -38t34 -14q15 0 26.5 8.5t20 22t13 30t4.5 31.5q0 48 -27 77.5t-62 43.5
q38 56 75.5 110.5t75.5 111.5q139 199 348 384q5 5 5 8q0 12 -11 12q-5 0 -144 -105q-209 -157 -478 -488q-53 2 -107 -14t-105 -46t-97.5 -73.5t-84.5 -97.5q-1 -8 7 -12t18 -5q30 46 68 85.5t82.5 69.5t94 47.5t102.5 19.5q-3 -5 -6.5 -9t-6.5 -8q-118 -148 -192.5 -237
t-107.5 -122q-179 -182 -387 -255q-86 -31 -178 -31q-18 0 -54 2.5t-80.5 12t-91.5 28.5t-85.5 52.5t-62.5 84t-23 122.5q0 71 25.5 130t68 106t96 82t110 58.5t110.5 35t96 11.5q54 0 100 -15t79 -42t51.5 -65t18.5 -84q0 -78 -36 -131.5t-96 -87t-137.5 -48t-159.5 -14.5
q-25 0 -35 1t-15 1q-11 1 -15.5 -7.5t-4.5 -16.5q9 -3 27 -10.5t41.5 -15t51.5 -13.5t57 -6q87 0 152.5 31t109 79t65.5 106.5t22 113.5q0 48 -14.5 92.5t-47.5 79t-85.5 55t-128.5 20.5q-121 0 -219 -40.5t-167 -104.5t-106.5 -142t-37.5 -154q0 -79 30 -142t85 -106.5
t130.5 -67.5t167.5 -25zM2444 1409q0 -11 -9 -9q-128 -78 -279 -78q-51 0 -125 6t-174 19t-175 19.5t-126 6.5q-148 0 -267 -38q-128 -42 -273 -172q-165 -147 -165 -258q0 -53 38 -94q39 -40 91 -40q64 0 144 40q113 53 245 181q154 148 154 248q0 14 -8 41q-4 10 -6 17
q-1 4 -2 6q0 5 4 7.5t7 2.5q5 0 12 -7q28 -59 28 -101q0 -92 -110 -220q-57 -66 -108 -109q-158 -131 -349 -131q-65 0 -115 50q-49 49 -49 117q0 58 52 140q22 35 46 64.5t50 54.5q301 282 739 282q66 0 123 -4t109 -12q130 -20 208.5 -30.5t109.5 -10.5q23 0 51.5 3
t60.5 10q55 11 56 11q12 0 12 -12z" />
    <glyph glyph-name="G" unicode="G" horiz-adv-x="1329" 
d="M323 234q5 0 14.5 -1t34.5 -1q82 0 158.5 12.5t135.5 42t94.5 76t35.5 114.5q0 40 -18.5 73.5t-51 57t-77.5 36.5t-99 13q-42 0 -94.5 -9.5t-106.5 -29t-105.5 -49t-92 -70t-65 -91.5t-24.5 -113q-1 -63 24.5 -107t65.5 -74t88 -47.5t94 -26.5t83 -11.5t55 -2.5
q128 0 236 45t202 118.5t177 167.5t161 190q22 29 53 60t65.5 62t70.5 60.5t70 55.5q0 3 -5 3q-20 -12 -50 -32t-66 -43t-77 -47t-82.5 -43.5t-82 -31.5t-75.5 -12q-63 0 -97 38t-33 104q0 23 7 50.5t19 56t27 56.5t30 53q-53 4 -112 16.5t-108.5 38t-81.5 67.5t-32 107
q0 50 22 92t59 76t84.5 60t98.5 43.5t101.5 26t94.5 8.5q54 0 93 -5t66 -11.5t43.5 -13.5t26.5 -11q0 -18 -32 -24q-10 4 -26 11t-40.5 14t-58 11.5t-77.5 4.5q-37 0 -79 -9t-84 -27.5t-81 -44.5t-69.5 -59.5t-48.5 -74t-18 -86.5q0 -53 24.5 -87t64 -54t89 -29t99.5 -12
q46 65 111 127.5t140 118.5t156.5 103.5t159.5 82t149.5 53.5t127.5 19q62 -1 92 -29.5t29 -69.5q0 -62 -42 -116.5t-110.5 -100.5t-156.5 -84t-180.5 -65.5t-182.5 -45t-163 -22.5q-31 -38 -58.5 -75.5t-48.5 -71.5t-33.5 -63t-12.5 -49q-1 -37 17.5 -51.5t50.5 -14.5
q38 0 88.5 19.5t101 46.5t93 54.5t65.5 41.5q34 20 74 42t76.5 41.5t66.5 35t44 23.5q5 0 9 -8t4 -14q-54 -25 -103.5 -75.5t-94 -110.5t-85 -122t-76.5 -111q-43 -56 -101 -113.5t-127 -111t-147 -100t-160.5 -80.5t-166.5 -54t-165 -19q-104 0 -188 20.5t-143.5 58.5
t-91.5 93t-32 124q0 66 36 136.5t102.5 128.5t162 95.5t215.5 36.5q75 0 128.5 -20t87.5 -52t49.5 -72.5t15.5 -82.5q0 -48 -22 -99.5t-65 -93.5t-107.5 -68.5t-150.5 -26.5q-29 0 -56.5 5t-50.5 11.5t-41 13t-27 9.5q0 7 4.5 14.5t15.5 6.5zM1194 965q76 7 162 25t171 45.5
t162.5 64t137 80t95 93.5t36.5 106q0 9 -3 19.5t-12 19.5t-25.5 15.5t-43.5 6.5q-50 0 -108.5 -22t-120.5 -59.5t-125.5 -86.5t-122.5 -101.5t-111 -106t-92 -99.5z" />
    <glyph glyph-name="H" unicode="H" horiz-adv-x="1521" 
d="M2418 1394q0 -33 -22 -81q-77 -170 -339 -322q-190 -110 -408 -154q-570 -682 -570 -772q0 -43 64 -43q80 0 232 107t149 107q9 0 9 -11q0 -3 -58 -55q-66 -60 -165 -116q-116 -66 -182 -66q-55 0 -91.5 31.5t-36.5 86.5q0 45 37 128q32 72 66 121q120 174 373 445
q-85 -16 -256 -45q-12 -19 -59 -84q-159 -219 -261 -326q-151 -160 -328 -257q-172 -94 -334 -94q-66 0 -97 14q-41 19 -66 74q-16 36 -16 72q0 79 101 198q81 95 195 160q218 123 391 170q121 24 362 73q39 42 127 127l266 258q92 91 257 226q-44 -31 -131 -94
q-121 -91 -125 -94q-79 -55 -135 -75q-30 -11 -69 -11t-69 26.5t-30 65.5q0 35 66.5 105.5t66.5 104.5q0 42 -88 42q-115 0 -238 -60q-115 -56 -198 -146q-66 -71 -66 -135q0 -89 63 -89q85 0 197 100t112 184q0 8 -4 23.5t-4 23.5q0 9 12 9q10 0 18 -33q7 -26 7 -41
q0 -91 -107 -193t-199 -102q-120 0 -120 111q0 89 104 187q79 75 184 128q120 60 222 60q191 0 191 -111q0 -60 -63 -118t-63 -92q0 -21 37 -21q48 0 131 56q78 56 239 164q43 25 124 80q27 22 56 45q12 0 12 -13q0 -5 -68 -62q-106 -85 -307 -267q-135 -137 -278 -345
q88 15 263 49q61 68 97 106q138 148 343 313q270 217 380 217q97 0 97 -70zM2384 1376q0 53 -58 53q-29 0 -82 -28q-259 -135 -573 -536q187 39 365 143q192 111 296 254q52 72 52 114zM1080 727q-109 -19 -325 -66q-160 -43 -312 -124q-175 -93 -266 -199
q-97 -113 -97 -184q0 -55 34.5 -95t88.5 -40q70 0 123 22q124 53 323 243q69 65 292 300q2 1 139 143z" />
    <glyph glyph-name="I" unicode="I" horiz-adv-x="1262" 
d="M456 28q92 0 176 31q148 52 277 157q99 81 215 220q51 63 100 124.5t100 124.5q217 264 544 574q-60 -46 -99 -74.5t-56 -39.5q-104 -66 -172 -66q-42 0 -70.5 25t-28.5 67q0 36 65 107q66 70 66 103q0 43 -81 43q-116 0 -231 -54q-95 -44 -175 -115q-103 -91 -103 -170
q0 -91 62 -91q64 0 158 67q152 110 152 214q0 8 -4 23.5t-4 23.5q0 12 11 12q26 0 26 -76q0 -92 -107 -193q-106 -100 -198 -100q-120 0 -120 109q0 89 104 188q40 38 86 70t98 58q121 60 228 60q184 0 184 -110q0 -63 -63 -120q-63 -56 -63 -93q0 -19 43 -19q49 0 241 138
q23 14 56.5 36.5t78.5 52.5q22 17 44 33l44 32q66 48 89 48q2 0 5 -1l4 -8q-1 -7 -20 -18q-83 -48 -156 -120q-161 -161 -339 -399q-69 -97 -138 -192t-139 -192q-81 -102 -166.5 -183t-176.5 -144q-286 -196 -565 -196q-104 0 -185.5 20.5t-138 59t-85.5 93.5t-29 124
q0 66 36 136.5t102.5 128.5t162 95.5t215.5 36.5q75 0 128.5 -20t87.5 -52t49.5 -72.5t15.5 -82.5q0 -48 -22 -99.5t-65 -93.5t-107.5 -68.5t-150.5 -26.5q-29 0 -56.5 5t-50.5 11.5t-41 13t-27 9.5q0 7 4.5 14.5t15.5 6.5q5 0 14.5 -1t34.5 -1q82 0 158.5 12.5t135.5 42
t94.5 76t35.5 114.5q0 40 -18.5 73.5t-51 57t-77.5 36.5t-99 13q-42 0 -94.5 -9.5t-106.5 -29t-105.5 -49t-92 -70t-65 -91.5t-24.5 -113q-1 -63 25.5 -107t67 -73.5t90.5 -47t96.5 -26t85 -11t55.5 -2.5z" />
    <glyph glyph-name="J" unicode="J" horiz-adv-x="1339" 
d="M1433 643q-94 -114 -226 -263q-153 -176 -250 -247q308 36 489 201l12 5l8 -8q-1 -8 -8 -15q-192 -182 -527 -205q-154 -177 -359 -295q-250 -146 -459 -126q-221 20 -209 144q10 107 207 176q142 49 402 84q166 19 330 38q186 191 456 532q242 285 569 595
q-120 -92 -155 -114q-104 -66 -172 -66q-41 0 -70 25.5t-29 66.5q0 37 65.5 107t65.5 103q0 43 -81 43q-115 0 -231 -54q-94 -43 -175 -115q-103 -92 -103 -170q0 -91 62 -91q64 0 158 67q152 110 152 214q0 8 -4 23.5t-4 23.5q0 12 11 12q26 0 26 -76q0 -92 -107 -192.5
t-198 -100.5q-120 0 -120 109q0 89 104 188q80 76 184 128q121 60 228 60q184 0 184 -110q0 -63 -63 -119.5t-63 -93.5q0 -19 43 -19q49 0 241 138q46 29 135 89q44 33 88 65q66 48 89 48q1 0 5 -1l4 -8q-2 -8 -20 -18q-82 -48 -156 -120q-161 -160 -339 -399
q-138 -192 -190 -259zM822 102q-348 -34 -511 -66q-368 -76 -381 -209q-9 -98 187 -116q185 -18 397 124q124 83 308 267z" />
    <glyph glyph-name="K" unicode="K" horiz-adv-x="1844" 
d="M2836 1343q0 -69 -70 -69q-69 0 -69 69q0 66 66 69q-23 26 -85 26q-16 0 -28.5 -0.5t-22.5 -1.5q-105 -7 -229 -106q-98 -79 -177 -187q-117 -160 -201 -238q-121 -112 -267 -154q34 -55 34 -124q0 -113 -128 -262q-201 -236 -201 -300q0 -54 53 -54q67 0 198 113
q132 114 135 114q4 0 9 -3l3 -9l-153 -136q-45 -41 -117 -79q-44 -23 -85 -23q-54 0 -88 49q-31 43 -31 98q0 82 92 207q43 52 85 103t85 103q92 113 92 163q0 16 -8 34q-38 -9 -73 -9q-79 0 -79 54q0 38 55 38q50 0 109 -60q80 20 191 150q38 51 77 101t78 101
q28 37 57.5 69t60.5 60q139 127 285 178q93 34 174 34q173 0 173 -118zM1718 762q-44 50 -87 50q-30 0 -30 -32q0 -22 58 -22q16 0 30.5 1t28.5 3zM438 -5q-79 4 -150.5 28t-125.5 67t-85.5 105t-31.5 142q0 76 39.5 155.5t110.5 144t170.5 105.5t221.5 40q76 0 127 -21.5
t82 -56.5t43.5 -79.5t11.5 -90.5q-1 -56 -22.5 -115t-65 -107.5t-109 -79.5t-152.5 -31q-29 0 -57 6t-51 13.5t-41 15t-28 11.5q0 8 4.5 16.5t15.5 7.5q6 0 15 -1.5t35 -1.5q83 0 160.5 14.5t137 48.5t95.5 88t36 132q0 46 -18.5 84.5t-52 66t-79.5 42.5t-100 15
q-43 0 -95.5 -11t-107.5 -33.5t-107 -57t-92.5 -81t-65.5 -105.5t-25 -130q-1 -73 22 -124t58.5 -86t79.5 -55.5t86 -31t76.5 -13.5t52.5 -3q92 0 176 31q148 52 277 157q99 81 215 220q51 63 100 124.5t100 124.5q217 264 544 574q-60 -46 -99 -74.5t-56 -39.5
q-104 -66 -172 -66q-42 0 -70.5 25t-28.5 67q0 36 65 107q66 70 66 103q0 43 -81 43q-116 0 -231 -54q-95 -44 -175 -115q-103 -91 -103 -170q0 -91 62 -91q64 0 158 67q152 110 152 214q0 8 -4 23.5t-4 23.5q0 12 11 12q26 0 26 -76q0 -92 -107 -193q-106 -100 -198 -100
q-120 0 -120 109q0 89 104 188q40 38 86 70t98 58q121 60 228 60q184 0 184 -110q0 -63 -63 -120q-63 -56 -63 -93q0 -19 43 -19q49 0 241 138q23 14 56.5 36.5t78.5 52.5q22 17 44 33l44 32q66 48 89 48q2 0 5 -1l4 -8q-1 -7 -20 -18q-83 -48 -156 -120
q-161 -161 -339 -399q-70 -97 -139 -192t-138 -192q-81 -102 -166.5 -183t-176.5 -144q-144 -99 -284.5 -151t-280.5 -45z" />
    <glyph glyph-name="L" unicode="L" horiz-adv-x="1535" 
d="M1535 205q-39 -48 -75 -84.5t-73 -62.5q-34 -25 -69.5 -41.5t-74.5 -26.5t-83 -14.5t-96 -4.5q-63 0 -145 19t-173 45q-48 -13 -116.5 -23t-142.5 -14.5t-147 -2.5t-130.5 14.5t-93.5 35.5t-36 60q0 15 10 32.5t31 32.5t54.5 25t80.5 10q41 0 100.5 -9.5t129.5 -24.5
t146.5 -33t151.5 -35q64 35 117.5 76t103.5 92t100 114.5t108 143.5q43 60 86.5 118.5t87.5 115.5q-37 -5 -72.5 -8t-70.5 -3q-110 0 -210 26t-176.5 74t-122 115.5t-45.5 151.5q0 64 24.5 119.5t66.5 101t98 81t119 59.5t129 36.5t129 12.5q69 0 125 -10t98 -21
q48 -14 86 -31q0 -6 -4 -11t-12 -5q-38 16 -83 29q-38 11 -88.5 20.5t-107.5 9.5q-52 0 -108.5 -9.5t-111.5 -29t-104.5 -50t-87 -72.5t-59.5 -95.5t-22 -119.5q0 -86 30.5 -147.5t81 -103.5t116.5 -65.5t137.5 -33t143 -7t133.5 13.5q60 80 111 152t92 129q68 90 143.5 173
t155.5 146t162.5 100.5t163.5 37.5q33 0 54.5 -7.5t34 -20.5t17 -29t4.5 -32q-1 -64 -36.5 -132t-96 -134t-141 -127.5t-170 -112t-183 -87.5t-180.5 -53q-33 -57 -66 -112t-63 -104t-56.5 -90t-47.5 -69q-48 -66 -99 -116.5t-106 -90.5t-115 -71.5t-126 -57.5q0 -3 4 -3
q10 -1 25.5 -3.5t33 -5.5t35 -6.5t29.5 -4.5q35 -5 64.5 -7.5t44.5 -2.5q70 0 125 6t102.5 23t90.5 48.5t89 82.5zM1559 818q44 11 100.5 33t119.5 52t128.5 68t127 81t115.5 90t93.5 95.5t61.5 98t20 97.5q-1 24 -12 36.5t-26 18t-30.5 6.5t-26.5 1q-71 0 -147 -42.5
t-150 -112.5t-141.5 -160t-122.5 -184q-23 -37 -53.5 -85t-56.5 -93zM678 57q0 1 -1 2h-1q-9 7 -38.5 19t-72.5 25.5t-94 27t-103 23t-100 14t-85 1t-57.5 -17.5t-17.5 -41q2 -16 19 -29t42.5 -23.5t57 -18.5t62.5 -13t58.5 -7.5t45.5 -2.5q43 0 85.5 2.5t85.5 10.5
q38 6 69.5 15t44.5 13z" />
    <glyph glyph-name="M" unicode="M" horiz-adv-x="2027" 
d="M434 28q34 0 59.5 2.5t47.5 8.5t43 15t46 21q38 19 81.5 48t94.5 68q229 177 550 525q60 64 108 114t86 87q122 119 430 361q91 71 245 158q25 15 32 15q18 0 18 -19q0 -9 -7.5 -18.5t-29.5 -29.5q-26 -24 -62 -60.5t-81 -86.5q-88 -96 -186 -213t-209 -259
q-145 -186 -248.5 -329t-167.5 -248q-64 -106 -64 -123q0 -14 12 -14q23 0 86 65q37 38 81.5 88t96.5 113q76 92 119 143.5t53 63.5q94 109 203 220.5t237 229.5q290 270 486 392q106 66 113 66q18 0 18 -16q0 -4 -5 -9q-49 -51 -120.5 -127t-166.5 -180
q-133 -159 -239.5 -296.5t-188.5 -255.5q-45 -63 -106.5 -156t-142.5 -220q-40 -71 -40 -103q0 -31 29 -31q13 0 46 18q16 7 51 27q48 31 129 109q16 16 49 46l7 4q12 -2 12 -12q0 -6 -68 -69q-175 -163 -281 -163q-88 0 -88 90q0 44 14 84q68 196 441 605q57 63 113.5 126
t113.5 126q67 73 126 133t112 109q18 14 43 37t57 55q-474 -321 -937 -853q-48 -60 -120.5 -147t-170.5 -205q-34 -40 -52 -60.5t-20 -22.5q-48 -50 -88 -61q-22 -5 -50 -5q-46 0 -55 22q-20 48 -20 76q0 82 160 297q86 116 171 220.5t171 200.5q66 73 202 208t345 336
q-132 -87 -288.5 -217.5t-339.5 -309.5q-106 -110 -210 -219t-209 -219q-255 -255 -476 -360q-114 -55 -252 -55q-65 6 -129 30t-115 65t-82 100t-31 134q0 72 34 146.5t97 135t153 99t203 37.5q71 0 121.5 -19.5t82 -51.5t46 -74t14.5 -88q0 -53 -20.5 -108.5t-61 -101
t-101.5 -74.5t-142 -29q-27 0 -53 5.5t-48 12.5t-38.5 14t-25.5 10q0 8 4.5 16t14.5 7q5 0 14 -1t32 -1q77 0 149 14t127.5 45.5t89.5 82t34 124.5q0 44 -17.5 80.5t-48 62t-73 39.5t-93.5 14q-40 0 -89.5 -10t-100.5 -31.5t-99.5 -54t-86 -76t-61 -99.5t-23.5 -123
q-1 -68 22 -116.5t59 -81t80.5 -51.5t86 -29t75.5 -12.5t51 -2.5z" />
    <glyph glyph-name="N" unicode="N" horiz-adv-x="1734" 
d="M336 226q8 -2 23 -3.5t30.5 -2t29.5 -1t20 -0.5q85 0 159 16t129.5 47.5t87.5 78t32 108.5q0 52 -20.5 89.5t-55 61.5t-81.5 35t-99 11q-57 0 -116.5 -12t-115.5 -35t-105.5 -56t-87 -75.5t-59 -93t-21.5 -108.5q0 -61 21.5 -105.5t57.5 -75.5t82 -51t94 -31t94.5 -15
t84.5 -4q106 0 234 54.5t257 162.5q73 61 141 136.5t134 159t132 172.5t134.5 178.5t140.5 176.5t152 167q28 29 64 59.5t74.5 59t76.5 53.5t69 43q6 0 9 -11.5t3 -17.5q-17 -11 -35 -28q-16 -14 -35 -37t-37 -55q-56 -96 -107.5 -216t-105 -246t-113.5 -248t-133 -220
q-11 -15 -29.5 -40t-41 -54.5t-47.5 -60t-48 -56.5q0 -4 5 -4q32 25 65 54.5t63 58t55.5 55t42.5 45.5q83 94 167 210t171.5 235.5t178 233t187 201.5t198.5 141.5t212 53.5q13 0 32.5 -4t36.5 -16t29.5 -33.5t12.5 -56.5q0 -17 -5.5 -33.5t-15.5 -29.5t-24 -21t-30 -8
q-18 0 -36 13.5t-18 39.5q0 19 10 32.5t22.5 24t22.5 19t10 18.5q0 12 -14 18.5t-35 6.5q-78 0 -155.5 -34t-153 -92.5t-149 -136.5t-143.5 -165t-136.5 -178.5t-128.5 -177.5t-119.5 -161t-108.5 -130q-67 -71 -163.5 -160t-226.5 -182q-8 0 -13 8.5t-5 16.5
q17 15 44.5 44.5t52.5 74.5q36 63 75 142t80.5 166t85 178.5t87 178.5t87 166t85.5 142q16 24 37 52.5t42.5 57.5t42.5 56t39 49q0 5 -4 5q-18 -13 -40 -32t-44.5 -39.5t-44 -41.5t-37.5 -39q-118 -127 -226.5 -272.5t-222.5 -296.5q-89 -118 -176 -219t-187 -183
q-123 -101 -253.5 -157.5t-275.5 -56.5q-42 0 -91.5 6t-99.5 20t-96.5 37t-82 58t-57 83t-21.5 111q0 62 22.5 116.5t61.5 100t91.5 82t111.5 62t122 39t124 13.5q77 0 132 -19.5t90.5 -52.5t52.5 -75t17 -87q0 -72 -29.5 -128.5t-79 -96.5t-113.5 -61t-134 -21q-24 0 -48 3
t-46.5 8t-41.5 11t-32 12q-6 5 -10 15t-4 17z" />
    <glyph glyph-name="O" unicode="O" horiz-adv-x="1152" 
d="M1634 1237q0 -63 -46 -103t-110 -40q-72 0 -125 84q-6 10 -6 14q0 5 11 11q13 -14 27 -28q23 -24 60 -24q46 0 78 39.5t32 86.5q0 127 -217 127q-154 0 -393 -148q-209 -129 -399 -327q-193 -201 -307 -413q-101 -188 -101 -331q0 -181 206 -181q165 0 400 174
q220 163 382 387q171 236 171 401q0 52 -32 89t-82 37q-171 0 -380 -236q-45 -46 -131 -140q-105 -123 -147 -186q-79 -123 -79 -218q0 -35 12 -63q6 -4 6 -10q0 -11 -11 -12l-6 3q-34 50 -34 129q0 153 120 314q66 87 109 135q112 123 242 210q166 111 292 111
q142 0 142 -161q0 -103 -68 -240q-146 -296 -485 -562q-144 -113 -281 -157q-76 -24 -161 -24q-96 0 -167.5 60t-84.5 153q-5 32 -5 72q0 212 151 451q76 121 133 182q69 74 201 186q407 344 795 344q115 0 191 -40q97 -51 97 -156z" />
    <glyph glyph-name="P" unicode="P" horiz-adv-x="1469" 
d="M2328 1464q0 -14 -22 -19q-85 -17 -117 -27q-58 -16 -112 -46q129 -91 129 -265q0 -109 -77 -205q-73 -91 -179 -131q-40 -15 -74 -15q-76 0 -121 42.5t-45 118.5q0 89 96.5 190t184.5 101q66 0 66 -16q0 -8 -9 -8q-5 0 -14.5 1.5t-14.5 1.5q-93 0 -187 -109
q-90 -105 -90 -200q0 -90 99 -90q56 0 143 95q67 75 107 148q46 85 46 167q0 93 -80 163q-237 -137 -461 -455q-46 -59 -135 -179q-71 -104 -227 -302q-113 -127 -265 -230q-289 -197 -561 -197q-157 0 -260 82q-114 88 -114 240q0 193 181 339q170 137 368 137
q256 0 256 -240q0 -137 -126 -236q-117 -91 -258 -91q-116 0 -166 64q-1 2 -3 8q0 13 12 13q81 -50 136 -50q97 0 198 66q95 62 145 151q33 56 33 106q0 94 -70 144q-62 43 -159 43q-117 0 -239 -61t-197 -154q-85 -106 -85 -237q0 -99 71 -181q95 -110 290 -110
q329 0 665 393q63 73 200 244q87 109 193 237q234 279 552 473q-121 67 -335 67q-94 0 -164 -12q-174 -29 -343 -126q-186 -105 -270 -241q-58 -95 -58 -160q0 -129 121 -129q116 0 270 109q129 91 217 205q64 82 64 148q0 34 -18 68.5t-18 30.5q0 12 10 12q3 0 8 -4
q30 -31 36 -47t6 -63q0 -169 -193 -329q-185 -154 -358 -154q-167 0 -167 153q0 71 61 171q107 174 350 287q226 105 446 105q218 0 355 -81q170 97 259 97q18 0 18 -21z" />
    <glyph glyph-name="Q" unicode="Q" horiz-adv-x="1318" 
d="M1634 1237q0 -32 -12.5 -58t-34 -45t-50 -29.5t-59.5 -10.5q-73 0 -125 84q-6 10 -6 14q0 5 11 11q11 -11 20 -20.5t18.5 -16.5t21 -11t27.5 -4q24 0 44 11.5t35 29.5t23 40.5t8 44.5q0 127 -217 127q-155 0 -393 -148q-209 -129 -399 -327q-192 -199 -307 -413
q-101 -188 -101 -331q0 -181 206 -181q164 0 400 174q219 163 382 387q171 235 171 401q0 25 -8.5 48t-23.5 40.5t-36 27.5t-46 10q-171 0 -380 -236q-4 -4 -22 -23t-40 -42.5t-42 -44.5t-27 -30q-54 -61 -89.5 -108t-57.5 -78q-41 -61 -60 -116t-19 -102q0 -35 12 -63
q6 -5 6 -10q0 -10 -11 -12l-6 3q-34 49 -34 129q0 153 120 314q33 44 60 77.5t49 57.5q57 62 116.5 114t125.5 96q166 111 292 111q142 0 142 -161q0 -102 -68 -240q-146 -296 -485 -562q-146 -114 -281 -157q-77 -24 -161 -24q-60 0 -107.5 21.5t-80.5 59.5t-51 90t-18 114
q0 213 151 451q76 120 133 182q69 73 201 186q407 344 795 344q66 0 119 -13t90.5 -38.5t58 -62t20.5 -82.5zM807 133q9 -18 26 -38t39 -36t47 -26.5t50 -10.5q80 0 156.5 48t167.5 143h13l9 -16l-11 -10q-59 -60 -109.5 -102.5t-98.5 -68.5t-97.5 -38t-104.5 -12
q-30 0 -51 7t-37 20.5t-28.5 33t-25.5 44.5q-9 19 -19.5 51.5t-24.5 63.5t-32 53.5t-42 22.5q-22 0 -48 -10.5t-51.5 -26.5t-49 -35t-39.5 -35l-11 19q27 27 56.5 50.5t59.5 41.5t58.5 28.5t51.5 10.5q29 0 51 -17t38.5 -43t30 -56t26.5 -56z" />
    <glyph glyph-name="R" unicode="R" horiz-adv-x="1843" 
d="M317 232q6 0 16.5 -1t36.5 -1q87 0 168.5 14t143.5 45.5t99.5 82t37.5 122.5q0 44 -19.5 79t-54.5 59.5t-83.5 37.5t-105.5 13q-45 0 -101 -10.5t-113.5 -31.5t-112 -52.5t-97 -74.5t-68.5 -97t-26 -120q0 -67 27.5 -114t70 -78.5t94 -50t100.5 -28t88.5 -12t58.5 -2.5
q136 0 240 35.5t190.5 99.5t163 151t158.5 191q55 70 105 140.5t96.5 136.5t89 124t81.5 105q37 45 83.5 93t99.5 94t111 87t118 71q-60 38 -150 56.5t-196 18.5q-139 0 -251.5 -28t-201.5 -73t-154 -103t-107.5 -117.5t-63 -116.5t-20.5 -100q0 -31 8.5 -58t24 -47
t39 -31.5t53.5 -11.5q36 0 81 17t92.5 47.5t95.5 73.5t91 94t78.5 109.5t57.5 120.5q8 0 11.5 -9t3.5 -17q-14 -81 -46 -147t-75 -117.5t-93.5 -89.5t-100 -63t-94.5 -37t-78 -12q-90 0 -132.5 47t-42.5 127q0 57 26 122t75 129t120.5 122.5t163 103.5t201.5 71.5t236 26.5
q105 0 207 -21.5t180 -69.5q42 17 77.5 27t58.5 12q4 -4 4 -10q0 -14 -11 -22.5t-22 -10.5q-17 -3 -35.5 -6.5t-39.5 -10.5q61 -43 97.5 -106.5t36.5 -148.5q0 -68 -33.5 -139t-93 -131t-139.5 -101t-173 -48q-4 0 -4 -4q34 -18 52.5 -52.5t18.5 -72.5q0 -65 -44.5 -135
t-117.5 -160q-39 -48 -66.5 -81t-45 -55.5t-25.5 -37.5t-8 -26q0 -14 11.5 -20t22.5 -6q30 0 59 11.5t59.5 34.5t64.5 56t74 77h37q-44 -49 -82 -88t-74 -66.5t-71 -42t-74 -14.5q-35 0 -58 13t-37 31.5t-19.5 38.5t-5.5 33q0 35 24 77.5t60 87.5t77.5 91t77.5 89t60 79.5
t24 63.5q0 24 -9 39.5t-25 24t-38.5 11.5t-49.5 3q0 5 2 14.5t7 9.5q14 -2 35.5 -3.5t41.5 -1.5q38 0 81.5 24t86.5 63.5t82 91t69 106.5t48 109.5t18 100.5q0 44 -20 81t-57 63q-56 -21 -111 -63t-106 -96.5t-96.5 -117.5t-82.5 -124q-40 -65 -77 -131t-73.5 -131
t-73.5 -126t-76 -115q-66 -92 -159.5 -171.5t-205.5 -138t-238.5 -92.5t-256.5 -34q-110 0 -199.5 21t-153 61.5t-98 98t-34.5 131.5q0 71 37.5 146.5t108.5 137.5t172 102t229 40q81 0 138 -21t93 -54.5t52.5 -76.5t16.5 -87q0 -52 -22.5 -106.5t-67.5 -99.5t-113.5 -74
t-160.5 -29q-31 0 -60.5 5t-54.5 11.5t-44 13.5t-28 11q0 6 5 13.5t16 7.5z" />
    <glyph glyph-name="S" unicode="S" horiz-adv-x="1322" 
d="M319 229q7 0 17 -1t37 -1q88 0 169.5 14t144.5 45t100.5 80.5t37.5 120.5q0 43 -20 77.5t-55 59t-83.5 37.5t-106.5 13q-45 0 -101.5 -10t-114 -31t-112.5 -52.5t-98 -73.5t-69 -95.5t-26 -118.5q0 -66 27.5 -112.5t70 -78t94.5 -49.5t101 -27.5t89 -12t59 -2.5
q138 0 244 34.5t193.5 96.5t164 149t155.5 191q53 71 102.5 139t94.5 134q-28 -2 -56 -3t-57 -1q-127 0 -227.5 24.5t-170 67t-106.5 101t-37 126.5q0 67 43.5 131.5t115.5 114.5t164 81t190 31q81 0 145 -9.5t109 -20.5q53 -13 93 -29q0 -7 -12.5 -16.5t-26.5 -9.5
q-33 13 -71 24t-78.5 18.5t-82 11.5t-81.5 4q-99 0 -177 -30.5t-132 -79.5t-82.5 -110.5t-28.5 -122.5q0 -54 23.5 -104t77.5 -88.5t141.5 -61.5t216.5 -23q28 0 62 1.5t69 6.5q44 61 81.5 114t72.5 97q68 85 144.5 162.5t157 136.5t163.5 94t165 35q34 0 55.5 -7.5t34 -19
t17.5 -26.5t5 -30q0 -21 -6.5 -46t-25.5 -57t-53.5 -71t-90.5 -88q-45 -38 -105 -82.5t-135.5 -87.5t-166.5 -79t-198 -58q-53 -100 -104 -194t-108 -172q-66 -90 -158 -168.5t-204.5 -136.5t-241.5 -91.5t-268 -33.5q-111 0 -201.5 21t-154 60.5t-98.5 96.5t-35 130
q0 70 38 144t109 135.5t173 101t231 39.5q81 0 138.5 -20.5t93.5 -53.5t53 -75.5t17 -86.5q0 -51 -22.5 -105t-68 -98.5t-114.5 -73t-161 -28.5q-32 0 -61.5 5t-55 11.5t-44.5 13.5t-28 11q0 6 5 13.5t16 7.5zM1593 812q57 8 130.5 36t150 69.5t149.5 93.5t130.5 107.5
t92.5 111.5t35 106q0 31 -17 45.5t-39 14.5q-57 0 -116.5 -25.5t-119 -68.5t-116.5 -101t-108.5 -123t-95 -133.5t-76.5 -132.5z" />
    <glyph glyph-name="T" unicode="T" horiz-adv-x="1292" 
d="M2444 1409q0 -11 -9 -9q-128 -78 -279 -78q-51 0 -125 6t-174 19t-175 19.5t-126 6.5q-150 0 -267 -38q-127 -42 -273 -172q-165 -147 -165 -258q0 -53 38 -94q39 -40 91 -40q63 0 144 40q111 52 245 181q154 148 154 248q0 15 -8 41t-8 23q0 5 4 7.5t7 2.5q5 0 12 -7
q28 -60 28 -101q0 -93 -110 -220q-58 -67 -108 -109q-158 -131 -349 -131q-65 0 -115 50q-49 50 -49 117q0 57 52 140q22 35 46 64.5t50 54.5q301 282 739 282q65 0 122.5 -4t109.5 -12q129 -20 208 -30.5t110 -10.5q23 0 51.5 3t60.5 10q53 11 56 11q12 0 12 -12zM404 -14
q134 -2 273 48t285 149q192 131 282 232q41 45 85.5 104t95.5 132q42 62 83.5 123t83.5 123q139 199 348 384q5 5 5 8q0 12 -11 12q-5 0 -144 -105q-222 -165 -513 -531q-118 -147 -192.5 -236.5t-107.5 -122.5q-179 -182 -387 -255q-87 -31 -178 -31q-18 0 -54.5 2.5
t-80.5 12t-91 28.5t-85 52.5t-62.5 84t-23.5 122.5q0 71 26 130t68 106t95.5 82.5t110 58.5t110.5 34.5t96 11.5q54 0 100 -15t79 -42t51.5 -65t18.5 -84q0 -78 -36 -131.5t-96 -87t-137 -48t-160 -14.5q-25 0 -35 1t-15 1q-11 1 -15.5 -7.5t-4.5 -16.5q9 -3 27 -10.5
t41.5 -15t51.5 -13.5t57 -6q87 0 152.5 30.5t109 79t65.5 107t22 113.5q0 48 -14.5 92.5t-47.5 79t-85.5 55t-128.5 20.5q-81 0 -151.5 -18.5t-129.5 -50.5t-105 -75.5t-78 -92.5t-49 -101.5t-17 -102.5q0 -80 30 -142.5t85 -106t131 -67.5t167 -25z" />
    <glyph glyph-name="U" unicode="U" horiz-adv-x="1130" 
d="M1835 1380q0 -133 -199 -337q-121 -123 -292 -266q-201 -168 -315 -227q-328 -432 -328 -509q0 -26 39 -26q75 0 173 58q63 38 149 109q70 58 76 58q10 0 10 -13q-25 -43 -143 -123q-106 -72 -167 -96.5t-82 -24.5q-50 0 -90 29q-43 32 -43 80q0 86 148 282
q-110 -105 -312 -271q-132 -109 -258 -109q-140 0 -140 144q0 51 19 91q59 130 256 331q10 10 312 297q147 140 237 251q69 85 69 190q0 63 -53 96q-45 28 -111 28q-167 0 -374 -163q-215 -171 -215 -330q0 -111 94 -111q76 0 216 122q120 106 175 192q33 50 33 98
q0 31 -8 50q-1 2 -8.5 12t-7.5 12q0 11 13 11q32 0 32 -95q0 -136 -115 -258q-102 -108 -242 -159q-38 -13 -66 -13q-62 0 -99.5 40t-37.5 102q0 170 223 344q212 166 387 166q102 0 159.5 -60t57.5 -162q0 -198 -262 -444l-203 -191q-197 -185 -249 -241
q-174 -186 -174 -270q0 -60 82 -60q112 0 249 111q166 134 286 247q35 29 95 84q36 50 106 142q357 458 688 771q88 82 153 82q57 0 57 -71zM1811 1382q0 39 -30 39q-39 0 -120 -78q-72 -69 -160 -181l-148 -190q-82 -109 -248 -324q-15 -18 -44 -55q11 7 24 15
q355 250 611 581q115 149 115 193z" />
    <glyph glyph-name="V" unicode="V" horiz-adv-x="965" 
d="M699 751l-50 -60l-50 -60q-57 -69 -102 -122.5t-82.5 -97t-69 -80.5t-61.5 -75q-26 -32 -42 -57t-25.5 -44.5t-13 -34.5t-3.5 -27q0 -8 3 -19t11.5 -21t23.5 -16.5t39 -6.5q28 0 73 15t102.5 46t125 78.5t141.5 112.5q76 67 156 151t166 188.5t178.5 230.5t193.5 276
q-14 11 -20 24.5t-6 30.5q0 18 5.5 39t14 42t19 41t19.5 36q13 21 28 40.5t30.5 34t30 23t28.5 8.5q33 0 33 -34q0 -31 -26 -87.5t-74 -134.5q-12 -17 -17 -26t-5 -14t10 -5q31 0 65.5 16t69.5 47.5t69.5 77.5t64.5 107q8 13 19 15t24 2q-55 -108 -106.5 -167t-97 -87.5
t-82.5 -34t-64 -5.5q-105 -162 -203 -295t-188.5 -240.5t-172 -190.5t-153.5 -145q-85 -73 -157 -120.5t-129.5 -75.5t-100.5 -39.5t-70 -11.5q-72 0 -104 41t-32 106q0 33 13.5 72.5t35 81.5t49 83.5t55.5 79.5q13 16 44.5 54.5t73 88t87 104t85.5 102.5q168 201 243 322
q57 94 43 198q-8 62 -65 88q-49 22 -114 13q-165 -22 -349 -211q-191 -197 -170 -355q15 -110 108 -98q75 10 198 150q105 121 148 213q26 54 20 102q-4 30 -15 48q-1 2 -9.5 11t-9.5 11q-1 11 12 12q32 5 44 -90q18 -134 -80 -271q-87 -120 -219 -189q-36 -18 -64 -22
q-61 -8 -103.5 27t-50.5 96q-22 169 176 371q188 192 361 215q102 13 166.5 -38.5t78.5 -152.5q26 -197 -228 -511z" />
    <glyph glyph-name="W" unicode="W" horiz-adv-x="1440" 
d="M1114 802q53 40 114.5 91.5t122.5 108t117.5 115t99.5 112t69 100t26 79.5q0 11 -5.5 18.5t-19.5 7.5q-6 0 -20.5 -4.5t-35.5 -18.5t-48 -39t-60 -66q-21 -27 -49.5 -65t-60.5 -82.5t-66.5 -93t-68 -95t-63.5 -89t-54 -75.5q0 -4 2 -4zM650 767q-9 -11 -23 -30
t-29.5 -40.5t-29.5 -41t-22 -29.5q-57 -71 -101 -125.5t-81 -99.5t-68 -83.5t-61 -77.5q-25 -33 -41 -58t-25 -45.5t-12.5 -36t-3.5 -28.5q0 -8 3 -19t11.5 -21t23 -17t38.5 -7q37 0 79.5 22.5t88 60.5t92.5 88t94 106t93 113t89 110q21 30 41 60t43 63t50 69.5t60 78.5
q48 61 105.5 132.5t117.5 143t119 136.5t110 113q50 48 86 79t61.5 49.5t43.5 25.5t33 7q20 0 34 -7t22.5 -17.5t12 -23.5t3.5 -26q0 -38 -28.5 -88t-76.5 -107t-112.5 -118t-136 -121.5t-147 -118.5t-145.5 -109q-38 -55 -76.5 -111.5t-75 -112.5t-71.5 -110t-66 -102
q-30 -46 -50.5 -79.5t-33.5 -59t-18.5 -45t-5.5 -37.5q0 -8 2 -19t9 -21t21 -17t38 -7q27 0 71.5 15.5t101 47.5t123 80.5t139.5 115.5q75 69 153.5 155.5t163 194t176 236.5t190.5 284q-14 9 -19.5 24t-5.5 32q0 19 5 40.5t13.5 43.5t18.5 42t20 37q13 22 28 42t30 35
t29.5 23.5t28.5 8.5q31 0 31 -35q0 -32 -25.5 -90t-73.5 -138q-11 -18 -15.5 -27t-4.5 -15q0 -4 10 -4q30 0 64 16.5t68.5 48.5t68.5 79.5t64 110.5q6 13 17.5 15t24.5 2q-37 -76 -72.5 -127.5t-68.5 -85t-63.5 -51.5t-56.5 -26.5t-47.5 -10t-36.5 -1.5q-103 -167 -200 -304
t-186 -247t-169.5 -195.5t-150.5 -149.5q-83 -75 -153.5 -124t-127.5 -78t-99.5 -40.5t-69.5 -11.5q-72 0 -103.5 42.5t-31.5 108.5q0 21 3 43.5t11.5 47t22 53t34.5 63.5q0 5 -2 5q-27 -34 -60 -74.5t-69.5 -81t-76 -78t-79.5 -66t-79 -46t-75 -17.5q-71 0 -103 42.5
t-32 108.5q0 34 13.5 74.5t35 83.5t48.5 86t54 82q11 15 37 48t61 76.5t74.5 93t77.5 96.5q194 264 263 388q52 97 33 200q-11 62 -70 85q-50 19 -114 7q-164 -30 -338 -228q-181 -207 -152 -364q21 -109 113 -92q75 14 190 160q99 126 137 220q24 55 15 103q-5 30 -17 47
q-1 2 -10 10.5t-10 10.5q-2 11 11 13q32 6 48 -88q25 -133 -66 -275q-80 -124 -209 -200q-35 -19 -62 -25q-61 -11 -105 22t-56 93q-30 168 157 380q178 201 350 233q101 18 168 -30t86 -148q36 -196 -201 -522z" />
    <glyph glyph-name="X" unicode="X" horiz-adv-x="1475" 
d="M2336 1281q0 -75 -53 -169q-46 -82 -112 -140q-29 -25 -64 -45.5t-77 -36.5q-39 -16 -73 -16q-54 0 -88 28q-38 32 -38 83q0 86 103 189q104 104 189 104q19 0 52 -10q41 -11 41 -22q0 -12 -12 -12q1 0 -20 9t-37 9q-62 0 -178 -104q-115 -103 -115 -166q0 -86 104 -86
q29 0 71 17q37 16 68.5 35t57.5 41q160 139 160 297q0 140 -183 140q-109 0 -230 -90q-60 -45 -114 -90.5t-103 -93.5q-27 -27 -169 -202q-60 -73 -178 -226q25 1 93 6q29 2 52.5 3t40.5 1t17 -26q0 -19 -24 -19t-74 1t-128 3q-51 -67 -96.5 -134.5t-85.5 -137.5
q-111 -195 -111 -293q0 -100 104 -100q99 0 218 95q30 26 60.5 53t61.5 55q12 -1 13 -14q-15 -28 -123 -115q-131 -104 -253 -104q-66 0 -108 50q-39 46 -39 113q0 101 75 251q-241 -241 -530 -371q-101 -46 -190 -46q-118 0 -191 63q-77 66 -77 180q0 180 151 337
q152 158 330 158q36 0 65.5 -11.5t50 -33t32 -51t11.5 -65.5q0 -118 -117 -233q-116 -115 -234 -115q-58 0 -97 45q-6 6 -6 11t4 9q1 1 5 1q1 0 30 -24q29 -23 59 -23q36 0 85 31q233 149 233 311q0 128 -130 128q-162 0 -308 -158q-142 -154 -142 -317q0 -102 67 -160
q64 -56 166 -56q138 0 275 92q320 217 601 582h-43t-48 -1h-91q-13 0 -13 18q0 23 21 23q38 0 98 -3q40 -2 64.5 -3t33.5 -2q7 7 33 43q29 42 65 96t78 121q94 148 94 268q0 173 -177 173q-101 0 -223 -73q-103 -61 -188 -147q-104 -107 -104 -220q0 -86 97 -86q36 0 76 22
q49 27 111 72q29 21 58 51t58 69q67 89 67 148q0 14 -9 35q-8 22 -8 28t11 6q12 0 23 -35q8 -30 8 -46q0 -127 -129 -251q-127 -124 -255 -124q-129 0 -129 111q0 122 107 232q227 230 429 230q95 0 157 -48q67 -52 67 -147q0 -118 -69 -265q154 175 313 295
q220 165 381 165q198 0 198 -170z" />
    <glyph glyph-name="Y" unicode="Y" horiz-adv-x="1038" 
d="M1866 1412q0 -54 -38 -92q-23 -23 -84.5 -57.5t-84.5 -56.5q-131 -128 -289 -328q-105 -133 -264 -327q-101 -124 -357 -485q112 29 209 108q75 61 86 61q12 0 12 -12q0 -4 -6 -9q-63 -47 -160 -105q-48 -29 -162 -75q-108 -146 -217 -293q-125 -162 -251 -268
q-225 -187 -364 -187q-108 0 -108 109q0 108 81 219q144 195 418 306q157 64 269 86q9 2 17 5q37 45 110 135q26 32 114 132q139 167 424 495q84 92 208 252q-123 -121 -369 -361q-101 -99 -172 -160q-144 -123 -247 -123q-61 0 -107.5 42t-46.5 101q0 77 37 138
q58 97 261 272q275 235 275 381q0 57 -39 93t-96 36q-84 0 -165.5 -36t-168.5 -104q-216 -168 -216 -306q0 -72 80 -72q75 0 192 103q95 83 153 169q27 38 27 80q0 12 -7.5 34.5t-7.5 33.5q0 7 12 7q13 0 24 -28q9 -24 9 -39q0 -120 -131.5 -259t-249.5 -139
q-123 0 -123 111q0 92 78 188q50 61 147 134.5t170 105.5q83 37 171 37q94 0 155 -53q65 -56 65 -149q0 -99 -111 -241q-71 -91 -231 -245q-163 -158 -202 -207q-27 -33 -27 -81q0 -73 94 -73q42 0 86 22q70 35 156.5 111t339.5 326l162 156q94 92 151.5 165t107.5 130
q28 37 89 104q30 28 62 28q17 0 33.5 -14.5t16.5 -30.5zM550 -17q-326 -84 -572 -352q-87 -95 -99 -113q-49 -68 -49 -138q0 -54 73 -54q67 0 160 84q84 77 268 303q48 58 142 174q25 33 77 96z" />
    <glyph glyph-name="Z" unicode="Z" horiz-adv-x="1373" 
d="M1897 1372q-11 -31 -58.5 -72.5t-119.5 -85.5t-161.5 -85.5t-184.5 -72.5q-22 -7 -43 -13l-20 -26q-34 -47 -69 -99t-68.5 -103t-63.5 -98.5t-54 -84.5q42 0 73 0.5t54.5 1t40 1.5t29.5 3q-4 -16 -10 -26.5t-14 -10.5t-51 1t-140 1q-48 -74 -95 -137.5t-98 -118
t-109 -103t-128 -92.5q59 -14 118 -32t116 -34.5t113 -28t109 -11.5q45 0 86 11.5t77.5 31.5t69 47t62.5 58h37q-22 -26 -47.5 -51t-48 -44.5t-39 -32t-19.5 -14.5q-35 -24 -73 -39.5t-75.5 -25.5t-72.5 -14t-64 -4q-60 0 -121.5 11.5t-121.5 29t-117.5 37t-110.5 36.5
q-96 -48 -189 -75t-165 -27q-42 0 -66 12.5t-24 43.5q0 30 27 55t79 43t127.5 27.5t172.5 9.5q17 0 34 -1t34 -3q49 34 103 90t105 117.5t96.5 122t77.5 105.5q-48 -1 -84.5 -2t-62.5 -2q-30 -1 -51 -2q1 10 4 18q2 7 7 12.5t14 6.5q4 0 21.5 -0.5t43 -0.5t58.5 -0.5
t69 -0.5q31 43 77.5 104t106 132t128.5 147q1 2 3 4q-24 -5 -47 -9q-94 -15 -173 -6q-23 3 -43 14t-35 27.5t-23.5 37.5t-8.5 43q3 40 79 106q78 67 79 105q0 47 -99 63q-131 23 -271 -21q-56 -17 -111 -45.5t-98.5 -63.5t-70.5 -75.5t-28 -81.5q-2 -49 15 -77.5t54 -33.5
q95 -18 226 74q130 92 133 185q0 5 -1.5 12.5t-3 15.5t-2.5 15t-1 11q0 12 14 9q4 -1 9 -11t9 -24t6.5 -29t2.5 -24q-4 -102 -129 -197q-61 -47 -119 -66t-109 -11q-136 24 -133 148q1 40 26.5 82.5t69 82t101 74t122.5 57t134 31.5t135 -2q218 -38 215 -162
q-1 -67 -75 -121q-72 -53 -74 -91q-1 -12 9.5 -20.5t31.5 -10.5q63 -4 133 6q40 6 81 14q54 58 112 114q49 54 111 99.5t126.5 79t127.5 52.5t113 20h14q8 0 15 -3.5t12 -12.5t5 -27zM1461 1113q69 28 130 58.5t111.5 62t84.5 58.5t49 48.5t5 31.5q-6 7 -42.5 4.5t-93 -23.5
t-127 -66t-144.5 -123q-26 -24 -58 -62q-10 -13 -21 -26q54 17 106 37zM420 102q-31 8 -58.5 13t-52.5 5q-52 0 -93.5 -7.5t-71 -19.5t-45.5 -26.5t-16 -27.5q0 -26 54 -26q63 0 135.5 22t147.5 67z" />
    <glyph glyph-name="grave" unicode="`" 
d="M139 526q-4 -7 -4 -18q0 -28 20.5 -62.5t38.5 -40.5q2 1 4 4q2 4 -2 31t0 35q0 1 2 2q37 4 54 40q8 17 8 31q0 34 -38 34q-57 0 -83 -56z" />
    <glyph glyph-name="a" unicode="a" horiz-adv-x="635" 
d="M677 433q0 -16 -21 -40l-289 -316q-17 -19 -17 -34q0 -14 17 -14q34 0 147.5 101.5t118.5 101.5t9 -5q1 -2 2 -7q0 -5 -3 -8l-200 -171q-53 -46 -101 -46q-73 0 -73 80q0 9 2 19q-32 -32 -92 -66q-68 -39 -103 -39q-74 0 -74 73q0 124 189 267q-84 -56 -184 -117
q-10 4 -10 12q0 4 5 8q75 61 211 133q154 81 221 81q55 0 55 -47q0 -6 -4 -18.5t-4 -19.5l-1 -9h1l6 3l54 62q22 20 73 23q59 4 52 4q13 0 13 -11zM461 406q0 13 -14 13q-46 0 -215 -184q-164 -179 -164 -209q0 -15 20 -15t75 33q92 57 155 128q47 48 125 154q18 33 18 80z
" />
    <glyph glyph-name="b" unicode="b" horiz-adv-x="550" 
d="M1082 1097q0 -11 -3 -21q-36 -120 -171 -234q-58 -50 -243 -172q-36 -20 -99 -67q-21 -26 -61 -77q-96 -117 -286 -353q-24 -29 -68 -88q-10 -15 -10 -32q0 -31 34 -31q57 0 194 134q-13 13 -13 32q0 50 75.5 149.5t122.5 99.5q37 0 37 -31q0 -34 -46 -106
q-37 -58 -73 -97q7 -3 15 -3q11 0 31 15t26 15q5 0 9 -3l3 -7q0 -4 -4 -8q-44 -38 -52 -44q-25 -17 -65 -24q-28 -6 -42 -2q-110 -128 -190 -148q-13 -3 -36 -3q-43 0 -74 25t-31 66q0 56 90 168l132 156v1l-194 -145q-47 -35 -86 -53q-10 6 -10 14q0 6 156 115
q88 63 177 125q73 89 174 210q91 107 177 210.5t136 152.5q90 90 163 118q41 16 60 16q45 0 45 -73zM1058 1117q0 21 -21 21q-102 0 -330 -339q-45 -65 -117 -155q167 113 224 158q121 96 190 197q54 78 54 118z" />
    <glyph glyph-name="c" unicode="c" horiz-adv-x="512" 
d="M536 389q0 -44 -20 -79q-25 -40 -66 -40q-54 0 -54 55q0 77 70 118q-8 -3 -22 -10q-41 -22 -166 -155q-116 -123 -158 -182q-19 -26 -19 -44q0 -31 37 -31q89 0 229 103.5t139 103.5q4 0 9 -3l3 -8q-1 0 -81 -70q-176 -153 -289 -153q-119 0 -119 91q0 116 186 269
q-43 -23 -106 -74q-85 -67 -102 -67q-11 0 -11 11q0 5 7 9q135 101 192 135q96 57 220 94q20 6 35 6q35 0 60.5 -22t25.5 -57z" />
    <glyph glyph-name="d" unicode="d" horiz-adv-x="635" 
d="M367 77q-17 -20 -17 -34t17 -14q34 0 147 101q114 102 119 102q4 0 9 -5q1 -1 1 -3t1 -4q0 -5 -3 -8l-200 -171q-52 -46 -101 -46q-73 0 -73 80q0 5 0.5 9.5t1.5 9.5q-31 -31 -92 -66q-68 -39 -103 -39q-74 0 -74 73q0 124 189 267q-42 -28 -87.5 -57t-96.5 -60
q-10 4 -10 12q0 3 5 8q74 61 211 133q154 81 221 81q55 0 55 -47q0 -6 -5 -22.5t-10 -46.5l2 -2l24 32t54 71.5t74.5 98.5t85 112t86 113t77 101.5t58.5 77t30 39.5h117q-101 -130 -181 -232.5t-142 -183t-108.5 -140t-80.5 -103.5zM461 406q0 13 -14 13q-46 0 -215 -184
q-164 -179 -164 -209q0 -15 20 -15q19 0 75 33q92 57 155 128q23 24 54.5 62t70.5 92q18 33 18 80z" />
    <glyph glyph-name="e" unicode="e" horiz-adv-x="536" 
d="M561 375q0 -131 -381 -220q-66 -68 -66 -108q0 -36 34 -36q73 0 196 89q167 121 183 129q11 -3 11 -12q0 -6 -86 -65l-100 -69q-114 -89 -204 -89q-98 0 -98 97q0 133 201 276q-82 -52 -245 -156l-7 -3q-9 1 -9 11q0 5 3 10q163 119 313 179q18 6 53 19q88 36 129 36
q73 0 73 -88zM514 410q0 33 -29 33q-52 0 -281 -257q25 0 73 23l66 33q48 23 103 71q68 60 68 97z" />
    <glyph glyph-name="f" unicode="f" horiz-adv-x="371" 
d="M335 180q-35 -37 -71.5 -72.5t-72 -64t-68.5 -46t-61 -17.5q-12 0 -21.5 2.5t-17.5 5.5q-29 -45 -61 -94t-72.5 -110.5t-92.5 -140.5t-122 -186h-108q54 81 95 143t73.5 111t58 88.5t48.5 75.5t46 71.5t51 78.5q-22 22 -22 49q0 17 10.5 29t26.5 12q11 0 17.5 -7
t12.5 -16q34 51 66.5 100t66.5 99q16 23 40 55.5t55 69.5q0 4 -2 4q-34 -23 -71 -57.5t-70.5 -70t-60.5 -66.5t-42 -46h-35q35 39 72 79.5t77.5 80.5t84.5 77.5t94 69.5q54 69 117.5 147t131 155t135.5 147.5t130.5 124t116 85.5t92.5 32q35 0 53 -21.5t18 -52.5
q0 -39 -31.5 -87.5t-83.5 -101t-118.5 -105.5t-135.5 -101.5t-135 -89.5t-118 -70q-10 -7 -33.5 -35.5t-55.5 -71t-70 -95.5t-77 -109t-76.5 -111t-68.5 -102q0 -10 12.5 -12.5t20.5 -2.5q15 0 40 14.5t54 38.5t61 54.5t62 62.5h35zM470 602q40 25 86 55.5t90 61.5
q40 27 82.5 61t83 71.5t76.5 76t63 74t43 66t16 52.5q0 29 -41 29q-21 0 -55 -26.5t-76.5 -70.5t-91 -101.5t-98.5 -119.5q-23 -29 -49 -62.5t-50.5 -65t-45.5 -58t-35 -41.5q0 -2 1 -2h1v0z" />
    <glyph glyph-name="g" unicode="g" horiz-adv-x="642" 
d="M88 -182q0 1 -1 2h-1q-53 -31 -114 -70.5t-121.5 -85.5t-116 -98t-96.5 -107q-7 -8 -20.5 -25.5t-26.5 -38.5t-23 -43t-10 -40q0 -29 22 -29q36 0 73 23t83 71t104 122.5t136 178.5q28 38 56.5 74.5t55.5 65.5zM435 446q-15 0 -39.5 -15t-53.5 -40t-60 -58t-60 -69
q-27 -33 -51 -67.5t-42 -65.5t-28.5 -55.5t-10.5 -36.5q0 -29 25 -29q21 0 55.5 21t76 56.5t84.5 83t81 101.5q25 35 40 72t15 66q0 17 -7.5 26.5t-24.5 9.5zM304 -20q343 251 338 251q12 0 12 -12q0 -5 -4 -9l-398 -306q-40 -48 -90 -115t-106 -139.5t-117 -143.5
t-122.5 -127.5t-122 -91.5t-116.5 -35q-32 0 -50.5 18.5t-18.5 53.5q0 42 31.5 91.5t82.5 100.5t116.5 102t133 97t132 84.5t114.5 65.5q35 45 68.5 88.5t70.5 89.5q9 11 20.5 25t23.5 29t24 30.5t22 28.5q3 2 3 6q-30 -35 -63.5 -68t-66.5 -58.5t-63 -40.5t-53 -15
q-47 0 -67.5 29t-20.5 69q0 38 18 77.5t47 77.5q22 29 49 63t56 58q2 2 2 3v1q-40 -24 -77 -54.5t-66 -58.5q-34 -33 -64 -65h-35q69 75 128 124t112 81q19 12 45 26.5t56.5 28t65 22.5t70.5 9q42 0 57 -15t15 -40q0 -19 -7 -40.5t-20 -45.5q0 -2 1 -2h1q20 31 43.5 64.5
t49.5 68.5h110q-50 -68 -104 -139q-23 -31 -49 -65.5t-53.5 -71t-55.5 -73.5t-55 -73q-9 -12 -13.5 -19t-8 -12.5t-8.5 -11.5t-15 -16h-8z" />
    <glyph glyph-name="h" unicode="h" horiz-adv-x="682" 
d="M410 92q-24 -31 -24 -46q0 -12 14 -12q31 0 102 58l170 141q1 1 8 3q11 -2 11 -12q0 -3 -5 -7l-207 -171q-56 -46 -106 -46q-13 0 -28 3t-27.5 9.5t-21 17.5t-8.5 27t6.5 34t21 41t38 51.5t57.5 66.5q37 41 62 70.5t40.5 49.5t22 32t6.5 18q0 8 -3 10t-9 2
q-20 0 -65.5 -28.5t-104 -75t-123.5 -106.5t-125 -122q-17 -23 -33 -46.5t-36 -51.5h-133q50 57 107.5 131.5t120.5 159.5q12 17 26 35.5t28.5 37t29 36t27.5 32.5v1l-2 1q-31 -21 -70 -57.5t-76.5 -75.5t-68 -73.5t-45.5 -49.5h-35q35 39 74 82t81 85t88 79.5t95 65.5
q62 79 128.5 161t132.5 158t130 143t122 116.5t108 78.5t88 29q35 0 53 -21.5t18 -52.5q0 -39 -31.5 -87.5t-83.5 -101t-118.5 -105.5t-135.5 -101.5t-135 -89.5t-118 -70q-53 -66 -93 -118t-77 -103q-19 -25 -41 -54.5t-43 -54.5q0 -2 1 -2h1q39 35 87.5 79t96 83
t88.5 65.5t66 26.5q14 0 29.5 -3.5t29 -11t22.5 -18t9 -24.5q0 -13 -5 -31t-18 -42.5t-36 -57.5t-58 -76q-30 -37 -54.5 -65t-42.5 -50zM986 1149q-21 0 -55 -26.5t-76.5 -70.5t-91 -101.5t-98.5 -119.5q-23 -29 -50 -63.5t-52 -66.5t-46 -58.5t-32 -38.5q0 -2 1 -2h1
q42 25 87 55.5t89 61.5q40 27 82.5 61t82.5 71.5t76.5 76t63.5 74t43 66t16 52.5q0 29 -41 29z" />
    <glyph glyph-name="i" unicode="i" horiz-adv-x="355" 
d="M560 690q0 -40 -63 -57q-55 6 -55 47q0 65 61 65q57 0 57 -55zM390 430q0 -19 -19 -40l-254 -278q-13 -14 -13 -28q0 -17 25 -17t51 17q60 50 172 144q1 1 8 3q11 -2 11 -12q0 -7 -117 -102.5t-144 -110.5q-22 -14 -63 -14q-64 0 -64 80q0 38 23 65l177 204
q-173 -132 -176 -132q-11 0 -11 12q0 4 5 7l260 201q14 10 76 10h41q12 0 12 -9z" />
    <glyph glyph-name="j" unicode="j" horiz-adv-x="385" 
d="M44 -20q343 251 338 251q12 0 12 -12q0 -5 -4 -9l-409 -310q-39 -46 -88.5 -111.5t-105 -137.5t-114.5 -143.5t-116 -128t-110 -92t-97 -35.5q-32 0 -45.5 18.5t-13.5 49.5q0 36 27 82t71.5 96.5t102 102.5t119.5 100t123 89t112 69q30 40 59 78t58.5 78t61 84t68.5 96
q18 26 40.5 57t44 60t39.5 52.5t28 34.5q0 1 1 2q0 1 0.5 2t0.5 3q-39 -20 -79 -52.5t-75 -66t-62 -63t-42 -44.5h-35q52 57 95 100.5t82.5 77t79.5 58.5t85 45h98q-55 -76 -112 -155q-25 -34 -52.5 -72t-56.5 -77.5t-59 -79.5t-58 -77q-14 -19 -26 -34t-25 -27zM-186 -189
q0 1 0.5 1.5t0.5 1.5q-48 -30 -102 -68.5t-107 -83.5t-103 -96.5t-92 -106.5q-7 -8 -18.5 -25.5t-23 -38.5t-19.5 -43t-8 -40q0 -14 4 -22.5t16 -8.5q21 0 48.5 23.5t67.5 72t96 123.5t134 178q26 35 54.5 72.5t50.5 59.5zM433 573q-26 0 -40.5 15.5t-14.5 40.5q0 34 25 59
t59 25q26 0 40.5 -15.5t14.5 -40.5q0 -34 -25 -59t-59 -25z" />
    <glyph glyph-name="k" unicode="k" horiz-adv-x="653" 
d="M1023 1075q0 -11 -3 -22q-29 -108 -142 -209q-36 -32 -207 -153q-34 -25 -64 -44q-47 -30 -100 -67l-106 -134q122 82 200 82q76 0 76 -74q0 -18 -7 -34q-29 -61 -98 -87q-21 -8 -131 -29q43 -34 43 -60q0 -72 -40 -107q-60 -54 -73 -79q-6 -10 -6 -15q0 -12 16 -12
q31 0 148.5 100.5t125.5 100.5q9 0 9 -11q0 -4 -5 -8q-31 -29 -98 -86q-47 -43 -148 -116q-26 -15 -55 -15q-77 0 -77 83q0 40 62.5 102.5t62.5 83.5q0 24 -26 24q-39 0 -63 -15q0 -4 1.5 -12.5t1.5 -13.5q0 -26 -31 -26q-35 0 -40 37q-54 -65 -157 -197q-12 -21 -39 -55
q-10 -10 -84 -10q-46 0 -46 28q0 11 11 24q54 56 158 173q43 56 135 163q-220 -174 -222 -174q-11 0 -11 12q0 4 4 8q92 68 272 209q17 22 49 62q4 4 300 357q86 103 137 153q90 89 163 118q40 17 60 17q44 0 44 -72zM1000 1096q0 18 -20 18q-42 0 -121 -73
q-16 -15 -97 -116q-75 -102 -230 -303q332 222 416 354q11 17 18 27q34 47 34 93zM572 478q0 15 -24 15q-16 0 -99 -58q-78 -53 -157 -144q31 20 61 24q57 7 62 8q42 10 87.5 50t64.5 81q5 9 5 24z" />
    <glyph glyph-name="l" unicode="l" horiz-adv-x="389" 
d="M109 80q-18 -19 -18 -34q0 -12 14 -12q31 0 102 58l170 141q1 1 8 3q11 -2 11 -12q0 -3 -5 -7l-207 -171q-56 -46 -106 -46q-38 0 -48.5 17.5t-10.5 43.5q0 21 10 47.5t26.5 56.5t37.5 62l42 64q9 12 20.5 28.5t24.5 33.5t26 33.5t24 29.5q0 4 -2 4q-32 -21 -69 -55
t-71 -70t-61.5 -68t-42.5 -47h-35q35 39 72 79.5t77.5 80.5t84.5 77.5t94 69.5q54 69 117.5 147t131 155t135.5 147.5t130.5 124t116 85.5t92.5 32q35 0 53 -21.5t18 -52.5q0 -39 -31.5 -87.5t-83.5 -101t-118.5 -105.5t-135.5 -101.5t-135 -89.5t-118 -70
q-47 -61 -97 -127.5t-96 -130t-84.5 -118.5t-62.5 -93zM490 602q38 25 84 55.5t90 61.5q40 27 82.5 61t83 71.5t76.5 76t63 74t43 66t16 52.5q0 29 -41 29q-21 0 -56.5 -28t-79 -73t-91.5 -102t-94 -115q-47 -58 -92 -117t-88 -110q-1 -1 0 -1q0 -1 4 -1z" />
    <glyph glyph-name="m" unicode="m" horiz-adv-x="938" 
d="M950 220q0 -5 -5 -9l-196 -167q-53 -46 -102 -46q-74 0 -74 83q0 34 28 63l210 223q17 18 17 34q0 13 -19 13q-39 0 -237 -183q-40 -36 -200 -214q-14 -16 -29 -16l-97 -3q-14 0 -14 11q0 15 22 39l288 315q17 18 17 34q0 13 -11 13t-30 -6q-8 -3 -212 -168
q-48 -39 -107 -106q-49 -56 -98 -113q-13 -15 -30 -16l-96 -3q-12 0 -12 9q0 11 9 23t11 18l287 315q17 19 17 34q0 14 -17 14q-32 0 -145.5 -101t-122.5 -101q-10 4 -10 10q0 5 5 9l200 171q55 48 102 48q73 0 73 -84q0 -38 -34 -72l131 108q57 48 101 48q74 0 74 -84
q0 -28 -21 -56l114 95q57 48 102 48q70 0 70 -93q0 -31 -22 -54l-213 -223q-16 -18 -16 -35q0 -10 13 -10q35 0 102 57l158 136q3 3 7 3q12 0 12 -11z" />
    <glyph glyph-name="n" unicode="n" horiz-adv-x="664" 
d="M673 222q0 -5 -3 -10l-200 -166q-55 -46 -101 -46q-73 0 -73 89q0 31 25 57l212 223q17 17 17 34q0 13 -18 13q-34 0 -227 -170q-58 -51 -211 -229q-15 -17 -93 -17q-45 0 -45 9q0 11 9 23t10 18l289 315q17 19 17 34q0 14 -18 14q-30 0 -147 -101t-114 -101
q-11 0 -11 12q0 5 198 178q54 48 103 48q72 0 72 -85q0 -30 -20 -55l114 95q56 48 103 48q72 0 72 -87q0 -33 -26 -60l-211 -223q-16 -18 -16 -36q0 -12 13 -12q36 0 149.5 100t119.5 100q11 0 11 -12z" />
    <glyph glyph-name="o" unicode="o" horiz-adv-x="491" 
d="M503 224q0 -16 -72 -63q-23 -15 -57 -15q-163 -158 -274 -158q-100 0 -100 92q0 123 179 267q-48 -26 -70 -41q-43 -43 -104 -94q-8 4 -8 11q0 14 62 67q79 69 242 137q98 40 129 40q67 0 67 -46q0 11 -12 -57q3 -8 3 -18q0 -70 -89 -157q-5 -5 -7 -9l3 -3q24 0 55.5 28
t40.5 28q12 0 12 -9zM464 410q0 31 -29 31q-39 0 -202.5 -170.5t-163.5 -219.5q0 -39 37 -39q36 0 76 20q37 19 88 55q67 46 68 65q-24 0 -24 36q0 51 47 117q49 70 98 75q5 11 5 30z" />
    <glyph glyph-name="p" unicode="p" horiz-adv-x="635" 
d="M649 220q0 -3 -5 -7l-194 -168q-55 -47 -100 -47q-76 0 -76 85q0 34 27 63l211 223q17 18 17 33q0 14 -19 14q-39 0 -232 -175q-60 -54 -132 -146q-61 -78 -121 -156l-503 -623q-12 -15 -29 -16l-97 -4q-12 -1 -12 10q0 18 20 41l879 1049q27 32 70 75
q-349 -265 -351 -265q-11 0 -11 11q0 6 4 9l382 291q78 60 159 132q23 20 36 20q9 0 9 -13q0 -15 -71 -104l-205 -259l133 111q57 47 101 47q69 0 69 -95q0 -29 -21 -52l-212 -223q-17 -18 -17 -33t17 -15q30 0 138 96q113 99 124 102q12 -1 12 -11z" />
    <glyph glyph-name="q" unicode="q" horiz-adv-x="564" 
d="M228 -78q-48 -65 -85 -117t-72.5 -102t-73.5 -103t-86 -121h-109q52 72 98 135t91 123.5t91.5 121t98.5 128.5q29 37 64.5 82t70.5 88l3 4q1 2 1 4q-29 -31 -60 -60t-62 -52t-59 -37t-50 -14q-47 0 -67.5 29t-20.5 69q0 43 16 84t42 78q86 117 168.5 174t180.5 57
q42 0 57 -15t15 -40q0 -28 -13.5 -58.5t-33.5 -64.5v-4q13 20 27.5 42.5t29.5 45.5t30 44.5t28 39.5h110q-14 -17 -51.5 -66t-90 -117.5t-116.5 -150.5q-30 -40 -61 -80q131 89 206 149q1 1 9 3q10 -3 10 -13q0 -7 -119 -100q-70 -54 -148 -93q-12 -15 -24 -32q-2 -2 -8 -11
t-13.5 -19.5t-14.5 -19.5t-9 -11zM420 471q-15 0 -41 -16.5t-56 -43t-62.5 -61t-61.5 -70.5q-27 -33 -50 -66.5t-39.5 -63.5t-26 -53.5t-9.5 -35.5q0 -29 25 -29q21 0 55.5 21t76 56.5t84.5 83t81 101.5q25 35 40 72t15 66q0 17 -7 28t-24 11z" />
    <glyph glyph-name="r" unicode="r" horiz-adv-x="398" 
d="M449 464q0 -14 -21 -35l-219 -236q-35 -36 -70 -73q-47 -52 -47 -82q0 -14 22 -14q32 0 152 103t129 104q11 -2 11 -12q0 -3 -5 -8l-206 -169q-58 -49 -103 -49q-36 0 -58 32q-19 28 -19 65q0 49 74 123l120 120q-20 -8 -61 -17q-135 -103 -143 -103q-11 0 -11 12
l132 102q-22 17 -22 42q0 30 20 57.5t49 27.5q42 0 42 -43q0 -15 -29 -58q36 2 130.5 66t108.5 64q24 0 24 -19z" />
    <glyph glyph-name="s" unicode="s" horiz-adv-x="437" 
d="M461 226q-9 -8 -31.5 -24.5t-49.5 -35.5t-53 -36.5t-41 -27.5q-31 -21 -65 -39t-67.5 -31.5t-66.5 -21t-61 -7.5q-38 0 -58 21t-20 45q0 25 19 44.5t47 19.5q17 0 29.5 -8.5t12.5 -28.5t-15.5 -32t-32.5 -12q-12 0 -12 -1q0 -6 8 -13t29 -7q23 0 62.5 27t87.5 84
q24 30 42 65.5t29.5 74t17.5 78t6 78.5q-57 -46 -124 -107.5t-155 -140.5h-40q80 72 148 132q29 25 57.5 50.5t53.5 46.5t43 36t26 20q17 13 24.5 18t9.5 5q4 0 11 -5t7 -8q-5 -5 -16.5 -15t-11.5 -29q0 -14 5.5 -31t12 -37.5t12 -44t5.5 -50.5q0 -41 -16 -76t-39 -67
q6 3 27 16.5t45.5 29t46 29.5t26.5 18z" />
    <glyph glyph-name="t" unicode="t" horiz-adv-x="351" 
d="M74 4q-26 0 -39.5 12t-13.5 46q0 18 6.5 38t22 47.5t42 65.5t66.5 93q16 22 35.5 48t40 52.5t41.5 52.5t40 47q0 4 -2 4q-37 -24 -80.5 -65t-93.5 -90q-40 -40 -77.5 -79.5t-69.5 -74.5h-35q38 40 78 81t78 79q27 28 59 58.5t63.5 58t61 49.5t53.5 33l1 1q0 1 0.5 1.5
t0.5 1.5h-131q0 3 2.5 8t6.5 10t8 8.5t6 3.5h127l121 164h116l-123 -164h148q0 -4 -2.5 -9t-6.5 -9.5t-7.5 -8t-6.5 -3.5h-147q-45 -59 -77 -101t-56 -74.5t-42.5 -57t-35.5 -47.5t-35 -47.5t-41 -55.5q-34 -47 -60 -84t-26 -51q0 -4 3 -6t13 1t27.5 13t46.5 30
q60 50 172 144q1 1 8 3q11 -2 11 -12q0 -7 -108 -103q-9 -8 -29.5 -26t-47 -36t-56 -33t-56.5 -17z" />
    <glyph glyph-name="u" unicode="u" horiz-adv-x="644" 
d="M679 438q0 -19 -20 -40l-288 -318q-18 -19 -18 -34q0 -12 14 -12q31 0 102 58l170 141q1 1 8 3q11 -2 11 -12q0 -3 -5 -7l-207 -171q-56 -46 -106 -46q-71 0 -71 82q0 30 72 116q-80 -71 -231 -184q-22 -14 -63 -14q-64 0 -64 80q0 38 23 65l177 204q-181 -138 -183 -138
q-11 0 -11 12q0 4 5 7l267 207q13 10 110 10q19 0 19 -9q0 -19 -19 -40l-254 -278q-13 -14 -13 -28q0 -17 25 -17q26 0 51 17q17 11 131 106t123 104l107 126q13 16 29 16l98 3q11 0 11 -9z" />
    <glyph glyph-name="v" unicode="v" horiz-adv-x="553" 
d="M591 231q-21 -18 -43.5 -41t-45.5 -36.5t-45 -10.5t-41 36q-35 -36 -73 -68.5t-76 -57t-74.5 -38.5t-67.5 -14t-47.5 22.5t-16.5 54.5q0 16 2.5 34t12 41t29 51.5t53.5 66.5q37 41 62 70.5t40.5 49.5t22 32t6.5 18q0 8 -3 10t-10 2q-12 0 -34.5 -15.5t-50 -40t-57 -54.5
t-56.5 -58t-47.5 -50.5t-30.5 -33.5h-35q52 55 100.5 107.5t91.5 93.5t79.5 65.5t64.5 24.5t49 -14.5t21 -42.5q0 -13 -5 -31t-18 -42.5t-36 -57.5t-58 -76q-66 -80 -103.5 -123t-37.5 -61q0 -8 4 -10.5t10 -2.5q60 0 130 45t144 123q-3 8 -3.5 16t-0.5 11q0 6 9 28
t23.5 51.5t33 62.5t38.5 60.5t40 45.5t36 18q20 0 28.5 -9.5t8.5 -23.5q0 -15 -7.5 -34.5t-18.5 -39t-24 -37.5t-23 -32q-31 -38 -62 -71.5t-47 -49.5q13 -29 30 -28.5t35.5 15t38 35.5t37.5 33z" />
    <glyph glyph-name="w" unicode="w" horiz-adv-x="848" 
d="M811 310q-26 -32 -57 -66.5t-51 -56.5q9 -27 26.5 -29.5t38 8t42.5 28t40 30.5l18 -16q-15 -13 -39.5 -31.5t-50.5 -30t-51 -9t-40 32.5q-32 -33 -68.5 -64.5t-74.5 -56t-74.5 -39.5t-66.5 -15q-31 0 -50 15t-19 38q0 15 5 38.5t17 45.5l2 4v2q-29 -30 -61 -56
t-63.5 -45.5t-60.5 -30.5t-52 -11q-25 0 -40.5 22.5t-15.5 54.5q0 16 2.5 34t12 41t29 51.5t53.5 66.5q37 41 62 70.5t40.5 49.5t22 32t6.5 18q0 8 -3 10t-10 2q-12 0 -34.5 -15.5t-50 -40t-57 -54.5t-56.5 -58t-47.5 -50.5t-30.5 -33.5h-35q52 55 100.5 107.5t91.5 93.5
t79.5 65.5t64.5 24.5t49 -14.5t21 -42.5q0 -13 -5 -31t-18 -42.5t-36 -57.5t-58 -76q-66 -80 -103.5 -123t-37.5 -61q0 -8 4 -10.5t10 -2.5q22 0 56.5 15t73.5 42t77.5 64t68.5 82q42 62 83 123.5l83 124.5h113q-46 -66 -87 -125q-18 -25 -36 -51t-34.5 -49.5t-30.5 -43
t-23 -32.5q-12 -18 -25.5 -36.5t-25 -36.5t-18.5 -34t-7 -28q0 -4 2.5 -9.5t16.5 -5.5q22 0 54 13.5t67 36.5t69.5 53t63.5 63q-4 8 -4.5 14.5t-0.5 14.5q0 6 9 28t23.5 51.5t33.5 62.5t39 60.5t39.5 45.5t36.5 18q20 0 28.5 -9.5t8.5 -23.5q0 -15 -7.5 -34.5t-19 -39
t-24.5 -37.5t-23 -32z" />
    <glyph glyph-name="x" unicode="x" horiz-adv-x="616" 
d="M684 340q0 -64 -67 -64q-56 0 -56 55q0 54 56 54q24 0 40 -15q1 53 -57 53q-31 0 -63 -33q-132 -137 -213 -246q-44 -59 -44 -106q0 -24 26 -24q52 0 97 36q229 182 210 182q13 0 13 -11q0 -4 -6 -9q-80 -82 -204 -181q-49 -40 -117 -40q-81 0 -81 86q-117 -88 -183 -88
q-82 0 -82 111q0 69 64 69q58 0 58 -53q0 -56 -58 -56q-23 0 -39 15q7 -18 13 -36q10 -16 40 -16q37 0 66 31q256 271 256 346q0 27 -35 27q-47 0 -111 -51l-201 -162q-1 -1 -6 -3q-11 5 -11 11t107 92q62 50 123 100q49 41 109 41q50 0 71 -27q16 -22 21 -76
q130 100 186 100q78 0 78 -112z" />
    <glyph glyph-name="y" unicode="y" horiz-adv-x="644" 
d="M749 440q0 -13 -20 -29q-29 -24 -33 -28q-93 -109 -278 -326q229 174 224 174q12 0 12 -12q0 -5 -4 -9l-295 -230l-3 -5q-45 -60 -269 -337q-129 -160 -278 -274q-96 -74 -137 -74q-57 0 -57 87q0 26 15 57q46 96 151 186q22 19 192 145q106 79 217 149q15 28 201 268
l-172 -138q-59 -47 -102 -47q-73 0 -73 91q0 28 26 55l211 223q16 17 16 35q0 12 -16 12q-36 0 -150 -101t-121 -101q-9 0 -9 13q0 6 95 86q55 45 111 91q53 48 105 48q31 0 50 -31q17 -27 17 -60q0 -31 -23 -55l-212 -223q-17 -17 -17 -36q0 -12 14 -12q25 0 101 60
l208 165q1 0 60 77q87 113 123 127q10 3 36 3q84 0 84 -24zM163 -128q-313 -210 -453 -391q-65 -83 -65 -128q0 -38 26 -38q59 0 165 134q112 139 327 423z" />
    <glyph glyph-name="z" unicode="z" horiz-adv-x="573" 
d="M227 415q-4 0 -18.5 -12t-34.5 -31t-43 -42t-45 -45.5t-40.5 -40.5t-28.5 -27l-35 2q37 36 82.5 84.5t89 93t80.5 74.5t57 29q27 0 57 -14t59.5 -31.5t58 -31.5t54.5 -14q16 11 42.5 30.5t49.5 34.5q9 6 13.5 7t6.5 1q10 0 10 -12q0 -17 -16.5 -33t-39.5 -33
q-25 -16 -61 -41.5t-75.5 -56t-78.5 -62.5t-69 -62q-25 -23 -41 -33t-24 -19q21 -2 47 -10.5t52.5 -18t51.5 -17t45 -7.5q12 0 23 7.5t25.5 23.5t34.5 39t50 55h33q-41 -45 -73 -83t-59 -65t-51 -42t-49 -15q-31 0 -58.5 11t-52.5 24.5t-48.5 25t-45.5 11.5q-5 0 -18 -11
t-31 -23.5t-38.5 -23.5t-38.5 -11q-5 0 -14.5 4.5t-9.5 19.5q0 12 6.5 21t16 14.5t21.5 8.5t23 5q17 3 26.5 4.5t14.5 2.5t7.5 2t5.5 4q41 32 76.5 66.5t72.5 68.5q18 17 40 36t43 36t39 31t27 22q-33 0 -64 11t-57.5 23.5t-48 23.5t-34.5 11z" />
    <glyph glyph-name="nonbreakingspace" unicode="&#xa0;" horiz-adv-x="639" 
 />
    <glyph glyph-name="guillemotleft" unicode="&#xab;" horiz-adv-x="314" 
d="M81 56q0 -25 -43 -69.5t-69 -51.5q-2 1 -2 4q0 4 16.5 31t16.5 35q0 1 -1 2q-36 4 -36 40q0 65 61 65q57 0 57 -56zM281 56q0 -25 -43 -69.5t-69 -51.5q-2 1 -2 4q0 4 16.5 31t16.5 35q0 1 -1 2q-36 4 -36 40q0 65 61 65q57 0 57 -56z" />
    <glyph glyph-name="guillemotright" unicode="&#xbb;" 
d="M323 461q0 25 43 69t69 52q2 -1 2 -4q0 -5 -16.5 -32t-16.5 -34q0 -2 1 -2q36 -4 36 -40q0 -65 -61 -65q-57 0 -57 56zM123 461q0 25 43 69t69 52q2 -1 2 -4q0 -5 -16.5 -32t-16.5 -34q0 -2 1 -2q36 -4 36 -40q0 -65 -61 -65q-57 0 -57 56z" />
    <glyph glyph-name="afii10023" unicode="&#x401;" horiz-adv-x="1032" 
d="M1471 1562q0 -39 -63 -56q-55 6 -55 47q0 65 61 65q57 0 57 -56zM1246 1562q0 -39 -63 -56q-55 6 -55 47q0 65 61 65q57 0 57 -56zM1418 1368q0 -46 -39 -107q-75 -120 -268 -222q-168 -88 -332 -120q0 -23 8 -45q100 0 144 -26q4 -4 14 -9q30 -23 30 -43q0 -34 -52 -34
q-108 0 -152 86q-185 -23 -397 -232q-219 -216 -219 -398q0 -91 59 -150t151 -59q104 0 186 34q155 63 271 183q130 134 153 284q2 15 2 26q0 111 -108 111q-104 0 -190 -74q-258 -220 -258 -352q0 -31 10.5 -57t21.5 -51l-3 -9q-2 0 -4 -1q-31 0 -49 52q-13 40 -13 78
q0 6 2 18q24 183 153 300q137 125 307 125q155 0 155 -126q0 -14 -3 -32q-14 -87 -39 -138q-78 -153 -247 -272q-177 -125 -340 -125q-113 0 -205 71q-102 80 -102 245q0 178 171 354q194 198 525 219q-8 21 -10 41q-56 -16 -144 -16q-251 0 -320 149q-21 47 -21 84
q0 20 6 39q31 104 170 170q120 58 242 58q173 0 241 -51q4 -4 4 -8q0 -9 -9 -11q-147 28 -198 28q-62 0 -177 -33q-255 -71 -255 -202q0 -30 16 -65q62 -136 302 -136q72 0 140 15q0 182 137 329q131 142 314 175q42 7 122 7q97 0 97 -77zM1397 1371q0 44 -47 44
q-70 0 -123 -30q-38 -20 -135 -90q-226 -163 -298 -316q-11 -24 -12 -39q192 39 360 142q255 155 255 289zM951 797q0 14 -31 31q-39 22 -121 22q42 -67 124 -67q28 0 28 14z" />
    <glyph glyph-name="afii10053" unicode="&#x404;" horiz-adv-x="1017" 
d="M1398 1363q0 -39 -19 -83q-56 -135 -160 -183q-89 -42 -191 -66l-196 -40q-158 -32 -248 -32q-83 -101 -170 -224q131 95 318 95h35q23 -1 34 -1q140 0 217 31q36 14 78 52.5t44 39.5q6 -1 10 -10v-3q0 -3 -37 -44q-159 -177 -360 -177q-15 0 -46 1h-45q-200 0 -306 -68
q-208 -313 -208 -457q0 -174 195 -174q148 0 290 102q117 83 158 137q61 80 61 199q0 50 -17 73q-34 48 -90 48q-6 0 -15 -1q-77 -13 -117 -35q-32 -18 -94 -77q-151 -143 -151 -272q0 -13 6 -37t6 -37q0 -4 -10 -4q-14 0 -25 42q-8 33 -8 54q0 18 7 49q57 263 321 336
q30 8 55 8q154 0 154 -160q0 -116 -66 -200q-45 -58 -161 -141q-159 -112 -318 -112q-121 0 -193 78q-70 75 -70 196q0 205 284 582q75 100 108 123q-318 64 -318 252q0 38 18 76q58 128 215 191q128 52 292 52q152 0 273 -48q14 -4 35 -22l-2 -3q-1 -4 -4 -4q13 0 -75 19
q-57 12 -137 12q-143 0 -278 -30q-175 -38 -247 -113q-31 -31 -51 -72q-15 -32 -15 -60q0 -171 306 -232q33 37 123 116q206 179 502 327q89 44 174 44q129 0 129 -113zM1361 1385q0 59 -63 59q-70 0 -138 -29q-57 -25 -207 -134q-163 -119 -186 -137q-87 -70 -164 -164
q65 1 159 23l158 38q116 24 237 68q79 28 141.5 110.5t62.5 165.5z" />
    <glyph glyph-name="afii10055" unicode="&#x406;" horiz-adv-x="1262" 
d="M1898 1562q0 -39 -63 -56q-54 6 -54 47q0 65 60 65q57 0 57 -56zM2138 1439q-2 -8 -20 -18q-82 -48 -156 -120q-161 -160 -339 -399q-138 -192 -277 -384q-161 -203 -343 -327q-286 -196 -565 -196q-62 0 -106 10q-113 22 -188 110t-75 202q0 218 203 356q54 36 132 72
q107 48 216 48q118 0 186 -63.5t68 -179.5q0 -134 -125 -232q-117 -92 -255 -92q-108 0 -170 64q-3 4 -3 9q0 8 9 12q14 -9 37 -22q52 -29 102 -29q118 0 243 102q131 106 131 222q0 94 -70 144q-61 43 -159 43q-116 0 -237.5 -61.5t-196.5 -153.5q-86 -107 -86 -239
q0 -94 72 -179q94 -110 290 -110q90 0 176 31q149 53 277 157q100 82 215 220q100 124 200 249q217 264 544 574q-120 -92 -155 -114q-104 -66 -172 -66q-41 0 -70 25.5t-29 66.5q0 37 65.5 107t65.5 103q0 43 -81 43q-115 0 -231 -54q-94 -43 -175 -115q-103 -92 -103 -170
q0 -91 62 -91q64 0 158 67q152 110 152 214q0 8 -4 23.5t-4 23.5q0 12 11 12q26 0 26 -76q0 -92 -107 -192.5t-198 -100.5q-120 0 -120 109q0 89 104 188q80 76 184 128q121 60 228 60q184 0 184 -110q0 -63 -63 -119.5t-63 -93.5q0 -19 43 -19q49 0 241 138q46 29 135 89
q44 33 88 65q66 48 89 48q1 0 5 -1z" />
    <glyph glyph-name="afii10056" unicode="&#x407;" horiz-adv-x="1262" 
d="M2018 1562q0 -39 -63 -56q-54 6 -54 47q0 65 60 65q57 0 57 -56zM1793 1562q0 -39 -63 -56q-54 6 -54 47q0 65 60 65q57 0 57 -56zM2138 1439q-2 -8 -20 -18q-82 -48 -156 -120q-161 -160 -339 -399q-138 -192 -277 -384q-161 -203 -343 -327q-286 -196 -565 -196
q-62 0 -106 10q-113 22 -188 110t-75 202q0 218 203 356q54 36 132 72q107 48 216 48q118 0 186 -63.5t68 -179.5q0 -134 -125 -232q-117 -92 -255 -92q-108 0 -170 64q-3 4 -3 9q0 8 9 12q14 -9 37 -22q52 -29 102 -29q118 0 243 102q131 106 131 222q0 94 -70 144
q-61 43 -159 43q-116 0 -237.5 -61.5t-196.5 -153.5q-86 -107 -86 -239q0 -94 72 -179q94 -110 290 -110q90 0 176 31q149 53 277 157q100 82 215 220q100 124 200 249q217 264 544 574q-120 -92 -155 -114q-104 -66 -172 -66q-41 0 -70 25.5t-29 66.5q0 37 65.5 107
t65.5 103q0 43 -81 43q-115 0 -231 -54q-94 -43 -175 -115q-103 -92 -103 -170q0 -91 62 -91q64 0 158 67q152 110 152 214q0 8 -4 23.5t-4 23.5q0 12 11 12q26 0 26 -76q0 -92 -107 -192.5t-198 -100.5q-120 0 -120 109q0 89 104 188q80 76 184 128q121 60 228 60
q184 0 184 -110q0 -63 -63 -119.5t-63 -93.5q0 -19 43 -19q49 0 241 138q46 29 135 89q44 33 88 65q66 48 89 48q1 0 5 -1z" />
    <glyph glyph-name="afii10062" unicode="&#x40e;" horiz-adv-x="1038" 
d="M1594 1445q0 -65 -65 -105q-56 -34 -126 -34q-75 0 -125 36q-56 40 -56 112q0 42 27.5 74.5t69.5 32.5q75 0 75 -72q0 -45 -54 -67v-3q0 -29 24.5 -52t53.5 -23q148 0 148 106q0 28 -16.5 51.5t-43.5 22.5q-2 0 -7 -1h-6q-10 0 -10 7q0 15 34 15q32 0 55 -35
q22 -31 22 -65zM1866 1412q0 -54 -38 -92q-23 -23 -84.5 -57.5t-84.5 -56.5q-131 -128 -289 -328q-105 -133 -264 -327q-101 -124 -357 -485q92 24 214 123q83 68 88 68q12 0 12 -12q0 -4 -6 -9q-54 -45 -167 -127q-48 -29 -162 -75q-108 -146 -217 -293
q-125 -162 -251 -268q-225 -187 -364 -187q-108 0 -108 109t81 219q144 195 418 306q157 64 269 86q9 2 17 5q37 45 110 135q26 32 114 132q139 167 424 495q84 92 208 252q-123 -121 -369 -361q-101 -99 -172 -160q-144 -123 -247 -123q-61 0 -107.5 42t-46.5 101
q0 77 37 138q58 97 261 272q275 235 275 381q0 57 -39 93t-96 36q-84 0 -165.5 -36t-168.5 -104q-216 -168 -216 -306q0 -72 80 -72q75 0 192 103q95 83 153 169q27 38 27 80q0 12 -7.5 34.5t-7.5 33.5q0 7 12 7q13 0 24 -28q9 -24 9 -39q0 -120 -131.5 -259t-249.5 -139
q-123 0 -123 111q0 92 78 188q50 61 147 134.5t170 105.5q83 37 171 37q94 0 155 -53q65 -56 65 -149q0 -99 -111 -241q-71 -91 -231 -245q-163 -158 -202 -207q-27 -33 -27 -81q0 -73 94 -73q42 0 86 22q70 35 156.5 111t339.5 326l162 156q94 92 151.5 165t107.5 130
q28 37 89 104q30 28 62 28q17 0 33.5 -14.5t16.5 -30.5zM550 -17q-326 -84 -572 -352q-87 -95 -99 -113q-49 -68 -49 -138q0 -54 73 -54q67 0 160 84q84 77 268 303q48 58 142 174q25 33 77 96z" />
    <glyph glyph-name="afii10017" unicode="&#x410;" horiz-adv-x="1640" 
d="M2207 1280q0 27 -55 27q-33 0 -135 -90l-141 -125q-111 -97 -224.5 -208t-233.5 -240q-29 -30 -81 -90q12 -29 12 -92q0 -116 -37 -227q131 173 287 359t342 389q85 88 248 263q18 21 18 34zM1301 569q-30 60 -81 60q-47 0 -73 -77q-18 -56 -18 -115v-18t1 -18
q82 76 171 168zM1322 446q0 43 -6 72q-2 4 -3 12q-37 -40 -80.5 -84t-95.5 -94q9 -59 39 -110q38 -63 85 -75q23 33 44 134q8 46 12.5 82t4.5 63zM464 -8q-102 0 -186.5 21.5t-145 63t-93.5 100t-33 131.5q0 46 17 95t48.5 96t77.5 88.5t105.5 72.5t131 48.5t154.5 17.5
q78 0 133 -21t90.5 -54.5t51.5 -76.5t16 -87q0 -51 -22.5 -105t-67 -98.5t-111.5 -72.5t-156 -28q-30 0 -58.5 5.5t-52.5 12.5t-42 14t-28 10q0 7 4.5 15t15.5 7q6 0 15.5 -1t35.5 -1q85 0 164 13.5t140 44t98 80t37 120.5q0 42 -19 77t-53 60t-81 38.5t-102 13.5
q-43 0 -97.5 -10t-110.5 -30.5t-109 -52t-95 -73.5t-67.5 -96t-25.5 -119q-1 -66 26 -112.5t68.5 -78t92 -50t98.5 -28t87 -12t57 -2.5q151 0 327 109q108 66 280 216q-6 33 -6 71q0 161 91 212q29 17 56 17q65 0 101 -63q165 175 261 276t122 127q226 224 427 357
q143 95 198 95q35 0 35 -33q0 -32 -55 -102l-519 -657q-45 -58 -143.5 -186.5t-251.5 -331.5q91 0 180 51q88 51 77 51q4 0 9 -3q1 -1 1 -2t1 -3q0 -6 -8 -14q-107 -102 -242 -102q-18 0 -34 3l-84 -114l-143 -7v22l95 132q-124 54 -158 160q-60 -54 -123.5 -102t-132.5 -91
q-169 -105 -291 -119q-20 -2 -39.5 -3.5t-38.5 -1.5z" />
    <glyph glyph-name="afii10018" unicode="&#x411;" horiz-adv-x="2007" 
d="M2544 1451q0 -2 -24 -30q-152 -91 -338 -91q-97 0 -290 21q-194 21 -291 21q-149 0 -266 -38q-122 -41 -272 -173q-167 -149 -167 -258q0 -53 39 -93t90 -40q65 0 146 38q115 54 245 183q151 148 151 247q0 16 -8 42q-7 22 -7 23q0 10 9 10q15 0 29 -44q12 -38 12 -58
q0 -102 -107 -226q-212 -242 -459 -242q-65 0 -115 50q-50 52 -50 116q0 38 22 82q93 193 313 320q202 116 432 137q25 2 55.5 3.5t67.5 1.5q64 0 121.5 -4.5t109.5 -12.5q131 -20 210 -30.5t108 -10.5q71 0 117 20q112 48 102 48q15 0 15 -12zM447 14q123 0 254.5 54.5
t257.5 163.5q136 118 375 418q38 48 86.5 108t106.5 132q204 249 435 425q4 3 6 3q12 0 12 -11q0 -5 -4 -9q-32 -29 -76.5 -76t-102.5 -111q-29 -37 -100.5 -137.5t-187.5 -265.5q206 161 330 161q87 0 133 -64q42 -59 42 -147q0 -157 -98 -321q-42 -72 -97 -135.5
t-124 -121.5q-115 -97 -235 -97q-179 0 -179 174q0 132 77 254q72 115 190 187q83 50 160 50q68 0 68 -21q0 -10 -9 -10q-8 0 -24.5 4.5t-24.5 4.5q-121 0 -266 -180q-138 -173 -138 -297q0 -50 23 -87q27 -42 76 -42q85 0 201 117q89 91 150 193l104 176q66 111 66 206
q0 125 -121 125q-101 0 -243 -109q-20 -14 -47 -36t-62 -53q0 -1 -26 -36q-87 -122 -154 -196q-158 -179 -372 -297q-236 -130 -453 -130q-104 0 -188.5 23t-144.5 66.5t-92 105.5t-32 141q0 50 16.5 102.5t47 103t75.5 95t102.5 78t127.5 53t150 18.5q76 0 129.5 -22.5
t87.5 -59t49.5 -82.5t15.5 -94q0 -55 -22 -113t-65.5 -105.5t-108 -77.5t-151.5 -30q-29 0 -56.5 5.5t-50.5 13t-41 15t-28 10.5q0 8 5 16.5t16 7.5q5 0 14.5 -1t34.5 -1q82 -1 159 13.5t136 47.5t95 86t36 130q0 46 -18.5 84t-51.5 65t-78 41.5t-99 14.5q-42 0 -95 -10.5
t-107.5 -33t-106 -56.5t-92 -79.5t-65.5 -103.5t-25 -128q-1 -71 24.5 -121.5t65.5 -84.5t89 -53.5t95 -29.5t83 -13t55 -3z" />
    <glyph glyph-name="afii10019" unicode="&#x412;" horiz-adv-x="1856" 
d="M434 -8q-96 5 -177.5 29.5t-140.5 68t-91.5 105.5t-32.5 143q0 51 15 104.5t44.5 103.5t72 94.5t97.5 77t122.5 51t145.5 18.5q74 0 128 -21t89 -55.5t52 -79.5t17 -94q0 -57 -21.5 -116.5t-63.5 -108.5t-105.5 -80t-148.5 -31q-29 0 -55.5 6t-49.5 13.5t-40.5 15
t-26.5 10.5q0 8 4.5 17t15.5 8q5 0 14 -1.5t34 -1.5q81 0 155.5 15t132.5 49t93 88.5t35 133.5q0 47 -18 86t-50 66.5t-76.5 42.5t-96.5 15q-41 0 -92.5 -10.5t-105 -33.5t-104 -58t-90 -82t-64 -106.5t-24.5 -131.5q-1 -73 24 -125t64.5 -87t88 -55t95 -30.5t85.5 -13.5
t60 -3q91 0 175 31q202 73 386 253q48 46 122.5 134t179.5 219q45 57 93.5 115.5t100.5 120.5q223 267 502 443q-121 94 -329 94q-129 0 -261 -49q-227 -81 -378 -214q-78 -67 -121 -161q-29 -64 -29 -113q0 -121 141 -121q85 0 177 54q200 119 307 287q40 62 40 132
q0 13 -4 32t-4 28q0 8 13 8q24 0 24 -83q0 -61 -37 -132q-57 -110 -126 -177q-74 -71 -178 -121q-114 -53 -207 -53q-168 0 -168 142q0 57 31 123q44 99 126 170q63 54 136 100.5t160 84.5q189 83 336 83q227 0 372 -100q157 96 299 123q4 1 6.5 1h3.5q17 0 17 -16
q0 -18 -21 -24q-8 -1 -20.5 -3t-29.5 -5q-112 -20 -230 -93q129 -107 129 -255q0 -147 -128 -257q-112 -95 -268 -128q78 -86 78 -195q0 -146 -98 -288q-164 -233 -362 -233q-180 0 -180 167q0 134 123 269t253 135q60 0 60 -17q0 -6 -7 -7q-11 4 -35 4q-46 0 -125 -48
q-42 -25 -81 -64t-77 -94q-81 -117 -81 -205q0 -22 7.5 -41.5t21 -34.5t32 -23.5t39.5 -8.5q98 0 220 152q90 111 151 243q54 118 54 205q0 48 -19 79q-40 -10 -85 -10q-113 0 -113 54q0 36 58 36q73 0 141 -54q119 37 222 187q101 146 101 274q0 82 -56 141
q-103 -69 -204 -173.5t-202 -247.5q-23 -29 -57 -74t-79 -105q-72 -103 -126.5 -175t-91.5 -115q-121 -138 -273 -242q-289 -197 -561 -197zM1737 716q-43 40 -122 40q-33 0 -33 -16q0 -14 37 -24q34 -8 51 -8q15 0 31.5 2t35.5 6z" />
    <glyph glyph-name="afii10020" unicode="&#x413;" horiz-adv-x="1292" 
d="M2444 1409q0 -11 -9 -9q-128 -78 -279 -78q-51 0 -125 6t-174 19t-175 19.5t-126 6.5q-150 0 -267 -38q-127 -42 -273 -172q-165 -147 -165 -258q0 -53 38 -94q39 -40 91 -40q63 0 144 40q111 52 245 181q154 148 154 248q0 15 -8 41t-8 23q0 5 4 7.5t7 2.5q5 0 12 -7
q28 -60 28 -101q0 -93 -110 -220q-58 -67 -108 -109q-158 -131 -349 -131q-65 0 -115 50q-49 50 -49 117q0 57 52 140q22 35 46 64.5t50 54.5q301 282 739 282q65 0 122.5 -4t109.5 -12q129 -20 208 -30.5t110 -10.5q23 0 51.5 3t60.5 10q53 11 56 11q12 0 12 -12zM404 -14
q134 -2 273 48t285 149q192 131 282 232q41 45 85.5 104t95.5 132q42 62 83.5 123t83.5 123q139 199 348 384q5 5 5 8q0 12 -11 12q-5 0 -144 -105q-222 -165 -513 -531q-118 -147 -192.5 -236.5t-107.5 -122.5q-179 -182 -387 -255q-87 -31 -178 -31q-18 0 -54.5 2.5
t-80.5 12t-91 28.5t-85 52.5t-62.5 84t-23.5 122.5q0 71 26 130t68 106t95.5 82.5t110 58.5t110.5 34.5t96 11.5q54 0 100 -15t79 -42t51.5 -65t18.5 -84q0 -78 -36 -131.5t-96 -87t-137 -48t-160 -14.5q-25 0 -35 1t-15 1q-11 1 -15.5 -7.5t-4.5 -16.5q9 -3 27 -10.5
t41.5 -15t51.5 -13.5t57 -6q87 0 152.5 30.5t109 79t65.5 107t22 113.5q0 48 -14.5 92.5t-47.5 79t-85.5 55t-128.5 20.5q-81 0 -151.5 -18.5t-129.5 -50.5t-105 -75.5t-78 -92.5t-49 -101.5t-17 -102.5q0 -80 30 -142.5t85 -106t131 -67.5t167 -25z" />
    <glyph glyph-name="afii10021" unicode="&#x414;" horiz-adv-x="1559" 
d="M2069 1391q0 -7 -60 -30q-128 -49 -234 -150q19 -57 19 -113q0 -79 -37 -201q-75 -250 -272.5 -482t-432.5 -346q-93 -45 -207 -71q-71 -15 -111 -15q-47 0 -90.5 17.5t-86.5 36.5q-143 -40 -280 -40q-151 0 -208 43q-38 29 -38 58q0 59 77 92q59 25 127 25
q145 0 407 -120q327 146 693 702q76 116 163 217q96 113 245 221q-44 97 -116 136q-65 35 -178 35q-166 0 -325 -117q-276 -204 -432 -441q-69 -104 -69 -198q0 -52 39.5 -96t90.5 -44q103 0 257 118q124 94 211 203q97 121 97 224q0 82 -56 82q-101 0 -231 -151
q-31 -35 -125 -129q-35 -35 -46 -88q-2 -11 -10 -101q-1 -13 -10 -12l-4 -2q-17 0 -17 86q0 72 38 137q61 102 168 192q125 106 222 106q102 0 102 -108q0 -65 -18 -108q-61 -145 -240 -304q-194 -173 -333 -173q-204 0 -204 222q0 202 210 415q184 188 400 269
q127 48 252 48q269 0 346 -189q151 107 292 156q1 0 4 1q11 0 11 -13zM1772 1097q0 48 -13 96q-91 -94 -170 -211q-107 -165 -331 -488q-98 -131 -232 -234q-80 -62 -218 -128q-42 -20 -126 -54q76 -31 127 -31q88 0 219 47q168 59 339 228q147 144 257 325q70 116 112 256
q36 125 36 194zM525 53q-231 102 -346 102q-105 0 -105 -54q0 -26 33 -50q47 -34 174 -34q113 0 244 36z" />
    <glyph glyph-name="afii10022" unicode="&#x415;" horiz-adv-x="1032" 
d="M1418 1368q0 -46 -39 -107q-75 -120 -268 -222q-168 -88 -332 -120q0 -23 8 -45q100 0 144 -26q4 -4 14 -9q30 -23 30 -43q0 -34 -52 -34q-108 0 -152 86q-185 -23 -397 -232q-219 -216 -219 -398q0 -91 59 -150t151 -59q104 0 186 34q155 63 271 183q130 134 153 284
q2 15 2 26q0 111 -108 111q-104 0 -190 -74q-258 -220 -258 -352q0 -31 10.5 -57t21.5 -51l-3 -9q-2 0 -4 -1q-31 0 -49 52q-13 40 -13 78q0 6 2 18q24 183 153 300q137 125 307 125q155 0 155 -126q0 -14 -3 -32q-14 -87 -39 -138q-78 -153 -247 -272q-177 -125 -340 -125
q-113 0 -205 71q-102 80 -102 245q0 178 171 354q194 198 525 219q-8 21 -10 41q-56 -16 -144 -16q-251 0 -320 149q-21 47 -21 84q0 20 6 39q31 104 170 170q120 58 242 58q173 0 241 -51q4 -4 4 -8q0 -9 -9 -11q-147 28 -198 28q-62 0 -177 -33q-255 -71 -255 -202
q0 -30 16 -65q62 -136 302 -136q72 0 140 15q0 182 137 329q131 142 314 175q42 7 122 7q97 0 97 -77zM1397 1371q0 44 -47 44q-70 0 -123 -30q-38 -20 -135 -90q-226 -163 -298 -316q-11 -24 -12 -39q192 39 360 142q255 155 255 289zM951 797q0 14 -31 31q-39 22 -121 22
q42 -67 124 -67q28 0 28 14z" />
    <glyph glyph-name="afii10024" unicode="&#x416;" horiz-adv-x="2396" 
d="M3245 1343q0 -74 -66 -74q-67 0 -67 66t67 66q17 0 30 -6q-39 44 -119 44q-197 0 -698 -594q-33 -39 -62 -72q-105 -122 -229 -326q-149 -246 -149 -350q0 -75 91 -75q106 0 360 223q8 3 13 3q1 -1 5 -2v-5q0 -10 -6 -17q-181 -185 -306 -216q-30 -8 -66 -8
q-72 0 -119 52t-47 125q0 104 87 263q138 252 401 520q260 266 511 413q-225 -77 -469 -298q-142 -129 -386 -408q-204 -234 -340 -366q-202 -196 -467 -296q-5 -2 -6 -2q-12 0 -12 12q0 5 9 11q138 109 244.5 247.5t244.5 339.5q160 231 320 436q172 220 381 357
q-185 -73 -340 -225q-130 -127 -304 -325q-178 -204 -351 -374q-243 -237 -578 -356q-340 -120 -530 -120q-41 0 -75 5q-93 12 -162 72q-75 66 -75 155q0 123 100 123q37 0 65 -21q32 -23 32 -59q0 -67 -67 -67q-66 0 -66 66q0 42 39 60h-7h-8q-34 0 -53 -37
q-15 -30 -15 -67q0 -98 98 -159q84 -54 188 -54q119 0 328 77q125 45 225 100q315 171 562 549q181 277 181 449q0 111 -62.5 179t-172.5 68q-168 0 -310 -93q-130 -86 -227 -217q-113 -152 -113 -285q0 -73 41 -124q44 -56 115 -56q116 0 248 108q116 96 179 213
q38 72 38 155q0 57 -25 128q-1 1 -1 4q0 5 9 9q7 0 11 -6q49 -77 49 -172q0 -163 -158.5 -314t-321.5 -151q-93 0 -149 58t-56 151q0 69 34 147q79 183 245 318q181 148 366 148q145 0 237 -62q105 -70 115 -207q1 -21 1 -48q0 -402 -529 -808q-118 -90 -240 -159
q266 107 465 299q119 114 357 379q228 253 360 377q193 180 409 223h3q9 0 9 -12q0 -4 -4 -7q-124 -78 -237 -226q-95 -125 -274 -382t-272 -380q-159 -209 -340 -344q199 113 347 264q249 277 497 553q302 319 586 444q203 90 280 90q62 0 105 -27q49 -31 49 -90z" />
    <glyph glyph-name="afii10025" unicode="&#x417;" horiz-adv-x="1319" 
d="M1687 1246q0 -205 -205 -375q-93 -78 -284 -131q30 -28 54 -94q23 -62 23 -107q0 -161 -148 -308q-128 -128 -297 -188q-179 -63 -360 -63q-93 0 -183 24q-95 26 -164 89q-80 73 -80 162q0 164 140 164q69 0 69 -75q0 -67 -67 -67q-68 0 -68 67q0 4 2 11t3 10l-2 2
q-51 -20 -51 -107q0 -81 84 -150q71 -59 159 -81q69 -17 135 -17q183 0 358 107q160 98 272 259q100 143 100 241q0 67 -23 109q-88 -18 -137 -18q-146 0 -146 75q0 51 93 51q115 0 213 -74q133 55 278 231q155 186 155 320q0 88 -53.5 139.5t-141.5 51.5q-112 0 -232 -77
q-115 -74 -173 -174q-33 -55 -33 -125q0 -44 29 -77q29 -36 72 -36q50 0 88 17q60 27 142.5 132.5t82.5 167.5q0 22 -13 40t-13 21q0 7 10 11q47 -18 47 -100q0 -119 -102 -216t-222 -97q-63 0 -103.5 39.5t-40.5 102.5q0 101 87 201q70 81 176 141q92 52 199 52
q123 0 197 -79t74 -202zM1139 748q-25 27 -82 47q-53 19 -94 19q-60 0 -60 -32q0 -49 116 -49q66 0 120 15z" />
    <glyph glyph-name="afii10026" unicode="&#x418;" horiz-adv-x="1130" 
d="M1835 1380q0 -133 -199 -337q-121 -123 -292 -266q-201 -168 -315 -227q-328 -432 -328 -509q0 -26 39 -26q75 0 173 58q63 38 149 109q70 58 76 58q10 0 10 -13q-25 -43 -143 -123q-106 -72 -167 -96.5t-82 -24.5q-50 0 -90 29q-43 32 -43 80q0 86 148 282
q-110 -105 -312 -271q-132 -109 -258 -109q-140 0 -140 144q0 51 19 91q59 130 256 331q10 10 312 297q147 140 237 251q69 85 69 190q0 63 -53 96q-45 28 -111 28q-167 0 -374 -163q-215 -171 -215 -330q0 -111 94 -111q76 0 216 122q120 106 175 192q33 50 33 98
q0 31 -8 50q-1 2 -8.5 12t-7.5 12q0 11 13 11q32 0 32 -95q0 -136 -115 -258q-102 -108 -242 -159q-38 -13 -66 -13q-62 0 -99.5 40t-37.5 102q0 170 223 344q212 166 387 166q102 0 159.5 -60t57.5 -162q0 -198 -262 -444l-203 -191q-197 -185 -249 -241
q-174 -186 -174 -270q0 -60 82 -60q112 0 249 111q166 134 286 247q35 29 95 84q36 50 106 142q357 458 688 771q88 82 153 82q57 0 57 -71zM1811 1382q0 39 -30 39q-39 0 -120 -78q-72 -69 -160 -181l-148 -190q-82 -109 -248 -324q-15 -18 -44 -55q11 7 24 15
q355 250 611 581q115 149 115 193z" />
    <glyph glyph-name="afii10027" unicode="&#x419;" horiz-adv-x="1117" 
d="M1436 1445q0 -65 -65 -105q-55 -34 -125 -34q-75 0 -125 36q-57 40 -57 112q0 42 28 74.5t69 32.5q76 0 76 -72q0 -45 -54 -67v-3q0 -29 24.5 -52t53.5 -23q148 0 148 106q0 28 -17 51.5t-43 22.5q-3 0 -7 -1h-7q-10 0 -10 7q0 15 34 15q32 0 56 -35q21 -31 21 -65z
M1822 1392q0 -45 -26 -99q-72 -147 -252 -318q-95 -90 -315 -265q-169 -134 -212 -147q-331 -423 -331 -509q0 -26 41 -26q167 0 334 160q23 24 59 51q10 -2 10 -11q0 -5 -55 -55q-66 -60 -157 -113q-111 -65 -176 -65q-53 0 -90 28q-41 30 -41 81q0 89 147 282
q-110 -104 -312 -270q-136 -111 -255 -111q-66 0 -105 39.5t-39 105.5q0 52 19 92q63 133 257 331q13 13 312 296q151 144 236 249q69 86 69 191q0 61 -54 96q-46 30 -110 30q-165 0 -372 -163q-216 -171 -216 -329q0 -46 23 -78q26 -37 70 -37q75 0 216 124
q121 108 176 193q32 50 32 98q0 30 -7 49q-2 3 -10 12.5t-8 11.5q0 11 15 11q32 0 32 -95q0 -217 -251 -369q-101 -61 -171 -61q-61 0 -100 40t-39 101q0 169 222 344q213 167 389 167q103 0 160 -58t57 -161q0 -200 -263 -447l-202 -190q-217 -207 -223 -212
q-136 -140 -183 -238q-17 -37 -17 -60q0 -62 82 -62q112 0 249 111q157 127 287 247q33 27 94 85q38 50 107 141q193 252 406 481q91 98 280 288q89 84 152 84q59 0 59 -71zM1799 1394q0 39 -33 39q-58 0 -222 -192l-204 -256q-127 -159 -249 -324q-14 -20 -43 -57
q440 305 714 705q37 53 37 85z" />
    <glyph glyph-name="afii10028" unicode="&#x41a;" horiz-adv-x="1844" 
d="M2836 1343q0 -69 -70 -69q-69 0 -69 69q0 66 66 69q-23 26 -85 26q-16 0 -28.5 -0.5t-22.5 -1.5q-105 -7 -229 -106q-98 -79 -177 -187q-117 -160 -201 -238q-121 -112 -267 -154q34 -55 34 -124q0 -113 -128 -262q-201 -236 -201 -300q0 -54 53 -54q67 0 198 113
q132 114 135 114q4 0 9 -3l3 -9l-153 -136q-45 -41 -117 -79q-44 -23 -85 -23q-54 0 -88 49q-31 43 -31 98q0 82 92 207q43 52 85 103t85 103q92 113 92 163q0 16 -8 34q-38 -9 -73 -9q-79 0 -79 54q0 38 55 38q50 0 109 -60q80 20 191 150q38 51 77 101t78 101
q28 37 57.5 69t60.5 60q139 127 285 178q93 34 174 34q173 0 173 -118zM1718 762q-44 50 -87 50q-30 0 -30 -32q0 -22 58 -22q16 0 30.5 1t28.5 3zM438 -5q-79 4 -150.5 28t-125.5 67t-85.5 105t-31.5 142q0 76 39.5 155.5t110.5 144t170.5 105.5t221.5 40q76 0 127 -21.5
t82 -56.5t43.5 -79.5t11.5 -90.5q-1 -56 -22.5 -115t-65 -107.5t-109 -79.5t-152.5 -31q-29 0 -57 6t-51 13.5t-41 15t-28 11.5q0 8 4.5 16.5t15.5 7.5q6 0 15 -1.5t35 -1.5q83 0 160.5 14.5t137 48.5t95.5 88t36 132q0 46 -18.5 84.5t-52 66t-79.5 42.5t-100 15
q-43 0 -95.5 -11t-107.5 -33.5t-107 -57t-92.5 -81t-65.5 -105.5t-25 -130q-1 -73 22 -124t58.5 -86t79.5 -55.5t86 -31t76.5 -13.5t52.5 -3q92 0 176 31q148 52 277 157q99 81 215 220q51 63 100 124.5t100 124.5q217 264 544 574q-60 -46 -99 -74.5t-56 -39.5
q-104 -66 -172 -66q-42 0 -70.5 25t-28.5 67q0 36 65 107q66 70 66 103q0 43 -81 43q-116 0 -231 -54q-95 -44 -175 -115q-103 -91 -103 -170q0 -91 62 -91q64 0 158 67q152 110 152 214q0 8 -4 23.5t-4 23.5q0 12 11 12q26 0 26 -76q0 -92 -107 -193q-106 -100 -198 -100
q-120 0 -120 109q0 89 104 188q40 38 86 70t98 58q121 60 228 60q184 0 184 -110q0 -63 -63 -120q-63 -56 -63 -93q0 -19 43 -19q49 0 241 138q23 14 56.5 36.5t78.5 52.5q22 17 44 33l44 32q66 48 89 48q2 0 5 -1l4 -8q-1 -7 -20 -18q-83 -48 -156 -120
q-161 -161 -339 -399q-70 -97 -139 -192t-138 -192q-81 -102 -166.5 -183t-176.5 -144q-144 -99 -284.5 -151t-280.5 -45z" />
    <glyph glyph-name="afii10029" unicode="&#x41b;" horiz-adv-x="1813" 
d="M403 -22q-71 -2 -139 20t-121 66t-85 107.5t-32 143.5q0 51 16.5 103.5t47 102t74 93t99.5 76t123 51.5t143 18q72 0 121 -21t79.5 -55t43.5 -79t13 -93q0 -56 -21 -115t-62 -107.5t-102.5 -79.5t-143.5 -31q-27 0 -53.5 6t-48.5 13.5t-39 15t-26 10.5q0 8 4.5 17t14.5 8
q5 0 14 -1.5t33 -1.5q78 0 151 14.5t129 48.5t90 88t34 132q0 47 -17.5 85.5t-48.5 65.5t-74 42t-94 15q-40 0 -90 -11t-102 -33.5t-101 -57t-87.5 -81t-62 -105.5t-23.5 -130q-1 -73 20 -123.5t54 -84t73.5 -53t79 -29t71 -12t48.5 -2.5q183 0 428 177q179 130 419 381
q85 90 170 179t170 180q89 88 217 190q51 43 101.5 85.5t101.5 85.5q114 95 218 156q46 28 67 28q52 0 52 -45q0 -47 -44 -97q-50 -53 -144 -162q-99 -117 -208.5 -257.5t-234.5 -307.5q-331 -443 -331 -524q0 -52 65 -52q113 0 359 207q11 0 11 -11q0 -5 -3 -8
q-37 -37 -82.5 -72.5t-101.5 -70.5q-131 -82 -210 -82q-57 0 -97 28q-46 33 -46 87q0 117 196 380q20 27 50 67t70 94q55 70 270 315q31 35 64.5 70.5t68.5 70.5q33 35 82.5 86t116.5 120q11 11 28 27.5t40 39.5q20 23 20 36q0 23 -20 23q-49 0 -242 -172
q-118 -105 -204 -182t-141 -128q-95 -88 -177 -169.5t-152 -157.5q-116 -126 -202.5 -212.5t-144.5 -137.5q-196 -170 -416 -262q-48 -20 -94.5 -28.5t-92.5 -10.5z" />
    <glyph glyph-name="afii10030" unicode="&#x41c;" horiz-adv-x="2027" 
d="M434 28q34 0 59.5 2.5t47.5 8.5t43 15t46 21q38 19 81.5 48t94.5 68q229 177 550 525q60 64 108 114t86 87q122 119 430 361q91 71 245 158q25 15 32 15q18 0 18 -19q0 -9 -7.5 -18.5t-29.5 -29.5q-26 -24 -62 -60.5t-81 -86.5q-88 -96 -186 -213t-209 -259
q-145 -186 -248.5 -329t-167.5 -248q-64 -106 -64 -123q0 -14 12 -14q23 0 86 65q37 38 81.5 88t96.5 113q76 92 119 143.5t53 63.5q94 109 203 220.5t237 229.5q290 270 486 392q106 66 113 66q18 0 18 -16q0 -4 -5 -9q-49 -51 -120.5 -127t-166.5 -180
q-133 -159 -239.5 -296.5t-188.5 -255.5q-45 -63 -106.5 -156t-142.5 -220q-40 -71 -40 -103q0 -31 29 -31q13 0 46 18q16 7 51 27q48 31 129 109q16 16 49 46l7 4q12 -2 12 -12q0 -6 -68 -69q-175 -163 -281 -163q-88 0 -88 90q0 44 14 84q68 196 441 605q57 63 113.5 126
t113.5 126q67 73 126 133t112 109q18 14 43 37t57 55q-474 -321 -937 -853q-48 -60 -120.5 -147t-170.5 -205q-34 -40 -52 -60.5t-20 -22.5q-48 -50 -88 -61q-22 -5 -50 -5q-46 0 -55 22q-20 48 -20 76q0 82 160 297q86 116 171 220.5t171 200.5q66 73 202 208t345 336
q-132 -87 -288.5 -217.5t-339.5 -309.5q-106 -110 -210 -219t-209 -219q-255 -255 -476 -360q-114 -55 -252 -55q-65 6 -129 30t-115 65t-82 100t-31 134q0 72 34 146.5t97 135t153 99t203 37.5q71 0 121.5 -19.5t82 -51.5t46 -74t14.5 -88q0 -53 -20.5 -108.5t-61 -101
t-101.5 -74.5t-142 -29q-27 0 -53 5.5t-48 12.5t-38.5 14t-25.5 10q0 8 4.5 16t14.5 7q5 0 14 -1t32 -1q77 0 149 14t127.5 45.5t89.5 82t34 124.5q0 44 -17.5 80.5t-48 62t-73 39.5t-93.5 14q-40 0 -89.5 -10t-100.5 -31.5t-99.5 -54t-86 -76t-61 -99.5t-23.5 -123
q-1 -68 22 -116.5t59 -81t80.5 -51.5t86 -29t75.5 -12.5t51 -2.5z" />
    <glyph glyph-name="afii10031" unicode="&#x41d;" horiz-adv-x="1521" 
d="M2418 1394q0 -33 -22 -81q-77 -170 -339 -322q-190 -110 -408 -154q-570 -682 -570 -772q0 -43 64 -43q80 0 232 107t149 107q9 0 9 -11q0 -3 -58 -55q-66 -60 -165 -116q-116 -66 -182 -66q-55 0 -91.5 31.5t-36.5 86.5q0 45 37 128q32 72 66 121q120 174 373 445
q-85 -16 -256 -45q-12 -19 -59 -84q-159 -219 -261 -326q-151 -160 -328 -257q-172 -94 -334 -94q-66 0 -97 14q-41 19 -66 74q-16 36 -16 72q0 79 101 198q81 95 195 160q218 123 391 170q121 24 362 73q39 42 127 127l266 258q92 91 257 226q-44 -31 -131 -94
q-121 -91 -125 -94q-79 -55 -135 -75q-30 -11 -69 -11t-69 26.5t-30 65.5q0 35 66.5 105.5t66.5 104.5q0 42 -88 42q-115 0 -238 -60q-115 -56 -198 -146q-66 -71 -66 -135q0 -89 63 -89q85 0 197 100t112 184q0 8 -4 23.5t-4 23.5q0 9 12 9q10 0 18 -33q7 -26 7 -41
q0 -91 -107 -193t-199 -102q-120 0 -120 111q0 89 104 187q79 75 184 128q120 60 222 60q191 0 191 -111q0 -60 -63 -118t-63 -92q0 -21 37 -21q48 0 131 56q78 56 239 164q43 25 124 80q27 22 56 45q12 0 12 -13q0 -5 -68 -62q-106 -85 -307 -267q-135 -137 -278 -345
q88 15 263 49q61 68 97 106q138 148 343 313q270 217 380 217q97 0 97 -70zM2384 1376q0 53 -58 53q-29 0 -82 -28q-259 -135 -573 -536q187 39 365 143q192 111 296 254q52 72 52 114zM1080 727q-109 -19 -325 -66q-160 -43 -312 -124q-175 -93 -266 -199
q-97 -113 -97 -184q0 -55 34.5 -95t88.5 -40q70 0 123 22q124 53 323 243q69 65 292 300q2 1 139 143z" />
    <glyph glyph-name="afii10032" unicode="&#x41e;" horiz-adv-x="1152" 
d="M1634 1237q0 -63 -46 -103t-110 -40q-72 0 -125 84q-6 10 -6 14q0 5 11 11q13 -14 27 -28q23 -24 60 -24q46 0 78 39.5t32 86.5q0 127 -217 127q-154 0 -393 -148q-209 -129 -399 -327q-193 -201 -307 -413q-101 -188 -101 -331q0 -181 206 -181q165 0 400 174
q220 163 382 387q171 236 171 401q0 52 -32 89t-82 37q-171 0 -380 -236q-45 -46 -131 -140q-105 -123 -147 -186q-79 -123 -79 -218q0 -35 12 -63q6 -4 6 -10q0 -11 -11 -12l-6 3q-34 50 -34 129q0 153 120 314q66 87 109 135q112 123 242 210q166 111 292 111
q142 0 142 -161q0 -103 -68 -240q-146 -296 -485 -562q-144 -113 -281 -157q-76 -24 -161 -24q-96 0 -167.5 60t-84.5 153q-5 32 -5 72q0 212 151 451q76 121 133 182q69 74 201 186q407 344 795 344q115 0 191 -40q97 -51 97 -156z" />
    <glyph glyph-name="afii10033" unicode="&#x41f;" horiz-adv-x="1897" 
d="M2684 1448q0 -10 -9 -9q-170 -123 -449 -123q-8 0 -37 2q-63 3 -285 23q-176 15 -285 15q-150 0 -267 -38q-135 -44 -276 -165q-163 -140 -163 -259q0 -54 38.5 -96.5t91.5 -42.5q59 0 144 39q113 53 246 182q153 148 153 247q0 17 -8 41.5t-8 22.5q0 8 7 10l16 -7
q28 -63 28 -101q0 -94 -110 -220q-209 -241 -457 -241q-65 0 -114.5 51.5t-49.5 117.5q0 38 18 80q96 224 375 352q242 112 514 112q110 0 397 -28q77 -7 141 -7q121 0 198 18l73 17q6 1 34 11q25 9 31 9q13 0 13 -13zM2408 1286q0 -12 -159 -163q-100 -95 -246 -281
q-104 -132 -298 -405q-45 -69 -132 -208q-65 -105 -65 -151q0 -50 56 -50q72 0 204 104t127 104q10 0 12 -12q-1 -3 -4 -6q-233 -220 -350 -220q-57 0 -96.5 37t-39.5 94q0 94 65 205q33 56 128 178q75 98 234 288q232 255 480 452q54 43 74 43q10 0 10 -9zM461 -14
q134 -2 273 48t285 149q192 131 282 232q41 45 85.5 104t95.5 132q42 62 83.5 123t83.5 123q139 199 348 384q5 5 5 8q0 12 -11 12q-5 0 -144 -105q-222 -165 -513 -531q-118 -147 -192.5 -236.5t-107.5 -122.5q-179 -182 -387 -255q-87 -31 -178 -31q-18 0 -54.5 2.5
t-80.5 12t-91 28.5t-85 52.5t-62.5 84t-23.5 122.5q0 71 26 130t68 106t95.5 82.5t110 58.5t110.5 34.5t96 11.5q54 0 100 -15t79 -42t51.5 -65t18.5 -84q0 -78 -36 -131.5t-96 -87t-137 -48t-160 -14.5q-25 0 -35 1t-15 1q-11 1 -15.5 -7.5t-4.5 -16.5q9 -3 27 -10.5
t41.5 -15t51.5 -13.5t57 -6q87 0 152.5 30.5t109 79t65.5 107t22 113.5q0 48 -14.5 92.5t-47.5 79t-85.5 55t-128.5 20.5q-81 0 -151.5 -18.5t-129.5 -50.5t-105 -75.5t-78 -92.5t-49 -101.5t-17 -102.5q0 -80 30 -142.5t85 -106t131 -67.5t167 -25z" />
    <glyph glyph-name="afii10034" unicode="&#x420;" horiz-adv-x="1469" 
d="M2328 1464q0 -14 -22 -19q-85 -17 -117 -27q-58 -16 -112 -46q129 -91 129 -265q0 -109 -77 -205q-73 -91 -179 -131q-40 -15 -74 -15q-76 0 -121 42.5t-45 118.5q0 89 96.5 190t184.5 101q66 0 66 -16q0 -8 -9 -8q-5 0 -14.5 1.5t-14.5 1.5q-93 0 -187 -109
q-90 -105 -90 -200q0 -90 99 -90q56 0 143 95q67 75 107 148q46 85 46 167q0 93 -80 163q-237 -137 -461 -455q-46 -59 -135 -179q-71 -104 -227 -302q-113 -127 -265 -230q-289 -197 -561 -197q-157 0 -260 82q-114 88 -114 240q0 193 181 339q170 137 368 137
q256 0 256 -240q0 -137 -126 -236q-117 -91 -258 -91q-116 0 -166 64q-1 2 -3 8q0 13 12 13q81 -50 136 -50q97 0 198 66q95 62 145 151q33 56 33 106q0 94 -70 144q-62 43 -159 43q-117 0 -239 -61t-197 -154q-85 -106 -85 -237q0 -99 71 -181q95 -110 290 -110
q329 0 665 393q63 73 200 244q87 109 193 237q234 279 552 473q-121 67 -335 67q-94 0 -164 -12q-174 -29 -343 -126q-186 -105 -270 -241q-58 -95 -58 -160q0 -129 121 -129q116 0 270 109q129 91 217 205q64 82 64 148q0 34 -18 68.5t-18 30.5q0 12 10 12q3 0 8 -4
q30 -31 36 -47t6 -63q0 -169 -193 -329q-185 -154 -358 -154q-167 0 -167 153q0 71 61 171q107 174 350 287q226 105 446 105q218 0 355 -81q170 97 259 97q18 0 18 -21z" />
    <glyph glyph-name="afii10035" unicode="&#x421;" horiz-adv-x="1017" 
d="M1399 1363q0 -39 -19 -83q-63 -148 -291 -276q-179 -100 -383 -153q-126 -32 -248 -32q-118 -143 -201 -294q-109 -198 -109 -331q0 -174 195 -174q150 0 291 102q118 85 204 199q105 140 105 258q0 51 -16 74q-35 48 -91 48q-90 0 -229 -120q-126 -107 -175 -200
q-34 -64 -34 -120q0 -13 6 -37t6 -36q0 -5 -10 -5q-14 0 -25 42q-8 33 -8 55q0 18 7 49q16 71 41 118q50 92 145.5 168t196.5 104q30 8 54 8q154 0 154 -157q0 -143 -147 -310q-132 -150 -280 -219q-104 -49 -209 -49q-121 0 -192 78q-71 75 -71 196q0 273 250 568
q-302 60 -302 249q0 38 17 77q57 127 215 191q129 52 292 52q152 0 273 -48q15 -4 36 -23l-2 -3q-1 -4 -4 -4q12 0 -75 19q-56 12 -137 12q-143 0 -279 -30q-175 -38 -247 -112q-30 -32 -50 -72q-16 -32 -16 -60q0 -170 294 -229q86 97 263 252q204 179 502 327
q89 44 174 44q129 0 129 -113zM1362 1385q0 59 -63 59q-70 0 -139 -29q-59 -26 -207 -134q-288 -211 -476 -441q356 8 680 261q205 160 205 284z" />
    <glyph glyph-name="afii10036" unicode="&#x422;" horiz-adv-x="2244" 
d="M3015 1524q0 -11 -65 -55q-198 -132 -579 -132q-66 0 -164.5 4.5t-230.5 14.5t-230.5 15t-164.5 5q-119 0 -225 -26q-140 -36 -280 -138q-152 -113 -198 -235q-13 -35 -13 -64q0 -53 38 -97q39 -42 92 -42q121 0 279 122q138 109 211 230q45 73 45 131q0 16 -8 24l-1 5
q3 11 13 11q21 0 21 -71q0 -79 -66 -188q-70 -115 -196 -200q-137 -93 -260 -93q-190 0 -190 161q0 139 142 272q303 288 795 288q60 0 149 -5t207 -15t206 -15t148 -5q239 0 365 35q36 11 137 69q4 3 11 3q12 0 12 -9zM2732 1321q0 -7 -170 -183q-117 -120 -252 -299
q-99 -131 -169 -231.5t-114 -172.5l-126 -209q-59 -103 -59 -146q0 -55 55 -55q73 0 213 105q139 105 134 105q12 0 12 -11q0 -7 -35 -39q-209 -188 -332 -188q-58 0 -98 37t-40 94q0 93 35 165q33 67 142 217q35 50 91 121.5t133 167.5q140 155 263.5 276t234.5 211
q52 43 70 43q12 0 12 -8zM2289 1283q-2 -9 -11 -18q-134 -143 -201 -239q-38 -55 -77 -114t-79 -124q-332 -543 -728 -799q-11 -6 -15 -6q-14 0 -14 15q0 5 8 13q105 83 216 215q37 45 78.5 101.5t87.5 126.5q38 60 77 118t77 118q183 271 424 493q118 109 143 109
q5 0 12 -5zM451 -14q134 -2 273 48t285 149q192 131 282 232q41 45 85.5 104t95.5 132q42 62 83.5 123t83.5 123q139 199 348 384q5 5 5 8q0 12 -11 12q-5 0 -144 -105q-222 -165 -513 -531q-118 -147 -192.5 -236.5t-107.5 -122.5q-179 -182 -387 -255q-87 -31 -178 -31
q-18 0 -54.5 2.5t-80.5 12t-91 28.5t-85 52.5t-62.5 84t-23.5 122.5q0 71 26 130t68 106t95.5 82.5t110 58.5t110 34.5t96.5 11.5q54 0 100 -15t79 -42t51.5 -65t18.5 -84q0 -78 -36 -131.5t-96 -87t-137 -48t-160 -14.5q-25 0 -35 1t-15 1q-11 1 -15.5 -7.5t-4.5 -16.5
q9 -3 27 -10.5t41.5 -15t51.5 -13.5t57 -6q87 0 152.5 30.5t109 79t65.5 107t22 113.5q0 48 -14.5 92.5t-47.5 79t-85.5 55t-128.5 20.5q-81 0 -151.5 -18.5t-129.5 -50.5t-105 -75.5t-78 -92.5t-49 -101.5t-17 -102.5q0 -80 30 -142.5t85 -106t131 -67.5t167 -25z" />
    <glyph glyph-name="afii10037" unicode="&#x423;" horiz-adv-x="1038" 
d="M1866 1412q0 -54 -38 -92q-23 -23 -84.5 -57.5t-84.5 -56.5q-131 -128 -289 -328q-105 -133 -264 -327q-101 -124 -357 -485q112 29 209 108q75 61 86 61q12 0 12 -12q0 -4 -6 -9q-63 -47 -160 -105q-48 -29 -162 -75q-108 -146 -217 -293q-125 -162 -251 -268
q-225 -187 -364 -187q-108 0 -108 109q0 108 81 219q144 195 418 306q157 64 269 86q9 2 17 5q37 45 110 135q26 32 114 132q139 167 424 495q84 92 208 252q-123 -121 -369 -361q-101 -99 -172 -160q-144 -123 -247 -123q-61 0 -107.5 42t-46.5 101q0 77 37 138
q58 97 261 272q275 235 275 381q0 57 -39 93t-96 36q-84 0 -165.5 -36t-168.5 -104q-216 -168 -216 -306q0 -72 80 -72q75 0 192 103q95 83 153 169q27 38 27 80q0 12 -7.5 34.5t-7.5 33.5q0 7 12 7q13 0 24 -28q9 -24 9 -39q0 -120 -131.5 -259t-249.5 -139
q-123 0 -123 111q0 92 78 188q50 61 147 134.5t170 105.5q83 37 171 37q94 0 155 -53q65 -56 65 -149q0 -99 -111 -241q-71 -91 -231 -245q-163 -158 -202 -207q-27 -33 -27 -81q0 -73 94 -73q42 0 86 22q70 35 156.5 111t339.5 326l162 156q94 92 151.5 165t107.5 130
q28 37 89 104q30 28 62 28q17 0 33.5 -14.5t16.5 -30.5zM550 -17q-326 -84 -572 -352q-87 -95 -99 -113q-49 -68 -49 -138q0 -54 73 -54q67 0 160 84q84 77 268 303q48 58 142 174q25 33 77 96z" />
    <glyph glyph-name="afii10038" unicode="&#x424;" horiz-adv-x="1785" 
d="M2175 1433q0 -26 -34 -75q-64 -94 -185 -156q-110 -58 -232 -72q-86 -117 -198 -285q72 76 185 138q127 69 218 69q71 0 119 -58q44 -54 44 -126q0 -112 -77 -223q-82 -120 -236 -225q-170 -115 -298 -115q-171 0 -171 155q0 53 22 104q-107 -142 -265 -271
q-164 -134 -321 -202q205 -65 346 -65q140 0 248 42q89 34 216 124q17 14 54 38q17 -6 17 -17q0 1 -86 -62q-134 -98 -243 -138q-120 -45 -270 -45q-169 0 -392 75q-141 -63 -358 -63q-69 0 -134 18q-93 25 -93 74q0 62 103 90q69 20 158 20q154 0 323 -56q21 -8 66 -22
q203 107 457 420q-74 -79 -187 -142q-127 -70 -220 -70q-24 0 -50 11q-114 45 -114 177q0 181 220 373q215 187 396 187q53 0 98 -24q51 -28 63 -74q6 -24 6 -60q0 -49 -21 -100q85 130 243 324q-106 6 -178 49q-90 54 -90 149q0 84 76 140q70 50 156 50q67 0 137 -26
q79 -31 110 -79l3 -8q-1 -11 -12 -11q-3 0 -7 5q-72 83 -228 83q-158 0 -207 -120q-8 -19 -8 -36q0 -82 95 -132q76 -41 169 -44q88 106 227 216q173 139 264 139q76 0 76 -68zM2147 1429q0 44 -58 44q-103 0 -347 -318q106 14 213 71q114 61 169 144q23 36 23 59zM2006 937
q0 38 -27 63.5t-66 25.5q-34 0 -85 -19q-100 -36 -151 -72q-118 -82 -217 -206q-119 -150 -119 -263q0 -126 98 -126q37 0 88 29q150 87 247 188q78 83 144 179q88 129 88 201zM1338 897q0 126 -97 126q-39 0 -87 -28q-64 -36 -120 -76q-105 -75 -224 -225
q-137 -173 -137 -270q0 -37 29.5 -62t67.5 -25q34 0 83 18q95 35 150 73q119 85 216 206q119 149 119 263zM599 56q-258 78 -385 78q-135 0 -135 -53q0 -79 217 -79q176 0 303 54z" />
    <glyph glyph-name="afii10039" unicode="&#x425;" horiz-adv-x="1475" 
d="M2336 1281q0 -75 -53 -169q-46 -82 -112 -140q-29 -25 -64 -45.5t-77 -36.5q-39 -16 -73 -16q-54 0 -88 28q-38 32 -38 83q0 86 103 189q104 104 189 104q19 0 52 -10q41 -11 41 -22q0 -12 -12 -12q1 0 -20 9t-37 9q-62 0 -178 -104q-115 -103 -115 -166q0 -86 104 -86
q29 0 71 17q37 16 68.5 35t57.5 41q160 139 160 297q0 140 -183 140q-109 0 -230 -90q-60 -45 -114 -90.5t-103 -93.5q-27 -27 -169 -202q-60 -73 -178 -226q25 1 93 6q29 2 52.5 3t40.5 1t17 -26q0 -19 -24 -19t-74 1t-128 3q-51 -67 -96.5 -134.5t-85.5 -137.5
q-111 -195 -111 -293q0 -100 104 -100q99 0 218 95q30 26 60.5 53t61.5 55q12 -1 13 -14q-15 -28 -123 -115q-131 -104 -253 -104q-66 0 -108 50q-39 46 -39 113q0 101 75 251q-241 -241 -530 -371q-101 -46 -190 -46q-118 0 -191 63q-77 66 -77 180q0 180 151 337
q152 158 330 158q36 0 65.5 -11.5t50 -33t32 -51t11.5 -65.5q0 -118 -117 -233q-116 -115 -234 -115q-58 0 -97 45q-6 6 -6 11t4 9q1 1 5 1q1 0 30 -24q29 -23 59 -23q36 0 85 31q233 149 233 311q0 128 -130 128q-162 0 -308 -158q-142 -154 -142 -317q0 -102 67 -160
q64 -56 166 -56q138 0 275 92q320 217 601 582h-43t-48 -1h-91q-13 0 -13 18q0 23 21 23q38 0 98 -3q40 -2 64.5 -3t33.5 -2q7 7 33 43q29 42 65 96t78 121q94 148 94 268q0 173 -177 173q-101 0 -223 -73q-103 -61 -188 -147q-104 -107 -104 -220q0 -86 97 -86q36 0 76 22
q49 27 111 72q29 21 58 51t58 69q67 89 67 148q0 14 -9 35q-8 22 -8 28t11 6q12 0 23 -35q8 -30 8 -46q0 -127 -129 -251q-127 -124 -255 -124q-129 0 -129 111q0 122 107 232q227 230 429 230q95 0 157 -48q67 -52 67 -147q0 -118 -69 -265q154 175 313 295
q220 165 381 165q198 0 198 -170z" />
    <glyph glyph-name="afii10040" unicode="&#x426;" horiz-adv-x="1167" 
d="M1841 1390q0 -184 -441 -553q-321 -268 -366 -270q-329 -439 -329 -510q0 -26 43 -26q152 0 387 249q10 10 19 10q17 0 17 -15q0 -13 -79.5 -85t-85.5 -133q1 15 1 -45q0 -78 -21 -122q-35 -75 -106 -124t-152 -49q-19 0 -56 -4.5t-56 -4.5q-14 0 -18 11l6 11l-3 7l3 2
q70 0 130 32q178 99 232 226q10 50 48 144q-95 -77 -172 -120q-40 -21 -91 -21q-49 0 -85 30.5t-36 78.5q0 55 54 145q0 1 90 135q-115 -109 -310 -270q-135 -111 -260 -111q-62 0 -101 41.5t-39 103.5q0 49 21 92q64 133 256 330q44 46 310 297q155 147 239 251
q69 86 69 190q0 62 -53 96q-45 29 -110 29q-164 0 -372 -162q-218 -169 -218 -329q0 -114 93 -114q76 0 216 122q122 107 177 193q30 48 30 99q0 34 -6 50q-2 2 -9.5 10.5t-7.5 11.5q0 13 14 13q32 0 32 -97q0 -136 -115 -258q-102 -107 -243 -158q-40 -14 -66 -14
q-62 0 -99 40.5t-37 102.5q0 167 221 342q212 168 388 168q102 0 160.5 -60.5t58.5 -162.5q0 -194 -264 -444q-68 -63 -202 -190q-195 -184 -223 -212q-139 -143 -183 -237q-18 -38 -18 -63q0 -60 83 -60q110 0 249 111q117 93 285 247q33 27 94 85q36 47 107 141
q341 440 689 771q87 83 152 83q59 0 59 -77zM1816 1398q0 38 -31 38q-40 0 -121 -78q-72 -69 -159 -180q-74 -95 -147 -190q-83 -109 -249 -324q-15 -19 -43 -56q11 7 23 15q349 246 611 582q116 148 116 193z" />
    <glyph glyph-name="afii10041" unicode="&#x427;" horiz-adv-x="1121" 
d="M1655 1438q0 -3 -5 -8q-188 -191 -421 -492q-250 -321 -430 -632q-32 -54 -64 -109q-37 -71 -37 -115q0 -63 70 -63q125 0 359 214q12 -1 12 -14q0 -3 -63 -67q-160 -164 -331 -164q-135 0 -135 156q0 71 29 143t134 211q180 239 517 610l-252 -251l-150 -148
q-88 -83 -161 -136q-78 -55 -137 -55q-74 0 -129 47t-55 120q0 97 124 250q98 111 195 222q65 79 65 170q0 62 -57 96q-48 28 -114 28q-183 0 -455 -279q-69 -70 -69 -153q0 -108 93 -108q78 0 221 134q124 117 124 224q0 24 -23 71q2 10 14 10q37 0 37 -123
q0 -179 -223 -307q-73 -42 -131 -42q-59 0 -102 36t-43 93q0 150 208 315q200 159 353 159q96 0 168 -59q78 -62 78 -154q0 -91 -92 -233q-42 -64 -85 -113q-111 -124 -114 -128q-68 -87 -68 -147q0 -35 22.5 -63t57.5 -28q76 0 150 58q32 25 114 100q198 179 360 355
q85 92 164 166q68 66 211 187q48 36 47 36q4 0 11.5 -8t7.5 -12z" />
    <glyph glyph-name="afii10042" unicode="&#x428;" horiz-adv-x="1613" 
d="M2342 1361q0 -93 -116 -222q-159 -177 -505 -475q-56 -48 -117 -86q-51 -29 -122 -84q-149 -187 -220 -296q-59 -92 -59 -144q0 -31 43 -31q91 0 233.5 108l142.5 108q9 0 9 -9q0 -6 -41 -43q-21 -23 -66 -64q-178 -131 -285 -131q-52 0 -89 26q-41 29 -41 79
q0 82 162 289q-109 -89 -190 -157q-103 -86 -138 -114q-81 -62 -150 -96q-43 -22 -85 -22q-50 0 -87 27q-40 31 -40 79q0 67 140 259q-21 -17 -259 -233q-133 -120 -261 -120q-57 0 -96 34.5t-39 91.5q0 118 243 376q64 68 349 337q142 134 236 250q69 85 69 191
q0 61 -52 95q-45 29 -109 29q-91 0 -209 -57q-128 -62 -235 -169q-131 -131 -131 -247q0 -48 26 -82t73 -34q71 0 205 116q101 87 174 178q38 48 38 99q0 27 -6 44q-1 3 -8 12.5t-7 12.5q0 11 14 11q29 0 29 -77q0 -54 -51 -156q-48 -95 -150 -177q-113 -91 -209 -91
q-65 0 -107 38.5t-42 102.5q0 9 3 25q22 92 63 153q82 125 236 220q164 101 304 101q95 0 151 -56.5t56 -150.5q0 -169 -168 -362q-27 -32 -300 -291q-189 -180 -221 -213q-138 -143 -184 -235q-12 -27 -12 -45q0 -52 67 -52q117 0 252 120q63 57 191 172q52 43 139 124
q3 3 38 48q154 202 365 434q81 94 162 187q97 109 175 176q50 45 101 90q69 56 116 56q63 0 63 -79q0 -33 -25 -85q-59 -121 -172 -233q-208 -205 -383 -330q-70 -51 -216 -142q-349 -439 -349 -515q0 -26 41 -26q90 0 216 94q51 39 185 162q77 72 156 132q29 19 82 60
q7 6 46 57q133 174 460 531q78 86 138 147q42 45 130 133q91 83 152 83q78 0 78 -66zM2303 1355q0 39 -39 39q-24 0 -75 -42q-80 -65 -166 -177q-102 -124 -301 -376q-65 -80 -190 -242q35 17 76 51q369 314 598 570q97 109 97 177zM1769 1364q0 45 -33 45q-122 0 -512 -555
q-103 -145 -182 -243q181 116 369 293q196 182 314 351q44 63 44 109z" />
    <glyph glyph-name="afii10043" unicode="&#x429;" horiz-adv-x="1582" 
d="M2323 1350q0 -94 -116 -223q-73 -82 -222 -221q-166 -154 -283 -253q-80 -56 -238 -168l-1 -1q-71 -70 -167 -213q-113 -165 -113 -228q0 -31 43 -31q126 0 301 176q22 23 55 51l4 2h5q13 0 13 -14q0 -16 -53 -61q-67 -56 -70 -60q-40 -46 -42 -133q-3 -102 -20 -140
q-86 -194 -370 -194q-11 0 -18 14q6 8 6 9q0 3 -3 8l3 1q71 0 130 36q184 109 233 240q5 43 42 133q-115 -99 -222 -99q-51 0 -88 27q-41 29 -41 78q0 51 62 149q49 70 97 140q-131 -113 -405 -324q-94 -65 -153 -65q-52 0 -88 27q-41 30 -41 79q0 47 36 109l66 98
q12 18 37 53q-13 -11 -260 -233q-132 -119 -254 -119q-59 0 -100 33.5t-41 91.5q0 123 229 360q150 155 362 354q152 143 237 249q70 86 70 190q0 61 -52 95q-45 30 -110 30q-164 0 -364 -156q-210 -162 -210 -318q0 -115 96 -115q72 0 206 115q102 87 175 179q39 48 39 98
q0 33 -23 69q0 11 14 11q30 0 30 -77q0 -26 -10 -57q-18 -51 -41 -98q-48 -94 -152 -177q-114 -92 -208 -92q-67 0 -107 39t-40 105q0 79 64 176q82 123 238 219q165 102 304 102q95 0 150.5 -56.5t55.5 -151.5q0 -210 -264 -460l-203 -192q-202 -193 -222 -212
q-137 -141 -183 -237q-14 -28 -14 -45q0 -52 69 -52q117 0 251 120q62 57 189 172l72 63q24 19 70 62q19 25 59 76q188 238 342 406q87 102 269 299q45 41 136 125q86 79 151 79q63 0 63 -73q0 -33 -26 -87q-60 -122 -170 -231q-208 -206 -384 -330q-70 -52 -217 -144
q-349 -441 -349 -514q0 -26 41 -26q90 0 217 95q52 39 185 162q79 73 155 131q29 19 82 61q31 39 91 115q237 295 551 618q43 46 132 135q90 82 155 82q75 0 75 -66zM2284 1347q0 35 -40 35q-24 0 -75 -41q-75 -61 -164 -177q-79 -102 -174 -216q-71 -84 -318 -401
q78 37 341 287q230 218 332 333q98 112 98 180zM1750 1349q0 49 -34 49q-118 0 -510 -555q-85 -120 -184 -242q17 9 30 18q416 289 654 625q44 62 44 105z" />
    <glyph glyph-name="afii10044" unicode="&#x42a;" horiz-adv-x="1229" 
d="M1267 620q-1 -51 -85 -106q-61 -40 -132 -64q-33 -79 -93 -154.5t-113 -123.5q-87 -79 -219.5 -129.5t-250.5 -50.5q-219 0 -289 112q-20 33 -20 69q0 146 179 348q56 64 174 187q141 135 276 267q118 113 353 341q-72 -53 -143 -107q-86 -63 -153 -92q-36 -16 -79 -16
q-40 0 -69 26t-29 66q0 36 65 106t65 105q0 41 -86 41q-113 0 -226 -52q-93 -43 -174 -116q-103 -93 -103 -170q0 -90 63 -90q62 0 156 68q152 110 152 213q0 8 -4 23t-4 23q0 6 6 11h3q28 0 28 -74q0 -91 -105 -192t-197 -101q-123 0 -123 107q0 76 75 158q84 93 199 154
q127 66 242 66q67 0 118 -21q68 -28 68 -86q0 -63 -64 -121t-64 -94q0 -21 39 -21q48 0 130 56q147 100 243 178q39 35 121 102q17 13 31 13q13 0 17 -7q-11 -21 -26 -33q-192 -207 -390 -448q-114 -140 -346 -415q-28 -29 -81 -89q-69 -79 -127 -172q-76 -124 -76 -190
q0 -93 123 -93q384 0 620 396q-9 -1 -18 -1q-137 0 -137 118q0 59 43.5 102.5t102.5 43.5q61 0 101.5 -39t40.5 -101q0 -19 -6 -39q65 25 104 53q30 21 43 55q4 13 21 30q15 -8 30 -30zM1016 591q0 29 -29 29t-66.5 -33.5t-37.5 -61.5q0 -6 -1 -18.5t-1 -18.5q0 -10 29 -10
q28 0 64 6q42 75 42 107z" />
    <glyph glyph-name="afii10045" unicode="&#x42b;" horiz-adv-x="1445" 
d="M2142 1412q0 -79 -98 -183q-142 -149 -482 -420q-39 -28 -107 -84q-18 -23 -52 -69q-187 -246 -205 -271q-113 -156 -182 -286q-17 -32 -17 -49q0 -27 40 -27q73 0 172 64q63 42 149 120q71 64 77 64q9 0 9 -12q0 -3 -56 -54q-130 -119 -255 -191q-41 -23 -93 -23
q-45 0 -81.5 32t-36.5 78q0 98 247 419q-92 -59 -129 -65q-31 -79 -90.5 -154t-113.5 -124q-87 -79 -219 -130.5t-249 -51.5q-112 0 -197 38q-113 49 -113 146q0 143 203 365q30 33 320 309q148 141 237 250q69 85 69 191q0 62 -54 96q-45 28 -111 28q-164 0 -371 -162
q-217 -171 -217 -329q0 -47 24 -79q26 -35 71 -35q75 0 214 123q120 106 176 192q32 50 32 98q0 30 -7 49q-2 3 -9.5 12.5t-7.5 12.5q0 11 14 11q32 0 32 -95q0 -137 -115 -258q-100 -107 -241 -158q-39 -15 -68 -15q-62 0 -99 40.5t-37 103.5q0 126 140 268
q115 116 254 185q117 57 215 57q102 0 159.5 -60.5t58.5 -162.5q2 -175 -475 -635q-98 -94 -189 -228q-87 -130 -87 -223q0 -92 123 -92q386 0 622 396q-9 -2 -18 -2q-137 0 -137 117q0 58 44 102.5t102 44.5q61 0 101 -39t40 -100q0 -20 -5 -40h3q15 0 91 42.5t89 57.5
q29 36 85 108q284 357 593 652q104 100 167 100q51 0 51 -65zM2116 1404q0 35 -33 35q-85 0 -247 -219q-101 -129 -299 -388q137 106 284 230q72 61 210 189q85 89 85 153zM1010 596q0 28 -29 28t-66 -32.5t-39 -61.5q-2 -18 -2 -36q0 -13 31 -13q21 0 63 8q42 75 42 107z
" />
    <glyph glyph-name="afii10046" unicode="&#x42c;" horiz-adv-x="1229" 
d="M1243 624q-1 -54 -85 -108q-62 -40 -134 -63q-32 -79 -92 -153q-61 -77 -113 -125q-86 -79 -219 -130.5t-250 -51.5q-109 0 -195 38q-112 50 -112 146q0 152 172 333q7 7 359 341q103 98 226 250q71 88 71 191q0 62 -54 96q-45 28 -111 28q-165 0 -372 -162
q-216 -171 -216 -333q0 -110 94 -110q76 0 216 123q121 106 176 192q30 48 30 98q0 34 -6 49q-1 3 -9 12.5t-8 12.5q0 11 14 11q33 0 33 -95q0 -137 -116 -259q-102 -107 -243 -157q-40 -15 -67 -15q-59 0 -98 40.5t-39 99.5q0 9 3 25q20 103 82 183q91 117 235 206
q160 100 291 100q106 0 165.5 -61.5t51.5 -163.5q-9 -126 -182 -330q-92 -110 -292 -303q-190 -183 -269 -379q-7 -18 -7 -72q0 -92 123 -92q387 0 623 396q-11 -2 -21 -2q-57 0 -95 29q-41 32 -41 88q0 57 45 102t102 45q60 0 101 -39t41 -99q0 -20 -6 -41q145 54 147 109
q9 29 21 29q8 0 30 -29zM991 596q0 26 -28 26q-30 0 -68 -32.5t-38 -61.5v-36q0 -13 59 -13q22 0 33 8q42 78 42 109z" />
    <glyph glyph-name="afii10047" unicode="&#x42d;" horiz-adv-x="1536" 
d="M1816 1166q0 -273 -221 -556q-206 -264 -511 -444q-334 -197 -639 -197q-142 0 -252 52q-143 66 -143 190q0 59 36.5 101.5t95.5 42.5q77 0 77 -77q0 -74 -66 -74q-30 0 -50.5 22t-20.5 52q0 14 5 28q-54 -43 -54 -112q0 -35 24 -69q86 -119 273 -119q308 0 547 157
q236 154 426 350q217 223 317 446q67 150 67 264q0 164 -94 222q-79 50 -178 50q-158 0 -333 -112q-171 -110 -245 -253q-45 -88 -45 -189q0 -67 44 -117t111 -50q54 0 126 32q111 50 209 161q96 108 137 226q12 35 12 65q0 26 -16.5 67t-16.5 38q0 12 12 12q6 0 10 -6
q41 -63 41 -151q0 -170 -161.5 -322.5t-333.5 -152.5q-88 0 -141.5 52.5t-53.5 140.5q0 115 47 206q74 144 251 260q181 119 338 119q170 0 268 -92q101 -95 101 -263zM1369 774q0 -3 -37 -44q-160 -177 -359 -177q-16 0 -46 1h-46q-128 0 -200 -19q-29 -8 -65 -28
q-60 -35 -61 -35l-6 -3q-8 1 -8 12q1 3 5 7q151 177 406 177h34q23 -1 35 -1q138 0 216 31q35 13 67 44q38 37 56 48q6 -1 9 -10v-3z" />
    <glyph glyph-name="afii10048" unicode="&#x42e;" horiz-adv-x="2638" 
d="M476 -4q-98 0 -177.5 23.5t-135.5 67t-86 106t-30 142.5q0 50 15.5 104t44 104.5t71 96t96 79t119 53.5t140.5 19q71 -1 121.5 -23.5t82.5 -59.5t46.5 -83.5t14.5 -94.5q0 -56 -20.5 -114.5t-61 -106.5t-101.5 -78.5t-142 -30.5q-27 0 -53 6t-48 13.5t-38.5 15
t-25.5 10.5q0 8 4.5 16.5t14.5 7.5q5 0 14 -1t32 -1q77 -1 149 14t127.5 48t89.5 87t34 131q0 46 -18.5 86.5t-50.5 70.5t-75.5 47.5t-93.5 17.5q-40 0 -89.5 -12.5t-100.5 -37.5t-99.5 -62t-86.5 -85.5t-61.5 -108.5t-23.5 -131q-1 -72 23 -122.5t60.5 -85t82 -54t88 -30
t77.5 -13t51 -2.5q92 0 179 31q148 51 277 156q99 80 215 220q51 63 100 124t99 124q109 132 195 243q53 69 135 158.5t195 202.5q-69 -51 -105.5 -78t-43.5 -32q-98 -62 -167 -62q-42 0 -70.5 25.5t-28.5 67.5q0 35 65 105q66 70 66 103q0 44 -86 44q-131 0 -277 -80
q-151 -83 -209 -194q-18 -35 -18 -65q0 -90 65 -90q62 0 154 67q153 109 153 214q0 8 -4 23.5t-4 23.5q0 5 6 10h3q28 0 28 -74q0 -93 -106 -193q-106 -101 -196 -101q-123 0 -123 108q0 87 104 188q82 77 184 129q118 61 229 61q67 0 117 -21q68 -29 68 -86q0 -64 -64 -122
t-64 -94q0 -20 39 -20q55 0 245 137q18 11 44.5 28.5t61.5 42.5l38 30t39 31q56 43 80 43l4 -2l3 -7q-2 -8 -18 -18q-72 -41 -134 -105q-144 -150 -402 -538q44 23 91 23q8 0 23 -1.5t23 -1.5q43 0 86 22q76 115 277 281q413 344 799 344q115 0 189 -40q95 -51 95 -155
q0 -32 -7 -53q-13 -40 -59 -66q-43 -25 -89 -25q-84 0 -126 84q-4 7 -4 16q3 7 9 9l8 -3q32 -50 81 -50q46 0 77 40t31 88q0 127 -189 127q-196 0 -458 -173q-103 -68 -197.5 -149t-184.5 -177q-386 -413 -386 -722q0 -85 50.5 -132t135.5 -47q200 0 429 179
q324 255 476 555q67 133 67 227q0 52 -29 89q-32 39 -85 39q-172 0 -379 -237q-8 -10 -32.5 -34.5l-65.5 -65.5q-5 -7 -14 -16.5t-20 -22.5q-53 -63 -89.5 -109t-56.5 -77q-80 -124 -80 -217q0 -37 12 -65q7 -3 7 -9q0 -11 -13 -12l-6 3q-32 44 -32 115q0 165 120 326
q17 23 43.5 56.5t63.5 78.5q104 116 241 208q169 115 286 115q149 0 149 -168q0 -167 -173 -408q-82 -115 -179 -212.5t-209 -181.5q-240 -177 -414 -177q-102 0 -178 56q-80 59 -94 160q-2 16 -3.5 34t-1.5 38q0 219 173 485q-46 -29 -91 -29q-8 0 -24.5 1.5t-25.5 1.5
q-45 0 -89 -23q-18 -27 -44.5 -67t-61.5 -94q-147 -234 -402 -398q-68 -44 -130.5 -76t-123 -53t-121.5 -31t-126 -10z" />
    <glyph glyph-name="afii10049" unicode="&#x42f;" horiz-adv-x="1854" 
d="M2680 1505q0 -47 -90 -62q-26 -4 -127 -7q-52 -1 -82 -1q-360 -259 -705 -808q-245 -390 -245 -513q0 -81 98 -81q78 0 202.5 103.5l124.5 103.5q12 0 12 -10q0 3 -109 -112q-20 -21 -52 -39q-46 -26 -57 -34q-69 -50 -155 -50q-87 0 -126 45q-45 53 -45 129
q0 151 197 448q152 228 315 403q122 131 211 200q86 75 267 215h-6q-354 0 -586 -93q-280 -112 -448 -377q-61 -98 -61 -163q0 -70 48 -109v2q42 40 83 80q52 43 103 43q56 0 56 -50q0 -58 -62 -90q-49 -26 -113 -26q-11 0 -32 4.5t-32 4.5q-59 -91 -183 -269
q-126 -171 -337 -280.5t-421 -109.5q-115 0 -197 34q-112 47 -112 146q0 36 20 65q22 33 57 33q68 0 68 -68q0 -67 -68 -67q-30 0 -54 25q36 -133 264 -133q185 0 392 120q63 36 215 163q90 75 146 139q60 72 185 209q-60 19 -93 78q-30 54 -30 120q0 59 26 120
q149 347 766 456q115 21 375 21q44 0 70 -3q150 87 244 87q83 0 83 -42zM2646 1510q-7 16 -51 16q-70 0 -179 -66h72q158 0 158 50zM1477 768q0 20 -33 20q-35 0 -88.5 -36t-73.5 -69q18 -9 48 -9q45 0 92 25q55 29 55 69z" />
    <glyph glyph-name="afii10065" unicode="&#x430;" horiz-adv-x="635" 
d="M677 433q0 -16 -21 -40l-289 -316q-17 -19 -17 -34q0 -14 17 -14q34 0 147.5 101.5t118.5 101.5t9 -5q1 -2 2 -7q0 -5 -3 -8l-200 -171q-53 -46 -101 -46q-73 0 -73 80q0 9 2 19q-32 -32 -92 -66q-68 -39 -103 -39q-74 0 -74 73q0 124 189 267q-84 -56 -184 -117
q-10 4 -10 12q0 4 5 8q75 61 211 133q154 81 221 81q55 0 55 -47q0 -6 -4 -18.5t-4 -19.5l-1 -9h1l6 3l54 62q22 20 73 23q59 4 52 4q13 0 13 -11zM461 406q0 13 -14 13q-46 0 -215 -184q-164 -179 -164 -209q0 -15 20 -15t75 33q92 57 155 128q47 48 125 154q18 33 18 80z
" />
    <glyph glyph-name="afii10066" unicode="&#x431;" horiz-adv-x="550" 
d="M1091 878q0 -6 -21 -34q-31 -45 -45 -59q-31 -33 -62 -38q-11 -2 -39 -2q-9 0 -25.5 2t-24.5 2q-83 0 -115 -19q-44 -26 -116 -191q-70 -161 -111 -181l-5 -6q-53 -142 -142 -231q-4 -5 -13 -12q41 21 84 53q37 32 91 70q10 -1 10 -12q0 -4 -4 -8q-65 -55 -161 -115
q-111 -71 -174 -87q-68 -19 -112 -19q-104 0 -104 90q0 28 17 70q30 74 138 172h-2q-4 0 -72 -55t-76 -55q-4 0 -10 12q1 3 5 7q33 21 99 70q112 92 210.5 129.5t129.5 37.5q95 0 91 -84q16 9 25 24q16 26 63 131q53 118 110 207q14 23 46 57q46 29 101 29q16 0 47.5 -7.5
t47.5 -7.5q45 0 76 36t32 36q11 0 11 -12zM503 380q0 65 -45 65q-58 0 -244 -214q-44 -45 -122 -140q-15 -23 -15 -45q0 -38 47 -38q44 0 127 54q87 57 159 138q93 103 93 180z" />
    <glyph glyph-name="afii10067" unicode="&#x432;" horiz-adv-x="550" 
d="M1082 1097q0 -11 -3 -21q-36 -120 -171 -234q-58 -50 -243 -172q-36 -20 -99 -67q-21 -26 -61 -77q-96 -117 -286 -353q-24 -29 -68 -88q-10 -15 -10 -32q0 -31 34 -31q57 0 194 134q-13 13 -13 32q0 50 75.5 149.5t122.5 99.5q37 0 37 -31q0 -34 -46 -106
q-37 -58 -73 -97q7 -3 15 -3q11 0 31 15t26 15q5 0 9 -3l3 -7q0 -4 -4 -8q-44 -38 -52 -44q-25 -17 -65 -24q-28 -6 -42 -2q-110 -128 -190 -148q-13 -3 -36 -3q-43 0 -74 25t-31 66q0 56 90 168l132 156v1l-194 -145q-47 -35 -86 -53q-10 6 -10 14q0 6 156 115
q88 63 177 125q73 89 174 210q91 107 177 210.5t136 152.5q90 90 163 118q41 16 60 16q45 0 45 -73zM1058 1117q0 21 -21 21q-102 0 -330 -339q-45 -65 -117 -155q167 113 224 158q121 96 190 197q54 78 54 118z" />
    <glyph glyph-name="afii10068" unicode="&#x433;" horiz-adv-x="398" 
d="M407 221q0 -6 -4 -9l-199 -168q-54 -46 -117 -46q-84 0 -84 79q0 71 151.5 166t151.5 144q0 26 -17 26q-11 0 -31 -6q-32 -9 -208 -158q-18 -16 -47 -36q-9 7 -9 13q0 4 4 7l211 170q59 47 100 47q92 0 92 -98q0 -55 -112 -112q-56 -28 -111 -74q-74 -61 -74 -101
q0 -28 27 -28q11 0 24 3q17 4 129 99q109 94 112 94q11 0 11 -12z" />
    <glyph glyph-name="afii10069" unicode="&#x434;" horiz-adv-x="578" 
d="M991 917q0 -217 -338 -577q-81 -77 -241 -233q50 30 85 54q23 23 74 60q3 6 9 12q11 -2 11 -12q0 -3 -5 -7q-287 -225 -432 -225q-113 0 -113 96q0 115 186 264q-48 -27 -111 -72q-55 -39 -108 -68q-5 0 -11 12q0 4 6 8q23 16 170 109q50 32 174 90q82 38 131 38
q91 0 91 -77q0 -62 -45 -141q109 98 162 156q204 227 264 405q13 40 13 108q0 128 -121 128q-97 0 -205 -135q-104 -130 -104 -230q0 -59 66 -59q48 0 102 56q46 48 69 101q17 41 36 94q10 26 10 42q0 23 -17 35.5t-17 13.5q0 12 9 14q48 -7 48 -75q0 -99 -71 -195
q-76 -105 -172 -105q-124 0 -124 135q0 99 74 196q69 91 165 134q44 19 117 19q34 0 78 -18q85 -34 85 -151zM539 375q0 65 -42 65q-65 0 -243 -211q-44 -45 -122 -140q-15 -22 -15 -44q0 -39 50 -39q40 0 125 56t157 136q90 101 90 177z" />
    <glyph glyph-name="afii10070" unicode="&#x435;" horiz-adv-x="522" 
d="M561 375q0 -131 -381 -220q-66 -68 -66 -108q0 -36 34 -36q73 0 196 89q167 121 183 129q11 -3 11 -12q0 -6 -86 -65l-100 -69q-114 -89 -204 -89q-98 0 -98 97q0 133 201 276q-82 -52 -245 -156l-7 -3q-9 1 -9 11q0 5 3 10q163 119 313 179q18 6 53 19q88 36 129 36
q73 0 73 -88zM514 410q0 33 -29 33q-52 0 -281 -257q25 0 73 23l66 33q48 23 103 71q68 60 68 97z" />
    <glyph glyph-name="afii10072" unicode="&#x436;" horiz-adv-x="1061" 
d="M1123 342q0 -65 -66 -65q-58 0 -58 55q0 56 58 56q22 0 40 -15v3q-8 17 -17 34q-9 14 -36 14q-38 0 -68 -32q-17 -19 -43 -44q-77 -76 -173 -202q-45 -60 -45 -106q0 -26 27 -26q52 0 96 35l122 102q101 86 107 86q11 0 11 -12q0 -4 -4 -8l-223 -184q-48 -40 -117 -40
q-91 0 -91 95q0 29 34 126q-271 -218 -336 -218q-15 0 -16 11l5 6q35 36 98 120q75 126 103 158q-68 -55 -190 -143q-16 -15 -49 -42q-145 -112 -220 -112q-91 0 -91 113q0 70 65 70q58 0 58 -55t-58 -55q-23 0 -40 15q3 -52 52 -52q56 0 153 105q73 78 121 156
q34 54 34 100q0 42 -39 42q-25 0 -63 -28q-253 -188 -260 -188q-9 0 -9 12q0 -1 256 194q55 42 117 42q88 0 88 -101q0 -26 -29 -116q81 64 163 127q116 83 177 83l4 -7q0 -3 -4 -8q-50 -51 -101 -134q-80 -132 -87 -141q63 52 183 139q16 14 49 41q142 112 217 112
q95 0 95 -118z" />
    <glyph glyph-name="afii10073" unicode="&#x437;" horiz-adv-x="521" 
d="M527 220q0 -4 -5 -8q-65 -52 -181 -134l-24 -21q-24 -18 -54 -31h-2q-72 -32 -147 -32q-123 0 -123 100q0 69 66 69q57 0 57 -56q0 -54 -57 -54q-23 0 -40 15q3 -51 93 -51q50 0 120 77.5t70 127.5q0 38 -36 38q-12 0 -35.5 -1.5t-35.5 -1.5q-10 1 -10 5q0 10 11.5 11.5
t35.5 4.5q68 9 120 45q71 50 71 99q0 34 -38 34q-46 0 -118 -56q-247 -189 -266 -189q-9 0 -9 10q0 8 5 11l258 186q82 59 150 59q106 0 106 -81q0 -93 -158 -125q-15 -1 -47 -6q22 -5 44 -11q40 -18 40 -78q0 -8 -3 -22t-2 -23l-2 -3q62 50 135 104q11 -5 11 -12z" />
    <glyph glyph-name="afii10074" unicode="&#x438;" horiz-adv-x="644" 
d="M679 438q0 -19 -20 -40l-288 -318q-18 -19 -18 -34q0 -12 14 -12q31 0 102 58l170 141q1 1 8 3q11 -2 11 -12q0 -3 -5 -7l-207 -171q-56 -46 -106 -46q-71 0 -71 82q0 30 72 116q-80 -71 -231 -184q-22 -14 -63 -14q-64 0 -64 80q0 38 23 65l177 204q-181 -138 -183 -138
q-11 0 -11 12q0 4 5 7l267 207q13 10 110 10q19 0 19 -9q0 -19 -19 -40l-254 -278q-13 -14 -13 -28q0 -17 25 -17q26 0 51 17q17 11 131 106t123 104l107 126q13 16 29 16l98 3q11 0 11 -9z" />
    <glyph glyph-name="afii10075" unicode="&#x439;" horiz-adv-x="644" 
d="M794 674q0 -50 -49 -80q-42 -25 -95 -25q-138 0 -138 111q0 31 21.5 56t51.5 25q57 0 57 -56q0 -34 -40 -49v-3q0 -57 60 -57q111 0 111 81q0 58 -46 56q-2 0 -4.5 -1t-3.5 -1q-10 0 -9 6q5 11 24 11q25 0 44 -25q16 -23 16 -49zM685 440q0 -10 -9 -22q-11 -15 -12 -19
l-296 -322q-12 -13 -12 -27q0 -13 16 -13q29 0 100 58l161 134q1 0 6 3q12 -1 12 -11q0 -5 -4 -9l-198 -165q-57 -47 -100 -47q-77 0 -77 83q0 31 26 64q24 26 48 53q-70 -58 -139 -116q-107 -84 -147 -84q-74 0 -74 83q0 39 23 65l177 204q-181 -140 -183 -140
q-11 0 -11 12q0 4 5 8l267 208q13 10 117 10q14 0 14 -10q0 -18 -21 -41l-254 -276q-13 -14 -13 -28q0 -7 7 -10q6 -7 18 -7q28 0 51 17q64 49 204 169q18 13 50 42q45 58 120 134q10 5 114 10q14 1 14 -10z" />
    <glyph glyph-name="afii10076" unicode="&#x43a;" horiz-adv-x="653" 
d="M1023 1075q0 -11 -3 -22q-29 -108 -142 -209q-36 -32 -207 -153q-34 -25 -64 -44q-47 -30 -100 -67l-106 -134q122 82 200 82q76 0 76 -74q0 -18 -7 -34q-29 -61 -98 -87q-21 -8 -131 -29q43 -34 43 -60q0 -72 -40 -107q-60 -54 -73 -79q-6 -10 -6 -15q0 -12 16 -12
q31 0 148.5 100.5t125.5 100.5q9 0 9 -11q0 -4 -5 -8q-31 -29 -98 -86q-47 -43 -148 -116q-26 -15 -55 -15q-77 0 -77 83q0 40 62.5 102.5t62.5 83.5q0 24 -26 24q-39 0 -63 -15q0 -4 1.5 -12.5t1.5 -13.5q0 -26 -31 -26q-35 0 -40 37q-54 -65 -157 -197q-12 -21 -39 -55
q-10 -10 -84 -10q-46 0 -46 28q0 11 11 24q54 56 158 173q43 56 135 163q-220 -174 -222 -174q-11 0 -11 12q0 4 4 8q92 68 272 209q17 22 49 62q4 4 300 357q86 103 137 153q90 89 163 118q40 17 60 17q44 0 44 -72zM1000 1096q0 18 -20 18q-42 0 -121 -73
q-16 -15 -97 -116q-75 -102 -230 -303q332 222 416 354q11 17 18 27q34 47 34 93zM572 478q0 15 -24 15q-16 0 -99 -58q-78 -53 -157 -144q31 20 61 24q57 7 62 8q42 10 87.5 50t64.5 81q5 9 5 24z" />
    <glyph glyph-name="afii10077" unicode="&#x43b;" horiz-adv-x="584" 
d="M641 442q0 -18 -20 -40l-288 -316q-18 -19 -18 -35q0 -13 15 -13q33 0 101 58l151 131q1 2 6 5q10 -3 10 -12q0 -4 -4 -8l-186 -161q-56 -49 -104 -49q-73 0 -73 82q0 35 26 65l215 249q-26 -15 -78 -47q-97 -61 -190 -161q-67 -71 -134 -150q-37 -42 -82 -42
q-41 0 -41 47q0 108 77 108q51 0 51 -51q0 -11 -5 -27q16 18 47 54q39 43 71 77q103 110 237 188q46 25 97 53l3 1h18q15 0 44 1.5t43 1.5q11 0 11 -9z" />
    <glyph glyph-name="afii10078" unicode="&#x43c;" horiz-adv-x="858" 
d="M915 437q0 -18 -20 -40l-289 -318q-17 -19 -17 -34q0 -13 14 -13q38 0 146 99.5t112 99.5q9 0 12 -14q-5 -12 -193 -172q-57 -48 -102 -48q-73 0 -73 82q0 34 26 64l106 123q-15 -13 -142 -133q-87 -81 -151 -120q-26 -16 -60 -16q-71 0 -71 83q0 34 26 63l210 244
q-149 -86 -363 -341q-37 -44 -84 -44q-41 0 -41 44q0 111 78 111q50 0 50 -50q0 -6 -3 -28l45 54q24 29 71 84q106 112 236 188q28 18 76 38l97 4q14 1 14 -10q0 -16 -22 -40l-286 -315q-15 -18 -15 -35q0 -18 24 -18q26 0 146 111q75 71 151 141q37 28 103 88q17 20 50 59
q13 14 30 15l96 3q13 0 13 -9z" />
    <glyph glyph-name="afii10079" unicode="&#x43d;" horiz-adv-x="673" 
d="M724 431q0 -16 -22 -39l-289 -317q-18 -21 -18 -35q0 -12 15 -12q6 0 28 6q13 3 201 164q17 16 40 35q12 -3 12 -12q-1 -2 -3 -4q-17 -19 -68 -64q-45 -38 -133 -113q-54 -46 -109 -46q-30 0 -48.5 25t-18.5 56t67 110q-21 7 -64 7q-47 0 -85 -12l-138 -160
q-13 -15 -29 -15l-97 -5q-15 -1 -15 11q0 14 24 40l287 316q17 19 17 34q0 6 -4 11q-7 3 -13 3q-35 0 -141 -99q-110 -100 -118 -102q-11 1 -11 12q0 6 197 177q54 47 107 47q30 0 50 -27q17 -25 17 -56q0 -33 -25 -62l-70 -81h11q95 0 144 12l160 186q13 15 31 16l97 5
q14 0 14 -12z" />
    <glyph glyph-name="afii10080" unicode="&#x43e;" horiz-adv-x="491" 
d="M503 224q0 -16 -72 -63q-23 -15 -57 -15q-163 -158 -274 -158q-100 0 -100 92q0 123 179 267q-48 -26 -70 -41q-43 -43 -104 -94q-8 4 -8 11q0 14 62 67q79 69 242 137q98 40 129 40q67 0 67 -46q0 11 -12 -57q3 -8 3 -18q0 -70 -89 -157q-5 -5 -7 -9l3 -3q24 0 55.5 28
t40.5 28q12 0 12 -9zM464 410q0 31 -29 31q-39 0 -202.5 -170.5t-163.5 -219.5q0 -39 37 -39q36 0 76 20q37 19 88 55q67 46 68 65q-24 0 -24 36q0 51 47 117q49 70 98 75q5 11 5 30z" />
    <glyph glyph-name="afii10081" unicode="&#x43f;" horiz-adv-x="664" 
d="M673 222q0 -5 -3 -10l-200 -166q-55 -46 -101 -46q-73 0 -73 89q0 31 25 57l212 223q17 17 17 34q0 13 -18 13q-34 0 -227 -170q-58 -51 -211 -229q-15 -17 -93 -17q-45 0 -45 9q0 11 9 23t10 18l289 315q17 19 17 34q0 14 -18 14q-30 0 -147 -101t-114 -101
q-11 0 -11 12q0 5 198 178q54 48 103 48q72 0 72 -85q0 -30 -20 -55l114 95q56 48 103 48q72 0 72 -87q0 -33 -26 -60l-211 -223q-16 -18 -16 -36q0 -12 13 -12q36 0 149.5 100t119.5 100q11 0 11 -12z" />
    <glyph glyph-name="afii10082" unicode="&#x440;" horiz-adv-x="635" 
d="M649 220q0 -3 -5 -7l-194 -168q-55 -47 -100 -47q-76 0 -76 85q0 34 27 63l211 223q17 18 17 33q0 14 -19 14q-39 0 -232 -175q-60 -54 -132 -146q-61 -78 -121 -156l-503 -623q-12 -15 -29 -16l-97 -4q-12 -1 -12 10q0 18 20 41l879 1049q27 32 70 75
q-349 -265 -351 -265q-11 0 -11 11q0 6 4 9l382 291q78 60 159 132q23 20 36 20q9 0 9 -13q0 -15 -71 -104l-205 -259l133 111q57 47 101 47q69 0 69 -95q0 -29 -21 -52l-212 -223q-17 -18 -17 -33t17 -15q30 0 138 96q113 99 124 102q12 -1 12 -11z" />
    <glyph glyph-name="afii10083" unicode="&#x441;" horiz-adv-x="512" 
d="M536 389q0 -44 -20 -79q-25 -40 -66 -40q-54 0 -54 55q0 77 70 118q-8 -3 -22 -10q-41 -22 -166 -155q-116 -123 -158 -182q-19 -26 -19 -44q0 -31 37 -31q89 0 229 103.5t139 103.5q4 0 9 -3l3 -8q-1 0 -81 -70q-176 -153 -289 -153q-119 0 -119 91q0 116 186 269
q-43 -23 -106 -74q-85 -67 -102 -67q-11 0 -11 11q0 5 7 9q135 101 192 135q96 57 220 94q20 6 35 6q35 0 60.5 -22t25.5 -57z" />
    <glyph glyph-name="afii10084" unicode="&#x442;" horiz-adv-x="938" 
d="M950 220q0 -5 -5 -9l-196 -167q-53 -46 -102 -46q-74 0 -74 83q0 34 28 63l210 223q17 18 17 34q0 13 -19 13q-39 0 -237 -183q-40 -36 -200 -214q-14 -16 -29 -16l-97 -3q-14 0 -14 11q0 15 22 39l288 315q17 18 17 34q0 13 -11 13t-30 -6q-8 -3 -212 -168
q-48 -39 -107 -106q-49 -56 -98 -113q-13 -15 -30 -16l-96 -3q-12 0 -12 9q0 11 9 23t11 18l287 315q17 19 17 34q0 14 -17 14q-32 0 -145.5 -101t-122.5 -101q-10 4 -10 10q0 5 5 9l200 171q55 48 102 48q73 0 73 -84q0 -38 -34 -72l131 108q57 48 101 48q74 0 74 -84
q0 -28 -21 -56l114 95q57 48 102 48q70 0 70 -93q0 -31 -22 -54l-213 -223q-16 -18 -16 -35q0 -10 13 -10q35 0 102 57l158 136q3 3 7 3q12 0 12 -11z" />
    <glyph glyph-name="afii10085" unicode="&#x443;" horiz-adv-x="644" 
d="M749 440q0 -13 -20 -29q-29 -24 -33 -28q-93 -109 -278 -326q229 174 224 174q12 0 12 -12q0 -5 -4 -9l-295 -230l-3 -5q-45 -60 -269 -337q-129 -160 -278 -274q-96 -74 -137 -74q-57 0 -57 87q0 26 15 57q46 96 151 186q22 19 192 145q106 79 217 149q15 28 201 268
l-172 -138q-59 -47 -102 -47q-73 0 -73 91q0 28 26 55l211 223q16 17 16 35q0 12 -16 12q-36 0 -150 -101t-121 -101q-9 0 -9 13q0 6 95 86q55 45 111 91q53 48 105 48q31 0 50 -31q17 -27 17 -60q0 -31 -23 -55l-212 -223q-17 -17 -17 -36q0 -12 14 -12q25 0 101 60
l208 165q1 0 60 77q87 113 123 127q10 3 36 3q84 0 84 -24zM163 -128q-313 -210 -453 -391q-65 -83 -65 -128q0 -38 26 -38q59 0 165 134q112 139 327 423z" />
    <glyph glyph-name="afii10086" unicode="&#x444;" horiz-adv-x="862" 
d="M1310 1074q0 -14 -3 -25q-37 -128 -185 -252q-50 -42 -263 -186q-40 -23 -108 -73q-1 -1 -59 -79q-25 -33 -63 -82q99 84 165 84q83 0 83 -80q0 -120 -188 -267q75 57 171 121q11 -1 11 -12q0 -8 -70 -60q-64 -47 -85 -60q-59 -35 -108 -54q-16 -5 -45 -17
q-24 -14 -47 -28q-27 -16 -57 -16q-69 0 -69 52q0 16 8 37q-2 -2 -87 -111q-353 -447 -565 -610q-95 -73 -136 -73q-27 0 -44 28q-15 24 -15 53q0 106 187 264q77 65 281 205q62 42 109 72q15 32 130 178q-128 -86 -170 -86q-83 0 -83 80q0 115 189 267q-46 -24 -94 -66
q-84 -72 -94 -72q-9 0 -9 12l3 8q28 21 82 64q85 69 238 135q23 14 47 29q29 16 60 16q63 0 63 -57q0 -23 -8 -41q78 98 194 235l196 233q115 137 167 185q110 102 210 124q7 2 13 2q48 0 48 -77zM1286 1095q0 20 -20 20q-74 0 -240 -202q-80 -112 -247 -331q130 88 188 131
q103 77 174 149q39 39 108 135q37 51 37 98zM800 424q0 14 -15 14q-29 0 -108 -51q-73 -46 -99 -75q-6 -6 -65 -85l-66 -87q-32 -52 -32 -103q0 -17 22 -17q18 0 38 12q46 28 116 111q209 249 209 281zM467 421q0 16 -21 16q-19 0 -39 -13q-51 -34 -117 -110
q-208 -245 -208 -280q0 -14 13 -14q27 0 91 38q90 54 131 99q7 9 45 60q67 89 70 94q35 58 35 110zM104 -137q-14 -8 -181 -127q-94 -67 -200 -178q-136 -143 -136 -214q0 -39 26 -39q58 0 164 136q113 139 327 422z" />
    <glyph glyph-name="afii10087" unicode="&#x445;" horiz-adv-x="616" 
d="M684 340q0 -64 -67 -64q-56 0 -56 55q0 54 56 54q24 0 40 -15q1 53 -57 53q-31 0 -63 -33q-132 -137 -213 -246q-44 -59 -44 -106q0 -24 26 -24q52 0 97 36q229 182 210 182q13 0 13 -11q0 -4 -6 -9q-80 -82 -204 -181q-49 -40 -117 -40q-81 0 -81 86q-117 -88 -183 -88
q-82 0 -82 111q0 69 64 69q58 0 58 -53q0 -56 -58 -56q-23 0 -39 15q7 -18 13 -36q10 -16 40 -16q37 0 66 31q256 271 256 346q0 27 -35 27q-47 0 -111 -51l-201 -162q-1 -1 -6 -3q-11 5 -11 11t107 92q62 50 123 100q49 41 109 41q50 0 71 -27q16 -22 21 -76
q130 100 186 100q78 0 78 -112z" />
    <glyph glyph-name="afii10088" unicode="&#x446;" horiz-adv-x="644" 
d="M680 435q0 -18 -21 -40l-290 -317q-17 -19 -17 -35q0 -12 15 -12q34 0 147 96q120 103 130 106q12 -2 12 -12q0 -5 -5 -9q-39 -29 -109 -95q-21 -25 -22 -124t-45 -145q-69 -72 -229 -72q-37 0 -37 17q0 7 14 7q55 0 101 23q55 27 106 97.5t51 129.5q0 11 -2 24
q-87 -77 -138 -77q-32 0 -53 24t-21 57t74 117q-62 -51 -187 -152q-59 -46 -101 -46q-72 0 -72 81q0 38 24 65l177 204q-182 -140 -184 -140q-10 0 -10 13q0 4 4 7l268 208q13 11 118 11q14 0 14 -11q0 -16 -23 -40l-253 -276q-13 -14 -13 -28q0 -17 23 -17q29 0 53 17
q73 55 204 169q17 12 48 41l108 124q13 15 31 16l97 5q13 0 13 -11z" />
    <glyph glyph-name="afii10089" unicode="&#x447;" horiz-adv-x="398" 
d="M449 464q0 -14 -21 -35l-219 -236q-35 -36 -70 -73q-47 -52 -47 -82q0 -14 22 -14q32 0 152 103t129 104q11 -2 11 -12q0 -3 -5 -8l-206 -169q-58 -49 -103 -49q-36 0 -58 32q-19 28 -19 65q0 49 74 123l120 120q-20 -8 -61 -17q-135 -103 -143 -103q-11 0 -11 12
l132 102q-22 17 -22 42q0 30 20 57.5t49 27.5q42 0 42 -43q0 -15 -29 -58q36 2 130.5 66t108.5 64q24 0 24 -19z" />
    <glyph glyph-name="afii10090" unicode="&#x448;" horiz-adv-x="948" 
d="M989 437q0 -16 -21 -40l-289 -316q-17 -18 -17 -34q0 -13 14 -13q28 0 100 59l164 135q3 3 7 3q12 0 12 -11q0 -5 -5 -9l-201 -165q-58 -49 -102 -49q-73 0 -73 84q0 38 33 72l-129 -107q-57 -49 -102 -49q-72 0 -72 84q0 31 19 56l-113 -95q-55 -46 -104 -46
q-70 0 -70 94q0 26 25 52l210 223q17 17 17 34q0 13 -17 13q-32 0 -144 -96q-116 -100 -126 -103q-11 1 -11 12q0 4 5 8l202 167q57 48 101 48q73 0 73 -89q0 -32 -25 -58l-212 -223q-16 -18 -16 -35q0 -12 13 -12q11 0 28 6q32 11 215 175q68 62 200 218q10 12 29 13l98 5
q14 0 14 -9q0 -17 -23 -42l-289 -316q-17 -19 -17 -34q0 -14 17 -14q27 0 237 175q30 26 206 222q11 12 28 13l97 5q14 0 14 -11z" />
    <glyph glyph-name="afii10091" unicode="&#x449;" horiz-adv-x="938" 
d="M995 434q0 -17 -21 -41l-289 -317q-17 -18 -17 -35q0 -12 14 -12q37 0 100 59l148 139q2 1 6 2q5 0 10 -3l3 -8q-1 -2 -57.5 -58.5t-60.5 -93.5q0 -53 -12 -158q-32 -138 -273 -138q-28 0 -28 17q0 7 14 7q55 0 101 23q31 15 72 59q38 42 54 75l26 57q3 6 3 15
q0 5 -2.5 14t-2.5 14q0 6 2 12q-83 -69 -127 -69q-74 0 -74 82q0 33 33 73l-129 -108q-56 -47 -102 -47q-72 0 -72 83q0 30 19 55l-113 -94q-56 -46 -103 -46q-71 0 -71 93q0 25 25 52l210 222q17 18 17 36q0 12 -23 12q-22 0 -145 -96q-63 -50 -126 -99q-11 1 -11 12
q0 4 4 8l210 163q61 48 108 48q66 0 66 -88q0 -33 -25 -59l-211 -222q-17 -19 -17 -36q0 -12 15 -12q5 0 27 6q31 9 216 176q62 57 198 216q12 15 29 16l98 3q11 0 11 -9q0 -12 -7 -22q-10 -15 -11 -19l-291 -317q-17 -19 -17 -35q0 -12 14 -12q10 0 28 6t212 168
q46 39 206 221q13 15 29 16q51 3 100 3q10 0 10 -9z" />
    <glyph glyph-name="afii10092" unicode="&#x44a;" horiz-adv-x="455" 
d="M463 217q0 -4 -3 -9q-40 -59 -107 -59q-113 -150 -243 -150q-73 0 -73 84q0 36 26 64l180 197q-48 -20 -83 -20q-72 -55 -158 -115q-11 5 -11 11q0 4 147 113q-22 20 -22 43q0 6 4 20q21 64 66 64q41 0 41 -43q0 -22 -30 -58q35 2 105.5 47t92.5 45q52 0 52 -12
q0 -18 -20 -40l-293 -312q-20 -20 -20 -36q0 -21 34 -21q56 0 170 125q-17 13 -17 38q0 82 68 82q38 0 38 -45q0 -16 -10 -29q-14 -17 -16 -23q35 6 65 46l5 3l11 -4q1 -2 1 -6z" />
    <glyph glyph-name="afii10093" unicode="&#x44b;" horiz-adv-x="692" 
d="M737 431q0 -16 -21 -39l-291 -317q-16 -18 -16 -35q0 -12 15 -12q37 0 143 95q111 100 123 104q10 -3 10 -12q0 -14 -137 -132q-105 -89 -166 -89q-76 0 -76 75q0 33 56 98q-42 -26 -85 -26q-117 -147 -227 -147q-85 0 -85 86q0 36 25 65l177 202l-126 -96
q-17 -17 -54 -44q-11 5 -11 11q0 4 6 9l263 208q13 11 117 11q13 0 13 -11q0 -18 -21 -40l-294 -312q-16 -17 -16 -40q0 -17 23 -17q73 0 176 125q-16 15 -16 40q0 79 67 79q38 0 38 -35q0 -24 -11 -39.5t-22 -31.5q66 15 211 174q23 29 71 84q15 15 30 16l98 5q13 0 13 -12
z" />
    <glyph glyph-name="afii10094" unicode="&#x44c;" horiz-adv-x="435" 
d="M448 221q0 -4 -3 -9q-40 -66 -133 -66q-124 -151 -237 -151q-78 0 -78 85q0 36 25 64l176 204q-189 -142 -195 -142q-11 0 -11 11q0 5 6 9l279 210q14 11 116 11q13 0 13 -11q0 -19 -20 -40l-294 -312q-21 -23 -21 -36q0 -22 36 -22q63 0 170 126q-19 15 -19 38
q0 82 68 82q39 0 39 -45q0 -8 -22 -52q48 8 77 39q7 9 15 19q13 -1 13 -12z" />
    <glyph glyph-name="afii10095" unicode="&#x44d;" horiz-adv-x="455" 
d="M467 358q0 -42 -26 -95q-28 -56 -28 -57q26 24 41 24q12 0 12 -12q0 -7 -71 -52.5t-83 -48.5q-42 -40 -111 -77q-77 -42 -124 -42q-103 0 -103 117q0 70 64 70q59 0 59 -56q0 -55 -59 -55q-23 0 -38 15v-3q0 -49 51 -49q48 0 145 100q21 22 128 147q-52 -35 -79 -35
q-17 0 -30.5 10t-22.5 10q-12 0 -28.5 -11.5t-18.5 -11.5q-13 0 -13 11q0 15 37 33q34 16 52 16q12 0 34.5 -6.5t34.5 -6.5q3 0 53 25q40 66 40 92q0 27 -43 27q-59 0 -199 -114t-139 -114q-11 0 -11 11q0 4 6 9q87 72 175 144q123 94 193 94q44 0 73 -32.5t29 -76.5z" />
    <glyph glyph-name="afii10096" unicode="&#x44e;" horiz-adv-x="796" 
d="M811 222q0 -11 -43 -42.5t-69 -31.5q-5 0 -9 1l-11 -11q-153 -152 -269 -152q-93 0 -93 106q0 90 60 144q-13 -1 -34 -1h-23q-16 1 -24 1l-187 -217q-13 -15 -31 -16l-95 -3q-12 0 -12 11q0 16 20 39l287 315q17 18 17 34q0 14 -17 14q-22 0 -96 -60l-176 -141
q-1 0 -6 -3q-11 2 -11 11q0 5 5 9l210 172q58 48 108 48q30 0 49.5 -26.5t19.5 -57.5q0 -30 -66 -108q5 0 16 -1h16q40 0 59 14l27 27q66 63 148 112q101 60 169 60q61 0 61 -47q0 3 -9 -57q4 -9 4 -21q0 -67 -90 -152q-6 -5 -8 -9l3 -4q21 0 50.5 25t38.5 25q11 0 11 -7z
M770 401q0 7 -3.5 18t-4.5 16q-4 6 -19 6h-6q-18 0 -44 -23q-318 -284 -318 -371q0 -32 43 -32q98 0 224 136q-25 7 -25 37q0 50 48 119q51 74 99 74q6 9 6 20z" />
    <glyph glyph-name="afii10097" unicode="&#x44f;" horiz-adv-x="649" 
d="M689 438q0 -18 -20 -40l-288 -316q-18 -19 -18 -35q0 -13 15 -13q38 0 150 100t121 101q11 -1 11 -12q0 -4 -5 -8l-201 -168q-57 -49 -101 -49q-33 0 -54 27q-20 24 -20 58q0 32 63 105q-10 -3 -58 -3q-32 0 -68 -27.5t-52 -58.5q-22 -39 -64 -72q-47 -36 -87 -36
q-78 0 -78 66q0 71 55 71q46 0 46 -43q0 -44 -46 -44q-17 0 -29 13v-4q0 -41 54 -41q32 0 90 76q63 84 137 104q0 5 -25 30.5t-25 54.5q0 71 53.5 128t124.5 57q119 0 125 -95q63 72 74.5 77.5t108.5 5.5q11 0 11 -9zM468 368q0 51 -39 51q-35 0 -97 -70.5t-62 -110.5
q0 -34 36 -34q21 0 73 25l84 98q5 19 5 41z" />
    <glyph glyph-name="afii10071" unicode="&#x451;" horiz-adv-x="536" 
d="M563 373q0 -134 -383 -223q-66 -68 -66 -108q0 -36 34 -36q73 0 199 92q170 123 187 132q11 -3 11 -12q0 -6 -89 -68q-52 -36 -103 -72q-114 -89 -205 -89q-98 0 -98 97q0 133 201 276q-31 -16 -239 -147l-6 -3q-10 1 -10 11q0 5 3 10q143 105 307 170q18 6 53 19
q95 39 131 39q73 0 73 -88zM516 408q0 33 -29 33q-51 0 -283 -260q25 0 73 23l66 33q48 23 104 73q69 60 69 98zM730 693q0 -40 -63 -57q-55 6 -55 47q0 65 61 65q57 0 57 -55zM505 693q0 -40 -63 -57q-55 6 -55 47q0 65 61 65q57 0 57 -55z" />
    <glyph glyph-name="afii10101" unicode="&#x454;" horiz-adv-x="512" 
d="M536 388q0 -44 -20 -79q-25 -40 -66 -40q-54 0 -54 55q0 77 70 118q-70 -33 -226 -209q18 8 34 8q17 0 30 -10t22 -10q12 0 29 11.5t19 11.5q12 0 12 -10q0 -16 -37 -34q-33 -16 -52 -16q-12 0 -34.5 6.5t-34.5 6.5q-17 0 -30 -10q-23 -20 -57 -65q-40 -51 -40 -71
q0 -31 37 -31q89 0 229 103.5t139 103.5q4 0 9 -3l3 -8q-35 -30 -81 -70q-175 -153 -289 -153q-119 0 -119 91q0 116 186 269q-43 -23 -106 -74q-91 -72 -102 -72t-11 11q0 5 6 9q145 109 192 138q96 58 221 96q20 6 35 6q35 0 60.5 -22t25.5 -57z" />
    <glyph glyph-name="afii10103" unicode="&#x456;" horiz-adv-x="355" 
d="M560 690q0 -40 -63 -57q-55 6 -55 47q0 65 61 65q57 0 57 -55zM390 430q0 -19 -19 -40l-254 -278q-13 -14 -13 -28q0 -17 25 -17t51 17q60 50 172 144q1 1 8 3q11 -2 11 -12q0 -7 -117 -102.5t-144 -110.5q-22 -14 -63 -14q-64 0 -64 80q0 38 23 65l177 204
q-173 -132 -176 -132q-11 0 -11 12q0 4 5 7l260 201q14 10 76 10h41q12 0 12 -9z" />
    <glyph glyph-name="afii10104" unicode="&#x457;" horiz-adv-x="355" 
d="M635 694q0 -40 -63 -57q-55 6 -55 47q0 65 61 65q57 0 57 -55zM410 694q0 -40 -63 -57q-55 6 -55 47q0 65 61 65q57 0 57 -55zM390 434q0 -19 -19 -40l-254 -278q-13 -14 -13 -28q0 -17 25 -17t51 17q12 8 171 141q1 1 8 3q11 -2 11 -12q0 -7 -116.5 -100.5
t-143.5 -109.5q-22 -14 -63 -14q-64 0 -64 80q0 38 23 65l177 204q-177 -135 -180 -135q-11 0 -11 12q0 4 5 7l264 204q14 10 76 10h41q12 0 12 -9z" />
    <glyph glyph-name="afii10110" unicode="&#x45e;" horiz-adv-x="644" 
d="M757 664q0 -50 -49 -80q-42 -25 -96 -25q-138 0 -138 111q0 31 21.5 56t52.5 25q57 0 57 -56q0 -34 -40 -49v-3q0 -57 60 -57q110 0 110 81q0 58 -46 56q-1 0 -3.5 -1t-4.5 -1q-9 0 -9 6q6 11 25 11q25 0 42.5 -24t17.5 -50zM747 433q0 -13 -19 -29q-29 -25 -32 -28
q-93 -109 -278 -326q233 177 232 177q12 0 12 -12q0 -5 -4 -9l-303 -233l-3 -5q-45 -60 -269 -337q-129 -160 -278 -274q-96 -74 -137 -74q-57 0 -57 87q0 26 15 57q46 96 151 186q22 19 192 145q106 79 217 149q15 27 201 268l-172 -138q-59 -47 -102 -47q-73 0 -73 91
q0 28 26 55l211 223q16 17 16 35q0 12 -16 12q-36 0 -148 -101t-118 -101q-9 0 -9 13l201 177q53 48 105 48q31 0 50 -31q17 -27 17 -60q0 -31 -23 -55l-212 -223q-17 -17 -17 -36q0 -12 14 -12q25 0 101 60l208 165q1 0 60 77q87 113 123 127q10 3 36 3q82 0 82 -24z
M163 -135q-313 -210 -453 -391q-65 -83 -65 -128q0 -38 26 -38q59 0 165 134q112 139 327 423z" />
    <glyph glyph-name="afii10050" unicode="&#x490;" horiz-adv-x="1292" 
d="M2480 1533q0 -27 -15 -65q-19 -46 -21 -59l-9 -9q-78 -78 -279 -78q-100 0 -299 25.5t-301 25.5q-152 0 -267 -38q-126 -42 -273 -172q-165 -147 -165 -258q0 -53 38.5 -93.5t90.5 -40.5q61 0 144 40q113 53 245 181q154 149 154 248q0 17 -8 41t-8 23q0 5 4 7.5t7 2.5
q4 0 12 -7q28 -62 28 -101q0 -94 -110 -220q-60 -69 -108 -109q-158 -131 -349 -131q-65 0 -114.5 50.5t-49.5 116.5q0 57 52 140q43 70 96 119q302 282 739 282q129 0 232 -16q257 -42 331 -42q71 0 99 14q7 3 40.5 77t42.5 74q21 0 21 -28zM1945 1289q0 -4 -5 -8
q-209 -185 -348 -384q-84 -123 -167 -246q-100 -146 -181 -236q-91 -102 -282 -232q-291 -197 -558 -197q-157 0 -262 81q-114 88 -114 241q0 74 22 132q55 145 212 246q153 97 313 97q119 0 187 -61q71 -64 71 -181q0 -134 -127 -233q-118 -91 -256 -91q-103 0 -167 64
q-4 4 -4 9q0 7 10 11q11 -7 34 -19q54 -30 102 -30q99 0 199 65q94 62 146 152q32 56 32 106q0 93 -70 143q-61 44 -159 44q-114 0 -238 -62t-197 -153q-86 -107 -86 -239q0 -94 73 -179q92 -109 287 -109q90 0 178 31q208 73 387 255q66 66 300 359q291 366 513 531
q140 105 144 105q11 0 11 -12z" />
    <glyph glyph-name="afii10098" unicode="&#x491;" horiz-adv-x="398" 
d="M403 213q0 -6 -4 -9l-195 -164q-55 -46 -117 -46q-84 0 -84 79q0 71 151.5 166t151.5 144q0 3 -1 9l-33 -28q3 6 23 43q-7 2 -10 2q1 0 -27 -6q-34 -7 -205 -155q-18 -16 -47 -37q-9 7 -9 13q0 4 5 7l207 168q61 49 104 47q4 13 4 24t-5 20l50 24q7 -12 7 -24
q0 -21 -22 -50q54 -17 54 -92q0 -36 -27 -59q-33 -26 -85 -53q-56 -28 -111 -74q-74 -61 -74 -101q0 -28 27 -28q12 0 24 3q18 4 126 96.5t111 92.5q11 0 11 -12z" />
    <glyph glyph-name="quoteleft" unicode="&#x2018;" 
d="M123 461q0 25 43 69t69 52q2 -1 2 -4q0 -5 -16.5 -32t-16.5 -34q0 -2 1 -2q36 -4 36 -40q0 -65 -61 -65q-57 0 -57 56z" />
    <glyph glyph-name="quoteright" unicode="&#x2019;" 
d="M241 526q0 -25 -43 -69.5t-69 -51.5q-2 1 -2 4q0 4 16.5 31t16.5 35q0 1 -1 2q-36 4 -36 40q0 65 61 65q57 0 57 -56z" />
    <glyph glyph-name="quotesinglbase" unicode="&#x201a;" 
d="M81 56q0 -25 -43 -69.5t-69 -51.5q-2 1 -2 4q0 4 16.5 31t16.5 35q0 1 -1 2q-36 4 -36 40q0 65 61 65q57 0 57 -56z" />
    <glyph glyph-name="quotedblleft" unicode="&#x201c;" 
d="M323 461q0 25 43 69t69 52q2 -1 2 -4q0 -5 -16.5 -32t-16.5 -34q0 -2 1 -2q36 -4 36 -40q0 -65 -61 -65q-57 0 -57 56zM123 461q0 25 43 69t69 52q2 -1 2 -4q0 -5 -16.5 -32t-16.5 -34q0 -2 1 -2q36 -4 36 -40q0 -65 -61 -65q-57 0 -57 56z" />
    <glyph glyph-name="quotedblright" unicode="&#x201d;" 
d="M241 526q0 -25 -43 -69.5t-69 -51.5q-2 1 -2 4q0 4 16.5 31t16.5 35q0 1 -1 2q-36 4 -36 40q0 65 61 65q57 0 57 -56zM441 526q0 -25 -43 -69.5t-69 -51.5q-2 1 -2 4q0 4 16.5 31t16.5 35q0 1 -1 2q-36 4 -36 40q0 65 61 65q57 0 57 -56z" />
    <glyph glyph-name="quotedblbase" unicode="&#x201e;" horiz-adv-x="314" 
d="M81 56q0 -25 -43 -69.5t-69 -51.5q-2 1 -2 4q0 4 16.5 31t16.5 35q0 1 -1 2q-36 4 -36 40q0 65 61 65q57 0 57 -56zM281 56q0 -25 -43 -69.5t-69 -51.5q-2 1 -2 4q0 4 16.5 31t16.5 35q0 1 -1 2q-36 4 -36 40q0 65 61 65q57 0 57 -56z" />
    <glyph glyph-name="guilsinglleft" unicode="&#x2039;" 
d="M139 526q-4 -7 -4 -18q0 -28 20.5 -62.5t38.5 -40.5q2 1 4 4q2 4 -2 31t0 35q0 1 2 2q37 4 54 40q8 17 8 31q0 34 -38 34q-57 0 -83 -56z" />
    <glyph glyph-name="guilsinglright" unicode="&#x203a;" 
d="M241 526q0 -25 -43 -69.5t-69 -51.5q-2 1 -2 4q0 4 16.5 31t16.5 35q0 1 -1 2q-36 4 -36 40q0 65 61 65q57 0 57 -56z" />
    <glyph glyph-name="_num1_" unicode="&#x2116;" horiz-adv-x="2437" 
d="M106 272q14 0 27.5 -4.5t24.5 -12.5t17.5 -19.5t6.5 -26.5q0 -29 -19 -46.5t-38 -17.5q-13 0 -22 5t-16 11.5t-14 11.5t-16 5q-18 0 -18 -28q0 -18 12 -42t40.5 -46t76 -37t119.5 -15q209 0 465 209q107 88 204.5 204.5t194.5 243t199.5 256t220.5 244.5q28 28 61 58
t68 58.5t69.5 53t65.5 41.5q6 0 9 -11t3 -17q-17 -11 -35 -27q-15 -14 -34 -35.5t-37 -52.5q-37 -62 -71.5 -134.5t-69 -151t-69.5 -160t-73 -160.5t-80 -152.5t-90 -136.5q-11 -15 -26 -35.5t-34 -44t-40 -49t-43 -49.5q0 -4 4 -4q51 48 99.5 95.5t82.5 84.5
q61 68 123.5 148.5t126 166t128.5 172t132.5 166.5t138 149.5t143.5 121t150 81t158 29.5q14 0 33 -4t36.5 -15.5t29.5 -32t12 -54.5q0 -16 -5.5 -32t-15.5 -28.5t-23.5 -20t-29.5 -7.5q-19 0 -36 13t-17 38q0 18 10 31t21.5 23t21.5 18.5t10 17.5q0 12 -13.5 18t-35.5 6
q-77 0 -153.5 -33t-151 -89t-147 -131t-141.5 -158.5t-134.5 -171.5t-127 -170.5t-117.5 -155t-107 -125.5q-33 -34 -71 -73t-82.5 -81t-97 -86.5t-114.5 -88.5q-8 0 -13 8t-5 16q17 14 44 42.5t52 72.5q35 60 74 136t80 160t83.5 171.5t85.5 171.5t86 160t84 137
q32 46 69.5 93t72.5 89q0 4 -4 4q-29 -25 -61 -56t-64 -65q-117 -122 -225 -262t-220 -285q-88 -114 -173.5 -211t-184.5 -176q-119 -96 -239 -151t-248 -55q-77 0 -130 18t-86 45t-48 58t-15 57q0 55 30.5 84.5t75.5 29.5zM2232 446q-26 -29 -45.5 -44t-36.5 -15
q-12 0 -23.5 7.5t-25.5 23.5q-29 -32 -60.5 -63t-64.5 -55t-65 -39t-60 -15q-53 0 -74.5 29t-21.5 69q0 38 20 79.5t46 78.5q85 117 174 176t188 59q42 0 57 -15t15 -40q0 -34 -23 -79.5t-63 -100.5l-26 -34t-27 -34q8 -9 14.5 -15.5t17.5 -6.5q10 0 21.5 8.5t28.5 25.5h34z
M2193 713q-15 0 -42.5 -15t-60 -40t-67 -58.5t-63.5 -69.5q-27 -33 -51 -67.5t-41.5 -65.5t-28 -55.5t-10.5 -36.5q0 -17 11 -23t24 -6q24 0 53 14.5t59 37.5t58.5 51t52.5 55q-16 24 -16 49q0 15 16.5 36.5t40 43.5t49 42t43.5 32q6 21 6 39q0 17 -8 27t-25 10zM1477 94
q0 8 3 15q2 5 6.5 10t12.5 6q11 0 64 -1t137 -1q54 0 102.5 0.5t87.5 1t67.5 1.5t43.5 3q-3 -15 -9 -25t-14 -10q-5 0 -29.5 0.5t-63 0.5t-87 0.5t-100.5 0.5q-54 0 -95 -0.5t-69 -0.5q-33 -1 -57 -1zM1411 -18q1 8 4 14q2 5 6.5 10t12.5 6q11 0 64 -1t136 -1
q55 0 103.5 0.5t87.5 1t67 1.5t43 3q-3 -15 -8.5 -24.5t-13.5 -9.5q-5 0 -29.5 0.5t-63 0.5t-87.5 0.5t-101 0.5q-54 0 -94 -0.5t-69 -0.5q-33 -1 -58 -1z" />
    <glyph glyph-name="NULL" horiz-adv-x="0" 
 />
  </font>
</defs>
</svg>
