<?xml version="1.0" standalone="no"?>
<!DOCTYPE svg PUBLIC "-//W3C//DTD SVG 1.1//EN" "http://www.w3.org/Graphics/SVG/1.1/DTD/svg11.dtd" >
<svg xmlns="http://www.w3.org/2000/svg" xmlns:xlink="http://www.w3.org/1999/xlink" version="1.1">
<metadata>
Created by FontForge 20201107 at Tue Jul 11 14:40:11 2023
 By www-data
Copyright Dmitriy Sychiov 2016
</metadata>
<defs>
<font id="Kirpich" horiz-adv-x="1945" >
  <font-face 
    font-family="Kirpich"
    font-weight="400"
    font-stretch="normal"
    units-per-em="2048"
    panose-1="0 0 4 0 0 0 0 0 0 0"
    ascent="2048"
    descent="0"
    x-height="1664"
    cap-height="2048"
    bbox="-320 -896 4096 3456"
    underline-thickness="102"
    underline-position="153"
    unicode-range="U+0020-FB01"
  />
<missing-glyph horiz-adv-x="1703" 
d="M1506 50l-719 954l-718 -954h1437zM50 69l718 955l-718 954v-1909zM1525 69v1909l-719 -954zM787 1043l719 955h-1437zM0 0v2048h1575v-2048h-1575z" />
    <glyph glyph-name=".notdef" horiz-adv-x="1703" 
d="M1506 50l-719 954l-718 -954h1437zM50 69l718 955l-718 954v-1909zM1525 69v1909l-719 -954zM787 1043l719 955h-1437zM0 0v2048h1575v-2048h-1575z" />
    <glyph glyph-name=".null" horiz-adv-x="0" 
 />
    <glyph glyph-name="nonmarkingreturn" horiz-adv-x="682" 
 />
    <glyph glyph-name="space" unicode=" " horiz-adv-x="921" 
 />
    <glyph glyph-name="exclam" unicode="!" horiz-adv-x="793" 
d="M128 0q-54 0 -91 37q-37 38 -37 91v256q0 53 37 90q38 38 91 38h384q53 0 90 -38q38 -38 38 -90v-256q0 -54 -38 -91t-90 -37h-384zM128 640q-54 0 -91 37q-37 38 -37 91v1152q0 53 37 90q38 38 91 38h384q53 0 90 -38q38 -38 38 -90v-1152q0 -54 -38 -91t-90 -37h-384z
" />
    <glyph glyph-name="quotedbl" unicode="&#x22;" horiz-adv-x="1305" 
d="M128 1280q-54 0 -91 37q-37 38 -37 91v512q0 53 37 90q38 38 91 38h256q53 0 90 -38q38 -38 38 -90v-512q0 -54 -38 -91t-90 -37h-256zM768 1280q-54 0 -91 37q-37 38 -37 91v512q0 53 37 90q38 38 91 38h256q53 0 90 -38q38 -38 38 -90v-512q0 -54 -38 -91t-90 -37h-256
z" />
    <glyph glyph-name="numbersign" unicode="#" horiz-adv-x="2457" 
d="M1344 896l128 256h-512l-128 -256h512zM0 0l192 384h-64q-54 0 -91 37q-37 38 -37 91v256q0 53 37 90q38 38 91 38h320l128 256h-192q-54 0 -91 37q-37 38 -37 91v256q0 53 37 90q38 38 91 38h448l192 384h384l-192 -384h512l192 384h384l-192 -384h64q53 0 90 -38
q38 -38 38 -90v-256q0 -54 -38 -91t-90 -37h-320l-128 -256h192q53 0 90 -38q38 -38 38 -90v-256q0 -54 -38 -91t-90 -37h-448l-192 -384h-384l192 384h-512l-192 -384h-384z" />
    <glyph glyph-name="dollar" unicode="$" horiz-adv-x="1817" 
d="M1152 512q52 0 90 37q38 38 38 91q0 52 -38 90t-90 38h-128v-256h128zM640 1280v256h-128q-53 0 -91 -38q-37 -38 -37 -90q0 -53 37 -91q38 -37 91 -37h128zM768 -128q-54 0 -91 38t-37 90h-512q-54 0 -91 37q-37 38 -37 91v384q0 53 37 90q38 38 91 38h256q53 0 90 -38
q38 -38 38 -90h128v256h-512q-54 0 -91 37q-37 38 -37 91v1024q0 53 37 90q38 38 91 38h512q0 53 37 90q38 38 91 38h128q53 0 90 -38q38 -38 38 -90h512q53 0 90 -38q38 -38 38 -90v-384q0 -54 -38 -91t-90 -37h-256q-54 0 -91 37q-37 38 -37 91h-128v-256h512q53 0 90 -38
q38 -38 38 -90v-1024q0 -54 -38 -91t-90 -37h-512q0 -53 -38 -90q-38 -38 -90 -38h-128z" />
    <glyph glyph-name="percent" unicode="%" horiz-adv-x="3609" 
d="M2944 512q52 0 90 37q38 38 38 91q0 52 -38 90t-90 38h-512q-53 0 -91 -38q-37 -38 -37 -90q0 -53 37 -91q38 -37 91 -37h512zM1024 1280q52 0 90 37q38 38 38 91q0 52 -38 90t-90 38h-512q-53 0 -91 -38q-37 -38 -37 -90q0 -53 37 -91q38 -37 91 -37h512zM640 0
q-54 0 -91 37q-37 38 -37 91v256q0 53 37 90q38 38 91 38h640l128 256h-1280q-54 0 -91 37q-37 38 -37 91v1024q0 53 37 90q38 38 91 38h1280q53 0 90 -38q38 -38 38 -90v-768h64l320 640v128q0 53 37 90q38 38 91 38h768q53 0 90 -38q38 -38 38 -90v-256q0 -54 -38 -91
t-90 -37h-640l-128 -256h1280q53 0 90 -38q38 -38 38 -90v-1024q0 -54 -38 -91t-90 -37h-1280q-54 0 -91 37q-37 38 -37 91v768h-64l-320 -640v-128q0 -54 -38 -91t-90 -37h-768z" />
    <glyph glyph-name="ampersand" unicode="&#x26;" horiz-adv-x="2585" 
d="M1664 512q52 0 90 37q38 38 38 91q0 52 -38 90t-90 38h-896q-53 0 -91 -38q-37 -38 -37 -90q0 -53 37 -91q38 -37 91 -37h896zM1152 1280q52 0 90 37q38 38 38 91q0 52 -38 90t-90 38h-256q-53 0 -91 -38q-37 -38 -37 -90q0 -53 37 -91q38 -37 91 -37h256zM128 0
q-54 0 -91 37q-37 38 -37 91v256q0 53 37 90q38 38 91 38q52 0 90 37q38 38 38 91v256q0 53 37 90q38 38 91 38h256q0 52 -38 90t-90 38q-53 0 -91 37q-37 37 -37 91v256h-128q-54 0 -91 37q-37 38 -37 91v256q0 53 37 90q38 38 91 38h1536q53 0 90 -38q38 -38 38 -90v-256
q0 -54 -38 -91t-90 -37q-53 0 -91 -38q-37 -38 -37 -90q0 -54 -38 -91t-90 -37h256q0 53 37 90q38 38 91 38h128q53 0 90 -38q38 -38 38 -90h128q53 0 90 -38q38 -38 38 -90v-256q0 -54 -38 -91t-90 -37h-128v-128q0 -53 37 -91q38 -37 91 -37t90 -38q38 -38 38 -90v-256
q0 -54 -38 -91t-90 -37h-2176z" />
    <glyph glyph-name="quotesingle" unicode="'" horiz-adv-x="665" 
d="M128 1280q-54 0 -91 37q-37 38 -37 91v512q0 53 37 90q38 38 91 38h256q53 0 90 -38q38 -38 38 -90v-512q0 -54 -38 -91t-90 -37h-256z" />
    <glyph glyph-name="parenleft" unicode="(" horiz-adv-x="1305" 
d="M128 0q-54 0 -91 37q-37 38 -37 91v256q0 53 37 90q38 38 91 38h128v1024h-128q-54 0 -91 37q-37 38 -37 91v256q0 53 37 90q38 38 91 38h896q53 0 90 -38q38 -38 38 -90v-256q0 -54 -38 -91t-90 -37h-256q-53 0 -91 -38q-37 -38 -37 -90v-768q0 -53 37 -91
q38 -37 91 -37h256q53 0 90 -38q38 -38 38 -90v-256q0 -54 -38 -91t-90 -37h-896z" />
    <glyph glyph-name="parenright" unicode=")" horiz-adv-x="1305" 
d="M128 0q-54 0 -91 37q-37 38 -37 91v256q0 53 37 90q38 38 91 38h256q52 0 90 37q38 38 38 91v768q0 52 -38 90t-90 38h-256q-54 0 -91 37q-37 38 -37 91v256q0 53 37 90q38 38 91 38h896q53 0 90 -38q38 -38 38 -90v-256q0 -54 -38 -91t-90 -37h-128v-1024h128
q53 0 90 -38q38 -38 38 -90v-256q0 -54 -38 -91t-90 -37h-896z" />
    <glyph glyph-name="asterisk" unicode="*" 
d="M256 1536q-53 0 -91 37q-37 37 -37 91v256q0 52 37 90t91 38h256q52 0 90 37q38 38 38 91h-512q-54 0 -91 37q-37 38 -37 91v256q0 53 37 90q38 38 91 38h256q53 0 90 -38q38 -38 38 -90q0 -53 37 -91q38 -37 91 -37v384q0 53 37 90q38 38 91 38h256q53 0 90 -38
q38 -38 38 -90v-384q52 0 90 37q38 38 38 91t37 90q38 38 91 38h256q52 0 90 -38q38 -37 38 -90v-256q0 -53 -38 -91q-37 -37 -90 -37h-512q0 -53 37 -91q38 -37 91 -37h256q53 0 90 -38q38 -38 38 -90v-256q0 -54 -38 -91t-90 -37h-384q-54 0 -91 37q-37 38 -37 91
q0 52 -38 90t-90 38q-53 0 -91 -38q-37 -38 -37 -90q0 -54 -38 -91t-90 -37h-384z" />
    <glyph glyph-name="plus" unicode="+" 
d="M768 0q-54 0 -91 37q-37 38 -37 91v512h-512q-54 0 -91 37q-37 38 -37 91v256q0 53 37 90q38 38 91 38h512v512q0 53 37 90q38 38 91 38h256q53 0 90 -38q38 -38 38 -90v-512h512q53 0 90 -38q38 -38 38 -90v-256q0 -54 -38 -91t-90 -37h-512v-512q0 -54 -38 -91t-90 -37
h-256z" />
    <glyph glyph-name="comma" unicode="," horiz-adv-x="793" 
d="M256 -384q-54 0 -91 38t-37 90v256q-54 0 -91 37q-37 38 -37 91v256q0 53 37 90q38 38 91 38h384q53 0 90 -38q38 -38 38 -90v-640q0 -53 -38 -90q-38 -38 -90 -38h-256z" />
    <glyph glyph-name="hyphen" unicode="-" 
d="M128 640q-54 0 -91 37q-37 38 -37 91v256q0 53 37 90q38 38 91 38h1536q53 0 90 -38q38 -38 38 -90v-256q0 -54 -38 -91t-90 -37h-1536z" />
    <glyph glyph-name="period" unicode="." horiz-adv-x="1049" 
d="M128 0q-54 0 -91 37q-37 38 -37 91v256q0 53 37 90q38 38 91 38h640q53 0 90 -38q38 -38 38 -90v-256q0 -54 -38 -91t-90 -37h-640z" />
    <glyph glyph-name="slash" unicode="/" horiz-adv-x="1561" 
d="M0 0l1024 2048h384l-1024 -2048h-384z" />
    <glyph glyph-name="zero" unicode="0" horiz-adv-x="1689" 
d="M1024 896q52 0 90 37q38 38 38 91q0 52 -38 90t-90 38h-512q-53 0 -91 -38q-37 -38 -37 -90q0 -53 37 -91q38 -37 91 -37h512zM128 384q-54 0 -91 37q-37 38 -37 91v1024q0 53 37 90q38 38 91 38h1280q53 0 90 -38q38 -38 38 -90v-1024q0 -54 -38 -91t-90 -37h-1280z" />
    <glyph glyph-name="one" unicode="1" horiz-adv-x="1177" 
d="M128 0q-54 0 -91 37q-37 38 -37 91v256q0 53 37 90q38 38 91 38h128v1024h-128q-54 0 -91 37q-37 38 -37 91v256q0 53 37 90q38 38 91 38h768q53 0 90 -38q38 -38 38 -90v-256q0 -54 -38 -91t-90 -37h-128v-1024h128q53 0 90 -38q38 -38 38 -90v-256q0 -54 -38 -91
t-90 -37h-768z" />
    <glyph glyph-name="two" unicode="2" 
d="M128 0q-53 0 -91 37q-37 37 -37 91v1024q0 52 37 90t91 38h1024q52 0 90 37q38 38 38 91q0 52 -38 90t-90 38h-512q0 -53 -38 -91q-37 -37 -90 -37h-256q-53 0 -91 37q-37 37 -37 91v384q0 52 37 90t91 38h1280q52 0 90 -38q38 -37 38 -90v-1024q0 -53 -38 -91
q-37 -37 -90 -37h-1024q-53 0 -91 -38q-37 -38 -37 -90q0 -53 37 -91q38 -37 91 -37h768q0 52 37 90t91 38h256q52 0 90 -38q38 -37 38 -90v-384q0 -53 -38 -91q-37 -37 -90 -37h-1536z" />
    <glyph glyph-name="three" unicode="3" 
d="M128 0q-54 0 -91 37q-37 38 -37 91v384q0 53 37 90q38 38 91 38h256q53 0 90 -38q38 -38 38 -90h640q52 0 90 37q38 38 38 91q0 52 -38 90t-90 38h-384q-54 0 -91 37q-37 38 -37 91v256q0 53 37 90q38 38 91 38h384q52 0 90 37q38 38 38 91q0 52 -38 90t-90 38h-640
q0 -53 -38 -91q-37 -37 -90 -37h-256q-53 0 -91 37q-37 37 -37 91v384q0 53 37 90q38 38 91 38h1536q53 0 90 -38q38 -38 38 -90v-640q0 -54 -38 -91t-90 -37h-128q-53 0 -91 -38q-37 -38 -37 -90q0 -53 37 -91q38 -37 91 -37h128q53 0 90 -38q38 -38 38 -90v-640
q0 -54 -38 -91t-90 -37h-1536z" />
    <glyph glyph-name="four" unicode="4" 
d="M896 896q52 0 90 37q38 38 38 91v768h-64l-448 -896h384zM640 -256q-53 0 -91 38q-37 37 -37 90v256q0 52 37 90t91 38h384v128h-896q-54 0 -91 37q-37 38 -37 91v128l576 1152h-64q-53 0 -91 37q-37 37 -37 91v256q0 52 37 90t91 38h1152q52 0 90 -38q38 -37 38 -90
v-256q0 -53 -38 -91q-37 -37 -90 -37h-128v-1536h128q52 0 90 -38q38 -37 38 -90v-256q0 -52 -38 -90q-37 -38 -90 -38h-1024z" />
    <glyph glyph-name="five" unicode="5" horiz-adv-x="1817" 
d="M128 0q-54 0 -91 37q-37 38 -37 91v384q0 53 37 90q38 38 91 38h256q53 0 90 -38q38 -38 38 -90h640q52 0 90 37q38 38 38 91q0 52 -38 90t-90 38h-1024q-54 0 -91 37q-37 38 -37 91v1024q0 53 37 90q38 38 91 38h1024q0 52 37 90t91 38h256q52 0 90 -38q38 -37 38 -90
v-384q0 -53 -38 -91q-37 -37 -90 -37h-1024q-53 0 -91 -38q-37 -38 -37 -90q0 -53 37 -91q38 -37 91 -37h1024q53 0 90 -38q38 -38 38 -90v-1024q0 -54 -38 -91t-90 -37h-1408z" />
    <glyph glyph-name="six" unicode="6" horiz-adv-x="1817" 
d="M1152 512q52 0 90 37q38 38 38 91q0 52 -38 90t-90 38h-640q-53 0 -91 -38q-37 -38 -37 -90q0 -53 37 -91q38 -37 91 -37h640zM128 0q-54 0 -91 37q-37 38 -37 91v1792q0 53 37 90q38 38 91 38h1280q53 0 90 -38q38 -38 38 -90v-384q0 -54 -38 -91t-90 -37h-256
q-54 0 -91 37q-37 38 -37 91h-512q-53 0 -91 -38q-37 -38 -37 -90q0 -53 37 -91q38 -37 91 -37h1024q53 0 90 -38q38 -38 38 -90v-1024q0 -54 -38 -91t-90 -37h-1408z" />
    <glyph glyph-name="seven" unicode="7" horiz-adv-x="1817" 
d="M256 0q-54 0 -91 37q-37 38 -37 91v256q0 53 37 90q38 38 91 38h128l128 256q-54 0 -91 37q-37 38 -37 91v256q0 53 37 90q38 38 91 38h256l128 256h-768q-54 0 -91 37q-37 38 -37 91v256q0 53 37 90q38 38 91 38h1408q53 0 90 -38q38 -38 38 -90v-256q0 -54 -38 -91
t-90 -37h-128l-128 -256q53 0 90 -38q38 -38 38 -90v-256q0 -54 -38 -91t-90 -37h-256l-128 -256h256q53 0 90 -38q38 -38 38 -90v-256q0 -54 -38 -91t-90 -37h-896z" />
    <glyph glyph-name="eight" unicode="8" horiz-adv-x="1817" 
d="M1152 512q52 0 90 37q38 38 38 91q0 52 -38 90t-90 38h-640q-53 0 -91 -38q-37 -38 -37 -90q0 -53 37 -91q38 -37 91 -37h640zM1152 1280q52 0 90 37q38 38 38 91q0 52 -38 90t-90 38h-640q-53 0 -91 -38q-37 -38 -37 -90q0 -53 37 -91q38 -37 91 -37h640zM128 0
q-53 0 -91 37q-37 37 -37 91v640q0 52 37 90t91 38h128q52 0 90 37q38 38 38 91q0 52 -38 90t-90 38h-128q-53 0 -91 37q-37 37 -37 91v640q0 52 37 90t91 38h1408q53 0 90 -38q38 -38 38 -90v-640q0 -54 -38 -91t-90 -37h-128q-53 0 -91 -38q-37 -38 -37 -90q0 -53 37 -91
q38 -37 91 -37h128q53 0 90 -38q38 -38 38 -90v-640q0 -54 -38 -91t-90 -37h-1408z" />
    <glyph glyph-name="nine" unicode="9" horiz-adv-x="1817" 
d="M1152 1280q52 0 90 37q38 38 38 91q0 52 -38 90t-90 38h-640q-53 0 -91 -38q-37 -38 -37 -90q0 -53 37 -91q38 -37 91 -37h640zM256 0q-54 0 -91 37q-37 38 -37 91v384q0 53 37 90q38 38 91 38h256q53 0 90 -38q38 -38 38 -90h512q52 0 90 37q38 38 38 91q0 52 -38 90
t-90 38h-1024q-54 0 -91 37q-37 38 -37 91v1024q0 53 37 90q38 38 91 38h1408q53 0 90 -38q38 -38 38 -90v-1792q0 -54 -38 -91t-90 -37h-1280z" />
    <glyph glyph-name="colon" unicode=":" horiz-adv-x="1049" 
d="M128 0q-54 0 -91 37q-37 38 -37 91v256q0 53 37 90q38 38 91 38h640q53 0 90 -38q38 -38 38 -90v-256q0 -54 -38 -91t-90 -37h-640zM128 640q-54 0 -91 37q-37 38 -37 91v256q0 53 37 90q38 38 91 38h640q53 0 90 -38q38 -38 38 -90v-256q0 -54 -38 -91t-90 -37h-640z
" />
    <glyph glyph-name="semicolon" unicode=";" horiz-adv-x="1049" 
d="M384 -384q-54 0 -91 38t-37 90v256q-54 0 -91 37q-37 38 -37 91v256q0 53 37 90q38 38 91 38h384q53 0 90 -38q38 -38 38 -90v-640q0 -53 -38 -90q-38 -38 -90 -38h-256zM128 640q-54 0 -91 37q-37 38 -37 91v256q0 53 37 90q38 38 91 38h640q53 0 90 -38q38 -38 38 -90
v-256q0 -54 -38 -91t-90 -37h-640z" />
    <glyph glyph-name="less" unicode="&#x3c;" horiz-adv-x="1177" 
d="M256 0q-53 0 -91 37q-37 37 -37 91v256q0 52 37 90t91 38h64l-256 512l256 512h-64q-54 0 -91 37q-37 38 -37 91v256q0 53 37 90q38 38 91 38h640q53 0 90 -38q38 -38 38 -90v-256q0 -54 -38 -91t-90 -37h-192l-256 -512l256 -512h192q52 0 90 -38q38 -37 38 -90v-256
q0 -53 -38 -91q-37 -37 -90 -37h-640z" />
    <glyph glyph-name="equal" unicode="=" horiz-adv-x="2073" 
d="M128 384q-54 0 -91 37q-37 38 -37 91v256q0 53 37 90q38 38 91 38h1664q53 0 90 -38q38 -38 38 -90v-256q0 -54 -38 -91t-90 -37h-1664zM128 1024q-54 0 -91 37q-37 38 -37 91v256q0 53 37 90q38 38 91 38h1664q53 0 90 -38q38 -38 38 -90v-256q0 -54 -38 -91t-90 -37
h-1664z" />
    <glyph glyph-name="greater" unicode="&#x3e;" horiz-adv-x="1177" 
d="M128 0q-54 0 -91 37q-37 38 -37 91v256q0 53 37 90q38 38 91 38h192l256 512l-256 512h-192q-53 0 -91 37q-37 37 -37 91v256q0 52 37 90t91 38h640q52 0 90 -38q38 -37 38 -90v-256q0 -53 -38 -91q-37 -37 -90 -37h-64l256 -512l-256 -512h64q53 0 90 -38q38 -38 38 -90
v-256q0 -54 -38 -91t-90 -37h-640z" />
    <glyph glyph-name="question" unicode="?" horiz-adv-x="1817" 
d="M128 0q-54 0 -91 37q-37 38 -37 91v256q0 53 37 90q38 38 91 38h640q53 0 90 -38q38 -38 38 -90v-256q0 -54 -38 -91t-90 -37h-640zM128 640q-54 0 -91 37q-37 38 -37 91v384q0 52 37 90t91 38h1024q52 0 90 37q38 38 38 91q0 52 -38 90t-90 38h-640q0 -53 -38 -91
q-37 -37 -90 -37h-256q-53 0 -91 37q-37 37 -37 91v384q0 52 37 90t91 38h1408q52 0 90 -38q38 -37 38 -90v-1024q0 -53 -38 -91q-37 -37 -90 -37h-1024q0 -54 -38 -91t-90 -37h-256z" />
    <glyph glyph-name="at" unicode="@" horiz-adv-x="2713" 
d="M1536 640q52 0 90 37q38 38 38 91q0 52 -38 90t-90 38h-512q-53 0 -91 -38q-37 -38 -37 -90q0 -53 37 -91q38 -37 91 -37h512zM128 -512q-54 0 -91 38t-37 90v2432q0 53 37 90q38 38 91 38h2304q53 0 90 -38q38 -38 38 -90v-1792q0 -54 -38 -91t-90 -37h-1792
q-54 0 -91 37q-37 38 -37 91v1024q0 53 37 90q38 38 91 38h1024q0 53 37 90q38 38 91 38h128q53 0 90 -38q38 -38 38 -90v-896q52 0 90 37q38 38 38 91v896q0 52 -38 90t-90 38h-1536q-53 0 -91 -38q-37 -38 -37 -90v-1408q0 -53 37 -91q38 -37 91 -37h1024q53 0 90 -37
q38 -38 38 -91v-256q0 -53 -38 -90q-38 -38 -90 -38h-1408z" />
    <glyph glyph-name="A" unicode="A" horiz-adv-x="2201" 
d="M1216 1152l-192 384l-192 -384h384zM128 0q-54 0 -91 37q-37 38 -37 91v256q0 53 37 90q38 38 91 38h128v256l384 768q-53 0 -91 37q-37 37 -37 91v256q0 52 37 90t91 38h768q53 0 90 -38q38 -38 38 -90v-256q0 -54 -38 -91t-90 -37l384 -768v-256h128q53 0 90 -38
q38 -38 38 -90v-256q0 -54 -38 -91t-90 -37h-640q-54 0 -91 37q-37 38 -37 91v256q0 53 37 90q38 38 91 38h128v128h-768v-128h128q53 0 90 -38q38 -38 38 -90v-256q0 -54 -38 -91t-90 -37h-640z" />
    <glyph glyph-name="B" unicode="B" horiz-adv-x="2073" 
d="M1408 512q52 0 90 37q38 38 38 91q0 52 -38 90t-90 38h-640q-53 0 -91 -38q-37 -38 -37 -90q0 -53 37 -91q38 -37 91 -37h640zM1280 1280q52 0 90 37q38 38 38 91q0 52 -38 90t-90 38h-512q-53 0 -91 -38q-37 -38 -37 -90q0 -53 37 -91q38 -37 91 -37h512zM128 0
q-54 0 -91 37q-37 38 -37 91v256q0 53 37 90q38 38 91 38h128v1024h-128q-54 0 -91 37q-37 38 -37 91v256q0 53 37 90q38 38 91 38h1536q53 0 90 -38q38 -38 38 -90v-640q0 -54 -38 -91t-90 -37q-53 0 -91 -38q-37 -38 -37 -90q0 -53 37 -91q38 -37 91 -37h128q53 0 90 -38
q38 -38 38 -90v-640q0 -54 -38 -91t-90 -37h-1664z" />
    <glyph glyph-name="C" unicode="C" 
d="M128 0q-53 0 -91 37q-37 37 -37 91v1792q0 52 37 90t91 38h1536q52 0 90 -38q38 -37 38 -90v-512q0 -54 -38 -91t-90 -37h-256q-54 0 -91 37q-37 38 -37 91q0 52 -38 90t-90 38h-640q-53 0 -91 -38q-37 -38 -37 -90v-768q0 -53 37 -91q38 -37 91 -37h640q52 0 90 37
q38 38 38 91q0 52 37 90t91 38h256q52 0 90 -38q38 -37 38 -90v-512q0 -53 -38 -91q-37 -37 -90 -37h-1536z" />
    <glyph glyph-name="D" unicode="D" horiz-adv-x="2073" 
d="M1408 512q52 0 90 37q38 38 38 91v768q0 52 -38 90t-90 38h-640v-1024h640zM128 0q-54 0 -91 37q-37 38 -37 91v256q0 53 37 90q38 38 91 38h128q52 0 90 37q38 38 38 91v768q0 52 -38 90t-90 38h-128q-54 0 -91 37q-37 38 -37 91v256q0 53 37 90q38 38 91 38h1664
q53 0 90 -38q38 -38 38 -90v-1792q0 -54 -38 -91t-90 -37h-1664z" />
    <glyph glyph-name="E" unicode="E" 
d="M128 0q-54 0 -91 37q-37 38 -37 91v256q0 53 37 90q38 38 91 38h128v1024h-128q-54 0 -91 37q-37 38 -37 91v256q0 53 37 90q38 38 91 38h1536q52 0 90 -38q38 -37 38 -90v-512q0 -54 -38 -91t-90 -37h-256q-54 0 -91 37q-37 38 -37 91q0 52 -38 90t-90 38h-384
q-53 0 -91 -38q-37 -38 -37 -90q0 -53 37 -91q38 -37 91 -37h256q53 0 90 -38q38 -38 38 -90v-256q0 -54 -38 -91t-90 -37h-256q-53 0 -91 -38q-37 -38 -37 -90q0 -53 37 -91q38 -37 91 -37h384q52 0 90 37q38 38 38 91q0 52 37 90t91 38h256q52 0 90 -38q38 -37 38 -90
v-512q0 -53 -38 -91q-37 -37 -90 -37h-1536z" />
    <glyph glyph-name="F" unicode="F" 
d="M128 0q-54 0 -91 37q-37 38 -37 91v256q0 53 37 90q38 38 91 38h128v1024h-128q-54 0 -91 37q-37 38 -37 91v256q0 53 37 90q38 38 91 38h1536q53 0 90 -38q38 -38 38 -90v-384q0 -54 -38 -91t-90 -37h-256q-54 0 -91 37q-37 38 -37 91h-512q-53 0 -91 -38
q-37 -38 -37 -90q0 -53 37 -91q38 -37 91 -37h384q53 0 90 -38q38 -38 38 -90v-256q0 -54 -38 -91t-90 -37h-384q-53 0 -91 -38q-37 -38 -37 -90v-128h256q53 0 90 -38q38 -38 38 -90v-256q0 -54 -38 -91t-90 -37h-768z" />
    <glyph glyph-name="G" unicode="G" 
d="M128 0q-53 0 -91 37q-37 37 -37 91v1792q0 52 37 90t91 38h1536q52 0 90 -38q38 -37 38 -90v-384q0 -53 -38 -91q-37 -37 -90 -37h-256q-54 0 -91 37q-37 38 -37 91h-768q-53 0 -91 -38q-37 -38 -37 -90v-768q0 -53 37 -91q38 -37 91 -37h768q52 0 90 37q38 38 38 91
q0 52 -38 90t-90 38h-384q-54 0 -91 37q-37 38 -37 91v256q0 53 37 90q38 38 91 38h768q53 0 90 -38q38 -38 38 -90v-1024q0 -53 -38 -91q-37 -37 -90 -37h-1536z" />
    <glyph glyph-name="H" unicode="H" horiz-adv-x="2201" 
d="M128 0q-54 0 -91 37q-37 38 -37 91v256q0 53 37 90q38 38 91 38h128v1024h-128q-54 0 -91 37q-37 38 -37 91v256q0 53 37 90q38 38 91 38h640q53 0 90 -38q38 -38 38 -90v-256q0 -54 -38 -91t-90 -37h-128v-128q0 -53 37 -91q38 -37 91 -37h512q52 0 90 37q38 38 38 91
v128h-128q-54 0 -91 37q-37 38 -37 91v256q0 53 37 90q38 38 91 38h640q53 0 90 -38q38 -38 38 -90v-256q0 -54 -38 -91t-90 -37h-128v-1024h128q53 0 90 -38q38 -38 38 -90v-256q0 -54 -38 -91t-90 -37h-640q-54 0 -91 37q-37 38 -37 91v256q0 53 37 90q38 38 91 38h128
v128q0 52 -38 90t-90 38h-512q-53 0 -91 -38q-37 -38 -37 -90v-128h128q53 0 90 -38q38 -38 38 -90v-256q0 -54 -38 -91t-90 -37h-640z" />
    <glyph glyph-name="I" unicode="I" horiz-adv-x="1177" 
d="M128 0q-54 0 -91 37q-37 38 -37 91v256q0 53 37 90q38 38 91 38h128v1024h-128q-54 0 -91 37q-37 38 -37 91v256q0 53 37 90q38 38 91 38h768q53 0 90 -38q38 -38 38 -90v-256q0 -54 -38 -91t-90 -37h-128v-1024h128q53 0 90 -38q38 -38 38 -90v-256q0 -54 -38 -91
t-90 -37h-768z" />
    <glyph glyph-name="J" unicode="J" horiz-adv-x="1561" 
d="M128 0q-54 0 -91 37q-37 38 -37 91v384q0 53 37 90q38 38 91 38h128q53 0 90 -38q38 -38 38 -90h128q52 0 90 37q38 38 38 91v896h-128q-54 0 -91 37q-37 38 -37 91v256q0 53 37 90q38 38 91 38h768q53 0 90 -38q38 -38 38 -90v-256q0 -54 -38 -91t-90 -37h-128v-1408
q0 -53 -38 -91q-37 -37 -90 -37h-896z" />
    <glyph glyph-name="K" unicode="K" horiz-adv-x="2073" 
d="M128 0q-54 0 -91 37q-37 38 -37 91v256q0 53 37 90q38 38 91 38h128v1024h-128q-54 0 -91 37q-37 38 -37 91v256q0 53 37 90q38 38 91 38h640q53 0 90 -38q38 -38 38 -90v-256q0 -54 -38 -91t-90 -37h-128v-128q0 -53 37 -91q38 -37 91 -37h320l128 256h-64q-54 0 -91 37
q-37 38 -37 91v256q0 53 37 90q38 38 91 38h640q53 0 90 -38q38 -38 38 -90v-256q0 -54 -38 -91t-90 -37h-192l-256 -512l256 -512h192q52 0 90 -38q38 -37 38 -90v-256q0 -53 -38 -91q-37 -37 -90 -37h-640q-53 0 -91 37q-37 37 -37 91v256q0 52 37 90t91 38h64l-128 256
h-320q-53 0 -91 -38q-37 -38 -37 -90v-128h128q53 0 90 -38q38 -38 38 -90v-256q0 -54 -38 -91t-90 -37h-640z" />
    <glyph glyph-name="L" unicode="L" horiz-adv-x="1817" 
d="M128 0q-53 0 -91 37q-37 37 -37 91v256q0 52 37 90t91 38h128v1024h-128q-53 0 -91 37q-37 37 -37 91v256q0 52 37 90t91 38h1024q52 0 90 -38q38 -37 38 -90v-256q0 -53 -38 -91q-37 -37 -90 -37h-384v-896q0 -53 37 -91q38 -37 91 -37h256q0 53 37 90q38 38 91 38h256
q53 0 90 -38q38 -38 38 -90v-384q0 -53 -38 -91q-37 -37 -90 -37h-1408z" />
    <glyph glyph-name="M" unicode="M" horiz-adv-x="2585" 
d="M128 0q-53 0 -91 37q-37 37 -37 91v256q0 52 37 90t91 38h128v1024h-128q-53 0 -91 37q-37 37 -37 91v256q0 52 37 90t91 38h896q53 0 90 -38q38 -38 38 -90v-256q0 -54 -38 -91t-90 -37h-128l320 -640l320 640h-128q-53 0 -91 37q-37 37 -37 91v256q0 52 37 90t91 38
h896q53 0 90 -38q38 -38 38 -90v-256q0 -54 -38 -91t-90 -37h-128v-1024h128q52 0 90 -38q38 -37 38 -90v-256q0 -53 -38 -91q-37 -37 -90 -37h-512q-53 0 -91 37q-37 37 -37 91v256q0 52 37 90t91 38v768l-384 -768q52 0 90 -38q38 -37 38 -90v-256q0 -53 -38 -91
q-37 -37 -90 -37h-384q-53 0 -91 37q-37 37 -37 91v256q0 52 37 90t91 38l-384 768v-768q52 0 90 -38q38 -37 38 -90v-256q0 -53 -38 -91q-37 -37 -90 -37h-512z" />
    <glyph glyph-name="N" unicode="N" horiz-adv-x="2329" 
d="M128 0q-54 0 -91 37q-37 38 -37 91v256q0 53 37 90q38 38 91 38h128v1024h-128q-54 0 -91 37q-37 38 -37 91v256q0 53 37 90q38 38 91 38h896q53 0 90 -38q38 -38 38 -90v-256q0 -54 -38 -91t-90 -37l512 -1024v896q0 52 -38 90t-90 38q-54 0 -91 37q-37 38 -37 91v256
q0 53 37 90q38 38 91 38h640q53 0 90 -38q38 -38 38 -90v-256q0 -54 -38 -91t-90 -37h-128v-1024q53 0 90 -38q38 -38 38 -90v-256q0 -54 -38 -91t-90 -37h-768q-54 0 -91 37q-37 38 -37 91v256q0 53 37 90q38 38 91 38l-512 1024v-896q0 -53 37 -91q38 -37 91 -37t90 -38
q38 -38 38 -90v-256q0 -54 -38 -91t-90 -37h-640z" />
    <glyph glyph-name="O" unicode="O" 
d="M1280 512q52 0 90 37q38 38 38 91v768q0 52 -38 90t-90 38h-768q-53 0 -91 -38q-37 -38 -37 -90v-768q0 -53 37 -91q38 -37 91 -37h768zM128 0q-53 0 -91 37q-37 37 -37 91v1792q0 52 37 90t91 38h1536q52 0 90 -38q38 -37 38 -90v-1792q0 -53 -38 -91q-37 -37 -90 -37
h-1536z" />
    <glyph glyph-name="P" unicode="P" 
d="M1280 1280q52 0 90 37q38 38 38 91q0 52 -38 90t-90 38h-512q-53 0 -91 -38q-37 -38 -37 -90q0 -53 37 -91q38 -37 91 -37h512zM128 0q-54 0 -91 37q-37 38 -37 91v256q0 53 37 90q38 38 91 38h128v1024h-128q-54 0 -91 37q-37 38 -37 91v256q0 53 37 90q38 38 91 38
h1536q53 0 90 -38q38 -38 38 -90v-1024q0 -54 -38 -91t-90 -37h-896q-53 0 -91 -38q-37 -38 -37 -90v-128h256q53 0 90 -38q38 -38 38 -90v-256q0 -54 -38 -91t-90 -37h-768z" />
    <glyph glyph-name="Q" unicode="Q" 
d="M1280 512q52 0 90 37q38 38 38 91v768q0 52 -38 90t-90 38h-768q-53 0 -91 -38q-37 -38 -37 -90v-768q0 -53 37 -91q38 -37 91 -37h256v128q-54 0 -91 37q-37 38 -37 91v256q0 53 37 90q38 38 91 38h256q53 0 90 -38q38 -38 38 -90v-512h128zM896 -640q-54 0 -91 38
t-37 90v512h-640q-53 0 -91 37q-37 37 -37 91v1792q0 52 37 90t91 38h1536q52 0 90 -38q38 -37 38 -90v-1792q0 -53 -38 -91q-37 -37 -90 -37h-512v-128h384q53 0 90 -37q38 -38 38 -91v-256q0 -53 -38 -90q-38 -38 -90 -38h-640z" />
    <glyph glyph-name="R" unicode="R" horiz-adv-x="2073" 
d="M1280 1280q52 0 90 37q38 38 38 91q0 52 -38 90t-90 38h-512q-53 0 -91 -38q-37 -38 -37 -90q0 -53 37 -91q38 -37 91 -37h512zM128 0q-54 0 -91 37q-37 38 -37 91v256q0 53 37 90q38 38 91 38h128v1024h-128q-54 0 -91 37q-37 38 -37 91v256q0 53 37 90q38 38 91 38
h1536q53 0 90 -38q38 -38 38 -90v-1024q0 -54 -38 -91t-90 -37h-192l128 -256h192q52 0 90 -38q38 -37 38 -90v-256q0 -53 -38 -91q-37 -37 -90 -37h-640q-53 0 -91 37q-37 37 -37 91v256q0 52 37 90t91 38h64l-128 256h-320q-53 0 -91 -38q-37 -38 -37 -90v-128h128
q53 0 90 -38q38 -38 38 -90v-256q0 -54 -38 -91t-90 -37h-640z" />
    <glyph glyph-name="S" unicode="S" horiz-adv-x="1817" 
d="M128 0q-54 0 -91 37q-37 38 -37 91v384q0 53 37 90q38 38 91 38h256q53 0 90 -38q38 -38 38 -90h640q52 0 90 37q38 38 38 91q0 52 -38 90t-90 38h-1024q-54 0 -91 37q-37 38 -37 91v1024q0 53 37 90q38 38 91 38h1408q53 0 90 -38q38 -38 38 -90v-384q0 -54 -38 -91
t-90 -37h-256q-54 0 -91 37q-37 38 -37 91h-640q-53 0 -91 -38q-37 -38 -37 -90q0 -53 37 -91q38 -37 91 -37h1024q53 0 90 -38q38 -38 38 -90v-1024q0 -54 -38 -91t-90 -37h-1408z" />
    <glyph glyph-name="T" unicode="T" 
d="M512 0q-54 0 -91 37q-37 38 -37 91v256q0 53 37 90q38 38 91 38h128v1024h-128q0 -54 -38 -91t-90 -37h-256q-54 0 -91 37q-37 38 -37 91v384q0 53 37 90q38 38 91 38h1536q53 0 90 -38q38 -38 38 -90v-384q0 -54 -38 -91t-90 -37h-256q-54 0 -91 37q-37 38 -37 91h-128
v-1024h128q53 0 90 -38q38 -38 38 -90v-256q0 -54 -38 -91t-90 -37h-768z" />
    <glyph glyph-name="U" unicode="U" horiz-adv-x="2329" 
d="M384 0q-53 0 -91 37q-37 37 -37 91v1408h-128q-53 0 -91 37q-37 37 -37 91v256q0 52 37 90t91 38h640q52 0 90 -38q38 -37 38 -90v-256q0 -53 -38 -91q-37 -37 -90 -37t-91 -38q-37 -38 -37 -90v-896q0 -53 37 -91q38 -37 91 -37h512q52 0 90 37q38 38 38 91v896
q0 52 -38 90t-90 38q-53 0 -91 37q-37 37 -37 91v256q0 52 37 90t91 38h768q52 0 90 -38q38 -37 38 -90v-256q0 -53 -38 -91q-37 -37 -90 -37h-128v-1408q0 -53 -38 -91q-37 -37 -90 -37h-1408z" />
    <glyph glyph-name="V" unicode="V" horiz-adv-x="2201" 
d="M512 0q-54 0 -91 37q-37 38 -37 91v256q0 53 37 90q38 38 91 38h64l-320 640v384h-128q-53 0 -91 37q-37 37 -37 91v256q0 52 37 90t91 38h640q52 0 90 -38q38 -37 38 -90v-256q0 -53 -38 -91q-37 -37 -90 -37t-91 -38q-37 -38 -37 -90v-128l320 -640h128l320 640v128
q0 52 -38 90t-90 38q-53 0 -91 37q-37 37 -37 91v256q0 52 37 90t91 38h640q52 0 90 -38q38 -37 38 -90v-256q0 -53 -38 -91q-37 -37 -90 -37h-128v-384l-320 -640h64q53 0 90 -38q38 -38 38 -90v-256q0 -53 -38 -91q-37 -37 -90 -37h-1024z" />
    <glyph glyph-name="W" unicode="W" horiz-adv-x="2841" 
d="M256 0q-54 0 -91 37q-37 38 -37 91v256q0 53 37 90q38 38 91 38h128v1024h-256q-53 0 -91 37q-37 37 -37 91v256q0 52 37 90t91 38h640q52 0 90 -38q38 -37 38 -90v-256q0 -53 -38 -91q-37 -37 -90 -37v-768l384 768q-53 0 -91 37q-37 37 -37 91v256q0 52 37 90t91 38
h384q52 0 90 -38q38 -37 38 -90v-256q0 -53 -38 -91q-37 -37 -90 -37l384 -768v768q-53 0 -91 37q-37 37 -37 91v256q0 52 37 90t91 38h640q52 0 90 -38q38 -37 38 -90v-256q0 -53 -38 -91q-37 -37 -90 -37h-256v-1024h128q52 0 90 -38q38 -37 38 -90v-256q0 -53 -38 -91
q-37 -37 -90 -37h-768q-54 0 -91 37q-37 38 -37 91v256q0 53 37 90q38 38 91 38l-320 640l-320 -640q52 0 90 -38q38 -37 38 -90v-256q0 -53 -38 -91q-37 -37 -90 -37h-768z" />
    <glyph glyph-name="X" unicode="X" horiz-adv-x="2073" 
d="M128 0q-54 0 -91 37q-37 38 -37 91v256q0 53 37 90q38 38 91 38h192l256 512l-256 512h-192q-53 0 -91 37q-37 37 -37 91v256q0 52 37 90t91 38h640q52 0 90 -38q38 -37 38 -90v-256q0 -53 -38 -91q-37 -37 -90 -37h-64l128 -256h256l128 256h-64q-54 0 -91 37
q-37 38 -37 91v256q0 53 37 90q38 38 91 38h640q53 0 90 -38q38 -38 38 -90v-256q0 -54 -38 -91t-90 -37h-192l-256 -512l256 -512h192q52 0 90 -38q38 -37 38 -90v-256q0 -53 -38 -91q-37 -37 -90 -37h-640q-53 0 -91 37q-37 37 -37 91v256q0 52 37 90t91 38h64l-128 256
h-256l-128 -256h64q53 0 90 -38q38 -38 38 -90v-256q0 -54 -38 -91t-90 -37h-640z" />
    <glyph glyph-name="Y" unicode="Y" horiz-adv-x="2073" 
d="M640 0q-54 0 -91 37q-37 38 -37 91v256q0 53 37 90q38 38 91 38h128v128l-448 896h-192q-53 0 -91 37q-37 37 -37 91v256q0 52 37 90t91 38h640q52 0 90 -38q38 -37 38 -90v-256q0 -53 -38 -91q-37 -37 -90 -37h-64l192 -384h128l192 384h-64q-54 0 -91 37q-37 38 -37 91
v256q0 53 37 90q38 38 91 38h640q53 0 90 -38q38 -38 38 -90v-256q0 -54 -38 -91t-90 -37h-192l-448 -896v-128h128q53 0 90 -38q38 -38 38 -90v-256q0 -54 -38 -91t-90 -37h-640z" />
    <glyph glyph-name="Z" unicode="Z" 
d="M128 0q-54 0 -91 37q-37 38 -37 91v256q0 53 37 90q38 38 91 38h256l512 1024h-384q0 -53 -38 -91q-37 -37 -90 -37h-256q-53 0 -91 37q-37 37 -37 91v384q0 52 37 90t91 38h1536q53 0 90 -38q38 -38 38 -90v-256q0 -54 -38 -91t-90 -37h-256l-512 -1024h384q0 52 37 90
t91 38h256q52 0 90 -38q38 -37 38 -90v-384q0 -53 -38 -91q-37 -37 -90 -37h-1536z" />
    <glyph glyph-name="bracketleft" unicode="[" horiz-adv-x="1305" 
d="M128 0q-54 0 -91 37q-37 38 -37 91v256q0 53 37 90q38 38 91 38q52 0 90 37q38 38 38 91v768q0 52 -38 90t-90 38q-54 0 -91 37q-37 38 -37 91v256q0 53 37 90q38 38 91 38h896q53 0 90 -38q38 -38 38 -90v-256q0 -54 -38 -91t-90 -37h-384v-1024h384q53 0 90 -38
q38 -38 38 -90v-256q0 -54 -38 -91t-90 -37h-896z" />
    <glyph glyph-name="backslash" unicode="\" horiz-adv-x="1561" 
d="M1024 0l-1024 2048h384l1024 -2048h-384z" />
    <glyph glyph-name="bracketright" unicode="]" horiz-adv-x="1305" 
d="M128 0q-54 0 -91 37q-37 38 -37 91v256q0 53 37 90q38 38 91 38h384v1024h-384q-54 0 -91 37q-37 38 -37 91v256q0 53 37 90q38 38 91 38h896q53 0 90 -38q38 -38 38 -90v-256q0 -54 -38 -91t-90 -37q-53 0 -91 -38q-37 -38 -37 -90v-768q0 -53 37 -91q38 -37 91 -37
t90 -38q38 -38 38 -90v-256q0 -54 -38 -91t-90 -37h-896z" />
    <glyph glyph-name="asciicircum" unicode="^" horiz-adv-x="1561" 
d="M0 1536l448 896h512l448 -896h-512l-192 384l-192 -384h-512z" />
    <glyph glyph-name="underscore" unicode="_" horiz-adv-x="2073" 
d="M128 0q-54 0 -91 37q-37 38 -37 91v256q0 53 37 90q38 38 91 38h1664q53 0 90 -38q38 -38 38 -90v-256q0 -54 -38 -91t-90 -37h-1664z" />
    <glyph glyph-name="grave" unicode="`" horiz-adv-x="1049" 
d="M640 1408q-53 0 -91 37q-37 37 -37 91q0 52 -38 90t-90 38h-256q-54 0 -91 37q-37 38 -37 91v384q0 53 37 90q38 38 91 38h128q53 0 90 -38q38 -38 38 -90q0 -53 37 -91q38 -37 91 -37h256q53 0 90 -38q38 -38 38 -90v-384q0 -54 -38 -91t-90 -37h-128z" />
    <glyph glyph-name="a" unicode="a" horiz-adv-x="2329" 
d="M1280 1024l-192 384l-192 -384h384zM128 0q-54 0 -91 37q-37 38 -37 91v256q0 53 37 90q38 38 91 38h128l512 1024h-128q-54 0 -91 37q-37 38 -37 91v256q0 53 37 90q38 38 91 38h896q52 0 90 -38q38 -37 38 -90v-256q0 -53 -38 -91q-37 -37 -90 -37h-128l512 -1024h128
q52 0 90 -38q38 -37 38 -90v-256q0 -53 -38 -91q-37 -37 -90 -37h-640q-53 0 -91 37q-37 37 -37 91v256q0 52 37 90t91 38h128l-64 128h-768l-64 -128h128q53 0 90 -38q38 -38 38 -90v-256q0 -54 -38 -91t-90 -37h-640z" />
    <glyph glyph-name="b" unicode="b" 
d="M1280 512q52 0 90 37q38 38 38 91q0 52 -38 90t-90 38h-512q-53 0 -91 -38q-37 -38 -37 -90q0 -53 37 -91q38 -37 91 -37h512zM1152 1280q52 0 90 37q38 38 38 91q0 52 -38 90t-90 38h-384q-53 0 -91 -38q-37 -38 -37 -90q0 -53 37 -91q38 -37 91 -37h384zM128 0
q-54 0 -91 37q-37 38 -37 91v256q0 53 37 90q38 38 91 38h128v1024h-128q-54 0 -91 37q-37 38 -37 91v256q0 53 37 90q38 38 91 38h1408q53 0 90 -38q38 -38 38 -90v-640q0 -54 -38 -91t-90 -37q-53 0 -91 -38q-37 -38 -37 -90q0 -53 37 -91q38 -37 91 -37h128q53 0 90 -38
q38 -38 38 -90v-640q0 -54 -38 -91t-90 -37h-1536z" />
    <glyph glyph-name="c" unicode="c" horiz-adv-x="1689" 
d="M1152 256q-54 0 -91 37q-37 38 -37 91h-896q-54 0 -91 37q-37 38 -37 91v1024q0 53 37 90q38 38 91 38h896q0 53 37 90q38 38 91 38h256q53 0 90 -38q38 -38 38 -90v-384q0 -54 -38 -91t-90 -37h-896q-53 0 -91 -38q-37 -38 -37 -90q0 -53 37 -91q38 -37 91 -37h896
q53 0 90 -38q38 -38 38 -90v-384q0 -54 -38 -91t-90 -37h-256z" />
    <glyph glyph-name="d" unicode="d" horiz-adv-x="1817" 
d="M1152 896q52 0 90 37q38 38 38 91q0 52 -38 90t-90 38h-512q-53 0 -91 -38q-37 -38 -37 -90q0 -53 37 -91q38 -37 91 -37h512zM128 384q-54 0 -91 37q-37 38 -37 91v256q0 53 37 90q38 38 91 38v256q-54 0 -91 37q-37 38 -37 91v256q0 53 37 90q38 38 91 38h1408
q53 0 90 -38q38 -38 38 -90v-1024q0 -54 -38 -91t-90 -37h-1408z" />
    <glyph glyph-name="e" unicode="e" horiz-adv-x="1817" 
d="M128 0q-54 0 -91 37q-37 38 -37 91v256q0 53 37 90q38 38 91 38h128v1024h-128q-54 0 -91 37q-37 38 -37 91v256q0 53 37 90q38 38 91 38h1408q53 0 90 -38q38 -38 38 -90v-256q0 -54 -38 -91t-90 -37h-768q-53 0 -91 -38q-37 -38 -37 -90q0 -53 37 -91q38 -37 91 -37
h256q53 0 90 -38q38 -38 38 -90v-256q0 -54 -38 -91t-90 -37h-256q-53 0 -91 -38q-37 -38 -37 -90q0 -53 37 -91q38 -37 91 -37h768q53 0 90 -38q38 -38 38 -90v-256q0 -54 -38 -91t-90 -37h-1408z" />
    <glyph glyph-name="f" unicode="f" horiz-adv-x="1817" 
d="M128 0q-54 0 -91 37q-37 38 -37 91v256q0 53 37 90q38 38 91 38h128v256h-128q-54 0 -91 37q-37 38 -37 91v256q0 53 37 90q38 38 91 38h128v256h-128q-54 0 -91 37q-37 38 -37 91v256q0 53 37 90q38 38 91 38h1408q53 0 90 -38q38 -38 38 -90v-384q0 -54 -38 -91
t-90 -37h-256q-54 0 -91 37q-37 38 -37 91h-384q-53 0 -91 -38q-37 -38 -37 -90v-128h384q53 0 90 -38q38 -38 38 -90v-256q0 -54 -38 -91t-90 -37h-256v-256h128q53 0 90 -38q38 -38 38 -90v-256q0 -54 -38 -91t-90 -37h-768z" />
    <glyph glyph-name="g" unicode="g" horiz-adv-x="1689" 
d="M128 384q-54 0 -91 37q-37 38 -37 91v1024q0 53 37 90q38 38 91 38h896q0 53 37 90q38 38 91 38h256q53 0 90 -38q38 -38 38 -90v-384q0 -54 -38 -91t-90 -37h-896q-53 0 -91 -38q-37 -38 -37 -90q0 -53 37 -91q38 -37 91 -37h512q0 53 37 90q38 38 91 38h256
q53 0 90 -38q38 -38 38 -90v-384q0 -54 -38 -91t-90 -37h-1280z" />
    <glyph glyph-name="h" unicode="h" horiz-adv-x="2073" 
d="M128 0q-54 0 -91 37q-37 38 -37 91v256q0 53 37 90q38 38 91 38h128v1024h-128q-54 0 -91 37q-37 38 -37 91v256q0 53 37 90q38 38 91 38h640q53 0 90 -38q38 -38 38 -90v-256q0 -54 -38 -91t-90 -37h-128v-128q0 -53 37 -91q38 -37 91 -37h384q52 0 90 37q38 38 38 91
v128h-128q-54 0 -91 37q-37 38 -37 91v256q0 53 37 90q38 38 91 38h640q53 0 90 -38q38 -38 38 -90v-256q0 -54 -38 -91t-90 -37h-128v-1024h128q53 0 90 -38q38 -38 38 -90v-256q0 -54 -38 -91t-90 -37h-640q-54 0 -91 37q-37 38 -37 91v256q0 53 37 90q38 38 91 38h128
v128q0 52 -38 90t-90 38h-384q-53 0 -91 -38q-37 -38 -37 -90v-128h128q53 0 90 -38q38 -38 38 -90v-256q0 -54 -38 -91t-90 -37h-640z" />
    <glyph glyph-name="i" unicode="i" horiz-adv-x="1177" 
d="M128 0q-54 0 -91 37q-37 38 -37 91v256q0 53 37 90q38 38 91 38h128v384h-128q-54 0 -91 37q-37 38 -37 91v256q0 53 37 90q38 38 91 38h768q53 0 90 -38q38 -38 38 -90v-256q0 -54 -38 -91t-90 -37h-128v-384h128q53 0 90 -38q38 -38 38 -90v-256q0 -54 -38 -91t-90 -37
h-768zM128 1536q-54 0 -91 37q-37 38 -37 91v256q0 53 37 90q38 38 91 38h768q53 0 90 -38q38 -38 38 -90v-256q0 -54 -38 -91t-90 -37h-768z" />
    <glyph glyph-name="j" unicode="j" horiz-adv-x="1561" 
d="M128 0q-54 0 -91 37q-37 38 -37 91v384q0 53 37 90q38 38 91 38h128q53 0 90 -38q38 -38 38 -90h128q52 0 90 37q38 38 38 91v256h-128q-54 0 -91 37q-37 38 -37 91v256q0 53 37 90q38 38 91 38h768q53 0 90 -38q38 -38 38 -90v-256q0 -54 -38 -91t-90 -37h-128v-768
q0 -53 -38 -91q-37 -37 -90 -37h-896zM512 1536q-54 0 -91 37q-37 38 -37 91v256q0 53 37 90q38 38 91 38h768q53 0 90 -38q38 -38 38 -90v-256q0 -54 -38 -91t-90 -37h-768z" />
    <glyph glyph-name="k" unicode="k" horiz-adv-x="2073" 
d="M128 0q-54 0 -91 37q-37 38 -37 91v256q0 53 37 90q38 38 91 38h128v1024h-128q-54 0 -91 37q-37 38 -37 91v256q0 53 37 90q38 38 91 38h640q53 0 90 -38q38 -38 38 -90v-256q0 -54 -38 -91t-90 -37h-128v-128q0 -53 37 -91q38 -37 91 -37h320l64 128q-54 0 -91 37
q-37 38 -37 91v256q0 53 37 90q38 38 91 38h640q53 0 90 -38q38 -38 38 -90v-256q0 -54 -38 -91t-90 -37h-256l-192 -384l256 -512h192q52 0 90 -38q38 -37 38 -90v-256q0 -53 -38 -91q-37 -37 -90 -37h-640q-53 0 -91 37q-37 37 -37 91v256q0 52 37 90t91 38h64l-128 256
h-320q-53 0 -91 -38q-37 -38 -37 -90v-128h128q53 0 90 -38q38 -38 38 -90v-256q0 -54 -38 -91t-90 -37h-640z" />
    <glyph glyph-name="l" unicode="l" horiz-adv-x="1689" 
d="M128 0q-53 0 -91 37q-37 37 -37 91v256q0 52 37 90t91 38h128v1024h-128q-53 0 -91 37q-37 37 -37 91v256q0 52 37 90t91 38h1024q52 0 90 -38q38 -37 38 -90v-256q0 -53 -38 -91q-37 -37 -90 -37h-384v-896q0 -53 37 -91q38 -37 91 -37h128q0 53 37 90q38 38 91 38h256
q53 0 90 -38q38 -38 38 -90v-384q0 -53 -38 -91q-37 -37 -90 -37h-1280z" />
    <glyph glyph-name="m" unicode="m" horiz-adv-x="2841" 
d="M128 0q-54 0 -91 37q-37 38 -37 91v256q0 53 37 90q38 38 91 38h128v1024h-128q-54 0 -91 37q-37 38 -37 91v256q0 53 37 90q38 38 91 38h896q53 0 90 -38q38 -38 38 -90v-256q0 -54 -38 -91t-90 -37l320 -640l320 640q-53 0 -91 37q-37 37 -37 91v256q0 52 37 90t91 38
h896q52 0 90 -38q38 -37 38 -90v-256q0 -53 -38 -91q-37 -37 -90 -37h-128v-1024h128q52 0 90 -38q38 -37 38 -90v-256q0 -53 -38 -91q-37 -37 -90 -37h-512q-53 0 -91 37q-37 37 -37 91v256q0 52 37 90t91 38v1024l-512 -1024h128q53 0 90 -38q38 -38 38 -90v-256
q0 -54 -38 -91t-90 -37h-640q-54 0 -91 37q-37 38 -37 91v256q0 53 37 90q38 38 91 38h128l-512 1024v-1024q53 0 90 -38q38 -38 38 -90v-256q0 -54 -38 -91t-90 -37h-512z" />
    <glyph glyph-name="n" unicode="n" horiz-adv-x="2201" 
d="M128 0q-54 0 -91 37q-37 38 -37 91v256q0 53 37 90q38 38 91 38h128v1024h-128q-54 0 -91 37q-37 38 -37 91v256q0 53 37 90q38 38 91 38h896q53 0 90 -38q38 -38 38 -90v-1344q0 -27 18 -46q19 -18 46 -18h192v1024q-54 0 -91 37q-37 38 -37 91v256q0 53 37 90
q38 38 91 38h512q53 0 90 -38q38 -38 38 -90v-256q0 -54 -38 -91t-90 -37h-128v-1024q53 0 90 -38q38 -38 38 -90v-256q0 -54 -38 -91t-90 -37h-768q-54 0 -91 37q-37 38 -37 91v1344q0 26 -19 45t-45 19h-192v-1024q53 0 90 -38q38 -38 38 -90v-256q0 -54 -38 -91t-90 -37
h-512z" />
    <glyph glyph-name="o" unicode="o" horiz-adv-x="1689" 
d="M1024 896q52 0 90 37q38 38 38 91q0 52 -38 90t-90 38h-512q-53 0 -91 -38q-37 -38 -37 -90q0 -53 37 -91q38 -37 91 -37h512zM128 384q-54 0 -91 37q-37 38 -37 91v1024q0 53 37 90q38 38 91 38h1280q53 0 90 -38q38 -38 38 -90v-1024q0 -54 -38 -91t-90 -37h-1280z" />
    <glyph glyph-name="p" unicode="p" horiz-adv-x="1817" 
d="M1152 1280q52 0 90 37q38 38 38 91q0 52 -38 90t-90 38h-384q-53 0 -91 -38q-37 -38 -37 -90q0 -53 37 -91q38 -37 91 -37h384zM128 0q-54 0 -91 37q-37 38 -37 91v256q0 53 37 90q38 38 91 38h128v1024h-128q-54 0 -91 37q-37 38 -37 91v256q0 53 37 90q38 38 91 38
h1408q53 0 90 -38q38 -38 38 -90v-1024q0 -54 -38 -91t-90 -37h-768q-53 0 -91 -38q-37 -38 -37 -90v-128h256q53 0 90 -38q38 -38 38 -90v-256q0 -54 -38 -91t-90 -37h-768z" />
    <glyph glyph-name="q" unicode="q" horiz-adv-x="1689" 
d="M1024 896q52 0 90 37q38 38 38 91q0 52 -38 90t-90 38h-512q-53 0 -91 -38q-37 -38 -37 -90q0 -53 37 -91q38 -37 91 -37h512zM640 256q-54 0 -91 37q-37 38 -37 91h-384q-54 0 -91 37q-37 38 -37 91v1024q0 53 37 90q38 38 91 38h1280q53 0 90 -38q38 -38 38 -90v-1024
q0 -54 -38 -91t-90 -37h-384q0 -54 -38 -91t-90 -37h-256z" />
    <glyph glyph-name="r" unicode="r" horiz-adv-x="2073" 
d="M1152 1280q52 0 90 37q38 38 38 91q0 52 -38 90t-90 38h-384q-53 0 -91 -38q-37 -38 -37 -90q0 -53 37 -91q38 -37 91 -37h384zM128 0q-54 0 -91 37q-37 38 -37 91v256q0 53 37 90q38 38 91 38h128v1024h-128q-54 0 -91 37q-37 38 -37 91v256q0 53 37 90q38 38 91 38
h1408q53 0 90 -38q38 -38 38 -90v-1024q0 -54 -38 -91t-90 -37h-64l128 -256h192q52 0 90 -38q38 -37 38 -90v-256q0 -53 -38 -91q-37 -37 -90 -37h-640q-53 0 -91 37q-37 37 -37 91v256q0 52 37 90t91 38h64l-128 256h-320q-53 0 -91 -38q-37 -38 -37 -90v-128h128
q53 0 90 -38q38 -38 38 -90v-256q0 -54 -38 -91t-90 -37h-640z" />
    <glyph glyph-name="s" unicode="s" horiz-adv-x="1817" 
d="M128 0q-54 0 -91 37q-37 38 -37 91v384q0 53 37 90q38 38 91 38h256q53 0 90 -38q38 -38 38 -90h640q52 0 90 37q38 38 38 91q0 52 -38 90t-90 38h-1024q-54 0 -91 37q-37 38 -37 91v1024q0 53 37 90q38 38 91 38h1280q53 0 90 -38q38 -38 38 -90v-384q0 -54 -38 -91
t-90 -37h-256q-54 0 -91 37q-37 38 -37 91h-512q-53 0 -91 -38q-37 -38 -37 -90q0 -53 37 -91q38 -37 91 -37h1024q53 0 90 -38q38 -38 38 -90v-1024q0 -54 -38 -91t-90 -37h-1408z" />
    <glyph glyph-name="t" unicode="t" 
d="M512 0q-54 0 -91 37q-37 38 -37 91v256q0 53 37 90q38 38 91 38h128v896q0 52 -38 90t-90 38q0 -54 -38 -91t-90 -37h-256q-54 0 -91 37q-37 38 -37 91v384q0 53 37 90q38 38 91 38h1536q53 0 90 -38q38 -38 38 -90v-384q0 -54 -38 -91t-90 -37h-256q-54 0 -91 37
q-37 38 -37 91q-53 0 -91 -38q-37 -38 -37 -90v-896h128q53 0 90 -38q38 -38 38 -90v-256q0 -54 -38 -91t-90 -37h-768z" />
    <glyph glyph-name="u" unicode="u" 
d="M256 384q-54 0 -91 37q-37 38 -37 91v640q-54 0 -91 37q-37 38 -37 91v256q0 53 37 90q38 38 91 38h256q53 0 90 -38q38 -38 38 -90v-512q0 -53 37 -91q38 -37 91 -37h512q52 0 90 37q38 38 38 91v512q0 53 37 90q38 38 91 38h256q53 0 90 -38q38 -38 38 -90v-256
q0 -54 -38 -91t-90 -37v-640q0 -54 -38 -91t-90 -37h-1280z" />
    <glyph glyph-name="v" unicode="v" horiz-adv-x="2329" 
d="M640 0q-54 0 -91 37q-37 38 -37 91v256q0 53 37 90q38 38 91 38h256l-512 1024h-256q-54 0 -91 37q-37 38 -37 91v256q0 53 37 90q38 38 91 38h640q53 0 90 -38q38 -38 38 -90v-256q0 -54 -38 -91t-90 -37l320 -640l320 640q-54 0 -91 37q-37 38 -37 91v256q0 53 37 90
q38 38 91 38h640q53 0 90 -38q38 -38 38 -90v-256q0 -54 -38 -91t-90 -37h-256l-512 -1024h256q52 0 90 -38q38 -37 38 -90v-256q0 -53 -38 -91q-37 -37 -90 -37h-896z" />
    <glyph glyph-name="w" unicode="w" horiz-adv-x="3353" 
d="M512 0q-54 0 -91 37q-37 38 -37 91v256q0 53 37 90q38 38 91 38h384l-512 1024h-256q-54 0 -91 37q-37 38 -37 91v256q0 53 37 90q38 38 91 38h768q53 0 90 -38q38 -38 38 -90v-256q0 -54 -38 -91t-90 -37h-128l320 -640l320 640h-128q-54 0 -91 37q-37 38 -37 91v256
q0 53 37 90q38 38 91 38h640q53 0 90 -38q38 -38 38 -90v-256q0 -54 -38 -91t-90 -37h-128l320 -640l320 640h-128q-54 0 -91 37q-37 38 -37 91v256q0 53 37 90q38 38 91 38h768q53 0 90 -38q38 -38 38 -90v-256q0 -54 -38 -91t-90 -37h-256l-512 -1024h384q52 0 90 -38
q38 -37 38 -90v-256q0 -53 -38 -91q-37 -37 -90 -37h-896q-54 0 -91 37q-37 38 -37 91v256q0 53 37 90q38 38 91 38h128l-320 640l-320 -640h128q52 0 90 -38q38 -37 38 -90v-256q0 -53 -38 -91q-37 -37 -90 -37h-896z" />
    <glyph glyph-name="x" unicode="x" horiz-adv-x="2073" 
d="M128 0q-54 0 -91 37q-37 38 -37 91v256q0 53 37 90q38 38 91 38h128v256q0 52 37 90t91 38h128q52 0 90 37q38 38 38 91q0 52 -38 90t-90 38h-128q-53 0 -91 37q-37 37 -37 91v256h-128q-53 0 -91 37q-37 37 -37 91v256q0 52 37 90t91 38h640q52 0 90 -38q38 -37 38 -90
v-256q0 -53 -38 -91q-37 -37 -90 -37h-128v-32q0 -53 37 -91q38 -37 91 -37h384q52 0 90 37q38 38 38 91v32h-128q-54 0 -91 37q-37 38 -37 91v256q0 53 37 90q38 38 91 38h640q53 0 90 -38q38 -38 38 -90v-256q0 -54 -38 -91t-90 -37h-128v-256q0 -54 -38 -91t-90 -37h-128
q-53 0 -91 -38q-37 -38 -37 -90q0 -53 37 -91q38 -37 91 -37h128q53 0 90 -38q38 -38 38 -90v-256h128q52 0 90 -38q38 -37 38 -90v-256q0 -53 -38 -91q-37 -37 -90 -37h-640q-53 0 -91 37q-37 37 -37 91v256q0 52 37 90t91 38h128v32q0 52 -38 90t-90 38h-384
q-53 0 -91 -38q-37 -38 -37 -90v-32h128q53 0 90 -38q38 -38 38 -90v-256q0 -54 -38 -91t-90 -37h-640z" />
    <glyph glyph-name="y" unicode="y" horiz-adv-x="2073" 
d="M640 0q-54 0 -91 37q-37 38 -37 91v256q0 53 37 90q38 38 91 38h128v128q0 52 -38 90t-90 38h-256q-53 0 -91 37q-37 37 -37 91v640h-128q-53 0 -91 37q-37 37 -37 91v256q0 52 37 90t91 38h640q52 0 90 -38q38 -37 38 -90v-256q0 -53 -38 -91q-37 -37 -90 -37h-128v-128
q0 -53 37 -91q38 -37 91 -37h384q52 0 90 37q38 38 38 91v128h-128q-54 0 -91 37q-37 38 -37 91v256q0 53 37 90q38 38 91 38h640q53 0 90 -38q38 -38 38 -90v-256q0 -54 -38 -91t-90 -37h-128v-640q0 -54 -38 -91t-90 -37h-256q-53 0 -91 -38q-37 -38 -37 -90v-128h128
q53 0 90 -38q38 -38 38 -90v-256q0 -54 -38 -91t-90 -37h-640z" />
    <glyph glyph-name="z" unicode="z" 
d="M128 0q-54 0 -91 37q-37 38 -37 91v256q0 53 37 90q38 38 91 38h256l128 256q-54 0 -91 37q-37 38 -37 91v256q0 53 37 90q38 38 91 38h256l128 256h-768q-54 0 -91 37q-37 38 -37 91v256q0 53 37 90q38 38 91 38h1536q53 0 90 -38q38 -38 38 -90v-256q0 -54 -38 -91
t-90 -37h-256l-128 -256q53 0 90 -38q38 -38 38 -90v-256q0 -54 -38 -91t-90 -37h-256l-128 -256h768q53 0 90 -38q38 -38 38 -90v-256q0 -54 -38 -91t-90 -37h-1536z" />
    <glyph glyph-name="braceleft" unicode="{" horiz-adv-x="1049" 
d="M512 0q-53 0 -91 37q-37 37 -37 91v384q0 52 -38 90t-90 38h-128q-54 0 -91 37q-37 38 -37 91v512q0 52 37 90t91 38h128q52 0 90 37q38 38 38 91v384q0 53 37 90q38 38 91 38h256q53 0 90 -38q38 -38 38 -90v-384q0 -54 -38 -91t-90 -37h-128q-53 0 -91 -38
q-37 -38 -37 -90v-512q0 -53 37 -91q38 -37 91 -37h128q53 0 90 -38q38 -38 38 -90v-384q0 -53 -38 -91q-37 -37 -90 -37h-256z" />
    <glyph glyph-name="bar" unicode="|" horiz-adv-x="1049" 
d="M128 0q-54 0 -91 37q-37 38 -37 91v256q0 53 37 90q38 38 91 38h128v1024h-128q-54 0 -91 37q-37 38 -37 91v256q0 53 37 90q38 38 91 38h640q53 0 90 -38q38 -38 38 -90v-256q0 -54 -38 -91t-90 -37h-128v-1024h128q53 0 90 -38q38 -38 38 -90v-256q0 -54 -38 -91
t-90 -37h-640z" />
    <glyph glyph-name="braceright" unicode="}" horiz-adv-x="1049" 
d="M128 0q-54 0 -91 37q-37 38 -37 91v384q0 53 37 90q38 38 91 38h128q52 0 90 37q38 38 38 91v512q0 52 -38 90t-90 38h-128q-54 0 -91 37q-37 38 -37 91v384q0 52 37 90t91 38h256q52 0 90 -38q38 -37 38 -90v-384q0 -53 37 -91q38 -37 91 -37h128q53 0 90 -38
q38 -38 38 -90v-512q0 -53 -38 -91q-37 -37 -90 -37h-128q-53 0 -91 -38q-37 -38 -37 -90v-384q0 -54 -38 -91t-90 -37h-256z" />
    <glyph glyph-name="asciitilde" unicode="~" 
d="M128 512q-53 0 -91 37q-37 37 -37 91v384q0 52 37 90t91 38h768q52 0 90 37q38 38 38 91q0 52 37 90t91 38h512q52 0 90 -38q38 -37 38 -90v-384q0 -53 -38 -91q-37 -37 -90 -37h-768q-53 0 -91 -38q-37 -38 -37 -90q0 -54 -38 -91t-90 -37h-512z" />
    <glyph glyph-name="exclamdown" unicode="&#xa1;" horiz-adv-x="793" 
d="M128 0q-53 0 -91 37q-37 37 -37 91v1152q0 52 37 90t91 38h384q52 0 90 -38q38 -37 38 -90v-1152q0 -53 -38 -91q-37 -37 -90 -37h-384zM128 1536q-53 0 -91 37q-37 37 -37 91v256q0 52 37 90t91 38h384q52 0 90 -38q38 -37 38 -90v-256q0 -53 -38 -91q-37 -37 -90 -37
h-384z" />
    <glyph glyph-name="cent" unicode="&#xa2;" horiz-adv-x="1689" 
d="M640 896v256h-128q-53 0 -91 -38q-37 -38 -37 -90q0 -53 37 -91q38 -37 91 -37h128zM768 128q-53 0 -91 37q-37 37 -37 91v128h-512q-54 0 -91 37q-37 38 -37 91v1024q0 53 37 90q38 38 91 38h512v128q0 53 37 90q38 38 91 38t90 -38q38 -38 38 -90v-128h128q0 53 37 90
q38 38 91 38h256q53 0 90 -38q38 -38 38 -90v-384q0 -54 -38 -91t-90 -37h-512v-256h512q53 0 90 -38q38 -38 38 -90v-384q0 -54 -38 -91t-90 -37h-256q-54 0 -91 37q-37 38 -37 91h-128v-128q0 -53 -38 -91q-37 -37 -90 -37z" />
    <glyph glyph-name="sterling" unicode="&#xa3;" horiz-adv-x="2073" 
d="M128 0q-54 0 -91 37q-37 38 -37 91v256q0 53 37 90q38 38 91 38h256q52 0 90 37q38 38 38 91v256h-256q-54 0 -91 37q-37 38 -37 91t37 90q38 38 91 38h256v768q0 53 37 90q38 38 91 38h1024q53 0 90 -38q38 -38 38 -90v-384q0 -54 -38 -91t-90 -37h-256q-54 0 -91 37
q-37 38 -37 91h-256q-53 0 -91 -38q-37 -38 -37 -90v-256h256q52 0 90 -38q38 -37 38 -90t-38 -91q-37 -37 -90 -37h-256v-384h896q53 0 90 -38q38 -38 38 -90v-256q0 -54 -38 -91t-90 -37h-1664z" />
    <glyph glyph-name="currency" unicode="&#xa4;" horiz-adv-x="2457" 
d="M1408 896q52 0 90 37q38 38 38 91q0 52 -38 90t-90 38h-512q-53 0 -91 -38q-37 -38 -37 -90q0 -53 37 -91q38 -37 91 -37h512zM128 128q-54 0 -91 37q-37 38 -37 91v256q0 53 37 90q38 38 91 38h128q52 0 90 37q38 38 38 91v512q0 52 -38 90t-90 38h-128q-54 0 -91 37
q-37 38 -37 91v256q0 53 37 90q38 38 91 38h384q53 0 90 -38q38 -38 38 -90q0 -53 37 -91q38 -37 91 -37h768q52 0 90 37q38 38 38 91t37 90q38 38 91 38h384q53 0 90 -38q38 -38 38 -90v-256q0 -54 -38 -91t-90 -37h-128q-53 0 -91 -38q-37 -38 -37 -90v-512q0 -53 37 -91
q38 -37 91 -37h128q53 0 90 -38q38 -38 38 -90v-256q0 -54 -38 -91t-90 -37h-384q-54 0 -91 37q-37 38 -37 91q0 52 -38 90t-90 38h-768q-53 0 -91 -38q-37 -38 -37 -90q0 -54 -38 -91t-90 -37h-384z" />
    <glyph glyph-name="yen" unicode="&#xa5;" horiz-adv-x="2073" 
d="M640 0q-54 0 -91 37q-37 38 -37 91v256q0 53 37 90q38 38 91 38h128v128h-512q-54 0 -91 37q-37 38 -37 91t37 90q38 38 91 38h384l-64 128h-320q-54 0 -91 37q-37 38 -37 91t37 90q38 38 91 38h192l-128 256h-192q-53 0 -91 37q-37 37 -37 91v256q0 52 37 90t91 38h640
q52 0 90 -38q38 -37 38 -90v-256q0 -53 -38 -91q-37 -37 -90 -37h-64l128 -256h256l128 256h-64q-54 0 -91 37q-37 38 -37 91v256q0 53 37 90q38 38 91 38h640q53 0 90 -38q38 -38 38 -90v-256q0 -54 -38 -91t-90 -37h-192l-128 -256h192q52 0 90 -38q38 -37 38 -90t-38 -91
q-37 -37 -90 -37h-320l-64 -128h384q52 0 90 -38q38 -37 38 -90t-38 -91q-37 -37 -90 -37h-512v-128h128q53 0 90 -38q38 -38 38 -90v-256q0 -54 -38 -91t-90 -37h-640z" />
    <glyph glyph-name="brokenbar" unicode="&#xa6;" horiz-adv-x="1049" 
d="M128 0q-54 0 -91 37q-37 38 -37 91v256q0 53 37 90q38 38 91 38h128v256q0 53 37 90q38 38 91 38h128q53 0 90 -38q38 -38 38 -90v-256h128q53 0 90 -38q38 -38 38 -90v-256q0 -54 -38 -91t-90 -37h-640zM384 1152q-54 0 -91 37q-37 38 -37 91v256h-128q-54 0 -91 37
q-37 38 -37 91v256q0 53 37 90q38 38 91 38h640q53 0 90 -38q38 -38 38 -90v-256q0 -54 -38 -91t-90 -37h-128v-256q0 -54 -38 -91t-90 -37h-128z" />
    <glyph glyph-name="section" unicode="&#xa7;" horiz-adv-x="1689" 
d="M1024 896q52 0 90 37q38 38 38 91q0 52 -38 90t-90 38h-512q-53 0 -91 -38q-37 -38 -37 -90q0 -53 37 -91q38 -37 91 -37h512zM128 -384q-54 0 -91 38t-37 90v384q0 53 37 90q38 38 91 38h256q53 0 90 -38q38 -38 38 -90h512q52 0 90 37q38 38 38 91q0 52 -38 90t-90 38
h-896q-54 0 -91 37q-37 38 -37 91v1792q0 53 37 90q38 38 91 38h1280q53 0 90 -38q38 -38 38 -90v-384q0 -54 -38 -91t-90 -37h-256q-54 0 -91 37q-37 38 -37 91h-512q-53 0 -91 -38q-37 -38 -37 -90q0 -53 37 -91q38 -37 91 -37h896q53 0 90 -38q38 -38 38 -90v-1792
q0 -53 -38 -90q-38 -38 -90 -38h-1280z" />
    <glyph glyph-name="dieresis" unicode="&#xa8;" horiz-adv-x="2073" 
d="M128 1920q-54 0 -91 37q-37 38 -37 91v256q0 53 37 90q38 38 91 38h640q53 0 90 -38q38 -38 38 -90v-256q0 -54 -38 -91t-90 -37h-640zM1152 1920q-54 0 -91 37q-37 38 -37 91v256q0 53 37 90q38 38 91 38h640q53 0 90 -38q38 -38 38 -90v-256q0 -54 -38 -91t-90 -37
h-640z" />
    <glyph glyph-name="copyright" unicode="&#xa9;" horiz-adv-x="2713" 
d="M1664 256q-54 0 -91 37q-37 38 -37 91h-896q-54 0 -91 37q-37 38 -37 91v1024q0 53 37 90q38 38 91 38h896q0 53 37 90q38 38 91 38h256q53 0 90 -38q38 -38 38 -90v-384q0 -54 -38 -91t-90 -37h-896q-53 0 -91 -38q-37 -38 -37 -90q0 -53 37 -91q38 -37 91 -37h896
q53 0 90 -38q38 -38 38 -90v-384q0 -54 -38 -91t-90 -37h-256zM2048 128q52 0 90 37q38 38 38 91v1536q0 52 -38 90t-90 38h-1536q-53 0 -91 -38q-37 -38 -37 -90v-1536q0 -53 37 -91q38 -37 91 -37h1536zM128 -384q-53 0 -91 38q-37 37 -37 90v2560q0 52 37 90t91 38h2304
q52 0 90 -38q38 -37 38 -90v-2560q0 -52 -38 -90q-37 -38 -90 -38h-2304z" />
    <glyph glyph-name="ordfeminine" unicode="&#xaa;" horiz-adv-x="1689" 
d="M1024 1664q52 0 90 37q38 38 38 91q0 52 -38 90t-90 38h-512q-53 0 -91 -38q-37 -38 -37 -90q0 -53 37 -91q38 -37 91 -37h512zM1280 1024q-54 0 -91 37q-37 38 -37 91h-1024q-54 0 -91 37q-37 38 -37 91v1024q0 53 37 90q38 38 91 38h1024q0 53 37 90q38 38 91 38h128
q53 0 90 -38q38 -38 38 -90v-1280q0 -54 -38 -91t-90 -37h-128z" />
    <glyph glyph-name="guillemotleft" unicode="&#xab;" 
d="M256 0q-53 0 -91 37q-37 37 -37 91v256q0 52 37 90t91 38h64l-256 512l256 512h-64q-54 0 -91 37q-37 38 -37 91v256q0 53 37 90q38 38 91 38h512q53 0 90 -38q38 -38 38 -90v-256q0 -54 -38 -91t-90 -37h-64l-256 -512l256 -512h64q52 0 90 -38q38 -37 38 -90v-256
q0 -53 -38 -91q-37 -37 -90 -37h-512zM1152 0q-53 0 -91 37q-37 37 -37 91v256q0 52 37 90t91 38h64l-256 512l256 512h-64q-54 0 -91 37q-37 38 -37 91v256q0 53 37 90q38 38 91 38h512q53 0 90 -38q38 -38 38 -90v-256q0 -54 -38 -91t-90 -37h-64l-256 -512l256 -512h64
q52 0 90 -38q38 -37 38 -90v-256q0 -53 -38 -91q-37 -37 -90 -37h-512z" />
    <glyph glyph-name="logicalnot" unicode="&#xac;" horiz-adv-x="1817" 
d="M1536 384q-54 0 -91 37q-37 38 -37 91v128q0 52 -38 90t-90 38h-1152q-54 0 -91 37q-37 38 -37 91t37 90q38 38 91 38h1408q52 0 90 -38q38 -37 38 -90v-384q0 -54 -38 -91t-90 -37z" />
    <glyph glyph-name="uni00AD" unicode="&#xad;" horiz-adv-x="1817" 
d="M128 768q-54 0 -91 37q-37 38 -37 91t37 90q38 38 91 38h1408q52 0 90 -38q38 -37 38 -90t-38 -91q-37 -37 -90 -37h-1408z" />
    <glyph glyph-name="registered" unicode="&#xae;" horiz-adv-x="2841" 
d="M1664 1664q52 0 90 37q38 38 38 91q0 52 -38 90t-90 38h-512q-53 0 -91 -38q-37 -38 -37 -90q0 -53 37 -91q38 -37 91 -37h512zM768 896q-54 0 -91 37q-37 38 -37 91v1280q0 53 37 90q38 38 91 38h1280q53 0 90 -38q38 -38 38 -90v-768q0 -54 -38 -91t-90 -37h-256
q0 -53 37 -91q38 -37 91 -37h128q53 0 90 -38q38 -38 38 -90v-128q0 -54 -38 -91t-90 -37h-384q-54 0 -91 37q-37 38 -37 91q0 52 -38 90t-90 38h-256q-53 0 -91 -38q-37 -38 -37 -90q0 -54 -38 -91t-90 -37h-128zM2176 768q52 0 90 37q38 38 38 91v1536q0 52 -38 90t-90 38
h-1536q-53 0 -91 -38q-37 -38 -37 -90v-1536q0 -53 37 -91q38 -37 91 -37h1536zM256 256q-54 0 -91 37q-37 38 -37 91v2560q0 53 37 90q38 38 91 38h2304q53 0 90 -38q38 -38 38 -90v-2560q0 -54 -38 -91t-90 -37h-2304z" />
    <glyph glyph-name="macron" unicode="&#xaf;" horiz-adv-x="1561" 
d="M128 2176q-54 0 -91 37q-37 38 -37 91t37 90q38 38 91 38h1152q52 0 90 -38q38 -37 38 -90t-38 -91q-37 -37 -90 -37h-1152z" />
    <glyph glyph-name="degree" unicode="&#xb0;" horiz-adv-x="1305" 
d="M768 1792q52 0 90 37q38 38 38 91q0 52 -38 90t-90 38h-384q-53 0 -91 -38q-37 -38 -37 -90q0 -53 37 -91q38 -37 91 -37h384zM128 1408q-54 0 -91 37q-37 38 -37 91v768q0 53 37 90q38 38 91 38h896q53 0 90 -38q38 -38 38 -90v-768q0 -54 -38 -91t-90 -37h-896z" />
    <glyph glyph-name="plusminus" unicode="&#xb1;" horiz-adv-x="1993" 
d="M256 0q-54 0 -91 37q-37 38 -37 91t37 90q38 38 91 38h1280q52 0 90 -38q38 -37 38 -90t-38 -91q-37 -37 -90 -37h-1280zM896 512q-53 0 -91 37q-37 37 -37 91v384h-384q-54 0 -91 37q-37 38 -37 91t37 90q38 38 91 38h384v384q0 53 37 90q38 38 91 38t90 -38
q38 -38 38 -90v-384h384q52 0 90 -38q38 -37 38 -90t-38 -91q-37 -37 -90 -37h-384v-384q0 -53 -38 -91q-37 -37 -90 -37z" />
    <glyph glyph-name="uni00B2" unicode="&#xb2;" horiz-adv-x="1433" 
d="M128 1152q-54 0 -91 37q-37 38 -37 91v512q0 52 37 90t91 38h512q52 0 90 37q38 38 38 91q0 52 -38 90t-90 38h-256q0 -53 -38 -91q-37 -37 -90 -37h-128q-53 0 -91 37q-37 37 -37 91v128q0 53 37 90q38 38 91 38h896q53 0 90 -38q38 -38 38 -90v-512q0 -54 -38 -91
t-90 -37h-512q-53 0 -91 -38q-37 -38 -37 -90q0 -53 37 -91q38 -37 91 -37h384q0 52 37 90t91 38h128q52 0 90 -38q38 -37 38 -90v-128q0 -54 -38 -91t-90 -37h-1024z" />
    <glyph glyph-name="uni00B3" unicode="&#xb3;" horiz-adv-x="1193" 
d="M128 1152q-53 0 -91 37q-37 37 -37 91v128q0 53 37 90q38 38 91 38h128q53 0 90 -38q38 -38 38 -90h256q52 0 90 37q38 38 38 91q0 52 -38 90t-90 38h-384q-53 0 -91 37q-37 37 -37 91q0 53 37 90q38 38 91 38h384q52 0 90 37q38 38 38 91q0 52 -38 90t-90 38h-256
q0 -53 -38 -91q-37 -37 -90 -37h-128q-53 0 -91 37q-37 37 -37 91v128q0 53 37 90q38 38 91 38h896q53 0 90 -38q38 -38 38 -90v-384q0 -54 -38 -91t-90 -37q53 0 90 -38q38 -38 38 -90v-384q0 -53 -38 -91q-37 -37 -90 -37h-896z" />
    <glyph glyph-name="acute" unicode="&#xb4;" horiz-adv-x="1177" 
d="M0 2176l256 512h768l-256 -512h-768z" />
    <glyph glyph-name="mu" unicode="&#xb5;" horiz-adv-x="1817" 
d="M128 256q-53 0 -91 37q-37 37 -37 91v1152q0 53 37 90q38 38 91 38h256q53 0 90 -38q38 -38 38 -90v-256q0 -54 -38 -91t-90 -37v-128q0 -53 37 -91q38 -37 91 -37h512q52 0 90 37q38 38 38 91v512q0 53 37 90q38 38 91 38h256q53 0 90 -38q38 -38 38 -90v-256
q0 -54 -38 -91t-90 -37v-640q0 -54 -38 -91t-90 -37h-768q-53 0 -91 37q-37 37 -37 91v-128q0 -53 -38 -91q-37 -37 -90 -37h-256z" />
    <glyph glyph-name="paragraph" unicode="&#xb6;" horiz-adv-x="1689" 
d="M1024 256q-53 0 -91 37q-37 37 -37 91h-768q-54 0 -91 37q-37 38 -37 91v1024q0 53 37 90q38 38 91 38h1280q53 0 90 -38q38 -38 38 -90v-1152q0 -54 -38 -91t-90 -37q-54 0 -91 37q-37 38 -37 91v768h-128v-768q0 -53 -38 -91q-37 -37 -90 -37z" />
    <glyph glyph-name="periodcentered" unicode="&#xb7;" horiz-adv-x="665" 
d="M128 640q-54 0 -91 37q-37 38 -37 91v256q0 53 37 90q38 38 91 38h256q53 0 90 -38q38 -38 38 -90v-256q0 -54 -38 -91t-90 -37h-256z" />
    <glyph glyph-name="cedilla" unicode="&#xb8;" horiz-adv-x="1305" 
d="M128 -896q-53 0 -91 38q-37 37 -37 90v256q0 53 37 91q37 37 91 37h640q52 0 90 38t38 90q0 53 -38 91q-38 37 -90 37h-256l64 128h512l-64 -128q52 0 90 -37t38 -91v-384q0 -52 -38 -90q-37 -38 -90 -38h-512q0 -52 -38 -90q-37 -38 -90 -38h-256z" />
    <glyph glyph-name="uni00B9" unicode="&#xb9;" horiz-adv-x="1305" 
d="M128 1152q-53 0 -91 37q-37 37 -37 91v128q0 53 37 90q38 38 91 38h256v640q0 -53 -38 -91q-37 -37 -90 -37h-128q-53 0 -91 37q-37 37 -37 91v128q0 53 37 90q38 38 91 38h512q53 0 90 -38q38 -38 38 -90v-768h256q52 0 90 -38q38 -37 38 -90v-128q0 -54 -38 -91
t-90 -37h-896z" />
    <glyph glyph-name="ordmasculine" unicode="&#xba;" horiz-adv-x="1689" 
d="M1024 1664q52 0 90 37q38 38 38 91q0 52 -38 90t-90 38h-512q-53 0 -91 -38q-37 -38 -37 -90q0 -53 37 -91q38 -37 91 -37h512zM128 1152q-54 0 -91 37q-37 38 -37 91v1024q0 53 37 90q38 38 91 38h1280q52 0 90 -38q38 -37 38 -90v-1024q0 -53 -38 -91q-37 -37 -90 -37
h-1280z" />
    <glyph glyph-name="guillemotright" unicode="&#xbb;" 
d="M128 0q-54 0 -91 37q-37 38 -37 91v256q0 53 37 90q38 38 91 38h64l256 512l-256 512h-64q-53 0 -91 37q-37 37 -37 91v256q0 52 37 90t91 38h512q52 0 90 -38q38 -37 38 -90v-256q0 -53 -38 -91q-37 -37 -90 -37h-64l256 -512l-256 -512h64q53 0 90 -38q38 -38 38 -90
v-256q0 -54 -38 -91t-90 -37h-512zM1024 0q-54 0 -91 37q-37 38 -37 91v256q0 53 37 90q38 38 91 38h64l256 512l-256 512h-64q-53 0 -91 37q-37 37 -37 91v256q0 52 37 90t91 38h512q52 0 90 -38q38 -37 38 -90v-256q0 -53 -38 -91q-37 -37 -90 -37h-64l256 -512l-256 -512
h64q53 0 90 -38q38 -38 38 -90v-256q0 -54 -38 -91t-90 -37h-512z" />
    <glyph glyph-name="onequarter" unicode="&#xbc;" horiz-adv-x="3097" 
d="M1920 0q-53 0 -91 37q-37 37 -37 91v128q0 53 37 90q38 38 91 38h512v128q0 52 -38 90t-90 38h-384q-53 0 -91 37q-37 37 -37 91v384q0 53 37 90q38 38 91 38h128q53 0 90 -38q38 -38 38 -90q0 -53 37 -91q38 -37 91 -37q52 0 90 37q38 38 38 91t37 90q38 38 91 38h128
q53 0 90 -38q38 -38 38 -90v-768q52 0 90 -38q38 -37 38 -90v-128q0 -54 -38 -91t-90 -37h-896zM256 0q-54 0 -91 37q-37 38 -37 91v256q0 53 37 90q38 38 91 38h640l640 1280v128q0 53 37 90q38 38 91 38h768q53 0 90 -38q38 -38 38 -90v-256q0 -54 -38 -91t-90 -37h-640
l-640 -1280v-128q0 -54 -38 -91t-90 -37h-768zM128 1152q-53 0 -91 37q-37 37 -37 91v128q0 53 37 90q38 38 91 38h256v640q0 -53 -38 -91q-37 -37 -90 -37h-128q-53 0 -91 37q-37 37 -37 91v128q0 53 37 90q38 38 91 38h512q53 0 90 -38q38 -38 38 -90v-768h256
q52 0 90 -38q38 -37 38 -90v-128q0 -54 -38 -91t-90 -37h-896z" />
    <glyph glyph-name="onehalf" unicode="&#xbd;" horiz-adv-x="3225" 
d="M1920 0q-54 0 -91 37q-37 38 -37 91v512q0 52 37 90t91 38h512q52 0 90 37q38 38 38 91q0 52 -38 90t-90 38h-256q0 -53 -38 -91q-37 -37 -90 -37h-128q-53 0 -91 37q-37 37 -37 91v128q0 53 37 90q38 38 91 38h896q53 0 90 -38q38 -38 38 -90v-512q0 -54 -38 -91
t-90 -37h-512q-53 0 -91 -38q-37 -38 -37 -90q0 -53 37 -91q38 -37 91 -37h384q0 52 37 90t91 38h128q52 0 90 -38q38 -37 38 -90v-128q0 -54 -38 -91t-90 -37h-1024zM256 0q-54 0 -91 37q-37 38 -37 91v256q0 53 37 90q38 38 91 38h640l640 1280v128q0 53 37 90
q38 38 91 38h768q53 0 90 -38q38 -38 38 -90v-256q0 -54 -38 -91t-90 -37h-640l-640 -1280v-128q0 -54 -38 -91t-90 -37h-768zM128 1152q-53 0 -91 37q-37 37 -37 91v128q0 53 37 90q38 38 91 38h256v640q0 -53 -38 -91q-37 -37 -90 -37h-128q-53 0 -91 37q-37 37 -37 91
v128q0 53 37 90q38 38 91 38h512q53 0 90 -38q38 -38 38 -90v-768h256q52 0 90 -38q38 -37 38 -90v-128q0 -54 -38 -91t-90 -37h-896z" />
    <glyph glyph-name="threequarters" unicode="&#xbe;" horiz-adv-x="3097" 
d="M1920 0q-53 0 -91 37q-37 37 -37 91v128q0 53 37 90q38 38 91 38h512v128q0 52 -38 90t-90 38h-384q-53 0 -91 37q-37 37 -37 91v384q0 53 37 90q38 38 91 38h128q53 0 90 -38q38 -38 38 -90q0 -53 37 -91q38 -37 91 -37q52 0 90 37q38 38 38 91t37 90q38 38 91 38h128
q53 0 90 -38q38 -38 38 -90v-768q52 0 90 -38q38 -37 38 -90v-128q0 -54 -38 -91t-90 -37h-896zM256 0q-54 0 -91 37q-37 38 -37 91v256q0 53 37 90q38 38 91 38h640l640 1280v128q0 53 37 90q38 38 91 38h768q53 0 90 -38q38 -38 38 -90v-256q0 -54 -38 -91t-90 -37h-640
l-640 -1280v-128q0 -54 -38 -91t-90 -37h-768zM128 1152q-53 0 -91 37q-37 37 -37 91v128q0 53 37 90q38 38 91 38h128q53 0 90 -38q38 -38 38 -90h256q52 0 90 37q38 38 38 91q0 52 -38 90t-90 38h-384q-53 0 -91 37q-37 37 -37 91q0 53 37 90q38 38 91 38h384q52 0 90 37
q38 38 38 91q0 52 -38 90t-90 38h-256q0 -53 -38 -91q-37 -37 -90 -37h-128q-53 0 -91 37q-37 37 -37 91v128q0 53 37 90q38 38 91 38h896q53 0 90 -38q38 -38 38 -90v-384q0 -54 -38 -91t-90 -37q53 0 90 -38q38 -38 38 -90v-384q0 -53 -38 -91q-37 -37 -90 -37h-896z" />
    <glyph glyph-name="questiondown" unicode="&#xbf;" horiz-adv-x="1817" 
d="M128 0q-53 0 -91 37q-37 37 -37 91v1024q0 52 37 90t91 38h1024q0 53 37 90q38 38 91 38h256q53 0 90 -38q38 -38 38 -90v-384q0 -53 -38 -91q-37 -37 -90 -37h-1024q-53 0 -91 -38q-37 -38 -37 -90q0 -53 37 -91q38 -37 91 -37h640q0 52 37 90t91 38h256q52 0 90 -38
q38 -37 38 -90v-384q0 -53 -38 -91q-37 -37 -90 -37h-1408zM896 1536q-54 0 -91 37q-37 38 -37 91v256q0 53 37 90q38 38 91 38h640q53 0 90 -38q38 -38 38 -90v-256q0 -54 -38 -91t-90 -37h-640z" />
    <glyph glyph-name="Agrave" unicode="&#xc0;" horiz-adv-x="2201" 
d="M1216 1152l-192 384l-192 -384h384zM128 0q-54 0 -91 37q-37 38 -37 91v256q0 53 37 90q38 38 91 38h128v256l384 768q-53 0 -91 37q-37 37 -37 91v256q0 52 37 90t91 38h768q53 0 90 -38q38 -38 38 -90v-256q0 -54 -38 -91t-90 -37l384 -768v-256h128q53 0 90 -38
q38 -38 38 -90v-256q0 -54 -38 -91t-90 -37h-640q-54 0 -91 37q-37 38 -37 91v256q0 53 37 90q38 38 91 38h128v128h-768v-128h128q53 0 90 -38q38 -38 38 -90v-256q0 -54 -38 -91t-90 -37h-640zM512 2176l-256 512h896l256 -512h-896z" />
    <glyph glyph-name="Aacute" unicode="&#xc1;" horiz-adv-x="2201" 
d="M1216 1152l-192 384l-192 -384h384zM128 0q-54 0 -91 37q-37 38 -37 91v256q0 53 37 90q38 38 91 38h128v256l384 768q-53 0 -91 37q-37 37 -37 91v256q0 52 37 90t91 38h768q53 0 90 -38q38 -38 38 -90v-256q0 -54 -38 -91t-90 -37l384 -768v-256h128q53 0 90 -38
q38 -38 38 -90v-256q0 -54 -38 -91t-90 -37h-640q-54 0 -91 37q-37 38 -37 91v256q0 53 37 90q38 38 91 38h128v128h-768v-128h128q53 0 90 -38q38 -38 38 -90v-256q0 -54 -38 -91t-90 -37h-640zM640 2176l256 512h896l-256 -512h-896z" />
    <glyph glyph-name="Acircumflex" unicode="&#xc2;" horiz-adv-x="2201" 
d="M1216 1152l-192 384l-192 -384h384zM128 0q-54 0 -91 37q-37 38 -37 91v256q0 53 37 90q38 38 91 38h128v256l384 768q-53 0 -91 37q-37 37 -37 91v256q0 52 37 90t91 38h768q53 0 90 -38q38 -38 38 -90v-256q0 -54 -38 -91t-90 -37l384 -768v-256h128q53 0 90 -38
q38 -38 38 -90v-256q0 -54 -38 -91t-90 -37h-640q-54 0 -91 37q-37 38 -37 91v256q0 53 37 90q38 38 91 38h128v128h-768v-128h128q53 0 90 -38q38 -38 38 -90v-256q0 -54 -38 -91t-90 -37h-640zM320 2176l256 512h896l256 -512h-512l-64 128h-256l-64 -128h-512z" />
    <glyph glyph-name="Atilde" unicode="&#xc3;" horiz-adv-x="2201" 
d="M1216 1152l-192 384l-192 -384h384zM128 0q-54 0 -91 37q-37 38 -37 91v256q0 53 37 90q38 38 91 38h128v256l384 768q-53 0 -91 37q-37 37 -37 91v256q0 52 37 90t91 38h768q53 0 90 -38q38 -38 38 -90v-256q0 -54 -38 -91t-90 -37l384 -768v-256h128q53 0 90 -38
q38 -38 38 -90v-256q0 -54 -38 -91t-90 -37h-640q-54 0 -91 37q-37 38 -37 91v256q0 53 37 90q38 38 91 38h128v128h-768v-128h128q53 0 90 -38q38 -38 38 -90v-256q0 -54 -38 -91t-90 -37h-640zM256 2176q-53 0 -91 37q-37 37 -37 91v256q0 52 37 90t91 38h640q52 0 90 37
q38 38 38 91q0 52 37 90t91 38h512q52 0 90 -38q38 -37 38 -90v-256q0 -53 -38 -91q-37 -37 -90 -37h-640q-53 0 -91 -38q-37 -38 -37 -90q0 -54 -38 -91t-90 -37h-512z" />
    <glyph glyph-name="Adieresis" unicode="&#xc4;" horiz-adv-x="2201" 
d="M1216 1152l-192 384l-192 -384h384zM128 0q-54 0 -91 37q-37 38 -37 91v256q0 53 37 90q38 38 91 38h128v256l384 768q-53 0 -91 37q-37 37 -37 91v256q0 52 37 90t91 38h768q53 0 90 -38q38 -38 38 -90v-256q0 -54 -38 -91t-90 -37l384 -768v-256h128q53 0 90 -38
q38 -38 38 -90v-256q0 -54 -38 -91t-90 -37h-640q-54 0 -91 37q-37 38 -37 91v256q0 53 37 90q38 38 91 38h128v128h-768v-128h128q53 0 90 -38q38 -38 38 -90v-256q0 -54 -38 -91t-90 -37h-640zM320 2176q-54 0 -91 37q-37 38 -37 91v256q0 53 37 90q38 38 91 38h512
q53 0 90 -38q38 -38 38 -90v-256q0 -54 -38 -91t-90 -37h-512zM1216 2176q-54 0 -91 37q-37 38 -37 91v256q0 53 37 90q38 38 91 38h512q53 0 90 -38q38 -38 38 -90v-256q0 -54 -38 -91t-90 -37h-512z" />
    <glyph glyph-name="Aring" unicode="&#xc5;" horiz-adv-x="2201" 
d="M1216 1152l-192 384l-192 -384h384zM1216 1920q52 0 90 37q38 38 38 91q0 52 -38 90t-90 38h-384q-53 0 -91 -38q-37 -38 -37 -90q0 -53 37 -91q38 -37 91 -37h384zM128 0q-54 0 -91 37q-37 38 -37 91v256q0 53 37 90q38 38 91 38h128v256l384 768h-64q-54 0 -91 37
q-37 38 -37 91v768q0 53 37 90q38 38 91 38h896q53 0 90 -38q38 -38 38 -90v-768q0 -54 -38 -91t-90 -37h-64l384 -768v-256h128q53 0 90 -38q38 -38 38 -90v-256q0 -54 -38 -91t-90 -37h-640q-54 0 -91 37q-37 38 -37 91v256q0 53 37 90q38 38 91 38h128v128h-768v-128h128
q53 0 90 -38q38 -38 38 -90v-256q0 -54 -38 -91t-90 -37h-640z" />
    <glyph glyph-name="AE" unicode="&#xc6;" horiz-adv-x="2841" 
d="M1216 1152l-128 256l-128 -256h256zM128 0q-54 0 -91 37q-37 38 -37 91v256q0 53 37 90q38 38 91 38h128l512 1024h-128q-54 0 -91 37q-37 38 -37 91v256q0 53 37 90q38 38 91 38h1920q53 0 90 -38q38 -38 38 -90v-256q0 -54 -38 -91t-90 -37h-896q-53 0 -91 -38
q-37 -38 -37 -90q0 -53 37 -91q38 -37 91 -37h256q53 0 90 -38q38 -38 38 -90v-256q0 -54 -38 -91t-90 -37h-256q-53 0 -91 -38q-37 -38 -37 -90q0 -53 37 -91q38 -37 91 -37h896q53 0 90 -38q38 -38 38 -90v-256q0 -54 -38 -91t-90 -37h-1408q-54 0 -91 37q-37 38 -37 91
v256q0 53 37 90q38 38 91 38v128h-384v-128q53 0 90 -38q38 -38 38 -90v-256q0 -54 -38 -91t-90 -37h-640z" />
    <glyph glyph-name="Ccedilla" unicode="&#xc7;" horiz-adv-x="1817" 
d="M256 -896q-53 0 -91 38q-37 37 -37 90v256q0 53 37 91q37 37 91 37h640q52 0 90 38t38 90q0 53 -38 91q-38 37 -90 37h-256l64 128h-448l-256 512v1024l256 512h1280q52 0 90 -38q38 -37 38 -90v-384q0 -53 -38 -91q-37 -37 -90 -37h-256q-54 0 -91 37q-37 38 -37 91
h-512q-53 0 -91 -38q-37 -38 -37 -90v-768q0 -53 37 -91q38 -37 91 -37h512q0 52 37 90t91 38h256q52 0 90 -38q38 -37 38 -90v-384q0 -53 -38 -91q-37 -37 -90 -37h-320l-64 -128q52 0 90 -37t38 -91v-384q0 -52 -38 -90q-37 -38 -90 -38h-512q0 -52 -38 -90
q-37 -38 -90 -38h-256z" />
    <glyph glyph-name="Egrave" unicode="&#xc8;" 
d="M128 0q-54 0 -91 37q-37 38 -37 91v256q0 53 37 90q38 38 91 38h128v1024h-128q-54 0 -91 37q-37 38 -37 91v256q0 53 37 90q38 38 91 38h1536q53 0 90 -38q38 -38 38 -90v-256q0 -54 -38 -91t-90 -37h-896q-53 0 -91 -38q-37 -38 -37 -90q0 -53 37 -91q38 -37 91 -37
h256q53 0 90 -38q38 -38 38 -90v-256q0 -54 -38 -91t-90 -37h-256q-53 0 -91 -38q-37 -38 -37 -90q0 -53 37 -91q38 -37 91 -37h896q53 0 90 -38q38 -38 38 -90v-256q0 -54 -38 -91t-90 -37h-1536zM640 2176l-256 512h768l256 -512h-768z" />
    <glyph glyph-name="Eacute" unicode="&#xc9;" 
d="M128 0q-54 0 -91 37q-37 38 -37 91v256q0 53 37 90q38 38 91 38h128v1024h-128q-54 0 -91 37q-37 38 -37 91v256q0 53 37 90q38 38 91 38h1536q53 0 90 -38q38 -38 38 -90v-256q0 -54 -38 -91t-90 -37h-896q-53 0 -91 -38q-37 -38 -37 -90q0 -53 37 -91q38 -37 91 -37
h256q53 0 90 -38q38 -38 38 -90v-256q0 -54 -38 -91t-90 -37h-256q-53 0 -91 -38q-37 -38 -37 -90q0 -53 37 -91q38 -37 91 -37h896q53 0 90 -38q38 -38 38 -90v-256q0 -54 -38 -91t-90 -37h-1536zM512 2176l256 512h768l-256 -512h-768z" />
    <glyph glyph-name="Ecircumflex" unicode="&#xca;" 
d="M128 0q-54 0 -91 37q-37 38 -37 91v256q0 53 37 90q38 38 91 38h128v1024h-128q-54 0 -91 37q-37 38 -37 91v256q0 53 37 90q38 38 91 38h1536q53 0 90 -38q38 -38 38 -90v-256q0 -54 -38 -91t-90 -37h-896q-53 0 -91 -38q-37 -38 -37 -90q0 -53 37 -91q38 -37 91 -37
h256q53 0 90 -38q38 -38 38 -90v-256q0 -54 -38 -91t-90 -37h-256q-53 0 -91 -38q-37 -38 -37 -90q0 -53 37 -91q38 -37 91 -37h896q53 0 90 -38q38 -38 38 -90v-256q0 -54 -38 -91t-90 -37h-1536zM256 2176l256 512h896l256 -512h-512l-64 128h-256l-64 -128h-512z" />
    <glyph glyph-name="Edieresis" unicode="&#xcb;" 
d="M128 0q-54 0 -91 37q-37 38 -37 91v256q0 53 37 90q38 38 91 38h128v1024h-128q-54 0 -91 37q-37 38 -37 91v256q0 53 37 90q38 38 91 38h1536q53 0 90 -38q38 -38 38 -90v-256q0 -54 -38 -91t-90 -37h-896q-53 0 -91 -38q-37 -38 -37 -90q0 -53 37 -91q38 -37 91 -37
h256q53 0 90 -38q38 -38 38 -90v-256q0 -54 -38 -91t-90 -37h-256q-53 0 -91 -38q-37 -38 -37 -90q0 -53 37 -91q38 -37 91 -37h896q53 0 90 -38q38 -38 38 -90v-256q0 -54 -38 -91t-90 -37h-1536zM256 2176q-54 0 -91 37q-37 38 -37 91v256q0 53 37 90q38 38 91 38h512
q53 0 90 -38q38 -38 38 -90v-256q0 -54 -38 -91t-90 -37h-512zM1152 2176q-54 0 -91 37q-37 38 -37 91v256q0 53 37 90q38 38 91 38h512q53 0 90 -38q38 -38 38 -90v-256q0 -54 -38 -91t-90 -37h-512z" />
    <glyph glyph-name="Igrave" unicode="&#xcc;" horiz-adv-x="1305" 
d="M256 0q-54 0 -91 37q-37 38 -37 91v256q0 53 37 90q38 38 91 38h128v1024h-128q-54 0 -91 37q-37 38 -37 91v256q0 53 37 90q38 38 91 38h768q53 0 90 -38q38 -38 38 -90v-256q0 -54 -38 -91t-90 -37h-128v-1024h128q53 0 90 -38q38 -38 38 -90v-256q0 -54 -38 -91
t-90 -37h-768zM256 2176l-256 512h768l256 -512h-768z" />
    <glyph glyph-name="Iacute" unicode="&#xcd;" horiz-adv-x="1305" 
d="M128 0q-54 0 -91 37q-37 38 -37 91v256q0 53 37 90q38 38 91 38h128v1024h-128q-54 0 -91 37q-37 38 -37 91v256q0 53 37 90q38 38 91 38h768q53 0 90 -38q38 -38 38 -90v-256q0 -54 -38 -91t-90 -37h-128v-1024h128q53 0 90 -38q38 -38 38 -90v-256q0 -54 -38 -91
t-90 -37h-768zM128 2176l256 512h768l-256 -512h-768z" />
    <glyph glyph-name="Icircumflex" unicode="&#xce;" horiz-adv-x="1561" 
d="M288 0q-54 0 -91 37q-37 38 -37 91v256q0 53 37 90q38 38 91 38h128v1024h-128q-54 0 -91 37q-37 38 -37 91v256q0 53 37 90q38 38 91 38h768q53 0 90 -38q38 -38 38 -90v-256q0 -54 -38 -91t-90 -37h-128v-1024h128q53 0 90 -38q38 -38 38 -90v-256q0 -54 -38 -91
t-90 -37h-768zM0 2176l256 512h832l256 -512h-512l-64 128h-192l-64 -128h-512z" />
    <glyph glyph-name="Idieresis" unicode="&#xcf;" horiz-adv-x="1561" 
d="M288 0q-54 0 -91 37q-37 38 -37 91v256q0 53 37 90q38 38 91 38h128v1024h-128q-54 0 -91 37q-37 38 -37 91v256q0 53 37 90q38 38 91 38h768q53 0 90 -38q38 -38 38 -90v-256q0 -54 -38 -91t-90 -37h-128v-1024h128q53 0 90 -38q38 -38 38 -90v-256q0 -54 -38 -91
t-90 -37h-768zM128 2176q-54 0 -91 37q-37 38 -37 91v256q0 53 37 90q38 38 91 38h384q53 0 90 -38q38 -38 38 -90v-256q0 -54 -38 -91t-90 -37h-384zM832 2176q-54 0 -91 37q-37 38 -37 91v256q0 53 37 90q38 38 91 38h384q53 0 90 -38q38 -38 38 -90v-256q0 -54 -38 -91
t-90 -37h-384z" />
    <glyph glyph-name="Eth" unicode="&#xd0;" horiz-adv-x="2201" 
d="M1408 512q52 0 90 37q38 38 38 91v768q0 52 -38 90t-90 38h-512q-53 0 -91 -38q-37 -38 -37 -90v-128h512q52 0 90 -38q38 -37 38 -90v-256q0 -53 -38 -91q-37 -37 -90 -37h-512v-128q0 -53 37 -91q38 -37 91 -37h512zM256 0q-54 0 -91 37q-37 38 -37 91v256q0 53 37 90
q38 38 91 38h128v256h-256q-53 0 -91 37q-37 37 -37 91v256q0 52 37 90t91 38h256v256h-128q-54 0 -91 37q-37 38 -37 91v256q0 53 37 90q38 38 91 38h1536l256 -512v-1024l-256 -512h-1536z" />
    <glyph glyph-name="Ntilde" unicode="&#xd1;" horiz-adv-x="2329" 
d="M128 0q-54 0 -91 37q-37 38 -37 91v256q0 53 37 90q38 38 91 38h128v1024h-128q-54 0 -91 37q-37 38 -37 91v256q0 53 37 90q38 38 91 38h896q53 0 90 -38q38 -38 38 -90v-256q0 -54 -38 -91t-90 -37l512 -1024v896q0 52 -38 90t-90 38q-54 0 -91 37q-37 38 -37 91v256
q0 53 37 90q38 38 91 38h640q53 0 90 -38q38 -38 38 -90v-256q0 -54 -38 -91t-90 -37h-128v-1024q53 0 90 -38q38 -38 38 -90v-256q0 -54 -38 -91t-90 -37h-768q-54 0 -91 37q-37 38 -37 91v256q0 53 37 90q38 38 91 38l-512 1024v-896q0 -53 37 -91q38 -37 91 -37t90 -38
q38 -38 38 -90v-256q0 -54 -38 -91t-90 -37h-640zM384 2176q-53 0 -91 37q-37 37 -37 91v256q0 52 37 90t91 38h640q52 0 90 37q38 38 38 91q0 52 37 90t91 38h512q52 0 90 -38q38 -37 38 -90v-256q0 -53 -38 -91q-37 -37 -90 -37h-640q-53 0 -91 -38q-37 -38 -37 -90
q0 -54 -38 -91t-90 -37h-512z" />
    <glyph glyph-name="Ograve" unicode="&#xd2;" 
d="M1280 512q52 0 90 37q38 38 38 91v768q0 52 -38 90t-90 38h-768q-53 0 -91 -38q-37 -38 -37 -90v-768q0 -53 37 -91q38 -37 91 -37h768zM128 0q-53 0 -91 37q-37 37 -37 91v1792q0 52 37 90t91 38h1536q52 0 90 -38q38 -37 38 -90v-1792q0 -53 -38 -91q-37 -37 -90 -37
h-1536zM512 2176l-256 512h768l256 -512h-768z" />
    <glyph glyph-name="Oacute" unicode="&#xd3;" 
d="M1280 512q52 0 90 37q38 38 38 91v768q0 52 -38 90t-90 38h-768q-53 0 -91 -38q-37 -38 -37 -90v-768q0 -53 37 -91q38 -37 91 -37h768zM128 0q-53 0 -91 37q-37 37 -37 91v1792q0 52 37 90t91 38h1536q52 0 90 -38q38 -37 38 -90v-1792q0 -53 -38 -91q-37 -37 -90 -37
h-1536zM512 2176l256 512h768l-256 -512h-768z" />
    <glyph glyph-name="Ocircumflex" unicode="&#xd4;" 
d="M1280 512q52 0 90 37q38 38 38 91v768q0 52 -38 90t-90 38h-768q-53 0 -91 -38q-37 -38 -37 -90v-768q0 -53 37 -91q38 -37 91 -37h768zM128 0q-53 0 -91 37q-37 37 -37 91v1792q0 52 37 90t91 38h1536q52 0 90 -38q38 -37 38 -90v-1792q0 -53 -38 -91q-37 -37 -90 -37
h-1536zM256 2176l256 512h768l256 -512h-512l-64 128h-128l-64 -128h-512z" />
    <glyph glyph-name="Otilde" unicode="&#xd5;" 
d="M1280 512q52 0 90 37q38 38 38 91v768q0 52 -38 90t-90 38h-768q-53 0 -91 -38q-37 -38 -37 -90v-768q0 -53 37 -91q38 -37 91 -37h768zM128 0q-53 0 -91 37q-37 37 -37 91v1792q0 52 37 90t91 38h1536q52 0 90 -38q38 -37 38 -90v-1792q0 -53 -38 -91q-37 -37 -90 -37
h-1536zM256 2176q-53 0 -91 37q-37 37 -37 91v256q0 52 37 90t91 38h640q52 0 90 37q38 38 38 91q0 52 37 90t91 38h512q52 0 90 -38q38 -37 38 -90v-256q0 -53 -38 -91q-37 -37 -90 -37h-640q-53 0 -91 -38q-37 -38 -37 -90q0 -54 -38 -91t-90 -37h-512z" />
    <glyph glyph-name="Odieresis" unicode="&#xd6;" 
d="M1280 512q52 0 90 37q38 38 38 91v768q0 52 -38 90t-90 38h-768q-53 0 -91 -38q-37 -38 -37 -90v-768q0 -53 37 -91q38 -37 91 -37h768zM128 0q-53 0 -91 37q-37 37 -37 91v1792q0 52 37 90t91 38h1536q52 0 90 -38q38 -37 38 -90v-1792q0 -53 -38 -91q-37 -37 -90 -37
h-1536zM128 2176q-54 0 -91 37q-37 38 -37 91v256q0 53 37 90q38 38 91 38h512q53 0 90 -38q38 -38 38 -90v-256q0 -54 -38 -91t-90 -37h-512zM1152 2176q-54 0 -91 37q-37 38 -37 91v256q0 53 37 90q38 38 91 38h512q53 0 90 -38q38 -38 38 -90v-256q0 -54 -38 -91t-90 -37
h-512z" />
    <glyph glyph-name="multiply" unicode="&#xd7;" horiz-adv-x="2073" 
d="M128 0q-54 0 -91 37q-37 38 -37 91v256q0 53 37 90q38 38 91 38h192l256 512l-256 512h-192q-53 0 -91 37q-37 37 -37 91v256q0 52 37 90t91 38h640q52 0 90 -38q38 -37 38 -90v-256q0 -53 -38 -91q-37 -37 -90 -37h-64l256 -512l-256 -512h64q53 0 90 -38q38 -38 38 -90
v-256q0 -54 -38 -91t-90 -37h-640zM1152 0q-53 0 -91 37q-37 37 -37 91v256q0 52 37 90t91 38h64l-256 512l256 512h-64q-54 0 -91 37q-37 38 -37 91v256q0 53 37 90q38 38 91 38h640q53 0 90 -38q38 -38 38 -90v-256q0 -54 -38 -91t-90 -37h-192l-256 -512l256 -512h192
q52 0 90 -38q38 -37 38 -90v-256q0 -53 -38 -91q-37 -37 -90 -37h-640z" />
    <glyph glyph-name="Oslash" unicode="&#xd8;" horiz-adv-x="2457" 
d="M1536 512q52 0 90 37q38 38 38 91v512l-1024 -512q0 -53 37 -91q38 -37 91 -37h768zM640 896l1024 512q0 52 -38 90t-90 38h-768q-53 0 -91 -38q-37 -38 -37 -90v-512zM384 0q-53 0 -91 37q-37 37 -37 91v256l-256 -128v256l256 128v1280q0 52 37 90t91 38h1536
q52 0 90 -38q38 -37 38 -90v-256l256 128v-256l-256 -128v-1280q0 -53 -38 -91q-37 -37 -90 -37h-1536z" />
    <glyph glyph-name="Ugrave" unicode="&#xd9;" horiz-adv-x="2201" 
d="M512 0l-256 512v1024h-128q-53 0 -91 37q-37 37 -37 91v256q0 52 37 90t91 38h640q52 0 90 -38q38 -37 38 -90v-256q0 -53 -38 -91q-37 -37 -90 -37t-91 -38q-37 -38 -37 -90v-768q0 -53 37 -91q38 -37 91 -37h512q52 0 90 37q38 38 38 91v768q0 52 -38 90t-90 38
q-53 0 -91 37q-37 37 -37 91v256q0 52 37 90t91 38h640q52 0 90 -38q38 -37 38 -90v-256q0 -53 -38 -91q-37 -37 -90 -37h-128v-1024l-256 -512h-1024zM640 2176l-256 512h768l256 -512h-768z" />
    <glyph glyph-name="Uacute" unicode="&#xda;" horiz-adv-x="2201" 
d="M512 0l-256 512v1024h-128q-53 0 -91 37q-37 37 -37 91v256q0 52 37 90t91 38h640q52 0 90 -38q38 -37 38 -90v-256q0 -53 -38 -91q-37 -37 -90 -37t-91 -38q-37 -38 -37 -90v-768q0 -53 37 -91q38 -37 91 -37h512q52 0 90 37q38 38 38 91v768q0 52 -38 90t-90 38
q-53 0 -91 37q-37 37 -37 91v256q0 52 37 90t91 38h640q52 0 90 -38q38 -37 38 -90v-256q0 -53 -38 -91q-37 -37 -90 -37h-128v-1024l-256 -512h-1024zM640 2176l256 512h768l-256 -512h-768z" />
    <glyph glyph-name="Ucircumflex" unicode="&#xdb;" horiz-adv-x="2201" 
d="M512 0l-256 512v1024h-128q-53 0 -91 37q-37 37 -37 91v256q0 52 37 90t91 38h640q52 0 90 -38q38 -37 38 -90v-256q0 -53 -38 -91q-37 -37 -90 -37t-91 -38q-37 -38 -37 -90v-768q0 -53 37 -91q38 -37 91 -37h512q52 0 90 37q38 38 38 91v768q0 52 -38 90t-90 38
q-53 0 -91 37q-37 37 -37 91v256q0 52 37 90t91 38h640q52 0 90 -38q38 -37 38 -90v-256q0 -53 -38 -91q-37 -37 -90 -37h-128v-1024l-256 -512h-1024zM384 2176l256 512h768l256 -512h-512l-64 128h-128l-64 -128h-512z" />
    <glyph glyph-name="Udieresis" unicode="&#xdc;" horiz-adv-x="2201" 
d="M512 0l-256 512v1024h-128q-53 0 -91 37q-37 37 -37 91v256q0 52 37 90t91 38h640q52 0 90 -38q38 -37 38 -90v-256q0 -53 -38 -91q-37 -37 -90 -37t-91 -38q-37 -38 -37 -90v-768q0 -53 37 -91q38 -37 91 -37h512q52 0 90 37q38 38 38 91v768q0 52 -38 90t-90 38
q-53 0 -91 37q-37 37 -37 91v256q0 52 37 90t91 38h640q52 0 90 -38q38 -37 38 -90v-256q0 -53 -38 -91q-37 -37 -90 -37h-128v-1024l-256 -512h-1024zM256 2176q-54 0 -91 37q-37 38 -37 91v256q0 53 37 90q38 38 91 38h512q53 0 90 -38q38 -38 38 -90v-256q0 -54 -38 -91
t-90 -37h-512zM1280 2176q-54 0 -91 37q-37 38 -37 91v256q0 53 37 90q38 38 91 38h512q53 0 90 -38q38 -38 38 -90v-256q0 -54 -38 -91t-90 -37h-512z" />
    <glyph glyph-name="Yacute" unicode="&#xdd;" horiz-adv-x="2073" 
d="M640 0q-54 0 -91 37q-37 38 -37 91v256q0 53 37 90q38 38 91 38h128v128l-448 896h-192q-53 0 -91 37q-37 37 -37 91v256q0 52 37 90t91 38h640q52 0 90 -38q38 -37 38 -90v-256q0 -53 -38 -91q-37 -37 -90 -37h-64l192 -384h128l192 384h-64q-54 0 -91 37q-37 38 -37 91
v256q0 53 37 90q38 38 91 38h640q53 0 90 -38q38 -38 38 -90v-256q0 -54 -38 -91t-90 -37h-192l-448 -896v-128h128q53 0 90 -38q38 -38 38 -90v-256q0 -54 -38 -91t-90 -37h-640zM512 2176l256 512h768l-256 -512h-768z" />
    <glyph glyph-name="Thorn" unicode="&#xde;" horiz-adv-x="1817" 
d="M1152 896q52 0 90 37q38 38 38 91q0 52 -38 90t-90 38h-448v-256h448zM128 -128q-53 0 -91 38q-37 37 -37 90v256q0 52 37 90t91 38h128v1280h-128q-53 0 -91 37q-37 37 -37 91v256q0 52 37 90t91 38h896q53 0 90 -38q38 -38 38 -90v-256q0 -54 -38 -91t-90 -37h-256
v-128h768q53 0 90 -38q38 -38 38 -90v-768q0 -54 -38 -91t-90 -37h-768v-128h256q53 0 90 -38q38 -38 38 -90v-256q0 -53 -38 -90q-38 -38 -90 -38h-896z" />
    <glyph glyph-name="germandbls" unicode="&#xdf;" 
d="M1280 1280q52 0 90 37q38 38 38 91q0 52 -38 90t-90 38h-512q-53 0 -91 -38q-37 -38 -37 -90q0 -53 37 -91q38 -37 91 -37h512zM128 0q-54 0 -91 37q-37 38 -37 91v256q0 53 37 90q38 38 91 38h128v1024h-128q-54 0 -91 37q-37 38 -37 91v256q0 53 37 90q38 38 91 38
h1536q53 0 90 -38q38 -38 38 -90v-640q0 -54 -38 -91t-90 -37h-128q-53 0 -91 -38q-37 -38 -37 -90q0 -53 37 -91q38 -37 91 -37h128q53 0 90 -38q38 -38 38 -90v-640q0 -54 -38 -91t-90 -37h-640q-54 0 -91 37q-37 38 -37 91v256q0 53 37 90q38 38 91 38h256q52 0 90 37
q38 38 38 91q0 52 -38 90t-90 38h-512q-53 0 -91 -38q-37 -38 -37 -90v-512q0 -54 -38 -91t-90 -37h-384z" />
    <glyph glyph-name="agrave" unicode="&#xe0;" horiz-adv-x="2329" 
d="M1280 1024l-192 384l-192 -384h384zM128 0q-54 0 -91 37q-37 38 -37 91v256q0 53 37 90q38 38 91 38h128l512 1024h-128q-54 0 -91 37q-37 38 -37 91v256q0 53 37 90q38 38 91 38h896q52 0 90 -38q38 -37 38 -90v-256q0 -53 -38 -91q-37 -37 -90 -37h-128l512 -1024h128
q52 0 90 -38q38 -37 38 -90v-256q0 -53 -38 -91q-37 -37 -90 -37h-640q-53 0 -91 37q-37 37 -37 91v256q0 52 37 90t91 38h128l-64 128h-768l-64 -128h128q53 0 90 -38q38 -38 38 -90v-256q0 -54 -38 -91t-90 -37h-640zM640 2176l-256 512h896l256 -512h-896z" />
    <glyph glyph-name="aacute" unicode="&#xe1;" horiz-adv-x="2329" 
d="M1280 1024l-192 384l-192 -384h384zM128 0q-54 0 -91 37q-37 38 -37 91v256q0 53 37 90q38 38 91 38h128l512 1024h-128q-54 0 -91 37q-37 38 -37 91v256q0 53 37 90q38 38 91 38h896q52 0 90 -38q38 -37 38 -90v-256q0 -53 -38 -91q-37 -37 -90 -37h-128l512 -1024h128
q52 0 90 -38q38 -37 38 -90v-256q0 -53 -38 -91q-37 -37 -90 -37h-640q-53 0 -91 37q-37 37 -37 91v256q0 52 37 90t91 38h128l-64 128h-768l-64 -128h128q53 0 90 -38q38 -38 38 -90v-256q0 -54 -38 -91t-90 -37h-640zM640 2176l256 512h896l-256 -512h-896z" />
    <glyph glyph-name="acircumflex" unicode="&#xe2;" horiz-adv-x="2329" 
d="M1280 1024l-192 384l-192 -384h384zM128 0q-54 0 -91 37q-37 38 -37 91v256q0 53 37 90q38 38 91 38h128l512 1024h-128q-54 0 -91 37q-37 38 -37 91v256q0 53 37 90q38 38 91 38h896q52 0 90 -38q38 -37 38 -90v-256q0 -53 -38 -91q-37 -37 -90 -37h-128l512 -1024h128
q52 0 90 -38q38 -37 38 -90v-256q0 -53 -38 -91q-37 -37 -90 -37h-640q-53 0 -91 37q-37 37 -37 91v256q0 52 37 90t91 38h128l-64 128h-768l-64 -128h128q53 0 90 -38q38 -38 38 -90v-256q0 -54 -38 -91t-90 -37h-640zM384 2176l256 512h896l256 -512h-512l-64 128h-256
l-64 -128h-512z" />
    <glyph glyph-name="atilde" unicode="&#xe3;" horiz-adv-x="2329" 
d="M1280 1024l-192 384l-192 -384h384zM128 0q-54 0 -91 37q-37 38 -37 91v256q0 53 37 90q38 38 91 38h128l512 1024h-128q-54 0 -91 37q-37 38 -37 91v256q0 53 37 90q38 38 91 38h896q52 0 90 -38q38 -37 38 -90v-256q0 -53 -38 -91q-37 -37 -90 -37h-128l512 -1024h128
q52 0 90 -38q38 -37 38 -90v-256q0 -53 -38 -91q-37 -37 -90 -37h-640q-53 0 -91 37q-37 37 -37 91v256q0 52 37 90t91 38h128l-64 128h-768l-64 -128h128q53 0 90 -38q38 -38 38 -90v-256q0 -54 -38 -91t-90 -37h-640zM384 2176q-53 0 -91 37q-37 37 -37 91v256q0 52 37 90
t91 38h640q52 0 90 37q38 38 38 91q0 52 37 90t91 38h512q52 0 90 -38q38 -37 38 -90v-256q0 -53 -38 -91q-37 -37 -90 -37h-640q-53 0 -91 -38q-37 -38 -37 -90q0 -54 -38 -91t-90 -37h-512z" />
    <glyph glyph-name="adieresis" unicode="&#xe4;" horiz-adv-x="2329" 
d="M1280 1024l-192 384l-192 -384h384zM128 0q-54 0 -91 37q-37 38 -37 91v256q0 53 37 90q38 38 91 38h128l512 1024h-128q-54 0 -91 37q-37 38 -37 91v256q0 53 37 90q38 38 91 38h896q52 0 90 -38q38 -37 38 -90v-256q0 -53 -38 -91q-37 -37 -90 -37h-128l512 -1024h128
q52 0 90 -38q38 -37 38 -90v-256q0 -53 -38 -91q-37 -37 -90 -37h-640q-53 0 -91 37q-37 37 -37 91v256q0 52 37 90t91 38h128l-64 128h-768l-64 -128h128q53 0 90 -38q38 -38 38 -90v-256q0 -54 -38 -91t-90 -37h-640zM384 2176q-54 0 -91 37q-37 38 -37 91v256q0 53 37 90
q38 38 91 38h512q53 0 90 -38q38 -38 38 -90v-256q0 -54 -38 -91t-90 -37h-512zM1280 2176q-54 0 -91 37q-37 38 -37 91v256q0 53 37 90q38 38 91 38h512q53 0 90 -38q38 -38 38 -90v-256q0 -54 -38 -91t-90 -37h-512z" />
    <glyph glyph-name="aring" unicode="&#xe5;" horiz-adv-x="2329" 
d="M1280 1024l-192 384l-192 -384h384zM1280 1920q52 0 90 37q38 38 38 91q0 52 -38 90t-90 38h-384q-53 0 -91 -38q-37 -38 -37 -90q0 -53 37 -91q38 -37 91 -37h384zM128 0q-54 0 -91 37q-37 38 -37 91v256q0 53 37 90q38 38 91 38h128l512 1024h-128q-54 0 -91 37
q-37 38 -37 91v768q0 53 37 90q38 38 91 38h896q53 0 90 -38q38 -38 38 -90v-768q0 -54 -38 -91t-90 -37h-128l512 -1024h128q52 0 90 -38q38 -37 38 -90v-256q0 -53 -38 -91q-37 -37 -90 -37h-640q-53 0 -91 37q-37 37 -37 91v256q0 52 37 90t91 38h128l-64 128h-768
l-64 -128h128q53 0 90 -38q38 -38 38 -90v-256q0 -54 -38 -91t-90 -37h-640z" />
    <glyph glyph-name="ae" unicode="&#xe6;" horiz-adv-x="2841" 
d="M1280 1024l-192 384l-192 -384h384zM128 0q-54 0 -91 37q-37 38 -37 91v256q0 53 37 90q38 38 91 38h128l512 1024h-128q-54 0 -91 37q-37 38 -37 91v256q0 53 37 90q38 38 91 38h1920q53 0 90 -38q38 -38 38 -90v-256q0 -54 -38 -91t-90 -37h-896q-53 0 -91 -38
q-37 -38 -37 -90q0 -53 37 -91q38 -37 91 -37h256q53 0 90 -38q38 -38 38 -90v-256q0 -54 -38 -91t-90 -37h-256q-53 0 -91 -38q-37 -38 -37 -90q0 -53 37 -91q38 -37 91 -37h896q53 0 90 -38q38 -38 38 -90v-256q0 -54 -38 -91t-90 -37h-1408q-54 0 -91 37q-37 38 -37 91
v256q0 53 37 90q38 38 91 38v128h-448l-64 -128q53 0 90 -38q38 -38 38 -90v-256q0 -54 -38 -91t-90 -37h-512z" />
    <glyph glyph-name="ccedilla" unicode="&#xe7;" horiz-adv-x="1689" 
d="M256 -384q-53 0 -91 38q-37 37 -37 90v128q0 53 37 91q37 37 91 37h384q52 0 90 37q38 38 38 91q0 52 -38 90t-90 38h-128l64 128h-448q-54 0 -91 37q-37 38 -37 91v1024q0 53 37 90q38 38 91 38h896q0 53 37 90q38 38 91 38h256q53 0 90 -38q38 -38 38 -90v-384
q0 -54 -38 -91t-90 -37h-896q-53 0 -91 -38q-37 -38 -37 -90q0 -53 37 -91q38 -37 91 -37h896q53 0 90 -38q38 -38 38 -90v-384q0 -54 -38 -91t-90 -37h-256q-54 0 -91 37q-37 38 -37 91h-64l-64 -128q52 0 90 -38q38 -37 38 -90v-256q0 -52 -38 -90q-37 -38 -90 -38h-256
q0 -52 -38 -90q-37 -38 -90 -38h-256z" />
    <glyph glyph-name="egrave" unicode="&#xe8;" 
d="M128 0q-54 0 -91 37q-37 38 -37 91v256q0 53 37 90q38 38 91 38h128v1024h-128q-54 0 -91 37q-37 38 -37 91v256q0 53 37 90q38 38 91 38h1536q53 0 90 -38q38 -38 38 -90v-256q0 -54 -38 -91t-90 -37h-896q-53 0 -91 -38q-37 -38 -37 -90q0 -53 37 -91q38 -37 91 -37
h256q53 0 90 -38q38 -38 38 -90v-256q0 -54 -38 -91t-90 -37h-256q-53 0 -91 -38q-37 -38 -37 -90q0 -53 37 -91q38 -37 91 -37h896q53 0 90 -38q38 -38 38 -90v-256q0 -54 -38 -91t-90 -37h-1536zM640 2176l-256 512h768l256 -512h-768z" />
    <glyph glyph-name="eacute" unicode="&#xe9;" 
d="M128 0q-54 0 -91 37q-37 38 -37 91v256q0 53 37 90q38 38 91 38h128v1024h-128q-54 0 -91 37q-37 38 -37 91v256q0 53 37 90q38 38 91 38h1536q53 0 90 -38q38 -38 38 -90v-256q0 -54 -38 -91t-90 -37h-896q-53 0 -91 -38q-37 -38 -37 -90q0 -53 37 -91q38 -37 91 -37
h256q53 0 90 -38q38 -38 38 -90v-256q0 -54 -38 -91t-90 -37h-256q-53 0 -91 -38q-37 -38 -37 -90q0 -53 37 -91q38 -37 91 -37h896q53 0 90 -38q38 -38 38 -90v-256q0 -54 -38 -91t-90 -37h-1536zM512 2176l256 512h768l-256 -512h-768z" />
    <glyph glyph-name="ecircumflex" unicode="&#xea;" 
d="M128 0q-54 0 -91 37q-37 38 -37 91v256q0 53 37 90q38 38 91 38h128v1024h-128q-54 0 -91 37q-37 38 -37 91v256q0 53 37 90q38 38 91 38h1536q53 0 90 -38q38 -38 38 -90v-256q0 -54 -38 -91t-90 -37h-896q-53 0 -91 -38q-37 -38 -37 -90q0 -53 37 -91q38 -37 91 -37
h256q53 0 90 -38q38 -38 38 -90v-256q0 -54 -38 -91t-90 -37h-256q-53 0 -91 -38q-37 -38 -37 -90q0 -53 37 -91q38 -37 91 -37h896q53 0 90 -38q38 -38 38 -90v-256q0 -54 -38 -91t-90 -37h-1536zM256 2176l256 512h896l256 -512h-512l-64 128h-256l-64 -128h-512z" />
    <glyph glyph-name="edieresis" unicode="&#xeb;" 
d="M128 0q-54 0 -91 37q-37 38 -37 91v256q0 53 37 90q38 38 91 38h128v1024h-128q-54 0 -91 37q-37 38 -37 91v256q0 53 37 90q38 38 91 38h1536q53 0 90 -38q38 -38 38 -90v-256q0 -54 -38 -91t-90 -37h-896q-53 0 -91 -38q-37 -38 -37 -90q0 -53 37 -91q38 -37 91 -37
h256q53 0 90 -38q38 -38 38 -90v-256q0 -54 -38 -91t-90 -37h-256q-53 0 -91 -38q-37 -38 -37 -90q0 -53 37 -91q38 -37 91 -37h896q53 0 90 -38q38 -38 38 -90v-256q0 -54 -38 -91t-90 -37h-1536zM256 2176q-54 0 -91 37q-37 38 -37 91v256q0 53 37 90q38 38 91 38h512
q53 0 90 -38q38 -38 38 -90v-256q0 -54 -38 -91t-90 -37h-512zM1152 2176q-54 0 -91 37q-37 38 -37 91v256q0 53 37 90q38 38 91 38h512q53 0 90 -38q38 -38 38 -90v-256q0 -54 -38 -91t-90 -37h-512z" />
    <glyph glyph-name="igrave" unicode="&#xec;" horiz-adv-x="1305" 
d="M256 0q-54 0 -91 37q-37 38 -37 91v256q0 53 37 90q38 38 91 38h128v1024h-128q-54 0 -91 37q-37 38 -37 91v256q0 53 37 90q38 38 91 38h768q53 0 90 -38q38 -38 38 -90v-256q0 -54 -38 -91t-90 -37h-128v-1024h128q53 0 90 -38q38 -38 38 -90v-256q0 -54 -38 -91
t-90 -37h-768zM256 2176l-256 512h768l256 -512h-768z" />
    <glyph glyph-name="iacute" unicode="&#xed;" horiz-adv-x="1305" 
d="M128 0q-54 0 -91 37q-37 38 -37 91v256q0 53 37 90q38 38 91 38h128v1024h-128q-54 0 -91 37q-37 38 -37 91v256q0 53 37 90q38 38 91 38h768q53 0 90 -38q38 -38 38 -90v-256q0 -54 -38 -91t-90 -37h-128v-1024h128q53 0 90 -38q38 -38 38 -90v-256q0 -54 -38 -91
t-90 -37h-768zM128 2176l256 512h768l-256 -512h-768z" />
    <glyph glyph-name="icircumflex" unicode="&#xee;" horiz-adv-x="1561" 
d="M288 0q-54 0 -91 37q-37 38 -37 91v256q0 53 37 90q38 38 91 38h128v1024h-128q-54 0 -91 37q-37 38 -37 91v256q0 53 37 90q38 38 91 38h768q53 0 90 -38q38 -38 38 -90v-256q0 -54 -38 -91t-90 -37h-128v-1024h128q53 0 90 -38q38 -38 38 -90v-256q0 -54 -38 -91
t-90 -37h-768zM0 2176l256 512h832l256 -512h-512l-64 128h-192l-64 -128h-512z" />
    <glyph glyph-name="idieresis" unicode="&#xef;" horiz-adv-x="1561" 
d="M288 0q-54 0 -91 37q-37 38 -37 91v256q0 53 37 90q38 38 91 38h128v1024h-128q-54 0 -91 37q-37 38 -37 91v256q0 53 37 90q38 38 91 38h768q53 0 90 -38q38 -38 38 -90v-256q0 -54 -38 -91t-90 -37h-128v-1024h128q53 0 90 -38q38 -38 38 -90v-256q0 -54 -38 -91
t-90 -37h-768zM128 2176q-54 0 -91 37q-37 38 -37 91v256q0 53 37 90q38 38 91 38h384q53 0 90 -38q38 -38 38 -90v-256q0 -54 -38 -91t-90 -37h-384zM832 2176q-54 0 -91 37q-37 38 -37 91v256q0 53 37 90q38 38 91 38h384q53 0 90 -38q38 -38 38 -90v-256q0 -54 -38 -91
t-90 -37h-384z" />
    <glyph glyph-name="eth" unicode="&#xf0;" horiz-adv-x="1817" 
d="M1152 512q52 0 90 37q38 38 38 91v768q0 52 -38 90t-90 38h-384q-53 0 -91 -38q-37 -38 -37 -90v-128h384q53 0 90 -38q38 -38 38 -90v-256q0 -54 -38 -91t-90 -37h-384v-128q0 -53 37 -91q38 -37 91 -37h384zM128 0q-54 0 -91 37q-37 38 -37 91v256q0 53 37 90
q38 38 91 38h128v256h-128q-54 0 -91 37q-37 38 -37 91v256q0 53 37 90q38 38 91 38h128v256h-128q-54 0 -91 37q-37 38 -37 91v256q0 53 37 90q38 38 91 38h1408q53 0 90 -38q38 -38 38 -90v-1792q0 -54 -38 -91t-90 -37h-1408z" />
    <glyph glyph-name="ntilde" unicode="&#xf1;" horiz-adv-x="2329" 
d="M128 0q-54 0 -91 37q-37 38 -37 91v256q0 53 37 90q38 38 91 38h128v1024h-128q-54 0 -91 37q-37 38 -37 91v256q0 53 37 90q38 38 91 38h896q53 0 90 -38q38 -38 38 -90v-256q0 -54 -38 -91t-90 -37l512 -1024v896q0 52 -38 90t-90 38q-54 0 -91 37q-37 38 -37 91v256
q0 53 37 90q38 38 91 38h640q53 0 90 -38q38 -38 38 -90v-256q0 -54 -38 -91t-90 -37h-128v-1024q53 0 90 -38q38 -38 38 -90v-256q0 -54 -38 -91t-90 -37h-768q-54 0 -91 37q-37 38 -37 91v256q0 53 37 90q38 38 91 38l-512 1024v-896q0 -53 37 -91q38 -37 91 -37t90 -38
q38 -38 38 -90v-256q0 -54 -38 -91t-90 -37h-640zM384 2176q-53 0 -91 37q-37 37 -37 91v256q0 52 37 90t91 38h640q52 0 90 37q38 38 38 91q0 52 37 90t91 38h512q52 0 90 -38q38 -37 38 -90v-256q0 -53 -38 -91q-37 -37 -90 -37h-640q-53 0 -91 -38q-37 -38 -37 -90
q0 -54 -38 -91t-90 -37h-512z" />
    <glyph glyph-name="ograve" unicode="&#xf2;" horiz-adv-x="1689" 
d="M1024 896q52 0 90 37q38 38 38 91q0 52 -38 90t-90 38h-512q-53 0 -91 -38q-37 -38 -37 -90q0 -53 37 -91q38 -37 91 -37h512zM128 384q-54 0 -91 37q-37 38 -37 91v1024q0 53 37 90q38 38 91 38h1280q53 0 90 -38q38 -38 38 -90v-1024q0 -54 -38 -91t-90 -37h-1280z
M384 1792l-256 512h768l256 -512h-768z" />
    <glyph glyph-name="oacute" unicode="&#xf3;" horiz-adv-x="1689" 
d="M1024 896q52 0 90 37q38 38 38 91q0 52 -38 90t-90 38h-512q-53 0 -91 -38q-37 -38 -37 -90q0 -53 37 -91q38 -37 91 -37h512zM128 384q-54 0 -91 37q-37 38 -37 91v1024q0 53 37 90q38 38 91 38h1280q53 0 90 -38q38 -38 38 -90v-1024q0 -54 -38 -91t-90 -37h-1280z
M384 1792l256 512h768l-256 -512h-768z" />
    <glyph glyph-name="ocircumflex" unicode="&#xf4;" horiz-adv-x="1689" 
d="M1024 896q52 0 90 37q38 38 38 91q0 52 -38 90t-90 38h-512q-53 0 -91 -38q-37 -38 -37 -90q0 -53 37 -91q38 -37 91 -37h512zM128 384q-54 0 -91 37q-37 38 -37 91v1024q0 53 37 90q38 38 91 38h1280q53 0 90 -38q38 -38 38 -90v-1024q0 -54 -38 -91t-90 -37h-1280z
M0 1792l256 512h1024l256 -512h-640l-128 256l-128 -256h-640z" />
    <glyph glyph-name="otilde" unicode="&#xf5;" horiz-adv-x="1817" 
d="M1152 896q52 0 90 37q38 38 38 91q0 52 -38 90t-90 38h-640q-53 0 -91 -38q-37 -38 -37 -90q0 -53 37 -91q38 -37 91 -37h640zM128 384q-54 0 -91 37q-37 38 -37 91v1024q0 53 37 90q38 38 91 38h1408q53 0 90 -38q38 -38 38 -90v-1024q0 -54 -38 -91t-90 -37h-1408z
M128 1792q-53 0 -91 37q-37 37 -37 91v256q0 52 37 90t91 38h640q52 0 90 37q38 38 38 91q0 52 37 90t91 38h512q52 0 90 -38q38 -37 38 -90v-256q0 -53 -38 -91q-37 -37 -90 -37h-640q-53 0 -91 -38q-37 -38 -37 -90q0 -54 -38 -91t-90 -37h-512z" />
    <glyph glyph-name="odieresis" unicode="&#xf6;" horiz-adv-x="1817" 
d="M1152 896q52 0 90 37q38 38 38 91q0 52 -38 90t-90 38h-640q-53 0 -91 -38q-37 -38 -37 -90q0 -53 37 -91q38 -37 91 -37h640zM128 384q-54 0 -91 37q-37 38 -37 91v1024q0 53 37 90q38 38 91 38h1408q53 0 90 -38q38 -38 38 -90v-1024q0 -54 -38 -91t-90 -37h-1408z
M128 1792q-54 0 -91 37q-37 38 -37 91v256q0 53 37 90q38 38 91 38h512q53 0 90 -38q38 -38 38 -90v-256q0 -54 -38 -91t-90 -37h-512zM1024 1792q-54 0 -91 37q-37 38 -37 91v256q0 53 37 90q38 38 91 38h512q53 0 90 -38q38 -38 38 -90v-256q0 -54 -38 -91t-90 -37h-512z
" />
    <glyph glyph-name="divide" unicode="&#xf7;" horiz-adv-x="1817" 
d="M512 128q-54 0 -91 37q-37 38 -37 91v256q0 53 37 90q38 38 91 38h640q53 0 90 -38q38 -38 38 -90v-256q0 -54 -38 -91t-90 -37h-640zM128 896q-54 0 -91 37q-37 38 -37 91t37 90q38 38 91 38h1408q52 0 90 -38q38 -37 38 -90t-38 -91q-37 -37 -90 -37h-1408zM512 1408
q-54 0 -91 37q-37 38 -37 91v256q0 53 37 90q38 38 91 38h640q53 0 90 -38q38 -38 38 -90v-256q0 -54 -38 -91t-90 -37h-640z" />
    <glyph glyph-name="oslash" unicode="&#xf8;" 
d="M640 896l128 256h-256q-53 0 -91 -38q-37 -38 -37 -90q0 -53 37 -91q38 -37 91 -37h128zM1280 896q52 0 90 37q38 38 38 91q0 52 -38 90t-90 38h-128l-128 -256h256zM512 256q-54 0 -91 37q-37 38 -37 91h-256q-54 0 -91 37q-37 38 -37 91v1024q0 53 37 90q38 38 91 38
h768q0 53 37 90q38 38 91 38h256q53 0 90 -38q38 -38 38 -90h256q53 0 90 -38q38 -38 38 -90v-1024q0 -54 -38 -91t-90 -37h-768q0 -54 -38 -91t-90 -37h-256z" />
    <glyph glyph-name="ugrave" unicode="&#xf9;" 
d="M256 384q-54 0 -91 37q-37 38 -37 91v640q-54 0 -91 37q-37 38 -37 91v256q0 53 37 90q38 38 91 38h256q53 0 90 -38q38 -38 38 -90v-512q0 -53 37 -91q38 -37 91 -37h512q52 0 90 37q38 38 38 91v512q0 53 37 90q38 38 91 38h256q53 0 90 -38q38 -38 38 -90v-256
q0 -54 -38 -91t-90 -37v-640q0 -54 -38 -91t-90 -37h-1280zM512 1792l-256 512h768l256 -512h-768z" />
    <glyph glyph-name="uacute" unicode="&#xfa;" 
d="M256 384q-54 0 -91 37q-37 38 -37 91v640q-54 0 -91 37q-37 38 -37 91v256q0 53 37 90q38 38 91 38h256q53 0 90 -38q38 -38 38 -90v-512q0 -53 37 -91q38 -37 91 -37h512q52 0 90 37q38 38 38 91v512q0 53 37 90q38 38 91 38h256q53 0 90 -38q38 -38 38 -90v-256
q0 -54 -38 -91t-90 -37v-640q0 -54 -38 -91t-90 -37h-1280zM512 1792l256 512h768l-256 -512h-768z" />
    <glyph glyph-name="ucircumflex" unicode="&#xfb;" 
d="M256 384q-54 0 -91 37q-37 38 -37 91v640q-54 0 -91 37q-37 38 -37 91v256q0 53 37 90q38 38 91 38h256q53 0 90 -38q38 -38 38 -90v-512q0 -53 37 -91q38 -37 91 -37h512q52 0 90 37q38 38 38 91v512q0 53 37 90q38 38 91 38h256q53 0 90 -38q38 -38 38 -90v-256
q0 -54 -38 -91t-90 -37v-640q0 -54 -38 -91t-90 -37h-1280zM128 1792l256 512h1024l256 -512h-640l-128 256l-128 -256h-640z" />
    <glyph glyph-name="udieresis" unicode="&#xfc;" horiz-adv-x="2073" 
d="M256 384q-54 0 -91 37q-37 38 -37 91v640q-54 0 -91 37q-37 38 -37 91v256q0 53 37 90q38 38 91 38h256q53 0 90 -38q38 -38 38 -90v-512q0 -53 37 -91q38 -37 91 -37h640q52 0 90 37q38 38 38 91v512q0 53 37 90q38 38 91 38h256q53 0 90 -38q38 -38 38 -90v-256
q0 -54 -38 -91t-90 -37v-640q0 -54 -38 -91t-90 -37h-1408zM256 1792q-54 0 -91 37q-37 38 -37 91v256q0 53 37 90q38 38 91 38h512q53 0 90 -38q38 -38 38 -90v-256q0 -54 -38 -91t-90 -37h-512zM1152 1792q-54 0 -91 37q-37 38 -37 91v256q0 53 37 90q38 38 91 38h512
q53 0 90 -38q38 -38 38 -90v-256q0 -54 -38 -91t-90 -37h-512z" />
    <glyph glyph-name="yacute" unicode="&#xfd;" horiz-adv-x="2073" 
d="M640 0q-54 0 -91 37q-37 38 -37 91v256q0 53 37 90q38 38 91 38h128v128l-448 896h-192q-53 0 -91 37q-37 37 -37 91v256q0 52 37 90t91 38h640q52 0 90 -38q38 -37 38 -90v-256q0 -53 -38 -91q-37 -37 -90 -37h-64l192 -384h128l192 384h-64q-54 0 -91 37q-37 38 -37 91
v256q0 53 37 90q38 38 91 38h640q53 0 90 -38q38 -38 38 -90v-256q0 -54 -38 -91t-90 -37h-192l-448 -896v-128h128q53 0 90 -38q38 -38 38 -90v-256q0 -54 -38 -91t-90 -37h-640zM512 2176l256 512h768l-256 -512h-768z" />
    <glyph glyph-name="thorn" unicode="&#xfe;" horiz-adv-x="1817" 
d="M1152 896q52 0 90 37q38 38 38 91q0 52 -38 90t-90 38h-448v-256h448zM128 -128q-53 0 -91 38q-37 37 -37 90v256q0 52 37 90t91 38h128v1280h-128q-53 0 -91 37q-37 37 -37 91v256q0 52 37 90t91 38h896q53 0 90 -38q38 -38 38 -90v-256q0 -54 -38 -91t-90 -37h-256
v-128h768q53 0 90 -38q38 -38 38 -90v-768q0 -54 -38 -91t-90 -37h-768v-128h256q53 0 90 -38q38 -38 38 -90v-256q0 -53 -38 -90q-38 -38 -90 -38h-896z" />
    <glyph glyph-name="ydieresis" unicode="&#xff;" horiz-adv-x="2073" 
d="M640 0q-54 0 -91 37q-37 38 -37 91v256q0 53 37 90q38 38 91 38h128v128l-448 896h-192q-53 0 -91 37q-37 37 -37 91v256q0 52 37 90t91 38h640q52 0 90 -38q38 -37 38 -90v-256q0 -53 -38 -91q-37 -37 -90 -37h-64l192 -384h128l192 384h-64q-54 0 -91 37q-37 38 -37 91
v256q0 53 37 90q38 38 91 38h640q53 0 90 -38q38 -38 38 -90v-256q0 -54 -38 -91t-90 -37h-192l-448 -896v-128h128q53 0 90 -38q38 -38 38 -90v-256q0 -54 -38 -91t-90 -37h-640zM256 2176q-54 0 -91 37q-37 38 -37 91v256q0 53 37 90q38 38 91 38h512q53 0 90 -38
q38 -38 38 -90v-256q0 -54 -38 -91t-90 -37h-512zM1152 2176q-54 0 -91 37q-37 38 -37 91v256q0 53 37 90q38 38 91 38h512q53 0 90 -38q38 -38 38 -90v-256q0 -54 -38 -91t-90 -37h-512z" />
    <glyph glyph-name="Amacron" unicode="&#x100;" horiz-adv-x="2201" 
d="M1216 1152l-192 384l-192 -384h384zM128 0q-54 0 -91 37q-37 38 -37 91v256q0 53 37 90q38 38 91 38h128v256l384 768q-53 0 -91 37q-37 37 -37 91v256q0 52 37 90t91 38h768q53 0 90 -38q38 -38 38 -90v-256q0 -54 -38 -91t-90 -37l384 -768v-256h128q53 0 90 -38
q38 -38 38 -90v-256q0 -54 -38 -91t-90 -37h-640q-54 0 -91 37q-37 38 -37 91v256q0 53 37 90q38 38 91 38h128v128h-768v-128h128q53 0 90 -38q38 -38 38 -90v-256q0 -54 -38 -91t-90 -37h-640zM448 2176q-54 0 -91 37q-37 38 -37 91v128q0 53 37 90q38 38 91 38h1152
q53 0 90 -38q38 -38 38 -90v-128q0 -54 -38 -91t-90 -37h-1152z" />
    <glyph glyph-name="amacron" unicode="&#x101;" horiz-adv-x="2329" 
d="M1280 1024l-192 384l-192 -384h384zM128 0q-54 0 -91 37q-37 38 -37 91v256q0 53 37 90q38 38 91 38h128l512 1024h-128q-54 0 -91 37q-37 38 -37 91v256q0 53 37 90q38 38 91 38h896q52 0 90 -38q38 -37 38 -90v-256q0 -53 -38 -91q-37 -37 -90 -37h-128l512 -1024h128
q52 0 90 -38q38 -37 38 -90v-256q0 -53 -38 -91q-37 -37 -90 -37h-640q-53 0 -91 37q-37 37 -37 91v256q0 52 37 90t91 38h128l-64 128h-768l-64 -128h128q53 0 90 -38q38 -38 38 -90v-256q0 -54 -38 -91t-90 -37h-640zM512 2176q-54 0 -91 37q-37 38 -37 91v128q0 53 37 90
q38 38 91 38h1152q53 0 90 -38q38 -38 38 -90v-128q0 -54 -38 -91t-90 -37h-1152z" />
    <glyph glyph-name="Abreve" unicode="&#x102;" horiz-adv-x="2201" 
d="M1216 1152l-192 384l-192 -384h384zM128 0q-54 0 -91 37q-37 38 -37 91v256q0 53 37 90q38 38 91 38h128v256l384 768q-53 0 -91 37q-37 37 -37 91v256q0 52 37 90t91 38h768q53 0 90 -38q38 -38 38 -90v-256q0 -54 -38 -91t-90 -37l384 -768v-256h128q53 0 90 -38
q38 -38 38 -90v-256q0 -54 -38 -91t-90 -37h-640q-54 0 -91 37q-37 38 -37 91v256q0 53 37 90q38 38 91 38h128v128h-768v-128h128q53 0 90 -38q38 -38 38 -90v-256q0 -54 -38 -91t-90 -37h-640zM448 2176q-54 0 -91 37q-37 38 -37 91v256q0 53 37 90q38 38 91 38h128
q53 0 90 -38q38 -38 38 -90h640q0 53 37 90q38 38 91 38h128q53 0 90 -38q38 -38 38 -90v-256q0 -54 -38 -91t-90 -37h-1152z" />
    <glyph glyph-name="abreve" unicode="&#x103;" horiz-adv-x="2329" 
d="M1280 1024l-192 384l-192 -384h384zM128 0q-54 0 -91 37q-37 38 -37 91v256q0 53 37 90q38 38 91 38h128l512 1024h-128q-54 0 -91 37q-37 38 -37 91v256q0 53 37 90q38 38 91 38h896q52 0 90 -38q38 -37 38 -90v-256q0 -53 -38 -91q-37 -37 -90 -37h-128l512 -1024h128
q52 0 90 -38q38 -37 38 -90v-256q0 -53 -38 -91q-37 -37 -90 -37h-640q-53 0 -91 37q-37 37 -37 91v256q0 52 37 90t91 38h128l-64 128h-768l-64 -128h128q53 0 90 -38q38 -38 38 -90v-256q0 -54 -38 -91t-90 -37h-640zM512 2176q-54 0 -91 37q-37 38 -37 91v256q0 53 37 90
q38 38 91 38h128q53 0 90 -38q38 -38 38 -90h640q0 53 37 90q38 38 91 38h128q53 0 90 -38q38 -38 38 -90v-256q0 -54 -38 -91t-90 -37h-1152z" />
    <glyph glyph-name="Aogonek" unicode="&#x104;" horiz-adv-x="2329" 
d="M1216 1152l-192 384l-192 -384h384zM1792 -640q-54 0 -91 38t-37 90h-512q-54 0 -91 38t-37 90v768q0 53 37 90q38 38 91 38h256v128h-768v-128h128q53 0 90 -38q38 -38 38 -90v-256q0 -54 -38 -91t-90 -37h-640q-54 0 -91 37q-37 38 -37 91v256q0 53 37 90q38 38 91 38
h128v256l384 768q-53 0 -91 37q-37 37 -37 91v256q0 52 37 90t91 38h768q53 0 90 -38q38 -38 38 -90v-256q0 -54 -38 -91t-90 -37l384 -768v-256h256q53 0 90 -38q38 -38 38 -90v-128q0 -54 -38 -91t-90 -37h-640q-53 0 -91 -38q-37 -38 -37 -90t37 -90q38 -38 91 -38h640
q53 0 90 -37q38 -38 38 -91v-256q0 -53 -38 -90q-38 -38 -90 -38h-256z" />
    <glyph glyph-name="aogonek" unicode="&#x105;" horiz-adv-x="2329" 
d="M1280 1024l-192 384l-192 -384h384zM1792 -640q-54 0 -91 38t-37 90h-512q-54 0 -91 38t-37 90v768q0 53 37 90q38 38 91 38h384l-64 128h-768l-64 -128h128q53 0 90 -38q38 -38 38 -90v-256q0 -54 -38 -91t-90 -37h-640q-54 0 -91 37q-37 38 -37 91v256q0 53 37 90
q38 38 91 38h128l512 1024h-128q-54 0 -91 37q-37 38 -37 91v256q0 53 37 90q38 38 91 38h896q52 0 90 -38q38 -37 38 -90v-256q0 -53 -38 -91q-37 -37 -90 -37h-128l512 -1024h128q53 0 90 -38q38 -38 38 -90v-128q0 -54 -38 -91t-90 -37h-640q-53 0 -91 -38
q-37 -38 -37 -90t37 -90q38 -38 91 -38h640q53 0 90 -37q38 -38 38 -91v-256q0 -53 -38 -90q-38 -38 -90 -38h-256z" />
    <glyph glyph-name="Cacute" unicode="&#x106;" horiz-adv-x="1817" 
d="M256 0l-256 512v1024l256 512h1280q52 0 90 -38q38 -37 38 -90v-384q0 -53 -38 -91q-37 -37 -90 -37h-256q-54 0 -91 37q-37 38 -37 91h-512q-53 0 -91 -38q-37 -38 -37 -90v-768q0 -53 37 -91q38 -37 91 -37h512q0 52 37 90t91 38h256q52 0 90 -38q38 -37 38 -90v-384
q0 -53 -38 -91q-37 -37 -90 -37h-1280zM384 2176l256 512h896l-256 -512h-896z" />
    <glyph glyph-name="cacute" unicode="&#x107;" horiz-adv-x="1689" 
d="M1152 256q-54 0 -91 37q-37 38 -37 91h-896q-54 0 -91 37q-37 38 -37 91v1024q0 53 37 90q38 38 91 38h896q0 53 37 90q38 38 91 38h256q53 0 90 -38q38 -38 38 -90v-384q0 -54 -38 -91t-90 -37h-896q-53 0 -91 -38q-37 -38 -37 -90q0 -53 37 -91q38 -37 91 -37h896
q53 0 90 -38q38 -38 38 -90v-384q0 -54 -38 -91t-90 -37h-256zM128 1792l256 512h768l-256 -512h-768z" />
    <glyph glyph-name="Ccircumflex" unicode="&#x108;" horiz-adv-x="1817" 
d="M256 0l-256 512v1024l256 512h1280q52 0 90 -38q38 -37 38 -90v-384q0 -53 -38 -91q-37 -37 -90 -37h-256q-54 0 -91 37q-37 38 -37 91h-512q-53 0 -91 -38q-37 -38 -37 -90v-768q0 -53 37 -91q38 -37 91 -37h512q0 52 37 90t91 38h256q52 0 90 -38q38 -37 38 -90v-384
q0 -53 -38 -91q-37 -37 -90 -37h-1280zM256 2176l256 512h896l256 -512h-512l-64 128h-256l-64 -128h-512z" />
    <glyph glyph-name="ccircumflex" unicode="&#x109;" horiz-adv-x="1689" 
d="M1152 256q-54 0 -91 37q-37 38 -37 91h-896q-54 0 -91 37q-37 38 -37 91v1024q0 53 37 90q38 38 91 38h896q0 53 37 90q38 38 91 38h256q53 0 90 -38q38 -38 38 -90v-384q0 -54 -38 -91t-90 -37h-896q-53 0 -91 -38q-37 -38 -37 -90q0 -53 37 -91q38 -37 91 -37h896
q53 0 90 -38q38 -38 38 -90v-384q0 -54 -38 -91t-90 -37h-256zM0 1920l256 512h896l256 -512h-512l-64 128h-256l-64 -128h-512z" />
    <glyph glyph-name="Cdotaccent" unicode="&#x10a;" horiz-adv-x="1817" 
d="M256 0l-256 512v1024l256 512h1280q52 0 90 -38q38 -37 38 -90v-384q0 -53 -38 -91q-37 -37 -90 -37h-256q-54 0 -91 37q-37 38 -37 91h-512q-53 0 -91 -38q-37 -38 -37 -90v-768q0 -53 37 -91q38 -37 91 -37h512q0 52 37 90t91 38h256q52 0 90 -38q38 -37 38 -90v-384
q0 -53 -38 -91q-37 -37 -90 -37h-1280zM640 2176q-53 0 -91 37q-37 37 -37 91v256q0 52 37 90t91 38h640q52 0 90 -38q38 -37 38 -90v-256q0 -53 -38 -91q-37 -37 -90 -37h-640z" />
    <glyph glyph-name="cdotaccent" unicode="&#x10b;" horiz-adv-x="1689" 
d="M1152 256q-54 0 -91 37q-37 38 -37 91h-896q-54 0 -91 37q-37 38 -37 91v1024q0 53 37 90q38 38 91 38h896q0 53 37 90q38 38 91 38h256q53 0 90 -38q38 -38 38 -90v-384q0 -54 -38 -91t-90 -37h-896q-53 0 -91 -38q-37 -38 -37 -90q0 -53 37 -91q38 -37 91 -37h896
q53 0 90 -38q38 -38 38 -90v-384q0 -54 -38 -91t-90 -37h-256zM384 1792q-53 0 -91 37q-37 37 -37 91v256q0 52 37 90t91 38h512q52 0 90 -38q38 -37 38 -90v-256q0 -53 -38 -91q-37 -37 -90 -37h-512z" />
    <glyph glyph-name="Ccaron" unicode="&#x10c;" horiz-adv-x="1817" 
d="M256 0l-256 512v1024l256 512h1280q52 0 90 -38q38 -37 38 -90v-384q0 -53 -38 -91q-37 -37 -90 -37h-256q-54 0 -91 37q-37 38 -37 91h-512q-53 0 -91 -38q-37 -38 -37 -90v-768q0 -53 37 -91q38 -37 91 -37h512q0 52 37 90t91 38h256q52 0 90 -38q38 -37 38 -90v-384
q0 -53 -38 -91q-37 -37 -90 -37h-1280zM512 2176l-256 512h512l64 -128h256l64 128h512l-256 -512h-896z" />
    <glyph glyph-name="ccaron" unicode="&#x10d;" horiz-adv-x="1689" 
d="M1152 256q-54 0 -91 37q-37 38 -37 91h-896q-54 0 -91 37q-37 38 -37 91v1024q0 53 37 90q38 38 91 38h896q0 53 37 90q38 38 91 38h256q53 0 90 -38q38 -38 38 -90v-384q0 -54 -38 -91t-90 -37h-896q-53 0 -91 -38q-37 -38 -37 -90q0 -53 37 -91q38 -37 91 -37h896
q53 0 90 -38q38 -38 38 -90v-384q0 -54 -38 -91t-90 -37h-256zM256 1920l-256 512h512l64 -128h256l64 128h512l-256 -512h-896z" />
    <glyph glyph-name="Dcaron" unicode="&#x10e;" horiz-adv-x="2201" 
d="M1408 512q52 0 90 37q38 38 38 91v768q0 52 -38 90t-90 38h-512q-53 0 -91 -38q-37 -38 -37 -90v-768q0 -53 37 -91q38 -37 91 -37h512zM256 0q-54 0 -91 37q-37 38 -37 91v256q0 53 37 90q38 38 91 38h128v1024h-128q-54 0 -91 37q-37 38 -37 91v256q0 53 37 90
q38 38 91 38h1536l256 -512v-1024l-256 -512h-1536zM640 2176l-256 512h512l64 -128h256l64 128h512l-256 -512h-896z" />
    <glyph glyph-name="dcaron" unicode="&#x10f;" horiz-adv-x="1817" 
d="M1152 896q52 0 90 37q38 38 38 91q0 52 -38 90t-90 38h-512q-53 0 -91 -38q-37 -38 -37 -90q0 -53 37 -91q38 -37 91 -37h512zM128 384q-54 0 -91 37q-37 38 -37 91v256q0 53 37 90q38 38 91 38v256q-54 0 -91 37q-37 38 -37 91v256q0 53 37 90q38 38 91 38h1408
q53 0 90 -38q38 -38 38 -90v-1024q0 -54 -38 -91t-90 -37h-1408zM384 1792l-256 512h512l64 -128h256l64 128h512l-256 -512h-896z" />
    <glyph glyph-name="Dcroat" unicode="&#x110;" horiz-adv-x="2201" 
d="M1408 512q52 0 90 37q38 38 38 91v768q0 52 -38 90t-90 38h-512q-53 0 -91 -38q-37 -38 -37 -90v-128h512q52 0 90 -38q38 -37 38 -90v-256q0 -53 -38 -91q-37 -37 -90 -37h-512v-128q0 -53 37 -91q38 -37 91 -37h512zM256 0q-54 0 -91 37q-37 38 -37 91v256q0 53 37 90
q38 38 91 38h128v256h-256q-53 0 -91 37q-37 37 -37 91v256q0 52 37 90t91 38h256v256h-128q-54 0 -91 37q-37 38 -37 91v256q0 53 37 90q38 38 91 38h1536l256 -512v-1024l-256 -512h-1536z" />
    <glyph glyph-name="dcroat" unicode="&#x111;" horiz-adv-x="2201" 
d="M1408 512q52 0 90 37q38 38 38 91v768q0 52 -38 90t-90 38h-512q-53 0 -91 -38q-37 -38 -37 -90v-128h512q52 0 90 -38q38 -37 38 -90v-256q0 -53 -38 -91q-37 -37 -90 -37h-512v-128q0 -53 37 -91q38 -37 91 -37h512zM256 0q-54 0 -91 37q-37 38 -37 91v256q0 53 37 90
q38 38 91 38h128v256h-256q-53 0 -91 37q-37 37 -37 91v256q0 52 37 90t91 38h256v256h-128q-54 0 -91 37q-37 38 -37 91v256q0 53 37 90q38 38 91 38h1536l256 -512v-1024l-256 -512h-1536z" />
    <glyph glyph-name="Emacron" unicode="&#x112;" 
d="M128 0q-54 0 -91 37q-37 38 -37 91v256q0 53 37 90q38 38 91 38h128v1024h-128q-54 0 -91 37q-37 38 -37 91v256q0 53 37 90q38 38 91 38h1536q53 0 90 -38q38 -38 38 -90v-256q0 -54 -38 -91t-90 -37h-896q-53 0 -91 -38q-37 -38 -37 -90q0 -53 37 -91q38 -37 91 -37
h256q53 0 90 -38q38 -38 38 -90v-256q0 -54 -38 -91t-90 -37h-256q-53 0 -91 -38q-37 -38 -37 -90q0 -53 37 -91q38 -37 91 -37h896q53 0 90 -38q38 -38 38 -90v-256q0 -54 -38 -91t-90 -37h-1536zM384 2176q-54 0 -91 37q-37 38 -37 91v128q0 53 37 90q38 38 91 38h1152
q53 0 90 -38q38 -38 38 -90v-128q0 -54 -38 -91t-90 -37h-1152z" />
    <glyph glyph-name="emacron" unicode="&#x113;" 
d="M128 0q-54 0 -91 37q-37 38 -37 91v256q0 53 37 90q38 38 91 38h128v1024h-128q-54 0 -91 37q-37 38 -37 91v256q0 53 37 90q38 38 91 38h1408q53 0 90 -38q38 -38 38 -90v-256q0 -54 -38 -91t-90 -37h-768q-53 0 -91 -38q-37 -38 -37 -90q0 -53 37 -91q38 -37 91 -37
h256q53 0 90 -38q38 -38 38 -90v-256q0 -54 -38 -91t-90 -37h-256q-53 0 -91 -38q-37 -38 -37 -90q0 -53 37 -91q38 -37 91 -37h896q53 0 90 -38q38 -38 38 -90v-256q0 -54 -38 -91t-90 -37h-1536zM256 2176q-54 0 -91 37q-37 38 -37 91v128q0 53 37 90q38 38 91 38h1152
q53 0 90 -38q38 -38 38 -90v-128q0 -54 -38 -91t-90 -37h-1152z" />
    <glyph glyph-name="Ebreve" unicode="&#x114;" 
d="M128 0q-54 0 -91 37q-37 38 -37 91v256q0 53 37 90q38 38 91 38h128v1024h-128q-54 0 -91 37q-37 38 -37 91v256q0 53 37 90q38 38 91 38h1536q53 0 90 -38q38 -38 38 -90v-256q0 -54 -38 -91t-90 -37h-896q-53 0 -91 -38q-37 -38 -37 -90q0 -53 37 -91q38 -37 91 -37
h256q53 0 90 -38q38 -38 38 -90v-256q0 -54 -38 -91t-90 -37h-256q-53 0 -91 -38q-37 -38 -37 -90q0 -53 37 -91q38 -37 91 -37h896q53 0 90 -38q38 -38 38 -90v-256q0 -54 -38 -91t-90 -37h-1536zM384 2176q-54 0 -91 37q-37 38 -37 91v256q0 53 37 90q38 38 91 38h128
q53 0 90 -38q38 -38 38 -90h640q0 53 37 90q38 38 91 38h128q53 0 90 -38q38 -38 38 -90v-256q0 -54 -38 -91t-90 -37h-1152z" />
    <glyph glyph-name="ebreve" unicode="&#x115;" 
d="M128 0q-54 0 -91 37q-37 38 -37 91v256q0 53 37 90q38 38 91 38h128v1024h-128q-54 0 -91 37q-37 38 -37 91v256q0 53 37 90q38 38 91 38h1408q53 0 90 -38q38 -38 38 -90v-256q0 -54 -38 -91t-90 -37h-768q-53 0 -91 -38q-37 -38 -37 -90q0 -53 37 -91q38 -37 91 -37
h256q53 0 90 -38q38 -38 38 -90v-256q0 -54 -38 -91t-90 -37h-256q-53 0 -91 -38q-37 -38 -37 -90q0 -53 37 -91q38 -37 91 -37h896q53 0 90 -38q38 -38 38 -90v-256q0 -54 -38 -91t-90 -37h-1536zM256 2176q-54 0 -91 37q-37 38 -37 91v256q0 53 37 90q38 38 91 38h128
q53 0 90 -38q38 -38 38 -90h640q0 53 37 90q38 38 91 38h128q53 0 90 -38q38 -38 38 -90v-256q0 -54 -38 -91t-90 -37h-1152z" />
    <glyph glyph-name="Edotaccent" unicode="&#x116;" 
d="M128 0q-54 0 -91 37q-37 38 -37 91v256q0 53 37 90q38 38 91 38h128v1024h-128q-54 0 -91 37q-37 38 -37 91v256q0 53 37 90q38 38 91 38h1536q53 0 90 -38q38 -38 38 -90v-256q0 -54 -38 -91t-90 -37h-896q-53 0 -91 -38q-37 -38 -37 -90q0 -53 37 -91q38 -37 91 -37
h256q53 0 90 -38q38 -38 38 -90v-256q0 -54 -38 -91t-90 -37h-256q-53 0 -91 -38q-37 -38 -37 -90q0 -53 37 -91q38 -37 91 -37h896q53 0 90 -38q38 -38 38 -90v-256q0 -54 -38 -91t-90 -37h-1536zM640 2176q-53 0 -91 37q-37 37 -37 91v256q0 52 37 90t91 38h640
q52 0 90 -38q38 -37 38 -90v-256q0 -53 -38 -91q-37 -37 -90 -37h-640z" />
    <glyph glyph-name="edotaccent" unicode="&#x117;" 
d="M128 0q-54 0 -91 37q-37 38 -37 91v256q0 53 37 90q38 38 91 38h128v1024h-128q-54 0 -91 37q-37 38 -37 91v256q0 53 37 90q38 38 91 38h1408q53 0 90 -38q38 -38 38 -90v-256q0 -54 -38 -91t-90 -37h-768q-53 0 -91 -38q-37 -38 -37 -90q0 -53 37 -91q38 -37 91 -37
h256q53 0 90 -38q38 -38 38 -90v-256q0 -54 -38 -91t-90 -37h-256q-53 0 -91 -38q-37 -38 -37 -90q0 -53 37 -91q38 -37 91 -37h896q53 0 90 -38q38 -38 38 -90v-256q0 -54 -38 -91t-90 -37h-1536zM512 2176q-53 0 -91 37q-37 37 -37 91v256q0 52 37 90t91 38h640
q52 0 90 -38q38 -37 38 -90v-256q0 -53 -38 -91q-37 -37 -90 -37h-640z" />
    <glyph glyph-name="Eogonek" unicode="&#x118;" 
d="M1408 -768q-54 0 -91 38t-37 90h-512q-54 0 -91 38t-37 90v384q0 54 37 91q38 37 91 37h-640q-54 0 -91 37q-37 38 -37 91v256q0 53 37 90q38 38 91 38h128v1024h-128q-54 0 -91 37q-37 38 -37 91v256q0 53 37 90q38 38 91 38h1536q53 0 90 -38q38 -38 38 -90v-256
q0 -54 -38 -91t-90 -37h-896q-53 0 -91 -38q-37 -38 -37 -90q0 -53 37 -91q38 -37 91 -37h256q53 0 90 -38q38 -38 38 -90v-256q0 -54 -38 -91t-90 -37h-256q-53 0 -91 -38q-37 -38 -37 -90q0 -53 37 -91q38 -37 91 -37h896q53 0 90 -38q38 -38 38 -90v-256q0 -54 -38 -91
t-90 -37h-640q-53 0 -91 -37q-37 -38 -37 -91q0 -52 37 -90q38 -38 91 -38h640q53 0 90 -37q38 -38 38 -91v-256q0 -53 -38 -90q-38 -38 -90 -38h-256z" />
    <glyph glyph-name="eogonek" unicode="&#x119;" 
d="M1408 -768q-54 0 -91 38t-37 90h-512q-54 0 -91 38t-37 90v384q0 54 37 91q38 37 91 37h-640q-54 0 -91 37q-37 38 -37 91v256q0 53 37 90q38 38 91 38h128v1024h-128q-54 0 -91 37q-37 38 -37 91v256q0 53 37 90q38 38 91 38h1408q53 0 90 -38q38 -38 38 -90v-256
q0 -54 -38 -91t-90 -37h-768q-53 0 -91 -38q-37 -38 -37 -90q0 -53 37 -91q38 -37 91 -37h256q53 0 90 -38q38 -38 38 -90v-256q0 -54 -38 -91t-90 -37h-256q-53 0 -91 -38q-37 -38 -37 -90q0 -53 37 -91q38 -37 91 -37h896q53 0 90 -38q38 -38 38 -90v-256q0 -54 -38 -91
t-90 -37h-640q-53 0 -91 -37q-37 -38 -37 -91q0 -52 37 -90q38 -38 91 -38h640q53 0 90 -37q38 -38 38 -91v-256q0 -53 -38 -90q-38 -38 -90 -38h-256z" />
    <glyph glyph-name="Ecaron" unicode="&#x11a;" 
d="M128 0q-54 0 -91 37q-37 38 -37 91v256q0 53 37 90q38 38 91 38h128v1024h-128q-54 0 -91 37q-37 38 -37 91v256q0 53 37 90q38 38 91 38h1536q53 0 90 -38q38 -38 38 -90v-256q0 -54 -38 -91t-90 -37h-896q-53 0 -91 -38q-37 -38 -37 -90q0 -53 37 -91q38 -37 91 -37
h256q53 0 90 -38q38 -38 38 -90v-256q0 -54 -38 -91t-90 -37h-256q-53 0 -91 -38q-37 -38 -37 -90q0 -53 37 -91q38 -37 91 -37h896q53 0 90 -38q38 -38 38 -90v-256q0 -54 -38 -91t-90 -37h-1536zM512 2176l-256 512h512l64 -128h256l64 128h512l-256 -512h-896z" />
    <glyph glyph-name="ecaron" unicode="&#x11b;" 
d="M128 0q-54 0 -91 37q-37 38 -37 91v256q0 53 37 90q38 38 91 38h128v1024h-128q-54 0 -91 37q-37 38 -37 91v256q0 53 37 90q38 38 91 38h1408q53 0 90 -38q38 -38 38 -90v-256q0 -54 -38 -91t-90 -37h-768q-53 0 -91 -38q-37 -38 -37 -90q0 -53 37 -91q38 -37 91 -37
h256q53 0 90 -38q38 -38 38 -90v-256q0 -54 -38 -91t-90 -37h-256q-53 0 -91 -38q-37 -38 -37 -90q0 -53 37 -91q38 -37 91 -37h896q53 0 90 -38q38 -38 38 -90v-256q0 -54 -38 -91t-90 -37h-1536zM384 2176l-256 512h512l64 -128h256l64 128h512l-256 -512h-896z" />
    <glyph glyph-name="Gcircumflex" unicode="&#x11c;" 
d="M128 0q-53 0 -91 37q-37 37 -37 91v1792q0 52 37 90t91 38h1536q52 0 90 -38q38 -37 38 -90v-384q0 -53 -38 -91q-37 -37 -90 -37h-256q-54 0 -91 37q-37 38 -37 91h-768q-53 0 -91 -38q-37 -38 -37 -90v-768q0 -53 37 -91q38 -37 91 -37h768q52 0 90 37q38 38 38 91
q0 52 -38 90t-90 38h-384q-54 0 -91 37q-37 38 -37 91v256q0 53 37 90q38 38 91 38h768q53 0 90 -38q38 -38 38 -90v-1024q0 -53 -38 -91q-37 -37 -90 -37h-1536zM128 2176l256 512h896l256 -512h-512l-64 128h-256l-64 -128h-512z" />
    <glyph glyph-name="gcircumflex" unicode="&#x11d;" horiz-adv-x="1689" 
d="M128 384q-54 0 -91 37q-37 38 -37 91v1024q0 53 37 90q38 38 91 38h896q0 53 37 90q38 38 91 38h256q53 0 90 -38q38 -38 38 -90v-384q0 -54 -38 -91t-90 -37h-896q-53 0 -91 -38q-37 -38 -37 -90q0 -53 37 -91q38 -37 91 -37h512q0 53 37 90q38 38 91 38h256
q53 0 90 -38q38 -38 38 -90v-384q0 -54 -38 -91t-90 -37h-1280zM0 1920l256 512h896l256 -512h-512l-64 128h-256l-64 -128h-512z" />
    <glyph glyph-name="Gbreve" unicode="&#x11e;" 
d="M128 0q-53 0 -91 37q-37 37 -37 91v1792q0 52 37 90t91 38h1536q52 0 90 -38q38 -37 38 -90v-384q0 -53 -38 -91q-37 -37 -90 -37h-256q-54 0 -91 37q-37 38 -37 91h-768q-53 0 -91 -38q-37 -38 -37 -90v-768q0 -53 37 -91q38 -37 91 -37h768q52 0 90 37q38 38 38 91
q0 52 -38 90t-90 38h-384q-54 0 -91 37q-37 38 -37 91v256q0 53 37 90q38 38 91 38h768q53 0 90 -38q38 -38 38 -90v-1024q0 -53 -38 -91q-37 -37 -90 -37h-1536zM384 2176q-54 0 -91 37q-37 38 -37 91v256q0 53 37 90q38 38 91 38h128q53 0 90 -38q38 -38 38 -90h512
q0 53 37 90q38 38 91 38h128q53 0 90 -38q38 -38 38 -90v-256q0 -54 -38 -91t-90 -37h-1024z" />
    <glyph glyph-name="gbreve" unicode="&#x11f;" horiz-adv-x="1689" 
d="M128 384q-54 0 -91 37q-37 38 -37 91v1024q0 53 37 90q38 38 91 38h896q0 53 37 90q38 38 91 38h256q53 0 90 -38q38 -38 38 -90v-384q0 -54 -38 -91t-90 -37h-896q-53 0 -91 -38q-37 -38 -37 -90q0 -53 37 -91q38 -37 91 -37h512q0 53 37 90q38 38 91 38h256
q53 0 90 -38q38 -38 38 -90v-384q0 -54 -38 -91t-90 -37h-1280zM128 1920q-54 0 -91 37q-37 38 -37 91v256q0 53 37 90q38 38 91 38h128q53 0 90 -38q38 -38 38 -90h640q0 53 37 90q38 38 91 38h128q53 0 90 -38q38 -38 38 -90v-256q0 -54 -38 -91t-90 -37h-1152z" />
    <glyph glyph-name="Gdotaccent" unicode="&#x120;" 
d="M128 0q-53 0 -91 37q-37 37 -37 91v1792q0 52 37 90t91 38h1536q52 0 90 -38q38 -37 38 -90v-384q0 -53 -38 -91q-37 -37 -90 -37h-256q-54 0 -91 37q-37 38 -37 91h-768q-53 0 -91 -38q-37 -38 -37 -90v-768q0 -53 37 -91q38 -37 91 -37h768q52 0 90 37q38 38 38 91
q0 52 -38 90t-90 38h-384q-54 0 -91 37q-37 38 -37 91v256q0 53 37 90q38 38 91 38h768q53 0 90 -38q38 -38 38 -90v-1024q0 -53 -38 -91q-37 -37 -90 -37h-1536zM512 2176q-53 0 -91 37q-37 37 -37 91v256q0 52 37 90t91 38h640q52 0 90 -38q38 -37 38 -90v-256
q0 -53 -38 -91q-37 -37 -90 -37h-640z" />
    <glyph glyph-name="gdotaccent" unicode="&#x121;" horiz-adv-x="1689" 
d="M128 384q-54 0 -91 37q-37 38 -37 91v1024q0 53 37 90q38 38 91 38h896q0 53 37 90q38 38 91 38h256q53 0 90 -38q38 -38 38 -90v-384q0 -54 -38 -91t-90 -37h-896q-53 0 -91 -38q-37 -38 -37 -90q0 -53 37 -91q38 -37 91 -37h512q0 53 37 90q38 38 91 38h256
q53 0 90 -38q38 -38 38 -90v-384q0 -54 -38 -91t-90 -37h-1280zM256 1792q-53 0 -91 37q-37 37 -37 91v256q0 52 37 90t91 38h640q52 0 90 -38q38 -37 38 -90v-256q0 -53 -38 -91q-37 -37 -90 -37h-640z" />
    <glyph glyph-name="uni0122" unicode="&#x122;" horiz-adv-x="3865" 
d="M256 -896q-53 0 -91 38q-37 37 -37 90v256q0 53 37 91q37 37 91 37h640q52 0 90 38t38 90q0 53 -38 91q-38 37 -90 37h-256l64 128h-576q-53 0 -91 37q-37 37 -37 91v1792q0 52 37 90t91 38h1536q52 0 90 -38q38 -37 38 -90v-384q0 -53 -38 -91q-37 -37 -90 -37h-256
q-54 0 -91 37q-37 38 -37 91h-768q-53 0 -91 -38q-37 -38 -37 -90v-768q0 -53 37 -91q38 -37 91 -37h768q52 0 90 37q38 38 38 91q0 52 -38 90t-90 38h-384q-54 0 -91 37q-37 38 -37 91v256q0 53 37 90q38 38 91 38h768q53 0 90 -38q38 -38 38 -90v-1024q0 -53 -38 -91
q-37 -37 -90 -37h-448l-64 -128q52 0 90 -37t38 -91v-384q0 -52 -38 -90q-37 -38 -90 -38h-512q0 -52 -38 -90q-37 -38 -90 -38h-256zM2176 -768q-53 0 -91 38q-37 37 -37 90v256q0 53 37 91q37 37 91 37h640q52 0 90 38t38 90q0 53 -38 91q-38 37 -90 37h-768q-53 0 -91 37
q-37 37 -37 91v1792q0 52 37 90t91 38h1536q52 0 90 -38q38 -37 38 -90v-384q0 -53 -38 -91q-37 -37 -90 -37h-256q-54 0 -91 37q-37 38 -37 91h-768q-53 0 -91 -38q-37 -38 -37 -90v-768q0 -53 37 -91q38 -37 91 -37h768q52 0 90 37q38 38 38 91q0 52 -38 90t-90 38h-384
q-54 0 -91 37q-37 38 -37 91v256q0 53 37 90q38 38 91 38h768q53 0 90 -38q38 -38 38 -90v-1024q0 -53 -38 -91q-37 -37 -90 -37h-512q52 0 90 -37t38 -91v-384q0 -52 -38 -90q-37 -38 -90 -38h-512q0 -52 -38 -90q-37 -38 -90 -38h-256z" />
    <glyph glyph-name="uni0123" unicode="&#x123;" horiz-adv-x="1689" 
d="M256 -512q-53 0 -91 38q-37 37 -37 90v256q0 53 37 91q37 37 91 37h640q52 0 90 37q38 38 38 91q0 52 -38 90t-90 38h-256l64 128h-576q-54 0 -91 37q-37 38 -37 91v1024q0 53 37 90q38 38 91 38h896q0 53 37 90q38 38 91 38h256q53 0 90 -38q38 -38 38 -90v-384
q0 -54 -38 -91t-90 -37h-896q-53 0 -91 -38q-37 -38 -37 -90q0 -53 37 -91q38 -37 91 -37h512q0 53 37 90q38 38 91 38h256q53 0 90 -38q38 -38 38 -90v-384q0 -54 -38 -91t-90 -37h-192l-64 -128q52 0 90 -38q38 -37 38 -90v-384q0 -52 -38 -90q-37 -38 -90 -38h-512
q0 -52 -38 -90q-37 -38 -90 -38h-256z" />
    <glyph glyph-name="Hcircumflex" unicode="&#x124;" horiz-adv-x="2201" 
d="M128 0q-54 0 -91 37q-37 38 -37 91v256q0 53 37 90q38 38 91 38h128v1024h-128q-54 0 -91 37q-37 38 -37 91v256q0 53 37 90q38 38 91 38h640q53 0 90 -38q38 -38 38 -90v-256q0 -54 -38 -91t-90 -37h-128v-128q0 -53 37 -91q38 -37 91 -37h512q52 0 90 37q38 38 38 91
v128h-128q-54 0 -91 37q-37 38 -37 91v256q0 53 37 90q38 38 91 38h640q53 0 90 -38q38 -38 38 -90v-256q0 -54 -38 -91t-90 -37h-128v-1024h128q53 0 90 -38q38 -38 38 -90v-256q0 -54 -38 -91t-90 -37h-640q-54 0 -91 37q-37 38 -37 91v256q0 53 37 90q38 38 91 38h128
v128q0 52 -38 90t-90 38h-512q-53 0 -91 -38q-37 -38 -37 -90v-128h128q53 0 90 -38q38 -38 38 -90v-256q0 -54 -38 -91t-90 -37h-640zM256 2176l256 512h1024l256 -512h-512l-64 128h-384l-64 -128h-512z" />
    <glyph glyph-name="hcircumflex" unicode="&#x125;" horiz-adv-x="2073" 
d="M128 0q-54 0 -91 37q-37 38 -37 91v256q0 53 37 90q38 38 91 38h128v1024h-128q-54 0 -91 37q-37 38 -37 91v256q0 53 37 90q38 38 91 38h640q53 0 90 -38q38 -38 38 -90v-256q0 -54 -38 -91t-90 -37h-128v-128q0 -53 37 -91q38 -37 91 -37h384q52 0 90 37q38 38 38 91
v128h-128q-54 0 -91 37q-37 38 -37 91v256q0 53 37 90q38 38 91 38h640q53 0 90 -38q38 -38 38 -90v-256q0 -54 -38 -91t-90 -37h-128v-1024h128q53 0 90 -38q38 -38 38 -90v-256q0 -54 -38 -91t-90 -37h-640q-54 0 -91 37q-37 38 -37 91v256q0 53 37 90q38 38 91 38h128
v128q0 52 -38 90t-90 38h-384q-53 0 -91 -38q-37 -38 -37 -90v-128h128q53 0 90 -38q38 -38 38 -90v-256q0 -54 -38 -91t-90 -37h-640zM256 2176l256 512h896l256 -512h-512l-64 128h-256l-64 -128h-512z" />
    <glyph glyph-name="Hbar" unicode="&#x126;" horiz-adv-x="2201" 
d="M1280 1024q52 0 90 37q38 38 38 91h-768q0 -53 37 -91q38 -37 91 -37h512zM128 0q-54 0 -91 37q-37 38 -37 91v256q0 53 37 90q38 38 91 38h128v640h-128q-54 0 -91 37q-37 38 -37 91t37 90q38 38 91 38h128v128h-128q-54 0 -91 37q-37 38 -37 91v256q0 53 37 90
q38 38 91 38h640q53 0 90 -38q38 -38 38 -90v-256q0 -54 -38 -91t-90 -37h-128v-128h768v128h-128q-54 0 -91 37q-37 38 -37 91v256q0 53 37 90q38 38 91 38h640q53 0 90 -38q38 -38 38 -90v-256q0 -54 -38 -91t-90 -37h-128v-128h128q53 0 90 -38q38 -38 38 -90
q0 -54 -38 -91t-90 -37h-128v-640h128q53 0 90 -38q38 -38 38 -90v-256q0 -54 -38 -91t-90 -37h-640q-54 0 -91 37q-37 38 -37 91v256q0 53 37 90q38 38 91 38h128v128q0 52 -38 90t-90 38h-512q-53 0 -91 -38q-37 -38 -37 -90v-128h128q53 0 90 -38q38 -38 38 -90v-256
q0 -54 -38 -91t-90 -37h-640z" />
    <glyph glyph-name="hbar" unicode="&#x127;" horiz-adv-x="2073" 
d="M1152 1024q52 0 90 37q38 38 38 91h-640q0 -53 37 -91q38 -37 91 -37h384zM128 0q-54 0 -91 37q-37 38 -37 91v256q0 53 37 90q38 38 91 38h128v640h-128q-54 0 -91 37q-37 38 -37 91t37 90q38 38 91 38h128v128h-128q-54 0 -91 37q-37 38 -37 91v256q0 53 37 90
q38 38 91 38h640q53 0 90 -38q38 -38 38 -90v-256q0 -54 -38 -91t-90 -37h-128v-128h640v128h-128q-54 0 -91 37q-37 38 -37 91v256q0 53 37 90q38 38 91 38h640q53 0 90 -38q38 -38 38 -90v-256q0 -54 -38 -91t-90 -37h-128v-128h128q53 0 90 -38q38 -38 38 -90
q0 -54 -38 -91t-90 -37h-128v-640h128q53 0 90 -38q38 -38 38 -90v-256q0 -54 -38 -91t-90 -37h-640q-54 0 -91 37q-37 38 -37 91v256q0 53 37 90q38 38 91 38h128v128q0 52 -38 90t-90 38h-384q-53 0 -91 -38q-37 -38 -37 -90v-128h128q53 0 90 -38q38 -38 38 -90v-256
q0 -54 -38 -91t-90 -37h-640z" />
    <glyph glyph-name="Itilde" unicode="&#x128;" horiz-adv-x="1561" 
d="M384 0q-54 0 -91 37q-37 38 -37 91v256q0 53 37 90q38 38 91 38h128v1024h-128q-54 0 -91 37q-37 38 -37 91v256q0 53 37 90q38 38 91 38h768q53 0 90 -38q38 -38 38 -90v-256q0 -54 -38 -91t-90 -37h-128v-1024h128q53 0 90 -38q38 -38 38 -90v-256q0 -54 -38 -91
t-90 -37h-768zM128 2176q-53 0 -91 37q-37 37 -37 91v256q0 52 37 90t91 38h512q52 0 90 37q38 38 38 91q0 52 37 90t91 38h384q52 0 90 -38q38 -37 38 -90v-256q0 -53 -38 -91q-37 -37 -90 -37h-512q-53 0 -91 -38q-37 -38 -37 -90q0 -54 -38 -91t-90 -37h-384z" />
    <glyph glyph-name="itilde" unicode="&#x129;" horiz-adv-x="1561" 
d="M384 0q-54 0 -91 37q-37 38 -37 91v256q0 53 37 90q38 38 91 38h128v384h-128q-54 0 -91 37q-37 38 -37 91v256q0 53 37 90q38 38 91 38h768q53 0 90 -38q38 -38 38 -90v-256q0 -54 -38 -91t-90 -37h-128v-384h128q53 0 90 -38q38 -38 38 -90v-256q0 -54 -38 -91t-90 -37
h-768zM128 1536q-53 0 -91 37q-37 37 -37 91v256q0 52 37 90t91 38h512q52 0 90 37q38 38 38 91q0 52 37 90t91 38h384q52 0 90 -38q38 -37 38 -90v-256q0 -53 -38 -91q-37 -37 -90 -37h-512q-53 0 -91 -38q-37 -38 -37 -90q0 -54 -38 -91t-90 -37h-384z" />
    <glyph glyph-name="Imacron" unicode="&#x12a;" horiz-adv-x="1433" 
d="M256 0q-54 0 -91 37q-37 38 -37 91v256q0 53 37 90q38 38 91 38h128v1024h-128q-54 0 -91 37q-37 38 -37 91v256q0 53 37 90q38 38 91 38h768q53 0 90 -38q38 -38 38 -90v-256q0 -54 -38 -91t-90 -37h-128v-1024h128q53 0 90 -38q38 -38 38 -90v-256q0 -54 -38 -91
t-90 -37h-768zM128 2176q-54 0 -91 37q-37 38 -37 91v128q0 53 37 90q38 38 91 38h1024q53 0 90 -38q38 -38 38 -90v-128q0 -54 -38 -91t-90 -37h-1024z" />
    <glyph glyph-name="imacron" unicode="&#x12b;" horiz-adv-x="1433" 
d="M256 0q-54 0 -91 37q-37 38 -37 91v256q0 53 37 90q38 38 91 38h128v384h-128q-54 0 -91 37q-37 38 -37 91v256q0 53 37 90q38 38 91 38h768q53 0 90 -38q38 -38 38 -90v-256q0 -54 -38 -91t-90 -37h-128v-384h128q53 0 90 -38q38 -38 38 -90v-256q0 -54 -38 -91t-90 -37
h-768zM128 1536q-54 0 -91 37q-37 38 -37 91v128q0 53 37 90q38 38 91 38h1024q53 0 90 -38q38 -38 38 -90v-128q0 -54 -38 -91t-90 -37h-1024z" />
    <glyph glyph-name="Ibreve" unicode="&#x12c;" horiz-adv-x="1433" 
d="M256 0q-54 0 -91 37q-37 38 -37 91v256q0 53 37 90q38 38 91 38h128v1024h-128q-54 0 -91 37q-37 38 -37 91v256q0 53 37 90q38 38 91 38h768q53 0 90 -38q38 -38 38 -90v-256q0 -54 -38 -91t-90 -37h-128v-1024h128q53 0 90 -38q38 -38 38 -90v-256q0 -54 -38 -91
t-90 -37h-768zM128 2176q-54 0 -91 37q-37 38 -37 91v256q0 53 37 90q38 38 91 38h128q53 0 90 -38q38 -38 38 -90h512q0 53 37 90q38 38 91 38h128q53 0 90 -38q38 -38 38 -90v-256q0 -54 -38 -91t-90 -37h-1024z" />
    <glyph glyph-name="ibreve" unicode="&#x12d;" horiz-adv-x="1433" 
d="M256 0q-54 0 -91 37q-37 38 -37 91v256q0 53 37 90q38 38 91 38h128v384h-128q-54 0 -91 37q-37 38 -37 91v256q0 53 37 90q38 38 91 38h768q53 0 90 -38q38 -38 38 -90v-256q0 -54 -38 -91t-90 -37h-128v-384h128q53 0 90 -38q38 -38 38 -90v-256q0 -54 -38 -91t-90 -37
h-768zM128 1536q-54 0 -91 37q-37 38 -37 91v256q0 53 37 90q38 38 91 38h128q53 0 90 -38q38 -38 38 -90h512q0 53 37 90q38 38 91 38h128q53 0 90 -38q38 -38 38 -90v-256q0 -54 -38 -91t-90 -37h-1024z" />
    <glyph glyph-name="Iogonek" unicode="&#x12e;" horiz-adv-x="1305" 
d="M768 -768q-54 0 -91 38t-37 90h-512q-54 0 -91 38t-37 90v896q0 53 37 90q38 38 91 38h256v1024h-128q-54 0 -91 37q-37 38 -37 91v256q0 53 37 90q38 38 91 38h768q53 0 90 -38q38 -38 38 -90v-256q0 -54 -38 -91t-90 -37h-128v-1024h128q53 0 90 -38q38 -38 38 -90
v-256q0 -54 -38 -91t-90 -37h-640q-53 0 -91 -37q-37 -38 -37 -91q0 -52 37 -90q38 -38 91 -38h640q53 0 90 -37q38 -38 38 -91v-256q0 -53 -38 -90q-38 -38 -90 -38h-256z" />
    <glyph glyph-name="iogonek" unicode="&#x12f;" horiz-adv-x="1305" 
d="M768 -768q-54 0 -91 38t-37 90h-512q-54 0 -91 38t-37 90v896q0 53 37 90q38 38 91 38h256v384h-128q-54 0 -91 37q-37 38 -37 91v256q0 53 37 90q38 38 91 38h768q53 0 90 -38q38 -38 38 -90v-256q0 -54 -38 -91t-90 -37h-128v-384h128q53 0 90 -38q38 -38 38 -90v-256
q0 -54 -38 -91t-90 -37h-640q-53 0 -91 -37q-37 -38 -37 -91q0 -52 37 -90q38 -38 91 -38h640q53 0 90 -37q38 -38 38 -91v-256q0 -53 -38 -90q-38 -38 -90 -38h-256zM256 1536q-54 0 -91 37q-37 38 -37 91v256q0 53 37 90q38 38 91 38h768q53 0 90 -38q38 -38 38 -90v-256
q0 -54 -38 -91t-90 -37h-768z" />
    <glyph glyph-name="Idotaccent" unicode="&#x130;" horiz-adv-x="1177" 
d="M128 0q-54 0 -91 37q-37 38 -37 91v256q0 53 37 90q38 38 91 38h128v1024h-128q-54 0 -91 37q-37 38 -37 91v256q0 53 37 90q38 38 91 38h768q53 0 90 -38q38 -38 38 -90v-256q0 -54 -38 -91t-90 -37h-128v-1024h128q53 0 90 -38q38 -38 38 -90v-256q0 -54 -38 -91
t-90 -37h-768zM128 2176q-54 0 -91 37q-37 38 -37 91v256q0 53 37 90q38 38 91 38h768q53 0 90 -38q38 -38 38 -90v-256q0 -54 -38 -91t-90 -37h-768z" />
    <glyph glyph-name="dotlessi" unicode="&#x131;" horiz-adv-x="1177" 
d="M128 0q-54 0 -91 37q-37 38 -37 91v256q0 53 37 90q38 38 91 38h128v384h-128q-54 0 -91 37q-37 38 -37 91v256q0 53 37 90q38 38 91 38h768q53 0 90 -38q38 -38 38 -90v-256q0 -54 -38 -91t-90 -37h-128v-384h128q53 0 90 -38q38 -38 38 -90v-256q0 -54 -38 -91t-90 -37
h-768z" />
    <glyph glyph-name="IJ" unicode="&#x132;" horiz-adv-x="2201" 
d="M256 0q-54 0 -91 37q-37 38 -37 91v256q0 53 37 90q38 38 91 38h128v1024h-128q-54 0 -91 37q-37 38 -37 91v256q0 53 37 90q38 38 91 38h640q53 0 90 -38q38 -38 38 -90v-256q0 -54 -38 -91t-90 -37v-1024h128q53 0 90 -38q38 -38 38 -90v-256q0 -54 -38 -91t-90 -37
h-768zM-128 -640q-53 0 -90 38q-38 38 -38 90v384q0 54 38 91t90 37h128q53 0 90 -37q38 -38 38 -91h1024q52 0 90 38t38 90v1536q-54 0 -91 37q-37 38 -37 91v256q0 53 37 90q38 38 91 38h640q53 0 90 -38q38 -38 38 -90v-256q0 -54 -38 -91t-90 -37h-128v-2048
q0 -52 -38 -90q-37 -38 -90 -38h-1792z" />
    <glyph glyph-name="ij" unicode="&#x133;" horiz-adv-x="2201" 
d="M256 0q-54 0 -91 37q-37 38 -37 91v256q0 53 37 90q38 38 91 38h128v384h-128q-54 0 -91 37q-37 38 -37 91v256q0 53 37 90q38 38 91 38h640q53 0 90 -38q38 -38 38 -90v-256q0 -54 -38 -91t-90 -37v-384h128q53 0 90 -38q38 -38 38 -90v-256q0 -54 -38 -91t-90 -37h-768
zM-128 -640q-53 0 -90 38q-38 38 -38 90v384q0 54 38 91t90 37h128q53 0 90 -37q38 -38 38 -91h1024q52 0 90 38t38 90v896q-54 0 -91 37q-37 38 -37 91v256q0 53 37 90q38 38 91 38h640q53 0 90 -38q38 -38 38 -90v-256q0 -54 -38 -91t-90 -37h-128v-1408q0 -52 -38 -90
q-37 -38 -90 -38h-1792zM256 1536q-54 0 -91 37q-37 38 -37 91v256q0 53 37 90q38 38 91 38h640q53 0 90 -38q38 -38 38 -90v-256q0 -54 -38 -91t-90 -37h-640zM1280 1536q-54 0 -91 37q-37 38 -37 91v256q0 53 37 90q38 38 91 38h640q53 0 90 -38q38 -38 38 -90v-256
q0 -54 -38 -91t-90 -37h-640z" />
    <glyph glyph-name="Jcircumflex" unicode="&#x134;" horiz-adv-x="1689" 
d="M128 0q-54 0 -91 37q-37 38 -37 91v384q0 53 37 90q38 38 91 38h128q53 0 90 -38q38 -38 38 -90h128q52 0 90 37q38 38 38 91v896h-128q-54 0 -91 37q-37 38 -37 91v256q0 53 37 90q38 38 91 38h768q53 0 90 -38q38 -38 38 -90v-256q0 -54 -38 -91t-90 -37h-128v-1408
q0 -53 -38 -91q-37 -37 -90 -37h-896zM128 2176l256 512h896l256 -512h-512l-64 128h-256l-64 -128h-512z" />
    <glyph glyph-name="jcircumflex" unicode="&#x135;" horiz-adv-x="1689" 
d="M128 0q-54 0 -91 37q-37 38 -37 91v384q0 53 37 90q38 38 91 38h128q53 0 90 -38q38 -38 38 -90h128q52 0 90 37q38 38 38 91v256h-128q-54 0 -91 37q-37 38 -37 91v256q0 53 37 90q38 38 91 38h768q53 0 90 -38q38 -38 38 -90v-256q0 -54 -38 -91t-90 -37h-128v-768
q0 -53 -38 -91q-37 -37 -90 -37h-896zM128 1536l256 512h896l256 -512h-512l-64 128h-256l-64 -128h-512z" />
    <glyph glyph-name="uni0136" unicode="&#x136;" horiz-adv-x="2073" 
d="M512 -896q-53 0 -91 38q-37 37 -37 90v256q0 53 37 91q37 37 91 37h640q52 0 90 38t38 90q0 53 -38 91q-38 37 -90 37h-256l128 256v256q0 52 37 90t91 38h64l-128 256h-320q-53 0 -91 -38q-37 -38 -37 -90v-128h128q53 0 90 -38q38 -38 38 -90v-256q0 -54 -38 -91
t-90 -37h-640q-54 0 -91 37q-37 38 -37 91v256q0 53 37 90q38 38 91 38h128v1024h-128q-54 0 -91 37q-37 38 -37 91v256q0 53 37 90q38 38 91 38h640q53 0 90 -38q38 -38 38 -90v-256q0 -54 -38 -91t-90 -37h-128v-128q0 -53 37 -91q38 -37 91 -37h320l128 256h-64
q-54 0 -91 37q-37 38 -37 91v256q0 53 37 90q38 38 91 38h640q53 0 90 -38q38 -38 38 -90v-256q0 -54 -38 -91t-90 -37h-192l-256 -512l256 -512h192q52 0 90 -38q38 -37 38 -90v-256q0 -53 -38 -91q-37 -37 -90 -37h-320l-64 -128q52 0 90 -37t38 -91v-384q0 -52 -38 -90
q-37 -38 -90 -38h-512q0 -52 -38 -90q-37 -38 -90 -38h-256z" />
    <glyph glyph-name="uni0137" unicode="&#x137;" horiz-adv-x="2073" 
d="M512 -896q-53 0 -91 38q-37 37 -37 90v256q0 53 37 91q37 37 91 37h640q52 0 90 38t38 90q0 53 -38 91q-38 37 -90 37h-256l128 256v256q0 52 37 90t91 38h64l-128 256h-320q-53 0 -91 -38q-37 -38 -37 -90v-128h128q53 0 90 -38q38 -38 38 -90v-256q0 -54 -38 -91
t-90 -37h-640q-54 0 -91 37q-37 38 -37 91v256q0 53 37 90q38 38 91 38h128v1024h-128q-54 0 -91 37q-37 38 -37 91v256q0 53 37 90q38 38 91 38h640q53 0 90 -38q38 -38 38 -90v-256q0 -54 -38 -91t-90 -37h-128v-128q0 -53 37 -91q38 -37 91 -37h320l64 128q-54 0 -91 37
q-37 38 -37 91v256q0 53 37 90q38 38 91 38h640q53 0 90 -38q38 -38 38 -90v-256q0 -54 -38 -91t-90 -37h-256l-192 -384l256 -512h192q52 0 90 -38q38 -37 38 -90v-256q0 -53 -38 -91q-37 -37 -90 -37h-320l-64 -128q52 0 90 -37t38 -91v-384q0 -52 -38 -90
q-37 -38 -90 -38h-512q0 -52 -38 -90q-37 -38 -90 -38h-256z" />
    <glyph glyph-name="kgreenlandic" unicode="&#x138;" horiz-adv-x="2073" 
d="M128 0q-54 0 -91 37q-37 38 -37 91v256q0 53 37 90q38 38 91 38h128v1024h-128q-54 0 -91 37q-37 38 -37 91v256q0 53 37 90q38 38 91 38h640q53 0 90 -38q38 -38 38 -90v-256q0 -54 -38 -91t-90 -37h-128v-128q0 -53 37 -91q38 -37 91 -37h320l128 256h-64q-54 0 -91 37
q-37 38 -37 91v256q0 53 37 90q38 38 91 38h640q53 0 90 -38q38 -38 38 -90v-256q0 -54 -38 -91t-90 -37h-192l-256 -512l256 -512h192q52 0 90 -38q38 -37 38 -90v-256q0 -53 -38 -91q-37 -37 -90 -37h-640q-53 0 -91 37q-37 37 -37 91v256q0 52 37 90t91 38h64l-128 256
h-320q-53 0 -91 -38q-37 -38 -37 -90v-128h128q53 0 90 -38q38 -38 38 -90v-256q0 -54 -38 -91t-90 -37h-640z" />
    <glyph glyph-name="Lacute" unicode="&#x139;" horiz-adv-x="1817" 
d="M128 0q-53 0 -91 37q-37 37 -37 91v256q0 52 37 90t91 38h128v1024h-128q-53 0 -91 37q-37 37 -37 91v256q0 52 37 90t91 38h896q52 0 90 -38q38 -37 38 -90v-256q0 -53 -38 -91q-37 -37 -90 -37h-256v-896q0 -53 37 -91q38 -37 91 -37h256q0 53 37 90q38 38 91 38h256
q53 0 90 -38q38 -38 38 -90v-384q0 -53 -38 -91q-37 -37 -90 -37h-1408zM128 2176l256 512h896l-256 -512h-896z" />
    <glyph glyph-name="lacute" unicode="&#x13a;" horiz-adv-x="1817" 
d="M128 0q-53 0 -91 37q-37 37 -37 91v256q0 52 37 90t91 38h128v1024h-128q-53 0 -91 37q-37 37 -37 91v256q0 52 37 90t91 38h896q52 0 90 -38q38 -37 38 -90v-256q0 -53 -38 -91q-37 -37 -90 -37h-256v-896q0 -53 37 -91q38 -37 91 -37h256q0 53 37 90q38 38 91 38h256
q53 0 90 -38q38 -38 38 -90v-384q0 -53 -38 -91q-37 -37 -90 -37h-1408zM128 2176l256 512h896l-256 -512h-896z" />
    <glyph glyph-name="uni013B" unicode="&#x13b;" horiz-adv-x="1817" 
d="M256 -896q-53 0 -91 38q-37 37 -37 90v256q0 53 37 91q37 37 91 37h640q52 0 90 38t38 90q0 53 -38 91q-38 37 -90 37h-256l64 128h-576q-53 0 -91 37q-37 37 -37 91v256q0 52 37 90t91 38h128v1024h-128q-53 0 -91 37q-37 37 -37 91v256q0 52 37 90t91 38h896
q52 0 90 -38q38 -37 38 -90v-256q0 -53 -38 -91q-37 -37 -90 -37h-256v-896q0 -53 37 -91q38 -37 91 -37h256q0 53 37 90q38 38 91 38h256q53 0 90 -38q38 -38 38 -90v-384q0 -53 -38 -91q-37 -37 -90 -37h-320l-64 -128q52 0 90 -37t38 -91v-384q0 -52 -38 -90
q-37 -38 -90 -38h-512q0 -52 -38 -90q-37 -38 -90 -38h-256z" />
    <glyph glyph-name="uni013C" unicode="&#x13c;" horiz-adv-x="1817" 
d="M256 -896q-53 0 -91 38q-37 37 -37 90v256q0 53 37 91q37 37 91 37h640q52 0 90 38t38 90q0 53 -38 91q-38 37 -90 37h-256l64 128h-576q-53 0 -91 37q-37 37 -37 91v256q0 52 37 90t91 38h128v1024h-128q-53 0 -91 37q-37 37 -37 91v256q0 52 37 90t91 38h896
q52 0 90 -38q38 -37 38 -90v-256q0 -53 -38 -91q-37 -37 -90 -37h-384v-896q0 -53 37 -91q38 -37 91 -37h384q0 53 37 90q38 38 91 38h256q53 0 90 -38q38 -38 38 -90v-384q0 -53 -38 -91q-37 -37 -90 -37h-320l-64 -128q52 0 90 -37t38 -91v-384q0 -52 -38 -90
q-37 -38 -90 -38h-512q0 -52 -38 -90q-37 -38 -90 -38h-256z" />
    <glyph glyph-name="Lcaron" unicode="&#x13d;" 
d="M128 0q-53 0 -91 37q-37 37 -37 91v256q0 52 37 90t91 38h128v1024h-128q-53 0 -91 37q-37 37 -37 91v256q0 52 37 90t91 38h768q52 0 90 -38q38 -37 38 -90v-256q0 -53 -38 -91q-37 -37 -90 -37h-256v-896q0 -53 37 -91q38 -37 91 -37h384q0 53 37 90q38 38 91 38h256
q53 0 90 -38q38 -38 38 -90v-384q0 -53 -38 -91q-37 -37 -90 -37h-1408zM1408 1152q-54 0 -91 37q-37 38 -37 91v256q-54 0 -91 37q-37 38 -37 91v256q0 53 37 90q38 38 91 38h384q53 0 90 -38q38 -38 38 -90v-640q0 -54 -38 -91t-90 -37h-256z" />
    <glyph glyph-name="lcaron" unicode="&#x13e;" 
d="M128 0q-53 0 -91 37q-37 37 -37 91v256q0 52 37 90t91 38h128v1024h-128q-53 0 -91 37q-37 37 -37 91v256q0 52 37 90t91 38h768q52 0 90 -38q38 -37 38 -90v-256q0 -53 -38 -91q-37 -37 -90 -37h-256v-896q0 -53 37 -91q38 -37 91 -37h384q0 53 37 90q38 38 91 38h256
q53 0 90 -38q38 -38 38 -90v-384q0 -53 -38 -91q-37 -37 -90 -37h-1408zM1408 1152q-54 0 -91 37q-37 38 -37 91v256q-54 0 -91 37q-37 38 -37 91v256q0 53 37 90q38 38 91 38h384q53 0 90 -38q38 -38 38 -90v-640q0 -54 -38 -91t-90 -37h-256z" />
    <glyph glyph-name="Ldot" unicode="&#x13f;" horiz-adv-x="1817" 
d="M1152 896q-54 0 -91 37q-37 38 -37 91v256q0 53 37 90q38 38 91 38h384q53 0 90 -38q38 -38 38 -90v-256q0 -54 -38 -91t-90 -37h-384zM128 0q-53 0 -91 37q-37 37 -37 91v256q0 52 37 90t91 38h128v1024h-128q-53 0 -91 37q-37 37 -37 91v256q0 52 37 90t91 38h896
q52 0 90 -38q38 -37 38 -90v-256q0 -53 -38 -91q-37 -37 -90 -37h-384v-896q0 -53 37 -91q38 -37 91 -37h384q0 53 37 90q38 38 91 38h256q53 0 90 -38q38 -38 38 -90v-384q0 -53 -38 -91q-37 -37 -90 -37h-1408z" />
    <glyph glyph-name="ldot" unicode="&#x140;" horiz-adv-x="1817" 
d="M1152 896q-54 0 -91 37q-37 38 -37 91v256q0 53 37 90q38 38 91 38h384q53 0 90 -38q38 -38 38 -90v-256q0 -54 -38 -91t-90 -37h-384zM128 0q-53 0 -91 37q-37 37 -37 91v256q0 52 37 90t91 38h128v1024h-128q-53 0 -91 37q-37 37 -37 91v256q0 52 37 90t91 38h896
q52 0 90 -38q38 -37 38 -90v-256q0 -53 -38 -91q-37 -37 -90 -37h-384v-896q0 -53 37 -91q38 -37 91 -37h384q0 53 37 90q38 38 91 38h256q53 0 90 -38q38 -38 38 -90v-384q0 -53 -38 -91q-37 -37 -90 -37h-1408z" />
    <glyph glyph-name="Lslash" unicode="&#x141;" horiz-adv-x="1689" 
d="M128 0q-53 0 -91 37q-37 37 -37 91v256q0 52 37 90t91 38h128v256l-256 -128v320l256 128v448h-128q-53 0 -91 37q-37 37 -37 91v256q0 52 37 90t91 38h640q52 0 90 -38q38 -37 38 -90v-256q0 -53 -38 -91q-37 -37 -90 -37h-128v-256l256 128v-320l-256 -128v-320
q0 -53 37 -91q38 -37 91 -37h256q0 53 37 90q38 38 91 38h256q53 0 90 -38q38 -38 38 -90v-384q0 -53 -38 -91q-37 -37 -90 -37h-1280z" />
    <glyph glyph-name="lslash" unicode="&#x142;" horiz-adv-x="1689" 
d="M128 0q-53 0 -91 37q-37 37 -37 91v256q0 52 37 90t91 38h128v256l-256 -128v320l256 128v448h-128q-53 0 -91 37q-37 37 -37 91v256q0 52 37 90t91 38h640q52 0 90 -38q38 -37 38 -90v-256q0 -53 -38 -91q-37 -37 -90 -37h-128v-256l256 128v-320l-256 -128v-320
q0 -53 37 -91q38 -37 91 -37h256q0 53 37 90q38 38 91 38h256q53 0 90 -38q38 -38 38 -90v-384q0 -53 -38 -91q-37 -37 -90 -37h-1280z" />
    <glyph glyph-name="Nacute" unicode="&#x143;" horiz-adv-x="2329" 
d="M128 0q-54 0 -91 37q-37 38 -37 91v256q0 53 37 90q38 38 91 38h128v1024h-128q-54 0 -91 37q-37 38 -37 91v256q0 53 37 90q38 38 91 38h896q53 0 90 -38q38 -38 38 -90v-256q0 -54 -38 -91t-90 -37l512 -1024v896q0 52 -38 90t-90 38q-54 0 -91 37q-37 38 -37 91v256
q0 53 37 90q38 38 91 38h640q53 0 90 -38q38 -38 38 -90v-256q0 -54 -38 -91t-90 -37h-128v-1024q53 0 90 -38q38 -38 38 -90v-256q0 -54 -38 -91t-90 -37h-768q-54 0 -91 37q-37 38 -37 91v256q0 53 37 90q38 38 91 38l-512 1024v-896q0 -53 37 -91q38 -37 91 -37t90 -38
q38 -38 38 -90v-256q0 -54 -38 -91t-90 -37h-640zM640 2176l256 512h896l-256 -512h-896z" />
    <glyph glyph-name="nacute" unicode="&#x144;" horiz-adv-x="2329" 
d="M128 0q-54 0 -91 37q-37 38 -37 91v256q0 53 37 90q38 38 91 38h128v1024h-128q-54 0 -91 37q-37 38 -37 91v256q0 53 37 90q38 38 91 38h896q53 0 90 -38q38 -38 38 -90v-256q0 -54 -38 -91t-90 -37l512 -1024v896q0 52 -38 90t-90 38q-54 0 -91 37q-37 38 -37 91v256
q0 53 37 90q38 38 91 38h640q53 0 90 -38q38 -38 38 -90v-256q0 -54 -38 -91t-90 -37h-128v-1024q53 0 90 -38q38 -38 38 -90v-256q0 -54 -38 -91t-90 -37h-768q-54 0 -91 37q-37 38 -37 91v256q0 53 37 90q38 38 91 38l-512 1024v-896q0 -53 37 -91q38 -37 91 -37t90 -38
q38 -38 38 -90v-256q0 -54 -38 -91t-90 -37h-640zM640 2176l256 512h896l-256 -512h-896z" />
    <glyph glyph-name="uni0145" unicode="&#x145;" horiz-adv-x="2329" 
d="M512 -896q-53 0 -91 38q-37 37 -37 90v256q0 53 37 91q37 37 91 37h640q52 0 90 38t38 90q0 53 -38 91q-38 37 -90 37h-256l128 256v256q0 53 37 90q38 38 91 38l-512 1024v-896q0 -53 37 -91q38 -37 91 -37t90 -38q38 -38 38 -90v-256q0 -54 -38 -91t-90 -37h-640
q-54 0 -91 37q-37 38 -37 91v256q0 53 37 90q38 38 91 38h128v1024h-128q-54 0 -91 37q-37 38 -37 91v256q0 53 37 90q38 38 91 38h896q53 0 90 -38q38 -38 38 -90v-256q0 -54 -38 -91t-90 -37l512 -1024v896q0 52 -38 90t-90 38q-54 0 -91 37q-37 38 -37 91v256q0 53 37 90
q38 38 91 38h640q53 0 90 -38q38 -38 38 -90v-256q0 -54 -38 -91t-90 -37h-128v-1024q53 0 90 -38q38 -38 38 -90v-256q0 -54 -38 -91t-90 -37h-448l-64 -128q52 0 90 -37t38 -91v-384q0 -52 -38 -90q-37 -38 -90 -38h-512q0 -52 -38 -90q-37 -38 -90 -38h-256z" />
    <glyph glyph-name="uni0146" unicode="&#x146;" horiz-adv-x="2329" 
d="M512 -896q-53 0 -91 38q-37 37 -37 90v256q0 53 37 91q37 37 91 37h640q52 0 90 38t38 90q0 53 -38 91q-38 37 -90 37h-256l128 256v256q0 53 37 90q38 38 91 38l-512 1024v-896q0 -53 37 -91q38 -37 91 -37t90 -38q38 -38 38 -90v-256q0 -54 -38 -91t-90 -37h-640
q-54 0 -91 37q-37 38 -37 91v256q0 53 37 90q38 38 91 38h128v1024h-128q-54 0 -91 37q-37 38 -37 91v256q0 53 37 90q38 38 91 38h896q53 0 90 -38q38 -38 38 -90v-256q0 -54 -38 -91t-90 -37l512 -1024v896q0 52 -38 90t-90 38q-54 0 -91 37q-37 38 -37 91v256q0 53 37 90
q38 38 91 38h640q53 0 90 -38q38 -38 38 -90v-256q0 -54 -38 -91t-90 -37h-128v-1024q53 0 90 -38q38 -38 38 -90v-256q0 -54 -38 -91t-90 -37h-448l-64 -128q52 0 90 -37t38 -91v-384q0 -52 -38 -90q-37 -38 -90 -38h-512q0 -52 -38 -90q-37 -38 -90 -38h-256z" />
    <glyph glyph-name="Ncaron" unicode="&#x147;" horiz-adv-x="2329" 
d="M128 0q-54 0 -91 37q-37 38 -37 91v256q0 53 37 90q38 38 91 38h128v1024h-128q-54 0 -91 37q-37 38 -37 91v256q0 53 37 90q38 38 91 38h896q53 0 90 -38q38 -38 38 -90v-256q0 -54 -38 -91t-90 -37l512 -1024v896q0 52 -38 90t-90 38q-54 0 -91 37q-37 38 -37 91v256
q0 53 37 90q38 38 91 38h640q53 0 90 -38q38 -38 38 -90v-256q0 -54 -38 -91t-90 -37h-128v-1024q53 0 90 -38q38 -38 38 -90v-256q0 -54 -38 -91t-90 -37h-768q-54 0 -91 37q-37 38 -37 91v256q0 53 37 90q38 38 91 38l-512 1024v-896q0 -53 37 -91q38 -37 91 -37t90 -38
q38 -38 38 -90v-256q0 -54 -38 -91t-90 -37h-640zM640 2176l-256 512h512l64 -128h256l64 128h512l-256 -512h-896z" />
    <glyph glyph-name="ncaron" unicode="&#x148;" horiz-adv-x="2329" 
d="M128 0q-54 0 -91 37q-37 38 -37 91v256q0 53 37 90q38 38 91 38h128v1024h-128q-54 0 -91 37q-37 38 -37 91v256q0 53 37 90q38 38 91 38h896q53 0 90 -38q38 -38 38 -90v-256q0 -54 -38 -91t-90 -37l512 -1024v896q0 52 -38 90t-90 38q-54 0 -91 37q-37 38 -37 91v256
q0 53 37 90q38 38 91 38h640q53 0 90 -38q38 -38 38 -90v-256q0 -54 -38 -91t-90 -37h-128v-1024q53 0 90 -38q38 -38 38 -90v-256q0 -54 -38 -91t-90 -37h-768q-54 0 -91 37q-37 38 -37 91v256q0 53 37 90q38 38 91 38l-512 1024v-896q0 -53 37 -91q38 -37 91 -37t90 -38
q38 -38 38 -90v-256q0 -54 -38 -91t-90 -37h-640zM640 2176l-256 512h512l64 -128h256l64 128h512l-256 -512h-896z" />
    <glyph glyph-name="napostrophe" unicode="&#x149;" horiz-adv-x="3097" 
d="M256 1152q-54 0 -91 37q-37 38 -37 91v256q-54 0 -91 37q-37 38 -37 91v256q0 53 37 90q38 38 91 38h384q53 0 90 -38q38 -38 38 -90v-640q0 -54 -38 -91t-90 -37h-256zM896 0q-54 0 -91 37q-37 38 -37 91v256q0 53 37 90q38 38 91 38h128v1024h-128q-54 0 -91 37
q-37 38 -37 91v256q0 53 37 90q38 38 91 38h896q53 0 90 -38q38 -38 38 -90v-256q0 -54 -38 -91t-90 -37l512 -1024v896q0 52 -38 90t-90 38q-54 0 -91 37q-37 38 -37 91v256q0 53 37 90q38 38 91 38h640q53 0 90 -38q38 -38 38 -90v-256q0 -54 -38 -91t-90 -37h-128v-1024
q53 0 90 -38q38 -38 38 -90v-256q0 -54 -38 -91t-90 -37h-768q-54 0 -91 37q-37 38 -37 91v256q0 53 37 90q38 38 91 38l-512 1024v-896q0 -53 37 -91q38 -37 91 -37t90 -38q38 -38 38 -90v-256q0 -54 -38 -91t-90 -37h-640z" />
    <glyph glyph-name="Eng" unicode="&#x14a;" horiz-adv-x="2329" 
d="M1024 -768q-53 0 -91 38q-37 37 -37 90v256q0 53 37 91q37 37 91 37h640q52 0 90 38t38 90q0 53 -38 91q-38 37 -90 37h-512q-54 0 -91 37q-37 38 -37 91v256q0 53 37 90q38 38 91 38l-512 1024v-896q0 -53 37 -91q38 -37 91 -37t90 -38q38 -38 38 -90v-256
q0 -54 -38 -91t-90 -37h-640q-54 0 -91 37q-37 38 -37 91v256q0 53 37 90q38 38 91 38h128v1024h-128q-54 0 -91 37q-37 38 -37 91v256q0 53 37 90q38 38 91 38h896q53 0 90 -38q38 -38 38 -90v-256q0 -54 -38 -91t-90 -37l512 -1024v896q0 52 -38 90t-90 38q-54 0 -91 37
q-37 38 -37 91v256q0 53 37 90q38 38 91 38h640q53 0 90 -38q38 -38 38 -90v-256q0 -54 -38 -91t-90 -37h-128v-1024q53 0 90 -38q38 -38 38 -90v-896q0 -52 -38 -90q-37 -38 -90 -38h-512q0 -52 -38 -90q-37 -38 -90 -38h-256z" />
    <glyph glyph-name="eng" unicode="&#x14b;" horiz-adv-x="2329" 
d="M1024 -768q-53 0 -91 38q-37 37 -37 90v256q0 53 37 91q37 37 91 37h640q52 0 90 38t38 90q0 53 -38 91q-38 37 -90 37h-512q-54 0 -91 37q-37 38 -37 91v256q0 53 37 90q38 38 91 38l-512 1024v-896q0 -53 37 -91q38 -37 91 -37t90 -38q38 -38 38 -90v-256
q0 -54 -38 -91t-90 -37h-640q-54 0 -91 37q-37 38 -37 91v256q0 53 37 90q38 38 91 38h128v1024h-128q-54 0 -91 37q-37 38 -37 91v256q0 53 37 90q38 38 91 38h896q53 0 90 -38q38 -38 38 -90v-256q0 -54 -38 -91t-90 -37l512 -1024v896q0 52 -38 90t-90 38q-54 0 -91 37
q-37 38 -37 91v256q0 53 37 90q38 38 91 38h640q53 0 90 -38q38 -38 38 -90v-256q0 -54 -38 -91t-90 -37h-128v-1024q53 0 90 -38q38 -38 38 -90v-896q0 -52 -38 -90q-37 -38 -90 -38h-512q0 -52 -38 -90q-37 -38 -90 -38h-256z" />
    <glyph glyph-name="Omacron" unicode="&#x14c;" 
d="M1280 512q52 0 90 37q38 38 38 91v768q0 52 -38 90t-90 38h-768q-53 0 -91 -38q-37 -38 -37 -90v-768q0 -53 37 -91q38 -37 91 -37h768zM128 0q-53 0 -91 37q-37 37 -37 91v1792q0 52 37 90t91 38h1536q52 0 90 -38q38 -37 38 -90v-1792q0 -53 -38 -91q-37 -37 -90 -37
h-1536zM384 2176q-54 0 -91 37q-37 38 -37 91v128q0 53 37 90q38 38 91 38h1024q53 0 90 -38q38 -38 38 -90v-128q0 -54 -38 -91t-90 -37h-1024z" />
    <glyph glyph-name="omacron" unicode="&#x14d;" horiz-adv-x="1689" 
d="M1024 896q52 0 90 37q38 38 38 91q0 52 -38 90t-90 38h-512q-53 0 -91 -38q-37 -38 -37 -90q0 -53 37 -91q38 -37 91 -37h512zM128 384q-54 0 -91 37q-37 38 -37 91v1024q0 53 37 90q38 38 91 38h1280q53 0 90 -38q38 -38 38 -90v-1024q0 -54 -38 -91t-90 -37h-1280z
M256 1792q-54 0 -91 37q-37 38 -37 91v128q0 53 37 90q38 38 91 38h1024q53 0 90 -38q38 -38 38 -90v-128q0 -54 -38 -91t-90 -37h-1024z" />
    <glyph glyph-name="Obreve" unicode="&#x14e;" 
d="M1280 512q52 0 90 37q38 38 38 91v768q0 52 -38 90t-90 38h-768q-53 0 -91 -38q-37 -38 -37 -90v-768q0 -53 37 -91q38 -37 91 -37h768zM128 0q-53 0 -91 37q-37 37 -37 91v1792q0 52 37 90t91 38h1536q52 0 90 -38q38 -37 38 -90v-1792q0 -53 -38 -91q-37 -37 -90 -37
h-1536zM384 2176q-54 0 -91 37q-37 38 -37 91v256q0 53 37 90q38 38 91 38h128q53 0 90 -38q38 -38 38 -90h512q0 53 37 90q38 38 91 38h128q53 0 90 -38q38 -38 38 -90v-256q0 -54 -38 -91t-90 -37h-1024z" />
    <glyph glyph-name="obreve" unicode="&#x14f;" horiz-adv-x="1689" 
d="M1024 896q52 0 90 37q38 38 38 91q0 52 -38 90t-90 38h-512q-53 0 -91 -38q-37 -38 -37 -90q0 -53 37 -91q38 -37 91 -37h512zM128 384q-54 0 -91 37q-37 38 -37 91v1024q0 53 37 90q38 38 91 38h1280q53 0 90 -38q38 -38 38 -90v-1024q0 -54 -38 -91t-90 -37h-1280z
M256 1792q-54 0 -91 37q-37 38 -37 91v256q0 53 37 90q38 38 91 38h128q53 0 90 -38q38 -38 38 -90h512q0 53 37 90q38 38 91 38h128q53 0 90 -38q38 -38 38 -90v-256q0 -54 -38 -91t-90 -37h-1024z" />
    <glyph glyph-name="Ohungarumlaut" unicode="&#x150;" horiz-adv-x="2201" 
d="M1280 512q52 0 90 37q38 38 38 91v768q0 52 -38 90t-90 38h-768q-53 0 -91 -38q-37 -38 -37 -90v-768q0 -53 37 -91q38 -37 91 -37h768zM128 0q-53 0 -91 37q-37 37 -37 91v1792q0 52 37 90t91 38h1536q52 0 90 -38q38 -37 38 -90v-1792q0 -53 -38 -91q-37 -37 -90 -37
h-1536zM-64 2176l256 512h896l-256 -512h-896zM960 2176l256 512h896l-256 -512h-896z" />
    <glyph glyph-name="ohungarumlaut" unicode="&#x151;" horiz-adv-x="2329" 
d="M1280 768q52 0 90 37q38 38 38 91q0 52 -38 90t-90 38h-512q-53 0 -91 -38q-37 -38 -37 -90q0 -53 37 -91q38 -37 91 -37h512zM384 256q-54 0 -91 37q-37 38 -37 91v1024q0 53 37 90q38 38 91 38h1280q53 0 90 -38q38 -38 38 -90v-1024q0 -54 -38 -91t-90 -37h-1280z
M0 1664l256 512h896l-256 -512h-896zM1024 1664l256 512h896l-256 -512h-896z" />
    <glyph glyph-name="OE" unicode="&#x152;" horiz-adv-x="2969" 
d="M1152 512q52 0 90 37q38 38 38 91v768q0 52 -38 90t-90 38h-640q-53 0 -91 -38q-37 -38 -37 -90v-768q0 -53 37 -91q38 -37 91 -37h640zM128 0q-53 0 -91 37q-37 37 -37 91v1792q0 52 37 90t91 38h2560q53 0 90 -38q38 -38 38 -90v-256q0 -54 -38 -91t-90 -37h-896
q-53 0 -91 -38q-37 -38 -37 -90q0 -53 37 -91q38 -37 91 -37h256q53 0 90 -38q38 -38 38 -90v-256q0 -54 -38 -91t-90 -37h-256q-53 0 -91 -38q-37 -38 -37 -90q0 -53 37 -91q38 -37 91 -37h896q53 0 90 -38q38 -38 38 -90v-256q0 -54 -38 -91t-90 -37h-2560z" />
    <glyph glyph-name="oe" unicode="&#x153;" horiz-adv-x="3225" 
d="M1152 896q52 0 90 37q38 38 38 91q0 52 -38 90t-90 38h-640q-53 0 -91 -38q-37 -38 -37 -90q0 -53 37 -91q38 -37 91 -37h640zM1536 0q-54 0 -91 37q-37 38 -37 91v256h-1280q-54 0 -91 37q-37 38 -37 91v1024q0 53 37 90q38 38 91 38h1280v256q0 53 37 90q38 38 91 38
h1280q53 0 90 -38q38 -38 38 -90v-256q0 -54 -38 -91t-90 -37h-768q-53 0 -91 -38q-37 -38 -37 -90q0 -53 37 -91q38 -37 91 -37h256q53 0 90 -38q38 -38 38 -90v-256q0 -54 -38 -91t-90 -37h-256q-53 0 -91 -38q-37 -38 -37 -90q0 -53 37 -91q38 -37 91 -37h896
q53 0 90 -38q38 -38 38 -90v-256q0 -54 -38 -91t-90 -37h-1408z" />
    <glyph glyph-name="Racute" unicode="&#x154;" horiz-adv-x="2073" 
d="M1280 1280q52 0 90 37q38 38 38 91q0 52 -38 90t-90 38h-512q-53 0 -91 -38q-37 -38 -37 -90q0 -53 37 -91q38 -37 91 -37h512zM128 0q-54 0 -91 37q-37 38 -37 91v256q0 53 37 90q38 38 91 38h128v1024h-128q-54 0 -91 37q-37 38 -37 91v256q0 53 37 90q38 38 91 38
h1536q53 0 90 -38q38 -38 38 -90v-1024q0 -54 -38 -91t-90 -37h-192l128 -256h192q52 0 90 -38q38 -37 38 -90v-256q0 -53 -38 -91q-37 -37 -90 -37h-640q-53 0 -91 37q-37 37 -37 91v256q0 52 37 90t91 38h64l-128 256h-320q-53 0 -91 -38q-37 -38 -37 -90v-128h128
q53 0 90 -38q38 -38 38 -90v-256q0 -54 -38 -91t-90 -37h-640zM512 2176l256 512h896l-256 -512h-896z" />
    <glyph glyph-name="racute" unicode="&#x155;" horiz-adv-x="2073" 
d="M1280 1280q52 0 90 37q38 38 38 91q0 52 -38 90t-90 38h-512q-53 0 -91 -38q-37 -38 -37 -90q0 -53 37 -91q38 -37 91 -37h512zM128 0q-54 0 -91 37q-37 38 -37 91v256q0 53 37 90q38 38 91 38h128v1024h-128q-54 0 -91 37q-37 38 -37 91v256q0 53 37 90q38 38 91 38
h1536q53 0 90 -38q38 -38 38 -90v-1024q0 -54 -38 -91t-90 -37h-192l128 -256h192q52 0 90 -38q38 -37 38 -90v-256q0 -53 -38 -91q-37 -37 -90 -37h-640q-53 0 -91 37q-37 37 -37 91v256q0 52 37 90t91 38h64l-128 256h-320q-53 0 -91 -38q-37 -38 -37 -90v-128h128
q53 0 90 -38q38 -38 38 -90v-256q0 -54 -38 -91t-90 -37h-640zM512 2176l256 512h896l-256 -512h-896z" />
    <glyph glyph-name="uni0156" unicode="&#x156;" horiz-adv-x="2073" 
d="M1280 1280q52 0 90 37q38 38 38 91q0 52 -38 90t-90 38h-512q-53 0 -91 -38q-37 -38 -37 -90q0 -53 37 -91q38 -37 91 -37h512zM512 -896q-53 0 -91 38q-37 37 -37 90v256q0 53 37 91q37 37 91 37h640q52 0 90 38t38 90q0 53 -38 91q-38 37 -90 37h-256l128 256v256
q0 52 37 90t91 38h64l-128 256h-320q-53 0 -91 -38q-37 -38 -37 -90v-128h128q53 0 90 -38q38 -38 38 -90v-256q0 -54 -38 -91t-90 -37h-640q-54 0 -91 37q-37 38 -37 91v256q0 53 37 90q38 38 91 38h128v1024h-128q-54 0 -91 37q-37 38 -37 91v256q0 53 37 90q38 38 91 38
h1536q53 0 90 -38q38 -38 38 -90v-1024q0 -54 -38 -91t-90 -37h-192l128 -256h192q52 0 90 -38q38 -37 38 -90v-256q0 -53 -38 -91q-37 -37 -90 -37h-320l-64 -128q52 0 90 -37t38 -91v-384q0 -52 -38 -90q-37 -38 -90 -38h-512q0 -52 -38 -90q-37 -38 -90 -38h-256z" />
    <glyph glyph-name="uni0157" unicode="&#x157;" horiz-adv-x="2073" 
d="M1280 1280q52 0 90 37q38 38 38 91q0 52 -38 90t-90 38h-512q-53 0 -91 -38q-37 -38 -37 -90q0 -53 37 -91q38 -37 91 -37h512zM512 -896q-53 0 -91 38q-37 37 -37 90v256q0 53 37 91q37 37 91 37h640q52 0 90 38t38 90q0 53 -38 91q-38 37 -90 37h-256l128 256v256
q0 52 37 90t91 38h64l-128 256h-320q-53 0 -91 -38q-37 -38 -37 -90v-128h128q53 0 90 -38q38 -38 38 -90v-256q0 -54 -38 -91t-90 -37h-640q-54 0 -91 37q-37 38 -37 91v256q0 53 37 90q38 38 91 38h128v1024h-128q-54 0 -91 37q-37 38 -37 91v256q0 53 37 90q38 38 91 38
h1536q53 0 90 -38q38 -38 38 -90v-1024q0 -54 -38 -91t-90 -37h-192l128 -256h192q52 0 90 -38q38 -37 38 -90v-256q0 -53 -38 -91q-37 -37 -90 -37h-320l-64 -128q52 0 90 -37t38 -91v-384q0 -52 -38 -90q-37 -38 -90 -38h-512q0 -52 -38 -90q-37 -38 -90 -38h-256z" />
    <glyph glyph-name="Rcaron" unicode="&#x158;" horiz-adv-x="2073" 
d="M1280 1280q52 0 90 37q38 38 38 91q0 52 -38 90t-90 38h-512q-53 0 -91 -38q-37 -38 -37 -90q0 -53 37 -91q38 -37 91 -37h512zM128 0q-54 0 -91 37q-37 38 -37 91v256q0 53 37 90q38 38 91 38h128v1024h-128q-54 0 -91 37q-37 38 -37 91v256q0 53 37 90q38 38 91 38
h1536q53 0 90 -38q38 -38 38 -90v-1024q0 -54 -38 -91t-90 -37h-192l128 -256h192q52 0 90 -38q38 -37 38 -90v-256q0 -53 -38 -91q-37 -37 -90 -37h-640q-53 0 -91 37q-37 37 -37 91v256q0 52 37 90t91 38h64l-128 256h-320q-53 0 -91 -38q-37 -38 -37 -90v-128h128
q53 0 90 -38q38 -38 38 -90v-256q0 -54 -38 -91t-90 -37h-640zM512 2176l-256 512h512l64 -128h256l64 128h512l-256 -512h-896z" />
    <glyph glyph-name="rcaron" unicode="&#x159;" horiz-adv-x="2073" 
d="M1280 1280q52 0 90 37q38 38 38 91q0 52 -38 90t-90 38h-512q-53 0 -91 -38q-37 -38 -37 -90q0 -53 37 -91q38 -37 91 -37h512zM128 0q-54 0 -91 37q-37 38 -37 91v256q0 53 37 90q38 38 91 38h128v1024h-128q-54 0 -91 37q-37 38 -37 91v256q0 53 37 90q38 38 91 38
h1536q53 0 90 -38q38 -38 38 -90v-1024q0 -54 -38 -91t-90 -37h-192l128 -256h192q52 0 90 -38q38 -37 38 -90v-256q0 -53 -38 -91q-37 -37 -90 -37h-640q-53 0 -91 37q-37 37 -37 91v256q0 52 37 90t91 38h64l-128 256h-320q-53 0 -91 -38q-37 -38 -37 -90v-128h128
q53 0 90 -38q38 -38 38 -90v-256q0 -54 -38 -91t-90 -37h-640zM512 2176l-256 512h512l64 -128h256l64 128h512l-256 -512h-896z" />
    <glyph glyph-name="Sacute" unicode="&#x15a;" horiz-adv-x="1817" 
d="M128 0q-54 0 -91 37q-37 38 -37 91v384q0 53 37 90q38 38 91 38h256q53 0 90 -38q38 -38 38 -90h640q52 0 90 37q38 38 38 91q0 52 -38 90t-90 38h-1024q-54 0 -91 37q-37 38 -37 91v1024q0 53 37 90q38 38 91 38h1408q53 0 90 -38q38 -38 38 -90v-384q0 -54 -38 -91
t-90 -37h-256q-54 0 -91 37q-37 38 -37 91h-640q-53 0 -91 -38q-37 -38 -37 -90q0 -53 37 -91q38 -37 91 -37h1024q53 0 90 -38q38 -38 38 -90v-1024q0 -54 -38 -91t-90 -37h-1408zM384 2176l256 512h896l-256 -512h-896z" />
    <glyph glyph-name="sacute" unicode="&#x15b;" horiz-adv-x="1817" 
d="M128 0q-54 0 -91 37q-37 38 -37 91v384q0 53 37 90q38 38 91 38h256q53 0 90 -38q38 -38 38 -90h640q52 0 90 37q38 38 38 91q0 52 -38 90t-90 38h-1024q-54 0 -91 37q-37 38 -37 91v1024q0 53 37 90q38 38 91 38h1280q53 0 90 -38q38 -38 38 -90v-384q0 -54 -38 -91
t-90 -37h-256q-54 0 -91 37q-37 38 -37 91h-512q-53 0 -91 -38q-37 -38 -37 -90q0 -53 37 -91q38 -37 91 -37h1024q53 0 90 -38q38 -38 38 -90v-1024q0 -54 -38 -91t-90 -37h-1408zM256 2176l256 512h896l-256 -512h-896z" />
    <glyph glyph-name="Scircumflex" unicode="&#x15c;" horiz-adv-x="1817" 
d="M128 0q-54 0 -91 37q-37 38 -37 91v384q0 53 37 90q38 38 91 38h256q53 0 90 -38q38 -38 38 -90h640q52 0 90 37q38 38 38 91q0 52 -38 90t-90 38h-1024q-54 0 -91 37q-37 38 -37 91v1024q0 53 37 90q38 38 91 38h1408q53 0 90 -38q38 -38 38 -90v-384q0 -54 -38 -91
t-90 -37h-256q-54 0 -91 37q-37 38 -37 91h-640q-53 0 -91 -38q-37 -38 -37 -90q0 -53 37 -91q38 -37 91 -37h1024q53 0 90 -38q38 -38 38 -90v-1024q0 -54 -38 -91t-90 -37h-1408zM128 2176l256 512h896l256 -512h-512l-64 128h-256l-64 -128h-512z" />
    <glyph glyph-name="scircumflex" unicode="&#x15d;" horiz-adv-x="1817" 
d="M128 0q-54 0 -91 37q-37 38 -37 91v384q0 53 37 90q38 38 91 38h256q53 0 90 -38q38 -38 38 -90h640q52 0 90 37q38 38 38 91q0 52 -38 90t-90 38h-1024q-54 0 -91 37q-37 38 -37 91v1024q0 53 37 90q38 38 91 38h1280q53 0 90 -38q38 -38 38 -90v-384q0 -54 -38 -91
t-90 -37h-256q-54 0 -91 37q-37 38 -37 91h-512q-53 0 -91 -38q-37 -38 -37 -90q0 -53 37 -91q38 -37 91 -37h1024q53 0 90 -38q38 -38 38 -90v-1024q0 -54 -38 -91t-90 -37h-1408zM128 2176l256 512h896l256 -512h-512l-64 128h-256l-64 -128h-512z" />
    <glyph glyph-name="Scedilla" unicode="&#x15e;" horiz-adv-x="1817" 
d="M256 -896q-53 0 -91 38q-37 37 -37 90v256q0 53 37 91q37 37 91 37h640q52 0 90 38t38 90q0 53 -38 91q-38 37 -90 37h-384l64 128h-448q-54 0 -91 37q-37 38 -37 91v384q0 53 37 90q38 38 91 38h256q53 0 90 -38q38 -38 38 -90h640q52 0 90 37q38 38 38 91q0 52 -38 90
t-90 38h-1024q-54 0 -91 37q-37 38 -37 91v1024q0 53 37 90q38 38 91 38h1408q53 0 90 -38q38 -38 38 -90v-384q0 -54 -38 -91t-90 -37h-256q-54 0 -91 37q-37 38 -37 91h-640q-53 0 -91 -38q-37 -38 -37 -90q0 -53 37 -91q38 -37 91 -37h1024q53 0 90 -38q38 -38 38 -90
v-1024q0 -54 -38 -91t-90 -37h-320l-64 -128q52 0 90 -37t38 -91v-384q0 -52 -38 -90q-37 -38 -90 -38h-512q0 -52 -38 -90q-37 -38 -90 -38h-256z" />
    <glyph glyph-name="scedilla" unicode="&#x15f;" horiz-adv-x="1817" 
d="M256 -896q-53 0 -91 38q-37 37 -37 90v256q0 53 37 91q37 37 91 37h640q52 0 90 38t38 90q0 53 -38 91q-38 37 -90 37h-384l64 128h-448q-54 0 -91 37q-37 38 -37 91v384q0 53 37 90q38 38 91 38h256q53 0 90 -38q38 -38 38 -90h640q52 0 90 37q38 38 38 91q0 52 -38 90
t-90 38h-1024q-54 0 -91 37q-37 38 -37 91v1024q0 53 37 90q38 38 91 38h1280q53 0 90 -38q38 -38 38 -90v-384q0 -54 -38 -91t-90 -37h-256q-54 0 -91 37q-37 38 -37 91h-512q-53 0 -91 -38q-37 -38 -37 -90q0 -53 37 -91q38 -37 91 -37h1024q53 0 90 -38q38 -38 38 -90
v-1024q0 -54 -38 -91t-90 -37h-320l-64 -128q52 0 90 -37t38 -91v-384q0 -52 -38 -90q-37 -38 -90 -38h-512q0 -52 -38 -90q-37 -38 -90 -38h-256z" />
    <glyph glyph-name="Scaron" unicode="&#x160;" horiz-adv-x="1817" 
d="M128 0q-54 0 -91 37q-37 38 -37 91v384q0 53 37 90q38 38 91 38h256q53 0 90 -38q38 -38 38 -90h640q52 0 90 37q38 38 38 91q0 52 -38 90t-90 38h-1024q-54 0 -91 37q-37 38 -37 91v1024q0 53 37 90q38 38 91 38h1408q53 0 90 -38q38 -38 38 -90v-384q0 -54 -38 -91
t-90 -37h-256q-54 0 -91 37q-37 38 -37 91h-640q-53 0 -91 -38q-37 -38 -37 -90q0 -53 37 -91q38 -37 91 -37h1024q53 0 90 -38q38 -38 38 -90v-1024q0 -54 -38 -91t-90 -37h-1408zM384 2176l-256 512h512l64 -128h256l64 128h512l-256 -512h-896z" />
    <glyph glyph-name="scaron" unicode="&#x161;" horiz-adv-x="1817" 
d="M128 0q-54 0 -91 37q-37 38 -37 91v384q0 53 37 90q38 38 91 38h256q53 0 90 -38q38 -38 38 -90h640q52 0 90 37q38 38 38 91q0 52 -38 90t-90 38h-1024q-54 0 -91 37q-37 38 -37 91v1024q0 53 37 90q38 38 91 38h1280q53 0 90 -38q38 -38 38 -90v-384q0 -54 -38 -91
t-90 -37h-256q-54 0 -91 37q-37 38 -37 91h-512q-53 0 -91 -38q-37 -38 -37 -90q0 -53 37 -91q38 -37 91 -37h1024q53 0 90 -38q38 -38 38 -90v-1024q0 -54 -38 -91t-90 -37h-1408zM384 2176l-256 512h512l64 -128h256l64 128h512l-256 -512h-896z" />
    <glyph glyph-name="uni0162" unicode="&#x162;" 
d="M256 -896q-53 0 -91 38q-37 37 -37 90v256q0 53 37 91q37 37 91 37h640q52 0 90 38t38 90q0 53 -38 91q-38 37 -90 37h-384l64 128h-64q-54 0 -91 37q-37 38 -37 91v256q0 53 37 90q38 38 91 38h128v896q0 52 -38 90t-90 38q0 -54 -38 -91t-90 -37h-256q-54 0 -91 37
q-37 38 -37 91v384q0 53 37 90q38 38 91 38h1536q53 0 90 -38q38 -38 38 -90v-384q0 -54 -38 -91t-90 -37h-256q-54 0 -91 37q-37 38 -37 91q-53 0 -91 -38q-37 -38 -37 -90v-896h128q53 0 90 -38q38 -38 38 -90v-256q0 -54 -38 -91t-90 -37h-64l-64 -128q52 0 90 -37
t38 -91v-384q0 -52 -38 -90q-37 -38 -90 -38h-512q0 -52 -38 -90q-37 -38 -90 -38h-256z" />
    <glyph glyph-name="uni0163" unicode="&#x163;" 
d="M256 -896q-53 0 -91 38q-37 37 -37 90v256q0 53 37 91q37 37 91 37h640q52 0 90 38t38 90q0 53 -38 91q-38 37 -90 37h-384l64 128h-64q-54 0 -91 37q-37 38 -37 91v256q0 53 37 90q38 38 91 38h128v896q0 52 -38 90t-90 38h-128q0 -54 -38 -91t-90 -37h-128
q-54 0 -91 37q-37 38 -37 91v384q0 53 37 90q38 38 91 38h1536q53 0 90 -38q38 -38 38 -90v-384q0 -54 -38 -91t-90 -37h-128q-54 0 -91 37q-37 38 -37 91h-128q-53 0 -91 -38q-37 -38 -37 -90v-896h128q53 0 90 -38q38 -38 38 -90v-256q0 -54 -38 -91t-90 -37h-64l-64 -128
q52 0 90 -37t38 -91v-384q0 -52 -38 -90q-37 -38 -90 -38h-512q0 -52 -38 -90q-37 -38 -90 -38h-256z" />
    <glyph glyph-name="Tcaron" unicode="&#x164;" 
d="M512 0q-54 0 -91 37q-37 38 -37 91v256q0 53 37 90q38 38 91 38h128v896q0 52 -38 90t-90 38q0 -54 -38 -91t-90 -37h-256q-54 0 -91 37q-37 38 -37 91v384q0 53 37 90q38 38 91 38h1536q53 0 90 -38q38 -38 38 -90v-384q0 -54 -38 -91t-90 -37h-256q-54 0 -91 37
q-37 38 -37 91q-53 0 -91 -38q-37 -38 -37 -90v-896h128q53 0 90 -38q38 -38 38 -90v-256q0 -54 -38 -91t-90 -37h-768zM512 2176l-256 512h512l64 -128h128l64 128h512l-256 -512h-768z" />
    <glyph glyph-name="tcaron" unicode="&#x165;" horiz-adv-x="2713" 
d="M512 0q-54 0 -91 37q-37 38 -37 91v256q0 53 37 90q38 38 91 38h128v896q0 52 -38 90t-90 38h-128q0 -54 -38 -91t-90 -37h-128q-54 0 -91 37q-37 38 -37 91v384q0 53 37 90q38 38 91 38h1536q53 0 90 -38q38 -38 38 -90v-384q0 -54 -38 -91t-90 -37h-128q-54 0 -91 37
q-37 38 -37 91h-128q-53 0 -91 -38q-37 -38 -37 -90v-896h128q53 0 90 -38q38 -38 38 -90v-256q0 -54 -38 -91t-90 -37h-768zM2176 1152q-54 0 -91 37q-37 38 -37 91v256q-54 0 -91 37q-37 38 -37 91v256q0 53 37 90q38 38 91 38h384q53 0 90 -38q38 -38 38 -90v-640
q0 -54 -38 -91t-90 -37h-256z" />
    <glyph glyph-name="Tbar" unicode="&#x166;" 
d="M512 0q-54 0 -91 37q-37 38 -37 91v256q0 53 37 90q38 38 91 38h128v384h-512q-54 0 -91 37q-37 38 -37 91v128q0 53 37 90q38 38 91 38h512v128q0 52 -38 90t-90 38q0 -54 -38 -91t-90 -37h-256q-54 0 -91 37q-37 38 -37 91v384q0 53 37 90q38 38 91 38h1536
q53 0 90 -38q38 -38 38 -90v-384q0 -54 -38 -91t-90 -37h-256q-54 0 -91 37q-37 38 -37 91q-53 0 -91 -38q-37 -38 -37 -90v-128h512q53 0 90 -38q38 -38 38 -90v-128q0 -54 -38 -91t-90 -37h-512v-384h128q53 0 90 -38q38 -38 38 -90v-256q0 -54 -38 -91t-90 -37h-768z" />
    <glyph glyph-name="tbar" unicode="&#x167;" 
d="M512 0q-54 0 -91 37q-37 38 -37 91v256q0 53 37 90q38 38 91 38h128v384h-512q-54 0 -91 37q-37 38 -37 91v128q0 53 37 90q38 38 91 38h512v128q0 52 -38 90t-90 38h-128q0 -54 -38 -91t-90 -37h-128q-54 0 -91 37q-37 38 -37 91v384q0 53 37 90q38 38 91 38h1536
q53 0 90 -38q38 -38 38 -90v-384q0 -54 -38 -91t-90 -37h-128q-54 0 -91 37q-37 38 -37 91h-128q-53 0 -91 -38q-37 -38 -37 -90v-128h512q53 0 90 -38q38 -38 38 -90v-128q0 -54 -38 -91t-90 -37h-512v-384h128q53 0 90 -38q38 -38 38 -90v-256q0 -54 -38 -91t-90 -37h-768
z" />
    <glyph glyph-name="Utilde" unicode="&#x168;" horiz-adv-x="2201" 
d="M512 0l-256 512v1024h-128q-53 0 -91 37q-37 37 -37 91v256q0 52 37 90t91 38h640q52 0 90 -38q38 -37 38 -90v-256q0 -53 -38 -91q-37 -37 -90 -37t-91 -38q-37 -38 -37 -90v-768q0 -53 37 -91q38 -37 91 -37h512q52 0 90 37q38 38 38 91v768q0 52 -38 90t-90 38
q-53 0 -91 37q-37 37 -37 91v256q0 52 37 90t91 38h640q52 0 90 -38q38 -37 38 -90v-256q0 -53 -38 -91q-37 -37 -90 -37h-128v-1024l-256 -512h-1024zM256 2176q-53 0 -91 37q-37 37 -37 91v256q0 52 37 90t91 38h640q52 0 90 37q38 38 38 91q0 52 37 90t91 38h512
q52 0 90 -38q38 -37 38 -90v-256q0 -53 -38 -91q-37 -37 -90 -37h-640q-53 0 -91 -38q-37 -38 -37 -90q0 -54 -38 -91t-90 -37h-512z" />
    <glyph glyph-name="utilde" unicode="&#x169;" 
d="M256 384q-54 0 -91 37q-37 38 -37 91v640q-54 0 -91 37q-37 38 -37 91v256q0 53 37 90q38 38 91 38h256q53 0 90 -38q38 -38 38 -90v-512q0 -53 37 -91q38 -37 91 -37h512q52 0 90 37q38 38 38 91v512q0 53 37 90q38 38 91 38h256q53 0 90 -38q38 -38 38 -90v-256
q0 -54 -38 -91t-90 -37v-640q0 -54 -38 -91t-90 -37h-1280zM128 1792q-53 0 -91 37q-37 37 -37 91v256q0 52 37 90t91 38h640q52 0 90 37q38 38 38 91q0 52 37 90t91 38h512q52 0 90 -38q38 -37 38 -90v-256q0 -53 -38 -91q-37 -37 -90 -37h-640q-53 0 -91 -38
q-37 -38 -37 -90q0 -54 -38 -91t-90 -37h-512z" />
    <glyph glyph-name="Umacron" unicode="&#x16a;" horiz-adv-x="2201" 
d="M512 0l-256 512v1024h-128q-53 0 -91 37q-37 37 -37 91v256q0 52 37 90t91 38h640q52 0 90 -38q38 -37 38 -90v-256q0 -53 -38 -91q-37 -37 -90 -37t-91 -38q-37 -38 -37 -90v-768q0 -53 37 -91q38 -37 91 -37h512q52 0 90 37q38 38 38 91v768q0 52 -38 90t-90 38
q-53 0 -91 37q-37 37 -37 91v256q0 52 37 90t91 38h640q52 0 90 -38q38 -37 38 -90v-256q0 -53 -38 -91q-37 -37 -90 -37h-128v-1024l-256 -512h-1024zM384 2176q-54 0 -91 37q-37 38 -37 91v128q0 53 37 90q38 38 91 38h1280q53 0 90 -38q38 -38 38 -90v-128q0 -54 -38 -91
t-90 -37h-1280z" />
    <glyph glyph-name="umacron" unicode="&#x16b;" 
d="M256 384q-54 0 -91 37q-37 38 -37 91v640q-54 0 -91 37q-37 38 -37 91v256q0 53 37 90q38 38 91 38h256q53 0 90 -38q38 -38 38 -90v-512q0 -53 37 -91q38 -37 91 -37h512q52 0 90 37q38 38 38 91v512q0 53 37 90q38 38 91 38h256q53 0 90 -38q38 -38 38 -90v-256
q0 -54 -38 -91t-90 -37v-640q0 -54 -38 -91t-90 -37h-1280zM384 1792q-54 0 -91 37q-37 38 -37 91v128q0 53 37 90q38 38 91 38h1024q53 0 90 -38q38 -38 38 -90v-128q0 -54 -38 -91t-90 -37h-1024z" />
    <glyph glyph-name="Ubreve" unicode="&#x16c;" horiz-adv-x="2201" 
d="M512 0l-256 512v1024h-128q-53 0 -91 37q-37 37 -37 91v256q0 52 37 90t91 38h640q52 0 90 -38q38 -37 38 -90v-256q0 -53 -38 -91q-37 -37 -90 -37t-91 -38q-37 -38 -37 -90v-768q0 -53 37 -91q38 -37 91 -37h512q52 0 90 37q38 38 38 91v768q0 52 -38 90t-90 38
q-53 0 -91 37q-37 37 -37 91v256q0 52 37 90t91 38h640q52 0 90 -38q38 -37 38 -90v-256q0 -53 -38 -91q-37 -37 -90 -37h-128v-1024l-256 -512h-1024zM512 2176q-54 0 -91 37q-37 38 -37 91v256q0 53 37 90q38 38 91 38h128q53 0 90 -38q38 -38 38 -90h512q0 53 37 90
q38 38 91 38h128q53 0 90 -38q38 -38 38 -90v-256q0 -54 -38 -91t-90 -37h-1024z" />
    <glyph glyph-name="ubreve" unicode="&#x16d;" 
d="M256 384q-54 0 -91 37q-37 38 -37 91v640q-54 0 -91 37q-37 38 -37 91v256q0 53 37 90q38 38 91 38h256q53 0 90 -38q38 -38 38 -90v-512q0 -53 37 -91q38 -37 91 -37h512q52 0 90 37q38 38 38 91v512q0 53 37 90q38 38 91 38h256q53 0 90 -38q38 -38 38 -90v-256
q0 -54 -38 -91t-90 -37v-640q0 -54 -38 -91t-90 -37h-1280zM384 1792q-54 0 -91 37q-37 38 -37 91v256q0 53 37 90q38 38 91 38h128q53 0 90 -38q38 -38 38 -90h512q0 53 37 90q38 38 91 38h128q53 0 90 -38q38 -38 38 -90v-256q0 -54 -38 -91t-90 -37h-1024z" />
    <glyph glyph-name="Uring" unicode="&#x16e;" horiz-adv-x="2201" 
d="M512 0l-256 512v1024h-128q-53 0 -91 37q-37 37 -37 91v256q0 52 37 90t91 38h640q52 0 90 -38q38 -37 38 -90v-256q0 -53 -38 -91q-37 -37 -90 -37t-91 -38q-37 -38 -37 -90v-768q0 -53 37 -91q38 -37 91 -37h512q52 0 90 37q38 38 38 91v768q0 52 -38 90t-90 38
q-53 0 -91 37q-37 37 -37 91v256q0 52 37 90t91 38h640q52 0 90 -38q38 -37 38 -90v-256q0 -53 -38 -91q-37 -37 -90 -37h-128v-1024l-256 -512h-1024zM1280 2560q52 0 90 37q38 38 38 91q0 52 -38 90t-90 38h-512q-53 0 -91 -38q-37 -38 -37 -90q0 -53 37 -91
q38 -37 91 -37h512zM512 2176q-54 0 -91 37q-37 38 -37 91v768q0 53 37 90q38 38 91 38h1024q53 0 90 -38q38 -38 38 -90v-768q0 -54 -38 -91t-90 -37h-1024z" />
    <glyph glyph-name="uring" unicode="&#x16f;" 
d="M256 384q-54 0 -91 37q-37 38 -37 91v640q-54 0 -91 37q-37 38 -37 91v256q0 53 37 90q38 38 91 38h256q53 0 90 -38q38 -38 38 -90v-512q0 -53 37 -91q38 -37 91 -37h512q52 0 90 37q38 38 38 91v512q0 53 37 90q38 38 91 38h256q53 0 90 -38q38 -38 38 -90v-256
q0 -54 -38 -91t-90 -37v-640q0 -54 -38 -91t-90 -37h-1280zM1152 2176q52 0 90 37q38 38 38 91q0 52 -38 90t-90 38h-512q-53 0 -91 -38q-37 -38 -37 -90q0 -53 37 -91q38 -37 91 -37h512zM384 1792q-54 0 -91 37q-37 38 -37 91v768q0 53 37 90q38 38 91 38h1024
q53 0 90 -38q38 -38 38 -90v-768q0 -54 -38 -91t-90 -37h-1024z" />
    <glyph glyph-name="Uhungarumlaut" unicode="&#x170;" horiz-adv-x="2329" 
d="M512 0l-256 512v1024h-128q-53 0 -91 37q-37 37 -37 91v256q0 52 37 90t91 38h640q52 0 90 -38q38 -37 38 -90v-256q0 -53 -38 -91q-37 -37 -90 -37t-91 -38q-37 -38 -37 -90v-768q0 -53 37 -91q38 -37 91 -37h512q52 0 90 37q38 38 38 91v768q0 52 -38 90t-90 38
q-53 0 -91 37q-37 37 -37 91v256q0 52 37 90t91 38h640q52 0 90 -38q38 -37 38 -90v-256q0 -53 -38 -91q-37 -37 -90 -37h-128v-1024l-256 -512h-1024zM0 2176l256 512h896l-256 -512h-896zM1024 2176l256 512h896l-256 -512h-896z" />
    <glyph glyph-name="uhungarumlaut" unicode="&#x171;" horiz-adv-x="2201" 
d="M256 384q-54 0 -91 37q-37 38 -37 91v640q-54 0 -91 37q-37 38 -37 91v256q0 53 37 90q38 38 91 38h256q53 0 90 -38q38 -38 38 -90v-512q0 -53 37 -91q38 -37 91 -37h512q52 0 90 37q38 38 38 91v512q0 53 37 90q38 38 91 38h256q53 0 90 -38q38 -38 38 -90v-256
q0 -54 -38 -91t-90 -37v-640q0 -54 -38 -91t-90 -37h-1280zM-128 1792l256 512h896l-256 -512h-896zM896 1792l256 512h896l-256 -512h-896z" />
    <glyph glyph-name="Uogonek" unicode="&#x172;" horiz-adv-x="2201" 
d="M1664 -768q-54 0 -91 38t-37 90h-512q-54 0 -91 38t-37 90v512h-384l-256 512v1024h-128q-53 0 -91 37q-37 37 -37 91v256q0 52 37 90t91 38h640q52 0 90 -38q38 -37 38 -90v-256q0 -53 -38 -91q-37 -37 -90 -37t-91 -38q-37 -38 -37 -90v-768q0 -53 37 -91
q38 -37 91 -37h512q52 0 90 37q38 38 38 91v768q0 52 -38 90t-90 38q-53 0 -91 37q-37 37 -37 91v256q0 52 37 90t91 38h640q52 0 90 -38q38 -37 38 -90v-256q0 -53 -38 -91q-37 -37 -90 -37h-128v-1024l-256 -512h-256q-53 0 -91 -37q-37 -38 -37 -91q0 -52 37 -90
q38 -38 91 -38h640q53 0 90 -37q38 -38 38 -91v-256q0 -53 -38 -90q-38 -38 -90 -38h-256z" />
    <glyph glyph-name="uogonek" unicode="&#x173;" 
d="M1408 -384q-54 0 -91 38t-37 90h-512q-54 0 -91 38t-37 90v512h-384q-54 0 -91 37q-37 38 -37 91v640q-54 0 -91 37q-37 38 -37 91v256q0 53 37 90q38 38 91 38h256q53 0 90 -38q38 -38 38 -90v-512q0 -53 37 -91q38 -37 91 -37h512q52 0 90 37q38 38 38 91v512
q0 53 37 90q38 38 91 38h256q53 0 90 -38q38 -38 38 -90v-256q0 -54 -38 -91t-90 -37v-640q0 -54 -38 -91t-90 -37h-512q-53 0 -91 -38q-37 -38 -37 -90q0 -53 37 -91q38 -37 91 -37h640q53 0 90 -38q38 -38 38 -90v-256q0 -53 -38 -90q-38 -38 -90 -38h-256z" />
    <glyph glyph-name="Wcircumflex" unicode="&#x174;" horiz-adv-x="2841" 
d="M256 0q-54 0 -91 37q-37 38 -37 91v256q0 53 37 90q38 38 91 38h128v1024h-256q-53 0 -91 37q-37 37 -37 91v256q0 52 37 90t91 38h640q52 0 90 -38q38 -37 38 -90v-256q0 -53 -38 -91q-37 -37 -90 -37v-768l384 768q-53 0 -91 37q-37 37 -37 91v256q0 52 37 90t91 38
h384q52 0 90 -38q38 -37 38 -90v-256q0 -53 -38 -91q-37 -37 -90 -37l384 -768v768q-53 0 -91 37q-37 37 -37 91v256q0 52 37 90t91 38h640q52 0 90 -38q38 -37 38 -90v-256q0 -53 -38 -91q-37 -37 -90 -37h-256v-1024h128q52 0 90 -38q38 -37 38 -90v-256q0 -53 -38 -91
q-37 -37 -90 -37h-768q-54 0 -91 37q-37 38 -37 91v256q0 53 37 90q38 38 91 38l-320 640l-320 -640q52 0 90 -38q38 -37 38 -90v-256q0 -53 -38 -91q-37 -37 -90 -37h-768zM640 2176l256 512h896l256 -512h-512l-64 128h-256l-64 -128h-512z" />
    <glyph glyph-name="wcircumflex" unicode="&#x175;" horiz-adv-x="3353" 
d="M512 0q-54 0 -91 37q-37 38 -37 91v256q0 53 37 90q38 38 91 38h384l-512 1024h-256q-54 0 -91 37q-37 38 -37 91v256q0 53 37 90q38 38 91 38h768q53 0 90 -38q38 -38 38 -90v-256q0 -54 -38 -91t-90 -37h-128l320 -640l320 640h-128q-54 0 -91 37q-37 38 -37 91v256
q0 53 37 90q38 38 91 38h640q53 0 90 -38q38 -38 38 -90v-256q0 -54 -38 -91t-90 -37h-128l320 -640l320 640h-128q-54 0 -91 37q-37 38 -37 91v256q0 53 37 90q38 38 91 38h768q53 0 90 -38q38 -38 38 -90v-256q0 -54 -38 -91t-90 -37h-256l-512 -1024h384q52 0 90 -38
q38 -37 38 -90v-256q0 -53 -38 -91q-37 -37 -90 -37h-896q-54 0 -91 37q-37 38 -37 91v256q0 53 37 90q38 38 91 38h128l-320 640l-320 -640h128q52 0 90 -38q38 -37 38 -90v-256q0 -53 -38 -91q-37 -37 -90 -37h-896zM896 2176l256 512h896l256 -512h-512l-64 128h-256
l-64 -128h-512z" />
    <glyph glyph-name="Ycircumflex" unicode="&#x176;" horiz-adv-x="2073" 
d="M640 0q-54 0 -91 37q-37 38 -37 91v256q0 53 37 90q38 38 91 38h128v128l-448 896h-192q-53 0 -91 37q-37 37 -37 91v256q0 52 37 90t91 38h640q52 0 90 -38q38 -37 38 -90v-256q0 -53 -38 -91q-37 -37 -90 -37h-64l192 -384h128l192 384h-64q-54 0 -91 37q-37 38 -37 91
v256q0 53 37 90q38 38 91 38h640q53 0 90 -38q38 -38 38 -90v-256q0 -54 -38 -91t-90 -37h-192l-448 -896v-128h128q53 0 90 -38q38 -38 38 -90v-256q0 -54 -38 -91t-90 -37h-640zM256 2176l256 512h896l256 -512h-512l-64 128h-256l-64 -128h-512z" />
    <glyph glyph-name="ycircumflex" unicode="&#x177;" horiz-adv-x="2073" 
d="M640 0q-54 0 -91 37q-37 38 -37 91v256q0 53 37 90q38 38 91 38h128v128q0 52 -38 90t-90 38h-256q-53 0 -91 37q-37 37 -37 91v640h-128q-53 0 -91 37q-37 37 -37 91v256q0 52 37 90t91 38h640q52 0 90 -38q38 -37 38 -90v-256q0 -53 -38 -91q-37 -37 -90 -37h-128v-128
q0 -53 37 -91q38 -37 91 -37h384q52 0 90 37q38 38 38 91v128h-128q-54 0 -91 37q-37 38 -37 91v256q0 53 37 90q38 38 91 38h640q53 0 90 -38q38 -38 38 -90v-256q0 -54 -38 -91t-90 -37h-128v-640q0 -54 -38 -91t-90 -37h-256q-53 0 -91 -38q-37 -38 -37 -90v-128h128
q53 0 90 -38q38 -38 38 -90v-256q0 -54 -38 -91t-90 -37h-640zM256 2176l256 512h896l256 -512h-512l-64 128h-256l-64 -128h-512z" />
    <glyph glyph-name="Ydieresis" unicode="&#x178;" horiz-adv-x="2073" 
d="M640 0q-54 0 -91 37q-37 38 -37 91v256q0 53 37 90q38 38 91 38h128v128l-448 896h-192q-53 0 -91 37q-37 37 -37 91v256q0 52 37 90t91 38h640q52 0 90 -38q38 -37 38 -90v-256q0 -53 -38 -91q-37 -37 -90 -37h-64l192 -384h128l192 384h-64q-54 0 -91 37q-37 38 -37 91
v256q0 53 37 90q38 38 91 38h640q53 0 90 -38q38 -38 38 -90v-256q0 -54 -38 -91t-90 -37h-192l-448 -896v-128h128q53 0 90 -38q38 -38 38 -90v-256q0 -54 -38 -91t-90 -37h-640zM256 2176q-54 0 -91 37q-37 38 -37 91v256q0 53 37 90q38 38 91 38h512q53 0 90 -38
q38 -38 38 -90v-256q0 -54 -38 -91t-90 -37h-512zM1152 2176q-54 0 -91 37q-37 38 -37 91v256q0 53 37 90q38 38 91 38h512q53 0 90 -38q38 -38 38 -90v-256q0 -54 -38 -91t-90 -37h-512z" />
    <glyph glyph-name="Zacute" unicode="&#x179;" 
d="M128 0q-54 0 -91 37q-37 38 -37 91v256q0 53 37 90q38 38 91 38h256l128 256q-54 0 -91 37q-37 38 -37 91v256q0 53 37 90q38 38 91 38h256l128 256h-768q-54 0 -91 37q-37 38 -37 91v256q0 53 37 90q38 38 91 38h1536q53 0 90 -38q38 -38 38 -90v-256q0 -54 -38 -91
t-90 -37h-256l-128 -256q53 0 90 -38q38 -38 38 -90v-256q0 -54 -38 -91t-90 -37h-256l-128 -256h768q53 0 90 -38q38 -38 38 -90v-256q0 -54 -38 -91t-90 -37h-1536zM384 2176l256 512h896l-256 -512h-896z" />
    <glyph glyph-name="zacute" unicode="&#x17a;" horiz-adv-x="1689" 
d="M128 0q-54 0 -91 37q-37 38 -37 91v256q0 53 37 90q38 38 91 38h128l512 1024h-640q-54 0 -91 37q-37 38 -37 91v256q0 53 37 90q38 38 91 38h1280q53 0 90 -38q38 -38 38 -90v-256q0 -54 -38 -91t-90 -37h-128l-512 -1024h640q53 0 90 -38q38 -38 38 -90v-256
q0 -54 -38 -91t-90 -37h-1280zM256 2176l256 512h896l-256 -512h-896z" />
    <glyph glyph-name="Zdotaccent" unicode="&#x17b;" 
d="M128 0q-54 0 -91 37q-37 38 -37 91v256q0 53 37 90q38 38 91 38h256l128 256q-54 0 -91 37q-37 38 -37 91v256q0 53 37 90q38 38 91 38h256l128 256h-768q-54 0 -91 37q-37 38 -37 91v256q0 53 37 90q38 38 91 38h1536q53 0 90 -38q38 -38 38 -90v-256q0 -54 -38 -91
t-90 -37h-256l-128 -256q53 0 90 -38q38 -38 38 -90v-256q0 -54 -38 -91t-90 -37h-256l-128 -256h768q53 0 90 -38q38 -38 38 -90v-256q0 -54 -38 -91t-90 -37h-1536zM640 2176q-53 0 -91 37q-37 37 -37 91v256q0 52 37 90t91 38h640q52 0 90 -38q38 -37 38 -90v-256
q0 -53 -38 -91q-37 -37 -90 -37h-640z" />
    <glyph glyph-name="zdotaccent" unicode="&#x17c;" horiz-adv-x="1689" 
d="M128 0q-54 0 -91 37q-37 38 -37 91v256q0 53 37 90q38 38 91 38h128l512 1024h-640q-54 0 -91 37q-37 38 -37 91v256q0 53 37 90q38 38 91 38h1280q53 0 90 -38q38 -38 38 -90v-256q0 -54 -38 -91t-90 -37h-128l-512 -1024h640q53 0 90 -38q38 -38 38 -90v-256
q0 -54 -38 -91t-90 -37h-1280zM512 2176q-53 0 -91 37q-37 37 -37 91v256q0 52 37 90t91 38h640q52 0 90 -38q38 -37 38 -90v-256q0 -53 -38 -91q-37 -37 -90 -37h-640z" />
    <glyph glyph-name="Zcaron" unicode="&#x17d;" 
d="M128 0q-54 0 -91 37q-37 38 -37 91v256q0 53 37 90q38 38 91 38h256l128 256q-54 0 -91 37q-37 38 -37 91v256q0 53 37 90q38 38 91 38h256l128 256h-768q-54 0 -91 37q-37 38 -37 91v256q0 53 37 90q38 38 91 38h1536q53 0 90 -38q38 -38 38 -90v-256q0 -54 -38 -91
t-90 -37h-256l-128 -256q53 0 90 -38q38 -38 38 -90v-256q0 -54 -38 -91t-90 -37h-256l-128 -256h768q53 0 90 -38q38 -38 38 -90v-256q0 -54 -38 -91t-90 -37h-1536zM512 2176l-256 512h512l64 -128h256l64 128h512l-256 -512h-896z" />
    <glyph glyph-name="zcaron" unicode="&#x17e;" horiz-adv-x="1689" 
d="M128 0q-54 0 -91 37q-37 38 -37 91v256q0 53 37 90q38 38 91 38h128l512 1024h-640q-54 0 -91 37q-37 38 -37 91v256q0 53 37 90q38 38 91 38h1280q53 0 90 -38q38 -38 38 -90v-256q0 -54 -38 -91t-90 -37h-128l-512 -1024h640q53 0 90 -38q38 -38 38 -90v-256
q0 -54 -38 -91t-90 -37h-1280zM384 2176l-256 512h512l64 -128h256l64 128h512l-256 -512h-896z" />
    <glyph glyph-name="longs" unicode="&#x17f;" 
d="M256 0q-54 0 -91 37q-37 38 -37 91v256q0 53 37 90q38 38 91 38h128v256h-256q-54 0 -91 37q-37 38 -37 91v256q0 53 37 90q38 38 91 38h256v256h-128q-54 0 -91 37q-37 38 -37 91v256q0 53 37 90q38 38 91 38h1408q53 0 90 -38q38 -38 38 -90v-384q0 -54 -38 -91
t-90 -37h-256q-54 0 -91 37q-37 38 -37 91h-384q-53 0 -91 -38q-37 -38 -37 -90v-768q0 -53 37 -91q38 -37 91 -37t90 -38q38 -38 38 -90v-256q0 -54 -38 -91t-90 -37h-640z" />
    <glyph glyph-name="circumflex" unicode="&#x2c6;" horiz-adv-x="1433" 
d="M0 2176l256 512h768l256 -512h-512l-64 128h-128l-64 -128h-512z" />
    <glyph glyph-name="ring" unicode="&#x2da;" horiz-adv-x="1689" 
d="M1024 2688q52 0 90 37q38 38 38 91q0 52 -38 90t-90 38h-512q-53 0 -91 -38q-37 -38 -37 -90q0 -53 37 -91q38 -37 91 -37h512zM128 2176q-54 0 -91 37q-37 38 -37 91v1024q0 53 37 90q38 38 91 38h1280q52 0 90 -38q38 -37 38 -90v-1024q0 -53 -38 -91q-37 -37 -90 -37
h-1280z" />
    <glyph glyph-name="tilde" unicode="&#x2dc;" horiz-adv-x="1817" 
d="M128 2176q-53 0 -91 37q-37 37 -37 91v256q0 52 37 90t91 38h640q52 0 90 37q38 38 38 91q0 52 37 90t91 38h512q52 0 90 -38q38 -37 38 -90v-256q0 -53 -38 -91q-37 -37 -90 -37h-640q-53 0 -91 -38q-37 -38 -37 -90q0 -54 -38 -91t-90 -37h-512z" />
    <glyph glyph-name="tonos" unicode="&#x384;" horiz-adv-x="665" 
d="M128 1280q-54 0 -91 37q-37 38 -37 91v512q0 53 37 90q38 38 91 38h256q53 0 90 -38q38 -38 38 -90v-512q0 -54 -38 -91t-90 -37h-256z" />
    <glyph glyph-name="dieresistonos" unicode="&#x385;" horiz-adv-x="1433" 
d="M-192 2176q-53 0 -90 37q-38 38 -38 91v256q0 53 38 90q38 38 90 38h384q53 0 90 -38q38 -38 38 -90v-256q0 -54 -38 -91t-90 -37h-384zM1152 2176q-54 0 -91 37q-37 38 -37 91v256q0 53 37 90q38 38 91 38h384q53 0 90 -38q38 -38 38 -90v-256q0 -54 -38 -91t-90 -37
h-384zM544 2176q-54 0 -91 37q-37 38 -37 91v640q0 53 37 90q38 38 91 38h256q53 0 90 -38q38 -38 38 -90v-640q0 -54 -38 -91t-90 -37h-256z" />
    <glyph glyph-name="Alphatonos" unicode="&#x386;" horiz-adv-x="2329" 
d="M1344 1152l-192 384l-192 -384h384zM128 1280q-54 0 -91 37q-37 38 -37 91v512q0 53 37 90q38 38 91 38h256q53 0 90 -38q38 -38 38 -90v-512q0 -54 -38 -91t-90 -37h-256zM256 0q-54 0 -91 37q-37 38 -37 91v256q0 53 37 90q38 38 91 38h128v256l384 768q-53 0 -91 37
q-37 37 -37 91v256q0 52 37 90t91 38h768q53 0 90 -38q38 -38 38 -90v-256q0 -54 -38 -91t-90 -37l384 -768v-256h128q53 0 90 -38q38 -38 38 -90v-256q0 -54 -38 -91t-90 -37h-640q-54 0 -91 37q-37 38 -37 91v256q0 53 37 90q38 38 91 38h128v128h-768v-128h128
q53 0 90 -38q38 -38 38 -90v-256q0 -54 -38 -91t-90 -37h-640z" />
    <glyph glyph-name="Epsilontonos" unicode="&#x388;" horiz-adv-x="2585" 
d="M128 1280q-54 0 -91 37q-37 38 -37 91v512q0 53 37 90q38 38 91 38h256q53 0 90 -38q38 -38 38 -90v-512q0 -54 -38 -91t-90 -37h-256zM768 0q-54 0 -91 37q-37 38 -37 91v256q0 53 37 90q38 38 91 38h128v1024h-128q-54 0 -91 37q-37 38 -37 91v256q0 53 37 90
q38 38 91 38h1536q53 0 90 -38q38 -38 38 -90v-256q0 -54 -38 -91t-90 -37h-896q-53 0 -91 -38q-37 -38 -37 -90q0 -53 37 -91q38 -37 91 -37h256q53 0 90 -38q38 -38 38 -90v-256q0 -54 -38 -91t-90 -37h-256q-53 0 -91 -38q-37 -38 -37 -90q0 -53 37 -91q38 -37 91 -37
h896q53 0 90 -38q38 -38 38 -90v-256q0 -54 -38 -91t-90 -37h-1536z" />
    <glyph glyph-name="Etatonos" unicode="&#x389;" horiz-adv-x="2841" 
d="M128 1280q-54 0 -91 37q-37 38 -37 91v512q0 53 37 90q38 38 91 38h256q53 0 90 -38q38 -38 38 -90v-512q0 -54 -38 -91t-90 -37h-256zM768 0q-54 0 -91 37q-37 38 -37 91v256q0 53 37 90q38 38 91 38h128v1024h-128q-54 0 -91 37q-37 38 -37 91v256q0 53 37 90
q38 38 91 38h640q53 0 90 -38q38 -38 38 -90v-256q0 -54 -38 -91t-90 -37h-128v-128q0 -53 37 -91q38 -37 91 -37h512q52 0 90 37q38 38 38 91v128h-128q-54 0 -91 37q-37 38 -37 91v256q0 53 37 90q38 38 91 38h640q53 0 90 -38q38 -38 38 -90v-256q0 -54 -38 -91t-90 -37
h-128v-1024h128q53 0 90 -38q38 -38 38 -90v-256q0 -54 -38 -91t-90 -37h-640q-54 0 -91 37q-37 38 -37 91v256q0 53 37 90q38 38 91 38h128v128q0 52 -38 90t-90 38h-512q-53 0 -91 -38q-37 -38 -37 -90v-128h128q53 0 90 -38q38 -38 38 -90v-256q0 -54 -38 -91t-90 -37
h-640z" />
    <glyph glyph-name="Iotatonos" unicode="&#x38a;" horiz-adv-x="1817" 
d="M128 1280q-54 0 -91 37q-37 38 -37 91v512q0 53 37 90q38 38 91 38h256q53 0 90 -38q38 -38 38 -90v-512q0 -54 -38 -91t-90 -37h-256zM768 0q-54 0 -91 37q-37 38 -37 91v256q0 53 37 90q38 38 91 38h128v1024h-128q-54 0 -91 37q-37 38 -37 91v256q0 53 37 90
q38 38 91 38h768q53 0 90 -38q38 -38 38 -90v-256q0 -54 -38 -91t-90 -37h-128v-1024h128q53 0 90 -38q38 -38 38 -90v-256q0 -54 -38 -91t-90 -37h-768z" />
    <glyph glyph-name="Omicrontonos" unicode="&#x38c;" horiz-adv-x="2585" 
d="M1920 512q52 0 90 37q38 38 38 91v768q0 52 -38 90t-90 38h-768q-53 0 -91 -38q-37 -38 -37 -90v-768q0 -53 37 -91q38 -37 91 -37h768zM128 1280q-54 0 -91 37q-37 38 -37 91v512q0 53 37 90q38 38 91 38h256q53 0 90 -38q38 -38 38 -90v-512q0 -54 -38 -91t-90 -37
h-256zM768 0q-54 0 -91 37q-37 38 -37 91v1792q0 53 37 90q38 38 91 38h1536q53 0 90 -38q38 -38 38 -90v-1792q0 -54 -38 -91t-90 -37h-1536z" />
    <glyph glyph-name="Upsilontonos" unicode="&#x38e;" horiz-adv-x="2713" 
d="M128 1280q-54 0 -91 37q-37 38 -37 91v512q0 53 37 90q38 38 91 38h256q53 0 90 -38q38 -38 38 -90v-512q0 -54 -38 -91t-90 -37h-256zM1280 0q-54 0 -91 37q-37 38 -37 91v256q0 53 37 90q38 38 91 38h128v128l-448 896h-192q-53 0 -91 37q-37 37 -37 91v256q0 52 37 90
t91 38h640q52 0 90 -38q38 -37 38 -90v-256q0 -53 -38 -91q-37 -37 -90 -37h-64l192 -384h128l192 384h-64q-54 0 -91 37q-37 38 -37 91v256q0 53 37 90q38 38 91 38h640q53 0 90 -38q38 -38 38 -90v-256q0 -54 -38 -91t-90 -37h-192l-448 -896v-128h128q53 0 90 -38
q38 -38 38 -90v-256q0 -54 -38 -91t-90 -37h-640z" />
    <glyph glyph-name="Omegatonos" unicode="&#x38f;" horiz-adv-x="2457" 
d="M640 384q-54 0 -91 37q-37 38 -37 91v256q0 53 37 90q38 38 91 38v640q0 53 37 90q38 38 91 38h1280q53 0 90 -38q38 -38 38 -90v-640q53 0 90 -38q38 -38 38 -90v-256q0 -54 -38 -91t-90 -37h-512q-54 0 -91 37q-37 38 -37 91v256q0 53 37 90q38 38 91 38q52 0 90 37
q38 38 38 91q0 52 -38 90t-90 38h-512q-53 0 -91 -38q-37 -38 -37 -90q0 -53 37 -91q38 -37 91 -37t90 -38q38 -38 38 -90v-256q0 -54 -38 -91t-90 -37h-512zM128 1280q-54 0 -91 37q-37 38 -37 91v512q0 53 37 90q38 38 91 38h256q53 0 90 -38q38 -38 38 -90v-512
q0 -54 -38 -91t-90 -37h-256z" />
    <glyph glyph-name="iotadieresistonos" unicode="&#x390;" horiz-adv-x="1433" 
d="M288 0q-54 0 -91 37q-37 38 -37 91v256q0 53 37 90q38 38 91 38h128v1024h-128q-54 0 -91 37q-37 38 -37 91v256q0 53 37 90q38 38 91 38h768q53 0 90 -38q38 -38 38 -90v-256q0 -54 -38 -91t-90 -37h-128v-1024h128q53 0 90 -38q38 -38 38 -90v-256q0 -54 -38 -91
t-90 -37h-768zM-192 2176q-53 0 -90 37q-38 38 -38 91v256q0 53 38 90q38 38 90 38h384q53 0 90 -38q38 -38 38 -90v-256q0 -54 -38 -91t-90 -37h-384zM1152 2176q-54 0 -91 37q-37 38 -37 91v256q0 53 37 90q38 38 91 38h384q53 0 90 -38q38 -38 38 -90v-256q0 -54 -38 -91
t-90 -37h-384zM544 2176q-54 0 -91 37q-37 38 -37 91v640q0 53 37 90q38 38 91 38h256q53 0 90 -38q38 -38 38 -90v-640q0 -54 -38 -91t-90 -37h-256z" />
    <glyph glyph-name="Alpha" unicode="&#x391;" horiz-adv-x="2201" 
d="M1216 1152l-192 384l-192 -384h384zM128 0q-54 0 -91 37q-37 38 -37 91v256q0 53 37 90q38 38 91 38h128v256l384 768q-53 0 -91 37q-37 37 -37 91v256q0 52 37 90t91 38h768q53 0 90 -38q38 -38 38 -90v-256q0 -54 -38 -91t-90 -37l384 -768v-256h128q53 0 90 -38
q38 -38 38 -90v-256q0 -54 -38 -91t-90 -37h-640q-54 0 -91 37q-37 38 -37 91v256q0 53 37 90q38 38 91 38h128v128h-768v-128h128q53 0 90 -38q38 -38 38 -90v-256q0 -54 -38 -91t-90 -37h-640z" />
    <glyph glyph-name="Beta" unicode="&#x392;" horiz-adv-x="2073" 
d="M1408 512q52 0 90 37q38 38 38 91q0 52 -38 90t-90 38h-640q-53 0 -91 -38q-37 -38 -37 -90q0 -53 37 -91q38 -37 91 -37h640zM1280 1280q52 0 90 37q38 38 38 91q0 52 -38 90t-90 38h-512q-53 0 -91 -38q-37 -38 -37 -90q0 -53 37 -91q38 -37 91 -37h512zM128 0
q-54 0 -91 37q-37 38 -37 91v256q0 53 37 90q38 38 91 38h128v1024h-128q-54 0 -91 37q-37 38 -37 91v256q0 53 37 90q38 38 91 38h1536q53 0 90 -38q38 -38 38 -90v-640q0 -54 -38 -91t-90 -37q-53 0 -91 -38q-37 -38 -37 -90q0 -53 37 -91q38 -37 91 -37h128q53 0 90 -38
q38 -38 38 -90v-640q0 -54 -38 -91t-90 -37h-1664z" />
    <glyph glyph-name="Gamma" unicode="&#x393;" horiz-adv-x="1817" 
d="M128 0q-54 0 -91 37q-37 38 -37 91v256q0 53 37 90q38 38 91 38h128v1024h-128q-54 0 -91 37q-37 38 -37 91v256q0 53 37 90q38 38 91 38h1408q53 0 90 -38q38 -38 38 -90v-384q0 -53 -38 -91q-37 -37 -90 -37h-256q-53 0 -91 37q-37 37 -37 91h-256q-53 0 -91 -38
q-37 -38 -37 -90v-896h256q53 0 90 -38q38 -38 38 -90v-256q0 -54 -38 -91t-90 -37h-896z" />
    <glyph glyph-name="uni0394" unicode="&#x394;" horiz-adv-x="2329" 
d="M1472 512l-320 640h-128l-320 -640h768zM128 0q-54 0 -91 37q-37 38 -37 91v256q0 53 37 90q38 38 91 38h192l512 1024h-192q-53 0 -91 37q-37 37 -37 91v256q0 52 37 90t91 38h896q53 0 90 -38q38 -38 38 -90v-256q0 -54 -38 -91t-90 -37h-192l512 -1024h192
q52 0 90 -38q38 -37 38 -90v-256q0 -53 -38 -91q-37 -37 -90 -37h-1920z" />
    <glyph glyph-name="Epsilon" unicode="&#x395;" 
d="M128 0q-54 0 -91 37q-37 38 -37 91v256q0 53 37 90q38 38 91 38h128v1024h-128q-54 0 -91 37q-37 38 -37 91v256q0 53 37 90q38 38 91 38h1536q53 0 90 -38q38 -38 38 -90v-256q0 -54 -38 -91t-90 -37h-896q-53 0 -91 -38q-37 -38 -37 -90q0 -53 37 -91q38 -37 91 -37
h256q53 0 90 -38q38 -38 38 -90v-256q0 -54 -38 -91t-90 -37h-256q-53 0 -91 -38q-37 -38 -37 -90q0 -53 37 -91q38 -37 91 -37h896q53 0 90 -38q38 -38 38 -90v-256q0 -54 -38 -91t-90 -37h-1536z" />
    <glyph glyph-name="Zeta" unicode="&#x396;" horiz-adv-x="1689" 
d="M128 0q-54 0 -91 37q-37 38 -37 91v256q0 53 37 90q38 38 91 38h128l512 1024h-640q-54 0 -91 37q-37 38 -37 91v256q0 53 37 90q38 38 91 38h1280q53 0 90 -38q38 -38 38 -90v-256q0 -54 -38 -91t-90 -37h-128l-512 -1024h640q53 0 90 -38q38 -38 38 -90v-256
q0 -54 -38 -91t-90 -37h-1280z" />
    <glyph glyph-name="Eta" unicode="&#x397;" horiz-adv-x="2201" 
d="M128 0q-54 0 -91 37q-37 38 -37 91v256q0 53 37 90q38 38 91 38h128v1024h-128q-54 0 -91 37q-37 38 -37 91v256q0 53 37 90q38 38 91 38h640q53 0 90 -38q38 -38 38 -90v-256q0 -54 -38 -91t-90 -37h-128v-128q0 -53 37 -91q38 -37 91 -37h512q52 0 90 37q38 38 38 91
v128h-128q-54 0 -91 37q-37 38 -37 91v256q0 53 37 90q38 38 91 38h640q53 0 90 -38q38 -38 38 -90v-256q0 -54 -38 -91t-90 -37h-128v-1024h128q53 0 90 -38q38 -38 38 -90v-256q0 -54 -38 -91t-90 -37h-640q-54 0 -91 37q-37 38 -37 91v256q0 53 37 90q38 38 91 38h128
v128q0 52 -38 90t-90 38h-512q-53 0 -91 -38q-37 -38 -37 -90v-128h128q53 0 90 -38q38 -38 38 -90v-256q0 -54 -38 -91t-90 -37h-640z" />
    <glyph glyph-name="Theta" unicode="&#x398;" 
d="M640 768q-54 0 -91 37q-37 38 -37 91v256q0 53 37 90q38 38 91 38h512q53 0 90 -38q38 -38 38 -90v-256q0 -54 -38 -91t-90 -37h-512zM1280 512q52 0 90 37q38 38 38 91v768q0 52 -38 90t-90 38h-768q-53 0 -91 -38q-37 -38 -37 -90v-768q0 -53 37 -91q38 -37 91 -37h768
zM128 0q-54 0 -91 37q-37 38 -37 91v1792q0 53 37 90q38 38 91 38h1536q53 0 90 -38q38 -38 38 -90v-1792q0 -54 -38 -91t-90 -37h-1536z" />
    <glyph glyph-name="Iota" unicode="&#x399;" horiz-adv-x="1177" 
d="M128 0q-54 0 -91 37q-37 38 -37 91v256q0 53 37 90q38 38 91 38h128v1024h-128q-54 0 -91 37q-37 38 -37 91v256q0 53 37 90q38 38 91 38h768q53 0 90 -38q38 -38 38 -90v-256q0 -54 -38 -91t-90 -37h-128v-1024h128q53 0 90 -38q38 -38 38 -90v-256q0 -54 -38 -91
t-90 -37h-768z" />
    <glyph glyph-name="Kappa" unicode="&#x39a;" horiz-adv-x="2073" 
d="M128 0q-54 0 -91 37q-37 38 -37 91v256q0 53 37 90q38 38 91 38h128v1024h-128q-54 0 -91 37q-37 38 -37 91v256q0 53 37 90q38 38 91 38h640q53 0 90 -38q38 -38 38 -90v-256q0 -54 -38 -91t-90 -37h-128v-128q0 -53 37 -91q38 -37 91 -37h320l128 256h-64q-54 0 -91 37
q-37 38 -37 91v256q0 53 37 90q38 38 91 38h640q53 0 90 -38q38 -38 38 -90v-256q0 -54 -38 -91t-90 -37h-192l-256 -512l256 -512h192q52 0 90 -38q38 -37 38 -90v-256q0 -53 -38 -91q-37 -37 -90 -37h-640q-53 0 -91 37q-37 37 -37 91v256q0 52 37 90t91 38h64l-128 256
h-320q-53 0 -91 -38q-37 -38 -37 -90v-128h128q53 0 90 -38q38 -38 38 -90v-256q0 -54 -38 -91t-90 -37h-640z" />
    <glyph glyph-name="Lambda" unicode="&#x39b;" horiz-adv-x="2329" 
d="M128 0q-54 0 -91 37q-37 38 -37 91v256q0 53 37 90q38 38 91 38h192l512 1024h-192q-54 0 -91 37q-37 38 -37 91v256q0 53 37 90q38 38 91 38h896q52 0 90 -38q38 -37 38 -90v-256q0 -53 -38 -91q-37 -37 -90 -37h-192l512 -1024h192q52 0 90 -38q38 -37 38 -90v-256
q0 -53 -38 -91q-37 -37 -90 -37h-640q-53 0 -91 37q-37 37 -37 91v256q0 52 37 90t91 38h64l-384 768l-384 -768h64q53 0 90 -38q38 -38 38 -90v-256q0 -54 -38 -91t-90 -37h-640z" />
    <glyph glyph-name="Mu" unicode="&#x39c;" horiz-adv-x="2841" 
d="M128 0q-54 0 -91 37q-37 38 -37 91v256q0 53 37 90q38 38 91 38h128v1024h-128q-54 0 -91 37q-37 38 -37 91v256q0 53 37 90q38 38 91 38h896q53 0 90 -38q38 -38 38 -90v-256q0 -54 -38 -91t-90 -37l320 -640l320 640q-53 0 -91 37q-37 37 -37 91v256q0 52 37 90t91 38
h896q52 0 90 -38q38 -37 38 -90v-256q0 -53 -38 -91q-37 -37 -90 -37h-128v-1024h128q52 0 90 -38q38 -37 38 -90v-256q0 -53 -38 -91q-37 -37 -90 -37h-512q-53 0 -91 37q-37 37 -37 91v256q0 52 37 90t91 38v1024l-512 -1024h128q53 0 90 -38q38 -38 38 -90v-256
q0 -54 -38 -91t-90 -37h-640q-54 0 -91 37q-37 38 -37 91v256q0 53 37 90q38 38 91 38h128l-512 1024v-1024q53 0 90 -38q38 -38 38 -90v-256q0 -54 -38 -91t-90 -37h-512z" />
    <glyph glyph-name="Nu" unicode="&#x39d;" horiz-adv-x="2329" 
d="M128 0q-54 0 -91 37q-37 38 -37 91v256q0 53 37 90q38 38 91 38h128v1024h-128q-54 0 -91 37q-37 38 -37 91v256q0 53 37 90q38 38 91 38h896q53 0 90 -38q38 -38 38 -90v-256q0 -54 -38 -91t-90 -37l512 -1024v896q0 52 -38 90t-90 38q-54 0 -91 37q-37 38 -37 91v256
q0 53 37 90q38 38 91 38h640q53 0 90 -38q38 -38 38 -90v-256q0 -54 -38 -91t-90 -37h-128v-1024q53 0 90 -38q38 -38 38 -90v-256q0 -54 -38 -91t-90 -37h-768q-54 0 -91 37q-37 38 -37 91v256q0 53 37 90q38 38 91 38l-512 1024v-896q0 -53 37 -91q38 -37 91 -37t90 -38
q38 -38 38 -90v-256q0 -54 -38 -91t-90 -37h-640z" />
    <glyph glyph-name="Xi" unicode="&#x39e;" 
d="M128 0q-54 0 -91 37q-37 38 -37 91v256q0 53 37 90q38 38 91 38h1536q53 0 90 -38q38 -38 38 -90v-256q0 -54 -38 -91t-90 -37h-1536zM512 768q-54 0 -91 37q-37 38 -37 91v256q0 53 37 90q38 38 91 38h768q53 0 90 -38q38 -38 38 -90v-256q0 -54 -38 -91t-90 -37h-768z
M128 1536q-54 0 -91 37q-37 38 -37 91v256q0 53 37 90q38 38 91 38h1536q53 0 90 -38q38 -38 38 -90v-256q0 -54 -38 -91t-90 -37h-1536z" />
    <glyph glyph-name="Omicron" unicode="&#x39f;" 
d="M1280 512q52 0 90 37q38 38 38 91v768q0 52 -38 90t-90 38h-768q-53 0 -91 -38q-37 -38 -37 -90v-768q0 -53 37 -91q38 -37 91 -37h768zM128 0q-54 0 -91 37q-37 38 -37 91v1792q0 53 37 90q38 38 91 38h1536q53 0 90 -38q38 -38 38 -90v-1792q0 -54 -38 -91t-90 -37
h-1536z" />
    <glyph glyph-name="Pi" unicode="&#x3a0;" horiz-adv-x="2457" 
d="M256 0q-54 0 -91 37q-37 38 -37 91v256q0 53 37 90q38 38 91 38h128v1024h-256q-54 0 -91 37q-37 38 -37 91v256q0 53 37 90q38 38 91 38h2048q53 0 90 -38q38 -38 38 -90v-256q0 -54 -38 -91t-90 -37h-256v-1024h128q53 0 90 -38q38 -38 38 -90v-256q0 -54 -38 -91
t-90 -37h-640q-54 0 -91 37q-37 38 -37 91v256q0 53 37 90q38 38 91 38h128v1024h-768v-1024h128q53 0 90 -38q38 -38 38 -90v-256q0 -54 -38 -91t-90 -37h-640z" />
    <glyph glyph-name="Rho" unicode="&#x3a1;" 
d="M1280 1280q52 0 90 37q38 38 38 91q0 52 -38 90t-90 38h-512q-53 0 -91 -38q-37 -38 -37 -90q0 -53 37 -91q38 -37 91 -37h512zM128 0q-54 0 -91 37q-37 38 -37 91v256q0 53 37 90q38 38 91 38h128v1024h-128q-54 0 -91 37q-37 38 -37 91v256q0 53 37 90q38 38 91 38
h1536q53 0 90 -38q38 -38 38 -90v-1024q0 -54 -38 -91t-90 -37h-896q-53 0 -91 -38q-37 -38 -37 -90v-128h256q53 0 90 -38q38 -38 38 -90v-256q0 -54 -38 -91t-90 -37h-768z" />
    <glyph glyph-name="Sigma" unicode="&#x3a3;" 
d="M128 0q-54 0 -91 37q-37 38 -37 91v256q0 53 37 90q38 38 91 38h192l256 512l-256 512h-192q-53 0 -91 37q-37 37 -37 91v256q0 52 37 90t91 38h1536q53 0 90 -38q38 -38 38 -90v-256q0 -54 -38 -91t-90 -37h-832l128 -256h320q53 0 90 -38q38 -38 38 -90v-256
q0 -54 -38 -91t-90 -37h-320l-128 -256h832q53 0 90 -38q38 -38 38 -90v-256q0 -54 -38 -91t-90 -37h-1536z" />
    <glyph glyph-name="Tau" unicode="&#x3a4;" 
d="M512 0q-54 0 -91 37q-37 38 -37 91v256q0 53 37 90q38 38 91 38h128v896q0 52 -38 90t-90 38h-128q0 -54 -38 -91t-90 -37h-128q-54 0 -91 37q-37 38 -37 91v384q0 53 37 90q38 38 91 38h1536q53 0 90 -38q38 -38 38 -90v-384q0 -54 -38 -91t-90 -37h-128q-54 0 -91 37
q-37 38 -37 91h-128q-53 0 -91 -38q-37 -38 -37 -90v-896h128q53 0 90 -38q38 -38 38 -90v-256q0 -54 -38 -91t-90 -37h-768z" />
    <glyph glyph-name="Upsilon" unicode="&#x3a5;" horiz-adv-x="2073" 
d="M640 0q-54 0 -91 37q-37 38 -37 91v256q0 53 37 90q38 38 91 38h128v128l-448 896h-192q-53 0 -91 37q-37 37 -37 91v256q0 52 37 90t91 38h640q52 0 90 -38q38 -37 38 -90v-256q0 -53 -38 -91q-37 -37 -90 -37h-64l192 -384h128l192 384h-64q-54 0 -91 37q-37 38 -37 91
v256q0 53 37 90q38 38 91 38h640q53 0 90 -38q38 -38 38 -90v-256q0 -54 -38 -91t-90 -37h-192l-448 -896v-128h128q53 0 90 -38q38 -38 38 -90v-256q0 -54 -38 -91t-90 -37h-640z" />
    <glyph glyph-name="Phi" unicode="&#x3a6;" horiz-adv-x="2457" 
d="M960 896v256h-448q-53 0 -91 -38q-37 -38 -37 -90q0 -53 37 -91q38 -37 91 -37h448zM1792 896q52 0 90 37q38 38 38 91q0 52 -38 90t-90 38h-448v-256h448zM640 -64q-53 0 -91 38q-37 36 -37 90v192q0 52 37 90t91 38h256v128h-768q-53 0 -91 37q-37 37 -37 91v768
q0 52 37 90t91 38h768v128h-256q-53 0 -91 37q-37 37 -37 91v192q0 52 37 90t91 38h1024q53 0 90 -38q38 -38 38 -90v-192q0 -54 -38 -91t-90 -37h-256v-128h768q53 0 90 -38q38 -38 38 -90v-768q0 -54 -38 -91t-90 -37h-768v-128h256q53 0 90 -38q38 -38 38 -90v-192
q0 -54 -38 -90q-38 -38 -90 -38h-1024z" />
    <glyph glyph-name="Chi" unicode="&#x3a7;" horiz-adv-x="2073" 
d="M128 0q-54 0 -91 37q-37 38 -37 91v256q0 53 37 90q38 38 91 38h192l256 512l-256 512h-192q-53 0 -91 37q-37 37 -37 91v256q0 52 37 90t91 38h640q52 0 90 -38q38 -37 38 -90v-256q0 -53 -38 -91q-37 -37 -90 -37h-64l128 -256h256l128 256h-64q-54 0 -91 37
q-37 38 -37 91v256q0 53 37 90q38 38 91 38h640q53 0 90 -38q38 -38 38 -90v-256q0 -54 -38 -91t-90 -37h-192l-256 -512l256 -512h192q52 0 90 -38q38 -37 38 -90v-256q0 -53 -38 -91q-37 -37 -90 -37h-640q-53 0 -91 37q-37 37 -37 91v256q0 52 37 90t91 38h64l-128 256
h-256l-128 -256h64q53 0 90 -38q38 -38 38 -90v-256q0 -54 -38 -91t-90 -37h-640z" />
    <glyph glyph-name="Psi" unicode="&#x3a8;" horiz-adv-x="2585" 
d="M640 0q-54 0 -91 37q-37 38 -37 91v256q0 53 37 90q38 38 91 38h384v128q0 52 -38 90t-90 38h-256l-384 768h-128q-53 0 -91 37q-37 37 -37 91v256q0 52 37 90t91 38h512q52 0 90 -38q38 -37 38 -90v-256q0 -53 -38 -91q-37 -37 -90 -37l128 -256h256v256q-54 0 -91 37
q-37 38 -37 91v256q0 53 37 90q38 38 91 38h384q53 0 90 -38q38 -38 38 -90v-256q0 -54 -38 -91t-90 -37v-256h256l128 256q-54 0 -91 37q-37 38 -37 91v256q0 53 37 90q38 38 91 38h512q53 0 90 -38q38 -38 38 -90v-256q0 -54 -38 -91t-90 -37h-128l-384 -768h-256
q-53 0 -91 -38q-37 -38 -37 -90v-128h384q53 0 90 -38q38 -38 38 -90v-256q0 -54 -38 -91t-90 -37h-1152z" />
    <glyph glyph-name="uni03A9" unicode="&#x3a9;" horiz-adv-x="2585" 
d="M128 0q-54 0 -91 37q-37 38 -37 91v256q0 53 37 90q38 38 91 38h256q52 0 90 37q38 38 38 91q0 52 -38 90t-90 38q-54 0 -91 37q-37 38 -37 91v1024q0 52 37 90t91 38h1664q52 0 90 -38q38 -37 38 -90v-1024q0 -53 -38 -91q-37 -37 -90 -37t-91 -38q-37 -38 -37 -90
q0 -53 37 -91q38 -37 91 -37h256q52 0 90 -38q38 -37 38 -90v-256q0 -53 -38 -91q-37 -37 -90 -37h-896q-53 0 -91 37q-37 37 -37 91v256q0 52 37 90t91 38h128q52 0 90 37q38 38 38 91v768q0 52 -38 90t-90 38h-640q-53 0 -91 -38q-37 -38 -37 -90v-768q0 -53 37 -91
q38 -37 91 -37h128q53 0 90 -38q38 -38 38 -90v-256q0 -54 -38 -91t-90 -37h-896z" />
    <glyph glyph-name="Iotadieresis" unicode="&#x3aa;" horiz-adv-x="1561" 
d="M288 0q-54 0 -91 37q-37 38 -37 91v256q0 53 37 90q38 38 91 38h128v1024h-128q-54 0 -91 37q-37 38 -37 91v256q0 53 37 90q38 38 91 38h768q53 0 90 -38q38 -38 38 -90v-256q0 -54 -38 -91t-90 -37h-128v-1024h128q53 0 90 -38q38 -38 38 -90v-256q0 -54 -38 -91
t-90 -37h-768zM128 2176q-54 0 -91 37q-37 38 -37 91v256q0 53 37 90q38 38 91 38h384q53 0 90 -38q38 -38 38 -90v-256q0 -54 -38 -91t-90 -37h-384zM832 2176q-54 0 -91 37q-37 38 -37 91v256q0 53 37 90q38 38 91 38h384q53 0 90 -38q38 -38 38 -90v-256q0 -54 -38 -91
t-90 -37h-384z" />
    <glyph glyph-name="Upsilondieresis" unicode="&#x3ab;" horiz-adv-x="2073" 
d="M640 0q-54 0 -91 37q-37 38 -37 91v256q0 53 37 90q38 38 91 38h128v128l-448 896h-192q-53 0 -91 37q-37 37 -37 91v256q0 52 37 90t91 38h640q52 0 90 -38q38 -37 38 -90v-256q0 -53 -38 -91q-37 -37 -90 -37h-64l192 -384h128l192 384h-64q-54 0 -91 37q-37 38 -37 91
v256q0 53 37 90q38 38 91 38h640q53 0 90 -38q38 -38 38 -90v-256q0 -54 -38 -91t-90 -37h-192l-448 -896v-128h128q53 0 90 -38q38 -38 38 -90v-256q0 -54 -38 -91t-90 -37h-640zM256 2176q-54 0 -91 37q-37 38 -37 91v256q0 53 37 90q38 38 91 38h512q53 0 90 -38
q38 -38 38 -90v-256q0 -54 -38 -91t-90 -37h-512zM1152 2176q-54 0 -91 37q-37 38 -37 91v256q0 53 37 90q38 38 91 38h512q53 0 90 -38q38 -38 38 -90v-256q0 -54 -38 -91t-90 -37h-512z" />
    <glyph glyph-name="alphatonos" unicode="&#x3ac;" horiz-adv-x="2457" 
d="M1408 1024l-192 384l-192 -384h384zM128 1280q-54 0 -91 37q-37 38 -37 91v512q0 53 37 90q38 38 91 38h256q53 0 90 -38q38 -38 38 -90v-512q0 -54 -38 -91t-90 -37h-256zM256 0q-54 0 -91 37q-37 38 -37 91v256q0 53 37 90q38 38 91 38h128l512 1024h-128q-54 0 -91 37
q-37 38 -37 91v256q0 53 37 90q38 38 91 38h896q52 0 90 -38q38 -37 38 -90v-256q0 -53 -38 -91q-37 -37 -90 -37h-128l512 -1024h128q52 0 90 -38q38 -37 38 -90v-256q0 -53 -38 -91q-37 -37 -90 -37h-640q-53 0 -91 37q-37 37 -37 91v256q0 52 37 90t91 38h128l-64 128
h-768l-64 -128h128q53 0 90 -38q38 -38 38 -90v-256q0 -54 -38 -91t-90 -37h-640z" />
    <glyph glyph-name="epsilontonos" unicode="&#x3ad;" horiz-adv-x="2585" 
d="M128 1280q-54 0 -91 37q-37 38 -37 91v512q0 53 37 90q38 38 91 38h256q53 0 90 -38q38 -38 38 -90v-512q0 -54 -38 -91t-90 -37h-256zM768 0q-53 0 -91 37q-37 37 -37 91v640q0 52 37 90t91 38h128q52 0 90 37q38 38 38 91q0 52 -38 90t-90 38h-128q-53 0 -91 37
q-37 37 -37 91v640q0 52 37 90t91 38h1536q52 0 90 -38q38 -37 38 -90v-384q0 -54 -38 -91t-90 -37h-256q-54 0 -91 37q-37 38 -37 91h-640q-53 0 -91 -38q-37 -38 -37 -90q0 -53 37 -91q38 -37 91 -37h512q52 0 90 -38q38 -37 38 -90v-256q0 -53 -38 -91q-37 -37 -90 -37
h-512q-53 0 -91 -38q-37 -38 -37 -90q0 -53 37 -91q38 -37 91 -37h640q0 52 37 90t91 38h256q52 0 90 -38q38 -37 38 -90v-384q0 -53 -38 -91q-37 -37 -90 -37h-1536z" />
    <glyph glyph-name="etatonos" unicode="&#x3ae;" horiz-adv-x="2713" 
d="M128 1280q-54 0 -91 37q-37 38 -37 91v512q0 53 37 90q38 38 91 38h256q53 0 90 -38q38 -38 38 -90v-512q0 -54 -38 -91t-90 -37h-256zM768 0q-54 0 -91 37q-37 38 -37 91v256q0 53 37 90q38 38 91 38h128v1024h-128q-54 0 -91 37q-37 38 -37 91v256q0 53 37 90
q38 38 91 38h640q53 0 90 -38q38 -38 38 -90v-256q0 -54 -38 -91t-90 -37h-128v-128q0 -53 37 -91q38 -37 91 -37h384q52 0 90 37q38 38 38 91v128h-128q-54 0 -91 37q-37 38 -37 91v256q0 53 37 90q38 38 91 38h640q53 0 90 -38q38 -38 38 -90v-256q0 -54 -38 -91t-90 -37
h-128v-1024h128q53 0 90 -38q38 -38 38 -90v-256q0 -54 -38 -91t-90 -37h-640q-54 0 -91 37q-37 38 -37 91v256q0 53 37 90q38 38 91 38h128v128q0 52 -38 90t-90 38h-384q-53 0 -91 -38q-37 -38 -37 -90v-128h128q53 0 90 -38q38 -38 38 -90v-256q0 -54 -38 -91t-90 -37
h-640z" />
    <glyph glyph-name="iotatonos" unicode="&#x3af;" horiz-adv-x="1177" 
d="M128 0q-54 0 -91 37q-37 38 -37 91v256q0 53 37 90q38 38 91 38h128v1024h-128q-54 0 -91 37q-37 38 -37 91v256q0 53 37 90q38 38 91 38h768q53 0 90 -38q38 -38 38 -90v-256q0 -54 -38 -91t-90 -37h-128v-1024h128q53 0 90 -38q38 -38 38 -90v-256q0 -54 -38 -91
t-90 -37h-768zM256 2176q-54 0 -91 37q-37 38 -37 91v256q0 53 37 90q38 38 91 38h512q53 0 90 -38q38 -38 38 -90v-256q0 -54 -38 -91t-90 -37h-512z" />
    <glyph glyph-name="upsilondieresistonos" unicode="&#x3b0;" horiz-adv-x="2201" 
d="M384 384q-54 0 -91 37q-37 38 -37 91v1024q0 53 37 90q38 38 91 38h128q53 0 90 -38q38 -38 38 -90v-512q0 -53 37 -91q38 -37 91 -37h512q52 0 90 37q38 38 38 91v128q-54 0 -91 37q-37 38 -37 91v256q0 53 37 90q38 38 91 38h256q53 0 90 -38q38 -38 38 -90v-1024
q0 -54 -38 -91t-90 -37h-1280zM192 1792q-54 0 -91 37q-37 38 -37 91v256q0 53 37 90q38 38 91 38h384q53 0 90 -38q38 -38 38 -90v-256q0 -54 -38 -91t-90 -37h-384zM1536 1792q-54 0 -91 37q-37 38 -37 91v256q0 53 37 90q38 38 91 38h384q53 0 90 -38q38 -38 38 -90v-256
q0 -54 -38 -91t-90 -37h-384zM928 1792q-54 0 -91 37q-37 38 -37 91v640q0 53 37 90q38 38 91 38h256q53 0 90 -38q38 -38 38 -90v-640q0 -54 -38 -91t-90 -37h-256z" />
    <glyph glyph-name="alpha" unicode="&#x3b1;" horiz-adv-x="2329" 
d="M1280 1024l-192 384l-192 -384h384zM128 0q-54 0 -91 37q-37 38 -37 91v256q0 53 37 90q38 38 91 38h128l512 1024h-128q-54 0 -91 37q-37 38 -37 91v256q0 53 37 90q38 38 91 38h896q52 0 90 -38q38 -37 38 -90v-256q0 -53 -38 -91q-37 -37 -90 -37h-128l512 -1024h128
q52 0 90 -38q38 -37 38 -90v-256q0 -53 -38 -91q-37 -37 -90 -37h-640q-53 0 -91 37q-37 37 -37 91v256q0 52 37 90t91 38h128l-64 128h-768l-64 -128h128q53 0 90 -38q38 -38 38 -90v-256q0 -54 -38 -91t-90 -37h-640z" />
    <glyph glyph-name="beta" unicode="&#x3b2;" 
d="M1280 512q52 0 90 37q38 38 38 91q0 52 -38 90t-90 38h-512q-53 0 -91 -38q-37 -38 -37 -90q0 -53 37 -91q38 -37 91 -37h512zM1152 1280q52 0 90 37q38 38 38 91q0 52 -38 90t-90 38h-384q-53 0 -91 -38q-37 -38 -37 -90q0 -53 37 -91q38 -37 91 -37h384zM128 0
q-54 0 -91 37q-37 38 -37 91v256q0 53 37 90q38 38 91 38h128v1024h-128q-54 0 -91 37q-37 38 -37 91v256q0 53 37 90q38 38 91 38h1408q53 0 90 -38q38 -38 38 -90v-640q0 -54 -38 -91t-90 -37q-53 0 -91 -38q-37 -38 -37 -90q0 -53 37 -91q38 -37 91 -37h128q53 0 90 -38
q38 -38 38 -90v-640q0 -54 -38 -91t-90 -37h-1536z" />
    <glyph glyph-name="gamma" unicode="&#x3b3;" horiz-adv-x="2073" 
d="M640 0q-54 0 -91 37q-37 38 -37 91v256q0 53 37 90q38 38 91 38h128v128q0 52 -38 90t-90 38h-256q-53 0 -91 37q-37 37 -37 91v640h-128q-53 0 -91 37q-37 37 -37 91v256q0 52 37 90t91 38h640q52 0 90 -38q38 -37 38 -90v-256q0 -53 -38 -91q-37 -37 -90 -37h-128v-128
q0 -53 37 -91q38 -37 91 -37h384q52 0 90 37q38 38 38 91v128h-128q-54 0 -91 37q-37 38 -37 91v256q0 53 37 90q38 38 91 38h640q53 0 90 -38q38 -38 38 -90v-256q0 -54 -38 -91t-90 -37h-128v-640q0 -54 -38 -91t-90 -37h-256q-53 0 -91 -38q-37 -38 -37 -90v-128h128
q53 0 90 -38q38 -38 38 -90v-256q0 -54 -38 -91t-90 -37h-640z" />
    <glyph glyph-name="delta" unicode="&#x3b4;" horiz-adv-x="2329" 
d="M1472 512l-320 640h-128l-320 -640h768zM128 0q-54 0 -91 37q-37 38 -37 91v256q0 53 37 90q38 38 91 38h192l512 1024h-192q-53 0 -91 37q-37 37 -37 91v256q0 52 37 90t91 38h896q53 0 90 -38q38 -38 38 -90v-256q0 -54 -38 -91t-90 -37h-192l512 -1024h192
q52 0 90 -38q38 -37 38 -90v-256q0 -53 -38 -91q-37 -37 -90 -37h-1920z" />
    <glyph glyph-name="epsilon" unicode="&#x3b5;" 
d="M128 0q-53 0 -91 37q-37 37 -37 91v640q0 52 37 90t91 38h128q52 0 90 37q38 38 38 91q0 52 -38 90t-90 38h-128q-53 0 -91 37q-37 37 -37 91v640q0 52 37 90t91 38h1536q52 0 90 -38q38 -37 38 -90v-384q0 -54 -38 -91t-90 -37h-256q-54 0 -91 37q-37 38 -37 91h-640
q-53 0 -91 -38q-37 -38 -37 -90q0 -53 37 -91q38 -37 91 -37h512q52 0 90 -38q38 -37 38 -90v-256q0 -53 -38 -91q-37 -37 -90 -37h-512q-53 0 -91 -38q-37 -38 -37 -90q0 -53 37 -91q38 -37 91 -37h640q0 52 37 90t91 38h256q52 0 90 -38q38 -37 38 -90v-384q0 -53 -38 -91
q-37 -37 -90 -37h-1536z" />
    <glyph glyph-name="zeta" unicode="&#x3b6;" 
d="M128 0q-54 0 -91 37q-37 38 -37 91v256q0 53 37 90q38 38 91 38h256l128 256q-54 0 -91 37q-37 38 -37 91v256q0 53 37 90q38 38 91 38h256l128 256h-768q-54 0 -91 37q-37 38 -37 91v256q0 53 37 90q38 38 91 38h1536q53 0 90 -38q38 -38 38 -90v-256q0 -54 -38 -91
t-90 -37h-256l-128 -256q53 0 90 -38q38 -38 38 -90v-256q0 -54 -38 -91t-90 -37h-256l-128 -256h768q53 0 90 -38q38 -38 38 -90v-256q0 -54 -38 -91t-90 -37h-1536z" />
    <glyph glyph-name="eta" unicode="&#x3b7;" horiz-adv-x="2073" 
d="M128 0q-54 0 -91 37q-37 38 -37 91v256q0 53 37 90q38 38 91 38h128v1024h-128q-54 0 -91 37q-37 38 -37 91v256q0 53 37 90q38 38 91 38h640q53 0 90 -38q38 -38 38 -90v-256q0 -54 -38 -91t-90 -37h-128v-128q0 -53 37 -91q38 -37 91 -37h384q52 0 90 37q38 38 38 91
v128h-128q-54 0 -91 37q-37 38 -37 91v256q0 53 37 90q38 38 91 38h640q53 0 90 -38q38 -38 38 -90v-256q0 -54 -38 -91t-90 -37h-128v-1024h128q53 0 90 -38q38 -38 38 -90v-256q0 -54 -38 -91t-90 -37h-640q-54 0 -91 37q-37 38 -37 91v256q0 53 37 90q38 38 91 38h128
v128q0 52 -38 90t-90 38h-384q-53 0 -91 -38q-37 -38 -37 -90v-128h128q53 0 90 -38q38 -38 38 -90v-256q0 -54 -38 -91t-90 -37h-640z" />
    <glyph glyph-name="theta" unicode="&#x3b8;" 
d="M1280 512q52 0 90 37q38 38 38 91v128h-1024v-128q0 -53 37 -91q38 -37 91 -37h768zM1408 1280v128q0 52 -38 90t-90 38h-768q-53 0 -91 -38q-37 -38 -37 -90v-128h1024zM128 0q-54 0 -91 37q-37 38 -37 91v1792q0 53 37 90q38 38 91 38h1536q53 0 90 -38q38 -38 38 -90
v-1792q0 -54 -38 -91t-90 -37h-1536z" />
    <glyph glyph-name="iota" unicode="&#x3b9;" horiz-adv-x="1177" 
d="M384 0q-54 0 -91 37q-37 38 -37 91v1408h-128q-54 0 -91 37q-37 38 -37 91v256q0 53 37 90q38 38 91 38h768q53 0 90 -38q38 -38 38 -90v-256q0 -54 -38 -91t-90 -37h-128v-1024h128q53 0 90 -38q38 -38 38 -90v-256q0 -54 -38 -91t-90 -37h-512z" />
    <glyph glyph-name="kappa" unicode="&#x3ba;" horiz-adv-x="2073" 
d="M128 0q-53 0 -91 37q-37 37 -37 91v256q0 52 37 90t91 38h128v1024h-128q-53 0 -91 37q-37 37 -37 91v256q0 52 37 90t91 38h640q52 0 90 -38q38 -37 38 -90v-256q0 -53 -38 -91q-37 -37 -90 -37h-128v-128q0 -53 37 -91q38 -37 91 -37h320l128 256h-64q-54 0 -91 37
q-37 38 -37 91v256q0 53 37 90q38 38 91 38h640q53 0 90 -38q38 -38 38 -90v-256q0 -54 -38 -91t-90 -37h-192l-256 -512q0 -53 37 -91q38 -37 91 -37h64q52 0 90 -38q38 -37 38 -90v-256h128q52 0 90 -38q38 -37 38 -90v-256q0 -53 -38 -91q-37 -37 -90 -37h-640
q-53 0 -91 37q-37 37 -37 91v256q0 52 37 90t91 38h128v128q0 52 -38 90t-90 38h-384q-53 0 -91 -38q-37 -38 -37 -90v-128h128q52 0 90 -38q38 -37 38 -90v-256q0 -53 -38 -91q-37 -37 -90 -37h-640z" />
    </font>
</defs>
</svg>
