<?xml version="1.0" standalone="no"?>
<!DOCTYPE svg PUBLIC "-//W3C//DTD SVG 1.1//EN" "http://www.w3.org/Graphics/SVG/1.1/DTD/svg11.dtd" >
<svg xmlns="http://www.w3.org/2000/svg" xmlns:xlink="http://www.w3.org/1999/xlink" version="1.1">
<metadata>
Created by FontForge 20201107 at Fri Jul 20 05:07:43 2012
 By www-data
(c) 1999 Ray Larabie. See attached license agreement for more information. If EULA is missing, visit www.larabiefonts.com for an updated version of this font.
</metadata>
<defs>
<font id="MailRayStuff-Regular" horiz-adv-x="387" >
  <font-face 
    font-family="Mail Ray Stuff"
    font-weight="400"
    font-stretch="normal"
    units-per-em="1000"
    panose-1="4 1 5 6 0 0 0 2 0 4"
    ascent="746"
    descent="-254"
    cap-height="689"
    bbox="-133 -253 1449 946"
    underline-thickness="20"
    underline-position="-143"
    unicode-range="U+0020-2212"
  />
<missing-glyph horiz-adv-x="653" 
d="M129 -110q-97 0 -97 84v778q0 85 97 85h393q98 0 98 -85v-778q0 -84 -98 -84h-393zM250 533q16 40 60 40q10 0 25.5 -2.5t29.5 -8t24.5 -15t10.5 -23.5q0 -17 -6.5 -28t-18.5 -19.5t-28 -15t-35 -12.5q-33 -11 -54.5 -26.5t-37.5 -38.5t-27.5 -56.5t-24.5 -80.5l145 -39
q0 15 4 30q10 38 32.5 61t50 40.5t56.5 32t53.5 35t40 51t15.5 78.5q0 34 -17 68t-50 61t-82.5 43.5t-113.5 16.5q-73 0 -124.5 -36.5t-74.5 -109.5zM216 4q16 0 33.5 5.5t31 16.5t22.5 26.5t9 36.5q0 19 -8.5 36.5t-23.5 30.5t-35 21t-42 8q-18 0 -34.5 -6t-29.5 -17
t-21 -27t-8 -36t8.5 -37t23.5 -30t34 -20.5t40 -7.5z" />
    <glyph glyph-name=".notdef" horiz-adv-x="653" 
d="M129 -110q-97 0 -97 84v778q0 85 97 85h393q98 0 98 -85v-778q0 -84 -98 -84h-393zM250 533q16 40 60 40q10 0 25.5 -2.5t29.5 -8t24.5 -15t10.5 -23.5q0 -17 -6.5 -28t-18.5 -19.5t-28 -15t-35 -12.5q-33 -11 -54.5 -26.5t-37.5 -38.5t-27.5 -56.5t-24.5 -80.5l145 -39
q0 15 4 30q10 38 32.5 61t50 40.5t56.5 32t53.5 35t40 51t15.5 78.5q0 34 -17 68t-50 61t-82.5 43.5t-113.5 16.5q-73 0 -124.5 -36.5t-74.5 -109.5zM216 4q16 0 33.5 5.5t31 16.5t22.5 26.5t9 36.5q0 19 -8.5 36.5t-23.5 30.5t-35 21t-42 8q-18 0 -34.5 -6t-29.5 -17
t-21 -27t-8 -36t8.5 -37t23.5 -30t34 -20.5t40 -7.5z" />
    <glyph glyph-name=".null" horiz-adv-x="0" 
 />
    <glyph glyph-name="nonmarkingreturn" horiz-adv-x="230" 
 />
    <glyph glyph-name="space" unicode=" " horiz-adv-x="275" 
 />
    <glyph glyph-name="exclam" unicode="!" horiz-adv-x="241" 
d="M190 684q-2 -20 -3.5 -54.5t-3 -77.5t-2.5 -90t-1 -91q0 -45 1 -80.5t3 -58.5h-148q-2 21 -3.5 57t-3 79t-2 90t-0.5 90q0 45 1.5 81t3.5 55h158zM211 79q0 -17 -7.5 -31.5t-20 -25t-28.5 -16.5t-34 -6t-34 6t-28 16.5t-19.5 25t-7.5 31.5q0 33 25.5 56t63.5 23
q18 0 34 -6t28.5 -16.5t20 -25t7.5 -31.5z" />
    <glyph glyph-name="quotedbl" unicode="&#x22;" horiz-adv-x="420" 
d="M243 542q-3 62 -23 100l142 71q34 -68 39 -162zM32 503q-7 36 -12 59t-9 38t-7 23.5t-6 14.5l142 73q12 -18 22.5 -64.5t23.5 -109.5z" />
    <glyph glyph-name="numbersign" unicode="#" horiz-adv-x="371" 
d="M266 694q2 -5 2 -10.5v-10.5v-14v-24q12 1 21.5 1.5t17.5 0.5v-129q-15 0 -33 -3l4 -76q20 5 33.5 11t22.5 12l21 -122q-10 -7 -69 -19l4 -100l-61 -12l-5 100l-69 -12l4 -63l-61 -17l-3 72l-54 -6v124l47 7l-4 49q-48 -21 -58 -21v130q7 3 17.5 8t25.5 10q-3 13 -5 25.5
t-6 23.5l53 63q6 -22 10.5 -44.5t8.5 -45.5q21 8 40 12.5t36 9.5q-1 17 -2.5 32.5t-5.5 29.5zM212 495l-67 -19l3 -68q20 2 37 4.5t32 5.5z" />
    <glyph glyph-name="dollar" unicode="$" horiz-adv-x="605" 
d="M495 461q-19 13 -86 13q-26 0 -53.5 -2t-53 -6t-48 -10t-37.5 -14q190 0 283 -36.5t93 -129.5q0 -120 -165 -157l2 -44l-158 -9l-3 49q-14 2 -42 4t-59 4.5t-59.5 5t-41.5 4.5l25 156q69 -11 123.5 -16.5t96.5 -5.5q79 0 117 18q-28 6 -73 8.5t-105 2.5q-63 0 -106.5 7
t-70.5 22t-39.5 38t-12.5 56q0 32 16 63t45.5 57.5t70.5 47t91 32.5q-5 43 -15 65l143 69q21 -45 30 -123q25 -1 51.5 -3.5t50 -6t42 -8.5t27.5 -11z" />
    <glyph glyph-name="percent" unicode="%" horiz-adv-x="544" 
d="M101 636q18 0 33 -7.5t26 -20.5t17 -30t6 -35q0 -20 -7 -36.5t-18 -29t-26 -19.5t-31 -7q-17 0 -31.5 7.5t-25 20t-17 29t-6.5 35.5q0 18 6 35t16.5 30t25 20.5t32.5 7.5zM505 538q-36 -61 -78.5 -126t-86.5 -128t-88.5 -120t-84.5 -102l-125 97q85 106 170 219.5
t163 249.5zM510 79q0 -17 -7.5 -31.5t-20 -25t-28.5 -16.5t-34 -6t-34 6t-28.5 16.5t-20 25t-7.5 31.5q0 33 26.5 56t63.5 23q38 0 64 -23t26 -56z" />
    <glyph glyph-name="ampersand" unicode="&#x26;" horiz-adv-x="653" 
d="M634 256q-11 -21 -20.5 -40.5t-19.5 -36.5q16 -12 28.5 -23t23.5 -21l-116 -109l-33 31q-95 -83 -225 -83q-45 0 -86.5 16t-73.5 43.5t-51.5 63.5t-19.5 77q0 112 87 178q-41 70 -41 154q0 42 15.5 78t42.5 63t63.5 42t78.5 15q46 0 84 -14t65.5 -40.5t42.5 -63.5t15 -83
q0 -118 -106 -185l74 -50l27 54zM269 432q66 34 66 71q0 27 -11 35t-37 8q-42 0 -42 -40q0 -35 24 -74zM359 153q-43 26 -73.5 46t-50.5 36q-36 -27 -36 -61q0 -8 7.5 -15.5t19 -13.5t24 -9.5t22.5 -3.5q48 0 87 21z" />
    <glyph glyph-name="quotesingle" unicode="'" horiz-adv-x="245" 
d="M45 496q0 36 -10.5 70t-33.5 79l139 74q33 -51 46.5 -110t13.5 -126z" />
    <glyph glyph-name="parenleft" unicode="(" horiz-adv-x="298" 
d="M280 612q-21 -12 -39.5 -40.5t-32.5 -65t-22 -78t-8 -79.5q0 -47 9 -92.5t24.5 -83t37.5 -64t49 -35.5l-52 -150q-51 17 -93 57t-71.5 96t-45.5 125.5t-16 146.5q0 64 14 126.5t39 117t59.5 96t76.5 63.5z" />
    <glyph glyph-name="parenright" unicode=")" horiz-adv-x="342" 
d="M169 735q149 -141 149 -379q0 -64 -10.5 -119.5t-32.5 -106.5t-57 -99t-84 -97l-112 112q38 37 64.5 72.5t42.5 72.5t23 77t7 88q0 171 -99 264z" />
    <glyph glyph-name="asterisk" unicode="*" horiz-adv-x="397" 
d="M8 505q17 9 32.5 20.5t27.5 25.5q-10 10 -24.5 17t-31.5 13l65 109q10 -4 19.5 -9t21 -12t26 -16.5t34.5 -22.5q19 30 40.5 57t44.5 52l89 -89q-17 -19 -32 -39t-29 -40q23 -2 46 -6t47 -8l-27 -125q-20 5 -41 9t-43 7q7 -37 24 -67l-109 -65q-17 32 -26.5 65.5
t-17.5 67.5q-17 -20 -39.5 -34t-40.5 -23z" />
    <glyph glyph-name="plus" unicode="+" horiz-adv-x="388" 
d="M264 433l88 -4v-158l-92 4l-3 -97l-150 23v83l-84 4v159l84 -5v79h157v-88z" />
    <glyph glyph-name="comma" unicode="," horiz-adv-x="221" 
d="M71 -84q34 38 43.5 60.5t9.5 32.5q0 2 -0.5 5.5t-1.5 8.5q-11 -3 -20 -3q-35 0 -57 27.5t-22 63.5q0 18 8 33.5t21 27t30 18t35 6.5q42 0 65 -29t23 -74q0 -55 -35 -103.5t-99 -73.5z" />
    <glyph glyph-name="hyphen" unicode="-" horiz-adv-x="409" 
d="M354 245q-194 12 -312 12v159q63 0 143 -3.5t180 -9.5z" />
    <glyph glyph-name="period" unicode="." horiz-adv-x="264" 
d="M231 66q0 -40 -29 -66.5t-69 -26.5t-68.5 26.5t-28.5 66.5q0 19 7.5 36t21 29.5t31 19.5t37.5 7q19 0 37 -7t31.5 -19.5t21.5 -29.5t8 -36z" />
    <glyph glyph-name="slash" unicode="/" horiz-adv-x="461" 
d="M461 649q-23 -76 -55 -161t-73 -172t-90.5 -172t-107.5 -160l-123 100q55 69 101 149t84 163.5t68.5 167t55.5 160.5z" />
    <glyph glyph-name="zero" unicode="0" horiz-adv-x="590" 
d="M279 717q55 0 98 -22t75.5 -58.5t55 -84t37 -99t21 -103.5t6.5 -97q0 -72 -16.5 -129.5t-48 -97t-78 -60.5t-105.5 -21q-68 0 -123.5 37t-95.5 100.5t-62 147.5t-22 179q0 72 17 129t50 97t81 61t110 21zM273 558q-96 0 -96 -142q0 -57 11.5 -113t31.5 -99.5t48.5 -70.5
t61.5 -27q85 0 85 143q0 58 -10.5 113.5t-29.5 99t-45 70t-57 26.5z" />
    <glyph glyph-name="one" unicode="1" horiz-adv-x="305" 
d="M60 716q214 -12 214 -346q0 -23 -2.5 -57.5t-5.5 -73t-7.5 -79t-7.5 -75.5t-5.5 -62t-2.5 -38l-158 7q0 10 2 35.5t5.5 59.5t7.5 73.5t7.5 77.5t5.5 71.5t2 56.5q0 187 -62 192z" />
    <glyph glyph-name="two" unicode="2" horiz-adv-x="472" 
d="M40 598q32 57 80 84t127 27q45 0 82.5 -17.5t63.5 -47t40.5 -66.5t14.5 -76q0 -34 -2 -57.5t-7 -41.5t-13 -32t-19 -29q-8 -10 -24.5 -28.5t-37.5 -41t-44 -46.5t-44 -46.5t-37.5 -41t-23.5 -28.5q24 2 49 3.5t51 1.5q48 0 89 -4t68 -11l-31 -153q-45 12 -97 17.5
t-115 5.5h-50t-69.5 -1t-70 -2t-50.5 -3q10 56 24.5 100t41.5 88t70.5 94.5t112.5 119.5q70 70 70 107q0 14 -5 28t-13.5 25t-20.5 18t-26 7q-30 0 -48 -32z" />
    <glyph glyph-name="three" unicode="3" horiz-adv-x="507" 
d="M25 588q31 64 90 101t131 37q51 0 93.5 -14t74 -40.5t49 -64.5t17.5 -86q0 -54 -20 -89t-51 -55q15 -9 28.5 -26t23 -38.5t15 -46t5.5 -48.5q0 -52 -19 -95t-53 -73.5t-79.5 -47.5t-97.5 -17q-40 0 -75.5 10.5t-63.5 30t-48 47t-29 61.5l153 40q9 -32 63 -32
q39 0 64.5 18t25.5 47q0 99 -83 99q-13 0 -26 -2.5t-29 -6.5q0 40 -2 79.5t-5 77.5q36 -11 64 -11q35 0 60 13.5t25 39.5q0 33 -21 52.5t-55 19.5q-67 0 -88 -50z" />
    <glyph glyph-name="four" unicode="4" horiz-adv-x="539" 
d="M461 697q0 -38 6 -267h57v-158h-54q0 -94 -4.5 -165t-12.5 -122l-156 27q15 94 15 262q-85 1 -174.5 1.5t-189.5 0.5q54 106 94.5 206t68.5 200l152 -44q-17 -63 -33.5 -113.5t-32.5 -92.5h112q-3 115 -5 181t-2 84h159z" />
    <glyph glyph-name="five" unicode="5" horiz-adv-x="544" 
d="M378 538q-19 2 -52 3.5t-69 1.5h-35t-34 -1v-42q14 2 36 3t36 1q129 0 199 -55.5t70 -164.5q0 -55 -16 -96t-43.5 -71.5t-64 -53.5t-77.5 -42.5t-83.5 -38t-82.5 -40.5l-80 137q94 33 151 62t87.5 54.5t40.5 47.5t10 41q0 68 -88 68q-85 0 -250 -64q5 85 7.5 155t2.5 131
q0 69 -3 123q29 2 60.5 2.5t63.5 0.5q63 0 122.5 -2.5t107.5 -5.5z" />
    <glyph glyph-name="six" unicode="6" horiz-adv-x="541" 
d="M334 632q-158 -179 -158 -368q0 -143 113 -143q38 0 56 16t18 52q0 32 -21.5 50.5t-72.5 18.5l36 154q46 0 85.5 -16t68 -44.5t44.5 -67t16 -83.5q0 -56 -17 -100.5t-47.5 -75t-73 -46.5t-92.5 -16q-62 0 -112 22t-85.5 61.5t-54.5 95t-19 122.5q0 250 199 473z" />
    <glyph glyph-name="seven" unicode="7" horiz-adv-x="487" 
d="M229 544q-48 -3 -102 -4t-105 -1v155h489q-54 -81 -107.5 -164.5t-100.5 -171t-85 -180t-61 -191.5l-155 32q11 52 35 121.5t55.5 142.5t67 142t69.5 119z" />
    <glyph glyph-name="eight" unicode="8" horiz-adv-x="524" 
d="M342 614l23 38l138 -70q-6 -11 -14 -23.5t-23 -31.5t-40 -48t-65 -73q33 -18 56 -43t37.5 -54.5t21.5 -61.5t7 -63q0 -97 -60.5 -150.5t-166.5 -53.5q-43 0 -81 14t-66 39t-44.5 59t-16.5 73q0 21 4.5 45.5t14 50t25 50.5t36.5 46q-51 29 -77.5 70t-26.5 101
q0 41 12.5 76.5t36.5 61t60 40t84 14.5q32 0 66.5 -6t70.5 -20zM229 471q18 17 36.5 39.5t34.5 50.5q-26 18 -56 18q-21 0 -41 -11.5t-20 -31.5q0 -16 11 -34.5t35 -30.5zM257 287q-22 -33 -32.5 -59.5t-10.5 -43.5q0 -27 17 -37.5t43 -10.5q17 0 35 12t18 40q0 24 -20 53
t-50 46z" />
    <glyph glyph-name="nine" unicode="9" horiz-adv-x="528" 
d="M198 294q-41 6 -75 25.5t-58 49t-37 67.5t-13 80q0 48 16 89t44.5 71t68.5 47t89 17q61 0 111.5 -20.5t86.5 -58t56 -89t20 -114.5q0 -66 -18 -132t-52 -129.5t-83.5 -123.5t-112.5 -113l-104 120q212 180 212 382q0 119 -117 119q-26 0 -42.5 -18t-16.5 -42
q0 -33 24 -55.5t57 -23.5z" />
    <glyph glyph-name="colon" unicode=":" horiz-adv-x="242" 
d="M120 541q19 0 36 -7.5t29 -20t19 -29.5t7 -35q0 -39 -26 -66.5t-65 -27.5q-19 0 -35.5 7.5t-28.5 20t-19 29.5t-7 37q0 18 7 35t19 29.5t28.5 20t35.5 7.5zM222 128q0 -20 -8 -36.5t-21 -29.5t-31 -20t-37 -7q-20 0 -37.5 7t-31 20t-21.5 29.5t-8 36.5q0 19 8 35.5
t21.5 29t31 19.5t37.5 7q19 0 37 -7t31 -19.5t21 -29t8 -35.5z" />
    <glyph glyph-name="semicolon" unicode=";" horiz-adv-x="246" 
d="M219 400q0 -39 -27.5 -65.5t-66.5 -26.5q-18 0 -35 7t-29.5 19.5t-20 29t-7.5 36.5q0 19 7.5 35.5t20 29t29.5 20t35 7.5q19 0 36.5 -7.5t30 -20t20 -29t7.5 -35.5zM107 -40q11 14 13.5 26.5t5.5 22.5q0 2 -0.5 5.5t-1.5 8.5q-9 -3 -20 -3q-36 0 -57.5 27.5t-21.5 63.5
q0 18 8 33.5t21 27t30 18t35 6.5q42 0 65 -29t23 -74q0 -27 -9.5 -53.5t-27 -49.5t-42 -42t-54.5 -32z" />
    <glyph glyph-name="less" unicode="&#x3c;" horiz-adv-x="513" 
d="M465 484l-179 -150l227 -160l-93 -129l-432 279l382 286z" />
    <glyph glyph-name="equal" unicode="=" horiz-adv-x="533" 
d="M497 381l-446 14v158l446 -14v-158zM500 155h-447v150l438 11z" />
    <glyph glyph-name="greater" unicode="&#x3e;" horiz-adv-x="530" 
d="M154 78l-96 127l180 150l-227 161l91 129l433 -281z" />
    <glyph glyph-name="question" unicode="?" horiz-adv-x="510" 
d="M38 520q5 100 70.5 152t180.5 52q52 0 91.5 -13t66.5 -36.5t41 -55t14 -68.5q0 -42 -12.5 -70t-31.5 -49t-40.5 -38t-40.5 -37t-31.5 -46.5t-12.5 -65.5v-9t1 -5t2 -5t3 -10h-152q0 48 3 83.5t12 62t26 47t46 39.5q32 21 49.5 38t17.5 44q0 23 -17 32t-57 9
q-32 0 -52 -16t-23 -42zM370 80q0 -20 -8.5 -36.5t-23 -28.5t-33 -18.5t-38.5 -6.5t-38 6.5t-32 18.5t-22.5 28.5t-8.5 36.5q0 19 8.5 35.5t22.5 28.5t32 18.5t38 6.5t38.5 -6.5t33 -18.5t23 -28.5t8.5 -35.5z" />
    <glyph glyph-name="at" unicode="@" horiz-adv-x="727" 
d="M344 461q26 0 44 -8t24 -17l7 22l68 -4q-2 -11 -4 -34t-4 -48.5t-3.5 -49.5t-1.5 -37q0 -26 11 -43t34 -17q25 0 41.5 12.5t26.5 34t14.5 51.5t4.5 66q0 41 -18.5 76.5t-50.5 61.5t-74.5 41t-89.5 15q-56 0 -102 -17.5t-78.5 -55t-50.5 -95.5t-18 -140q0 -49 21 -87.5
t52.5 -65.5t68 -43t67.5 -20l-15 -91q-50 3 -102 25t-94.5 61.5t-69.5 95t-27 125.5q0 100 25 175.5t70.5 126t109.5 76t143 25.5q67 0 127 -18t105.5 -54t72 -90t26.5 -127q0 -56 -13 -101t-36 -77t-54 -49.5t-68 -17.5q-48 0 -81 16.5t-47 41.5q-10 -14 -27.5 -21
t-47.5 -7q-19 0 -37.5 8.5t-33 25t-23.5 42t-9 59.5q0 75 33 113.5t84 38.5zM388 368q-17 5 -25 5q-12 0 -20 -5.5t-12.5 -14t-6.5 -18t-2 -16.5q0 -22 4.5 -38.5t28.5 -16.5q6 0 13.5 1t12.5 3q0 37 2.5 63.5t4.5 36.5z" />
    <glyph glyph-name="A" unicode="A" horiz-adv-x="651" 
d="M420 19q9 33 20.5 82.5t25.5 118.5q-29 -5 -61.5 -15t-66 -24t-66 -32t-61.5 -39q2 -23 8 -43t13 -40l-155 -36q-26 75 -42 163t-16 179q0 81 21.5 151t61.5 121.5t96 80.5t124 29q67 0 124.5 -30t99 -82t65 -121.5t23.5 -148.5q0 -20 -1 -46t-6.5 -66t-17.5 -97.5
t-34 -141.5zM472 382q-5 37 -18.5 69.5t-33 55.5t-45 36.5t-53.5 13.5q-34 0 -61 -17.5t-45.5 -47.5t-28.5 -71t-10 -88q0 -33 3 -61q30 21 68.5 39.5t78 32.5t77.5 24t68 14z" />
    <glyph glyph-name="B" unicode="B" horiz-adv-x="582" 
d="M417 400q34 -6 63.5 -20t50.5 -34t33 -47t12 -58q0 -66 -39 -119t-111.5 -89.5t-175.5 -56t-230 -19.5q4 45 8.5 93.5t8 97.5t5.5 97t2 92q0 51 -5.5 140t-16.5 225q39 5 90.5 7.5t117.5 2.5q142 0 209 -45.5t67 -131.5q0 -48 -21.5 -85t-67.5 -50zM189 552
q6 -45 9 -80.5t4 -61.5q24 3 47 12t41 21.5t29 28t11 32.5q0 53 -91 53q-13 0 -25 -1.5t-25 -3.5zM206 289q0 -35 -2 -76t-6 -89q38 3 76 14.5t68 28t49 36t19 38.5q0 53 -131 53q-20 0 -38 -1t-35 -4z" />
    <glyph glyph-name="C" unicode="C" horiz-adv-x="378" 
d="M317 560q-11 3 -23 3q-29 0 -52 -16t-39.5 -45.5t-25.5 -71t-9 -92.5q0 -213 193 -213l17 -158q-6 -1 -12.5 -1h-13.5q-86 0 -150 27t-106.5 76.5t-64 117.5t-21.5 151q0 84 20 154.5t56.5 121.5t89 79.5t117.5 28.5q11 0 21 -1t21 -2z" />
    <glyph glyph-name="D" unicode="D" horiz-adv-x="533" 
d="M32 -44q-8 40 -12 91t-4 114q0 274 60 565q101 0 182.5 -20t139.5 -58t89 -93.5t31 -126.5q0 -92 -42 -171.5t-110.5 -141t-155.5 -102.5t-178 -57zM176 165q28 16 56 47.5t51 69t37.5 77t14.5 70.5q0 105 -129 132q-30 -144 -30 -396z" />
    <glyph glyph-name="E" unicode="E" 
d="M316 559q-8 4 -30 4q-86 0 -110 -145q34 1 66 2.5t63 6.5l17 -159q-34 -4 -69.5 -5.5t-74.5 -2.5q31 -135 184 -135l17 -158q-87 0 -155.5 25.5t-116 73.5t-72 117t-24.5 155q0 84 20 154.5t56.5 121.5t89 79.5t117.5 28.5q11 0 21.5 -1t21.5 -2z" />
    <glyph glyph-name="F" unicode="F" horiz-adv-x="365" 
d="M316 557q-9 5 -24.5 9t-38.5 4q-81 0 -94 -148h163v-158h-161q1 -66 6.5 -128t16.5 -123l-159 -10q-4 43 -7.5 88.5t-6.5 89t-4.5 83t-1.5 69.5q0 402 225 402q48 0 83 -8.5t58 -21.5z" />
    <glyph glyph-name="G" unicode="G" horiz-adv-x="579" 
d="M381 514q-21 58 -77 58q-32 0 -57 -19t-42 -52t-26.5 -77.5t-9.5 -95.5q0 -44 13.5 -81t38 -64t58 -42t72.5 -15q14 0 27 7t22.5 19t15.5 27.5t6 32.5q0 25 -11.5 37.5t-40.5 12.5q-15 0 -26.5 -5.5t-31.5 -16.5l-27 137q21 15 50 22.5t53 7.5q41 0 75 -15t58 -41.5
t37.5 -63t13.5 -79.5q0 -49 -16 -92.5t-45.5 -76.5t-70 -52t-89.5 -19q-72 0 -134.5 27.5t-108 76t-71.5 114t-26 142.5q0 91 19 166t55 128t88.5 82.5t120.5 29.5q43 0 85 -13.5t75.5 -37t56 -55.5t27.5 -68z" />
    <glyph glyph-name="H" unicode="H" horiz-adv-x="513" 
d="M169 708q3 -14 6.5 -37t7.5 -52t7 -62.5t5 -67.5q21 32 53.5 46t67.5 14q44 0 77.5 -21t56.5 -55.5t34.5 -80.5t11.5 -95q0 -48 -5 -102.5t-11.5 -102.5t-12 -83.5t-6.5 -44.5l-157 13q7 66 11.5 109t6.5 71t3 44.5t1 29.5q0 158 -60 158q-16 0 -29 -16t-22 -60t-14 -122
t-5 -201h-159q0 263 -3 435t-21 260z" />
    <glyph glyph-name="I" unicode="I" horiz-adv-x="244" 
d="M203 685v-84t-0.5 -119t-1 -135.5t-1 -136t-0.5 -119v-84.5h-158v84.5t0.5 119t1 136t1 135.5t0.5 118.5v84.5h158z" />
    <glyph glyph-name="J" unicode="J" horiz-adv-x="444" 
d="M319 705q107 -185 107 -462q0 -127 -55 -195t-158 -68q-46 0 -83 17t-63 47.5t-40 72.5t-14 92h159q0 -35 9 -52.5t32 -17.5q29 0 41.5 22t12.5 82q0 235 -86 384z" />
    <glyph glyph-name="K" unicode="K" horiz-adv-x="475" 
d="M397 601q-15 -13 -34.5 -36t-40.5 -51t-41.5 -58.5t-36.5 -58.5t-26 -51t-10 -36q0 -9 15 -24t38.5 -33t53.5 -37t59.5 -36t56 -30t44.5 -19l-44 -152q-61 18 -119.5 47.5t-106.5 77.5q3 -18 3.5 -42.5t0.5 -39.5h-158q0 27 -1 76t-3 110.5t-4.5 129.5t-6 132t-7 119
t-7.5 90l158 8q2 -27 3 -54.5t1 -56.5q20 42 47.5 79.5t65.5 67.5z" />
    <glyph glyph-name="L" unicode="L" horiz-adv-x="321" 
d="M239 706q-4 -16 -10.5 -48.5t-13.5 -73.5t-14 -87.5t-13 -91.5t-9.5 -85.5t-3.5 -68.5q0 -81 33.5 -115t112.5 -34v-158q-147 0 -226 79.5t-79 227.5q0 29 3.5 72t9.5 91t13 97t14 92t13.5 74.5t10.5 44.5z" />
    <glyph glyph-name="M" unicode="M" horiz-adv-x="800" 
d="M547 4q38 91 58 190t20 217q0 154 -67 154q-47 0 -71.5 -81t-24.5 -226q0 -142 20 -211h-167q9 30 13 81.5t4 126.5q0 151 -25 230.5t-68 79.5q-69 0 -69 -154q0 -118 20 -217t59 -190l-157 -29q-25 63 -40.5 110.5t-24.5 94t-12 100.5t-3 131q0 72 15.5 129.5t44.5 98.5
t71 63t96 22q48 0 92.5 -30t66.5 -84q10 27 27.5 48t39 36t45.5 22.5t48 7.5q52 0 94 -22t71 -63t44.5 -98.5t15.5 -129.5q0 -139 -22 -243.5t-58 -192.5z" />
    <glyph glyph-name="N" unicode="N" horiz-adv-x="536" 
d="M188 718q-6 -17 -8.5 -37.5t-2.5 -35.5q22 37 56.5 54.5t76.5 17.5q100 0 153.5 -67.5t53.5 -205.5q0 -219 -108 -484l-147 60q19 45 37 105t32 121t22.5 116.5t8.5 90.5q0 105 -57 105q-65 0 -100 -73.5t-35 -199.5q0 -51 9.5 -117t26.5 -132l-154 -54q-19 90 -28 194
t-9 225q0 88 6 159.5t17 131.5z" />
    <glyph glyph-name="O" unicode="O" horiz-adv-x="613" 
d="M324 722q63 0 114 -23t86 -64.5t54 -100t19 -130.5q0 -87 -23.5 -169t-65.5 -145.5t-99 -102.5t-123 -39q-63 0 -113.5 25t-86 70t-54.5 107.5t-19 137.5q0 82 23.5 160t65.5 139t99 98t123 37zM332 562q-33 0 -62.5 -26t-51.5 -67t-35 -90.5t-13 -95.5q0 -34 7.5 -65.5
t22 -55.5t34.5 -38.5t45 -14.5q33 0 62 26.5t50.5 68.5t34 93t12.5 101q0 75 -27.5 119.5t-78.5 44.5z" />
    <glyph glyph-name="P" unicode="P" horiz-adv-x="511" 
d="M5 723q148 0 243.5 -15t151 -47.5t77.5 -84t22 -124.5q0 -100 -73 -171t-224 -103q2 -45 3 -88t1 -83h-159q0 93 -2 189t-7 188.5t-13 178.5t-20 160zM177 564q8 -61 12 -119t6 -107q146 35 146 138q0 19 -12.5 35.5t-34.5 28t-52 18t-65 6.5z" />
    <glyph glyph-name="Q" unicode="Q" horiz-adv-x="664" 
d="M456 -147q-23 22 -46 62t-32 85q-29 -19 -64 -28.5t-71 -9.5q-53 0 -96 20t-73 56t-46.5 85.5t-16.5 109.5q0 50 13 104.5t37.5 107t59.5 100.5t79.5 84t97 57.5t111.5 21.5q57 0 102 -21t75.5 -57t47 -83.5t16.5 -101.5q0 -42 -8 -87t-25.5 -89.5t-45 -87.5t-67.5 -80
q4 -33 10 -54t14 -35t17 -23.5t19 -19.5zM311 365q42 -13 75 -42t48 -69q29 52 42 102.5t13 96.5q0 48 -25 71.5t-67 23.5q-39 0 -79.5 -29.5t-73.5 -74.5t-54 -98t-21 -101q0 -51 23.5 -86t65.5 -35q32 0 50 6.5t32 20.5q-15 33 -37 52t-45 24z" />
    <glyph glyph-name="R" unicode="R" horiz-adv-x="522" 
d="M35 719q18 2 41.5 3.5t52.5 1.5q83 0 150 -16.5t114.5 -48.5t73 -79t25.5 -108q0 -78 -42 -135t-120 -86q13 -17 35 -38.5t49 -45.5t57 -48.5t60 -47.5l-98 -124q-18 22 -49 53t-65.5 62.5t-68 59.5t-55.5 44q-1 -54 -2.5 -98t-4.5 -82h-154q9 184 9 380q0 88 -1.5 176.5
t-6.5 176.5zM195 558q4 -42 4.5 -95t0.5 -113q63 15 98 40t35 79q0 42 -34 62.5t-104 26.5z" />
    <glyph glyph-name="S" unicode="S" horiz-adv-x="439" 
d="M252 553q-14 17 -35 17q-41 0 -41 -52q0 -33 13.5 -57t35.5 -45t49.5 -41t55.5 -45q50 -45 68 -86t18 -81q0 -47 -17 -88.5t-47 -73t-70.5 -49.5t-86.5 -18q-74 0 -139 50l99 124q19 -16 40 -16q27 0 44.5 16t17.5 47q0 9 -4.5 19t-15 22t-28 27.5t-43.5 36.5
q-30 24 -57 50t-47.5 57t-32 68t-11.5 83q0 45 13.5 82.5t39.5 64.5t63.5 42.5t85.5 15.5q36 0 72.5 -10.5t56.5 -33.5z" />
    <glyph glyph-name="T" unicode="T" horiz-adv-x="357" 
d="M346 548h-96q2 -75 3.5 -164.5t1.5 -198.5v-182h-158q0 400 -6 547h-79v158h40.5t58.5 -0.5t67 -0.5t67.5 -0.5t59 -0.5h41.5v-158z" />
    <glyph glyph-name="U" unicode="U" horiz-adv-x="652" 
d="M577 712q12 -35 22.5 -77t19 -86.5t13 -90.5t4.5 -90q0 -81 -22 -150.5t-61.5 -120.5t-95.5 -80t-124 -29q-69 0 -126 30t-98.5 81.5t-64.5 120.5t-23 148q0 91 16.5 179t42.5 173l154 -36q-22 -70 -38.5 -150.5t-16.5 -165.5q0 -45 11 -85t31.5 -70.5t48.5 -48.5t63 -18
q33 0 59.5 17t45 47t29 70.5t10.5 87.5q0 17 -3 53.5t-10 80.5t-17 90t-24 83z" />
    <glyph glyph-name="V" unicode="V" horiz-adv-x="591" 
d="M585 697q-9 -122 -29.5 -223t-56.5 -193t-90 -181.5t-130 -188.5q-121 224 -191.5 414t-90.5 355l157 20q14 -106 50 -231t96 -264q54 112 85.5 240t42.5 266z" />
    <glyph glyph-name="W" unicode="W" horiz-adv-x="802" 
d="M707 713q25 -64 41 -111.5t25 -94.5t12 -101t3 -130q0 -71 -15.5 -128.5t-44.5 -98t-71 -62.5t-95 -22q-48 0 -90 30.5t-69 81.5q-26 -51 -69 -81.5t-91 -30.5q-54 0 -96 22t-71.5 62.5t-44.5 98t-15 128.5q0 78 2.5 134t11 104t24.5 94.5t43 104.5l156 -30
q-78 -177 -78 -407q0 -153 68 -153q45 0 70.5 79t25.5 227q0 75 -5 127t-15 85h167q-9 -29 -13 -81.5t-4 -127.5q0 -152 24 -230.5t69 -78.5q67 0 67 153q0 230 -78 407z" />
    <glyph glyph-name="X" unicode="X" horiz-adv-x="599" 
d="M549 702q6 -44 6 -88q0 -26 -2.5 -58.5t-10.5 -64.5t-23.5 -59.5t-40.5 -43.5q26 -14 44 -39.5t30 -59t19 -71.5t11 -77t5 -75.5t1 -66.5h-158q0 284 -88 284q-26 0 -50.5 -27.5t-44 -70t-32 -94t-14.5 -100.5l-158 7q2 39 10 90t24 102t41 96.5t60 72.5q-49 22 -81.5 62
t-51.5 89.5t-27.5 104t-9.5 105.5h158q0 -53 10 -100.5t28.5 -84.5t44 -58.5t57.5 -21.5q91 0 91 162q0 17 -1 32.5t-3 29.5z" />
    <glyph glyph-name="Y" unicode="Y" horiz-adv-x="551" 
d="M539 694q3 -41 3 -77q0 -71 -12 -122t-35 -87.5t-58 -60t-81 -38.5q-4 -66 -5.5 -125t-1.5 -116q0 -21 0.5 -42t0.5 -41l-159 5q5 72 7 139t2 147v17.5t-2 17.5q-41 11 -75.5 42t-59 74.5t-38 95t-13.5 104.5q0 43 9 85l154 -36q-4 -13 -5 -27t-1 -29q0 -31 7 -61t20 -54
t32 -38.5t43 -14.5q36 0 58.5 14t34.5 35.5t16.5 49t4.5 54.5q0 74 -4 89h158z" />
    <glyph glyph-name="Z" unicode="Z" horiz-adv-x="568" 
d="M302 555q-29 -4 -60 -5.5t-63 -1.5q-29 0 -57.5 1t-57.5 3v159q51 -3 102.5 -4t102.5 -1q76 0 151 2t151 6q-29 -65 -68.5 -134t-83.5 -140t-89 -144t-85 -146q45 4 88.5 6t89.5 2q49 0 94 -3v-157q-24 0 -66 -0.5t-93 -1t-107 -1t-107 -2t-93.5 -3t-66.5 -3.5
q34 69 113.5 211t204.5 357z" />
    <glyph glyph-name="bracketleft" unicode="[" horiz-adv-x="354" 
d="M245 569h-62q18 -134 18 -302q0 -80 -3 -180q61 2 100 3t56 1v-158q-19 0 -56 -0.5t-82.5 -1.5t-94 -2.5t-89.5 -2.5q7 139 10 224t3 127q0 21 -1 56.5t-2.5 78t-3.5 88.5t-5 89t-6.5 79t-7.5 59h226v-158z" />
    <glyph glyph-name="backslash" unicode="\" horiz-adv-x="510" 
d="M376 45q-4 6 -26.5 40t-56.5 84.5t-74 112.5t-80 124.5t-74.5 119.5t-56.5 98l139 73q21 -40 55 -96t73 -117t79 -122t73 -110.5t56 -83t27 -39.5z" />
    <glyph glyph-name="bracketright" unicode="]" horiz-adv-x="379" 
d="M63 558v158q17 0 53.5 -0.5t76 -1t76 -1t53.5 -0.5q0 -35 1 -96t3 -135t3.5 -154.5t3.5 -154.5t3 -135t1 -95h-35.5t-53 0.5t-62 1t-63 1t-55.5 0.5h-39v158q55 0 92 -0.5t56 -1.5l-12 453z" />
    <glyph glyph-name="asciicircum" unicode="^" horiz-adv-x="464" 
d="M321 273q-26 24 -54.5 67t-52.5 94q-14 -23 -26 -52t-16 -49l-145 65q3 11 13 33t24.5 50.5t32.5 60.5t35.5 63.5t34.5 59t30 46.5q27 -50 62.5 -102.5t70 -98.5t62 -79t38.5 -44z" />
    <glyph glyph-name="underscore" unicode="_" horiz-adv-x="517" 
d="M517 -145q-13 0 -35.5 -0.5t-49.5 -1t-56.5 -1t-57 -1t-50.5 -1t-36 -0.5q-66 0 -122 3.5t-102 10.5l22 156q85 -12 205 -12q20 0 59.5 1t83 1.5t82.5 1.5t57 1v-158z" />
    <glyph glyph-name="grave" unicode="`" horiz-adv-x="293" 
d="M279 837l-61 -81l-207 91l68 99z" />
    <glyph glyph-name="a" unicode="a" horiz-adv-x="651" 
d="M19 0zM420 19q9 33 20.5 82.5t25.5 118.5q-29 -5 -61.5 -15t-66 -24t-66 -32t-61.5 -39q2 -23 8 -43t13 -40l-155 -36q-26 75 -42 163t-16 179q0 81 21.5 151t61.5 121.5t96 80.5t124 29q67 0 124.5 -30t99 -82t65 -121.5t23.5 -148.5q0 -20 -1 -46t-6.5 -66t-17.5 -97.5
t-34 -141.5zM472 382q-5 37 -18.5 69.5t-33 55.5t-45 36.5t-53.5 13.5q-34 0 -61 -17.5t-45.5 -47.5t-28.5 -71t-10 -88q0 -33 3 -61q30 21 68.5 39.5t78 32.5t77.5 24t68 14z" />
    <glyph glyph-name="b" unicode="b" horiz-adv-x="582" 
d="M20 0zM417 400q34 -6 63.5 -20t50.5 -34t33 -47t12 -58q0 -66 -39 -119t-111.5 -89.5t-175.5 -56t-230 -19.5q4 45 8.5 93.5t8 97.5t5.5 97t2 92q0 51 -5.5 140t-16.5 225q39 5 90.5 7.5t117.5 2.5q142 0 209 -45.5t67 -131.5q0 -48 -21.5 -85t-67.5 -50zM189 552
q6 -45 9 -80.5t4 -61.5q24 3 47 12t41 21.5t29 28t11 32.5q0 53 -91 53q-13 0 -25 -1.5t-25 -3.5zM206 289q0 -35 -2 -76t-6 -89q38 3 76 14.5t68 28t49 36t19 38.5q0 53 -131 53q-20 0 -38 -1t-35 -4z" />
    <glyph glyph-name="c" unicode="c" horiz-adv-x="378" 
d="M10 0zM317 560q-11 3 -23 3q-29 0 -52 -16t-39.5 -45.5t-25.5 -71t-9 -92.5q0 -213 193 -213l17 -158q-6 -1 -12.5 -1h-13.5q-86 0 -150 27t-106.5 76.5t-64 117.5t-21.5 151q0 84 20 154.5t56.5 121.5t89 79.5t117.5 28.5q11 0 21 -1t21 -2z" />
    <glyph glyph-name="d" unicode="d" horiz-adv-x="533" 
d="M16 0zM32 -44q-8 40 -12 91t-4 114q0 274 60 565q101 0 182.5 -20t139.5 -58t89 -93.5t31 -126.5q0 -92 -42 -171.5t-110.5 -141t-155.5 -102.5t-178 -57zM176 165q28 16 56 47.5t51 69t37.5 77t14.5 70.5q0 105 -129 132q-30 -144 -30 -396z" />
    <glyph glyph-name="e" unicode="e" 
d="M11 0zM316 559q-8 4 -30 4q-86 0 -110 -145q34 1 66 2.5t63 6.5l17 -159q-34 -4 -69.5 -5.5t-74.5 -2.5q31 -135 184 -135l17 -158q-87 0 -155.5 25.5t-116 73.5t-72 117t-24.5 155q0 84 20 154.5t56.5 121.5t89 79.5t117.5 28.5q11 0 21.5 -1t21.5 -2z" />
    <glyph glyph-name="f" unicode="f" horiz-adv-x="365" 
d="M5 3zM316 557q-9 5 -24.5 9t-38.5 4q-81 0 -94 -148h163v-158h-161q1 -66 6.5 -128t16.5 -123l-159 -10q-4 43 -7.5 88.5t-6.5 89t-4.5 83t-1.5 69.5q0 402 225 402q48 0 83 -8.5t58 -21.5z" />
    <glyph glyph-name="g" unicode="g" horiz-adv-x="579" 
d="M11 0zM381 514q-21 58 -77 58q-32 0 -57 -19t-42 -52t-26.5 -77.5t-9.5 -95.5q0 -44 13.5 -81t38 -64t58 -42t72.5 -15q14 0 27 7t22.5 19t15.5 27.5t6 32.5q0 25 -11.5 37.5t-40.5 12.5q-15 0 -26.5 -5.5t-31.5 -16.5l-27 137q21 15 50 22.5t53 7.5q41 0 75 -15
t58 -41.5t37.5 -63t13.5 -79.5q0 -49 -16 -92.5t-45.5 -76.5t-70 -52t-89.5 -19q-72 0 -134.5 27.5t-108 76t-71.5 114t-26 142.5q0 91 19 166t55 128t88.5 82.5t120.5 29.5q43 0 85 -13.5t75.5 -37t56 -55.5t27.5 -68z" />
    <glyph glyph-name="h" unicode="h" horiz-adv-x="513" 
d="M13 0zM169 708q3 -14 6.5 -37t7.5 -52t7 -62.5t5 -67.5q21 32 53.5 46t67.5 14q44 0 77.5 -21t56.5 -55.5t34.5 -80.5t11.5 -95q0 -48 -5 -102.5t-11.5 -102.5t-12 -83.5t-6.5 -44.5l-157 13q7 66 11.5 109t6.5 71t3 44.5t1 29.5q0 158 -60 158q-16 0 -29 -16t-22 -60
t-14 -122t-5 -201h-159q0 263 -3 435t-21 260z" />
    <glyph glyph-name="i" unicode="i" horiz-adv-x="244" 
d="M42 7zM203 685v-84t-0.5 -119t-1 -135.5t-1 -136t-0.5 -119v-84.5h-158v84.5t0.5 119t1 136t1 135.5t0.5 118.5v84.5h158z" />
    <glyph glyph-name="j" unicode="j" horiz-adv-x="444" 
d="M13 0zM319 705q107 -185 107 -462q0 -127 -55 -195t-158 -68q-46 0 -83 17t-63 47.5t-40 72.5t-14 92h159q0 -35 9 -52.5t32 -17.5q29 0 41.5 22t12.5 82q0 235 -86 384z" />
    <glyph glyph-name="k" unicode="k" horiz-adv-x="475" 
d="M22 0zM397 601q-15 -13 -34.5 -36t-40.5 -51t-41.5 -58.5t-36.5 -58.5t-26 -51t-10 -36q0 -9 15 -24t38.5 -33t53.5 -37t59.5 -36t56 -30t44.5 -19l-44 -152q-61 18 -119.5 47.5t-106.5 77.5q3 -18 3.5 -42.5t0.5 -39.5h-158q0 27 -1 76t-3 110.5t-4.5 129.5t-6 132
t-7 119t-7.5 90l158 8q2 -27 3 -54.5t1 -56.5q20 42 47.5 79.5t65.5 67.5z" />
    <glyph glyph-name="l" unicode="l" horiz-adv-x="321" 
d="M16 0zM239 706q-4 -16 -10.5 -48.5t-13.5 -73.5t-14 -87.5t-13 -91.5t-9.5 -85.5t-3.5 -68.5q0 -81 33.5 -115t112.5 -34v-158q-147 0 -226 79.5t-79 227.5q0 29 3.5 72t9.5 91t13 97t14 92t13.5 74.5t10.5 44.5z" />
    <glyph glyph-name="m" unicode="m" horiz-adv-x="800" 
d="M12 0zM547 4q38 91 58 190t20 217q0 154 -67 154q-47 0 -71.5 -81t-24.5 -226q0 -142 20 -211h-167q9 30 13 81.5t4 126.5q0 151 -25 230.5t-68 79.5q-69 0 -69 -154q0 -118 20 -217t59 -190l-157 -29q-25 63 -40.5 110.5t-24.5 94t-12 100.5t-3 131q0 72 15.5 129.5
t44.5 98.5t71 63t96 22q48 0 92.5 -30t66.5 -84q10 27 27.5 48t39 36t45.5 22.5t48 7.5q52 0 94 -22t71 -63t44.5 -98.5t15.5 -129.5q0 -139 -22 -243.5t-58 -192.5z" />
    <glyph glyph-name="n" unicode="n" horiz-adv-x="536" 
d="M15 0zM188 718q-6 -17 -8.5 -37.5t-2.5 -35.5q22 37 56.5 54.5t76.5 17.5q100 0 153.5 -67.5t53.5 -205.5q0 -219 -108 -484l-147 60q19 45 37 105t32 121t22.5 116.5t8.5 90.5q0 105 -57 105q-65 0 -100 -73.5t-35 -199.5q0 -51 9.5 -117t26.5 -132l-154 -54
q-19 90 -28 194t-9 225q0 88 6 159.5t17 131.5z" />
    <glyph glyph-name="o" unicode="o" horiz-adv-x="613" 
d="M13 0zM324 722q63 0 114 -23t86 -64.5t54 -100t19 -130.5q0 -87 -23.5 -169t-65.5 -145.5t-99 -102.5t-123 -39q-63 0 -113.5 25t-86 70t-54.5 107.5t-19 137.5q0 82 23.5 160t65.5 139t99 98t123 37zM332 562q-33 0 -62.5 -26t-51.5 -67t-35 -90.5t-13 -95.5
q0 -34 7.5 -65.5t22 -55.5t34.5 -38.5t45 -14.5q33 0 62 26.5t50.5 68.5t34 93t12.5 101q0 75 -27.5 119.5t-78.5 44.5z" />
    <glyph glyph-name="p" unicode="p" horiz-adv-x="511" 
d="M5 7zM5 723q148 0 243.5 -15t151 -47.5t77.5 -84t22 -124.5q0 -100 -73 -171t-224 -103q2 -45 3 -88t1 -83h-159q0 93 -2 189t-7 188.5t-13 178.5t-20 160zM177 564q8 -61 12 -119t6 -107q146 35 146 138q0 19 -12.5 35.5t-34.5 28t-52 18t-65 6.5z" />
    <glyph glyph-name="q" unicode="q" horiz-adv-x="664" 
d="M11 0zM456 -147q-23 22 -46 62t-32 85q-29 -19 -64 -28.5t-71 -9.5q-53 0 -96 20t-73 56t-46.5 85.5t-16.5 109.5q0 50 13 104.5t37.5 107t59.5 100.5t79.5 84t97 57.5t111.5 21.5q57 0 102 -21t75.5 -57t47 -83.5t16.5 -101.5q0 -42 -8 -87t-25.5 -89.5t-45 -87.5
t-67.5 -80q4 -33 10 -54t14 -35t17 -23.5t19 -19.5zM311 365q42 -13 75 -42t48 -69q29 52 42 102.5t13 96.5q0 48 -25 71.5t-67 23.5q-39 0 -79.5 -29.5t-73.5 -74.5t-54 -98t-21 -101q0 -51 23.5 -86t65.5 -35q32 0 50 6.5t32 20.5q-15 33 -37 52t-45 24z" />
    <glyph glyph-name="r" unicode="r" horiz-adv-x="522" 
d="M34 0zM35 719q18 2 41.5 3.5t52.5 1.5q83 0 150 -16.5t114.5 -48.5t73 -79t25.5 -108q0 -78 -42 -135t-120 -86q13 -17 35 -38.5t49 -45.5t57 -48.5t60 -47.5l-98 -124q-18 22 -49 53t-65.5 62.5t-68 59.5t-55.5 44q-1 -54 -2.5 -98t-4.5 -82h-154q9 184 9 380
q0 88 -1.5 176.5t-6.5 176.5zM195 558q4 -42 4.5 -95t0.5 -113q63 15 98 40t35 79q0 42 -34 62.5t-104 26.5z" />
    <glyph glyph-name="s" unicode="s" horiz-adv-x="439" 
d="M18 0zM252 553q-14 17 -35 17q-41 0 -41 -52q0 -33 13.5 -57t35.5 -45t49.5 -41t55.5 -45q50 -45 68 -86t18 -81q0 -47 -17 -88.5t-47 -73t-70.5 -49.5t-86.5 -18q-74 0 -139 50l99 124q19 -16 40 -16q27 0 44.5 16t17.5 47q0 9 -4.5 19t-15 22t-28 27.5t-43.5 36.5
q-30 24 -57 50t-47.5 57t-32 68t-11.5 83q0 45 13.5 82.5t39.5 64.5t63.5 42.5t85.5 15.5q36 0 72.5 -10.5t56.5 -33.5z" />
    <glyph glyph-name="t" unicode="t" horiz-adv-x="357" 
d="M12 3zM346 548h-96q2 -75 3.5 -164.5t1.5 -198.5v-182h-158q0 400 -6 547h-79v158h40.5t58.5 -0.5t67 -0.5t67.5 -0.5t59 -0.5h41.5v-158z" />
    <glyph glyph-name="u" unicode="u" horiz-adv-x="652" 
d="M21 0zM577 712q12 -35 22.5 -77t19 -86.5t13 -90.5t4.5 -90q0 -81 -22 -150.5t-61.5 -120.5t-95.5 -80t-124 -29q-69 0 -126 30t-98.5 81.5t-64.5 120.5t-23 148q0 91 16.5 179t42.5 173l154 -36q-22 -70 -38.5 -150.5t-16.5 -165.5q0 -45 11 -85t31.5 -70.5t48.5 -48.5
t63 -18q33 0 59.5 17t45 47t29 70.5t10.5 87.5q0 17 -3 53.5t-10 80.5t-17 90t-24 83z" />
    <glyph glyph-name="v" unicode="v" horiz-adv-x="591" 
d="M0 0zM585 697q-9 -122 -29.5 -223t-56.5 -193t-90 -181.5t-130 -188.5q-121 224 -191.5 414t-90.5 355l157 20q14 -106 50 -231t96 -264q54 112 85.5 240t42.5 266z" />
    <glyph glyph-name="w" unicode="w" horiz-adv-x="802" 
d="M16 0zM707 713q25 -64 41 -111.5t25 -94.5t12 -101t3 -130q0 -71 -15.5 -128.5t-44.5 -98t-71 -62.5t-95 -22q-48 0 -90 30.5t-69 81.5q-26 -51 -69 -81.5t-91 -30.5q-54 0 -96 22t-71.5 62.5t-44.5 98t-15 128.5q0 78 2.5 134t11 104t24.5 94.5t43 104.5l156 -30
q-78 -177 -78 -407q0 -153 68 -153q45 0 70.5 79t25.5 227q0 75 -5 127t-15 85h167q-9 -29 -13 -81.5t-4 -127.5q0 -152 24 -230.5t69 -78.5q67 0 67 153q0 230 -78 407z" />
    <glyph glyph-name="x" unicode="x" horiz-adv-x="599" 
d="M8 0zM549 702q6 -44 6 -88q0 -26 -2.5 -58.5t-10.5 -64.5t-23.5 -59.5t-40.5 -43.5q26 -14 44 -39.5t30 -59t19 -71.5t11 -77t5 -75.5t1 -66.5h-158q0 284 -88 284q-26 0 -50.5 -27.5t-44 -70t-32 -94t-14.5 -100.5l-158 7q2 39 10 90t24 102t41 96.5t60 72.5
q-49 22 -81.5 62t-51.5 89.5t-27.5 104t-9.5 105.5h158q0 -53 10 -100.5t28.5 -84.5t44 -58.5t57.5 -21.5q91 0 91 162q0 17 -1 32.5t-3 29.5z" />
    <glyph glyph-name="y" unicode="y" horiz-adv-x="551" 
d="M12 0zM539 694q3 -41 3 -77q0 -71 -12 -122t-35 -87.5t-58 -60t-81 -38.5q-4 -66 -5.5 -125t-1.5 -116q0 -21 0.5 -42t0.5 -41l-159 5q5 72 7 139t2 147v17.5t-2 17.5q-41 11 -75.5 42t-59 74.5t-38 95t-13.5 104.5q0 43 9 85l154 -36q-4 -13 -5 -27t-1 -29q0 -31 7 -61
t20 -54t32 -38.5t43 -14.5q36 0 58.5 14t34.5 35.5t16.5 49t4.5 54.5q0 74 -4 89h158z" />
    <glyph glyph-name="z" unicode="z" horiz-adv-x="568" 
d="M0 0zM302 555q-29 -4 -60 -5.5t-63 -1.5q-29 0 -57.5 1t-57.5 3v159q51 -3 102.5 -4t102.5 -1q76 0 151 2t151 6q-29 -65 -68.5 -134t-83.5 -140t-89 -144t-85 -146q45 4 88.5 6t89.5 2q49 0 94 -3v-157q-24 0 -66 -0.5t-93 -1t-107 -1t-107 -2t-93.5 -3t-66.5 -3.5
q34 69 113.5 211t204.5 357z" />
    <glyph glyph-name="braceleft" unicode="{" horiz-adv-x="332" 
d="M15 364q26 6 35.5 21.5t11.5 39.5t2.5 55t8.5 68q19 94 73.5 143.5t142.5 60.5l20 -156q-38 -6 -55.5 -28t-24.5 -52t-8.5 -64t-6.5 -65.5t-18.5 -56t-44.5 -34.5q21 -20 29.5 -40t11.5 -42t4 -46t7 -51q6 -31 23 -38.5t35 -7.5l-33 -153q-40 6 -72.5 14.5t-56 26.5
t-36 49.5t-12.5 83.5q0 25 2 46.5t2 39.5q0 26 -8.5 44t-35.5 30z" />
    <glyph glyph-name="bar" unicode="|" horiz-adv-x="244" 
d="M164 736v-65v-96.5t-0.5 -118t-0.5 -128.5t-0.5 -128.5t-0.5 -118v-97v-65.5h-81v95v144.5t0.5 169.5t0.5 169.5v144v94.5h82z" />
    <glyph glyph-name="braceright" unicode="}" horiz-adv-x="332" 
d="M304 242q-33 -11 -41.5 -33t-8.5 -55v-34q0 -65 -13.5 -102t-38 -57t-59.5 -27t-78 -11l-23 156q2 0 4 -0.5t5 -0.5q14 0 29 8t22 34q7 27 9.5 51t7 45.5t15 41t33.5 37.5q-31 13 -43 38.5t-15 57t-2 65.5t-4 64t-21 53t-53 32l29 155q97 -19 152 -85.5t55 -187.5
q0 -17 -0.5 -31.5t-0.5 -27.5q0 -29 7 -47.5t35 -26.5z" />
    <glyph glyph-name="asciitilde" unicode="~" horiz-adv-x="845" 
d="M596 416l220 -98l-155 -55l145 -234l-246 94l-23 -179l-120 144l-85 -155l-22 170l-277 -47l164 176l-155 53l158 33l-191 231l233 -51l-9 205l94 -112l161 161l19 -190l198 15zM423 522q-36 0 -68.5 -15.5t-57 -41t-38.5 -59t-14 -69.5q0 -44 13.5 -81.5t37.5 -65
t57.5 -43.5t73.5 -16q36 0 64.5 12.5t48.5 35t30.5 53.5t10.5 67q0 49 -11 90.5t-31 70.5t-49.5 45.5t-66.5 16.5zM425 543q34 0 63 -12l-23 160l-134 -143l-82 93l11 -176l-205 38l174 -193l-138 -33l138 -41l-138 -155l240 49l17 -145l66 129q-42 3 -76.5 21.5t-58.5 48.5
t-37.5 70t-13.5 85q0 40 15.5 77t42 65.5t62.5 45t77 16.5zM587 399q6 -22 8.5 -47.5t2.5 -52.5q0 -43 -12.5 -77.5t-36 -58.5t-56 -37t-71.5 -13l111 -113l15 155l216 -74l-133 196l133 52zM548 329q-26 -38 -44.5 -62.5t-33 -38.5t-26.5 -19.5t-25 -5.5q-49 0 -140 126
q109 -31 144 -31q51 0 125 31zM491 530q60 -25 89 -108l80 126zM352 382q-22 0 -50 -19q25 54 32 54q4 0 54 -35h-36zM505 382q-34 22 -40 22q-4 0 -48 -22q44 50 48 50q5 0 40 -50z" />
    <glyph glyph-name="exclamdown" unicode="&#xa1;" horiz-adv-x="241" 
d="M48 0q2 19 3.5 54t3 78t2.5 90t1 91q0 45 -0.5 80.5t-2.5 58.5h147q2 -21 3.5 -57t3 -79t2 -90t0.5 -90q0 -45 -1 -81t-3 -55h-159zM27 605q0 17 7.5 31.5t20 25t29 16.5t34.5 6t34 -6t28 -16.5t19.5 -25t7.5 -31.5q0 -33 -26 -56t-63 -23q-18 0 -34.5 6t-29 16.5t-20 25
t-7.5 31.5z" />
    <glyph glyph-name="cent" unicode="&#xa2;" horiz-adv-x="416" 
d="M390 482q-26 4 -56.5 7t-62.5 3q0 -27 -1 -54t-1 -53q21 3 37 5.5t27 7.5l16 -112q-29 -5 -47.5 -9t-32.5 -8v-150h-59v144q-42 0 -77.5 8.5t-61.5 26.5t-40.5 45t-14.5 64q0 40 17 71t45 54.5t63 39t70 23.5v111h61v-102q25 0 53.5 -3t70.5 -6zM211 474q-9 -4 -21.5 -11
t-24 -16t-19 -19.5t-7.5 -22.5q0 -28 71 -28q0 25 0.5 48.5t0.5 48.5z" />
    <glyph glyph-name="sterling" unicode="&#xa3;" horiz-adv-x="566" 
d="M66 421h34t34 1q1 51 12.5 105t40 98.5t77.5 72.5t125 28q36 0 64 -12t48 -33t33 -49.5t19 -62.5l-137 -37q-4 20 -13.5 27t-20.5 7q-28 0 -46 -12.5t-28.5 -32.5t-15 -45t-5.5 -49q52 0 106 -4.5t99 -14.5l-7 -155q-42 8 -82.5 12t-82.5 4q-11 0 -22 -0.5t-22 -0.5
q-6 -35 -16 -66.5t-25 -58.5q25 -3 49 -10.5l48 -15t48 -13t50 -5.5q42 0 83 10l9 -120q-20 -23 -45.5 -32t-51.5 -9q-32 0 -62 9.5t-60 21t-61 21t-64 9.5q-51 0 -153 -30l-35 121q23 16 41 29t33 29.5t27 41t23 64.5h-55z" />
    <glyph glyph-name="yen" unicode="&#xa5;" horiz-adv-x="551" 
d="M500 110h-151v-42q0 -21 0.5 -42t0.5 -41l-159 5l7 114h-145v159l147 3l-2 45q-41 11 -75.5 42t-59 74.5t-38 95t-13.5 104.5q0 43 9 85l154 -36q-4 -13 -5 -27t-1 -29q0 -31 7 -61t20 -54t32 -38.5t43 -14.5q36 0 58.5 14t34.5 35.5t16.5 49t4.5 54.5q0 74 -4 89h158
q3 -41 3 -77q0 -71 -12 -122t-35 -87.5t-58 -60t-81 -38.5q-1 -10 -1.5 -19.5t-0.5 -18.5l137 3z" />
    <glyph glyph-name="dieresis" unicode="&#xa8;" horiz-adv-x="440" 
d="M414 849q0 -35 -22.5 -55.5t-51.5 -20.5q-30 0 -52.5 20.5t-22.5 55.5q0 33 22.5 55t52.5 22q29 0 51.5 -22t22.5 -55zM173 849q0 -35 -22.5 -55.5t-50.5 -20.5q-30 0 -52.5 20.5t-22.5 55.5t22.5 56t52.5 21q28 0 50.5 -22t22.5 -55z" />
    <glyph glyph-name="copyright" unicode="&#xa9;" horiz-adv-x="836" 
d="M789 350q0 -77 -29.5 -144.5t-80 -118t-118.5 -80t-145 -29.5t-144.5 29.5t-117.5 80t-79.5 118t-29.5 144.5q0 76 29.5 144t79.5 118.5t117.5 80t144.5 29.5t145 -29.5t118.5 -80t80 -118.5t29.5 -144zM419 649q-60 0 -113 -23.5t-92.5 -64.5t-62.5 -96t-23 -117
t23 -116t62.5 -95t92.5 -64.5t113 -23.5q59 0 111.5 23.5t92 64.5t62.5 95t23 116t-23 117t-62.5 96t-92 64.5t-111.5 23.5zM442 442q-10 2 -12 2q-32 0 -50 -27t-18 -72q0 -92 104 -92l10 -69q-3 -1 -7 -1h-7q-93 0 -140 45.5t-47 116.5q0 87 48.5 127.5t129.5 40.5z" />
    <glyph glyph-name="ordfeminine" unicode="&#xaa;" horiz-adv-x="449" 
d="M288 265q6 20 13 49.5t15 71.5q-34 -6 -76 -23t-77 -43q2 -14 5 -26t8 -23l-94 -22q-15 45 -25 98t-10 107q0 49 13 90.5t37 72.5t58 48.5t75 17.5q40 0 74.5 -18t59.5 -49t39 -72.5t14 -89.5q0 -12 -0.5 -27.5t-4 -39.5t-10.5 -59t-20 -85zM319 483q-6 45 -30.5 75
t-58.5 30q-20 0 -36.5 -10.5t-27.5 -28.5t-17 -42.5t-6 -52.5v-19t1 -18q18 13 40.5 24t46.5 20t47 14.5t41 7.5z" />
    <glyph glyph-name="guillemotleft" unicode="&#xab;" horiz-adv-x="570" 
d="M531 429l-108 -107l127 -123l-57 -93l-242 216l229 204zM298 430l-108 -108l127 -123l-59 -93l-240 216l228 205z" />
    <glyph glyph-name="registered" unicode="&#xae;" horiz-adv-x="557" 
d="M487 502q0 34 -16 68t-44 60.5t-67 43t-85 16.5t-83 -16.5t-62.5 -43t-39.5 -60.5t-14 -68q0 -35 14 -69t39.5 -61t62.5 -43.5t83 -16.5q43 0 81.5 14.5t67.5 40t46 60t17 75.5zM527 502q0 -46 -19.5 -88t-53 -74.5t-79.5 -51.5t-99 -19q-54 0 -99 19t-78 51.5t-51 74.5
t-18 88q0 47 18 89.5t51 74.5t78 50.5t99 18.5t100 -18t79.5 -49.5t52.5 -74t19 -91.5zM214 625q6 0 13.5 0.5t17.5 0.5q57 0 89 -21t32 -59q0 -24 -14 -43t-40 -28q9 -11 28 -26.5t39 -29.5l-31 -40q-6 7 -16.5 17t-22.5 20t-23.5 19t-18.5 14q0 -17 -0.5 -31t-1.5 -26h-52
q2 29 3 59t1 62q0 55 -3 112zM267 573q2 -5 2 -10.5v-11.5v-16v-28q21 5 32.5 12.5t11.5 24.5q0 26 -46 29z" />
    <glyph glyph-name="macron" unicode="&#xaf;" horiz-adv-x="440" 
d="M378 786q-204 9 -331 9v114q66 0 151 -2.5t191 -7.5z" />
    <glyph glyph-name="degree" unicode="&#xb0;" horiz-adv-x="214" 
d="M101 734q18 0 33 -7.5t26 -20.5t17 -30t6 -35q0 -20 -7 -36.5t-18 -29t-26 -19.5t-31 -7q-17 0 -31.5 7.5t-25 20t-17 29t-6.5 35.5q0 18 6 35t16.5 30t25 20.5t32.5 7.5z" />
    <glyph glyph-name="acute" unicode="&#xb4;" horiz-adv-x="293" 
d="M213 946l69 -99l-209 -91l-62 81z" />
    <glyph glyph-name="periodcentered" unicode="&#xb7;" horiz-adv-x="242" 
d="M122 450q19 0 36 -7.5t29 -20.5t19 -29.5t7 -35.5t-7 -36t-19 -29.5t-29 -20t-36 -7.5q-18 0 -34.5 7.5t-29 20t-19.5 29.5t-7 36t7 35.5t19.5 29.5t29 20.5t34.5 7.5z" />
    <glyph glyph-name="cedilla" unicode="&#xb8;" horiz-adv-x="190" 
d="M169 -29q-15 -94 -91 -149l-65 91q17 14 28.5 32t15.5 41z" />
    <glyph glyph-name="ordmasculine" unicode="&#xba;" horiz-adv-x="397" 
d="M213 684q78 0 121 -51.5t43 -139.5q0 -52 -14 -101t-39 -87.5t-59.5 -61.5t-74.5 -23q-38 0 -68.5 15t-51.5 42t-32.5 64t-11.5 82q0 49 14.5 96t39.5 83.5t59 59t74 22.5zM218 588q-20 0 -37.5 -15.5t-31 -40t-21 -54.5t-7.5 -58q0 -20 4.5 -39t13 -33.5t20.5 -23
t27 -8.5q20 0 37.5 16t30.5 41t20.5 55.5t7.5 60.5q0 45 -17 72t-47 27z" />
    <glyph glyph-name="guillemotright" unicode="&#xbb;" horiz-adv-x="570" 
d="M321 527l229 -205l-241 -216l-58 93l126 123l-108 108zM88 526l229 -204l-242 -216l-57 93l126 123l-108 107z" />
    <glyph glyph-name="questiondown" unicode="&#xbf;" horiz-adv-x="510" 
d="M502 194q-5 -100 -70.5 -152t-180.5 -52q-52 0 -91.5 13t-66.5 36.5t-41 55t-14 68.5q0 42 12.5 70t31.5 49t40.5 38t40.5 37t31.5 46t12.5 66v8.5t-1 5t-2 5.5t-3 10h152q0 -49 -3 -84.5t-12 -62.5t-26.5 -47t-45.5 -38q-32 -20 -49.5 -39.5t-17.5 -42.5t17 -32t57 -9
q32 0 52 16t23 42zM170 634q0 19 8.5 35.5t23 28.5t33 19t38.5 7q19 0 37.5 -7t32.5 -19t22.5 -28.5t8.5 -35.5q0 -20 -8.5 -36.5t-22.5 -28.5t-32.5 -18.5t-37.5 -6.5q-20 0 -38.5 6.5t-33 18.5t-23 28.5t-8.5 36.5z" />
    <glyph glyph-name="Agrave" unicode="&#xc0;" horiz-adv-x="651" 
d="M19 0zM420 19q9 33 20.5 82.5t25.5 118.5q-29 -5 -61.5 -15t-66 -24t-66 -32t-61.5 -39q2 -23 8 -43t13 -40l-155 -36q-26 75 -42 163t-16 179q0 81 21.5 151t61.5 121.5t96 80.5t124 29q67 0 124.5 -30t99 -82t65 -121.5t23.5 -148.5q0 -20 -1 -46t-6.5 -66t-17.5 -97.5
t-34 -141.5zM472 382q-5 37 -18.5 69.5t-33 55.5t-45 36.5t-53.5 13.5q-34 0 -61 -17.5t-45.5 -47.5t-28.5 -71t-10 -88q0 -33 3 -61q30 21 68.5 39.5t78 32.5t77.5 24t68 14zM425 837l-61 -81l-207 91l68 99z" />
    <glyph glyph-name="Aacute" unicode="&#xc1;" horiz-adv-x="651" 
d="M19 0zM420 19q9 33 20.5 82.5t25.5 118.5q-29 -5 -61.5 -15t-66 -24t-66 -32t-61.5 -39q2 -23 8 -43t13 -40l-155 -36q-26 75 -42 163t-16 179q0 81 21.5 151t61.5 121.5t96 80.5t124 29q67 0 124.5 -30t99 -82t65 -121.5t23.5 -148.5q0 -20 -1 -46t-6.5 -66t-17.5 -97.5
t-34 -141.5zM472 382q-5 37 -18.5 69.5t-33 55.5t-45 36.5t-53.5 13.5q-34 0 -61 -17.5t-45.5 -47.5t-28.5 -71t-10 -88q0 -33 3 -61q30 21 68.5 39.5t78 32.5t77.5 24t68 14zM425 946l69 -99l-209 -91l-62 81z" />
    <glyph glyph-name="Acircumflex" unicode="&#xc2;" horiz-adv-x="651" 
d="M19 0zM420 19q9 33 20.5 82.5t25.5 118.5q-29 -5 -61.5 -15t-66 -24t-66 -32t-61.5 -39q2 -23 8 -43t13 -40l-155 -36q-26 75 -42 163t-16 179q0 81 21.5 151t61.5 121.5t96 80.5t124 29q67 0 124.5 -30t99 -82t65 -121.5t23.5 -148.5q0 -20 -1 -46t-6.5 -66t-17.5 -97.5
t-34 -141.5zM472 382q-5 37 -18.5 69.5t-33 55.5t-45 36.5t-53.5 13.5q-34 0 -61 -17.5t-45.5 -47.5t-28.5 -71t-10 -88q0 -33 3 -61q30 21 68.5 39.5t78 32.5t77.5 24t68 14zM426 758q-28 23 -54.5 48.5t-49.5 54.5q-18 -27 -42.5 -54.5t-53.5 -50.5l-73 76q37 26 74 54
t69 60h55q34 -32 69.5 -62t77.5 -57z" />
    <glyph glyph-name="Atilde" unicode="&#xc3;" horiz-adv-x="651" 
d="M19 0zM420 19q9 33 20.5 82.5t25.5 118.5q-29 -5 -61.5 -15t-66 -24t-66 -32t-61.5 -39q2 -23 8 -43t13 -40l-155 -36q-26 75 -42 163t-16 179q0 81 21.5 151t61.5 121.5t96 80.5t124 29q67 0 124.5 -30t99 -82t65 -121.5t23.5 -148.5q0 -20 -1 -46t-6.5 -66t-17.5 -97.5
t-34 -141.5zM472 382q-5 37 -18.5 69.5t-33 55.5t-45 36.5t-53.5 13.5q-34 0 -61 -17.5t-45.5 -47.5t-28.5 -71t-10 -88q0 -33 3 -61q30 21 68.5 39.5t78 32.5t77.5 24t68 14zM525 890q-3 -27 -13 -47t-24 -34t-31 -21t-33 -7q-29 0 -51.5 7.5t-40.5 16.5t-32 16.5t-26 7.5
q-34 0 -48 -44l-101 28q10 62 45 85.5t84 23.5q26 0 46.5 -6.5t37 -14t29.5 -14t24 -6.5q25 0 39 45z" />
    <glyph glyph-name="Adieresis" unicode="&#xc4;" horiz-adv-x="651" 
d="M19 0zM420 19q9 33 20.5 82.5t25.5 118.5q-29 -5 -61.5 -15t-66 -24t-66 -32t-61.5 -39q2 -23 8 -43t13 -40l-155 -36q-26 75 -42 163t-16 179q0 81 21.5 151t61.5 121.5t96 80.5t124 29q67 0 124.5 -30t99 -82t65 -121.5t23.5 -148.5q0 -20 -1 -46t-6.5 -66t-17.5 -97.5
t-34 -141.5zM472 382q-5 37 -18.5 69.5t-33 55.5t-45 36.5t-53.5 13.5q-34 0 -61 -17.5t-45.5 -47.5t-28.5 -71t-10 -88q0 -33 3 -61q30 21 68.5 39.5t78 32.5t77.5 24t68 14zM520 849q0 -35 -22.5 -55.5t-51.5 -20.5q-30 0 -52.5 20.5t-22.5 55.5q0 33 22.5 55t52.5 22
q29 0 51.5 -22t22.5 -55zM279 849q0 -35 -22.5 -55.5t-50.5 -20.5q-30 0 -52.5 20.5t-22.5 55.5t22.5 56t52.5 21q28 0 50.5 -22t22.5 -55z" />
    <glyph glyph-name="Aring" unicode="&#xc5;" horiz-adv-x="651" 
d="M19 0zM420 19q9 33 20.5 82.5t25.5 118.5q-29 -5 -61.5 -15t-66 -24t-66 -32t-61.5 -39q2 -23 8 -43t13 -40l-155 -36q-26 75 -42 163t-16 179q0 81 21.5 151t61.5 121.5t96 80.5t124 29q67 0 124.5 -30t99 -82t65 -121.5t23.5 -148.5q0 -20 -1 -46t-6.5 -66t-17.5 -97.5
t-34 -141.5zM472 382q-5 37 -18.5 69.5t-33 55.5t-45 36.5t-53.5 13.5q-34 0 -61 -17.5t-45.5 -47.5t-28.5 -71t-10 -88q0 -33 3 -61q30 21 68.5 39.5t78 32.5t77.5 24t68 14zM428 851q0 -42 -30 -68.5t-72 -26.5t-72.5 26.5t-30.5 68.5q0 20 8 37.5t22.5 30t33 20t39.5 7.5
q20 0 38.5 -7.5t32.5 -20t22.5 -30t8.5 -37.5zM370 851q0 18 -13 30t-31 12q-19 0 -32.5 -11.5t-13.5 -30.5q0 -18 13.5 -29.5t32.5 -11.5q18 0 31 11.5t13 29.5z" />
    <glyph glyph-name="AE" unicode="&#xc6;" horiz-adv-x="857" 
d="M790 559q-8 4 -30 4q-85 0 -110 -145q34 1 66 2.5t63 6.5l17 -159q-34 -4 -69.5 -5.5t-74.5 -2.5q31 -135 184 -135l18 -158q-150 0 -241 68.5t-118 197.5q-30 -6 -67.5 -19t-75.5 -30.5t-73.5 -36.5t-60.5 -37q2 -23 8 -43t13 -40l-155 -36q-26 75 -42.5 163t-16.5 179
q0 81 22 151t61.5 121.5t95.5 80.5t125 29t125.5 -29.5t98.5 -83.5q38 57 92 88.5t123 31.5q11 0 21.5 -1t21.5 -2zM478 382q-5 37 -18.5 69.5t-33 55.5t-44.5 36.5t-53 13.5q-34 0 -61 -17.5t-45.5 -47.5t-28.5 -71t-10 -88q0 -33 3 -61q30 21 68 39.5t77.5 32.5t77.5 24
t68 14z" />
    <glyph glyph-name="Ccedilla" unicode="&#xc7;" horiz-adv-x="378" 
d="M317 560q-11 3 -23 3q-29 0 -52 -16t-39.5 -45.5t-25.5 -71t-9 -92.5q0 -213 193 -213l17 -158q-6 -1 -12.5 -1h-13.5q-11 0 -21 0.5t-20 1.5q-15 -90 -90 -146l-65 91q15 13 29 32.5t20 46.5q-98 39 -146.5 130t-48.5 216q0 84 20 154.5t56.5 121.5t89 79.5t117.5 28.5
q11 0 21 -1t21 -2z" />
    <glyph glyph-name="Egrave" unicode="&#xc8;" 
d="M11 0zM316 559q-8 4 -30 4q-86 0 -110 -145q34 1 66 2.5t63 6.5l17 -159q-34 -4 -69.5 -5.5t-74.5 -2.5q31 -135 184 -135l17 -158q-87 0 -155.5 25.5t-116 73.5t-72 117t-24.5 155q0 84 20 154.5t56.5 121.5t89 79.5t117.5 28.5q11 0 21.5 -1t21.5 -2zM326 837l-61 -81
l-207 91l68 99z" />
    <glyph glyph-name="Eacute" unicode="&#xc9;" 
d="M11 0zM316 559q-8 4 -30 4q-86 0 -110 -145q34 1 66 2.5t63 6.5l17 -159q-34 -4 -69.5 -5.5t-74.5 -2.5q31 -135 184 -135l17 -158q-87 0 -155.5 25.5t-116 73.5t-72 117t-24.5 155q0 84 20 154.5t56.5 121.5t89 79.5t117.5 28.5q11 0 21.5 -1t21.5 -2zM326 946l69 -99
l-209 -91l-62 81z" />
    <glyph glyph-name="Ecircumflex" unicode="&#xca;" 
d="M11 0zM316 559q-8 4 -30 4q-86 0 -110 -145q34 1 66 2.5t63 6.5l17 -159q-34 -4 -69.5 -5.5t-74.5 -2.5q31 -135 184 -135l17 -158q-87 0 -155.5 25.5t-116 73.5t-72 117t-24.5 155q0 84 20 154.5t56.5 121.5t89 79.5t117.5 28.5q11 0 21.5 -1t21.5 -2zM327 758
q-28 23 -54.5 48.5t-49.5 54.5q-18 -27 -42.5 -54.5t-53.5 -50.5l-73 76q37 26 74 54t69 60h55q34 -32 69.5 -62t77.5 -57z" />
    <glyph glyph-name="Edieresis" unicode="&#xcb;" 
d="M11 0zM316 559q-8 4 -30 4q-86 0 -110 -145q34 1 66 2.5t63 6.5l17 -159q-34 -4 -69.5 -5.5t-74.5 -2.5q31 -135 184 -135l17 -158q-87 0 -155.5 25.5t-116 73.5t-72 117t-24.5 155q0 84 20 154.5t56.5 121.5t89 79.5t117.5 28.5q11 0 21.5 -1t21.5 -2zM422 849
q0 -35 -22.5 -55.5t-51.5 -20.5q-30 0 -52.5 20.5t-22.5 55.5q0 33 22.5 55t52.5 22q29 0 51.5 -22t22.5 -55zM181 849q0 -35 -22.5 -55.5t-50.5 -20.5q-30 0 -52.5 20.5t-22.5 55.5t22.5 56t52.5 21q28 0 50.5 -22t22.5 -55z" />
    <glyph glyph-name="Igrave" unicode="&#xcc;" horiz-adv-x="244" 
d="M0 7zM203 685v-84t-0.5 -119t-1 -135.5t-1 -136t-0.5 -119v-84.5h-158v84.5t0.5 119t1 136t1 135.5t0.5 118.5v84.5h158zM223 837l-61 -81l-207 91l68 99z" />
    <glyph glyph-name="Iacute" unicode="&#xcd;" horiz-adv-x="244" 
d="M20 7zM203 685v-84t-0.5 -119t-1 -135.5t-1 -136t-0.5 -119v-84.5h-158v84.5t0.5 119t1 136t1 135.5t0.5 118.5v84.5h158zM222 946l69 -99l-209 -91l-62 81z" />
    <glyph glyph-name="Icircumflex" unicode="&#xce;" horiz-adv-x="244" 
d="M0 7zM203 685v-84t-0.5 -119t-1 -135.5t-1 -136t-0.5 -119v-84.5h-158v84.5t0.5 119t1 136t1 135.5t0.5 118.5v84.5h158zM223 758q-28 23 -54.5 48.5t-49.5 54.5q-18 -27 -42.5 -54.5t-53.5 -50.5l-73 76q37 26 74 54t69 60h55q34 -32 69.5 -62t77.5 -57z" />
    <glyph glyph-name="Idieresis" unicode="&#xcf;" horiz-adv-x="244" 
d="M0 7zM203 685v-84t-0.5 -119t-1 -135.5t-1 -136t-0.5 -119v-84.5h-158v84.5t0.5 119t1 136t1 135.5t0.5 118.5v84.5h158zM318 849q0 -35 -22.5 -55.5t-51.5 -20.5q-30 0 -52.5 20.5t-22.5 55.5q0 33 22.5 55t52.5 22q29 0 51.5 -22t22.5 -55zM77 849q0 -35 -22.5 -55.5
t-50.5 -20.5q-30 0 -52.5 20.5t-22.5 55.5t22.5 56t52.5 21q28 0 50.5 -22t22.5 -55z" />
    <glyph glyph-name="Eth" unicode="&#xd0;" horiz-adv-x="568" 
d="M-14 465h52h16.5t16.5 -1q16 127 42 262q102 0 184 -20t139 -58.5t88 -94t31 -125.5q0 -55 -18.5 -109t-51.5 -103.5t-78.5 -93t-99.5 -77.5t-114.5 -57t-123.5 -32q-8 42 -11 92t-3 113q0 43 1 85.5t4 85.5q-20 1 -38.5 1h-35.5v132zM304 322l-86 5q-2 -38 -3 -77.5
t-1 -84.5q28 16 56.5 47.5t51 69t37 76.5t14.5 71q0 105 -129 132q-5 -23 -9 -48.5t-7 -53.5l87 -5z" />
    <glyph glyph-name="Ntilde" unicode="&#xd1;" horiz-adv-x="536" 
d="M15 0zM188 718q-6 -17 -8.5 -37.5t-2.5 -35.5q22 37 56.5 54.5t76.5 17.5q100 0 153.5 -67.5t53.5 -205.5q0 -219 -108 -484l-147 60q19 45 37 105t32 121t22.5 116.5t8.5 90.5q0 105 -57 105q-65 0 -100 -73.5t-35 -199.5q0 -51 9.5 -117t26.5 -132l-154 -54
q-19 90 -28 194t-9 225q0 88 6 159.5t17 131.5zM467 890q-3 -27 -13 -47t-24 -34t-31 -21t-33 -7q-29 0 -51.5 7.5t-40.5 16.5t-32 16.5t-26 7.5q-34 0 -48 -44l-101 28q10 62 45 85.5t84 23.5q26 0 46.5 -6.5t37 -14t29.5 -14t24 -6.5q25 0 39 45z" />
    <glyph glyph-name="Ograve" unicode="&#xd2;" horiz-adv-x="613" 
d="M13 0zM324 722q63 0 114 -23t86 -64.5t54 -100t19 -130.5q0 -87 -23.5 -169t-65.5 -145.5t-99 -102.5t-123 -39q-63 0 -113.5 25t-86 70t-54.5 107.5t-19 137.5q0 82 23.5 160t65.5 139t99 98t123 37zM332 562q-33 0 -62.5 -26t-51.5 -67t-35 -90.5t-13 -95.5
q0 -34 7.5 -65.5t22 -55.5t34.5 -38.5t45 -14.5q33 0 62 26.5t50.5 68.5t34 93t12.5 101q0 75 -27.5 119.5t-78.5 44.5zM438 837l-61 -81l-207 91l68 99z" />
    <glyph glyph-name="Oacute" unicode="&#xd3;" horiz-adv-x="613" 
d="M13 0zM324 722q63 0 114 -23t86 -64.5t54 -100t19 -130.5q0 -87 -23.5 -169t-65.5 -145.5t-99 -102.5t-123 -39q-63 0 -113.5 25t-86 70t-54.5 107.5t-19 137.5q0 82 23.5 160t65.5 139t99 98t123 37zM332 562q-33 0 -62.5 -26t-51.5 -67t-35 -90.5t-13 -95.5
q0 -34 7.5 -65.5t22 -55.5t34.5 -38.5t45 -14.5q33 0 62 26.5t50.5 68.5t34 93t12.5 101q0 75 -27.5 119.5t-78.5 44.5zM438 946l69 -99l-209 -91l-62 81z" />
    <glyph glyph-name="Ocircumflex" unicode="&#xd4;" horiz-adv-x="613" 
d="M13 0zM324 722q63 0 114 -23t86 -64.5t54 -100t19 -130.5q0 -87 -23.5 -169t-65.5 -145.5t-99 -102.5t-123 -39q-63 0 -113.5 25t-86 70t-54.5 107.5t-19 137.5q0 82 23.5 160t65.5 139t99 98t123 37zM332 562q-33 0 -62.5 -26t-51.5 -67t-35 -90.5t-13 -95.5
q0 -34 7.5 -65.5t22 -55.5t34.5 -38.5t45 -14.5q33 0 62 26.5t50.5 68.5t34 93t12.5 101q0 75 -27.5 119.5t-78.5 44.5zM439 758q-28 23 -54.5 48.5t-49.5 54.5q-18 -27 -42.5 -54.5t-53.5 -50.5l-73 76q37 26 74 54t69 60h55q34 -32 69.5 -62t77.5 -57z" />
    <glyph glyph-name="Otilde" unicode="&#xd5;" horiz-adv-x="613" 
d="M13 0zM324 722q63 0 114 -23t86 -64.5t54 -100t19 -130.5q0 -87 -23.5 -169t-65.5 -145.5t-99 -102.5t-123 -39q-63 0 -113.5 25t-86 70t-54.5 107.5t-19 137.5q0 82 23.5 160t65.5 139t99 98t123 37zM332 562q-33 0 -62.5 -26t-51.5 -67t-35 -90.5t-13 -95.5
q0 -34 7.5 -65.5t22 -55.5t34.5 -38.5t45 -14.5q33 0 62 26.5t50.5 68.5t34 93t12.5 101q0 75 -27.5 119.5t-78.5 44.5zM539 890q-3 -27 -13 -47t-24 -34t-31 -21t-33 -7q-29 0 -51.5 7.5t-40.5 16.5t-32 16.5t-26 7.5q-34 0 -48 -44l-101 28q10 62 45 85.5t84 23.5
q26 0 46.5 -6.5t37 -14t29.5 -14t24 -6.5q25 0 39 45z" />
    <glyph glyph-name="Odieresis" unicode="&#xd6;" horiz-adv-x="613" 
d="M13 0zM324 722q63 0 114 -23t86 -64.5t54 -100t19 -130.5q0 -87 -23.5 -169t-65.5 -145.5t-99 -102.5t-123 -39q-63 0 -113.5 25t-86 70t-54.5 107.5t-19 137.5q0 82 23.5 160t65.5 139t99 98t123 37zM332 562q-33 0 -62.5 -26t-51.5 -67t-35 -90.5t-13 -95.5
q0 -34 7.5 -65.5t22 -55.5t34.5 -38.5t45 -14.5q33 0 62 26.5t50.5 68.5t34 93t12.5 101q0 75 -27.5 119.5t-78.5 44.5zM534 849q0 -35 -22.5 -55.5t-51.5 -20.5q-30 0 -52.5 20.5t-22.5 55.5q0 33 22.5 55t52.5 22q29 0 51.5 -22t22.5 -55zM293 849q0 -35 -22.5 -55.5
t-50.5 -20.5q-30 0 -52.5 20.5t-22.5 55.5t22.5 56t52.5 21q28 0 50.5 -22t22.5 -55z" />
    <glyph glyph-name="multiply" unicode="&#xd7;" horiz-adv-x="388" 
d="M301 356l62 -68l-114 -110l-63 69l-69 -67l-91 124l59 58l-56 61l111 113l56 -63l56 56l111 -111z" />
    <glyph glyph-name="Oslash" unicode="&#xd8;" horiz-adv-x="613" 
d="M324 722q30 0 56.5 -5.5t50.5 -15.5l41 77l89 -43q-5 -8 -17.5 -31.5t-29.5 -57.5q83 -86 83 -242q0 -87 -23.5 -169t-65.5 -145.5t-99 -102.5t-123 -39q-68 0 -121 29q-11 -17 -22 -31t-22 -27l-78 57q11 14 23 29t23 33q-37 46 -56.5 109t-19.5 141q0 82 23.5 160
t65.5 139t99 98t123 37zM242 119q16 -10 37 -10q33 0 62 26.5t50.5 68.5t34 93t12.5 101q0 41 -11 82zM332 562q-33 0 -62.5 -26t-51.5 -67t-35 -90.5t-13 -95.5q0 -20 2.5 -38t6.5 -35l178 349q-11 3 -25 3z" />
    <glyph glyph-name="Ugrave" unicode="&#xd9;" horiz-adv-x="652" 
d="M21 0zM577 712q12 -35 22.5 -77t19 -86.5t13 -90.5t4.5 -90q0 -81 -22 -150.5t-61.5 -120.5t-95.5 -80t-124 -29q-69 0 -126 30t-98.5 81.5t-64.5 120.5t-23 148q0 91 16.5 179t42.5 173l154 -36q-22 -70 -38.5 -150.5t-16.5 -165.5q0 -45 11 -85t31.5 -70.5t48.5 -48.5
t63 -18q33 0 59.5 17t45 47t29 70.5t10.5 87.5q0 17 -3 53.5t-10 80.5t-17 90t-24 83zM425 837l-61 -81l-207 91l68 99z" />
    <glyph glyph-name="Uacute" unicode="&#xda;" horiz-adv-x="652" 
d="M21 0zM577 712q12 -35 22.5 -77t19 -86.5t13 -90.5t4.5 -90q0 -81 -22 -150.5t-61.5 -120.5t-95.5 -80t-124 -29q-69 0 -126 30t-98.5 81.5t-64.5 120.5t-23 148q0 91 16.5 179t42.5 173l154 -36q-22 -70 -38.5 -150.5t-16.5 -165.5q0 -45 11 -85t31.5 -70.5t48.5 -48.5
t63 -18q33 0 59.5 17t45 47t29 70.5t10.5 87.5q0 17 -3 53.5t-10 80.5t-17 90t-24 83zM425 946l69 -99l-209 -91l-62 81z" />
    <glyph glyph-name="Ucircumflex" unicode="&#xdb;" horiz-adv-x="652" 
d="M21 0zM577 712q12 -35 22.5 -77t19 -86.5t13 -90.5t4.5 -90q0 -81 -22 -150.5t-61.5 -120.5t-95.5 -80t-124 -29q-69 0 -126 30t-98.5 81.5t-64.5 120.5t-23 148q0 91 16.5 179t42.5 173l154 -36q-22 -70 -38.5 -150.5t-16.5 -165.5q0 -45 11 -85t31.5 -70.5t48.5 -48.5
t63 -18q33 0 59.5 17t45 47t29 70.5t10.5 87.5q0 17 -3 53.5t-10 80.5t-17 90t-24 83zM426 758q-28 23 -54.5 48.5t-49.5 54.5q-18 -27 -42.5 -54.5t-53.5 -50.5l-73 76q37 26 74 54t69 60h55q34 -32 69.5 -62t77.5 -57z" />
    <glyph glyph-name="Udieresis" unicode="&#xdc;" horiz-adv-x="652" 
d="M21 0zM577 712q12 -35 22.5 -77t19 -86.5t13 -90.5t4.5 -90q0 -81 -22 -150.5t-61.5 -120.5t-95.5 -80t-124 -29q-69 0 -126 30t-98.5 81.5t-64.5 120.5t-23 148q0 91 16.5 179t42.5 173l154 -36q-22 -70 -38.5 -150.5t-16.5 -165.5q0 -45 11 -85t31.5 -70.5t48.5 -48.5
t63 -18q33 0 59.5 17t45 47t29 70.5t10.5 87.5q0 17 -3 53.5t-10 80.5t-17 90t-24 83zM521 849q0 -35 -22.5 -55.5t-51.5 -20.5q-30 0 -52.5 20.5t-22.5 55.5q0 33 22.5 55t52.5 22q29 0 51.5 -22t22.5 -55zM280 849q0 -35 -22.5 -55.5t-50.5 -20.5q-30 0 -52.5 20.5
t-22.5 55.5t22.5 56t52.5 21q28 0 50.5 -22t22.5 -55z" />
    <glyph glyph-name="Yacute" unicode="&#xdd;" horiz-adv-x="551" 
d="M12 0zM539 694q3 -41 3 -77q0 -71 -12 -122t-35 -87.5t-58 -60t-81 -38.5q-4 -66 -5.5 -125t-1.5 -116q0 -21 0.5 -42t0.5 -41l-159 5q5 72 7 139t2 147v17.5t-2 17.5q-41 11 -75.5 42t-59 74.5t-38 95t-13.5 104.5q0 43 9 85l154 -36q-4 -13 -5 -27t-1 -29q0 -31 7 -61
t20 -54t32 -38.5t43 -14.5q36 0 58.5 14t34.5 35.5t16.5 49t4.5 54.5q0 74 -4 89h158zM375 946l69 -99l-209 -91l-62 81z" />
    <glyph glyph-name="Thorn" unicode="&#xde;" horiz-adv-x="575" 
d="M225 711q-7 -31 -10 -61.5t-6 -56.5q11 1 23 1.5t23 0.5q68 0 124.5 -12t97 -37.5t62.5 -64t22 -91.5q0 -52 -20.5 -97t-66 -78t-117 -52t-173.5 -19q2 -35 2.5 -71t1.5 -71l-157 -6q-3 69 -5 139.5t-2 142.5q0 112 9 224.5t36 227.5zM190 434q-2 -23 -4 -59t-2 -74
q36 1 74.5 4t71 11.5t53 25t20.5 45.5q0 18 -15 28t-37.5 15t-47.5 6.5t-46 1.5q-20 0 -37 -0.5t-30 -3.5z" />
    <glyph glyph-name="germandbls" unicode="&#xdf;" horiz-adv-x="786" 
d="M18 0zM252 553q-14 17 -35 17q-41 0 -41 -52q0 -33 13.5 -57t35.5 -45t49.5 -41t55.5 -45q50 -45 68 -86t18 -81q0 -47 -17 -88.5t-47 -73t-70.5 -49.5t-86.5 -18q-74 0 -139 50l99 124q19 -16 40 -16q27 0 44.5 16t17.5 47q0 9 -4.5 19t-15 22t-28 27.5t-43.5 36.5
q-30 24 -57 50t-47.5 57t-32 68t-11.5 83q0 45 13.5 82.5t39.5 64.5t63.5 42.5t85.5 15.5q36 0 72.5 -10.5t56.5 -33.5zM600 553q-14 17 -35 17q-41 0 -41 -52q0 -33 13.5 -57t35.5 -45t49.5 -41t55.5 -45q50 -45 68 -86t18 -81q0 -47 -17 -88.5t-47 -73t-70.5 -49.5
t-86.5 -18q-74 0 -139 50l99 124q19 -16 40 -16q27 0 44.5 16t17.5 47q0 9 -4.5 19t-15 22t-28 27.5t-43.5 36.5q-30 24 -57 50t-47.5 57t-32 68t-11.5 83q0 45 13.5 82.5t39.5 64.5t63.5 42.5t85.5 15.5q36 0 72.5 -10.5t56.5 -33.5z" />
    <glyph glyph-name="agrave" unicode="&#xe0;" horiz-adv-x="651" 
d="M19 0zM420 19q9 33 20.5 82.5t25.5 118.5q-29 -5 -61.5 -15t-66 -24t-66 -32t-61.5 -39q2 -23 8 -43t13 -40l-155 -36q-26 75 -42 163t-16 179q0 81 21.5 151t61.5 121.5t96 80.5t124 29q67 0 124.5 -30t99 -82t65 -121.5t23.5 -148.5q0 -20 -1 -46t-6.5 -66t-17.5 -97.5
t-34 -141.5zM472 382q-5 37 -18.5 69.5t-33 55.5t-45 36.5t-53.5 13.5q-34 0 -61 -17.5t-45.5 -47.5t-28.5 -71t-10 -88q0 -33 3 -61q30 21 68.5 39.5t78 32.5t77.5 24t68 14zM426 837l-61 -81l-207 91l68 99z" />
    <glyph glyph-name="aacute" unicode="&#xe1;" horiz-adv-x="651" 
d="M19 0zM420 19q9 33 20.5 82.5t25.5 118.5q-29 -5 -61.5 -15t-66 -24t-66 -32t-61.5 -39q2 -23 8 -43t13 -40l-155 -36q-26 75 -42 163t-16 179q0 81 21.5 151t61.5 121.5t96 80.5t124 29q67 0 124.5 -30t99 -82t65 -121.5t23.5 -148.5q0 -20 -1 -46t-6.5 -66t-17.5 -97.5
t-34 -141.5zM472 382q-5 37 -18.5 69.5t-33 55.5t-45 36.5t-53.5 13.5q-34 0 -61 -17.5t-45.5 -47.5t-28.5 -71t-10 -88q0 -33 3 -61q30 21 68.5 39.5t78 32.5t77.5 24t68 14zM425 946l69 -99l-209 -91l-62 81z" />
    <glyph glyph-name="acircumflex" unicode="&#xe2;" horiz-adv-x="651" 
d="M19 0zM420 19q9 33 20.5 82.5t25.5 118.5q-29 -5 -61.5 -15t-66 -24t-66 -32t-61.5 -39q2 -23 8 -43t13 -40l-155 -36q-26 75 -42 163t-16 179q0 81 21.5 151t61.5 121.5t96 80.5t124 29q67 0 124.5 -30t99 -82t65 -121.5t23.5 -148.5q0 -20 -1 -46t-6.5 -66t-17.5 -97.5
t-34 -141.5zM472 382q-5 37 -18.5 69.5t-33 55.5t-45 36.5t-53.5 13.5q-34 0 -61 -17.5t-45.5 -47.5t-28.5 -71t-10 -88q0 -33 3 -61q30 21 68.5 39.5t78 32.5t77.5 24t68 14zM426 758q-28 23 -54.5 48.5t-49.5 54.5q-18 -27 -42.5 -54.5t-53.5 -50.5l-73 76q37 26 74 54
t69 60h55q34 -32 69.5 -62t77.5 -57z" />
    <glyph glyph-name="atilde" unicode="&#xe3;" horiz-adv-x="651" 
d="M19 0zM420 19q9 33 20.5 82.5t25.5 118.5q-29 -5 -61.5 -15t-66 -24t-66 -32t-61.5 -39q2 -23 8 -43t13 -40l-155 -36q-26 75 -42 163t-16 179q0 81 21.5 151t61.5 121.5t96 80.5t124 29q67 0 124.5 -30t99 -82t65 -121.5t23.5 -148.5q0 -20 -1 -46t-6.5 -66t-17.5 -97.5
t-34 -141.5zM472 382q-5 37 -18.5 69.5t-33 55.5t-45 36.5t-53.5 13.5q-34 0 -61 -17.5t-45.5 -47.5t-28.5 -71t-10 -88q0 -33 3 -61q30 21 68.5 39.5t78 32.5t77.5 24t68 14zM525 890q-3 -27 -13 -47t-24 -34t-31 -21t-33 -7q-29 0 -51.5 7.5t-40.5 16.5t-32 16.5t-26 7.5
q-34 0 -48 -44l-101 28q10 62 45 85.5t84 23.5q26 0 46.5 -6.5t37 -14t29.5 -14t24 -6.5q25 0 39 45z" />
    <glyph glyph-name="adieresis" unicode="&#xe4;" horiz-adv-x="651" 
d="M19 0zM420 19q9 33 20.5 82.5t25.5 118.5q-29 -5 -61.5 -15t-66 -24t-66 -32t-61.5 -39q2 -23 8 -43t13 -40l-155 -36q-26 75 -42 163t-16 179q0 81 21.5 151t61.5 121.5t96 80.5t124 29q67 0 124.5 -30t99 -82t65 -121.5t23.5 -148.5q0 -20 -1 -46t-6.5 -66t-17.5 -97.5
t-34 -141.5zM472 382q-5 37 -18.5 69.5t-33 55.5t-45 36.5t-53.5 13.5q-34 0 -61 -17.5t-45.5 -47.5t-28.5 -71t-10 -88q0 -33 3 -61q30 21 68.5 39.5t78 32.5t77.5 24t68 14zM520 849q0 -35 -22.5 -55.5t-51.5 -20.5q-30 0 -52.5 20.5t-22.5 55.5q0 33 22.5 55t52.5 22
q29 0 51.5 -22t22.5 -55zM279 849q0 -35 -22.5 -55.5t-50.5 -20.5q-30 0 -52.5 20.5t-22.5 55.5t22.5 56t52.5 21q28 0 50.5 -22t22.5 -55z" />
    <glyph glyph-name="aring" unicode="&#xe5;" horiz-adv-x="651" 
d="M19 0zM420 19q9 33 20.5 82.5t25.5 118.5q-29 -5 -61.5 -15t-66 -24t-66 -32t-61.5 -39q2 -23 8 -43t13 -40l-155 -36q-26 75 -42 163t-16 179q0 81 21.5 151t61.5 121.5t96 80.5t124 29q67 0 124.5 -30t99 -82t65 -121.5t23.5 -148.5q0 -20 -1 -46t-6.5 -66t-17.5 -97.5
t-34 -141.5zM472 382q-5 37 -18.5 69.5t-33 55.5t-45 36.5t-53.5 13.5q-34 0 -61 -17.5t-45.5 -47.5t-28.5 -71t-10 -88q0 -33 3 -61q30 21 68.5 39.5t78 32.5t77.5 24t68 14zM428 851q0 -42 -30 -68.5t-72 -26.5t-72.5 26.5t-30.5 68.5q0 20 8 37.5t22.5 30t33 20t39.5 7.5
q20 0 38.5 -7.5t32.5 -20t22.5 -30t8.5 -37.5zM370 851q0 18 -13 30t-31 12q-19 0 -32.5 -11.5t-13.5 -30.5q0 -18 13.5 -29.5t32.5 -11.5q18 0 31 11.5t13 29.5z" />
    <glyph glyph-name="ae" unicode="&#xe6;" horiz-adv-x="857" 
d="M25 0zM790 559q-8 4 -30 4q-85 0 -110 -145q34 1 66 2.5t63 6.5l17 -159q-34 -4 -69.5 -5.5t-74.5 -2.5q31 -135 184 -135l18 -158q-150 0 -241 68.5t-118 197.5q-30 -6 -67.5 -19t-75.5 -30.5t-73.5 -36.5t-60.5 -37q2 -23 8 -43t13 -40l-155 -36q-26 75 -42.5 163
t-16.5 179q0 81 22 151t61.5 121.5t95.5 80.5t125 29t125.5 -29.5t98.5 -83.5q38 57 92 88.5t123 31.5q11 0 21.5 -1t21.5 -2zM478 382q-5 37 -18.5 69.5t-33 55.5t-44.5 36.5t-53 13.5q-34 0 -61 -17.5t-45.5 -47.5t-28.5 -71t-10 -88q0 -33 3 -61q30 21 68 39.5t77.5 32.5
t77.5 24t68 14z" />
    <glyph glyph-name="ccedilla" unicode="&#xe7;" horiz-adv-x="378" 
d="M10 0zM317 560q-11 3 -23 3q-29 0 -52 -16t-39.5 -45.5t-25.5 -71t-9 -92.5q0 -213 193 -213l17 -158q-6 -1 -12.5 -1h-13.5q-11 0 -21 0.5t-20 1.5q-15 -90 -90 -146l-65 91q15 13 29 32.5t20 46.5q-98 39 -146.5 130t-48.5 216q0 84 20 154.5t56.5 121.5t89 79.5
t117.5 28.5q11 0 21 -1t21 -2z" />
    <glyph glyph-name="egrave" unicode="&#xe8;" 
d="M11 0zM316 559q-8 4 -30 4q-86 0 -110 -145q34 1 66 2.5t63 6.5l17 -159q-34 -4 -69.5 -5.5t-74.5 -2.5q31 -135 184 -135l17 -158q-87 0 -155.5 25.5t-116 73.5t-72 117t-24.5 155q0 84 20 154.5t56.5 121.5t89 79.5t117.5 28.5q11 0 21.5 -1t21.5 -2zM327 837l-61 -81
l-207 91l68 99z" />
    <glyph glyph-name="eacute" unicode="&#xe9;" 
d="M11 0zM316 559q-8 4 -30 4q-86 0 -110 -145q34 1 66 2.5t63 6.5l17 -159q-34 -4 -69.5 -5.5t-74.5 -2.5q31 -135 184 -135l17 -158q-87 0 -155.5 25.5t-116 73.5t-72 117t-24.5 155q0 84 20 154.5t56.5 121.5t89 79.5t117.5 28.5q11 0 21.5 -1t21.5 -2zM326 946l69 -99
l-209 -91l-62 81z" />
    <glyph glyph-name="ecircumflex" unicode="&#xea;" 
d="M11 0zM316 559q-8 4 -30 4q-86 0 -110 -145q34 1 66 2.5t63 6.5l17 -159q-34 -4 -69.5 -5.5t-74.5 -2.5q31 -135 184 -135l17 -158q-87 0 -155.5 25.5t-116 73.5t-72 117t-24.5 155q0 84 20 154.5t56.5 121.5t89 79.5t117.5 28.5q11 0 21.5 -1t21.5 -2zM327 758
q-28 23 -54.5 48.5t-49.5 54.5q-18 -27 -42.5 -54.5t-53.5 -50.5l-73 76q37 26 74 54t69 60h55q34 -32 69.5 -62t77.5 -57z" />
    <glyph glyph-name="edieresis" unicode="&#xeb;" 
d="M11 0zM316 559q-8 4 -30 4q-86 0 -110 -145q34 1 66 2.5t63 6.5l17 -159q-34 -4 -69.5 -5.5t-74.5 -2.5q31 -135 184 -135l17 -158q-87 0 -155.5 25.5t-116 73.5t-72 117t-24.5 155q0 84 20 154.5t56.5 121.5t89 79.5t117.5 28.5q11 0 21.5 -1t21.5 -2zM422 849
q0 -35 -22.5 -55.5t-51.5 -20.5q-30 0 -52.5 20.5t-22.5 55.5q0 33 22.5 55t52.5 22q29 0 51.5 -22t22.5 -55zM181 849q0 -35 -22.5 -55.5t-50.5 -20.5q-30 0 -52.5 20.5t-22.5 55.5t22.5 56t52.5 21q28 0 50.5 -22t22.5 -55z" />
    <glyph glyph-name="igrave" unicode="&#xec;" horiz-adv-x="244" 
d="M0 7zM203 685v-84t-0.5 -119t-1 -135.5t-1 -136t-0.5 -119v-84.5h-158v84.5t0.5 119t1 136t1 135.5t0.5 118.5v84.5h158zM224 837l-61 -81l-207 91l68 99z" />
    <glyph glyph-name="iacute" unicode="&#xed;" horiz-adv-x="244" 
d="M20 7zM203 685v-84t-0.5 -119t-1 -135.5t-1 -136t-0.5 -119v-84.5h-158v84.5t0.5 119t1 136t1 135.5t0.5 118.5v84.5h158zM222 946l69 -99l-209 -91l-62 81z" />
    <glyph glyph-name="icircumflex" unicode="&#xee;" horiz-adv-x="244" 
d="M0 7zM203 685v-84t-0.5 -119t-1 -135.5t-1 -136t-0.5 -119v-84.5h-158v84.5t0.5 119t1 136t1 135.5t0.5 118.5v84.5h158zM223 758q-28 23 -54.5 48.5t-49.5 54.5q-18 -27 -42.5 -54.5t-53.5 -50.5l-73 76q37 26 74 54t69 60h55q34 -32 69.5 -62t77.5 -57z" />
    <glyph glyph-name="idieresis" unicode="&#xef;" horiz-adv-x="244" 
d="M0 7zM203 685v-84t-0.5 -119t-1 -135.5t-1 -136t-0.5 -119v-84.5h-158v84.5t0.5 119t1 136t1 135.5t0.5 118.5v84.5h158zM318 849q0 -35 -22.5 -55.5t-51.5 -20.5q-30 0 -52.5 20.5t-22.5 55.5q0 33 22.5 55t52.5 22q29 0 51.5 -22t22.5 -55zM77 849q0 -35 -22.5 -55.5
t-50.5 -20.5q-30 0 -52.5 20.5t-22.5 55.5t22.5 56t52.5 21q28 0 50.5 -22t22.5 -55z" />
    <glyph glyph-name="eth" unicode="&#xf0;" horiz-adv-x="568" 
d="M0 0zM-14 465h52h16.5t16.5 -1q16 127 42 262q102 0 184 -20t139 -58.5t88 -94t31 -125.5q0 -55 -18.5 -109t-51.5 -103.5t-78.5 -93t-99.5 -77.5t-114.5 -57t-123.5 -32q-8 42 -11 92t-3 113q0 43 1 85.5t4 85.5q-20 1 -38.5 1h-35.5v132zM304 322l-86 5
q-2 -38 -3 -77.5t-1 -84.5q28 16 56.5 47.5t51 69t37 76.5t14.5 71q0 105 -129 132q-5 -23 -9 -48.5t-7 -53.5l87 -5z" />
    <glyph glyph-name="ntilde" unicode="&#xf1;" horiz-adv-x="536" 
d="M15 0zM188 718q-6 -17 -8.5 -37.5t-2.5 -35.5q22 37 56.5 54.5t76.5 17.5q100 0 153.5 -67.5t53.5 -205.5q0 -219 -108 -484l-147 60q19 45 37 105t32 121t22.5 116.5t8.5 90.5q0 105 -57 105q-65 0 -100 -73.5t-35 -199.5q0 -51 9.5 -117t26.5 -132l-154 -54
q-19 90 -28 194t-9 225q0 88 6 159.5t17 131.5zM467 890q-3 -27 -13 -47t-24 -34t-31 -21t-33 -7q-29 0 -51.5 7.5t-40.5 16.5t-32 16.5t-26 7.5q-34 0 -48 -44l-101 28q10 62 45 85.5t84 23.5q26 0 46.5 -6.5t37 -14t29.5 -14t24 -6.5q25 0 39 45z" />
    <glyph glyph-name="ograve" unicode="&#xf2;" horiz-adv-x="613" 
d="M13 0zM324 722q63 0 114 -23t86 -64.5t54 -100t19 -130.5q0 -87 -23.5 -169t-65.5 -145.5t-99 -102.5t-123 -39q-63 0 -113.5 25t-86 70t-54.5 107.5t-19 137.5q0 82 23.5 160t65.5 139t99 98t123 37zM332 562q-33 0 -62.5 -26t-51.5 -67t-35 -90.5t-13 -95.5
q0 -34 7.5 -65.5t22 -55.5t34.5 -38.5t45 -14.5q33 0 62 26.5t50.5 68.5t34 93t12.5 101q0 75 -27.5 119.5t-78.5 44.5zM440 837l-61 -81l-207 91l68 99z" />
    <glyph glyph-name="oacute" unicode="&#xf3;" horiz-adv-x="613" 
d="M13 0zM324 722q63 0 114 -23t86 -64.5t54 -100t19 -130.5q0 -87 -23.5 -169t-65.5 -145.5t-99 -102.5t-123 -39q-63 0 -113.5 25t-86 70t-54.5 107.5t-19 137.5q0 82 23.5 160t65.5 139t99 98t123 37zM332 562q-33 0 -62.5 -26t-51.5 -67t-35 -90.5t-13 -95.5
q0 -34 7.5 -65.5t22 -55.5t34.5 -38.5t45 -14.5q33 0 62 26.5t50.5 68.5t34 93t12.5 101q0 75 -27.5 119.5t-78.5 44.5zM438 946l69 -99l-209 -91l-62 81z" />
    <glyph glyph-name="ocircumflex" unicode="&#xf4;" horiz-adv-x="613" 
d="M13 0zM324 722q63 0 114 -23t86 -64.5t54 -100t19 -130.5q0 -87 -23.5 -169t-65.5 -145.5t-99 -102.5t-123 -39q-63 0 -113.5 25t-86 70t-54.5 107.5t-19 137.5q0 82 23.5 160t65.5 139t99 98t123 37zM332 562q-33 0 -62.5 -26t-51.5 -67t-35 -90.5t-13 -95.5
q0 -34 7.5 -65.5t22 -55.5t34.5 -38.5t45 -14.5q33 0 62 26.5t50.5 68.5t34 93t12.5 101q0 75 -27.5 119.5t-78.5 44.5zM439 758q-28 23 -54.5 48.5t-49.5 54.5q-18 -27 -42.5 -54.5t-53.5 -50.5l-73 76q37 26 74 54t69 60h55q34 -32 69.5 -62t77.5 -57z" />
    <glyph glyph-name="otilde" unicode="&#xf5;" horiz-adv-x="613" 
d="M13 0zM324 722q63 0 114 -23t86 -64.5t54 -100t19 -130.5q0 -87 -23.5 -169t-65.5 -145.5t-99 -102.5t-123 -39q-63 0 -113.5 25t-86 70t-54.5 107.5t-19 137.5q0 82 23.5 160t65.5 139t99 98t123 37zM332 562q-33 0 -62.5 -26t-51.5 -67t-35 -90.5t-13 -95.5
q0 -34 7.5 -65.5t22 -55.5t34.5 -38.5t45 -14.5q33 0 62 26.5t50.5 68.5t34 93t12.5 101q0 75 -27.5 119.5t-78.5 44.5zM539 890q-3 -27 -13 -47t-24 -34t-31 -21t-33 -7q-29 0 -51.5 7.5t-40.5 16.5t-32 16.5t-26 7.5q-34 0 -48 -44l-101 28q10 62 45 85.5t84 23.5
q26 0 46.5 -6.5t37 -14t29.5 -14t24 -6.5q25 0 39 45z" />
    <glyph glyph-name="odieresis" unicode="&#xf6;" horiz-adv-x="613" 
d="M13 0zM324 722q63 0 114 -23t86 -64.5t54 -100t19 -130.5q0 -87 -23.5 -169t-65.5 -145.5t-99 -102.5t-123 -39q-63 0 -113.5 25t-86 70t-54.5 107.5t-19 137.5q0 82 23.5 160t65.5 139t99 98t123 37zM332 562q-33 0 -62.5 -26t-51.5 -67t-35 -90.5t-13 -95.5
q0 -34 7.5 -65.5t22 -55.5t34.5 -38.5t45 -14.5q33 0 62 26.5t50.5 68.5t34 93t12.5 101q0 75 -27.5 119.5t-78.5 44.5zM534 849q0 -35 -22.5 -55.5t-51.5 -20.5q-30 0 -52.5 20.5t-22.5 55.5q0 33 22.5 55t52.5 22q29 0 51.5 -22t22.5 -55zM293 849q0 -35 -22.5 -55.5
t-50.5 -20.5q-30 0 -52.5 20.5t-22.5 55.5t22.5 56t52.5 21q28 0 50.5 -22t22.5 -55z" />
    <glyph glyph-name="divide" unicode="&#xf7;" horiz-adv-x="393" 
d="M197 672q19 0 36 -7.5t29 -20t19 -29.5t7 -35q0 -39 -26 -66.5t-65 -27.5q-19 0 -35.5 7.5t-28.5 20t-19 29.5t-7 37q0 18 7 35t19 29.5t28.5 20t35.5 7.5zM302 141q0 -20 -8 -36.5t-21 -29.5t-30.5 -20t-36.5 -7q-20 0 -37.5 7t-31 20t-21.5 29.5t-8 36.5q0 19 8 35.5
t21.5 29t31 19.5t37.5 7q19 0 36.5 -7t30.5 -19.5t21 -29t8 -35.5zM361 429v-158l-329 17v159z" />
    <glyph glyph-name="oslash" unicode="&#xf8;" horiz-adv-x="613" 
d="M13 0zM324 722q30 0 56.5 -5.5t50.5 -15.5l41 77l89 -43q-5 -8 -17.5 -31.5t-29.5 -57.5q83 -86 83 -242q0 -87 -23.5 -169t-65.5 -145.5t-99 -102.5t-123 -39q-68 0 -121 29q-11 -17 -22 -31t-22 -27l-78 57q11 14 23 29t23 33q-37 46 -56.5 109t-19.5 141
q0 82 23.5 160t65.5 139t99 98t123 37zM242 119q16 -10 37 -10q33 0 62 26.5t50.5 68.5t34 93t12.5 101q0 41 -11 82zM332 562q-33 0 -62.5 -26t-51.5 -67t-35 -90.5t-13 -95.5q0 -20 2.5 -38t6.5 -35l178 349q-11 3 -25 3z" />
    <glyph glyph-name="ugrave" unicode="&#xf9;" horiz-adv-x="652" 
d="M21 0zM577 712q12 -35 22.5 -77t19 -86.5t13 -90.5t4.5 -90q0 -81 -22 -150.5t-61.5 -120.5t-95.5 -80t-124 -29q-69 0 -126 30t-98.5 81.5t-64.5 120.5t-23 148q0 91 16.5 179t42.5 173l154 -36q-22 -70 -38.5 -150.5t-16.5 -165.5q0 -45 11 -85t31.5 -70.5t48.5 -48.5
t63 -18q33 0 59.5 17t45 47t29 70.5t10.5 87.5q0 17 -3 53.5t-10 80.5t-17 90t-24 83zM426 837l-61 -81l-207 91l68 99z" />
    <glyph glyph-name="uacute" unicode="&#xfa;" horiz-adv-x="652" 
d="M21 0zM577 712q12 -35 22.5 -77t19 -86.5t13 -90.5t4.5 -90q0 -81 -22 -150.5t-61.5 -120.5t-95.5 -80t-124 -29q-69 0 -126 30t-98.5 81.5t-64.5 120.5t-23 148q0 91 16.5 179t42.5 173l154 -36q-22 -70 -38.5 -150.5t-16.5 -165.5q0 -45 11 -85t31.5 -70.5t48.5 -48.5
t63 -18q33 0 59.5 17t45 47t29 70.5t10.5 87.5q0 17 -3 53.5t-10 80.5t-17 90t-24 83zM425 946l69 -99l-209 -91l-62 81z" />
    <glyph glyph-name="ucircumflex" unicode="&#xfb;" horiz-adv-x="652" 
d="M21 0zM577 712q12 -35 22.5 -77t19 -86.5t13 -90.5t4.5 -90q0 -81 -22 -150.5t-61.5 -120.5t-95.5 -80t-124 -29q-69 0 -126 30t-98.5 81.5t-64.5 120.5t-23 148q0 91 16.5 179t42.5 173l154 -36q-22 -70 -38.5 -150.5t-16.5 -165.5q0 -45 11 -85t31.5 -70.5t48.5 -48.5
t63 -18q33 0 59.5 17t45 47t29 70.5t10.5 87.5q0 17 -3 53.5t-10 80.5t-17 90t-24 83zM426 758q-28 23 -54.5 48.5t-49.5 54.5q-18 -27 -42.5 -54.5t-53.5 -50.5l-73 76q37 26 74 54t69 60h55q34 -32 69.5 -62t77.5 -57z" />
    <glyph glyph-name="udieresis" unicode="&#xfc;" horiz-adv-x="652" 
d="M21 0zM577 712q12 -35 22.5 -77t19 -86.5t13 -90.5t4.5 -90q0 -81 -22 -150.5t-61.5 -120.5t-95.5 -80t-124 -29q-69 0 -126 30t-98.5 81.5t-64.5 120.5t-23 148q0 91 16.5 179t42.5 173l154 -36q-22 -70 -38.5 -150.5t-16.5 -165.5q0 -45 11 -85t31.5 -70.5t48.5 -48.5
t63 -18q33 0 59.5 17t45 47t29 70.5t10.5 87.5q0 17 -3 53.5t-10 80.5t-17 90t-24 83zM521 849q0 -35 -22.5 -55.5t-51.5 -20.5q-30 0 -52.5 20.5t-22.5 55.5q0 33 22.5 55t52.5 22q29 0 51.5 -22t22.5 -55zM280 849q0 -35 -22.5 -55.5t-50.5 -20.5q-30 0 -52.5 20.5
t-22.5 55.5t22.5 56t52.5 21q28 0 50.5 -22t22.5 -55z" />
    <glyph glyph-name="yacute" unicode="&#xfd;" horiz-adv-x="551" 
d="M12 0zM539 694q3 -41 3 -77q0 -71 -12 -122t-35 -87.5t-58 -60t-81 -38.5q-4 -66 -5.5 -125t-1.5 -116q0 -21 0.5 -42t0.5 -41l-159 5q5 72 7 139t2 147v17.5t-2 17.5q-41 11 -75.5 42t-59 74.5t-38 95t-13.5 104.5q0 43 9 85l154 -36q-4 -13 -5 -27t-1 -29q0 -31 7 -61
t20 -54t32 -38.5t43 -14.5q36 0 58.5 14t34.5 35.5t16.5 49t4.5 54.5q0 74 -4 89h158zM375 946l69 -99l-209 -91l-62 81z" />
    <glyph glyph-name="thorn" unicode="&#xfe;" horiz-adv-x="575" 
d="M24 0zM225 711q-7 -31 -10 -61.5t-6 -56.5q11 1 23 1.5t23 0.5q68 0 124.5 -12t97 -37.5t62.5 -64t22 -91.5q0 -52 -20.5 -97t-66 -78t-117 -52t-173.5 -19q2 -35 2.5 -71t1.5 -71l-157 -6q-3 69 -5 139.5t-2 142.5q0 112 9 224.5t36 227.5zM190 434q-2 -23 -4 -59
t-2 -74q36 1 74.5 4t71 11.5t53 25t20.5 45.5q0 18 -15 28t-37.5 15t-47.5 6.5t-46 1.5q-20 0 -37 -0.5t-30 -3.5z" />
    <glyph glyph-name="ydieresis" unicode="&#xff;" horiz-adv-x="551" 
d="M12 0zM539 694q3 -41 3 -77q0 -71 -12 -122t-35 -87.5t-58 -60t-81 -38.5q-4 -66 -5.5 -125t-1.5 -116q0 -21 0.5 -42t0.5 -41l-159 5q5 72 7 139t2 147v17.5t-2 17.5q-41 11 -75.5 42t-59 74.5t-38 95t-13.5 104.5q0 43 9 85l154 -36q-4 -13 -5 -27t-1 -29q0 -31 7 -61
t20 -54t32 -38.5t43 -14.5q36 0 58.5 14t34.5 35.5t16.5 49t4.5 54.5q0 74 -4 89h158zM470 849q0 -35 -22.5 -55.5t-51.5 -20.5q-30 0 -52.5 20.5t-22.5 55.5q0 33 22.5 55t52.5 22q29 0 51.5 -22t22.5 -55zM229 849q0 -35 -22.5 -55.5t-50.5 -20.5q-30 0 -52.5 20.5
t-22.5 55.5t22.5 56t52.5 21q28 0 50.5 -22t22.5 -55z" />
    <glyph glyph-name="Amacron" unicode="&#x100;" horiz-adv-x="651" 
d="M19 0zM420 19q9 33 20.5 82.5t25.5 118.5q-29 -5 -61.5 -15t-66 -24t-66 -32t-61.5 -39q2 -23 8 -43t13 -40l-155 -36q-26 75 -42 163t-16 179q0 81 21.5 151t61.5 121.5t96 80.5t124 29q67 0 124.5 -30t99 -82t65 -121.5t23.5 -148.5q0 -20 -1 -46t-6.5 -66t-17.5 -97.5
t-34 -141.5zM472 382q-5 37 -18.5 69.5t-33 55.5t-45 36.5t-53.5 13.5q-34 0 -61 -17.5t-45.5 -47.5t-28.5 -71t-10 -88q0 -33 3 -61q30 21 68.5 39.5t78 32.5t77.5 24t68 14zM485 786q-204 9 -331 9v114q66 0 151 -2.5t191 -7.5z" />
    <glyph glyph-name="amacron" unicode="&#x101;" horiz-adv-x="651" 
d="M19 0zM420 19q9 33 20.5 82.5t25.5 118.5q-29 -5 -61.5 -15t-66 -24t-66 -32t-61.5 -39q2 -23 8 -43t13 -40l-155 -36q-26 75 -42 163t-16 179q0 81 21.5 151t61.5 121.5t96 80.5t124 29q67 0 124.5 -30t99 -82t65 -121.5t23.5 -148.5q0 -20 -1 -46t-6.5 -66t-17.5 -97.5
t-34 -141.5zM472 382q-5 37 -18.5 69.5t-33 55.5t-45 36.5t-53.5 13.5q-34 0 -61 -17.5t-45.5 -47.5t-28.5 -71t-10 -88q0 -33 3 -61q30 21 68.5 39.5t78 32.5t77.5 24t68 14zM485 786q-204 9 -331 9v114q66 0 151 -2.5t191 -7.5z" />
    <glyph glyph-name="Abreve" unicode="&#x102;" horiz-adv-x="651" 
d="M19 0zM420 19q9 33 20.5 82.5t25.5 118.5q-29 -5 -61.5 -15t-66 -24t-66 -32t-61.5 -39q2 -23 8 -43t13 -40l-155 -36q-26 75 -42 163t-16 179q0 81 21.5 151t61.5 121.5t96 80.5t124 29q67 0 124.5 -30t99 -82t65 -121.5t23.5 -148.5q0 -20 -1 -46t-6.5 -66t-17.5 -97.5
t-34 -141.5zM472 382q-5 37 -18.5 69.5t-33 55.5t-45 36.5t-53.5 13.5q-34 0 -61 -17.5t-45.5 -47.5t-28.5 -71t-10 -88q0 -33 3 -61q30 21 68.5 39.5t78 32.5t77.5 24t68 14zM224 938q12 -37 39.5 -64t64.5 -27q35 0 64 23.5t43 71.5l83 -50q-8 -24 -22 -47t-36.5 -41.5
t-54 -30t-73.5 -11.5t-76.5 11.5t-60.5 30.5t-42 44t-21 52z" />
    <glyph glyph-name="abreve" unicode="&#x103;" horiz-adv-x="651" 
d="M19 0zM420 19q9 33 20.5 82.5t25.5 118.5q-29 -5 -61.5 -15t-66 -24t-66 -32t-61.5 -39q2 -23 8 -43t13 -40l-155 -36q-26 75 -42 163t-16 179q0 81 21.5 151t61.5 121.5t96 80.5t124 29q67 0 124.5 -30t99 -82t65 -121.5t23.5 -148.5q0 -20 -1 -46t-6.5 -66t-17.5 -97.5
t-34 -141.5zM472 382q-5 37 -18.5 69.5t-33 55.5t-45 36.5t-53.5 13.5q-34 0 -61 -17.5t-45.5 -47.5t-28.5 -71t-10 -88q0 -33 3 -61q30 21 68.5 39.5t78 32.5t77.5 24t68 14zM224 938q12 -37 39.5 -64t64.5 -27q35 0 64 23.5t43 71.5l83 -50q-8 -24 -22 -47t-36.5 -41.5
t-54 -30t-73.5 -11.5t-76.5 11.5t-60.5 30.5t-42 44t-21 52z" />
    <glyph glyph-name="Aogonek" unicode="&#x104;" horiz-adv-x="651" 
d="M634 333q0 -21 -2.5 -58t-14 -86t-35 -106.5t-64.5 -118.5v-1q0 -15 8.5 -24.5t23 -15t32.5 -7.5t37 -2q31 0 60 4t43 7l-6 -137q-5 -2 -8.5 -2h-8.5q-39 0 -92.5 4.5t-102 20t-82.5 45.5t-34 82q0 33 13 60t28 55t28 58t13 69q0 25 -4 40q-29 -5 -61.5 -15t-66 -24
t-66 -32t-61.5 -39q2 -23 8 -43t13 -40l-155 -36q-26 75 -42 163t-16 179q0 81 21.5 151t61.5 121.5t96 80.5t124 29q67 0 124.5 -30t99 -82t65 -121.5t23.5 -148.5zM472 382q-5 37 -18.5 69.5t-33 55.5t-45 36.5t-53.5 13.5q-34 0 -61 -17.5t-45.5 -47.5t-28.5 -71t-10 -88
q0 -33 3 -61q30 21 68.5 39.5t78 32.5t77.5 24t68 14z" />
    <glyph glyph-name="aogonek" unicode="&#x105;" horiz-adv-x="651" 
d="M19 0zM634 333q0 -21 -2.5 -58t-14 -86t-35 -106.5t-64.5 -118.5v-1q0 -15 8.5 -24.5t23 -15t32.5 -7.5t37 -2q31 0 60 4t43 7l-6 -137q-5 -2 -8.5 -2h-8.5q-39 0 -92.5 4.5t-102 20t-82.5 45.5t-34 82q0 33 13 60t28 55t28 58t13 69q0 25 -4 40q-29 -5 -61.5 -15
t-66 -24t-66 -32t-61.5 -39q2 -23 8 -43t13 -40l-155 -36q-26 75 -42 163t-16 179q0 81 21.5 151t61.5 121.5t96 80.5t124 29q67 0 124.5 -30t99 -82t65 -121.5t23.5 -148.5zM472 382q-5 37 -18.5 69.5t-33 55.5t-45 36.5t-53.5 13.5q-34 0 -61 -17.5t-45.5 -47.5t-28.5 -71
t-10 -88q0 -33 3 -61q30 21 68.5 39.5t78 32.5t77.5 24t68 14z" />
    <glyph glyph-name="Cacute" unicode="&#x106;" horiz-adv-x="378" 
d="M10 0zM317 560q-11 3 -23 3q-29 0 -52 -16t-39.5 -45.5t-25.5 -71t-9 -92.5q0 -213 193 -213l17 -158q-6 -1 -12.5 -1h-13.5q-86 0 -150 27t-106.5 76.5t-64 117.5t-21.5 151q0 84 20 154.5t56.5 121.5t89 79.5t117.5 28.5q11 0 21 -1t21 -2zM333 946l69 -99l-209 -91
l-62 81z" />
    <glyph glyph-name="cacute" unicode="&#x107;" horiz-adv-x="378" 
d="M10 0zM317 560q-11 3 -23 3q-29 0 -52 -16t-39.5 -45.5t-25.5 -71t-9 -92.5q0 -213 193 -213l17 -158q-6 -1 -12.5 -1h-13.5q-86 0 -150 27t-106.5 76.5t-64 117.5t-21.5 151q0 84 20 154.5t56.5 121.5t89 79.5t117.5 28.5q11 0 21 -1t21 -2zM333 946l69 -99l-209 -91
l-62 81z" />
    <glyph glyph-name="Cdotaccent" unicode="&#x10a;" horiz-adv-x="378" 
d="M10 0zM317 560q-11 3 -23 3q-29 0 -52 -16t-39.5 -45.5t-25.5 -71t-9 -92.5q0 -213 193 -213l17 -158q-6 -1 -12.5 -1h-13.5q-86 0 -150 27t-106.5 76.5t-64 117.5t-21.5 151q0 84 20 154.5t56.5 121.5t89 79.5t117.5 28.5q11 0 21 -1t21 -2zM307 847q0 -35 -22.5 -55.5
t-50.5 -20.5q-30 0 -52.5 20.5t-22.5 55.5t22.5 56t52.5 21q28 0 50.5 -22t22.5 -55z" />
    <glyph glyph-name="cdotaccent" unicode="&#x10b;" horiz-adv-x="378" 
d="M10 0zM317 560q-11 3 -23 3q-29 0 -52 -16t-39.5 -45.5t-25.5 -71t-9 -92.5q0 -213 193 -213l17 -158q-6 -1 -12.5 -1h-13.5q-86 0 -150 27t-106.5 76.5t-64 117.5t-21.5 151q0 84 20 154.5t56.5 121.5t89 79.5t117.5 28.5q11 0 21 -1t21 -2zM307 847q0 -35 -22.5 -55.5
t-50.5 -20.5q-30 0 -52.5 20.5t-22.5 55.5t22.5 56t52.5 21q28 0 50.5 -22t22.5 -55z" />
    <glyph glyph-name="Ccaron" unicode="&#x10c;" horiz-adv-x="378" 
d="M10 0zM317 560q-11 3 -23 3q-29 0 -52 -16t-39.5 -45.5t-25.5 -71t-9 -92.5q0 -213 193 -213l17 -158q-6 -1 -12.5 -1h-13.5q-86 0 -150 27t-106.5 76.5t-64 117.5t-21.5 151q0 84 20 154.5t56.5 121.5t89 79.5t117.5 28.5q11 0 21 -1t21 -2zM133 942q27 -23 53.5 -47.5
t49.5 -54.5q18 28 43 55.5t54 50.5l72 -78q-37 -26 -74 -53t-69 -59h-55q-68 65 -147 116z" />
    <glyph glyph-name="ccaron" unicode="&#x10d;" horiz-adv-x="378" 
d="M10 0zM317 560q-11 3 -23 3q-29 0 -52 -16t-39.5 -45.5t-25.5 -71t-9 -92.5q0 -213 193 -213l17 -158q-6 -1 -12.5 -1h-13.5q-86 0 -150 27t-106.5 76.5t-64 117.5t-21.5 151q0 84 20 154.5t56.5 121.5t89 79.5t117.5 28.5q11 0 21 -1t21 -2zM133 942q27 -23 53.5 -47.5
t49.5 -54.5q18 28 43 55.5t54 50.5l72 -78q-37 -26 -74 -53t-69 -59h-55q-68 65 -147 116z" />
    <glyph glyph-name="Dcaron" unicode="&#x10e;" horiz-adv-x="533" 
d="M16 0zM32 -44q-8 40 -12 91t-4 114q0 274 60 565q101 0 182.5 -20t139.5 -58t89 -93.5t31 -126.5q0 -92 -42 -171.5t-110.5 -141t-155.5 -102.5t-178 -57zM176 165q28 16 56 47.5t51 69t37.5 77t14.5 70.5q0 105 -129 132q-30 -144 -30 -396zM166 942q27 -23 53.5 -47.5
t49.5 -54.5q18 28 43 55.5t54 50.5l72 -78q-37 -26 -74 -53t-69 -59h-55q-68 65 -147 116z" />
    <glyph glyph-name="dcaron" unicode="&#x10f;" horiz-adv-x="533" 
d="M16 0zM32 -44q-8 40 -12 91t-4 114q0 274 60 565q101 0 182.5 -20t139.5 -58t89 -93.5t31 -126.5q0 -92 -42 -171.5t-110.5 -141t-155.5 -102.5t-178 -57zM176 165q28 16 56 47.5t51 69t37.5 77t14.5 70.5q0 105 -129 132q-30 -144 -30 -396zM166 942q27 -23 53.5 -47.5
t49.5 -54.5q18 28 43 55.5t54 50.5l72 -78q-37 -26 -74 -53t-69 -59h-55q-68 65 -147 116z" />
    <glyph glyph-name="Dcroat" unicode="&#x110;" horiz-adv-x="568" 
d="M0 0zM-14 465h52h16.5t16.5 -1q16 127 42 262q102 0 184 -20t139 -58.5t88 -94t31 -125.5q0 -55 -18.5 -109t-51.5 -103.5t-78.5 -93t-99.5 -77.5t-114.5 -57t-123.5 -32q-8 42 -11 92t-3 113q0 43 1 85.5t4 85.5q-20 1 -38.5 1h-35.5v132zM304 322l-86 5
q-2 -38 -3 -77.5t-1 -84.5q28 16 56.5 47.5t51 69t37 76.5t14.5 71q0 105 -129 132q-5 -23 -9 -48.5t-7 -53.5l87 -5z" />
    <glyph glyph-name="dcroat" unicode="&#x111;" horiz-adv-x="568" 
d="M0 0zM-14 465h52h16.5t16.5 -1q16 127 42 262q102 0 184 -20t139 -58.5t88 -94t31 -125.5q0 -55 -18.5 -109t-51.5 -103.5t-78.5 -93t-99.5 -77.5t-114.5 -57t-123.5 -32q-8 42 -11 92t-3 113q0 43 1 85.5t4 85.5q-20 1 -38.5 1h-35.5v132zM304 322l-86 5
q-2 -38 -3 -77.5t-1 -84.5q28 16 56.5 47.5t51 69t37 76.5t14.5 71q0 105 -129 132q-5 -23 -9 -48.5t-7 -53.5l87 -5z" />
    <glyph glyph-name="Emacron" unicode="&#x112;" 
d="M11 0zM316 559q-8 4 -30 4q-86 0 -110 -145q34 1 66 2.5t63 6.5l17 -159q-34 -4 -69.5 -5.5t-74.5 -2.5q31 -135 184 -135l17 -158q-87 0 -155.5 25.5t-116 73.5t-72 117t-24.5 155q0 84 20 154.5t56.5 121.5t89 79.5t117.5 28.5q11 0 21.5 -1t21.5 -2zM387 786
q-204 9 -331 9v114q66 0 151 -2.5t191 -7.5z" />
    <glyph glyph-name="emacron" unicode="&#x113;" 
d="M11 0zM316 559q-8 4 -30 4q-86 0 -110 -145q34 1 66 2.5t63 6.5l17 -159q-34 -4 -69.5 -5.5t-74.5 -2.5q31 -135 184 -135l17 -158q-87 0 -155.5 25.5t-116 73.5t-72 117t-24.5 155q0 84 20 154.5t56.5 121.5t89 79.5t117.5 28.5q11 0 21.5 -1t21.5 -2zM387 786
q-204 9 -331 9v114q66 0 151 -2.5t191 -7.5z" />
    <glyph glyph-name="Ebreve" unicode="&#x114;" 
d="M11 0zM316 559q-8 4 -30 4q-86 0 -110 -145q34 1 66 2.5t63 6.5l17 -159q-34 -4 -69.5 -5.5t-74.5 -2.5q31 -135 184 -135l17 -158q-87 0 -155.5 25.5t-116 73.5t-72 117t-24.5 155q0 84 20 154.5t56.5 121.5t89 79.5t117.5 28.5q11 0 21.5 -1t21.5 -2zM126 938
q12 -37 39.5 -64t64.5 -27q35 0 64 23.5t43 71.5l83 -50q-8 -24 -22 -47t-36.5 -41.5t-54 -30t-73.5 -11.5t-76.5 11.5t-60.5 30.5t-42 44t-21 52z" />
    <glyph glyph-name="ebreve" unicode="&#x115;" 
d="M11 0zM316 559q-8 4 -30 4q-86 0 -110 -145q34 1 66 2.5t63 6.5l17 -159q-34 -4 -69.5 -5.5t-74.5 -2.5q31 -135 184 -135l17 -158q-87 0 -155.5 25.5t-116 73.5t-72 117t-24.5 155q0 84 20 154.5t56.5 121.5t89 79.5t117.5 28.5q11 0 21.5 -1t21.5 -2zM126 938
q12 -37 39.5 -64t64.5 -27q35 0 64 23.5t43 71.5l83 -50q-8 -24 -22 -47t-36.5 -41.5t-54 -30t-73.5 -11.5t-76.5 11.5t-60.5 30.5t-42 44t-21 52z" />
    <glyph glyph-name="Edotaccent" unicode="&#x116;" 
d="M11 0zM316 559q-8 4 -30 4q-86 0 -110 -145q34 1 66 2.5t63 6.5l17 -159q-34 -4 -69.5 -5.5t-74.5 -2.5q31 -135 184 -135l17 -158q-87 0 -155.5 25.5t-116 73.5t-72 117t-24.5 155q0 84 20 154.5t56.5 121.5t89 79.5t117.5 28.5q11 0 21.5 -1t21.5 -2zM301 847
q0 -35 -22.5 -55.5t-50.5 -20.5q-30 0 -52.5 20.5t-22.5 55.5t22.5 56t52.5 21q28 0 50.5 -22t22.5 -55z" />
    <glyph glyph-name="edotaccent" unicode="&#x117;" 
d="M11 0zM316 559q-8 4 -30 4q-86 0 -110 -145q34 1 66 2.5t63 6.5l17 -159q-34 -4 -69.5 -5.5t-74.5 -2.5q31 -135 184 -135l17 -158q-87 0 -155.5 25.5t-116 73.5t-72 117t-24.5 155q0 84 20 154.5t56.5 121.5t89 79.5t117.5 28.5q11 0 21.5 -1t21.5 -2zM301 847
q0 -35 -22.5 -55.5t-50.5 -20.5q-30 0 -52.5 20.5t-22.5 55.5t22.5 56t52.5 21q28 0 50.5 -22t22.5 -55z" />
    <glyph glyph-name="Eogonek" unicode="&#x118;" 
d="M316 559q-8 4 -30 4q-86 0 -110 -145q34 1 66 2.5t63 6.5l17 -159q-34 -4 -69.5 -5.5t-74.5 -2.5q31 -135 184 -135q-9 -27 -15 -48t-9 -40t-4.5 -37t-1.5 -37q0 -15 8.5 -24.5t23 -15t32.5 -7.5t37 -2q31 0 60 4t43 7l-6 -137q-5 -2 -8.5 -2h-8.5q-26 0 -58.5 1.5
t-67.5 7t-68 15.5t-59 27t-42 41.5t-16 59.5q0 40 27 75q-116 22 -167 102t-51 223q0 84 20 154.5t56.5 121.5t89 79.5t117.5 28.5q11 0 21.5 -1t21.5 -2z" />
    <glyph glyph-name="eogonek" unicode="&#x119;" 
d="M11 0zM316 559q-8 4 -30 4q-86 0 -110 -145q34 1 66 2.5t63 6.5l17 -159q-34 -4 -69.5 -5.5t-74.5 -2.5q31 -135 184 -135q-9 -27 -15 -48t-9 -40t-4.5 -37t-1.5 -37q0 -15 8.5 -24.5t23 -15t32.5 -7.5t37 -2q31 0 60 4t43 7l-6 -137q-5 -2 -8.5 -2h-8.5q-26 0 -58.5 1.5
t-67.5 7t-68 15.5t-59 27t-42 41.5t-16 59.5q0 40 27 75q-116 22 -167 102t-51 223q0 84 20 154.5t56.5 121.5t89 79.5t117.5 28.5q11 0 21.5 -1t21.5 -2z" />
    <glyph glyph-name="Ecaron" unicode="&#x11a;" 
d="M11 0zM316 559q-8 4 -30 4q-86 0 -110 -145q34 1 66 2.5t63 6.5l17 -159q-34 -4 -69.5 -5.5t-74.5 -2.5q31 -135 184 -135l17 -158q-87 0 -155.5 25.5t-116 73.5t-72 117t-24.5 155q0 84 20 154.5t56.5 121.5t89 79.5t117.5 28.5q11 0 21.5 -1t21.5 -2zM127 942
q27 -23 53.5 -47.5t49.5 -54.5q18 28 43 55.5t54 50.5l72 -78q-37 -26 -74 -53t-69 -59h-55q-68 65 -147 116z" />
    <glyph glyph-name="ecaron" unicode="&#x11b;" 
d="M11 0zM316 559q-8 4 -30 4q-86 0 -110 -145q34 1 66 2.5t63 6.5l17 -159q-34 -4 -69.5 -5.5t-74.5 -2.5q31 -135 184 -135l17 -158q-87 0 -155.5 25.5t-116 73.5t-72 117t-24.5 155q0 84 20 154.5t56.5 121.5t89 79.5t117.5 28.5q11 0 21.5 -1t21.5 -2zM127 942
q27 -23 53.5 -47.5t49.5 -54.5q18 28 43 55.5t54 50.5l72 -78q-37 -26 -74 -53t-69 -59h-55q-68 65 -147 116z" />
    <glyph glyph-name="Gbreve" unicode="&#x11e;" horiz-adv-x="579" 
d="M11 0zM381 514q-21 58 -77 58q-32 0 -57 -19t-42 -52t-26.5 -77.5t-9.5 -95.5q0 -44 13.5 -81t38 -64t58 -42t72.5 -15q14 0 27 7t22.5 19t15.5 27.5t6 32.5q0 25 -11.5 37.5t-40.5 12.5q-15 0 -26.5 -5.5t-31.5 -16.5l-27 137q21 15 50 22.5t53 7.5q41 0 75 -15
t58 -41.5t37.5 -63t13.5 -79.5q0 -49 -16 -92.5t-45.5 -76.5t-70 -52t-89.5 -19q-72 0 -134.5 27.5t-108 76t-71.5 114t-26 142.5q0 91 19 166t55 128t88.5 82.5t120.5 29.5q43 0 85 -13.5t75.5 -37t56 -55.5t27.5 -68zM188 938q12 -37 39.5 -64t64.5 -27q35 0 64 23.5
t43 71.5l83 -50q-8 -24 -22 -47t-36.5 -41.5t-54 -30t-73.5 -11.5t-76.5 11.5t-60.5 30.5t-42 44t-21 52z" />
    <glyph glyph-name="gbreve" unicode="&#x11f;" horiz-adv-x="579" 
d="M11 0zM381 514q-21 58 -77 58q-32 0 -57 -19t-42 -52t-26.5 -77.5t-9.5 -95.5q0 -44 13.5 -81t38 -64t58 -42t72.5 -15q14 0 27 7t22.5 19t15.5 27.5t6 32.5q0 25 -11.5 37.5t-40.5 12.5q-15 0 -26.5 -5.5t-31.5 -16.5l-27 137q21 15 50 22.5t53 7.5q41 0 75 -15
t58 -41.5t37.5 -63t13.5 -79.5q0 -49 -16 -92.5t-45.5 -76.5t-70 -52t-89.5 -19q-72 0 -134.5 27.5t-108 76t-71.5 114t-26 142.5q0 91 19 166t55 128t88.5 82.5t120.5 29.5q43 0 85 -13.5t75.5 -37t56 -55.5t27.5 -68zM188 938q12 -37 39.5 -64t64.5 -27q35 0 64 23.5
t43 71.5l83 -50q-8 -24 -22 -47t-36.5 -41.5t-54 -30t-73.5 -11.5t-76.5 11.5t-60.5 30.5t-42 44t-21 52z" />
    <glyph glyph-name="Gdotaccent" unicode="&#x120;" horiz-adv-x="579" 
d="M11 0zM381 514q-21 58 -77 58q-32 0 -57 -19t-42 -52t-26.5 -77.5t-9.5 -95.5q0 -44 13.5 -81t38 -64t58 -42t72.5 -15q14 0 27 7t22.5 19t15.5 27.5t6 32.5q0 25 -11.5 37.5t-40.5 12.5q-15 0 -26.5 -5.5t-31.5 -16.5l-27 137q21 15 50 22.5t53 7.5q41 0 75 -15
t58 -41.5t37.5 -63t13.5 -79.5q0 -49 -16 -92.5t-45.5 -76.5t-70 -52t-89.5 -19q-72 0 -134.5 27.5t-108 76t-71.5 114t-26 142.5q0 91 19 166t55 128t88.5 82.5t120.5 29.5q43 0 85 -13.5t75.5 -37t56 -55.5t27.5 -68zM363 847q0 -35 -22.5 -55.5t-50.5 -20.5
q-30 0 -52.5 20.5t-22.5 55.5t22.5 56t52.5 21q28 0 50.5 -22t22.5 -55z" />
    <glyph glyph-name="gdotaccent" unicode="&#x121;" horiz-adv-x="579" 
d="M11 0zM381 514q-21 58 -77 58q-32 0 -57 -19t-42 -52t-26.5 -77.5t-9.5 -95.5q0 -44 13.5 -81t38 -64t58 -42t72.5 -15q14 0 27 7t22.5 19t15.5 27.5t6 32.5q0 25 -11.5 37.5t-40.5 12.5q-15 0 -26.5 -5.5t-31.5 -16.5l-27 137q21 15 50 22.5t53 7.5q41 0 75 -15
t58 -41.5t37.5 -63t13.5 -79.5q0 -49 -16 -92.5t-45.5 -76.5t-70 -52t-89.5 -19q-72 0 -134.5 27.5t-108 76t-71.5 114t-26 142.5q0 91 19 166t55 128t88.5 82.5t120.5 29.5q43 0 85 -13.5t75.5 -37t56 -55.5t27.5 -68zM363 847q0 -35 -22.5 -55.5t-50.5 -20.5
q-30 0 -52.5 20.5t-22.5 55.5t22.5 56t52.5 21q28 0 50.5 -22t22.5 -55z" />
    <glyph glyph-name="Gcommaaccent" unicode="&#x122;" horiz-adv-x="579" 
d="M11 0zM381 514q-21 58 -77 58q-32 0 -57 -19t-42 -52t-26.5 -77.5t-9.5 -95.5q0 -44 13.5 -81t38 -64t58 -42t72.5 -15q14 0 27 7t22.5 19t15.5 27.5t6 32.5q0 25 -11.5 37.5t-40.5 12.5q-15 0 -26.5 -5.5t-31.5 -16.5l-27 137q21 15 50 22.5t53 7.5q41 0 75 -15
t58 -41.5t37.5 -63t13.5 -79.5q0 -49 -16 -92.5t-45.5 -76.5t-70 -52t-89.5 -19q-72 0 -134.5 27.5t-108 76t-71.5 114t-26 142.5q0 91 19 166t55 128t88.5 82.5t120.5 29.5q43 0 85 -13.5t75.5 -37t56 -55.5t27.5 -68zM254 -253q28 24 35 38.5t8 19.5q0 -1 -2 9
q-4 -1 -7.5 -1.5t-8.5 -0.5q-28 0 -46 17t-18 40t23.5 38.5t52.5 15.5q34 0 52.5 -19t18.5 -46q0 -35 -28 -65t-80 -46z" />
    <glyph glyph-name="gcommaaccent" unicode="&#x123;" horiz-adv-x="579" 
d="M11 0zM381 514q-21 58 -77 58q-32 0 -57 -19t-42 -52t-26.5 -77.5t-9.5 -95.5q0 -44 13.5 -81t38 -64t58 -42t72.5 -15q14 0 27 7t22.5 19t15.5 27.5t6 32.5q0 25 -11.5 37.5t-40.5 12.5q-15 0 -26.5 -5.5t-31.5 -16.5l-27 137q21 15 50 22.5t53 7.5q41 0 75 -15
t58 -41.5t37.5 -63t13.5 -79.5q0 -49 -16 -92.5t-45.5 -76.5t-70 -52t-89.5 -19q-72 0 -134.5 27.5t-108 76t-71.5 114t-26 142.5q0 91 19 166t55 128t88.5 82.5t120.5 29.5q43 0 85 -13.5t75.5 -37t56 -55.5t27.5 -68zM254 -253q28 24 35 38.5t8 19.5q0 -1 -2 9
q-4 -1 -7.5 -1.5t-8.5 -0.5q-28 0 -46 17t-18 40t23.5 38.5t52.5 15.5q34 0 52.5 -19t18.5 -46q0 -35 -28 -65t-80 -46z" />
    <glyph glyph-name="Hbar" unicode="&#x126;" horiz-adv-x="513" 
d="M332 575q-39 0 -74.5 0.5t-69.5 1.5q2 -21 3.5 -43t3.5 -45q21 32 53.5 46t67.5 14q44 0 77.5 -21t56.5 -55.5t34.5 -80.5t11.5 -95q0 -48 -5 -102.5t-11.5 -102.5t-12 -83.5t-6.5 -44.5l-157 13q7 66 11.5 109t6.5 71t3 44.5t1 29.5q0 158 -60 158q-16 0 -29 -16
t-22 -60t-14 -122t-5 -201h-159q0 200 -1.5 345t-9.5 245h-47v59h42l-8 46l156 23q6 -22 12 -71l163 -3z" />
    <glyph glyph-name="hbar" unicode="&#x127;" horiz-adv-x="513" 
d="M0 0zM332 575q-39 0 -74.5 0.5t-69.5 1.5q2 -21 3.5 -43t3.5 -45q21 32 53.5 46t67.5 14q44 0 77.5 -21t56.5 -55.5t34.5 -80.5t11.5 -95q0 -48 -5 -102.5t-11.5 -102.5t-12 -83.5t-6.5 -44.5l-157 13q7 66 11.5 109t6.5 71t3 44.5t1 29.5q0 158 -60 158q-16 0 -29 -16
t-22 -60t-14 -122t-5 -201h-159q0 200 -1.5 345t-9.5 245h-47v59h42l-8 46l156 23q6 -22 12 -71l163 -3z" />
    <glyph glyph-name="uni012A" unicode="&#x12a;" horiz-adv-x="244" 
d="M0 7zM203 685v-84t-0.5 -119t-1 -135.5t-1 -136t-0.5 -119v-84.5h-158v84.5t0.5 119t1 136t1 135.5t0.5 118.5v84.5h158zM283 786q-204 9 -331 9v114q66 0 151 -2.5t191 -7.5z" />
    <glyph glyph-name="imacron" unicode="&#x12b;" horiz-adv-x="244" 
d="M0 7zM203 685v-84t-0.5 -119t-1 -135.5t-1 -136t-0.5 -119v-84.5h-158v84.5t0.5 119t1 136t1 135.5t0.5 118.5v84.5h158zM283 786q-204 9 -331 9v114q66 0 151 -2.5t191 -7.5z" />
    <glyph glyph-name="Ibreve" unicode="&#x12c;" horiz-adv-x="244" 
d="M0 7zM203 685v-84t-0.5 -119t-1 -135.5t-1 -136t-0.5 -119v-84.5h-158v84.5t0.5 119t1 136t1 135.5t0.5 118.5v84.5h158zM23 938q12 -37 39.5 -64t64.5 -27q35 0 64 23.5t43 71.5l83 -50q-8 -24 -22 -47t-36.5 -41.5t-54 -30t-73.5 -11.5t-76.5 11.5t-60.5 30.5t-42 44
t-21 52z" />
    <glyph glyph-name="uni012D" unicode="&#x12d;" horiz-adv-x="244" 
d="M0 7zM203 685v-84t-0.5 -119t-1 -135.5t-1 -136t-0.5 -119v-84.5h-158v84.5t0.5 119t1 136t1 135.5t0.5 118.5v84.5h158zM23 938q12 -37 39.5 -64t64.5 -27q35 0 64 23.5t43 71.5l83 -50q-8 -24 -22 -47t-36.5 -41.5t-54 -30t-73.5 -11.5t-76.5 11.5t-60.5 30.5t-42 44
t-21 52z" />
    <glyph glyph-name="Iogonek" unicode="&#x12e;" horiz-adv-x="244" 
d="M203 685v-81.5t-0.5 -113.5t-1 -129.5t-1 -129.5t-0.5 -113.5v-82.5q-25 -25 -34 -39.5t-9 -32.5q0 -15 8.5 -24.5t23 -15t32.5 -7.5t37 -2q31 0 60 4t43 7l-6 -137q-5 -2 -8.5 -2h-8.5q-25 0 -58 1.5t-68 7t-68 15.5t-59 27t-42 41.5t-16 59.5q0 19 2.5 37.5t12.5 31.5
v84.5t0.5 119t1 136t1 135.5t0.5 118.5v84.5h158z" />
    <glyph glyph-name="iogonek" unicode="&#x12f;" horiz-adv-x="244" 
d="M27 0zM203 685v-81.5t-0.5 -113.5t-1 -129.5t-1 -129.5t-0.5 -113.5v-82.5q-25 -25 -34 -39.5t-9 -32.5q0 -15 8.5 -24.5t23 -15t32.5 -7.5t37 -2q31 0 60 4t43 7l-6 -137q-5 -2 -8.5 -2h-8.5q-25 0 -58 1.5t-68 7t-68 15.5t-59 27t-42 41.5t-16 59.5q0 19 2.5 37.5
t12.5 31.5v84.5t0.5 119t1 136t1 135.5t0.5 118.5v84.5h158z" />
    <glyph glyph-name="Idotaccent" unicode="&#x130;" horiz-adv-x="244" 
d="M42 7zM203 685v-84t-0.5 -119t-1 -135.5t-1 -136t-0.5 -119v-84.5h-158v84.5t0.5 119t1 136t1 135.5t0.5 118.5v84.5h158zM196 847q0 -35 -22.5 -55.5t-50.5 -20.5q-30 0 -52.5 20.5t-22.5 55.5t22.5 56t52.5 21q28 0 50.5 -22t22.5 -55z" />
    <glyph glyph-name="dotlessi" unicode="&#x131;" horiz-adv-x="244" 
d="M42 7zM203 685v-84t-0.5 -119t-1 -135.5t-1 -136t-0.5 -119v-84.5h-158v84.5t0.5 119t1 136t1 135.5t0.5 118.5v84.5h158z" />
    <glyph glyph-name="IJ" unicode="&#x132;" horiz-adv-x="642" 
d="M42 0zM203 685v-84t-0.5 -119t-1 -135.5t-1 -136t-0.5 -119v-84.5h-158v84.5t0.5 119t1 136t1 135.5t0.5 118.5v84.5h158zM518 705q107 -185 107 -462q0 -127 -55 -195t-158 -68q-46 0 -83 17t-63 47.5t-40 72.5t-14 92h159q0 -35 9 -52.5t32 -17.5q29 0 41.5 22t12.5 82
q0 235 -86 384z" />
    <glyph glyph-name="ij" unicode="&#x133;" horiz-adv-x="642" 
d="M42 0zM203 685v-84t-0.5 -119t-1 -135.5t-1 -136t-0.5 -119v-84.5h-158v84.5t0.5 119t1 136t1 135.5t0.5 118.5v84.5h158zM518 705q107 -185 107 -462q0 -127 -55 -195t-158 -68q-46 0 -83 17t-63 47.5t-40 72.5t-14 92h159q0 -35 9 -52.5t32 -17.5q29 0 41.5 22t12.5 82
q0 235 -86 384z" />
    <glyph glyph-name="Kcommaaccent" unicode="&#x136;" horiz-adv-x="475" 
d="M22 0zM397 601q-15 -13 -34.5 -36t-40.5 -51t-41.5 -58.5t-36.5 -58.5t-26 -51t-10 -36q0 -9 15 -24t38.5 -33t53.5 -37t59.5 -36t56 -30t44.5 -19l-44 -152q-61 18 -119.5 47.5t-106.5 77.5q3 -18 3.5 -42.5t0.5 -39.5h-158q0 27 -1 76t-3 110.5t-4.5 129.5t-6 132
t-7 119t-7.5 90l158 8q2 -27 3 -54.5t1 -56.5q20 42 47.5 79.5t65.5 67.5zM202 -253q28 24 35 38.5t8 19.5q0 -1 -2 9q-4 -1 -7.5 -1.5t-8.5 -0.5q-28 0 -46 17t-18 40t23.5 38.5t52.5 15.5q34 0 52.5 -19t18.5 -46q0 -35 -28 -65t-80 -46z" />
    <glyph glyph-name="kcommaaccent" unicode="&#x137;" horiz-adv-x="475" 
d="M22 0zM397 601q-15 -13 -34.5 -36t-40.5 -51t-41.5 -58.5t-36.5 -58.5t-26 -51t-10 -36q0 -9 15 -24t38.5 -33t53.5 -37t59.5 -36t56 -30t44.5 -19l-44 -152q-61 18 -119.5 47.5t-106.5 77.5q3 -18 3.5 -42.5t0.5 -39.5h-158q0 27 -1 76t-3 110.5t-4.5 129.5t-6 132
t-7 119t-7.5 90l158 8q2 -27 3 -54.5t1 -56.5q20 42 47.5 79.5t65.5 67.5zM202 -253q28 24 35 38.5t8 19.5q0 -1 -2 9q-4 -1 -7.5 -1.5t-8.5 -0.5q-28 0 -46 17t-18 40t23.5 38.5t52.5 15.5q34 0 52.5 -19t18.5 -46q0 -35 -28 -65t-80 -46z" />
    <glyph glyph-name="Lacute" unicode="&#x139;" horiz-adv-x="321" 
d="M16 0zM239 706q-4 -16 -10.5 -48.5t-13.5 -73.5t-14 -87.5t-13 -91.5t-9.5 -85.5t-3.5 -68.5q0 -81 33.5 -115t112.5 -34v-158q-147 0 -226 79.5t-79 227.5q0 29 3.5 72t9.5 91t13 97t14 92t13.5 74.5t10.5 44.5zM260 946l69 -99l-209 -91l-62 81z" />
    <glyph glyph-name="lacute" unicode="&#x13a;" horiz-adv-x="321" 
d="M16 0zM239 706q-4 -16 -10.5 -48.5t-13.5 -73.5t-14 -87.5t-13 -91.5t-9.5 -85.5t-3.5 -68.5q0 -81 33.5 -115t112.5 -34v-158q-147 0 -226 79.5t-79 227.5q0 29 3.5 72t9.5 91t13 97t14 92t13.5 74.5t10.5 44.5zM260 946l69 -99l-209 -91l-62 81z" />
    <glyph glyph-name="Lcommaaccent" unicode="&#x13b;" horiz-adv-x="321" 
d="M16 0zM239 706q-4 -16 -10.5 -48.5t-13.5 -73.5t-14 -87.5t-13 -91.5t-9.5 -85.5t-3.5 -68.5q0 -81 33.5 -115t112.5 -34v-158q-147 0 -226 79.5t-79 227.5q0 29 3.5 72t9.5 91t13 97t14 92t13.5 74.5t10.5 44.5zM125 -253q28 24 35 38.5t8 19.5q0 -1 -2 9
q-4 -1 -7.5 -1.5t-8.5 -0.5q-28 0 -46 17t-18 40t23.5 38.5t52.5 15.5q34 0 52.5 -19t18.5 -46q0 -35 -28 -65t-80 -46z" />
    <glyph glyph-name="lcommaaccent" unicode="&#x13c;" horiz-adv-x="321" 
d="M16 0zM239 706q-4 -16 -10.5 -48.5t-13.5 -73.5t-14 -87.5t-13 -91.5t-9.5 -85.5t-3.5 -68.5q0 -81 33.5 -115t112.5 -34v-158q-147 0 -226 79.5t-79 227.5q0 29 3.5 72t9.5 91t13 97t14 92t13.5 74.5t10.5 44.5zM125 -253q28 24 35 38.5t8 19.5q0 -1 -2 9
q-4 -1 -7.5 -1.5t-8.5 -0.5q-28 0 -46 17t-18 40t23.5 38.5t52.5 15.5q34 0 52.5 -19t18.5 -46q0 -35 -28 -65t-80 -46z" />
    <glyph glyph-name="Lcaron" unicode="&#x13d;" horiz-adv-x="452" 
d="M16 0zM239 706q-4 -16 -10.5 -48.5t-13.5 -73.5t-14 -87.5t-13 -91.5t-9.5 -85.5t-3.5 -68.5q0 -81 33.5 -115t112.5 -34v-158q-147 0 -226 79.5t-79 227.5q0 29 3.5 72t9.5 91t13 97t14 92t13.5 74.5t10.5 44.5zM314 506q34 38 43.5 60.5t9.5 32.5q0 2 -0.5 5.5
t-1.5 8.5q-11 -3 -20 -3q-35 0 -57 27.5t-22 63.5q0 18 8 33.5t21 27t30 18t35 6.5q42 0 65 -29t23 -74q0 -55 -35 -103.5t-99 -73.5z" />
    <glyph glyph-name="lcaron" unicode="&#x13e;" horiz-adv-x="452" 
d="M16 0zM239 706q-4 -16 -10.5 -48.5t-13.5 -73.5t-14 -87.5t-13 -91.5t-9.5 -85.5t-3.5 -68.5q0 -81 33.5 -115t112.5 -34v-158q-147 0 -226 79.5t-79 227.5q0 29 3.5 72t9.5 91t13 97t14 92t13.5 74.5t10.5 44.5zM314 506q34 38 43.5 60.5t9.5 32.5q0 2 -0.5 5.5
t-1.5 8.5q-11 -3 -20 -3q-35 0 -57 27.5t-22 63.5q0 18 8 33.5t21 27t30 18t35 6.5q42 0 65 -29t23 -74q0 -55 -35 -103.5t-99 -73.5z" />
    <glyph glyph-name="Ldot" unicode="&#x13f;" horiz-adv-x="357" 
d="M16 0zM239 706q-4 -16 -10.5 -48.5t-13.5 -73.5t-14 -87.5t-13 -91.5t-9.5 -85.5t-3.5 -68.5q0 -81 33.5 -115t112.5 -34v-158q-147 0 -226 79.5t-79 227.5q0 29 3.5 72t9.5 91t13 97t14 92t13.5 74.5t10.5 44.5zM293.124 423.145q14.9707 0 28.3643 -5.90234
q13.3945 -5.90234 22.8496 -16.1338q9.45508 -10.2305 14.9697 -23.2158q5.51562 -12.9854 5.51562 -27.9385q0 -14.9521 -5.51562 -28.3311q-5.51465 -13.3789 -14.9697 -23.2158q-9.45508 -9.83789 -22.8496 -15.7402q-13.3936 -5.90234 -28.3643 -5.90234
q-14.1826 0 -27.1826 5.90234t-22.8486 15.7402q-9.84961 9.83691 -15.3643 23.2158q-5.51562 13.3789 -5.51562 28.3311q0 14.9531 5.51562 27.9385q5.51465 12.9854 15.3643 23.2158q9.84863 10.2314 22.8486 16.1338t27.1826 5.90234z" />
    <glyph glyph-name="ldot" unicode="&#x140;" horiz-adv-x="357" 
d="M16 0zM239 706q-4 -16 -10.5 -48.5t-13.5 -73.5t-14 -87.5t-13 -91.5t-9.5 -85.5t-3.5 -68.5q0 -81 33.5 -115t112.5 -34v-158q-147 0 -226 79.5t-79 227.5q0 29 3.5 72t9.5 91t13 97t14 92t13.5 74.5t10.5 44.5zM293.124 423.145q14.9707 0 28.3643 -5.90234
q13.3945 -5.90234 22.8496 -16.1338q9.45508 -10.2305 14.9697 -23.2158q5.51562 -12.9854 5.51562 -27.9385q0 -14.9521 -5.51562 -28.3311q-5.51465 -13.3789 -14.9697 -23.2158q-9.45508 -9.83789 -22.8496 -15.7402q-13.3936 -5.90234 -28.3643 -5.90234
q-14.1826 0 -27.1826 5.90234t-22.8486 15.7402q-9.84961 9.83691 -15.3643 23.2158q-5.51562 13.3789 -5.51562 28.3311q0 14.9531 5.51562 27.9385q5.51465 12.9854 15.3643 23.2158q9.84863 10.2314 22.8486 16.1338t27.1826 5.90234z" />
    <glyph glyph-name="Lslash" unicode="&#x141;" horiz-adv-x="321" 
d="M239 706q-4 -14 -9.5 -39t-11.5 -58t-12 -71.5t-11 -77.5l61 20l27 -94l-102 -32q-6 -62 -6 -103q0 -81 33.5 -115t112.5 -34v-158q-158 0 -231.5 87t-73.5 248v10t2 10l-14 -4l-36 91l61 21q6 49 13 99t14 93.5t13.5 76t10.5 46.5z" />
    <glyph glyph-name="lslash" unicode="&#x142;" horiz-adv-x="321" 
d="M0 0zM239 706q-4 -14 -9.5 -39t-11.5 -58t-12 -71.5t-11 -77.5l61 20l27 -94l-102 -32q-6 -62 -6 -103q0 -81 33.5 -115t112.5 -34v-158q-158 0 -231.5 87t-73.5 248v10t2 10l-14 -4l-36 91l61 21q6 49 13 99t14 93.5t13.5 76t10.5 46.5z" />
    <glyph glyph-name="Nacute" unicode="&#x143;" horiz-adv-x="536" 
d="M15 0zM188 718q-6 -17 -8.5 -37.5t-2.5 -35.5q22 37 56.5 54.5t76.5 17.5q100 0 153.5 -67.5t53.5 -205.5q0 -219 -108 -484l-147 60q19 45 37 105t32 121t22.5 116.5t8.5 90.5q0 105 -57 105q-65 0 -100 -73.5t-35 -199.5q0 -51 9.5 -117t26.5 -132l-154 -54
q-19 90 -28 194t-9 225q0 88 6 159.5t17 131.5zM367 946l69 -99l-209 -91l-62 81z" />
    <glyph glyph-name="nacute" unicode="&#x144;" horiz-adv-x="536" 
d="M15 0zM188 718q-6 -17 -8.5 -37.5t-2.5 -35.5q22 37 56.5 54.5t76.5 17.5q100 0 153.5 -67.5t53.5 -205.5q0 -219 -108 -484l-147 60q19 45 37 105t32 121t22.5 116.5t8.5 90.5q0 105 -57 105q-65 0 -100 -73.5t-35 -199.5q0 -51 9.5 -117t26.5 -132l-154 -54
q-19 90 -28 194t-9 225q0 88 6 159.5t17 131.5zM367 946l69 -99l-209 -91l-62 81z" />
    <glyph glyph-name="Ncommaaccent" unicode="&#x145;" horiz-adv-x="536" 
d="M15 0zM188 718q-6 -17 -8.5 -37.5t-2.5 -35.5q22 37 56.5 54.5t76.5 17.5q100 0 153.5 -67.5t53.5 -205.5q0 -219 -108 -484l-147 60q19 45 37 105t32 121t22.5 116.5t8.5 90.5q0 105 -57 105q-65 0 -100 -73.5t-35 -199.5q0 -51 9.5 -117t26.5 -132l-154 -54
q-19 90 -28 194t-9 225q0 88 6 159.5t17 131.5zM233 -253q28 24 35 38.5t8 19.5q0 -1 -2 9q-4 -1 -7.5 -1.5t-8.5 -0.5q-28 0 -46 17t-18 40t23.5 38.5t52.5 15.5q34 0 52.5 -19t18.5 -46q0 -35 -28 -65t-80 -46z" />
    <glyph glyph-name="ncommaaccent" unicode="&#x146;" horiz-adv-x="536" 
d="M15 0zM188 718q-6 -17 -8.5 -37.5t-2.5 -35.5q22 37 56.5 54.5t76.5 17.5q100 0 153.5 -67.5t53.5 -205.5q0 -219 -108 -484l-147 60q19 45 37 105t32 121t22.5 116.5t8.5 90.5q0 105 -57 105q-65 0 -100 -73.5t-35 -199.5q0 -51 9.5 -117t26.5 -132l-154 -54
q-19 90 -28 194t-9 225q0 88 6 159.5t17 131.5zM233 -253q28 24 35 38.5t8 19.5q0 -1 -2 9q-4 -1 -7.5 -1.5t-8.5 -0.5q-28 0 -46 17t-18 40t23.5 38.5t52.5 15.5q34 0 52.5 -19t18.5 -46q0 -35 -28 -65t-80 -46z" />
    <glyph glyph-name="Ncaron" unicode="&#x147;" horiz-adv-x="536" 
d="M15 0zM188 718q-6 -17 -8.5 -37.5t-2.5 -35.5q22 37 56.5 54.5t76.5 17.5q100 0 153.5 -67.5t53.5 -205.5q0 -219 -108 -484l-147 60q19 45 37 105t32 121t22.5 116.5t8.5 90.5q0 105 -57 105q-65 0 -100 -73.5t-35 -199.5q0 -51 9.5 -117t26.5 -132l-154 -54
q-19 90 -28 194t-9 225q0 88 6 159.5t17 131.5zM168 942q27 -23 53.5 -47.5t49.5 -54.5q18 28 43 55.5t54 50.5l72 -78q-37 -26 -74 -53t-69 -59h-55q-68 65 -147 116z" />
    <glyph glyph-name="ncaron" unicode="&#x148;" horiz-adv-x="536" 
d="M15 0zM188 718q-6 -17 -8.5 -37.5t-2.5 -35.5q22 37 56.5 54.5t76.5 17.5q100 0 153.5 -67.5t53.5 -205.5q0 -219 -108 -484l-147 60q19 45 37 105t32 121t22.5 116.5t8.5 90.5q0 105 -57 105q-65 0 -100 -73.5t-35 -199.5q0 -51 9.5 -117t26.5 -132l-154 -54
q-19 90 -28 194t-9 225q0 88 6 159.5t17 131.5zM168 942q27 -23 53.5 -47.5t49.5 -54.5q18 28 43 55.5t54 50.5l72 -78q-37 -26 -74 -53t-69 -59h-55q-68 65 -147 116z" />
    <glyph glyph-name="Eng" unicode="&#x14a;" horiz-adv-x="536" 
d="M188 718q-6 -17 -8.5 -37.5t-2.5 -35.5q22 37 56.5 54.5t76.5 17.5q100 0 153.5 -67.5t53.5 -205.5q0 -38 -4.5 -90.5t-14 -111.5t-26 -120t-40.5 -117t-57 -102.5t-75 -75.5q-17 -11 -45 -22t-66 -21l-60 145q42 5 73 21.5t50 52.5q20 39 40 96.5t35.5 120t25 124
t9.5 109.5q0 105 -57 105q-65 0 -100 -73.5t-35 -199.5q0 -51 9.5 -117t26.5 -132l-154 -54q-19 90 -28 194t-9 225q0 88 6 159.5t17 131.5z" />
    <glyph glyph-name="eng" unicode="&#x14b;" horiz-adv-x="536" 
d="M15 0zM188 718q-6 -17 -8.5 -37.5t-2.5 -35.5q22 37 56.5 54.5t76.5 17.5q100 0 153.5 -67.5t53.5 -205.5q0 -38 -4.5 -90.5t-14 -111.5t-26 -120t-40.5 -117t-57 -102.5t-75 -75.5q-17 -11 -45 -22t-66 -21l-60 145q42 5 73 21.5t50 52.5q20 39 40 96.5t35.5 120t25 124
t9.5 109.5q0 105 -57 105q-65 0 -100 -73.5t-35 -199.5q0 -51 9.5 -117t26.5 -132l-154 -54q-19 90 -28 194t-9 225q0 88 6 159.5t17 131.5z" />
    <glyph glyph-name="Omacron" unicode="&#x14c;" horiz-adv-x="613" 
d="M13 0zM324 722q63 0 114 -23t86 -64.5t54 -100t19 -130.5q0 -87 -23.5 -169t-65.5 -145.5t-99 -102.5t-123 -39q-63 0 -113.5 25t-86 70t-54.5 107.5t-19 137.5q0 82 23.5 160t65.5 139t99 98t123 37zM332 562q-33 0 -62.5 -26t-51.5 -67t-35 -90.5t-13 -95.5
q0 -34 7.5 -65.5t22 -55.5t34.5 -38.5t45 -14.5q33 0 62 26.5t50.5 68.5t34 93t12.5 101q0 75 -27.5 119.5t-78.5 44.5zM499 786q-204 9 -331 9v114q66 0 151 -2.5t191 -7.5z" />
    <glyph glyph-name="omacron" unicode="&#x14d;" horiz-adv-x="613" 
d="M13 0zM324 722q63 0 114 -23t86 -64.5t54 -100t19 -130.5q0 -87 -23.5 -169t-65.5 -145.5t-99 -102.5t-123 -39q-63 0 -113.5 25t-86 70t-54.5 107.5t-19 137.5q0 82 23.5 160t65.5 139t99 98t123 37zM332 562q-33 0 -62.5 -26t-51.5 -67t-35 -90.5t-13 -95.5
q0 -34 7.5 -65.5t22 -55.5t34.5 -38.5t45 -14.5q33 0 62 26.5t50.5 68.5t34 93t12.5 101q0 75 -27.5 119.5t-78.5 44.5zM499 786q-204 9 -331 9v114q66 0 151 -2.5t191 -7.5z" />
    <glyph glyph-name="Obreve" unicode="&#x14e;" horiz-adv-x="613" 
d="M13 0zM324 722q63 0 114 -23t86 -64.5t54 -100t19 -130.5q0 -87 -23.5 -169t-65.5 -145.5t-99 -102.5t-123 -39q-63 0 -113.5 25t-86 70t-54.5 107.5t-19 137.5q0 82 23.5 160t65.5 139t99 98t123 37zM332 562q-33 0 -62.5 -26t-51.5 -67t-35 -90.5t-13 -95.5
q0 -34 7.5 -65.5t22 -55.5t34.5 -38.5t45 -14.5q33 0 62 26.5t50.5 68.5t34 93t12.5 101q0 75 -27.5 119.5t-78.5 44.5zM238 938q12 -37 39.5 -64t64.5 -27q35 0 64 23.5t43 71.5l83 -50q-8 -24 -22 -47t-36.5 -41.5t-54 -30t-73.5 -11.5t-76.5 11.5t-60.5 30.5t-42 44
t-21 52z" />
    <glyph glyph-name="obreve" unicode="&#x14f;" horiz-adv-x="613" 
d="M13 0zM324 722q63 0 114 -23t86 -64.5t54 -100t19 -130.5q0 -87 -23.5 -169t-65.5 -145.5t-99 -102.5t-123 -39q-63 0 -113.5 25t-86 70t-54.5 107.5t-19 137.5q0 82 23.5 160t65.5 139t99 98t123 37zM332 562q-33 0 -62.5 -26t-51.5 -67t-35 -90.5t-13 -95.5
q0 -34 7.5 -65.5t22 -55.5t34.5 -38.5t45 -14.5q33 0 62 26.5t50.5 68.5t34 93t12.5 101q0 75 -27.5 119.5t-78.5 44.5zM238 938q12 -37 39.5 -64t64.5 -27q35 0 64 23.5t43 71.5l83 -50q-8 -24 -22 -47t-36.5 -41.5t-54 -30t-73.5 -11.5t-76.5 11.5t-60.5 30.5t-42 44
t-21 52z" />
    <glyph glyph-name="Ohungarumlaut" unicode="&#x150;" horiz-adv-x="613" 
d="M13 0zM324 722q63 0 114 -23t86 -64.5t54 -100t19 -130.5q0 -87 -23.5 -169t-65.5 -145.5t-99 -102.5t-123 -39q-63 0 -113.5 25t-86 70t-54.5 107.5t-19 137.5q0 82 23.5 160t65.5 139t99 98t123 37zM332 562q-33 0 -62.5 -26t-51.5 -67t-35 -90.5t-13 -95.5
q0 -34 7.5 -65.5t22 -55.5t34.5 -38.5t45 -14.5q33 0 62 26.5t50.5 68.5t34 93t12.5 101q0 75 -27.5 119.5t-78.5 44.5zM554 905q-33 -40 -57.5 -81t-42.5 -83l-102 38q21 46 45.5 86t53.5 73zM392 913q-33 -40 -57 -81t-43 -83l-102 37q46 96 99 160z" />
    <glyph glyph-name="ohungarumlaut" unicode="&#x151;" horiz-adv-x="613" 
d="M13 0zM324 722q63 0 114 -23t86 -64.5t54 -100t19 -130.5q0 -87 -23.5 -169t-65.5 -145.5t-99 -102.5t-123 -39q-63 0 -113.5 25t-86 70t-54.5 107.5t-19 137.5q0 82 23.5 160t65.5 139t99 98t123 37zM332 562q-33 0 -62.5 -26t-51.5 -67t-35 -90.5t-13 -95.5
q0 -34 7.5 -65.5t22 -55.5t34.5 -38.5t45 -14.5q33 0 62 26.5t50.5 68.5t34 93t12.5 101q0 75 -27.5 119.5t-78.5 44.5zM554 905q-33 -40 -57.5 -81t-42.5 -83l-102 38q21 46 45.5 86t53.5 73zM392 913q-33 -40 -57 -81t-43 -83l-102 37q46 96 99 160z" />
    <glyph glyph-name="OE" unicode="&#x152;" horiz-adv-x="805" 
d="M733 559q-8 4 -30 4q-86 0 -110 -145q34 1 66 2.5t63 6.5l17 -159q-34 -4 -69.5 -5.5t-74.5 -2.5q31 -135 184 -135l17 -158q-106 0 -177.5 35.5t-113.5 101.5q-38 -70 -93.5 -113t-125.5 -43q-63 0 -113.5 25t-86 70t-54.5 107.5t-19 137.5q0 82 23.5 160t65.5 139
t99 98t123 37q69 0 117.5 -25.5t78.5 -73.5q33 48 80.5 73.5t110.5 25.5q11 0 21 -1t21 -2zM332 562q-33 0 -62.5 -26t-51.5 -67t-35 -90.5t-13 -95.5q0 -34 7.5 -65.5t22 -55.5t34.5 -38.5t45 -14.5q33 0 62 26.5t50.5 68.5t34 93t12.5 101q0 75 -27.5 119.5t-78.5 44.5z
" />
    <glyph glyph-name="oe" unicode="&#x153;" horiz-adv-x="805" 
d="M13 0zM733 559q-8 4 -30 4q-86 0 -110 -145q34 1 66 2.5t63 6.5l17 -159q-34 -4 -69.5 -5.5t-74.5 -2.5q31 -135 184 -135l17 -158q-106 0 -177.5 35.5t-113.5 101.5q-38 -70 -93.5 -113t-125.5 -43q-63 0 -113.5 25t-86 70t-54.5 107.5t-19 137.5q0 82 23.5 160
t65.5 139t99 98t123 37q69 0 117.5 -25.5t78.5 -73.5q33 48 80.5 73.5t110.5 25.5q11 0 21 -1t21 -2zM332 562q-33 0 -62.5 -26t-51.5 -67t-35 -90.5t-13 -95.5q0 -34 7.5 -65.5t22 -55.5t34.5 -38.5t45 -14.5q33 0 62 26.5t50.5 68.5t34 93t12.5 101q0 75 -27.5 119.5
t-78.5 44.5z" />
    <glyph glyph-name="Racute" unicode="&#x154;" horiz-adv-x="522" 
d="M34 0zM35 719q18 2 41.5 3.5t52.5 1.5q83 0 150 -16.5t114.5 -48.5t73 -79t25.5 -108q0 -78 -42 -135t-120 -86q13 -17 35 -38.5t49 -45.5t57 -48.5t60 -47.5l-98 -124q-18 22 -49 53t-65.5 62.5t-68 59.5t-55.5 44q-1 -54 -2.5 -98t-4.5 -82h-154q9 184 9 380
q0 88 -1.5 176.5t-6.5 176.5zM195 558q4 -42 4.5 -95t0.5 -113q63 15 98 40t35 79q0 42 -34 62.5t-104 26.5zM327 946l69 -99l-209 -91l-62 81z" />
    <glyph glyph-name="racute" unicode="&#x155;" horiz-adv-x="522" 
d="M34 0zM35 719q18 2 41.5 3.5t52.5 1.5q83 0 150 -16.5t114.5 -48.5t73 -79t25.5 -108q0 -78 -42 -135t-120 -86q13 -17 35 -38.5t49 -45.5t57 -48.5t60 -47.5l-98 -124q-18 22 -49 53t-65.5 62.5t-68 59.5t-55.5 44q-1 -54 -2.5 -98t-4.5 -82h-154q9 184 9 380
q0 88 -1.5 176.5t-6.5 176.5zM195 558q4 -42 4.5 -95t0.5 -113q63 15 98 40t35 79q0 42 -34 62.5t-104 26.5zM327 946l69 -99l-209 -91l-62 81z" />
    <glyph glyph-name="Rcommaaccent" unicode="&#x156;" horiz-adv-x="522" 
d="M34 0zM35 719q18 2 41.5 3.5t52.5 1.5q83 0 150 -16.5t114.5 -48.5t73 -79t25.5 -108q0 -78 -42 -135t-120 -86q13 -17 35 -38.5t49 -45.5t57 -48.5t60 -47.5l-98 -124q-18 22 -49 53t-65.5 62.5t-68 59.5t-55.5 44q-1 -54 -2.5 -98t-4.5 -82h-154q9 184 9 380
q0 88 -1.5 176.5t-6.5 176.5zM195 558q4 -42 4.5 -95t0.5 -113q63 15 98 40t35 79q0 42 -34 62.5t-104 26.5zM227 -253q28 24 35 38.5t8 19.5q0 -1 -2 9q-4 -1 -7.5 -1.5t-8.5 -0.5q-28 0 -46 17t-18 40t23.5 38.5t52.5 15.5q34 0 52.5 -19t18.5 -46q0 -35 -28 -65t-80 -46z
" />
    <glyph glyph-name="rcommaaccent" unicode="&#x157;" horiz-adv-x="522" 
d="M34 0zM35 719q18 2 41.5 3.5t52.5 1.5q83 0 150 -16.5t114.5 -48.5t73 -79t25.5 -108q0 -78 -42 -135t-120 -86q13 -17 35 -38.5t49 -45.5t57 -48.5t60 -47.5l-98 -124q-18 22 -49 53t-65.5 62.5t-68 59.5t-55.5 44q-1 -54 -2.5 -98t-4.5 -82h-154q9 184 9 380
q0 88 -1.5 176.5t-6.5 176.5zM195 558q4 -42 4.5 -95t0.5 -113q63 15 98 40t35 79q0 42 -34 62.5t-104 26.5zM227 -253q28 24 35 38.5t8 19.5q0 -1 -2 9q-4 -1 -7.5 -1.5t-8.5 -0.5q-28 0 -46 17t-18 40t23.5 38.5t52.5 15.5q34 0 52.5 -19t18.5 -46q0 -35 -28 -65t-80 -46z
" />
    <glyph glyph-name="Rcaron" unicode="&#x158;" horiz-adv-x="522" 
d="M34 0zM35 719q18 2 41.5 3.5t52.5 1.5q83 0 150 -16.5t114.5 -48.5t73 -79t25.5 -108q0 -78 -42 -135t-120 -86q13 -17 35 -38.5t49 -45.5t57 -48.5t60 -47.5l-98 -124q-18 22 -49 53t-65.5 62.5t-68 59.5t-55.5 44q-1 -54 -2.5 -98t-4.5 -82h-154q9 184 9 380
q0 88 -1.5 176.5t-6.5 176.5zM195 558q4 -42 4.5 -95t0.5 -113q63 15 98 40t35 79q0 42 -34 62.5t-104 26.5zM128 942q27 -23 53.5 -47.5t49.5 -54.5q18 28 43 55.5t54 50.5l72 -78q-37 -26 -74 -53t-69 -59h-55q-68 65 -147 116z" />
    <glyph glyph-name="rcaron" unicode="&#x159;" horiz-adv-x="522" 
d="M34 0zM35 719q18 2 41.5 3.5t52.5 1.5q83 0 150 -16.5t114.5 -48.5t73 -79t25.5 -108q0 -78 -42 -135t-120 -86q13 -17 35 -38.5t49 -45.5t57 -48.5t60 -47.5l-98 -124q-18 22 -49 53t-65.5 62.5t-68 59.5t-55.5 44q-1 -54 -2.5 -98t-4.5 -82h-154q9 184 9 380
q0 88 -1.5 176.5t-6.5 176.5zM195 558q4 -42 4.5 -95t0.5 -113q63 15 98 40t35 79q0 42 -34 62.5t-104 26.5zM128 942q27 -23 53.5 -47.5t49.5 -54.5q18 28 43 55.5t54 50.5l72 -78q-37 -26 -74 -53t-69 -59h-55q-68 65 -147 116z" />
    <glyph glyph-name="Sacute" unicode="&#x15a;" horiz-adv-x="439" 
d="M18 0zM252 553q-14 17 -35 17q-41 0 -41 -52q0 -33 13.5 -57t35.5 -45t49.5 -41t55.5 -45q50 -45 68 -86t18 -81q0 -47 -17 -88.5t-47 -73t-70.5 -49.5t-86.5 -18q-74 0 -139 50l99 124q19 -16 40 -16q27 0 44.5 16t17.5 47q0 9 -4.5 19t-15 22t-28 27.5t-43.5 36.5
q-30 24 -57 50t-47.5 57t-32 68t-11.5 83q0 45 13.5 82.5t39.5 64.5t63.5 42.5t85.5 15.5q36 0 72.5 -10.5t56.5 -33.5zM319 946l69 -99l-209 -91l-62 81z" />
    <glyph glyph-name="sacute" unicode="&#x15b;" horiz-adv-x="439" 
d="M18 0zM252 553q-14 17 -35 17q-41 0 -41 -52q0 -33 13.5 -57t35.5 -45t49.5 -41t55.5 -45q50 -45 68 -86t18 -81q0 -47 -17 -88.5t-47 -73t-70.5 -49.5t-86.5 -18q-74 0 -139 50l99 124q19 -16 40 -16q27 0 44.5 16t17.5 47q0 9 -4.5 19t-15 22t-28 27.5t-43.5 36.5
q-30 24 -57 50t-47.5 57t-32 68t-11.5 83q0 45 13.5 82.5t39.5 64.5t63.5 42.5t85.5 15.5q36 0 72.5 -10.5t56.5 -33.5zM319 946l69 -99l-209 -91l-62 81z" />
    <glyph glyph-name="Scedilla" unicode="&#x15e;" horiz-adv-x="439" 
d="M252 553q-14 17 -35 17q-41 0 -41 -52q0 -33 13.5 -57t35.5 -45t49.5 -41t55.5 -45q50 -45 68 -86t18 -81q0 -66 -33.5 -121t-87.5 -83q-18 -84 -89 -137l-65 91q7 6 12 12t10 11q-57 9 -107 48l99 124q19 -16 40 -16q27 0 44.5 16t17.5 47q0 9 -4.5 19t-15 22t-28 27.5
t-43.5 36.5q-30 24 -57 50t-47.5 57t-32 68t-11.5 83q0 45 13.5 82.5t39.5 64.5t63.5 42.5t85.5 15.5q36 0 72.5 -10.5t56.5 -33.5z" />
    <glyph glyph-name="scedilla" unicode="&#x15f;" horiz-adv-x="439" 
d="M18 0zM252 553q-14 17 -35 17q-41 0 -41 -52q0 -33 13.5 -57t35.5 -45t49.5 -41t55.5 -45q50 -45 68 -86t18 -81q0 -66 -33.5 -121t-87.5 -83q-18 -84 -89 -137l-65 91q7 6 12 12t10 11q-57 9 -107 48l99 124q19 -16 40 -16q27 0 44.5 16t17.5 47q0 9 -4.5 19t-15 22
t-28 27.5t-43.5 36.5q-30 24 -57 50t-47.5 57t-32 68t-11.5 83q0 45 13.5 82.5t39.5 64.5t63.5 42.5t85.5 15.5q36 0 72.5 -10.5t56.5 -33.5z" />
    <glyph glyph-name="Scaron" unicode="&#x160;" horiz-adv-x="439" 
d="M18 0zM252 553q-14 17 -35 17q-41 0 -41 -52q0 -33 13.5 -57t35.5 -45t49.5 -41t55.5 -45q50 -45 68 -86t18 -81q0 -47 -17 -88.5t-47 -73t-70.5 -49.5t-86.5 -18q-74 0 -139 50l99 124q19 -16 40 -16q27 0 44.5 16t17.5 47q0 9 -4.5 19t-15 22t-28 27.5t-43.5 36.5
q-30 24 -57 50t-47.5 57t-32 68t-11.5 83q0 45 13.5 82.5t39.5 64.5t63.5 42.5t85.5 15.5q36 0 72.5 -10.5t56.5 -33.5zM119 942q27 -23 53.5 -47.5t49.5 -54.5q18 28 43 55.5t54 50.5l72 -78q-37 -26 -74 -53t-69 -59h-55q-68 65 -147 116z" />
    <glyph glyph-name="scaron" unicode="&#x161;" horiz-adv-x="439" 
d="M18 0zM252 553q-14 17 -35 17q-41 0 -41 -52q0 -33 13.5 -57t35.5 -45t49.5 -41t55.5 -45q50 -45 68 -86t18 -81q0 -47 -17 -88.5t-47 -73t-70.5 -49.5t-86.5 -18q-74 0 -139 50l99 124q19 -16 40 -16q27 0 44.5 16t17.5 47q0 9 -4.5 19t-15 22t-28 27.5t-43.5 36.5
q-30 24 -57 50t-47.5 57t-32 68t-11.5 83q0 45 13.5 82.5t39.5 64.5t63.5 42.5t85.5 15.5q36 0 72.5 -10.5t56.5 -33.5zM119 942q27 -23 53.5 -47.5t49.5 -54.5q18 28 43 55.5t54 50.5l72 -78q-37 -26 -74 -53t-69 -59h-55q-68 65 -147 116z" />
    <glyph glyph-name="Tcommaaccent" unicode="&#x162;" horiz-adv-x="357" 
d="M12 0zM346 548h-96q2 -75 3.5 -164.5t1.5 -198.5v-182h-158q0 400 -6 547h-79v158h40.5t58.5 -0.5t67 -0.5t67.5 -0.5t59 -0.5h41.5v-158zM144 -253q28 24 35 38.5t8 19.5q0 -1 -2 9q-4 -1 -7.5 -1.5t-8.5 -0.5q-28 0 -46 17t-18 40t23.5 38.5t52.5 15.5q34 0 52.5 -19
t18.5 -46q0 -35 -28 -65t-80 -46z" />
    <glyph glyph-name="tcommaaccent" unicode="&#x163;" horiz-adv-x="357" 
d="M12 0zM346 548h-96q2 -75 3.5 -164.5t1.5 -198.5v-182h-158q0 400 -6 547h-79v158h40.5t58.5 -0.5t67 -0.5t67.5 -0.5t59 -0.5h41.5v-158zM144 -253q28 24 35 38.5t8 19.5q0 -1 -2 9q-4 -1 -7.5 -1.5t-8.5 -0.5q-28 0 -46 17t-18 40t23.5 38.5t52.5 15.5q34 0 52.5 -19
t18.5 -46q0 -35 -28 -65t-80 -46z" />
    <glyph glyph-name="Tcaron" unicode="&#x164;" horiz-adv-x="357" 
d="M8 3zM346 548h-96q2 -75 3.5 -164.5t1.5 -198.5v-182h-158q0 400 -6 547h-79v158h40.5t58.5 -0.5t67 -0.5t67.5 -0.5t59 -0.5h41.5v-158zM81 942q27 -23 53.5 -47.5t49.5 -54.5q18 28 43 55.5t54 50.5l72 -78q-37 -26 -74 -53t-69 -59h-55q-68 65 -147 116z" />
    <glyph glyph-name="tcaron" unicode="&#x165;" horiz-adv-x="357" 
d="M8 3zM346 548h-96q2 -75 3.5 -164.5t1.5 -198.5v-182h-158q0 400 -6 547h-79v158h40.5t58.5 -0.5t67 -0.5t67.5 -0.5t59 -0.5h41.5v-158zM81 942q27 -23 53.5 -47.5t49.5 -54.5q18 28 43 55.5t54 50.5l72 -78q-37 -26 -74 -53t-69 -59h-55q-68 65 -147 116z" />
    <glyph glyph-name="Tbar" unicode="&#x166;" horiz-adv-x="357" 
d="M339 328l-85 3q1 -35 1 -71.5v-74.5v-182h-158v181.5t-1 150.5q-9 2 -17 2h-16h-22h-33v113h41t44 -1q0 30 -0.5 55t-1.5 46h-79v158h40.5t58.5 -0.5t67 -0.5t67.5 -0.5t59 -0.5h41.5v-158h-96q1 -24 1.5 -50t0.5 -54l98 -4z" />
    <glyph glyph-name="tbar" unicode="&#x167;" horiz-adv-x="357" 
d="M8 3zM339 328l-85 3q1 -35 1 -71.5v-74.5v-182h-158v181.5t-1 150.5q-9 2 -17 2h-16h-22h-33v113h41t44 -1q0 30 -0.5 55t-1.5 46h-79v158h40.5t58.5 -0.5t67 -0.5t67.5 -0.5t59 -0.5h41.5v-158h-96q1 -24 1.5 -50t0.5 -54l98 -4z" />
    <glyph glyph-name="Utilde" unicode="&#x168;" horiz-adv-x="652" 
d="M21 0zM577 712q12 -35 22.5 -77t19 -86.5t13 -90.5t4.5 -90q0 -81 -22 -150.5t-61.5 -120.5t-95.5 -80t-124 -29q-69 0 -126 30t-98.5 81.5t-64.5 120.5t-23 148q0 91 16.5 179t42.5 173l154 -36q-22 -70 -38.5 -150.5t-16.5 -165.5q0 -45 11 -85t31.5 -70.5t48.5 -48.5
t63 -18q33 0 59.5 17t45 47t29 70.5t10.5 87.5q0 17 -3 53.5t-10 80.5t-17 90t-24 83zM525 890q-3 -27 -13 -47t-24 -34t-31 -21t-33 -7q-29 0 -51.5 7.5t-40.5 16.5t-32 16.5t-26 7.5q-34 0 -48 -44l-101 28q10 62 45 85.5t84 23.5q26 0 46.5 -6.5t37 -14t29.5 -14t24 -6.5
q25 0 39 45z" />
    <glyph glyph-name="utilde" unicode="&#x169;" horiz-adv-x="652" 
d="M21 0zM577 712q12 -35 22.5 -77t19 -86.5t13 -90.5t4.5 -90q0 -81 -22 -150.5t-61.5 -120.5t-95.5 -80t-124 -29q-69 0 -126 30t-98.5 81.5t-64.5 120.5t-23 148q0 91 16.5 179t42.5 173l154 -36q-22 -70 -38.5 -150.5t-16.5 -165.5q0 -45 11 -85t31.5 -70.5t48.5 -48.5
t63 -18q33 0 59.5 17t45 47t29 70.5t10.5 87.5q0 17 -3 53.5t-10 80.5t-17 90t-24 83zM525 890q-3 -27 -13 -47t-24 -34t-31 -21t-33 -7q-29 0 -51.5 7.5t-40.5 16.5t-32 16.5t-26 7.5q-34 0 -48 -44l-101 28q10 62 45 85.5t84 23.5q26 0 46.5 -6.5t37 -14t29.5 -14t24 -6.5
q25 0 39 45z" />
    <glyph glyph-name="Umacron" unicode="&#x16a;" horiz-adv-x="652" 
d="M21 0zM577 712q12 -35 22.5 -77t19 -86.5t13 -90.5t4.5 -90q0 -81 -22 -150.5t-61.5 -120.5t-95.5 -80t-124 -29q-69 0 -126 30t-98.5 81.5t-64.5 120.5t-23 148q0 91 16.5 179t42.5 173l154 -36q-22 -70 -38.5 -150.5t-16.5 -165.5q0 -45 11 -85t31.5 -70.5t48.5 -48.5
t63 -18q33 0 59.5 17t45 47t29 70.5t10.5 87.5q0 17 -3 53.5t-10 80.5t-17 90t-24 83zM486 786q-204 9 -331 9v114q66 0 151 -2.5t191 -7.5z" />
    <glyph glyph-name="umacron" unicode="&#x16b;" horiz-adv-x="652" 
d="M21 0zM577 712q12 -35 22.5 -77t19 -86.5t13 -90.5t4.5 -90q0 -81 -22 -150.5t-61.5 -120.5t-95.5 -80t-124 -29q-69 0 -126 30t-98.5 81.5t-64.5 120.5t-23 148q0 91 16.5 179t42.5 173l154 -36q-22 -70 -38.5 -150.5t-16.5 -165.5q0 -45 11 -85t31.5 -70.5t48.5 -48.5
t63 -18q33 0 59.5 17t45 47t29 70.5t10.5 87.5q0 17 -3 53.5t-10 80.5t-17 90t-24 83zM486 786q-204 9 -331 9v114q66 0 151 -2.5t191 -7.5z" />
    <glyph glyph-name="Ubreve" unicode="&#x16c;" horiz-adv-x="652" 
d="M21 0zM577 712q12 -35 22.5 -77t19 -86.5t13 -90.5t4.5 -90q0 -81 -22 -150.5t-61.5 -120.5t-95.5 -80t-124 -29q-69 0 -126 30t-98.5 81.5t-64.5 120.5t-23 148q0 91 16.5 179t42.5 173l154 -36q-22 -70 -38.5 -150.5t-16.5 -165.5q0 -45 11 -85t31.5 -70.5t48.5 -48.5
t63 -18q33 0 59.5 17t45 47t29 70.5t10.5 87.5q0 17 -3 53.5t-10 80.5t-17 90t-24 83zM225 938q12 -37 39.5 -64t64.5 -27q35 0 64 23.5t43 71.5l83 -50q-8 -24 -22 -47t-36.5 -41.5t-54 -30t-73.5 -11.5t-76.5 11.5t-60.5 30.5t-42 44t-21 52z" />
    <glyph glyph-name="ubreve" unicode="&#x16d;" horiz-adv-x="652" 
d="M21 0zM577 712q12 -35 22.5 -77t19 -86.5t13 -90.5t4.5 -90q0 -81 -22 -150.5t-61.5 -120.5t-95.5 -80t-124 -29q-69 0 -126 30t-98.5 81.5t-64.5 120.5t-23 148q0 91 16.5 179t42.5 173l154 -36q-22 -70 -38.5 -150.5t-16.5 -165.5q0 -45 11 -85t31.5 -70.5t48.5 -48.5
t63 -18q33 0 59.5 17t45 47t29 70.5t10.5 87.5q0 17 -3 53.5t-10 80.5t-17 90t-24 83zM225 938q12 -37 39.5 -64t64.5 -27q35 0 64 23.5t43 71.5l83 -50q-8 -24 -22 -47t-36.5 -41.5t-54 -30t-73.5 -11.5t-76.5 11.5t-60.5 30.5t-42 44t-21 52z" />
    <glyph glyph-name="Uring" unicode="&#x16e;" horiz-adv-x="652" 
d="M21 0zM577 712q12 -35 22.5 -77t19 -86.5t13 -90.5t4.5 -90q0 -81 -22 -150.5t-61.5 -120.5t-95.5 -80t-124 -29q-69 0 -126 30t-98.5 81.5t-64.5 120.5t-23 148q0 91 16.5 179t42.5 173l154 -36q-22 -70 -38.5 -150.5t-16.5 -165.5q0 -45 11 -85t31.5 -70.5t48.5 -48.5
t63 -18q33 0 59.5 17t45 47t29 70.5t10.5 87.5q0 17 -3 53.5t-10 80.5t-17 90t-24 83zM429 851q0 -42 -30 -68.5t-72 -26.5t-72.5 26.5t-30.5 68.5q0 20 8 37.5t22.5 30t33 20t39.5 7.5q20 0 38.5 -7.5t32.5 -20t22.5 -30t8.5 -37.5zM371 851q0 18 -13 30t-31 12
q-19 0 -32.5 -11.5t-13.5 -30.5q0 -18 13.5 -29.5t32.5 -11.5q18 0 31 11.5t13 29.5z" />
    <glyph glyph-name="uring" unicode="&#x16f;" horiz-adv-x="652" 
d="M21 0zM577 712q12 -35 22.5 -77t19 -86.5t13 -90.5t4.5 -90q0 -81 -22 -150.5t-61.5 -120.5t-95.5 -80t-124 -29q-69 0 -126 30t-98.5 81.5t-64.5 120.5t-23 148q0 91 16.5 179t42.5 173l154 -36q-22 -70 -38.5 -150.5t-16.5 -165.5q0 -45 11 -85t31.5 -70.5t48.5 -48.5
t63 -18q33 0 59.5 17t45 47t29 70.5t10.5 87.5q0 17 -3 53.5t-10 80.5t-17 90t-24 83zM429 851q0 -42 -30 -68.5t-72 -26.5t-72.5 26.5t-30.5 68.5q0 20 8 37.5t22.5 30t33 20t39.5 7.5q20 0 38.5 -7.5t32.5 -20t22.5 -30t8.5 -37.5zM371 851q0 18 -13 30t-31 12
q-19 0 -32.5 -11.5t-13.5 -30.5q0 -18 13.5 -29.5t32.5 -11.5q18 0 31 11.5t13 29.5z" />
    <glyph glyph-name="Uhungarumlaut" unicode="&#x170;" horiz-adv-x="652" 
d="M21 0zM577 712q12 -35 22.5 -77t19 -86.5t13 -90.5t4.5 -90q0 -81 -22 -150.5t-61.5 -120.5t-95.5 -80t-124 -29q-69 0 -126 30t-98.5 81.5t-64.5 120.5t-23 148q0 91 16.5 179t42.5 173l154 -36q-22 -70 -38.5 -150.5t-16.5 -165.5q0 -45 11 -85t31.5 -70.5t48.5 -48.5
t63 -18q33 0 59.5 17t45 47t29 70.5t10.5 87.5q0 17 -3 53.5t-10 80.5t-17 90t-24 83zM541 905q-33 -40 -57.5 -81t-42.5 -83l-102 38q21 46 45.5 86t53.5 73zM379 913q-33 -40 -57 -81t-43 -83l-102 37q46 96 99 160z" />
    <glyph glyph-name="uhungarumlaut" unicode="&#x171;" horiz-adv-x="652" 
d="M21 0zM577 712q12 -35 22.5 -77t19 -86.5t13 -90.5t4.5 -90q0 -81 -22 -150.5t-61.5 -120.5t-95.5 -80t-124 -29q-69 0 -126 30t-98.5 81.5t-64.5 120.5t-23 148q0 91 16.5 179t42.5 173l154 -36q-22 -70 -38.5 -150.5t-16.5 -165.5q0 -45 11 -85t31.5 -70.5t48.5 -48.5
t63 -18q33 0 59.5 17t45 47t29 70.5t10.5 87.5q0 17 -3 53.5t-10 80.5t-17 90t-24 83zM541 905q-33 -40 -57.5 -81t-42.5 -83l-102 38q21 46 45.5 86t53.5 73zM379 913q-33 -40 -57 -81t-43 -83l-102 37q46 96 99 160z" />
    <glyph glyph-name="Uogonek" unicode="&#x172;" horiz-adv-x="652" 
d="M577 712q12 -35 22.5 -77t19 -86.5t13 -90.5t4.5 -90q0 -67 -15 -116.5t-38 -87t-49 -65t-49 -50t-38 -43t-15 -43.5q0 -15 8.5 -24.5t23 -15t32.5 -7.5t37 -2q31 0 60 4t43 7l-6 -137q-5 -2 -8.5 -2h-8.5q-26 0 -58.5 1.5t-67.5 7t-68 15.5t-59 27t-42 41.5t-16 59.5
q0 26 13 51q-65 4 -119 35t-93 82t-60.5 118t-21.5 144q0 91 16.5 179t42.5 173l154 -36q-22 -70 -38.5 -150.5t-16.5 -165.5q0 -45 11 -85t31.5 -70.5t48.5 -48.5t63 -18q33 0 59.5 17t45 47t29 70.5t10.5 87.5q0 17 -3 53.5t-10 80.5t-17 90t-24 83z" />
    <glyph glyph-name="uogonek" unicode="&#x173;" horiz-adv-x="652" 
d="M21 0zM577 712q12 -35 22.5 -77t19 -86.5t13 -90.5t4.5 -90q0 -67 -15 -116.5t-38 -87t-49 -65t-49 -50t-38 -43t-15 -43.5q0 -15 8.5 -24.5t23 -15t32.5 -7.5t37 -2q31 0 60 4t43 7l-6 -137q-5 -2 -8.5 -2h-8.5q-26 0 -58.5 1.5t-67.5 7t-68 15.5t-59 27t-42 41.5
t-16 59.5q0 26 13 51q-65 4 -119 35t-93 82t-60.5 118t-21.5 144q0 91 16.5 179t42.5 173l154 -36q-22 -70 -38.5 -150.5t-16.5 -165.5q0 -45 11 -85t31.5 -70.5t48.5 -48.5t63 -18q33 0 59.5 17t45 47t29 70.5t10.5 87.5q0 17 -3 53.5t-10 80.5t-17 90t-24 83z" />
    <glyph glyph-name="Wcircumflex" unicode="&#x174;" horiz-adv-x="802" 
d="M16 0zM707 713q25 -64 41 -111.5t25 -94.5t12 -101t3 -130q0 -71 -15.5 -128.5t-44.5 -98t-71 -62.5t-95 -22q-48 0 -90 30.5t-69 81.5q-26 -51 -69 -81.5t-91 -30.5q-54 0 -96 22t-71.5 62.5t-44.5 98t-15 128.5q0 78 2.5 134t11 104t24.5 94.5t43 104.5l156 -30
q-78 -177 -78 -407q0 -153 68 -153q45 0 70.5 79t25.5 227q0 75 -5 127t-15 85h167q-9 -29 -13 -81.5t-4 -127.5q0 -152 24 -230.5t69 -78.5q67 0 67 153q0 230 -78 407zM501 758q-28 23 -54.5 48.5t-49.5 54.5q-18 -27 -42.5 -54.5t-53.5 -50.5l-73 76q37 26 74 54t69 60
h55q34 -32 69.5 -62t77.5 -57z" />
    <glyph glyph-name="wcircumflex" unicode="&#x175;" horiz-adv-x="802" 
d="M16 0zM707 713q25 -64 41 -111.5t25 -94.5t12 -101t3 -130q0 -71 -15.5 -128.5t-44.5 -98t-71 -62.5t-95 -22q-48 0 -90 30.5t-69 81.5q-26 -51 -69 -81.5t-91 -30.5q-54 0 -96 22t-71.5 62.5t-44.5 98t-15 128.5q0 78 2.5 134t11 104t24.5 94.5t43 104.5l156 -30
q-78 -177 -78 -407q0 -153 68 -153q45 0 70.5 79t25.5 227q0 75 -5 127t-15 85h167q-9 -29 -13 -81.5t-4 -127.5q0 -152 24 -230.5t69 -78.5q67 0 67 153q0 230 -78 407zM501 758q-28 23 -54.5 48.5t-49.5 54.5q-18 -27 -42.5 -54.5t-53.5 -50.5l-73 76q37 26 74 54t69 60
h55q34 -32 69.5 -62t77.5 -57z" />
    <glyph glyph-name="Ycircumflex" unicode="&#x176;" horiz-adv-x="551" 
d="M12 0zM539 694q3 -41 3 -77q0 -71 -12 -122t-35 -87.5t-58 -60t-81 -38.5q-4 -66 -5.5 -125t-1.5 -116q0 -21 0.5 -42t0.5 -41l-159 5q5 72 7 139t2 147v17.5t-2 17.5q-41 11 -75.5 42t-59 74.5t-38 95t-13.5 104.5q0 43 9 85l154 -36q-4 -13 -5 -27t-1 -29q0 -31 7 -61
t20 -54t32 -38.5t43 -14.5q36 0 58.5 14t34.5 35.5t16.5 49t4.5 54.5q0 74 -4 89h158zM375 758q-28 23 -54.5 48.5t-49.5 54.5q-18 -27 -42.5 -54.5t-53.5 -50.5l-73 76q37 26 74 54t69 60h55q34 -32 69.5 -62t77.5 -57z" />
    <glyph glyph-name="ycircumflex" unicode="&#x177;" horiz-adv-x="551" 
d="M12 0zM539 694q3 -41 3 -77q0 -71 -12 -122t-35 -87.5t-58 -60t-81 -38.5q-4 -66 -5.5 -125t-1.5 -116q0 -21 0.5 -42t0.5 -41l-159 5q5 72 7 139t2 147v17.5t-2 17.5q-41 11 -75.5 42t-59 74.5t-38 95t-13.5 104.5q0 43 9 85l154 -36q-4 -13 -5 -27t-1 -29q0 -31 7 -61
t20 -54t32 -38.5t43 -14.5q36 0 58.5 14t34.5 35.5t16.5 49t4.5 54.5q0 74 -4 89h158zM375 758q-28 23 -54.5 48.5t-49.5 54.5q-18 -27 -42.5 -54.5t-53.5 -50.5l-73 76q37 26 74 54t69 60h55q34 -32 69.5 -62t77.5 -57z" />
    <glyph glyph-name="Ydieresis" unicode="&#x178;" horiz-adv-x="551" 
d="M12 0zM539 694q3 -41 3 -77q0 -71 -12 -122t-35 -87.5t-58 -60t-81 -38.5q-4 -66 -5.5 -125t-1.5 -116q0 -21 0.5 -42t0.5 -41l-159 5q5 72 7 139t2 147v17.5t-2 17.5q-41 11 -75.5 42t-59 74.5t-38 95t-13.5 104.5q0 43 9 85l154 -36q-4 -13 -5 -27t-1 -29q0 -31 7 -61
t20 -54t32 -38.5t43 -14.5q36 0 58.5 14t34.5 35.5t16.5 49t4.5 54.5q0 74 -4 89h158zM470 849q0 -35 -22.5 -55.5t-51.5 -20.5q-30 0 -52.5 20.5t-22.5 55.5q0 33 22.5 55t52.5 22q29 0 51.5 -22t22.5 -55zM229 849q0 -35 -22.5 -55.5t-50.5 -20.5q-30 0 -52.5 20.5
t-22.5 55.5t22.5 56t52.5 21q28 0 50.5 -22t22.5 -55z" />
    <glyph glyph-name="Zacute" unicode="&#x179;" horiz-adv-x="568" 
d="M0 0zM302 555q-29 -4 -60 -5.5t-63 -1.5q-29 0 -57.5 1t-57.5 3v159q51 -3 102.5 -4t102.5 -1q76 0 151 2t151 6q-29 -65 -68.5 -134t-83.5 -140t-89 -144t-85 -146q45 4 88.5 6t89.5 2q49 0 94 -3v-157q-24 0 -66 -0.5t-93 -1t-107 -1t-107 -2t-93.5 -3t-66.5 -3.5
q34 69 113.5 211t204.5 357zM383 946l69 -99l-209 -91l-62 81z" />
    <glyph glyph-name="zacute" unicode="&#x17a;" horiz-adv-x="568" 
d="M0 0zM302 555q-29 -4 -60 -5.5t-63 -1.5q-29 0 -57.5 1t-57.5 3v159q51 -3 102.5 -4t102.5 -1q76 0 151 2t151 6q-29 -65 -68.5 -134t-83.5 -140t-89 -144t-85 -146q45 4 88.5 6t89.5 2q49 0 94 -3v-157q-24 0 -66 -0.5t-93 -1t-107 -1t-107 -2t-93.5 -3t-66.5 -3.5
q34 69 113.5 211t204.5 357zM383 946l69 -99l-209 -91l-62 81z" />
    <glyph glyph-name="Zdotaccent" unicode="&#x17b;" horiz-adv-x="568" 
d="M0 0zM302 555q-29 -4 -60 -5.5t-63 -1.5q-29 0 -57.5 1t-57.5 3v159q51 -3 102.5 -4t102.5 -1q76 0 151 2t151 6q-29 -65 -68.5 -134t-83.5 -140t-89 -144t-85 -146q45 4 88.5 6t89.5 2q49 0 94 -3v-157q-24 0 -66 -0.5t-93 -1t-107 -1t-107 -2t-93.5 -3t-66.5 -3.5
q34 69 113.5 211t204.5 357zM358 847q0 -35 -22.5 -55.5t-50.5 -20.5q-30 0 -52.5 20.5t-22.5 55.5t22.5 56t52.5 21q28 0 50.5 -22t22.5 -55z" />
    <glyph glyph-name="zdotaccent" unicode="&#x17c;" horiz-adv-x="568" 
d="M0 0zM302 555q-29 -4 -60 -5.5t-63 -1.5q-29 0 -57.5 1t-57.5 3v159q51 -3 102.5 -4t102.5 -1q76 0 151 2t151 6q-29 -65 -68.5 -134t-83.5 -140t-89 -144t-85 -146q45 4 88.5 6t89.5 2q49 0 94 -3v-157q-24 0 -66 -0.5t-93 -1t-107 -1t-107 -2t-93.5 -3t-66.5 -3.5
q34 69 113.5 211t204.5 357zM358 847q0 -35 -22.5 -55.5t-50.5 -20.5q-30 0 -52.5 20.5t-22.5 55.5t22.5 56t52.5 21q28 0 50.5 -22t22.5 -55z" />
    <glyph glyph-name="Zcaron" unicode="&#x17d;" horiz-adv-x="568" 
d="M0 0zM302 555q-29 -4 -60 -5.5t-63 -1.5q-29 0 -57.5 1t-57.5 3v159q51 -3 102.5 -4t102.5 -1q76 0 151 2t151 6q-29 -65 -68.5 -134t-83.5 -140t-89 -144t-85 -146q45 4 88.5 6t89.5 2q49 0 94 -3v-157q-24 0 -66 -0.5t-93 -1t-107 -1t-107 -2t-93.5 -3t-66.5 -3.5
q34 69 113.5 211t204.5 357zM184 942q27 -23 53.5 -47.5t49.5 -54.5q18 28 43 55.5t54 50.5l72 -78q-37 -26 -74 -53t-69 -59h-55q-68 65 -147 116z" />
    <glyph glyph-name="zcaron" unicode="&#x17e;" horiz-adv-x="568" 
d="M0 0zM302 555q-29 -4 -60 -5.5t-63 -1.5q-29 0 -57.5 1t-57.5 3v159q51 -3 102.5 -4t102.5 -1q76 0 151 2t151 6q-29 -65 -68.5 -134t-83.5 -140t-89 -144t-85 -146q45 4 88.5 6t89.5 2q49 0 94 -3v-157q-24 0 -66 -0.5t-93 -1t-107 -1t-107 -2t-93.5 -3t-66.5 -3.5
q34 69 113.5 211t204.5 357zM184 942q27 -23 53.5 -47.5t49.5 -54.5q18 28 43 55.5t54 50.5l72 -78q-37 -26 -74 -53t-69 -59h-55q-68 65 -147 116z" />
    <glyph glyph-name="florin" unicode="&#x192;" horiz-adv-x="870" 
d="M438 -38q-82 33 -158.5 79.5t-136 106t-95 130.5t-35.5 152q0 38 12 78t37 73t64.5 54t94.5 21q19 0 38 -3t38.5 -14t40 -33t41.5 -60q20 46 55 78.5t75 52t79.5 28.5t68.5 9q50 0 87.5 -19.5t62.5 -50t37.5 -69t12.5 -77.5q0 -92 -37 -169.5t-96.5 -143.5t-134.5 -121
t-151 -102zM308 387q0 45 -25 76.5t-67 31.5q-15 0 -24 -6t-13.5 -16t-5.5 -21.5t-1 -23.5q0 -37 15.5 -72t40 -66t55 -58t60.5 -48.5t56 -36.5t43 -23q22 18 50 42t57 52.5t56.5 60t49 64.5t34.5 67t13 67q0 45 -14 61t-40 16q-23 0 -51 -8.5t-55.5 -29t-51.5 -53.5
t-38 -81z" />
    <glyph glyph-name="Scommaaccent" unicode="&#x218;" horiz-adv-x="439" 
d="M18 0zM252 553q-14 17 -35 17q-41 0 -41 -52q0 -33 13.5 -57t35.5 -45t49.5 -41t55.5 -45q50 -45 68 -86t18 -81q0 -47 -17 -88.5t-47 -73t-70.5 -49.5t-86.5 -18q-74 0 -139 50l99 124q19 -16 40 -16q27 0 44.5 16t17.5 47q0 9 -4.5 19t-15 22t-28 27.5t-43.5 36.5
q-30 24 -57 50t-47.5 57t-32 68t-11.5 83q0 45 13.5 82.5t39.5 64.5t63.5 42.5t85.5 15.5q36 0 72.5 -10.5t56.5 -33.5zM185 -253q28 24 35 38.5t8 19.5q0 -1 -2 9q-4 -1 -7.5 -1.5t-8.5 -0.5q-28 0 -46 17t-18 40t23.5 38.5t52.5 15.5q34 0 52.5 -19t18.5 -46
q0 -35 -28 -65t-80 -46z" />
    <glyph glyph-name="scommaaccent" unicode="&#x219;" horiz-adv-x="439" 
d="M18 0zM252 553q-14 17 -35 17q-41 0 -41 -52q0 -33 13.5 -57t35.5 -45t49.5 -41t55.5 -45q50 -45 68 -86t18 -81q0 -47 -17 -88.5t-47 -73t-70.5 -49.5t-86.5 -18q-74 0 -139 50l99 124q19 -16 40 -16q27 0 44.5 16t17.5 47q0 9 -4.5 19t-15 22t-28 27.5t-43.5 36.5
q-30 24 -57 50t-47.5 57t-32 68t-11.5 83q0 45 13.5 82.5t39.5 64.5t63.5 42.5t85.5 15.5q36 0 72.5 -10.5t56.5 -33.5zM185 -253q28 24 35 38.5t8 19.5q0 -1 -2 9q-4 -1 -7.5 -1.5t-8.5 -0.5q-28 0 -46 17t-18 40t23.5 38.5t52.5 15.5q34 0 52.5 -19t18.5 -46
q0 -35 -28 -65t-80 -46z" />
    <glyph glyph-name="uni021A" unicode="&#x21a;" horiz-adv-x="357" 
d="M12 0zM346 548h-96q2 -75 3.5 -164.5t1.5 -198.5v-182h-158q0 400 -6 547h-79v158h40.5t58.5 -0.5t67 -0.5t67.5 -0.5t59 -0.5h41.5v-158zM144 -253q28 24 35 38.5t8 19.5q0 -1 -2 9q-4 -1 -7.5 -1.5t-8.5 -0.5q-28 0 -46 17t-18 40t23.5 38.5t52.5 15.5q34 0 52.5 -19
t18.5 -46q0 -35 -28 -65t-80 -46z" />
    <glyph glyph-name="uni021B" unicode="&#x21b;" horiz-adv-x="357" 
d="M12 0zM346 548h-96q2 -75 3.5 -164.5t1.5 -198.5v-182h-158q0 400 -6 547h-79v158h40.5t58.5 -0.5t67 -0.5t67.5 -0.5t59 -0.5h41.5v-158zM144 -253q28 24 35 38.5t8 19.5q0 -1 -2 9q-4 -1 -7.5 -1.5t-8.5 -0.5q-28 0 -46 17t-18 40t23.5 38.5t52.5 15.5q34 0 52.5 -19
t18.5 -46q0 -35 -28 -65t-80 -46z" />
    <glyph glyph-name="circumflex" unicode="&#x2c6;" horiz-adv-x="373" 
d="M284 758q-28 23 -54.5 48.5t-49.5 54.5q-18 -27 -42.5 -54.5t-53.5 -50.5l-73 76q37 26 74 54t69 60h55q34 -32 69.5 -62t77.5 -57z" />
    <glyph glyph-name="caron" unicode="&#x2c7;" horiz-adv-x="373" 
d="M84 942q27 -23 53.5 -47.5t49.5 -54.5q18 28 43 55.5t54 50.5l72 -78q-37 -26 -74 -53t-69 -59h-55q-68 65 -147 116z" />
    <glyph glyph-name="breve" unicode="&#x2d8;" horiz-adv-x="407" 
d="M104 938q12 -37 39.5 -64t64.5 -27q35 0 64 23.5t43 71.5l83 -50q-8 -24 -22 -47t-36.5 -41.5t-54 -30t-73.5 -11.5t-76.5 11.5t-60.5 30.5t-42 44t-21 52z" />
    <glyph glyph-name="dotaccent" unicode="&#x2d9;" horiz-adv-x="205" 
d="M173 847q0 -35 -22.5 -55.5t-50.5 -20.5q-30 0 -52.5 20.5t-22.5 55.5t22.5 56t52.5 21q28 0 50.5 -22t22.5 -55z" />
    <glyph glyph-name="ring" unicode="&#x2da;" horiz-adv-x="628" 
d="M421 851q0 -42 -30 -68.5t-72 -26.5t-72.5 26.5t-30.5 68.5q0 20 8 37.5t22.5 30t33 20t39.5 7.5q20 0 38.5 -7.5t32.5 -20t22.5 -30t8.5 -37.5zM363 851q0 18 -13 30t-31 12q-19 0 -32.5 -11.5t-13.5 -30.5q0 -18 13.5 -29.5t32.5 -11.5q18 0 31 11.5t13 29.5z" />
    <glyph glyph-name="ogonek" unicode="&#x2db;" horiz-adv-x="378" 
d="M187 30q-17 -20 -25.5 -33.5t-8.5 -33.5q0 -15 8.5 -24.5t22.5 -15t32 -7.5t38 -2q31 0 59.5 4t42.5 7l-5 -137q-5 -2 -8.5 -2h-8.5q-39 0 -92.5 4.5t-102 20t-82.5 45.5t-34 82q0 19 7.5 39t20 36.5t28.5 29t33 17.5z" />
    <glyph glyph-name="tilde" unicode="&#x2dc;" horiz-adv-x="423" 
d="M410 890q-3 -27 -13 -47t-24 -34t-31 -21t-33 -7q-29 0 -51.5 7.5t-40.5 16.5t-32 16.5t-26 7.5q-34 0 -48 -44l-101 28q10 62 45 85.5t84 23.5q26 0 46.5 -6.5t37 -14t29.5 -14t24 -6.5q25 0 39 45z" />
    <glyph glyph-name="hungarumlaut" unicode="&#x2dd;" horiz-adv-x="386" 
d="M376 905q-33 -40 -57.5 -81t-42.5 -83l-102 38q21 46 45.5 86t53.5 73zM214 913q-33 -40 -57 -81t-43 -83l-102 37q46 96 99 160z" />
    <glyph glyph-name="commaaccent" unicode="&#x326;" horiz-adv-x="194" 
d="M65 -253q28 24 35 38.5t8 19.5q0 -1 -2 9q-4 -1 -7.5 -1.5t-8.5 -0.5q-28 0 -46 17t-18 40t23.5 38.5t52.5 15.5q34 0 52.5 -19t18.5 -46q0 -35 -28 -65t-80 -46z" />
    <glyph glyph-name="uni0400" unicode="&#x400;" 
d="M11 0zM316 559q-8 4 -30 4q-86 0 -110 -145q34 1 66 2.5t63 6.5l17 -159q-34 -4 -69.5 -5.5t-74.5 -2.5q31 -135 184 -135l17 -158q-87 0 -155.5 25.5t-116 73.5t-72 117t-24.5 155q0 84 20 154.5t56.5 121.5t89 79.5t117.5 28.5q11 0 21.5 -1t21.5 -2zM327 837l-61 -81
l-207 91l68 99z" />
    <glyph glyph-name="afii10023" unicode="&#x401;" 
d="M11 0zM316 559q-8 4 -30 4q-86 0 -110 -145q34 1 66 2.5t63 6.5l17 -159q-34 -4 -69.5 -5.5t-74.5 -2.5q31 -135 184 -135l17 -158q-87 0 -155.5 25.5t-116 73.5t-72 117t-24.5 155q0 84 20 154.5t56.5 121.5t89 79.5t117.5 28.5q11 0 21.5 -1t21.5 -2zM422 849
q0 -35 -22.5 -55.5t-51.5 -20.5q-30 0 -52.5 20.5t-22.5 55.5q0 33 22.5 55t52.5 22q29 0 51.5 -22t22.5 -55zM181 849q0 -35 -22.5 -55.5t-50.5 -20.5q-30 0 -52.5 20.5t-22.5 55.5t22.5 56t52.5 21q28 0 50.5 -22t22.5 -55z" />
    <glyph glyph-name="afii10051" unicode="&#x402;" horiz-adv-x="593" 
d="M20 738q54 1 115.5 1.5t124.5 2.5t124.5 6.5t114.5 13.5l20 -156q-31 -8 -86 -11t-146 -5l-9 -127q34 30 63 42t55 12q30 0 60 -13.5t54 -42.5t39 -75t15 -111q0 -33 -4.5 -75.5t-21 -85t-48.5 -80.5t-87 -63l-55 136q26 15 40.5 29t22 29t9.5 33t2 41q0 66 -12.5 94
t-41.5 28q-12 0 -27 -7.5t-28.5 -19.5t-24.5 -27t-16 -31q-2 -36 -3 -76t-1 -80v-64.5t1 -59.5l-157 -7q0 151 3 296.5t14 298.5l-58 -2t-58 -1z" />
    <glyph glyph-name="afii10052" unicode="&#x403;" horiz-adv-x="321" 
d="M16 0zM80 -56q-4 13 -10.5 44.5t-13.5 74.5t-14 92t-13 97t-9.5 90.5t-3.5 72.5q0 148 78.5 227.5t226.5 79.5v-159q-79 0 -112.5 -34t-33.5 -114q0 -29 3.5 -69t9 -85.5t12 -92.5t14 -88t14 -73t11.5 -48zM282 946l69 -99l-209 -91l-62 81z" />
    <glyph glyph-name="afii10053" unicode="&#x404;" 
d="M11 0zM316 559q-8 4 -30 4q-86 0 -110 -145q34 1 66 2.5t63 6.5l17 -159q-34 -4 -69.5 -5.5t-74.5 -2.5q31 -135 184 -135l17 -158q-87 0 -155.5 25.5t-116 73.5t-72 117t-24.5 155q0 84 20 154.5t56.5 121.5t89 79.5t117.5 28.5q11 0 21.5 -1t21.5 -2z" />
    <glyph glyph-name="afii10054" unicode="&#x405;" horiz-adv-x="439" 
d="M18 0zM252 553q-14 17 -35 17q-41 0 -41 -52q0 -33 13.5 -57t35.5 -45t49.5 -41t55.5 -45q50 -45 68 -86t18 -81q0 -47 -17 -88.5t-47 -73t-70.5 -49.5t-86.5 -18q-74 0 -139 50l99 124q19 -16 40 -16q27 0 44.5 16t17.5 47q0 9 -4.5 19t-15 22t-28 27.5t-43.5 36.5
q-30 24 -57 50t-47.5 57t-32 68t-11.5 83q0 45 13.5 82.5t39.5 64.5t63.5 42.5t85.5 15.5q36 0 72.5 -10.5t56.5 -33.5z" />
    <glyph glyph-name="afii10055" unicode="&#x406;" horiz-adv-x="244" 
d="M42 7zM203 685v-84t-0.5 -119t-1 -135.5t-1 -136t-0.5 -119v-84.5h-158v84.5t0.5 119t1 136t1 135.5t0.5 118.5v84.5h158z" />
    <glyph glyph-name="afii10056" unicode="&#x407;" horiz-adv-x="244" 
d="M0 7zM203 685v-84t-0.5 -119t-1 -135.5t-1 -136t-0.5 -119v-84.5h-158v84.5t0.5 119t1 136t1 135.5t0.5 118.5v84.5h158zM318 849q0 -35 -22.5 -55.5t-51.5 -20.5q-30 0 -52.5 20.5t-22.5 55.5q0 33 22.5 55t52.5 22q29 0 51.5 -22t22.5 -55zM77 849q0 -35 -22.5 -55.5
t-50.5 -20.5q-30 0 -52.5 20.5t-22.5 55.5t22.5 56t52.5 21q28 0 50.5 -22t22.5 -55z" />
    <glyph glyph-name="afii10057" unicode="&#x408;" horiz-adv-x="444" 
d="M13 0zM319 705q107 -185 107 -462q0 -127 -55 -195t-158 -68q-46 0 -83 17t-63 47.5t-40 72.5t-14 92h159q0 -35 9 -52.5t32 -17.5q29 0 41.5 22t12.5 82q0 235 -86 384z" />
    <glyph glyph-name="afii10058" unicode="&#x409;" horiz-adv-x="916" 
d="M431 -12q9 100 9 222q0 91 -4 183.5t-10 189.5q-24 1 -48.5 1h-48.5q-9 -86 -23 -166.5t-37 -157.5t-58.5 -152t-87.5 -150l-128 91q52 74 90 151t63 161.5t37.5 178.5t14.5 202q51 0 93 -0.5t84.5 -0.5t89 -0.5t105.5 -0.5q1 -22 2.5 -42t3 -42.5t3.5 -48.5t4 -60
q166 -23 242.5 -96.5t76.5 -188.5q0 -63 -22 -109.5t-76.5 -79.5t-145.5 -53.5t-229 -31.5zM591 159q72 6 114 34.5t42 67.5q-9 104 -157 126q3 -56 3 -126q0 -25 -0.5 -50.5t-1.5 -51.5z" />
    <glyph glyph-name="afii10059" unicode="&#x40a;" horiz-adv-x="893" 
d="M203 685v-124q87 -2 201 -9l-11 153l157 13l6 -84t5 -87q166 -23 242.5 -96.5t76.5 -188.5q0 -63 -22.5 -109.5t-76.5 -79.5t-145 -53.5t-229 -31.5q4 51 6.5 106.5t2.5 115.5q0 45 -1.5 90.5t-3.5 93.5q-60 3 -112 5t-97 4q0 -59 -0.5 -118.5t-0.5 -112.5t-0.5 -96
t-0.5 -69h-158v84.5t0.5 119t1 136t1 135.5t0.5 118.5v84.5h158zM566 159q72 6 114.5 34.5t42.5 67.5q-9 103 -158 126q2 -28 3 -59.5t1 -66.5q0 -50 -3 -102z" />
    <glyph glyph-name="afii10060" unicode="&#x40b;" horiz-adv-x="593" 
d="M20 738q54 1 115.5 1.5t124.5 2.5t124.5 6.5t114.5 13.5l20 -156q-31 -8 -86 -11t-146 -5l-9 -127q34 30 63 42t55 12q30 0 60 -13.5t54 -42.5t39 -75t15 -111q0 -33 -4 -64.5t-9.5 -63t-9.5 -63t-4 -65.5l-161 -7q0 34 4.5 67t10 66.5t10 67.5t4.5 69q0 42 -9.5 60.5
t-27.5 18.5q-12 0 -27 -7.5t-28.5 -19.5t-24.5 -27t-16 -31q-2 -36 -3 -76t-1 -80v-64.5t1 -59.5l-157 -7q0 151 3 296.5t14 298.5l-58 -2t-58 -1z" />
    <glyph glyph-name="afii10061" unicode="&#x40c;" horiz-adv-x="475" 
d="M22 0zM397 601q-15 -13 -34.5 -36t-40.5 -51t-41.5 -58.5t-36.5 -58.5t-26 -51t-10 -36q0 -9 15 -24t38.5 -33t53.5 -37t59.5 -36t56 -30t44.5 -19l-44 -152q-61 18 -119.5 47.5t-106.5 77.5q3 -18 3.5 -42.5t0.5 -39.5h-158q0 27 -1 76t-3 110.5t-4.5 129.5t-6 132
t-7 119t-7.5 90l158 8q2 -27 3 -54.5t1 -56.5q20 42 47.5 79.5t65.5 67.5zM337 946l69 -99l-209 -91l-62 81z" />
    <glyph glyph-name="uni040D" unicode="&#x40d;" horiz-adv-x="552" 
d="M27 0zM519 697q-1 -24 -3 -92t-2 -180q0 -77 2 -138.5t5 -112t7.5 -92t9.5 -78.5l-157 -6q-19 87 -22.5 169t-3.5 166v15t2 15q-22 -46 -61 -137.5t-96 -234.5l-166 16q0 111 -3.5 197t-3.5 162q0 61 2.5 142t6.5 187l158 7q-8 -103 -10.5 -192.5t-2.5 -175.5v-12t2 -13
q48 97 96 197.5t100 209.5zM377 837l-61 -81l-207 91l68 99z" />
    <glyph glyph-name="afii10062" unicode="&#x40e;" horiz-adv-x="599" 
d="M8 0zM549 702q6 -44 6 -88q0 -105 -30.5 -201t-77.5 -179t-104 -150.5t-111 -116.5l-154 77q75 55 129.5 122.5t85.5 139.5q-65 9 -111.5 34t-77.5 59.5t-49.5 76.5t-28.5 85t-13.5 84t-4.5 75h158q0 -53 10 -100.5t28.5 -84.5t44 -58.5t57.5 -21.5q91 0 91 162
q0 17 -1 32.5t-3 29.5zM199 938q12 -37 39.5 -64t64.5 -27q35 0 64 23.5t43 71.5l83 -50q-8 -24 -22 -47t-36.5 -41.5t-54 -30t-73.5 -11.5t-76.5 11.5t-60.5 30.5t-42 44t-21 52z" />
    <glyph glyph-name="afii10145" unicode="&#x40f;" horiz-adv-x="619" 
d="M49 10q0 30 0.5 82.5t0.5 116t1 132.5t1 132.5t0.5 116t0.5 83.5h158q0 -33 -0.5 -91t-0.5 -127.5t-0.5 -143.5t-0.5 -139q57 -3 104 -5t90 -3q0 67 0.5 144.5t0.5 150.5t0.5 134t0.5 96h158v-85t-0.5 -119t-1 -136t-1 -136t-0.5 -119v-84q-51 -2 -93 -2.5t-85 -0.5h-1
q-2 -14 -2 -27v-25v-30v-37h-154q0 17 1 49.5t1 70.5z" />
    <glyph glyph-name="afii10017" unicode="&#x410;" horiz-adv-x="651" 
d="M19 0zM420 19q9 33 20.5 82.5t25.5 118.5q-29 -5 -61.5 -15t-66 -24t-66 -32t-61.5 -39q2 -23 8 -43t13 -40l-155 -36q-26 75 -42 163t-16 179q0 81 21.5 151t61.5 121.5t96 80.5t124 29q67 0 124.5 -30t99 -82t65 -121.5t23.5 -148.5q0 -20 -1 -46t-6.5 -66t-17.5 -97.5
t-34 -141.5zM472 382q-5 37 -18.5 69.5t-33 55.5t-45 36.5t-53.5 13.5q-34 0 -61 -17.5t-45.5 -47.5t-28.5 -71t-10 -88q0 -33 3 -61q30 21 68.5 39.5t78 32.5t77.5 24t68 14z" />
    <glyph glyph-name="afii10018" unicode="&#x411;" horiz-adv-x="519" 
d="M11 713q59 3 121.5 6t121 5.5t110 4t88.5 1.5v-133q-55 0 -121 -1.5t-147 -3.5l3 -45q168 -22 244 -97t76 -192q0 -62 -22.5 -107.5t-76.5 -78t-145 -53t-227 -32.5q4 43 5.5 90.5t1.5 98.5q0 126 -8.5 261t-23.5 276zM195 159q33 3 61.5 11.5t49.5 21.5t32.5 29.5
t11.5 34.5q0 54 -41.5 86.5t-116.5 43.5q2 -32 3 -67.5t1 -73.5v-42.5t-1 -43.5z" />
    <glyph glyph-name="afii10019" unicode="&#x412;" horiz-adv-x="582" 
d="M20 0zM417 400q34 -6 63.5 -20t50.5 -34t33 -47t12 -58q0 -66 -39 -119t-111.5 -89.5t-175.5 -56t-230 -19.5q4 45 8.5 93.5t8 97.5t5.5 97t2 92q0 51 -5.5 140t-16.5 225q39 5 90.5 7.5t117.5 2.5q142 0 209 -45.5t67 -131.5q0 -48 -21.5 -85t-67.5 -50zM189 552
q6 -45 9 -80.5t4 -61.5q24 3 47 12t41 21.5t29 28t11 32.5q0 53 -91 53q-13 0 -25 -1.5t-25 -3.5zM206 289q0 -35 -2 -76t-6 -89q38 3 76 14.5t68 28t49 36t19 38.5q0 53 -131 53q-20 0 -38 -1t-35 -4z" />
    <glyph glyph-name="afii10020" unicode="&#x413;" horiz-adv-x="321" 
d="M80 -56q-4 13 -10.5 44.5t-13.5 74.5t-14 92t-13 97t-9.5 90.5t-3.5 72.5q0 148 78.5 227.5t226.5 79.5v-159q-79 0 -112.5 -34t-33.5 -114q0 -29 3.5 -69t9 -85.5t12 -92.5t14 -88t14 -73t11.5 -48z" />
    <glyph glyph-name="afii10021" unicode="&#x414;" horiz-adv-x="679" 
d="M48 79q49 78 83.5 154t57 156t33 166.5t12.5 186.5q51 0 96 -0.5t91 -0.5t95 -0.5t109 -0.5q-11 -169 -22 -324t-16 -308l99 -5q-6 -18 -13 -52t-13.5 -70.5t-11.5 -68.5t-6 -47l-157 -7q1 24 5.5 50.5t9.5 50.5q-108 0 -196.5 -2.5t-173.5 -7.5v-78l-157 -6
q2 20 2.5 53.5t0.5 67.5q0 27 -0.5 51t-2.5 39zM363 584q-14 -127 -38.5 -243.5t-78.5 -228.5q48 2 95 4t92 2q3 57 7 117t8.5 120t9 118t7.5 110q-26 1 -51 1h-51z" />
    <glyph glyph-name="afii10022" unicode="&#x415;" 
d="M11 0zM316 559q-8 4 -30 4q-86 0 -110 -145q34 1 66 2.5t63 6.5l17 -159q-34 -4 -69.5 -5.5t-74.5 -2.5q31 -135 184 -135l17 -158q-87 0 -155.5 25.5t-116 73.5t-72 117t-24.5 155q0 84 20 154.5t56.5 121.5t89 79.5t117.5 28.5q11 0 21.5 -1t21.5 -2z" />
    <glyph glyph-name="afii10024" unicode="&#x416;" horiz-adv-x="786" 
d="M280 653q10 -43 26 -74.5t39 -57.5q-2 48 -5 88.5t-7 69.5l159 8q3 -54 3 -111q20 42 48 79.5t65 67.5l100 -122q-15 -13 -34.5 -36t-40.5 -51t-41.5 -58.5t-36.5 -58.5t-26 -51t-10 -36q0 -9 15 -24t38.5 -33t53.5 -37t59.5 -36t56 -30t44.5 -19l-44 -152
q-61 18 -119 47.5t-107 77.5q3 -18 3.5 -42.5t0.5 -39.5h-158q0 28 -1.5 81t-3.5 119q-60 -54 -113 -111.5t-98 -126.5l-128 91q55 85 122.5 154.5t142.5 136.5q-60 48 -99 108t-58 146z" />
    <glyph glyph-name="afii10025" unicode="&#x417;" horiz-adv-x="507" 
d="M16 0zM25 588q31 64 90 101t131 37q51 0 93.5 -14t74 -40.5t49 -64.5t17.5 -86q0 -54 -20 -89t-51 -55q15 -9 28.5 -26t23 -38.5t15 -46t5.5 -48.5q0 -52 -19 -95t-53 -73.5t-79.5 -47.5t-97.5 -17q-40 0 -75.5 10.5t-63.5 30t-48 47t-29 61.5l153 40q9 -32 63 -32
q39 0 64.5 18t25.5 47q0 99 -83 99q-13 0 -26 -2.5t-29 -6.5q0 40 -2 79.5t-5 77.5q36 -11 64 -11q35 0 60 13.5t25 39.5q0 33 -21 52.5t-55 19.5q-67 0 -88 -50z" />
    <glyph glyph-name="afii10026" unicode="&#x418;" horiz-adv-x="552" 
d="M519 697q-1 -24 -3 -92t-2 -180q0 -77 2 -138.5t5 -112t7.5 -92t9.5 -78.5l-157 -6q-19 87 -22.5 169t-3.5 166v15t2 15q-22 -46 -61 -137.5t-96 -234.5l-166 16q0 111 -3.5 197t-3.5 162q0 61 2.5 142t6.5 187l158 7q-8 -103 -10.5 -192.5t-2.5 -175.5v-12t2 -13
q48 97 96 197.5t100 209.5z" />
    <glyph glyph-name="afii10027" unicode="&#x419;" horiz-adv-x="552" 
d="M27 0zM519 697q-1 -24 -3 -92t-2 -180q0 -77 2 -138.5t5 -112t7.5 -92t9.5 -78.5l-157 -6q-19 87 -22.5 169t-3.5 166v15t2 15q-22 -46 -61 -137.5t-96 -234.5l-166 16q0 111 -3.5 197t-3.5 162q0 61 2.5 142t6.5 187l158 7q-8 -103 -10.5 -192.5t-2.5 -175.5v-12t2 -13
q48 97 96 197.5t100 209.5zM174 938q12 -37 39.5 -64t64.5 -27q35 0 64 23.5t43 71.5l83 -50q-8 -24 -22 -47t-36.5 -41.5t-54 -30t-73.5 -11.5t-76.5 11.5t-60.5 30.5t-42 44t-21 52z" />
    <glyph glyph-name="afii10028" unicode="&#x41a;" horiz-adv-x="475" 
d="M22 0zM397 601q-15 -13 -34.5 -36t-40.5 -51t-41.5 -58.5t-36.5 -58.5t-26 -51t-10 -36q0 -9 15 -24t38.5 -33t53.5 -37t59.5 -36t56 -30t44.5 -19l-44 -152q-61 18 -119.5 47.5t-106.5 77.5q3 -18 3.5 -42.5t0.5 -39.5h-158q0 27 -1 76t-3 110.5t-4.5 129.5t-6 132
t-7 119t-7.5 90l158 8q2 -27 3 -54.5t1 -56.5q20 42 47.5 79.5t65.5 67.5z" />
    <glyph glyph-name="afii10029" unicode="&#x41b;" horiz-adv-x="614" 
d="M200 742q51 0 96 -0.5t90.5 -0.5t95 -0.5t109.5 -0.5q-6 -89 -12 -182t-11 -185t-9 -179.5t-6 -164.5l-157 -7q1 64 5 136t9.5 145.5t11 145t9.5 134.5q-26 1 -51 1h-51q-9 -86 -23 -166.5t-37 -157.5t-58.5 -152t-87.5 -150l-128 91q52 74 90 151t63 161.5t37.5 178.5
t14.5 202z" />
    <glyph glyph-name="afii10030" unicode="&#x41c;" horiz-adv-x="800" 
d="M12 0zM547 4q38 91 58 190t20 217q0 154 -67 154q-47 0 -71.5 -81t-24.5 -226q0 -142 20 -211h-167q9 30 13 81.5t4 126.5q0 151 -25 230.5t-68 79.5q-69 0 -69 -154q0 -118 20 -217t59 -190l-157 -29q-25 63 -40.5 110.5t-24.5 94t-12 100.5t-3 131q0 72 15.5 129.5
t44.5 98.5t71 63t96 22q48 0 92.5 -30t66.5 -84q10 27 27.5 48t39 36t45.5 22.5t48 7.5q52 0 94 -22t71 -63t44.5 -98.5t15.5 -129.5q0 -139 -22 -243.5t-58 -192.5z" />
    <glyph glyph-name="afii10031" unicode="&#x41d;" horiz-adv-x="570" 
d="M527 696v-84t-0.5 -119t-1 -136t-1 -136t-0.5 -118.5v-84.5h-159v107t1 155q-51 3 -90.5 5t-74.5 3v-90t-0.5 -82t-0.5 -69v-51h-158v84.5t0.5 118.5t1 136t1 136t0.5 118.5v84.5h158v-94.5t-1 -132.5q37 -2 75.5 -3.5t89.5 -4.5q0 82 0.5 151t0.5 106h159z" />
    <glyph glyph-name="afii10032" unicode="&#x41e;" horiz-adv-x="613" 
d="M13 0zM324 722q63 0 114 -23t86 -64.5t54 -100t19 -130.5q0 -87 -23.5 -169t-65.5 -145.5t-99 -102.5t-123 -39q-63 0 -113.5 25t-86 70t-54.5 107.5t-19 137.5q0 82 23.5 160t65.5 139t99 98t123 37zM332 562q-33 0 -62.5 -26t-51.5 -67t-35 -90.5t-13 -95.5
q0 -34 7.5 -65.5t22 -55.5t34.5 -38.5t45 -14.5q33 0 62 26.5t50.5 68.5t34 93t12.5 101q0 75 -27.5 119.5t-78.5 44.5z" />
    <glyph glyph-name="afii10033" unicode="&#x41f;" horiz-adv-x="619" 
d="M563 685v-82.5t-0.5 -116t-1 -132.5t-1 -132.5t-0.5 -116v-83.5h-159q0 33 0.5 91t1 127.5t1 144t0.5 139.5q-57 2 -104.5 4t-89.5 3q0 -67 -0.5 -144.5t-0.5 -150.5t-0.5 -134t-0.5 -95h-159q0 31 0.5 84.5t0.5 119t1 136t1 135.5t0.5 118.5t0.5 84.5q51 2 93 3t85 1
q32 0 66 -0.5t73.5 -1.5t86.5 -1.5t106 -0.5z" />
    <glyph glyph-name="afii10034" unicode="&#x420;" horiz-adv-x="511" 
d="M5 7zM5 723q148 0 243.5 -15t151 -47.5t77.5 -84t22 -124.5q0 -100 -73 -171t-224 -103q2 -45 3 -88t1 -83h-159q0 93 -2 189t-7 188.5t-13 178.5t-20 160zM177 564q8 -61 12 -119t6 -107q146 35 146 138q0 19 -12.5 35.5t-34.5 28t-52 18t-65 6.5z" />
    <glyph glyph-name="afii10035" unicode="&#x421;" horiz-adv-x="378" 
d="M10 0zM317 560q-11 3 -23 3q-29 0 -52 -16t-39.5 -45.5t-25.5 -71t-9 -92.5q0 -213 193 -213l17 -158q-6 -1 -12.5 -1h-13.5q-86 0 -150 27t-106.5 76.5t-64 117.5t-21.5 151q0 84 20 154.5t56.5 121.5t89 79.5t117.5 28.5q11 0 21 -1t21 -2z" />
    <glyph glyph-name="afii10036" unicode="&#x422;" horiz-adv-x="357" 
d="M12 3zM346 548h-96q2 -75 3.5 -164.5t1.5 -198.5v-182h-158q0 400 -6 547h-79v158h40.5t58.5 -0.5t67 -0.5t67.5 -0.5t59 -0.5h41.5v-158z" />
    <glyph glyph-name="afii10037" unicode="&#x423;" horiz-adv-x="599" 
d="M549 702q6 -44 6 -88q0 -105 -30.5 -201t-77.5 -179t-104 -150.5t-111 -116.5l-154 77q75 55 129.5 122.5t85.5 139.5q-65 9 -111.5 34t-77.5 59.5t-49.5 76.5t-28.5 85t-13.5 84t-4.5 75h158q0 -53 10 -100.5t28.5 -84.5t44 -58.5t57.5 -21.5q91 0 91 162q0 17 -1 32.5
t-3 29.5z" />
    <glyph glyph-name="afii10038" unicode="&#x424;" horiz-adv-x="859" 
d="M506 690v-47.5t-1 -47.5q35 0 74 -9.5t75.5 -23.5t67 -30t48.5 -30q31 -24 54 -58.5t23 -71.5q0 -44 -30 -84.5t-73 -73t-91 -54t-83 -26.5l-52 -8q0 -28 1.5 -63.5t5.5 -59.5l-158 -6q-1 11 -2 27t-2 33.5t-1.5 34.5t-0.5 30q-32 0 -70.5 3.5t-77.5 13t-75.5 24.5
t-65 38.5t-45.5 55.5t-17 74q0 61 33 107t83.5 79t109.5 53t112 29q1 21 1 42.5v41.5zM168 332q0 -15 20.5 -25.5t49.5 -17t59.5 -9.5t50.5 -3q-3 58 -3 113q0 12 0.5 24t0.5 24q-12 -2 -41.5 -9.5t-60 -21t-53.5 -32.5t-23 -43zM671 368q0 18 -20.5 30.5t-48.5 20.5
t-55.5 12t-42.5 5v-76.5t1 -76.5q18 2 46.5 8t55 16.5t45.5 25.5t19 35z" />
    <glyph glyph-name="afii10039" unicode="&#x425;" horiz-adv-x="599" 
d="M8 0zM549 702q6 -44 6 -88q0 -26 -2.5 -58.5t-10.5 -64.5t-23.5 -59.5t-40.5 -43.5q26 -14 44 -39.5t30 -59t19 -71.5t11 -77t5 -75.5t1 -66.5h-158q0 284 -88 284q-26 0 -50.5 -27.5t-44 -70t-32 -94t-14.5 -100.5l-158 7q2 39 10 90t24 102t41 96.5t60 72.5
q-49 22 -81.5 62t-51.5 89.5t-27.5 104t-9.5 105.5h158q0 -53 10 -100.5t28.5 -84.5t44 -58.5t57.5 -21.5q91 0 91 162q0 17 -1 32.5t-3 29.5z" />
    <glyph glyph-name="afii10040" unicode="&#x426;" horiz-adv-x="609" 
d="M386 164q0 67 0.5 144.5t0.5 150.5t0.5 134t0.5 96h159q0 -33 -0.5 -92t-1.5 -129.5t-1.5 -146t-0.5 -141.5h50q0 -20 -0.5 -61.5t-1 -87t-1 -86.5t-0.5 -60h-151v50.5t1 71.5h-53t-69 0.5t-76.5 1t-76 1t-66 0.5h-47.5v82.5t0.5 116t1 132.5t1 132.5t0.5 116v83.5h158
q0 -33 -0.5 -91t-0.5 -127.5t-0.5 -143.5t-0.5 -139z" />
    <glyph glyph-name="afii10041" unicode="&#x427;" horiz-adv-x="513" 
d="M340 -36q-3 14 -7 37t-7.5 52t-6.5 62t-4 68q-22 -32 -54 -46t-67 -14q-44 0 -78 21t-57 55.5t-34.5 80t-11.5 95.5q0 48 5 102.5t11.5 102.5t12 83.5t6.5 44.5l158 -13q-7 -66 -11.5 -109.5t-6.5 -71t-3 -44t-1 -29.5q0 -158 59 -158q16 0 29 16t22 60t14 122t5 201h159
q0 -263 3 -435t21 -260z" />
    <glyph glyph-name="afii10042" unicode="&#x428;" horiz-adv-x="865" 
d="M506 663q0 -33 -0.5 -90t-1 -125t-1 -141.5t-0.5 -140.5q54 -1 96 -1.5t59 -0.5q0 67 0.5 144.5t0.5 150.5t0.5 134t0.5 96h158v-85t-0.5 -119t-1 -136t-1 -136t-0.5 -119v-84q-76 -2 -151.5 -3.5t-153.5 -1.5q-115 0 -229 1.5t-232 3.5q0 30 0.5 82.5t0.5 116t1 132.5
t1 132.5t0.5 116t0.5 83.5h158q0 -33 -0.5 -91t-0.5 -127.5t-0.5 -143.5t-0.5 -139l135 -4q0 67 0.5 140t1.5 141t1.5 124.5t0.5 89.5h158z" />
    <glyph glyph-name="afii10043" unicode="&#x429;" horiz-adv-x="881" 
d="M506 663q0 -33 -0.5 -90t-1 -125t-1 -141.5t-0.5 -140.5q54 -1 96 -1.5t59 -0.5q0 67 0.5 144.5t0.5 150.5t0.5 134t0.5 96h158q0 -33 -0.5 -92t-1 -129.5t-1 -146t-0.5 -141.5h50q0 -20 -0.5 -61.5t-1.5 -87t-1.5 -86.5t-0.5 -60h-150v50.5t1 71.5q-19 -2 -37 -2h-36
q-151 0 -295 1t-295 4q0 30 0.5 82.5t0.5 116t1 132.5t1 132.5t0.5 116t0.5 83.5h158q0 -33 -0.5 -91t-0.5 -127.5t-0.5 -143.5t-0.5 -139l135 -4q0 67 0.5 140t1.5 141t1.5 124.5t0.5 89.5h158z" />
    <glyph glyph-name="afii10044" unicode="&#x42a;" horiz-adv-x="558" 
d="M-22 702q24 4 48 6.5t51.5 4.5t62 3t79.5 2l6 -84t5 -87q166 -23 242.5 -96.5t76.5 -188.5q0 -63 -22.5 -109.5t-76.5 -79.5t-145 -53.5t-229 -31.5q4 51 6.5 106.5t2.5 115.5q0 85 -4 174.5t-10 180.5l-85 -6zM235 159q72 6 114.5 34.5t42.5 67.5q-9 103 -158 126
q2 -28 3 -59.5t1 -66.5q0 -25 -1 -50.5t-2 -51.5z" />
    <glyph glyph-name="afii10045" unicode="&#x42b;" horiz-adv-x="756" 
d="M15 0zM30 -12q4 51 6 106.5t2 115.5q0 118 -6 243.5t-17 251.5l158 13l11 -171q166 -23 242.5 -96.5t76.5 -188.5q0 -63 -22.5 -109.5t-76.5 -79.5t-145 -53.5t-229 -31.5zM189 159q72 6 114 34.5t42 67.5q-8 104 -157 126q3 -56 3 -126q0 -25 -0.5 -50.5t-1.5 -51.5z
M714 685v-84t-0.5 -119t-1 -135.5t-1 -136t-0.5 -119v-84.5h-158v84.5t0.5 119t1 136t1 135.5t0.5 118.5v84.5h158z" />
    <glyph glyph-name="afii10046" unicode="&#x42c;" horiz-adv-x="511" 
d="M30 -12q4 51 6 106.5t2 115.5q0 118 -6 243.5t-17 251.5l158 13l11 -171q166 -23 242.5 -96.5t76.5 -188.5q0 -63 -22.5 -109.5t-76.5 -79.5t-145 -53.5t-229 -31.5zM189 159q72 6 114 34.5t42 67.5q-8 104 -157 126q3 -56 3 -126q0 -25 -0.5 -50.5t-1.5 -51.5z" />
    <glyph glyph-name="afii10047" unicode="&#x42d;" 
d="M49 719q11 1 21.5 2t21.5 1q65 0 117.5 -28.5t89 -79.5t56.5 -121.5t20 -154.5q0 -86 -24.5 -155t-72 -117t-116 -73.5t-155.5 -25.5l17 158q152 0 184 135q-39 1 -74.5 2.5t-69.5 5.5l17 159q31 -5 63 -6.5t66 -2.5q-24 145 -110 145q-22 0 -30 -4z" />
    <glyph glyph-name="afii10048" unicode="&#x42e;" horiz-adv-x="857" 
d="M569 722q63 0 113.5 -23t85.5 -64.5t54 -100t19 -130.5q0 -87 -23.5 -169t-65.5 -145.5t-99 -102.5t-123 -39q-62 0 -111.5 23.5t-84.5 66.5t-55 102.5t-22 131.5q-14 1 -28 1.5t-28 0.5v-82t-0.5 -74.5t-0.5 -63v-47.5h-158v84.5t0.5 119t1 136t1 135.5t0.5 118.5v84.5
h158q0 -36 -0.5 -103.5t-0.5 -148.5l74 -3q16 60 44.5 113.5t66 93t84 62.5t98.5 23zM576 562q-33 0 -62.5 -26t-51.5 -67t-34.5 -90.5t-12.5 -95.5q0 -34 7.5 -65.5t22 -55.5t34.5 -38.5t45 -14.5q33 0 62 26.5t50.5 68.5t33.5 93t12 101q0 75 -27 119.5t-79 44.5z" />
    <glyph glyph-name="afii10049" unicode="&#x42f;" horiz-adv-x="522" 
d="M338 558q-72 -6 -105.5 -26.5t-33.5 -62.5q0 -54 35 -79t98 -40q0 60 0.5 113t5.5 95zM497 719q-4 -88 -6 -176.5t-2 -176.5q0 -100 2.5 -193t6.5 -187h-154q-3 38 -4 82t-2 98q-23 -16 -56.5 -44t-68 -59.5t-65.5 -62.5t-49 -53l-98 124q30 23 60 47.5t56.5 48.5
t48.5 45.5t36 38.5q-78 29 -119.5 86t-41.5 135q0 61 25.5 108t72.5 79t114 48.5t151 16.5q29 0 52 -1.5t41 -3.5z" />
    <glyph glyph-name="afii10065" unicode="&#x430;" horiz-adv-x="651" 
d="M19 0zM420 19q9 33 20.5 82.5t25.5 118.5q-29 -5 -61.5 -15t-66 -24t-66 -32t-61.5 -39q2 -23 8 -43t13 -40l-155 -36q-26 75 -42 163t-16 179q0 81 21.5 151t61.5 121.5t96 80.5t124 29q67 0 124.5 -30t99 -82t65 -121.5t23.5 -148.5q0 -20 -1 -46t-6.5 -66t-17.5 -97.5
t-34 -141.5zM472 382q-5 37 -18.5 69.5t-33 55.5t-45 36.5t-53.5 13.5q-34 0 -61 -17.5t-45.5 -47.5t-28.5 -71t-10 -88q0 -33 3 -61q30 21 68.5 39.5t78 32.5t77.5 24t68 14z" />
    <glyph glyph-name="afii10066" unicode="&#x431;" horiz-adv-x="519" 
d="M11 0zM11 713q59 3 121.5 6t121 5.5t110 4t88.5 1.5v-133q-55 0 -121 -1.5t-147 -3.5l3 -45q168 -22 244 -97t76 -192q0 -62 -22.5 -107.5t-76.5 -78t-145 -53t-227 -32.5q4 43 5.5 90.5t1.5 98.5q0 126 -8.5 261t-23.5 276zM195 159q33 3 61.5 11.5t49.5 21.5t32.5 29.5
t11.5 34.5q0 54 -41.5 86.5t-116.5 43.5q2 -32 3 -67.5t1 -73.5v-42.5t-1 -43.5z" />
    <glyph glyph-name="afii10067" unicode="&#x432;" horiz-adv-x="582" 
d="M20 0zM417 400q34 -6 63.5 -20t50.5 -34t33 -47t12 -58q0 -66 -39 -119t-111.5 -89.5t-175.5 -56t-230 -19.5q4 45 8.5 93.5t8 97.5t5.5 97t2 92q0 51 -5.5 140t-16.5 225q39 5 90.5 7.5t117.5 2.5q142 0 209 -45.5t67 -131.5q0 -48 -21.5 -85t-67.5 -50zM189 552
q6 -45 9 -80.5t4 -61.5q24 3 47 12t41 21.5t29 28t11 32.5q0 53 -91 53q-13 0 -25 -1.5t-25 -3.5zM206 289q0 -35 -2 -76t-6 -89q38 3 76 14.5t68 28t49 36t19 38.5q0 53 -131 53q-20 0 -38 -1t-35 -4z" />
    <glyph glyph-name="afii10068" unicode="&#x433;" horiz-adv-x="321" 
d="M16 0zM80 -56q-4 13 -10.5 44.5t-13.5 74.5t-14 92t-13 97t-9.5 90.5t-3.5 72.5q0 148 78.5 227.5t226.5 79.5v-159q-79 0 -112.5 -34t-33.5 -114q0 -29 3.5 -69t9 -85.5t12 -92.5t14 -88t14 -73t11.5 -48z" />
    <glyph glyph-name="afii10069" unicode="&#x434;" horiz-adv-x="679" 
d="M0 0zM48 79q49 78 83.5 154t57 156t33 166.5t12.5 186.5q51 0 96 -0.5t91 -0.5t95 -0.5t109 -0.5q-11 -169 -22 -324t-16 -308l99 -5q-6 -18 -13 -52t-13.5 -70.5t-11.5 -68.5t-6 -47l-157 -7q1 24 5.5 50.5t9.5 50.5q-108 0 -196.5 -2.5t-173.5 -7.5v-78l-157 -6
q2 20 2.5 53.5t0.5 67.5q0 27 -0.5 51t-2.5 39zM363 584q-14 -127 -38.5 -243.5t-78.5 -228.5q48 2 95 4t92 2q3 57 7 117t8.5 120t9 118t7.5 110q-26 1 -51 1h-51z" />
    <glyph glyph-name="afii10070" unicode="&#x435;" 
d="M11 0zM316 559q-8 4 -30 4q-86 0 -110 -145q34 1 66 2.5t63 6.5l17 -159q-34 -4 -69.5 -5.5t-74.5 -2.5q31 -135 184 -135l17 -158q-87 0 -155.5 25.5t-116 73.5t-72 117t-24.5 155q0 84 20 154.5t56.5 121.5t89 79.5t117.5 28.5q11 0 21.5 -1t21.5 -2z" />
    <glyph glyph-name="afii10072" unicode="&#x436;" horiz-adv-x="786" 
d="M18 0zM280 653q10 -43 26 -74.5t39 -57.5q-2 48 -5 88.5t-7 69.5l159 8q3 -54 3 -111q20 42 48 79.5t65 67.5l100 -122q-15 -13 -34.5 -36t-40.5 -51t-41.5 -58.5t-36.5 -58.5t-26 -51t-10 -36q0 -9 15 -24t38.5 -33t53.5 -37t59.5 -36t56 -30t44.5 -19l-44 -152
q-61 18 -119 47.5t-107 77.5q3 -18 3.5 -42.5t0.5 -39.5h-158q0 28 -1.5 81t-3.5 119q-60 -54 -113 -111.5t-98 -126.5l-128 91q55 85 122.5 154.5t142.5 136.5q-60 48 -99 108t-58 146z" />
    <glyph glyph-name="afii10073" unicode="&#x437;" horiz-adv-x="507" 
d="M16 0zM25 588q31 64 90 101t131 37q51 0 93.5 -14t74 -40.5t49 -64.5t17.5 -86q0 -54 -20 -89t-51 -55q15 -9 28.5 -26t23 -38.5t15 -46t5.5 -48.5q0 -52 -19 -95t-53 -73.5t-79.5 -47.5t-97.5 -17q-40 0 -75.5 10.5t-63.5 30t-48 47t-29 61.5l153 40q9 -32 63 -32
q39 0 64.5 18t25.5 47q0 99 -83 99q-13 0 -26 -2.5t-29 -6.5q0 40 -2 79.5t-5 77.5q36 -11 64 -11q35 0 60 13.5t25 39.5q0 33 -21 52.5t-55 19.5q-67 0 -88 -50z" />
    <glyph glyph-name="afii10074" unicode="&#x438;" horiz-adv-x="552" 
d="M27 0zM519 697q-1 -24 -3 -92t-2 -180q0 -77 2 -138.5t5 -112t7.5 -92t9.5 -78.5l-157 -6q-19 87 -22.5 169t-3.5 166v15t2 15q-22 -46 -61 -137.5t-96 -234.5l-166 16q0 111 -3.5 197t-3.5 162q0 61 2.5 142t6.5 187l158 7q-8 -103 -10.5 -192.5t-2.5 -175.5v-12t2 -13
q48 97 96 197.5t100 209.5z" />
    <glyph glyph-name="afii10075" unicode="&#x439;" horiz-adv-x="676" 
d="M82 0zM574 697q-1 -24 -3 -92t-2 -180q0 -77 2 -138.5t5 -112t7.5 -92t9.5 -78.5l-157 -6q-19 87 -22.5 169t-3.5 166v15t2 15q-22 -46 -61 -137.5t-96 -234.5l-166 16q0 111 -3.5 197t-3.5 162q0 61 2.5 142t6.5 187l158 7q-8 -103 -10.5 -192.5t-2.5 -175.5v-12t2 -13
q48 97 96 197.5t100 209.5zM229 938q12 -37 39.5 -64t64.5 -27q35 0 64 23.5t43 71.5l83 -50q-8 -24 -22 -47t-36.5 -41.5t-54 -30t-73.5 -11.5t-76.5 11.5t-60.5 30.5t-42 44t-21 52z" />
    <glyph glyph-name="afii10076" unicode="&#x43a;" horiz-adv-x="475" 
d="M22 0zM397 601q-15 -13 -34.5 -36t-40.5 -51t-41.5 -58.5t-36.5 -58.5t-26 -51t-10 -36q0 -9 15 -24t38.5 -33t53.5 -37t59.5 -36t56 -30t44.5 -19l-44 -152q-61 18 -119.5 47.5t-106.5 77.5q3 -18 3.5 -42.5t0.5 -39.5h-158q0 27 -1 76t-3 110.5t-4.5 129.5t-6 132
t-7 119t-7.5 90l158 8q2 -27 3 -54.5t1 -56.5q20 42 47.5 79.5t65.5 67.5z" />
    <glyph glyph-name="afii10077" unicode="&#x43b;" horiz-adv-x="614" 
d="M0 0zM200 742q51 0 96 -0.5t90.5 -0.5t95 -0.5t109.5 -0.5q-6 -89 -12 -182t-11 -185t-9 -179.5t-6 -164.5l-157 -7q1 64 5 136t9.5 145.5t11 145t9.5 134.5q-26 1 -51 1h-51q-9 -86 -23 -166.5t-37 -157.5t-58.5 -152t-87.5 -150l-128 91q52 74 90 151t63 161.5
t37.5 178.5t14.5 202z" />
    <glyph glyph-name="afii10078" unicode="&#x43c;" horiz-adv-x="800" 
d="M12 0zM547 4q38 91 58 190t20 217q0 154 -67 154q-47 0 -71.5 -81t-24.5 -226q0 -142 20 -211h-167q9 30 13 81.5t4 126.5q0 151 -25 230.5t-68 79.5q-69 0 -69 -154q0 -118 20 -217t59 -190l-157 -29q-25 63 -40.5 110.5t-24.5 94t-12 100.5t-3 131q0 72 15.5 129.5
t44.5 98.5t71 63t96 22q48 0 92.5 -30t66.5 -84q10 27 27.5 48t39 36t45.5 22.5t48 7.5q52 0 94 -22t71 -63t44.5 -98.5t15.5 -129.5q0 -139 -22 -243.5t-58 -192.5z" />
    <glyph glyph-name="afii10079" unicode="&#x43d;" horiz-adv-x="570" 
d="M42 0zM527 696v-84t-0.5 -119t-1 -136t-1 -136t-0.5 -118.5v-84.5h-159v107t1 155q-51 3 -90.5 5t-74.5 3v-90t-0.5 -82t-0.5 -69v-51h-158v84.5t0.5 118.5t1 136t1 136t0.5 118.5v84.5h158v-94.5t-1 -132.5q37 -2 75.5 -3.5t89.5 -4.5q0 82 0.5 151t0.5 106h159z" />
    <glyph glyph-name="afii10080" unicode="&#x43e;" horiz-adv-x="613" 
d="M13 0zM324 722q63 0 114 -23t86 -64.5t54 -100t19 -130.5q0 -87 -23.5 -169t-65.5 -145.5t-99 -102.5t-123 -39q-63 0 -113.5 25t-86 70t-54.5 107.5t-19 137.5q0 82 23.5 160t65.5 139t99 98t123 37zM332 562q-33 0 -62.5 -26t-51.5 -67t-35 -90.5t-13 -95.5
q0 -34 7.5 -65.5t22 -55.5t34.5 -38.5t45 -14.5q33 0 62 26.5t50.5 68.5t34 93t12.5 101q0 75 -27.5 119.5t-78.5 44.5z" />
    <glyph glyph-name="afii10081" unicode="&#x43f;" horiz-adv-x="619" 
d="M49 7zM563 685v-82.5t-0.5 -116t-1 -132.5t-1 -132.5t-0.5 -116v-83.5h-159q0 33 0.5 91t1 127.5t1 144t0.5 139.5q-57 2 -104.5 4t-89.5 3q0 -67 -0.5 -144.5t-0.5 -150.5t-0.5 -134t-0.5 -95h-159q0 31 0.5 84.5t0.5 119t1 136t1 135.5t0.5 118.5t0.5 84.5q51 2 93 3
t85 1q32 0 66 -0.5t73.5 -1.5t86.5 -1.5t106 -0.5z" />
    <glyph glyph-name="afii10082" unicode="&#x440;" horiz-adv-x="511" 
d="M5 7zM5 723q148 0 243.5 -15t151 -47.5t77.5 -84t22 -124.5q0 -100 -73 -171t-224 -103q2 -45 3 -88t1 -83h-159q0 93 -2 189t-7 188.5t-13 178.5t-20 160zM177 564q8 -61 12 -119t6 -107q146 35 146 138q0 19 -12.5 35.5t-34.5 28t-52 18t-65 6.5z" />
    <glyph glyph-name="afii10083" unicode="&#x441;" horiz-adv-x="378" 
d="M10 0zM317 560q-11 3 -23 3q-29 0 -52 -16t-39.5 -45.5t-25.5 -71t-9 -92.5q0 -213 193 -213l17 -158q-6 -1 -12.5 -1h-13.5q-86 0 -150 27t-106.5 76.5t-64 117.5t-21.5 151q0 84 20 154.5t56.5 121.5t89 79.5t117.5 28.5q11 0 21 -1t21 -2z" />
    <glyph glyph-name="afii10084" unicode="&#x442;" horiz-adv-x="357" 
d="M12 3zM346 548h-96q2 -75 3.5 -164.5t1.5 -198.5v-182h-158q0 400 -6 547h-79v158h40.5t58.5 -0.5t67 -0.5t67.5 -0.5t59 -0.5h41.5v-158z" />
    <glyph glyph-name="afii10085" unicode="&#x443;" horiz-adv-x="599" 
d="M8 0zM549 702q6 -44 6 -88q0 -105 -30.5 -201t-77.5 -179t-104 -150.5t-111 -116.5l-154 77q75 55 129.5 122.5t85.5 139.5q-65 9 -111.5 34t-77.5 59.5t-49.5 76.5t-28.5 85t-13.5 84t-4.5 75h158q0 -53 10 -100.5t28.5 -84.5t44 -58.5t57.5 -21.5q91 0 91 162
q0 17 -1 32.5t-3 29.5z" />
    <glyph glyph-name="afii10086" unicode="&#x444;" horiz-adv-x="859" 
d="M10 0zM506 690v-47.5t-1 -47.5q35 0 74 -9.5t75.5 -23.5t67 -30t48.5 -30q31 -24 54 -58.5t23 -71.5q0 -44 -30 -84.5t-73 -73t-91 -54t-83 -26.5l-52 -8q0 -28 1.5 -63.5t5.5 -59.5l-158 -6q-1 11 -2 27t-2 33.5t-1.5 34.5t-0.5 30q-32 0 -70.5 3.5t-77.5 13t-75.5 24.5
t-65 38.5t-45.5 55.5t-17 74q0 61 33 107t83.5 79t109.5 53t112 29q1 21 1 42.5v41.5zM168 332q0 -15 20.5 -25.5t49.5 -17t59.5 -9.5t50.5 -3q-3 58 -3 113q0 12 0.5 24t0.5 24q-12 -2 -41.5 -9.5t-60 -21t-53.5 -32.5t-23 -43zM671 368q0 18 -20.5 30.5t-48.5 20.5
t-55.5 12t-42.5 5v-76.5t1 -76.5q18 2 46.5 8t55 16.5t45.5 25.5t19 35z" />
    <glyph glyph-name="afii10087" unicode="&#x445;" horiz-adv-x="599" 
d="M8 0zM549 702q6 -44 6 -88q0 -26 -2.5 -58.5t-10.5 -64.5t-23.5 -59.5t-40.5 -43.5q26 -14 44 -39.5t30 -59t19 -71.5t11 -77t5 -75.5t1 -66.5h-158q0 284 -88 284q-26 0 -50.5 -27.5t-44 -70t-32 -94t-14.5 -100.5l-158 7q2 39 10 90t24 102t41 96.5t60 72.5
q-49 22 -81.5 62t-51.5 89.5t-27.5 104t-9.5 105.5h158q0 -53 10 -100.5t28.5 -84.5t44 -58.5t57.5 -21.5q91 0 91 162q0 17 -1 32.5t-3 29.5z" />
    <glyph glyph-name="afii10088" unicode="&#x446;" horiz-adv-x="609" 
d="M52 0zM386 164q0 67 0.5 144.5t0.5 150.5t0.5 134t0.5 96h159q0 -33 -0.5 -92t-1.5 -129.5t-1.5 -146t-0.5 -141.5h50q0 -20 -0.5 -61.5t-1 -87t-1 -86.5t-0.5 -60h-151v50.5t1 71.5h-53t-69 0.5t-76.5 1t-76 1t-66 0.5h-47.5v82.5t0.5 116t1 132.5t1 132.5t0.5 116v83.5
h158q0 -33 -0.5 -91t-0.5 -127.5t-0.5 -143.5t-0.5 -139z" />
    <glyph glyph-name="afii10089" unicode="&#x447;" horiz-adv-x="513" 
d="M13 0zM340 -36q-3 14 -7 37t-7.5 52t-6.5 62t-4 68q-22 -32 -54 -46t-67 -14q-44 0 -78 21t-57 55.5t-34.5 80t-11.5 95.5q0 48 5 102.5t11.5 102.5t12 83.5t6.5 44.5l158 -13q-7 -66 -11.5 -109.5t-6.5 -71t-3 -44t-1 -29.5q0 -158 59 -158q16 0 29 16t22 60t14 122
t5 201h159q0 -263 3 -435t21 -260z" />
    <glyph glyph-name="afii10090" unicode="&#x448;" horiz-adv-x="865" 
d="M49 5zM506 663q0 -33 -0.5 -90t-1 -125t-1 -141.5t-0.5 -140.5q54 -1 96 -1.5t59 -0.5q0 67 0.5 144.5t0.5 150.5t0.5 134t0.5 96h158v-85t-0.5 -119t-1 -136t-1 -136t-0.5 -119v-84q-76 -2 -151.5 -3.5t-153.5 -1.5q-115 0 -229 1.5t-232 3.5q0 30 0.5 82.5t0.5 116
t1 132.5t1 132.5t0.5 116t0.5 83.5h158q0 -33 -0.5 -91t-0.5 -127.5t-0.5 -143.5t-0.5 -139l135 -4q0 67 0.5 140t1.5 141t1.5 124.5t0.5 89.5h158z" />
    <glyph glyph-name="afii10091" unicode="&#x449;" horiz-adv-x="881" 
d="M49 0zM506 663q0 -33 -0.5 -90t-1 -125t-1 -141.5t-0.5 -140.5q54 -1 96 -1.5t59 -0.5q0 67 0.5 144.5t0.5 150.5t0.5 134t0.5 96h158q0 -33 -0.5 -92t-1 -129.5t-1 -146t-0.5 -141.5h50q0 -20 -0.5 -61.5t-1.5 -87t-1.5 -86.5t-0.5 -60h-150v50.5t1 71.5q-19 -2 -37 -2
h-36q-151 0 -295 1t-295 4q0 30 0.5 82.5t0.5 116t1 132.5t1 132.5t0.5 116t0.5 83.5h158q0 -33 -0.5 -91t-0.5 -127.5t-0.5 -143.5t-0.5 -139l135 -4q0 67 0.5 140t1.5 141t1.5 124.5t0.5 89.5h158z" />
    <glyph glyph-name="afii10092" unicode="&#x44a;" horiz-adv-x="558" 
d="M0 0zM-22 702q24 4 48 6.5t51.5 4.5t62 3t79.5 2l6 -84t5 -87q166 -23 242.5 -96.5t76.5 -188.5q0 -63 -22.5 -109.5t-76.5 -79.5t-145 -53.5t-229 -31.5q4 51 6.5 106.5t2.5 115.5q0 85 -4 174.5t-10 180.5l-85 -6zM235 159q72 6 114.5 34.5t42.5 67.5q-9 103 -158 126
q2 -28 3 -59.5t1 -66.5q0 -25 -1 -50.5t-2 -51.5z" />
    <glyph glyph-name="afii10093" unicode="&#x44b;" horiz-adv-x="1293" 
d="M553 0zM568 -12q4 51 6 106.5t2 115.5q0 118 -6 243.5t-17 251.5l158 13l11 -171q166 -23 242.5 -96.5t76.5 -188.5q0 -63 -22.5 -109.5t-76.5 -79.5t-145 -53.5t-229 -31.5zM727 159q72 6 114 34.5t42 67.5q-8 104 -157 126q3 -56 3 -126q0 -25 -0.5 -50.5t-1.5 -51.5z
M1252 685v-84t-0.5 -119t-1 -135.5t-1 -136t-0.5 -119v-84.5h-158v84.5t0.5 119t1 136t1 135.5t0.5 118.5v84.5h158z" />
    <glyph glyph-name="afii10094" unicode="&#x44c;" horiz-adv-x="511" 
d="M15 0zM30 -12q4 51 6 106.5t2 115.5q0 118 -6 243.5t-17 251.5l158 13l11 -171q166 -23 242.5 -96.5t76.5 -188.5q0 -63 -22.5 -109.5t-76.5 -79.5t-145 -53.5t-229 -31.5zM189 159q72 6 114 34.5t42 67.5q-8 104 -157 126q3 -56 3 -126q0 -25 -0.5 -50.5t-1.5 -51.5z
" />
    <glyph glyph-name="afii10095" unicode="&#x44d;" 
d="M7 0zM49 719q11 1 21.5 2t21.5 1q65 0 117.5 -28.5t89 -79.5t56.5 -121.5t20 -154.5q0 -86 -24.5 -155t-72 -117t-116 -73.5t-155.5 -25.5l17 158q152 0 184 135q-39 1 -74.5 2.5t-69.5 5.5l17 159q31 -5 63 -6.5t66 -2.5q-24 145 -110 145q-22 0 -30 -4z" />
    <glyph glyph-name="afii10096" unicode="&#x44e;" horiz-adv-x="857" 
d="M42 0zM569 722q63 0 113.5 -23t85.5 -64.5t54 -100t19 -130.5q0 -87 -23.5 -169t-65.5 -145.5t-99 -102.5t-123 -39q-62 0 -111.5 23.5t-84.5 66.5t-55 102.5t-22 131.5q-14 1 -28 1.5t-28 0.5v-82t-0.5 -74.5t-0.5 -63v-47.5h-158v84.5t0.5 119t1 136t1 135.5t0.5 118.5
v84.5h158q0 -36 -0.5 -103.5t-0.5 -148.5l74 -3q16 60 44.5 113.5t66 93t84 62.5t98.5 23zM576 562q-33 0 -62.5 -26t-51.5 -67t-34.5 -90.5t-12.5 -95.5q0 -34 7.5 -65.5t22 -55.5t34.5 -38.5t45 -14.5q33 0 62 26.5t50.5 68.5t33.5 93t12 101q0 75 -27 119.5t-79 44.5z
" />
    <glyph glyph-name="afii10097" unicode="&#x44f;" horiz-adv-x="522" 
d="M1 0zM338 558q-72 -6 -105.5 -26.5t-33.5 -62.5q0 -54 35 -79t98 -40q0 60 0.5 113t5.5 95zM497 719q-4 -88 -6 -176.5t-2 -176.5q0 -100 2.5 -193t6.5 -187h-154q-3 38 -4 82t-2 98q-23 -16 -56.5 -44t-68 -59.5t-65.5 -62.5t-49 -53l-98 124q30 23 60 47.5t56.5 48.5
t48.5 45.5t36 38.5q-78 29 -119.5 86t-41.5 135q0 61 25.5 108t72.5 79t114 48.5t151 16.5q29 0 52 -1.5t41 -3.5z" />
    <glyph glyph-name="uni0450" unicode="&#x450;" 
d="M11 0zM316 559q-8 4 -30 4q-86 0 -110 -145q34 1 66 2.5t63 6.5l17 -159q-34 -4 -69.5 -5.5t-74.5 -2.5q31 -135 184 -135l17 -158q-87 0 -155.5 25.5t-116 73.5t-72 117t-24.5 155q0 84 20 154.5t56.5 121.5t89 79.5t117.5 28.5q11 0 21.5 -1t21.5 -2zM327 837l-61 -81
l-207 91l68 99z" />
    <glyph glyph-name="afii10071" unicode="&#x451;" 
d="M11 0zM316 559q-8 4 -30 4q-86 0 -110 -145q34 1 66 2.5t63 6.5l17 -159q-34 -4 -69.5 -5.5t-74.5 -2.5q31 -135 184 -135l17 -158q-87 0 -155.5 25.5t-116 73.5t-72 117t-24.5 155q0 84 20 154.5t56.5 121.5t89 79.5t117.5 28.5q11 0 21.5 -1t21.5 -2zM422 849
q0 -35 -22.5 -55.5t-51.5 -20.5q-30 0 -52.5 20.5t-22.5 55.5q0 33 22.5 55t52.5 22q29 0 51.5 -22t22.5 -55zM181 849q0 -35 -22.5 -55.5t-50.5 -20.5q-30 0 -52.5 20.5t-22.5 55.5t22.5 56t52.5 21q28 0 50.5 -22t22.5 -55z" />
    <glyph glyph-name="afii10099" unicode="&#x452;" horiz-adv-x="593" 
d="M13 0zM20 738q54 1 115.5 1.5t124.5 2.5t124.5 6.5t114.5 13.5l20 -156q-31 -8 -86 -11t-146 -5l-9 -127q34 30 63 42t55 12q30 0 60 -13.5t54 -42.5t39 -75t15 -111q0 -33 -4.5 -75.5t-21 -85t-48.5 -80.5t-87 -63l-55 136q26 15 40.5 29t22 29t9.5 33t2 41
q0 66 -12.5 94t-41.5 28q-12 0 -27 -7.5t-28.5 -19.5t-24.5 -27t-16 -31q-2 -36 -3 -76t-1 -80v-64.5t1 -59.5l-157 -7q0 151 3 296.5t14 298.5l-58 -2t-58 -1z" />
    <glyph glyph-name="afii10100" unicode="&#x453;" horiz-adv-x="321" 
d="M16 0zM80 -56q-4 13 -10.5 44.5t-13.5 74.5t-14 92t-13 97t-9.5 90.5t-3.5 72.5q0 148 78.5 227.5t226.5 79.5v-159q-79 0 -112.5 -34t-33.5 -114q0 -29 3.5 -69t9 -85.5t12 -92.5t14 -88t14 -73t11.5 -48zM282 946l69 -99l-209 -91l-62 81z" />
    <glyph glyph-name="afii10101" unicode="&#x454;" 
d="M11 0zM316 559q-8 4 -30 4q-86 0 -110 -145q34 1 66 2.5t63 6.5l17 -159q-34 -4 -69.5 -5.5t-74.5 -2.5q31 -135 184 -135l17 -158q-87 0 -155.5 25.5t-116 73.5t-72 117t-24.5 155q0 84 20 154.5t56.5 121.5t89 79.5t117.5 28.5q11 0 21.5 -1t21.5 -2z" />
    <glyph glyph-name="afii10102" unicode="&#x455;" horiz-adv-x="439" 
d="M18 0zM252 553q-14 17 -35 17q-41 0 -41 -52q0 -33 13.5 -57t35.5 -45t49.5 -41t55.5 -45q50 -45 68 -86t18 -81q0 -47 -17 -88.5t-47 -73t-70.5 -49.5t-86.5 -18q-74 0 -139 50l99 124q19 -16 40 -16q27 0 44.5 16t17.5 47q0 9 -4.5 19t-15 22t-28 27.5t-43.5 36.5
q-30 24 -57 50t-47.5 57t-32 68t-11.5 83q0 45 13.5 82.5t39.5 64.5t63.5 42.5t85.5 15.5q36 0 72.5 -10.5t56.5 -33.5z" />
    <glyph glyph-name="afii10103" unicode="&#x456;" horiz-adv-x="244" 
d="M42 7zM203 685v-84t-0.5 -119t-1 -135.5t-1 -136t-0.5 -119v-84.5h-158v84.5t0.5 119t1 136t1 135.5t0.5 118.5v84.5h158z" />
    <glyph glyph-name="afii10104" unicode="&#x457;" horiz-adv-x="244" 
d="M0 7zM203 685v-84t-0.5 -119t-1 -135.5t-1 -136t-0.5 -119v-84.5h-158v84.5t0.5 119t1 136t1 135.5t0.5 118.5v84.5h158zM318 849q0 -35 -22.5 -55.5t-51.5 -20.5q-30 0 -52.5 20.5t-22.5 55.5q0 33 22.5 55t52.5 22q29 0 51.5 -22t22.5 -55zM77 849q0 -35 -22.5 -55.5
t-50.5 -20.5q-30 0 -52.5 20.5t-22.5 55.5t22.5 56t52.5 21q28 0 50.5 -22t22.5 -55z" />
    <glyph glyph-name="afii10105" unicode="&#x458;" horiz-adv-x="444" 
d="M13 0zM319 705q107 -185 107 -462q0 -127 -55 -195t-158 -68q-46 0 -83 17t-63 47.5t-40 72.5t-14 92h159q0 -35 9 -52.5t32 -17.5q29 0 41.5 22t12.5 82q0 235 -86 384z" />
    <glyph glyph-name="afii10106" unicode="&#x459;" horiz-adv-x="916" 
d="M0 0zM431 -12q9 100 9 222q0 91 -4 183.5t-10 189.5q-24 1 -48.5 1h-48.5q-9 -86 -23 -166.5t-37 -157.5t-58.5 -152t-87.5 -150l-128 91q52 74 90 151t63 161.5t37.5 178.5t14.5 202q51 0 93 -0.5t84.5 -0.5t89 -0.5t105.5 -0.5q1 -22 2.5 -42t3 -42.5t3.5 -48.5t4 -60
q166 -23 242.5 -96.5t76.5 -188.5q0 -63 -22 -109.5t-76.5 -79.5t-145.5 -53.5t-229 -31.5zM591 159q72 6 114 34.5t42 67.5q-9 104 -157 126q3 -56 3 -126q0 -25 -0.5 -50.5t-1.5 -51.5z" />
    <glyph glyph-name="afii10107" unicode="&#x45a;" horiz-adv-x="893" 
d="M42 0zM203 685v-124q87 -2 201 -9l-11 153l157 13l6 -84t5 -87q166 -23 242.5 -96.5t76.5 -188.5q0 -63 -22.5 -109.5t-76.5 -79.5t-145 -53.5t-229 -31.5q4 51 6.5 106.5t2.5 115.5q0 45 -1.5 90.5t-3.5 93.5q-60 3 -112 5t-97 4q0 -59 -0.5 -118.5t-0.5 -112.5
t-0.5 -96t-0.5 -69h-158v84.5t0.5 119t1 136t1 135.5t0.5 118.5v84.5h158zM566 159q72 6 114.5 34.5t42.5 67.5q-9 103 -158 126q2 -28 3 -59.5t1 -66.5q0 -50 -3 -102z" />
    <glyph glyph-name="afii10108" unicode="&#x45b;" horiz-adv-x="593" 
d="M13 0zM20 738q54 1 115.5 1.5t124.5 2.5t124.5 6.5t114.5 13.5l20 -156q-31 -8 -86 -11t-146 -5l-9 -127q34 30 63 42t55 12q30 0 60 -13.5t54 -42.5t39 -75t15 -111q0 -33 -4 -64.5t-9.5 -63t-9.5 -63t-4 -65.5l-161 -7q0 34 4.5 67t10 66.5t10 67.5t4.5 69
q0 42 -9.5 60.5t-27.5 18.5q-12 0 -27 -7.5t-28.5 -19.5t-24.5 -27t-16 -31q-2 -36 -3 -76t-1 -80v-64.5t1 -59.5l-157 -7q0 151 3 296.5t14 298.5l-58 -2t-58 -1z" />
    <glyph glyph-name="afii10109" unicode="&#x45c;" horiz-adv-x="475" 
d="M22 0zM397 601q-15 -13 -34.5 -36t-40.5 -51t-41.5 -58.5t-36.5 -58.5t-26 -51t-10 -36q0 -9 15 -24t38.5 -33t53.5 -37t59.5 -36t56 -30t44.5 -19l-44 -152q-61 18 -119.5 47.5t-106.5 77.5q3 -18 3.5 -42.5t0.5 -39.5h-158q0 27 -1 76t-3 110.5t-4.5 129.5t-6 132
t-7 119t-7.5 90l158 8q2 -27 3 -54.5t1 -56.5q20 42 47.5 79.5t65.5 67.5zM337 946l69 -99l-209 -91l-62 81z" />
    <glyph glyph-name="uni045D" unicode="&#x45d;" horiz-adv-x="552" 
d="M27 0zM519 697q-1 -24 -3 -92t-2 -180q0 -77 2 -138.5t5 -112t7.5 -92t9.5 -78.5l-157 -6q-19 87 -22.5 169t-3.5 166v15t2 15q-22 -46 -61 -137.5t-96 -234.5l-166 16q0 111 -3.5 197t-3.5 162q0 61 2.5 142t6.5 187l158 7q-8 -103 -10.5 -192.5t-2.5 -175.5v-12t2 -13
q48 97 96 197.5t100 209.5zM377 837l-61 -81l-207 91l68 99z" />
    <glyph glyph-name="afii10110" unicode="&#x45e;" horiz-adv-x="599" 
d="M8 0zM549 702q6 -44 6 -88q0 -105 -30.5 -201t-77.5 -179t-104 -150.5t-111 -116.5l-154 77q75 55 129.5 122.5t85.5 139.5q-65 9 -111.5 34t-77.5 59.5t-49.5 76.5t-28.5 85t-13.5 84t-4.5 75h158q0 -53 10 -100.5t28.5 -84.5t44 -58.5t57.5 -21.5q91 0 91 162
q0 17 -1 32.5t-3 29.5zM199 938q12 -37 39.5 -64t64.5 -27q35 0 64 23.5t43 71.5l83 -50q-8 -24 -22 -47t-36.5 -41.5t-54 -30t-73.5 -11.5t-76.5 11.5t-60.5 30.5t-42 44t-21 52z" />
    <glyph glyph-name="afii10193" unicode="&#x45f;" horiz-adv-x="619" 
d="M49 0zM49 10q0 30 0.5 82.5t0.5 116t1 132.5t1 132.5t0.5 116t0.5 83.5h158q0 -33 -0.5 -91t-0.5 -127.5t-0.5 -143.5t-0.5 -139q57 -3 104 -5t90 -3q0 67 0.5 144.5t0.5 150.5t0.5 134t0.5 96h158v-85t-0.5 -119t-1 -136t-1 -136t-0.5 -119v-84q-51 -2 -93 -2.5
t-85 -0.5h-1q-2 -14 -2 -27v-25v-30v-37h-154q0 17 1 49.5t1 70.5z" />
    <glyph glyph-name="Wgrave" unicode="&#x1e80;" horiz-adv-x="802" 
d="M16 0zM707 713q25 -64 41 -111.5t25 -94.5t12 -101t3 -130q0 -71 -15.5 -128.5t-44.5 -98t-71 -62.5t-95 -22q-48 0 -90 30.5t-69 81.5q-26 -51 -69 -81.5t-91 -30.5q-54 0 -96 22t-71.5 62.5t-44.5 98t-15 128.5q0 78 2.5 134t11 104t24.5 94.5t43 104.5l156 -30
q-78 -177 -78 -407q0 -153 68 -153q45 0 70.5 79t25.5 227q0 75 -5 127t-15 85h167q-9 -29 -13 -81.5t-4 -127.5q0 -152 24 -230.5t69 -78.5q67 0 67 153q0 230 -78 407zM501 837l-61 -81l-207 91l68 99z" />
    <glyph glyph-name="wgrave" unicode="&#x1e81;" horiz-adv-x="802" 
d="M16 0zM707 713q25 -64 41 -111.5t25 -94.5t12 -101t3 -130q0 -71 -15.5 -128.5t-44.5 -98t-71 -62.5t-95 -22q-48 0 -90 30.5t-69 81.5q-26 -51 -69 -81.5t-91 -30.5q-54 0 -96 22t-71.5 62.5t-44.5 98t-15 128.5q0 78 2.5 134t11 104t24.5 94.5t43 104.5l156 -30
q-78 -177 -78 -407q0 -153 68 -153q45 0 70.5 79t25.5 227q0 75 -5 127t-15 85h167q-9 -29 -13 -81.5t-4 -127.5q0 -152 24 -230.5t69 -78.5q67 0 67 153q0 230 -78 407zM501 837l-61 -81l-207 91l68 99z" />
    <glyph glyph-name="Wacute" unicode="&#x1e82;" horiz-adv-x="802" 
d="M16 0zM707 713q25 -64 41 -111.5t25 -94.5t12 -101t3 -130q0 -71 -15.5 -128.5t-44.5 -98t-71 -62.5t-95 -22q-48 0 -90 30.5t-69 81.5q-26 -51 -69 -81.5t-91 -30.5q-54 0 -96 22t-71.5 62.5t-44.5 98t-15 128.5q0 78 2.5 134t11 104t24.5 94.5t43 104.5l156 -30
q-78 -177 -78 -407q0 -153 68 -153q45 0 70.5 79t25.5 227q0 75 -5 127t-15 85h167q-9 -29 -13 -81.5t-4 -127.5q0 -152 24 -230.5t69 -78.5q67 0 67 153q0 230 -78 407zM500 946l69 -99l-209 -91l-62 81z" />
    <glyph glyph-name="wacute" unicode="&#x1e83;" horiz-adv-x="802" 
d="M16 0zM707 713q25 -64 41 -111.5t25 -94.5t12 -101t3 -130q0 -71 -15.5 -128.5t-44.5 -98t-71 -62.5t-95 -22q-48 0 -90 30.5t-69 81.5q-26 -51 -69 -81.5t-91 -30.5q-54 0 -96 22t-71.5 62.5t-44.5 98t-15 128.5q0 78 2.5 134t11 104t24.5 94.5t43 104.5l156 -30
q-78 -177 -78 -407q0 -153 68 -153q45 0 70.5 79t25.5 227q0 75 -5 127t-15 85h167q-9 -29 -13 -81.5t-4 -127.5q0 -152 24 -230.5t69 -78.5q67 0 67 153q0 230 -78 407zM500 946l69 -99l-209 -91l-62 81z" />
    <glyph glyph-name="Wdieresis" unicode="&#x1e84;" horiz-adv-x="802" 
d="M16 0zM707 713q25 -64 41 -111.5t25 -94.5t12 -101t3 -130q0 -71 -15.5 -128.5t-44.5 -98t-71 -62.5t-95 -22q-48 0 -90 30.5t-69 81.5q-26 -51 -69 -81.5t-91 -30.5q-54 0 -96 22t-71.5 62.5t-44.5 98t-15 128.5q0 78 2.5 134t11 104t24.5 94.5t43 104.5l156 -30
q-78 -177 -78 -407q0 -153 68 -153q45 0 70.5 79t25.5 227q0 75 -5 127t-15 85h167q-9 -29 -13 -81.5t-4 -127.5q0 -152 24 -230.5t69 -78.5q67 0 67 153q0 230 -78 407zM595 849q0 -35 -22.5 -55.5t-51.5 -20.5q-30 0 -52.5 20.5t-22.5 55.5q0 33 22.5 55t52.5 22
q29 0 51.5 -22t22.5 -55zM354 849q0 -35 -22.5 -55.5t-50.5 -20.5q-30 0 -52.5 20.5t-22.5 55.5t22.5 56t52.5 21q28 0 50.5 -22t22.5 -55z" />
    <glyph glyph-name="wdieresis" unicode="&#x1e85;" horiz-adv-x="802" 
d="M16 0zM707 713q25 -64 41 -111.5t25 -94.5t12 -101t3 -130q0 -71 -15.5 -128.5t-44.5 -98t-71 -62.5t-95 -22q-48 0 -90 30.5t-69 81.5q-26 -51 -69 -81.5t-91 -30.5q-54 0 -96 22t-71.5 62.5t-44.5 98t-15 128.5q0 78 2.5 134t11 104t24.5 94.5t43 104.5l156 -30
q-78 -177 -78 -407q0 -153 68 -153q45 0 70.5 79t25.5 227q0 75 -5 127t-15 85h167q-9 -29 -13 -81.5t-4 -127.5q0 -152 24 -230.5t69 -78.5q67 0 67 153q0 230 -78 407zM595 849q0 -35 -22.5 -55.5t-51.5 -20.5q-30 0 -52.5 20.5t-22.5 55.5q0 33 22.5 55t52.5 22
q29 0 51.5 -22t22.5 -55zM354 849q0 -35 -22.5 -55.5t-50.5 -20.5q-30 0 -52.5 20.5t-22.5 55.5t22.5 56t52.5 21q28 0 50.5 -22t22.5 -55z" />
    <glyph glyph-name="Ygrave" unicode="&#x1ef2;" horiz-adv-x="551" 
d="M12 0zM539 694q3 -41 3 -77q0 -71 -12 -122t-35 -87.5t-58 -60t-81 -38.5q-4 -66 -5.5 -125t-1.5 -116q0 -21 0.5 -42t0.5 -41l-159 5q5 72 7 139t2 147v17.5t-2 17.5q-41 11 -75.5 42t-59 74.5t-38 95t-13.5 104.5q0 43 9 85l154 -36q-4 -13 -5 -27t-1 -29q0 -31 7 -61
t20 -54t32 -38.5t43 -14.5q36 0 58.5 14t34.5 35.5t16.5 49t4.5 54.5q0 74 -4 89h158zM376 837l-61 -81l-207 91l68 99z" />
    <glyph glyph-name="ygrave" unicode="&#x1ef3;" horiz-adv-x="551" 
d="M12 0zM539 694q3 -41 3 -77q0 -71 -12 -122t-35 -87.5t-58 -60t-81 -38.5q-4 -66 -5.5 -125t-1.5 -116q0 -21 0.5 -42t0.5 -41l-159 5q5 72 7 139t2 147v17.5t-2 17.5q-41 11 -75.5 42t-59 74.5t-38 95t-13.5 104.5q0 43 9 85l154 -36q-4 -13 -5 -27t-1 -29q0 -31 7 -61
t20 -54t32 -38.5t43 -14.5q36 0 58.5 14t34.5 35.5t16.5 49t4.5 54.5q0 74 -4 89h158zM376 837l-61 -81l-207 91l68 99z" />
    <glyph glyph-name="endash" unicode="&#x2013;" horiz-adv-x="595" 
d="M551 245q-32 2 -77 3.5t-95 3t-101.5 2.5t-97 1.5t-82 1t-56.5 0.5v159q20 0 57.5 -0.5t84 -1t99 -2t103.5 -3t97 -3t79 -3.5z" />
    <glyph glyph-name="emdash" unicode="&#x2014;" horiz-adv-x="967" 
d="M918 245q-24 1 -71 2t-108.5 2t-133 2t-144 2t-141.5 1.5t-126 1t-97 1t-55 0.5v159h57t98.5 -0.5t127 -1.5t142.5 -1.5t145 -1.5t134 -2.5t110 -3t73 -2.5z" />
    <glyph glyph-name="quoteleft" unicode="&#x2018;" horiz-adv-x="249" 
d="M133 812q-11 -14 -15 -26.5t-5 -22.5q0 -2 0.5 -5.5t1.5 -8.5q10 3 20 3q36 0 57.5 -27.5t21.5 -63.5q0 -18 -8 -33.5t-20.5 -27t-29.5 -18t-35 -6.5q-42 0 -65 29t-23 74q0 27 9.5 53.5t27 49.5t42 42t54.5 32z" />
    <glyph glyph-name="quoteright" unicode="&#x2019;" horiz-adv-x="239" 
d="M25 576zM73 576q34 38 43.5 60.5t9.5 32.5q0 2 -0.5 5.5t-1.5 8.5q-11 -3 -20 -3q-35 0 -57 27.5t-22 63.5q0 18 8 33.5t21 27t30 18t35 6.5q42 0 65 -29t23 -74q0 -55 -35 -103.5t-99 -73.5z" />
    <glyph glyph-name="quotesinglbase" unicode="&#x201a;" horiz-adv-x="239" 
d="M25 0zM73 -102q34 38 43.5 60.5t9.5 32.5q0 2 -0.5 5.5t-1.5 8.5q-11 -3 -20 -3q-35 0 -57 27.5t-22 63.5q0 18 8 33.5t21 27t30 18t35 6.5q42 0 65 -29t23 -74q0 -55 -35 -103.5t-99 -73.5z" />
    <glyph glyph-name="quotedblleft" unicode="&#x201c;" horiz-adv-x="445" 
d="M122 812q-20 -29 -20 -49q0 -2 0.5 -5.5t1.5 -8.5q10 3 20 3q36 0 57.5 -27.5t21.5 -63.5q0 -18 -8 -33.5t-20.5 -27t-29.5 -18t-35 -6.5q-42 0 -65 29t-23 74q0 27 9.5 53.5t27 49.5t42 42t54.5 32zM320 812q-11 -14 -15 -26.5t-5 -22.5q0 -2 0.5 -5.5t1.5 -8.5
q10 3 20 3q36 0 57.5 -27.5t21.5 -63.5q0 -18 -8 -33.5t-20.5 -27t-29.5 -18t-35 -6.5q-42 0 -65 29t-23 74q0 27 9.5 53.5t27 49.5t42 42t54.5 32z" />
    <glyph glyph-name="quotedblright" unicode="&#x201d;" horiz-adv-x="439" 
d="M25 576zM73 576q34 38 43.5 60.5t9.5 32.5q0 2 -0.5 5.5t-1.5 8.5q-11 -3 -20 -3q-35 0 -57 27.5t-22 63.5q0 18 8 33.5t21 27t30 18t35 6.5q42 0 65 -29t23 -74q0 -55 -35 -103.5t-99 -73.5zM271 576q34 38 43.5 60.5t9.5 32.5q0 2 -0.5 5.5t-1.5 8.5q-11 -3 -20 -3
q-35 0 -57 27.5t-22 63.5q0 18 8 33.5t21 27t30 18t35 6.5q42 0 65 -29t23 -74q0 -55 -35 -103.5t-99 -73.5z" />
    <glyph glyph-name="quotedblbase" unicode="&#x201e;" horiz-adv-x="439" 
d="M25 0zM73 -102q34 38 43.5 60.5t9.5 32.5q0 2 -0.5 5.5t-1.5 8.5q-11 -3 -20 -3q-35 0 -57 27.5t-22 63.5q0 18 8 33.5t21 27t30 18t35 6.5q42 0 65 -29t23 -74q0 -55 -35 -103.5t-99 -73.5zM271 -102q34 38 43.5 60.5t9.5 32.5q0 2 -0.5 5.5t-1.5 8.5q-11 -3 -20 -3
q-35 0 -57 27.5t-22 63.5q0 18 8 33.5t21 27t30 18t35 6.5q42 0 65 -29t23 -74q0 -55 -35 -103.5t-99 -73.5z" />
    <glyph glyph-name="bullet" unicode="&#x2022;" horiz-adv-x="339" 
d="M166 482q27 0 50.5 -9.5t41.5 -26t28 -38.5t10 -46t-10 -46t-28 -38.5t-41.5 -26t-50.5 -9.5t-50.5 9.5t-41 26t-28 38.5t-10.5 46t10.5 46t28 38.5t41 26t50.5 9.5z" />
    <glyph glyph-name="ellipsis" unicode="&#x2026;" horiz-adv-x="1711" 
d="M266 0zM461 66q0 -40 -29 -66.5t-69 -26.5t-68.5 26.5t-28.5 66.5q0 19 7.5 36t21 29.5t31 19.5t37.5 7q19 0 37 -7t31.5 -19.5t21.5 -29.5t8 -36zM955 66q0 -40 -29 -66.5t-69 -26.5t-68.5 26.5t-28.5 66.5q0 19 7.5 36t21 29.5t31 19.5t37.5 7q19 0 37 -7t31.5 -19.5
t21.5 -29.5t8 -36zM1449 66q0 -40 -29 -66.5t-69 -26.5t-68.5 26.5t-28.5 66.5q0 19 7.5 36t21 29.5t31 19.5t37.5 7q19 0 37 -7t31.5 -19.5t21.5 -29.5t8 -36z" />
    <glyph glyph-name="perthousand" unicode="&#x2030;" horiz-adv-x="647" 
d="M96 636q15 0 27 -7.5t21 -20.5t14 -30t5 -35q0 -39 -20.5 -65.5t-46.5 -26.5q-28 0 -47 27t-19 65q0 18 5 35t13.5 30t20.5 20.5t27 7.5zM428 538q-30 -61 -64.5 -126t-71 -127.5t-73 -120t-69.5 -102.5l-103 97q69 106 139.5 219.5t134.5 249.5zM432 79q0 -34 -22 -56.5
t-51 -22.5q-30 0 -52.5 22.5t-22.5 56.5q0 33 22 56t53 23q30 0 51.5 -23t21.5 -56zM619 79q0 -34 -22.5 -56.5t-52.5 -22.5q-29 0 -51 22.5t-22 56.5q0 33 21.5 56t51.5 23q31 0 53 -23t22 -56z" />
    <glyph glyph-name="fraction" unicode="&#x2044;" horiz-adv-x="213" 
d="M330 538q-36 -61 -78.5 -126t-86.5 -128t-88.5 -120t-84.5 -102l-125 97q85 106 170 219.5t163 249.5z" />
    <glyph glyph-name="Euro" unicode="&#x20ac;" horiz-adv-x="522" 
d="M18 376l50 5q4 80 29.5 144t71.5 108.5t110.5 68.5t147.5 24q44 0 79 -11l-45 -153q-24 3 -50 3q-31 0 -61 -7.5t-55 -26.5t-42.5 -51t-23.5 -81l190 20l-49 -166l-121 -12q37 -111 157 -111q20 0 44 3l41 -155q-22 -6 -46.5 -7.5t-45.5 -1.5q-123 0 -201 68t-110 185
l-83 -8z" />
    <glyph glyph-name="uni2117" unicode="&#x2117;" horiz-adv-x="836" 
d="M789 350q0 -77 -29.5 -144.5t-80 -118t-118.5 -80t-145 -29.5t-144.5 29.5t-117.5 80t-79.5 118t-29.5 144.5q0 76 29.5 144t79.5 118.5t117.5 80t144.5 29.5t145 -29.5t118.5 -80t80 -118.5t29.5 -144zM419 649q-60 0 -113 -23.5t-92.5 -64.5t-62.5 -96t-23 -117
t23 -116t62.5 -95t92.5 -64.5t113 -23.5q59 0 111.5 23.5t92 64.5t62.5 95t23 116t-23 117t-62.5 96t-92 64.5t-111.5 23.5zM291 543q88 0 145.5 -8t91 -26t46.5 -46t13 -68q0 -55 -43.5 -94t-134.5 -56q1 -24 1.5 -48t0.5 -46h-94q0 51 -1.5 103.5t-4.5 103.5t-8 98t-12 87
zM394 456q5 -33 7.5 -65t3.5 -59q88 19 88 76q0 22 -28.5 35t-70.5 13z" />
    <glyph glyph-name="trademark" unicode="&#x2122;" horiz-adv-x="671" 
d="M192 629h-51q1 -42 1.5 -89.5t0.5 -107.5v-98h-85q0 112 -0.5 185t-2.5 111h-43v85h37t52.5 -0.5t53 -0.5h37.5v-85zM508 335q42 96 42 220q0 83 -36 83q-25 0 -38.5 -43.5t-13.5 -121.5q0 -75 11 -114h-90q10 27 10 112q0 81 -14 124t-37 43q-37 0 -37 -83
q0 -128 43 -220l-85 -16q-14 34 -22.5 59.5t-13.5 51t-6.5 54.5t-1.5 71q0 78 32.5 123.5t90.5 45.5q25 0 49.5 -16.5t36.5 -45.5q11 29 36 45.5t50 16.5q57 0 89.5 -45.5t32.5 -123.5q0 -76 -12 -131.5t-31 -104.5z" />
    <glyph glyph-name="minus" unicode="&#x2212;" horiz-adv-x="388" 
d="M352 429v-158l-329 17v159z" />
    <glyph glyph-name=".ttfautohint" horiz-adv-x="0" 
d="M0 0z" />
    </font>
</defs>
</svg>
