<?xml version="1.0" standalone="no"?>
<!DOCTYPE svg PUBLIC "-//W3C//DTD SVG 1.1//EN" "http://www.w3.org/Graphics/SVG/1.1/DTD/svg11.dtd" >
<svg xmlns="http://www.w3.org/2000/svg" xmlns:xlink="http://www.w3.org/1999/xlink" version="1.1">
<metadata>
Created by FontForge 20201107 at Wed Jul  8 12:32:48 2020
 By www-data
Copyright (c) 2003 , Dustin Norlander. Copyright (c) 2019, Denis Ignatov.
</metadata>
<defs>
<font id="PenguinAttackCyrillic" horiz-adv-x="881" >
  <font-face 
    font-family="Penguin Attack Cyrillic"
    font-weight="400"
    font-stretch="normal"
    units-per-em="2048"
    panose-1="2 0 5 0 0 0 0 2 0 4"
    ascent="1638"
    descent="-410"
    x-height="752"
    cap-height="1356"
    bbox="-153.63 -724 1910 1819"
    underline-thickness="102"
    underline-position="-205"
    unicode-range="U+001D-FB02"
  />
<missing-glyph horiz-adv-x="700" 
 />
    <glyph glyph-name=".notdef" horiz-adv-x="700" 
 />
    <glyph glyph-name="uni0000" horiz-adv-x="0" 
 />
    <glyph glyph-name="uni0000" horiz-adv-x="0" 
 />
    <glyph glyph-name="nonmarkingreturn" horiz-adv-x="682" 
 />
    <glyph glyph-name="space" unicode=" " horiz-adv-x="700" 
 />
    <glyph glyph-name="space" unicode="&#xa0;" horiz-adv-x="700" 
 />
    <glyph glyph-name="exclam" unicode="!" horiz-adv-x="355" 
d="M98 1331l141 -2q1 -172 -11 -530t-9 -541q-13 0 -41 1t-41 1q-2 170 -19.5 528.5t-19.5 542.5zM81 74q1 -2 4 3q23 45 27 52q28 39 61 39q6 0 13.5 -0.5t23.5 -6t27.5 -14.5t21 -28t9.5 -45q0 -21 -8.5 -36.5t-18 -22.5t-23.5 -10.5t-19 -4t-9 -0.5q-43 0 -76 19t-33 55z
" />
    <glyph glyph-name="quotedbl" unicode="&#x22;" horiz-adv-x="560" 
d="M73 1309l154 -2q-2 -9 -10.5 -46.5t-10.5 -50.5t-8 -45.5t-6 -50v-44.5t5 -49t13 -44q-14 0 -59 3t-59 3q29 126 -19 326zM350 1309l153 -2q-1 -6 -9 -40.5t-9.5 -44t-7 -40t-6.5 -44t-2.5 -39.5t0.5 -43t6.5 -38.5t11.5 -40.5q-13 0 -59.5 3t-59.5 3q30 122 -18 326z
" />
    <glyph glyph-name="numbersign" unicode="#" horiz-adv-x="1058" 
d="M20 385l-4 111q89 -7 254 -15q15 93 41 301q-187 -9 -246 -14l-4 111q91 -7 258 -15q11 97 37 459q28 -5 133 -18q-49 -275 -76 -443h262q16 143 37 463q16 -3 74 -9.5t59 -6.5q-42 -237 -76 -443q138 6 220 11q4 -36 4 -111q-56 5 -236 14q-32 -205 -43 -299
q81 3 230 13q4 -36 4 -111q-55 5 -242 14q-29 -245 -43 -428l-131 19q59 298 80 413q-133 3 -262 0q-13 -96 -43 -434l-131 17q40 200 79 413q-118 -3 -235 -12zM358 479q134 -3 266 0q32 206 43 303q-162 6 -266 2q-27 -162 -43 -305z" />
    <glyph glyph-name="dollar" unicode="$" horiz-adv-x="1076" 
d="M94 324q0 66 39 111.5t94 64t118 18.5q86 0 173 -49v143q-133 26 -142 29q-123 32 -195.5 110t-72.5 203q0 79 38 138t100 91t127 47t132 15h6q-3 122 -8 201l148 -2q-17 -103 -21 -211q70 -12 129 -37.5t109 -65t81 -98t38 -131.5q-14 -3 -73 6t-73 8q-9 112 -63 167.5
t-150 72.5q-4 -146 -10 -436q133 -28 172 -47q70 -36 120 -117.5t50 -161.5q0 -73 -29 -133.5t-78.5 -100t-108 -64.5t-124.5 -34q4 -186 20 -272q-4 0 -30 0.5t-44 0.5q-16 0 -42 0.5t-31 0.5q12 83 18 264q-49 1 -102 10.5t-110 30t-102 50t-74 76t-29 102.5zM221 969
q0 -42 17 -76t43 -57t67.5 -42.5t79.5 -31t90 -23.5q-1 75 -2 217t-3 207h-2q-65 0 -114 -8.5t-90.5 -28.5t-63.5 -59.5t-22 -97.5zM343 432q-28 0 -58.5 -8t-59.5 -26.5t-39 -47.5t2 -71q75 -134 325 -140q2 50 2 78v84q-5 44 -26 73t-51.5 40t-51.5 14.5t-43 3.5zM618 590
q-2 -158 -2 -230q0 -77 2 -215q223 33 223 238q0 57 -33 100t-79 66t-111 41z" />
    <glyph glyph-name="percent" unicode="%" horiz-adv-x="1150" 
d="M85 -74q400 701 713 1483q15 -8 121 -57q-395 -738 -715 -1483zM46 1061q0 32 9.5 69.5t18 59.5t30.5 70t28 63l70 -31q-49 -108 -49 -219q0 -25 4.5 -56.5t16.5 -71.5t38 -66.5t62 -26.5q56 0 84 66.5t28 150.5v53q0 108 -51 125q-20 7 -21 -21q-1 -14 11 -97
q4 -23 4 -35q-13 0 -57 3t-58 3q0 108 33 169.5t94 61.5q55 0 104.5 -81t49.5 -181q0 -122 -70.5 -205.5t-158.5 -83.5q-87 0 -153.5 82.5t-66.5 198.5zM606 281q0 21 4.5 45.5t8.5 41t16 47t16 40.5t21.5 46.5t19.5 41.5l69 -31q-49 -111 -49 -219q0 -24 5 -56t17 -72
t37.5 -66.5t61.5 -26.5q39 0 65.5 35.5t37 82t10.5 99.5q0 103 -13 137q-13 33 -39 41q-19 6 -21 -21q-2 -14 11 -97q4 -24 4 -36q-14 0 -57.5 3t-56.5 3q0 108 33 170t93 62q55 0 104.5 -81t49.5 -181q0 -122 -70.5 -205.5t-158.5 -83.5q-86 0 -152.5 82.5t-66.5 198.5z
" />
    <glyph glyph-name="ampersand" unicode="&#x26;" horiz-adv-x="1490" 
d="M66 354q0 68 32 129t84.5 105.5t112 76t123.5 50.5q-115 44 -173 124t-58 185q0 80 32.5 143.5t85.5 101.5t116 57.5t130 19.5q47 0 96 -13t95 -38.5t75 -71t29 -103.5q0 -71 -67.5 -116.5t-150.5 -45.5q-60 0 -103 28t-52 83l138 51q0 -25 19.5 -49t43.5 -24
q36 0 62 18.5t26 52.5q0 76 -62 113t-151 37q-233 0 -233 -244q0 -75 49 -131t118.5 -82t145.5 -26q62 0 113 20l-74 -143q-49 12 -103 12q-73 0 -143 -22t-126.5 -62t-91 -102.5t-34.5 -137.5q0 -60 24.5 -108.5t64 -79t93.5 -51t110 -29t116 -8.5q98 0 171 20t118.5 52
t76.5 83.5t45.5 104.5t24.5 125q-138 22 -201 22q-167 0 -180 -108q-10 -107 84 -107q38 0 70.5 31.5t11.5 79.5q12 3 64.5 26.5t66.5 26.5q27 -59 -4.5 -117.5t-92 -92.5t-118.5 -34q-87 0 -140.5 57t-53.5 126q0 54 26.5 94t71 60.5t92.5 30t102 9.5q38 0 128 -7t135 -7
q102 0 162.5 31.5t66.5 113.5q2 41 -8 82t-40 76.5t-75 42.5q-71 10 -137 -27.5t-64 -105.5q0 -35 27 -60.5t61 -25.5q20 0 33.5 9.5t18 18t11 28l7.5 22.5l123 -2q-1 -68 -49.5 -103.5t-118.5 -35.5q-77 0 -137 39t-60 102q0 90 86.5 156.5t176.5 66.5q108 0 177.5 -90
t69.5 -201q0 -115 -83.5 -175t-229.5 -60q-12 -119 -62 -215t-126 -156t-169.5 -91.5t-195.5 -31.5q-72 0 -139 14.5t-128.5 46t-107.5 77t-73 112.5t-27 147z" />
    <glyph glyph-name="quotesingle" unicode="'" horiz-adv-x="296" 
d="M73 1309l154 -2q-2 -9 -10.5 -46.5t-10.5 -50.5t-8 -45.5t-6 -50v-44.5t5 -49t13 -44q-14 0 -59 3t-59 3q29 126 -19 326z" />
    <glyph glyph-name="parenleft" unicode="(" horiz-adv-x="578" 
d="M509 -250q-93 24 -169 95t-123.5 163.5t-80 203.5t-46 211t-13.5 191t13.5 191.5t46 211.5t80 203.5t123.5 163.5t169 95l6 -117q-21 6 -41 6q-66 0 -120.5 -67.5t-88.5 -177.5t-52.5 -242t-18.5 -267t18.5 -267t52.5 -241.5t89 -177t121 -67.5q19 0 40 6z" />
    <glyph glyph-name="parenright" unicode=")" horiz-adv-x="578" 
d="M83 -250l-6 117q25 -7 42 -7q73 0 135 88q36 53 63 127q82 229 82 539q0 314 -82 540q-27 74 -62.5 126t-71.5 70q-36 19 -64 19q-17 0 -42 -7l6 117q93 -24 169 -95t123.5 -163.5t80 -203.5t46 -211.5t13.5 -191.5t-13.5 -191t-46 -211t-80 -203.5t-123.5 -163.5
t-169 -95z" />
    <glyph glyph-name="asterisk" unicode="*" horiz-adv-x="877" 
d="M343 930q-112 70 -317 94q24 59 37 113q205 -114 311 -129q13 54 13.5 115t-4.5 102.5t-17 117.5q3 0 16 -0.5t36.5 -1t51.5 -0.5h13q-33 -161 -35 -220q-3 -59 8 -115q123 10 318 110q-2 -9 14 -58.5t20 -51.5q-229 -25 -327 -80q56 -127 204 -264q-22 -10 -100 -64
q-92 206 -174 283q-94 -78 -188 -271q-53 48 -95 66q175 160 215 254z" />
    <glyph glyph-name="plus" unicode="+" 
d="M63 504l-4 110q205 -16 350 -16q0 141 -16 340l110 4q-16 -202 -16 -344q101 0 334 14q4 -35 4 -110q-214 14 -338 18q0 -102 14 -340q-35 -4 -110 -4q13 156 18 344q-142 0 -346 -16z" />
    <glyph glyph-name="comma" unicode="," horiz-adv-x="367" 
d="M75 72l5 9q39 87 87 87q49 0 72 -31q51 -18 89 -68.5t38 -97.5q0 -107 -59.5 -186t-153.5 -66q3 39 3 61q0 47 3 62q2 0 13.5 -5t25.5 -9t26 -4t23 6q25 16 37 55.5t1 80t-46 54.5q-18 -15 -36 -18q-17 -2 -19 -2q-43 0 -76 19t-33 53z" />
    <glyph glyph-name="hyphen" unicode="-" 
d="M63 504l-4 110q205 -16 380 -16q164 0 382 14q4 -35 4 -110q-244 19 -380 19q-162 0 -382 -17z" />
    <glyph glyph-name="hyphen" unicode="&#xad;" 
d="M63 504l-4 110q205 -16 380 -16q164 0 382 14q4 -35 4 -110q-244 19 -380 19q-162 0 -382 -17z" />
    <glyph glyph-name="period" unicode="." horiz-adv-x="367" 
d="M75 74q1 -2 4 3q23 45 27 52q28 39 61 39q6 0 13.5 -0.5t23.5 -6t27.5 -14.5t21 -28t9.5 -45q0 -21 -8.5 -36.5t-18 -22.5t-23.5 -10.5t-19 -4t-9 -0.5q-43 0 -76 19t-33 55z" />
    <glyph glyph-name="slash" unicode="/" horiz-adv-x="843" 
d="M26 -74q407 719 713 1483q15 -8 121 -57q-395 -738 -715 -1483z" />
    <glyph glyph-name="zero" unicode="0" horiz-adv-x="829" 
d="M70 705q0 259 74 509l118 -47q-45 -91 -68 -230.5t-23 -288.5q0 -169 28 -294q12 -45 20.5 -73.5t26.5 -73t37 -71.5t49.5 -48.5t66.5 -23.5q72 1 123 80.5t73 197.5t22 259q0 194 -38 356.5t-100 210.5q-27 21 -50 21q-33 0 -59.5 -35.5t-39.5 -82t-13 -90.5
q0 -39 10 -56v1q8 -11 18 -11q26 0 52 69.5t36 131.5q21 -13 75 -88q22 -30 29 -39q-2 -3 -8 -11.5t-8 -12.5q-8 -14 -15.5 -24.5t-11 -15t-20 -23t-25.5 -28.5l1 1q-34 -43 -91 -43q-40 0 -73 22.5t-45 63.5q-6 19 -6 52q0 77 33 166t80 115q46 28 96 28q81 0 145 -71
t96 -159q59 -175 59 -409q0 -232 -65 -419q-29 -79 -85.5 -140t-134.5 -88q-29 -10 -61 -10q-49 0 -92.5 26.5t-75.5 71.5t-54.5 88.5t-39.5 92.5q-66 195 -66 443z" />
    <glyph glyph-name="one" unicode="1" horiz-adv-x="554" 
d="M45 1061q0 62 41 115.5t101 75.5l29 -77q-34 0 -60.5 -36.5t-26.5 -75.5q0 -20 10.5 -32.5t30.5 -13.5q31 5 55.5 29t40 64.5t25.5 78.5t18 88h157q-40 -348 -40 -758q0 -283 17 -526h-175q40 366 40 1050q-59 -107 -146 -107q-50 0 -83.5 33.5t-33.5 91.5z" />
    <glyph glyph-name="two" unicode="2" horiz-adv-x="1029" 
d="M98 -15q-27 4 -27 37q0 20 8.5 40t22.5 29q224 105 317 163q73 44 122 87q276 239 276 542q0 136 -89 223.5t-204 87.5q-109 0 -187.5 -76.5t-78.5 -196.5q0 -82 54.5 -143.5t132.5 -61.5q21 0 47.5 11.5t52.5 32t44 54.5t18 72q0 39 -23.5 66t-71.5 31q4 21 29.5 57
t29.5 53q66 -6 114.5 -63t52.5 -123q0 -120 -92.5 -194t-215.5 -74q-119 0 -218.5 89.5t-99.5 209.5q0 80 56.5 154t132.5 120q111 65 243 65q104 -2 195.5 -43.5t151.5 -123.5t60 -188q0 -107 -38.5 -213.5t-106 -198t-146 -167.5t-169.5 -140q-38 -27 -66.5 -41.5
t-62.5 -27.5t-58 -25q384 0 610 36l-9 -169q-258 29 -459 29q-187 0 -348 -20z" />
    <glyph glyph-name="three" unicode="3" horiz-adv-x="896" 
d="M66 233q0 49 43.5 87t101 56t112.5 18q56 0 116 -38t85 -93.5t-15 -118.5q-17 10 -71.5 22t-71.5 22q36 44 10 84.5t-83 40.5q-56 0 -103 -31.5t-47 -76.5q0 -35 23.5 -62t59.5 -41.5t73.5 -21.5t71.5 -7q66 0 122 22.5t90.5 56.5t54 72.5t19.5 72.5q0 67 -40 119.5
t-96.5 85.5t-113 60.5t-96.5 59.5t-40 68t37.5 61t90.5 42t106.5 38.5t91 64t37.5 104.5q0 74 -66.5 132t-145.5 58q-82 0 -138.5 -41.5t-64.5 -130.5l-134 55q79 203 371 203q134 -2 225 -78t91 -206q0 -52 -35 -96t-85 -72t-100.5 -50t-87 -42t-38.5 -37q-3 -24 16 -47
t52 -44t73.5 -43t82 -49t75.5 -57t55.5 -71t21.5 -87q0 -79 -32.5 -140.5t-87.5 -98t-121.5 -55t-140.5 -18.5q-79 0 -139 11t-111 37.5t-77.5 76.5t-26.5 123z" />
    <glyph glyph-name="four" unicode="4" horiz-adv-x="967" 
d="M81 1053q0 96 59.5 164t150.5 68q75 0 128.5 -56t57.5 -135q0 -280 -203 -600q127 -19 258 -19h50q15 0 51 2q2 56 2 83v84q0 254 -20 586h158q-29 -383 -29 -741q94 13 166 25l4 -139q-25 2 -81.5 6.5t-86.5 6.5q5 -185 14 -395l-152 -2q11 111 23 401q-106 2 -157 2
q-170 0 -286 -10q-22 3 -32 20.5t-4 38.5q158 230 205 492q5 48 3 109.5t-25 115t-58 53.5q-56 0 -99 -77q-35 -62 -29 -106q2 -22 18 -22q11 0 36.5 48t29.5 71q55 -49 92 -72q-85 -127 -161 -127q-40 0 -61.5 35.5t-21.5 89.5z" />
    <glyph glyph-name="five" unicode="5" horiz-adv-x="1070" 
d="M248 45q-249 136 -130 398q27 59 76 90.5t105 31.5q93 0 171.5 -67.5t84.5 -165.5q-13 -8 -69.5 -17t-72.5 -17q-5 42 -10 66t-15 56t-27 47t-41 15q-36 0 -62.5 -32.5t-36.5 -71t-10 -72.5q0 -107 77.5 -175t202.5 -68q137 0 236 75.5t99 203.5q0 181 -103.5 305
t-258.5 124q-85 0 -213 -63q-68 -34 -82 -34q-37 0 -40 43l80 507q19 47 41 55q159 -25 319 -25q127 0 263 17l8 -7q0 -5 -1.5 -45.5t-1.5 -64.5q0 -16 2 -36q-25 2 -90.5 11t-125 14.5t-109.5 5.5q-115 0 -220 -29q-4 -33 -36.5 -171.5t-36.5 -165.5q53 27 128.5 43.5
t145.5 16.5q118 0 229 -73.5t179 -189.5t68 -236q0 -81 -42 -150.5t-111 -114t-155.5 -69.5t-177.5 -25q-125 0 -237 60z" />
    <glyph glyph-name="six" unicode="6" horiz-adv-x="959" 
d="M81 547q0 181 54 332t166.5 267t274.5 176l81 -123q-82 -23 -159.5 -65t-145 -101t-115 -139.5t-61.5 -171.5q-9 -56 -12.5 -107t-1 -110.5t13.5 -109t35.5 -97t61.5 -79.5t95 -52t133 -20q131 0 210.5 84t79.5 193q8 92 -78 182t-192 90q-71 0 -121 -42t-50 -98
q0 -62 69 -118q-4 -3 -55.5 -49.5t-64.5 -55.5q-90 96 -90 206q0 108 80 187.5t200 79.5q73 0 135.5 -24.5t105.5 -65.5t73.5 -94.5t45 -110.5t14.5 -114q0 -105 -41 -195t-127 -149.5t-202 -59.5q-90 0 -162 32t-118 85.5t-76.5 126t-43 149.5t-12.5 161z" />
    <glyph glyph-name="seven" unicode="7" horiz-adv-x="945" 
d="M228 851q-56 0 -107.5 59.5t-51.5 167.5q0 76 30.5 130t89.5 54h12q204 -23 418 -23q136 0 235 11q20 0 34.5 -28t14.5 -56q0 -6 -2 -13.5t-6.5 -17.5t-8.5 -18.5t-12.5 -21.5t-14.5 -22t-17.5 -25t-18.5 -25.5t-20.5 -28.5t-20.5 -28q-66 -91 -107.5 -151.5t-107 -169
t-104 -195t-68.5 -195t-30 -203.5q0 -35 3 -63l-164 4q3 101 30.5 206t66 192t99 187.5t112 172.5t123.5 166q115 150 159 212q-113 30 -279 30q-154 0 -310 -25q-20 -3 -34.5 -24.5t-14.5 -56.5q0 -52 18.5 -95t48.5 -32q25 17 32 48t7 80q0 29 4 52q14 -3 68.5 -11
t66.5 -10q-11 -88 -60 -161t-113 -73z" />
    <glyph glyph-name="eight" unicode="8" horiz-adv-x="874" 
d="M69 316q0 82 33 161t97.5 133t144.5 54q59 0 119.5 -32t104.5 -78.5t72 -100.5t28 -97q0 -84 -63 -138t-151 -54q-70 0 -122.5 44t-52.5 122q0 44 18 86t49 68q10 -13 51 -33.5t54 -37.5q-75 -75 -75 -116q0 -48 70 -48q68 0 101.5 31t33.5 75q0 83 -78 155.5t-160 72.5
q-69 0 -118.5 -65.5t-49.5 -165.5q0 -116 85.5 -187.5t196.5 -71.5q106 0 179.5 77.5t73.5 184.5q0 50 -18.5 95t-46.5 79t-71 67t-82.5 55.5t-91.5 47.5q-50 25 -84.5 43.5t-80.5 50t-74 62t-48 72.5t-20 87q0 71 52.5 134.5t128.5 99t151 35.5q125 0 220 -69t95 -183
q0 -88 -46.5 -157t-121.5 -115l-69 87q69 45 97.5 77.5t28.5 86.5q0 97 -57 144t-145 47q-86 0 -150 -46.5t-64 -108.5q0 -47 35 -82.5t124 -87.5q48 -28 77 -45t79.5 -51.5t82.5 -62t71.5 -69.5t62.5 -81.5t39 -90t16 -102.5q6 -99 -45 -187.5t-139 -141t-187 -52.5
q-88 0 -170.5 41.5t-136 117t-53.5 164.5z" />
    <glyph glyph-name="nine" unicode="9" horiz-adv-x="941" 
d="M455 508q-73 0 -135.5 24.5t-105.5 65.5t-73.5 94.5t-45 110.5t-14.5 114q0 105 41 195t127 149.5t202 59.5q90 0 162 -32t118 -85.5t76.5 -126t43 -149.5t12.5 -161q0 -181 -54 -332t-166.5 -267t-274.5 -176l-81 123q82 23 159.5 65t145 101t115 139.5t61.5 171.5
q8 58 11.5 107.5t1 110.5t-13 109.5t-35 96t-61 79.5t-95 52t-133.5 20q-131 0 -210.5 -84t-79.5 -193q-8 -92 78 -182t192 -90q71 0 121 42t50 98q0 62 -69 118q4 3 55.5 49.5t64.5 55.5q90 -96 90 -206q0 -109 -80 -188t-200 -79z" />
    <glyph glyph-name="colon" unicode=":" horiz-adv-x="369" 
d="M92 74q1 -2 4 3q23 46 29 54q27 37 59 37q6 0 13 -0.5t23 -6t27.5 -14.5t21 -28t9.5 -45q0 -21 -8.5 -36.5t-18 -22.5t-23.5 -10.5t-19 -4t-9 -0.5q-43 0 -75.5 19t-32.5 55zM188 584q-44 0 -76.5 18t-32.5 55q1 -2 4 3q23 46 27 51q28 41 61 41q9 0 19 -2t29.5 -9.5
t32 -29t12.5 -54.5q0 -20 -8 -35t-17.5 -22t-22.5 -11t-18.5 -4.5t-9.5 -0.5z" />
    <glyph glyph-name="semicolon" unicode=";" horiz-adv-x="412" 
d="M100 70q16 96 92 96q49 0 72 -31q51 -18 89 -68.5t38 -97.5q0 -107 -59.5 -186t-153.5 -66q3 39 3 61q0 47 3 62q2 0 13.5 -5t25.5 -9t26 -4q13 0 23 6q24 16 36 55.5t1 80t-45 54.5q-12 -11 -37 -18q-11 -3 -19 -2q-44 0 -76 18t-32 54zM79 657q1 -2 4 3q23 46 27 51
q28 41 61 41q9 0 19 -2t29.5 -9.5t32 -29t12.5 -54.5q0 -20 -8 -35t-17.5 -22t-22.5 -11t-18.5 -4.5t-9.5 -0.5q-44 0 -76.5 18t-32.5 55z" />
    <glyph glyph-name="semicolon" unicode="&#x37e;" horiz-adv-x="412" 
d="M100 70q16 96 92 96q49 0 72 -31q51 -18 89 -68.5t38 -97.5q0 -107 -59.5 -186t-153.5 -66q3 39 3 61q0 47 3 62q2 0 13.5 -5t25.5 -9t26 -4q13 0 23 6q24 16 36 55.5t1 80t-45 54.5q-12 -11 -37 -18q-11 -3 -19 -2q-44 0 -76 18t-32 54zM79 657q1 -2 4 3q23 46 27 51
q28 41 61 41q9 0 19 -2t29.5 -9.5t32 -29t12.5 -54.5q0 -20 -8 -35t-17.5 -22t-22.5 -11t-18.5 -4.5t-9.5 -0.5q-44 0 -76.5 18t-32.5 55z" />
    <glyph glyph-name="less" unicode="&#x3c;" horiz-adv-x="1109" 
d="M65 614q0 20 -8 58q120 42 255 101.5t227.5 106t237.5 121t216 109.5l63 -121q-511 -179 -895 -377q429 -215 895 -374l-63 -121q-55 27 -269 138.5t-363.5 180.5t-303.5 123q8 37 8 55z" />
    <glyph glyph-name="equal" unicode="=" horiz-adv-x="1033" 
d="M63 369l-4 110q241 -17 464 -17q204 0 464 15q4 -35 4 -110q-255 19 -482 19q-233 0 -446 -17zM55 862q241 -17 464 -17q205 0 463 15q5 -43 5 -110q-255 19 -482 19q-233 0 -446 -17z" />
    <glyph glyph-name="greater" unicode="&#x3e;" horiz-adv-x="1117" 
d="M48 989l64 121q70 -34 215.5 -109t238 -121.5t228 -106t254.5 -101.5q-9 -31 -9 -58q0 -14 9 -55q-154 -54 -305 -123.5t-361 -179t-270 -139.5l-64 121q471 160 895 374q-379 196 -895 377z" />
    <glyph glyph-name="question" unicode="?" horiz-adv-x="1076" 
d="M350 813q-115 0 -169.5 58t-54.5 145q0 139 107 234.5t256 97.5q101 2 186.5 -39t138 -122t52.5 -188q0 -60 -24.5 -110t-64.5 -88t-82.5 -72t-88 -78.5t-72.5 -89.5q-21 -35 -2 -282l2 -29l-98 4q0 30 -3 90.5t-2.5 97.5t6 85.5t25.5 88.5t53 74q18 18 54 51t58.5 55.5
t48 54.5t38.5 67.5t14 74.5q2 113 -61.5 195t-165.5 82q-111 0 -178.5 -69t-67.5 -177q0 -46 28.5 -85.5t84.5 -39.5q59 0 98 19.5t39 62.5q0 27 -24.5 48.5t-47 30.5t-42.5 13q-4 1 9.5 19t34 42.5t25.5 32.5q66 -13 102 -73.5t27 -114.5q-15 -79 -83.5 -122.5
t-155.5 -43.5zM393 74q4 27 27.5 60.5t64.5 33.5q6 0 13 -0.5t23 -6t27.5 -14.5t21 -28t9.5 -45q0 -21 -8.5 -36.5t-18 -22.5t-23.5 -10.5t-19 -4t-9 -0.5q-43 0 -75.5 19t-32.5 55z" />
    <glyph glyph-name="at" unicode="@" horiz-adv-x="1583" 
d="M110 614q0 198 81.5 355.5t235.5 248t355 89.5q130 0 244 -36.5t199.5 -100.5t147 -153.5t90.5 -194t24.5 -224t-44.5 -240.5q-53 -158 -207 -158q-60 0 -125 21t-98 60q-51 -40 -119.5 -62t-134.5 -22q-88 0 -156.5 25.5t-103 66t-50 90t1.5 99t52.5 90t102.5 66
t151 25.5q110 0 254 -63q10 47 10 90q0 131 -79.5 206t-198.5 75q-15 0 -35 -1.5t-56.5 -8.5t-65.5 -19t-52.5 -36.5t-26.5 -57.5q-3 -28 20 -28q17 0 39 15.5t35 36.5q12 0 36.5 -8t54 -19.5t43.5 -15.5q-15 -52 -60 -80t-99 -28q-60 0 -103.5 33.5t-43.5 93.5
q0 64 50.5 112.5t119 69.5t138.5 21q171 0 286 -98t115 -259q0 -24 -16.5 -115t-16.5 -147q0 -132 64 -143q34 -7 62 -7q53 0 78 29t54 103q36 94 43 191.5t-13.5 188t-72 170t-126.5 138.5t-184 93t-239 34q-73 0 -144 -16.5t-146 -59.5t-131.5 -108.5t-94 -173.5
t-39.5 -244q-3 -143 56 -267t157 -207t224.5 -130t259.5 -47q143 0 274.5 55.5t231.5 167.5q1 -1 61 -52q-120 -130 -277 -195.5t-325 -65.5q-118 0 -230.5 31.5t-209.5 94t-170.5 149t-115.5 204.5t-42 253zM747 580q-82 0 -130.5 -72t-9 -145.5t170.5 -77.5q134 -6 202 65
q-2 10 -2 15v16q0 31 17 131q-153 68 -248 68z" />
    <glyph glyph-name="A" unicode="A" horiz-adv-x="1185" 
d="M214 0h-168q15 37 33.5 120.5t35.5 184t41.5 222t51 237t64.5 225.5t81.5 192.5t102.5 132.5t127 50q58 0 110.5 -37t92.5 -96.5t77.5 -148.5t64 -176t54 -198t45 -196.5t38.5 -189t34 -158.5q5 -19 20.5 -74.5t22.5 -89.5h-167q-2 72 -23 154t-59.5 159t-87.5 137.5
t-113 92.5t-131 22q-92 -13 -155 -79.5t-52 -157.5q6 -43 29.5 -64.5t55.5 -21.5q55 0 96 46.5t23 108.5q15 1 62.5 -13t60.5 -11q22 -102 -51 -165t-170 -63q-135 0 -175 102q-35 87 12 200q46 111 137 165q54 32 112 35q40 2 85.5 -5t117.5 -40.5t133 -91.5
q-10 37 -34.5 147t-48 201.5t-56 190.5t-74 157.5t-86.5 59.5q-76 1 -143 -109t-110 -273.5t-72.5 -343t-40 -326t-3.5 -214.5z" />
    <glyph glyph-name="B" unicode="B" horiz-adv-x="1158" 
d="M87 -4q13 186 21 325t15 324t3.5 359.5t-16.5 330.5q27 -1 87.5 2.5t86.5 1.5q0 -2 -1 -5t-1 -5q106 23 217 23q80 0 152 -12.5t137.5 -41t113 -70.5t74.5 -105.5t25 -141.5q-2 -58 -22 -101t-59.5 -72.5t-77.5 -47.5t-99 -39q-41 -14 -86 -27q66 -15 125.5 -37
t116 -55.5t97 -74.5t64.5 -96t23 -118q-4 -172 -104 -270t-275 -98q-58 0 -125.5 18.5t-129 51.5t-102 84.5t-40.5 109.5q0 110 76 191t178 81q55 0 109 -30t87 -77.5t37.5 -106.5t-39.5 -117q-9 9 -67 24.5t-66 26.5q26 24 31.5 59.5t-5.5 65.5t-32.5 51.5t-44.5 21.5
q-78 0 -115 -59t-24 -139q7 -50 35.5 -86t69 -55t82 -27t85.5 -8q126 0 190.5 78.5t36.5 209.5q-12 59 -38.5 107.5t-66.5 83.5t-84 61t-100.5 45t-105.5 30.5t-109 21.5q-36 6 -36 40q0 31 32 41q401 47 410 252q4 77 -18 132t-65 85t-94.5 43.5t-116.5 13.5
q-113 0 -267 -40q-31 -316 -29 -629.5t33 -599.5q-14 0 -95 -2t-94 -2z" />
    <glyph glyph-name="C" unicode="C" horiz-adv-x="1236" 
d="M649 -39q-37 -5 -64 -5q-118 0 -217.5 63t-162 163t-97.5 217t-35 232q0 96 22.5 195t70 193t113.5 168t161 118.5t204 44.5q87 0 173.5 -29.5t153.5 -78.5t109 -118.5t42 -144.5q0 -103 -88 -156t-224 -53q-44 0 -92 5t-104 17t-91 38t-34 63q1 53 31.5 102.5t65.5 79
t91 68.5l76 -119q-73 -34 -101.5 -67t-14.5 -56t58.5 -37t110.5 -14q176 0 217 121q-2 91 -59.5 160.5t-142.5 103t-181 33.5q-90 0 -162.5 -43t-116.5 -109t-73.5 -152t-41 -165.5t-11.5 -155.5q0 -56 3.5 -107t14 -113.5t28 -115t48 -103.5t70.5 -86.5t98.5 -57
t130.5 -21.5q86 0 152.5 27t106 67t67 100t39 112.5t18.5 117.5q14 0 76 -7t76 -7q4 -142 -69 -258.5t-192.5 -177t-252.5 -52.5z" />
    <glyph glyph-name="D" unicode="D" horiz-adv-x="1230" 
d="M87 -4q13 186 21 325t15 324t3.5 359.5t-16.5 330.5q27 -1 87.5 2.5t86.5 1.5q-39 -301 -40.5 -637t32.5 -620q53 -5 95 -5q99 0 189.5 23.5t168 70.5t133.5 125.5t79 180.5q18 75 21.5 168.5t-10.5 196t-44.5 194.5t-88 166t-134.5 107q-72 30 -142 30q-40 0 -71 -10.5
t-53.5 -34.5t-25.5 -63.5t14 -97.5q43 -60 90 -60q20 0 44.5 12t41.5 25t50 40.5t48 39.5q85 -111 88 -115q-37 -26 -54 -37.5t-50 -30.5t-62.5 -27t-59.5 -8q-19 0 -44 5q-120 31 -166 125t10 207q49 93 216 93q133 0 225 -46q91 -48 159.5 -128.5t106.5 -174.5
t56.5 -198.5t14.5 -204t-26 -187.5t-88.5 -172.5t-168.5 -154t-249.5 -108t-312.5 -28.5q-14 0 -95 -2t-94 -2z" />
    <glyph glyph-name="E" unicode="E" horiz-adv-x="1121" 
d="M85 1339q70 -33 201 -33q59 0 190.5 9t195.5 9q126 0 212.5 -27.5t130.5 -100.5q32 -53 32 -93q0 -79 -81.5 -134.5t-202.5 -77.5q-81 -15 -155 -15q-199 0 -199 119q0 61 52 119t112 64q2 -13 21.5 -66.5t21.5 -67.5q-43 10 -87 -13q-43 -22 -24 -49q5 -7 15 -13
q34 -12 93 -12q74 0 145 17.5t118 59t31 96.5q-33 102 -228 102q-66 0 -191.5 -14t-165.5 -14q-33 0 -54 6l-27 -530q101 -14 195 -14q44 0 95.5 3.5t83.5 7t99.5 12t95.5 11.5q4 -20 8.5 -58.5t8.5 -57.5q-168 6 -299 6q-121 0 -287 -8q7 -265 27 -473q139 -28 281 -28
q129 0 403 36q4 -19 8.5 -58t7.5 -59q-89 6 -216 6q-63 0 -323 -7t-321 1q13 156 16.5 330.5t-3.5 359.5t-15 324t-21 325z" />
    <glyph glyph-name="F" unicode="F" horiz-adv-x="1101" 
d="M85 1339q70 -33 201 -33q59 0 190.5 9t195.5 9q125 0 211.5 -28t131.5 -100q42 -64 31.5 -115.5t-53 -90t-109 -64t-137 -38t-137.5 -12.5q-201 0 -201 119q0 61 52 119t112 64q2 -13 21.5 -67.5t21.5 -66.5q-47 8 -91 -15t-18 -50q5 -5 13 -10q36 -12 93 -12
q54 0 108.5 11t101 31t71 54.5t13.5 76.5q-35 101 -224 101q-65 0 -189.5 -14t-165.5 -14q-39 0 -60 7l-27 -530q102 -15 202 -15q30 0 62 1.5t55.5 3.5t62.5 6t56.5 6.5t66 9t64.5 8.5q4 -20 8.5 -58.5t8.5 -57.5q-218 6 -295 6q-118 0 -291 -8q8 -261 35 -582h-168
q14 157 18 324.5t-5 375t-14.5 307.5t-21.5 332z" />
    <glyph glyph-name="G" unicode="G" horiz-adv-x="1271" 
d="M653 -43q-103 0 -195.5 39.5t-160.5 108t-118 157.5t-75 191t-25 206q0 97 24.5 194t75 186t120.5 158t168.5 110t211.5 41q122 0 230.5 -57.5t172.5 -149.5t64 -191l-149 -73q-4 179 -84.5 285t-233.5 106q-93 0 -167.5 -37.5t-122 -98t-79.5 -142.5t-45.5 -166.5
t-13.5 -174.5q0 -48 4 -98t16 -111t30.5 -115.5t50 -107t71.5 -90.5t98.5 -61t127.5 -23q170 0 274.5 114.5t112.5 305.5q4 97 -39 143.5t-116 46.5q-75 0 -162.5 -42.5t-149.5 -108.5l-127 112q62 73 164 105.5t206 32.5q63 0 117.5 -10.5t102.5 -33.5t82.5 -58t54 -85.5
t19.5 -113.5q0 -96 -47.5 -188t-123 -158.5t-172.5 -107t-192 -40.5z" />
    <glyph glyph-name="H" unicode="H" horiz-adv-x="1182" 
d="M673 459q18 -108 -39.5 -167.5t-147.5 -59.5q-91 0 -156 59.5t-56 161.5q8 85 58 148t121 92.5t152 29.5q110 0 199.5 -57.5t118.5 -165.5q20 501 -8 827q27 -1 87 2t87 2q-41 -314 -41.5 -681.5t33.5 -657.5q-13 0 -94.5 -2t-94.5 -2q4 60 10 162t9 155
q-29 78 -49 124.5t-49.5 95.5t-60.5 73t-75.5 38t-101.5 11q-77 -5 -147.5 -75.5t-70.5 -147.5q0 -37 25 -75t59 -38q41 0 68.5 51t16.5 117q13 1 73.5 -11t73.5 -9zM92 -4q13 200 20.5 327t14.5 319t3.5 364.5t-16.5 328.5q26 -1 87 2.5t87 1.5q-41 -314 -41.5 -681.5
t33.5 -657.5q-14 0 -94.5 -2t-93.5 -2z" />
    <glyph glyph-name="I" unicode="I" horiz-adv-x="392" 
d="M96 -4q13 200 20.5 327t14.5 319t3.5 364.5t-16.5 328.5q27 -1 87 2.5t87 1.5q-41 -314 -41.5 -681.5t33.5 -657.5q-14 0 -94.5 -2t-93.5 -2z" />
    <glyph glyph-name="J" unicode="J" horiz-adv-x="789" 
d="M333 -453q-36 0 -76 9t-80.5 29.5t-72.5 48.5t-52 69.5t-20 89.5q0 86 75.5 155.5t178.5 69.5q76 0 119 -36.5t47.5 -84.5t-14 -96.5t-54.5 -72.5q-3 3 -116 30q27 27 46 60t17 67t-37 49q-18 9 -37 9q-52 0 -98.5 -50t-46.5 -102q0 -58 42 -99t96.5 -55t101.5 -6
q34 7 62 24.5t48 39.5t35.5 56t25.5 64t16.5 74.5t10 77.5t4.5 82t1 78t-0.5 77t-0.5 68q0 133 -21.5 528.5t-33.5 508.5l176 2q-10 -86 4.5 -560t14.5 -483v-15q0 -65 -1 -106t-7.5 -124t-19 -139t-39.5 -126t-64 -112.5t-96 -71.5t-134 -27z" />
    <glyph glyph-name="K" unicode="K" horiz-adv-x="1037" 
d="M94 -4q13 200 20.5 327t14.5 319t3.5 364.5t-16.5 328.5q26 -1 86.5 2.5t87.5 1.5q-35 -276 -41 -565q46 15 138.5 29t113.5 20q99 32 165 113.5t88.5 184.5t6.5 212h166q2 -123 -46.5 -243.5t-142 -213.5t-210.5 -131q-46 -14 -136 -30t-130 -27q51 -23 173 -27.5
t173 -33.5q70 -37 131 -111.5t102.5 -164t68.5 -179t40 -172.5q-10 -3 -91 -1t-94 1q-74 460 -225 528q-39 18 -142.5 39t-148.5 39q0 -297 33 -606q-14 0 -94.5 -2t-93.5 -2z" />
    <glyph glyph-name="L" unicode="L" horiz-adv-x="1160" 
d="M169 -31q-27 0 -50 42t-19 73q46 522 10 1251q28 0 84.5 -1t85.5 -1q-57 -652 -8 -1239q212 -29 327 -29q106 0 330 29q38 8 53.5 74.5t-7 128t-75.5 55.5q-90 -10 -90 -166q-14 0 -66 9.5t-65 9.5q10 41 32.5 82.5t55 78t77.5 56t93 10.5q55 -11 90 -55t43.5 -101
t0.5 -116t-37.5 -107t-71.5 -67q-137 4 -271 4q-178 0 -522 -21z" />
    <glyph glyph-name="M" unicode="M" horiz-adv-x="1715" 
d="M67 1094q0 95 75 179.5t169 84.5q45 0 79.5 -17.5t55 -47.5t34.5 -71t20 -88.5t9.5 -100t5.5 -103.5v-12q82 430 248 430q70 0 117 -35.5t67.5 -88.5t31 -125t9.5 -135t0 -128.5t7 -96.5q16 136 47 291q36 158 83 238t128 80q74 0 126.5 -39t81 -106.5t45 -156
t21.5 -189.5t7.5 -203.5t6.5 -202t14.5 -182.5t35.5 -147t65 -93q-9 -9 -55.5 -35.5t-56.5 -36.5q-55 33 -90 133.5t-45.5 194t-8.5 168.5q18 794 -164 798q-108 0 -168 -576q-1 -15 -2 -20q-32 -292 -32 -653v-2h-150q-8 105 -11 288.5t-5 339.5t-10 307t-31.5 239
t-63.5 88q-34 0 -63.5 -37t-50.5 -100t-36.5 -128.5t-26 -142t-15.5 -119.5t-8 -80q-40 -368 -25 -651q0 -4 -2 -4h-166q0 20 13.5 173.5t23 327t10.5 354t-26.5 299t-85.5 118.5q-57 0 -106.5 -56t-49.5 -114q0 -41 13 -60.5t32 -19.5t34 17t12.5 45.5t-30.5 54.5l103 63
q34 -30 39.5 -76.5t-12 -88t-53.5 -71.5t-79 -30q-67 0 -104 51.5t-37 106.5z" />
    <glyph glyph-name="N" unicode="N" horiz-adv-x="1147" 
d="M262 4l-189 -4q62 865 23 1339q28 0 87 2t87 2q-12 -83 -25 -239q44 114 130 184t204 68q168 -3 278.5 -84.5t147.5 -214.5q24 -104 19.5 -209t-29 -239t-52 -244.5t-49.5 -226.5t-22 -185q0 -104 41 -188t121 -95q66 -10 89 60q18 57 -3 114q-18 48 -50 43
q-13 -2 -21.5 -17.5t-11 -30t-5 -36t-2.5 -22.5q-14 2 -59 56.5t-58 56.5q6 43 34.5 70.5t79.5 27.5q79 0 134 -63.5t55 -147.5q0 -72 -47.5 -132.5t-128.5 -60.5q-54 0 -100 22t-76.5 59t-55.5 85.5t-37 101.5t-20.5 107t-7 101.5t3.5 85.5q7 66 26.5 162.5t39.5 182
t38 185t26 181t-1.5 159.5t-39.5 130.5t-92.5 84.5t-156.5 31q-81 -1 -145 -46t-102.5 -113.5t-64 -158t-35 -171.5t-9.5 -163q0 -319 31 -610z" />
    <glyph glyph-name="O" unicode="O" horiz-adv-x="1170" 
d="M77 702q-1 57 6 112t14.5 94.5t27.5 90t30.5 75.5t39.5 74t38 62.5t41 63.5l69 -41q-108 -165 -108 -528q0 -131 20.5 -245.5t62.5 -210.5t115.5 -152t170.5 -56q68 0 123.5 28t92 78t62.5 110.5t40 132.5t20 136.5t6 130.5q0 103 -18 205.5t-54.5 196.5t-102 152.5
t-151.5 58.5q-44 0 -101 -79q-62 -85 -70 -159q-8 -76 58 -76q54 0 111 66.5t72 120.5q0 2 -2 8q13 0 62.5 -46t61.5 -46q-1 0 -63 -46.5t-146.5 -93.5t-141.5 -47q-97 0 -97 140q0 39 14.5 92.5t42.5 110t79 95t114 38.5q82 0 152.5 -30t121 -82.5t89 -121t62 -149.5
t35.5 -163.5t13 -166.5q2 -185 -55.5 -337.5t-169.5 -245.5t-258 -93q-110 0 -207.5 55.5t-168 152.5t-111.5 236t-42 299z" />
    <glyph glyph-name="P" unicode="P" horiz-adv-x="1058" 
d="M92 -4q28 212 42 426.5t10.5 457.5t-30.5 455q68 -2 198.5 7.5t188.5 9.5q52 0 94 -2.5t98 -12t99.5 -26t88 -47t74 -71.5t48 -103.5t18.5 -139.5q0 -63 -18.5 -115t-48.5 -88t-73 -63.5t-88 -43.5t-97.5 -26.5t-97 -14t-91.5 -3.5q-112 0 -169.5 73.5t-57.5 180.5
q0 89 40 134.5t114 45.5q93 0 157.5 -53t89.5 -139q-8 -1 -37.5 -7.5t-56 -11.5t-39.5 -6q-5 54 -42.5 91t-78.5 37q-30 0 -48.5 -22.5t-18.5 -68.5q0 -174 178 -174q156 0 248 71t90 209q-1 74 -20.5 129.5t-51.5 90.5t-81 56.5t-103 29.5t-123 8q-80 0 -219 -13
q-33 -322 -31 -641.5t33 -615.5q-14 0 -94.5 -2t-93.5 -2z" />
    <glyph glyph-name="Q" unicode="Q" horiz-adv-x="1212" 
d="M79 702q-1 57 6 112t14.5 94.5t27.5 90t30.5 75.5t39.5 74t38 62.5t41 63.5l69 -41q-108 -172 -108 -528q0 -131 20.5 -245.5t62.5 -210.5t115.5 -152t170.5 -56q111 0 190 76q-56 14 -87.5 23t-77.5 25.5t-68.5 33.5t-42.5 40.5t-17.5 54t23.5 66.5l114 -18
q-3 -53 52 -88t157 -66q53 90 77 217t24 252q0 103 -18 205.5t-54.5 196.5t-102 152.5t-151.5 58.5q-44 0 -101 -79q-62 -85 -70 -159q-8 -76 58 -76q54 0 116 73t65 122q21 -13 64 -47.5t61 -44.5q3 -2 -18.5 -21.5t-59.5 -47t-82.5 -54.5t-95 -46t-88.5 -19
q-105 0 -105 141q0 39 14.5 92.5t42.5 110t79 95t114 38.5q98 0 178.5 -43t133.5 -113.5t90 -164.5t53.5 -192t17.5 -200q0 -284 -131 -477q42 -13 72.5 -24t64 -27t53 -33.5t33.5 -39.5t12 -50t-18 -60q-14 2 -70.5 19.5t-66.5 19.5q13 43 -23 71.5t-112 53.5
q-123 -129 -297 -129q-110 0 -207.5 55.5t-168 152.5t-111.5 236t-42 299z" />
    <glyph glyph-name="R" unicode="R" horiz-adv-x="1152" 
d="M83 -4q13 186 21 325t15 324t3.5 359.5t-16.5 330.5q72 -3 190 10t189 13q469 0 469 -381q0 -71 -23 -125.5t-60.5 -87t-86 -56t-99.5 -34.5t-101.5 -21.5t-91 -17.5t-69 -21.5t-35.5 -35.5q-10 -33 32 -59.5t100.5 -42t121 -39.5t84.5 -50q46 -53 77.5 -178.5
t60.5 -171.5q19 -19 37 -19q33 0 59.5 49t26.5 87q0 62 -16 134.5t-36 72.5q-15 0 -28 -44q-10 11 -47.5 49.5t-55.5 65.5q58 64 96 64q18 0 37 -9q52 -22 91.5 -116t39.5 -201q0 -88 -65 -162t-166 -74q-39 0 -72 25.5t-57.5 69.5t-42 86.5t-35.5 92.5t-29 71
q-22 41 -63 71.5t-82 49.5t-80 40t-63.5 57t-24.5 87q0 22 9 39.5t20.5 28t32.5 19.5t34 12t36.5 8.5t29.5 6.5q45 8 76.5 15t70.5 19t65.5 25.5t53.5 35t43.5 47.5t26.5 61.5t10 79.5q0 163 -80.5 230t-232.5 67q-69 0 -213 -16q-33 -324 -31 -645t33 -617q-14 0 -95 -2
t-94 -2z" />
    <glyph glyph-name="S" unicode="S" horiz-adv-x="1141" 
d="M533 -43q-53 0 -107 7.5t-118.5 30t-113.5 58.5t-82 99t-33 145q0 48 28.5 87t70.5 60.5t83 33t72 11.5q53 0 103 -15t89 -45t51 -74.5t-10 -104.5h-151q16 42 16 71t-15.5 47t-34.5 26t-40 8q-27 0 -51 -5t-50 -17.5t-39 -34.5t-18 -56.5t13 -83.5q85 -165 331 -165
q354 0 354 289q0 83 -53.5 134t-141.5 88q-37 16 -108 38.5t-126.5 40t-121 51.5t-109 74t-73.5 107t-30 152q0 83 36.5 149.5t96.5 107.5t132.5 63.5t149.5 23.5q99 2 193.5 -38.5t166 -123.5t88.5 -190q-14 -3 -79.5 -4t-75.5 -2q0 122 -84 198.5t-229 76.5q-26 0 -60 -9
t-71.5 -28.5t-68.5 -47.5t-51.5 -70t-20.5 -90q0 -198 313 -268q70 -16 126 -33.5t123 -53t112 -80t75.5 -115t30.5 -157.5q0 -95 -43.5 -168t-115.5 -115t-155.5 -62.5t-173.5 -20.5z" />
    <glyph glyph-name="T" unicode="T" horiz-adv-x="1516" 
d="M468 1307q-127 0 -215 -70q-67 -54 -64 -110q3 -59 87 -80q37 -9 88 -9q46 0 69.5 21t5.5 42.5t-73 22.5l141 90q89 -45 77 -115q-10 -59 -84 -101q-65 -37 -148 -37q-63 0 -127 19.5t-112 61.5t-48 97t27.5 100t69.5 72t96 45.5t103 25.5t95 7q81 0 164.5 -25t143.5 -55
t144.5 -55t168.5 -25q153 0 270 112q8 -5 61 -43t66 -45q-155 -132 -319 -132q-50 0 -107 13t-98 27.5t-105 40.5q-66 -581 0 -1202q-13 0 -94 -2t-94 -2q16 233 21 321.5t13 284.5t4.5 352t-16.5 312h4q-123 41 -215 41z" />
    <glyph glyph-name="U" unicode="U" horiz-adv-x="1207" 
d="M57 1061q0 51 32 118t93.5 121t130.5 54q59 0 98 -24t54.5 -65.5t20.5 -87.5t-3.5 -101t-17.5 -94.5t-21 -78.5q-99 -304 -99 -571q0 -294 195 -294q65 0 156 34q208 79 252 366q25 488 -7 887q27 -1 87 2t88 2q-41 -316 -42 -681.5t33 -657.5q-13 0 -93.5 -2t-94.5 -2
q9 131 12 170q-135 -197 -448 -197q-82 0 -140 29.5t-89.5 82t-45.5 114t-14 137.5q0 32 2.5 66.5t5 62t10.5 67.5t11.5 61.5t15.5 66.5t15.5 61t19 66t18.5 60t20 65t19 60q1 4 12 32t18.5 51.5t17.5 58t11 61.5t-3 52t-22.5 39t-49.5 14q-63 0 -118.5 -67t-55.5 -130
q0 -104 36 -104q18 0 33 24.5t12.5 56.5t-28.5 50l113 59q32 -47 28 -95t-28.5 -87t-63 -64t-76.5 -25q-48 0 -79 43t-31 134z" />
    <glyph glyph-name="V" unicode="V" horiz-adv-x="1434" 
d="M77 1141q0 81 46 146t122 65q245 0 366 -540q35 -156 81 -498q27 -204 46 -229q5 -7 11 -5q34 11 86 135.5t107.5 297t111.5 345.5t111.5 303t93.5 148q12 -9 66 -30t63 -26q-51 -3 -100.5 -75.5t-91.5 -187t-83.5 -252t-84 -274.5t-85.5 -250.5t-95.5 -184t-106.5 -70.5
q-51 0 -88.5 56t-61 151t-42.5 211.5t-40.5 245t-47.5 245t-71 217.5t-104 156q-26 23 -49 23q-33 0 -54.5 -40.5t-21.5 -88.5q0 -54 31 -118.5t61 -64.5q8 0 13 4q37 28 -27 99l57 57q60 -64 60 -127q0 -48 -32.5 -83.5t-76.5 -35.5q-48 0 -88.5 47.5t-61 110t-20.5 117.5z
" />
    <glyph glyph-name="W" unicode="W" horiz-adv-x="1692" 
d="M214 911q-77 0 -130.5 60t-53.5 162q0 92 63.5 171.5t145.5 77.5q65 -1 116.5 -19t87 -41.5t60 -69t38.5 -80t18.5 -97.5t5.5 -99t-5.5 -107t-10.5 -98t-14 -94q-5 -33 -7 -48q-33 -256 -33 -346q0 -186 89 -230q26 -13 60 -16q62 -5 110 74.5t74.5 205.5t42.5 277.5
t18.5 290t-2 243t-15.5 138.5l166 2q-11 -37 -18.5 -123t-7 -201.5t8.5 -242t31.5 -247t57.5 -215t91 -147t128 -41.5q65 11 104 98.5t39 169.5q0 87 -19 186.5t-41.5 175.5t-41.5 176.5t-19 189.5q0 247 188 303l95 -111q-88 -32 -127 -84.5t-39 -132.5q0 -128 54 -384
t54 -374q0 -128 -85.5 -216.5t-235.5 -88.5q-50 0 -90 12t-68.5 30.5t-52 52t-38 65.5t-27 82t-19.5 89.5t-16 100.5q-74 -432 -289 -432q-62 0 -111.5 15t-82.5 39.5t-56 62.5t-35 75.5t-17 88.5t-4 91.5t6.5 93.5t11 86.5t13.5 79t11 62.5q6 40 18 99t20.5 100t13.5 96
t1 98.5t-23 93.5t-53 95q-37 47 -94 47t-105.5 -42.5t-48.5 -94.5q0 -40 10 -71t25 -47.5t30 -23t27 -2.5q68 25 -14 101q89 53 127 69q41 -30 53 -75.5t-3.5 -86t-58.5 -69.5t-102 -29z" />
    <glyph glyph-name="X" unicode="X" horiz-adv-x="1342" 
d="M73 1100q0 58 18.5 112t62 95t103.5 43q38 1 74.5 -14.5t66.5 -40t62.5 -65.5t57 -80.5t55 -96.5t52.5 -102.5t53 -109.5t53 -106q82 145 132 230t127 204.5t144 206.5q9 -11 66.5 -64t66.5 -63q-51 -20 -111 -76t-125.5 -144t-124.5 -178t-132 -212q52 -111 99 -193.5
t102 -154.5t114.5 -109.5t120.5 -37.5q32 0 63 10l-49 -179q-72 -4 -137 24.5t-108.5 63t-102.5 120t-87.5 135.5t-92.5 169q-3 5 -4 7q-241 -410 -396 -594l-96 118q124 107 229.5 246t217.5 322q-40 80 -95.5 198t-91 191t-76 147.5t-75 109.5t-64.5 34
q-26 -1 -44.5 -19.5t-27.5 -47t-12.5 -53.5t-3.5 -50q0 -41 16.5 -66t40.5 -25q20 0 39 19t33 57l94 -57q-22 -83 -51.5 -120.5t-87.5 -37.5q-42 0 -74 17.5t-49.5 42.5t-28 59t-13.5 61t-3 54z" />
    <glyph glyph-name="Y" unicode="Y" horiz-adv-x="1295" 
d="M49 1114q0 58 18.5 112t62 95t103.5 43q38 1 75 -14t67.5 -38.5t64 -64.5t58.5 -78t57 -95.5t53 -100t54.5 -108t53.5 -105.5q18 30 73.5 127.5t81 141t71.5 118t85.5 132.5t81.5 112q10 -12 71 -68.5t63 -58.5q-103 -41 -240 -222t-246 -409q0 -349 33 -629
q-14 0 -95 -2t-94 -2q25 352 33 590q-40 78 -97 198t-93.5 194t-79 150.5t-78 112.5t-65.5 35q-26 -1 -45 -19.5t-28 -47t-12.5 -53.5t-3.5 -50q0 -41 16.5 -65.5t40.5 -24.5q20 0 39.5 19t33.5 57l94 -58q-22 -83 -52 -120t-88 -37q-52 0 -88 24.5t-52 65t-21.5 74
t-5.5 69.5z" />
    <glyph glyph-name="Z" unicode="Z" horiz-adv-x="1162" 
d="M87 1139q0 82 43 143.5t119 63.5q192 -17 361 -17q155 0 368 12q22 -2 38 -18.5t16 -38.5q0 -8 -5 -20q-127 -182 -244 -372t-258 -434t-223 -378q76 0 207 -8.5t197 -8.5q108 0 219 21q68 15 68 98q0 77 -47 103q-48 -15 -60 -103l-117 37q6 53 63 100.5t124 47.5
q53 0 86 -59t33 -128q0 -80 -43 -139t-115 -59q-67 0 -203.5 10t-208.5 10q-178 0 -334 -20q-19 3 -31 20.5t-12 38.5v8q0 2 2 8q67 108 230 368.5t272 439t217 366.5q-82 0 -221 16.5t-207 16.5q-33 0 -52 -0.5t-54 -4t-56.5 -11.5t-45 -21t-35 -35.5t-11.5 -52.5
q0 -31 12.5 -60.5t36.5 -38.5q46 15 58 97q12 -2 64.5 -27t66.5 -27q-13 -45 -48 -74t-72 -38.5t-77 -9.5q-52 0 -86.5 51t-34.5 127z" />
    <glyph glyph-name="bracketleft" unicode="[" horiz-adv-x="546" 
d="M77 -322q31 799 -4 1756q90 -15 186 -15q100 0 228 19q4 -36 4 -127q-116 30 -281 24q-17 -389 -17 -788q0 -434 21 -770q165 -6 281 24q0 -91 -4 -127q-128 19 -228 19q-96 0 -186 -15z" />
    <glyph glyph-name="backslash" unicode="\" horiz-adv-x="843" 
d="M739 -131q-308 716 -715 1483q9 5 58.5 27.5t62.5 29.5q308 -770 712 -1483z" />
    <glyph glyph-name="bracketright" unicode="]" horiz-adv-x="525" 
d="M42 -199q116 -30 281 -24q44 724 4 1558q-164 6 -281 -24q0 82 5 127q128 -19 228 -19q96 0 185 15q-35 -957 -4 -1756q-89 15 -185 15q-101 0 -229 -19q-4 36 -4 127z" />
    <glyph glyph-name="asciicircum" unicode="^" horiz-adv-x="843" 
d="M24 758q142 267 334 651v2h96q192 -384 334 -651q-85 -37 -121 -58q-117 294 -262 607q-128 -279 -260 -609q-6 3 -121 58z" />
    <glyph glyph-name="underscore" unicode="_" horiz-adv-x="1113" 
d="M53 -295l-4 111q220 -17 510 -17q253 0 511 15q5 -45 5 -111q-255 19 -532 19t-490 -17z" />
    <glyph glyph-name="grave" unicode="`" horiz-adv-x="443" 
d="M89 1253l103 113q57 -87 108 -144.5t115 -95.5q-10 -10 -40.5 -46.5t-37.5 -43.5q-8 16 -17.5 31.5t-23 30.5t-23 25.5t-29 25.5t-28 22t-32 22.5t-30 19.5t-34 20.5t-31.5 19.5z" />
    <glyph glyph-name="a" unicode="a" horiz-adv-x="939" 
d="M421 -53q-69 0 -126.5 16t-94 42.5t-61.5 61.5t-30 73.5t1 76.5t32 73t62.5 61.5t92.5 42.5t122 16q108 0 254 -64q10 47 10 90q0 131 -79.5 206t-199.5 75q-15 0 -35 -1.5t-56.5 -8.5t-65 -19t-52 -36.5t-26.5 -57.5q-3 -27 20 -27q17 0 38.5 14.5t35.5 36.5
q12 0 36.5 -8t54 -19.5t42.5 -15.5q-15 -52 -59.5 -80t-98.5 -28q-60 0 -103.5 33.5t-43.5 93.5q0 64 50.5 112.5t118.5 69.5t138 21q172 0 287 -98t115 -259q0 -24 -16.5 -114t-16.5 -148q0 -79 82 -100l-37 -117q-91 18 -137 70q-50 -41 -119 -62.5t-135 -21.5zM408 330
q-82 0 -130 -72t-8.5 -145.5t169.5 -77.5q135 -6 203 65q-2 10 -2 15v16q0 37 16 131q-153 68 -248 68z" />
    <glyph glyph-name="b" unicode="b" horiz-adv-x="924" 
d="M95 1227q28 -1 88.5 2t88.5 2q-40 -249 -40 -600q0 -151 11 -264q1 -13 4.5 -50.5t5.5 -56t7.5 -52.5t12 -52.5t18.5 -43.5t26.5 -37.5t36.5 -21.5t49 -8q136 2 228.5 107.5t92.5 250.5q0 141 -68.5 222.5t-160.5 81.5q-94 0 -124 -69q-19 -42 -3 -74q8 -15 20 -15
q6 0 12.5 1t13 3.5t11 4.5t12 7l10.5 7l12 8t11 8q8 -12 31 -55.5t31 -55.5q-46 -34 -99 -34q-63 0 -109 43.5t-46 113.5q0 51 22.5 90.5t58.5 61t75.5 32t78.5 9.5q149 -2 247.5 -110.5t98.5 -293.5q0 -89 -29.5 -162t-78 -120.5t-112.5 -80.5t-129.5 -47t-131.5 -14
q-75 0 -130 23t-85.5 65.5t-44.5 94t-14 116.5q0 83 7.5 290.5t5 371.5t-21.5 301z" />
    <glyph glyph-name="c" unicode="c" horiz-adv-x="916" 
d="M476 -41q-117 0 -209 56t-139 145t-47 194q0 112 45.5 211t137 164.5t210.5 65.5q80 0 159 -30.5t133 -89.5t54 -130q0 -64 -53 -100.5t-124 -36.5q-52 0 -94.5 20.5t-61.5 60.5l106 82q11 -26 38.5 -46t52.5 -20q26 0 38 25q21 46 -14.5 89t-96 66.5t-118.5 25.5
q-75 2 -134.5 -53.5t-89.5 -137t-30 -166.5q0 -81 22.5 -150.5t77 -118t133.5 -48.5q107 0 190 63t95 168q13 -2 39.5 -7t40.5 -7q-12 -94 -65.5 -162.5t-130 -100.5t-165.5 -32z" />
    <glyph glyph-name="d" unicode="d" horiz-adv-x="959" 
d="M698 43q-95 -67 -215 -67q-106 0 -200.5 50.5t-156 150t-61.5 224.5q0 177 109 288.5t266 111.5q92 0 159.5 -48t67.5 -147q0 -54 -31 -93.5t-80 -39.5q-48 0 -127 55q8 10 47 66q4 -3 14.5 -10t16 -10.5t14.5 -8t17.5 -6.5t17.5 -2q10 0 17 11.5t9 23.5l1 12
q-3 58 -43 84.5t-90 26.5q-65 0 -112 -27.5t-71 -75t-34.5 -98t-10.5 -108.5q0 -64 15.5 -124t48 -113t89.5 -85.5t132 -32.5q60 0 119.5 46.5t81.5 90.5q31 555 -12 1067q54 -2 75 -2q22 0 76 -2q-24 -206 -24 -438t13.5 -412t39.5 -401q-14 0 -90.5 -2t-89.5 -2q0 7 1 23
t1 24z" />
    <glyph glyph-name="e" unicode="e" horiz-adv-x="879" 
d="M81 385q0 78 26 151.5t73.5 131t121.5 92t162 33.5q67 -1 122.5 -22.5t91.5 -56t62 -81t39 -95t17 -100.5q-3 -37 -43 -43h-533q-5 -29 0.5 -72t23.5 -92.5t45.5 -91.5t73 -70t99.5 -28t111 26t96 73t37 98q-1 18 -18 27t-43 9q-39 0 -72 -15.5t-37.5 -40.5t45.5 -56
l-96 -58q-26 31 -37 57t-11 66q0 61 51 94.5t121 33.5q73 0 126 -35t53 -99q0 -81 -50 -143t-127.5 -92t-164.5 -27q-185 8 -275 124.5t-90 301.5zM470 711q-98 0 -163 -66t-87 -166l455 -6q-4 94 -57 166t-148 72z" />
    <glyph glyph-name="f" unicode="f" horiz-adv-x="777" 
d="M67 745q13 -6 36 -6t54 6q-1 90 6 164t27.5 145t54 119t89.5 77.5t130 29.5q95 0 180.5 -66t85.5 -157q0 -52 -37.5 -91.5t-93.5 -41.5q-76 -11 -116.5 36t-24.5 104.5t80 70.5q5 -13 24 -48t23 -51q-19 0 -22 -5.5t3 -12t15 -12.5q24 0 39.5 7.5t19.5 14t7 18.5l3 13
q-16 66 -66.5 102.5t-113.5 36.5q-50 0 -87.5 -36t-60 -100t-35 -142.5t-15.5 -174.5q25 -5 62 -5q99 0 171 20q1 -23 3.5 -69t4.5 -68q-141 52 -241 41q0 -145 17.5 -305.5t38 -257.5t32.5 -103h-213q23 14 33 56t9 113.5t-6 141t-13 175.5t-11 180q-24 6 -46 6
q-21 0 -42 -6q0 45 -4 81z" />
    <glyph glyph-name="g" unicode="g" horiz-adv-x="1237" 
d="M63 -403q0 50 32 91t84 65t113 37t123 13t116 -9.5t99.5 -29t65.5 -56.5t6 -87l-162 -4q12 29 5.5 49.5t-18 33t-33 19t-39 9t-36.5 2.5q-89 0 -146 -33t-61 -92q-4 -62 35.5 -110t105.5 -48q100 0 199 32.5t170.5 102t71.5 160.5q0 73 -40 101t-108 28q-30 0 -84.5 -6
t-72.5 -6q-42 0 -78.5 24.5t-45 59.5t24.5 73q33 37 79.5 69.5t85.5 53t80 48t69.5 57t46.5 79t18 113.5q0 104 -70.5 185.5t-168.5 85.5q-47 1 -92.5 -14.5t-87.5 -49.5t-66.5 -98t-22.5 -150q2 -98 57 -161.5t146 -63.5l-10 -82q-37 0 -78 9t-88.5 33.5t-85 60.5t-62 96
t-24.5 135q0 72 23 132.5t63 103.5t93.5 73.5t114 45t124.5 14.5q82 0 166 -37q45 70 88.5 105.5t117.5 35.5q83 0 166 -76q74 -67 84 -134q12 -76 -73 -95q-25 -6 -58 -6q-61 0 -91 30.5t-52 87.5q6 2 46 15t54 16q46 -53 65 -53t5 38q-19 53 -66 86q-32 23 -66 23
q-16 0 -34 -6q-15 -4 -27.5 -9.5t-23 -13.5t-17.5 -14t-15.5 -18t-11.5 -16.5t-11.5 -19t-10.5 -17.5q64 -47 105 -110t54 -133t-15 -145t-99 -137q-35 -30 -83 -57.5t-88.5 -45.5t-76.5 -33t-54.5 -28t-14.5 -24q5 -14 38 -14q17 0 84 7t113 7q76 0 131.5 -60t55.5 -165
q0 -72 -36 -138t-94.5 -114t-130 -84t-144 -54t-134.5 -18q-51 0 -104.5 13.5t-102 39.5t-79.5 72.5t-31 104.5z" />
    <glyph glyph-name="h" unicode="h" horiz-adv-x="889" 
d="M93 -4q53 734 11 1259q26 -1 82 3t84 2q-35 -274 -35 -576q41 52 98.5 79.5t116.5 27.5q97 0 171.5 -39.5t118.5 -108.5t65.5 -153.5t21.5 -182.5q0 -74 -8.5 -131t-30 -110.5t-65 -83t-107.5 -29.5q-75 0 -133 60.5t-80 142.5q13 0 73 24.5t74 24.5q-12 -59 15 -117.5
t59 -56.5q35 3 49 86.5t14 187.5q0 53 -1 86t-5.5 80.5t-13.5 77.5t-26.5 64t-42.5 53t-62.5 32t-85.5 13q-53 0 -119 -41t-96 -92q6 -277 39 -578q-14 0 -90.5 -2t-90.5 -2z" />
    <glyph glyph-name="i" unicode="i" horiz-adv-x="564" 
d="M81 569q11 56 30 104.5t55.5 88t82.5 39.5q174 0 174 -586q0 -18 -1 -53t-0.5 -53t2 -42t7.5 -40t15 -27q-7 1 -43 1q-21 0 -69 -1t-69.5 -1.5t-42.5 1.5q11 9 22 53.5t19 109.5t14 141t7.5 150t-0.5 135t-11 98t-24 36q-30 -5 -48.5 -31t-25 -53.5t-12.5 -67.5
q-1 -11 -2 -16zM169 889q-7 7 -30.5 29t-33 33t-24.5 30.5t-21 39.5t-6 42q0 82 94.5 149.5t196.5 67.5q50 0 92.5 -26.5t42.5 -63.5q0 -43 -23 -99.5t-64 -100.5t-85 -44q-49 0 -87.5 41t-32.5 94l120 76q0 -9 -5.5 -43t-5 -57t12.5 -25q28 -5 63.5 58t25.5 88
q-13 31 -63 31q-38 0 -81.5 -17.5t-77 -49.5t-37.5 -69q-2 -24 6.5 -43.5t19 -29.5t31 -27t30.5 -27q-47 -47 -58 -57z" />
    <glyph glyph-name="j" unicode="j" horiz-adv-x="592" 
d="M-150 -391q-14 54 26 106t97 60q82 8 148.5 -32.5t82.5 -115.5q-11 -2 -60 -18.5t-65 -18.5q-6 41 -29 71t-50 30q-25 0 -46 -27q-11 -39 9 -91t54.5 -94t74 -69.5t65.5 -23.5q32 5 65.5 115t57.5 273.5t39.5 337t13.5 323.5t-23 214q-22 67 -43 67q-32 0 -61 -161
l-80 14q11 56 30 104.5t55.5 88t82.5 39.5q54 0 91 -61t54 -151t24 -203.5t4.5 -208.5t-9.5 -177q-13 -157 -37.5 -286.5t-60 -228.5t-84.5 -154t-107 -55q-59 0 -127 58q-66 56 -120 130.5t-72 144.5zM100 1063q0 82 94 149.5t196 67.5q50 0 93 -26.5t43 -63.5
q0 -43 -23 -99.5t-64.5 -100.5t-85.5 -44q-49 0 -87.5 41t-32.5 94l120 76q0 -8 -5.5 -42t-4.5 -57t13 -26q27 -6 62.5 57.5t25.5 88.5q-13 30 -64 30q-62 0 -126 -40t-68 -95q-3 -23 5.5 -43t19.5 -30.5t31.5 -27.5t29.5 -26q-48 -47 -58 -57q-7 7 -30.5 29t-33 33
t-24 30.5t-20.5 39t-6 42.5z" />
    <glyph glyph-name="k" unicode="k" horiz-adv-x="871" 
d="M272 0q-14 0 -91 -2t-90 -2q23 234 34.5 413t10.5 408.5t-24 437.5q26 -1 77.5 3t77.5 2q-44 -332 -30 -775q48 25 149 47t119 31q86 42 148 244q3 8 4 12l139 -86q-123 -223 -240 -262q-8 -3 -99.5 -13.5t-157 -33.5t-54.5 -64q34 -14 107 -14q26 0 79.5 2.5t78.5 2.5
q48 0 77 -7q38 -10 73 -50t56.5 -83.5t48 -99t43.5 -80.5q-11 -9 -71.5 -33.5t-71.5 -32.5q-18 28 -42 96.5t-51 116.5t-67 60q-15 4 -110.5 12t-145.5 22q13 -171 23 -272z" />
    <glyph glyph-name="l" unicode="l" horiz-adv-x="478" 
d="M128 1020l-80 14q10 55 29 103.5t56 88.5t83 40q34 0 60.5 -22.5t43 -67t27.5 -96t16 -124t7 -135t2 -145.5v-79q-1 -38 -1 -105q-1 -32 -1 -73q0 -135 5 -247q5 -157 19 -172q-7 1 -38 1q-20 0 -59.5 -1t-49.5 -1q-11 -1 -21 -1q-18 0 -28 2q29 22 49 438q5 86 6 174
q2 118 2 138t0.5 41t0.5 22q0 149 -9 259q-10 115 -30 116h-1q-22 -3 -38 -17t-25.5 -41.5t-13 -44.5t-9.5 -53q-1 -8 -2 -12z" />
    <glyph glyph-name="m" unicode="m" horiz-adv-x="1362" 
d="M151 555l-80 14q8 41 20.5 78t32.5 73.5t49.5 58.5t65.5 22q74 0 112 -109q70 101 186 101q61 0 118 -32t96 -93q34 61 87.5 93t114.5 32q75 0 141 -46.5t101 -132.5q25 -61 36.5 -141t13 -130t1.5 -161q0 -50 4.5 -73t28.5 -109h-196q36 100 36 238q0 102 -9 177
t-38 148q-61 148 -140 148q-38 0 -72.5 -38.5t-61.5 -113.5q16 -55 24 -126.5t8.5 -111.5t0.5 -139q0 -51 4 -75.5t28 -106.5h-196q37 94 37 238q0 102 -9 177t-38 148q-62 149 -140 149q-39 0 -74 -39.5t-61 -115.5q17 -142 17 -338q0 -177 36 -219q-7 1 -42 1
q-21 0 -69 -1t-69.5 -1.5t-42.5 1.5q23 19 43 185t20 323q0 218 -36 215q-30 -5 -48.5 -31t-25 -53.5t-12.5 -67.5q-1 -11 -2 -16z" />
    <glyph glyph-name="n" unicode="n" horiz-adv-x="1039" 
d="M145 555l-80 14q8 41 20.5 78t32.5 73.5t49.5 58.5t65.5 22q85 0 125 -101q86 93 229 93q94 0 173.5 -46.5t115.5 -132.5q25 -61 37 -142t13 -128t1 -162q0 -50 4.5 -73t28.5 -109h-197q31 79 31 238q0 102 -9 177t-38 148t-78.5 111t-106.5 38q-54 0 -102 -35t-76 -99
q8 -85 8 -172v-187q0 -176 37 -219q-7 1 -42 1q-21 0 -69 -1t-69.5 -1.5t-42.5 1.5q20 20 38.5 202t17.5 354t-29 167q-30 -5 -48.5 -31t-25 -53.5t-12.5 -67.5q-1 -11 -2 -16z" />
    <glyph glyph-name="o" unicode="o" horiz-adv-x="981" 
d="M505 -45q-119 0 -218.5 62t-153 158.5t-50.5 201.5q2 165 113 283.5t280 132.5l4 -82q-124 -11 -188.5 -107t-64.5 -227q0 -60 16 -117.5t47 -108t84.5 -81.5t120.5 -31q78 0 138.5 49.5t90 124t29.5 156.5q0 45 -7 92t-21 92t-40 73.5t-59 28.5q-28 0 -60.5 -37
t-56.5 -89t-42.5 -108t-19.5 -95t13 -50q18 -8 34 2.5t28 35.5t19 47t13 49q7 -3 32.5 -15.5t47.5 -22.5t33 -14q-19 -62 -77 -112.5t-120 -50.5q-104 0 -104 135q0 85 36 181t93.5 162t113.5 66q123 0 207 -108.5t84 -253.5q0 -111 -53 -208t-144.5 -155.5t-197.5 -58.5z
" />
    <glyph glyph-name="p" unicode="p" horiz-adv-x="932" 
d="M95 -442q19 137 21.5 301t-5 371t-7.5 290q0 65 14 116.5t44.5 94t85.5 65.5t130 23q66 0 131.5 -14t129.5 -47t112.5 -80.5t78 -120.5t29.5 -162q0 -185 -98.5 -293t-247.5 -110q-54 -2 -105 15.5t-90.5 63.5t-39.5 113q0 70 45.5 113t108.5 43q54 0 100 -33
q-8 -11 -31 -55t-31 -55q-2 2 -11 8l-12 8l-10.5 7t-12 7t-11 4.5t-13 3.5t-12.5 1q-20 0 -25 -32q-8 -49 28 -87q36 -39 104 -39q92 0 160.5 81t68.5 222q0 145 -92.5 250.5t-228.5 107.5q-24 0 -44 -6t-34.5 -19.5t-25.5 -27.5t-19 -37.5t-13.5 -41t-9.5 -47.5t-5.5 -47
t-4.5 -49.5t-4 -45.5q-11 -113 -11 -264q0 -351 40 -600q-28 -2 -88.5 2t-88.5 2z" />
    <glyph glyph-name="q" unicode="q" horiz-adv-x="981" 
d="M87 350q0 121 59.5 221t151.5 153.5t193 53.5q134 0 231 -97q0 6 -2 36.5t-2 38.5q14 0 84 -2t83 -2q-73 -693 -5 -1252q-54 -2 -83 -2q-27 0 -81 -2q45 545 14 993q-16 90 -74.5 150.5t-125.5 60.5q-75 0 -132 -32t-89.5 -85.5t-48 -113t-15.5 -123.5q0 -58 10.5 -108.5
t34.5 -97.5t70.5 -75t111.5 -28q32 0 59 9t49.5 35t24.5 66l-1 5q0 4 -2 11.5t-4.5 14.5t-7.5 12t-11 5q-9 0 -17.5 -2t-18 -7t-14 -7.5t-16.5 -11t-14 -9.5q-33 48 -47 65q81 56 127 56q49 0 79.5 -39.5t30.5 -94.5q0 -99 -67.5 -146.5t-159.5 -47.5q-157 0 -266 111
t-109 288z" />
    <glyph glyph-name="r" unicode="r" horiz-adv-x="807" 
d="M87 -4q10 113 25.5 225t19.5 158t0.5 142t-20.5 257q26 -1 78 2.5t80 1.5q-3 -14 -5.5 -37.5t-3.5 -27.5q129 86 252 86q95 0 165.5 -48.5t92.5 -140.5q-13 -3 -62 -32t-61 -33q-19 79 -66.5 120.5t-111.5 41.5q-68 0 -141 -45q-3 -2 -20.5 -14t-24.5 -17.5t-18.5 -16.5
t-18.5 -22q-13 -116 -13 -187q0 -46 4 -92.5t14.5 -143t17.5 -173.5q-13 0 -91.5 -2t-91.5 -2z" />
    <glyph glyph-name="s" unicode="s" horiz-adv-x="820" 
d="M405 -43q-47 0 -98.5 10t-104 30.5t-86 61t-33.5 93.5q0 70 59.5 108.5t139.5 38.5q79 0 140.5 -57t55.5 -131l-116 6q-14 40 -52.5 65t-77.5 25q-56 0 -65 -45q-7 -34 14 -59t58.5 -37.5t75 -18.5t73.5 -6q42 0 81.5 6.5t81.5 21.5t67.5 46t25.5 75q0 36 -23 61t-61 37
t-86.5 23t-98.5 18.5t-98.5 25.5t-86.5 42.5t-61 70t-23 107.5q0 59 26 103t69 68t90.5 35.5t96.5 11.5q130 0 217.5 -63.5t104.5 -192.5q-15 -3 -68.5 -6.5t-60.5 -4.5q10 69 -45 127t-142 58q-79 0 -129.5 -32.5t-50.5 -107.5q0 -36 29 -59t75.5 -34.5t103 -21t112.5 -26
t102.5 -42.5t75.5 -76t29 -122q0 -59 -32.5 -105.5t-84 -73.5t-108 -40.5t-111.5 -13.5z" />
    <glyph glyph-name="t" unicode="t" horiz-adv-x="773" 
d="M69 645l-8 125q22 -4 64 -12.5t75 -13.5t63 -5q8 117 8 222q0 116 -16 231l133 -6q1 -43 2 -62t-2.5 -79t-6 -92t-7.5 -101.5t-8 -108.5q131 10 262 39q2 -13 3 -65t3 -66q-105 8 -274 8q-10 -126 -15 -216.5t-4 -183t15.5 -144t42.5 -58.5q42 -10 121.5 56t88.5 127
q-10 30 -49 30q-25 0 -53 -10q-11 7 -31 44t-30 46q42 31 93 31q58 0 103 -40t49 -97q5 -63 -60.5 -131t-152 -109.5t-148.5 -41.5q-22 0 -34 5q-23 9 -40 25.5t-26.5 43t-15 55t-5.5 70.5t1.5 80t7.5 92.5t11.5 99.5t13 109.5t12.5 114.5q-20 -1 -186 -12z" />
    <glyph glyph-name="u" unicode="u" horiz-adv-x="910" 
d="M419 -41q-70 -2 -125 13t-89 42.5t-59 65t-35 82t-16.5 93t-5 97.5t0.5 96q1 18 1 27q1 15 1 58q0 151 26 200q34 64 105 64q44 0 94.5 -24.5t90.5 -64.5t66 -85t24 -91t-38 -77l-104 43q33 56 36 77q2 39 -48.5 85t-90.5 46q-24 0 -31 -20q-23 -61 -33.5 -144.5t-3 -171
t30.5 -162t75 -121.5t124 -46q89 1 150.5 55t93.5 143t47 222q0 149 -21 317q28 -2 80 1.5t78 2.5q-41 -317 -42.5 -400t26.5 -382q-14 0 -84 -2t-82 -2q6 64 12 117q-87 -150 -254 -154z" />
    <glyph glyph-name="v" unicode="v" horiz-adv-x="957" 
d="M65 752q12 1 97 -1t95 1q2 -9 17.5 -107.5t27.5 -148.5q53 -225 95 -332t81 -107q40 0 81 105.5t96 333.5q12 50 27.5 148.5t17.5 107.5q10 -3 94.5 -1t97.5 1q-25 -32 -58 -128.5t-67 -205t-75 -214.5t-96.5 -175.5t-117.5 -69.5q-61 0 -116.5 69.5t-96.5 175.5
t-75 214.5t-67 205t-58 128.5z" />
    <glyph glyph-name="w" unicode="w" horiz-adv-x="1373" 
d="M489 -41q-61 0 -116.5 69.5t-96.5 175.5t-75.5 214.5t-67.5 205t-58 128.5q13 1 97.5 -1t94.5 1q5 -27 13 -80t16 -96t17 -80q54 -228 95 -333.5t81 -105.5q9 0 16.5 5.5t16 19t15.5 28t17.5 41t19 49.5t22.5 62t26 70q13 37 2 227t-28 193h173q-19 -9 -27 -185.5
t7 -234.5q72 -275 135 -275q38 0 78 104t98 335q9 37 16.5 80.5t15.5 95t13 80.5q11 -3 96 -1t97 1q-25 -32 -58 -128.5t-67.5 -205t-75.5 -214.5t-96.5 -175.5t-116.5 -69.5q-56 0 -104.5 55t-94.5 154q-93 -209 -196 -209z" />
    <glyph glyph-name="x" unicode="x" horiz-adv-x="951" 
d="M87 -6q8 37 21.5 71.5t36 67t41 57t52.5 57t53 50t59.5 52t56.5 48.5l-27 27q-7 6 -20 19q-48 46 -73 71t-60 67t-56 84.5t-33 90.5h179q15 -154 161 -293q68 68 108.5 136.5t49.5 152.5h178q-24 -96 -82.5 -169.5t-158.5 -162.5q-22 -19 -25 -23q13 -11 49.5 -42.5
t51.5 -44.5t47 -42.5t47.5 -47.5t39 -48t36.5 -54.5t26 -56t20 -63.5q-10 -2 -80.5 1t-82.5 -1q-36 98 -90 175t-134 157q-82 -80 -137.5 -159t-89.5 -177q-13 4 -83.5 1t-80.5 -1z" />
    <glyph glyph-name="y" unicode="y" horiz-adv-x="945" 
d="M351 -657q-138 0 -209 112q-58 92 -43 205q14 109 86 156q39 26 89 26q78 0 136.5 -37.5t67.5 -115.5q-14 -3 -72 -24.5t-67 -24.5q-6 19 -10 29t-12.5 24.5t-22.5 20.5t-33 5q-63 -2 -77.5 -68t24.5 -137q43 -80 118 -88q8 -1 15 -1q49 0 90.5 20.5t71.5 50.5t56 79.5
t41.5 92t30.5 103.5t22 100t16 94q-110 13 -192 39t-145 70t-104 102.5t-67.5 143.5t-38.5 186t-14 237l182 9q-18 -62 -20 -155.5t10 -164.5q48 -324 405 -377q16 103 22.5 218t9.5 258t7 221h152q-62 -523 -152 -924q-20 -89 -41.5 -157t-53.5 -132t-70 -105.5t-91 -66
t-117 -24.5z" />
    <glyph glyph-name="z" unicode="z" horiz-adv-x="932" 
d="M147 -37q-28 4 -38.5 55t7.5 74q55 53 148.5 138t143 132.5t117 126t123.5 164.5q-287 11 -534 -24l-17 157q165 -41 384 -41q134 0 284 17q20 -1 32.5 -38t12.5 -77q0 -25 -6 -37q-66 -64 -183 -166.5t-187 -177t-146 -184.5q370 -7 522 27q1 -7 1 -31v-42
q0 -16 -0.5 -42t-0.5 -31q-166 34 -323 34q-163 0 -340 -34z" />
    <glyph glyph-name="braceleft" unicode="{" horiz-adv-x="595" 
d="M42 510v100q12 -4 29 -4q67 0 145.5 56t81.5 110q3 46 -11.5 94t-39 91t-50.5 85t-49 92t-32 97q-7 33 5 60t39.5 46t60.5 33t77 24.5t79 17t76.5 13.5t61.5 11l5 -129q-75 20 -137 20q-141 0 -150 -92q-5 -53 13.5 -106t49 -97t62 -85.5t54 -88.5t22.5 -90
q0 -113 -265 -209q265 -90 265 -207q0 -43 -22.5 -90t-54 -88.5t-62 -85.5t-49 -97t-13.5 -106q5 -48 46.5 -70t104.5 -22q64 0 136 21l-5 -129q-20 4 -61.5 11t-77 13.5t-79 16.5t-76.5 24t-60.5 32.5t-39.5 46t-5 60.5q10 56 43 120.5t64.5 111t55 108.5t19.5 119
q-3 53 -81 110t-145 57q-15 0 -30 -5z" />
    <glyph glyph-name="bar" unicode="|" horiz-adv-x="288" 
d="M202 -236q-13 0 -59 1.5t-60 1.5q33 722 0 1597l123 2q-43 -754 -4 -1602z" />
    <glyph glyph-name="braceright" unicode="}" horiz-adv-x="595" 
d="M327 1235q-9 92 -150 92q-62 0 -137 -20l4 129q20 -5 61.5 -12t77 -13.5t79.5 -16.5t77 -24t60.5 -33t39.5 -46t5 -60q-9 -47 -32.5 -97.5t-49.5 -92t-50.5 -84.5t-38.5 -90.5t-11 -94.5q3 -53 82 -109.5t145 -56.5q17 0 29 4v-100q-12 4 -28 4q-67 0 -146.5 -56
t-81.5 -110q-3 -47 11 -95t38.5 -91t50.5 -84.5t49.5 -91.5t32.5 -97q7 -33 -5 -60t-39.5 -46t-60.5 -33t-77 -24t-79.5 -16.5t-77 -13t-61.5 -11.5l-4 129q72 -21 136 -21q63 0 104.5 22t46.5 70q4 53 -15 106t-49 96.5t-61 85.5t-53.5 88.5t-22.5 90.5q0 116 265 207
q-265 95 -265 209q0 44 22.5 90.5t53.5 88.5t61 85.5t49 96.5t15 106z" />
    <glyph glyph-name="asciitilde" unicode="~" horiz-adv-x="1123" 
d="M26 1114q24 40 54 79t68.5 78.5t83.5 64t87 24.5q40 0 75 -13.5t53 -27.5t48 -43t43 -39q3 -2 23.5 -19.5t25 -21t23.5 -17.5t27 -18t26 -13.5t31.5 -12.5t31.5 -6t37 -3q175 0 187 160q10 -2 48.5 -19.5t49.5 -19.5q-24 -40 -54 -79t-68.5 -78.5t-83.5 -64t-87 -24.5
q-39 0 -74.5 14t-52.5 26.5t-48.5 43.5t-41.5 39q-4 3 -31.5 26t-35 28.5t-32 21.5t-40 21t-39.5 10.5t-49 5.5q-54 0 -92 -15t-57.5 -40.5t-28 -50t-9.5 -52.5q-11 2 -50 18t-48 17z" />
    <glyph glyph-name="exclamdown" unicode="&#xa1;" horiz-adv-x="339" 
d="M90 -512q2 184 19.5 542.5t19.5 528.5q13 0 41 1t41 1q-3 -183 9 -541t11 -530zM73 745q0 36 33 55t76 19q4 0 9 -0.5t19 -4t23.5 -10.5t18 -22.5t8.5 -36.5q0 -26 -9.5 -45t-21 -28t-27.5 -14.5t-23.5 -6t-13.5 -0.5q-46 2 -84 82q-7 12 -8 12z" />
    <glyph glyph-name="cent" unicode="&#xa2;" horiz-adv-x="900" 
d="M73 354q0 112 45.5 211t137 164.5t210.5 65.5q67 0 146 -27q104 236 174 412q20 -12 121 -58q-127 -235 -207 -397q112 -78 112 -180q0 -65 -53 -101t-125 -36q-46 0 -84 16q-110 -228 -174 -369q38 -18 88 -18q107 0 190 63t95 168q14 -2 40.5 -7t39.5 -7
q-12 -94 -65.5 -162.5t-130 -100.5t-165.5 -32q-64 0 -127 21q-141 -320 -149 -340l-119 57q94 168 176 323q-84 54 -130 143t-46 191zM231 354q0 -153 69 -239q17 36 61.5 121.5t99 198t118.5 257.5q-36 13 -94 19q-75 1 -134.5 -54.5t-89.5 -136.5t-30 -166zM606 539
q33 -33 68 -33q27 0 40 24q29 66 -51 123q-31 -57 -57 -114z" />
    <glyph glyph-name="sterling" unicode="&#xa3;" horiz-adv-x="1328" 
d="M67 612l-4 111q120 -9 237 -14q-49 154 -49 274q0 166 90 268.5t236 102.5q95 0 172.5 -54t124.5 -133l-133 -75q-14 80 -63 132t-107 54q-49 1 -86 -22.5t-57 -61.5t-32 -85t-10 -93t7 -86q14 -86 57 -223q182 0 375 14q4 -36 4 -111q-249 19 -354 19q109 -352 -84 -539
q155 86 283 86q30 0 57 -6q39 -9 84.5 -32.5t79.5 -46t80 -40.5t89 -18q113 0 113 131q0 64 -35.5 119t-95.5 69q-29 -5 -45.5 -28t-16.5 -52t17.5 -49t50.5 -20q2 -14 -20.5 -54.5t-22.5 -52.5q-49 6 -81 33.5t-42 65t-4 79.5t27 77.5t57 59t80 23.5q51 0 93 -25t66.5 -64
t38 -84t13.5 -89q0 -61 -17 -107t-45.5 -71.5t-60 -38t-64.5 -12.5q-62 1 -123.5 17t-103 34.5t-98.5 33.5t-113 15q-96 0 -222 -35t-220 -90l-64 139q15 -7 35 -7q59 0 123 59t82 135q40 160 -39 383q-161 -6 -260 -15z" />
    <glyph glyph-name="yen" unicode="&#xa5;" horiz-adv-x="1295" 
d="M216 881q-52 0 -88 24.5t-52 65t-21.5 74t-5.5 69.5q0 58 18.5 112t62 95t103.5 43q38 1 75 -14t67.5 -38.5t64 -64.5t58.5 -78t57 -95.5t53 -100t54.5 -108t53.5 -105.5q18 30 73.5 127.5t81 141t71.5 118t85.5 132.5t81.5 112q10 -12 71 -68.5t63 -58.5
q-103 -41 -240 -222t-246 -409v-4q198 6 316 14q4 -36 4 -111q-164 14 -320 19q0 -112 4 -197q191 6 312 15q4 -36 4 -111q-139 12 -312 18q13 -178 25 -272q-14 0 -95 -2t-94 -2q4 49 10 142.5t9 133.5q-126 -4 -305 -16l-4 111q121 -11 313 -17q2 34 4.5 100t3.5 97
q-135 0 -317 -16l-4 110q101 -9 303 -16q-37 73 -92.5 189t-89 184t-74.5 140.5t-74.5 105.5t-62.5 32q-26 -1 -45 -19.5t-28 -47t-12.5 -53.5t-3.5 -50q0 -41 16.5 -65.5t40.5 -24.5q20 0 39.5 19t33.5 57l94 -58q-22 -83 -52 -120t-88 -37z" />
    <glyph glyph-name="section" unicode="&#xa7;" horiz-adv-x="804" 
d="M53 -53q0 86 61 135t145 49q81 0 146 -67.5t59 -153.5l-127 8q-15 57 -53.5 92t-77.5 35q-25 0 -43 -21.5t-24 -60.5q-6 -52 16 -92t60 -61t77 -31t76 -10q33 0 65.5 5.5t69.5 21.5t65 41t47.5 67.5t20.5 97.5q2 79 -60.5 127.5t-164.5 73.5q-36 9 -53.5 14t-51.5 15.5
t-52 19.5t-46.5 25t-44.5 32.5t-35 40.5t-29 51t-17 63t-7 77q0 34 13 68.5t26.5 55t42 58t39.5 53.5q-48 43 -82.5 107.5t-34.5 140.5q0 77 27.5 134.5t72 89t93.5 46.5t100 15q137 0 228 -79t106 -239q-19 -3 -73.5 -8.5t-57.5 -5.5q10 96 -47 177t-150 81
q-81 0 -132.5 -49.5t-51.5 -165.5q0 -76 55.5 -117t151.5 -65q37 -10 58.5 -16.5t57 -19t58 -25.5t51.5 -33t46.5 -44.5t34.5 -56t24.5 -72t7.5 -88.5q0 -71 -22 -122.5t-77 -100.5q43 -40 69 -108t26 -150q0 -79 -34 -141t-87.5 -97t-112.5 -53t-117 -18q-37 0 -78 7.5
t-87 26t-82 46.5t-60 73t-24 101zM272 727q-82 -45 -82 -190q0 -36 12 -64.5t28 -45.5t47 -32.5t52.5 -22.5t61.5 -18q15 -4 46.5 -10.5t49 -11t41 -14t41.5 -21.5q71 71 71 186q0 36 -7.5 63.5t-25 47.5t-34.5 33.5t-47.5 24.5t-51.5 17t-59 15q-98 23 -143 43z" />
    <glyph glyph-name="dieresis" unicode="&#xa8;" horiz-adv-x="700" 
d="M532 1141q-44 0 -76 18.5t-32 54.5q1 -2 4 3q22 45 27 53q28 39 61 39q9 0 19 -2t30 -9.5t32.5 -29t12.5 -54.5q0 -20 -8 -35.5t-18.5 -22t-23.5 -10.5t-18.5 -4.5t-9.5 -0.5zM81 1214q1 -2 5 4q22 45 25 49q28 42 63 42q6 0 12.5 -0.5t22.5 -5.5t27 -14t20.5 -28.5
t9.5 -46.5q0 -20 -8 -35t-17.5 -22t-22.5 -11t-18.5 -4.5t-9.5 -0.5q-44 0 -76.5 18t-32.5 55z" />
    <glyph glyph-name="copyright" unicode="&#xa9;" horiz-adv-x="1443" 
d="M53 639q0 124 43 237t121.5 201.5t202 141.5t272.5 53q128 0 248 -47t212 -129t147.5 -202t55.5 -257q0 -131 -53.5 -249.5t-142.5 -203t-210 -134.5t-251 -50q-129 0 -247 48t-205.5 131.5t-140 203.5t-52.5 256zM165 645q0 -107 32 -205.5t94 -180t166 -130.5t237 -49
q148 0 275 70t204.5 198.5t77.5 286.5q0 160 -77 288t-204 197.5t-276 69.5q-105 0 -193 -29.5t-149.5 -80.5t-104 -120.5t-62.5 -149t-20 -165.5zM712 225q-118 0 -209.5 56t-138.5 145.5t-47 194.5q0 112 45.5 211t137 164t210.5 65q80 0 159 -30.5t133 -89.5t54 -130
q0 -64 -53 -100t-124 -36q-52 0 -95 20.5t-62 60.5l107 82q10 -27 37 -46t53 -19q28 0 39 24q22 46 -14 89t-96.5 66t-119.5 25q-74 2 -133.5 -53.5t-89.5 -137t-30 -165.5q0 -82 22.5 -151.5t77 -118t133.5 -48.5q107 0 190 63t95 169q4 -1 34 -7t46 -8q-17 -139 -120 -217
t-241 -78z" />
    <glyph glyph-name="guillemotleft" unicode="&#xab;" horiz-adv-x="829" 
d="M556 322q-60 77 -206 191q60 42 66 47q136 106 246 247q6 -5 21 -20l26 -26q18 -18 25 -26q4 -5 11 -12l9 -9q-152 -104 -216 -177l-25 -28l21 -25q65 -78 204 -192l-93 -92q-43 60 -47 66q-28 38 -42 56zM65 513q60 42 66 47q126 100 247 247l46 -46q4 -5 12 -13.5
t13 -12.5q15 -15 20 -21q-152 -104 -216 -177l-25 -28l21 -25q65 -78 204 -192l-47 -46q-20 -20 -25 -26q-5 -5 -12.5 -12t-8.5 -8q-43 60 -47 66q-28 38 -42 56q-57 73 -206 191z" />
    <glyph glyph-name="degree" unicode="&#xb0;" horiz-adv-x="584" 
d="M46 1061q0 32 9.5 69.5t18 59.5t30.5 70t28 63l70 -31q-49 -108 -49 -219q0 -25 4.5 -56.5t16.5 -71.5t38 -66.5t62 -26.5q56 0 84 66.5t28 150.5v53q0 108 -51 125q-20 7 -21 -21q-1 -14 11 -97q4 -23 4 -35q-13 0 -57 3t-58 3q0 108 33 169.5t94 61.5q55 0 104.5 -81
t49.5 -181q0 -122 -70.5 -205.5t-158.5 -83.5q-87 0 -153.5 82.5t-66.5 198.5z" />
    <glyph glyph-name="plusminus" unicode="&#xb1;" 
d="M85 614q205 -16 350 -16q0 141 -16 340l110 4q-16 -202 -16 -344q101 0 334 14q4 -35 4 -110q-214 14 -338 18q0 -102 14 -340q-35 -4 -110 -4q13 156 18 344q-142 0 -346 -16zM91 169q205 -16 380 -16q164 0 382 14q4 -35 4 -110q-244 19 -380 19q-162 0 -382 -17z" />
    <glyph glyph-name="acute" unicode="&#xb4;" horiz-adv-x="443" 
d="M87 1126q63 37 115 94.5t109 145.5l102 -113q-4 -3 -31.5 -19.5t-34 -20.5t-30 -19.5t-32 -22.5t-28 -22t-29 -25.5t-23 -25.5t-23 -30.5t-17.5 -31.5q-72 84 -78 90z" />
    <glyph glyph-name="cedilla" unicode="&#xb8;" horiz-adv-x="492" 
d="M67 -346q10 7 40.5 39.5t43.5 40.5q3 -4 15 -24.5t18.5 -28.5t20 -17.5t28.5 -9.5q35 0 57.5 25.5t22.5 64.5q0 40 -20.5 60t-53.5 20q-22 0 -49 -19.5t-39 -19.5q-16 0 -27.5 11t-13.5 32v172h82v-111q19 16 52 16q58 0 109.5 -44.5t51.5 -114.5q0 -86 -55 -132
t-131 -46q-96 0 -152 86z" />
    <glyph glyph-name="guillemotright" unicode="&#xbb;" horiz-adv-x="829" 
d="M75 293q14 10 37 26t29 20q88 62 150 131l25 28l-21 25q-70 83 -203 193l46 46q6 6 14.5 14t11.5 11q15 15 21 20q10 -14 26 -37t20 -29q56 -80 131 -150q28 -26 53 -46q11 -9 34 -26.5t30 -23.5q-171 -120 -260 -233q-8 -11 -26.5 -32t-25.5 -30q-6 5 -21 20l-51 52
q-15 15 -20 21zM380 272q-15 15 -20 21q14 10 37 26t29 20q88 62 150 131l25 28l-21 25q-65 78 -203 193l46 46q6 6 15 14.5t11 10.5q15 15 21 20q60 -87 88 -121q31 -38 67 -72.5t63.5 -57.5t75.5 -61q-60 -42 -66 -47q-124 -93 -246 -248q-6 5 -21 20l-26 26
q-5 5 -13.5 14t-11.5 12z" />
    <glyph glyph-name="questiondown" unicode="&#xbf;" horiz-adv-x="1005" 
d="M505 -528q-156 -2 -266 93.5t-110 254.5q0 59 24 109t63.5 89t82 73.5t88.5 78.5t73 88q20 35 2 261l-2 50l99 -4q0 -30 3 -91t2.5 -97t-6.5 -85t-26 -89t-53 -74q-18 -18 -54 -51t-58.5 -55.5t-48 -54.5t-38.5 -67.5t-14 -74.5q-2 -112 62 -194.5t165 -82.5
q111 0 178.5 69t67.5 177q0 46 -28.5 85.5t-84.5 39.5q-59 0 -98 -19.5t-39 -62.5q0 -38 40 -62t75 -30q4 -1 -10.5 -19.5t-35 -42t-24.5 -32.5q-66 13 -103 74t-26 114q15 79 84 122.5t156 43.5q115 0 169 -57.5t54 -145.5q0 -139 -107 -234t-256 -97zM415 745
q0 21 8.5 36.5t18 22.5t23.5 10.5t19 4t9 0.5q43 0 76 -19t33 -55q-26 -94 -92 -94q-6 0 -13.5 0.5t-23.5 6t-27.5 14.5t-21 28t-9.5 45z" />
    <glyph glyph-name="Agrave" unicode="&#xc0;" horiz-adv-x="1153" 
d="M56 0q15 37 33.5 120.5t35.5 184t41.5 222t51 237t64.5 225.5t81.5 192.5t102.5 132.5t127 50q58 0 110.5 -37t92.5 -96.5t77.5 -148.5t64 -176t54 -198t45 -196.5t38.5 -189t34 -158.5q5 -19 20.5 -74.5t22.5 -89.5h-167q-2 72 -23 154t-59.5 159t-87.5 137.5t-113 92.5
t-131 22q-92 -13 -155 -79.5t-52 -157.5q6 -43 29.5 -64.5t55.5 -21.5q55 0 96 46.5t23 108.5q15 1 62.5 -13t60.5 -11q22 -102 -51 -165t-170 -63q-135 0 -175 102q-35 87 12 200q46 111 137 165q54 32 112 35q40 2 85.5 -5t117.5 -40.5t133 -91.5q-10 37 -34.5 147
t-48 201.5t-56 190.5t-74 157.5t-86.5 59.5q-76 1 -143 -109t-110 -273.5t-72.5 -343t-40 -326t-3.5 -214.5h-168zM634 1450q-8 16 -17.5 31.5t-23 30.5t-23 25.5t-29 25.5t-28 22t-32 22.5t-30 19.5t-34 20.5t-31.5 19.5l103 113q57 -87 108 -144.5t115 -95.5
q-10 -10 -40.5 -46.5t-37.5 -43.5z" />
    <glyph glyph-name="Aacute" unicode="&#xc1;" horiz-adv-x="1153" 
d="M224 0h-168q15 37 33.5 120.5t35.5 184t41.5 222t51 237t64.5 225.5t81.5 192.5t102.5 132.5t127 50q58 0 110.5 -37t92.5 -96.5t77.5 -148.5t64 -176t54 -198t45 -196.5t38.5 -189t34 -158.5q5 -19 20.5 -74.5t22.5 -89.5h-167q-2 72 -23 154t-59.5 159t-87.5 137.5
t-113 92.5t-131 22q-92 -13 -155 -79.5t-52 -157.5q6 -43 29.5 -64.5t55.5 -21.5q55 0 96 46.5t23 108.5q15 1 62.5 -13t60.5 -11q22 -102 -51 -165t-170 -63q-135 0 -175 102q-35 87 12 200q46 111 137 165q54 32 112 35q40 2 85.5 -5t117.5 -40.5t133 -91.5
q-10 37 -34.5 147t-48 201.5t-56 190.5t-74 157.5t-86.5 59.5q-76 1 -143 -109t-110 -273.5t-72.5 -343t-40 -326t-3.5 -214.5zM486 1579q63 37 115 94.5t109 145.5l102 -113q-4 -3 -31.5 -19.5t-34 -20.5t-30 -19.5t-32 -22.5t-28 -22t-29 -25.5t-23 -25.5t-23 -30.5
t-17.5 -31.5q-72 84 -78 90z" />
    <glyph glyph-name="Acircumflex" unicode="&#xc2;" horiz-adv-x="1153" 
d="M56 0q15 37 33.5 120.5t35.5 184t41.5 222t51 237t64.5 225.5t81.5 192.5t102.5 132.5t127 50q58 0 110.5 -37t92.5 -96.5t77.5 -148.5t64 -176t54 -198t45 -196.5t38.5 -189t34 -158.5q5 -19 20.5 -74.5t22.5 -89.5h-167q-2 72 -23 154t-59.5 159t-87.5 137.5t-113 92.5
t-131 22q-92 -13 -155 -79.5t-52 -157.5q6 -43 29.5 -64.5t55.5 -21.5q55 0 96 46.5t23 108.5q15 1 62.5 -13t60.5 -11q22 -102 -51 -165t-170 -63q-135 0 -175 102q-35 87 12 200q46 111 137 165q54 32 112 35q40 2 85.5 -5t117.5 -40.5t133 -91.5q-10 37 -34.5 147
t-48 201.5t-56 190.5t-74 157.5t-86.5 59.5q-76 1 -143 -109t-110 -273.5t-72.5 -343t-40 -326t-3.5 -214.5h-168zM327 1584q4 3 31.5 19.5t34 20.5t30 19.5t32 22.5t28 22t29 25.5t23 25.5t23 30.5t17.5 31.5q9 -19 22.5 -37t23.5 -31t31.5 -30.5t29.5 -25t36 -26t33.5 -22
t38.5 -24t35 -21.5l-102 -113q-46 71 -77 110.5t-71 71.5q-38 -31 -69.5 -72t-75.5 -110z" />
    <glyph glyph-name="Atilde" unicode="&#xc3;" horiz-adv-x="1153" 
d="M224 0h-168q15 37 33.5 120.5t35.5 184t41.5 222t51 237t64.5 225.5t81.5 192.5t102.5 132.5t127 50q58 0 110.5 -37t92.5 -96.5t77.5 -148.5t64 -176t54 -198t45 -196.5t38.5 -189t34 -158.5q5 -19 20.5 -74.5t22.5 -89.5h-167q-2 72 -23 154t-59.5 159t-87.5 137.5
t-113 92.5t-131 22q-92 -13 -155 -79.5t-52 -157.5q6 -43 29.5 -64.5t55.5 -21.5q55 0 96 46.5t23 108.5q15 1 62.5 -13t60.5 -11q22 -102 -51 -165t-170 -63q-135 0 -175 102q-35 87 12 200q46 111 137 165q54 32 112 35q40 2 85.5 -5t117.5 -40.5t133 -91.5
q-10 37 -34.5 147t-48 201.5t-56 190.5t-74 157.5t-86.5 59.5q-76 1 -143 -109t-110 -273.5t-72.5 -343t-40 -326t-3.5 -214.5zM313 1501q-9 3 -39.5 16t-46.5 13q44 78 101.5 140.5t115.5 62.5q45 -2 78.5 -25t89.5 -82q66 -69 145 -73q113 0 125 127q17 -7 30.5 -13.5
t18.5 -9t13.5 -5.5t23.5 -7q-19 -33 -40.5 -64.5t-50.5 -64t-62 -52.5t-64 -20q-39 0 -71.5 18.5t-56.5 45.5t-48.5 54t-59.5 45.5t-77 18.5q-66 0 -94 -38t-31 -87z" />
    <glyph glyph-name="Adieresis" unicode="&#xc4;" horiz-adv-x="1153" 
d="M224 0h-168q15 37 33.5 120.5t35.5 184t41.5 222t51 237t64.5 225.5t81.5 192.5t102.5 132.5t127 50q58 0 110.5 -37t92.5 -96.5t77.5 -148.5t64 -176t54 -198t45 -196.5t38.5 -189t34 -158.5q5 -19 20.5 -74.5t22.5 -89.5h-167q-2 72 -23 154t-59.5 159t-87.5 137.5
t-113 92.5t-131 22q-92 -13 -155 -79.5t-52 -157.5q6 -43 29.5 -64.5t55.5 -21.5q55 0 96 46.5t23 108.5q15 1 62.5 -13t60.5 -11q22 -102 -51 -165t-170 -63q-135 0 -175 102q-35 87 12 200q46 111 137 165q54 32 112 35q40 2 85.5 -5t117.5 -40.5t133 -91.5
q-10 37 -34.5 147t-48 201.5t-56 190.5t-74 157.5t-86.5 59.5q-76 1 -143 -109t-110 -273.5t-72.5 -343t-40 -326t-3.5 -214.5zM778 1497q-44 0 -76 18.5t-32 54.5q1 -2 4 3q22 45 27 53q28 39 61 39q9 0 19 -2t30 -9.5t32.5 -29t12.5 -54.5q0 -20 -8 -35.5t-18.5 -22
t-23.5 -10.5t-18.5 -4.5t-9.5 -0.5zM436 1497q-44 0 -76.5 18t-32.5 55q1 -2 5 4q22 45 25 49q28 42 63 42q6 0 12.5 -0.5t22.5 -5.5t27 -14t20.5 -28.5t9.5 -46.5q0 -20 -8 -35t-17.5 -22t-22.5 -11t-18.5 -4.5t-9.5 -0.5z" />
    <glyph glyph-name="Aring" unicode="&#xc5;" horiz-adv-x="1153" 
d="M56 0q20 48 46 184t55.5 294t69 322.5t100 304t133.5 204.5q-64 48 -72 139v12q8 88 62.5 135.5t128.5 47.5t129 -49.5t55 -135.5q0 -84 -54 -135q55 -41 105 -124.5t84.5 -177t69 -221.5t55 -226.5t46.5 -224.5t40 -185q5 -19 20.5 -74.5t22.5 -89.5h-167q-2 72 -23 154
t-59.5 159t-87.5 137.5t-113 92.5t-131 22q-92 -13 -155 -79.5t-52 -157.5q6 -43 29.5 -64.5t55.5 -21.5q55 0 96 46.5t23 108.5q15 1 62.5 -13t60.5 -11q22 -102 -51 -165t-170 -63q-135 0 -175 102q-35 87 12 200q46 111 137 165q54 32 112 35q40 2 85.5 -5t117.5 -40.5
t133 -91.5q-10 37 -34.5 147t-48 201.5t-56 190.5t-74 157.5t-86.5 59.5q-76 1 -143 -109t-110 -273.5t-72.5 -343t-40 -326t-3.5 -214.5h-168zM546 1358q22 6 47 6q9 0 25 -2q30 13 45.5 41.5t15.5 54.5q0 44 -29.5 73.5t-72.5 29.5q-37 0 -70.5 -25t-36.5 -78
q4 -40 24.5 -66t51.5 -34z" />
    <glyph glyph-name="AE" unicode="&#xc6;" horiz-adv-x="1744" 
d="M186 0h-168q17 42 54.5 175.5t77.5 277t102 312t126 298.5t149.5 217.5t174.5 87.5q52 0 95 -7.5t110 -33.5q53 -21 115 -21q43 0 202 13t240 5q158 -15 227 -128q42 -64 35.5 -115.5t-43.5 -90t-96.5 -64t-124.5 -38t-127 -12.5q-34 0 -64.5 4.5t-62.5 16.5t-51 37
t-19 61q0 61 52 119t112 64q2 -13 21.5 -66.5t21.5 -67.5q-42 10 -87 -12q-42 -22 -25 -48q6 -8 16 -15q36 -12 88 -12q66 0 126 17.5t98 59t22 96.5q-33 102 -195 102q-54 0 -161 -14t-145 -14q-31 0 -52 6l-27 -530q95 -14 180 -14q44 0 86 4.5t106 14t111 15.5
q3 -20 8 -58.5t9 -57.5q-194 7 -256 7q-88 0 -244 -9q7 -265 27 -473q139 -28 251 -28q40 0 86 3.5t75 7t93.5 12.5t92.5 13q4 -19 8.5 -58t7.5 -59q-89 6 -203 6q-55 0 -277.5 -7t-293.5 1q7 85 7 135q0 33 -5 131q-4 79 -38.5 144.5t-83 103t-99 56.5t-90.5 14
q-91 -11 -153.5 -78.5t-53.5 -159.5q6 -43 29.5 -64.5t56.5 -21.5q55 0 96 46.5t23 109.5q13 1 61.5 -13.5t61.5 -11.5q14 -68 -18.5 -122t-87.5 -79.5t-116 -25.5q-134 0 -174 103q-35 87 12 201q46 111 137 165q53 31 111 33q27 1 47 0t53 -5t61 -15.5t60 -29.5
t61.5 -49.5t53.5 -72.5q4 96 4 325q-1 123 -7.5 201.5t-22 137.5t-44 85t-71.5 26q-31 0 -68 -12q-75 -24 -153.5 -141.5t-139 -276.5t-107.5 -327.5t-70 -307.5t-17 -204z" />
    <glyph glyph-name="Ccedilla" unicode="&#xc7;" horiz-adv-x="1204" 
d="M620 -43q-99 -5 -187 33.5t-151 107t-108.5 158t-68 186t-22.5 189.5q0 96 22.5 195t70 193t113.5 168t161 118.5t204 44.5q87 0 173.5 -29.5t153.5 -78.5t109 -118.5t42 -144.5q0 -103 -88 -156t-224 -53q-44 0 -92 5t-104 17t-91 38t-34 63q1 53 31.5 102.5t65.5 79
t91 68.5l76 -119q-73 -34 -101.5 -67t-14.5 -56t58.5 -37t110.5 -14q176 0 217 121q-2 91 -59.5 160.5t-142.5 103t-181 33.5q-90 0 -162.5 -43t-116.5 -109t-73.5 -152t-41 -165.5t-11.5 -155.5q0 -56 3.5 -107t14 -113.5t28 -115t48 -103.5t70.5 -86.5t98.5 -57
t130.5 -21.5q86 0 152.5 27t106 67t67 100t39 112.5t18.5 117.5q14 0 76 -7t76 -7q3 -101 -35 -191.5t-103 -154t-152 -102t-181 -41.5v-74q19 16 52 16q58 0 109.5 -44.5t51.5 -114.5q0 -86 -55 -132t-131 -46q-96 0 -152 86q10 7 40.5 39.5t43.5 40.5q3 -4 15 -24.5
t18.5 -28.5t20 -17.5t28.5 -9.5q35 0 57.5 25.5t22.5 64.5q0 40 -20.5 60t-53.5 20q-22 0 -49 -19.5t-39 -19.5q-16 0 -27.5 11t-13.5 32v132z" />
    <glyph glyph-name="Egrave" unicode="&#xc8;" horiz-adv-x="1089" 
d="M95 1339q70 -33 201 -33q59 0 190.5 9t195.5 9q126 0 212.5 -27.5t130.5 -100.5q32 -53 32 -93q0 -79 -81.5 -134.5t-202.5 -77.5q-81 -15 -155 -15q-199 0 -199 119q0 61 52 119t112 64q2 -13 21.5 -66.5t21.5 -67.5q-43 10 -87 -13q-43 -22 -24 -49q5 -7 15 -13
q34 -12 93 -12q74 0 145 17.5t118 59t31 96.5q-33 102 -228 102q-66 0 -191.5 -14t-165.5 -14q-33 0 -54 6l-27 -530q101 -14 195 -14q44 0 95.5 3.5t83.5 7t99.5 12t95.5 11.5q3 -20 8.5 -58.5t8.5 -57.5q-168 6 -299 6q-121 0 -287 -8q7 -265 27 -473q139 -28 281 -28
q129 0 403 36q4 -19 8.5 -58t7.5 -59q-89 6 -216 6q-63 0 -323 -7t-321 1q13 156 16.5 330.5t-3.5 359.5t-15 324t-21 325zM615 1427q-8 16 -17.5 31.5t-23 30.5t-23 25.5t-29 25.5t-28 22t-32 22.5t-30 19.5t-34 20.5t-31.5 19.5l103 113q57 -87 108 -144.5t115 -95.5
q-10 -10 -40.5 -46.5t-37.5 -43.5z" />
    <glyph glyph-name="Eacute" unicode="&#xc9;" horiz-adv-x="1089" 
d="M95 1339q70 -33 201 -33q59 0 190.5 9t195.5 9q126 0 212.5 -27.5t130.5 -100.5q32 -53 32 -93q0 -79 -81.5 -134.5t-202.5 -77.5q-81 -15 -155 -15q-199 0 -199 119q0 61 52 119t112 64q2 -13 21.5 -66.5t21.5 -67.5q-43 10 -87 -13q-43 -22 -24 -49q5 -7 15 -13
q34 -12 93 -12q74 0 145 17.5t118 59t31 96.5q-33 102 -228 102q-66 0 -191.5 -14t-165.5 -14q-33 0 -54 6l-27 -530q101 -14 195 -14q44 0 95.5 3.5t83.5 7t99.5 12t95.5 11.5q3 -20 8.5 -58.5t8.5 -57.5q-168 6 -299 6q-121 0 -287 -8q7 -265 27 -473q139 -28 281 -28
q129 0 403 36q4 -19 8.5 -58t7.5 -59q-89 6 -216 6q-63 0 -323 -7t-321 1q13 156 16.5 330.5t-3.5 359.5t-15 324t-21 325zM454 1446q-72 84 -78 90q63 37 115 94.5t109 145.5l102 -113q-4 -3 -31.5 -19.5t-34 -20.5t-30 -19.5t-32 -22.5t-28 -22t-29 -25.5t-23 -25.5
t-23 -30.5t-17.5 -31.5z" />
    <glyph glyph-name="Ecircumflex" unicode="&#xca;" horiz-adv-x="1089" 
d="M95 1339q70 -33 201 -33q59 0 190.5 9t195.5 9q126 0 212.5 -27.5t130.5 -100.5q32 -53 32 -93q0 -79 -81.5 -134.5t-202.5 -77.5q-81 -15 -155 -15q-199 0 -199 119q0 61 52 119t112 64q2 -13 21.5 -66.5t21.5 -67.5q-43 10 -87 -13q-43 -22 -24 -49q5 -7 15 -13
q34 -12 93 -12q74 0 145 17.5t118 59t31 96.5q-33 102 -228 102q-66 0 -191.5 -14t-165.5 -14q-33 0 -54 6l-27 -530q101 -14 195 -14q44 0 95.5 3.5t83.5 7t99.5 12t95.5 11.5q3 -20 8.5 -58.5t8.5 -57.5q-168 6 -299 6q-121 0 -287 -8q7 -265 27 -473q139 -28 281 -28
q129 0 403 36q4 -19 8.5 -58t7.5 -59q-89 6 -216 6q-63 0 -323 -7t-321 1q13 156 16.5 330.5t-3.5 359.5t-15 324t-21 325zM263 1551q4 3 31.5 19.5t34 20.5t30 19.5t32 22.5t28 22t29 25.5t23 25.5t23 30.5t17.5 31.5q9 -19 22.5 -37t23.5 -31t31.5 -30.5t29.5 -25t36 -26
t33.5 -22t38.5 -24t35 -21.5l-102 -113q-46 71 -77 110.5t-71 71.5q-38 -31 -69.5 -72t-75.5 -110z" />
    <glyph glyph-name="Edieresis" unicode="&#xcb;" horiz-adv-x="1089" 
d="M95 1339q70 -33 201 -33q59 0 190.5 9t195.5 9q126 0 212.5 -27.5t130.5 -100.5q32 -53 32 -93q0 -79 -81.5 -134.5t-202.5 -77.5q-81 -15 -155 -15q-199 0 -199 119q0 61 52 119t112 64q2 -13 21.5 -66.5t21.5 -67.5q-43 10 -87 -13q-43 -22 -24 -49q5 -7 15 -13
q34 -12 93 -12q74 0 145 17.5t118 59t31 96.5q-33 102 -228 102q-66 0 -191.5 -14t-165.5 -14q-33 0 -54 6l-27 -530q101 -14 195 -14q44 0 95.5 3.5t83.5 7t99.5 12t95.5 11.5q3 -20 8.5 -58.5t8.5 -57.5q-168 6 -299 6q-121 0 -287 -8q7 -265 27 -473q139 -28 281 -28
q129 0 403 36q4 -19 8.5 -58t7.5 -59q-89 6 -216 6q-63 0 -323 -7t-321 1q13 156 16.5 330.5t-3.5 359.5t-15 324t-21 325zM581 1527q1 -2 4 3q22 45 27 53q28 39 61 39q9 0 19 -2t30 -9.5t32.5 -29t12.5 -54.5q0 -20 -8 -35.5t-18.5 -22t-23.5 -10.5t-18.5 -4.5t-9.5 -0.5
q-44 0 -76 18.5t-32 54.5zM238 1527q1 -2 5 4q22 45 25 49q28 42 63 42q6 0 12.5 -0.5t22.5 -5.5t27 -14t20.5 -28.5t9.5 -46.5q0 -20 -8 -35t-17.5 -22t-22.5 -11t-18.5 -4.5t-9.5 -0.5q-44 0 -76.5 18t-32.5 55z" />
    <glyph glyph-name="Igrave" unicode="&#xcc;" horiz-adv-x="360" 
d="M294 0q-14 0 -94.5 -2t-93.5 -2q13 200 20.5 327t14.5 319t3.5 364.5t-16.5 328.5q26 -1 86.5 2.5t87.5 1.5q-41 -314 -41.5 -681.5t33.5 -657.5zM244 1454q-8 16 -17.5 31.5t-23 30.5t-23 25.5t-29 25.5t-28 22t-32 22.5t-30 19.5t-34 20.5t-31.5 19.5l103 113
q57 -87 108 -144.5t115 -95.5q-10 -10 -40.5 -46.5t-37.5 -43.5z" />
    <glyph glyph-name="Iacute" unicode="&#xcd;" horiz-adv-x="360" 
d="M106 -4q13 200 20.5 327t14.5 319t3.5 364.5t-16.5 328.5q26 -1 86.5 2.5t87.5 1.5q-41 -314 -41.5 -681.5t33.5 -657.5q-14 0 -94.5 -2t-93.5 -2zM86 1544q63 37 115 94.5t109 145.5l102 -113q-4 -3 -31.5 -19.5t-34 -20.5t-30 -19.5t-32 -22.5t-28 -22t-29 -25.5
t-23 -25.5t-23 -30.5t-17.5 -31.5q-72 84 -78 90z" />
    <glyph glyph-name="Icircumflex" unicode="&#xce;" horiz-adv-x="360" 
d="M106 -4q13 200 20.5 327t14.5 319t3.5 364.5t-16.5 328.5q26 -1 86.5 2.5t87.5 1.5q-41 -314 -41.5 -681.5t33.5 -657.5q-14 0 -94.5 -2t-93.5 -2zM64 1428l-103 113q4 3 31.5 19.5t34 20.5t30 19.5t32 22.5t28 22t29 25.5t23 25.5t23 30.5t17.5 31.5q9 -19 22.5 -37
t23.5 -31t31.5 -30.5t29.5 -25t36 -26t33.5 -22t38.5 -24t35 -21.5l-102 -113q-46 71 -77 110.5t-71 71.5q-38 -31 -69.5 -72t-75.5 -110z" />
    <glyph glyph-name="Idieresis" unicode="&#xcf;" horiz-adv-x="360" 
d="M106 -4q13 200 20.5 327t14.5 319t3.5 364.5t-16.5 328.5q26 -1 86.5 2.5t87.5 1.5q-41 -314 -41.5 -681.5t33.5 -657.5q-14 0 -94.5 -2t-93.5 -2zM288 1536q1 -2 4 3q22 45 27 53q28 39 61 39q9 0 19 -2t30 -9.5t32.5 -29t12.5 -54.5q0 -20 -8 -35.5t-18.5 -22
t-23.5 -10.5t-18.5 -4.5t-9.5 -0.5q-44 0 -76 18.5t-32 54.5zM54 1463q-44 0 -76.5 18t-32.5 55q1 -2 5 4q22 45 25 49q28 42 63 42q6 0 12.5 -0.5t22.5 -5.5t27 -14t20.5 -28.5t9.5 -46.5q0 -20 -8 -35t-17.5 -22t-22.5 -11t-18.5 -4.5t-9.5 -0.5z" />
    <glyph glyph-name="Eth" unicode="&#xd0;" horiz-adv-x="1214" 
d="M-93 633l-4 110q31 -3 213 -14q7 350 -14 606q26 -1 87 2.5t87 1.5q-36 -262 -41 -612q147 -3 430 14q4 -35 4 -110q-292 21 -434 18q0 -289 33 -567q53 -5 95 -5q99 0 189.5 23.5t168 70.5t133.5 125.5t79 180.5q16 76 20 169t-10 196t-44 194t-87.5 165t-134.5 108
q-72 30 -142 30q-40 0 -71 -10.5t-53.5 -34.5t-25.5 -63.5t14 -97.5q43 -60 90 -60q20 0 44.5 12t41.5 25t50 40.5t48 39.5q85 -111 88 -115q-37 -26 -54 -37.5t-50 -30.5t-62.5 -27t-59.5 -8q-19 0 -44 5q-120 31 -166 125t10 207q50 93 218 93q131 0 223 -46
q91 -48 159.5 -128.5t106.5 -174.5t56.5 -198.5t14.5 -204t-26 -187.5t-88.5 -172.5t-168.5 -154t-249.5 -108t-312.5 -28.5q-14 0 -95 -2t-94 -2q26 340 35 649q-160 -8 -207 -12z" />
    <glyph glyph-name="Ntilde" unicode="&#xd1;" horiz-adv-x="1110" 
d="M272 4l-189 -4q62 865 23 1339q28 0 87 2t87 2q-12 -83 -25 -239q44 114 130 184t204 68q168 -3 278.5 -84.5t147.5 -214.5q24 -104 19.5 -209t-29 -239t-52 -244.5t-49.5 -226.5t-22 -185q0 -104 41 -188t121 -95q66 -10 89 60q18 57 -3 114q-18 48 -50 43
q-13 -2 -21.5 -17.5t-11 -30t-5 -36t-2.5 -22.5q-14 2 -59 56.5t-58 56.5q6 43 34.5 70.5t79.5 27.5q79 0 134 -63.5t55 -147.5q0 -72 -47.5 -132.5t-128.5 -60.5q-54 0 -100 22t-76.5 59t-55.5 85.5t-37 101.5t-20.5 107t-7 101.5t3.5 85.5q7 66 26.5 162.5t39.5 182
t38 185t26 181t-1.5 159.5t-39.5 130.5t-92.5 84.5t-156.5 31q-81 -1 -145 -46t-102.5 -113.5t-64 -158t-35 -171.5t-9.5 -163q0 -319 31 -610zM235 1540q44 78 101.5 140.5t115.5 62.5q45 -2 78.5 -25t89.5 -82q66 -69 145 -73q113 0 125 127q17 -7 30.5 -13.5t18.5 -9
t13.5 -5.5t23.5 -7q-19 -33 -40.5 -64.5t-50.5 -64t-62 -52.5t-64 -20q-39 0 -71.5 18.5t-56.5 45.5t-48.5 54t-59.5 45.5t-77 18.5q-66 0 -94 -38t-31 -87q-9 3 -39.5 16t-46.5 13z" />
    <glyph glyph-name="Ograve" unicode="&#xd2;" horiz-adv-x="1138" 
d="M87 702q-1 57 6 112t14.5 94.5t27.5 90t30.5 75.5t39.5 74t38 62.5t41 63.5l69 -41q-108 -165 -108 -528q0 -131 20.5 -245.5t62.5 -210.5t115.5 -152t170.5 -56q68 0 123.5 28t92 78t62.5 110.5t40 132.5t20 136.5t6 130.5q0 103 -18 205.5t-54.5 196.5t-102 152.5
t-151.5 58.5q-44 0 -101 -79q-62 -85 -70 -159q-8 -76 58 -76q54 0 111 66.5t72 120.5q0 2 -2 8q13 0 62.5 -46t61.5 -46q-1 0 -63 -46.5t-146.5 -93.5t-141.5 -47q-97 0 -97 140q0 39 14.5 92.5t42.5 110t79 95t114 38.5q82 0 152.5 -30t121 -82.5t89 -121t62 -149.5
t35.5 -163.5t13 -166.5q2 -185 -55.5 -337.5t-169.5 -245.5t-258 -93q-110 0 -207.5 55.5t-168 152.5t-111.5 236t-42 299zM554 1462q-8 16 -17.5 31.5t-23 30.5t-23 25.5t-29 25.5t-28 22t-32 22.5t-30 19.5t-34 20.5t-31.5 19.5l103 113q57 -87 108 -144.5t115 -95.5
q-10 -10 -40.5 -46.5t-37.5 -43.5z" />
    <glyph glyph-name="Oacute" unicode="&#xd3;" horiz-adv-x="1138" 
d="M87 702q-1 57 6 112t14.5 94.5t27.5 90t30.5 75.5t39.5 74t38 62.5t41 63.5l69 -41q-108 -165 -108 -528q0 -131 20.5 -245.5t62.5 -210.5t115.5 -152t170.5 -56q68 0 123.5 28t92 78t62.5 110.5t40 132.5t20 136.5t6 130.5q0 103 -18 205.5t-54.5 196.5t-102 152.5
t-151.5 58.5q-44 0 -101 -79q-62 -85 -70 -159q-8 -76 58 -76q54 0 111 66.5t72 120.5q0 2 -2 8q13 0 62.5 -46t61.5 -46q-1 0 -63 -46.5t-146.5 -93.5t-141.5 -47q-97 0 -97 140q0 39 14.5 92.5t42.5 110t79 95t114 38.5q82 0 152.5 -30t121 -82.5t89 -121t62 -149.5
t35.5 -163.5t13 -166.5q2 -185 -55.5 -337.5t-169.5 -245.5t-258 -93q-110 0 -207.5 55.5t-168 152.5t-111.5 236t-42 299zM609 1435q-72 84 -78 90q63 37 115 94.5t109 145.5l102 -113q-4 -3 -31.5 -19.5t-34 -20.5t-30 -19.5t-32 -22.5t-28 -22t-29 -25.5t-23 -25.5
t-23 -30.5t-17.5 -31.5z" />
    <glyph glyph-name="Ocircumflex" unicode="&#xd4;" horiz-adv-x="1138" 
d="M87 702q-1 57 6 112t14.5 94.5t27.5 90t30.5 75.5t39.5 74t38 62.5t41 63.5l69 -41q-108 -165 -108 -528q0 -131 20.5 -245.5t62.5 -210.5t115.5 -152t170.5 -56q68 0 123.5 28t92 78t62.5 110.5t40 132.5t20 136.5t6 130.5q0 103 -18 205.5t-54.5 196.5t-102 152.5
t-151.5 58.5q-44 0 -101 -79q-62 -85 -70 -159q-8 -76 58 -76q54 0 111 66.5t72 120.5q0 2 -2 8q13 0 62.5 -46t61.5 -46q-1 0 -63 -46.5t-146.5 -93.5t-141.5 -47q-97 0 -97 140q0 39 14.5 92.5t42.5 110t79 95t114 38.5q82 0 152.5 -30t121 -82.5t89 -121t62 -149.5
t35.5 -163.5t13 -166.5q2 -185 -55.5 -337.5t-169.5 -245.5t-258 -93q-110 0 -207.5 55.5t-168 152.5t-111.5 236t-42 299zM300 1559q4 3 31.5 19.5t34 20.5t30 19.5t32 22.5t28 22t29 25.5t23 25.5t23 30.5t17.5 31.5q9 -19 22.5 -37t23.5 -31t31.5 -30.5t29.5 -25t36 -26
t33.5 -22t38.5 -24t35 -21.5l-102 -113q-46 71 -77 110.5t-71 71.5q-38 -31 -69.5 -72t-75.5 -110z" />
    <glyph glyph-name="Otilde" unicode="&#xd5;" horiz-adv-x="1138" 
d="M87 702q-1 57 6 112t14.5 94.5t27.5 90t30.5 75.5t39.5 74t38 62.5t41 63.5l69 -41q-108 -165 -108 -528q0 -131 20.5 -245.5t62.5 -210.5t115.5 -152t170.5 -56q68 0 123.5 28t92 78t62.5 110.5t40 132.5t20 136.5t6 130.5q0 103 -18 205.5t-54.5 196.5t-102 152.5
t-151.5 58.5q-44 0 -101 -79q-62 -85 -70 -159q-8 -76 58 -76q54 0 111 66.5t72 120.5q0 2 -2 8q13 0 62.5 -46t61.5 -46q-1 0 -63 -46.5t-146.5 -93.5t-141.5 -47q-97 0 -97 140q0 39 14.5 92.5t42.5 110t79 95t114 38.5q82 0 152.5 -30t121 -82.5t89 -121t62 -149.5
t35.5 -163.5t13 -166.5q2 -185 -55.5 -337.5t-169.5 -245.5t-258 -93q-110 0 -207.5 55.5t-168 152.5t-111.5 236t-42 299zM202 1522q44 78 101.5 140.5t115.5 62.5q45 -2 78.5 -25t89.5 -82q66 -69 145 -73q113 0 125 127q17 -7 30.5 -13.5t18.5 -9t13.5 -5.5t23.5 -7
q-19 -33 -40.5 -64.5t-50.5 -64t-62 -52.5t-64 -20q-39 0 -71.5 18.5t-56.5 45.5t-48.5 54t-59.5 45.5t-77 18.5q-66 0 -94 -38t-31 -87q-9 3 -39.5 16t-46.5 13z" />
    <glyph glyph-name="Odieresis" unicode="&#xd6;" horiz-adv-x="1138" 
d="M87 702q-1 57 6 112t14.5 94.5t27.5 90t30.5 75.5t39.5 74t38 62.5t41 63.5l69 -41q-108 -165 -108 -528q0 -131 20.5 -245.5t62.5 -210.5t115.5 -152t170.5 -56q68 0 123.5 28t92 78t62.5 110.5t40 132.5t20 136.5t6 130.5q0 103 -18 205.5t-54.5 196.5t-102 152.5
t-151.5 58.5q-44 0 -101 -79q-62 -85 -70 -159q-8 -76 58 -76q54 0 111 66.5t72 120.5q0 2 -2 8q13 0 62.5 -46t61.5 -46q-1 0 -63 -46.5t-146.5 -93.5t-141.5 -47q-97 0 -97 140q0 39 14.5 92.5t42.5 110t79 95t114 38.5q82 0 152.5 -30t121 -82.5t89 -121t62 -149.5
t35.5 -163.5t13 -166.5q2 -185 -55.5 -337.5t-169.5 -245.5t-258 -93q-110 0 -207.5 55.5t-168 152.5t-111.5 236t-42 299zM686 1544q1 -2 4 3q22 45 27 53q28 39 61 39q9 0 19 -2t30 -9.5t32.5 -29t12.5 -54.5q0 -20 -8 -35.5t-18.5 -22t-23.5 -10.5t-18.5 -4.5t-9.5 -0.5
q-44 0 -76 18.5t-32 54.5zM452 1471q-44 0 -76.5 18t-32.5 55q1 -2 5 4q22 45 25 49q28 42 63 42q6 0 12.5 -0.5t22.5 -5.5t27 -14t20.5 -28.5t9.5 -46.5q0 -20 -8 -35t-17.5 -22t-22.5 -11t-18.5 -4.5t-9.5 -0.5z" />
    <glyph glyph-name="Oslash" unicode="&#xd8;" horiz-adv-x="1154" 
d="M69 702q-1 57 6 112t14.5 94.5t27.5 90t30.5 75.5t39.5 74t38 62.5t41 63.5l69 -41q-108 -165 -108 -528q0 -272 76 -443q172 324 331 678q-114 -68 -181 -68q-95 0 -95 140q0 39 14.5 92.5t42.5 110t79 95t114 38.5q97 0 182 -45q5 11 22.5 52.5t26.5 65.5
q13 -7 62.5 -29.5t58.5 -27.5q-24 -47 -74 -137q96 -100 144.5 -259t50.5 -333q2 -185 -55.5 -337.5t-169.5 -245.5t-258 -93q-152 0 -275 100q-52 -115 -78 -178l-118 58q19 34 56.5 102t57.5 102q-80 102 -125 245t-47 314zM366 156q89 -115 230 -115q68 0 123.5 28t92 78
t62.5 110.5t40 132.5t20 136.5t6 130.5q0 125 -27 250.5t-80 216.5q-3 -5 -14 -29q-117 -247 -453 -939zM614 1270q-44 0 -101 -79q-62 -85 -70 -159q-8 -76 58 -76q36 0 92 35t101 80l61 148q-64 51 -141 51z" />
    <glyph glyph-name="Ugrave" unicode="&#xd9;" horiz-adv-x="1175" 
d="M69 1071q0 51 32 118t93.5 121t130.5 54q59 0 98 -24t54.5 -65.5t20.5 -87.5t-3.5 -101t-17.5 -94.5t-21 -78.5q-99 -304 -99 -571q0 -294 195 -294q65 0 156 34q208 79 252 366q25 488 -7 887q27 -1 87 2t88 2q-41 -316 -42 -681.5t33 -657.5q-13 0 -93.5 -2t-94.5 -2
q9 131 12 170q-135 -197 -448 -197q-82 0 -140 29.5t-89.5 82t-45.5 114t-14 137.5q0 32 2.5 66.5t5 62t10.5 67.5t11.5 61.5t15.5 66.5t15.5 61t19 66t18.5 60t20 65t19 60q1 4 12 32t18.5 51.5t17.5 58t11 61.5t-3 52t-22.5 39t-49.5 14q-63 0 -118.5 -67t-55.5 -130
q0 -104 36 -104q18 0 33 24.5t12.5 56.5t-28.5 50l113 59q32 -47 28 -95t-28.5 -87t-63 -64t-76.5 -25q-48 0 -79 43t-31 134zM796 1419q-8 16 -17.5 31.5t-23 30.5t-23 25.5t-29 25.5t-28 22t-32 22.5t-30 19.5t-34 20.5t-31.5 19.5l103 113q57 -87 108 -144.5t115 -95.5
q-10 -10 -40.5 -46.5t-37.5 -43.5z" />
    <glyph glyph-name="Uacute" unicode="&#xda;" horiz-adv-x="1175" 
d="M81 1061q0 51 32 118t93.5 121t130.5 54q59 0 98 -24t54.5 -65.5t20.5 -87.5t-3.5 -101t-17.5 -94.5t-21 -78.5q-99 -304 -99 -571q0 -294 195 -294q65 0 156 34q208 79 252 366q25 488 -7 887q28 -1 88 2t87 2q-41 -316 -42 -681.5t33 -657.5q-13 0 -93.5 -2t-94.5 -2
q9 131 12 170q-135 -197 -448 -197q-82 0 -140 29.5t-89.5 82t-45.5 114t-14 137.5q0 32 2.5 66.5t5 62t10.5 67.5t11.5 61.5t15.5 66.5t15.5 61t19 66t18.5 60t20 65t19 60q1 4 12 32t18.5 51.5t17.5 58t11 61.5t-3 52t-22.5 39t-49.5 14q-63 0 -118.5 -67t-55.5 -130
q0 -104 36 -104q18 0 33 24.5t12.5 56.5t-28.5 50l113 59q32 -47 28 -95t-28.5 -87t-63 -64t-76.5 -25q-48 0 -79 43t-31 134zM546 1525q63 37 115 94.5t109 145.5l102 -113q-4 -3 -31.5 -19.5t-34 -20.5t-30 -19.5t-32 -22.5t-28 -22t-29 -25.5t-23 -25.5t-23 -30.5
t-17.5 -31.5q-72 84 -78 90z" />
    <glyph glyph-name="Ucircumflex" unicode="&#xdb;" horiz-adv-x="1175" 
d="M67 1061q0 51 32 118t93.5 121t130.5 54q59 0 98 -24t54.5 -65.5t20.5 -87.5t-3.5 -101t-17.5 -94.5t-21 -78.5q-99 -304 -99 -571q0 -294 195 -294q65 0 156 34q208 79 252 366q25 488 -7 887q27 -1 87.5 2t87.5 2q-41 -316 -42 -681.5t33 -657.5q-13 0 -93.5 -2
t-94.5 -2q9 131 12 170q-135 -197 -448 -197q-82 0 -140 29.5t-89.5 82t-45.5 114t-14 137.5q0 32 2.5 66.5t5 62t10.5 67.5t11.5 61.5t15.5 66.5t15.5 61t19 66t18.5 60t20 65t19 60q1 4 12 32t18.5 51.5t17.5 58t11 61.5t-3 52t-22.5 39t-49.5 14q-63 0 -118.5 -67
t-55.5 -130q0 -104 36 -104q18 0 33 24.5t12.5 56.5t-28.5 50l113 59q32 -47 28 -95t-28.5 -87t-63 -64t-76.5 -25q-48 0 -79 43t-31 134zM540 1430l-103 113q4 3 31.5 19.5t34 20.5t30 19.5t32 22.5t28 22t29 25.5t23 25.5t23 30.5t17.5 31.5q9 -19 22.5 -37t23.5 -31
t31.5 -30.5t29.5 -25t36 -26t33.5 -22t38.5 -24t35 -21.5l-102 -113q-46 71 -77 110.5t-71 71.5q-38 -31 -69.5 -72t-75.5 -110z" />
    <glyph glyph-name="Udieresis" unicode="&#xdc;" horiz-adv-x="1175" 
d="M67 1061q0 51 32 118t93.5 121t130.5 54q59 0 98 -24t54.5 -65.5t20.5 -87.5t-3.5 -101t-17.5 -94.5t-21 -78.5q-99 -304 -99 -571q0 -294 195 -294q65 0 156 34q208 79 252 366q25 488 -7 887q27 -1 87.5 2t87.5 2q-41 -316 -42 -681.5t33 -657.5q-13 0 -93.5 -2
t-94.5 -2q9 131 12 170q-135 -197 -448 -197q-82 0 -140 29.5t-89.5 82t-45.5 114t-14 137.5q0 32 2.5 66.5t5 62t10.5 67.5t11.5 61.5t15.5 66.5t15.5 61t19 66t18.5 60t20 65t19 60q1 4 12 32t18.5 51.5t17.5 58t11 61.5t-3 52t-22.5 39t-49.5 14q-63 0 -118.5 -67
t-55.5 -130q0 -104 36 -104q18 0 33 24.5t12.5 56.5t-28.5 50l113 59q32 -47 28 -95t-28.5 -87t-63 -64t-76.5 -25q-48 0 -79 43t-31 134zM799 1527q1 -2 4 3q22 45 27 53q28 39 61 39q9 0 19 -2t30 -9.5t32.5 -29t12.5 -54.5q0 -20 -8 -35.5t-18.5 -22t-23.5 -10.5
t-18.5 -4.5t-9.5 -0.5q-44 0 -76 18.5t-32 54.5zM565 1454q-44 0 -76.5 18t-32.5 55q1 -2 5 4q22 45 25 49q28 42 63 42q6 0 12.5 -0.5t22.5 -5.5t27 -14t20.5 -28.5t9.5 -46.5q0 -20 -8 -35t-17.5 -22t-22.5 -11t-18.5 -4.5t-9.5 -0.5z" />
    <glyph glyph-name="Yacute" unicode="&#xdd;" horiz-adv-x="1263" 
d="M226 881q-52 0 -88 24.5t-52 65t-21.5 74t-5.5 69.5q0 58 18.5 112t62 95t103.5 43q38 1 75 -14t67.5 -38.5t64 -64.5t58.5 -78t57 -95.5t53 -100t54.5 -108t53.5 -105.5q18 30 73.5 127.5t81 141t71.5 118t85.5 132.5t81.5 112q10 -12 71 -68.5t63 -58.5
q-103 -41 -240 -222t-246 -409q0 -349 33 -629q-14 0 -95 -2t-94 -2q25 352 33 590q-40 78 -97 198t-93.5 194t-79 150.5t-78 112.5t-65.5 35q-26 -1 -45 -19.5t-28 -47t-12.5 -53.5t-3.5 -50q0 -41 16.5 -65.5t40.5 -24.5q20 0 39.5 19t33.5 57l94 -58q-22 -83 -52 -120
t-88 -37zM601 1517q63 37 115 94.5t109 145.5l102 -113q-4 -3 -31.5 -19.5t-34 -20.5t-30 -19.5t-32 -22.5t-28 -22t-29 -25.5t-23 -25.5t-23 -30.5t-17.5 -31.5q-72 84 -78 90z" />
    <glyph glyph-name="agrave" unicode="&#xe0;" horiz-adv-x="926" 
d="M453 -53q-69 0 -126.5 16t-94 42.5t-61.5 61.5t-30 73.5t1 76.5t32 73t62.5 61.5t92.5 42.5t122 16q108 0 254 -64q10 47 10 90q0 131 -79.5 206t-199.5 75q-15 0 -35 -1.5t-56.5 -8.5t-65 -19t-52 -36.5t-26.5 -57.5q-3 -27 20 -27q17 0 38.5 14.5t35.5 36.5
q12 0 36.5 -8t54 -19.5t42.5 -15.5q-15 -52 -59.5 -80t-98.5 -28q-60 0 -103.5 33.5t-43.5 93.5q0 64 50.5 112.5t118.5 69.5t138 21q172 0 287 -98t115 -259q0 -24 -16.5 -114t-16.5 -148q0 -79 82 -100l-37 -117q-91 18 -137 70q-50 -41 -119 -62.5t-135 -21.5zM440 330
q-82 0 -130 -72t-8.5 -145.5t169.5 -77.5q135 -6 203 65q-2 10 -2 15v16q0 37 16 131q-153 68 -248 68zM490 916q-8 16 -17.5 31.5t-23 30.5t-23 25.5t-29 25.5t-28 22t-32 22.5t-30 19.5t-34 20.5t-31.5 19.5l103 113q57 -87 108 -144.5t115 -95.5q-10 -10 -40.5 -46.5
t-37.5 -43.5z" />
    <glyph glyph-name="aacute" unicode="&#xe1;" horiz-adv-x="927" 
d="M467 -53q-69 0 -126.5 16t-94 42.5t-61.5 61.5t-30 73.5t1 76.5t32 73t62.5 61.5t92.5 42.5t122 16q108 0 254 -64q10 47 10 90q0 131 -79.5 206t-199.5 75q-15 0 -35 -1.5t-56.5 -8.5t-65 -19t-52 -36.5t-26.5 -57.5q-3 -27 20 -27q17 0 38.5 14.5t35.5 36.5
q12 0 36.5 -8t54 -19.5t42.5 -15.5q-15 -52 -59.5 -80t-98.5 -28q-60 0 -103.5 33.5t-43.5 93.5q0 64 50.5 112.5t118.5 69.5t138 21q172 0 287 -98t115 -259q0 -24 -16.5 -114t-16.5 -148q0 -79 82 -100l-37 -117q-91 18 -137 70q-50 -41 -119 -62.5t-135 -21.5zM454 330
q-82 0 -130 -72t-8.5 -145.5t169.5 -77.5q135 -6 203 65q-2 10 -2 15v16q0 37 16 131q-153 68 -248 68zM340 1006q63 37 115 94.5t109 145.5l102 -113q-4 -3 -31.5 -19.5t-34 -20.5t-30 -19.5t-32 -22.5t-28 -22t-29 -25.5t-23 -25.5t-23 -30.5t-17.5 -31.5q-72 84 -78 90z
" />
    <glyph glyph-name="acircumflex" unicode="&#xe2;" horiz-adv-x="913" 
d="M453 -53q-69 0 -126.5 16t-94 42.5t-61.5 61.5t-30 73.5t1 76.5t32 73t62.5 61.5t92.5 42.5t122 16q108 0 254 -64q10 47 10 90q0 131 -79.5 206t-199.5 75q-15 0 -35 -1.5t-56.5 -8.5t-65 -19t-52 -36.5t-26.5 -57.5q-3 -27 20 -27q17 0 38.5 14.5t35.5 36.5
q12 0 36.5 -8t54 -19.5t42.5 -15.5q-15 -52 -59.5 -80t-98.5 -28q-60 0 -103.5 33.5t-43.5 93.5q0 64 50.5 112.5t118.5 69.5t138 21q172 0 287 -98t115 -259q0 -24 -16.5 -114t-16.5 -148q0 -79 82 -100l-37 -117q-91 18 -137 70q-50 -41 -119 -62.5t-135 -21.5zM440 330
q-82 0 -130 -72t-8.5 -145.5t169.5 -77.5q135 -6 203 65q-2 10 -2 15v16q0 37 16 131q-153 68 -248 68zM214 1021q4 3 31.5 19.5t34 20.5t30 19.5t32 22.5t28 22t29 25.5t23 25.5t23 30.5t17.5 31.5q9 -19 22.5 -37t23.5 -31t31.5 -30.5t29.5 -25t36 -26t33.5 -22t38.5 -24
t35 -21.5l-102 -113q-46 71 -77 110.5t-71 71.5q-38 -31 -69.5 -72t-75.5 -110z" />
    <glyph glyph-name="atilde" unicode="&#xe3;" horiz-adv-x="920" 
d="M460 -53q-69 0 -126.5 16t-94 42.5t-61.5 61.5t-30 73.5t1 76.5t32 73t62.5 61.5t92.5 42.5t122 16q108 0 254 -64q10 47 10 90q0 131 -79.5 206t-199.5 75q-15 0 -35 -1.5t-56.5 -8.5t-65 -19t-52 -36.5t-26.5 -57.5q-3 -27 20 -27q17 0 38.5 14.5t35.5 36.5
q12 0 36.5 -8t54 -19.5t42.5 -15.5q-15 -52 -59.5 -80t-98.5 -28q-60 0 -103.5 33.5t-43.5 93.5q0 64 50.5 112.5t118.5 69.5t138 21q172 0 287 -98t115 -259q0 -24 -16.5 -114t-16.5 -148q0 -79 82 -100l-37 -117q-91 18 -137 70q-50 -41 -119 -62.5t-135 -21.5zM447 330
q-82 0 -130 -72t-8.5 -145.5t169.5 -77.5q135 -6 203 65q-2 10 -2 15v16q0 37 16 131q-153 68 -248 68zM93 1019q44 78 101.5 140.5t115.5 62.5q45 -2 78.5 -25t89.5 -82q66 -69 145 -73q113 0 125 127q17 -7 30.5 -13.5t18.5 -9t13.5 -5.5t23.5 -7q-19 -33 -40.5 -64.5
t-50.5 -64t-62 -52.5t-64 -20q-39 0 -71.5 18.5t-56.5 45.5t-48.5 54t-59.5 45.5t-77 18.5q-66 0 -94 -38t-31 -87q-9 3 -39.5 16t-46.5 13z" />
    <glyph glyph-name="adieresis" unicode="&#xe4;" horiz-adv-x="913" 
d="M453 -53q-69 0 -126.5 16t-94 42.5t-61.5 61.5t-30 73.5t1 76.5t32 73t62.5 61.5t92.5 42.5t122 16q108 0 254 -64q10 47 10 90q0 131 -79.5 206t-199.5 75q-15 0 -35 -1.5t-56.5 -8.5t-65 -19t-52 -36.5t-26.5 -57.5q-3 -27 20 -27q17 0 38.5 14.5t35.5 36.5
q12 0 36.5 -8t54 -19.5t42.5 -15.5q-15 -52 -59.5 -80t-98.5 -28q-60 0 -103.5 33.5t-43.5 93.5q0 64 50.5 112.5t118.5 69.5t138 21q172 0 287 -98t115 -259q0 -24 -16.5 -114t-16.5 -148q0 -79 82 -100l-37 -117q-91 18 -137 70q-50 -41 -119 -62.5t-135 -21.5zM440 330
q-82 0 -130 -72t-8.5 -145.5t169.5 -77.5q135 -6 203 65q-2 10 -2 15v16q0 37 16 131q-153 68 -248 68zM648 949q-44 0 -76 18.5t-32 54.5q1 -2 4 3q22 45 27 53q28 39 61 39q9 0 19 -2t30 -9.5t32.5 -29t12.5 -54.5q0 -20 -8 -35.5t-18.5 -22t-23.5 -10.5t-18.5 -4.5
t-9.5 -0.5zM306 949q-44 0 -76.5 18t-32.5 55q1 -2 5 4q22 45 25 49q28 42 63 42q6 0 12.5 -0.5t22.5 -5.5t27 -14t20.5 -28.5t9.5 -46.5q0 -20 -8 -35t-17.5 -22t-22.5 -11t-18.5 -4.5t-9.5 -0.5z" />
    <glyph glyph-name="aring" unicode="&#xe5;" horiz-adv-x="907" 
d="M447 -53q-69 0 -126.5 16t-94 42.5t-61.5 61.5t-30 73.5t1 76.5t32 73t62.5 61.5t92.5 42.5t122 16q108 0 254 -64q10 47 10 90q0 131 -79.5 206t-199.5 75q-15 0 -35 -1.5t-56.5 -8.5t-65 -19t-52 -36.5t-26.5 -57.5q-3 -27 20 -27q17 0 38.5 14.5t35.5 36.5
q12 0 36.5 -8t54 -19.5t42.5 -15.5q-15 -52 -59.5 -80t-98.5 -28q-60 0 -103.5 33.5t-43.5 93.5q0 64 50.5 112.5t118.5 69.5t138 21q172 0 287 -98t115 -259q0 -24 -16.5 -114t-16.5 -148q0 -79 82 -100l-37 -117q-91 18 -137 70q-50 -41 -119 -62.5t-135 -21.5zM280 1035
q8 88 62.5 135.5t128.5 47.5t129 -49.5t55 -135.5q0 -87 -56 -136.5t-133 -49.5q-72 0 -125 45.5t-61 130.5v12zM434 330q-82 0 -130 -72t-8.5 -145.5t169.5 -77.5q135 -6 203 65q-2 10 -2 15v16q0 37 16 131q-153 68 -248 68zM362 1033q5 -49 34 -76.5t70 -27.5
q52 0 78.5 33.5t26.5 70.5q0 44 -29.5 73.5t-72.5 29.5q-37 0 -70.5 -25t-36.5 -78z" />
    <glyph glyph-name="ae" unicode="&#xe6;" horiz-adv-x="1461" 
d="M442 -53q-69 0 -126.5 16t-94 42.5t-61.5 61.5t-30 73.5t1 76.5t32 73t62.5 61.5t92.5 42.5t122 16q108 0 254 -64q10 47 10 90q0 131 -79.5 206t-198.5 75q-15 0 -35 -1.5t-56.5 -8.5t-65.5 -19t-52.5 -36.5t-26.5 -57.5q-3 -28 20 -28q17 0 39 15.5t35 36.5
q12 0 36.5 -8t54 -19.5t42.5 -15.5q-15 -52 -59.5 -80t-98.5 -28q-60 0 -103.5 33.5t-43.5 93.5q0 64 50.5 112.5t118.5 69.5t138 21q100 0 184.5 -36t141.5 -102q33 60 110 101t167 41q84 -1 147.5 -32.5t101 -84.5t57.5 -112t25 -126q-4 -36 -43 -43h-493
q-9 -65 -3.5 -128.5t22.5 -113.5t64 -81t119 -31q54 0 111 26t96 73t37 98q-1 18 -18 27t-43 9q-38 0 -71 -15.5t-37.5 -40.5t44.5 -56l-96 -57q-25 29 -36 55.5t-11 67.5q0 61 51 95t121 34q72 0 125 -36t53 -100q0 -81 -50 -143t-127.5 -92t-164.5 -27q-197 11 -266 86
q-55 -41 -145 -73.5t-150 -32.5zM430 330q-83 0 -131 -72t-9 -145.5t170 -77.5q61 -4 128.5 19t101.5 59q3 3 1 14t-6 20t-7 40.5t-1 74.5q-149 68 -247 68zM1028 719q-76 2 -141.5 -53t-80.5 -125q4 -10 11 -56l415 -4q-3 60 -24.5 111.5t-68 88.5t-111.5 38z" />
    <glyph glyph-name="ccedilla" unicode="&#xe7;" horiz-adv-x="907" 
d="M426 -38q-157 16 -252 129t-95 263q0 112 45.5 211t137 164.5t210.5 65.5q80 0 159 -30.5t133 -89.5t54 -130q0 -64 -53 -100.5t-124 -36.5q-52 0 -94.5 20.5t-61.5 60.5l106 82q11 -26 38.5 -46t52.5 -20q26 0 38 25q21 46 -14.5 89t-96 66.5t-118.5 25.5
q-75 2 -134.5 -53.5t-89.5 -137t-30 -166.5q0 -81 22.5 -150.5t77 -118t133.5 -48.5q107 0 190 63t95 168q13 -2 39.5 -7t40.5 -7q-16 -131 -107.5 -207.5t-219.5 -86.5v-57q19 16 52 16q58 0 109.5 -44.5t51.5 -114.5q0 -86 -55 -132t-131 -46q-96 0 -152 86
q10 7 40.5 39.5t43.5 40.5q3 -4 15 -24.5t18.5 -28.5t20 -17.5t28.5 -9.5q35 0 57.5 25.5t22.5 64.5q0 40 -20.5 60t-53.5 20q-22 0 -49 -19.5t-39 -19.5q-16 0 -27.5 11t-13.5 32v120z" />
    <glyph glyph-name="egrave" unicode="&#xe8;" horiz-adv-x="866" 
d="M438 -41q-185 8 -275 124.5t-90 301.5q0 78 26 151.5t73.5 131t121.5 92t162 33.5q67 -1 122.5 -22.5t91.5 -56t62 -81t39 -95t17 -100.5q-3 -37 -43 -43h-533q-5 -29 0.5 -72t23.5 -92.5t45.5 -91.5t73 -70t99.5 -28t111 26t96 73t37 98q-1 18 -18 27t-43 9
q-39 0 -72 -15.5t-37.5 -40.5t45.5 -56l-96 -58q-26 31 -37 57t-11 66q0 61 51 94.5t121 33.5q73 0 126 -35t53 -99q0 -81 -50 -143t-127.5 -92t-164.5 -27zM462 711q-98 0 -163 -66t-87 -166l455 -6q-4 94 -57 166t-148 72zM518 910q-8 16 -17.5 31.5t-23 30.5t-23 25.5
t-29 25.5t-28 22t-32 22.5t-30 19.5t-34 20.5t-31.5 19.5l103 113q57 -87 108 -144.5t115 -95.5q-10 -10 -40.5 -46.5t-37.5 -43.5z" />
    <glyph glyph-name="eacute" unicode="&#xe9;" horiz-adv-x="850" 
d="M66 385q0 78 26 151.5t73.5 131t121.5 92t162 33.5q67 -1 122.5 -22.5t91.5 -56t62 -81t39 -95t17 -100.5q-3 -37 -43 -43h-533q-5 -29 0.5 -72t23.5 -92.5t45.5 -91.5t73 -70t99.5 -28t111 26t96 73t37 98q-1 18 -18 27t-43 9q-39 0 -72 -15.5t-37.5 -40.5t45.5 -56
l-96 -58q-26 31 -37 57t-11 66q0 61 51 94.5t121 33.5q73 0 126 -35t53 -99q0 -81 -50 -143t-127.5 -92t-164.5 -27q-185 8 -275 124.5t-90 301.5zM455 711q-98 0 -163 -66t-87 -166l455 -6q-4 94 -57 166t-148 72zM261 1035q63 37 115 94.5t109 145.5l102 -113
q-4 -3 -31.5 -19.5t-34 -20.5t-30 -19.5t-32 -22.5t-28 -22t-29 -25.5t-23 -25.5t-23 -30.5t-17.5 -31.5q-72 84 -78 90z" />
    <glyph glyph-name="ecircumflex" unicode="&#xea;" horiz-adv-x="831" 
d="M456 -41q-185 8 -275 124.5t-90 301.5q0 78 26 151.5t73.5 131t121.5 92t162 33.5q67 -1 122.5 -22.5t91.5 -56t62 -81t39 -95t17 -100.5q-3 -37 -43 -43h-533q-5 -29 0.5 -72t23.5 -92.5t45.5 -91.5t73 -70t99.5 -28t111 26t96 73t37 98q-1 18 -18 27t-43 9
q-39 0 -72 -15.5t-37.5 -40.5t45.5 -56l-96 -58q-26 31 -37 57t-11 66q0 61 51 94.5t121 33.5q73 0 126 -35t53 -99q0 -81 -50 -143t-127.5 -92t-164.5 -27zM230 479l455 -6q-4 94 -57 166t-148 72q-98 0 -163 -66t-87 -166zM192 976q4 3 31.5 19.5t34 20.5t30 19.5t32 22.5
t28 22t29 25.5t23 25.5t23 30.5t17.5 31.5q9 -19 22.5 -37t23.5 -31t31.5 -30.5t29.5 -25t36 -26t33.5 -22t38.5 -24t35 -21.5l-102 -113q-46 71 -77 110.5t-71 71.5q-38 -31 -69.5 -72t-75.5 -110z" />
    <glyph glyph-name="edieresis" unicode="&#xeb;" horiz-adv-x="854" 
d="M442 -41q-185 8 -275 124.5t-90 301.5q0 78 26 151.5t73.5 131t121.5 92t162 33.5q67 -1 122.5 -22.5t91.5 -56t62 -81t39 -95t17 -100.5q-3 -37 -43 -43h-533q-5 -29 0.5 -72t23.5 -92.5t45.5 -91.5t73 -70t99.5 -28t111 26t96 73t37 98q-1 18 -18 27t-43 9
q-39 0 -72 -15.5t-37.5 -40.5t45.5 -56l-96 -58q-26 31 -37 57t-11 66q0 61 51 94.5t121 33.5q73 0 126 -35t53 -99q0 -81 -50 -143t-127.5 -92t-164.5 -27zM216 479l455 -6q-4 94 -57 166t-148 72q-98 0 -163 -66t-87 -166zM603 909q-44 0 -76 18.5t-32 54.5q1 -2 4 3
q22 45 27 53q28 39 61 39q9 0 19 -2t30 -9.5t32.5 -29t12.5 -54.5q0 -20 -8 -35.5t-18.5 -22t-23.5 -10.5t-18.5 -4.5t-9.5 -0.5zM261 909q-44 0 -76.5 18t-32.5 55q1 -2 5 4q22 45 25 49q28 42 63 42q6 0 12.5 -0.5t22.5 -5.5t27 -14t20.5 -28.5t9.5 -46.5q0 -20 -8 -35
t-17.5 -22t-22.5 -11t-18.5 -4.5t-9.5 -0.5z" />
    <glyph glyph-name="igrave" unicode="&#xec;" horiz-adv-x="516" 
d="M163 555l-80 14q11 56 30 104.5t55.5 88t82.5 39.5q174 0 174 -586q0 -18 -1 -53t-0.5 -53t2 -42t7.5 -40t15 -27q-7 1 -43 1q-21 0 -69 -1t-69.5 -1.5t-42.5 1.5q11 9 22 53.5t19 109.5t14 141t7.5 150t-0.5 135t-11 98t-24 36q-30 -5 -48.5 -31t-25 -53.5t-12.5 -67.5
q-1 -11 -2 -16zM69 1133l103 113q57 -87 108 -144.5t115 -95.5q-10 -10 -40.5 -46.5t-37.5 -43.5q-8 16 -17.5 31.5t-23 30.5t-23 25.5t-29 25.5t-28 22t-32 22.5t-30 19.5t-34 20.5t-31.5 19.5z" />
    <glyph glyph-name="iacute" unicode="&#xed;" horiz-adv-x="516" 
d="M83 569q11 56 30 104.5t55.5 88t82.5 39.5q174 0 174 -586q0 -18 -1 -53t-0.5 -53t2 -42t7.5 -40t15 -27q-7 1 -43 1q-21 0 -69 -1t-69.5 -1.5t-42.5 1.5q11 9 22 53.5t19 109.5t14 141t7.5 150t-0.5 135t-11 98t-24 36q-30 -5 -48.5 -31t-25 -53.5t-12.5 -67.5
q-1 -11 -2 -16zM202 924q-72 84 -78 90q63 37 115 94.5t109 145.5l102 -113q-4 -3 -31.5 -19.5t-34 -20.5t-30 -19.5t-32 -22.5t-28 -22t-29 -25.5t-23 -25.5t-23 -30.5t-17.5 -31.5z" />
    <glyph glyph-name="icircumflex" unicode="&#xee;" horiz-adv-x="516" 
d="M83 569q11 56 30 104.5t55.5 88t82.5 39.5q174 0 174 -586q0 -18 -1 -53t-0.5 -53t2 -42t7.5 -40t15 -27q-7 1 -43 1q-21 0 -69 -1t-69.5 -1.5t-42.5 1.5q11 9 22 53.5t19 109.5t14 141t7.5 150t-0.5 135t-11 98t-24 36q-30 -5 -48.5 -31t-25 -53.5t-12.5 -67.5
q-1 -11 -2 -16zM38 1021q4 3 31.5 19.5t34 20.5t30 19.5t32 22.5t28 22t29 25.5t23 25.5t23 30.5t17.5 31.5q9 -19 22.5 -37t23.5 -31t31.5 -30.5t29.5 -25t36 -26t33.5 -22t38.5 -24t35 -21.5l-102 -113q-46 71 -77 110.5t-71 71.5q-38 -31 -69.5 -72t-75.5 -110z" />
    <glyph glyph-name="idieresis" unicode="&#xef;" horiz-adv-x="516" 
d="M83 569q11 56 30 104.5t55.5 88t82.5 39.5q174 0 174 -586q0 -18 -1 -53t-0.5 -53t2 -42t7.5 -40t15 -27q-7 1 -43 1q-21 0 -69 -1t-69.5 -1.5t-42.5 1.5q11 9 22 53.5t19 109.5t14 141t7.5 150t-0.5 135t-11 98t-24 36q-30 -5 -48.5 -31t-25 -53.5t-12.5 -67.5
q-1 -11 -2 -16zM349 1031q1 -2 4 3q22 45 27 53q28 39 61 39q9 0 19 -2t30 -9.5t32.5 -29t12.5 -54.5q0 -20 -8 -35.5t-18.5 -22t-23.5 -10.5t-18.5 -4.5t-9.5 -0.5q-44 0 -76 18.5t-32 54.5zM115 958q-44 0 -76.5 18t-32.5 55q1 -2 5 4q22 45 25 49q28 42 63 42
q6 0 12.5 -0.5t22.5 -5.5t27 -14t20.5 -28.5t9.5 -46.5q0 -20 -8 -35t-17.5 -22t-22.5 -11t-18.5 -4.5t-9.5 -0.5z" />
    <glyph glyph-name="eth" unicode="&#xf0;" horiz-adv-x="929" 
d="M420 0q-106 0 -187.5 51t-123 129t-50.5 173.5t17.5 182t95 156.5t168.5 96q40 11 85 11q85 0 152.5 -44.5t98 -110.5t16.5 -149t-80 -153q-9 7 -54 48t-54 48q50 40 61.5 88t-9 86t-65.5 64t-100 26q-50 0 -100 -22q-70 -32 -113.5 -85.5t-56 -112t1 -118.5t49.5 -108
t98.5 -78t139.5 -30q34 0 71 6q62 10 109.5 34.5t78 57t50 78t28 90t10 101t-2 104t-11.5 104.5q-28 194 -201 321q-86 -59 -229 -167l-53 86q165 92 217 124q-95 55 -221 91l84 135q150 -55 252 -154q44 28 247 176q15 -19 56 -86q-165 -88 -254 -143q165 -190 182 -512
q4 -87 -6 -168.5t-38.5 -160t-73.5 -136.5t-118.5 -93.5t-166.5 -35.5z" />
    <glyph glyph-name="ntilde" unicode="&#xf1;" horiz-adv-x="991" 
d="M75 569q8 41 20.5 78t32.5 73.5t49.5 58.5t65.5 22q85 0 125 -101q86 93 229 93q94 0 173.5 -46.5t115.5 -132.5q25 -61 37 -142t13 -128t1 -162q0 -50 4.5 -73t28.5 -109h-197q31 79 31 238q0 102 -9 177t-38 148t-78.5 111t-106.5 38q-54 0 -102 -35t-76 -99
q8 -85 8 -172v-187q0 -176 37 -219q-7 1 -42 1q-21 0 -69 -1t-69.5 -1.5t-42.5 1.5q20 20 38.5 202t17.5 354t-29 167q-30 -5 -48.5 -31t-25 -53.5t-12.5 -67.5q-1 -11 -2 -16zM190 984q44 78 101.5 140.5t115.5 62.5q45 -2 78.5 -25t89.5 -82q66 -69 145 -73q113 0 125 127
q17 -7 30.5 -13.5t18.5 -9t13.5 -5.5t23.5 -7q-19 -33 -40.5 -64.5t-50.5 -64t-62 -52.5t-64 -20q-39 0 -71.5 18.5t-56.5 45.5t-48.5 54t-59.5 45.5t-77 18.5q-66 0 -94 -38t-31 -87q-9 3 -39.5 16t-46.5 13z" />
    <glyph glyph-name="ograve" unicode="&#xf2;" horiz-adv-x="933" 
d="M515 -45q-119 0 -218.5 62t-153 158.5t-50.5 201.5q2 165 113 283.5t280 132.5l4 -82q-124 -11 -188.5 -107t-64.5 -227q0 -60 16 -117.5t47 -108t84.5 -81.5t120.5 -31q78 0 138.5 49.5t90 124t29.5 156.5q0 45 -7 92t-21 92t-40 73.5t-59 28.5q-28 0 -60.5 -37
t-56.5 -89t-42.5 -108t-19.5 -95t13 -50q18 -8 34 2.5t28 35.5t19 47t13 49q7 -3 32.5 -15.5t47.5 -22.5t33 -14q-19 -62 -77 -112.5t-120 -50.5q-104 0 -104 135q0 85 36 181t93.5 162t113.5 66q123 0 207 -108.5t84 -253.5q0 -111 -53 -208t-144.5 -155.5t-197.5 -58.5z
M589 957q-8 16 -17.5 31.5t-23 30.5t-23 25.5t-29 25.5t-28 22t-32 22.5t-30 19.5t-34 20.5t-31.5 19.5l103 113q57 -87 108 -144.5t115 -95.5q-10 -10 -40.5 -46.5t-37.5 -43.5z" />
    <glyph glyph-name="oacute" unicode="&#xf3;" horiz-adv-x="933" 
d="M515 -45q-119 0 -218.5 62t-153 158.5t-50.5 201.5q2 165 113 283.5t280 132.5l4 -82q-124 -11 -188.5 -107t-64.5 -227q0 -60 16 -117.5t47 -108t84.5 -81.5t120.5 -31q78 0 138.5 49.5t90 124t29.5 156.5q0 45 -7 92t-21 92t-40 73.5t-59 28.5q-28 0 -60.5 -37
t-56.5 -89t-42.5 -108t-19.5 -95t13 -50q18 -8 34 2.5t28 35.5t19 47t13 49q7 -3 32.5 -15.5t47.5 -22.5t33 -14q-19 -62 -77 -112.5t-120 -50.5q-104 0 -104 135q0 85 36 181t93.5 162t113.5 66q123 0 207 -108.5t84 -253.5q0 -111 -53 -208t-144.5 -155.5t-197.5 -58.5z
M451 900q-72 84 -78 90q63 37 115 94.5t109 145.5l102 -113q-4 -3 -31.5 -19.5t-34 -20.5t-30 -19.5t-32 -22.5t-28 -22t-29 -25.5t-23 -25.5t-23 -30.5t-17.5 -31.5z" />
    <glyph glyph-name="ocircumflex" unicode="&#xf4;" horiz-adv-x="933" 
d="M515 -45q-119 0 -218.5 62t-153 158.5t-50.5 201.5q2 165 113 283.5t280 132.5l4 -82q-124 -11 -188.5 -107t-64.5 -227q0 -60 16 -117.5t47 -108t84.5 -81.5t120.5 -31q78 0 138.5 49.5t90 124t29.5 156.5q0 45 -7 92t-21 92t-40 73.5t-59 28.5q-28 0 -60.5 -37
t-56.5 -89t-42.5 -108t-19.5 -95t13 -50q18 -8 34 2.5t28 35.5t19 47t13 49q7 -3 32.5 -15.5t47.5 -22.5t33 -14q-19 -62 -77 -112.5t-120 -50.5q-104 0 -104 135q0 85 36 181t93.5 162t113.5 66q123 0 207 -108.5t84 -253.5q0 -111 -53 -208t-144.5 -155.5t-197.5 -58.5z
M263 985q4 3 31.5 19.5t34 20.5t30 19.5t32 22.5t28 22t29 25.5t23 25.5t23 30.5t17.5 31.5q9 -19 22.5 -37t23.5 -31t31.5 -30.5t29.5 -25t36 -26t33.5 -22t38.5 -24t35 -21.5l-102 -113q-46 71 -77 110.5t-71 71.5q-38 -31 -69.5 -72t-75.5 -110z" />
    <glyph glyph-name="otilde" unicode="&#xf5;" horiz-adv-x="933" 
d="M515 -45q-119 0 -218.5 62t-153 158.5t-50.5 201.5q2 165 113 283.5t280 132.5l4 -82q-124 -11 -188.5 -107t-64.5 -227q0 -60 16 -117.5t47 -108t84.5 -81.5t120.5 -31q78 0 138.5 49.5t90 124t29.5 156.5q0 45 -7 92t-21 92t-40 73.5t-59 28.5q-28 0 -60.5 -37
t-56.5 -89t-42.5 -108t-19.5 -95t13 -50q18 -8 34 2.5t28 35.5t19 47t13 49q7 -3 32.5 -15.5t47.5 -22.5t33 -14q-19 -62 -77 -112.5t-120 -50.5q-104 0 -104 135q0 85 36 181t93.5 162t113.5 66q123 0 207 -108.5t84 -253.5q0 -111 -53 -208t-144.5 -155.5t-197.5 -58.5z
M122 1031q44 78 101.5 140.5t115.5 62.5q45 -2 78.5 -25t89.5 -82q66 -69 145 -73q113 0 125 127q17 -7 30.5 -13.5t18.5 -9t13.5 -5.5t23.5 -7q-19 -33 -40.5 -64.5t-50.5 -64t-62 -52.5t-64 -20q-39 0 -71.5 18.5t-56.5 45.5t-48.5 54t-59.5 45.5t-77 18.5q-66 0 -94 -38
t-31 -87q-9 3 -39.5 16t-46.5 13z" />
    <glyph glyph-name="odieresis" unicode="&#xf6;" horiz-adv-x="933" 
d="M515 -45q-119 0 -218.5 62t-153 158.5t-50.5 201.5q2 165 113 283.5t280 132.5l4 -82q-124 -11 -188.5 -107t-64.5 -227q0 -60 16 -117.5t47 -108t84.5 -81.5t120.5 -31q78 0 138.5 49.5t90 124t29.5 156.5q0 45 -7 92t-21 92t-40 73.5t-59 28.5q-28 0 -60.5 -37
t-56.5 -89t-42.5 -108t-19.5 -95t13 -50q18 -8 34 2.5t28 35.5t19 47t13 49q7 -3 32.5 -15.5t47.5 -22.5t33 -14q-19 -62 -77 -112.5t-120 -50.5q-104 0 -104 135q0 85 36 181t93.5 162t113.5 66q123 0 207 -108.5t84 -253.5q0 -111 -53 -208t-144.5 -155.5t-197.5 -58.5z
M581 1022q1 -2 4 3q22 45 27 53q28 39 61 39q9 0 19 -2t30 -9.5t32.5 -29t12.5 -54.5q0 -20 -8 -35.5t-18.5 -22t-23.5 -10.5t-18.5 -4.5t-9.5 -0.5q-44 0 -76 18.5t-32 54.5zM347 949q-44 0 -76.5 18t-32.5 55q1 -2 5 4q22 45 25 49q28 42 63 42q6 0 12.5 -0.5t22.5 -5.5
t27 -14t20.5 -28.5t9.5 -46.5q0 -20 -8 -35t-17.5 -22t-22.5 -11t-18.5 -4.5t-9.5 -0.5z" />
    <glyph glyph-name="divide" unicode="&#xf7;" horiz-adv-x="1113" 
d="M63 492l-6 126q257 -18 492 -18q173 0 493 16q6 -60 6 -127q-325 23 -491 23q-208 0 -494 -20zM565 182q-43 0 -76 19t-33 55q0 -2 3 2q23 45 25 48q29 44 64 44q6 0 13 -0.5t23 -6t27.5 -14.5t21 -28t9.5 -45q0 -21 -8 -36.5t-18 -22.5t-23.5 -10.5t-18.5 -4t-9 -0.5z
M444 840q1 -2 4 3q23 46 29 54q27 37 59 37q6 0 13 -0.5t22 -6t26.5 -14t21 -28t9.5 -45.5q0 -21 -8 -36.5t-17.5 -22.5t-23 -10.5t-18.5 -4t-9 -0.5q-44 0 -76 18.5t-32 55.5z" />
    <glyph glyph-name="oslash" unicode="&#xf8;" horiz-adv-x="949" 
d="M196 74q-63 61 -97 140.5t-32 162.5q2 165 113 283.5t280 132.5l4 -82q-124 -11 -188.5 -107t-64.5 -227q0 -128 57 -217q106 130 158 198q-12 78 -11.5 136.5t16 101t34.5 70t44 44t45.5 23t38.5 6.5q47 0 95 -20q15 23 44.5 68t45.5 67q56 -47 86 -68q-18 -23 -52 -63
t-46 -55q55 -51 86.5 -128t31.5 -163q0 -111 -53 -208t-144.5 -155.5t-197.5 -58.5q-111 0 -219 61q-50 -71 -88 -127l-86 68q17 20 50.5 59t49.5 58zM325 92q63 -53 154 -53q78 0 138.5 49.5t90 124t29.5 156.5q0 124 -41 213q-181 -228 -371 -490zM610 655
q-31 0 -52.5 -32.5t-28 -68.5t-3.5 -62q39 51 113 157q-13 6 -29 6z" />
    <glyph glyph-name="ugrave" unicode="&#xf9;" horiz-adv-x="862" 
d="M429 -41q-70 -2 -125 13t-89 42.5t-59 65t-35 82t-16.5 93t-5 97.5t0.5 96q1 18 1 27q1 15 1 58q0 151 26 200q34 64 105 64q44 0 94.5 -24.5t90.5 -64.5t66 -85t24 -91t-38 -77l-104 43q33 56 36 77q2 39 -48.5 85t-90.5 46q-24 0 -31 -20q-23 -61 -33.5 -144.5t-3 -171
t30.5 -162t75 -121.5t124 -46q89 1 150.5 55t93.5 143t47 222q0 149 -21 317q28 -2 80 1.5t78 2.5q-41 -317 -42.5 -400t26.5 -382q-14 0 -84 -2t-82 -2q6 64 12 117q-87 -150 -254 -154zM294 1096l103 113q57 -87 108 -144.5t115 -95.5q-10 -10 -40.5 -46.5t-37.5 -43.5
q-8 16 -17.5 31.5t-23 30.5t-23 25.5t-29 25.5t-28 22t-32 22.5t-30 19.5t-34 20.5t-31.5 19.5z" />
    <glyph glyph-name="uacute" unicode="&#xfa;" horiz-adv-x="862" 
d="M429 -41q-70 -2 -125 13t-89 42.5t-59 65t-35 82t-16.5 93t-5 97.5t0.5 96q1 18 1 27q1 15 1 58q0 151 26 200q34 64 105 64q44 0 94.5 -24.5t90.5 -64.5t66 -85t24 -91t-38 -77l-104 43q33 56 36 77q2 39 -48.5 85t-90.5 46q-24 0 -31 -20q-23 -61 -33.5 -144.5t-3 -171
t30.5 -162t75 -121.5t124 -46q89 1 150.5 55t93.5 143t47 222q0 149 -21 317q28 -2 80 1.5t78 2.5q-41 -317 -42.5 -400t26.5 -382q-14 0 -84 -2t-82 -2q6 64 12 117q-87 -150 -254 -154zM415 885q-72 84 -78 90q63 37 115 94.5t109 145.5l102 -113q-4 -3 -31.5 -19.5
t-34 -20.5t-30 -19.5t-32 -22.5t-28 -22t-29 -25.5t-23 -25.5t-23 -30.5t-17.5 -31.5z" />
    <glyph glyph-name="ucircumflex" unicode="&#xfb;" horiz-adv-x="862" 
d="M429 -41q-70 -2 -125 13t-89 42.5t-59 65t-35 82t-16.5 93t-5 97.5t0.5 96q1 18 1 27q1 15 1 58q0 151 26 200q34 64 105 64q44 0 94.5 -24.5t90.5 -64.5t66 -85t24 -91t-38 -77l-104 43q33 56 36 77q2 39 -48.5 85t-90.5 46q-24 0 -31 -20q-23 -61 -33.5 -144.5t-3 -171
t30.5 -162t75 -121.5t124 -46q89 1 150.5 55t93.5 143t47 222q0 149 -21 317q28 -2 80 1.5t78 2.5q-41 -317 -42.5 -400t26.5 -382q-14 0 -84 -2t-82 -2q6 64 12 117q-87 -150 -254 -154zM214 1038q4 3 31.5 19.5t34 20.5t30 19.5t32 22.5t28 22t29 25.5t23 25.5t23 30.5
t17.5 31.5q9 -19 22.5 -37t23.5 -31t31.5 -30.5t29.5 -25t36 -26t33.5 -22t38.5 -24t35 -21.5l-102 -113q-46 71 -77 110.5t-71 71.5q-38 -31 -69.5 -72t-75.5 -110z" />
    <glyph glyph-name="udieresis" unicode="&#xfc;" horiz-adv-x="862" 
d="M429 -41q-70 -2 -125 13t-89 42.5t-59 65t-35 82t-16.5 93t-5 97.5t0.5 96q1 18 1 27q1 15 1 58q0 151 26 200q34 64 105 64q44 0 94.5 -24.5t90.5 -64.5t66 -85t24 -91t-38 -77l-104 43q33 56 36 77q2 39 -48.5 85t-90.5 46q-24 0 -31 -20q-23 -61 -33.5 -144.5t-3 -171
t30.5 -162t75 -121.5t124 -46q89 1 150.5 55t93.5 143t47 222q0 149 -21 317q28 -2 80 1.5t78 2.5q-41 -317 -42.5 -400t26.5 -382q-14 0 -84 -2t-82 -2q6 64 12 117q-87 -150 -254 -154zM538 994q1 -2 4 3q22 45 27 53q28 39 61 39q9 0 19 -2t30 -9.5t32.5 -29t12.5 -54.5
q0 -20 -8 -35.5t-18.5 -22t-23.5 -10.5t-18.5 -4.5t-9.5 -0.5q-44 0 -76 18.5t-32 54.5zM195 994q1 -2 5 4q22 45 25 49q28 42 63 42q6 0 12.5 -0.5t22.5 -5.5t27 -14t20.5 -28.5t9.5 -46.5q0 -20 -8 -35t-17.5 -22t-22.5 -11t-18.5 -4.5t-9.5 -0.5q-44 0 -76.5 18t-32.5 55
z" />
    <glyph glyph-name="yacute" unicode="&#xfd;" horiz-adv-x="897" 
d="M361 -657q-138 0 -209 112q-58 92 -43 205q14 109 86 156q39 26 89 26q78 0 136.5 -37.5t67.5 -115.5q-14 -3 -72 -24.5t-67 -24.5q-6 19 -10 29t-12.5 24.5t-22.5 20.5t-33 5q-63 -2 -77.5 -68t24.5 -137q43 -80 118 -88q8 -1 15 -1q49 0 90.5 20.5t71.5 50.5t56 79.5
t41.5 92t30.5 103.5t22 100t16 94q-110 13 -192 39t-145 70t-104 102.5t-67.5 143.5t-38.5 186t-14 237l182 9q-18 -62 -20 -155.5t10 -164.5q48 -324 405 -377q16 103 22.5 218t9.5 258t7 221h152q-62 -523 -152 -924q-20 -89 -41.5 -157t-53.5 -132t-70 -105.5t-91 -66
t-117 -24.5zM402 992q63 37 115 94.5t109 145.5l102 -113q-4 -3 -31.5 -19.5t-34 -20.5t-30 -19.5t-32 -22.5t-28 -22t-29 -25.5t-23 -25.5t-23 -30.5t-17.5 -31.5q-72 84 -78 90z" />
    <glyph glyph-name="ydieresis" unicode="&#xff;" horiz-adv-x="897" 
d="M361 -657q-138 0 -209 112q-58 92 -43 205q14 109 86 156q39 26 89 26q78 0 136.5 -37.5t67.5 -115.5q-14 -3 -72 -24.5t-67 -24.5q-6 19 -10 29t-12.5 24.5t-22.5 20.5t-33 5q-63 -2 -77.5 -68t24.5 -137q43 -80 118 -88q8 -1 15 -1q49 0 90.5 20.5t71.5 50.5t56 79.5
t41.5 92t30.5 103.5t22 100t16 94q-110 13 -192 39t-145 70t-104 102.5t-67.5 143.5t-38.5 186t-14 237l182 9q-18 -62 -20 -155.5t10 -164.5q48 -324 405 -377q16 103 22.5 218t9.5 258t7 221h152q-62 -523 -152 -924q-20 -89 -41.5 -157t-53.5 -132t-70 -105.5t-91 -66
t-117 -24.5zM700 949q-44 0 -76 18.5t-32 54.5q1 -2 4 3q22 45 27 53q28 39 61 39q9 0 19 -2t30 -9.5t32.5 -29t12.5 -54.5q0 -20 -8 -35.5t-18.5 -22t-23.5 -10.5t-18.5 -4.5t-9.5 -0.5zM358 949q-44 0 -76.5 18t-32.5 55q1 -2 5 4q22 45 25 49q28 42 63 42q6 0 12.5 -0.5
t22.5 -5.5t27 -14t20.5 -28.5t9.5 -46.5q0 -20 -8 -35t-17.5 -22t-22.5 -11t-18.5 -4.5t-9.5 -0.5z" />
    <glyph glyph-name="dotlessi" unicode="&#x131;" horiz-adv-x="548" 
d="M153 555l-80 14q11 56 30 104.5t55.5 88t82.5 39.5q174 0 174 -586q0 -18 -1 -53t-0.5 -53t2 -42t7.5 -40t15 -27q-7 1 -43 1q-21 0 -69 -1t-69.5 -1.5t-42.5 1.5q11 9 22 53.5t19 109.5t14 141t7.5 150t-0.5 135t-11 98t-24 36q-30 -5 -48.5 -31t-25 -53.5t-12.5 -67.5
q-1 -11 -2 -16z" />
    <glyph glyph-name="Lslash" unicode="&#x141;" horiz-adv-x="1160" 
d="M-62 487l-64 91q153 86 252 151q0 311 -16 606q28 0 84.5 -1t85.5 -1q-26 -286 -31 -522q72 48 256 190q4 -6 30.5 -41t35.5 -49q-188 -103 -322 -192q-5 -317 23 -625q212 -29 327 -29q106 0 330 29q38 8 53.5 74.5t-7 128t-75.5 55.5q-90 -10 -90 -166q-14 0 -66 9.5
t-65 9.5q10 41 32.5 82.5t55 78t77.5 56t93 10.5q55 -11 90 -55t43.5 -101t0.5 -116t-37.5 -107t-71.5 -67q-137 4 -271 4q-178 0 -522 -21q-27 0 -50 42t-19 73q21 240 26 549q-10 -7 -188 -146z" />
    <glyph glyph-name="lslash" unicode="&#x142;" horiz-adv-x="705" 
d="M-40 555q155 88 287 174q2 196 -8 328.5t-31 130.5q-22 -3 -38 -17t-25.5 -41.5t-13 -44.5t-9.5 -53q-1 -8 -2 -12l-80 14q10 55 29 103.5t56 88.5t83 40q43 0 73.5 -36t47 -103t24 -143t9.5 -175q32 21 66 46.5t83.5 63.5t79.5 60q39 -51 66 -90q-213 -121 -293 -174
v-39q0 -6 -1 -98.5t-0.5 -171.5t2 -175.5t7 -158.5t14.5 -72q-7 1 -38 1q-19 0 -60 -1t-60 -1.5t-38 1.5q20 14 34 198t21 435q-92 -64 -221 -168z" />
    <glyph glyph-name="OE" unicode="&#x152;" horiz-adv-x="1827" 
d="M77 702q-1 57 6 112t14.5 94.5t27.5 90t30.5 75.5t39.5 74t38 62.5t41 63.5l69 -41q-108 -165 -108 -528q0 -131 20.5 -245.5t62.5 -210.5t115.5 -152t170.5 -56q154 0 241 143q15 403 -22 969q-81 117 -201 117q-44 0 -101 -79q-62 -85 -70 -159q-8 -76 58 -76
q54 0 111 66.5t72 120.5q0 2 -2 8q13 0 62.5 -46t61.5 -46q-1 0 -63 -46.5t-146.5 -93.5t-141.5 -47q-97 0 -97 140q0 39 14.5 92.5t42.5 110t79 95t114 38.5q104 0 196 -54q0 6 -1 19.5t-1 21.5q70 -33 201 -33q59 0 190.5 9t195.5 9q126 0 212.5 -27.5t130.5 -100.5
q32 -53 32 -93q0 -79 -81.5 -134.5t-202.5 -77.5q-81 -15 -155 -15q-34 0 -64.5 4.5t-63 16t-52 36.5t-19.5 61q0 62 52 120t112 64q2 -13 21.5 -66.5t21.5 -67.5q-43 10 -87 -13q-43 -22 -24 -49q5 -7 15 -13q34 -12 93 -12q74 0 145 17.5t118 59t31 96.5q-31 102 -229 102
q-67 0 -193 -14t-165 -14q-33 0 -52 6l-27 -530q101 -14 195 -14q44 0 95.5 3.5t83.5 7t99.5 12t95.5 11.5q4 -20 8.5 -58t8.5 -58q-168 6 -299 6q-121 0 -287 -8q7 -262 27 -474q135 -26 279 -26q137 0 405 35q3 -20 8 -59t8 -58q-89 6 -216 6q-63 0 -323 -7t-321 1
q0 5 1 16.5t1 18.5q-107 -72 -229 -72q-110 0 -207.5 55.5t-168 152.5t-111.5 236t-42 299z" />
    <glyph glyph-name="oe" unicode="&#x153;" horiz-adv-x="1541" 
d="M497 -45q-119 0 -218.5 62t-153 158.5t-50.5 201.5q2 165 113 283.5t280 132.5l4 -82q-124 -11 -188.5 -107t-64.5 -227q0 -60 16 -117.5t47 -108t84.5 -81.5t120.5 -31q78 0 138.5 49.5t90 124t29.5 156.5q0 45 -7 92t-21 92t-40 73.5t-59 28.5q-28 0 -60.5 -37
t-56.5 -89t-42.5 -108t-19.5 -95t13 -50q18 -8 34 2.5t28 35.5t19 47t13 49q7 -3 32.5 -15.5t47.5 -22.5t33 -14q-19 -62 -77 -112.5t-120 -50.5q-104 0 -104 135q0 85 36 181t93.5 162t113.5 66q65 0 121.5 -32.5t96.5 -90.5q51 78 131.5 123t183.5 45q84 -1 147.5 -32.5
t101 -84.5t57.5 -111.5t26 -125.5q-4 -37 -43 -43h-531v-10q0 -30 -4 -51q4 -46 21 -94t45.5 -94t75 -75.5t102.5 -29.5q54 0 111 26t96 72.5t37 97.5q-1 18 -18 27t-43 9q-38 0 -71.5 -15.5t-38 -40t45.5 -55.5l-97 -58q-25 30 -36 56.5t-11 66.5q0 61 51 95t121 34
q72 0 125.5 -35.5t53.5 -99.5q0 -120 -104 -194t-238 -68q-211 7 -308 170q-55 -77 -136 -121.5t-175 -44.5zM1140 702q-98 0 -163 -65.5t-87 -165.5l455 -6q-4 95 -57 166t-148 71z" />
    <glyph glyph-name="Scaron" unicode="&#x160;" horiz-adv-x="1142" 
d="M543 -43q-53 0 -107 7.5t-118.5 30t-113.5 58.5t-82 99t-33 145q0 48 28.5 87t70.5 60.5t83 33t72 11.5q53 0 103 -15t89 -45t51 -74.5t-10 -104.5h-151q16 42 16 71t-15.5 47t-34.5 26t-40 8q-27 0 -51 -5t-50 -17.5t-39 -34.5t-18 -56.5t13 -83.5q85 -165 331 -165
q354 0 354 289q0 83 -53.5 134t-141.5 88q-37 16 -108 38.5t-126.5 40t-121 51.5t-109 74t-73.5 107t-30 152q0 83 36.5 149.5t96.5 107.5t132.5 63.5t149.5 23.5q99 2 193.5 -38.5t166 -123.5t88.5 -190q-14 -3 -79.5 -4t-75.5 -2q0 122 -84 198.5t-229 76.5q-26 0 -60 -9
t-71.5 -28.5t-68.5 -47.5t-51.5 -70t-20.5 -90q0 -198 313 -268q70 -16 126 -33.5t123 -53t112 -80t75.5 -115t30.5 -157.5q0 -95 -43.5 -168t-115.5 -115t-155.5 -62.5t-173.5 -20.5zM575 1430q-21 43 -62.5 84t-74.5 63t-93 59q-12 7 -18 11l103 113q45 -70 76 -111
t69 -72q40 31 70 70t78 113l102 -113q-118 -73 -159 -107q-61 -51 -91 -110z" />
    <glyph glyph-name="scaron" unicode="&#x161;" horiz-adv-x="772" 
d="M415 -43q-47 0 -98.5 10t-104 30.5t-86 61t-33.5 93.5q0 70 59.5 108.5t139.5 38.5q79 0 140.5 -57t55.5 -131l-116 6q-14 40 -52.5 65t-77.5 25q-56 0 -65 -45q-7 -34 14 -59t58.5 -37.5t75 -18.5t73.5 -6q42 0 81.5 6.5t81.5 21.5t67.5 46t25.5 75q0 36 -23 61t-61 37
t-86.5 23t-98.5 18.5t-98.5 25.5t-86.5 42.5t-61 70t-23 107.5q0 59 26 103t69 68t90.5 35.5t96.5 11.5q130 0 217.5 -63.5t104.5 -192.5q-15 -3 -68.5 -6.5t-60.5 -4.5q10 69 -45 127t-142 58q-79 0 -129.5 -32.5t-50.5 -107.5q0 -36 29 -59t75.5 -34.5t103 -21t112.5 -26
t102.5 -42.5t75.5 -76t29 -122q0 -59 -32.5 -105.5t-84 -73.5t-108 -40.5t-111.5 -13.5zM396 890q-21 43 -62.5 84t-74.5 63t-93 59q-12 7 -18 11l103 113q45 -70 76 -111t69 -72q40 31 70 70t78 113l102 -113q-118 -73 -159 -107q-61 -51 -91 -110z" />
    <glyph glyph-name="Ydieresis" unicode="&#x178;" horiz-adv-x="1263" 
d="M226 881q-52 0 -88 24.5t-52 65t-21.5 74t-5.5 69.5q0 58 18.5 112t62 95t103.5 43q38 1 75 -14t67.5 -38.5t64 -64.5t58.5 -78t57 -95.5t53 -100t54.5 -108t53.5 -105.5q18 30 73.5 127.5t81 141t71.5 118t85.5 132.5t81.5 112q10 -12 71 -68.5t63 -58.5
q-103 -41 -240 -222t-246 -409q0 -349 33 -629q-14 0 -95 -2t-94 -2q25 352 33 590q-40 78 -97 198t-93.5 194t-79 150.5t-78 112.5t-65.5 35q-26 -1 -45 -19.5t-28 -47t-12.5 -53.5t-3.5 -50q0 -41 16.5 -65.5t40.5 -24.5q20 0 39.5 19t33.5 57l94 -58q-22 -83 -52 -120
t-88 -37zM788 1542q1 -2 4 3q22 45 27 53q28 39 61 39q9 0 19 -2t30 -9.5t32.5 -29t12.5 -54.5q0 -20 -8 -35.5t-18.5 -22t-23.5 -10.5t-18.5 -4.5t-9.5 -0.5q-44 0 -76 18.5t-32 54.5zM554 1469q-44 0 -76.5 18t-32.5 55q1 -2 5 4q22 45 25 49q28 42 63 42q6 0 12.5 -0.5
t22.5 -5.5t27 -14t20.5 -28.5t9.5 -46.5q0 -20 -8 -35t-17.5 -22t-22.5 -11t-18.5 -4.5t-9.5 -0.5z" />
    <glyph glyph-name="Zcaron" unicode="&#x17d;" horiz-adv-x="1130" 
d="M218 961q-52 0 -86.5 51t-34.5 127q0 82 43 143.5t119 63.5q192 -17 361 -17q155 0 368 12q22 -2 38 -18.5t16 -38.5q0 -8 -5 -20q-127 -182 -244 -372t-258 -434t-223 -378q76 0 207 -8.5t197 -8.5q108 0 219 21q68 15 68 98q0 77 -47 103q-48 -15 -60 -103l-117 37
q6 53 63 100.5t124 47.5q53 0 86 -59t33 -128q0 -80 -43 -139t-115 -59q-67 0 -203.5 10t-208.5 10q-178 0 -334 -20q-19 3 -31 20.5t-12 38.5v8q0 2 2 8q67 108 230 368.5t272 439t217 366.5q-82 0 -221 16.5t-207 16.5q-33 0 -52 -0.5t-54 -4t-56.5 -11.5t-45 -21
t-35 -35.5t-11.5 -52.5q0 -31 12.5 -60.5t36.5 -38.5q46 15 58 97q12 -2 64.5 -27t66.5 -27q-13 -45 -48 -74t-72 -38.5t-77 -9.5zM589 1421q-21 43 -62.5 84t-74.5 63t-93 59q-12 7 -18 11l103 113q45 -70 76 -111t69 -72q40 31 70 70t78 113l102 -113q-118 -73 -159 -107
q-61 -51 -91 -110z" />
    <glyph glyph-name="zcaron" unicode="&#x17e;" horiz-adv-x="884" 
d="M157 -37q-28 4 -38.5 55t7.5 74q55 53 148.5 138t143 132.5t117 126t123.5 164.5q-287 11 -534 -24l-17 157q165 -41 384 -41q134 0 284 17q20 -1 32.5 -38t12.5 -77q0 -25 -6 -37q-66 -64 -183 -166.5t-187 -177t-146 -184.5q370 -7 522 27q1 -7 1 -31v-42
q0 -16 -0.5 -42t-0.5 -31q-166 34 -323 34q-163 0 -340 -34zM466 869q-21 43 -62.5 84t-74.5 63t-93 59q-12 7 -18 11l103 113q45 -70 76 -111t69 -72q40 31 70 70t78 113l102 -113q-118 -73 -159 -107q-61 -51 -91 -110z" />
    <glyph glyph-name="circumflex" unicode="&#x2c6;" horiz-adv-x="558" 
d="M28 1090q4 3 31.5 19.5t34 20.5t30 19.5t32 22.5t28 22t29 25.5t23 25.5t23 30.5t17.5 31.5q9 -19 22.5 -37t23.5 -31t31.5 -30.5t29.5 -25t36 -26t33.5 -22t38.5 -24t35 -21.5l-102 -113q-46 71 -77 110.5t-71 71.5q-38 -31 -69.5 -72t-75.5 -110z" />
    <glyph glyph-name="caron" unicode="&#x2c7;" horiz-adv-x="585" 
d="M38 1194l103 113q45 -70 76 -111t69 -72q40 31 70 70t78 113l102 -113q-118 -73 -159 -107q-61 -51 -91 -110q-21 43 -62.5 84t-74.5 63t-93 59q-12 7 -18 11z" />
    <glyph glyph-name="ring" unicode="&#x2da;" horiz-adv-x="493" 
d="M65 1165q8 88 62.5 135.5t128.5 47.5t129 -49.5t55 -135.5q0 -87 -56 -136.5t-133 -49.5q-72 0 -125 45.5t-61 130.5v12zM254 1266q-37 0 -70.5 -25t-36.5 -78q5 -49 34 -76.5t70 -27.5q52 0 78.5 33.5t26.5 70.5q0 44 -29.5 73.5t-72.5 29.5z" />
    <glyph glyph-name="tilde" unicode="&#x2dc;" horiz-adv-x="790" 
d="M8 1157q44 78 101.5 140.5t115.5 62.5q45 -2 78.5 -25t89.5 -82q66 -69 145 -73q113 0 125 127q17 -7 30.5 -13.5t18.5 -9t13.5 -5.5t23.5 -7q-19 -33 -40.5 -64.5t-50.5 -64t-62 -52.5t-64 -20q-39 0 -71.5 18.5t-56.5 45.5t-48.5 54t-59.5 45.5t-77 18.5q-66 0 -94 -38
t-31 -87q-9 3 -39.5 16t-46.5 13z" />
    <glyph glyph-name="uni0401" unicode="&#x401;" horiz-adv-x="1089" 
d="M95 1339q70 -33 201 -33q59 0 190.5 9t195.5 9q126 0 212.5 -27.5t130.5 -100.5q32 -53 32 -93q0 -79 -81.5 -134.5t-202.5 -77.5q-81 -15 -155 -15q-199 0 -199 119q0 61 52 119t112 64q2 -13 21.5 -66.5t21.5 -67.5q-43 10 -87 -13q-43 -22 -24 -49q5 -7 15 -13
q34 -12 93 -12q74 0 145 17.5t118 59t31 96.5q-33 102 -228 102q-66 0 -191.5 -14t-165.5 -14q-33 0 -54 6l-27 -530q101 -14 195 -14q44 0 95.5 3.5t83.5 7t99.5 12t95.5 11.5q3 -20 8.5 -58.5t8.5 -57.5q-168 6 -299 6q-121 0 -287 -8q7 -265 27 -473q139 -28 281 -28
q129 0 403 36q4 -19 8.5 -58t7.5 -59q-89 6 -216 6q-63 0 -323 -7t-321 1q13 156 16.5 330.5t-3.5 359.5t-15 324t-21 325zM581 1527q1 -2 4 3q22 45 27 53q28 39 61 39q9 0 19 -2t30 -9.5t32.5 -29t12.5 -54.5q0 -20 -8 -35.5t-18.5 -22t-23.5 -10.5t-18.5 -4.5t-9.5 -0.5
q-44 0 -76 18.5t-32 54.5zM238 1527q1 -2 5 4q22 45 25 49q28 42 63 42q6 0 12.5 -0.5t22.5 -5.5t27 -14t20.5 -28.5t9.5 -46.5q0 -20 -8 -35t-17.5 -22t-22.5 -11t-18.5 -4.5t-9.5 -0.5q-44 0 -76.5 18t-32.5 55z" />
    <glyph glyph-name="uni0410" unicode="&#x410;" horiz-adv-x="1185" 
d="M214 0h-168q15 37 33.5 120.5t35.5 184t41.5 222t51 237t64.5 225.5t81.5 192.5t102.5 132.5t127 50q58 0 110.5 -37t92.5 -96.5t77.5 -148.5t64 -176t54 -198t45 -196.5t38.5 -189t34 -158.5q5 -19 20.5 -74.5t22.5 -89.5h-167q-2 72 -23 154t-59.5 159t-87.5 137.5
t-113 92.5t-131 22q-92 -13 -155 -79.5t-52 -157.5q6 -43 29.5 -64.5t55.5 -21.5q55 0 96 46.5t23 108.5q15 1 62.5 -13t60.5 -11q22 -102 -51 -165t-170 -63q-135 0 -175 102q-35 87 12 200q46 111 137 165q54 32 112 35q40 2 85.5 -5t117.5 -40.5t133 -91.5
q-10 37 -34.5 147t-48 201.5t-56 190.5t-74 157.5t-86.5 59.5q-76 1 -143 -109t-110 -273.5t-72.5 -343t-40 -326t-3.5 -214.5z" />
    <glyph glyph-name="uni0411" unicode="&#x411;" horiz-adv-x="1147" 
d="M89 1271q-1 16 -2.5 41t-1.5 32q14 -7 98 -35q44 -15 58 -18q20 -5 38 -11l50 -15q91 -26 169 -26q155 0 270 112q2 -1 5.5 -3.5t9.5 -7t11 -7.5q7 -5 37 -26q35 -25 37 -27q11 -9 27 -17q-88 -76 -170 -105q-81 -28 -159 -27q-113 2 -300 81l-2 -15l-25 -504l130 9
q49 3 96 3q127 0 207 -18q7 0 19 -4h1q130 -40 215 -88.5t139 -139.5q38 -64 35 -144q-7 -178 -106 -273t-273 -95q-85 0 -175.5 33t-151.5 90q-70 65 -70 141q0 109 73.5 188.5t180.5 83.5q35 1 74 -14q122 -49 155 -163q10 -34 2 -76q-7 -37 -37 -78q-7 7 -26 13
q-13 4 -41 12q-15 4 -41 12q-18 6 -25 14q28 26 32 60t-6 65q-10 28 -30.5 50.5t-46.5 22.5q-57 0 -93.5 -34.5t-45.5 -90.5q-6 -36 0 -73q8 -48 34.5 -83.5t65.5 -55t82 -28.5t90 -9q90 0 152 42t79 126q10 51 -4 120q-17 88 -69 151q-45 55 -112.5 96t-135.5 50
q-15 2 -19 4q-2 1 -6 1h-2l-1 1q-58 9 -123 9q-60 0 -109 -4q-36 -3 -110 -9l-3 -22l2 -69q3 -101 11 -228l10 -155q1 -23 3 -47t4.5 -49.5t3.5 -37.5h-168q16 173 17 339q1 144 -4 345l-2 66l-1 3q-1 18 -12 269q-1 24 -4.5 83t-5.5 86z" />
    <glyph glyph-name="uni0412" unicode="&#x412;" horiz-adv-x="1158" 
d="M87 -4q13 186 21 325t15 324t3.5 359.5t-16.5 330.5q27 -1 87.5 2.5t86.5 1.5q0 -2 -1 -5t-1 -5q106 23 217 23q80 0 152 -12.5t137.5 -41t113 -70.5t74.5 -105.5t25 -141.5q-2 -58 -22 -101t-59.5 -72.5t-77.5 -47.5t-99 -39q-41 -14 -86 -27q66 -15 125.5 -37
t116 -55.5t97 -74.5t64.5 -96t23 -118q-4 -172 -104 -270t-275 -98q-58 0 -125.5 18.5t-129 51.5t-102 84.5t-40.5 109.5q0 110 76 191t178 81q55 0 109 -30t87 -77.5t37.5 -106.5t-39.5 -117q-9 9 -67 24.5t-66 26.5q26 24 31.5 59.5t-5.5 65.5t-32.5 51.5t-44.5 21.5
q-78 0 -115 -59t-24 -139q7 -50 35.5 -86t69 -55t82 -27t85.5 -8q126 0 190.5 78.5t36.5 209.5q-12 59 -38.5 107.5t-66.5 83.5t-84 61t-100.5 45t-105.5 30.5t-109 21.5q-36 6 -36 40q0 31 32 41q401 47 410 252q4 77 -18 132t-65 85t-94.5 43.5t-116.5 13.5
q-113 0 -267 -40q-31 -316 -29 -629.5t33 -599.5q-14 0 -95 -2t-94 -2z" />
    <glyph glyph-name="uni0413" unicode="&#x413;" horiz-adv-x="1063" 
d="M106 1022q-12 168 -21 317q71 -33 219 -33q65 2 134 6q24 2 70.5 5.5t68.5 4.5q59 4 136 2q140 -4 227 -54q42 -24 74.5 -72t33.5 -95q0 -46 -28.5 -84t-71.5 -62.5t-98 -42t-103.5 -25.5t-92.5 -11q-55 -3 -97 1q-62 5 -105 32.5t-43 83.5q0 60 52 118.5t112 64.5
q6 -35 35 -106q6 -15 8 -28q-20 4 -50 -1q-58 -9 -68 -43q-4 -14 22 -31q30 -10 70 -11q44 -2 90 3q64 5 129 31t91 71q17 30 7 67q-29 89 -167 99q-70 5 -131 0q-13 -1 -135 -15q-37 -4 -121 -11q-51 -4 -85 7l-25 -497l-1 -52q0 -142 13 -372q2 -27 5.5 -78.5t4.5 -76.5
q1 -10 5 -60.5t6 -73.5h-168q16 173 17 339q2 184 -4 345q-8 223 -15 338z" />
    <glyph glyph-name="uni0414" unicode="&#x414;" horiz-adv-x="1354" 
d="M56 91q-3 42 -1 87q288 -40 632 -40q153 -1 315 8l35 2q-10 54 -23 108q-3 12 -8 38.5t-7 35.5l-16 78q-75 364 -127 548q-51 178 -102 247l-22 28q-34 34 -66 35l-12 -1q-41 -4 -79.5 -40t-67 -93.5t-46 -102.5t-32.5 -94l-3 -10q-2 -6 -34 -156l-21 -100
q-3 -14 -14 -68q-7 -30 -11 -41q-20 -63 -28 -135q-4 -33 3 -67q6 -31 24 -47q19 -18 57 -15q50 5 88.5 48.5t57.5 98.5q12 35 9 65q-6 58 -17 78q-11 21 -26 23q-14 2 -25 -16q-12 -19 -16 -38q-4 -22 3 -43t30 -35l-107 -69q-28 34 -34 72q-6 39 4 72q15 51 53.5 91
t87.5 47q32 5 58 -10q34 -19 51.5 -64t20.5 -92q2 -26 -4 -56q-16 -90 -78.5 -171.5t-145.5 -87.5q-64 -5 -100 15q-73 38 -89 146q-4 30 -3 70q0 53 20 129l7 29q10 49 22 86q4 13 9.5 33.5t7.5 27.5l9 35q2 9 6 25l5 16q7 30 20 72q3 11 9 31t10.5 35.5t9.5 29.5
q15 43 28 74.5t35 80.5t46 83t54.5 68t68.5 51.5t79 17.5q42 0 75 -16l13 -6l23 -14l47 -41l15 -17q19 -22 30 -41q62 -89 111.5 -232t82.5 -289q5 -21 21 -91.5t24 -107.5l39 -186q28 -137 35 -159l2 -6q58 6 114 12v-37q1 -17 1 -57q0 -10 0.5 -29t1.5 -28v-37
q-383 28 -609 35q-159 5 -320 3q-148 -1 -314 -16q2 48 -2 87z" />
    <glyph glyph-name="uni0415" unicode="&#x415;" horiz-adv-x="1121" 
d="M85 1339q70 -33 201 -33q59 0 190.5 9t195.5 9q126 0 212.5 -27.5t130.5 -100.5q32 -53 32 -93q0 -79 -81.5 -134.5t-202.5 -77.5q-81 -15 -155 -15q-199 0 -199 119q0 61 52 119t112 64q2 -13 21.5 -66.5t21.5 -67.5q-43 10 -87 -13q-43 -22 -24 -49q5 -7 15 -13
q34 -12 93 -12q74 0 145 17.5t118 59t31 96.5q-33 102 -228 102q-66 0 -191.5 -14t-165.5 -14q-33 0 -54 6l-27 -530q101 -14 195 -14q44 0 95.5 3.5t83.5 7t99.5 12t95.5 11.5q4 -20 8.5 -58.5t8.5 -57.5q-168 6 -299 6q-121 0 -287 -8q7 -265 27 -473q139 -28 281 -28
q129 0 403 36q4 -19 8.5 -58t7.5 -59q-89 6 -216 6q-63 0 -323 -7t-321 1q13 156 16.5 330.5t-3.5 359.5t-15 324t-21 325z" />
    <glyph glyph-name="uni0416" unicode="&#x416;" horiz-adv-x="1667" 
d="M75 2q22 150 89 308t162 251q63 61 115 79t147 21q119 4 175 29q-31 9 -65 15l-135 25q-72 16 -125 39.5t-105 67.5q-153 128 -209 312q-28 90 -26 186h166q-12 -78 -1 -161q18 -142 98 -241t213 -119q47 -7 64 -10q5 -1 31 -5t40 -7q51 -11 65 -16q2 112 0 225
q-3 181 -16 338q48 -2 87 2t87 2q-35 -287 -41 -565q24 8 67 17q14 3 40.5 7t29.5 5q10 2 65 10q132 20 212.5 120t98.5 240q11 82 -1 160h166q2 -97 -26 -185q-59 -190 -209 -313q-99 -81 -231 -106l-134 -25q-44 -10 -65 -16q55 -25 175 -29q47 -1 90 -6q70 -7 136.5 -62
t113.5 -127q64 -97 110.5 -222.5t62.5 -241.5q-15 -2 -36 -1h-56q-10 0 -29.5 0.5t-26.5 1.5q-30 0 -37 -1q-8 50 -15.5 88.5t-21.5 99.5t-31 108.5t-39.5 96.5t-52.5 83.5t-65 51.5q-40 18 -141 38q-97 19 -150 40q0 -304 33 -606q-19 0 -37 -1q-37 0 -58 -1q-20 -1 -57 -1
q-17 -1 -36 -1q26 376 33 605q-35 -13 -66 -20q-86 -17 -152 -34q-48 -12 -74 -25t-53 -44q-102 -118 -147 -384q-3 -19 -9 -51t-8 -45q-11 2 -37 0q-32 0 -56 -1q-39 0 -56 -1q-22 0 -36 2z" />
    <glyph glyph-name="uni0417" unicode="&#x417;" horiz-adv-x="896" 
d="M66 242q0 53 46 93.5t107 59t120 18.5t123 -40.5t91 -99t-17 -125.5q-17 11 -75 23t-76 24q39 47 11 89.5t-89 42.5q-60 0 -109.5 -33t-49.5 -81q0 -37 24.5 -66t63 -44.5t78 -23t76.5 -7.5q69 0 129 24t97 60t57.5 77t20.5 77q0 60 -30.5 110t-76 81t-98.5 61t-98.5 52
t-76 51.5t-30.5 62.5q0 25 16.5 44.5t43.5 32.5t61.5 26t71 24.5t71 29.5t61.5 39.5t43.5 55.5t16.5 77q0 80 -70 141t-155 61q-86 0 -146.5 -44t-69.5 -139l-142 59q86 215 394 215q142 -2 239 -83t97 -219q0 -55 -37 -101.5t-90.5 -76.5t-107 -53.5t-92.5 -44.5t-41 -39
q-3 -25 17.5 -49.5t55.5 -46.5t78 -46t87 -52.5t80 -60t59 -75.5t23 -93q0 -84 -34.5 -149t-93 -104t-129 -58.5t-149.5 -19.5q-67 0 -120.5 7t-102.5 24.5t-81.5 46.5t-52 76t-19.5 109z" />
    <glyph glyph-name="uni0418" unicode="&#x418;" horiz-adv-x="1207" 
d="M57 1061q0 51 32 118t93.5 121t130.5 54q59 0 98 -24t54.5 -65.5t20.5 -87.5t-3.5 -101t-17.5 -94.5t-21 -78.5q-99 -304 -99 -571q0 -294 195 -294q65 0 156 34q208 79 252 366q25 488 -7 887q27 -1 87 2t88 2q-41 -316 -42 -681.5t33 -657.5q-13 0 -93.5 -2t-94.5 -2
q9 131 12 170q-135 -197 -448 -197q-82 0 -140 29.5t-89.5 82t-45.5 114t-14 137.5q0 32 2.5 66.5t5 62t10.5 67.5t11.5 61.5t15.5 66.5t15.5 61t19 66t18.5 60t20 65t19 60q1 4 12 32t18.5 51.5t17.5 58t11 61.5t-3 52t-22.5 39t-49.5 14q-63 0 -118.5 -67t-55.5 -130
q0 -104 36 -104q18 0 33 24.5t12.5 56.5t-28.5 50l113 59q32 -47 28 -95t-28.5 -87t-63 -64t-76.5 -25q-48 0 -79 43t-31 134z" />
    <glyph glyph-name="uni0419" unicode="&#x419;" horiz-adv-x="1175" 
d="M81 1061q0 51 32 118t93.5 121t130.5 54q59 0 98 -24t54.5 -65.5t20.5 -87.5t-3.5 -101t-17.5 -94.5t-21 -78.5q-99 -304 -99 -571q0 -294 195 -294q65 0 156 34q208 79 252 366q25 488 -7 887q28 -1 88 2t87 2q-41 -316 -42 -681.5t33 -657.5q-13 0 -93.5 -2t-94.5 -2
q9 131 12 170q-135 -197 -448 -197q-82 0 -140 29.5t-89.5 82t-45.5 114t-14 137.5q0 32 2.5 66.5t5 62t10.5 67.5t11.5 61.5t15.5 66.5t15.5 61t19 66t18.5 60t20 65t19 60q1 4 12 32t18.5 51.5t17.5 58t11 61.5t-3 52t-22.5 39t-49.5 14q-63 0 -118.5 -67t-55.5 -130
q0 -104 36 -104q18 0 33 24.5t12.5 56.5t-28.5 50l113 59q32 -47 28 -95t-28.5 -87t-63 -64t-76.5 -25q-48 0 -79 43t-31 134zM537 1556q0 60 50.5 111.5t117 78.5t123.5 27q45 0 90 -25t45 -65q0 -44 -23 -100.5t-64.5 -100t-84.5 -43.5q-36 0 -69 24.5t-45 58.5
q-9 25 -6 52l120 76q0 -15 -4 -32l-5 -40q-3 -17 -1 -36q2 -16 12 -17q14 -3 32 15q16 16 32.5 44t22.5 50q7 24 2 37q-7 17 -30 25q-17 6 -50 4q-56 -3 -116 -43.5t-63 -90.5q-1 -26 6 -42q12 -30 50 -58q15 -11 31 -27l-28 -29q-19 -19 -30 -28q-12 12 -40 38
q-75 69 -75 136z" />
    <glyph glyph-name="uni041A" unicode="&#x41a;" horiz-adv-x="1037" 
d="M94 -4q13 200 20.5 327t14.5 319t3.5 364.5t-16.5 328.5q26 -1 86.5 2.5t87.5 1.5q-35 -276 -41 -565q46 15 138.5 29t113.5 20q99 32 165 113.5t88.5 184.5t6.5 212h166q2 -123 -46.5 -243.5t-142 -213.5t-210.5 -131q-46 -14 -136 -30t-130 -27q51 -23 173 -27.5
t173 -33.5q70 -37 131 -111.5t102.5 -164t68.5 -179t40 -172.5q-10 -3 -91 -1t-94 1q-74 460 -225 528q-39 18 -142.5 39t-148.5 39q0 -297 33 -606q-14 0 -94.5 -2t-93.5 -2z" />
    <glyph glyph-name="uni041B" unicode="&#x41b;" horiz-adv-x="1431" 
d="M59 198q-6 40 -5 75q4 77 26 120q22 44 54.5 78t71.5 38q32 3 58 -13q56 -34 73 -108q9 -36 4 -73q-11 -82 -84 -122l-72 105q24 3 40 19.5t21 40.5q4 22 0 41q-5 20 -17 24q-14 5 -33 -11q-25 -21 -42.5 -57.5t-20.5 -71.5q-3 -36 5 -75q16 -83 74 -117q35 -17 58 -8
q61 22 85 166q2 10 10 65q1 9 2 17.5t2 15.5t1 9l37 198v-1q36 198 111 436q15 47 32.5 90.5t46.5 98t61.5 93.5t77.5 66t93 27q164 0 279 -281q86 -211 162 -574l39 -186q30 -147 57 -237q9 -31 22 -86l-88 -1q-56 0 -79 1q-2 65 -17 128q-2 6 -7.5 35t-18 90t-26.5 125
l-18 84q-29 135 -35 169q-4 21 -36 157q-78 329 -160 433q-35 44 -74 45q-43 1 -83 -34t-70.5 -89.5t-58.5 -131.5t-46.5 -147.5t-35 -150t-24.5 -127t-14 -90.5l-5 -36q-7 -50 -8 -62q-5 -47 -9 -65q-3 -13 -4 -22l-5 -30q-11 -58 -11 -59q-23 -90 -50 -132
q-58 -90 -138 -99q-44 -5 -98 24q-92 48 -110 183z" />
    <glyph glyph-name="uni041C" unicode="&#x41c;" horiz-adv-x="1770" 
d="M59 181q-6 42 -5 75q4 77 26 120q22 44 54.5 78t71.5 38q32 3 58 -13q56 -34 73 -108q9 -36 4 -73q-11 -82 -84 -122l-72 105q24 3 40 19.5t21 40.5q4 22 0 41q-5 20 -17 24q-14 5 -33 -11q-25 -21 -42.5 -57.5t-20.5 -71.5q-3 -36 5 -75q16 -83 74 -117q35 -17 58 -8
q61 22 85 166q2 10 10 65q1 9 2 17.5t2 15.5t1 9l37 198v-1q141 728 362 801q21 10 49 10q42 0 76.5 -13.5t57 -34.5t39.5 -54t26.5 -64.5t15.5 -73.5t7.5 -73t2.5 -71q2 -68 0 -127q0 -63 7 -98q14 111 47 291q18 77 34 129q60 189 177 189q129 0 194 -120q75 -138 84 -472
l5 -185q4 -119 7 -178q14 -292 113 -364q-8 -8 -23 -16q-6 -3 -17 -10t-16 -10q-11 -7 -33 -19q-13 -7 -23 -17q-47 28 -80.5 110t-47 161t-15.5 150q-2 56 -1 75q7 140 -3 334q-16 302 -79 408q-32 54 -82 56q-88 0 -142 -362q-22 -156 -28 -234q-2 -23 -12 -143t-13 -183
q-7 -153 -7 -327v-2h-150q-11 138 -13 374l-2 209q-2 211 -14 390q-11 171 -47 252q-16 37 -45 37t-53 -24l-34 -39q-18 -24 -27 -35q-64 -78 -116 -255q-61 -207 -91 -428l-5 -37q-7 -50 -8 -62q-5 -47 -9 -65q-3 -13 -4 -22l-5 -30q-11 -58 -11 -59q-23 -90 -50 -132
q-58 -90 -138 -99q-44 -5 -98 24q-92 48 -110 183z" />
    <glyph glyph-name="uni041D" unicode="&#x41d;" horiz-adv-x="1182" 
d="M673 459q18 -108 -39.5 -167.5t-147.5 -59.5q-91 0 -156 59.5t-56 161.5q8 85 58 148t121 92.5t152 29.5q110 0 199.5 -57.5t118.5 -165.5q20 501 -8 827q27 -1 87 2t87 2q-41 -314 -41.5 -681.5t33.5 -657.5q-13 0 -94.5 -2t-94.5 -2q4 60 10 162t9 155
q-29 78 -49 124.5t-49.5 95.5t-60.5 73t-75.5 38t-101.5 11q-77 -5 -147.5 -75.5t-70.5 -147.5q0 -37 25 -75t59 -38q41 0 68.5 51t16.5 117q13 1 73.5 -11t73.5 -9zM92 -4q13 200 20.5 327t14.5 319t3.5 364.5t-16.5 328.5q26 -1 87 2.5t87 1.5q-41 -314 -41.5 -681.5
t33.5 -657.5q-14 0 -94.5 -2t-93.5 -2z" />
    <glyph glyph-name="uni041E" unicode="&#x41e;" horiz-adv-x="1170" 
d="M77 702q-1 57 6 112t14.5 94.5t27.5 90t30.5 75.5t39.5 74t38 62.5t41 63.5l69 -41q-108 -165 -108 -528q0 -131 20.5 -245.5t62.5 -210.5t115.5 -152t170.5 -56q68 0 123.5 28t92 78t62.5 110.5t40 132.5t20 136.5t6 130.5q0 103 -18 205.5t-54.5 196.5t-102 152.5
t-151.5 58.5q-44 0 -101 -79q-62 -85 -70 -159q-8 -76 58 -76q54 0 111 66.5t72 120.5q0 2 -2 8q13 0 62.5 -46t61.5 -46q-1 0 -63 -46.5t-146.5 -93.5t-141.5 -47q-97 0 -97 140q0 39 14.5 92.5t42.5 110t79 95t114 38.5q82 0 152.5 -30t121 -82.5t89 -121t62 -149.5
t35.5 -163.5t13 -166.5q2 -185 -55.5 -337.5t-169.5 -245.5t-258 -93q-110 0 -207.5 55.5t-168 152.5t-111.5 236t-42 299z" />
    <glyph glyph-name="uni041F" unicode="&#x41f;" horiz-adv-x="1147" 
d="M262 4l-189 -4q62 865 23 1339q28 0 87 2t87 2q-12 -83 -25 -239q44 114 130 184t204 68q168 -3 278.5 -84.5t147.5 -214.5q24 -104 19.5 -209t-29 -239t-52 -244.5t-49.5 -226.5t-22 -185q0 -104 41 -188t121 -95q66 -10 89 60q18 57 -3 114q-18 48 -50 43
q-13 -2 -21.5 -17.5t-11 -30t-5 -36t-2.5 -22.5q-14 2 -59 56.5t-58 56.5q6 43 34.5 70.5t79.5 27.5q79 0 134 -63.5t55 -147.5q0 -72 -47.5 -132.5t-128.5 -60.5q-54 0 -100 22t-76.5 59t-55.5 85.5t-37 101.5t-20.5 107t-7 101.5t3.5 85.5q7 66 26.5 162.5t39.5 182
t38 185t26 181t-1.5 159.5t-39.5 130.5t-92.5 84.5t-156.5 31q-81 -1 -145 -46t-102.5 -113.5t-64 -158t-35 -171.5t-9.5 -163q0 -319 31 -610z" />
    <glyph glyph-name="uni0420" unicode="&#x420;" horiz-adv-x="1058" 
d="M92 -4q28 212 42 426.5t10.5 457.5t-30.5 455q68 -2 198.5 7.5t188.5 9.5q52 0 94 -2.5t98 -12t99.5 -26t88 -47t74 -71.5t48 -103.5t18.5 -139.5q0 -63 -18.5 -115t-48.5 -88t-73 -63.5t-88 -43.5t-97.5 -26.5t-97 -14t-91.5 -3.5q-112 0 -169.5 73.5t-57.5 180.5
q0 89 40 134.5t114 45.5q93 0 157.5 -53t89.5 -139q-8 -1 -37.5 -7.5t-56 -11.5t-39.5 -6q-5 54 -42.5 91t-78.5 37q-30 0 -48.5 -22.5t-18.5 -68.5q0 -174 178 -174q156 0 248 71t90 209q-1 74 -20.5 129.5t-51.5 90.5t-81 56.5t-103 29.5t-123 8q-80 0 -219 -13
q-33 -322 -31 -641.5t33 -615.5q-14 0 -94.5 -2t-93.5 -2z" />
    <glyph glyph-name="uni0421" unicode="&#x421;" horiz-adv-x="1236" 
d="M649 -39q-37 -5 -64 -5q-118 0 -217.5 63t-162 163t-97.5 217t-35 232q0 96 22.5 195t70 193t113.5 168t161 118.5t204 44.5q87 0 173.5 -29.5t153.5 -78.5t109 -118.5t42 -144.5q0 -103 -88 -156t-224 -53q-44 0 -92 5t-104 17t-91 38t-34 63q1 53 31.5 102.5t65.5 79
t91 68.5l76 -119q-73 -34 -101.5 -67t-14.5 -56t58.5 -37t110.5 -14q176 0 217 121q-2 91 -59.5 160.5t-142.5 103t-181 33.5q-90 0 -162.5 -43t-116.5 -109t-73.5 -152t-41 -165.5t-11.5 -155.5q0 -56 3.5 -107t14 -113.5t28 -115t48 -103.5t70.5 -86.5t98.5 -57
t130.5 -21.5q86 0 152.5 27t106 67t67 100t39 112.5t18.5 117.5q14 0 76 -7t76 -7q4 -142 -69 -258.5t-192.5 -177t-252.5 -52.5z" />
    <glyph glyph-name="uni0422" unicode="&#x422;" horiz-adv-x="1516" 
d="M468 1307q-127 0 -215 -70q-67 -54 -64 -110q3 -59 87 -80q37 -9 88 -9q46 0 69.5 21t5.5 42.5t-73 22.5l141 90q89 -45 77 -115q-10 -59 -84 -101q-65 -37 -148 -37q-63 0 -127 19.5t-112 61.5t-48 97t27.5 100t69.5 72t96 45.5t103 25.5t95 7q81 0 164.5 -25t143.5 -55
t144.5 -55t168.5 -25q153 0 270 112q8 -5 61 -43t66 -45q-155 -132 -319 -132q-50 0 -107 13t-98 27.5t-105 40.5q-66 -581 0 -1202q-13 0 -94 -2t-94 -2q16 233 21 321.5t13 284.5t4.5 352t-16.5 312h4q-123 41 -215 41z" />
    <glyph glyph-name="uni0423" unicode="&#x423;" horiz-adv-x="1183" 
d="M59 1183q-2 44 12 95q29 91 108 145q63 43 119 43q43 0 105 -30.5t93 -63.5q77 -81 77 -205v-1q0 -12 -2 -38l-12 -129v-8l-1 -6v-40q0 -47 5 -120q12 -173 147 -186h16l25 6l9 5h1l4 3q12 8 18 14l12 14q89 112 132 434l-4 83v2l-1 25v2l-4 52v7l-2 19v7l-2 24
q48 -2 87 2t87 2q-38 -293 -41 -681v-54q0 -32 1 -56v-31l1 -30v-69l2 -70q1 -11 1 -32q0 -77 -29 -140t-77 -104t-112.5 -69.5t-131.5 -40.5t-138 -12q-86 0 -164 19t-144.5 57.5t-106 106.5t-39.5 157q0 91 99 147q83 45 155 45q50 0 97.5 -12.5t89.5 -44t56 -77.5
t-10 -105h-151q18 41 16 71q-2 38 -27 59.5t-63 21.5q-134 0 -156 -97q-9 -38 11 -100q86 -165 331 -165q259 0 329 154q24 54 27 101l2 30v20l1 9v9l1 23q1 8 1.5 26.5t0.5 28.5q0 19 1 57q1 16 2.5 48t1.5 47v19l3 82v32l-12 -23q-4 -7 -27 -41q-31 -43 -74.5 -69
t-93.5 -26q-139 0 -211.5 71t-91.5 210q-6 48 -3 115q6 103 28 218q2 54 -19 107q-24 62 -84 73q-33 6 -56 2q-42 -6 -77 -30.5t-46 -62.5q-12 -39 -10 -71q2 -59 33 -83q14 -11 25 -9q26 3 33 11q9 11 8 24q0 22 -26 65q12 4 32 9l78 17q11 3 31 5q20 -28 28 -58
q7 -28 -1 -59q-12 -47 -47.5 -75t-84.5 -34q-33 -4 -74 8q-57 17 -90.5 63t-36.5 106z" />
    <glyph glyph-name="uni0424" unicode="&#x424;" horiz-adv-x="1907" 
d="M51 758q-14 78 6 158q26 108 104 208.5t177 154.5q52 28 119 45q73 18 131 12q164 -17 232 -220q21 -62 4 -120q-21 -73 -84 -114t-142 -43q-47 -2 -94 15q-46 16 -83 52q5 12 15 26q2 3 25 31l25 33q12 16 18 30q102 -90 150 -90q25 0 45 19t22 45q1 27 -6 57
q-12 47 -51.5 92.5t-84.5 65.5q-47 20 -94 19q-112 -3 -204 -92.5t-116 -203.5q-12 -57 3 -114q29 -110 151 -189t242 -79q89 0 171 48t120 126q7 14 22.5 48.5t24.5 51.5q1 1 8 21l2 6v142q-1 159 -16 338q48 -2 87 2t87 2q-11 -77 -18 -156q111 123 265 149q63 10 129 6
q65 -4 130.5 -24.5t124.5 -55t101.5 -89t55.5 -119.5q15 -79 -4 -158q-42 -169 -179 -297q-92 -86 -214 -118q-70 -19 -131 -14q-168 13 -235 216q-22 65 -6 120q22 74 83.5 116t139.5 44q52 2 94 -12q47 -15 84 -51q-3 -10 -14 -26q-9 -13 -25 -32l-24 -34q-13 -18 -18 -29
q-37 30 -50 40q-57 44 -101 46q-24 1 -42 -15q-23 -21 -24 -49q-2 -30 7 -57q16 -51 53 -92.5t86 -62.5q45 -19 94 -18q110 3 202 95.5t113 205.5q10 56 -5 114q-15 59 -61 106q-130 133 -283 152q-76 9 -146 -11q-63 -19 -115 -62.5t-81 -102.5l-15 -30l-2 -31
q-8 -134 -10 -345q0 -357 33 -658q-20 0 -37 -1q-37 0 -58 -1t-57 -1q-17 -1 -36 -1q28 411 35 656v23l-1 -2q-9 -18 -46 -57q-30 -32 -47 -48t-44.5 -35t-60.5 -33q-55 -24 -120 -35q-54 -9 -129 -4q-64 5 -129.5 26.5t-124 57.5t-100.5 91.5t-53 119.5z" />
    <glyph glyph-name="uni0425" unicode="&#x425;" horiz-adv-x="1342" 
d="M73 1100q0 58 18.5 112t62 95t103.5 43q38 1 74.5 -14.5t66.5 -40t62.5 -65.5t57 -80.5t55 -96.5t52.5 -102.5t53 -109.5t53 -106q82 145 132 230t127 204.5t144 206.5q9 -11 66.5 -64t66.5 -63q-51 -20 -111 -76t-125.5 -144t-124.5 -178t-132 -212q52 -111 99 -193.5
t102 -154.5t114.5 -109.5t120.5 -37.5q32 0 63 10l-49 -179q-72 -4 -137 24.5t-108.5 63t-102.5 120t-87.5 135.5t-92.5 169q-3 5 -4 7q-241 -410 -396 -594l-96 118q124 107 229.5 246t217.5 322q-40 80 -95.5 198t-91 191t-76 147.5t-75 109.5t-64.5 34
q-26 -1 -44.5 -19.5t-27.5 -47t-12.5 -53.5t-3.5 -50q0 -41 16.5 -66t40.5 -25q20 0 39 19t33 57l94 -57q-22 -83 -51.5 -120.5t-87.5 -37.5q-42 0 -74 17.5t-49.5 42.5t-28 59t-13.5 61t-3 54z" />
    <glyph glyph-name="uni0426" unicode="&#x426;" horiz-adv-x="1349" 
d="M115 901q-58 38 -58 161q0 81 73 183q35 48 82.5 79t100.5 31q85 0 125 -46t48 -131q4 -49 -3 -100q-7 -80 -39 -174q-99 -300 -99 -571q0 -294 196 -294q68 0 155 34q115 44 173 138t79 228q11 233 11 446q-1 223 -18 441q49 -2 88 2t87 2q-39 -301 -42 -681
q0 -279 20 -523l30 -3q98 -10 161.5 -60.5t63.5 -142.5q0 -76 -61 -133t-142 -80q0 19 -25 73q-24 51 -24 74q30 -6 62 -1q26 3 54.5 15t42.5 29q16 19 15 31q-2 23 -45 37.5t-78 18t-65 4.5q-7 0 -21 1t-20 1l-28 -1q-21 -1 -58 -1q-18 -1 -37 -1l6 84q3 39 6 86
q-59 -79 -126 -119.5t-166 -62.5q-69 -15 -156 -15q-80 0 -138.5 29.5t-90 82t-46 114.5t-14.5 137q0 214 89 481l48 155q1 2 3.5 9t5.5 15l6 16q8 21 22 62q12 34 18 71q6 34 4 66q-1 33 -21 51t-54 18q-63 0 -118.5 -66t-55.5 -131q0 -100 34 -104q13 -1 26 13t19 37
q6 20 1 44q-4 22 -27 37l113 59q25 -38 27 -75q2 -39 -10 -72q-16 -48 -60 -85t-93 -39q-29 -1 -56 16z" />
    <glyph glyph-name="uni0427" unicode="&#x427;" horiz-adv-x="1181" 
d="M59 1184q-2 44 12 95q24 74 89 130.5t139 56.5q21 0 42 -6q112 -33 172 -107t60 -186v-1q0 -12 -2 -38l-5 -123q-9 -74 -8 -149q0 -46 5 -119q12 -172 147 -186q42 -4 77 31v1l8 9q94 107 134 451q-3 150 -15 294q48 -2 87 2t87 2q-38 -293 -41 -681q0 -357 33 -658
q-20 0 -37 -1q-37 0 -58 -1t-57 -1q-17 -1 -36 -1q27 371 34 629l-10 -19q-9 -14 -27 -40v-1q-72 -94 -168 -94q-141 0 -213 70.5t-90 209.5q-6 49 -3 116q6 112 28 217q2 10 7 39q2 26 0 52q-5 64 -31 115.5t-79 63.5q-26 6 -56 1q-43 -7 -77.5 -30.5t-45.5 -61.5
q-12 -39 -10 -71q2 -58 33 -83q15 -11 25 -10q24 3 33 12t8 24q0 23 -26 65q25 9 71 18l39 8q28 5 31 5q20 -28 28 -58q7 -29 -1 -59q-12 -47 -47 -75t-85 -34q-31 -4 -74 7q-56 14 -90 62.5t-37 107.5z" />
    <glyph glyph-name="uni0428" unicode="&#x428;" horiz-adv-x="1649" 
d="M35 1159q0 66 36 129t93 98q39 23 80 22q112 -5 173 -41q123 -71 145 -245q10 -80 6 -162q-5 -100 -15 -163q-14 -93 -39 -292q-9 -73 -12 -138q-3 -64 0 -118q2 -37 22 -86q16 -37 43.5 -65t61.5 -29q40 0 73 78q40 95 68 285q5 34 12.5 97t10.5 82q5 35 6 54l24 327
q8 173 8 326v2h150q11 -138 13 -373l2 -210q0 -524 61 -642q19 -37 45 -37q111 0 176 407q13 82 16 122q4 42 8 78q14 117 25 312q9 167 0 339q0 4 2 4h166q0 -22 -6 -88q-15 -160 -28 -365v-3q4 -68 5 -103l5 -185q4 -119 7 -178q14 -294 112 -364q-7 -7 -22 -16
q-3 -2 -14.5 -9t-18.5 -11q-12 -7 -34 -19q-13 -7 -23 -17q-63 38 -98.5 156t-41.5 226q-8 -34 -13.5 -56t-18.5 -65t-25 -72.5t-32 -66t-40.5 -59t-48 -38t-58.5 -15.5q-42 0 -76.5 13.5t-57 34.5t-39.5 54t-26.5 64.5t-15.5 73.5t-7.5 73t-2.5 71q-2 89 -1 127q2 60 -6 98
q-14 -111 -47 -291q-11 -47 -19.5 -77.5t-25 -79t-39.5 -83.5t-51 -54q-35 -24 -76 -24q-64 0 -99.5 21t-77.5 76q-15 15 -28 36v1q-37 60 -50 159q-6 49 -3 116q6 104 28 217q11 54 14 81q4 33 18 99t20 99q12 67 15 98q4 49 0 97q-10 106 -76 189q-21 27 -47 38
q-27 11 -54 9q-53 -3 -100 -44t-47 -93q0 -112 65 -142q15 -7 27 -2q23 9 28 20q6 12 2 25q-5 15 -18 28q-5 5 -13.5 14.5t-12.5 13.5q24 15 63 36q20 11 35 19q18 10 29 14q55 -40 58 -105q1 -26 -10 -57q-18 -47 -62 -72.5t-97 -25.5q-87 0 -135.5 65.5t-48.5 156.5z" />
    <glyph glyph-name="uni0429" unicode="&#x429;" horiz-adv-x="1781" 
d="M35 1159q0 66 36 130t93 98q38 23 80 21q112 -5 173 -41q123 -72 145 -244q11 -80 6 -163q-5 -100 -15 -163q-14 -93 -39 -292q-9 -74 -12 -137q-3 -65 0 -119q1 -23 6 -46q17 -51 48 -92t73 -41q35 0 65 58.5t48.5 149t27 148t13.5 104.5q2 15 5.5 42.5t4.5 38.5
q4 33 6 55q3 37 8.5 103t9.5 120.5t6 102.5q8 174 8 327v2h150q11 -155 13 -374l2 -209q0 -525 61 -642q19 -37 45 -37q31 0 58 30.5t45.5 77.5t29.5 85.5t17 73.5q26 137 26 139q13 82 16 122q3 43 8 79q14 117 25 312q9 166 0 339q0 4 2 4h166q0 -22 -6 -88
q-15 -160 -28 -365v-3q4 -68 5 -103l5 -185q4 -119 7 -178q10 -187 51 -282l28 -3q131 -14 194 -95q30 -39 30 -108q0 -78 -60 -134t-143 -79q0 12 -7 30q-2 5 -17 43q-12 30 -17 43q-8 22 -8 31q30 -6 62 -1q64 10 98 44q16 16 14 31q-2 23 -45 37.5t-77 18t-66 4.5
q-13 0 -39 1.5t-36 1.5q-13 0 -32 51.5t-29 87.5q-35 109 -41 224q-8 -35 -13.5 -56t-18.5 -64.5t-25 -72.5t-32 -66t-40.5 -59t-48 -38t-58.5 -16q-43 0 -77 13.5t-56.5 34.5t-39.5 54t-26.5 64t-15 73.5t-7.5 73t-3 71.5q-2 88 -1 127q2 60 -6 98q-48 -392 -125 -520
q-53 -89 -133 -89q-64 0 -99 21t-78 75q-60 60 -78 197q-6 48 -3 115q6 106 28 218q10 54 14 80q8 53 18 100q15 72 20 98q12 67 15 98q4 49 0 97q-10 106 -76 189q-21 27 -47 38q-27 11 -54 9q-53 -3 -100 -44.5t-47 -92.5q0 -44 15.5 -86.5t49.5 -54.5q18 -7 27 -3
q23 9 28 20q6 13 2 26t-18 28q-8 9 -26 27q15 9 29 17q6 3 18.5 10.5t15.5 9.5q37 22 64 32q55 -41 58 -105q1 -27 -10 -56q-19 -48 -62.5 -73.5t-96.5 -25.5q-86 0 -135 66.5t-49 155.5z" />
    <glyph glyph-name="uni042A" unicode="&#x42a;" horiz-adv-x="1337" 
d="M10 1346q9 4 27 18q38 29 74 53q21 14 26 17q115 -112 270 -112q69 0 116 12q17 4 36 9l-4 -41q-27 -288 -30 -576q0 -345 32 -641q74 -6 110 -9q49 -4 109 -4q186 0 280.5 70.5t98.5 243.5q2 71 -24 124q-75 156 -314 156q-178 0 -178 -174q0 -71 46 -88q20 -8 43 0
q42 14 68 47.5t31 77.5q4 -1 14 -2.5t15 -2.5l38 -7q16 -2 38 -8q5 -1 28 -5q-26 -89 -91 -140.5t-156 -51.5q-80 0 -117 48.5t-37 131.5q0 112 59.5 183t167.5 71q75 0 143 -9t137.5 -34t119.5 -63t82 -102t32 -146q0 -112 -44.5 -203.5t-138.5 -137.5q-103 -51 -228 -57
q-36 -2 -109 -4q-46 -2 -96 3l-97 6q-50 5 -98 6q-80 3 -96 2q20 160 28 339q7 159 2 346q-8 269 -37 526q-16 -2 -48 -4q-70 -4 -158 27q-82 29 -170 105z" />
    <glyph glyph-name="uni042B" unicode="&#x42b;" horiz-adv-x="1451" 
d="M92 1346q19 0 37 -1q36 0 57 -1t57 -1q18 -1 37 -1q-33 -307 -33 -616q0 -354 31 -641l111 -9q48 -4 108 -4q187 0 281 70t98 244q1 70 -23 124q-72 156 -315 156q-178 0 -178 -174q0 -71 46 -88q20 -8 44 0q40 13 67 48t31 77q3 0 13 -2t17 -3l38 -7q13 -2 37 -8
q5 -1 28 -5q-26 -90 -91 -141t-156 -51q-79 0 -116.5 49t-37.5 131q0 110 59.5 182t167.5 72q76 0 143.5 -9t137.5 -33.5t120 -63t81.5 -102.5t31.5 -146q0 -172 -89 -270q-54 -60 -140.5 -91.5t-180.5 -36.5q-35 -2 -110 -4q-47 -2 -95 3l-98 6q-50 5 -97 6q-82 2 -97 2
q20 160 28 339q7 174 3 346q-8 309 -53 654zM1162 2q28 411 35 656q5 172 3 345q-1 159 -16 338q48 -2 87 2t87 2q-38 -293 -41 -681q0 -357 33 -658h-37q-57 -3 -115 -3q-17 -1 -36 -1z" />
    <glyph glyph-name="uni042C" unicode="&#x42c;" horiz-adv-x="1058" 
d="M92 1346q19 0 37 -1q36 0 57 -1t57 -1q18 -1 37 -1q-33 -307 -33 -616q-1 -143 7 -323q8 -163 24 -318l111 -9q48 -4 108 -4q187 0 281 70t98 244q1 70 -23 124q-72 156 -315 156q-178 0 -178 -174q0 -71 46 -88q20 -8 43 0q42 14 68 47.5t31 77.5q36 -5 68 -12
q26 -6 65 -13q-26 -90 -91 -141t-156 -51q-79 0 -116.5 49t-37.5 131q0 110 59.5 182t167.5 72q76 0 143.5 -9t137.5 -33.5t120 -63t81.5 -102.5t31.5 -146q0 -95 -27 -166.5t-72.5 -115.5t-113.5 -71.5t-141.5 -38t-165.5 -10.5q-47 0 -95 3l-98 6q-50 5 -97 6q-82 2 -97 2
q20 160 28 339q7 159 2 346q-10 349 -52 654z" />
    <glyph glyph-name="uni042D" unicode="&#x42d;" horiz-adv-x="1236" 
d="M90 310q-19 63 -17 139q2 0 32 2q14 1 44 5t45 5q28 2 31 2q9 -96 33.5 -170t68.5 -133t115 -90t166 -31q227 0 326 215q28 62 42 129q4 22 9.5 67t10.5 67l1 5q-108 1 -253 -4q-143 -5 -248 -13l-4 111q221 -17 509 -17v44q0 80 -12 161t-42 166t-74.5 150t-116 106.5
t-160.5 41.5q-91 0 -176 -32.5t-145 -102t-62 -162.5q13 -45 56.5 -77t93.5 -39q37 -5 67 -5q144 0 169 51q12 23 -14 55t-102 68l76 119q12 -8 34 -25t34 -25q120 -90 120 -200q0 -53 -61 -79q-106 -44 -260 -44q-56 0 -107 10t-99 32t-77 65t-29 102q-2 77 42 144
q68 106 187.5 166.5t248.5 60.5q107 0 200.5 -43.5t160 -116t115 -165.5t72 -194t23.5 -200q0 -100 -26 -202.5t-75 -196t-128 -164.5t-176 -98q-51 -14 -104 -14q-29 0 -67 5q-63 -4 -131 10q-132 28 -230.5 119t-135.5 220z" />
    <glyph glyph-name="uni042E" unicode="&#x42e;" horiz-adv-x="1489" 
d="M129 -17q-18 -1 -37 -1q28 411 35 656q5 172 3 345q-1 159 -16 338q48 -2 87 2t87 2q-37 -290 -40 -644q17 3 68 12.5t80 15.5q-1 96 17 178q17 75 46.5 145t55.5 115t78 127l69 -41q-108 -168 -108 -528q0 -273 83 -457q44 -95 116 -151t170 -56q60 0 110.5 23
t85.5 60.5t62 90t43 107.5t26 117t13.5 114t3.5 104q0 137 -32.5 280.5t-102.5 230.5q-82 102 -191 102q-41 0 -103 -82q-57 -78 -67 -151q-4 -32 7 -58q11 -25 50 -23q52 1 109.5 65t73.5 122q0 2 -2 8q10 0 27 -14q1 0 35 -32q7 -7 19 -17.5t17 -14.5q15 -14 26 -14
l-24 -16q-14 -10 -53 -39q-59 -46 -139 -89t-133 -43q-99 0 -99 140q0 64 30.5 145t74.5 125q66 66 145 66q86 0 158.5 -33t122 -86.5t87.5 -126.5t59.5 -147t32.5 -154q11 -81 13 -166q3 -131 -32 -261q-23 -85 -62 -157.5t-94 -131.5t-131 -92.5t-164 -33.5
q-113 0 -209 55.5t-166 152.5q-130 181 -151 451q-66 -19 -151 -47q3 -320 32 -585h-37q-57 -3 -114 -3z" />
    <glyph glyph-name="uni042F" unicode="&#x42f;" horiz-adv-x="1152" 
d="M84 170q-1 52 11 106q47 209 152 220q16 2 29 -5q38 -19 72 -59q-22 -33 -50 -60q-36 -34 -53 -55q-10 33 -19 40q-9 8 -19 -3q-18 -22 -30 -88t-12 -112q0 -30 19 -72.5t44 -55.5q15 -8 29 -7t31 18q24 38 38 85l24 92q18 62 29 92q17 46 47 81q35 41 206 90
q91 25 122 59q16 18 10 42q-6 23 -35 35q-56 23 -161 39q-109 16 -201 56q-84 36 -126.5 106.5t-42.5 162.5q0 116 40 189q32 58 79.5 98t106.5 59.5t116 27t127 7.5q74 0 195 -13q56 -6 89 -8q49 -3 95 -2q-15 -179 -16 -338q-2 -173 3 -345q6 -217 36 -656q-19 0 -37 1
q-37 0 -57 1q-21 1 -58 1q-18 1 -37 1q31 287 34 617q0 346 -32 645q-82 9 -107 11q-58 5 -106 5q-162 0 -236 -70.5t-77 -226.5q-1 -78 29 -128q60 -98 187 -126q25 -5 72.5 -16t57.5 -13q33 -8 48 -10q47 -8 80.5 -34.5t33.5 -69.5q0 -61 -32.5 -98.5t-93.5 -66.5
q-91 -42 -136 -77q-19 -14 -34.5 -36.5t-22.5 -38t-19 -46.5q-4 -9 -27 -74q-15 -40 -28 -68.5t-36 -66t-53.5 -58t-66.5 -20.5q-96 0 -162 69.5t-69 166.5z" />
    <glyph glyph-name="uni0430" unicode="&#x430;" horiz-adv-x="939" 
d="M421 -53q-69 0 -126.5 16t-94 42.5t-61.5 61.5t-30 73.5t1 76.5t32 73t62.5 61.5t92.5 42.5t122 16q108 0 254 -64q10 47 10 90q0 131 -79.5 206t-199.5 75q-15 0 -35 -1.5t-56.5 -8.5t-65 -19t-52 -36.5t-26.5 -57.5q-3 -27 20 -27q17 0 38.5 14.5t35.5 36.5
q12 0 36.5 -8t54 -19.5t42.5 -15.5q-15 -52 -59.5 -80t-98.5 -28q-60 0 -103.5 33.5t-43.5 93.5q0 64 50.5 112.5t118.5 69.5t138 21q172 0 287 -98t115 -259q0 -24 -16.5 -114t-16.5 -148q0 -79 82 -100l-37 -117q-91 18 -137 70q-50 -41 -119 -62.5t-135 -21.5zM408 330
q-82 0 -130 -72t-8.5 -145.5t169.5 -77.5q135 -6 203 65q-2 10 -2 15v16q0 37 16 131q-153 68 -248 68z" />
    <glyph glyph-name="uni0431" unicode="&#x431;" horiz-adv-x="959" 
d="M81 511q0 181 54 332t166.5 267t274.5 176l81 -123q-82 -23 -159.5 -65t-145 -101t-115 -139.5t-61.5 -171.5q-9 -56 -12.5 -107t-1 -110.5t13.5 -109t35.5 -97t61.5 -79.5t95 -52t133 -20q131 0 210.5 84t79.5 193q8 92 -78 182t-192 90q-71 0 -121 -42t-50 -98
q0 -62 69 -118q-4 -3 -55.5 -49.5t-64.5 -55.5q-90 96 -90 206q0 108 80 187.5t200 79.5q73 0 135.5 -24.5t105.5 -65.5t73.5 -94.5t45 -110.5t14.5 -114q0 -105 -41 -195t-127 -149.5t-202 -59.5q-90 0 -162 32t-118 85.5t-76.5 126t-43 149.5t-12.5 161z" />
    <glyph glyph-name="uni0432" unicode="&#x432;" horiz-adv-x="961" 
d="M133 555l-80 14q37 183 128 224q0 2 28 12q95 36 180 36q142 0 232 -72q37 -29 59 -71.5t22 -87.5q2 -44 -18 -85q-18 -38 -49 -66q66 -6 125.5 -32.5t101.5 -78t42 -118.5q2 -44 -18 -85q-37 -76 -119 -111.5t-178 -35.5h-353q-28 0 -42 2q23 17 39.5 157t20.5 223
q2 42 4 128q0 63 -3 111q-6 101 -32 104l-37 -15l-6 -6q-31 -31 -39 -93q-7 -49 -8 -54zM393 330q2 -78 2 -115q0 -46 -1 -68q-2 -31 0 -60v-1h177q54 1 101.5 20t68.5 60q18 36 14 71q-7 60 -50.5 102t-102.5 42q-76 0 -209 -51zM307 749q54 -74 74 -254l3 -28
q120 8 155 79q18 36 14 71q-7 60 -50.5 102t-102.5 42q-45 0 -93 -12z" />
    <glyph glyph-name="uni0433" unicode="&#x433;" horiz-adv-x="722" 
d="M123 -1q-17 -1 -36 -1q4 37 5 52q3 49 11.5 139t10.5 114q10 111 15 279v16q-10 122 -18 182l23 -1l22 1h21q194 3 377 22h12q44 0 72.5 -31.5t38 -70.5t9.5 -82q0 -68 -26.5 -128t-80.5 -86q-27 -13 -52 -13q-35 0 -63 22q-46 36 -74.5 93t-35.5 119q3 0 13 2t17 3
q4 1 12 2.5t14.5 2.5t12.5 1t12 1t13.5 2.5l12.5 2.5t10.5 1.5t10.5 1.5t7 1q4 -23 4 -52q0 -102 39 -128q15 -6 29 5q20 16 29 52t9 70q0 29 -12 53t-37 28q-162 25 -292 25q-20 -141 -26 -219q-5 -58 -5 -96q-1 -38 2 -94v-6l19 -172l7 -110q-14 0 -23 -1q-35 0 -54 -1
t-55 -1z" />
    <glyph glyph-name="uni0434" unicode="&#x434;" horiz-adv-x="959" 
d="M451 -43q-116 0 -202 59.5t-127 149.5t-41 195q0 57 14.5 114t45 110.5t73.5 94.5t105.5 65.5t135.5 24.5q120 0 200 -79.5t80 -187.5q0 -110 -90 -206q-13 9 -64.5 55.5t-55.5 49.5q69 56 69 118q0 56 -50 98t-121 42q-106 0 -192 -90t-78 -182q0 -109 79.5 -193
t210.5 -84q75 0 133 20t95 52t61.5 79.5t35.5 97t13.5 109t-1 110.5t-12.5 107q-14 91 -61.5 171.5t-115 139.5t-145 101t-159.5 65l81 123q162 -60 274.5 -176t166.5 -267t54 -332q0 -84 -12.5 -161t-43 -149.5t-76.5 -126t-118 -85.5t-162 -32z" />
    <glyph glyph-name="uni0435" unicode="&#x435;" horiz-adv-x="879" 
d="M81 385q0 78 26 151.5t73.5 131t121.5 92t162 33.5q67 -1 122.5 -22.5t91.5 -56t62 -81t39 -95t17 -100.5q-3 -37 -43 -43h-533q-5 -29 0.5 -72t23.5 -92.5t45.5 -91.5t73 -70t99.5 -28t111 26t96 73t37 98q-1 18 -18 27t-43 9q-39 0 -72 -15.5t-37.5 -40.5t45.5 -56
l-96 -58q-26 31 -37 57t-11 66q0 61 51 94.5t121 33.5q73 0 126 -35t53 -99q0 -81 -50 -143t-127.5 -92t-164.5 -27q-185 8 -275 124.5t-90 301.5zM470 711q-98 0 -163 -66t-87 -166l455 -6q-4 94 -57 166t-148 72z" />
    <glyph glyph-name="uni0436" unicode="&#x436;" horiz-adv-x="1338" 
d="M43 31q20 30 44 82q58 126 105 182q34 41 72 49q35 8 78 7q62 -2 95 -3q63 -2 94 -1q46 2 75 13q6 22 -12 39q-41 38 -193 57q-4 0 -66 7q-61 6 -113 51q-89 77 -167 219l139 86q12 -42 23.5 -72.5t30 -70.5t43.5 -69t55 -44q16 -8 51 -16q37 -8 70 -15q97 -20 147 -47
q0 1 3 41l2 29q1 10 1 18v10l-1 16q-7 107 -17 182q48 -2 79 2q32 4 79 2q-3 -27 -11.5 -90t-11.5 -90q-12 -100 -13 -115v-5q50 27 147 47q33 7 70 15q73 17 110 65q50 65 73 145q9 31 20 62l139 -86q-74 -137 -167 -219q-46 -41 -113 -51q-11 -2 -33.5 -4t-32.5 -3
q-149 -17 -193 -57q-18 -17 -12 -39q29 -11 75 -13q31 -1 94 1q33 1 95 3q43 1 78 -7q28 -7 55.5 -32t51.5 -65t38.5 -68t31.5 -66q24 -52 44 -82q-7 -6 -29 -15q-13 -6 -43 -18q-15 -6 -43 -18q-22 -10 -28 -15q-21 34 -35 73q-18 51 -31 84q-28 68 -53.5 93.5t-86.5 28.5
q-37 4 -65 6q-79 3 -145 22q11 -160 23 -272q-19 0 -36 -1q-35 0 -55 -1q-19 -1 -54 -1q-17 -1 -36 -1v3q1 18 5 52q4 38 9.5 110t8.5 101l1 10q-61 -17 -145 -22q-28 -2 -65 -6q-38 -2 -60 -11t-42 -37q-35 -50 -69 -158q-11 -34 -35 -73q-6 5 -28 15q-28 12 -43 18
q-30 12 -43 18q-22 9 -29 15z" />
    <glyph glyph-name="uni0437" unicode="&#x437;" horiz-adv-x="887" 
d="M66 -236q0 49 43.5 87t101 56t112.5 18q56 0 116 -38t85 -93.5t-15 -118.5q-17 11 -71.5 22.5t-71.5 21.5q36 44 10 84.5t-83 40.5q-56 0 -103 -31.5t-47 -76.5q0 -35 23.5 -62t59.5 -41.5t73.5 -21.5t71.5 -7q66 0 122 22.5t90.5 56.5t54 72.5t19.5 72.5q0 67 -40 119.5
t-96.5 85.5t-113 60.5t-96.5 59.5t-40 68t37.5 61t90.5 42t106.5 38.5t91 64t37.5 104.5q0 74 -66.5 132t-145.5 58q-82 0 -138.5 -41.5t-64.5 -130.5l-134 55q79 203 371 203q134 -2 225 -78t91 -206q0 -52 -35 -96t-85 -72t-100.5 -50t-87 -42t-38.5 -37q-3 -24 16 -47
t52 -44t73.5 -43t82 -49t75.5 -57t55.5 -71t21.5 -87q0 -79 -32.5 -140.5t-87.5 -98t-121.5 -55t-140.5 -18.5q-79 0 -139 11t-111 37.5t-77.5 76.5t-26.5 123z" />
    <glyph glyph-name="uni0438" unicode="&#x438;" horiz-adv-x="910" 
d="M419 -41q-70 -2 -125 13t-89 42.5t-59 65t-35 82t-16.5 93t-5 97.5t0.5 96q1 18 1 27q1 15 1 58q0 151 26 200q34 64 105 64q44 0 94.5 -24.5t90.5 -64.5t66 -85t24 -91t-38 -77l-104 43q33 56 36 77q2 39 -48.5 85t-90.5 46q-24 0 -31 -20q-23 -61 -33.5 -144.5t-3 -171
t30.5 -162t75 -121.5t124 -46q89 1 150.5 55t93.5 143t47 222q0 149 -21 317q28 -2 80 1.5t78 2.5q-41 -317 -42.5 -400t26.5 -382q-14 0 -84 -2t-82 -2q6 64 12 117q-87 -150 -254 -154z" />
    <glyph glyph-name="uni0439" unicode="&#x439;" horiz-adv-x="862" 
d="M429 -41q-70 -2 -125 13t-89 42.5t-59 65t-35 82t-16.5 93t-5 97.5t0.5 96q1 18 1 27q1 15 1 58q0 151 26 200q34 64 105 64q44 0 94.5 -24.5t90.5 -64.5t66 -85t24 -91t-38 -77l-104 43q33 56 36 77q2 39 -48.5 85t-90.5 46q-24 0 -31 -20q-23 -61 -33.5 -144.5t-3 -171
t30.5 -162t75 -121.5t124 -46q89 1 150.5 55t93.5 143t47 222q0 149 -21 317q28 -2 80 1.5t78 2.5q-41 -317 -42.5 -400t26.5 -382q-14 0 -84 -2t-82 -2q6 64 12 117q-87 -150 -254 -154zM335 1019q0 42 27 81q40 60 115.5 98t148.5 38q45 0 90 -25t45 -65q0 -44 -23 -100.5
t-64.5 -100t-84.5 -43.5q-36 0 -69 24.5t-45 58.5q-9 25 -6 52l120 76q0 -15 -4 -32l-5 -40q-3 -17 -1 -36q2 -16 12 -17q14 -3 32 15q16 16 32.5 44t22.5 50q7 24 2 37q-7 17 -30 25q-17 6 -50 4q-56 -3 -116 -43.5t-63 -90.5q-1 -25 6 -42q12 -30 50 -58q15 -11 31 -27
l-28 -29q-19 -19 -30 -28q-12 12 -40 38q-75 69 -75 136z" />
    <glyph glyph-name="uni043A" unicode="&#x43a;" horiz-adv-x="1000" 
d="M53 567q51 232 168 232q124 0 160 -305q46 21 133 39q24 5 70 15q72 16 110 65q22 29 40.5 67t28 65.5t23.5 74.5l139 -86q-73 -134 -166 -219q-44 -40 -114 -51q-11 -2 -33 -4t-32 -3q-151 -17 -194 -57q-18 -16 -12 -39q29 -11 76 -13q29 -1 94 1q32 1 94 3q43 1 78 -7
q64 -15 130 -135q20 -36 47 -96q24 -52 44 -82q-6 -5 -28 -15q-28 -12 -43 -18q-30 -12 -43 -18q-22 -9 -29 -15q-22 35 -34 73q-33 103 -70 158q-18 27 -41.5 36.5t-59.5 11.5q-39 5 -66 6q-79 3 -145 22q11 -162 23 -272q-19 0 -36 -1q-35 0 -54 -1t-55 -1q-17 -1 -36 -1
q28 277 36 445q0 11 0.5 32.5t1.5 32.5q0 62 -3 110q-3 41 -12 77q-8 29 -22 27q-35 -4 -54 -38t-26 -76q-1 -4 -3.5 -24.5t-4.5 -29.5z" />
    <glyph glyph-name="uni043B" unicode="&#x43b;" horiz-adv-x="957" 
d="M103 -2q-31 0 -38 1q19 23 36 69q41 114 78 236q41 134 98 269q92 219 202 219q34 0 67 -22t58.5 -59t43 -69.5t32.5 -68.5q43 -103 98 -269q28 -83 40 -129q25 -96 74 -176q-7 -1 -38 -1q-39 2 -117 2q-22 1 -37 -1q-9 55 -21 128q-14 86 -24 128q-54 224 -94 328
q-42 111 -82 111q-41 0 -83 -110q-41 -108 -94 -329q-15 -62 -24 -128q-3 -25 -21 -128q-15 2 -37 1q-78 0 -117 -2z" />
    <glyph glyph-name="uni043C" unicode="&#x43c;" horiz-adv-x="1373" 
d="M75 -1q21 24 37 69q0 1 15 42t23 65q24 67 41 129q33 117 97 269q92 219 201 219q47 0 87.5 -37.5t68.5 -88.5q14 -25 43 -83q89 209 196 209q75 0 143 -107q52 -81 110 -244q16 -45 46 -137q4 -11 18.5 -58.5t22.5 -70.5q26 -75 38 -107q18 -46 36 -69q-7 -1 -38 -1
q-39 2 -117 2q-22 1 -37 -1q-13 74 -20 128q-9 61 -26 128q-67 257 -93 329q-22 63 -43 90.5t-40 19.5q-46 -20 -57 -72q-8 -38 -33 -86q-45 -87 -48 -166q-2 -50 -1 -83q13 -283 32 -288h1h-1h-173q6 3 12 30q3 14 9 67q1 12 6 89l3 93q0 34 -2 84q-3 73 -51.5 202.5
t-91.5 129.5q-41 0 -81 -111q-46 -123 -95 -328q-17 -72 -25 -128q-7 -49 -20 -128q-15 2 -37 1q-78 0 -117 -2q-32 0 -39 1z" />
    <glyph glyph-name="uni043D" unicode="&#x43d;" horiz-adv-x="1022" 
d="M437 410q-5 22 -3 48q2 35 18 65t46 37q20 5 47 3q94 -6 165 -46q54 -30 62 -75q4 -23 -2 -48q-9 -39 -38.5 -67t-67.5 -30l-99 102q11 1 32 3q90 0 90 24t-43.5 41t-80.5 22q-25 3 -37 -6q-17 -12 -18 -34q-2 -26 5 -49q12 -42 44 -81t71 -57q28 -12 54 -11q65 12 86 76
l3 6q1 3 2 4l7 13q10 16 13 25l1 2q5 11 7.5 24.5t3 33.5t1.5 28v66q-2 31 -3 69q-2 63 -18 182q47 -2 80 2q31 4 78 2q-20 -160 -23 -179q-19 -131 -19 -221q-1 -38 2 -94q5 -81 9 -119q0 -4 15 -169q-18 0 -33 -1q-32 0 -50 -1t-50 -1q-15 -1 -33 -1q6 64 12 117l13 88
q0 2 0.5 7t1.5 7q-33 -38 -79 -48q-40 -9 -85 10q-67 27 -119.5 92.5t-67.5 138.5zM65 569q8 36 19.5 71t31.5 74t50.5 63t66.5 24q174 0 174 -586q0 -46 -1 -68q-2 -31 0 -60q4 -62 24 -87q-7 1 -43 1q-70 0 -139 -3q-28 0 -42 2q23 17 39.5 157t20.5 223q2 42 4 128
q0 63 -3 111q-2 40 -12 76q-8 30 -22 28q-35 -4 -54.5 -38.5t-25.5 -75.5q-7 -49 -8 -54z" />
    <glyph glyph-name="uni043E" unicode="&#x43e;" horiz-adv-x="981" 
d="M505 -45q-119 0 -218.5 62t-153 158.5t-50.5 201.5q2 165 113 283.5t280 132.5l4 -82q-124 -11 -188.5 -107t-64.5 -227q0 -60 16 -117.5t47 -108t84.5 -81.5t120.5 -31q78 0 138.5 49.5t90 124t29.5 156.5q0 45 -7 92t-21 92t-40 73.5t-59 28.5q-28 0 -60.5 -37
t-56.5 -89t-42.5 -108t-19.5 -95t13 -50q18 -8 34 2.5t28 35.5t19 47t13 49q7 -3 32.5 -15.5t47.5 -22.5t33 -14q-19 -62 -77 -112.5t-120 -50.5q-104 0 -104 135q0 85 36 181t93.5 162t113.5 66q123 0 207 -108.5t84 -253.5q0 -111 -53 -208t-144.5 -155.5t-197.5 -58.5z
" />
    <glyph glyph-name="uni043F" unicode="&#x43f;" horiz-adv-x="1039" 
d="M145 555l-80 14q8 41 20.5 78t32.5 73.5t49.5 58.5t65.5 22q85 0 125 -101q86 93 229 93q94 0 173.5 -46.5t115.5 -132.5q25 -61 37 -142t13 -128t1 -162q0 -50 4.5 -73t28.5 -109h-197q31 79 31 238q0 102 -9 177t-38 148t-78.5 111t-106.5 38q-54 0 -102 -35t-76 -99
q8 -85 8 -172v-187q0 -176 37 -219q-7 1 -42 1q-21 0 -69 -1t-69.5 -1.5t-42.5 1.5q20 20 38.5 202t17.5 354t-29 167q-30 -5 -48.5 -31t-25 -53.5t-12.5 -67.5q-1 -11 -2 -16z" />
    <glyph glyph-name="uni0440" unicode="&#x440;" horiz-adv-x="932" 
d="M95 -442q19 137 21.5 301t-5 371t-7.5 290q0 65 14 116.5t44.5 94t85.5 65.5t130 23q66 0 131.5 -14t129.5 -47t112.5 -80.5t78 -120.5t29.5 -162q0 -185 -98.5 -293t-247.5 -110q-54 -2 -105 15.5t-90.5 63.5t-39.5 113q0 70 45.5 113t108.5 43q54 0 100 -33
q-8 -11 -31 -55t-31 -55q-2 2 -11 8l-12 8l-10.5 7t-12 7t-11 4.5t-13 3.5t-12.5 1q-20 0 -25 -32q-8 -49 28 -87q36 -39 104 -39q92 0 160.5 81t68.5 222q0 145 -92.5 250.5t-228.5 107.5q-24 0 -44 -6t-34.5 -19.5t-25.5 -27.5t-19 -37.5t-13.5 -41t-9.5 -47.5t-5.5 -47
t-4.5 -49.5t-4 -45.5q-11 -113 -11 -264q0 -351 40 -600q-28 -2 -88.5 2t-88.5 2z" />
    <glyph glyph-name="uni0441" unicode="&#x441;" horiz-adv-x="916" 
d="M476 -41q-117 0 -209 56t-139 145t-47 194q0 112 45.5 211t137 164.5t210.5 65.5q80 0 159 -30.5t133 -89.5t54 -130q0 -64 -53 -100.5t-124 -36.5q-52 0 -94.5 20.5t-61.5 60.5l106 82q11 -26 38.5 -46t52.5 -20q26 0 38 25q21 46 -14.5 89t-96 66.5t-118.5 25.5
q-75 2 -134.5 -53.5t-89.5 -137t-30 -166.5q0 -81 22.5 -150.5t77 -118t133.5 -48.5q107 0 190 63t95 168q13 -2 39.5 -7t40.5 -7q-12 -94 -65.5 -162.5t-130 -100.5t-165.5 -32z" />
    <glyph glyph-name="uni0442" unicode="&#x442;" horiz-adv-x="1362" 
d="M151 555l-80 14q8 41 20.5 78t32.5 73.5t49.5 58.5t65.5 22q74 0 112 -109q70 101 186 101q61 0 118 -32t96 -93q34 61 87.5 93t114.5 32q75 0 141 -46.5t101 -132.5q25 -61 36.5 -141t13 -130t1.5 -161q0 -50 4.5 -73t28.5 -109h-196q36 100 36 238q0 102 -9 177
t-38 148q-61 148 -140 148q-38 0 -72.5 -38.5t-61.5 -113.5q16 -55 24 -126.5t8.5 -111.5t0.5 -139q0 -51 4 -75.5t28 -106.5h-196q37 94 37 238q0 102 -9 177t-38 148q-62 149 -140 149q-39 0 -74 -39.5t-61 -115.5q17 -142 17 -338q0 -177 36 -219q-7 1 -42 1
q-21 0 -69 -1t-69.5 -1.5t-42.5 1.5q23 19 43 185t20 323q0 218 -36 215q-30 -5 -48.5 -31t-25 -53.5t-12.5 -67.5q-1 -11 -2 -16z" />
    <glyph glyph-name="uni0443" unicode="&#x443;" horiz-adv-x="945" 
d="M351 -657q-138 0 -209 112q-58 92 -43 205q14 109 86 156q39 26 89 26q78 0 136.5 -37.5t67.5 -115.5q-14 -3 -72 -24.5t-67 -24.5q-6 19 -10 29t-12.5 24.5t-22.5 20.5t-33 5q-63 -2 -77.5 -68t24.5 -137q43 -80 118 -88q8 -1 15 -1q49 0 90.5 20.5t71.5 50.5t56 79.5
t41.5 92t30.5 103.5t22 100t16 94q-110 13 -192 39t-145 70t-104 102.5t-67.5 143.5t-38.5 186t-14 237l182 9q-18 -62 -20 -155.5t10 -164.5q48 -324 405 -377q16 103 22.5 218t9.5 258t7 221h152q-62 -523 -152 -924q-20 -89 -41.5 -157t-53.5 -132t-70 -105.5t-91 -66
t-117 -24.5z" />
    <glyph glyph-name="uni0444" unicode="&#x444;" horiz-adv-x="1517" 
d="M118 219q-45 81 -45 196q0 170 91 283t255 120q37 2 78 -9q72 -19 114.5 -65.5t42.5 -117.5q0 -100 -88 -142q-37 -18 -82 -13q-47 5 -84 32q7 8 14 23q2 5 17 32q12 22 17 32q7 15 14 23q20 -15 39 -27q20 -12 43 -12q13 0 19.5 13.5t6.5 27.5q0 57 -37.5 87t-95.5 30
q-93 0 -157 -77q-72 -86 -72 -226q0 -143 91 -249t230 -109q101 0 131 110q21 75 24 141q1 27 5 70l1 9q0 80 -1 118q-1 57 13 115q24 94 92.5 139t168.5 45q138 0 255 -57.5t181 -171.5q45 -79 45 -195q0 -171 -90 -283.5t-256 -119.5q-38 -1 -78 9q-73 19 -115 65t-42 118
q0 46 22.5 84.5t64.5 56.5q41 18 83 14q47 -5 84 -32q-7 -9 -14 -24q-5 -10 -17 -32q-1 -2 -7.5 -13.5t-9.5 -17.5q-7 -15 -14 -23q-7 5 -20.5 13t-19.5 13q-19 13 -42 13t-26 -41q-2 -21 5 -38q16 -44 46.5 -60.5t81.5 -18.5q42 -1 84 19q74 36 109.5 114t35.5 170
q0 142 -91.5 248.5t-229.5 109.5q-54 0 -84 -28.5t-47 -82.5q-21 -67 -24 -141q-1 -26 -5 -69l-1 -10q1 -41 1 -117q0 -54 -11 -106v-31q0 -163 10 -312q11 -175 30 -288q-49 -2 -89 2q-39 4 -88 2q16 111 19 239q3 100 1 226l-15 -8q-54 -23 -131 -23q-137 0 -255 57.5
t-181 170.5z" />
    <glyph glyph-name="uni0445" unicode="&#x445;" horiz-adv-x="951" 
d="M87 -6q8 37 21.5 71.5t36 67t41 57t52.5 57t53 50t59.5 52t56.5 48.5l-27 27q-7 6 -20 19q-48 46 -73 71t-60 67t-56 84.5t-33 90.5h179q15 -154 161 -293q68 68 108.5 136.5t49.5 152.5h178q-24 -96 -82.5 -169.5t-158.5 -162.5q-22 -19 -25 -23q13 -11 49.5 -42.5
t51.5 -44.5t47 -42.5t47.5 -47.5t39 -48t36.5 -54.5t26 -56t20 -63.5q-10 -2 -80.5 1t-82.5 -1q-36 98 -90 175t-134 157q-82 -80 -137.5 -159t-89.5 -177q-13 4 -83.5 1t-80.5 -1z" />
    <glyph glyph-name="uni0446" unicode="&#x446;" horiz-adv-x="1078" 
d="M89 359q0 42 2 116q0 128 10 201q12 86 70 110q35 14 70 10q73 -9 150.5 -74t98.5 -137q10 -36 6 -70q-4 -35 -36 -60l-104 43q11 19 21 37q14 26 15 40q1 15 -10 36q-15 28 -45 54.5t-59 35.5q-21 7 -35 4q-15 -3 -21 -19q-41 -111 -41 -257q6 -261 127 -356
q42 -34 107 -32q134 3 203 116q67 109 88 304q0 159 -21 317q48 -2 79 2q32 4 79 2q-3 -27 -11.5 -90t-11.5 -90q-17 -134 -20 -220q0 -83 11 -213q0 -6 1.5 -18t2.5 -19l24 -3q132 -16 194 -95q30 -39 30 -108q0 -78 -60 -134t-143 -79q0 12 -7 30q-2 5 -17 43
q-12 30 -17 43q-8 22 -8 31q30 -6 62 -1q64 10 98 44q16 16 14 31q-2 21 -34.5 35t-83.5 19.5t-82 7t-60 1.5q-11 -1 -31 -1h-33q6 64 12 117q-58 -102 -169 -141q-31 -11 -85 -13q-87 -3 -147 20q-58 22 -96.5 62.5t-56.5 95.5t-24 105.5t-6 116.5z" />
    <glyph glyph-name="uni0447" unicode="&#x447;" horiz-adv-x="926" 
d="M55 569q8 37 19.5 71.5t31 73.5t50 63t67.5 24q35 0 64.5 -27.5t44.5 -60t24 -69.5l7 -28q9 -38 15 -83l1 -1q17 -98 32 -118q59 -81 140 -81t148 65q6 90 9 184l-1 16q-5 59 -7 81q-2 14 -5.5 48t-5.5 53q47 -2 80 2q31 4 78 2q-4 -31 -12 -91.5t-11 -87.5
q-10 -84 -14 -125q-5 -58 -5 -96q-1 -38 2 -94v-6l19 -172l6 -95l2 -15q-15 0 -24 -1q-35 0 -54 -1t-55 -1q-17 -1 -36 -1q4 37 5 52q3 45 11.5 133t9.5 102q-46 -24 -92 -28q-56 -5 -100 3q-88 17 -156 72t-76 136l-3 30q-1 4 -1.5 14t-0.5 15q0 8 -1 15l-1 11v12
q-3 31 -3 41v13q-4 47 -12 76q-8 30 -22 28q-35 -4 -54.5 -38.5t-25.5 -75.5q-7 -49 -8 -54z" />
    <glyph glyph-name="uni0448" unicode="&#x448;" horiz-adv-x="1594" 
d="M89 359q0 42 2 116q0 128 10 202q12 85 70 109q35 14 70 10q75 -9 150 -72.5t99 -137.5q12 -37 6 -71q-6 -35 -36 -60l-104 43q3 6 21 37q14 23 15 40q1 16 -10 37q-16 28 -44.5 53t-59.5 37q-17 6 -35 3q-15 -3 -21 -19q-41 -112 -41 -257q4 -262 127 -355
q45 -34 107 -33q63 1 112.5 29.5t79.5 69t51.5 100t31 110t16.5 111.5q0 113 -10 216q-8 81 -11 101q47 -2 79 2t79 2q-4 -35 -12 -95t-11 -84q-10 -84 -14 -125q-1 -6 -2.5 -18.5t-1.5 -19.5q2 -46 9 -91.5t23.5 -97.5t40.5 -91t64 -66t90 -28q54 -1 103 33q50 35 78 101
q-8 85 -8 172v187q0 177 -37 219q7 -1 42 -1q44 0 69 1q23 1 69 1q27 1 43 -1q-8 -7 -16 -44q-4 -20 -14 -89q-20 -142 -26 -377q-1 -44 1 -110q1 -44 10 -77q7 -28 18 -26q63 9 79 114q4 30 9 54l80 -14q-8 -38 -19 -72.5t-30.5 -73.5t-50 -62.5t-68.5 -23.5q-47 0 -76 26
t-49 75q-68 -74 -176 -90q-50 -8 -102 0q-75 11 -138.5 52.5t-94.5 105.5l-25 -27q-15 -15 -16 -17q-8 -5 -14 -11l-11 -11q-11 -11 -29 -25l-27 -25q-67 -67 -184 -71q-85 -3 -147 21q-58 22 -96.5 62t-56.5 95t-24 105.5t-6 116.5z" />
    <glyph glyph-name="uni0449" unicode="&#x449;" horiz-adv-x="1650" 
d="M89 359q0 44 2 116q0 128 10 202q12 85 70 109q35 14 70 10q75 -9 150 -72.5t99 -137.5q12 -37 6 -71q-6 -35 -36 -60l-104 43q3 6 21 37q14 23 15 40q1 16 -10 37q-16 28 -44.5 53t-59.5 37q-17 6 -35 3q-15 -3 -21 -19q-41 -112 -41 -257q4 -262 127 -355
q45 -34 107 -33q63 1 112.5 29.5t79.5 69t51.5 100t31 110t16.5 111.5q0 113 -10 216q-8 81 -11 101q48 -2 79 2q32 4 79 2q-4 -35 -12 -95t-11 -84q-10 -84 -14 -125q-1 -6 -2.5 -18.5t-1.5 -19.5q2 -46 9 -91.5t23.5 -97.5t40.5 -91t64 -66t90 -28q54 -1 103 33
q50 35 78 101q-8 85 -8 172v187q0 177 -37 219q7 -1 42 -1q44 0 69 1q23 1 69 1q27 1 43 -1q-8 -7 -16 -44q-4 -20 -14 -89q-20 -142 -26 -377q-1 -44 1 -110q0 -4 3 -40q196 -8 269 -102q30 -39 30 -108q0 -78 -60 -134t-143 -79q0 12 -7 30q-2 5 -17 43q-12 30 -17 43
q-8 22 -8 31q30 -6 62 -1q64 10 98 44q16 16 14 31q-2 23 -45 37.5t-77 18t-66 4.5l-7 1h-1q-47 0 -76 26t-49 75q-68 -74 -176 -90q-50 -8 -102 0q-76 11 -138.5 52t-94.5 107l-25 -27q-14 -14 -16 -18q-8 -5 -14 -11l-11 -11q-11 -11 -29 -25l-27 -25q-67 -67 -184 -71
q-85 -3 -147 21q-58 22 -96.5 62t-56.5 95t-24 105.5t-6 116.5z" />
    <glyph glyph-name="uni044A" unicode="&#x44a;" horiz-adv-x="880" 
d="M145 525l-80 14q51 232 168 232q31 0 56 -17.5t41.5 -50t25 -57.5t17.5 -60l14 -58q7 -34 6 -63v-70q0 -13 -0.5 -37.5t-1.5 -34.5l2 -17q0 -2 0.5 -7t1.5 -7q4 -13 1 -16q0 -11 2 -24l2 -16q1 -6 1 -13q4 -21 6 -27l4 -14q2 -10 3 -13l1 -5l20 -47q8 -14 9 -22
q2 -10 7 -15l9 -13q14 -25 51 -25q79 0 130.5 62.5t51.5 142.5q0 49 -20.5 96t-59.5 65q-24 11 -45 10q-57 -2 -63 -37l-3 -18q0 -1 1 -4t1 -5q10 2 15 5l37 26l10 -13q1 -2 10 -17q6 -12 10 -19l11 -21q5 -7 5 -8t1 -2t1 -2l11 -14l-14 -10q-29 -20 -61 -23t-60 10
q-30 14 -47 42t-17 61q0 65 48 101t115 36q113 -7 172.5 -81t59.5 -187q0 -128 -91 -204t-225 -76h-7q-118 3 -161 96q-43 63 -55 183q-6 62 -5 118v23q1 35 3 101q0 62 -3 110q-3 41 -12 77q-8 29 -22 27q-35 -4 -54 -38t-26 -76q-1 -4 -3.5 -24.5t-4.5 -29.5z" />
    <glyph glyph-name="uni044B" unicode="&#x44b;" horiz-adv-x="980" 
d="M79 777q53 -2 89 2t88 2q-24 -153 -42 -304q-4 -34 -6 -96v-17q0 -6 2 -15q2 -7 3 -30q4 -47 7 -67l2 -16q1 -6 1 -13q4 -21 6 -27l4 -14q2 -10 3 -13l1 -5l20 -47q8 -14 9 -22q1 -5 7 -15l9 -13q18 -25 50 -25q81 3 132 63t51 142q0 65 -32.5 118t-93.5 53
q-29 0 -47 -14t-18 -41q0 -3 2 -9q10 2 14 5l38 26l10 -13q1 -2 10 -17q6 -12 10 -19l11 -21q0 -1 1.5 -4t2.5 -4l2 -2t1 -2l11 -14l-15 -10q-29 -20 -60 -23q-34 -3 -60 10q-64 32 -64 103q0 65 48 101t115 36q110 -4 171 -80.5t61 -187.5q0 -77 -31 -129
q-39 -74 -117 -112.5t-168 -38.5h-7q-54 2 -98.5 26t-62.5 70q-61 89 -61 301l1 28v1l2 43h1q6 102 8 153l-1 15q-4 63 -20 182zM798 -2q-32 -4 -79 -2q3 27 11.5 90t11.5 90q17 134 20 220q0 26 -2 94l-20 178l-7 110q14 0 23 1q55 0 109 3h36q-1 -18 -5 -52
q-4 -32 -22 -253q-10 -111 -15 -279l1 -16q7 -107 17 -182q-48 2 -79 -2z" />
    <glyph glyph-name="uni044C" unicode="&#x44c;" horiz-adv-x="698" 
d="M99 595q-4 63 -20 182q53 -2 89 2t88 2q-24 -153 -42 -304q-4 -34 -6 -96v-17q0 -6 2 -15q2 -7 3 -30q4 -47 7 -67l2 -16q1 -6 1 -13q4 -21 6 -27l4 -14q2 -10 3 -13l1 -5l20 -47q8 -14 9 -22q1 -5 7 -15l9 -13q7 -11 20 -19q12 -8 30 -6q64 5 104 36t64 91q15 37 15 78
q0 65 -32.5 118t-93.5 53q-29 0 -47 -14t-18 -41q0 -3 2 -9q9 2 14 5l38 26l10 -13q1 -2 10 -17q6 -12 10 -19l11 -21q0 -1 1.5 -4t2.5 -4l2 -2t1 -2l11 -14l-15 -10q-29 -20 -60 -23q-34 -3 -60 10q-64 32 -64 103q0 65 48 101t115 36q110 -4 171 -80.5t61 -187.5
q0 -77 -31 -129q-39 -74 -117 -112.5t-168 -38.5h-7q-54 2 -98.5 26t-62.5 70q-61 89 -61 301l1 28v1l2 43h1q6 102 8 153z" />
    <glyph glyph-name="uni044D" unicode="&#x44d;" horiz-adv-x="916" 
d="M79 254l80 14q12 -106 94.5 -168.5t190.5 -62.5q104 0 161.5 77t68.5 189l-6 -1q-127 -21 -244 -45l-18 109q28 1 246 19l24 2q-21 207 -147 292q-49 33 -106 32q-69 -3 -133.5 -31.5t-94.5 -80.5q-18 -31 -1 -69q9 -20 27 -23q20 -3 39 4q18 7 37 25t26 35l106 -82
q-29 -61 -113 -77q-39 -8 -76 -2q-62 9 -103 43t-41 92q0 75 58 134.5t136 87.5t152 28q90 0 165 -37t123.5 -99t75.5 -140.5t29 -164.5q0 -117 -62.5 -217.5t-168.5 -145.5q-75 -32 -164 -32q-143 0 -243.5 79t-117.5 216z" />
    <glyph glyph-name="uni044E" unicode="&#x44e;" horiz-adv-x="1376" 
d="M133 541l-80 14q51 232 168 232q27 0 50 -15.5t39 -38t29 -59t20.5 -66t14 -72t9 -64.5t5.5 -55q63 4 93 7q16 152 126.5 255.5t263.5 117.5l4 -82q-84 -7 -142.5 -58t-84.5 -122t-26 -154v-13l4 -9l-3 -1q4 -60 22 -115t50 -100.5t82.5 -72.5t112.5 -27q61 0 111.5 30.5
t81.5 79t48 106t17 114.5q0 173 -67 257q-24 30 -60 29q-65 -3 -140 -179q-35 -82 -39 -163q-1 -29 13 -37q7 -4 15 -4q16 0 30 16t24 41.5t15.5 44.5t9.5 36q14 -7 25 -12l32 -15q5 -2 16 -7t16 -8q12 -6 24 -10q-15 -60 -75 -111.5t-122 -51.5q-44 0 -66.5 20.5
t-32.5 63.5q-6 27 -5 51q8 143 78 269q30 55 73.5 97.5t91.5 42.5q88 0 156.5 -56.5t101.5 -138t33 -167.5q0 -108 -51.5 -205t-143.5 -157t-200 -60q-94 0 -171 37q-102 49 -171 140t-78 199l-87 -15q2 -80 2 -119q0 -46 -1 -67v-14l2 -21l5 -80q6 -18 17 -33q-7 1 -43 1
h-49q-9 0 -27 -0.5t-27 -1.5h-36q-26 -1 -42 1q23 17 39.5 157t20.5 223q2 43 4 129q0 62 -3 110q-3 41 -12 77q-8 29 -22 27q-35 -4 -54 -38t-26 -76q-1 -4 -3.5 -24.5t-4.5 -29.5z" />
    <glyph glyph-name="uni044F" unicode="&#x44f;" horiz-adv-x="864" 
d="M73 36q-3 53 3 100q14 126 82 151q10 4 27 2q13 -1 34 -11q13 -6 44 -28q-12 -40 -31 -71q-20 -34 -35 -66q-18 30 -26 34q-12 5 -16 -8q-6 -15 -7 -37q-2 -26 0 -54q2 -47 15 -113q5 -27 32.5 -63t53.5 -45q14 -5 28 0q12 4 23 25q13 45 15 92v95q0 128 28 187
q10 21 40 48t57 45l9 6q-86 2 -164 39t-113 107q-21 42 -21 85q-2 44 18 85q37 76 119 111.5t178 35.5h29l173 -5q14 0 38 2q43 3 79 2q-4 -31 -12 -91.5t-11 -87.5q-17 -136 -20 -221q0 -26 2 -94v-6l19 -172l4 -47l4 -63h-23q-54 -3 -109 -3q-17 -1 -36 -1q1 18 5 52
q10 85 22 253l3 46l-18 -18q-29 -24 -54 -51q-47 -43 -64.5 -83.5t-25.5 -109.5l-7 -78q-9 -96 -31 -159q-35 -101 -134 -101q-19 0 -42 5q-175 43 -184 279zM314 620q-18 -34 -14 -71q7 -60 50.5 -102t102.5 -42q76 0 186 42q5 69 6 138l-1 16q-1 6 -2.5 35t-3.5 46l-2 18
h-152q-54 -1 -101.5 -20t-68.5 -60z" />
    <glyph glyph-name="uni0451" unicode="&#x451;" horiz-adv-x="854" 
d="M442 -41q-185 8 -275 124.5t-90 301.5q0 78 26 151.5t73.5 131t121.5 92t162 33.5q67 -1 122.5 -22.5t91.5 -56t62 -81t39 -95t17 -100.5q-3 -37 -43 -43h-533q-5 -29 0.5 -72t23.5 -92.5t45.5 -91.5t73 -70t99.5 -28t111 26t96 73t37 98q-1 18 -18 27t-43 9
q-39 0 -72 -15.5t-37.5 -40.5t45.5 -56l-96 -58q-26 31 -37 57t-11 66q0 61 51 94.5t121 33.5q73 0 126 -35t53 -99q0 -81 -50 -143t-127.5 -92t-164.5 -27zM216 479l455 -6q-4 94 -57 166t-148 72q-98 0 -163 -66t-87 -166zM603 909q-44 0 -76 18.5t-32 54.5q1 -2 4 3
q22 45 27 53q28 39 61 39q9 0 19 -2t30 -9.5t32.5 -29t12.5 -54.5q0 -20 -8 -35.5t-18.5 -22t-23.5 -10.5t-18.5 -4.5t-9.5 -0.5zM261 909q-44 0 -76.5 18t-32.5 55q1 -2 5 4q22 45 25 49q28 42 63 42q6 0 12.5 -0.5t22.5 -5.5t27 -14t20.5 -28.5t9.5 -46.5q0 -20 -8 -35
t-17.5 -22t-22.5 -11t-18.5 -4.5t-9.5 -0.5z" />
    <glyph glyph-name="endash" unicode="&#x2013;" 
d="M89 504l-4 110q205 -16 380 -16q164 0 382 14q4 -35 4 -110q-244 19 -380 19q-162 0 -382 -17z" />
    <glyph glyph-name="emdash" unicode="&#x2014;" horiz-adv-x="1649" 
d="M63 504l-4 110q224 -16 763 -16q492 0 763 14q4 -35 4 -110q-266 19 -762 19q-524 0 -764 -17z" />
    <glyph glyph-name="quoteleft" unicode="&#x2018;" horiz-adv-x="341" 
d="M-19 1182q0 107 59.5 186t153.5 66q-3 -13 -3 -61q0 -23 -3 -62q-1 0 -13 5t-26 9t-26 4q-15 0 -23 -6q-24 -17 -36 -56.5t-1.5 -79.5t45.5 -54q10 10 36 17q4 1 11 2t8 1q42 0 75.5 -19t33.5 -53q-1 0 -2.5 -2.5t-4 -8t-6 -13t-8 -15.5t-9.5 -16t-12 -15.5t-14 -13
t-16.5 -9t-19.5 -3.5q-48 0 -72 31q-52 18 -89.5 68.5t-37.5 97.5z" />
    <glyph glyph-name="quoteright" unicode="&#x2019;" horiz-adv-x="341" 
d="M-19 1339q0 -1 2.5 3.5t6.5 13.5t9.5 19.5t13 21t16.5 19.5t20.5 14.5t23.5 5.5q49 0 72 -31q51 -18 89 -69t38 -97q0 -107 -59.5 -186t-153.5 -66q3 39 3 61q0 47 3 62q2 0 13 -5.5t24.5 -9.5t25.5 -4q15 0 25 7q25 16 36.5 55t1 79.5t-45.5 55.5q-12 -11 -37 -18
q-11 -3 -19 -2q-43 0 -75.5 18.5t-32.5 52.5z" />
    <glyph glyph-name="quotesinglbase" unicode="&#x201a;" horiz-adv-x="367" 
d="M101 72l5 9q39 87 87 87q49 0 72 -31q51 -18 89 -68.5t38 -97.5q0 -107 -59.5 -186t-153.5 -66q3 39 3 61q0 47 3 62q2 0 13.5 -5t25.5 -9t26 -4t23 6q25 16 37 55.5t1 80t-46 54.5q-18 -15 -36 -18q-17 -2 -19 -2q-43 0 -76 19t-33 53z" />
    <glyph glyph-name="quotedblleft" unicode="&#x201c;" horiz-adv-x="687" 
d="M108 1016q-52 18 -89.5 68.5t-37.5 97.5q0 107 59.5 186t153.5 66q-3 -13 -3 -61q0 -23 -3 -62q-1 0 -13 5t-26 9t-26 4q-15 0 -23 -6q-24 -17 -36 -56.5t-1.5 -79.5t45.5 -54q10 10 36 17q4 1 11 2t8 1q42 0 75.5 -19t33.5 -53q-1 0 -2.5 -2.5t-4 -8t-6 -13t-8 -15.5
t-9.5 -16t-12 -15.5t-14 -13t-16.5 -9t-19.5 -3.5q-48 0 -72 31zM456 1016q-52 18 -89.5 68.5t-37.5 97.5q0 107 59.5 186t153.5 66q-3 -13 -3 -61q0 -23 -3 -62q-2 0 -13.5 5t-25.5 9t-26 4q-13 0 -23 -6q-25 -16 -37 -55.5t-1 -80t46 -54.5q10 10 36 17q4 1 11 2t8 1
q43 0 76 -19t33 -53q-1 0 -2.5 -2.5t-4 -8t-6 -13t-8 -15.5t-9.5 -16t-12 -15.5t-14 -13t-16.5 -9t-19.5 -3.5q-49 0 -72 31z" />
    <glyph glyph-name="quotedblright" unicode="&#x201d;" horiz-adv-x="687" 
d="M-19 1339q0 -1 2.5 3.5t6.5 13.5t9.5 19.5t13 21t16.5 19.5t20.5 14.5t23.5 5.5q49 0 72 -31q51 -18 89 -69t38 -97q0 -107 -59.5 -186t-153.5 -66q3 39 3 61q0 47 3 62q2 0 13 -5.5t24.5 -9.5t25.5 -4q15 0 25 7q25 16 36.5 55t1 79.5t-45.5 55.5q-12 -11 -37 -18
q-11 -3 -19 -2q-43 0 -75.5 18.5t-32.5 52.5zM438 1268q-43 0 -76 18.5t-33 52.5q0 -1 2.5 3.5t6.5 13.5t9.5 19.5t13 21t16.5 19.5t20.5 14.5t23.5 5.5q49 0 72 -31q51 -18 89 -69t38 -97q0 -107 -59.5 -186t-153.5 -66q3 39 3 61q0 47 3 62q2 0 13 -5.5t24.5 -9.5t25.5 -4
q15 0 25 7q25 16 36.5 55t1 79.5t-45.5 55.5q-18 -15 -36 -18q-17 -2 -19 -2z" />
    <glyph glyph-name="quotedblbase" unicode="&#x201e;" horiz-adv-x="687" 
d="M32 68q0 -1 2.5 3.5t6.5 13.5t9.5 19.5t13 21t16.5 19.5t20.5 14.5t23.5 5.5q49 0 72 -31q51 -18 89 -69t38 -97q0 -107 -59.5 -186t-153.5 -66q3 39 3 61q0 47 3 62q2 0 13 -5.5t24.5 -9.5t25.5 -4q15 0 25 7q25 16 36.5 55t1 79.5t-45.5 55.5q-12 -11 -37 -18
q-11 -3 -19 -2q-43 0 -75.5 18.5t-32.5 52.5zM489 -3q-43 0 -76 18.5t-33 52.5q0 -1 2.5 3.5t6.5 13.5t9.5 19.5t13 21t16.5 19.5t20.5 14.5t23.5 5.5q49 0 72 -31q51 -18 89 -69t38 -97q0 -107 -59.5 -186t-153.5 -66q3 39 3 61q0 47 3 62q2 0 13 -5.5t24.5 -9.5t25.5 -4
q15 0 25 7q25 16 36.5 55t1 79.5t-45.5 55.5q-18 -15 -36 -18q-17 -2 -19 -2z" />
    <glyph glyph-name="dagger" unicode="&#x2020;" 
d="M55 866l-4 111q198 -16 335 -16q-8 266 -12 403l123 2q-12 -206 -18 -405q100 0 333 14q5 -45 5 -111q-243 16 -340 19q-13 -552 16 -1119q-13 0 -59.5 1.5t-59.5 1.5q23 495 12 1116q-125 0 -331 -17z" />
    <glyph glyph-name="daggerdbl" unicode="&#x2021;" 
d="M51 977q198 -16 335 -16q-8 266 -12 403l123 2q-12 -206 -18 -405q100 0 333 14q5 -45 5 -111q-243 16 -340 19q-8 -323 -2 -561q99 0 344 14q4 -36 4 -111q-242 19 -348 19q6 -240 18 -480q-13 0 -59.5 1.5t-59.5 1.5q9 199 14 477q-125 0 -327 -17l-4 111
q193 -16 331 -16q3 212 -2 561q-125 0 -331 -17z" />
    <glyph glyph-name="bullet" unicode="&#x2022;" horiz-adv-x="589" 
d="M81 530q12 99 73.5 160.5t145.5 61.5q34 0 72 -16t72 -43.5t56 -70.5t22 -92q0 -62 -41 -114.5t-91.5 -78.5t-89.5 -26q-81 0 -142 62.5t-77 156.5z" />
    <glyph glyph-name="ellipsis" unicode="&#x2026;" horiz-adv-x="2020" 
d="M85 74q1 -2 4 3q23 45 29 53q27 38 60 38q6 0 13 -0.5t23 -6t27.5 -14.5t21 -28t9.5 -45q0 -21 -8.5 -36.5t-18 -22.5t-23.5 -10.5t-19 -4t-9 -0.5q-43 0 -76 19t-33 55zM1724 74q1 -2 4 3q23 46 29 54q27 37 59 37q6 0 13 -0.5t23 -6t27.5 -14.5t21 -28t9.5 -45
q0 -21 -8.5 -36.5t-18 -22.5t-23.5 -10.5t-19 -4t-9 -0.5q-43 0 -75.5 19t-32.5 55zM1013 0q-43 0 -75.5 19t-32.5 55q1 -2 4 3q23 46 29 54q27 37 59 37q6 0 13 -0.5t23 -6t27.5 -14.5t21 -28t9.5 -45q0 -21 -8.5 -36.5t-18 -22.5t-23.5 -10.5t-19 -4t-9 -0.5z" />
    <glyph glyph-name="perthousand" unicode="&#x2030;" horiz-adv-x="1709" 
d="M85 -74q400 701 713 1483q15 -8 121 -57q-395 -738 -715 -1483zM46 1061q0 32 9.5 69.5t18 59.5t30.5 70t28 63l70 -31q-49 -108 -49 -219q0 -25 4.5 -56.5t16.5 -71.5t38 -66.5t62 -26.5q56 0 84 66.5t28 150.5v53q0 108 -51 125q-20 7 -21 -21q-1 -14 11 -97
q4 -23 4 -35q-13 0 -57 3t-58 3q0 108 33 169.5t94 61.5q55 0 104.5 -81t49.5 -181q0 -122 -70.5 -205.5t-158.5 -83.5q-87 0 -153.5 82.5t-66.5 198.5zM1390 0q-86 0 -152.5 82.5t-66.5 198.5q0 21 4.5 45.5t8.5 41t16 47t16 40.5t21.5 46.5t19.5 41.5l69 -31
q-49 -115 -49 -219q0 -24 5 -56t17 -72t37.5 -66.5t61.5 -26.5q39 0 65.5 35.5t37 82t10.5 99.5v53q0 108 -51 125q-19 6 -21 -21q-1 -15 11 -98q3 -23 3 -35q-14 0 -57.5 3t-56.5 3q0 109 33 170.5t94 61.5q55 0 104 -81t49 -181q0 -122 -70.5 -205.5t-158.5 -83.5zM825 0
q-86 0 -152.5 82.5t-66.5 198.5q0 21 4.5 45.5t8.5 41t16 47t16 40.5t21.5 46.5t19.5 41.5l69 -31q-49 -111 -49 -219q0 -24 5 -56t17 -72t37.5 -66.5t61.5 -26.5q39 0 65.5 35.5t37 82t10.5 99.5q0 103 -13 137q-13 33 -39 41q-19 6 -21 -21q-2 -14 11 -97q4 -24 4 -36
q-14 0 -57.5 3t-56.5 3q0 108 33 170t93 62q55 0 104.5 -81t49.5 -181q0 -122 -70.5 -205.5t-158.5 -83.5z" />
    <glyph glyph-name="uni20BD" unicode="&#x20bd;" horiz-adv-x="1094" 
d="M13 328l-3 144q66 -8 118 -12l44 -4q7 109 8 194q4 213 -2 346q-8 179 -28 339q43 -1 96 2q96 6 98 6l97 6q49 3 96 3q89 0 156.5 -7.5t146 -38.5t127.5 -86q90 -99 90 -270q0 -82 -32 -145.5t-82 -102t-119.5 -63.5t-137.5 -34t-143 -9q-109 0 -168 72t-59 182
q0 83 37 131.5t117 48.5q91 0 156.5 -52t90.5 -140q-1 0 -10.5 -2t-17.5 -3q-6 -1 -18.5 -4t-19.5 -4l-38 -7q-5 -1 -15 -2.5t-14 -2.5q-4 43 -31 77.5t-68 47.5q-23 8 -43 0q-46 -17 -46 -88q0 -174 178 -174q238 0 314 156q26 53 24 124q-2 91 -29 153.5t-79 97t-117 49
t-154 14.5q-60 0 -109 -4q-36 -3 -110 -9q-32 -296 -32 -641l3 -165h41q127 0 318 18q0 -19 1 -32q0 -30 1 -40q0 -31 1 -40v-32q-96 11 -118 13q-7 1 -45 4.5t-57 4.5q-49 3 -96 3h-42l3 -52q9 -155 24 -298q-19 0 -37 -1q-37 0 -58 -1t-57 -1q-17 -1 -36 -1q18 139 34 316
l3 32l-33 -3q-25 -2 -119 -13z" />
    <glyph glyph-name="uni2116" unicode="&#x2116;" horiz-adv-x="1802" 
d="M73 0q28 416 35 661q4 173 3 345t-15 333q27 0 87 2t87 2q-17 -137 -25 -239q68 177 220 233q55 20 114 19q158 -4 271 -79t155 -220q22 -78 21 -172q-2 -101 -17 -195q-28 -175 -83 -404q-51 -213 -54 -333q-1 -46 9 -94q17 -77 51.5 -127t101.5 -62q32 -6 54 11
q40 32 43 95q0 64 -28 97q-13 16 -33 14q-31 -3 -38 -83q0 -3 -0.5 -7t-0.5 -6.5t-0.5 -5t-0.5 -4.5q-9 1 -26 18q-6 6 -33 38q-22 26 -33 37q-19 19 -25 20q16 98 114 98q58 0 106 -38t68 -94q13 -37 15 -79q1 -31 -11 -67q-20 -57 -63.5 -91.5t-101.5 -34.5
q-54 0 -99.5 21.5t-76.5 58.5t-54.5 83t-37.5 99t-21 101.5t-8 96.5q-2 62 4 102q23 168 65 343q49 206 64 367q8 86 0 161q-15 154 -132 215q-60 31 -157 30q-100 -1 -173 -67.5t-111 -167.5q-67 -178 -72 -417q-1 -75 2 -163q4 -105 5 -153q1 -61 10 -147q10 -98 14 -147z
M1260 1055q0 75 57 197q17 36 29 65l70 -31q-49 -108 -49 -219q0 -30 6 -65t18.5 -71.5t38 -60.5t58.5 -24q32 0 55.5 23t35 59t16.5 70t5 65v53q0 107 -51 125q-17 6 -20 -10q-3 -17 0 -42t9 -54q5 -24 5 -47q-15 0 -25 1l-64 4q-11 1 -26 1q0 36 5 71t17.5 74t39.5 62.5
t65 23.5q54 0 104 -79t50 -183q0 -83 -38.5 -157t-107.5 -110q-42 -22 -83 -22q-65 0 -117 45t-77.5 108.5t-25.5 127.5zM1158 459v144q209 -29 411 -29q99 3 222 11q1 -9 1 -32l-1 -40v-72q-178 29 -315 33q-46 2 -96 0q-126 -3 -222 -15z" />
    <glyph glyph-name="minus" unicode="&#x2212;" 
d="M89 504l-4 110q205 -16 380 -16q164 0 382 14q4 -35 4 -110q-244 19 -380 19q-162 0 -382 -17z" />
    <glyph glyph-name="fi" unicode="&#xfb01;" horiz-adv-x="830" 
d="M46 756q15 -6 37 -6q24 0 54 6q-1 90 6 163.5t27.5 144.5t54 119t89.5 77.5t130 29.5q95 0 180.5 -66t85.5 -157q0 -52 -37.5 -91.5t-93.5 -41.5q-83 -12 -124 46q-33 48 -14 101q19 52 77 64q6 -14 24 -48.5t23 -49.5q-14 0 -20 -3.5t-3 -8.5t7.5 -10t11.5 -9
q24 0 39.5 7.5t19.5 14t7 18.5l3 13q-16 66 -66.5 102.5t-113.5 36.5q-50 0 -87.5 -36t-60.5 -100t-35.5 -142.5t-15.5 -173.5q20 -5 68 -5q105 0 166 19v-8q37 37 82 37q174 0 174 -586q0 -19 -1 -53.5t-0.5 -53t2 -42t7 -39.5t14.5 -27q-7 1 -42 1q-21 0 -69 -1
t-69.5 -1.5t-42.5 1.5q23 19 43 185t20 323q0 218 -36 215q-30 -5 -48.5 -31t-25 -53.5t-12.5 -67.5q-1 -11 -2 -16l-80 14q7 45 22 88q-99 28 -170 19q0 -145 18 -305.5t38.5 -257.5t31.5 -103h-213q23 14 33.5 56t9 113.5t-6 141t-12.5 175.5t-11 180q-24 6 -46 6
q-21 0 -42 -6q0 37 -5 82z" />
    <glyph glyph-name="fl" unicode="&#xfb02;" horiz-adv-x="851" 
d="M63 664q0 45 -4 81q13 -6 36 -6t54 6q-1 90 6 164t27.5 145t54 119t89.5 77.5t130 29.5q53 0 109.5 -25.5t99.5 -68.5q96 -101 96 -378v-140q0 -5 -1 -98.5t-0.5 -171.5t2 -175t7.5 -159t15 -72q-7 1 -39 1q-19 0 -60 -1t-60 -1.5t-38 1.5q25 20 44.5 353.5t10.5 588.5
q-23 -10 -51 -10q-85 -12 -125 47q-32 48 -12 101q19 51 76 63q5 -13 24 -48t23 -51q-19 0 -22 -5.5t3 -12t15 -12.5q50 0 63 30q0 30 -4 51q-22 54 -68 82.5t-102 28.5q-50 0 -87.5 -36t-60 -100t-35 -142.5t-15.5 -174.5q25 -5 62 -5q99 0 171 20q2 -23 4.5 -69t3.5 -68
q-141 52 -241 41q2 -147 19 -306t37 -256.5t32 -103.5h-213q23 14 33 56t9 113.5t-6 141t-13 175.5t-11 180q-24 6 -46 6q-21 0 -42 -6z" />
    <glyph glyph-name="CR" horiz-adv-x="700" 
 />
    </font>
</defs>
</svg>
