<?xml version="1.0" standalone="no"?>
<!DOCTYPE svg PUBLIC "-//W3C//DTD SVG 1.1//EN" "http://www.w3.org/Graphics/SVG/1.1/DTD/svg11.dtd" >
<svg xmlns="http://www.w3.org/2000/svg" xmlns:xlink="http://www.w3.org/1999/xlink" version="1.1">
<metadata>
Created by FontForge 20201107 at Mon Jun 15 12:50:27 2015
 By www-data
LATIN - Typeface (c) (Tugcu Co). &#60;2015&#62;. All Rights Reserved. CIRILLIC - KGfonts (c). &#60;2015&#62;. All Rights Reserved.
</metadata>
<defs>
<font id="PhageRegularKG" horiz-adv-x="2048" >
  <font-face 
    font-family="Phage Regular KG"
    font-weight="400"
    font-stretch="normal"
    units-per-em="2048"
    panose-1="0 0 0 0 0 0 0 0 0 0"
    ascent="1638"
    descent="-410"
    x-height="1382"
    cap-height="1382"
    bbox="61 -424 16302 1772"
    underline-thickness="150"
    underline-position="-291"
    unicode-range="U+000D-25CA"
  />
<missing-glyph 
 />
    <glyph glyph-name=".notdef" 
 />
    <glyph glyph-name=".null" horiz-adv-x="0" 
 />
    <glyph glyph-name="nonmarkingreturn" unicode="&#xd;" 
 />
    <glyph glyph-name="NULL" horiz-adv-x="0" 
 />
    <glyph glyph-name="NULL" horiz-adv-x="0" 
 />
    <glyph glyph-name="space" unicode=" " horiz-adv-x="508" 
 />
    <glyph glyph-name="exclam" unicode="!" horiz-adv-x="459" 
d="M70 0v319h319v-319h-319zM70 425v957h319v-957h-319z" />
    <glyph glyph-name="quotedbl" unicode="&#x22;" 
 />
    <glyph glyph-name="numbersign" unicode="#" horiz-adv-x="1363" 
d="M905 1382h319l-62 -319h131v-319h-192l-21 -106h160v-319h-221l-61 -319h-319l61 319h-159l-62 -319h-319l62 319h-152v319h213l21 106h-181v319h242l61 319h319l-61 -319h159zM622 744l-20 -106h160l20 106h-160z" />
    <glyph glyph-name="dollar" unicode="$" horiz-adv-x="1310" 
d="M495 1382h319v-122h426v-319h-829v-90h818v-729h-415v-122h-319v122h-425v319h840v91h-818v728h403v122z" />
    <glyph glyph-name="percent" unicode="%" horiz-adv-x="1335" 
d="M70 532v319h319v-319h-319zM946 532v319h319v-319h-319zM636 1382h319l-266 -1382h-319z" />
    <glyph glyph-name="ampersand" unicode="&#x26;" 
 />
    <glyph glyph-name="quotesingle" unicode="'" 
 />
    <glyph glyph-name="parenleft" unicode="(" horiz-adv-x="15493" 
d="M70 1382h1382v-850h-1063v-532h-319v1382zM389 1063v-212h744v212h-744zM2583 1382h319v-1382h-319v532h-744v-532h-319v1382h319v-531h744v531zM2980 1382h1382v-1382h-319v532h-744v-532h-319v1382zM3299 1063v-212h744v212h-744zM4470 1382h1382v-319h-1063v-744h744
v213h-531v319h850v-851h-1382v1382zM5960 1382h1382v-319h-1063v-212h1063v-319h-1063v-213h1063v-319h-1382v1382zM7470 0v319h1063v-319h-1063zM8979 851h691q21 0 38 15q15 16 15 38v159h-744v-212zM10042 1382v-478q0 -141 -94 -247q94 -127 94 -285v-372h-319v372
q0 66 -47 113t-112 47h-585v-532h-319v1382h1382zM10160 1382h1382v-319h-1063v-212h1063v-319h-1063v-213h1063v-319h-1382v1382zM13952 1382v-372q0 -182 -122 -319q122 -137 122 -319v-372h-319v372q0 66 -47 113t-112 47h-585v-532h-319v1382h319v-531h585q66 0 112 46
q47 47 47 113v372h319zM14020 1382h1382v-319h-1063v-744h744v213h-531v319h850v-851h-1382v1382z" />
    <glyph glyph-name="parenright" unicode=")" horiz-adv-x="16350" 
d="M734 1382h982v-850h-663v-532h-319v1382zM1053 1063v-212h344v212h-344zM1053 1382h-982v-850h663v-532zM734 1063v-212h-344v212h344zM734 0v1382h319v-1382h-319zM3152 1382h-1382v-319h1063v-212h-563v-319h563v-213h-1063v-319h1382v1382zM3529 1382h-319v-1382h323
l740 889v-889h319v1382h-323l-740 -888v888zM4959 1117v-1116h1382v1116q0 110 -78 188t-188 78h-850q-110 0 -188 -78t-78 -188zM6022 320h-744v744h744v-744zM6660 54v-265h-319v212v319h53q110 0 188 -78t78 -188zM4640 54v-265h319v212v319h-53q-110 0 -188 -78
t-78 -188zM8564 1382v-372q0 -182 -122 -319q122 -137 122 -319v-372h-319v372q0 66 -47 113t-112 47h-285v-532h-319v1382h319v-531h285q66 0 112 46q47 47 47 113v372h319zM6719 1382v-372q0 -182 122 -319q-122 -137 -122 -319v-372h319v372q0 66 47 113t112 47h285v-532
v1382v-531h-285q-66 0 -112 46q-47 47 -47 113v372h-319zM8630 0v319h1063v-319h-1063zM9750 1382h1382v-850h-1063v-532h-319v1382zM10069 1063v-212h744v212h-744zM11200 1382h1382v-319h-1063v-212h1063v-319h-1063v-213h1063v-319h-1382v1382zM14852 1382v-372
q0 -182 -122 -319q122 -137 122 -319v-372h-319v372q0 66 -47 113t-112 47h-585v-532h-319v1382h319v-531h585q66 0 112 46q47 47 47 113v372h319zM14920 0h319v1063h1063v319h-1382v-1382zM3622 1419v160h558v-160h-558z" />
    <glyph glyph-name="asterisk" unicode="*" 
 />
    <glyph glyph-name="plus" unicode="+" 
 />
    <glyph glyph-name="comma" unicode="," horiz-adv-x="672" 
d="M336 -424h-266v319h213v424h319v-477q0 -110 -78 -188t-188 -78z" />
    <glyph glyph-name="hyphen" unicode="-" horiz-adv-x="1203" 
d="M70 531v319h1063v-319h-1063z" />
    <glyph glyph-name="period" unicode="." horiz-adv-x="459" 
d="M70 0v319h319v-319h-319z" />
    <glyph glyph-name="slash" unicode="/" horiz-adv-x="725" 
d="M336 1382h319l-266 -1382h-319z" />
    <glyph glyph-name="zero" unicode="0" horiz-adv-x="1522" 
d="M70 0v1382h1382v-1382h-1382zM389 1063v-744h744v744h-744z" />
    <glyph glyph-name="one" unicode="1" horiz-adv-x="778" 
d="M70 1382h638v-1382h-319v1063h-319v319z" />
    <glyph glyph-name="two" unicode="2" horiz-adv-x="1522" 
d="M70 1382h1382v-850h-1063v-213h1063v-319h-1382v851h1063v212h-1063v319z" />
    <glyph glyph-name="three" unicode="3" horiz-adv-x="1522" 
d="M70 1382h1382v-1382h-1382v319h1063v213h-904v319h904v212h-1063v319z" />
    <glyph glyph-name="four" unicode="4" horiz-adv-x="1522" 
d="M70 1382h319v-531h372v159h319v-159h372v-319h-372v-532h-319v532h-691v850z" />
    <glyph glyph-name="five" unicode="5" horiz-adv-x="1522" 
d="M70 1382h1382v-319h-1063v-212h1063v-851h-1382v319h1063v213h-1063v850z" />
    <glyph glyph-name="six" unicode="6" horiz-adv-x="1522" 
d="M70 1382h1382v-319h-1063v-212h1063v-851h-1382v1382zM389 532v-213h744v213h-744z" />
    <glyph glyph-name="seven" unicode="7" horiz-adv-x="1522" 
d="M70 1382h1382v-1382h-319v1063h-1063v319z" />
    <glyph glyph-name="eight" unicode="8" horiz-adv-x="1522" 
d="M70 0v1382h1382v-1382h-1382zM389 1063v-212h744v212h-744zM389 532v-213h744v213h-744z" />
    <glyph glyph-name="nine" unicode="9" horiz-adv-x="1522" 
d="M70 1382h1382v-1382h-1382v319h1063v213h-1063v850zM389 1063v-212h744v212h-744z" />
    <glyph glyph-name="colon" unicode=":" horiz-adv-x="459" 
d="M70 0v319h319v-319h-319zM70 532v319h319v-319h-319z" />
    <glyph glyph-name="semicolon" unicode=";" horiz-adv-x="672" 
d="M70 -424h266q110 0 188 78t78 188v477h-319v-424h-213v-319zM282 532v319h319v-319h-319z" />
    <glyph glyph-name="less" unicode="&#x3c;" 
 />
    <glyph glyph-name="equal" unicode="=" 
 />
    <glyph glyph-name="greater" unicode="&#x3e;" 
 />
    <glyph glyph-name="question" unicode="?" horiz-adv-x="1416" 
d="M548 0v319h319v-319h-319zM70 1382h1276v-850h-479v-107h-319v426h479v212h-638v-159h-319v478z" />
    <glyph glyph-name="at" unicode="@" 
 />
    <glyph glyph-name="A" unicode="A" horiz-adv-x="1522" 
d="M70 1382h1382v-1382h-319v532h-744v-532h-319v1382zM389 1063v-212h744v212h-744z" />
    <glyph glyph-name="B" unicode="B" horiz-adv-x="1522" 
d="M1133 904v159h-744v-212h691q21 0 38 15q15 16 15 38zM1133 319v159q0 21 -15 38q-16 16 -38 16h-691v-213h744zM1452 1382v-478q0 -118 -67 -213q67 -95 67 -213v-478h-1382v1382h1382z" />
    <glyph glyph-name="C" unicode="C" horiz-adv-x="1522" 
d="M70 1382h1382v-319h-1063v-744h1063v-319h-1382v1382z" />
    <glyph glyph-name="D" unicode="D" horiz-adv-x="1522" 
d="M1186 0h-1116v1382h1116q110 0 188 -78t78 -188v-850q0 -110 -78 -188t-188 -78zM389 1063v-744h744v744h-744z" />
    <glyph glyph-name="E" unicode="E" horiz-adv-x="1522" 
d="M70 1382h1382v-319h-1063v-212h1063v-319h-1063v-213h1063v-319h-1382v1382z" />
    <glyph glyph-name="F" unicode="F" horiz-adv-x="1522" 
d="M70 1382h1382v-319h-1063v-212h1063v-319h-1063v-532h-319v1382z" />
    <glyph glyph-name="G" unicode="G" horiz-adv-x="1522" 
d="M70 1382h1382v-319h-1063v-744h744v213h-531v319h850v-851h-1382v1382z" />
    <glyph glyph-name="H" unicode="H" horiz-adv-x="1522" 
d="M1133 1382h319v-1382h-319v532h-744v-532h-319v1382h319v-531h744v531z" />
    <glyph glyph-name="I" unicode="I" horiz-adv-x="459" 
d="M70 0v1382h319v-1382h-319z" />
    <glyph glyph-name="J" unicode="J" horiz-adv-x="672" 
d="M336 0h-266v319h213v1063h319v-1116q0 -110 -78 -188t-188 -78z" />
    <glyph glyph-name="K" unicode="K" horiz-adv-x="1522" 
d="M1452 1382v-372q0 -182 -122 -319q122 -137 122 -319v-372h-319v372q0 66 -47 113t-112 47h-585v-532h-319v1382h319v-531h585q66 0 112 46q47 47 47 113v372h319z" />
    <glyph glyph-name="L" unicode="L" horiz-adv-x="1522" 
d="M70 1382h319v-1063h1063v-319h-1382v1382z" />
    <glyph glyph-name="M" unicode="M" horiz-adv-x="1735" 
d="M1384 1382h281v-1382h-319v935l-479 -398l-478 398v-935h-319v1382h281l516 -430z" />
    <glyph glyph-name="N" unicode="N" horiz-adv-x="1522" 
d="M1133 1382h319v-1382h-323l-740 889v-889h-319v1382h323l740 -888v888z" />
    <glyph glyph-name="O" unicode="O" horiz-adv-x="1522" 
d="M70 0v1382h1382v-1382h-1382zM389 1063v-744h744v744h-744z" />
    <glyph glyph-name="P" unicode="P" horiz-adv-x="1522" 
d="M70 1382h1382v-850h-1063v-532h-319v1382zM389 1063v-212h744v212h-744z" />
    <glyph glyph-name="Q" unicode="Q" horiz-adv-x="1522" 
d="M70 1382h1382v-1594h-319v212h-1063v1382zM389 1063v-744h744v744h-744z" />
    <glyph glyph-name="R" unicode="R" horiz-adv-x="1522" 
d="M389 851h691q21 0 38 15q15 16 15 38v159h-744v-212zM1452 1382v-478q0 -141 -94 -247q94 -127 94 -285v-372h-319v372q0 66 -47 113t-112 47h-585v-532h-319v1382h1382z" />
    <glyph glyph-name="S" unicode="S" horiz-adv-x="1522" 
d="M70 1382h1382v-319h-1063v-212h1063v-851h-1382v319h1063v213h-1063v850z" />
    <glyph glyph-name="T" unicode="T" horiz-adv-x="1522" 
d="M70 1382h1382v-319h-531v-1063h-319v1063h-532v319z" />
    <glyph glyph-name="U" unicode="U" horiz-adv-x="1522" 
d="M1133 1382h319v-1382h-1382v1382h319v-1063h744v1063z" />
    <glyph glyph-name="V" unicode="V" horiz-adv-x="1701" 
d="M1285 1382h346l-580 -1382h-401l-580 1382h346l434 -1036z" />
    <glyph glyph-name="W" unicode="W" horiz-adv-x="2279" 
d="M1867 1382h342l-535 -1382h-387l-123 286l-123 -286h-391l-580 1382h346l430 -1027l213 496h210l206 -482z" />
    <glyph glyph-name="X" unicode="X" horiz-adv-x="1532" 
d="M1068 1382h394l-499 -691l499 -691h-394l-302 419l-303 -419h-393l499 691l-499 691h393l303 -419z" />
    <glyph glyph-name="Y" unicode="Y" horiz-adv-x="1506" 
d="M1046 1382h390l-523 -742v-640h-319v640l-524 742h390l293 -414z" />
    <glyph glyph-name="Z" unicode="Z" horiz-adv-x="1522" 
d="M70 1382h1382v-321l-927 -742h927v-319h-1382v364l874 699h-874v319z" />
    <glyph glyph-name="bracketleft" unicode="[" 
 />
    <glyph glyph-name="backslash" unicode="\" 
 />
    <glyph glyph-name="bracketright" unicode="]" 
 />
    <glyph glyph-name="asciicircum" unicode="^" 
 />
    <glyph glyph-name="underscore" unicode="_" horiz-adv-x="1203" 
d="M70 0v319h1063v-319h-1063z" />
    <glyph glyph-name="grave" unicode="`" horiz-adv-x="672" 
d="M602 1503v-478h-319v425h-213v319h266q110 0 188 -78t78 -188z" />
    <glyph glyph-name="a" unicode="a" horiz-adv-x="1522" 
d="M70 1382h1382v-1382h-319v532h-744v-532h-319v1382zM389 1063v-212h744v212h-744z" />
    <glyph glyph-name="b" unicode="b" horiz-adv-x="1522" 
d="M1133 904v159h-744v-212h691q21 0 38 15q15 16 15 38zM1133 319v159q0 21 -15 38q-16 16 -38 16h-691v-213h744zM1452 1382v-478q0 -118 -67 -213q67 -95 67 -213v-478h-1382v1382h1382z" />
    <glyph glyph-name="c" unicode="c" horiz-adv-x="1522" 
d="M70 1382h1382v-319h-1063v-744h1063v-319h-1382v1382z" />
    <glyph glyph-name="d" unicode="d" horiz-adv-x="1522" 
d="M1186 0h-1116v1382h1116q110 0 188 -78t78 -188v-850q0 -110 -78 -188t-188 -78zM389 1063v-744h744v744h-744z" />
    <glyph glyph-name="e" unicode="e" horiz-adv-x="1522" 
d="M70 1382h1382v-319h-1063v-212h1063v-319h-1063v-213h1063v-319h-1382v1382z" />
    <glyph glyph-name="f" unicode="f" horiz-adv-x="1522" 
d="M70 1382h1382v-319h-1063v-212h1063v-319h-1063v-532h-319v1382z" />
    <glyph glyph-name="g" unicode="g" horiz-adv-x="1522" 
d="M70 1382h1382v-319h-1063v-744h744v213h-531v319h850v-851h-1382v1382z" />
    <glyph glyph-name="h" unicode="h" horiz-adv-x="1522" 
d="M1133 1382h319v-1382h-319v532h-744v-532h-319v1382h319v-531h744v531z" />
    <glyph glyph-name="i" unicode="i" horiz-adv-x="459" 
d="M70 0v1382h319v-1382h-319z" />
    <glyph glyph-name="j" unicode="j" horiz-adv-x="672" 
d="M336 0h-266v319h213v1063h319v-1116q0 -110 -78 -188t-188 -78z" />
    <glyph glyph-name="k" unicode="k" horiz-adv-x="1522" 
d="M1452 1382v-372q0 -182 -122 -319q122 -137 122 -319v-372h-319v372q0 66 -47 113t-112 47h-585v-532h-319v1382h319v-531h585q66 0 112 46q47 47 47 113v372h319z" />
    <glyph glyph-name="l" unicode="l" horiz-adv-x="1522" 
d="M70 1382h319v-1063h1063v-319h-1382v1382z" />
    <glyph glyph-name="m" unicode="m" horiz-adv-x="1735" 
d="M1384 1382h281v-1382h-319v935l-479 -398l-478 398v-935h-319v1382h281l516 -430z" />
    <glyph glyph-name="n" unicode="n" horiz-adv-x="1522" 
d="M1133 1382h319v-1382h-323l-740 889v-889h-319v1382h323l740 -888v888z" />
    <glyph glyph-name="o" unicode="o" horiz-adv-x="1522" 
d="M70 0v1382h1382v-1382h-1382zM389 1063v-744h744v744h-744z" />
    <glyph glyph-name="p" unicode="p" horiz-adv-x="1522" 
d="M70 1382h1382v-850h-1063v-532h-319v1382zM389 1063v-212h744v212h-744z" />
    <glyph glyph-name="q" unicode="q" horiz-adv-x="1522" 
d="M70 1382h1382v-1594h-319v212h-1063v1382zM389 1063v-744h744v744h-744z" />
    <glyph glyph-name="r" unicode="r" horiz-adv-x="1522" 
d="M389 851h691q21 0 38 15q15 16 15 38v159h-744v-212zM1452 1382v-478q0 -141 -94 -247q94 -127 94 -285v-372h-319v372q0 66 -47 113t-112 47h-585v-532h-319v1382h1382z" />
    <glyph glyph-name="s" unicode="s" horiz-adv-x="1522" 
d="M70 1382h1382v-319h-1063v-212h1063v-851h-1382v319h1063v213h-1063v850z" />
    <glyph glyph-name="t" unicode="t" horiz-adv-x="1522" 
d="M70 1382h1382v-319h-531v-1063h-319v1063h-532v319z" />
    <glyph glyph-name="u" unicode="u" horiz-adv-x="1522" 
d="M1133 1382h319v-1382h-1382v1382h319v-1063h744v1063z" />
    <glyph glyph-name="v" unicode="v" horiz-adv-x="1701" 
d="M1285 1382h346l-580 -1382h-401l-580 1382h346l434 -1036z" />
    <glyph glyph-name="w" unicode="w" horiz-adv-x="2279" 
d="M1867 1382h342l-535 -1382h-387l-123 286l-123 -286h-391l-580 1382h346l430 -1027l213 496h210l206 -482z" />
    <glyph glyph-name="x" unicode="x" horiz-adv-x="1532" 
d="M1068 1382h394l-499 -691l499 -691h-394l-302 419l-303 -419h-393l499 691l-499 691h393l303 -419z" />
    <glyph glyph-name="y" unicode="y" horiz-adv-x="1506" 
d="M1046 1382h390l-523 -742v-640h-319v640l-524 742h390l293 -414z" />
    <glyph glyph-name="z" unicode="z" horiz-adv-x="1522" 
d="M70 1382h1382v-321l-927 -742h927v-319h-1382v364l874 699h-874v319z" />
    <glyph glyph-name="braceleft" unicode="{" 
 />
    <glyph glyph-name="bar" unicode="|" 
 />
    <glyph glyph-name="braceright" unicode="}" 
 />
    <glyph glyph-name="asciitilde" unicode="~" 
 />
    <glyph glyph-name="uni00A0" unicode="&#xa0;" 
 />
    <glyph glyph-name="exclamdown" unicode="&#xa1;" 
 />
    <glyph glyph-name="cent" unicode="&#xa2;" 
 />
    <glyph glyph-name="sterling" unicode="&#xa3;" 
 />
    <glyph glyph-name="yen" unicode="&#xa5;" 
 />
    <glyph glyph-name="brokenbar" unicode="&#xa6;" 
 />
    <glyph glyph-name="section" unicode="&#xa7;" 
 />
    <glyph glyph-name="dieresis" unicode="&#xa8;" 
 />
    <glyph glyph-name="copyright" unicode="&#xa9;" 
 />
    <glyph glyph-name="ordfeminine" unicode="&#xaa;" 
 />
    <glyph glyph-name="guillemotleft" unicode="&#xab;" 
 />
    <glyph glyph-name="logicalnot" unicode="&#xac;" 
 />
    <glyph glyph-name="uni00AD" unicode="&#xad;" horiz-adv-x="1203" 
d="M70 531v319h1063v-319h-1063z" />
    <glyph glyph-name="registered" unicode="&#xae;" 
 />
    <glyph glyph-name="degree" unicode="&#xb0;" 
 />
    <glyph glyph-name="plusminus" unicode="&#xb1;" 
 />
    <glyph glyph-name="acute" unicode="&#xb4;" 
 />
    <glyph glyph-name="mu" unicode="&#xb5;" 
 />
    <glyph glyph-name="paragraph" unicode="&#xb6;" 
 />
    <glyph glyph-name="periodcentered" unicode="&#xb7;" 
 />
    <glyph glyph-name="cedilla" unicode="&#xb8;" 
 />
    <glyph glyph-name="ordmasculine" unicode="&#xba;" 
 />
    <glyph glyph-name="guillemotright" unicode="&#xbb;" 
 />
    <glyph glyph-name="onequarter" unicode="&#xbc;" 
 />
    <glyph glyph-name="onehalf" unicode="&#xbd;" 
 />
    <glyph glyph-name="threequarters" unicode="&#xbe;" 
 />
    <glyph glyph-name="questiondown" unicode="&#xbf;" 
 />
    <glyph glyph-name="multiply" unicode="&#xd7;" 
 />
    <glyph glyph-name="Oslash" unicode="&#xd8;" 
 />
    <glyph glyph-name="germandbls" unicode="&#xdf;" 
 />
    <glyph glyph-name="divide" unicode="&#xf7;" 
 />
    <glyph glyph-name="oslash" unicode="&#xf8;" 
 />
    <glyph glyph-name="florin" unicode="&#x192;" 
 />
    <glyph glyph-name="circumflex" unicode="&#x2c6;" 
 />
    <glyph glyph-name="caron" unicode="&#x2c7;" 
 />
    <glyph glyph-name="uni02C9" unicode="&#x2c9;" 
 />
    <glyph glyph-name="breve" unicode="&#x2d8;" 
 />
    <glyph glyph-name="dotaccent" unicode="&#x2d9;" 
 />
    <glyph glyph-name="ring" unicode="&#x2da;" horiz-adv-x="1522" 
 />
    <glyph glyph-name="ogonek" unicode="&#x2db;" 
 />
    <glyph glyph-name="tilde" unicode="&#x2dc;" 
 />
    <glyph glyph-name="hungarumlaut" unicode="&#x2dd;" 
 />
    <glyph glyph-name="uni037E" unicode="&#x37e;" horiz-adv-x="672" 
d="M70 -424h266q110 0 188 78t78 188v477h-319v-424h-213v-319zM282 532v319h319v-319h-319z" />
    <glyph glyph-name="afii10023" unicode="&#x401;" horiz-adv-x="1522" 
d="M655 1453h-319v319h319v-319zM1187 1453h-319v319h319v-319zM70 0h1382v319h-1063v213h1063v319h-1063v212h1063v319h-1382v-1382z" />
    <glyph glyph-name="afii10017" unicode="&#x410;" horiz-adv-x="1522" 
d="M70 1382h1382v-1382h-319v532h-744v-532h-319v1382zM389 1063v-212h744v212h-744z" />
    <glyph glyph-name="afii10018" unicode="&#x411;" horiz-adv-x="1522" 
d="M70 1382h1382v-319h-1063v-1063h-319v1382zM1133 319v212h-744v-212h744zM70 1382h319v-532h1063v-850h-1382v1382z" />
    <glyph glyph-name="afii10019" unicode="&#x412;" horiz-adv-x="1522" 
d="M1133 904v159h-744v-212h691q21 0 38 15q15 16 15 38zM1133 319v159q0 21 -15 38q-16 16 -38 16h-691v-213h744zM1452 1382v-478q0 -118 -67 -213q67 -95 67 -213v-478h-1382v1382h1382z" />
    <glyph glyph-name="afii10020" unicode="&#x413;" horiz-adv-x="1522" 
d="M70 1382h1382v-319h-1063v-1063h-319v1382z" />
    <glyph glyph-name="afii10021" unicode="&#x414;" horiz-adv-x="2167" 
d="M70 54q0 110 78 188t188 78h53v-319v-212h-319v265v0zM2090 54q0 110 -78 188t-188 78h-53v-319v-212h319v265v0zM1452 1064h-744v-744h744v744zM389 1117q0 110 78 188t188 78h850q110 0 188 -78t78 -188v-1116h-1382v1116v0z" />
    <glyph glyph-name="afii10022" unicode="&#x415;" horiz-adv-x="1522" 
d="M70 1382h1382v-319h-1063v-212h1063v-319h-1063v-213h1063v-319h-1382v1382z" />
    <glyph glyph-name="afii10024" unicode="&#x416;" horiz-adv-x="1982" 
d="M1914 1382v-372q0 -182 -122 -319q122 -137 122 -319v-372h-319v372q0 66 -47 113t-112 47h-285v-532h-319v1382h319v-531h285q66 0 112 46q47 47 47 113v372h319zM69 1382v-372q0 -182 122 -319q-122 -137 -122 -319v-372h319v372q0 66 47 113t112 47h285v-532v1382
v-531h-285q-66 0 -112 46q-47 47 -47 113v372h-319z" />
    <glyph glyph-name="afii10025" unicode="&#x417;" horiz-adv-x="1561" 
d="M428 851h585q66 0 112 46q47 47 47 113v372h319v-372q0 -182 -122 -319q122 -137 122 -319v-372h-319v372q0 66 -47 113t-112 47h-585v319zM1172 319h-1101v-319h1101v319zM1172 319h-1101v-319h1101v319zM1172 1382h-1101v-319h1101v319zM1172 1382h-1101v-319h1101v319
z" />
    <glyph glyph-name="afii10026" unicode="&#x418;" horiz-adv-x="1522" 
d="M389 494l740 888h323v-1382h-319v889l-740 -889h-323v1382h319v-888z" />
    <glyph glyph-name="afii10027" unicode="&#x419;" horiz-adv-x="1522" 
d="M389 1382h-319v-1382h323l740 889v-889h319v1382h-323l-740 -888v888zM482 1419v160h558v-160h-558z" />
    <glyph glyph-name="afii10028" unicode="&#x41a;" horiz-adv-x="1522" 
d="M1452 1382v-372q0 -182 -122 -319q122 -137 122 -319v-372h-319v372q0 66 -47 113t-112 47h-585v-532h-319v1382h319v-531h585q66 0 112 46q47 47 47 113v372h319z" />
    <glyph glyph-name="afii10029" unicode="&#x41b;" horiz-adv-x="1541" 
d="M1471 0h-319v1063h-863v319h1182v-1382zM342 0h-266v319h213v1063h319v-1116q0 -110 -78 -188t-188 -78z" />
    <glyph glyph-name="afii10030" unicode="&#x41c;" horiz-adv-x="1735" 
d="M1384 1382h281v-1382h-319v935l-479 -398l-478 398v-935h-319v1382h281l516 -430z" />
    <glyph glyph-name="afii10031" unicode="&#x41d;" horiz-adv-x="1522" 
d="M1133 1382h319v-1382h-319v532h-744v-532h-319v1382h319v-531h744v531z" />
    <glyph glyph-name="afii10032" unicode="&#x41e;" horiz-adv-x="1522" 
d="M70 0v1382h1382v-1382h-1382zM389 1063v-744h744v744h-744z" />
    <glyph glyph-name="afii10033" unicode="&#x41f;" horiz-adv-x="1522" 
d="M1133 1382h319v-1382h-319v1063h-744v-1063h-319v1382h319v0h744v0z" />
    <glyph glyph-name="afii10034" unicode="&#x420;" horiz-adv-x="1522" 
d="M70 1382h1382v-850h-1063v-532h-319v1382zM389 1063v-212h744v212h-744z" />
    <glyph glyph-name="afii10035" unicode="&#x421;" horiz-adv-x="1522" 
d="M70 1382h1382v-319h-1063v-744h1063v-319h-1382v1382z" />
    <glyph glyph-name="afii10036" unicode="&#x422;" horiz-adv-x="1522" 
d="M70 1382h1382v-319h-531v-1063h-319v1063h-532v319z" />
    <glyph glyph-name="afii10037" unicode="&#x423;" horiz-adv-x="1506" 
d="M463 0h-319l450 640l-524 742h390l293 -414l293 414h390z" />
    <glyph glyph-name="afii10038" unicode="&#x424;" horiz-adv-x="1787" 
d="M734 1382h982v-850h-663v-532h-319v1382zM1053 1063v-212h344v212h-344zM1053 1382h-982v-850h663v-532zM734 1063v-212h-344v212h344zM734 0v1382h319v-1382h-319z" />
    <glyph glyph-name="afii10039" unicode="&#x425;" horiz-adv-x="1532" 
d="M1068 1382h394l-499 -691l499 -691h-394l-302 419l-303 -419h-393l499 691l-499 691h393l303 -419z" />
    <glyph glyph-name="afii10040" unicode="&#x426;" horiz-adv-x="1837" 
d="M1771 53q0 110 -78 188t-188 78h-53v-319v-212h319v265v0zM389 0h-319v1382h319v-1063h744v1063h319v-1382h-319h-744z" />
    <glyph glyph-name="afii10041" unicode="&#x427;" horiz-adv-x="1522" 
d="M1133 1382h319v-1382h-319v532h-744v0h-319v850h319v-531h744v531z" />
    <glyph glyph-name="afii10042" unicode="&#x428;" horiz-adv-x="1960" 
d="M824 0h-444v0h-319v1382h319v-1063h444v1063h319v-1382h-319v0zM1906 319v-319v0v319zM1587 0h-444v0h-319v1382h319v-1063h444v1063h319v-1382h-319v0z" />
    <glyph glyph-name="afii10043" unicode="&#x429;" horiz-adv-x="2291" 
d="M380 0h-319v1382h319v-1063h444v1063h319v-1382h-319h-444zM2225 53q0 110 -78 188t-188 78h-53v-319v-212h319v265v0zM1143 0h-319v1382h319v-1063h444v1063h319v-1382h-319h-444z" />
    <glyph glyph-name="afii10044" unicode="&#x42a;" horiz-adv-x="1960" 
d="M330 1382q-110 0 -188 -78t-78 -188v-166h319v113h125v319h-178v0zM1571 319v212h-744v-212h744zM508 1382h319v-532h1063v-850h-1382v1382z" />
    <glyph glyph-name="afii10045" unicode="&#x42b;" horiz-adv-x="1886" 
d="M1839 0v1382h-319v-1382h319zM1133 319v212h-744v-212h744zM70 1382h319v-532h1063v-850h-1382v1382z" />
    <glyph glyph-name="afii10046" unicode="&#x42c;" horiz-adv-x="1522" 
d="M1133 319v212h-744v-212h744zM70 1382h319v-532h1063v-850h-1382v1382z" />
    <glyph glyph-name="afii10047" unicode="&#x42d;" horiz-adv-x="1522" 
d="M1452 0h-1382v319h1063v213h-563v319h563v212h-1063v319h1382v-1382z" />
    <glyph glyph-name="afii10048" unicode="&#x42e;" horiz-adv-x="2288" 
d="M833 1382h319v-1382h-319v532h-444v-532h-319v1382h319v-531h444v531zM833 0v1382h1382v-1382h-1382zM1152 1063v-744h744v744h-744z" />
    <glyph glyph-name="afii10049" unicode="&#x42f;" horiz-adv-x="1522" 
d="M1452 1382v-1382h-319v532h-585q-65 0 -112 -47t-47 -113v-372h-319v372q0 158 94 285q-94 106 -94 247v478h1382zM1133 1063h-744v-159q0 -22 15 -38q16 -15 38 -15h691v212z" />
    <glyph glyph-name="afii10065" unicode="&#x430;" horiz-adv-x="1522" 
d="M70 1382h1382v-1382h-319v532h-744v-532h-319v1382zM389 1063v-212h744v212h-744z" />
    <glyph glyph-name="afii10066" unicode="&#x431;" horiz-adv-x="1522" 
d="M70 1382h1382v-319h-1063v-1063h-319v1382zM1133 319v212h-744v-212h744zM70 1382h319v-532h1063v-850h-1382v1382z" />
    <glyph glyph-name="afii10067" unicode="&#x432;" horiz-adv-x="1522" 
d="M1133 904v159h-744v-212h691q21 0 38 15q15 16 15 38zM1133 319v159q0 21 -15 38q-16 16 -38 16h-691v-213h744zM1452 1382v-478q0 -118 -67 -213q67 -95 67 -213v-478h-1382v1382h1382z" />
    <glyph glyph-name="afii10068" unicode="&#x433;" horiz-adv-x="1522" 
d="M70 1382h1382v-319h-1063v-1063h-319v1382z" />
    <glyph glyph-name="afii10069" unicode="&#x434;" horiz-adv-x="2167" 
d="M70 54q0 110 78 188t188 78h53v-319v-212h-319v265v0zM2090 54q0 110 -78 188t-188 78h-53v-319v-212h319v265v0zM1452 1064h-744v-744h744v744zM389 1117q0 110 78 188t188 78h850q110 0 188 -78t78 -188v-1116h-1382v1116v0z" />
    <glyph glyph-name="afii10070" unicode="&#x435;" horiz-adv-x="1522" 
d="M70 1382h1382v-319h-1063v-212h1063v-319h-1063v-213h1063v-319h-1382v1382z" />
    <glyph glyph-name="afii10072" unicode="&#x436;" horiz-adv-x="1982" 
d="M1914 1382v-372q0 -182 -122 -319q122 -137 122 -319v-372h-319v372q0 66 -47 113t-112 47h-285v-532h-319v1382h319v-531h285q66 0 112 46q47 47 47 113v372h319zM69 1382v-372q0 -182 122 -319q-122 -137 -122 -319v-372h319v372q0 66 47 113t112 47h285v-532v1382
v-531h-285q-66 0 -112 46q-47 47 -47 113v372h-319z" />
    <glyph glyph-name="afii10073" unicode="&#x437;" horiz-adv-x="1561" 
d="M428 851h585q66 0 112 46q47 47 47 113v372h319v-372q0 -182 -122 -319q122 -137 122 -319v-372h-319v372q0 66 -47 113t-112 47h-585v319zM1172 319h-1101v-319h1101v319zM1172 319h-1101v-319h1101v319zM1172 1382h-1101v-319h1101v319zM1172 1382h-1101v-319h1101v319
z" />
    <glyph glyph-name="afii10074" unicode="&#x438;" horiz-adv-x="1522" 
d="M389 494l740 888h323v-1382h-319v889l-740 -889h-323v1382h319v-888z" />
    <glyph glyph-name="afii10075" unicode="&#x439;" horiz-adv-x="1522" 
d="M389 1382h-319v-1382h323l740 889v-889h319v1382h-323l-740 -888v888zM482 1419v160h558v-160h-558z" />
    <glyph glyph-name="afii10076" unicode="&#x43a;" horiz-adv-x="1522" 
d="M1452 1382v-372q0 -182 -122 -319q122 -137 122 -319v-372h-319v372q0 66 -47 113t-112 47h-585v-532h-319v1382h319v-531h585q66 0 112 46q47 47 47 113v372h319z" />
    <glyph glyph-name="afii10077" unicode="&#x43b;" horiz-adv-x="1541" 
d="M1471 0h-319v1063h-863v319h1182v-1382zM342 0h-266v319h213v1063h319v-1116q0 -110 -78 -188t-188 -78z" />
    <glyph glyph-name="afii10078" unicode="&#x43c;" horiz-adv-x="1735" 
d="M1384 1382h281v-1382h-319v935l-479 -398l-478 398v-935h-319v1382h281l516 -430z" />
    <glyph glyph-name="afii10079" unicode="&#x43d;" horiz-adv-x="1522" 
d="M1133 1382h319v-1382h-319v532h-744v-532h-319v1382h319v-531h744v531z" />
    <glyph glyph-name="afii10080" unicode="&#x43e;" horiz-adv-x="1522" 
d="M70 0v1382h1382v-1382h-1382zM389 1063v-744h744v744h-744z" />
    <glyph glyph-name="afii10081" unicode="&#x43f;" horiz-adv-x="1522" 
d="M1133 1382h319v-1382h-319v1063h-744v-1063h-319v1382h319v0h744v0z" />
    <glyph glyph-name="afii10082" unicode="&#x440;" horiz-adv-x="1522" 
d="M70 1382h1382v-850h-1063v-532h-319v1382zM389 1063v-212h744v212h-744z" />
    <glyph glyph-name="afii10083" unicode="&#x441;" horiz-adv-x="1522" 
d="M70 1382h1382v-319h-1063v-744h1063v-319h-1382v1382z" />
    <glyph glyph-name="afii10084" unicode="&#x442;" horiz-adv-x="1522" 
d="M70 1382h1382v-319h-531v-1063h-319v1063h-532v319z" />
    <glyph glyph-name="afii10085" unicode="&#x443;" horiz-adv-x="1506" 
d="M463 0h-319l450 640l-524 742h390l293 -414l293 414h390z" />
    <glyph glyph-name="afii10086" unicode="&#x444;" horiz-adv-x="1787" 
d="M734 1382h982v-850h-663v-532h-319v1382zM1053 1063v-212h344v212h-344zM1053 1382h-982v-850h663v-532zM734 1063v-212h-344v212h344zM734 0v1382h319v-1382h-319z" />
    <glyph glyph-name="afii10087" unicode="&#x445;" horiz-adv-x="1532" 
d="M1068 1382h394l-499 -691l499 -691h-394l-302 419l-303 -419h-393l499 691l-499 691h393l303 -419z" />
    <glyph glyph-name="afii10088" unicode="&#x446;" horiz-adv-x="1837" 
d="M1771 53q0 110 -78 188t-188 78h-53v-319v-212h319v265v0zM389 0h-319v1382h319v-1063h744v1063h319v-1382h-319h-744z" />
    <glyph glyph-name="afii10089" unicode="&#x447;" horiz-adv-x="1522" 
d="M1133 1382h319v-1382h-319v532h-744v0h-319v850h319v-531h744v531z" />
    <glyph glyph-name="afii10090" unicode="&#x448;" horiz-adv-x="1960" 
d="M824 0h-444v0h-319v1382h319v-1063h444v1063h319v-1382h-319v0zM1906 319v-319v0v319zM1587 0h-444v0h-319v1382h319v-1063h444v1063h319v-1382h-319v0z" />
    <glyph glyph-name="afii10091" unicode="&#x449;" horiz-adv-x="2291" 
d="M380 0h-319v1382h319v-1063h444v1063h319v-1382h-319h-444zM2225 53q0 110 -78 188t-188 78h-53v-319v-212h319v265v0zM1143 0h-319v1382h319v-1063h444v1063h319v-1382h-319h-444z" />
    <glyph glyph-name="afii10092" unicode="&#x44a;" horiz-adv-x="1960" 
d="M330 1382q-110 0 -188 -78t-78 -188v-166h319v113h125v319h-178v0zM1571 319v212h-744v-212h744zM508 1382h319v-532h1063v-850h-1382v1382z" />
    <glyph glyph-name="afii10093" unicode="&#x44b;" horiz-adv-x="1886" 
d="M1839 0v1382h-319v-1382h319zM1133 319v212h-744v-212h744zM70 1382h319v-532h1063v-850h-1382v1382z" />
    <glyph glyph-name="afii10094" unicode="&#x44c;" horiz-adv-x="1522" 
d="M1133 319v212h-744v-212h744zM70 1382h319v-532h1063v-850h-1382v1382z" />
    <glyph glyph-name="afii10095" unicode="&#x44d;" horiz-adv-x="1522" 
d="M1452 0h-1382v319h1063v213h-563v319h563v212h-1063v319h1382v-1382z" />
    <glyph glyph-name="afii10096" unicode="&#x44e;" horiz-adv-x="2288" 
d="M833 1382h319v-1382h-319v532h-444v-532h-319v1382h319v-531h444v531zM833 0v1382h1382v-1382h-1382zM1152 1063v-744h744v744h-744z" />
    <glyph glyph-name="afii10097" unicode="&#x44f;" horiz-adv-x="1522" 
d="M1452 1382v-1382h-319v532h-585q-65 0 -112 -47t-47 -113v-372h-319v372q0 158 94 285q-94 106 -94 247v478h1382zM1133 1063h-744v-159q0 -22 15 -38q16 -15 38 -15h691v212z" />
    <glyph glyph-name="afii10071" unicode="&#x451;" horiz-adv-x="1522" 
d="M655 1453h-319v319h319v-319zM1187 1453h-319v319h319v-319zM70 0h1382v319h-1063v213h1063v319h-1063v212h1063v319h-1382v-1382z" />
    <glyph glyph-name="endash" unicode="&#x2013;" 
 />
    <glyph glyph-name="emdash" unicode="&#x2014;" 
 />
    <glyph glyph-name="quoteleft" unicode="&#x2018;" horiz-adv-x="672" 
d="M70 1026v478q0 110 78 188t188 78h266v-319h-213v-425h-319z" />
    <glyph glyph-name="quoteright" unicode="&#x2019;" horiz-adv-x="672" 
d="M602 1503v-478h-319v425h-213v319h266q110 0 188 -78t78 -188z" />
    <glyph glyph-name="quotesinglbase" unicode="&#x201a;" 
 />
    <glyph glyph-name="quotedblleft" unicode="&#x201c;" horiz-adv-x="672" 
d="M70 1026v478q0 110 78 188t188 78h266v-319h-213v-425h-319z" />
    <glyph glyph-name="quotedblright" unicode="&#x201d;" horiz-adv-x="672" 
d="M602 1503v-478h-319v425h-213v319h266q110 0 188 -78t78 -188z" />
    <glyph glyph-name="quotedblbase" unicode="&#x201e;" 
 />
    <glyph glyph-name="dagger" unicode="&#x2020;" 
 />
    <glyph glyph-name="daggerdbl" unicode="&#x2021;" 
 />
    <glyph glyph-name="bullet" unicode="&#x2022;" 
 />
    <glyph glyph-name="ellipsis" unicode="&#x2026;" 
 />
    <glyph glyph-name="perthousand" unicode="&#x2030;" 
 />
    <glyph glyph-name="guilsinglleft" unicode="&#x2039;" 
 />
    <glyph glyph-name="guilsinglright" unicode="&#x203a;" 
 />
    <glyph glyph-name="fraction" unicode="&#x2044;" 
 />
    <glyph glyph-name="afii61352" unicode="&#x2116;" 
 />
    <glyph glyph-name="trademark" unicode="&#x2122;" 
 />
    <glyph glyph-name="Omega" unicode="&#x2126;" 
 />
    <glyph glyph-name="partialdiff" unicode="&#x2202;" 
 />
    <glyph glyph-name="Delta" unicode="&#x2206;" 
 />
    <glyph glyph-name="product" unicode="&#x220f;" 
 />
    <glyph glyph-name="summation" unicode="&#x2211;" 
 />
    <glyph glyph-name="minus" unicode="&#x2212;" 
 />
    <glyph glyph-name="uni2215" unicode="&#x2215;" 
 />
    <glyph glyph-name="uni2219" unicode="&#x2219;" 
 />
    <glyph glyph-name="radical" unicode="&#x221a;" 
 />
    <glyph glyph-name="infinity" unicode="&#x221e;" 
 />
    <glyph glyph-name="integral" unicode="&#x222b;" 
 />
    <glyph glyph-name="approxequal" unicode="&#x2248;" 
 />
    <glyph glyph-name="notequal" unicode="&#x2260;" 
 />
    <glyph glyph-name="lessequal" unicode="&#x2264;" 
 />
    <glyph glyph-name="greaterequal" unicode="&#x2265;" 
 />
    <glyph glyph-name="lozenge" unicode="&#x25ca;" 
 />
    <glyph glyph-name="_127" 
 />
    <glyph glyph-name="_128" 
 />
    <glyph glyph-name="_129" 
 />
    <glyph glyph-name="_138" 
 />
    <glyph glyph-name="_140" 
 />
    <glyph glyph-name="_141" 
 />
    <glyph glyph-name="_142" 
 />
    <glyph glyph-name="_143" 
 />
    <glyph glyph-name="_144" 
 />
    <glyph glyph-name="_154" 
 />
    <glyph glyph-name="_156" 
 />
    <glyph glyph-name="_157" 
 />
    <glyph glyph-name="_158" 
 />
    <glyph glyph-name="_159" 
 />
    <glyph glyph-name="_164" 
 />
    <glyph glyph-name="_175" 
 />
    <glyph glyph-name="_178" 
 />
    <glyph glyph-name="_179" 
 />
    <glyph glyph-name="_185" 
 />
    <glyph glyph-name="_192" 
 />
    <glyph glyph-name="_193" 
 />
    <glyph glyph-name="_194" 
 />
    <glyph glyph-name="_195" 
 />
    <glyph glyph-name="_196" 
 />
    <glyph glyph-name="_197" 
 />
    <glyph glyph-name="_198" 
 />
    <glyph glyph-name="_199" 
 />
    <glyph glyph-name="_200" 
 />
    <glyph glyph-name="_201" 
 />
    <glyph glyph-name="_202" 
 />
    <glyph glyph-name="_203" 
 />
    <glyph glyph-name="_204" 
 />
    <glyph glyph-name="_205" 
 />
    <glyph glyph-name="_206" 
 />
    <glyph glyph-name="_207" 
 />
    <glyph glyph-name="_208" 
 />
    <glyph glyph-name="_209" 
 />
    <glyph glyph-name="_210" 
 />
    <glyph glyph-name="_211" 
 />
    <glyph glyph-name="_212" 
 />
    <glyph glyph-name="_213" 
 />
    <glyph glyph-name="_214" 
 />
    <glyph glyph-name="_217" 
 />
    <glyph glyph-name="_218" 
 />
    <glyph glyph-name="_219" 
 />
    <glyph glyph-name="_220" 
 />
    <glyph glyph-name="_221" 
 />
    <glyph glyph-name="_222" 
 />
    <glyph glyph-name="_224" 
 />
    <glyph glyph-name="_225" 
 />
    <glyph glyph-name="_226" 
 />
    <glyph glyph-name="_227" 
 />
    <glyph glyph-name="_228" 
 />
    <glyph glyph-name="_229" 
 />
    <glyph glyph-name="_230" 
 />
    <glyph glyph-name="_231" 
 />
    <glyph glyph-name="_232" 
 />
    <glyph glyph-name="_233" 
 />
    <glyph glyph-name="_234" 
 />
    <glyph glyph-name="_235" 
 />
    <glyph glyph-name="_236" 
 />
    <glyph glyph-name="_237" 
 />
    <glyph glyph-name="_238" 
 />
    <glyph glyph-name="_239" 
 />
    <glyph glyph-name="_240" 
 />
    <glyph glyph-name="_241" 
 />
    <glyph glyph-name="_242" 
 />
    <glyph glyph-name="_243" 
 />
    <glyph glyph-name="_244" 
 />
    <glyph glyph-name="_245" 
 />
    <glyph glyph-name="_246" 
 />
    <glyph glyph-name="_249" 
 />
    <glyph glyph-name="_250" 
 />
    <glyph glyph-name="_251" 
 />
    <glyph glyph-name="_252" 
 />
    <glyph glyph-name="_253" 
 />
    <glyph glyph-name="_254" 
 />
    <glyph glyph-name="_255" 
 />
    </font>
</defs>
</svg>
