<?xml version="1.0" standalone="no"?>
<!DOCTYPE svg PUBLIC "-//W3C//DTD SVG 1.1//EN" "http://www.w3.org/Graphics/SVG/1.1/DTD/svg11.dtd" >
<svg xmlns="http://www.w3.org/2000/svg" xmlns:xlink="http://www.w3.org/1999/xlink" version="1.1">
<metadata>
Created by FontForge 20201107 at Mon Apr  6 19:30:04 2026
 By www-data
Copyright is for pussies.
</metadata>
<defs>
<font id="Pressuru" horiz-adv-x="1024" >
  <font-face 
    font-family="Pressuru"
    font-weight="400"
    font-stretch="normal"
    units-per-em="2048"
    panose-1="0 0 0 0 0 0 0 0 0 0"
    ascent="1536"
    descent="-512"
    x-height="1331"
    cap-height="1638"
    bbox="-205 -799 2226 2376"
    underline-thickness="102"
    underline-position="-204"
    unicode-range="U+0020-2122"
  />
<missing-glyph horiz-adv-x="1679" 
d="M1618 1638v-1638h-1557v1638h1557zM451 348h778v942h-778v-942z" />
    <glyph glyph-name=".notdef" horiz-adv-x="1679" 
d="M1618 1638v-1638h-1557v1638h1557zM451 348h778v942h-778v-942z" />
    <glyph glyph-name=".null" horiz-adv-x="0" 
 />
    <glyph glyph-name="nonmarkingreturn" horiz-adv-x="682" 
 />
    <glyph glyph-name="space" unicode=" " horiz-adv-x="348" 
 />
    <glyph glyph-name="exclam" unicode="!" horiz-adv-x="532" 
d="M461 369v-369h-389v369h389zM492 1331l-62 -850h-328l-61 850v307h451v-307z" />
    <glyph glyph-name="quotedbl" unicode="&#x22;" horiz-adv-x="839" 
d="M389 1413l-61 -389h-226l-61 389v225h348v-225zM799 1413l-62 -389h-225l-61 389v225h348v-225z" />
    <glyph glyph-name="numbersign" unicode="#" horiz-adv-x="1509" 
d="M1249 1249h240v-307h-305l-43 -205h256v-307h-322l-90 -430h-348l90 430h-123l-90 -430h-348l90 430h-236v307h302l43 205h-252v307h317l84 389h348l-84 -389h123l84 389h348zM713 942l-43 -205h123l43 205h-123z" />
    <glyph glyph-name="dollar" unicode="$" horiz-adv-x="1015" 
d="M610 1946v-285q182 -27 270.5 -142.5t88.5 -299.5v-123h-400v153q0 82 -61 82q-33 0 -47.5 -23.5t-14.5 -58.5v-41q0 -49 29.5 -89t76.5 -70.5t103.5 -63t113.5 -76.5t104 -100.5t76.5 -146t29.5 -201.5q0 -437 -369 -486v-282h-204v284q-190 25 -279.5 146.5
t-89.5 316.5v174h409v-225q0 -35 14.5 -58.5t47.5 -23.5q61 0 61 82v62q0 74 -29 130t-75 91.5t-101.5 67.5t-111 70.5t-101.5 87.5t-75 131t-29 190q0 178 90 296.5t269 145.5v285h204z" />
    <glyph glyph-name="percent" unicode="%" horiz-adv-x="1509" 
d="M428 0l819 1638h-164l-819 -1638h164zM461 1229v123q0 102 -72 102t-72 -102v-123q0 -103 72 -103t72 103zM41 1290q0 192 93.5 285.5t254.5 93.5t254.5 -93.5t93.5 -285.5t-93.5 -285.5t-254.5 -93.5t-254.5 93.5t-93.5 285.5zM1192 287v123q0 102 -72 102
q-71 0 -71 -102v-123q0 -103 71 -103q72 0 72 103zM772 348q0 192 93.5 285.5t254.5 93.5t254.5 -93.5t93.5 -285.5t-93.5 -285.5t-254.5 -93.5t-254.5 93.5t-93.5 285.5z" />
    <glyph glyph-name="ampersand" unicode="&#x26;" horiz-adv-x="1177" 
d="M82 358v195q0 56 9.5 103t25 77t34 53t37 34.5t34 18.5t24.5 9l10 2h20v20h-20q-3 1 -9 3.5t-23 14t-32.5 26.5t-34.5 43t-32.5 62.5t-23 86.5t-9.5 113q0 96 25 175t78 142t144 98t214 35q120 0 210 -34t144 -95.5t80.5 -141.5t26.5 -179v-113h-400v143q0 82 -61 82
t-61 -82v-102q0 -88 16 -115.5t76 -27.5h542v-287h-112v-379q0 -77 4 -136t10 -88t12.5 -47t10.5 -22l4 -4v-41h-369q-20 41 -20 205h-21v-13.5t-4.5 -33t-13 -47t-28 -49.5t-46.5 -46.5t-72.5 -33t-101.5 -13.5q-142 0 -219.5 97t-77.5 292zM604 369v348h-10q-22 0 -38 -3
t-27 -7t-18 -15t-11 -19t-5.5 -27.5t-2 -32t-0.5 -40.5v-190q0 -76 55 -76q28 0 42.5 17t14.5 45z" />
    <glyph glyph-name="quotesingle" unicode="'" horiz-adv-x="491" 
d="M451 1454l-82 -430h-246l-82 430v184h410v-184z" />
    <glyph glyph-name="parenleft" unicode="(" horiz-adv-x="675" 
d="M410 1761h266q-10 -14 -27.5 -41.5t-61.5 -124.5t-78 -207.5t-61.5 -289.5t-27.5 -371q0 -140 14 -272.5t36.5 -233t50 -189t55 -149t50 -105t36.5 -64.5l14 -21h-266q-7 7 -19.5 20t-49 61t-69.5 103t-73 146t-69 190t-49 234.5t-20 279.5t19 279t50 235.5t68 188.5
t74.5 147t68.5 102t50 63z" />
    <glyph glyph-name="parenright" unicode=")" horiz-adv-x="675" 
d="M0 1761h266q7 -7 19.5 -20t49 -61t69 -103t73 -146t69 -190t48.5 -234.5t20 -279.5t-19 -279t-50 -235.5t-68 -188.5t-74 -147t-68 -102t-50 -63l-19 -19h-266q10 14 27.5 41.5t61.5 124.5t78 207.5t61.5 289.5t27.5 371q0 140 -14 272.5t-36.5 233t-50 189t-55 149
t-50 105t-36.5 64.5z" />
    <glyph glyph-name="asterisk" unicode="*" horiz-adv-x="950" 
d="M332 1577v102h286v-102l-38 -162l143 86l98 31l88 -272l-98 -31l-166 -15l127 -108l59 -84l-231 -168l-59 84l-66 154l-65 -154l-60 -84l-231 168l59 84l125 108l-164 15l-98 31l88 272l98 -31l142 -86z" />
    <glyph glyph-name="plus" unicode="+" horiz-adv-x="1146" 
d="M399 1331h349v-317h296v-348h-296v-318h-349v318h-297v348h297v317z" />
    <glyph glyph-name="comma" unicode="," horiz-adv-x="471" 
d="M430 369v-349q0 -193 -69.5 -275.5t-237.5 -82.5h-82v205q98 0 131 20t33 93v20h-164v369h389z" />
    <glyph glyph-name="hyphen" unicode="-" horiz-adv-x="737" 
d="M696 901v-369h-655v369h655z" />
    <glyph glyph-name="period" unicode="." horiz-adv-x="471" 
d="M430 369v-369h-389v369h389z" />
    <glyph glyph-name="slash" unicode="/" horiz-adv-x="798" 
d="M778 1638l-430 -1945h-348l430 1945h348z" />
    <glyph glyph-name="zero" unicode="0" 
d="M512 307q61 0 61 82v860q0 82 -61 82t-61 -82v-860q0 -82 61 -82zM41 481v676q0 512 471 512t471 -512v-676q0 -512 -471 -512t-471 512z" />
    <glyph glyph-name="one" unicode="1" horiz-adv-x="675" 
d="M389 1638h225v-1638h-409v1229h-185v164q138 22 224 83.5t145 161.5z" />
    <glyph glyph-name="two" unicode="2" 
d="M451 1044h-410v154q0 99 26.5 182t81.5 149t147.5 103t215.5 37t215.5 -37t147.5 -103t81.5 -149t26.5 -182q0 -79 -17 -152t-45 -130.5t-65 -110t-77.5 -95.5t-81.5 -81.5t-78 -72.5t-65 -64.5t-45 -62t-17 -60.5h491v-369h-942v205q0 112 29.5 208.5t76.5 164.5
t103.5 129t113 114.5t103.5 106.5t76.5 119.5t29.5 140.5v61q0 82 -61 82t-61 -82v-205z" />
    <glyph glyph-name="three" unicode="3" 
d="M983 553v-113q0 -231 -112.5 -351t-358.5 -120t-358.5 120t-112.5 351v174h410v-225q0 -82 61 -82t61 82v184q0 28 -0.5 40.5t-2 32t-5.5 27.5t-11 19t-18 15t-27 7t-38 3h-143v287h153q60 0 76 27.5t16 115.5v102q0 82 -61 82t-61 -82v-143h-400v113q0 99 26.5 179
t80.5 141.5t144 95.5t210 34q123 0 214 -35t144 -98t78 -142t25 -175q0 -83 -17 -149.5t-41 -102t-48 -59.5t-41 -31l-17 -7h-21v-20h21q4 0 10 -1.5t24 -9t34.5 -19t36.5 -35t34.5 -53t24.5 -76.5t10 -103z" />
    <glyph glyph-name="four" unicode="4" horiz-adv-x="1146" 
d="M492 1638h409v-993h225v-307h-225v-338h-409v338h-472v287zM276 645h216v512z" />
    <glyph glyph-name="five" unicode="5" 
d="M573 389v399q0 72 -55 72q-57 0 -57 -72v-92h-410v942h922v-348h-553v-235h20q13 27 21 36q54 66 174 66q185 0 266.5 -91t81.5 -298v-287q0 -512 -471 -512t-471 512v92h410v-184q0 -82 61 -82t61 82z" />
    <glyph glyph-name="six" unicode="6" 
d="M41 420v799q0 99 26.5 179t81.5 141.5t147.5 95.5t215.5 34t215.5 -34t147.5 -95.5t81.5 -141.5t26.5 -179v-72h-410v102q0 82 -61 82t-61 -82v-286h20q1 4 3.5 11t15.5 24.5t32 31t57 24.5t87 11q151 0 234 -100.5t83 -309.5v-235q0 -99 -26.5 -179t-81.5 -142
t-147.5 -96t-215.5 -34t-215.5 34t-147.5 96t-81.5 142t-26.5 179zM451 727v-338q0 -82 61 -82t61 82v338q0 32 -15.5 52t-45.5 20t-45.5 -20t-15.5 -52z" />
    <glyph glyph-name="seven" unicode="7" horiz-adv-x="1003" 
d="M41 1638h922v-348q-8 -8 -21 -24t-51.5 -74t-73.5 -126t-77.5 -180.5t-73 -236t-51.5 -294.5t-21 -355h-410q0 167 22.5 327.5t59 283t80 232.5t87 186t80 132t59.5 83l22 26h-553v368z" />
    <glyph glyph-name="eight" unicode="8" 
d="M41 440v72q0 83 18 148.5t43.5 99.5t51 56t43.5 28l18 6h21v20h-21q-7 2 -18 6.5t-39 28.5t-50 58t-39.5 102t-17.5 154q0 96 25 175t78 142t144 98t214 35t214 -35t144 -98t78 -142t25 -175q0 -63 -9 -116t-23.5 -87.5t-32 -62.5t-35 -43t-32 -24.5t-23.5 -12.5l-9 -3
h-21v-20h21q7 -2 19 -6.5t42 -27.5t52.5 -56.5t41.5 -99t19 -148.5v-72q0 -231 -112.5 -351t-358.5 -120t-358.5 120t-112.5 351zM573 389v195q0 68 -12 95.5t-49 27.5t-49 -27.5t-12 -95.5v-195q0 -82 61 -82t61 82zM573 1137v112q0 82 -61 82t-61 -82v-112q0 -70 13 -96.5
t48 -26.5t48 26.5t13 96.5z" />
    <glyph glyph-name="nine" unicode="9" 
d="M983 1219v-799q0 -99 -26.5 -179t-81.5 -142t-147.5 -96t-215.5 -34t-215.5 34t-147.5 96t-81.5 142t-26.5 179v72h410v-103q0 -82 61 -82t61 82v287h-20q-1 -4 -3.5 -11t-15.5 -25t-32 -31.5t-57 -24.5t-87 -11q-151 0 -234 100.5t-83 309.5v236q0 99 26.5 179
t81.5 141.5t147.5 95.5t215.5 34t215.5 -34t147.5 -95.5t81.5 -141.5t26.5 -179zM573 911v338q0 82 -61 82t-61 -82v-338q0 -32 15.5 -51.5t45.5 -19.5t45.5 19.5t15.5 51.5z" />
    <glyph glyph-name="colon" unicode=":" horiz-adv-x="471" 
d="M430 553v-369h-389v369h389zM430 1126v-368h-389v368h389z" />
    <glyph glyph-name="semicolon" unicode=";" horiz-adv-x="471" 
d="M430 1024v-369h-389v369h389zM430 369v-349q0 -193 -69.5 -275.5t-237.5 -82.5h-82v205q98 0 131 20t33 93v20h-164v369h389z" />
    <glyph glyph-name="less" unicode="&#x3c;" horiz-adv-x="874" 
d="M608 242l-567 567l567 567l185 -184l-383 -383l383 -383z" />
    <glyph glyph-name="equal" unicode="=" horiz-adv-x="1085" 
d="M102 778h881v-307h-881v307zM102 1208h881v-307h-881v307z" />
    <glyph glyph-name="greater" unicode="&#x3e;" horiz-adv-x="874" 
d="M834 809l-568 -567l-184 184l383 383l-383 383l184 184z" />
    <glyph glyph-name="question" unicode="?" 
d="M696 594v-113h-389v92q0 83 14.5 146.5t38 102t52 69.5t57 59t52 60t38 82t14.5 116v41q0 82 -61 82t-61 -82v-194h-410v164q0 98 28 178.5t84 142t147.5 95.5t211.5 34t211.5 -34t147.5 -95.5t84 -142t28 -178.5q0 -79 -16 -146t-41 -113t-55.5 -85.5t-61.5 -71.5
t-56 -63t-41 -68t-16 -78zM696 369v-369h-389v369h389z" />
    <glyph glyph-name="at" unicode="@" horiz-adv-x="2037" 
d="M969 850h-389v61q0 167 116.5 268t333.5 101q216 0 333.5 -105.5t117.5 -304.5v-542q60 -7 106.5 31t72.5 107.5t39 151t13 170.5q0 164 -51 290.5t-143.5 205.5t-216.5 119.5t-275 40.5q-150 0 -276.5 -49.5t-220.5 -144.5t-146.5 -244.5t-52.5 -339.5t52.5 -339.5
t146.5 -245t220.5 -145t276.5 -49.5q143 0 262 43l92 -249q-171 -60 -356 -60q-165 0 -313 44t-270.5 131.5t-211.5 211.5t-138.5 292.5t-49.5 365.5t49.5 365.5t138.5 292t211.5 211.5t270.5 131.5t313 43.5t312 -38t268 -115t208.5 -186t136 -258t48.5 -325
q0 -351 -156 -539t-416 -188q-139 0 -200.5 40.5t-81.5 123.5h-21q-2 -7 -7 -18t-26 -39t-48 -50t-75.5 -39.5t-105.5 -17.5q-80 0 -146.5 30.5t-110.5 99.5t-44 167q0 54 14.5 102.5t35 84t57 70.5t67 57.5t80 48.5t80.5 39.5t83.5 36t74.5 32.5l41 19v125q0 27 -16 44
t-46 17t-45.5 -17t-15.5 -44v-123zM1092 461v225l-52 -41q-92 -73 -92 -192q0 -59 19.5 -87t52.5 -28q44 0 58 32.5t14 90.5z" />
    <glyph glyph-name="A" unicode="A" horiz-adv-x="1138" 
d="M713 0l-27 266h-233l-27 -266h-406l158 1065q79 527 101 573h581q21 -42 101 -573l157 -1065h-405zM549 1249l-64 -635h166l-61 635h-41z" />
    <glyph glyph-name="B" unicode="B" horiz-adv-x="1040" 
d="M573 0h-512v1638h482q123 0 210.5 -32t136.5 -91.5t71 -134.5t22 -172q0 -63 -9 -115.5t-23.5 -87t-32 -61.5t-35 -41.5t-32 -24t-23.5 -12.5l-9 -2h-20v-20h20q8 -1 20 -5t44 -25.5t56.5 -53.5t44.5 -96.5t20 -147.5v-86q0 -111 -21.5 -189t-71 -133t-133 -81.5
t-205.5 -26.5zM471 696v-379h61q30 0 46 17.5t16 44.5v205q0 70 -14.5 91t-67.5 21h-41zM471 1311v-318h31q52 0 67 24t15 89v143q0 27 -16 44.5t-46 17.5h-51z" />
    <glyph glyph-name="C" unicode="C" 
d="M41 481v676q0 512 471 512t471 -512v-174h-410v266q0 82 -61 82t-61 -82v-860q0 -82 61 -82t61 82v307h410v-215q0 -512 -471 -512t-471 512z" />
    <glyph glyph-name="D" unicode="D" horiz-adv-x="1034" 
d="M61 0v1638h461q96 0 167.5 -13.5t130.5 -47t96 -89.5t57 -140.5t20 -200.5v-655q0 -116 -20 -200.5t-57 -140.5t-96 -89.5t-130.5 -47.5t-167.5 -14h-461zM584 461v717q0 90 -25 121.5t-88 31.5h-20v-1024h20q63 0 88 32t25 122z" />
    <glyph glyph-name="E" unicode="E" horiz-adv-x="880" 
d="M778 1024v-369h-307v-286h369v-369h-779v1638h779v-368h-369v-246h307z" />
    <glyph glyph-name="F" unicode="F" horiz-adv-x="880" 
d="M799 1024v-369h-328v-655h-410v1638h779v-368h-369v-246h328z" />
    <glyph glyph-name="G" unicode="G" horiz-adv-x="1034" 
d="M41 481v676q0 512 471 512t471 -512v-133h-410v225q0 82 -61 82t-61 -82v-833q0 -109 77 -109q49 0 67.5 58t18.5 208v82h-112v246h481v-901h-235l30 410h-41q2 -9 4 -25t2 -62t-5.5 -87.5t-26 -92.5t-53.5 -87.5t-93 -61.5t-139 -25q-385 0 -385 512z" />
    <glyph glyph-name="H" unicode="H" horiz-adv-x="1064" 
d="M594 1638h410v-1638h-410v655h-123v-655h-410v1638h410v-614h123v614z" />
    <glyph glyph-name="I" unicode="I" horiz-adv-x="532" 
d="M471 1638v-1638h-410v1638h410z" />
    <glyph glyph-name="J" unicode="J" horiz-adv-x="716" 
d="M655 1638v-1095q0 -113 -7 -191.5t-25.5 -145t-48.5 -107t-78.5 -68.5t-114 -39.5t-156.5 -11.5q-55 0 -106 5t-75 10l-24 5v338h93q64 0 98.5 33t34.5 131v1136h409z" />
    <glyph glyph-name="K" unicode="K" horiz-adv-x="1075" 
d="M61 1638h410v-624h21q60 0 81 49t21 176v61q0 89 4.5 156.5t11 100t13.5 53t11 24.5l5 4h399v-41q-2 -1 -5 -4t-10.5 -21.5t-13.5 -47t-11 -88t-5 -136.5v-71q0 -97 -18 -171t-43.5 -110t-51 -57.5t-43.5 -26.5l-18 -4h-20v-20h20q4 0 10.5 -1t26 -8.5t37 -19.5t38.5 -37
t36.5 -58t26 -86t10.5 -118v-174q0 -77 5.5 -136t13 -88t14.5 -47t13 -22l5 -4v-41h-410q-2 1 -5.5 4t-12.5 24t-15.5 53.5t-12 100t-5.5 156.5v164q0 86 -17.5 125t-74.5 39h-31v-666h-410v1638z" />
    <glyph glyph-name="L" unicode="L" horiz-adv-x="880" 
d="M860 0h-799v1638h410v-1269h389v-369z" />
    <glyph glyph-name="M" unicode="M" horiz-adv-x="1495" 
d="M451 778h-21l-20 -778h-379l106 1638h436l164 -870h21l164 870h436l106 -1638h-379l-20 778h-21l-143 -778h-307z" />
    <glyph glyph-name="N" unicode="N" horiz-adv-x="1064" 
d="M61 1638h359l235 -747l-30 747h379v-1638h-359l-235 748l30 -748h-379v1638z" />
    <glyph glyph-name="O" unicode="O" 
d="M512 307q61 0 61 82v860q0 82 -61 82t-61 -82v-860q0 -82 61 -82zM41 481v676q0 512 471 512t471 -512v-676q0 -512 -471 -512t-471 512z" />
    <glyph glyph-name="P" unicode="P" horiz-adv-x="1040" 
d="M594 1004v215q0 63 -14.5 82.5t-67.5 19.5h-41v-420h41q45 0 63.5 24t18.5 79zM61 1638h492q239 0 345 -113.5t106 -336.5v-144q0 -450 -431 -450h-102v-594h-410v1638z" />
    <glyph glyph-name="Q" unicode="Q" 
d="M41 481v676q0 512 471 512t471 -512v-676q0 -449 -358 -504v-8q0 -30 17 -45.5t44 -15.5h236v-379h-267q-80 0 -131.5 11t-94 42.5t-62 93.5t-19.5 160v152q-307 77 -307 493zM512 307q61 0 61 82v860q0 82 -61 82t-61 -82v-860q0 -82 61 -82z" />
    <glyph glyph-name="R" unicode="R" horiz-adv-x="1064" 
d="M61 0v1638h533q96 0 168.5 -20t118 -54.5t73.5 -85t39 -106t11 -123.5v-153q0 -52 -10 -96t-26.5 -73t-36 -51.5t-39.5 -34.5t-36.5 -19.5t-26.5 -9.5l-10 -3h-20v-21h20q8 -1 20 -3.5t44 -17t56.5 -36.5t44.5 -66.5t20 -101.5v-225q0 -77 4 -136t10 -88t12 -47t10 -22
l4 -4v-41h-409q-41 22 -41 338v215q0 27 -16 44t-46 17h-61v-614h-410zM594 1014v246q0 27 -16 44t-46 17h-61v-369h61q30 0 46 17.5t16 44.5z" />
    <glyph glyph-name="S" unicode="S" horiz-adv-x="1015" 
d="M37 614h409v-225q0 -35 14.5 -58.5t47.5 -23.5q61 0 61 82v62q0 74 -29 130t-75 91.5t-101.5 67.5t-111 70.5t-101.5 87.5t-75 131t-29 190q0 98 27.5 178.5t82 142t143 95.5t204.5 34q235 0 350 -120.5t115 -329.5v-123h-400v153q0 82 -61 82q-33 0 -47.5 -23.5
t-14.5 -58.5v-41q0 -49 29.5 -89t76.5 -70.5t103.5 -63t113.5 -76.5t104 -100.5t76.5 -146t29.5 -201.5q0 -239 -113 -365.5t-358 -126.5q-124 0 -216 34.5t-147 98t-81.5 148t-26.5 190.5v174z" />
    <glyph glyph-name="T" unicode="T" horiz-adv-x="983" 
d="M20 1638h943v-368h-267v-1270h-409v1270h-267v368z" />
    <glyph glyph-name="U" unicode="U" horiz-adv-x="1064" 
d="M594 369v1269h410v-1208q0 -106 -26.5 -189t-82 -144.5t-147.5 -94.5t-216 -33t-215.5 33t-147 94.5t-82 144.5t-26.5 189v1208h410v-1269q0 -82 61 -82q33 0 47.5 23.5t14.5 58.5z" />
    <glyph glyph-name="V" unicode="V" horiz-adv-x="1126" 
d="M543 512h41l102 1126h420l-242 -1638h-602l-242 1638h420z" />
    <glyph glyph-name="W" unicode="W" horiz-adv-x="1679" 
d="M1229 1638h430l-195 -1638h-532l-82 897h-21l-81 -897h-533l-195 1638h431l51 -1085h20l107 1085h422l106 -1085h21z" />
    <glyph glyph-name="X" unicode="X" horiz-adv-x="1146" 
d="M276 840l-256 798h441l102 -450h21l102 450h440l-256 -798l256 -840h-440l-102 471h-21l-102 -471h-441z" />
    <glyph glyph-name="Y" unicode="Y" horiz-adv-x="1105" 
d="M784 502v-502h-462v502q0 46 -8.5 78.5t-26 71t-25.5 65.5l-242 829v92h431l92 -655h20l92 655h430v-92l-241 -829q-8 -27 -25.5 -65.5t-26 -71t-8.5 -78.5z" />
    <glyph glyph-name="Z" unicode="Z" horiz-adv-x="962" 
d="M41 0v369l461 901h-461v368h881v-368l-461 -901h461v-369h-881z" />
    <glyph glyph-name="bracketleft" unicode="[" horiz-adv-x="696" 
d="M430 1454v-1454h225v-307h-573v2068h573v-307h-225z" />
    <glyph glyph-name="backslash" unicode="\" horiz-adv-x="798" 
d="M451 -307l-431 1945h349l430 -1945h-348z" />
    <glyph glyph-name="bracketright" unicode="]" horiz-adv-x="696" 
d="M266 0v1454h-225v307h573v-2068h-573v307h225z" />
    <glyph glyph-name="asciicircum" unicode="^" 
d="M41 1270l317 409h308l317 -409v-41h-328l-133 215h-20l-133 -215h-328v41z" />
    <glyph glyph-name="underscore" unicode="_" horiz-adv-x="1187" 
d="M1106 348v-348h-1024v348h1024z" />
    <glyph glyph-name="a" unicode="a" horiz-adv-x="1019" 
d="M590 143h-21q-2 -7 -6 -18t-22.5 -39t-42 -49.5t-66 -39t-94.5 -17.5q-135 0 -218 93t-83 265q0 61 14 114.5t35.5 92.5t56.5 74.5t67.5 58.5t79.5 47t80.5 38t82.5 34t75 32l41 19v186q0 28 -15.5 45t-45.5 17t-46 -17.5t-16 -44.5v-153h-389v71q0 195 115.5 302.5
t335.5 107.5q238 0 344 -98.5t106 -290.5v-973h-348zM569 399v267l-51 -41q-46 -36 -69 -85.5t-23 -129.5q0 -134 78 -134q28 0 43 19.5t18.5 43t3.5 60.5z" />
    <glyph glyph-name="b" unicode="b" horiz-adv-x="1003" 
d="M61 0v1638h390v-460q5 12 11 26t27 45t46.5 53.5t68.5 41t92 18.5q124 0 195.5 -83t71.5 -265v-625q0 -119 -21 -203.5t-60.5 -130.5t-87 -66t-108.5 -20q-48 0 -89.5 15.5t-66.5 36t-44.5 45t-26 37.5t-8.5 18v-121h-390zM573 287v737q0 32 -15.5 52t-45.5 20t-45.5 -20
t-15.5 -52v-737q0 -32 15.5 -52t45.5 -20t45.5 20t15.5 52z" />
    <glyph glyph-name="c" unicode="c" horiz-adv-x="983" 
d="M553 799v235q0 28 -15.5 45t-45.5 17t-46 -17.5t-16 -44.5v-737q0 -27 16 -44t46 -17t45.5 17t15.5 44v287h389v-144q0 -108 -23.5 -191t-74.5 -147.5t-139.5 -98.5t-212.5 -34q-451 0 -451 471v451q0 471 451 471q124 0 212.5 -34t139.5 -98.5t74.5 -147.5t23.5 -191
v-92h-389z" />
    <glyph glyph-name="d" unicode="d" horiz-adv-x="1003" 
d="M942 1638v-1638h-348l-31 133q-2 -7 -6 -18t-22 -39t-42.5 -50t-69 -39.5t-99.5 -17.5q-127 0 -205 87.5t-78 281.5v604q0 119 21 203t61.5 130.5t90 66.5t114.5 20q53 0 96.5 -15.5t70 -40t38.5 -39t19 -26.5l1 -2v399h389zM430 1075v-788q0 -32 16 -52t46 -20t45.5 20
t15.5 52v788q0 32 -15.5 52t-45.5 20t-46 -20t-16 -52z" />
    <glyph glyph-name="e" unicode="e" horiz-adv-x="983" 
d="M492 236q30 0 45.5 17t15.5 44v225h389v-82q0 -108 -23.5 -191t-74.5 -147.5t-139.5 -98.5t-212.5 -34q-451 0 -451 471v451q0 471 451 471q124 0 212.5 -34t139.5 -98.5t74.5 -147.5t23.5 -191v-256h-512v-338q0 -27 16 -44t46 -17zM553 819v215q0 28 -15.5 45t-45.5 17
t-46 -17.5t-16 -44.5v-215h123z" />
    <glyph glyph-name="f" unicode="f" horiz-adv-x="819" 
d="M553 1393q0 -30 17 -46t44 -16h185v-327h-195v-1004h-389v1004h-195v327h185v103q0 84 20.5 146.5t54 100.5t85 61t106 31.5t123.5 8.5h174v-328h-154q-27 0 -44 -15.5t-17 -45.5z" />
    <glyph glyph-name="g" unicode="g" horiz-adv-x="1003" 
d="M430 0v-72q0 -27 16 -44t46 -17t45.5 17t15.5 44v283q-4 -12 -9 -25t-23 -39.5t-41 -45.5t-64.5 -34.5t-91.5 -15.5q-127 0 -205 87.5t-78 281.5v522q0 119 21 203.5t60 130.5t86.5 66t108.5 20q46 0 86 -15.5t64 -34.5t45 -47t27.5 -39.5t12.5 -25.5l1 -2v133h389v-1208
q0 -124 -20 -206.5t-70.5 -142t-138 -86t-221.5 -26.5q-244 0 -347.5 84.5t-103.5 253.5h389zM430 1044v-675q0 -32 16 -52t46 -20t45.5 20t15.5 52v675q0 32 -15.5 52t-45.5 20t-46 -20t-16 -52z" />
    <glyph glyph-name="h" unicode="h" 
d="M573 0v983q0 32 -15.5 52t-45.5 20t-45.5 -20t-15.5 -52v-983h-390v1638h390v-491q3 9 9 23.5t28.5 51.5t49 65.5t72 51.5t97.5 23q256 0 256 -348v-1014h-390z" />
    <glyph glyph-name="i" unicode="i" horiz-adv-x="512" 
d="M61 1249h390v-1249h-390v1249zM61 1638h390v-307h-390v307z" />
    <glyph glyph-name="j" unicode="j" horiz-adv-x="512" 
d="M61 1638h390v-307h-390v307zM61 0v1249h390v-1188q0 -84 -6.5 -144t-25.5 -117t-52.5 -92t-89.5 -56t-134 -21h-245v308h102q30 0 45.5 17t15.5 44z" />
    <glyph glyph-name="k" unicode="k" horiz-adv-x="1003" 
d="M61 1638h390v-809q22 0 38 6.5t31.5 25.5t24 60t8.5 103q0 80 4 141.5t10.5 91.5t12.5 48t10 22l4 4h389v-41q-5 -4 -11.5 -15t-18 -73t-11.5 -158q0 -67 -9.5 -121.5t-25 -89t-34 -60t-37 -37.5t-34 -19.5t-24.5 -8.5l-10 -1h-20v-21h20q7 0 19 -1.5t42 -15.5t52.5 -38
t41.5 -76.5t19 -124.5v-92q0 -77 4 -136t10 -88t12.5 -47t10.5 -22l4 -4v-41h-389q-41 22 -41 338v82q0 27 -0.5 39t-4.5 27.5t-12.5 21t-24.5 10t-40 4.5h-20v-522h-390v1638z" />
    <glyph glyph-name="l" unicode="l" horiz-adv-x="512" 
d="M61 1638h390v-1638h-390v1638z" />
    <glyph glyph-name="m" unicode="m" horiz-adv-x="1536" 
d="M1085 0v983q0 32 -15.5 52t-45.5 20q-28 0 -43.5 -17.5t-17.5 -46.5v-991h-390v983q0 32 -15.5 52t-45.5 20t-45.5 -20t-15.5 -52v-983h-390v1331h390v-184q3 9 9 23.5t28.5 51.5t49 65.5t72 51.5t97.5 23q210 0 247 -236q44 109 102 166q71 70 163 70q256 0 256 -348
v-1014h-390z" />
    <glyph glyph-name="n" unicode="n" 
d="M573 0v983q0 32 -15.5 52t-45.5 20t-45.5 -20t-15.5 -52v-983h-390v1331h390v-184q3 9 9 23.5t28.5 51.5t49 65.5t72 51.5t97.5 23q256 0 256 -348v-1014h-390z" />
    <glyph glyph-name="o" unicode="o" horiz-adv-x="983" 
d="M41 440v451q0 471 451 471q124 0 212.5 -34t139.5 -98.5t74.5 -147.5t23.5 -191v-451q0 -108 -23.5 -191t-74.5 -147.5t-139.5 -98.5t-212.5 -34q-451 0 -451 471zM553 297v737q0 28 -15.5 45t-45.5 17t-46 -17.5t-16 -44.5v-737q0 -27 16 -44t46 -17t45.5 17t15.5 44z
" />
    <glyph glyph-name="p" unicode="p" horiz-adv-x="1003" 
d="M61 -307v1638h390l-21 -164h21q2 8 7.5 21t26 46.5t45.5 59.5t69.5 47t96.5 21q124 0 195.5 -83t71.5 -265v-625q0 -119 -21 -203t-61.5 -130.5t-90 -66.5t-114.5 -20q-45 0 -84.5 12t-63.5 28.5t-42.5 35.5t-26 30t-8.5 15v-397h-390zM573 266v738q0 32 -15.5 51.5
t-45.5 19.5t-45.5 -19.5t-15.5 -51.5v-738q0 -32 15.5 -51.5t45.5 -19.5t45.5 19.5t15.5 51.5z" />
    <glyph glyph-name="q" unicode="q" horiz-adv-x="1003" 
d="M942 1331v-1638h-389v438q-3 -11 -7.5 -23t-22 -39.5t-40.5 -47t-65 -36t-94 -16.5q-127 0 -205 87.5t-78 281.5v604q0 119 21 203.5t60 130.5t86.5 66t108.5 20q46 0 86 -15.5t64 -34.5t45 -47t27.5 -39.5t12.5 -25.5l1 -2v133h389zM430 1044v-757q0 -32 16 -52t46 -20
t45.5 20t15.5 52v757q0 32 -15.5 52t-45.5 20t-46 -20t-16 -52z" />
    <glyph glyph-name="r" unicode="r" horiz-adv-x="768" 
d="M61 0v1331h369l-61 -266h41q1 6 2.5 17t10.5 42.5t22 60t39 62.5t58.5 57.5t83 37.5t111.5 10v-400h-30q-132 0 -194 -55t-62 -201v-696h-390z" />
    <glyph glyph-name="s" unicode="s" horiz-adv-x="974" 
d="M487 236q30 0 46 17t16 44v51q0 54 -27.5 97t-72 74t-98 60.5t-107 64.5t-98 77t-72 106.5t-27.5 145.5q0 80 25 148t75.5 123t137.5 86.5t202 31.5q100 0 179 -23.5t127 -60t79.5 -84.5t43.5 -92.5t12 -87.5v-144h-379v164q0 27 -16 44.5t-46 17.5t-45.5 -17t-15.5 -45
v-41q0 -45 28 -83t73.5 -67t100 -58.5t109 -67.5t100 -84t73.5 -117t28 -158q0 -389 -451 -389q-101 0 -180 22t-129 57.5t-82.5 84.5t-45.5 99.5t-13 105.5v154h389v-195q0 -27 15.5 -44t45.5 -17z" />
    <glyph glyph-name="t" unicode="t" horiz-adv-x="808" 
d="M788 1004h-194v-635q0 -33 12.5 -47.5t48.5 -14.5h72v-307q-51 -20 -184 -20q-66 0 -118 11.5t-87 29.5t-60 48t-39 60t-22 73.5t-10 79.5t-2 87v635h-185v327h195v215l379 92v-307h194v-327z" />
    <glyph glyph-name="u" unicode="u" 
d="M451 1331v-983q0 -32 15.5 -52t45.5 -20t45.5 20t15.5 52v983h390v-1331h-349l-26 184h-15q-3 -9 -9 -23.5t-28.5 -51.5t-49 -65.5t-72 -51.5t-97.5 -23q-256 0 -256 348v1014h390z" />
    <glyph glyph-name="v" unicode="v" horiz-adv-x="1064" 
d="M430 1331l82 -860h41l82 860h409l-235 -1331h-553l-236 1331h410z" />
    <glyph glyph-name="w" unicode="w" horiz-adv-x="1556" 
d="M1075 471h21l51 860h389l-168 -1331h-489l-91 696h-20l-90 -696h-490l-168 1331h390l51 -860h20l113 860h369z" />
    <glyph glyph-name="x" unicode="x" horiz-adv-x="1032" 
d="M20 1331h400l86 -368h20l86 368h400l-230 -655l230 -676h-400l-86 379h-20l-86 -379h-400l230 676z" />
    <glyph glyph-name="y" unicode="y" horiz-adv-x="1054" 
d="M553 410l72 921h409l-164 -1085q-18 -120 -36 -201.5t-43.5 -149.5t-56.5 -108t-77 -67.5t-102 -37.5t-135 -10h-359v328h215l-256 1331h410l102 -921h21z" />
    <glyph glyph-name="z" unicode="z" horiz-adv-x="921" 
d="M41 0v338l426 645h-426v348h840v-338l-426 -645h426v-348h-840z" />
    <glyph glyph-name="braceleft" unicode="{" horiz-adv-x="778" 
d="M389 737h21q7 0 18 -1.5t39 -16t49.5 -39.5t39 -80t17.5 -129v-389q0 -42 23.5 -62t58.5 -20h62v-307h-123q-79 0 -137.5 9t-112.5 33.5t-87.5 66t-53 109.5t-19.5 161v440q0 59 -17 75.5t-65 16.5h-61v287h61q48 0 65 16.5t17 75.5v399q0 93 19.5 161t53 109.5t87.5 66
t112.5 33.5t137.5 9h123v-307h-62q-35 0 -58.5 -20t-23.5 -62v-348q0 -74 -17 -129t-40.5 -80t-47.5 -39.5t-41 -15.5l-17 -2h-21v-21z" />
    <glyph glyph-name="bar" unicode="|" horiz-adv-x="552" 
d="M471 1946v-2253h-389v2253h389z" />
    <glyph glyph-name="braceright" unicode="}" horiz-adv-x="778" 
d="M369 737h20v21h-20q-7 0 -18 1.5t-39 16t-50 39.5t-39.5 80t-17.5 129v348q0 42 -23.5 62t-58.5 20h-62v307h123q79 0 137.5 -9t112.5 -33.5t87.5 -66t53 -109.5t19.5 -161v-399q0 -59 17 -75.5t65 -16.5h61v-287h-61q-48 0 -65 -16.5t-17 -75.5v-440q0 -93 -19.5 -161
t-53 -109.5t-87.5 -66t-112.5 -33.5t-137.5 -9h-123v307h62q35 0 58.5 20t23.5 62v389q0 74 17 129t41 80t48 39.5t41 16.5z" />
    <glyph glyph-name="asciitilde" unicode="~" horiz-adv-x="1249" 
d="M911 1024l297 -41v-76q0 -177 -79 -276t-234 -99q-71 0 -144 22.5t-122.5 49.5t-108 49.5t-104.5 22.5q-78 0 -78 -82v-41l-297 41v74q0 177 80 276.5t235 99.5q70 0 143 -22.5t123 -49t109 -49t105 -22.5q75 0 75 82v41z" />
    <glyph glyph-name="exclamdown" unicode="&#xa1;" horiz-adv-x="532" 
d="M72 1270v368h389v-368h-389zM41 307l61 850h328l62 -850v-307h-451v307z" />
    <glyph glyph-name="cent" unicode="&#xa2;" horiz-adv-x="983" 
d="M594 -25v-282h-205v282q-348 47 -348 465v451q0 96 18 171.5t58 137.5t108.5 101t163.5 53v284h205v-284q348 -50 348 -463v-92h-389v235q0 28 -15.5 45t-45.5 17t-46 -17.5t-16 -44.5v-737q0 -27 16 -44t46 -17t45.5 17t15.5 44v287h389v-144q0 -418 -348 -465z" />
    <glyph glyph-name="sterling" unicode="&#xa3;" horiz-adv-x="1177" 
d="M850 901v-164h-258q2 -14 2 -41q0 -72 -11.5 -136t-28 -104.5t-33.5 -71t-29 -43.5l-11 -13q37 0 96.5 -10.5t88.5 -10.5q61 0 61 82v143h410v-153q0 -87 -16.5 -156t-56 -128.5t-114.5 -92.5t-182 -33q-108 0 -258.5 36t-233.5 36q-36 0 -72 -10.5t-54 -20.5l-17 -10
l-72 317q7 3 19 9.5t42 32.5t53 59.5t42 94t19 132.5q0 18 -9 92h-217v164h178q-55 200 -55 297q0 106 26.5 190.5t81.5 148t147 98t216 34.5q471 0 471 -512v-133h-409v225q0 34 -18 58t-54 24q-72 0 -72 -102q0 -51 7.5 -102t22.5 -121t21 -105h277z" />
    <glyph glyph-name="currency" unicode="&#xa4;" horiz-adv-x="1212" 
d="M1171 1288l-176 -176q82 -119 82 -272t-82 -275l176 -174l-116 -117l-176 175q-119 -80 -273 -80q-152 0 -274 80l-174 -175l-117 117l174 174q-80 119 -80 275t80 272l-174 176l117 117l174 -176q121 82 274 82q155 0 273 -82l176 176zM422 840q0 -96 52 -150.5
t132 -54.5t132.5 54.5t52.5 150.5t-52.5 150t-132.5 54t-132 -54t-52 -150z" />
    <glyph glyph-name="yen" unicode="&#xa5;" horiz-adv-x="1105" 
d="M76 389v164h241l-20 82h-221v164h162l-218 747v92h431l92 -655h20l92 655h430v-92l-219 -747h164v-164h-223l-21 -82h244v-164h-246v-389h-462v389h-246z" />
    <glyph glyph-name="brokenbar" unicode="&#xa6;" horiz-adv-x="552" 
d="M471 758v-1065h-389v1065h389zM471 1946v-1024h-389v1024h389z" />
    <glyph glyph-name="section" unicode="&#xa7;" horiz-adv-x="1013" 
d="M764 358v-20q8 -4 20.5 -11.5t45 -35t57 -59.5t45 -86.5t20.5 -114.5q0 -72 -25 -136t-75.5 -117t-138 -84.5t-201.5 -31.5q-100 0 -179 23.5t-126.5 60t-79 84.5t-43.5 92.5t-12 87.5v144h379v-144q0 -82 61 -82t61 82v21q0 40 -22 76t-58 63.5t-82 58t-94 58.5
t-94 66.5t-82 80.5t-58 102t-22 130q0 50 10.5 94t27 74.5t36.5 55.5t40.5 40t37 25t27.5 14l10 4v20q-8 3 -20.5 9t-45 31t-57.5 56.5t-45.5 88t-20.5 122.5q0 72 25 136t76 117t138.5 84.5t201.5 31.5q100 0 179 -23.5t126.5 -60t79 -84.5t43.5 -92.5t12 -87.5v-143h-379
v143q0 82 -61 82q-62 0 -62 -82v-21q0 -45 28 -85t73.5 -71.5t100 -64.5t109 -72t100 -84t73.5 -111.5t28 -145.5q0 -50 -10.5 -94t-27 -74.5t-36.5 -55.5t-40 -40t-36.5 -25.5t-27.5 -14.5zM451 719v-109q0 -78 55 -78q57 0 57 78v109q0 40 -15.5 60t-41.5 20
q-55 0 -55 -80z" />
    <glyph glyph-name="copyright" unicode="&#xa9;" horiz-adv-x="2048" 
d="M1087 952v-194h390v51q0 471 -451 471t-451 -471v-287q0 -471 451 -471t451 471v62h-390v-205q0 -28 -15.5 -45t-45.5 -17t-45.5 17t-15.5 45v573q0 28 15.5 45t45.5 17t45.5 -17t15.5 -45zM41 666q0 197 49.5 365.5t138.5 292t211.5 211.5t270.5 131.5t313 43.5
t313 -43.5t270.5 -131.5t211.5 -211.5t138.5 -292t49.5 -365.5t-49.5 -365.5t-138.5 -292.5t-211.5 -211.5t-270.5 -131.5t-313 -44t-313 44t-270.5 131.5t-211.5 211.5t-138.5 292.5t-49.5 365.5zM330 666q0 -190 52.5 -339.5t146.5 -245t220.5 -145t276.5 -49.5
t276.5 49.5t220.5 145t146.5 245t52.5 339.5t-52.5 339.5t-146.5 244.5t-220.5 144.5t-276.5 49.5t-276.5 -49.5t-220.5 -144.5t-146.5 -244.5t-52.5 -339.5z" />
    <glyph glyph-name="guillemotleft" unicode="&#xab;" horiz-adv-x="1112" 
d="M805 1147h266l-242 -440l242 -441h-266l-334 441zM375 1147h266l-242 -440l242 -441h-266l-334 441z" />
    <glyph glyph-name="uni00AD" unicode="&#xad;" horiz-adv-x="1064" 
d="M102 1014h861v-348h-861v348z" />
    <glyph glyph-name="registered" unicode="&#xae;" horiz-adv-x="2048" 
d="M41 666q0 197 49.5 365.5t138.5 292t211.5 211.5t270.5 131.5t313 43.5t313 -43.5t270.5 -131.5t211.5 -211.5t138.5 -292t49.5 -365.5t-49.5 -365.5t-138.5 -292.5t-211.5 -211.5t-270.5 -131.5t-313 -44t-313 44t-270.5 131.5t-211.5 211.5t-138.5 292.5t-49.5 365.5z
M330 666q0 -190 52.5 -339.5t146.5 -245t220.5 -145t276.5 -49.5t276.5 49.5t220.5 145t146.5 245t52.5 339.5t-52.5 339.5t-146.5 244.5t-220.5 144.5t-276.5 49.5t-276.5 -49.5t-220.5 -144.5t-146.5 -244.5t-52.5 -339.5zM645 82v1167h399q196 0 293 -87t97 -251
q0 -50 -8 -92.5t-20.5 -70t-28 -49t-31 -33.5t-28 -19.5t-20.5 -9.5l-8 -2h-20v-21h20q6 -1 15.5 -4.5t34.5 -21.5t44 -44t34.5 -78t15.5 -118q0 -96 10 -152t20 -64l11 -9v-41h-349q-2 1 -4.5 3.5t-9.5 19t-12.5 41t-10 75.5t-4.5 117v41q0 61 -16.5 87t-54.5 26h-41v-410
h-328zM973 973v-205h31q53 0 72.5 23t19.5 79v21q0 82 -82 82h-41z" />
    <glyph glyph-name="degree" unicode="&#xb0;" horiz-adv-x="819" 
d="M481 1229v123q0 102 -71 102q-72 0 -72 -102v-123q0 -103 72 -103q71 0 71 103zM61 1290q0 192 94 285.5t255 93.5t254.5 -93.5t93.5 -285.5t-93.5 -285.5t-254.5 -93.5t-255 93.5t-94 285.5z" />
    <glyph glyph-name="plusminus" unicode="&#xb1;" horiz-adv-x="1146" 
d="M399 1505h349v-317h296v-348h-296v-287h-349v287h-297v348h297v317zM102 451h942v-349h-942v349z" />
    <glyph glyph-name="paragraph" unicode="&#xb6;" horiz-adv-x="1454" 
d="M512 1946h881v-308h-164v-1945h-307v1945h-103v-1945h-307v1003q-112 0 -199.5 37.5t-141.5 102.5t-82 149t-28 182v308q0 98 28 182t82 149t141.5 102.5t199.5 37.5z" />
    <glyph glyph-name="periodcentered" unicode="&#xb7;" horiz-adv-x="593" 
d="M492 1024v-369h-390v369h390z" />
    <glyph glyph-name="guillemotright" unicode="&#xbb;" horiz-adv-x="1112" 
d="M41 1147h266l334 -440l-334 -441h-266l242 441zM471 1147h266l334 -440l-334 -441h-266l242 441z" />
    <glyph glyph-name="questiondown" unicode="&#xbf;" 
d="M328 1044v113h389v-92q0 -83 -14.5 -146.5t-38 -102t-52 -69.5t-57 -59t-52 -60t-38 -82t-14.5 -116v-41q0 -82 61 -82t61 82v195h410v-164q0 -203 -118 -327t-353 -124t-353 124t-118 327q0 91 21.5 166.5t53 122.5t69 91.5t69 77t53 76t21.5 90.5zM328 1270v368h389
v-368h-389z" />
    <glyph glyph-name="Agrave" unicode="&#xc0;" horiz-adv-x="1138" 
d="M713 0l-27 266h-233l-27 -266h-406l158 1065q79 527 101 573h581q21 -42 101 -573l157 -1065h-405zM549 1249l-64 -635h166l-61 635h-41zM451 1720l-277 471h399l144 -471h-266z" />
    <glyph glyph-name="Aacute" unicode="&#xc1;" horiz-adv-x="1138" 
d="M713 0l-27 266h-233l-27 -266h-406l158 1065q79 527 101 573h581q21 -42 101 -573l157 -1065h-405zM549 1249l-64 -635h166l-61 635h-41zM973 2202l-277 -471h-266l143 471h400z" />
    <glyph glyph-name="Acircumflex" unicode="&#xc2;" horiz-adv-x="1138" 
d="M713 0l-27 266h-233l-27 -266h-406l158 1065q79 527 101 573h581q21 -42 101 -573l157 -1065h-405zM549 1249l-64 -635h166l-61 635h-41zM98 1761l318 389h307l317 -389v-41h-327l-133 205h-21l-133 -205h-328v41z" />
    <glyph glyph-name="Atilde" unicode="&#xc3;" horiz-adv-x="1138" 
d="M713 0l-27 266h-233l-27 -266h-406l158 1065q79 527 101 573h581q21 -42 101 -573l157 -1065h-405zM549 1249l-64 -635h166l-61 635h-41zM774 2099h270v-100q0 -130 -71 -204.5t-180 -74.5q-66 0 -138.5 21t-130.5 42t-88 21q-35 0 -49 -18.5t-14 -54.5v-11h-271v99
q0 130 71 205t181 75q65 0 137.5 -21t131.5 -42t90 -21q34 0 47.5 19t13.5 55v10z" />
    <glyph glyph-name="Adieresis" unicode="&#xc4;" horiz-adv-x="1138" 
d="M713 0l-27 266h-233l-27 -266h-406l158 1065q79 527 101 573h581q21 -42 101 -573l157 -1065h-405zM549 1249l-64 -635h166l-61 635h-41zM528 2028v-308h-348v308h348zM958 2028v-308h-348v308h348z" />
    <glyph glyph-name="Aring" unicode="&#xc5;" horiz-adv-x="1138" 
d="M221 1905q0 145 96.5 231t251.5 86t252 -86t97 -231q0 -55 -14.5 -100t-35 -71t-41 -44t-35.5 -24l-14 -7v-21h92l248 -1638h-405l-27 266h-233l-27 -266h-406l248 1638h90v21q-6 2 -15 6.5t-32.5 24t-41.5 44.5t-33 70.5t-15 100.5zM549 1249l-64 -635h166l-61 635h-41z
M641 1853v62q0 102 -72 102q-71 0 -71 -102v-62q0 -102 71 -102q72 0 72 102z" />
    <glyph glyph-name="AE" unicode="&#xc6;" horiz-adv-x="1505" 
d="M389 0h-389l406 1638h1058v-368h-368v-246h307v-369h-307v-286h368v-369h-778v307h-235zM686 1270h-41l-121 -594h162v594z" />
    <glyph glyph-name="Ccedilla" unicode="&#xc7;" 
d="M555 -287q0 92 -70 92q-23 0 -39 -15t-21 -30l-5 -16l-154 102q1 4 4.5 10.5t15 24.5t26 34t40 34t54.5 28q-365 52 -365 504v676q0 512 471 512t471 -512v-174h-410v266q0 82 -61 82t-61 -82v-860q0 -82 61 -82t61 82v307h410v-215q0 -462 -385 -506q77 -26 122.5 -92
t45.5 -170q0 -129 -68.5 -202.5t-185.5 -73.5t-186.5 66t-69.5 180h184q0 -23 13.5 -42.5t42.5 -19.5q59 0 59 92z" />
    <glyph glyph-name="Egrave" unicode="&#xc8;" horiz-adv-x="880" 
d="M778 655v369h-307v246h369v368h-779v-1638h779v369h-369v286h307zM338 1720l-277 471h400l143 -471h-266z" />
    <glyph glyph-name="Eacute" unicode="&#xc9;" horiz-adv-x="880" 
d="M778 1024v-369h-307v-286h369v-369h-779v1638h779v-368h-369v-246h307zM829 2202l-276 -471h-266l143 471h399z" />
    <glyph glyph-name="Ecircumflex" unicode="&#xca;" horiz-adv-x="880" 
d="M778 1024v-369h-307v-286h369v-369h-779v1638h779v-368h-369v-246h307zM-20 1761l317 389h307l318 -389v-41h-328l-133 205h-21l-133 -205h-327v41z" />
    <glyph glyph-name="Edieresis" unicode="&#xcb;" horiz-adv-x="880" 
d="M778 1024v-369h-307v-286h369v-369h-779v1638h779v-368h-369v-246h307zM410 2028v-308h-349v308h349zM840 2028v-308h-348v308h348z" />
    <glyph glyph-name="Igrave" unicode="&#xcc;" horiz-adv-x="532" 
d="M471 0v1638h-410v-1638h410zM174 1720l-276 471h399l143 -471h-266z" />
    <glyph glyph-name="Iacute" unicode="&#xcd;" horiz-adv-x="532" 
d="M471 1638v-1638h-410v1638h410zM666 2202l-277 -471h-266l143 471h400z" />
    <glyph glyph-name="Icircumflex" unicode="&#xce;" horiz-adv-x="532" 
d="M471 1638v-1638h-410v1638h410zM-205 1761l318 389h307l317 -389v-41h-327l-134 205h-20l-133 -205h-328v41z" />
    <glyph glyph-name="Idieresis" unicode="&#xcf;" horiz-adv-x="532" 
d="M471 1638v-1638h-410v1638h410zM225 2028v-308h-338v308h338zM645 2028v-308h-338v308h338z" />
    <glyph glyph-name="Eth" unicode="&#xd0;" horiz-adv-x="1136" 
d="M0 737v164h164v737h461q96 0 167.5 -13.5t130.5 -47t96 -89.5t57 -140.5t20 -200.5v-655q0 -116 -20 -200.5t-57 -140.5t-96 -89.5t-130.5 -47.5t-167.5 -14h-461v737h-164zM686 461v717q0 90 -25 121.5t-88 31.5h-20v-430h92v-164h-92v-430h20q63 0 88 32t25 122z" />
    <glyph glyph-name="Ntilde" unicode="&#xd1;" horiz-adv-x="1064" 
d="M61 1638h359l235 -747l-30 747h379v-1638h-359l-235 748l30 -748h-379v1638zM733 2099h271v-100q0 -130 -71.5 -204.5t-180.5 -74.5q-66 0 -138.5 21t-130.5 42t-88 21q-35 0 -49 -18.5t-14 -54.5v-11h-271v99q0 130 71 205t181 75q65 0 138 -21t131.5 -42t89.5 -21
q34 0 47.5 19t13.5 55v10z" />
    <glyph glyph-name="Ograve" unicode="&#xd2;" 
d="M512 307q61 0 61 82v860q0 82 -61 82t-61 -82v-860q0 -82 61 -82zM41 481v676q0 512 471 512t471 -512v-676q0 -512 -471 -512t-471 512zM379 1731l-277 471h400l143 -471h-266z" />
    <glyph glyph-name="Oacute" unicode="&#xd3;" 
d="M512 307q61 0 61 82v860q0 82 -61 82t-61 -82v-860q0 -82 61 -82zM41 481v676q0 512 471 512t471 -512v-676q0 -512 -471 -512t-471 512zM901 2202l-276 -471h-267l144 471h399z" />
    <glyph glyph-name="Ocircumflex" unicode="&#xd4;" 
d="M512 307q61 0 61 82v860q0 82 -61 82t-61 -82v-860q0 -82 61 -82zM41 481v676q0 512 471 512t471 -512v-676q0 -512 -471 -512t-471 512zM41 1761l317 389h308l317 -389v-41h-328l-133 205h-20l-133 -205h-328v41z" />
    <glyph glyph-name="Otilde" unicode="&#xd5;" 
d="M512 307q61 0 61 82v860q0 82 -61 82t-61 -82v-860q0 -82 61 -82zM41 481v676q0 512 471 512t471 -512v-676q0 -512 -471 -512t-471 512zM713 2099h270v-100q0 -130 -71.5 -204.5t-180.5 -74.5q-66 0 -138.5 21t-130 42t-87.5 21q-64 0 -64 -73v-11h-270v99q0 130 71 205
t181 75q65 0 137.5 -21t131 -42t89.5 -21q62 0 62 74v10z" />
    <glyph glyph-name="Odieresis" unicode="&#xd6;" 
d="M512 307q61 0 61 82v860q0 82 -61 82t-61 -82v-860q0 -82 61 -82zM41 481v676q0 512 471 512t471 -512v-676q0 -512 -471 -512t-471 512zM471 2028v-308h-348v308h348zM901 2028v-308h-348v308h348z" />
    <glyph glyph-name="multiply" unicode="&#xd7;" horiz-adv-x="1126" 
d="M317 840l-225 225l246 246l225 -226l225 226l246 -246l-225 -225l225 -226l-246 -245l-225 225l-225 -225l-246 245z" />
    <glyph glyph-name="Oslash" unicode="&#xd8;" 
d="M1024 1638l-98 -186q57 -117 57 -295v-676q0 -512 -471 -512q-202 0 -317 92l-33 -61h-164l98 188q-55 113 -55 293v676q0 512 471 512q196 0 315 -92l33 61h164zM512 307q61 0 61 82v393l-122 -233v-160q0 -82 61 -82zM451 1249v-389l122 234v155q0 82 -61 82t-61 -82z
" />
    <glyph glyph-name="Ugrave" unicode="&#xd9;" horiz-adv-x="1064" 
d="M594 369v1269h410v-1208q0 -106 -26.5 -189t-82 -144.5t-147.5 -94.5t-216 -33t-215.5 33t-147 94.5t-82 144.5t-26.5 189v1208h410v-1269q0 -82 61 -82q33 0 47.5 23.5t14.5 58.5zM410 1720l-277 471h399l144 -471h-266z" />
    <glyph glyph-name="Uacute" unicode="&#xda;" horiz-adv-x="1064" 
d="M594 369v1269h410v-1208q0 -106 -26.5 -189t-82 -144.5t-147.5 -94.5t-216 -33t-215.5 33t-147 94.5t-82 144.5t-26.5 189v1208h410v-1269q0 -82 61 -82q33 0 47.5 23.5t14.5 58.5zM911 2191l-276 -471h-266l143 471h399z" />
    <glyph glyph-name="Ucircumflex" unicode="&#xdb;" horiz-adv-x="1064" 
d="M594 369v1269h410v-1208q0 -106 -26.5 -189t-82 -144.5t-147.5 -94.5t-216 -33t-215.5 33t-147 94.5t-82 144.5t-26.5 189v1208h410v-1269q0 -82 61 -82q33 0 47.5 23.5t14.5 58.5zM61 1761l318 389h307l318 -389v-41h-328l-133 205h-21l-133 -205h-328v41z" />
    <glyph glyph-name="Udieresis" unicode="&#xdc;" horiz-adv-x="1064" 
d="M594 369v1269h410v-1208q0 -106 -26.5 -189t-82 -144.5t-147.5 -94.5t-216 -33t-215.5 33t-147 94.5t-82 144.5t-26.5 189v1208h410v-1269q0 -82 61 -82q33 0 47.5 23.5t14.5 58.5zM492 2028v-308h-349v308h349zM922 2028v-308h-349v308h349z" />
    <glyph glyph-name="Yacute" unicode="&#xdd;" horiz-adv-x="1105" 
d="M784 502v-502h-462v502q0 46 -8.5 78.5t-26 71t-25.5 65.5l-242 829v92h431l92 -655h20l92 655h430v-92l-241 -829q-8 -27 -25.5 -65.5t-26 -71t-8.5 -78.5zM942 2191l-276 -471h-267l144 471h399z" />
    <glyph glyph-name="Thorn" unicode="&#xde;" horiz-adv-x="1044" 
d="M61 0v1638h410v-245h61q127 0 221.5 -41t150.5 -116t83 -171t27 -215v-62q0 -119 -27 -215t-83 -170.5t-150.5 -115.5t-221.5 -41h-61v-246h-410zM471 1085v-532h51q103 0 103 205v123q0 204 -103 204h-51z" />
    <glyph glyph-name="germandbls" unicode="&#xdf;" horiz-adv-x="1060" 
d="M451 0h-390v1157q0 234 108.5 357.5t352.5 123.5q461 0 461 -430q0 -63 -9 -115.5t-23.5 -87t-32 -61.5t-35 -41.5t-32 -24t-23.5 -12.5l-9 -2h-20v-20h20q4 -1 11.5 -2.5t29 -10.5t40.5 -22.5t43 -39t41 -58.5t28.5 -83.5t11.5 -111.5v-86q0 -219 -102 -324.5
t-328 -105.5h-82v297h41q46 0 64 27t18 96v174q0 66 -23.5 89.5t-79.5 23.5h-20v276h10q52 0 67 24t15 89v153q0 103 -82 103q-29 0 -50 -23.5t-21 -79.5v-1249z" />
    <glyph glyph-name="agrave" unicode="&#xe0;" horiz-adv-x="1019" 
d="M590 143h-21q-2 -7 -6 -18t-22.5 -39t-42 -49.5t-66 -39t-94.5 -17.5q-135 0 -218 93t-83 265q0 61 14 114.5t35.5 92.5t56.5 74.5t67.5 58.5t79.5 47t80.5 38t82.5 34t75 32l41 19v186q0 28 -15.5 45t-45.5 17t-46 -17.5t-16 -44.5v-153h-389v71q0 195 115.5 302.5
t335.5 107.5q238 0 344 -98.5t106 -290.5v-973h-348zM569 399v267l-51 -41q-46 -36 -69 -85.5t-23 -129.5q0 -134 78 -134q28 0 43 19.5t18.5 43t3.5 60.5zM410 1423l-256 471h399l123 -471h-266z" />
    <glyph glyph-name="aacute" unicode="&#xe1;" horiz-adv-x="1019" 
d="M590 143h-21q-2 -7 -6 -18t-22.5 -39t-42 -49.5t-66 -39t-94.5 -17.5q-135 0 -218 93t-83 265q0 61 14 114.5t35.5 92.5t56.5 74.5t67.5 58.5t79.5 47t80.5 38t82.5 34t75 32l41 19v186q0 28 -15.5 45t-45.5 17t-46 -17.5t-16 -44.5v-153h-389v71q0 195 115.5 302.5
t335.5 107.5q238 0 344 -98.5t106 -290.5v-973h-348zM569 399v267l-51 -41q-46 -36 -69 -85.5t-23 -129.5q0 -134 78 -134q28 0 43 19.5t18.5 43t3.5 60.5zM891 1894l-277 -471h-266l144 471h399z" />
    <glyph glyph-name="acircumflex" unicode="&#xe2;" horiz-adv-x="1019" 
d="M590 143h-21q-2 -7 -6 -18t-22.5 -39t-42 -49.5t-66 -39t-94.5 -17.5q-135 0 -218 93t-83 265q0 61 14 114.5t35.5 92.5t56.5 74.5t67.5 58.5t79.5 47t80.5 38t82.5 34t75 32l41 19v186q0 28 -15.5 45t-45.5 17t-46 -17.5t-16 -44.5v-153h-389v71q0 195 115.5 302.5
t335.5 107.5q238 0 344 -98.5t106 -290.5v-973h-348zM569 399v267l-51 -41q-46 -36 -69 -85.5t-23 -129.5q0 -134 78 -134q28 0 43 19.5t18.5 43t3.5 60.5zM57 1454l308 369h286l307 -369v-41h-327l-113 195h-20l-113 -195h-328v41z" />
    <glyph glyph-name="atilde" unicode="&#xe3;" horiz-adv-x="1019" 
d="M590 143h-21q-2 -7 -6 -18t-22.5 -39t-42 -49.5t-66 -39t-94.5 -17.5q-135 0 -218 93t-83 265q0 61 14 114.5t35.5 92.5t56.5 74.5t67.5 58.5t79.5 47t80.5 38t82.5 34t75 32l41 19v186q0 28 -15.5 45t-45.5 17t-46 -17.5t-16 -44.5v-153h-389v71q0 195 115.5 302.5
t335.5 107.5q238 0 344 -98.5t106 -290.5v-973h-348zM569 399v267l-51 -41q-46 -36 -69 -85.5t-23 -129.5q0 -134 78 -134q28 0 43 19.5t18.5 43t3.5 60.5zM692 1792h266v-90q0 -133 -62.5 -211t-168.5 -78q-71 0 -139 21t-119.5 42t-81.5 21q-63 0 -63 -74v-10h-267v88
q0 134 62.5 212.5t169.5 78.5q70 0 138 -21t120.5 -42t83.5 -21q61 0 61 74v10z" />
    <glyph glyph-name="adieresis" unicode="&#xe4;" horiz-adv-x="1019" 
d="M590 143h-21q-2 -7 -6 -18t-22.5 -39t-42 -49.5t-66 -39t-94.5 -17.5q-135 0 -218 93t-83 265q0 61 14 114.5t35.5 92.5t56.5 74.5t67.5 58.5t79.5 47t80.5 38t82.5 34t75 32l41 19v186q0 28 -15.5 45t-45.5 17t-46 -17.5t-16 -44.5v-153h-389v71q0 195 115.5 302.5
t335.5 107.5q238 0 344 -98.5t106 -290.5v-973h-348zM569 399v267l-51 -41q-46 -36 -69 -85.5t-23 -129.5q0 -134 78 -134q28 0 43 19.5t18.5 43t3.5 60.5zM109 1751h358v-328h-358v328zM549 1751h358v-328h-358v328z" />
    <glyph glyph-name="aring" unicode="&#xe5;" horiz-adv-x="1019" 
d="M590 143h-21q-2 -7 -6 -18t-22.5 -39t-42 -49.5t-66 -39t-94.5 -17.5q-135 0 -218 93t-83 265q0 61 14 114.5t35.5 92.5t56.5 74.5t67.5 58.5t79.5 47t80.5 38t82.5 34t75 32l41 19v186q0 28 -15.5 45t-45.5 17t-46 -17.5t-16 -44.5v-153h-389v71q0 195 115.5 302.5
t335.5 107.5q238 0 344 -98.5t106 -290.5v-973h-348zM569 399v267l-51 -41q-46 -36 -69 -85.5t-23 -129.5q0 -134 78 -134q28 0 43 19.5t18.5 43t3.5 60.5zM580 1731v61q0 102 -72 102t-72 -102v-61q0 -103 72 -103t72 103zM160 1761q0 158 95.5 248t252.5 90t252.5 -90
t95.5 -248t-95.5 -248t-252.5 -90t-252.5 90t-95.5 248z" />
    <glyph glyph-name="ae" unicode="&#xe6;" horiz-adv-x="1511" 
d="M569 399v267l-51 -41q-46 -36 -69 -85.5t-23 -129.5q0 -134 78 -134q28 0 43 19.5t18.5 43t3.5 60.5zM1081 819v215q0 28 -15.5 45t-45.5 17t-46 -17.5t-16 -44.5v-215h123zM754 1249h20l5 6q5 6 16 16t26.5 22.5t39 24.5t51.5 22t67 16t82 6q109 0 189 -34.5t127.5 -98
t70 -147.5t22.5 -191v-256h-512v-338q0 -27 16 -44t46 -17t45.5 17t15.5 44v225h389v-82q0 -108 -23.5 -191t-74.5 -147.5t-139.5 -98.5t-212.5 -34q-105 0 -203 31h-207l-20 143h-21q-2 -7 -6 -18t-22.5 -39t-42 -49.5t-66 -39t-94.5 -17.5q-135 0 -218 93t-83 265
q0 61 14 114.5t35.5 92.5t56.5 74.5t67.5 58.5t79.5 47t80.5 38t82.5 34t75 32l41 19v186q0 28 -15.5 45t-45.5 17t-46 -17.5t-16 -44.5v-153h-389v71q0 192 109 301t301 109q61 0 113.5 -11.5t83 -28t52 -33.5t30.5 -29z" />
    <glyph glyph-name="ccedilla" unicode="&#xe7;" horiz-adv-x="983" 
d="M545 -287q0 92 -70 92q-23 0 -39 -15t-21 -30l-5 -16l-154 102q1 4 4 10.5t14.5 24.5t25.5 33.5t39 33t54 27.5q-352 47 -352 465v451q0 471 451 471q124 0 212.5 -34t139.5 -98.5t74.5 -147.5t23.5 -191v-92h-389v235q0 28 -15.5 45t-45.5 17t-46 -17.5t-16 -44.5v-737
q0 -27 16 -44t46 -17t45.5 17t15.5 44v287h389v-144q0 -420 -356 -465q79 -24 124.5 -90t45.5 -172q0 -129 -68.5 -202.5t-185.5 -73.5t-186.5 66t-69.5 180h184q0 -24 13 -43t42 -19q60 0 60 92z" />
    <glyph glyph-name="egrave" unicode="&#xe8;" horiz-adv-x="983" 
d="M492 236q-30 0 -46 17t-16 44v338h512v256q0 108 -23.5 191t-74.5 147.5t-139.5 98.5t-212.5 34q-451 0 -451 -471v-451q0 -471 451 -471q124 0 212.5 34t139.5 98.5t74.5 147.5t23.5 191v82h-389v-225q0 -27 -15.5 -44t-45.5 -17zM553 1034v-215h-123v215q0 27 16 44.5
t46 17.5t45.5 -17t15.5 -45zM369 1423l-256 471h399l123 -471h-266z" />
    <glyph glyph-name="eacute" unicode="&#xe9;" horiz-adv-x="983" 
d="M492 236q30 0 45.5 17t15.5 44v225h389v-82q0 -108 -23.5 -191t-74.5 -147.5t-139.5 -98.5t-212.5 -34q-451 0 -451 471v451q0 471 451 471q124 0 212.5 -34t139.5 -98.5t74.5 -147.5t23.5 -191v-256h-512v-338q0 -27 16 -44t46 -17zM553 819v215q0 28 -15.5 45t-45.5 17
t-46 -17.5t-16 -44.5v-215h123zM860 1894l-276 -471h-267l144 471h399z" />
    <glyph glyph-name="ecircumflex" unicode="&#xea;" horiz-adv-x="983" 
d="M492 236q30 0 45.5 17t15.5 44v225h389v-82q0 -108 -23.5 -191t-74.5 -147.5t-139.5 -98.5t-212.5 -34q-451 0 -451 471v451q0 471 451 471q124 0 212.5 -34t139.5 -98.5t74.5 -147.5t23.5 -191v-256h-512v-338q0 -27 16 -44t46 -17zM553 819v215q0 28 -15.5 45t-45.5 17
t-46 -17.5t-16 -44.5v-215h123zM41 1454l307 369h287l307 -369v-41h-328l-112 195h-21l-112 -195h-328v41z" />
    <glyph glyph-name="edieresis" unicode="&#xeb;" horiz-adv-x="983" 
d="M492 236q30 0 45.5 17t15.5 44v225h389v-82q0 -108 -23.5 -191t-74.5 -147.5t-139.5 -98.5t-212.5 -34q-451 0 -451 471v451q0 471 451 471q124 0 212.5 -34t139.5 -98.5t74.5 -147.5t23.5 -191v-256h-512v-338q0 -27 16 -44t46 -17zM553 819v215q0 28 -15.5 45t-45.5 17
t-46 -17.5t-16 -44.5v-215h123zM92 1751h359v-328h-359v328zM532 1751h359v-328h-359v328z" />
    <glyph glyph-name="igrave" unicode="&#xec;" horiz-adv-x="512" 
d="M451 1331h-390v-1331h390v1331zM143 1413l-256 471h400l123 -471h-267z" />
    <glyph glyph-name="iacute" unicode="&#xed;" horiz-adv-x="512" 
d="M61 1331h390v-1331h-390v1331zM635 1884l-277 -471h-266l144 471h399z" />
    <glyph glyph-name="icircumflex" unicode="&#xee;" horiz-adv-x="512" 
d="M61 1331h390v-1331h-390v1331zM-195 1454l308 369h286l308 -369v-41h-328l-113 195h-20l-113 -195h-328v41z" />
    <glyph glyph-name="idieresis" unicode="&#xef;" horiz-adv-x="512" 
d="M61 1331h390v-1331h-390v1331zM-113 1720h328v-307h-328v307zM297 1720h328v-307h-328v307z" />
    <glyph glyph-name="eth" unicode="&#xf0;" horiz-adv-x="983" 
d="M573 1862l144 -82l-72 -123q159 -81 228 -238.5t69 -394.5v-584q0 -108 -23.5 -191t-74.5 -147.5t-139.5 -98.5t-212.5 -34q-451 0 -451 471v441q0 379 328 379q55 0 100 -14t71 -33.5t43.5 -39t24.5 -33.5l6 -14h41q0 84 -29 174.5t-94 157.5l-81 -141l-144 82l86 149
q-76 29 -168 29h-61v164h41q153 0 282 -29zM553 932q0 32 -15.5 52t-45.5 20t-46 -20t-16 -52v-635q0 -27 16 -44t46 -17t45.5 17t15.5 44v635z" />
    <glyph glyph-name="ntilde" unicode="&#xf1;" 
d="M573 0v983q0 32 -15.5 52t-45.5 20t-45.5 -20t-15.5 -52v-983h-390v1331h390v-184q3 9 9 23.5t28.5 51.5t49 65.5t72 51.5t97.5 23q256 0 256 -348v-1014h-390zM696 1792h267v-90q0 -133 -63 -211t-169 -78q-71 0 -139 21t-119.5 42t-81.5 21q-63 0 -63 -74v-10h-267v88
q0 134 62.5 212.5t169.5 78.5q70 0 138 -21t120.5 -42t83.5 -21q61 0 61 74v10z" />
    <glyph glyph-name="ograve" unicode="&#xf2;" horiz-adv-x="983" 
d="M41 891v-451q0 -471 451 -471q124 0 212.5 34t139.5 98.5t74.5 147.5t23.5 191v451q0 108 -23.5 191t-74.5 147.5t-139.5 98.5t-212.5 34q-451 0 -451 -471zM553 1034v-737q0 -27 -15.5 -44t-45.5 -17t-46 17t-16 44v737q0 27 16 44.5t46 17.5t45.5 -17t15.5 -45z
M369 1423l-256 471h399l123 -471h-266z" />
    <glyph glyph-name="oacute" unicode="&#xf3;" horiz-adv-x="983" 
d="M41 440v451q0 471 451 471q124 0 212.5 -34t139.5 -98.5t74.5 -147.5t23.5 -191v-451q0 -108 -23.5 -191t-74.5 -147.5t-139.5 -98.5t-212.5 -34q-451 0 -451 471zM553 297v737q0 28 -15.5 45t-45.5 17t-46 -17.5t-16 -44.5v-737q0 -27 16 -44t46 -17t45.5 17t15.5 44z
M860 1894l-276 -471h-267l144 471h399z" />
    <glyph glyph-name="ocircumflex" unicode="&#xf4;" horiz-adv-x="983" 
d="M41 440v451q0 471 451 471q124 0 212.5 -34t139.5 -98.5t74.5 -147.5t23.5 -191v-451q0 -108 -23.5 -191t-74.5 -147.5t-139.5 -98.5t-212.5 -34q-451 0 -451 471zM553 297v737q0 28 -15.5 45t-45.5 17t-46 -17.5t-16 -44.5v-737q0 -27 16 -44t46 -17t45.5 17t15.5 44z
M41 1454l307 369h287l307 -369v-41h-328l-112 195h-21l-112 -195h-328v41z" />
    <glyph glyph-name="otilde" unicode="&#xf5;" horiz-adv-x="983" 
d="M41 440v451q0 471 451 471q124 0 212.5 -34t139.5 -98.5t74.5 -147.5t23.5 -191v-451q0 -108 -23.5 -191t-74.5 -147.5t-139.5 -98.5t-212.5 -34q-451 0 -451 471zM553 297v737q0 28 -15.5 45t-45.5 17t-46 -17.5t-16 -44.5v-737q0 -27 16 -44t46 -17t45.5 17t15.5 44z
M676 1792h266v-90q0 -133 -62.5 -211t-168.5 -78q-71 0 -139 21t-119.5 42t-81.5 21q-64 0 -64 -74v-10h-266v88q0 134 62 212.5t169 78.5q70 0 138 -21t120.5 -42t83.5 -21q62 0 62 74v10z" />
    <glyph glyph-name="odieresis" unicode="&#xf6;" horiz-adv-x="983" 
d="M41 440v451q0 471 451 471q124 0 212.5 -34t139.5 -98.5t74.5 -147.5t23.5 -191v-451q0 -108 -23.5 -191t-74.5 -147.5t-139.5 -98.5t-212.5 -34q-451 0 -451 471zM553 297v737q0 28 -15.5 45t-45.5 17t-46 -17.5t-16 -44.5v-737q0 -27 16 -44t46 -17t45.5 17t15.5 44z
M92 1751h359v-328h-359v328zM532 1751h359v-328h-359v328z" />
    <glyph glyph-name="divide" unicode="&#xf7;" horiz-adv-x="1085" 
d="M737 655v-368h-389v368h389zM737 1393v-369h-389v369h389zM61 758v164h963v-164h-963z" />
    <glyph glyph-name="oslash" unicode="&#xf8;" horiz-adv-x="983" 
d="M186 55l-32 -55h-154l98 160q-57 106 -57 280v451q0 471 451 471q194 0 303 -86l34 55h154l-100 -160q59 -112 59 -280v-451q0 -108 -23.5 -191t-74.5 -147.5t-139.5 -98.5t-212.5 -34q-193 0 -306 86zM492 236q30 0 45.5 17t15.5 44v344l-123 -197v-147q0 -27 16 -44
t46 -17zM553 887v147q0 28 -15.5 45t-45.5 17t-46 -17.5t-16 -44.5v-344z" />
    <glyph glyph-name="ugrave" unicode="&#xf9;" 
d="M451 348v983h-390v-1014q0 -348 256 -348q52 0 97 22t73 53.5t48.5 63.5t28.5 54l9 22h15l26 -184h349v1331h-390v-983q0 -32 -15.5 -52t-45.5 -20t-45.5 20t-15.5 52zM420 1413l-256 471h399l123 -471h-266z" />
    <glyph glyph-name="uacute" unicode="&#xfa;" 
d="M451 1331v-983q0 -32 15.5 -52t45.5 -20t45.5 20t15.5 52v983h390v-1331h-349l-26 184h-15q-3 -9 -9 -23.5t-28.5 -51.5t-49 -65.5t-72 -51.5t-97.5 -23q-256 0 -256 348v1014h390zM881 1884l-277 -471h-266l143 471h400z" />
    <glyph glyph-name="ucircumflex" unicode="&#xfb;" 
d="M451 1331v-983q0 -32 15.5 -52t45.5 -20t45.5 20t15.5 52v983h390v-1331h-349l-26 184h-15q-3 -9 -9 -23.5t-28.5 -51.5t-49 -65.5t-72 -51.5t-97.5 -23q-256 0 -256 348v1014h390zM61 1454l308 369h286l308 -369v-41h-328l-113 195h-20l-113 -195h-328v41z" />
    <glyph glyph-name="udieresis" unicode="&#xfc;" 
d="M451 1331v-983q0 -32 15.5 -52t45.5 -20t45.5 20t15.5 52v983h390v-1331h-349l-26 184h-15q-3 -9 -9 -23.5t-28.5 -51.5t-49 -65.5t-72 -51.5t-97.5 -23q-256 0 -256 348v1014h390zM113 1741h358v-328h-358v328zM553 1741h358v-328h-358v328z" />
    <glyph glyph-name="yacute" unicode="&#xfd;" horiz-adv-x="1054" 
d="M553 410l72 921h409l-164 -1085q-18 -120 -36 -201.5t-43.5 -149.5t-56.5 -108t-77 -67.5t-102 -37.5t-135 -10h-359v328h215l-256 1331h410l102 -921h21zM922 1884l-277 -471h-266l143 471h400z" />
    <glyph glyph-name="thorn" unicode="&#xfe;" horiz-adv-x="1003" 
d="M61 -307v1945h390v-460q5 12 11 26t27 45t46.5 53.5t68.5 41t92 18.5q124 0 195.5 -83t71.5 -265v-625q0 -119 -21 -203.5t-60.5 -130.5t-87 -66t-108.5 -20q-48 0 -89.5 15.5t-66.5 36t-44.5 45t-26 37.5t-8.5 18v-428h-390zM573 287v737q0 32 -15.5 52t-45.5 20
t-45.5 -20t-15.5 -52v-737q0 -32 15.5 -52t45.5 -20t45.5 20t15.5 52z" />
    <glyph glyph-name="ydieresis" unicode="&#xff;" horiz-adv-x="1054" 
d="M553 410l72 921h409l-164 -1085q-18 -120 -36 -201.5t-43.5 -149.5t-56.5 -108t-77 -67.5t-102 -37.5t-135 -10h-359v328h215l-256 1331h410l102 -921h21zM143 1741h359v-328h-359v328zM584 1741h358v-328h-358v328z" />
    <glyph glyph-name="Amacron" unicode="&#x100;" horiz-adv-x="1138" 
d="M713 0l-27 266h-233l-27 -266h-406l158 1065q79 527 101 573h581q21 -42 101 -573l157 -1065h-405zM549 1249l-64 -635h166l-61 635h-41zM123 1720v164h893v-164h-893z" />
    <glyph glyph-name="amacron" unicode="&#x101;" horiz-adv-x="1019" 
d="M590 143h-21q-2 -7 -6 -18t-22.5 -39t-42 -49.5t-66 -39t-94.5 -17.5q-135 0 -218 93t-83 265q0 61 14 114.5t35.5 92.5t56.5 74.5t67.5 58.5t79.5 47t80.5 38t82.5 34t75 32l41 19v186q0 28 -15.5 45t-45.5 17t-46 -17.5t-16 -44.5v-153h-389v71q0 195 115.5 302.5
t335.5 107.5q215 0 332.5 -102t117.5 -287v-973h-348zM569 399v267l-51 -41q-46 -36 -69 -85.5t-23 -129.5q0 -134 78 -134q28 0 43 19.5t18.5 43t3.5 60.5zM119 1423v164h778v-164h-778z" />
    <glyph glyph-name="Abreve" unicode="&#x102;" horiz-adv-x="1138" 
d="M713 0l-27 266h-233l-27 -266h-406l158 1065q79 527 101 573h581q21 -42 101 -573l157 -1065h-405zM549 1249l-64 -635h166l-61 635h-41zM754 2089h143v-41q0 -154 -79 -241t-249 -87q-327 0 -327 328v41h143q0 -19 6.5 -35.5t23.5 -35.5t56.5 -30.5t97.5 -11.5
t97.5 11.5t57 30.5t24 35.5t6.5 35.5z" />
    <glyph glyph-name="abreve" unicode="&#x103;" horiz-adv-x="1019" 
d="M590 143h-21q-2 -7 -6 -18t-22.5 -39t-42 -49.5t-66 -39t-94.5 -17.5q-135 0 -218 93t-83 265q0 61 14 114.5t35.5 92.5t56.5 74.5t67.5 58.5t79.5 47t80.5 38t82.5 34t75 32l41 19v186q0 28 -15.5 45t-45.5 17t-46 -17.5t-16 -44.5v-153h-389v71q0 195 115.5 302.5
t335.5 107.5q238 0 344 -98.5t106 -290.5v-973h-348zM569 399v267l-51 -41q-46 -36 -69 -85.5t-23 -129.5q0 -134 78 -134q28 0 43 19.5t18.5 43t3.5 60.5zM692 1792h144v-41q0 -154 -79 -241t-249 -87q-328 0 -328 328v41h144q0 -19 6.5 -35.5t23.5 -35.5t56.5 -30.5
t97.5 -11.5t97.5 11.5t56.5 30.5t23.5 35.5t6.5 35.5z" />
    <glyph glyph-name="Aogonek" unicode="&#x104;" horiz-adv-x="1138" 
d="M1118 0h-162q-5 -3 -11 -6.5t-22 -17.5t-27 -30.5t-20.5 -46t-9.5 -63.5q0 -82 52 -82q51 0 51 82v41h205v-61q0 -116 -67 -181t-189 -65q-119 0 -193 61.5t-74 173.5q0 125 64 189l-29 272h-233l-27 -266h-406l158 1065q79 527 101 573h581q21 -42 101 -573zM549 1249
l-64 -635h166l-61 635h-41z" />
    <glyph glyph-name="aogonek" unicode="&#x105;" horiz-adv-x="1019" 
d="M590 143h-21q-2 -7 -6 -18t-22.5 -39t-42 -49.5t-66 -39t-94.5 -17.5q-135 0 -218 93t-83 265q0 61 14 114.5t35.5 92.5t56.5 74.5t67.5 58.5t79.5 47t80.5 38t82.5 34t75 32l41 19v186q0 28 -15.5 45t-45.5 17t-46 -17.5t-16 -44.5v-153h-389v71q0 195 115.5 302.5
t335.5 107.5q238 0 344 -98.5t106 -290.5v-973h-153q-4 -2 -10 -5.5t-22 -17t-28 -30.5t-22 -47t-10 -64q0 -82 51 -82t51 82v41h205v-61q0 -116 -67 -181t-189 -65q-119 0 -192.5 61.5t-73.5 173.5q0 25 3.5 48.5t9 42.5t13 35.5t16 30t16.5 24t16 18.5t13.5 13t10.5 9l4 3
zM569 399v267l-51 -41q-46 -36 -69 -85.5t-23 -129.5q0 -134 78 -134q28 0 43 19.5t18.5 43t3.5 60.5z" />
    <glyph glyph-name="Cacute" unicode="&#x106;" 
d="M41 481v676q0 512 471 512t471 -512v-174h-410v266q0 82 -61 82t-61 -82v-860q0 -82 61 -82t61 82v307h410v-215q0 -512 -471 -512t-471 512zM870 2202l-276 -471h-266l143 471h399z" />
    <glyph glyph-name="cacute" unicode="&#x107;" horiz-adv-x="983" 
d="M553 799v235q0 28 -15.5 45t-45.5 17t-46 -17.5t-16 -44.5v-737q0 -27 16 -44t46 -17t45.5 17t15.5 44v287h389v-144q0 -108 -23.5 -191t-74.5 -147.5t-139.5 -98.5t-212.5 -34q-451 0 -451 471v451q0 471 451 471q124 0 212.5 -34t139.5 -98.5t74.5 -147.5t23.5 -191
v-92h-389zM860 1894l-276 -471h-267l144 471h399z" />
    <glyph glyph-name="Ccircumflex" unicode="&#x108;" 
d="M41 481v676q0 512 471 512t471 -512v-174h-410v266q0 82 -61 82t-61 -82v-860q0 -82 61 -82t61 82v307h410v-215q0 -512 -471 -512t-471 512zM41 1761l317 389h308l317 -389v-41h-328l-133 205h-20l-133 -205h-328v41z" />
    <glyph glyph-name="ccircumflex" unicode="&#x109;" horiz-adv-x="983" 
d="M553 799v235q0 28 -15.5 45t-45.5 17t-46 -17.5t-16 -44.5v-737q0 -27 16 -44t46 -17t45.5 17t15.5 44v287h389v-144q0 -108 -23.5 -191t-74.5 -147.5t-139.5 -98.5t-212.5 -34q-451 0 -451 471v451q0 471 451 471q124 0 212.5 -34t139.5 -98.5t74.5 -147.5t23.5 -191
v-92h-389zM41 1454l307 369h287l307 -369v-41h-328l-112 195h-21l-112 -195h-328v41z" />
    <glyph glyph-name="Cdotaccent" unicode="&#x10a;" 
d="M41 481v676q0 512 471 512t471 -512v-174h-410v266q0 82 -61 82t-61 -82v-860q0 -82 61 -82t61 82v307h410v-215q0 -512 -471 -512t-471 512zM686 2028v-308h-348v308h348z" />
    <glyph glyph-name="cdotaccent" unicode="&#x10b;" horiz-adv-x="983" 
d="M553 799v235q0 28 -15.5 45t-45.5 17t-46 -17.5t-16 -44.5v-737q0 -27 16 -44t46 -17t45.5 17t15.5 44v287h389v-144q0 -108 -23.5 -191t-74.5 -147.5t-139.5 -98.5t-212.5 -34q-451 0 -451 471v451q0 471 451 471q124 0 212.5 -34t139.5 -98.5t74.5 -147.5t23.5 -191
v-92h-389zM313 1751h359v-328h-359v328z" />
    <glyph glyph-name="Ccaron" unicode="&#x10c;" 
d="M41 481v676q0 512 471 512t471 -512v-174h-410v266q0 82 -61 82t-61 -82v-860q0 -82 61 -82t61 82v307h410v-215q0 -512 -471 -512t-471 512zM983 2099l-317 -368h-308l-317 368v41h328l133 -184h20l133 184h328v-41z" />
    <glyph glyph-name="ccaron" unicode="&#x10d;" horiz-adv-x="983" 
d="M553 799v235q0 28 -15.5 45t-45.5 17t-46 -17.5t-16 -44.5v-737q0 -27 16 -44t46 -17t45.5 17t15.5 44v287h389v-144q0 -108 -23.5 -191t-74.5 -147.5t-139.5 -98.5t-212.5 -34q-451 0 -451 471v451q0 471 451 471q124 0 212.5 -34t139.5 -98.5t74.5 -147.5t23.5 -191
v-92h-389zM942 1792l-307 -369h-287l-307 369v41h328l112 -195h21l112 195h328v-41z" />
    <glyph glyph-name="Dcaron" unicode="&#x10e;" horiz-adv-x="1034" 
d="M61 0v1638h461q96 0 167.5 -13.5t130.5 -47t96 -89.5t57 -140.5t20 -200.5v-655q0 -116 -20 -200.5t-57 -140.5t-96 -89.5t-130.5 -47.5t-167.5 -14h-461zM584 461v717q0 90 -25 121.5t-88 31.5h-20v-1024h20q63 0 88 32t25 122zM952 2089l-317 -369h-307l-318 369v41
h328l133 -184h21l133 184h327v-41z" />
    <glyph glyph-name="dcaron" unicode="&#x10f;" horiz-adv-x="1454" 
d="M942 1638v-1638h-348l-31 133q-2 -7 -6 -18t-22 -39t-42.5 -50t-69 -39.5t-99.5 -17.5q-127 0 -205 87.5t-78 281.5v604q0 119 21 203t61.5 130.5t90 66.5t114.5 20q46 0 86 -12.5t64.5 -31t42 -36.5t25.5 -30l7 -13v399h389zM430 1075v-788q0 -32 16 -52t46 -20t45.5 20
t15.5 52v788q0 32 -15.5 52t-45.5 20t-46 -20t-16 -52zM1413 1638v-348q0 -193 -69.5 -275.5t-237.5 -82.5h-82v205q98 0 131 19.5t33 92.5v21h-164v368h389z" />
    <glyph glyph-name="Dcroat" unicode="&#x110;" horiz-adv-x="1136" 
d="M0 737v164h164v737h461q96 0 167.5 -13.5t130.5 -47t96 -89.5t57 -140.5t20 -200.5v-655q0 -116 -20 -200.5t-57 -140.5t-96 -89.5t-130.5 -47.5t-167.5 -14h-461v737h-164zM686 461v717q0 90 -25 121.5t-88 31.5h-20v-430h92v-164h-92v-430h20q63 0 88 32t25 122z" />
    <glyph glyph-name="dcroat" unicode="&#x111;" horiz-adv-x="1003" 
d="M942 1393v-1393h-348l-31 133q-2 -7 -6 -18t-22 -39t-42.5 -50t-69 -39.5t-99.5 -17.5q-127 0 -205 87.5t-78 281.5v563q0 119 21 203t61.5 130.5t90 66.5t114.5 20q53 0 96.5 -15.5t70 -40t38.5 -39t19 -26.5l1 -2v195h-174v184h174v195h389v-195h164v-184h-164z
M430 1034v-747q0 -32 16 -52t46 -20t45.5 20t15.5 52v747q0 32 -15.5 52t-45.5 20t-46 -20t-16 -52z" />
    <glyph glyph-name="Emacron" unicode="&#x112;" horiz-adv-x="880" 
d="M778 655v369h-307v246h369v368h-779v-1638h779v369h-369v286h307zM61 1720v164h779v-164h-779z" />
    <glyph glyph-name="emacron" unicode="&#x113;" horiz-adv-x="983" 
d="M492 236q-30 0 -46 17t-16 44v338h512v256q0 108 -23.5 191t-74.5 147.5t-139.5 98.5t-212.5 34q-451 0 -451 -471v-451q0 -471 451 -471q124 0 212.5 34t139.5 98.5t74.5 147.5t23.5 191v82h-389v-225q0 -27 -15.5 -44t-45.5 -17zM553 1034v-215h-123v215q0 27 16 44.5
t46 17.5t45.5 -17t15.5 -45zM102 1423v164h779v-164h-779z" />
    <glyph glyph-name="Edotaccent" unicode="&#x116;" horiz-adv-x="880" 
d="M778 1024v-369h-307v-286h369v-369h-779v1638h779v-368h-369v-246h307zM635 2028v-308h-348v308h348z" />
    <glyph glyph-name="edotaccent" unicode="&#x117;" horiz-adv-x="983" 
d="M492 236q30 0 45.5 17t15.5 44v225h389v-82q0 -108 -23.5 -191t-74.5 -147.5t-139.5 -98.5t-212.5 -34q-451 0 -451 471v451q0 471 451 471q124 0 212.5 -34t139.5 -98.5t74.5 -147.5t23.5 -191v-256h-512v-338q0 -27 16 -44t46 -17zM553 819v215q0 28 -15.5 45t-45.5 17
t-46 -17.5t-16 -44.5v-215h123zM313 1751h359v-328h-359v328z" />
    <glyph glyph-name="Eogonek" unicode="&#x118;" horiz-adv-x="880" 
d="M471 369h369v-369h-328q-4 -2 -10 -5.5t-22 -17t-28 -30.5t-22 -47t-10 -64q0 -82 51 -82t51 82v41h205v-61q0 -116 -67 -181t-189 -65q-119 0 -192.5 61.5t-73.5 173.5q0 126 69 195h-213v1638h779v-368h-369v-246h307v-369h-307v-286z" />
    <glyph glyph-name="eogonek" unicode="&#x119;" horiz-adv-x="983" 
d="M492 236q30 0 45.5 17t15.5 44v225h389v-82q0 -106 -22.5 -188t-71.5 -146t-134 -99t-204 -38q-49 -49 -49 -133q0 -82 51 -82t51 82v41h205v-61q0 -116 -67 -181t-189 -65q-119 0 -192.5 61.5t-73.5 173.5q0 54 13.5 98.5t25.5 62.5t24 28q-268 80 -268 446v451
q0 471 451 471q124 0 212.5 -34t139.5 -98.5t74.5 -147.5t23.5 -191v-256h-512v-338q0 -27 16 -44t46 -17zM553 819v215q0 28 -15.5 45t-45.5 17t-46 -17.5t-16 -44.5v-215h123z" />
    <glyph glyph-name="Ecaron" unicode="&#x11a;" horiz-adv-x="880" 
d="M778 1024v-369h-307v-286h369v-369h-779v1638h779v-368h-369v-246h307zM911 2089l-317 -369h-307l-318 369v41h328l133 -184h21l133 184h327v-41z" />
    <glyph glyph-name="ecaron" unicode="&#x11b;" horiz-adv-x="983" 
d="M492 236q30 0 45.5 17t15.5 44v225h389v-82q0 -108 -23.5 -191t-74.5 -147.5t-139.5 -98.5t-212.5 -34q-451 0 -451 471v451q0 471 451 471q124 0 212.5 -34t139.5 -98.5t74.5 -147.5t23.5 -191v-256h-512v-338q0 -27 16 -44t46 -17zM553 819v215q0 28 -15.5 45t-45.5 17
t-46 -17.5t-16 -44.5v-215h123zM942 1792l-307 -369h-287l-307 369v41h328l112 -195h21l112 195h328v-41z" />
    <glyph glyph-name="Gcircumflex" unicode="&#x11c;" horiz-adv-x="1034" 
d="M41 481v676q0 512 471 512t471 -512v-133h-410v225q0 82 -61 82t-61 -82v-833q0 -109 77 -109q49 0 67.5 58t18.5 208v82h-112v246h481v-901h-235l30 410h-41q2 -9 4 -25t2 -62t-5.5 -87.5t-26 -92.5t-53.5 -87.5t-93 -61.5t-139 -25q-385 0 -385 512zM41 1761l317 389
h308l317 -389v-41h-328l-133 205h-20l-133 -205h-328v41z" />
    <glyph glyph-name="gcircumflex" unicode="&#x11d;" horiz-adv-x="1003" 
d="M430 0v-72q0 -27 16 -44t46 -17t45.5 17t15.5 44v283q-4 -12 -9 -25t-23 -39.5t-41 -45.5t-64.5 -34.5t-91.5 -15.5q-127 0 -205 87.5t-78 281.5v522q0 119 21 203.5t60 130.5t86.5 66t108.5 20q46 0 86 -15.5t64 -34.5t45 -47t27.5 -39.5t12.5 -25.5l1 -2v133h389v-1208
q0 -124 -20 -206.5t-70.5 -142t-138 -86t-221.5 -26.5q-244 0 -347.5 84.5t-103.5 253.5h389zM51 1454l307 369h287l307 -369v-41h-327l-113 195h-20l-113 -195h-328v41zM430 1044v-675q0 -32 16 -52t46 -20t45.5 20t15.5 52v675q0 32 -15.5 52t-45.5 20t-46 -20t-16 -52z
" />
    <glyph glyph-name="Gbreve" unicode="&#x11e;" horiz-adv-x="1034" 
d="M41 481v676q0 512 471 512t471 -512v-133h-410v225q0 82 -61 82t-61 -82v-833q0 -109 77 -109q49 0 67.5 58t18.5 208v82h-112v246h481v-901h-235l30 410h-41q2 -9 4 -25t2 -62t-5.5 -87.5t-26 -92.5t-53.5 -87.5t-93 -61.5t-139 -25q-385 0 -385 512zM696 2099h144v-41
q0 -154 -79 -240.5t-249 -86.5q-328 0 -328 327v41h144q0 -112 184 -112t184 112z" />
    <glyph glyph-name="gbreve" unicode="&#x11f;" horiz-adv-x="1003" 
d="M430 0v-72q0 -27 16 -44t46 -17t45.5 17t15.5 44v283q-4 -12 -9 -25t-23 -39.5t-41 -45.5t-64.5 -34.5t-91.5 -15.5q-127 0 -205 87.5t-78 281.5v522q0 119 21 203.5t60 130.5t86.5 66t108.5 20q46 0 86 -15.5t64 -34.5t45 -47t27.5 -39.5t12.5 -25.5l1 -2v133h389v-1208
q0 -124 -20 -206.5t-70.5 -142t-138 -86t-221.5 -26.5q-244 0 -347.5 84.5t-103.5 253.5h389zM686 1782h143v-41q0 -154 -78.5 -241t-248.5 -87q-328 0 -328 328v41h143q0 -19 6.5 -35.5t24 -35.5t57 -30.5t97.5 -11.5t97.5 11.5t56.5 30.5t23.5 35.5t6.5 35.5zM430 1044
v-675q0 -32 16 -52t46 -20t45.5 20t15.5 52v675q0 32 -15.5 52t-45.5 20t-46 -20t-16 -52z" />
    <glyph glyph-name="Gdotaccent" unicode="&#x120;" horiz-adv-x="1034" 
d="M41 481v676q0 512 471 512t471 -512v-133h-410v225q0 82 -61 82t-61 -82v-833q0 -109 77 -109q49 0 67.5 58t18.5 208v82h-112v246h481v-901h-235l30 410h-41q2 -9 4 -25t2 -62t-5.5 -87.5t-26 -92.5t-53.5 -87.5t-93 -61.5t-139 -25q-385 0 -385 512zM686 2028v-308
h-348v308h348z" />
    <glyph glyph-name="gdotaccent" unicode="&#x121;" horiz-adv-x="1003" 
d="M430 0v-72q0 -27 16 -44t46 -17t45.5 17t15.5 44v283q-4 -12 -9 -25t-23 -39.5t-41 -45.5t-64.5 -34.5t-91.5 -15.5q-127 0 -205 87.5t-78 281.5v522q0 119 21 203.5t60 130.5t86.5 66t108.5 20q46 0 86 -15.5t64 -34.5t45 -47t27.5 -39.5t12.5 -25.5l1 -2v133h389v-1208
q0 -124 -20 -206.5t-70.5 -142t-138 -86t-221.5 -26.5q-244 0 -347.5 84.5t-103.5 253.5h389zM313 1751h359v-328h-359v328zM430 1044v-675q0 -32 16 -52t46 -20t45.5 20t15.5 52v675q0 32 -15.5 52t-45.5 20t-46 -20t-16 -52z" />
    <glyph glyph-name="Gcommaaccent" unicode="&#x122;" horiz-adv-x="1034" 
d="M41 481v676q0 512 471 512t471 -512v-133h-410v225q0 82 -61 82t-61 -82v-833q0 -109 77 -109q49 0 67.5 58t18.5 208v82h-112v246h481v-901h-235l30 410h-41q2 -9 4 -25t2 -62t-5.5 -87.5t-26 -92.5t-53.5 -87.5t-93 -61.5t-139 -25q-385 0 -385 512zM727 -430v348h-389
v-369h164v-20q0 -73 -33 -93t-131 -20v-204h82q168 0 237.5 82.5t69.5 275.5z" />
    <glyph glyph-name="gcommaaccent" unicode="&#x123;" horiz-adv-x="1003" 
d="M430 0v-72q0 -27 16 -44t46 -17t45.5 17t15.5 44v283q-4 -12 -9 -25t-23 -39.5t-41 -45.5t-64.5 -34.5t-91.5 -15.5q-127 0 -205 87.5t-78 281.5v522q0 119 21 203.5t60 130.5t86.5 66t108.5 20q46 0 86 -15.5t64 -34.5t45 -47t27.5 -39.5t12.5 -25.5l1 -2v133h389v-1208
q0 -124 -20 -206.5t-70.5 -142t-138 -86t-221.5 -26.5q-244 0 -347.5 84.5t-103.5 253.5h389zM328 1423v349q0 193 69.5 275.5t237.5 82.5h82v-205q-98 0 -131 -20t-33 -93v-20h164v-369h-389zM430 1044v-675q0 -32 16 -52t46 -20t45.5 20t15.5 52v675q0 32 -15.5 52
t-45.5 20t-46 -20t-16 -52z" />
    <glyph glyph-name="Hcircumflex" unicode="&#x124;" horiz-adv-x="1064" 
d="M594 1638h410v-1638h-410v655h-123v-655h-410v1638h410v-614h123v614zM61 1761l318 389h307l318 -389v-41h-328l-133 205h-21l-133 -205h-328v41z" />
    <glyph glyph-name="hcircumflex" unicode="&#x125;" 
d="M573 0v983q0 32 -15.5 52t-45.5 20t-45.5 -20t-15.5 -52v-983h-390v1638h390v-491q3 9 9 23.5t28.5 51.5t49 65.5t72 51.5t97.5 23q256 0 256 -348v-1014h-390zM31 1761l317 389h307l318 -389v-41h-328l-133 205h-20l-134 -205h-327v41z" />
    <glyph glyph-name="Hbar" unicode="&#x126;" horiz-adv-x="1269" 
d="M0 1167v164h164v307h409v-307h123v307h410v-307h164v-164h-164v-1167h-410v655h-123v-655h-409v1167h-164zM573 1024h123v143h-123v-143z" />
    <glyph glyph-name="hbar" unicode="&#x127;" 
d="M573 0v952q0 32 -15.5 52t-45.5 20t-45.5 -20t-15.5 -52v-952h-390v1393h-163v184h174v195h379v-195h194v-184h-194v-277q3 9 9 23.5t28.5 51.5t49 65.5t72 51.5t97.5 23q256 0 256 -348v-983h-390z" />
    <glyph glyph-name="Itilde" unicode="&#x128;" horiz-adv-x="532" 
d="M471 1638v-1638h-410v1638h410zM467 2099h270v-100q0 -130 -71.5 -204.5t-180.5 -74.5q-66 0 -138.5 21t-130 42t-87.5 21q-35 0 -49 -18.5t-14 -54.5v-11h-271v99q0 130 71 205t181 75q65 0 138 -21t131.5 -42t89.5 -21q34 0 47.5 19t13.5 55v10z" />
    <glyph glyph-name="itilde" unicode="&#x129;" horiz-adv-x="512" 
d="M61 1331h390v-1331h-390v1331zM440 1792h267v-90q0 -133 -63 -211t-169 -78q-71 0 -139 21t-119.5 42t-81.5 21q-63 0 -63 -74v-10h-267v88q0 134 62.5 212.5t169.5 78.5q70 0 138 -21t120.5 -42t83.5 -21q61 0 61 74v10z" />
    <glyph glyph-name="imacron" unicode="&#x12b;" horiz-adv-x="512" 
d="M451 1331h-390v-1331h390v1331zM-102 1423v164h716v-164h-716z" />
    <glyph glyph-name="Iogonek" unicode="&#x12e;" horiz-adv-x="532" 
d="M471 0h-174q-3 -2 -8.5 -5.5t-20 -17t-25 -30.5t-19.5 -47t-9 -64q0 -82 51 -82t51 82v41h205v-61q0 -116 -67 -181t-189 -65q-119 0 -192.5 61.5t-73.5 173.5q0 40 6.5 75t15 56t17.5 36.5t15 21.5l7 6v1638h410v-1638z" />
    <glyph glyph-name="iogonek" unicode="&#x12f;" horiz-adv-x="512" 
d="M61 1249h390v-1249h-156q-6 -3 -13 -7.5t-22 -18.5t-26 -31t-20 -45.5t-9 -61.5q0 -82 51 -82t51 82v41h205v-61q0 -116 -67 -181t-189 -65q-119 0 -192.5 61.5t-73.5 173.5q0 40 7.5 75t17.5 56t20.5 36.5t18.5 21.5l7 6v1249zM61 1638h390v-307h-390v307z" />
    <glyph glyph-name="Idotaccent" unicode="&#x130;" horiz-adv-x="532" 
d="M471 1638v-1638h-410v1638h410zM471 2028v-308h-410v308h410z" />
    <glyph glyph-name="dotlessi" unicode="&#x131;" horiz-adv-x="512" 
d="M61 1331h390v-1331h-390v1331z" />
    <glyph glyph-name="Jcircumflex" unicode="&#x134;" horiz-adv-x="716" 
d="M655 1638v-1095q0 -113 -7 -191.5t-25.5 -145t-48.5 -107t-78.5 -68.5t-114 -39.5t-156.5 -11.5q-55 0 -106 5t-75 10l-24 5v338h93q64 0 98.5 33t34.5 131v1136h409zM-31 1761l318 389h307l317 -389v-41h-327l-133 205h-21l-133 -205h-328v41z" />
    <glyph glyph-name="jcircumflex" unicode="&#x135;" horiz-adv-x="512" 
d="M61 0v1331h390v-1270q0 -84 -6.5 -144t-25.5 -117t-52.5 -92t-89.5 -56t-134 -21h-245v308h102q30 0 45.5 17t15.5 44zM-195 1454l308 369h286l308 -369v-41h-328l-113 195h-20l-113 -195h-328v41z" />
    <glyph glyph-name="Kcommaaccent" unicode="&#x136;" horiz-adv-x="1075" 
d="M61 1638h410v-624h21q60 0 81 49t21 176v61q0 89 4.5 156.5t11 100t13.5 53t11 24.5l5 4h399v-41q-2 -1 -5 -4t-10.5 -21.5t-13.5 -47t-11 -88t-5 -136.5v-71q0 -97 -18 -171t-43.5 -110t-51 -57.5t-43.5 -26.5l-18 -4h-20v-20h20q4 0 10.5 -1t26 -8.5t37 -19.5t38.5 -37
t36.5 -58t26 -86t10.5 -118v-174q0 -77 5.5 -136t13 -88t14.5 -47t13 -22l5 -4v-41h-410q-2 1 -5.5 4t-12.5 24t-15.5 53.5t-12 100t-5.5 156.5v164q0 86 -17.5 125t-74.5 39h-31v-666h-410v1638zM748 -430v348h-390v-369h164v-20q0 -73 -33 -93t-131 -20v-204h82
q168 0 238 82.5t70 275.5z" />
    <glyph glyph-name="kcommaaccent" unicode="&#x137;" horiz-adv-x="1003" 
d="M61 1638h390v-809q22 0 38 6.5t31.5 25.5t24 60t8.5 103q0 80 4 141.5t10.5 91.5t12.5 48t10 22l4 4h389v-41q-5 -4 -11.5 -15t-18 -73t-11.5 -158q0 -67 -9.5 -121.5t-25 -89t-34 -60t-37 -37.5t-34 -19.5t-24.5 -8.5l-10 -1h-20v-21h20q7 0 19 -1.5t42 -15.5t52.5 -38
t41.5 -76.5t19 -124.5v-92q0 -77 4 -136t10 -88t12.5 -47t10.5 -22l4 -4v-41h-389q-41 22 -41 338v82q0 27 -0.5 39t-4.5 27.5t-12.5 21t-24.5 10t-40 4.5h-20v-522h-390v1638zM717 -430v348h-389v-369h164v-20q0 -73 -33 -93t-131 -20v-204h82q168 0 237.5 82.5t69.5 275.5
z" />
    <glyph glyph-name="kgreenlandic" unicode="&#x138;" horiz-adv-x="1003" 
d="M61 1331h390v-502q44 0 68 41t24 154q0 80 4 141.5t10.5 91.5t12.5 48t10 22l4 4h389v-41q-5 -4 -11.5 -15t-18 -73t-11.5 -158q0 -67 -9 -121.5t-23.5 -89t-32 -60t-35 -37.5t-32 -19.5t-23.5 -8.5l-9 -1h-20v-21h20q7 0 19 -1.5t42 -15.5t52.5 -38t41.5 -76.5
t19 -124.5v-92q0 -77 4 -136t10 -88t12.5 -47t10.5 -22l4 -4v-41h-389q-41 22 -41 338v82q0 27 -0.5 39t-4.5 27.5t-12.5 21t-24.5 10t-40 4.5h-20v-522h-390v1331z" />
    <glyph glyph-name="Lacute" unicode="&#x139;" horiz-adv-x="880" 
d="M860 0h-799v1638h410v-1269h389v-369zM666 2191l-277 -471h-266l143 471h400z" />
    <glyph glyph-name="lacute" unicode="&#x13a;" horiz-adv-x="512" 
d="M61 1638h390v-1638h-390v1638zM666 2202l-277 -471h-266l143 471h400z" />
    <glyph glyph-name="Lcommaaccent" unicode="&#x13b;" horiz-adv-x="880" 
d="M860 0h-799v1638h410v-1269h389v-369zM655 -430v348h-389v-369h164v-20q0 -73 -33 -93t-131 -20v-204h82q168 0 237.5 82.5t69.5 275.5z" />
    <glyph glyph-name="lcommaaccent" unicode="&#x13c;" horiz-adv-x="512" 
d="M61 1638h390v-1638h-390v1638zM451 -82v-348q0 -193 -70 -275.5t-238 -82.5h-82v204q98 0 131 20t33 93v20h-164v369h390z" />
    <glyph glyph-name="Lcaron" unicode="&#x13d;" horiz-adv-x="880" 
d="M860 0h-799v1638h410v-1269h389v-369zM748 2089l-318 -369h-307l-318 369v41h328l133 -184h21l133 184h328v-41z" />
    <glyph glyph-name="lcaron" unicode="&#x13e;" horiz-adv-x="962" 
d="M61 1638h390v-1638h-390v1638zM922 1638v-348q0 -193 -70 -275.5t-238 -82.5h-82v205q98 0 131 19.5t33 92.5v21h-164v368h390z" />
    <glyph glyph-name="Lslash" unicode="&#x141;" horiz-adv-x="1064" 
d="M866 1096l56 -156l-267 -98v-473h389v-369h-798v694l-191 -69l-55 155l246 88v770h409v-620z" />
    <glyph glyph-name="lslash" unicode="&#x142;" horiz-adv-x="921" 
d="M866 1096l56 -156l-267 -98v-842h-389v700l-211 -75l-55 155l266 97v761h389v-620z" />
    <glyph glyph-name="Nacute" unicode="&#x143;" horiz-adv-x="1064" 
d="M61 1638h359l235 -747l-30 747h379v-1638h-359l-235 748l30 -748h-379v1638zM911 2191l-276 -471h-266l143 471h399z" />
    <glyph glyph-name="nacute" unicode="&#x144;" 
d="M573 0v983q0 32 -15.5 52t-45.5 20t-45.5 -20t-15.5 -52v-983h-390v1331h390v-184q3 9 9 23.5t28.5 51.5t49 65.5t72 51.5t97.5 23q256 0 256 -348v-1014h-390zM870 1884l-276 -471h-266l143 471h399z" />
    <glyph glyph-name="Ncommaaccent" unicode="&#x145;" horiz-adv-x="1064" 
d="M61 1638h359l235 -747l-30 747h379v-1638h-359l-235 748l30 -748h-379v1638zM727 -430v348h-389v-369h164v-20q0 -73 -33 -93t-131 -20v-204h82q168 0 237.5 82.5t69.5 275.5z" />
    <glyph glyph-name="ncommaaccent" unicode="&#x146;" 
d="M573 0v983q0 32 -15.5 52t-45.5 20t-45.5 -20t-15.5 -52v-983h-390v1331h390v-184q3 9 9 23.5t28.5 51.5t49 65.5t72 51.5t97.5 23q256 0 256 -348v-1014h-390zM727 -82v-348q0 -193 -69.5 -275.5t-237.5 -82.5h-82v204q98 0 131 20t33 93v20h-164v369h389z" />
    <glyph glyph-name="Ncaron" unicode="&#x147;" horiz-adv-x="1064" 
d="M61 1638h359l235 -747l-30 747h379v-1638h-359l-235 748l30 -748h-379v1638zM1014 2089l-318 -369h-307l-317 369v41h327l133 -184h21l133 184h328v-41z" />
    <glyph glyph-name="ncaron" unicode="&#x148;" 
d="M573 0v983q0 32 -15.5 52t-45.5 20t-45.5 -20t-15.5 -52v-983h-390v1331h390v-184q3 9 9 23.5t28.5 51.5t49 65.5t72 51.5t97.5 23q256 0 256 -348v-1014h-390zM942 1782l-307 -369h-287l-307 369v41h328l112 -195h21l112 195h328v-41z" />
    <glyph glyph-name="Eng" unicode="&#x14a;" horiz-adv-x="1064" 
d="M614 0v96l-204 652l30 -748h-379v1638h359l235 -747l-30 747h379v-1577q0 -84 -6.5 -144t-25.5 -117t-52.5 -92t-89.5 -56t-134 -21h-245v308h102q30 0 45.5 17t15.5 44z" />
    <glyph glyph-name="eng" unicode="&#x14b;" 
d="M573 0v983q0 32 -15.5 52t-45.5 20t-45.5 -20t-15.5 -52v-983h-390v1331h390v-184q3 9 9 23.5t28.5 51.5t49 65.5t72 51.5t97.5 23q256 0 256 -348v-953q0 -84 -6.5 -144t-25.5 -117t-52.5 -92t-89.5 -56t-134 -21h-245v308h102q30 0 45.5 17t15.5 44z" />
    <glyph glyph-name="Omacron" unicode="&#x14c;" 
d="M512 307q61 0 61 82v860q0 82 -61 82t-61 -82v-860q0 -82 61 -82zM41 481v676q0 512 471 512t471 -512v-676q0 -512 -471 -512t-471 512zM102 1731v163h820v-163h-820z" />
    <glyph glyph-name="omacron" unicode="&#x14d;" horiz-adv-x="983" 
d="M41 891v-451q0 -471 451 -471q124 0 212.5 34t139.5 98.5t74.5 147.5t23.5 191v451q0 108 -23.5 191t-74.5 147.5t-139.5 98.5t-212.5 34q-451 0 -451 -471zM553 1034v-737q0 -27 -15.5 -44t-45.5 -17t-46 17t-16 44v737q0 27 16 44.5t46 17.5t45.5 -17t15.5 -45z
M102 1423v164h779v-164h-779z" />
    <glyph glyph-name="Ohungarumlaut" unicode="&#x150;" 
d="M512 307q61 0 61 82v860q0 82 -61 82t-61 -82v-860q0 -82 61 -82zM41 481v676q0 512 471 512t471 -512v-676q0 -512 -471 -512t-471 512zM666 2202l-277 -471h-225l143 471h359zM1075 2202l-276 -471h-226l144 471h358z" />
    <glyph glyph-name="ohungarumlaut" unicode="&#x151;" horiz-adv-x="983" 
d="M41 440v451q0 471 451 471q124 0 212.5 -34t139.5 -98.5t74.5 -147.5t23.5 -191v-451q0 -108 -23.5 -191t-74.5 -147.5t-139.5 -98.5t-212.5 -34q-451 0 -451 471zM553 297v737q0 28 -15.5 45t-45.5 17t-46 -17.5t-16 -44.5v-737q0 -27 16 -44t46 -17t45.5 17t15.5 44z
M625 1894l-277 -471h-225l143 471h359zM1034 1894l-276 -471h-226l144 471h358z" />
    <glyph glyph-name="OE" unicode="&#x152;" horiz-adv-x="1392" 
d="M512 307q61 0 61 82v860q0 82 -61 82t-61 -82v-860q0 -82 61 -82zM1290 1024v-369h-307v-286h369v-369h-637q-88 -31 -203 -31q-471 0 -471 512v676q0 512 471 512q115 0 203 -31h637v-368h-369v-246h307z" />
    <glyph glyph-name="oe" unicode="&#x153;" horiz-adv-x="1495" 
d="M553 297v737q0 28 -15.5 45t-45.5 17t-46 -17.5t-16 -44.5v-737q0 -27 16 -44t46 -17t45.5 17t15.5 44zM1065 819v215q0 28 -15.5 45t-45.5 17t-46 -17.5t-16 -44.5v-215h123zM1454 635h-512v-338q0 -27 16 -44t46 -17t45.5 17t15.5 44v225h389v-82q0 -106 -22.5 -190.5
t-70.5 -148t-128 -98t-189 -34.5q-60 0 -111.5 11.5t-82.5 28t-53 33.5t-31 28l-8 12h-21q-3 -5 -9 -12.5t-30 -27t-53.5 -34.5t-81.5 -27t-112 -12q-109 0 -189 34.5t-128 98t-70.5 148t-22.5 190.5v451q0 106 22.5 190.5t70.5 148t128 98t189 34.5q60 0 111.5 -11.5
t82.5 -28t53 -33.5t30 -29l9 -11h21q3 5 9 12.5t30 27t53.5 34.5t81.5 27t112 12q109 0 189 -34.5t128 -98t70.5 -148t22.5 -190.5v-256z" />
    <glyph glyph-name="Racute" unicode="&#x154;" horiz-adv-x="1064" 
d="M61 0v1638h533q96 0 168.5 -20t118 -54.5t73.5 -85t39 -106t11 -123.5v-153q0 -52 -10 -96t-26.5 -73t-36 -51.5t-39.5 -34.5t-36.5 -19.5t-26.5 -9.5l-10 -3h-20v-21h20q8 -1 20 -3.5t44 -17t56.5 -36.5t44.5 -66.5t20 -101.5v-225q0 -77 4 -136t10 -88t12 -47t10 -22
l4 -4v-41h-409q-41 22 -41 338v215q0 27 -16 44t-46 17h-61v-614h-410zM594 1014v246q0 27 -16 44t-46 17h-61v-369h61q30 0 46 17.5t16 44.5zM881 2191l-277 -471h-266l143 471h400z" />
    <glyph glyph-name="racute" unicode="&#x155;" horiz-adv-x="768" 
d="M61 0v1331h369l-61 -266h41q1 6 2.5 17t10.5 42.5t22 60t39 62.5t58.5 57.5t83 37.5t111.5 10v-400h-30q-132 0 -194 -55t-62 -201v-696h-390zM788 1884l-276 -471h-266l143 471h399z" />
    <glyph glyph-name="Rcommaaccent" unicode="&#x156;" horiz-adv-x="1064" 
d="M61 0v1638h533q96 0 168.5 -20t118 -54.5t73.5 -85t39 -106t11 -123.5v-153q0 -52 -10 -96t-26.5 -73t-36 -51.5t-39.5 -34.5t-36.5 -19.5t-26.5 -9.5l-10 -3h-20v-21h20q8 -1 20 -3.5t44 -17t56.5 -36.5t44.5 -66.5t20 -101.5v-225q0 -77 4 -136t10 -88t12 -47t10 -22
l4 -4v-41h-409q-41 22 -41 338v215q0 27 -16 44t-46 17h-61v-614h-410zM594 1014v246q0 27 -16 44t-46 17h-61v-369h61q30 0 46 17.5t16 44.5zM737 -430v348h-389v-369h164v-20q0 -73 -33 -93t-131 -20v-204h82q168 0 237.5 82.5t69.5 275.5z" />
    <glyph glyph-name="rcommaaccent" unicode="&#x157;" horiz-adv-x="768" 
d="M61 0v1331h369l-61 -266h41q1 6 2.5 17t10.5 42.5t22 60t39 62.5t58.5 57.5t83 37.5t111.5 10v-400h-30q-132 0 -194 -55t-62 -201v-696h-390zM604 -82v-348q0 -193 -69.5 -275.5t-237.5 -82.5h-82v204q98 0 131 20t33 93v20h-164v369h389z" />
    <glyph glyph-name="Rcaron" unicode="&#x158;" horiz-adv-x="1064" 
d="M61 0v1638h533q96 0 168.5 -20t118 -54.5t73.5 -85t39 -106t11 -123.5v-153q0 -52 -10 -96t-26.5 -73t-36 -51.5t-39.5 -34.5t-36.5 -19.5t-26.5 -9.5l-10 -3h-20v-21h20q8 -1 20 -3.5t44 -17t56.5 -36.5t44.5 -66.5t20 -101.5v-225q0 -77 4 -136t10 -88t12 -47t10 -22
l4 -4v-41h-409q-41 22 -41 338v215q0 27 -16 44t-46 17h-61v-614h-410zM594 1014v246q0 27 -16 44t-46 17h-61v-369h61q30 0 46 17.5t16 44.5zM952 2089l-317 -369h-307l-318 369v41h328l133 -184h21l133 184h327v-41z" />
    <glyph glyph-name="rcaron" unicode="&#x159;" horiz-adv-x="768" 
d="M61 0v1331h369l-61 -266h41q1 6 2.5 17t10.5 42.5t22 60t39 62.5t58.5 57.5t83 37.5t111.5 10v-400h-30q-132 0 -194 -55t-62 -201v-696h-390zM840 1782l-308 -369h-286l-307 369v41h327l113 -195h20l113 195h328v-41z" />
    <glyph glyph-name="Sacute" unicode="&#x15a;" horiz-adv-x="1015" 
d="M37 614h409v-225q0 -35 14.5 -58.5t47.5 -23.5q61 0 61 82v62q0 74 -29 130t-75 91.5t-101.5 67.5t-111 70.5t-101.5 87.5t-75 131t-29 190q0 98 27.5 178.5t82 142t143 95.5t204.5 34q235 0 350 -120.5t115 -329.5v-123h-400v153q0 82 -61 82q-33 0 -47.5 -23.5
t-14.5 -58.5v-41q0 -49 29.5 -89t76.5 -70.5t103.5 -63t113.5 -76.5t104 -100.5t76.5 -146t29.5 -201.5q0 -239 -113 -365.5t-358 -126.5q-124 0 -216 34.5t-147 98t-81.5 148t-26.5 190.5v174zM891 2202l-277 -471h-266l144 471h399z" />
    <glyph glyph-name="sacute" unicode="&#x15b;" horiz-adv-x="974" 
d="M487 236q30 0 46 17t16 44v51q0 54 -27.5 97t-72 74t-98 60.5t-107 64.5t-98 77t-72 106.5t-27.5 145.5q0 80 25 148t75.5 123t137.5 86.5t202 31.5q100 0 179 -23.5t127 -60t79.5 -84.5t43.5 -92.5t12 -87.5v-144h-379v164q0 27 -16 44.5t-46 17.5t-45.5 -17t-15.5 -45
v-41q0 -45 28 -83t73.5 -67t100 -58.5t109 -67.5t100 -84t73.5 -117t28 -158q0 -389 -451 -389q-101 0 -180 22t-129 57.5t-82.5 84.5t-45.5 99.5t-13 105.5v154h389v-195q0 -27 15.5 -44t45.5 -17zM850 1894l-277 -471h-266l144 471h399z" />
    <glyph glyph-name="Scircumflex" unicode="&#x15c;" horiz-adv-x="1015" 
d="M37 614h409v-225q0 -35 14.5 -58.5t47.5 -23.5q61 0 61 82v62q0 74 -29 130t-75 91.5t-101.5 67.5t-111 70.5t-101.5 87.5t-75 131t-29 190q0 98 27.5 178.5t82 142t143 95.5t204.5 34q235 0 350 -120.5t115 -329.5v-123h-400v153q0 82 -61 82q-33 0 -47.5 -23.5
t-14.5 -58.5v-41q0 -49 29.5 -89t76.5 -70.5t103.5 -63t113.5 -76.5t104 -100.5t76.5 -146t29.5 -201.5q0 -239 -113 -365.5t-358 -126.5q-124 0 -216 34.5t-147 98t-81.5 148t-26.5 190.5v174zM37 1761l317 389h308l317 -389v-41h-328l-133 205h-20l-133 -205h-328v41z" />
    <glyph glyph-name="scircumflex" unicode="&#x15d;" horiz-adv-x="974" 
d="M487 236q30 0 46 17t16 44v51q0 54 -27.5 97t-72 74t-98 60.5t-107 64.5t-98 77t-72 106.5t-27.5 145.5q0 80 25 148t75.5 123t137.5 86.5t202 31.5q100 0 179 -23.5t127 -60t79.5 -84.5t43.5 -92.5t12 -87.5v-144h-379v164q0 27 -16 44.5t-46 17.5t-45.5 -17t-15.5 -45
v-41q0 -45 28 -83t73.5 -67t100 -58.5t109 -67.5t100 -84t73.5 -117t28 -158q0 -389 -451 -389q-101 0 -180 22t-129 57.5t-82.5 84.5t-45.5 99.5t-13 105.5v154h389v-195q0 -27 15.5 -44t45.5 -17zM37 1454l307 369h287l307 -369v-41h-328l-112 195h-21l-112 -195h-328v41z
" />
    <glyph glyph-name="Scedilla" unicode="&#x15e;" horiz-adv-x="1015" 
d="M555 -287q0 92 -70 92q-23 0 -39 -15t-21 -30l-5 -16l-154 102q1 4 4.5 10.5t15 24.5t26 34t40 34t54.5 28q-190 25 -279.5 146.5t-89.5 316.5v174h409v-225q0 -35 14.5 -58.5t47.5 -23.5q61 0 61 82v62q0 74 -29 130t-75 91.5t-101.5 67.5t-111 70.5t-101.5 87.5
t-75 131t-29 190q0 98 27.5 178.5t82 142t143 95.5t204.5 34q235 0 350 -120.5t115 -329.5v-123h-400v153q0 82 -61 82q-33 0 -47.5 -23.5t-14.5 -58.5v-41q0 -49 29.5 -89t76.5 -70.5t103.5 -63t113.5 -76.5t104 -100.5t76.5 -146t29.5 -201.5q0 -216 -91 -339.5
t-288 -146.5q77 -26 121.5 -91.5t44.5 -170.5q0 -129 -68.5 -202.5t-185.5 -73.5t-186.5 66t-69.5 180h184q0 -23 13.5 -42.5t42.5 -19.5q59 0 59 92z" />
    <glyph glyph-name="scedilla" unicode="&#x15f;" horiz-adv-x="974" 
d="M537 -287q0 92 -70 92q-23 0 -39.5 -15t-21.5 -30l-5 -16l-153 102q1 4 4 10.5t14 24t25 33.5t38.5 33.5t53.5 27.5q-77 10 -137.5 36.5t-99 61.5t-63.5 80t-35.5 90.5t-10.5 94.5v154h389v-195q0 -27 15.5 -44t45.5 -17t46 17t16 44v51q0 54 -27.5 97t-72 74t-98 60.5
t-107 64.5t-98 77t-72 106.5t-27.5 145.5q0 80 25 148t75.5 123t137.5 86.5t202 31.5q100 0 179 -23.5t127 -60t79.5 -84.5t43.5 -92.5t12 -87.5v-144h-379v164q0 27 -16 44.5t-46 17.5t-45.5 -17t-15.5 -45v-41q0 -45 28 -83t73.5 -67t100 -58.5t109 -67.5t100 -84
t73.5 -117t28 -158q0 -345 -356 -383q77 -26 121.5 -91.5t44.5 -170.5q0 -129 -68.5 -202.5t-185.5 -73.5t-186.5 66t-69.5 180h184q0 -24 13 -43t42 -19q60 0 60 92z" />
    <glyph glyph-name="Scaron" unicode="&#x160;" horiz-adv-x="1015" 
d="M37 614h409v-225q0 -35 14.5 -58.5t47.5 -23.5q61 0 61 82v62q0 74 -29 130t-75 91.5t-101.5 67.5t-111 70.5t-101.5 87.5t-75 131t-29 190q0 98 27.5 178.5t82 142t143 95.5t204.5 34q235 0 350 -120.5t115 -329.5v-123h-400v153q0 82 -61 82q-33 0 -47.5 -23.5
t-14.5 -58.5v-41q0 -49 29.5 -89t76.5 -70.5t103.5 -63t113.5 -76.5t104 -100.5t76.5 -146t29.5 -201.5q0 -239 -113 -365.5t-358 -126.5q-124 0 -216 34.5t-147 98t-81.5 148t-26.5 190.5v174zM979 2099l-317 -368h-308l-317 368v41h328l133 -184h20l133 184h328v-41z" />
    <glyph glyph-name="scaron" unicode="&#x161;" horiz-adv-x="974" 
d="M487 236q30 0 46 17t16 44v51q0 54 -27.5 97t-72 74t-98 60.5t-107 64.5t-98 77t-72 106.5t-27.5 145.5q0 80 25 148t75.5 123t137.5 86.5t202 31.5q100 0 179 -23.5t127 -60t79.5 -84.5t43.5 -92.5t12 -87.5v-144h-379v164q0 27 -16 44.5t-46 17.5t-45.5 -17t-15.5 -45
v-41q0 -45 28 -83t73.5 -67t100 -58.5t109 -67.5t100 -84t73.5 -117t28 -158q0 -389 -451 -389q-101 0 -180 22t-129 57.5t-82.5 84.5t-45.5 99.5t-13 105.5v154h389v-195q0 -27 15.5 -44t45.5 -17zM938 1792l-307 -369h-287l-307 369v41h328l112 -195h21l112 195h328v-41z
" />
    <glyph glyph-name="Tcommaaccent" unicode="&#x162;" horiz-adv-x="983" 
d="M20 1638h943v-368h-267v-1270h-409v1270h-267v368zM686 -82v-348q0 -193 -69.5 -275.5t-237.5 -82.5h-82v204q98 0 131 20t33 93v20h-164v369h389z" />
    <glyph glyph-name="tcommaaccent" unicode="&#x163;" horiz-adv-x="808" 
d="M788 1004h-194v-635q0 -33 12.5 -47.5t48.5 -14.5h72v-307q-51 -20 -184 -20q-66 0 -118 11.5t-87 29.5t-60 48t-39 60t-22 73.5t-10 79.5t-2 87v635h-185v327h195v215l379 92v-307h194v-327zM676 -430v348h-389v-369h164v-20q0 -73 -33 -93t-131 -20v-204h82
q168 0 237.5 82.5t69.5 275.5z" />
    <glyph glyph-name="Tcaron" unicode="&#x164;" horiz-adv-x="983" 
d="M20 1638h943v-368h-267v-1270h-409v1270h-267v368zM963 2089l-318 -369h-307l-318 369v41h328l133 -184h21l133 184h328v-41z" />
    <glyph glyph-name="tcaron" unicode="&#x165;" horiz-adv-x="1300" 
d="M788 1004h-194v-635q0 -33 12.5 -47.5t48.5 -14.5h72v-307q-51 -20 -184 -20q-66 0 -118 11.5t-87 29.5t-60 48t-39 60t-22 73.5t-10 79.5t-2 87v635h-185v327h195v215l379 92v-307h194v-327zM1260 1290v348h-390v-368h164v-21q0 -73 -33 -92.5t-131 -19.5v-205h82
q168 0 238 82.5t70 275.5z" />
    <glyph glyph-name="Tbar" unicode="&#x166;" horiz-adv-x="983" 
d="M82 860v164h205v246h-267v368h943v-368h-267v-246h205v-164h-205v-860h-409v860h-205z" />
    <glyph glyph-name="tbar" unicode="&#x167;" horiz-adv-x="808" 
d="M788 1065h-194v-102h194v-267h-194v-327q0 -33 12.5 -47.5t48.5 -14.5h72v-307q-51 -20 -184 -20q-66 0 -118 11.5t-87 29.5t-60 48t-39 60t-22 73.5t-10 79.5t-2 87v327h-185v267h185v102h-185v266h195v215l379 92v-307h194v-266z" />
    <glyph glyph-name="Utilde" unicode="&#x168;" horiz-adv-x="1064" 
d="M594 369v1269h410v-1208q0 -106 -26.5 -189t-82 -144.5t-147.5 -94.5t-216 -33t-215.5 33t-147 94.5t-82 144.5t-26.5 189v1208h410v-1269q0 -82 61 -82q33 0 47.5 23.5t14.5 58.5zM733 2099h271v-100q0 -130 -71.5 -204.5t-180.5 -74.5q-66 0 -138.5 21t-130.5 42
t-88 21q-35 0 -49 -18.5t-14 -54.5v-11h-271v99q0 130 71 205t181 75q65 0 138 -21t131.5 -42t89.5 -21q34 0 47.5 19t13.5 55v10z" />
    <glyph glyph-name="utilde" unicode="&#x169;" 
d="M451 1331v-983q0 -32 15.5 -52t45.5 -20t45.5 20t15.5 52v983h390v-1331h-349l-26 184h-15q-3 -9 -9 -23.5t-28.5 -51.5t-49 -65.5t-72 -51.5t-97.5 -23q-256 0 -256 348v1014h390zM696 1792h267v-90q0 -133 -63 -211t-169 -78q-71 0 -139 21t-119.5 42t-81.5 21
q-63 0 -63 -74v-10h-267v88q0 134 62.5 212.5t169.5 78.5q70 0 138 -21t120.5 -42t83.5 -21q61 0 61 74v10z" />
    <glyph glyph-name="Umacron" unicode="&#x16a;" horiz-adv-x="1064" 
d="M594 369v1269h410v-1208q0 -106 -26.5 -189t-82 -144.5t-147.5 -94.5t-216 -33t-215.5 33t-147 94.5t-82 144.5t-26.5 189v1208h410v-1269q0 -82 61 -82q33 0 47.5 23.5t14.5 58.5zM61 1720v164h943v-164h-943z" />
    <glyph glyph-name="umacron" unicode="&#x16b;" 
d="M451 348v983h-390v-1014q0 -348 256 -348q52 0 97 22t73 53.5t48.5 63.5t28.5 54l9 22h15l26 -184h349v1331h-390v-983q0 -32 -15.5 -52t-45.5 -20t-45.5 20t-15.5 52zM61 1413v164h902v-164h-902z" />
    <glyph glyph-name="Ubreve" unicode="&#x16c;" horiz-adv-x="1064" 
d="M594 369v1269h410v-1208q0 -106 -26.5 -189t-82 -144.5t-147.5 -94.5t-216 -33t-215.5 33t-147 94.5t-82 144.5t-26.5 189v1208h410v-1269q0 -82 61 -82q33 0 47.5 23.5t14.5 58.5zM717 2089h143v-41q0 -154 -79 -241t-249 -87q-327 0 -327 328v41h143q0 -19 6.5 -35.5
t23.5 -35.5t56.5 -30.5t97.5 -11.5t97.5 11.5t57 30.5t24 35.5t6.5 35.5z" />
    <glyph glyph-name="ubreve" unicode="&#x16d;" 
d="M451 1331v-983q0 -32 15.5 -52t45.5 -20t45.5 20t15.5 52v983h390v-1331h-349l-26 184h-15q-3 -9 -9 -23.5t-28.5 -51.5t-49 -65.5t-72 -51.5t-97.5 -23q-256 0 -256 348v1014h390zM696 1782h144v-41q0 -154 -79 -241t-249 -87q-328 0 -328 328v41h144q0 -19 6.5 -35.5
t23.5 -35.5t56.5 -30.5t97.5 -11.5t97.5 11.5t56.5 30.5t23.5 35.5t6.5 35.5z" />
    <glyph glyph-name="Uring" unicode="&#x16e;" horiz-adv-x="1064" 
d="M594 369v1269h410v-1208q0 -106 -26.5 -189t-82 -144.5t-147.5 -94.5t-216 -33t-215.5 33t-147 94.5t-82 144.5t-26.5 189v1208h410v-1269q0 -82 61 -82q33 0 47.5 23.5t14.5 58.5zM604 2028v40q0 103 -72 103q-71 0 -71 -103v-40q0 -103 71 -103q72 0 72 103zM184 2048
q0 152 96 240t252 88t252.5 -88t96.5 -240t-96.5 -240t-252.5 -88t-252 88t-96 240z" />
    <glyph glyph-name="uring" unicode="&#x16f;" 
d="M451 348v983h-390v-1014q0 -348 256 -348q52 0 97 22t73 53.5t48.5 63.5t28.5 54l9 22h15l26 -184h349v1331h-390v-983q0 -32 -15.5 -52t-45.5 -20t-45.5 20t-15.5 52zM584 1720v62q0 102 -72 102t-72 -102v-62q0 -102 72 -102t72 102zM164 1751q0 158 95.5 248t252.5 90
t252.5 -90t95.5 -248t-95.5 -248t-252.5 -90t-252.5 90t-95.5 248z" />
    <glyph glyph-name="Uhungarumlaut" unicode="&#x170;" horiz-adv-x="1064" 
d="M594 369v1269h410v-1208q0 -106 -26.5 -189t-82 -144.5t-147.5 -94.5t-216 -33t-215.5 33t-147 94.5t-82 144.5t-26.5 189v1208h410v-1269q0 -82 61 -82q33 0 47.5 23.5t14.5 58.5zM666 2191l-277 -471h-225l143 471h359zM1075 2191l-276 -471h-226l144 471h358z" />
    <glyph glyph-name="uhungarumlaut" unicode="&#x171;" 
d="M451 1331v-983q0 -32 15.5 -52t45.5 -20t45.5 20t15.5 52v983h390v-1331h-349l-26 184h-15q-3 -9 -9 -23.5t-28.5 -51.5t-49 -65.5t-72 -51.5t-97.5 -23q-256 0 -256 348v1014h390zM645 1884l-276 -471h-226l144 471h358zM1055 1884l-277 -471h-225l143 471h359z" />
    <glyph glyph-name="Uogonek" unicode="&#x172;" horiz-adv-x="1064" 
d="M594 369v1269h410v-1208q0 -211 -108 -332.5t-335 -128.5q-49 -49 -49 -133q0 -82 51 -82t51 82v41h205v-61q0 -116 -67 -181t-189 -65q-119 0 -192.5 61.5t-73.5 173.5q0 126 59 185q-295 78 -295 440v1208h410v-1269q0 -82 61 -82q33 0 47.5 23.5t14.5 58.5z" />
    <glyph glyph-name="uogonek" unicode="&#x173;" 
d="M963 0h-154q-4 -2 -10 -5.5t-22 -17t-28 -30.5t-22 -47t-10 -64q0 -82 51 -82t51 82v41h205v-61q0 -116 -67 -181t-189 -65q-119 0 -192.5 61.5t-73.5 173.5q0 25 3.5 48.5t9 42.5t13 35.5t16 30t16.5 24t16 18.5t13.5 13t10.5 9l4 3l-16 155h-15q-3 -9 -9 -23.5
t-28.5 -51.5t-49 -65.5t-72 -51.5t-97.5 -23q-256 0 -256 348v1014h390v-983q0 -32 15.5 -52t45.5 -20t45.5 20t15.5 52v983h390v-1331z" />
    <glyph glyph-name="Wcircumflex" unicode="&#x174;" horiz-adv-x="1679" 
d="M1229 1638h430l-195 -1638h-532l-82 897h-21l-81 -897h-533l-195 1638h431l51 -1085h20l107 1085h422l106 -1085h21zM369 1761l317 389h307l318 -389v-41h-328l-133 205h-21l-133 -205h-327v41z" />
    <glyph glyph-name="wcircumflex" unicode="&#x175;" horiz-adv-x="1556" 
d="M1075 471h21l51 860h389l-168 -1331h-489l-91 696h-20l-90 -696h-490l-168 1331h390l51 -860h20l113 860h369zM328 1454l307 369h287l307 -369v-41h-328l-113 195h-20l-113 -195h-327v41z" />
    <glyph glyph-name="Ycircumflex" unicode="&#x176;" horiz-adv-x="1105" 
d="M784 502v-502h-462v502q0 46 -8.5 78.5t-26 71t-25.5 65.5l-242 829v92h431l92 -655h20l92 655h430v-92l-241 -829q-8 -27 -25.5 -65.5t-26 -71t-8.5 -78.5zM82 1761l317 389h308l317 -389v-41h-328l-133 205h-20l-133 -205h-328v41z" />
    <glyph glyph-name="ycircumflex" unicode="&#x177;" horiz-adv-x="1054" 
d="M553 410l72 921h409l-164 -1085q-18 -120 -36 -201.5t-43.5 -149.5t-56.5 -108t-77 -67.5t-102 -37.5t-135 -10h-359v328h215l-256 1331h410l102 -921h21zM82 1454l307 369h287l307 -369v-41h-328l-112 195h-21l-112 -195h-328v41z" />
    <glyph glyph-name="Ydieresis" unicode="&#x178;" horiz-adv-x="1105" 
d="M784 502v-502h-462v502q0 46 -8.5 78.5t-26 71t-25.5 65.5l-242 829v92h431l92 -655h20l92 655h430v-92l-241 -829q-8 -27 -25.5 -65.5t-26 -71t-8.5 -78.5zM512 2028v-308h-348v308h348zM942 2028v-308h-348v308h348z" />
    <glyph glyph-name="Zacute" unicode="&#x179;" horiz-adv-x="962" 
d="M41 0v369l461 901h-461v368h881v-368l-461 -901h461v-369h-881zM850 2191l-277 -471h-266l144 471h399z" />
    <glyph glyph-name="zacute" unicode="&#x17a;" horiz-adv-x="921" 
d="M41 0v338l426 645h-426v348h840v-338l-426 -645h426v-348h-840zM819 1884l-276 -471h-267l144 471h399z" />
    <glyph glyph-name="Zdotaccent" unicode="&#x17b;" horiz-adv-x="962" 
d="M41 0v369l461 901h-461v368h881v-368l-461 -901h461v-369h-881zM651 2028v-308h-348v308h348z" />
    <glyph glyph-name="zdotaccent" unicode="&#x17c;" horiz-adv-x="921" 
d="M41 0v338l426 645h-426v348h840v-338l-426 -645h426v-348h-840zM283 1741h358v-328h-358v328z" />
    <glyph glyph-name="Zcaron" unicode="&#x17d;" horiz-adv-x="962" 
d="M41 0v369l461 901h-461v368h881v-368l-461 -901h461v-369h-881zM956 2091l-317 -369h-307l-318 369v41h328l133 -184h21l133 184h327v-41z" />
    <glyph glyph-name="zcaron" unicode="&#x17e;" horiz-adv-x="921" 
d="M41 0v338l426 645h-426v348h840v-338l-426 -645h426v-348h-840zM911 1782l-307 -369h-287l-307 369v41h328l113 -195h20l113 195h327v-41z" />
    <glyph glyph-name="Scommaaccent" unicode="&#x218;" horiz-adv-x="1015" 
d="M37 614h409v-225q0 -35 14.5 -58.5t47.5 -23.5q61 0 61 82v62q0 74 -29 130t-75 91.5t-101.5 67.5t-111 70.5t-101.5 87.5t-75 131t-29 190q0 98 27.5 178.5t82 142t143 95.5t204.5 34q235 0 350 -120.5t115 -329.5v-123h-400v153q0 82 -61 82q-33 0 -47.5 -23.5
t-14.5 -58.5v-41q0 -49 29.5 -89t76.5 -70.5t103.5 -63t113.5 -76.5t104 -100.5t76.5 -146t29.5 -201.5q0 -239 -113 -365.5t-358 -126.5q-124 0 -216 34.5t-147 98t-81.5 148t-26.5 190.5v174zM702 -440v348h-389v-369h164v-20q0 -73 -33 -93t-131 -20v-205h82
q168 0 237.5 83t69.5 276z" />
    <glyph glyph-name="scommaaccent" unicode="&#x219;" horiz-adv-x="974" 
d="M487 236q30 0 46 17t16 44v51q0 54 -27.5 97t-72 74t-98 60.5t-107 64.5t-98 77t-72 106.5t-27.5 145.5q0 80 25 148t75.5 123t137.5 86.5t202 31.5q100 0 179 -23.5t127 -60t79.5 -84.5t43.5 -92.5t12 -87.5v-144h-379v164q0 27 -16 44.5t-46 17.5t-45.5 -17t-15.5 -45
v-41q0 -45 28 -83t73.5 -67t100 -58.5t109 -67.5t100 -84t73.5 -117t28 -158q0 -389 -451 -389q-101 0 -180 22t-129 57.5t-82.5 84.5t-45.5 99.5t-13 105.5v154h389v-195q0 -27 15.5 -44t45.5 -17zM682 -92v-348q0 -193 -69.5 -276t-237.5 -83h-82v205q98 0 131 20t33 93
v20h-164v369h389z" />
    <glyph glyph-name="afii10023" unicode="&#x401;" horiz-adv-x="880" 
d="M778 1024v-369h-307v-286h369v-369h-779v1638h779v-368h-369v-246h307zM410 2028v-308h-349v308h349zM840 2028v-308h-348v308h348z" />
    <glyph glyph-name="afii10051" unicode="&#x402;" horiz-adv-x="1249" 
d="M819 369v409q0 32 -15.5 52t-45.5 20q-28 0 -44 -17.5t-18 -46.5v-786h-409v1270h-267v368h943v-368h-267v-328q3 9 9 23.5t28.5 51.5t49 65.5t72 51.5t97.5 23q256 0 256 -348v-399q0 -82 -7 -143.5t-26.5 -117.5t-52.5 -92t-86 -56.5t-125 -20.5q-45 0 -83.5 5
t-53.5 10l-16 5v287q2 -1 6.5 -1t15 2.5t18.5 10t14.5 25.5t6.5 45z" />
    <glyph glyph-name="afii10052" unicode="&#x403;" horiz-adv-x="819" 
d="M61 1638h738v-368h-328v-1270h-410v1638zM809 2191l-277 -471h-266l144 471h399z" />
    <glyph glyph-name="afii10053" unicode="&#x404;" 
d="M41 481v676q0 512 471 512t471 -512v-61h-410v153q0 82 -61 82t-61 -82v-268h327v-266h-327v-326q0 -82 61 -82t61 82v215h410v-123q0 -512 -471 -512t-471 512z" />
    <glyph glyph-name="afii10054" unicode="&#x405;" horiz-adv-x="1015" 
d="M37 614h409v-225q0 -35 14.5 -58.5t47.5 -23.5q61 0 61 82v62q0 74 -29 130t-75 91.5t-101.5 67.5t-111 70.5t-101.5 87.5t-75 131t-29 190q0 98 27.5 178.5t82 142t143 95.5t204.5 34q235 0 350 -120.5t115 -329.5v-123h-400v153q0 82 -61 82q-33 0 -47.5 -23.5
t-14.5 -58.5v-41q0 -49 29.5 -89t76.5 -70.5t103.5 -63t113.5 -76.5t104 -100.5t76.5 -146t29.5 -201.5q0 -239 -113 -365.5t-358 -126.5q-124 0 -216 34.5t-147 98t-81.5 148t-26.5 190.5v174z" />
    <glyph glyph-name="uni0406" unicode="&#x406;" horiz-adv-x="532" 
d="M471 1638v-1638h-410v1638h410z" />
    <glyph glyph-name="afii10056" unicode="&#x407;" horiz-adv-x="532" 
d="M471 1638v-1638h-410v1638h410zM225 2028v-308h-338v308h338zM645 2028v-308h-338v308h338z" />
    <glyph glyph-name="afii10057" unicode="&#x408;" horiz-adv-x="716" 
d="M655 1638v-1095q0 -113 -7 -191.5t-25.5 -145t-48.5 -107t-78.5 -68.5t-114 -39.5t-156.5 -11.5q-55 0 -106 5t-75 10l-24 5v338h93q64 0 98.5 33t34.5 131v1136h409z" />
    <glyph glyph-name="afii10058" unicode="&#x409;" horiz-adv-x="1679" 
d="M1208 0h-512v1270h-123v-287q0 -213 -3.5 -343t-17 -256.5t-38 -192.5t-67 -119.5t-103.5 -72.5t-149 -19q-50 0 -94 5t-63 10l-18 5v348h52q26 0 41.5 2t32.5 14t25.5 30t18 56t13 86.5t7 127.5t4.5 172.5t1 228.5v573h891v-522h61q84 0 151.5 -12t128.5 -43.5
t102 -81.5t65 -129t24 -184v-236q0 -226 -105.5 -328t-324.5 -102zM1106 799v-482h41q53 0 67.5 20t14.5 83v215q0 103 -16 133.5t-76 30.5h-31z" />
    <glyph glyph-name="afii10059" unicode="&#x40a;" horiz-adv-x="1576" 
d="M1106 0h-512v696h-123v-696h-410v1638h410v-573h123v573h410v-573h61q84 0 151.5 -12.5t128.5 -43.5t102 -81t65 -129.5t24 -184.5v-184q0 -226 -105.5 -328t-324.5 -102zM1004 748v-431h40q53 0 67.5 20t14.5 83v164q0 103 -16 133.5t-76 30.5h-30z" />
    <glyph glyph-name="afii10060" unicode="&#x40b;" horiz-adv-x="1249" 
d="M819 0v778q0 32 -15.5 52t-45.5 20q-28 0 -44 -17.5t-18 -46.5v-786h-409v1270h-267v368h943v-368h-267v-328q3 9 9 23.5t28.5 51.5t49 65.5t72 51.5t97.5 23q256 0 256 -348v-809h-389z" />
    <glyph glyph-name="afii10061" unicode="&#x40c;" horiz-adv-x="1075" 
d="M61 1638h410v-624h21q60 0 81 49t21 176v61q0 89 4.5 156.5t11 100t13.5 53t11 24.5l5 4h399v-41q-2 -1 -5 -4t-10.5 -21.5t-13.5 -47t-11 -88t-5 -136.5v-71q0 -97 -18 -171t-43.5 -110t-51 -57.5t-43.5 -26.5l-18 -4h-20v-20h20q4 0 10.5 -1t26 -8.5t37 -19.5t38.5 -37
t36.5 -58t26 -86t10.5 -118v-174q0 -77 5.5 -136t13 -88t14.5 -47t13 -22l5 -4v-41h-410q-2 1 -5.5 4t-12.5 24t-15.5 53.5t-12 100t-5.5 156.5v164q0 86 -17.5 125t-74.5 39h-31v-666h-410v1638zM932 2191l-277 -471h-266l143 471h400z" />
    <glyph glyph-name="afii10062" unicode="&#x40e;" horiz-adv-x="1105" 
d="M655 1638h430l-184 -1208q-10 -63 -18 -104.5t-21.5 -91t-30 -81t-42 -63.5t-58 -50t-77.5 -29t-101 -11h-481v358h184l-236 1280h431l92 -962h41zM737 2089h144v-41q0 -154 -79 -241t-249 -87q-328 0 -328 328v41h144q0 -19 6.5 -35.5t23.5 -35.5t56.5 -30.5t97.5 -11.5
t97.5 11.5t56.5 30.5t23.5 35.5t6.5 35.5z" />
    <glyph glyph-name="afii10145" unicode="&#x40f;" horiz-adv-x="1064" 
d="M721 0v-307h-379v307h-281v1638h410v-1269h123v1269h410v-1638h-283z" />
    <glyph glyph-name="afii10017" unicode="&#x410;" horiz-adv-x="1138" 
d="M713 0l-27 266h-233l-27 -266h-406l158 1065q79 527 101 573h581q21 -42 101 -573l157 -1065h-405zM549 1249l-64 -635h166l-61 635h-41z" />
    <glyph glyph-name="afii10018" unicode="&#x411;" horiz-adv-x="1044" 
d="M471 748v-431h41q53 0 67.5 20t14.5 83v164q0 103 -16 133.5t-76 30.5h-31zM61 1638h902v-368h-492v-205h61q128 0 213 -20t145.5 -71t87 -138.5t26.5 -221.5v-204q0 -223 -101 -316.5t-309 -93.5h-533v1638z" />
    <glyph glyph-name="afii10019" unicode="&#x412;" horiz-adv-x="1040" 
d="M573 0h-512v1638h482q123 0 210.5 -32t136.5 -91.5t71 -134.5t22 -172q0 -63 -9 -115.5t-23.5 -87t-32 -61.5t-35 -41.5t-32 -24t-23.5 -12.5l-9 -2h-20v-20h20q8 -1 20 -5t44 -25.5t56.5 -53.5t44.5 -96.5t20 -147.5v-86q0 -111 -21.5 -189t-71 -133t-133 -81.5
t-205.5 -26.5zM471 696v-379h61q30 0 46 17.5t16 44.5v205q0 70 -14.5 91t-67.5 21h-41zM471 1311v-318h31q52 0 67 24t15 89v143q0 27 -16 44.5t-46 17.5h-51z" />
    <glyph glyph-name="afii10020" unicode="&#x413;" horiz-adv-x="819" 
d="M61 1638h738v-368h-328v-1270h-410v1638z" />
    <glyph glyph-name="afii10021" unicode="&#x414;" horiz-adv-x="1320" 
d="M1300 410v-594h-368v266h-543v-266h-369v594h134l11 10q60 75 82 384q9 137 9 312v522h901v-1228h143zM748 410v860h-123v-123q0 -189 -8.5 -334.5t-20.5 -218t-24 -118t-20 -56.5l-9 -10h205z" />
    <glyph glyph-name="afii10022" unicode="&#x415;" horiz-adv-x="880" 
d="M778 1024v-369h-307v-286h369v-369h-779v1638h779v-368h-369v-246h307z" />
    <glyph glyph-name="afii10024" unicode="&#x416;" horiz-adv-x="1576" 
d="M584 1638h409v-624q61 0 85 50.5t24 174.5v61q0 89 4.5 156.5t11 100t13.5 53t11 24.5l5 4h399v-41q-2 -1 -5 -4t-10.5 -21.5t-13.5 -47t-11 -88t-5 -136.5v-71q0 -71 -10 -129.5t-26 -96t-35 -65.5t-38 -42.5t-35 -23t-26 -10.5l-10 -2h-21v-20h21q4 0 10.5 -1
t25.5 -8.5t36.5 -19.5t39 -37t36.5 -58t25.5 -86t10.5 -118v-174q0 -77 5.5 -136t12.5 -88t14.5 -47t12.5 -22l6 -4v-41h-409q-2 1 -5.5 4t-12.5 24t-15.5 53.5t-12 100t-5.5 156.5v164q0 86 -17.5 125t-74.5 39h-11v-666h-409v666h-11q-57 0 -74.5 -39t-17.5 -125v-164
q0 -89 -5.5 -156.5t-12.5 -100t-14.5 -53t-12.5 -24.5l-6 -4h-410v41q2 1 5.5 4t12.5 21.5t16 47t12.5 88t5.5 136.5v174q0 65 10 118t26.5 86t36 58t39 37t36 19t26.5 8l10 2h20v20h-20q-4 0 -10.5 1.5t-25 11t-35.5 23t-38 42t-36 65.5t-25 96t-10 130v71q0 77 -4.5 136
t-11 88t-13.5 47t-11 22l-5 4v41h399q2 -1 5 -4t10.5 -24t13.5 -53.5t11 -100t5 -156.5v-61q0 -124 24 -174.5t85 -50.5v624z" />
    <glyph glyph-name="afii10025" unicode="&#x417;" 
d="M983 553v-113q0 -231 -112.5 -351t-358.5 -120t-358.5 120t-112.5 351v174h410v-225q0 -82 61 -82t61 82v184q0 28 -0.5 40.5t-2 32t-5.5 27.5t-11 19t-18 15t-27 7t-38 3h-143v287h153q60 0 76 27.5t16 115.5v102q0 82 -61 82t-61 -82v-143h-400v113q0 99 26.5 179
t80.5 141.5t144 95.5t210 34q123 0 214 -35t144 -98t78 -142t25 -175q0 -83 -17 -149.5t-41 -102t-48 -59.5t-41 -31l-17 -7h-21v-20h21q4 0 10 -1.5t24 -9t34.5 -19t36.5 -35t34.5 -53t24.5 -76.5t10 -103z" />
    <glyph glyph-name="afii10026" unicode="&#x418;" horiz-adv-x="1091" 
d="M666 1638h364v-1638h-409l41 797l-236 -797h-365v1638h410l-41 -837z" />
    <glyph glyph-name="afii10027" unicode="&#x419;" horiz-adv-x="1091" 
d="M666 1638h364v-1638h-409l41 797l-236 -797h-365v1638h410l-41 -837zM748 2089h143v-41q0 -154 -79 -241t-249 -87q-327 0 -327 328v41h143q0 -19 6.5 -35.5t23.5 -35.5t56.5 -30.5t97.5 -11.5t97.5 11.5t57 30.5t24 35.5t6.5 35.5z" />
    <glyph glyph-name="afii10028" unicode="&#x41a;" horiz-adv-x="1075" 
d="M61 1638h410v-624h21q60 0 81 49t21 176v61q0 89 4.5 156.5t11 100t13.5 53t11 24.5l5 4h399v-41q-2 -1 -5 -4t-10.5 -21.5t-13.5 -47t-11 -88t-5 -136.5v-71q0 -97 -18 -171t-43.5 -110t-51 -57.5t-43.5 -26.5l-18 -4h-20v-20h20q4 0 10.5 -1t26 -8.5t37 -19.5t38.5 -37
t36.5 -58t26 -86t10.5 -118v-174q0 -77 5.5 -136t13 -88t14.5 -47t13 -22l5 -4v-41h-410q-2 1 -5.5 4t-12.5 24t-15.5 53.5t-12 100t-5.5 156.5v164q0 86 -17.5 125t-74.5 39h-31v-666h-410v1638z" />
    <glyph glyph-name="afii10029" unicode="&#x41b;" horiz-adv-x="1167" 
d="M215 1638h891v-1638h-410v1270h-123v-287q0 -213 -3.5 -343t-17 -256.5t-38 -192.5t-67 -119.5t-103.5 -72.5t-149 -19q-50 0 -94 5t-63 10l-18 5v348h52q26 0 41.5 2t32.5 14t25.5 30t18 56t13 86.5t7 127.5t4.5 172.5t1 228.5v573z" />
    <glyph glyph-name="afii10030" unicode="&#x41c;" horiz-adv-x="1495" 
d="M451 778h-21l-20 -778h-379l106 1638h436l164 -870h21l164 870h436l106 -1638h-379l-20 778h-21l-143 -778h-307z" />
    <glyph glyph-name="afii10031" unicode="&#x41d;" horiz-adv-x="1064" 
d="M594 1638h410v-1638h-410v655h-123v-655h-410v1638h410v-614h123v614z" />
    <glyph glyph-name="afii10032" unicode="&#x41e;" 
d="M512 307q61 0 61 82v860q0 82 -61 82t-61 -82v-860q0 -82 61 -82zM41 481v676q0 512 471 512t471 -512v-676q0 -512 -471 -512t-471 512z" />
    <glyph glyph-name="afii10033" unicode="&#x41f;" horiz-adv-x="1064" 
d="M61 1638h943v-1638h-410v1270h-123v-1270h-410v1638z" />
    <glyph glyph-name="afii10034" unicode="&#x420;" horiz-adv-x="1040" 
d="M594 1004v215q0 63 -14.5 82.5t-67.5 19.5h-41v-420h41q45 0 63.5 24t18.5 79zM61 1638h492q239 0 345 -113.5t106 -336.5v-144q0 -450 -431 -450h-102v-594h-410v1638z" />
    <glyph glyph-name="afii10035" unicode="&#x421;" 
d="M41 481v676q0 512 471 512t471 -512v-174h-410v266q0 82 -61 82t-61 -82v-860q0 -82 61 -82t61 82v307h410v-215q0 -512 -471 -512t-471 512z" />
    <glyph glyph-name="afii10036" unicode="&#x422;" horiz-adv-x="983" 
d="M20 1638h943v-368h-267v-1270h-409v1270h-267v368z" />
    <glyph glyph-name="afii10037" unicode="&#x423;" horiz-adv-x="1105" 
d="M655 1638h430l-184 -1208q-10 -63 -18 -104.5t-21.5 -91t-30 -81t-42 -63.5t-58 -50t-77.5 -29t-101 -11h-481v358h184l-236 1280h431l92 -962h41z" />
    <glyph glyph-name="afii10038" unicode="&#x424;" horiz-adv-x="1413" 
d="M502 1393v245h409v-245h21q127 0 221.5 -41t150 -116t82.5 -171t27 -215v-62q0 -119 -27 -215t-82.5 -170.5t-150 -115.5t-221.5 -41h-21v-246h-409v246h-21q-127 0 -221.5 41t-150 115.5t-82.5 170.5t-27 215v62q0 119 27 215t82.5 171t150 116t221.5 41h21zM502 553
v532h-10q-103 0 -103 -204v-123q0 -205 103 -205h10zM911 1085v-532h11q102 0 102 205v123q0 95 -22.5 149.5t-79.5 54.5h-11z" />
    <glyph glyph-name="afii10039" unicode="&#x425;" horiz-adv-x="1146" 
d="M276 840l-256 798h441l102 -440h21l102 440h440l-256 -798l256 -840h-440l-102 481h-21l-102 -481h-441z" />
    <glyph glyph-name="afii10040" unicode="&#x426;" horiz-adv-x="1177" 
d="M1157 369v-635h-379v266h-717v1638h410v-1269h123v1269h410v-1269h153z" />
    <glyph glyph-name="afii10041" unicode="&#x427;" horiz-adv-x="1044" 
d="M451 1638v-696q0 -32 15.5 -52t45.5 -20t45.5 20t15.5 52v696h410v-1638h-410v633q-67 -90 -215 -90q-143 0 -230 87t-87 281v727h410z" />
    <glyph glyph-name="afii10042" unicode="&#x428;" horiz-adv-x="1576" 
d="M1516 0h-1455v1638h410v-1269h113v1269h409v-1269h113v1269h410v-1638z" />
    <glyph glyph-name="afii10043" unicode="&#x429;" horiz-adv-x="1689" 
d="M1669 369v-635h-379v266h-1229v1638h410v-1269h113v1269h409v-1269h113v1269h410v-1269h153z" />
    <glyph glyph-name="afii10044" unicode="&#x42a;" horiz-adv-x="1208" 
d="M737 0h-512v1270h-205v368h615v-522h61q84 0 151.5 -12t128.5 -43.5t102 -81.5t65 -129t24 -184v-236q0 -226 -105.5 -328t-324.5 -102zM635 799v-482h41q53 0 67.5 20t14.5 83v215q0 103 -16 133.5t-76 30.5h-31z" />
    <glyph glyph-name="afii10045" unicode="&#x42b;" horiz-adv-x="1556" 
d="M471 799v-482h41q53 0 67.5 20t14.5 83v215q0 103 -16 133.5t-76 30.5h-31zM573 0h-512v1638h410v-522h61q84 0 151.5 -12t129 -43.5t102.5 -81.5t65 -129t24 -184v-236q0 -226 -106 -328t-325 -102zM1495 1638v-1638h-410v1638h410z" />
    <glyph glyph-name="afii10046" unicode="&#x42c;" horiz-adv-x="1044" 
d="M471 799v-482h41q53 0 67.5 20t14.5 83v215q0 103 -16 133.5t-76 30.5h-31zM573 0h-512v1638h410v-522h61q84 0 151.5 -12t129 -43.5t102.5 -81.5t65 -129t24 -184v-236q0 -226 -106 -328t-325 -102z" />
    <glyph glyph-name="afii10047" unicode="&#x42d;" 
d="M983 1157v-676q0 -512 -471 -512t-471 512v123h410v-215q0 -82 61 -82t61 82v326h-327v266h327v268q0 82 -61 82t-61 -82v-153h-410v61q0 512 471 512t471 -512z" />
    <glyph glyph-name="afii10048" unicode="&#x42e;" horiz-adv-x="1556" 
d="M573 1024v133q0 512 471 512q472 0 472 -512v-676q0 -512 -472 -512q-471 0 -471 512v174h-102v-655h-410v1638h410v-614h102zM1044 307q33 0 47.5 23.5t14.5 58.5v860q0 35 -14.5 58.5t-47.5 23.5q-61 0 -61 -82v-860q0 -82 61 -82z" />
    <glyph glyph-name="afii10049" unicode="&#x42f;" horiz-adv-x="1064" 
d="M1004 1638v-1638h-410v614q-75 0 -99 -41.5t-24 -162.5v-72q0 -282 -37 -334l-4 -4h-410v41q2 1 4.5 4t9.5 21.5t12.5 47t10 88t4.5 136.5v61q0 95 19 168.5t46 111.5t54.5 62t46.5 31l19 6h41v21h-41q-8 3 -20 8.5t-44 32t-56.5 62.5t-44.5 104t-20 151v41
q0 440 441 440h502zM471 1178v-31q0 -111 24.5 -153t98.5 -42v369h-10q-63 0 -88 -30t-25 -113z" />
    <glyph glyph-name="afii10065" unicode="&#x430;" horiz-adv-x="1019" 
d="M590 143h-21q-2 -7 -6 -18t-22.5 -39t-42 -49.5t-66 -39t-94.5 -17.5q-135 0 -218 93t-83 265q0 61 14 114.5t35.5 92.5t56.5 74.5t67.5 58.5t79.5 47t80.5 38t82.5 34t75 32l41 19v186q0 28 -15.5 45t-45.5 17t-46 -17.5t-16 -44.5v-153h-389v71q0 195 115.5 302.5
t335.5 107.5q238 0 344 -98.5t106 -290.5v-973h-348zM569 399v267l-51 -41q-46 -36 -69 -85.5t-23 -129.5q0 -134 78 -134q28 0 43 19.5t18.5 43t3.5 60.5z" />
    <glyph glyph-name="afii10066" unicode="&#x431;" horiz-adv-x="983" 
d="M41 440v584q0 326 121.5 470t410.5 144h21q82 0 123 21t41 72h184v-72q0 -48 -3 -82t-13.5 -75.5t-32.5 -69t-57 -52.5t-91.5 -37t-130.5 -12h-61q-104 0 -164.5 -45.5t-60.5 -159.5h41q2 5 6.5 14.5t23.5 32.5t44 40.5t70.5 32t100.5 14.5q328 0 328 -379v-441
q0 -108 -23.5 -191t-74.5 -147.5t-139.5 -98.5t-212.5 -34q-451 0 -451 471zM430 932v-635q0 -27 16 -44t46 -17t45.5 17t15.5 44v635q0 32 -15.5 52t-45.5 20t-46 -20t-16 -52z" />
    <glyph glyph-name="afii10067" unicode="&#x432;" horiz-adv-x="983" 
d="M61 0v1331h492q194 0 281.5 -87t87.5 -261q0 -50 -8.5 -92.5t-22 -70t-30 -49t-33 -33.5t-30 -19.5t-22.5 -9.5l-8 -2h-20v-21h20q7 -1 19.5 -5t44.5 -23.5t56 -48.5t44 -87.5t20 -132.5q0 -93 -18 -161t-61 -121t-120.5 -80t-189.5 -27h-502zM451 543v-256h51
q61 0 61 61v133q0 62 -61 62h-51zM553 870v113q0 61 -61 61h-41v-235h41q61 0 61 61z" />
    <glyph glyph-name="afii10068" unicode="&#x433;" horiz-adv-x="778" 
d="M61 1331h697v-327h-307v-1004h-390v1331z" />
    <glyph glyph-name="afii10069" unicode="&#x434;" horiz-adv-x="1239" 
d="M1219 348v-553h-349v246h-501v-246h-349v553h113q5 4 12.5 14t27 54.5t34.5 105.5t27 175t12 255v379h829v-983h144zM686 348v635h-102v-143q0 -106 -8.5 -196t-20.5 -142t-24 -89t-21 -51l-8 -14h184z" />
    <glyph glyph-name="afii10070" unicode="&#x435;" horiz-adv-x="983" 
d="M492 236q30 0 45.5 17t15.5 44v225h389v-82q0 -108 -23.5 -191t-74.5 -147.5t-139.5 -98.5t-212.5 -34q-451 0 -451 471v451q0 471 451 471q124 0 212.5 -34t139.5 -98.5t74.5 -147.5t23.5 -191v-256h-512v-338q0 -27 16 -44t46 -17zM553 819v215q0 28 -15.5 45t-45.5 17
t-46 -17.5t-16 -44.5v-215h123z" />
    <glyph glyph-name="afii10072" unicode="&#x436;" horiz-adv-x="1474" 
d="M543 1331h389v-502q55 0 73.5 37t18.5 158q0 80 4 141.5t10 91.5t12.5 48t10.5 22l4 4h389v-41q-5 -4 -11.5 -15t-18 -73t-11.5 -158q0 -67 -9.5 -121.5t-25 -89t-34 -60t-37 -37.5t-34 -19.5t-25.5 -8.5l-9 -1h-20v-21h20q7 0 19 -1.5t42 -15.5t52.5 -38t41.5 -76.5
t19 -124.5v-92q0 -123 10.5 -197t20.5 -87l10 -13v-41h-389q-41 22 -41 338v82q0 27 -0.5 39t-4.5 27.5t-12.5 21t-24.5 10t-40 4.5h-10v-522h-389v522h-11q-24 0 -39.5 -4.5t-24 -10t-12.5 -21.5t-4.5 -27t-0.5 -39v-82q0 -282 -37 -334l-4 -4h-390v41q2 1 4.5 4t9.5 21.5
t12.5 47t10 88t4.5 136.5v92q0 72 18 124.5t43.5 76.5t51.5 38t44 15l18 2h20v21h-20q-7 0 -19 2.5t-42 22t-53 51.5t-42 100.5t-19 160.5q0 96 -10.5 157.5t-20.5 74.5l-10 14v41h390q2 -1 4.5 -4t9.5 -22t12.5 -48.5t10 -91t4.5 -141.5q0 -121 18.5 -158t73.5 -37v502z
" />
    <glyph glyph-name="afii10073" unicode="&#x437;" horiz-adv-x="983" 
d="M430 1034v-164h-389v82q0 187 111.5 298.5t339.5 111.5t339 -105.5t111 -283.5q0 -63 -16 -113.5t-38.5 -78t-45 -45.5t-38.5 -24l-16 -5h-20v-21h20q6 -2 16.5 -6t37 -25t47 -50.5t37 -86.5t16.5 -129q0 -204 -104 -312t-346 -108q-228 0 -339.5 111.5t-111.5 298.5v113
h389v-195q0 -27 16 -44t46 -17t45.5 17t15.5 44v133q0 38 -0.5 55t-4.5 38.5t-12.5 29.5t-24 14t-40.5 6h-133v226h133q57 0 69.5 28t12.5 115v92q0 28 -15.5 45t-45.5 17t-46 -17.5t-16 -44.5z" />
    <glyph glyph-name="afii10074" unicode="&#x438;" horiz-adv-x="1044" 
d="M635 1331h348v-1331h-389l41 635l-225 -635h-349v1331h390l-41 -676z" />
    <glyph glyph-name="afii10075" unicode="&#x439;" horiz-adv-x="1044" 
d="M635 1331h348v-1331h-389l41 635l-225 -635h-349v1331h390l-41 -676zM717 1782h143v-41q0 -154 -79 -241t-249 -87q-327 0 -327 328v41h143q0 -19 6.5 -35.5t23.5 -35.5t56.5 -30.5t97.5 -11.5t97.5 11.5t57 30.5t24 35.5t6.5 35.5z" />
    <glyph glyph-name="afii10076" unicode="&#x43a;" horiz-adv-x="1003" 
d="M61 1331h390v-502q44 0 68 41t24 154q0 80 4 141.5t10.5 91.5t12.5 48t10 22l4 4h389v-41q-5 -4 -11.5 -15t-18 -73t-11.5 -158q0 -67 -9 -121.5t-23.5 -89t-32 -60t-35 -37.5t-32 -19.5t-23.5 -8.5l-9 -1h-20v-21h20q7 0 19 -1.5t42 -15.5t52.5 -38t41.5 -76.5
t19 -124.5v-92q0 -77 4 -136t10 -88t12.5 -47t10.5 -22l4 -4v-41h-389q-41 22 -41 338v82q0 27 -0.5 39t-4.5 27.5t-12.5 21t-24.5 10t-40 4.5h-20v-522h-390v1331z" />
    <glyph glyph-name="afii10077" unicode="&#x43b;" horiz-adv-x="1116" 
d="M205 1331h850v-1331h-389v983h-113v-225q0 -160 -8.5 -278t-29 -205.5t-49.5 -143.5t-74 -90t-99 -47.5t-129 -13.5q-45 0 -81 5t-49 10l-14 5v328h41q29 0 46.5 4.5t36 22t28 52.5t18.5 95t12 150t3 218v461z" />
    <glyph glyph-name="afii10078" unicode="&#x43c;" horiz-adv-x="1372" 
d="M1352 0h-359l-10 645h-20l-134 -645h-286l-133 645h-21l-10 -645h-359l99 1331h407l150 -727h20l150 727h407z" />
    <glyph glyph-name="afii10079" unicode="&#x43d;" 
d="M573 1331h390v-1331h-390v512h-122v-512h-390v1331h390v-471h122v471z" />
    <glyph glyph-name="afii10080" unicode="&#x43e;" horiz-adv-x="983" 
d="M41 440v451q0 471 451 471q124 0 212.5 -34t139.5 -98.5t74.5 -147.5t23.5 -191v-451q0 -108 -23.5 -191t-74.5 -147.5t-139.5 -98.5t-212.5 -34q-451 0 -451 471zM553 297v737q0 28 -15.5 45t-45.5 17t-46 -17.5t-16 -44.5v-737q0 -27 16 -44t46 -17t45.5 17t15.5 44z
" />
    <glyph glyph-name="afii10081" unicode="&#x43f;" 
d="M61 1331h902v-1331h-390v983h-122v-983h-390v1331z" />
    <glyph glyph-name="afii10082" unicode="&#x440;" horiz-adv-x="1003" 
d="M61 -307v1638h390l-21 -164h21q2 8 7.5 21t26 46.5t45.5 59.5t69.5 47t96.5 21q124 0 195.5 -83t71.5 -265v-625q0 -119 -21 -203t-61.5 -130.5t-90 -66.5t-114.5 -20q-45 0 -84.5 12t-63.5 28.5t-42.5 35.5t-26 30t-8.5 15v-397h-390zM573 266v738q0 32 -15.5 51.5
t-45.5 19.5t-45.5 -19.5t-15.5 -51.5v-738q0 -32 15.5 -51.5t45.5 -19.5t45.5 19.5t15.5 51.5z" />
    <glyph glyph-name="afii10083" unicode="&#x441;" horiz-adv-x="983" 
d="M553 799v235q0 28 -15.5 45t-45.5 17t-46 -17.5t-16 -44.5v-737q0 -27 16 -44t46 -17t45.5 17t15.5 44v287h389v-144q0 -108 -23.5 -191t-74.5 -147.5t-139.5 -98.5t-212.5 -34q-451 0 -451 471v451q0 471 451 471q124 0 212.5 -34t139.5 -98.5t74.5 -147.5t23.5 -191
v-92h-389z" />
    <glyph glyph-name="afii10084" unicode="&#x442;" horiz-adv-x="901" 
d="M20 1331h861v-327h-236v-1004h-389v1004h-236v327z" />
    <glyph glyph-name="afii10085" unicode="&#x443;" horiz-adv-x="1054" 
d="M553 410l72 921h409l-164 -1085q-18 -120 -36 -201.5t-43.5 -149.5t-56.5 -108t-77 -67.5t-102 -37.5t-135 -10h-359v328h215l-256 1331h410l102 -921h21z" />
    <glyph glyph-name="afii10086" unicode="&#x444;" horiz-adv-x="1454" 
d="M532 1638h390v-399q3 5 9.5 13.5t28 29.5t44.5 37t59.5 29.5t73.5 13.5q57 0 104 -17.5t87 -55t62.5 -105.5t22.5 -160v-676q0 -196 -75.5 -287.5t-200.5 -91.5q-40 0 -77 12.5t-61 30.5t-42 36.5t-27 31.5l-8 12v-399h-390v397q-5 -9 -10.5 -17t-25.5 -29t-42.5 -35.5
t-59 -27t-77.5 -12.5q-57 0 -104 17.5t-87 55t-62.5 105.5t-22.5 160v676q0 196 75.5 287.5t200.5 91.5q40 0 77 -12.5t61 -31t42 -36.5t27 -30l8 -13v399zM922 1085v-839q0 -23 14 -37t37 -14t37 14t14 37v839q0 23 -14 37.5t-37 14.5t-37 -14.5t-14 -37.5zM430 1085v-839
q0 -23 14 -37t37 -14t37 14t14 37v839q0 23 -14 37.5t-37 14.5t-37 -14.5t-14 -37.5z" />
    <glyph glyph-name="afii10087" unicode="&#x445;" horiz-adv-x="1032" 
d="M20 1331h400l86 -368h20l86 368h400l-230 -655l230 -676h-400l-86 379h-20l-86 -379h-400l230 676z" />
    <glyph glyph-name="afii10088" unicode="&#x446;" horiz-adv-x="1146" 
d="M963 348h163v-594h-389v246h-676v1331h390v-983h122v983h390v-983z" />
    <glyph glyph-name="afii10089" unicode="&#x447;" horiz-adv-x="1003" 
d="M430 1331v-563q0 -32 16 -52t46 -20t45.5 20t15.5 52v563h389v-1331h-389v500q-67 -111 -215 -111q-64 0 -116 19.5t-93.5 61t-64.5 115t-23 173.5v573h389z" />
    <glyph glyph-name="afii10090" unicode="&#x448;" horiz-adv-x="1515" 
d="M1454 0h-1393v1331h390v-1003h112v1003h389v-1003h113v1003h389v-1331z" />
    <glyph glyph-name="afii10091" unicode="&#x449;" horiz-adv-x="1638" 
d="M1454 348h164v-594h-389v246h-1168v1331h390v-983h112v983h389v-983h113v983h389v-983z" />
    <glyph glyph-name="afii10092" unicode="&#x44a;" horiz-adv-x="1157" 
d="M707 0h-471v1004h-216v327h605v-389h82q409 0 409 -430v-82q0 -430 -409 -430zM727 369v204q0 28 -15.5 45t-45.5 17h-41v-328h41q30 0 45.5 17t15.5 45z" />
    <glyph glyph-name="afii10093" unicode="&#x44b;" horiz-adv-x="1464" 
d="M1014 1331h389v-1331h-389v1331zM553 369v204q0 28 -15.5 45t-45.5 17h-41v-328h41q30 0 45.5 17t15.5 45zM532 0h-471v1331h390v-389h81q410 0 410 -430v-82q0 -430 -410 -430z" />
    <glyph glyph-name="afii10094" unicode="&#x44c;" horiz-adv-x="983" 
d="M553 369v204q0 28 -15.5 45t-45.5 17h-41v-328h41q30 0 45.5 17t15.5 45zM532 0h-471v1331h390v-389h81q410 0 410 -430v-82q0 -430 -410 -430z" />
    <glyph glyph-name="afii10095" unicode="&#x44d;" horiz-adv-x="983" 
d="M553 799v235q0 28 -15.5 45t-45.5 17t-46 -17.5t-16 -44.5v-153h-389v71q0 85 23.5 155.5t74.5 129.5t141 92t212 33t212 -33t140.5 -92t74 -129.5t23.5 -155.5v-583q0 -85 -23.5 -154t-74 -126t-140.5 -88.5t-212 -31.5t-212 31.5t-141 88.5t-74.5 126.5t-23.5 153.5
v116h389v-188q0 -27 16 -44t46 -17t45.5 17t15.5 44v276h-287v226h287z" />
    <glyph glyph-name="afii10096" unicode="&#x44e;" horiz-adv-x="1484" 
d="M543 819v72q0 108 23.5 191t74.5 147.5t139.5 98.5t212.5 34q451 0 451 -471v-451q0 -471 -451 -471q-124 0 -212.5 34t-139.5 98.5t-74.5 147.5t-23.5 191v72h-92v-512h-390v1331h390v-512h92zM1055 317v697q0 27 -16 44t-46 17t-45.5 -17t-15.5 -44v-697
q0 -27 15.5 -44t45.5 -17t46 17t16 44z" />
    <glyph glyph-name="afii10097" unicode="&#x44f;" 
d="M963 1331v-1331h-390v471h-51q-38 0 -54.5 -26t-16.5 -87v-20q0 -282 -37 -334l-4 -4h-390v41q5 1 11.5 9.5t18 70t11.5 166.5q0 89 19 155t46 97.5t54.5 50t46.5 21.5l19 3h20v21h-20q-7 1 -19 5t-42 24.5t-52.5 51.5t-41.5 93.5t-19 142.5q0 193 95 286t294 93h502z
M573 768v246h-61q-61 0 -61 -62v-71q0 -63 19.5 -88t72.5 -25h30z" />
    <glyph glyph-name="afii10071" unicode="&#x451;" horiz-adv-x="983" 
d="M492 236q30 0 45.5 17t15.5 44v225h389v-82q0 -108 -23.5 -191t-74.5 -147.5t-139.5 -98.5t-212.5 -34q-451 0 -451 471v451q0 471 451 471q124 0 212.5 -34t139.5 -98.5t74.5 -147.5t23.5 -191v-256h-512v-338q0 -27 16 -44t46 -17zM553 819v215q0 28 -15.5 45t-45.5 17
t-46 -17.5t-16 -44.5v-215h123zM92 1751h359v-328h-359v328zM532 1751h359v-328h-359v328z" />
    <glyph glyph-name="afii10099" unicode="&#x452;" 
d="M573 0v952q0 32 -15.5 52t-45.5 20t-45.5 -20t-15.5 -52v-952h-390v1393h-163v184h174v174l379 92v-266h194v-184h-194v-277q3 9 9 23.5t28.5 51.5t49 65.5t72 51.5t97.5 23q256 0 256 -348v-922q0 -84 -6.5 -144t-25.5 -117t-52.5 -92t-89.5 -56t-134 -21h-245v308h102
q30 0 45.5 17t15.5 44z" />
    <glyph glyph-name="afii10100" unicode="&#x453;" horiz-adv-x="778" 
d="M61 1331h697v-327h-307v-1004h-390v1331zM788 1884l-276 -471h-266l143 471h399z" />
    <glyph glyph-name="afii10101" unicode="&#x454;" horiz-adv-x="983" 
d="M430 1034v-235h287v-226h-287v-276q0 -27 16 -44t46 -17t45.5 17t15.5 44v188h389v-116q0 -85 -23.5 -154t-74 -126t-140.5 -88.5t-212 -31.5t-212 31.5t-141 88.5t-74.5 126.5t-23.5 153.5v583q0 85 23.5 155.5t74.5 129.5t141 92t212 33t212 -33t140.5 -92t74 -129.5
t23.5 -155.5v-71h-389v153q0 28 -15.5 45t-45.5 17t-46 -17.5t-16 -44.5z" />
    <glyph glyph-name="afii10102" unicode="&#x455;" horiz-adv-x="974" 
d="M487 236q30 0 46 17t16 44v51q0 54 -27.5 97t-72 74t-98 60.5t-107 64.5t-98 77t-72 106.5t-27.5 145.5q0 80 25 148t75.5 123t137.5 86.5t202 31.5q100 0 179 -23.5t127 -60t79.5 -84.5t43.5 -92.5t12 -87.5v-144h-379v164q0 27 -16 44.5t-46 17.5t-45.5 -17t-15.5 -45
v-41q0 -45 28 -83t73.5 -67t100 -58.5t109 -67.5t100 -84t73.5 -117t28 -158q0 -389 -451 -389q-101 0 -180 22t-129 57.5t-82.5 84.5t-45.5 99.5t-13 105.5v154h389v-195q0 -27 15.5 -44t45.5 -17z" />
    <glyph glyph-name="afii10103" unicode="&#x456;" horiz-adv-x="512" 
d="M61 1331h390v-1331h-390v1331zM61 1720h390v-307h-390v307z" />
    <glyph glyph-name="afii10104" unicode="&#x457;" horiz-adv-x="512" 
d="M61 1331h390v-1331h-390v1331zM-113 1720h328v-307h-328v307zM297 1720h328v-307h-328v307z" />
    <glyph glyph-name="afii10105" unicode="&#x458;" horiz-adv-x="512" 
d="M61 1720h390v-307h-390v307zM61 0v1331h390v-1270q0 -84 -6.5 -144t-25.5 -117t-52.5 -92t-89.5 -56t-134 -21h-245v308h102q30 0 45.5 17t15.5 44z" />
    <glyph glyph-name="afii10106" unicode="&#x459;" horiz-adv-x="1587" 
d="M1137 0h-471v983h-113v-225q0 -160 -8.5 -278t-29 -205.5t-49.5 -143.5t-74 -90t-99 -47.5t-129 -13.5q-45 0 -81 5t-49 10l-14 5v328h41q29 0 46.5 4.5t36 22t28 52.5t18.5 95t12 150t3 218v461h850v-389h82q409 0 409 -430v-82q0 -430 -409 -430zM1157 369v204
q0 28 -15.5 45t-45.5 17h-41v-328h41q30 0 45.5 17t15.5 45z" />
    <glyph glyph-name="afii10107" unicode="&#x45a;" horiz-adv-x="1495" 
d="M1044 0h-471v553h-122v-553h-390v1331h390v-430h122v430h390v-409h81q410 0 410 -430v-62q0 -430 -410 -430zM1065 369v184q0 27 -15.5 44t-45.5 17h-41v-307h41q30 0 45.5 17t15.5 45z" />
    <glyph glyph-name="afii10108" unicode="&#x45b;" 
d="M573 0v952q0 32 -15.5 52t-45.5 20t-45.5 -20t-15.5 -52v-952h-390v1393h-163v184h174v174l379 92v-266h194v-184h-194v-277q3 9 9 23.5t28.5 51.5t49 65.5t72 51.5t97.5 23q256 0 256 -348v-983h-390z" />
    <glyph glyph-name="afii10109" unicode="&#x45c;" horiz-adv-x="1003" 
d="M61 1331h390v-502q44 0 68 41t24 154q0 80 4 141.5t10.5 91.5t12.5 48t10 22l4 4h389v-41q-5 -4 -11.5 -15t-18 -73t-11.5 -158q0 -67 -9 -121.5t-23.5 -89t-32 -60t-35 -37.5t-32 -19.5t-23.5 -8.5l-9 -1h-20v-21h20q7 0 19 -1.5t42 -15.5t52.5 -38t41.5 -76.5
t19 -124.5v-92q0 -77 4 -136t10 -88t12.5 -47t10.5 -22l4 -4v-41h-389q-41 22 -41 338v82q0 27 -0.5 39t-4.5 27.5t-12.5 21t-24.5 10t-40 4.5h-20v-522h-390v1331zM911 1884l-276 -471h-266l143 471h399z" />
    <glyph glyph-name="afii10110" unicode="&#x45e;" horiz-adv-x="1054" 
d="M553 410l72 921h409l-164 -1085q-18 -120 -36 -201.5t-43.5 -149.5t-56.5 -108t-77 -67.5t-102 -37.5t-135 -10h-359v328h215l-256 1331h410l102 -921h21zM717 1782h143v-41q0 -154 -79 -241t-249 -87q-327 0 -327 328v41h143q0 -19 6.5 -35.5t23.5 -35.5t56.5 -30.5
t97.5 -11.5t97.5 11.5t57 30.5t24 35.5t6.5 35.5z" />
    <glyph glyph-name="afii10193" unicode="&#x45f;" 
d="M317 0h-256v1331h390v-983h122v983h390v-1331h-256v-307h-390v307z" />
    <glyph glyph-name="afii10050" unicode="&#x490;" horiz-adv-x="901" 
d="M512 1638v226h369v-594h-410v-1270h-410v1638h451z" />
    <glyph glyph-name="afii10098" unicode="&#x491;" horiz-adv-x="860" 
d="M512 1331v225h328v-552h-389v-1004h-390v1331h451z" />
    <glyph glyph-name="uni1E02" unicode="&#x1e02;" horiz-adv-x="1040" 
d="M573 0h-512v1638h482q123 0 210.5 -32t136.5 -91.5t71 -134.5t22 -172q0 -63 -9 -115.5t-23.5 -87t-32 -61.5t-35 -41.5t-32 -24t-23.5 -12.5l-9 -2h-20v-20h20q8 -1 20 -5t44 -25.5t56.5 -53.5t44.5 -96.5t20 -147.5v-86q0 -111 -21.5 -189t-71 -133t-133 -81.5
t-205.5 -26.5zM471 696v-379h61q30 0 46 17.5t16 44.5v205q0 70 -14.5 91t-67.5 21h-41zM471 1311v-318h31q52 0 67 24t15 89v143q0 27 -16 44.5t-46 17.5h-51zM666 2028v-308h-349v308h349z" />
    <glyph glyph-name="uni1E03" unicode="&#x1e03;" horiz-adv-x="1003" 
d="M61 0v1638h390v-460q5 12 11 26t27 45t46.5 53.5t68.5 41t92 18.5q124 0 195.5 -83t71.5 -265v-625q0 -119 -21 -203.5t-60.5 -130.5t-87 -66t-108.5 -20q-48 0 -89.5 15.5t-66.5 36t-44.5 45t-26 37.5t-8.5 18v-121h-390zM512 1751h358v-328h-358v328zM573 287v737
q0 32 -15.5 52t-45.5 20t-45.5 -20t-15.5 -52v-737q0 -32 15.5 -52t45.5 -20t45.5 20t15.5 52z" />
    <glyph glyph-name="uni1E0A" unicode="&#x1e0a;" horiz-adv-x="1034" 
d="M61 0v1638h461q96 0 167.5 -13.5t130.5 -47t96 -89.5t57 -140.5t20 -200.5v-655q0 -116 -20 -200.5t-57 -140.5t-96 -89.5t-130.5 -47.5t-167.5 -14h-461zM584 461v717q0 90 -25 121.5t-88 31.5h-20v-1024h20q63 0 88 32t25 122zM676 2028v-308h-348v308h348z" />
    <glyph glyph-name="uni1E0B" unicode="&#x1e0b;" horiz-adv-x="1003" 
d="M942 1638v-1638h-348l-31 133q-2 -7 -6 -18t-22 -39t-42.5 -50t-69 -39.5t-99.5 -17.5q-127 0 -205 87.5t-78 281.5v604q0 119 21 203t61.5 130.5t90 66.5t114.5 20q53 0 96.5 -15.5t70 -40t38.5 -39t19 -26.5l1 -2v399h389zM133 1751h359v-328h-359v328zM430 1075v-788
q0 -32 16 -52t46 -20t45.5 20t15.5 52v788q0 32 -15.5 52t-45.5 20t-46 -20t-16 -52z" />
    <glyph glyph-name="uni1E1E" unicode="&#x1e1e;" horiz-adv-x="880" 
d="M799 1024v-369h-328v-655h-410v1638h779v-368h-369v-246h328zM635 2028v-308h-348v308h348z" />
    <glyph glyph-name="uni1E1F" unicode="&#x1e1f;" horiz-adv-x="819" 
d="M553 1393q0 -30 17 -46t44 -16h185v-327h-195v-1004h-389v1004h-195v327h185v103q0 84 20.5 146.5t54 100.5t85 61t106 31.5t123.5 8.5h174v-328h-154q-27 0 -44 -15.5t-17 -45.5zM635 2171v-307h-348v307h348z" />
    <glyph glyph-name="uni1E40" unicode="&#x1e40;" horiz-adv-x="1495" 
d="M451 778h-21l-20 -778h-379l106 1638h436l164 -870h21l164 870h436l106 -1638h-379l-20 778h-21l-143 -778h-307zM922 2028v-308h-349v308h349z" />
    <glyph glyph-name="uni1E41" unicode="&#x1e41;" horiz-adv-x="1536" 
d="M1085 0v983q0 32 -15.5 52t-45.5 20q-28 0 -43.5 -17.5t-17.5 -46.5v-991h-390v983q0 32 -15.5 52t-45.5 20t-45.5 -20t-15.5 -52v-983h-390v1331h390v-184q3 9 9 23.5t28.5 51.5t49 65.5t72 51.5t97.5 23q210 0 247 -236q44 109 102 166q71 70 163 70q256 0 256 -348
v-1014h-390zM584 1751h358v-328h-358v328z" />
    <glyph glyph-name="uni1E56" unicode="&#x1e56;" horiz-adv-x="1040" 
d="M594 1004v215q0 63 -14.5 82.5t-67.5 19.5h-41v-420h41q45 0 63.5 24t18.5 79zM61 1638h492q239 0 345 -113.5t106 -336.5v-144q0 -450 -431 -450h-102v-594h-410v1638zM666 2028v-308h-349v308h349z" />
    <glyph glyph-name="uni1E57" unicode="&#x1e57;" horiz-adv-x="1003" 
d="M61 -307v1638h390l-21 -164h21q2 8 7.5 21t26 46.5t45.5 59.5t69.5 47t96.5 21q124 0 195.5 -83t71.5 -265v-625q0 -119 -21 -203t-61.5 -130.5t-90 -66.5t-114.5 -20q-45 0 -84.5 12t-63.5 28.5t-42.5 35.5t-26 30t-8.5 15v-397h-390zM303 1751h359v-328h-359v328z
M573 266v738q0 32 -15.5 51.5t-45.5 19.5t-45.5 -19.5t-15.5 -51.5v-738q0 -32 15.5 -51.5t45.5 -19.5t45.5 19.5t15.5 51.5z" />
    <glyph glyph-name="uni1E60" unicode="&#x1e60;" horiz-adv-x="1015" 
d="M37 614h409v-225q0 -35 14.5 -58.5t47.5 -23.5q61 0 61 82v62q0 74 -29 130t-75 91.5t-101.5 67.5t-111 70.5t-101.5 87.5t-75 131t-29 190q0 98 27.5 178.5t82 142t143 95.5t204.5 34q235 0 350 -120.5t115 -329.5v-123h-400v153q0 82 -61 82q-33 0 -47.5 -23.5
t-14.5 -58.5v-41q0 -49 29.5 -89t76.5 -70.5t103.5 -63t113.5 -76.5t104 -100.5t76.5 -146t29.5 -201.5q0 -239 -113 -365.5t-358 -126.5q-124 0 -216 34.5t-147 98t-81.5 148t-26.5 190.5v174zM684 2028v-308h-348v308h348z" />
    <glyph glyph-name="uni1E61" unicode="&#x1e61;" horiz-adv-x="974" 
d="M487 236q30 0 46 17t16 44v51q0 54 -27.5 97t-72 74t-98 60.5t-107 64.5t-98 77t-72 106.5t-27.5 145.5q0 80 25 148t75.5 123t137.5 86.5t202 31.5q100 0 179 -23.5t127 -60t79.5 -84.5t43.5 -92.5t12 -87.5v-144h-379v164q0 27 -16 44.5t-46 17.5t-45.5 -17t-15.5 -45
v-41q0 -45 28 -83t73.5 -67t100 -58.5t109 -67.5t100 -84t73.5 -117t28 -158q0 -389 -451 -389q-101 0 -180 22t-129 57.5t-82.5 84.5t-45.5 99.5t-13 105.5v154h389v-195q0 -27 15.5 -44t45.5 -17zM313 1751h359v-328h-359v328z" />
    <glyph glyph-name="uni1E6A" unicode="&#x1e6a;" horiz-adv-x="983" 
d="M20 1638h943v-368h-267v-1270h-409v1270h-267v368zM666 2028v-308h-349v308h349z" />
    <glyph glyph-name="uni1E6B" unicode="&#x1e6b;" horiz-adv-x="808" 
d="M788 1004h-194v-635q0 -33 12.5 -47.5t48.5 -14.5h72v-307q-51 -20 -184 -20q-66 0 -118 11.5t-87 29.5t-60 48t-39 60t-22 73.5t-10 79.5t-2 87v635h-185v327h195v215l379 92v-307h194v-327zM573 2007v-307h-348v307h348z" />
    <glyph glyph-name="Wgrave" unicode="&#x1e80;" horiz-adv-x="1679" 
d="M1659 1638h-430l-51 -1085h-21l-106 1085h-422l-107 -1085h-20l-51 1085h-431l195 -1638h533l81 897h21l82 -897h532zM686 1720l-276 471h399l143 -471h-266z" />
    <glyph glyph-name="wgrave" unicode="&#x1e81;" horiz-adv-x="1556" 
d="M1096 471h-21l-112 860h-369l-113 -860h-20l-51 860h-390l168 -1331h490l90 696h20l91 -696h489l168 1331h-389zM655 1413l-256 471h400l123 -471h-267z" />
    <glyph glyph-name="Wacute" unicode="&#x1e82;" horiz-adv-x="1679" 
d="M1229 1638h430l-195 -1638h-532l-82 897h-21l-81 -897h-533l-195 1638h431l51 -1085h20l107 1085h422l106 -1085h21zM1229 2191l-277 -471h-266l143 471h400z" />
    <glyph glyph-name="wacute" unicode="&#x1e83;" horiz-adv-x="1556" 
d="M1075 471h21l51 860h389l-168 -1331h-489l-91 696h-20l-90 -696h-490l-168 1331h390l51 -860h20l113 860h369zM1157 1884l-276 -471h-267l144 471h399z" />
    <glyph glyph-name="Wdieresis" unicode="&#x1e84;" horiz-adv-x="1679" 
d="M1229 1638h430l-195 -1638h-532l-82 897h-21l-81 -897h-533l-195 1638h431l51 -1085h20l107 1085h422l90 -1081l37 -4zM799 2028v-308h-348v308h348zM1229 2028v-308h-348v308h348z" />
    <glyph glyph-name="wdieresis" unicode="&#x1e85;" horiz-adv-x="1556" 
d="M1075 471h21l51 860h389l-168 -1331h-489l-91 696h-20l-90 -696h-490l-168 1331h390l51 -860h20l113 860h369zM379 1751h358v-328h-358v328zM819 1751h359v-328h-359v328z" />
    <glyph glyph-name="Ygrave" unicode="&#x1ef2;" horiz-adv-x="1105" 
d="M784 0v502q0 46 8.5 78.5t26 71t25.5 65.5l241 829v92h-430l-92 -655h-20l-92 655h-431v-92l242 -829q8 -27 25.5 -65.5t26 -71t8.5 -78.5v-502h462zM440 1720l-276 471h399l144 -471h-267z" />
    <glyph glyph-name="ygrave" unicode="&#x1ef3;" horiz-adv-x="1054" 
d="M625 1331l-72 -921h-21l-102 921h-410l256 -1331h-215v-328h359q79 0 135 10t102 37.5t77 67.5t56.5 108t43.5 149.5t36 201.5l164 1085h-409zM410 1413l-256 471h399l123 -471h-266z" />
    <glyph glyph-name="endash" unicode="&#x2013;" 
d="M983 901v-348h-942v348h942z" />
    <glyph glyph-name="emdash" unicode="&#x2014;" horiz-adv-x="1454" 
d="M1413 901v-348h-1372v348h1372z" />
    <glyph glyph-name="quoteleft" unicode="&#x2018;" horiz-adv-x="471" 
d="M41 932v348q0 193 69.5 275.5t237.5 82.5h82v-204q-98 0 -131 -20t-33 -93v-21h164v-368h-389z" />
    <glyph glyph-name="quoteright" unicode="&#x2019;" horiz-adv-x="471" 
d="M430 1638v-348q0 -193 -69.5 -275.5t-237.5 -82.5h-82v205q98 0 131 19.5t33 92.5v21h-164v368h389z" />
    <glyph glyph-name="quotesinglbase" unicode="&#x201a;" horiz-adv-x="471" 
d="M430 369v-349q0 -193 -69.5 -275.5t-237.5 -82.5h-82v205q98 0 131 20t33 93v20h-164v369h389z" />
    <glyph glyph-name="quotedblleft" unicode="&#x201c;" horiz-adv-x="931" 
d="M502 932v348q0 193 69.5 275.5t237.5 82.5h82v-204q-98 0 -131 -20t-33 -93v-21h164v-368h-389zM41 932v348q0 193 69.5 275.5t237.5 82.5h82v-204q-98 0 -131 -20t-33 -93v-21h164v-368h-389z" />
    <glyph glyph-name="quotedblright" unicode="&#x201d;" horiz-adv-x="931" 
d="M430 1638v-348q0 -193 -69.5 -275.5t-237.5 -82.5h-82v205q98 0 131 19.5t33 92.5v21h-164v368h389zM891 1638v-348q0 -193 -69.5 -275.5t-237.5 -82.5h-82v205q98 0 131 19.5t33 92.5v21h-164v368h389z" />
    <glyph glyph-name="quotedblbase" unicode="&#x201e;" horiz-adv-x="931" 
d="M430 369v-349q0 -193 -69.5 -275.5t-237.5 -82.5h-82v205q98 0 131 20t33 93v20h-164v369h389zM891 369v-349q0 -193 -69.5 -275.5t-237.5 -82.5h-82v205q98 0 131 20t33 93v20h-164v369h389z" />
    <glyph glyph-name="dagger" unicode="&#x2020;" horiz-adv-x="942" 
d="M317 1679h308v-71l-31 -256l215 20h72v-287h-72l-211 23l27 -565v-72h-308v72l27 565l-211 -23h-72v287h72l215 -20l-31 256v71z" />
    <glyph glyph-name="daggerdbl" unicode="&#x2021;" horiz-adv-x="942" 
d="M317 1679h308v-71l-31 -256l215 20h72v-287h-72l-215 23v-166l215 21h72v-287h-72l-211 22l27 -422v-71h-308v71l27 422l-211 -22h-72v287h72l215 -21v166l-215 -23h-72v287h72l215 -20l-31 256v71z" />
    <glyph glyph-name="bullet" unicode="&#x2022;" horiz-adv-x="798" 
d="M123 840q0 116 80.5 196t195.5 80q116 0 196.5 -80.5t80.5 -195.5q0 -116 -81 -196.5t-196 -80.5t-195.5 80.5t-80.5 196.5z" />
    <glyph glyph-name="ellipsis" unicode="&#x2026;" horiz-adv-x="1822" 
d="M512 369v-369h-389v369h389zM1106 369v-369h-389v369h389zM1700 369v-369h-389v369h389z" />
    <glyph glyph-name="perthousand" unicode="&#x2030;" horiz-adv-x="2267" 
d="M428 0l819 1638h-164l-819 -1638h164zM461 1229v123q0 102 -72 102t-72 -102v-123q0 -103 72 -103t72 103zM41 1290q0 192 93.5 285.5t254.5 93.5t254.5 -93.5t93.5 -285.5t-93.5 -285.5t-254.5 -93.5t-254.5 93.5t-93.5 285.5zM1192 287v123q0 102 -72 102
q-71 0 -71 -102v-123q0 -103 71 -103q72 0 72 103zM772 348q0 192 93.5 285.5t254.5 93.5t254.5 -93.5t93.5 -285.5t-93.5 -285.5t-254.5 -93.5t-254.5 93.5t-93.5 285.5zM1950 287v123q0 102 -72 102t-72 -102v-123q0 -103 72 -103t72 103zM1530 348q0 192 93.5 285.5
t254.5 93.5t254.5 -93.5t93.5 -285.5t-93.5 -285.5t-254.5 -93.5t-254.5 93.5t-93.5 285.5z" />
    <glyph glyph-name="guilsinglleft" unicode="&#x2039;" horiz-adv-x="696" 
d="M389 1147h266l-245 -440l245 -441h-266l-348 441z" />
    <glyph glyph-name="guilsinglright" unicode="&#x203a;" horiz-adv-x="696" 
d="M41 1147h266l348 -440l-348 -441h-266l246 441z" />
    <glyph glyph-name="Euro" unicode="&#x20ac;" horiz-adv-x="1269" 
d="M287 481v154h-267v164h267v82h-267v163h267v113q0 512 471 512t471 -512v-51h-410v143q0 82 -61 82q-33 0 -47.5 -23.5t-14.5 -58.5v-205h328v-163h-328v-82h328v-164h-328v-246q0 -35 14.5 -58.5t47.5 -23.5q61 0 61 82v184h410v-92q0 -512 -471 -512t-471 512z" />
    <glyph glyph-name="afii61352" unicode="&#x2116;" horiz-adv-x="1822" 
d="M61 1638h359l235 -747l-30 747h379v-1638h-359l-235 748l30 -748h-379v1638zM1782 829h-697v-266h697v266zM1505 1229v123q0 102 -71 102q-72 0 -72 -102v-123q0 -103 72 -103q71 0 71 103zM1085 1290q0 192 94 285.5t255 93.5t254.5 -93.5t93.5 -285.5t-93.5 -285.5
t-254.5 -93.5t-255 93.5t-94 285.5z" />
    <glyph glyph-name="trademark" unicode="&#x2122;" horiz-adv-x="1382" 
d="M41 1638h512v-204h-139v-461h-236v461h-137v204zM1321 973h-231l16 303h-31l-57 -303h-164l-55 303h-31l14 -303h-229l59 665h244l76 -321h10l74 321h246z" />
    <glyph glyph-name="CR" horiz-adv-x="348" 
 />
    <glyph glyph-name="Imacron" horiz-adv-x="532" 
d="M-102 1720v164h737v-164h-737zM471 0v1638h-410v-1638h410z" />
    </font>
</defs>
</svg>
